<svg xmlns="http://www.w3.org/2000/svg" xmlns:xlink="http://www.w3.org/1999/xlink" viewBox="0 0 281.17 88.32"><defs><style>.cls-1{fill:none;}.cls-2{isolation:isolate;}.cls-3{clip-path:url(#clip-path);}.cls-4{fill:url(#linear-gradient);}.cls-5{opacity:0.66;}.cls-38,.cls-5,.cls-78{mix-blend-mode:lighten;}.cls-6{opacity:0;fill:url(#linear-gradient-2);}.cls-7{opacity:0.03;fill:url(#linear-gradient-3);}.cls-8{opacity:0.06;fill:url(#linear-gradient-4);}.cls-9{opacity:0.1;fill:url(#linear-gradient-5);}.cls-10{opacity:0.13;fill:url(#linear-gradient-6);}.cls-11{opacity:0.16;fill:url(#linear-gradient-7);}.cls-12{opacity:0.19;fill:url(#linear-gradient-8);}.cls-13{opacity:0.23;fill:url(#linear-gradient-9);}.cls-14{opacity:0.26;fill:url(#linear-gradient-10);}.cls-15{opacity:0.29;fill:url(#linear-gradient-11);}.cls-16{opacity:0.32;fill:url(#linear-gradient-12);}.cls-17{opacity:0.35;fill:url(#linear-gradient-13);}.cls-18{opacity:0.39;fill:url(#linear-gradient-14);}.cls-19{opacity:0.42;fill:url(#linear-gradient-15);}.cls-20{opacity:0.45;fill:url(#linear-gradient-16);}.cls-21{opacity:0.48;fill:url(#linear-gradient-17);}.cls-22{opacity:0.52;fill:url(#linear-gradient-18);}.cls-23{opacity:0.55;fill:url(#linear-gradient-19);}.cls-24{opacity:0.58;fill:url(#linear-gradient-20);}.cls-25{opacity:0.61;fill:url(#linear-gradient-21);}.cls-26{opacity:0.65;fill:url(#linear-gradient-22);}.cls-27{opacity:0.68;fill:url(#linear-gradient-23);}.cls-28{opacity:0.71;fill:url(#linear-gradient-24);}.cls-29{opacity:0.74;fill:url(#linear-gradient-25);}.cls-30{opacity:0.77;fill:url(#linear-gradient-26);}.cls-31{opacity:0.81;fill:url(#linear-gradient-27);}.cls-32{opacity:0.84;fill:url(#linear-gradient-28);}.cls-33{opacity:0.87;fill:url(#linear-gradient-29);}.cls-34{opacity:0.9;fill:url(#linear-gradient-30);}.cls-35{opacity:0.94;fill:url(#linear-gradient-31);}.cls-36{opacity:0.97;fill:url(#linear-gradient-32);}.cls-37{fill:url(#linear-gradient-33);}.cls-38{fill:#fafbec;opacity:0.51;}.cls-39{fill:url(#linear-gradient-34);}.cls-40{fill:url(#linear-gradient-35);}.cls-41{fill:#884a50;}.cls-42{fill:url(#linear-gradient-36);}.cls-43{fill:#b1634e;}.cls-44{fill:url(#linear-gradient-37);}.cls-45{fill:url(#linear-gradient-38);}.cls-46{fill:url(#linear-gradient-39);}.cls-47{clip-path:url(#clip-path-2);}.cls-48{fill:url(#linear-gradient-40);}.cls-49{opacity:0.15;mix-blend-mode:multiply;}.cls-50{fill:#7b3b44;}.cls-51{fill:#7f404c;}.cls-52{clip-path:url(#clip-path-3);}.cls-53{fill:url(#linear-gradient-41);}.cls-54{fill:url(#linear-gradient-42);}.cls-55{fill:url(#linear-gradient-43);}.cls-56{fill:url(#linear-gradient-44);}.cls-57{fill:url(#linear-gradient-45);}.cls-58{fill:url(#linear-gradient-46);}.cls-59{fill:url(#linear-gradient-47);}.cls-60{fill:url(#linear-gradient-48);}.cls-61{fill:url(#linear-gradient-49);}.cls-62{fill:url(#linear-gradient-50);}.cls-63{fill:url(#linear-gradient-51);}.cls-64{fill:url(#linear-gradient-52);}.cls-65{fill:url(#linear-gradient-53);}.cls-66{fill:url(#linear-gradient-54);}.cls-67{fill:url(#linear-gradient-55);}.cls-68{fill:url(#linear-gradient-56);}.cls-69{fill:url(#linear-gradient-57);}.cls-70{fill:url(#linear-gradient-58);}.cls-71{fill:url(#linear-gradient-59);}.cls-72{fill:url(#linear-gradient-60);}.cls-73{fill:url(#linear-gradient-61);}.cls-74{fill:url(#linear-gradient-62);}.cls-75{fill:url(#linear-gradient-63);}.cls-76{fill:url(#linear-gradient-64);}.cls-77{fill:#551e4a;}.cls-78{fill:#a5646b;opacity:0.7;}</style><clipPath id="clip-path"><rect class="cls-1" x="56.08" width="156.94" height="84.09"/></clipPath><linearGradient id="linear-gradient" x1="135" y1="22.44" x2="135.67" y2="-7.4" gradientUnits="userSpaceOnUse"><stop offset="0" stop-color="#e9a640"/><stop offset="1" stop-color="#c77041"/></linearGradient><linearGradient id="linear-gradient-2" x1="208.28" y1="-266.46" x2="207.97" y2="-245.3" gradientTransform="translate(255.86 -286.16) rotate(162.86)" gradientUnits="userSpaceOnUse"><stop offset="0" stop-color="#fff"/><stop offset="1" stop-color="#040000"/></linearGradient><linearGradient id="linear-gradient-3" x1="208.27" y1="-266.28" x2="207.97" y2="-245.47" xlink:href="#linear-gradient-2"/><linearGradient id="linear-gradient-4" x1="208.27" y1="-266.11" x2="207.98" y2="-245.65" xlink:href="#linear-gradient-2"/><linearGradient id="linear-gradient-5" x1="208.27" y1="-265.93" x2="207.98" y2="-245.82" xlink:href="#linear-gradient-2"/><linearGradient id="linear-gradient-6" x1="208.27" y1="-265.76" x2="207.98" y2="-245.99" xlink:href="#linear-gradient-2"/><linearGradient id="linear-gradient-7" x1="208.26" y1="-265.58" x2="207.98" y2="-246.16" xlink:href="#linear-gradient-2"/><linearGradient id="linear-gradient-8" x1="208.26" y1="-265.41" x2="207.99" y2="-246.34" xlink:href="#linear-gradient-2"/><linearGradient id="linear-gradient-9" x1="208.26" y1="-265.23" x2="207.99" y2="-246.51" xlink:href="#linear-gradient-2"/><linearGradient id="linear-gradient-10" x1="208.26" y1="-265.06" x2="207.99" y2="-246.68" xlink:href="#linear-gradient-2"/><linearGradient id="linear-gradient-11" x1="208.25" y1="-264.88" x2="207.99" y2="-246.86" xlink:href="#linear-gradient-2"/><linearGradient id="linear-gradient-12" x1="208.25" y1="-264.71" x2="208" y2="-247.03" xlink:href="#linear-gradient-2"/><linearGradient id="linear-gradient-13" x1="208.25" y1="-264.53" x2="208" y2="-247.2" xlink:href="#linear-gradient-2"/><linearGradient id="linear-gradient-14" x1="208.25" y1="-264.36" x2="208" y2="-247.38" xlink:href="#linear-gradient-2"/><linearGradient id="linear-gradient-15" x1="208.24" y1="-264.19" x2="208" y2="-247.55" xlink:href="#linear-gradient-2"/><linearGradient id="linear-gradient-16" x1="208.24" y1="-264.01" x2="208.01" y2="-247.72" xlink:href="#linear-gradient-2"/><linearGradient id="linear-gradient-17" x1="208.24" y1="-263.84" x2="208.01" y2="-247.89" xlink:href="#linear-gradient-2"/><linearGradient id="linear-gradient-18" x1="208.24" y1="-263.66" x2="208.01" y2="-248.07" xlink:href="#linear-gradient-2"/><linearGradient id="linear-gradient-19" x1="208.23" y1="-263.49" x2="208.01" y2="-248.24" xlink:href="#linear-gradient-2"/><linearGradient id="linear-gradient-20" x1="208.23" y1="-263.31" x2="208.02" y2="-248.41" xlink:href="#linear-gradient-2"/><linearGradient id="linear-gradient-21" x1="208.23" y1="-263.14" x2="208.02" y2="-248.59" xlink:href="#linear-gradient-2"/><linearGradient id="linear-gradient-22" x1="208.23" y1="-262.96" x2="208.02" y2="-248.76" xlink:href="#linear-gradient-2"/><linearGradient id="linear-gradient-23" x1="208.22" y1="-262.79" x2="208.02" y2="-248.93" xlink:href="#linear-gradient-2"/><linearGradient id="linear-gradient-24" x1="208.22" y1="-262.61" x2="208.03" y2="-249.11" xlink:href="#linear-gradient-2"/><linearGradient id="linear-gradient-25" x1="208.22" y1="-262.44" x2="208.03" y2="-249.28" xlink:href="#linear-gradient-2"/><linearGradient id="linear-gradient-26" x1="208.22" y1="-262.26" x2="208.03" y2="-249.45" xlink:href="#linear-gradient-2"/><linearGradient id="linear-gradient-27" x1="208.21" y1="-262.09" x2="208.03" y2="-249.62" xlink:href="#linear-gradient-2"/><linearGradient id="linear-gradient-28" x1="208.21" y1="-261.92" x2="208.04" y2="-249.8" xlink:href="#linear-gradient-2"/><linearGradient id="linear-gradient-29" x1="208.21" y1="-261.74" x2="208.04" y2="-249.97" xlink:href="#linear-gradient-2"/><linearGradient id="linear-gradient-30" x1="208.21" y1="-261.57" x2="208.04" y2="-250.14" xlink:href="#linear-gradient-2"/><linearGradient id="linear-gradient-31" x1="208.2" y1="-261.39" x2="208.04" y2="-250.32" xlink:href="#linear-gradient-2"/><linearGradient id="linear-gradient-32" x1="208.2" y1="-261.22" x2="208.05" y2="-250.49" xlink:href="#linear-gradient-2"/><linearGradient id="linear-gradient-33" x1="208.2" y1="-261.04" x2="208.05" y2="-250.66" xlink:href="#linear-gradient-2"/><linearGradient id="linear-gradient-34" x1="163.27" y1="13.68" x2="150.47" y2="35.21" gradientUnits="userSpaceOnUse"><stop offset="0" stop-color="#ba6d54"/><stop offset="1" stop-color="#c2745b"/></linearGradient><linearGradient id="linear-gradient-35" x1="140.17" y1="49.41" x2="140.17" y2="24.92" gradientUnits="userSpaceOnUse"><stop offset="0" stop-color="#884a50"/><stop offset="1" stop-color="#965154"/></linearGradient><linearGradient id="linear-gradient-36" x1="138.94" y1="45.17" x2="138.7" y2="33.61" gradientUnits="userSpaceOnUse"><stop offset="0" stop-color="#b1634e"/><stop offset="1" stop-color="#c07054"/></linearGradient><linearGradient id="linear-gradient-37" x1="120.4" y1="63.51" x2="118.48" y2="33.63" gradientUnits="userSpaceOnUse"><stop offset="0" stop-color="#a65c55"/><stop offset="1" stop-color="#c07154"/></linearGradient><linearGradient id="linear-gradient-38" x1="160.06" y1="92.3" x2="128.28" y2="67.44" gradientUnits="userSpaceOnUse"><stop offset="0" stop-color="#965154"/><stop offset="1" stop-color="#a65c55"/></linearGradient><linearGradient id="linear-gradient-39" x1="104.68" y1="97.78" x2="120.15" y2="64.15" gradientUnits="userSpaceOnUse"><stop offset="0" stop-color="#7b3b44"/><stop offset="1" stop-color="#965154"/></linearGradient><clipPath id="clip-path-2"><path class="cls-1" d="M270.94,73.41c-11.81-6.81-24-13.17-37.55-17.34s-28.65-1.46-42.88-1.86c-5.5-.16-27.52,1.27-39.59,3.42a310.22,310.22,0,0,1-32.43,3.64c-6.95.42-40.5,6.2-46.16,7.49s-16.25,1.08-16.25,1.08V84.09h140c17.5,0,34.33-3.72,52-3.79,11.05,0,22.22.73,33.1-.87C277.78,77.41,274.38,75.39,270.94,73.41Z"/></clipPath><linearGradient id="linear-gradient-40" x1="229.03" y1="96.93" x2="136.74" y2="67.53" gradientUnits="userSpaceOnUse"><stop offset="0" stop-color="#6a3347"/><stop offset="1" stop-color="#7b3b44"/></linearGradient><clipPath id="clip-path-3"><path class="cls-1" d="M207.64,77.38c-8.88-1.32-18.11-.78-27.06-1.9-3.2-.4-6.37-1-9.58-1.34a110.5,110.5,0,0,0-11.8-.38l-6.22,0c-19.82.12-40.09,1.84-59.74-.56-9.86-1.2-19.59-3.08-29.5-4.08s-17.48.32-26.79,3.4c-5.47,1.81-11.61,3.26-16.53,5.93a44.78,44.78,0,0,1-5.31,2.7c-1.62.63-5.68,3-7.32,3,29-.14,58-.13,87-.13h88.3c15.07,0,30.35.72,45.35-.53-6-2.31-12.14-4.63-18.65-5.84C209.05,77.6,208.35,77.48,207.64,77.38Z"/></clipPath><linearGradient id="linear-gradient-41" x1="104.23" y1="53.14" x2="132.62" y2="116.11" gradientUnits="userSpaceOnUse"><stop offset="0" stop-color="#6a3347"/><stop offset="1" stop-color="#4b1840"/></linearGradient><linearGradient id="linear-gradient-42" x1="55.62" y1="71.06" x2="81.19" y2="52.33" xlink:href="#linear-gradient-41"/><linearGradient id="linear-gradient-43" x1="60.68" y1="77.37" x2="85.78" y2="58.99" xlink:href="#linear-gradient-41"/><linearGradient id="linear-gradient-44" x1="61.42" y1="78.62" x2="86.26" y2="60.43" xlink:href="#linear-gradient-41"/><linearGradient id="linear-gradient-45" x1="62.64" y1="79.52" x2="87.61" y2="61.23" xlink:href="#linear-gradient-41"/><linearGradient id="linear-gradient-46" x1="66.43" y1="83.77" x2="91.14" y2="65.67" xlink:href="#linear-gradient-41"/><linearGradient id="linear-gradient-47" x1="69.75" y1="87.84" x2="94.96" y2="69.38" xlink:href="#linear-gradient-41"/><linearGradient id="linear-gradient-48" x1="72.51" y1="91.58" x2="97.95" y2="72.95" xlink:href="#linear-gradient-41"/><linearGradient id="linear-gradient-49" x1="74.59" y1="93.19" x2="99.47" y2="74.96" xlink:href="#linear-gradient-41"/><linearGradient id="linear-gradient-50" x1="77.15" y1="97.25" x2="102.63" y2="78.59" xlink:href="#linear-gradient-41"/><linearGradient id="linear-gradient-51" x1="79.76" y1="99.64" x2="104.91" y2="81.22" xlink:href="#linear-gradient-41"/><linearGradient id="linear-gradient-52" x1="81.55" y1="99.19" x2="105.43" y2="81.71" xlink:href="#linear-gradient-41"/><linearGradient id="linear-gradient-53" x1="84.11" y1="105.22" x2="109.45" y2="86.67" xlink:href="#linear-gradient-41"/><linearGradient id="linear-gradient-54" x1="86.07" y1="107.63" x2="111.43" y2="89.06" xlink:href="#linear-gradient-41"/><linearGradient id="linear-gradient-55" x1="89.81" y1="110.38" x2="114.64" y2="92.21" xlink:href="#linear-gradient-41"/><linearGradient id="linear-gradient-56" x1="91.4" y1="112.89" x2="116.42" y2="94.57" xlink:href="#linear-gradient-41"/><linearGradient id="linear-gradient-57" x1="96.1" y1="118.96" x2="121.29" y2="100.52" xlink:href="#linear-gradient-41"/><linearGradient id="linear-gradient-58" x1="97.95" y1="120.42" x2="122.98" y2="102.1" xlink:href="#linear-gradient-41"/><linearGradient id="linear-gradient-59" x1="101.45" y1="121.83" x2="125.9" y2="103.92" xlink:href="#linear-gradient-41"/><linearGradient id="linear-gradient-60" x1="102.75" y1="127.12" x2="128" y2="108.62" xlink:href="#linear-gradient-41"/><linearGradient id="linear-gradient-61" x1="106.09" y1="132.77" x2="131.66" y2="114.04" xlink:href="#linear-gradient-41"/><linearGradient id="linear-gradient-62" x1="105.74" y1="130.3" x2="130.93" y2="111.86" xlink:href="#linear-gradient-41"/><linearGradient id="linear-gradient-63" x1="111.54" y1="139.41" x2="137.12" y2="120.68" xlink:href="#linear-gradient-41"/><linearGradient id="linear-gradient-64" x1="113.73" y1="145.34" x2="139.82" y2="126.23" xlink:href="#linear-gradient-41"/></defs><title>設施介紹-資產 2</title><g class="cls-2"><g id="圖層_2" data-name="圖層 2"><g id="圖層_1-2" data-name="圖層 1"><g class="cls-3"><rect class="cls-4" x="56.08" width="156.94" height="84.09"/><g class="cls-5"><ellipse class="cls-6" cx="132.39" cy="19.67" rx="6.7" ry="5.38"/><ellipse class="cls-7" cx="132.39" cy="19.67" rx="6.59" ry="5.3"/><ellipse class="cls-8" cx="132.39" cy="19.67" rx="6.48" ry="5.21"/><ellipse class="cls-9" cx="132.39" cy="19.67" rx="6.37" ry="5.12"/><ellipse class="cls-10" cx="132.39" cy="19.67" rx="6.26" ry="5.03"/><ellipse class="cls-11" cx="132.39" cy="19.67" rx="6.15" ry="4.94"/><ellipse class="cls-12" cx="132.39" cy="19.67" rx="6.04" ry="4.85"/><ellipse class="cls-13" cx="132.39" cy="19.67" rx="5.93" ry="4.76"/><ellipse class="cls-14" cx="132.39" cy="19.67" rx="5.82" ry="4.68"/><ellipse class="cls-15" cx="132.39" cy="19.67" rx="5.71" ry="4.59"/><ellipse class="cls-16" cx="132.39" cy="19.67" rx="5.6" ry="4.5"/><ellipse class="cls-17" cx="132.39" cy="19.67" rx="5.49" ry="4.41"/><ellipse class="cls-18" cx="132.39" cy="19.67" rx="5.38" ry="4.32"/><ellipse class="cls-19" cx="132.39" cy="19.67" rx="5.27" ry="4.23"/><ellipse class="cls-20" cx="132.39" cy="19.67" rx="5.16" ry="4.15"/><ellipse class="cls-21" cx="132.39" cy="19.67" rx="5.05" ry="4.06"/><ellipse class="cls-22" cx="132.39" cy="19.67" rx="4.94" ry="3.97"/><ellipse class="cls-23" cx="132.39" cy="19.67" rx="4.83" ry="3.88"/><ellipse class="cls-24" cx="132.39" cy="19.67" rx="4.72" ry="3.79"/><ellipse class="cls-25" cx="132.39" cy="19.67" rx="4.61" ry="3.7"/><ellipse class="cls-26" cx="132.39" cy="19.67" rx="4.5" ry="3.61"/><ellipse class="cls-27" cx="132.39" cy="19.67" rx="4.39" ry="3.53"/><ellipse class="cls-28" cx="132.39" cy="19.67" rx="4.28" ry="3.44"/><ellipse class="cls-29" cx="132.39" cy="19.67" rx="4.17" ry="3.35"/><ellipse class="cls-30" cx="132.39" cy="19.67" rx="4.06" ry="3.26"/><ellipse class="cls-31" cx="132.39" cy="19.67" rx="3.95" ry="3.17"/><ellipse class="cls-32" cx="132.39" cy="19.67" rx="3.84" ry="3.08"/><path class="cls-33" d="M131.29,16.8c2-.48,4.06.4,4.66,2s-.49,3.26-2.46,3.75a4,4,0,0,1-4.66-2C128.23,19,129.33,17.29,131.29,16.8Z"/><path class="cls-34" d="M131.33,16.89a3.84,3.84,0,0,1,4.52,1.92c.59,1.53-.48,3.16-2.39,3.63a3.82,3.82,0,0,1-4.52-1.92C128.35,19,129.42,17.36,131.33,16.89Z"/><path class="cls-35" d="M131.36,17a3.71,3.71,0,0,1,4.38,1.87c.58,1.48-.46,3.06-2.31,3.52A3.73,3.73,0,0,1,129,20.5C128.47,19,129.51,17.43,131.36,17Z"/><path class="cls-36" d="M131.39,17.06a3.6,3.6,0,0,1,4.25,1.8c.55,1.44-.45,3-2.25,3.42a3.6,3.6,0,0,1-4.24-1.81C128.59,19,129.6,17.5,131.39,17.06Z"/><path class="cls-37" d="M129.25,20.45c-.53-1.4.44-2.88,2.17-3.31a3.48,3.48,0,0,1,4.11,1.75c.54,1.39-.43,2.87-2.17,3.3A3.49,3.49,0,0,1,129.25,20.45Z"/></g><ellipse class="cls-38" cx="132.39" cy="19.67" rx="3.2" ry="2.57"/><polygon class="cls-39" points="56.08 39.88 107.72 41.06 213.02 39.88 213.02 84.08 56.08 84.08 56.08 39.88"/><path class="cls-40" d="M194.81,29.25v5.82l-8.11-.56s-14.65-.12-15.66-.25-10,.31-10.29.31-7.79-.31-7.79-.31L139.47,34s-4,.3-6.59.46c-1.18.07-2.06.12-2.14.1-.23-.06-7.4-.12-7.4-.12s-6.62.12-8.88.12c-1,0-2.55-.15-4.06-.32-2-.22-3.85-.46-4.2-.43-.63.07-11.46.25-12.24.25L85.8,34h-.26s1.64-.12,2.11-.63,1.63-4.32,2.49-5.51a6.19,6.19,0,0,1,2.65-2.5,3.79,3.79,0,0,0,1.23-1A8.42,8.42,0,0,1,95.28,23c.71-.44,1.56-1.13,2.26-.88a4.5,4.5,0,0,0,2.42-.05,3.15,3.15,0,0,1,2.73,0,6.14,6.14,0,0,1,2,1.55c.24.44,1.17.5,1.41.38s.46-1.5.86-1.5.7-.32,1.24-.26a10.59,10.59,0,0,1,2.18.44,4.77,4.77,0,0,0,1.48.44,6.91,6.91,0,0,0,1.72-.31,10.59,10.59,0,0,1,1.4,1.13c.47.5,1,1.19,1,1.19l1.87-.13s0-.5.77-.5a3,3,0,0,1,1.33.31h2A10,10,0,0,1,123.65,26l1.8.69a2.14,2.14,0,0,1,.85-1,5.93,5.93,0,0,1,1.87-.63c.31.07,1.41.13,1.41.13l1.09-.57a1.41,1.41,0,0,1,1.17.25,10,10,0,0,1,1.32,1,3.24,3.24,0,0,0,1.71.37,19.76,19.76,0,0,0,3-1c.23-.12,1.09-1,2-.88a11.44,11.44,0,0,1,1.72.38s1.56.06,1.95.12a6.67,6.67,0,0,1,1.16.44s1.1-.87,1.33-1a5.48,5.48,0,0,1,1.64-.44,10.52,10.52,0,0,0,1.32-.12,4.21,4.21,0,0,1,1.09.19,9.84,9.84,0,0,0,1.8-.44c.23-.06,1.4-1.19,1.63-1.32a2.14,2.14,0,0,1,.94.06l1.09-1.31s1.63-.56,2.41-.88a9.06,9.06,0,0,1,2.26-.37l.78.75L162.7,20a8,8,0,0,1,1.17-.88c.23-.06,1.87,0,1.87,0a9.8,9.8,0,0,1,1.64-1h1.79l1.17.88a2.69,2.69,0,0,0,0,1.44.88.88,0,0,0,.77.56l.71-1.44.78.13a7.54,7.54,0,0,1,1.55-1,3.46,3.46,0,0,1,1.25.32l.47,1.13,1,.68,1.33-.75.46.69.43.44.12.12V20.23l1-.19.55.44.78-.5.86-.12.85-.51.86-.06.7.63a1.61,1.61,0,0,1,.7.87c.16.57.55,2.2.55,2.2l1,3.76.07.25.18-.13.6-.44,1.71-.06v.5l.78-.81,1.09.56v1l.86,1.32.08.12,0-.06.43-.75,1.17.12Z"/><path class="cls-41" d="M103,22.22a8.73,8.73,0,0,0-1.3.93,10.73,10.73,0,0,1-.57,1.21v1.51l.52,2,.41.75V27.25l-.46-1.85L101.7,24,103,22.61Z"/><path class="cls-41" d="M99,22.44s-1.41,1-1.56,1.51-1,2.64-1,2.64a6.24,6.24,0,0,0,0,1.37,9.12,9.12,0,0,1-.78,1.79l-1.09.75s-1.87,1-1.87,1.21-.88,1.13-.88,1.13l-1.2-.21S91.88,31.13,92,31a14.2,14.2,0,0,0,.32-1.92,13.15,13.15,0,0,1,1.3-1.21,3.5,3.5,0,0,0,.83-1.28A12.85,12.85,0,0,1,95,25l.93-.29.21-1.42A4.13,4.13,0,0,1,99,22.44Z"/><path class="cls-41" d="M108.87,22.41l.47,1.24s-.78,1.62-.83,1.75a7.29,7.29,0,0,0-.94,3.18c.16,1.17.26,1.84.26,1.84l.16-2.09s.62-1.71.73-1.92,1.35-2.67,1.35-2.67l-.58-1Z"/><path class="cls-41" d="M112.51,23.45l-1.35,1s.36,1.92.36,2a12.27,12.27,0,0,1-.36,2.46c-.21.25-1.25,2.22-1.77,2.76s-.88,1-.88,1l1.56-2.17a19.25,19.25,0,0,0,.83-2.4,14.72,14.72,0,0,0,0-2.11c-.05-.21-.11-1.55-.11-1.55Z"/><path class="cls-41" d="M116,25.4l.62,1.19L115.05,28s.37,2.23,0,2.65a9.66,9.66,0,0,0-.83,1.29l1.2-1.54.21-2.4,1.55-1.61v-.83l.71-.59-1.88.13Z"/><polygon class="cls-41" points="124.2 26.59 123.11 27.04 122.74 28.48 123.21 30.71 123.47 31.67 122.74 30.09 122.54 28.02 122.89 26.95 124.2 26.59"/><path class="cls-41" d="M133.47,26l.51.76v.9l.78.34.35.63.9.48.38.59.94.31.74.79h1.09l1,1.14.63,1.64-3,.32-2.7.4s-1.59-1.12-1.67-1.22l-.66-.81s-1.95-.37-2.1-.33-2.5.42-2.5.42l-.78.21v-.92l.74-1.76s.28-1.07.16-1.16l-.9-.73.59-1,.74-.28-.35-.57-.35-.5.81-.58,1.07-.14,1.15-.41,1.17.57Z"/><path class="cls-41" d="M157.64,20.16l.8.4v3.8l.41.92-.2,2-.4-2.47s.06-2,0-2.09-.61-1.33-.61-1.33l-.35-.8Z"/><polygon class="cls-41" points="160.2 19.67 160.52 20.9 161.5 21.48 162.13 23.11 162.13 25.83 162.13 31.13 162.59 26.41 162.96 24.58 163.84 22.69 162.96 22.28 163.17 20.86 162.02 20.86 161.23 20.36 160.2 19.67"/><polygon class="cls-41" points="172.6 19.67 172.88 21.44 172.36 23.24 171.63 25.74 170.91 27.62 170.91 23.95 171.43 22.9 170.59 21.82 170.59 20.98 171.12 20.98 171.82 19.54 172.6 19.67"/><polygon class="cls-41" points="165.74 19.1 167.37 19.94 167.37 21.9 167.17 25.4 166.8 23.4 165.74 22.82 165.74 19.85 166.56 19.94 165.74 19.1"/><polygon class="cls-41" points="176.52 21.11 176.52 23.32 176.52 24.61 176.52 25.87 176.52 26.83 176.52 27.62 175.74 28.75 176.13 30.09 175.32 28.41 175.92 27.62 176.21 24.61 176.52 21.11"/><polygon class="cls-41" points="177.35 21.48 177.35 24.99 177.82 26.59 178.08 28.66 178.65 31.13 178.65 28.25 178.28 26.59 178.23 24.45 179.01 24.45 179.48 25.4 179.84 26.83 179.69 31.13 180.47 24.91 180.99 23.07 180.52 22.25 179.04 21.11 178.21 20.04 177.35 20.53 177.35 21.48"/><path class="cls-41" d="M184.16,22.74l.88,1.71s.52,2.84.52,3v2.22l.36-3.26-.46-1.88Z"/><polygon class="cls-41" points="187.21 27.21 187.68 29.34 187.44 32.19 187.68 34.29 188.26 31.13 188.26 28.84 188.26 26.42 187.48 26.77 187.21 27.21"/><polygon class="cls-41" points="189.66 26.87 189.66 28.22 189.86 30.36 190.05 28.22 190.09 26.42 189.66 26.87"/><polygon class="cls-41" points="192.19 28.63 192.19 30.36 192.73 31.75 192.46 29.38 192.19 28.63"/><path class="cls-41" d="M145,25.1l-.25,1.21-.24,1.53,1.64,4.95-1.4-2.73-1.29-2.22.47-1.06c0-.1.39-1.38.39-1.38Z"/><polygon class="cls-41" points="149.1 26.9 149.8 29.16 149.8 30.94 149.8 32.79 149.1 33.73 149.45 31.75 149.45 29.66 149.1 28.4 149.1 26.9"/><polygon class="cls-41" points="153.07 24.27 153.07 26.27 153.42 28.94 153.62 30.94 153.93 27.84 154.16 26.09 154.79 25.24 153.38 23.83 153.07 24.27"/><polygon class="cls-41" points="157.79 27.39 157.79 31.94 158.07 34.04 158.07 29.84 157.79 27.39"/><polygon class="cls-41" points="156.38 25.93 156.62 28.75 156.81 32.79 156.15 28.94 156.38 25.93"/><path class="cls-42" d="M67.88,37.81s8.73-3.53,9.76-3.52,7.9-.28,7.9-.28,99.07-.77,109.27,1.06c1.87.34,9.4,1.74,11.69,2.74s9.1,2.07,9.1,2.07-23,.47-26.46.31c-3.79-.19-36.34.63-40,.63s-57.12.5-68.13,0-18.91-.5-18.91-.5Z"/><path class="cls-43" d="M135.63,39.72s7.55-2.49,9.12-2.66,4.7,1.25,5.53,1.5,4.51,2,4.51,2-6.47-2-7.1-2.1-5,.32-5,.32Z"/><path class="cls-43" d="M163.27,37a23.15,23.15,0,0,1,5.3-1.07c2,0,7.17,2.52,8,2.85s-5.4-.91-6.63-1.3A49.56,49.56,0,0,0,163.27,37Z"/><path class="cls-43" d="M196,36.26s4.28,1.7,5.61,2.26l2.81,1.2s-5.62-.07-6.16-.39S196.91,36.45,196,36.26Z"/><path class="cls-43" d="M185,36s5.56,1.3,6.49,2,1.72,1.47,1.72,1.47-3.14,0-4.11-.59S185.71,36.24,185,36Z"/><path class="cls-43" d="M93.73,35.07s1.71,2.46,1.79,2.45S96.06,41,97.62,41s5.6.26,5.33,0-.5-2.7-2.83-4A25.64,25.64,0,0,0,93.73,35.07Z"/><path class="cls-43" d="M116.05,36.39c.59.19,2.54.94,3.08,1.72a8.8,8.8,0,0,0,2,2.1c.47.25,6.35.94,6.35.94l1.91-.2a21.68,21.68,0,0,0-4.75-2.84,60.46,60.46,0,0,0-6.7-2.1,13.7,13.7,0,0,0-4.06,0Z"/><path class="cls-43" d="M81,35.07s-6.23,2.76-7.48,3l-8.63,2s6.54-1.94,8-2.64A34.62,34.62,0,0,1,81,35.07Z"/><path class="cls-44" d="M54.61,39.88s70.09,1.79,85.58,2.62,40.29,3.56,50.95,4.7,49,10,49,10L0,59S45.82,40.46,54.61,39.88Z"/><path class="cls-45" d="M217.7,48.55s-48.2-.83-76.45,0-79.73,5.89-92,7.27-38,8.95-38,8.95L68.67,66.3l155-4.32Z"/><path class="cls-46" d="M54.33,60.7c4.76-1,9.56-1.79,14.34-2.63,4.11-.71,8.23-1.42,12.4-1.82,4.89-.47,9.82-.52,14.75-.56l85.35-.8a111.9,111.9,0,0,1,14.54.33c4.17.52,7.44,1.58,11.84,1a85.79,85.79,0,0,1,10.15-.42V84.09H4.26c8.82-7,17.47-14.16,29-18A175.06,175.06,0,0,1,54.33,60.7Z"/><g class="cls-47"><path class="cls-48" d="M270.94,73.41c-11.81-6.81-24-13.17-37.55-17.34s-28.65-1.46-42.88-1.86c-5.5-.16-27.52,1.27-39.59,3.42a310.22,310.22,0,0,1-32.43,3.64c-6.95.42-40.5,6.2-46.16,7.49s-16.25,1.08-16.25,1.08V84.09h140c17.5,0,34.33-3.72,52-3.79,11.05,0,22.22.73,33.1-.87C277.78,77.41,274.38,75.39,270.94,73.41Z"/><g class="cls-49"><path class="cls-50" d="M80.21,67.17l.15.14.18.18.27.23a8.25,8.25,0,0,0,.83.57,10.22,10.22,0,0,0,1.27.6,15.18,15.18,0,0,0,3.77.85c1.5.16,3.19.16,5,.21.9,0,1.84.08,2.78.2a17.09,17.09,0,0,1,2.84.59c1.9.53,3.8,1.32,5.93,1.81a43.88,43.88,0,0,0,6.56.72c2.19.16,4.37.39,6.49.63l7.21.82,7.38.88c2.46.31,4.88.63,7.2,1,1.17.16,2.31.35,3.42.52s2.19.35,3.23.54,2,.36,3,.55l1.41.27,1.32.27,1.26.27,1.16.26,1.08.24,1,.24c.62.15,1.19.28,1.67.41l1.25.33,1,.27-1.95-.57c-.63-.19-1.42-.39-2.33-.64l-1.48-.38-1.67-.41c-1.18-.27-2.48-.58-3.9-.87l-2.21-.45-1.17-.23L143,77l-1.24-.23-1.28-.22-1.31-.22-1.35-.22q-2.73-.43-5.69-.84c-2-.28-4-.54-6.1-.8l-6.43-.78c-2.19-.25-4.42-.52-6.68-.73-1.13-.11-2.27-.2-3.42-.28s-2.3-.12-3.43-.23q-.84-.08-1.68-.21c-.55-.08-1.1-.2-1.64-.33-1.09-.28-2.15-.63-3.23-1a31.52,31.52,0,0,0-3.31-.9,19.27,19.27,0,0,0-3.46-.37c-2.31-.08-4.58.06-6.77-.2a13.68,13.68,0,0,1-3.17-.72A7.41,7.41,0,0,1,80.21,67.17Z"/><path class="cls-50" d="M111.55,73.35c.22,0,.45.08.67.13h.11l-2-.88c-.79-.35-1.7-.72-2.62-1.15-.46-.21-.92-.45-1.38-.71a11.37,11.37,0,0,1-1.31-.86c-.42-.33-.83-.68-1.27-1a15.63,15.63,0,0,0-1.42-1,19.1,19.1,0,0,0-3.24-1.59c-1.12-.44-2.26-.8-3.36-1.13l.82.37c.52.23,1.25.56,2.09,1a29,29,0,0,1,2.68,1.46c.45.29.9.59,1.32.92s.81.67,1.22,1a11.91,11.91,0,0,0,1.51,1.08,13.69,13.69,0,0,0,1.75.89c.6.25,1.21.48,1.8.69l1.68.6.86.3A.1.1,0,0,1,111.55,73.35Z"/><path class="cls-50" d="M102.8,63.93l.34.33c.1.11.27.22.44.37l.31.21.36.22a10.75,10.75,0,0,0,2,.86c.82.27,1.77.5,2.78.74s2.11.5,3.18.87A24.15,24.15,0,0,1,115.43,69c1.06.54,2.14,1.12,3.28,1.63.58.25,1.17.48,1.78.68a13.12,13.12,0,0,0,1.87.47c1.39.25,2.83.29,4.25.44a28.35,28.35,0,0,1,4.17.78c1.37.36,2.72.76,4,1.13l3.74,1.07c4.7,1.33,8.11,2.27,8.11,2.27L142.41,76l-4.75-1.52-2.87-.91c-1-.31-2-.65-3.16-1a31.26,31.26,0,0,0-3.49-.85c-1.23-.23-2.53-.31-3.79-.43-.64-.06-1.27-.13-1.89-.24a12.8,12.8,0,0,1-1.82-.47,27.18,27.18,0,0,1-3.48-1.49c-1.15-.56-2.3-1.15-3.54-1.63a17.61,17.61,0,0,0-1.9-.63c-.65-.17-1.31-.31-2-.45-1.3-.26-2.58-.49-3.8-.85a11.84,11.84,0,0,1-1.72-.68A6.79,6.79,0,0,1,102.8,63.93Z"/><path class="cls-50" d="M157.92,76.65s-3-.82-7.32-2l-3.43-.9c-1.21-.32-2.46-.65-3.72-1s-2.52-.8-3.74-1.29-2.4-1-3.55-1.57-2.57-1.24-3.93-1.84-2.78-1.16-4.2-1.68-2.84-1-4.24-1.38-2.75-.76-4-1.05c-.64-.16-1.27-.28-1.86-.41s-1.17-.23-1.72-.32c-1.08-.2-2-.34-2.85-.46l-1.08-.14-.81-.09-.68-.08,1.27.2,1.5.26.94.17,1.06.22c.74.15,1.55.33,2.43.53l1.35.34,1.44.38c1,.28,2,.58,3.07.93s2.17.72,3.3,1.14,2.27.87,3.43,1.37c.58.25,1.15.52,1.74.78l1.76.83c1.18.57,2.38,1.15,3.64,1.7a35.22,35.22,0,0,0,3.92,1.48c1.35.43,2.73.8,4.11,1.13s2.77.65,4.15,1C152.6,75.51,155.31,76.1,157.92,76.65Z"/><path class="cls-50" d="M119.18,61.85l.69,0,1.91.12c.82,0,1.81.13,2.92.24s2.37.29,3.68.55A24,24,0,0,1,132.43,64c1.35.54,2.67,1.26,4,2,.69.36,1.4.71,2.14,1a23.52,23.52,0,0,0,2.31.83c1.58.48,3.18.83,4.7,1.25.83.23,1.66.49,2.47.8s1.63.65,2.44,1,1.63.74,2.45,1.12,1.64.74,2.48,1.09c1.66.7,3.34,1.34,5,1.92s3.23,1.1,4.75,1.54,2.93.84,4.22,1.15,2.42.57,3.38.78,1.71.35,2.24.44l.8.15-1.5-.34-1.78-.42L171.45,78l-1.25-.33-1.38-.39-1.49-.43-1.6-.5L164,75.8c-1.16-.39-2.37-.83-3.62-1.3s-2.56-1-3.88-1.57-2.67-1.18-4-1.84-2.8-1.32-4.34-1.89a45,45,0,0,0-4.81-1.38c-.82-.21-1.63-.42-2.43-.66a23.77,23.77,0,0,1-2.32-.84c-1.51-.65-2.94-1.45-4.48-2.15a20.57,20.57,0,0,0-2.38-.92,24.16,24.16,0,0,0-2.5-.65,37.21,37.21,0,0,0-5.09-.62C122.47,61.88,120.81,61.86,119.18,61.85Z"/><path class="cls-50" d="M185.9,77.87l-2.28-.45c-1.43-.29-3.47-.71-5.85-1.22s-5.1-1.13-7.92-1.8c-1.41-.33-2.85-.67-4.27-1a38.66,38.66,0,0,1-4.11-1.27A24.35,24.35,0,0,1,157.36,70c-1.32-.82-2.61-1.72-3.93-2.57a40.59,40.59,0,0,0-4.09-2.31c-1.38-.69-2.74-1.29-4-1.82s-2.52-1-3.63-1.39-2.09-.74-2.9-1l-2.61-.88,1.27.48c.83.32,2,.77,3.53,1.36l2.46,1c.87.37,1.82.77,2.8,1.23s2,.95,3,1.5,2.09,1.18,3.14,1.85,2.1,1.43,3.21,2.17a32.45,32.45,0,0,0,3.57,2.15,23.92,23.92,0,0,0,4.19,1.61c1.47.43,3,.78,4.49,1.12C173.9,75.89,180.13,77.05,185.9,77.87Z"/><path class="cls-50" d="M142.35,62.3l.49.31c.16.1.37.21.61.34s.53.27.86.42a20.66,20.66,0,0,0,2.43.9c.95.3,2,.59,3.23.89s2.44.62,3.71,1l.48.16.48.18c.32.11.63.24.94.38.63.26,1.25.57,1.87.88,1.24.63,2.49,1.32,3.8,1.94a18.92,18.92,0,0,0,4.2,1.43c1.58.34,3.23.53,4.76,1a41.78,41.78,0,0,1,4.42,1.94,81.45,81.45,0,0,0,8.73,3.31c1.36.43,2.63.81,3.77,1.15l3,.85,2.69.74-1.32-.42-3.65-1.16c-1.56-.51-3.42-1.13-5.5-1.88-1-.38-2.13-.78-3.25-1.24s-2.28-.94-3.46-1.49c-.29-.13-.59-.27-.88-.42l-.89-.43c-.6-.3-1.2-.61-1.85-.9a14.09,14.09,0,0,0-2-.76c-.72-.2-1.46-.35-2.2-.49s-1.48-.26-2.21-.42a17.09,17.09,0,0,1-2.12-.6,33.11,33.11,0,0,1-4-1.82,40.33,40.33,0,0,0-4.15-1.9A35.17,35.17,0,0,0,150.77,65c-1.51-.34-3-.65-4.43-1.06A16.87,16.87,0,0,1,142.35,62.3Z"/><path class="cls-50" d="M194.7,78.33l-7.94-3a22.33,22.33,0,0,1-3.58-1.54,21.86,21.86,0,0,1-3-2.63,17.35,17.35,0,0,0-3.65-2.44c-1.33-.7-2.73-1.29-4.09-1.84s-3.06-1.23-4.66-1.82c-.8-.31-1.61-.59-2.42-.89s-1.62-.58-2.44-.84c-1.63-.56-3.27-1.05-4.85-1.52-.8-.21-1.58-.44-2.35-.63l-1.14-.3-1.11-.26c-.73-.17-1.44-.32-2.12-.46s-1.33-.26-2-.38-1.2-.2-1.75-.29-1-.16-1.5-.22-.87-.12-1.23-.15L144,59l-.78-.08,1.45.2c.47.06,1.05.17,1.72.28s1.43.26,2.28.42l1.32.28.71.16.73.17c1,.23,2.06.51,3.18.82l1.72.48,1.79.55,1.87.6,1.92.65c1.29.45,2.63.93,4,1.45s2.74,1,4.14,1.6,2.84,1.13,4.24,1.75a25.92,25.92,0,0,1,4,2.12A13.47,13.47,0,0,1,180,71.83c.54.48,1.05,1,1.64,1.49a8,8,0,0,0,.93.69,9,9,0,0,0,1.06.57c.74.33,1.5.59,2.25.84C188.9,76.44,191.86,77.42,194.7,78.33Z"/><path class="cls-50" d="M150.79,59.62l.28.13.8.34,1.21.54.72.35c.26.12.52.24.79.38l.85.43c.29.14.58.3.88.46.6.32,1.21.66,1.84,1L160,64.38c.61.38,1.22.77,1.8,1.16s1.3.87,2,1.34,1.31,1,2,1.42c1.29,1,2.58,1.89,3.79,2.64.3.2.6.37.88.54s.56.32.83.45c.53.28,1,.51,1.42.69l.55.24.42.16.36.13-.64-.3-.74-.37c-.27-.16-.6-.33-.95-.55s-.72-.44-1.12-.71-.81-.56-1.25-.88c-.87-.64-1.8-1.38-2.81-2.19-.5-.4-1-.81-1.57-1.23s-1.11-.84-1.71-1.26-1.21-.83-1.86-1.23-1.3-.79-2-1.17-1.37-.74-2.08-1.08-1.42-.67-2.14-1-1.45-.59-2.17-.85S151.5,59.84,150.79,59.62Z"/><path class="cls-50" d="M179.35,70.67l-.18-.2c-.12-.14-.29-.34-.53-.58s-.55-.51-.91-.81-.8-.62-1.29-1-1-.66-1.6-1-1.17-.68-1.78-1-1.22-.72-1.81-1.09a19.27,19.27,0,0,1-1.68-1.18c-.57-.44-1.12-1-1.68-1.47s-1.17-1-1.8-1.53a23.92,23.92,0,0,0-3.89-2.43c-.63-.32-1.24-.59-1.79-.82s-1-.4-1.47-.55l-1-.32-.36-.1.65.25.76.31.47.21.52.24,1.18.6.65.36c.22.13.45.25.67.39.46.28.93.59,1.42.92s1,.69,1.44,1.09,1,.8,1.43,1.25.95.91,1.47,1.38A15.39,15.39,0,0,0,170,65c.62.42,1.27.8,1.93,1.17,1.33.74,2.71,1.4,4,2.12a21.27,21.27,0,0,1,1.85,1.14A14.9,14.9,0,0,1,179.35,70.67Z"/><path class="cls-50" d="M159.9,57.11l2.44.84c1.53.54,3.7,1.3,6.18,2.3a48.92,48.92,0,0,1,7.81,3.94c1.29.83,2.53,1.75,3.81,2.64a34.67,34.67,0,0,0,4.05,2.46c1.53.8,3.18,1.54,4.86,2.25l5.09,2.11,9.63,3.95,10.08,4.08s-7.82-3.5-18.62-8.16l-4.18-1.79c-1.43-.62-2.9-1.24-4.35-1.92a45.8,45.8,0,0,1-4.27-2.26c-1.37-.84-2.67-1.78-4-2.7a36.8,36.8,0,0,0-4.31-2.56c-1.51-.77-3.08-1.45-4.67-2.07C166.25,59,163,58,159.9,57.11Z"/><path class="cls-50" d="M235.29,83.19l-10.13-4.8-4.77-2.24c-1.67-.78-3.4-1.62-5.23-2.4a32.75,32.75,0,0,0-5.83-2c-2.05-.46-4.13-.71-6.09-1.11-.54-.1-1.08-.23-1.61-.37s-1.06-.3-1.59-.46c-1-.36-2.11-.74-3.12-1.2s-2-1-3-1.48S192,66.08,191,65.52c-1.89-1.13-3.71-2.31-5.51-3.4a58.49,58.49,0,0,0-5.34-2.95,35.3,35.3,0,0,0-5-2,26.28,26.28,0,0,0-4.28-1l-.45-.05-.43,0c-.28,0-.54-.06-.78-.06l-.68,0a5.6,5.6,0,0,0-.57,0l-1.05,0H168c.24,0,.53,0,.84.05l.51,0,.55.07.61.07.64.11.7.12.73.17.38.08.39.11.8.22a36.91,36.91,0,0,1,3.48,1.28c1.22.53,2.49,1.16,3.8,1.88s2.64,1.53,4,2.41,2.79,1.81,4.29,2.76,3.08,1.89,4.79,2.78a34.63,34.63,0,0,0,5.54,2.33l.75.23.77.2c.51.14,1,.25,1.55.35,1,.21,2.12.37,3.17.55s2.11.35,3.15.59a26.32,26.32,0,0,1,3,.89c2,.7,3.91,1.57,5.83,2.42l5.75,2.56C227.9,80,231.66,81.63,235.29,83.19Z"/><path class="cls-50" d="M175.41,55.13l.82.12c.53.08,1.31.21,2.28.4a57.79,57.79,0,0,1,7.72,2,41.94,41.94,0,0,1,4.7,1.92,42.55,42.55,0,0,1,4.69,2.67c1.54,1,3.07,2.05,4.66,3.07a45.84,45.84,0,0,0,4.93,2.81l.72.32.36.16.37.15.76.3.78.27a30.8,30.8,0,0,0,3.24.86c2.21.48,4.48.8,6.62,1.35a47.35,47.35,0,0,1,6.17,2c1.94.76,3.74,1.59,5.39,2.43s3.14,1.67,4.46,2.43l.95.57.89.53,1.56,1c.94.59,1.68,1.07,2.19,1.4l.78.51-1.44-1c-.47-.32-1-.72-1.72-1.17s-1.46-1-2.35-1.53-1.87-1.16-3-1.79l-.83-.48-.88-.48c-.6-.33-1.23-.65-1.87-1-1.31-.65-2.71-1.32-4.24-1.92a47.33,47.33,0,0,0-4.89-1.69c-.43-.13-.88-.23-1.32-.35l-.68-.17-.68-.15c-.92-.2-1.85-.38-2.79-.57a38.67,38.67,0,0,1-5.61-1.4,28.43,28.43,0,0,1-2.68-1.1c-.86-.43-1.73-.87-2.56-1.36-1.67-1-3.29-2-4.93-3.11s-3.32-2.13-5.11-3.07c-.45-.24-.91-.46-1.36-.68l-.7-.32-.7-.3c-.94-.4-1.91-.75-2.88-1.08s-2-.62-2.94-.89-2-.49-3-.69C179.36,55.63,177.37,55.34,175.41,55.13Z"/><path class="cls-50" d="M253.55,82.3l-10.31-4.12c-1.5-.61-3.11-1.29-4.72-2.08-.8-.4-1.6-.83-2.38-1.29s-1.56-1-2.31-1.5c-1.52-1.06-3-2.21-4.6-3.27a25.93,25.93,0,0,0-2.51-1.49A26.81,26.81,0,0,0,224,67.34c-2-.78-4.15-1.42-6.27-2.13a49.8,49.8,0,0,1-6.18-2.48c-2-.94-3.91-1.94-5.78-2.89s-3.69-1.83-5.47-2.57c-.88-.37-1.76-.7-2.6-1s-1.67-.55-2.47-.76a28.52,28.52,0,0,0-4.23-.82,26.75,26.75,0,0,0-2.85-.16l-1,0h.5c.16,0,.36,0,.6,0l.83,0,1,.08.59.07.31,0,.33.05a29.56,29.56,0,0,1,3,.63,35.49,35.49,0,0,1,3.48,1.12c1.23.47,2.52,1,3.85,1.66s2.71,1.35,4.15,2.11,2.93,1.57,4.52,2.37c.79.4,1.61.79,2.45,1.18s1.71.75,2.6,1.09c1.8.7,3.7,1.28,5.59,1.91a37.23,37.23,0,0,1,5.53,2.25,44,44,0,0,1,4.95,3.2,46.33,46.33,0,0,0,5.07,3.27,52.12,52.12,0,0,0,5.66,2.52c1.93.74,3.86,1.44,5.76,2.13Z"/><path class="cls-50" d="M226.29,69.05l-.08-.11a26.51,26.51,0,0,0-1.67-2.11c-.34-.39-.73-.8-1.15-1.2l-1.33-1.24A11.87,11.87,0,0,1,220.79,63a15.91,15.91,0,0,1-1-1.61c-.18-.28-.36-.57-.56-.85a4.46,4.46,0,0,0-.33-.43c-.11-.13-.21-.28-.34-.41a11.3,11.3,0,0,0-1.64-1.51A16.92,16.92,0,0,0,215,56.93c-.68-.38-1.39-.72-2.1-1s-1.43-.61-2.15-.88-1.44-.52-2.14-.76l1.06.49c.67.31,1.62.74,2.69,1.3.54.27,1.11.58,1.68.92s1.15.71,1.71,1.12c.28.19.54.42.81.63s.52.44.76.68.46.48.68.73.2.25.3.38.2.25.29.38c.4.56.76,1.19,1.19,1.82a7.74,7.74,0,0,0,.72.93,9.74,9.74,0,0,0,.85.85c.59.54,1.2,1,1.77,1.52s1.07,1,1.52,1.46.82.88,1.17,1.28A5.64,5.64,0,0,1,226.29,69.05Z"/><path class="cls-50" d="M214.31,54.07l.62.25.73.31,1,.42,1.18.54,1.38.65c1,.48,2,1,3.16,1.65s2.32,1.32,3.53,2.08,2.43,1.59,3.65,2.47,2.41,1.8,3.57,2.76,2.31,1.94,3.55,2.82a20.89,20.89,0,0,0,2.15,1.39,21.21,21.21,0,0,0,2.45,1.16c1.71.69,3.5,1.21,5.19,1.84a23.36,23.36,0,0,1,2.45,1,24.62,24.62,0,0,1,2.2,1.25c1.4.89,2.66,1.83,3.87,2.7a39.28,39.28,0,0,0,3.48,2.27,17.23,17.23,0,0,0,3.09,1.4,12.67,12.67,0,0,0,2.23.52c.26,0,.47.06.61.07l.21,0-.39,0a3.79,3.79,0,0,1-.49-.08l-.3-.06-.35-.08a12.14,12.14,0,0,1-1.73-.54,16,16,0,0,1-2.13-1,27.79,27.79,0,0,1-2.38-1.54c-.82-.59-1.68-1.25-2.6-2s-1.9-1.44-3-2.15q-.83-.54-1.74-1c-.62-.33-1.27-.63-1.95-.92-1.37-.56-2.82-1-4.28-1.56a23.57,23.57,0,0,1-4.22-1.9,29.68,29.68,0,0,1-3.77-2.68c-1.21-1-2.42-2-3.71-2.94A63.27,63.27,0,0,0,223.25,58,67.13,67.13,0,0,0,214.31,54.07Z"/><path class="cls-50" d="M275.74,81.77l-2.35-1-2.64-1.09c-1-.43-2.12-.92-3.3-1.49s-2.43-1.19-3.68-1.92S261.26,74.8,260,74c-2.53-1.69-5.09-3.52-7.76-5.07-.73-.43-1.49-.84-2.28-1.24s-1.6-.78-2.42-1.16a50.65,50.65,0,0,1-4.77-2.41,43.46,43.46,0,0,1-4.14-2.92c-1.3-1-2.53-2-3.75-2.85a27.92,27.92,0,0,0-3.59-2.19c-.57-.3-1.14-.54-1.67-.76s-1-.38-1.51-.52a15.73,15.73,0,0,0-2.25-.49l-.62-.07-.21,0,.4.06a3.47,3.47,0,0,1,.48.07c.19,0,.42.07.66.13.49.11,1.08.28,1.76.5a21.91,21.91,0,0,1,2.2.94A27.8,27.8,0,0,1,233,57.4c.85.57,1.73,1.22,2.63,1.94s1.82,1.49,2.82,2.29a39.37,39.37,0,0,0,3.23,2.42,31.41,31.41,0,0,0,3.89,2.18c1.38.68,2.81,1.33,4.21,2a87.61,87.61,0,0,1,8.17,5c1.35.9,2.73,1.79,4.16,2.62a47.77,47.77,0,0,0,4.44,2.3C269.59,79.61,272.73,80.72,275.74,81.77Z"/></g><path class="cls-51" d="M156.94,79.42c-.63-.19-1.42-.39-2.33-.64-.46-.13-1-.25-1.48-.38L151.46,78c-1.18-.28-2.48-.58-3.9-.87-.71-.16-1.45-.31-2.21-.45l-1.17-.23-1.2-.23L141.74,76l-1.28-.22-1.31-.23-1.35-.21q-2.73-.43-5.69-.85c-2-.27-4-.54-6.1-.8s-4.25-.52-6.43-.77-4.42-.52-6.68-.74q-1.7-.17-3.42-.27c-1.15-.08-2.3-.13-3.43-.24-.56,0-1.12-.11-1.68-.2s-1.1-.2-1.64-.34c-1.09-.27-2.15-.62-3.23-1a29.28,29.28,0,0,0-3.31-.91,21.28,21.28,0,0,0-3.46-.37c-2.31-.08-4.58.07-6.77-.19A14.79,14.79,0,0,1,82.79,68,8,8,0,0,1,81,67h-.06a6.87,6.87,0,0,0,.75.51,9,9,0,0,0,1.27.6,15.18,15.18,0,0,0,3.77.85c1.5.17,3.19.16,5,.22.9,0,1.84.08,2.78.19a19.39,19.39,0,0,1,2.84.59c1.9.53,3.8,1.33,5.93,1.81a42.61,42.61,0,0,0,6.56.72c2.19.17,4.37.4,6.49.64l7.21.82c2.45.28,4.93.57,7.38.88s4.88.62,7.2,1l3.42.52,3.23.54c1,.19,2,.36,3,.55l1.41.27,1.32.28,1.26.26,1.16.26,1.08.25,1,.23,1.67.41,1.25.33,1,.27Z"/><path class="cls-51" d="M111.46,72.54l1,.26-.09,0-2.08-.91c-.79-.35-1.7-.71-2.62-1.14-.46-.22-.92-.45-1.38-.71a11.44,11.44,0,0,1-1.31-.87c-.42-.32-.83-.68-1.27-1a12.52,12.52,0,0,0-1.42-1,18.42,18.42,0,0,0-3.24-1.6c-1-.38-2-.71-3-1H96l.51.23c.52.24,1.25.56,2.09,1a27,27,0,0,1,2.68,1.47c.45.28.9.59,1.32.91l1.22,1a12,12,0,0,0,1.51,1.09,15.06,15.06,0,0,0,1.75.88c.6.26,1.21.49,1.8.7l1.68.6.76.26A.1.1,0,0,1,111.46,72.54Z"/><path class="cls-51" d="M142.41,75.29l-4.75-1.53-2.87-.9c-1-.32-2-.66-3.16-1a33.63,33.63,0,0,0-3.49-.85c-1.23-.23-2.53-.31-3.79-.42-.64-.06-1.27-.13-1.89-.24a16.2,16.2,0,0,1-1.82-.47,27.24,27.24,0,0,1-3.48-1.5c-1.15-.56-2.3-1.14-3.54-1.63a17.61,17.61,0,0,0-1.9-.63c-.65-.17-1.31-.31-2-.44-1.3-.27-2.58-.5-3.8-.86a11.81,11.81,0,0,1-1.72-.67,7.25,7.25,0,0,1-1.16-.76h0l.09.09a5.06,5.06,0,0,0,.44.36,2.4,2.4,0,0,0,.31.21c.12.07.23.16.36.22a10.72,10.72,0,0,0,2,.87c.82.26,1.77.5,2.78.74a30.4,30.4,0,0,1,3.18.87,25.44,25.44,0,0,1,3.19,1.41c1.06.54,2.14,1.12,3.28,1.63.58.25,1.17.49,1.78.69a14.61,14.61,0,0,0,1.87.47c1.39.24,2.83.29,4.25.43a27.12,27.12,0,0,1,4.17.79c1.37.35,2.72.76,4,1.13l3.74,1.06,8.11,2.28Z"/><path class="cls-51" d="M150.6,74,147.17,73c-1.21-.31-2.46-.65-3.72-1s-2.52-.8-3.74-1.28-2.4-1-3.55-1.58-2.57-1.24-3.93-1.83-2.78-1.17-4.2-1.68-2.84-1-4.24-1.39-2.75-.76-4-1c-.64-.15-1.27-.27-1.86-.4l-1.72-.33c-1.08-.19-2-.34-2.85-.45l-.82-.11-.21,0,1.23.21.94.18,1.06.21q1.11.23,2.43.54l1.35.33,1.44.39c1,.27,2,.57,3.07.92s2.17.73,3.3,1.14,2.27.87,3.43,1.38c.58.24,1.15.51,1.74.77l1.76.83c1.18.57,2.38,1.16,3.64,1.71A39.68,39.68,0,0,0,141.6,72c1.35.42,2.73.79,4.11,1.13s2.77.65,4.15,1c2.74.62,5.45,1.22,8.06,1.77C157.92,75.9,154.9,75.08,150.6,74Z"/><path class="cls-51" d="M174.34,78c-.49-.12-1.09-.25-1.78-.43l-1.11-.28-1.25-.33-1.38-.38-1.49-.44-1.6-.5c-.54-.18-1.11-.35-1.69-.55-1.16-.39-2.37-.83-3.62-1.3s-2.56-1-3.88-1.57-2.67-1.18-4-1.84-2.8-1.33-4.34-1.9a47.5,47.5,0,0,0-4.81-1.38c-.82-.2-1.63-.41-2.43-.65a23.83,23.83,0,0,1-2.32-.85c-1.51-.65-2.94-1.45-4.48-2.14a20.62,20.62,0,0,0-2.38-.93,24.11,24.11,0,0,0-2.5-.64,37.21,37.21,0,0,0-5.09-.62c-1.13-.07-2.24-.1-3.34-.12a.1.1,0,0,1-.08.06h-.09l1.13.06c.82.06,1.81.13,2.92.25s2.37.28,3.68.55a23.06,23.06,0,0,1,4.05,1.18c1.35.54,2.67,1.26,4,2,.69.35,1.4.7,2.14,1a23.52,23.52,0,0,0,2.31.83c1.58.48,3.18.84,4.7,1.26a24.43,24.43,0,0,1,2.47.79c.82.31,1.63.65,2.44,1L153,71.22c.82.37,1.64.74,2.48,1.09,1.66.7,3.34,1.35,5,1.93s3.23,1.09,4.75,1.54,2.93.83,4.22,1.14,2.42.58,3.38.78,1.71.35,2.24.44l.8.15Z"/><path class="cls-51" d="M183.62,76.66c-1.43-.29-3.47-.71-5.85-1.22s-5.1-1.12-7.92-1.79c-1.41-.34-2.85-.68-4.27-1a36.47,36.47,0,0,1-4.11-1.26,24.4,24.4,0,0,1-4.11-2.08c-1.32-.82-2.61-1.72-3.93-2.57a42.64,42.64,0,0,0-4.09-2.31c-1.38-.68-2.74-1.29-4-1.82s-2.52-1-3.63-1.38-2.09-.74-2.9-1l-1.79-.6h-.08l.53.2c.83.31,2,.77,3.53,1.36q1.13.44,2.46,1c.87.37,1.82.77,2.8,1.23s2,1,3,1.51,2.09,1.17,3.14,1.85,2.1,1.42,3.21,2.17A35.88,35.88,0,0,0,159.18,71a24.73,24.73,0,0,0,4.19,1.61c1.47.43,3,.77,4.49,1.11,6,1.37,12.27,2.53,18,3.35Z"/><path class="cls-51" d="M142.35,61.55l.49.3c.16.11.37.21.61.35s.53.26.86.41a22.45,22.45,0,0,0,2.43.91c.95.3,2,.58,3.23.89s2.44.62,3.71,1l.48.16.48.17c.32.11.63.25.94.38.63.27,1.25.57,1.87.89,1.24.63,2.49,1.32,3.8,1.93a18.94,18.94,0,0,0,4.2,1.44c1.58.33,3.23.52,4.76,1a43.94,43.94,0,0,1,4.42,1.94,79.37,79.37,0,0,0,8.73,3.31c1.36.44,2.63.82,3.77,1.15s2.16.62,3,.86l2.69.74L191.5,79l-3.65-1.17c-1.56-.5-3.42-1.12-5.5-1.87-1-.38-2.13-.79-3.25-1.24s-2.28-1-3.46-1.5l-.88-.41-.89-.44c-.6-.3-1.2-.6-1.85-.89a14.09,14.09,0,0,0-2-.76c-.72-.21-1.46-.36-2.2-.5s-1.48-.26-2.21-.42a17.05,17.05,0,0,1-2.12-.59,34.71,34.71,0,0,1-4-1.82,40.37,40.37,0,0,0-4.15-1.91,35.17,35.17,0,0,0-4.49-1.25c-1.51-.34-3-.65-4.43-1.06A17.28,17.28,0,0,1,142.35,61.55Z"/><path class="cls-51" d="M186.76,74.58a21.41,21.41,0,0,1-3.58-1.53,21.29,21.29,0,0,1-3-2.64A17.74,17.74,0,0,0,176.55,68c-1.33-.69-2.73-1.28-4.09-1.84s-3.06-1.22-4.66-1.82l-2.42-.88c-.81-.29-1.62-.58-2.44-.85-1.63-.55-3.27-1-4.85-1.51-.8-.22-1.58-.45-2.35-.64l-1.14-.29-1.11-.26c-.73-.18-1.44-.33-2.12-.47s-1.33-.26-2-.37-1.2-.21-1.75-.3-1-.15-1.5-.21l-.56-.08-.2.06,1,.16c.67.11,1.43.27,2.28.43l1.32.28.71.15.73.18c1,.23,2.06.51,3.18.81l1.72.49,1.79.54,1.87.6c.62.22,1.27.42,1.92.65,1.29.46,2.63.94,4,1.45s2.74,1,4.14,1.61S172.9,67,174.3,67.6a26.81,26.81,0,0,1,4,2.12A14.42,14.42,0,0,1,180,71.07c.54.49,1.05,1,1.64,1.5a9.33,9.33,0,0,0,.93.69,9,9,0,0,0,1.06.56c.74.34,1.5.59,2.25.85,3,1,6,2,8.79,2.91C194.7,77.58,191.43,76.33,186.76,74.58Z"/><path class="cls-51" d="M150.79,58.87l.28.12.8.34c.34.15.75.33,1.21.55l.72.34.79.39.85.42.88.46c.6.32,1.21.67,1.84,1L160,63.62c.61.39,1.22.77,1.8,1.16s1.3.87,2,1.34,1.31.95,2,1.43c1.29,1,2.58,1.89,3.79,2.64l.88.53.83.46c.53.28,1,.51,1.42.69l.55.23.42.16.36.13-.64-.29-.74-.38c-.27-.16-.6-.33-.95-.54l-1.12-.71c-.39-.27-.81-.56-1.25-.88-.87-.64-1.8-1.39-2.81-2.19-.5-.4-1-.82-1.57-1.24s-1.11-.84-1.71-1.26-1.21-.82-1.86-1.22-1.3-.79-2-1.17-1.37-.74-2.08-1.08-1.42-.68-2.14-1-1.45-.6-2.17-.86S151.5,59.09,150.79,58.87Z"/><path class="cls-51" d="M179.17,69.71c-.12-.13-.29-.34-.53-.57s-.55-.52-.91-.82a15.55,15.55,0,0,0-1.29-.94c-.49-.33-1-.66-1.6-1s-1.17-.68-1.78-1-1.22-.71-1.81-1.09-1.15-.77-1.68-1.17-1.12-1-1.68-1.48-1.17-1-1.8-1.53a23.92,23.92,0,0,0-3.89-2.43c-.63-.31-1.24-.59-1.79-.81s-.81-.32-1.16-.45l-.23,0,.45.2.52.24c.37.17.76.37,1.18.59l.65.36.67.4c.46.27.93.58,1.42.91s1,.7,1.44,1.09,1,.81,1.43,1.25.95.92,1.47,1.38A15.45,15.45,0,0,0,170,64.2c.62.42,1.27.8,1.93,1.16,1.33.74,2.71,1.4,4,2.12.65.36,1.26.74,1.85,1.14a13.85,13.85,0,0,1,1.61,1.3Z"/><path class="cls-51" d="M159.9,56.36l2.44.84c1.53.54,3.7,1.29,6.18,2.3a48.92,48.92,0,0,1,7.81,3.94c1.29.82,2.53,1.74,3.81,2.64a36,36,0,0,0,4.05,2.45c1.53.8,3.18,1.54,4.86,2.25s3.4,1.42,5.09,2.12l9.63,3.94,10.08,4.08s-7.82-3.5-18.62-8.15L191.05,71c-1.43-.61-2.9-1.24-4.35-1.92a43.54,43.54,0,0,1-4.27-2.26c-1.37-.83-2.67-1.78-4-2.7a38.24,38.24,0,0,0-4.31-2.56,48.64,48.64,0,0,0-4.67-2.06C166.25,58.24,163,57.27,159.9,56.36Z"/><path class="cls-51" d="M225.16,77.63l-4.77-2.23c-1.67-.78-3.4-1.62-5.23-2.41a32.75,32.75,0,0,0-5.83-2c-2.05-.46-4.13-.71-6.09-1.1-.54-.11-1.08-.23-1.61-.38s-1.06-.3-1.59-.46a31.85,31.85,0,0,1-3.12-1.2c-1-.45-2-.94-3-1.47S192,65.33,191,64.76c-1.89-1.13-3.71-2.3-5.51-3.4s-3.59-2.1-5.34-3a35.3,35.3,0,0,0-5-2,25.15,25.15,0,0,0-4.28-.95l-.45-.06-.43,0-.4,0-.3,0h.1l.55.07.61.07.64.11.7.13.73.16L173,56l.39.1.8.22a36.91,36.91,0,0,1,3.48,1.28c1.22.53,2.49,1.16,3.8,1.88s2.64,1.53,4,2.41,2.79,1.81,4.29,2.76,3.08,1.9,4.79,2.78a33.74,33.74,0,0,0,5.54,2.33l.75.23.77.2c.51.14,1,.25,1.55.36,1,.21,2.12.37,3.17.54s2.11.35,3.15.59a31,31,0,0,1,3,.89c2,.7,3.91,1.57,5.83,2.43l5.75,2.56c3.82,1.68,7.58,3.33,11.21,4.88Z"/><path class="cls-51" d="M239,80.57c-.47-.32-1-.72-1.72-1.17s-1.46-1-2.35-1.53-1.87-1.17-3-1.8l-.83-.48-.88-.48c-.6-.33-1.23-.65-1.87-1-1.31-.65-2.71-1.31-4.24-1.92a45.09,45.09,0,0,0-4.89-1.68c-.43-.14-.88-.24-1.32-.35l-.68-.17-.68-.16c-.92-.2-1.85-.38-2.79-.56a37.44,37.44,0,0,1-5.61-1.41,26,26,0,0,1-2.68-1.1c-.86-.42-1.73-.87-2.56-1.36-1.67-1-3.29-2-4.93-3.11s-3.32-2.13-5.11-3.07c-.45-.24-.91-.45-1.36-.68l-.7-.31-.7-.31c-.94-.4-1.91-.75-2.88-1.08s-2-.62-2.94-.88-2-.5-3-.7-1.95-.37-2.92-.52l-.32.06.4.07a56.55,56.55,0,0,1,7.72,2,43.79,43.79,0,0,1,4.7,1.91,44.23,44.23,0,0,1,4.69,2.67c1.54,1,3.07,2.05,4.66,3.07a42.68,42.68,0,0,0,4.93,2.81l.72.33.36.16.37.15.76.29.78.27a26.58,26.58,0,0,0,3.24.86c2.21.48,4.48.8,6.62,1.35a48.93,48.93,0,0,1,6.17,2c1.94.75,3.74,1.59,5.39,2.42s3.14,1.67,4.46,2.44l.95.56.89.54c.57.34,1.08.67,1.56,1l2.19,1.41.78.51Z"/><path class="cls-51" d="M243.24,77.42c-1.5-.61-3.11-1.28-4.72-2.08-.8-.4-1.6-.82-2.38-1.29s-1.56-1-2.31-1.5c-1.52-1.06-3-2.21-4.6-3.27a28.13,28.13,0,0,0-2.51-1.49A29.28,29.28,0,0,0,224,66.58c-2-.78-4.15-1.42-6.27-2.12A53.11,53.11,0,0,1,211.59,62c-2-.94-3.91-1.94-5.78-2.89s-3.69-1.84-5.47-2.58c-.88-.37-1.76-.7-2.6-1s-1.67-.56-2.47-.76-1.45-.37-2.12-.5a.09.09,0,0,1-.09.07h-.36c.52.11,1.06.23,1.63.38a35.7,35.7,0,0,1,3.48,1.13c1.23.46,2.52,1,3.85,1.65s2.71,1.36,4.15,2.12,2.93,1.57,4.52,2.36c.79.4,1.61.79,2.45,1.18s1.71.75,2.6,1.1c1.8.69,3.7,1.27,5.59,1.91a36.18,36.18,0,0,1,5.53,2.25,45.32,45.32,0,0,1,4.95,3.19,43.55,43.55,0,0,0,5.07,3.27,52.18,52.18,0,0,0,5.66,2.53c1.93.74,3.86,1.43,5.76,2.13l5.61,2Z"/><path class="cls-51" d="M226.38,68.39l-.17-.21c-.44-.6-1-1.33-1.67-2.11-.34-.39-.73-.79-1.15-1.2l-1.33-1.24a12.64,12.64,0,0,1-1.27-1.37,18.52,18.52,0,0,1-1-1.61c-.18-.29-.36-.58-.56-.86s-.21-.28-.33-.42-.21-.28-.34-.42a11.24,11.24,0,0,0-1.64-1.5A16.92,16.92,0,0,0,215,56.18c-.68-.39-1.39-.73-2.1-1s-1.43-.61-2.15-.88l-1.54-.54H209l.6.27c.67.31,1.62.75,2.69,1.3.54.28,1.11.58,1.68.92s1.15.71,1.71,1.12c.28.2.54.42.81.63s.52.45.76.69.46.48.68.72.2.26.3.38.2.25.29.38c.4.57.76,1.2,1.19,1.83a7.65,7.65,0,0,0,.72.92,9.74,9.74,0,0,0,.85.85c.59.54,1.2,1,1.77,1.52s1.07,1,1.52,1.46,1,1,1.34,1.49Z"/><path class="cls-51" d="M264.19,80.86l-.49-.07-.3-.06-.35-.08a13.59,13.59,0,0,1-1.73-.54,17.54,17.54,0,0,1-2.13-1,27.56,27.56,0,0,1-2.38-1.53c-.82-.59-1.68-1.25-2.6-2s-1.9-1.44-3-2.16c-.55-.36-1.13-.71-1.74-1s-1.27-.64-1.95-.92c-1.37-.57-2.82-1-4.28-1.57A23.53,23.53,0,0,1,239,68a31.83,31.83,0,0,1-3.77-2.68c-1.21-1-2.42-2-3.71-2.95a63.27,63.27,0,0,0-8.29-5.21,66.37,66.37,0,0,0-7.85-3.48h-.14l.4.16,1,.43,1.18.54c.43.19.89.42,1.38.65,1,.48,2,1,3.16,1.64s2.32,1.32,3.53,2.08,2.43,1.59,3.65,2.47,2.41,1.81,3.57,2.77,2.31,1.93,3.55,2.82a22.65,22.65,0,0,0,2.15,1.38,19.72,19.72,0,0,0,2.45,1.17c1.71.68,3.5,1.21,5.19,1.83a25.7,25.7,0,0,1,2.45,1c.77.39,1.5.81,2.2,1.25,1.4.89,2.66,1.84,3.87,2.7s2.37,1.65,3.48,2.28a17.12,17.12,0,0,0,3.09,1.39,11.82,11.82,0,0,0,2.23.52c.26.05.47.06.61.08l.21,0Z"/><path class="cls-51" d="M273.39,80.07,270.75,79c-1-.43-2.12-.92-3.3-1.48s-2.43-1.2-3.68-1.92S261.26,74,260,73.2c-2.53-1.68-5.09-3.52-7.76-5.07-.73-.42-1.49-.84-2.28-1.24s-1.6-.77-2.42-1.15a50.71,50.71,0,0,1-4.77-2.42,41.67,41.67,0,0,1-4.14-2.91c-1.3-1-2.53-2-3.75-2.86a27.92,27.92,0,0,0-3.59-2.19c-.48-.25-.95-.45-1.4-.64h0l-.84-.2c.48.2,1,.42,1.53.69A23.63,23.63,0,0,1,233,56.65c.85.57,1.73,1.22,2.63,1.93s1.82,1.49,2.82,2.3,2.05,1.63,3.23,2.42a34.23,34.23,0,0,0,3.89,2.18c1.38.68,2.81,1.32,4.21,2a87.61,87.61,0,0,1,8.17,5c1.35.89,2.73,1.78,4.16,2.62a47.69,47.69,0,0,0,4.44,2.29c3,1.39,6.18,2.5,9.19,3.54Z"/></g><g class="cls-52"><path class="cls-53" d="M207.64,77.38c-8.88-1.32-18.11-.78-27.06-1.9-3.2-.4-6.37-1-9.58-1.34a110.5,110.5,0,0,0-11.8-.38l-6.22,0c-19.82.12-40.09,1.84-59.74-.56-9.86-1.2-19.59-3.08-29.5-4.08s-17.48.32-26.79,3.4c-5.47,1.81-11.61,3.26-16.53,5.93a44.78,44.78,0,0,1-5.31,2.7c-1.62.63-5.68,3-7.32,3,29-.14,58-.13,87-.13h88.3c15.07,0,30.35.72,45.35-.53-6-2.31-12.14-4.63-18.65-5.84C209.05,77.6,208.35,77.48,207.64,77.38Z"/><path class="cls-54" d="M23.35,84.12l6.17-3.19,2.89-1.51c1-.53,2.06-1.09,3.15-1.64s2.2-1.09,3.34-1.58a32.16,32.16,0,0,1,3.52-1.27q1-.27,2-.48c.69-.13,1.4-.23,2.12-.32,1.45-.17,2.93-.25,4.4-.31s2.94-.11,4.34-.22,2.75-.22,4-.34l3.48-.33c1-.1,2-.17,2.75-.22s1.39-.09,1.81-.11l.65,0-1.23,0c-.4,0-.89,0-1.46,0s-1.23,0-2,.1c-1.45.08-3.2.22-5.18.36L55,73.29c-1.1.06-2.24.09-3.42.12s-2.42.06-3.68.15a30.48,30.48,0,0,0-3.85.49c-.65.12-1.29.29-1.93.47s-1.27.39-1.88.62a35.27,35.27,0,0,0-3.61,1.59c-1.17.58-2.31,1.2-3.45,1.83l-3.37,1.87C27.62,81.68,25.43,82.92,23.35,84.12Z"/><path class="cls-55" d="M75.05,71.16a14.65,14.65,0,0,0-3.11.12,26.24,26.24,0,0,0-3.87,1l-.44.15-.46.16-.35.14a3.17,3.17,0,0,0-.41.21l-.1,0c-.74.3-1.49.63-2.25,1-1.51.74-3.06,1.62-4.62,2.55s-3.16,1.93-4.82,2.87c-3.3,1.89-6.91,3.51-10.19,5.06L45.8,84c.86-.34,2.07-.84,3.48-1.44s3-1.34,4.63-2.18,3.22-1.78,4.73-2.7,3.43-2.1,5.25-3.06a33.75,33.75,0,0,1,5.44-2.32,24.83,24.83,0,0,1,2.46-.63l.56-.1.52-.09.48-.07.45,0c.29,0,.54,0,.77-.07l.57,0c.16,0,.32,0,.47,0A1.49,1.49,0,0,0,75.05,71.16Z"/><path class="cls-56" d="M78.19,71.67l-1.45.89c-.4.25-.94.62-1.5.94a16.27,16.27,0,0,1-1.56.9,9,9,0,0,1-1.76.83,13.58,13.58,0,0,1-2.77.46,26.41,26.41,0,0,0-3,.2,16.62,16.62,0,0,0-2.92.72c-1,.34-2,.75-3,1.16l-1.52.62c-.51.19-1,.38-1.55.59-1,.4-2,.82-3,1.24s-1.87.82-2.72,1.21-1.64.76-2.34,1.1-1.31.64-1.81.91-.9.47-1.17.62l-.41.23.21-.1.6-.3c.52-.26,1.3-.61,2.28-1s2.18-1,3.54-1.51,2.88-1.19,4.53-1.81l1.26-.47q.66-.22,1.32-.48c.88-.34,1.76-.71,2.67-1a23.25,23.25,0,0,1,2.82-.92,14.36,14.36,0,0,1,1.48-.3l.76-.09.78,0c.52,0,1.06,0,1.6-.1.27,0,.53-.07.8-.1l.79-.16a14.81,14.81,0,0,0,2.94-1,21.89,21.89,0,0,0,2.57-1.44C77.42,72.82,77.45,72.2,78.19,71.67Z"/><path class="cls-57" d="M71.12,75.6l-.12.19a2.21,2.21,0,0,1-.44.48,5.38,5.38,0,0,1-.88.57c-.37.19-.8.38-1.27.57s-1,.4-1.52.65-1,.54-1.56.82l-1.63.84-1.63.81c-.59.29-1.2.6-1.83.89l-1.89.89-1,.43-.93.41c-.61.27-1.2.52-1.76.75s-1.07.45-1.54.63L51.94,85l-1.11.42.57-.18,1.58-.5,1.1-.37,1.27-.45,1.41-.54,1.52-.61c.53-.22,1.06-.45,1.61-.7s1.1-.5,1.66-.77,1.13-.54,1.7-.83,1.13-.59,1.69-.9,1.12-.63,1.67-1,1.11-.59,1.69-.87a12.27,12.27,0,0,0,1.68-.9,3.88,3.88,0,0,0,.69-.57A2.28,2.28,0,0,0,71.12,75.6Z"/><path class="cls-58" d="M64.28,84.58l.72-.67c.46-.43,1.11-1,1.9-1.71a23.92,23.92,0,0,1,2.83-2.09,15.59,15.59,0,0,1,1.71-.94c.6-.28,1.22-.52,1.84-.75a38.4,38.4,0,0,0,4.27-1.67,12,12,0,0,0,1.88-1.17c.57-.42,1.08-.84,1.56-1.22s1-.74,1.39-1a9.87,9.87,0,0,1,1.19-.69l.26-.13.23-.09.2-.09.18-.06.32-.11-.16,0c-.11,0-.27.07-.47.14l-.33.11-.38.16c-.27.12-.58.27-.91.45s-.67.4-1,.64-.74.52-1.14.8a20.15,20.15,0,0,1-2.73,1.76A27.76,27.76,0,0,1,74,77.66c-.66.23-1.32.46-2,.74a14.64,14.64,0,0,0-1.9.95,18,18,0,0,0-3.24,2.48C65.92,82.73,65.08,83.67,64.28,84.58Z"/><path class="cls-59" d="M97.82,73.72l-.46.09c-.3.06-.73.15-1.27.28s-1.2.28-1.93.47-1.56.44-2.43.71A58.07,58.07,0,0,0,86,77.36c-1,.43-2,.89-3,1.39s-1.87,1-2.77,1.58-2,1.19-3,1.75a33.47,33.47,0,0,1-3.33,1.51c-1.15.44-2.31.84-3.44,1.23l-3.22,1.09-7,2.41,3.78-1.15,4.21-1.31,2.54-.8c.89-.28,1.82-.58,2.77-.92s1.91-.71,2.87-1.15A31.85,31.85,0,0,0,79.3,81.5c.93-.54,1.85-1.1,2.8-1.66S84,78.77,85,78.28a65,65,0,0,1,6.32-2.6c1.08-.39,2.16-.75,3.24-1.07S96.75,74,97.82,73.72Z"/><path class="cls-60" d="M75.24,83.29l.35-.06,1-.17c.84-.15,2-.38,3.41-.71.68-.17,1.42-.35,2.18-.57s1.55-.46,2.34-.74a24.83,24.83,0,0,0,2.34-.94c.77-.36,1.49-.76,2.18-1.15s1.55-.88,2.36-1.31a20,20,0,0,1,2.53-1.15,16.93,16.93,0,0,1,2.69-.71c.9-.17,1.79-.28,2.62-.38s1.61-.21,2.3-.33a17.91,17.91,0,0,0,1.78-.38l.66-.18.47-.16.4-.15-.2.06c-.13,0-.32.11-.57.17s-.56.15-.93.22l-.59.11-.68.11c-1,.14-2.1.23-3.42.36-.65.06-1.35.14-2.07.25a17,17,0,0,0-2.23.51,16.06,16.06,0,0,0-2.23.87c-.73.34-1.45.72-2.17,1.12s-1.44.82-2.18,1.22a23.18,23.18,0,0,1-2.3,1.09c-.8.33-1.63.64-2.47.92s-1.68.54-2.53.79C78.57,82.49,76.87,82.91,75.24,83.29Z"/><path class="cls-61" d="M83.51,84.78l.88-.35c.55-.24,1.34-.57,2.2-1a11.41,11.41,0,0,0,1.33-.82,12.73,12.73,0,0,0,1.26-1.07l1.19-1.16.62-.55c.22-.17.43-.35.65-.51a17.33,17.33,0,0,1,1.58-1l.42-.24.44-.24c.29-.16.6-.3.89-.45s.61-.28.91-.42l.91-.38c.6-.24,1.19-.45,1.75-.64l1.57-.48.67-.18.59-.15c.35-.09.64-.15.84-.19l.3-.07-.58.09c-.19,0-.42.06-.69.11l-.44.08-.48.11c-.34.06-.71.16-1.11.25l-.63.17-.65.18-.69.22-.72.24-.74.28-.76.3A20.53,20.53,0,0,0,92,78.44c-.25.16-.49.34-.73.51s-.47.37-.7.56-.45.4-.66.61l-.61.62c-.4.42-.79.84-1.22,1.23A11.61,11.61,0,0,1,86.63,83,33.22,33.22,0,0,1,83.51,84.78Z"/><path class="cls-62" d="M89,82.83l3.65-2,3.56-1.95,1.92-1.06c.64-.36,1.28-.7,1.93-1a14.34,14.34,0,0,1,2.28-.86,16,16,0,0,1,2.54-.43l1.29-.1c.44,0,.86-.06,1.28-.07.83,0,1.64,0,2.39,0,1.52,0,2.83,0,3.76,0l1.08,0,.39,0h-.74c-.47,0-1.17,0-2,0s-1.92-.09-3.1-.12q-.9,0-1.89,0c-.67,0-1.34,0-2.06.08a19.35,19.35,0,0,0-2.21.24,12.55,12.55,0,0,0-2.23.63,19,19,0,0,0-2.09,1c-.68.37-1.34.76-2,1.14C94,79.69,91.36,81.3,89,82.83Z"/><path class="cls-63" d="M94,85.14s.41-.15,1.12-.44,1.68-.72,2.78-1.29,2.33-1.28,3.58-2,2.54-1.54,3.82-2.22c.7-.37,1.45-.74,2.22-1.1s1.56-.7,2.36-1c.4-.16.8-.3,1.2-.45s.8-.28,1.19-.4l.59-.19.58-.17c.38-.12.75-.22,1.12-.32.73-.19,1.41-.35,2-.48s1.17-.23,1.63-.31.83-.12,1.09-.16l.39-.06-.75.07-.88.09-1.17.16-.69.12-.74.13-.8.17-.85.19c-.58.14-1.19.3-1.82.49s-1.28.39-2,.63c-.33.11-.66.24-1,.37l-1,.41c-.68.28-1.37.59-2,.93l-.52.26-.51.27c-.34.18-.68.36-1,.56-.67.38-1.33.79-2,1.21-1.31.83-2.6,1.68-3.92,2.46S95.31,84.51,94,85.14Z"/><path class="cls-64" d="M109,77.41l-.1.07a2.23,2.23,0,0,0-.28.2,4.92,4.92,0,0,0-.39.33c-.15.14-.3.29-.46.47a7.37,7.37,0,0,0-.47.58c-.15.2-.3.43-.44.65-.29.46-.55,1-.79,1.41a17.12,17.12,0,0,1-.87,1.54A7,7,0,0,1,104.13,84a4.88,4.88,0,0,1-.58.49l-.28.19-.25.14-.21.11-.17.08-.13.06.28-.08.33-.12.42-.19.24-.13.25-.16a5.24,5.24,0,0,0,.52-.38,5.61,5.61,0,0,0,.51-.48,6.77,6.77,0,0,0,.49-.56,9.64,9.64,0,0,0,.87-1.34c.27-.47.51-1,.76-1.46.12-.25.25-.5.38-.74s.27-.49.42-.72.31-.46.48-.68A8.27,8.27,0,0,1,109,77.41Z"/><path class="cls-65" d="M101.34,85.89,106,83.07l4.55-2.8L113,78.75a14.18,14.18,0,0,1,1.27-.68,11.11,11.11,0,0,1,1.35-.53c1-.33,2.12-.57,3.25-.83s2.27-.51,3.4-.74c2.27-.46,4.51-.85,6.5-1.13,1-.13,1.92-.25,2.75-.34s1.57-.15,2.19-.2l.82-.06.62,0,.52,0-1,0c-.64,0-1.57,0-2.73.13l-.91.06-1,.09q-1,.09-2.22.24c-.78.09-1.61.21-2.47.33s-1.76.28-2.68.45-1.88.35-2.85.55-2,.42-3,.66a14.08,14.08,0,0,0-3,1,25.43,25.43,0,0,0-2.63,1.58C107.86,81.49,104.43,83.76,101.34,85.89Z"/><path class="cls-66" d="M141.3,74.27l-.42.08c-.28,0-.68.12-1.19.22s-1.11.22-1.8.38-1.45.35-2.28.57-1.69.49-2.59.79-1.83.65-2.75,1-1.84.81-2.73,1.27-1.75,1-2.59,1.42a18.12,18.12,0,0,1-3,1.37,18.43,18.43,0,0,1-3.38.72c-1.16.17-2.33.3-3.44.52s-2.15.47-3.11.75a29.54,29.54,0,0,0-4.55,1.77l-1.22.64-.43.24.21-.1.63-.31c.27-.14.62-.29,1-.47s.87-.37,1.4-.56,1.12-.41,1.77-.61,1.36-.4,2.11-.58,1.58-.35,2.43-.48,1.77-.24,2.71-.35a29.07,29.07,0,0,0,2.93-.46,13.11,13.11,0,0,0,2.89-1c.92-.44,1.79-.95,2.68-1.45s1.78-1,2.72-1.43a49.3,49.3,0,0,1,5.89-2.31C137.28,75.25,139.32,74.73,141.3,74.27Z"/><path class="cls-67" d="M122.65,84.92l.15-.19.19-.21.3-.25a6.1,6.1,0,0,1,.93-.57c.37-.2.82-.39,1.3-.61.24-.11.49-.22.74-.35s.5-.27.75-.42a13.23,13.23,0,0,0,1.44-1c.92-.77,1.75-1.64,2.6-2.42a12.48,12.48,0,0,1,1.51-1.24c.28-.19.56-.37.87-.54l.46-.25.48-.25a19.77,19.77,0,0,1,1.86-.9c.16-.07.32-.12.47-.17l.49-.15.93-.27c1.22-.34,2.29-.59,3-.79l1.2-.3-2.31.44c-.72.14-1.59.31-2.56.55-.25,0-.5.12-.75.18a7.08,7.08,0,0,0-.78.25c-.52.19-1,.43-1.56.68s-1,.5-1.6.81A12.17,12.17,0,0,0,131.28,78c-.95.78-1.78,1.68-2.66,2.53a16.42,16.42,0,0,1-1.4,1.23,11.84,11.84,0,0,1-1.61,1c-.57.31-1.16.6-1.7,1A3.65,3.65,0,0,0,122.65,84.92Z"/><path class="cls-68" d="M149.31,73.83s-.45.1-1.2.3-1.82.49-3,.92a19.57,19.57,0,0,0-1.89.79A8.57,8.57,0,0,0,141.36,77a16.1,16.1,0,0,0-1.43,1.57A8.23,8.23,0,0,1,138.47,80a10,10,0,0,1-2.12,1.15c-.79.33-1.62.61-2.45.9l-4.7,1.63-4.89,1.74s4-1.17,9.38-2.88c.68-.22,1.38-.43,2.09-.68A14.61,14.61,0,0,0,137.9,81a7.27,7.27,0,0,0,1.85-1.38c.51-.54.94-1.12,1.41-1.67a7.78,7.78,0,0,1,.75-.77,5,5,0,0,1,.43-.35,5.27,5.27,0,0,1,.46-.31,15.79,15.79,0,0,1,2.09-1.07C146.34,74.8,147.85,74.29,149.31,73.83Z"/><path class="cls-69" d="M134.38,86l.26-.24a7.12,7.12,0,0,1,.76-.62c.19-.11.38-.25.61-.38s.47-.27.74-.39a18.38,18.38,0,0,1,1.89-.78c.7-.26,1.47-.51,2.28-.79s1.63-.58,2.45-1c.21-.1.41-.19.61-.3s.4-.21.59-.33a12,12,0,0,0,1.12-.73c.71-.51,1.38-1,2.06-1.53a12.28,12.28,0,0,1,1.16-.77,7.85,7.85,0,0,1,1.3-.64,13.29,13.29,0,0,1,3-.67c.27,0,.53-.09.79-.15l.77-.2c.49-.15,1-.32,1.44-.49l2.63-1c.82-.31,1.6-.57,2.32-.77l.52-.14.5-.11a8.71,8.71,0,0,1,.89-.15l.39,0,.35,0a3.46,3.46,0,0,1,.56,0l.47,0-.23,0-.27,0a2.4,2.4,0,0,0-.39,0c-.14,0-.3,0-.48,0l-.57,0c-.41,0-.88.12-1.39.23-.26,0-.52.12-.8.19l-.86.24c-.59.18-1.22.38-1.87.61l-2.08.71a17.31,17.31,0,0,1-2.31.62c-.81.15-1.7.22-2.6.43a7.65,7.65,0,0,0-1.33.43,10.74,10.74,0,0,0-1.22.62,26.67,26.67,0,0,0-2.18,1.55A21.4,21.4,0,0,1,144.08,81a16.53,16.53,0,0,1-2.51,1.18c-.88.35-1.79.68-2.67,1a17.23,17.23,0,0,0-2.53,1.18A7.47,7.47,0,0,0,134.38,86Z"/><path class="cls-70" d="M165,74.74l-.33.05c-.22,0-.54.07-.94.14l-.66.13-.77.16c-.54.13-1.15.29-1.78.49l-.49.16-.5.17-1,.39a20.54,20.54,0,0,0-2.07,1,16.68,16.68,0,0,0-2,1.25,13.56,13.56,0,0,0-1.69,1.48c-.55.58-1,1.22-1.6,1.76a8.16,8.16,0,0,1-2.11,1.37,22,22,0,0,1-2.44,1l-2.35.79-5.09,1.73L142,86l3.09-.9L147,84.5c.65-.2,1.33-.43,2-.71a9.91,9.91,0,0,0,2-1.05,6.05,6.05,0,0,0,.87-.72c.27-.26.52-.53.76-.8s.47-.55.72-.81l.39-.39a5.14,5.14,0,0,1,.42-.38A14.53,14.53,0,0,1,156,78.25a18.67,18.67,0,0,1,2.1-1.19,22.66,22.66,0,0,1,2.26-1c.77-.3,1.56-.55,2.34-.78S164.25,74.9,165,74.74Z"/><path class="cls-71" d="M153.92,84.89l.14-.15.16-.18.25-.23.32-.27.4-.29c.29-.2.63-.41,1-.63s.79-.46,1.21-.72a8.59,8.59,0,0,0,1.23-.9,4.23,4.23,0,0,0,1-1.19,9.8,9.8,0,0,0,.58-1.3,6.37,6.37,0,0,1,.64-1.38,4.66,4.66,0,0,1,1.09-1.18,8,8,0,0,1,1.44-.91,13.12,13.12,0,0,1,1.53-.64c.5-.17,1-.32,1.42-.43l1.14-.3.76-.17.27-.07L168,74l-.62.1c-.24.05-.52.09-.83.16s-.65.13-1,.22l-.56.15-.6.18a11,11,0,0,0-1.25.48l-.32.15-.32.16c-.21.11-.41.25-.62.38s-.2.15-.3.22a2.17,2.17,0,0,0-.29.24l-.28.25-.25.27a2.17,2.17,0,0,0-.23.3,2.86,2.86,0,0,0-.22.3,5.75,5.75,0,0,0-.34.65,10.75,10.75,0,0,1-1.23,2.58,11.41,11.41,0,0,1-2.46,2,12.92,12.92,0,0,0-1.3,1A4.92,4.92,0,0,0,153.92,84.89Z"/><path class="cls-72" d="M180,75.4l-1.24.23c-.77.15-1.88.37-3.15.68-.64.16-1.33.33-2,.54s-1.44.43-2.17.7a21.54,21.54,0,0,0-2.16.92c-.18.08-.34.18-.52.27l-.5.29c-.32.2-.64.4-.94.61-.67.45-1.33.93-2,1.38A21.77,21.77,0,0,1,163,82.26c-.78.37-1.57.7-2.36,1s-1.55.54-2.28.76c-1.46.44-2.75.76-3.67,1l-1.46.35.74-.14c.48-.09,1.18-.22,2-.4l1.44-.32c.52-.12,1.07-.26,1.65-.43s1.19-.34,1.82-.56,1.28-.45,1.94-.74a18.5,18.5,0,0,0,1.95-1,20.81,20.81,0,0,0,1.9-1.19c.62-.43,1.23-.86,1.89-1.26a17.8,17.8,0,0,1,2.09-1.07c.73-.32,1.49-.61,2.27-.88s1.55-.51,2.34-.74C176.87,76.19,178.44,75.79,180,75.4Z"/><path class="cls-73" d="M160.35,85.08l5.44-.54,2.54-.27c.9-.09,1.83-.18,2.79-.33a12.53,12.53,0,0,0,2.82-.77,21.34,21.34,0,0,0,2.48-1.27c.84-.5,1.71-1,2.62-1.49s1.86-.93,2.82-1.34,1.94-.8,2.91-1.11l.72-.23.71-.21.7-.19.34-.09.34-.08.67-.15.65-.13.62-.12.59-.09,1.09-.14.5-.06.45,0c.29,0,.54,0,.77,0l.58,0,.48,0h-.91c-.3,0-.67,0-1.1,0-.21,0-.44,0-.68,0l-.78.06c-.54.06-1.14.12-1.77.23l-.49.08-.5.1-.52.1-.53.12c-.36.09-.73.17-1.1.28l-.56.15-.57.18-.59.18-.58.2c-.4.13-.8.29-1.2.44s-.8.33-1.21.5-.81.36-1.22.55-.82.39-1.22.61l-.61.32-.6.34c-.81.46-1.59,1-2.42,1.38a12.54,12.54,0,0,1-2.65,1.06,23.44,23.44,0,0,1-3,.52l-3,.41C164.19,84.5,162.23,84.79,160.35,85.08Z"/><path class="cls-74" d="M185,75.91l-.28,0-.78.12c-.33.06-.73.15-1.18.27s-.93.28-1.45.46a18.17,18.17,0,0,0-3.29,1.53,9.19,9.19,0,0,0-1.52,1.15c-.46.42-.89.84-1.35,1.21l-.39.3-.2.15-.21.15-.43.28-.46.26-.47.26-.48.24c-.34.14-.67.3-1,.42-.68.27-1.39.49-2.08.69-.34.09-.68.19-1,.26s-.66.16-1,.23c-1.28.27-2.4.46-3.19.59l-1.27.21.64-.07,1.78-.19,1.24-.17c.45-.06.93-.14,1.44-.23l.78-.16.82-.19.85-.22.86-.27a16,16,0,0,0,1.75-.7l.43-.21.43-.23c.29-.15.55-.34.83-.51s.26-.19.39-.29l.39-.29c.25-.21.48-.43.71-.64.47-.44.91-.88,1.41-1.27a13.51,13.51,0,0,1,1.64-1c.59-.32,1.2-.62,1.82-.89s1.25-.51,1.88-.73A13.28,13.28,0,0,1,185,75.91Z"/><path class="cls-75" d="M206.36,77.19l-1.4,0c-.89,0-2.14,0-3.61,0s-3.16.09-4.91.22c-.87.07-1.77.13-2.67.27a11.15,11.15,0,0,0-2.56.74,26,26,0,0,0-2.53,1.27c-.82.45-1.67.89-2.52,1.32-1.7.84-3.42,1.6-5,2.22-.77.32-1.5.59-2.15.83l-1.73.61-1.15.37-.41.13.8-.21c.51-.14,1.26-.35,2.19-.64A59.14,59.14,0,0,0,186,81.52c.7-.32,1.42-.67,2.15-1s1.45-.77,2.2-1.14a14.26,14.26,0,0,1,2.38-1,14.8,14.8,0,0,1,2.65-.47c1.85-.19,3.71-.34,5.56-.45S204.61,77.26,206.36,77.19Z"/><path class="cls-76" d="M181.69,84.18l5.68-.31c1.66-.09,3.58-.19,5.57-.36a41.09,41.09,0,0,0,6-.91c1.05-.26,2.11-.58,3.17-.91l1.61-.47c.54-.15,1.08-.29,1.63-.41,1.09-.25,2.18-.46,3.25-.61s2.11-.25,3.08-.3,1.89-.08,2.71-.07,1.54,0,2.13.08,1.08.08,1.4.12l.51,0-.94-.14-1.13-.12-.71-.07-.8,0-.9,0-1,0H211.9c-.36,0-.73,0-1.12,0-.77,0-1.59.11-2.43.21s-1.73.24-2.63.42-1.83.39-2.75.65-1.86.55-2.82.82-1.93.5-2.94.7-2,.34-3.08.48c-2.09.25-4.22.41-6.32.61S183.66,84,181.69,84.18Z"/><path class="cls-77" d="M23.5,83.8l6.16-3.2,2.89-1.5,3.15-1.65c1.08-.55,2.2-1.09,3.35-1.58a29.36,29.36,0,0,1,3.51-1.26q1-.28,2-.48c.7-.14,1.41-.24,2.13-.32,1.44-.17,2.92-.25,4.39-.31s2.94-.12,4.34-.22,2.75-.23,4-.35l3.48-.33c1-.09,2-.17,2.75-.22l1.81-.11.66,0-1.24,0-1.46,0-1.95.1c-1.46.08-3.21.22-5.19.36-1,.07-2,.14-3.12.19s-2.23.1-3.42.12-2.42.07-3.68.16a32.39,32.39,0,0,0-3.85.48c-.65.13-1.29.29-1.93.47s-1.26.39-1.88.62a37.6,37.6,0,0,0-3.61,1.59c-1.17.58-2.31,1.21-3.44,1.83L30,80.11C27.76,81.36,25.58,82.59,23.5,83.8Z"/><path class="cls-77" d="M44,84.43l1.37-.54c.85-.35,2.07-.84,3.48-1.45s3-1.34,4.63-2.18,3.22-1.78,4.73-2.7,3.43-2.1,5.25-3.06a32.81,32.81,0,0,1,5.44-2.31,21.93,21.93,0,0,1,2.46-.64l.56-.1a4.71,4.71,0,0,1,.52-.09l.48-.07.45,0c.29,0,.54,0,.77-.07l.57,0h-.43c-.29,0-.66,0-1.08.05l-.69.06-.37,0-.39,0c-.54.07-1.12.19-1.75.32s-1.29.32-2,.54-1.41.47-2.15.77-1.48.62-2.24,1c-1.52.74-3.06,1.62-4.63,2.55s-3.15,1.93-4.81,2.87C50.93,81.26,47.32,82.88,44,84.43Z"/><path class="cls-77" d="M78.46,71.55l-1.26.77c-.39.25-.88.53-1.44.85s-1.2.65-1.92,1a16.91,16.91,0,0,1-2.38.87,12.93,12.93,0,0,1-2.77.47,28.82,28.82,0,0,0-3,.19,17.81,17.81,0,0,0-2.92.72c-1,.34-2,.75-3,1.17l-1.52.61-1.55.59c-1,.41-2,.83-3,1.24l-2.72,1.22c-.85.39-1.63.76-2.33,1.1s-1.32.64-1.82.9l-1.17.62-.41.24.21-.11c.13-.06.33-.17.6-.29.52-.26,1.3-.62,2.29-1.06s2.18-.94,3.54-1.51,2.88-1.18,4.53-1.81l1.26-.46L59,78.36l2.67-1a25.11,25.11,0,0,1,2.82-.91,14.36,14.36,0,0,1,1.48-.3c.26,0,.51-.07.77-.09l.77-.05c.53,0,1.06,0,1.6-.1.27,0,.54-.07.8-.1l.79-.16a15.23,15.23,0,0,0,2.94-1,22.54,22.54,0,0,0,2.57-1.44C77,72.61,77.72,72.08,78.46,71.55Z"/><path class="cls-77" d="M71.26,75.27l-.11.2a2.91,2.91,0,0,1-.44.47,4.58,4.58,0,0,1-.89.57,13,13,0,0,1-1.27.58c-.47.19-1,.39-1.51.64s-1,.55-1.57.82l-1.62.84-1.64.82-1.82.89-1.9.88-.94.43-.93.41c-.61.27-1.21.52-1.76.75l-1.55.64-1.23.48L51,85.11l.57-.17c.38-.11.91-.28,1.58-.5l1.1-.38c.4-.14.83-.28,1.27-.45s.92-.34,1.41-.54l1.53-.61,1.6-.69c.55-.25,1.11-.5,1.67-.77l1.69-.84c.57-.29,1.13-.59,1.7-.9s1.12-.63,1.66-1a16.82,16.82,0,0,1,1.69-.87,12.84,12.84,0,0,0,1.68-.91,3.87,3.87,0,0,0,.7-.57A2,2,0,0,0,71.26,75.27Z"/><path class="cls-77" d="M63.81,84.43l.73-.67c.45-.43,1.1-1,1.89-1.71A23.92,23.92,0,0,1,69.26,80,15.59,15.59,0,0,1,71,79c.6-.28,1.22-.52,1.84-.75,1.17-.42,2.36-.81,3.49-1.3.55-.24,1-.55,1.56-.81s1.09-.49,1.61-.78l.29-.18a8.64,8.64,0,0,0,.88-.69,16.14,16.14,0,0,1,1.58-1.22c.44-.28.9-.52,1.37-.77A2.73,2.73,0,0,1,85,72.09a7.52,7.52,0,0,0-.89,0c-.1,0-.27.07-.46.14l-.34.11-.38.16c-.27.12-.58.27-.9.45s-.68.4-1,.64-.74.52-1.14.8a20.15,20.15,0,0,1-2.73,1.76,27.76,27.76,0,0,1-3.61,1.4c-.66.23-1.32.46-2,.74a14.64,14.64,0,0,0-1.9,1,18,18,0,0,0-3.24,2.48C65.45,82.58,64.61,83.52,63.81,84.43Z"/><path class="cls-77" d="M97.58,73.72l-.46.09c-.3.06-.73.15-1.27.28s-1.2.28-1.93.47-1.55.44-2.43.71a58.07,58.07,0,0,0-5.71,2.09c-1,.43-2,.89-3,1.39s-1.87,1-2.76,1.58-2,1.19-3,1.75a33.47,33.47,0,0,1-3.33,1.51c-1.15.44-2.31.84-3.44,1.23L67,85.91l-7,2.41,3.78-1.15,4.21-1.31,2.55-.8c.88-.28,1.81-.58,2.76-.92s1.91-.71,2.87-1.15a31.85,31.85,0,0,0,2.83-1.49c.93-.54,1.85-1.1,2.8-1.66s1.92-1.07,2.94-1.56a65,65,0,0,1,6.32-2.6c1.08-.39,2.16-.75,3.24-1.07C95,74.39,96.27,74.05,97.58,73.72Z"/><path class="cls-77" d="M104.63,74.2l-.25.07c-.25.07-.56.15-.93.22l-.59.11-.68.11c-1,.14-2.11.23-3.42.36-.66.06-1.35.14-2.07.26a15.46,15.46,0,0,0-2.23.5,17.42,17.42,0,0,0-2.23.87c-.73.34-1.45.72-2.17,1.12s-1.44.82-2.18,1.22-1.5.76-2.3,1.1-1.63.63-2.47.91-1.68.54-2.53.79c-1.69.49-3.39.92-5,1.29l.36,0,1-.17c.84-.16,2-.39,3.4-.72.69-.16,1.43-.35,2.19-.57s1.55-.45,2.34-.74,1.58-.58,2.34-.94,1.49-.76,2.18-1.15,1.54-.88,2.35-1.31a20.62,20.62,0,0,1,2.53-1.15,17,17,0,0,1,2.7-.71c.9-.16,1.79-.28,2.62-.38s1.61-.21,2.3-.33,1.29-.24,1.78-.37c.25-.06.47-.13.65-.19l.42-.14Z"/><path class="cls-77" d="M83.35,84.63l.89-.36a23.75,23.75,0,0,0,2.2-1,12,12,0,0,0,1.32-.83A11.68,11.68,0,0,0,89,81.34c.41-.38.8-.78,1.2-1.16l.62-.55c.22-.17.43-.35.65-.51a15.42,15.42,0,0,1,1.58-1l.42-.25.44-.24c.29-.16.59-.3.89-.45s.61-.28.91-.42l.9-.38c.61-.23,1.2-.45,1.76-.63s1.09-.35,1.56-.49l.68-.18.59-.15.83-.19.31-.07-.59.09-.68.12-.44.08-.48.1-1.12.25-.62.17-.66.19-.69.21-.72.24-.74.28c-.25.09-.5.2-.75.31a18.42,18.42,0,0,0-3.06,1.62c-.25.15-.49.34-.73.51l-.7.55c-.22.2-.45.4-.66.61l-.61.63c-.4.42-.79.84-1.23,1.22a10,10,0,0,1-1.4,1.07A34.52,34.52,0,0,1,83.35,84.63Z"/><path class="cls-77" d="M88.89,82.92a31.68,31.68,0,0,0,3.36-2.06c1.07-.58,2-1.36,3.26-2.06l1.92-1.06c.65-.36,1.29-.7,1.94-1a14.34,14.34,0,0,1,2.28-.86,15.91,15.91,0,0,1,2.53-.43l1.3-.1c.43,0,.85-.06,1.27-.07.83,0,1.64,0,2.4,0,1.51,0,2.82,0,3.75,0l1.09,0,.39,0h-.74c-.48,0-1.17,0-2,0s-1.92-.09-3.11-.12c-.59,0-1.22,0-1.89,0s-1.34,0-2.06.08a19.19,19.19,0,0,0-2.2.24,12.32,12.32,0,0,0-2.23.63,19.13,19.13,0,0,0-2.1,1c-.68.37-1.34.75-2,1.14C93.36,79.56,91.28,81.38,88.89,82.92Z"/><path class="cls-77" d="M93.38,85.14s.42-.15,1.12-.44,1.68-.72,2.79-1.29,2.33-1.28,3.57-2,2.54-1.54,3.83-2.22c.69-.37,1.44-.74,2.21-1.1s1.56-.7,2.36-1c.4-.16.81-.3,1.2-.45s.8-.28,1.19-.4l.59-.19.58-.17c.38-.12.76-.22,1.12-.32.73-.19,1.41-.35,2-.48s1.17-.23,1.64-.31.83-.12,1.08-.16l.39-.06-.74.07-.89.09-1.17.16-.69.12-.74.13-.8.17-.85.19c-.58.14-1.19.3-1.82.49s-1.28.39-1.94.63c-.34.11-.67.24-1,.37l-1,.41c-.68.28-1.37.59-2,.93l-.52.26-.51.27c-.34.18-.68.36-1,.56-.67.38-1.33.79-2,1.21-1.31.83-2.59,1.68-3.92,2.46S94.72,84.51,93.38,85.14Z"/><path class="cls-77" d="M109.15,77.08l-.1.07-.27.2a4.89,4.89,0,0,0-.4.34c-.14.13-.3.29-.46.46s-.31.37-.46.58-.3.43-.45.66c-.28.46-.54.94-.79,1.4s-.54,1-.86,1.55a7.39,7.39,0,0,1-1.09,1.35,5.87,5.87,0,0,1-.58.48,2.31,2.31,0,0,1-.28.19l-.25.15-.21.11-.16.07-.14.07.28-.09a2.28,2.28,0,0,0,.33-.12l.43-.19.24-.13.24-.15a5.71,5.71,0,0,0,.52-.38c.17-.15.35-.31.51-.48s.34-.37.5-.57a10.91,10.91,0,0,0,.87-1.33c.26-.48.5-1,.75-1.47l.39-.74q.2-.36.42-.72a7.51,7.51,0,0,1,.47-.68A8.27,8.27,0,0,1,109.15,77.08Z"/><path class="cls-77" d="M100.25,85.89l4.67-2.82,4.55-2.8c.82-.5,1.64-1,2.47-1.52a11.89,11.89,0,0,1,1.27-.68,10.37,10.37,0,0,1,1.34-.53c1-.33,2.12-.57,3.25-.83s2.27-.51,3.4-.74c2.27-.46,4.52-.85,6.5-1.13,1-.13,1.92-.25,2.75-.34s1.58-.15,2.19-.2l.83-.06.61,0,.52,0-1,0c-.64,0-1.56,0-2.72.13l-.92.06-1,.09c-.69.06-1.43.14-2.21.24s-1.61.21-2.47.33-1.76.28-2.69.45-1.87.35-2.85.55-2,.42-3,.66a14.08,14.08,0,0,0-3,1,25.43,25.43,0,0,0-2.63,1.58C106.77,81.49,103.35,83.76,100.25,85.89Z"/><path class="cls-77" d="M141.45,73.94,141,74l-1.18.22c-.51.1-1.12.22-1.81.38s-1.45.35-2.27.58-1.7.49-2.6.79-1.82.65-2.75,1-1.84.81-2.73,1.27-1.74,1-2.58,1.43a18.66,18.66,0,0,1-3,1.36,19.31,19.31,0,0,1-3.38.73c-1.16.16-2.32.29-3.43.51a30.35,30.35,0,0,0-3.12.76,29.36,29.36,0,0,0-4.54,1.77c-.54.26-1,.48-1.23.64l-.43.24.22-.11.62-.31c.28-.13.62-.29,1-.46s.88-.37,1.41-.57,1.12-.4,1.76-.61,1.36-.39,2.12-.58,1.57-.34,2.43-.48,1.76-.24,2.71-.35a26.31,26.31,0,0,0,2.92-.46,13.23,13.23,0,0,0,2.89-1c.92-.44,1.8-1,2.68-1.46s1.79-1,2.73-1.42a46.5,46.5,0,0,1,5.89-2.32C137.43,74.93,139.47,74.4,141.45,73.94Z"/><path class="cls-77" d="M122.34,84.88l.15-.18.19-.21c.09-.08.18-.17.3-.26a6.1,6.1,0,0,1,.93-.57c.37-.2.82-.39,1.3-.61.24-.1.49-.22.74-.34s.5-.28.75-.42a12.11,12.11,0,0,0,1.44-1.06c.92-.77,1.75-1.64,2.6-2.42a15.86,15.86,0,0,1,1.51-1.24,8.4,8.4,0,0,1,.87-.53c.14-.09.31-.17.46-.25l.48-.25a18.9,18.9,0,0,1,1.87-.91l.46-.17.49-.15.93-.27c1.22-.33,2.29-.59,3-.78l1.2-.31-2.31.44c-.72.14-1.59.31-2.56.55l-.75.19a7,7,0,0,0-.78.24c-.52.2-1,.43-1.56.68s-1,.51-1.6.81A12.17,12.17,0,0,0,131,77.92c-.95.79-1.78,1.68-2.66,2.54a18.26,18.26,0,0,1-1.4,1.22,11,11,0,0,1-1.61,1c-.57.3-1.16.59-1.7.94A3.74,3.74,0,0,0,122.34,84.88Z"/><path class="cls-77" d="M148.93,73.87s-.44.1-1.2.3-1.82.49-3,.92c-.6.22-1.24.48-1.88.79A8.1,8.1,0,0,0,141,77.07a14.92,14.92,0,0,0-1.43,1.57,8.28,8.28,0,0,1-1.47,1.43A9.72,9.72,0,0,1,136,81.22c-.78.33-1.62.61-2.45.9l-4.7,1.63-4.89,1.74s4-1.17,9.39-2.88c.67-.22,1.37-.43,2.08-.68a14.15,14.15,0,0,0,2.12-.92,7.27,7.27,0,0,0,1.85-1.38c.52-.54.94-1.12,1.41-1.67a7.78,7.78,0,0,1,.75-.77,5,5,0,0,1,.43-.35c.15-.11.31-.21.47-.31a15.07,15.07,0,0,1,2.08-1.07C146,74.84,147.47,74.33,148.93,73.87Z"/><path class="cls-77" d="M133.7,86l.26-.23a6.49,6.49,0,0,1,.77-.62c.18-.12.37-.25.6-.38s.47-.27.75-.4a19.53,19.53,0,0,1,1.88-.78c.7-.25,1.47-.51,2.28-.78a25.81,25.81,0,0,0,2.45-1,5.76,5.76,0,0,0,.61-.3c.2-.1.41-.2.6-.32.39-.23.75-.48,1.11-.73.71-.51,1.38-1,2.06-1.53a13.8,13.8,0,0,1,1.16-.78,9.23,9.23,0,0,1,1.3-.64,13.86,13.86,0,0,1,3-.66l.79-.16c.26-.06.52-.12.77-.2q.74-.23,1.44-.48c.92-.34,1.8-.69,2.63-1a24.15,24.15,0,0,1,2.32-.77c.18-.06.35-.1.52-.14l.5-.12c.32,0,.62-.12.89-.15l.4,0a2.06,2.06,0,0,1,.34,0,5.53,5.53,0,0,1,.56,0l.47,0-.23,0-.27,0a2.24,2.24,0,0,0-.38,0h-.49l-.57,0c-.41,0-.88.12-1.39.23l-.8.18-.86.25c-.59.17-1.22.38-1.87.61l-2.08.71a17.57,17.57,0,0,1-2.3.62c-.82.15-1.71.21-2.61.42a8.6,8.6,0,0,0-1.33.43,12.75,12.75,0,0,0-1.22.63,24.45,24.45,0,0,0-2.18,1.55,21.32,21.32,0,0,1-2.18,1.54,17.58,17.58,0,0,1-2.51,1.19c-.88.35-1.79.67-2.67,1a19.57,19.57,0,0,0-2.53,1.18A7.66,7.66,0,0,0,133.7,86Z"/><path class="cls-77" d="M164.35,74.71l-.34,0-.94.15-.66.12c-.24,0-.5.1-.77.17-.54.13-1.14.28-1.78.49l-.49.15-.49.18c-.34.11-.68.25-1,.39a18.49,18.49,0,0,0-2.07,1,16.68,16.68,0,0,0-2,1.25,12.85,12.85,0,0,0-1.69,1.49c-.55.58-1,1.21-1.6,1.76a8.43,8.43,0,0,1-2.11,1.37,24,24,0,0,1-2.43,1l-2.35.79-5.1,1.72,2.77-.79,3.1-.9,1.86-.56c.65-.2,1.33-.42,2-.7a10.45,10.45,0,0,0,2-1.05,7.67,7.67,0,0,0,.88-.72q.39-.39.75-.81c.24-.27.47-.55.72-.81L153,80a3.7,3.7,0,0,1,.41-.37,13.7,13.7,0,0,1,1.84-1.4,20.37,20.37,0,0,1,2.1-1.19c.73-.37,1.49-.68,2.26-1s1.56-.54,2.34-.77S163.56,74.86,164.35,74.71Z"/><path class="cls-77" d="M153.53,84.88l.13-.15.17-.18.24-.23.33-.26.4-.29c.29-.2.63-.41,1-.64s.78-.45,1.2-.71a8.75,8.75,0,0,0,1.24-.91,4.34,4.34,0,0,0,1-1.18,10.41,10.41,0,0,0,.57-1.31,6.6,6.6,0,0,1,.65-1.37,4.7,4.7,0,0,1,1.09-1.19,7.62,7.62,0,0,1,1.44-.91,13,13,0,0,1,1.53-.63c.5-.18,1-.32,1.41-.44l1.15-.3.76-.17.27-.06-.53.07-.62.1c-.25,0-.53.09-.84.16l-1,.22-.56.15-.6.18c-.4.14-.83.29-1.25.48l-.32.15-.32.17a7,7,0,0,0-.63.38c-.1.06-.19.14-.29.21a3.36,3.36,0,0,0-.29.24l-.28.25-.25.28a3.92,3.92,0,0,0-.45.6,5.75,5.75,0,0,0-.34.65,10.34,10.34,0,0,1-1.24,2.57,10.89,10.89,0,0,1-2.46,2,16.08,16.08,0,0,0-1.29,1A4.89,4.89,0,0,0,153.53,84.88Z"/><path class="cls-77" d="M179,75.4l-1.24.23c-.78.15-1.88.37-3.16.68-.63.16-1.32.33-2,.54s-1.44.43-2.17.7a20.6,20.6,0,0,0-2.16.92c-.18.08-.35.18-.52.27l-.5.29c-.33.2-.64.4-.94.61-.67.45-1.33.93-2,1.38A20.9,20.9,0,0,1,162,82.26c-.77.37-1.57.7-2.35,1s-1.55.54-2.28.76c-1.47.44-2.76.76-3.67,1l-1.47.35.75-.14c.48-.09,1.18-.22,2-.4l1.44-.32c.51-.12,1.07-.26,1.65-.43s1.19-.34,1.82-.56,1.28-.45,1.93-.74a18.64,18.64,0,0,0,2-1,20.81,20.81,0,0,0,1.9-1.19c.61-.43,1.23-.86,1.89-1.26a18.47,18.47,0,0,1,2.08-1.07c.74-.32,1.5-.61,2.27-.88s1.56-.51,2.35-.74C175.9,76.19,177.47,75.79,179,75.4Z"/><path class="cls-77" d="M159.19,85.08l5.43-.54,2.55-.27c.89-.09,1.83-.18,2.78-.33a12.53,12.53,0,0,0,2.82-.77,20.57,20.57,0,0,0,2.48-1.27c.85-.5,1.71-1,2.62-1.49s1.86-.93,2.83-1.34,1.94-.8,2.9-1.11l.72-.23.71-.21.7-.19.35-.09.34-.08.66-.15.65-.13.62-.12.59-.09c.39-.06.76-.1,1.1-.14l.49-.06.45,0c.29,0,.55,0,.77,0l.58,0,.49,0h-.92c-.3,0-.66,0-1.09,0-.22,0-.45,0-.69,0l-.77.06c-.54.06-1.14.12-1.78.23l-.49.08-.5.1-.52.1-.53.12c-.36.09-.72.17-1.09.28l-.57.15-.57.18-.58.18-.59.2c-.4.13-.79.29-1.2.44s-.8.33-1.21.5-.81.36-1.22.55-.81.39-1.21.61l-.61.32-.61.34c-.8.46-1.59,1-2.42,1.38A12.33,12.33,0,0,1,171,83.29a23.44,23.44,0,0,1-3,.52l-3,.41C163,84.5,161.06,84.79,159.19,85.08Z"/><path class="cls-77" d="M184.4,75.91l-.28,0-.78.12c-.33.06-.73.15-1.17.27s-.93.28-1.45.46a18.17,18.17,0,0,0-3.29,1.53,9.71,9.71,0,0,0-1.53,1.15c-.46.42-.89.84-1.34,1.21l-.39.3-.2.15-.21.15-.43.28-.46.26-.47.26-.49.24c-.33.14-.66.3-1,.42-.68.27-1.38.49-2.07.69-.35.09-.68.19-1,.26s-.66.16-1,.23c-1.28.27-2.4.46-3.2.59l-1.26.21.64-.07,1.77-.19,1.25-.17c.45-.06.93-.14,1.44-.23l.78-.16.82-.19.84-.22c.29-.09.58-.17.87-.27a16,16,0,0,0,1.75-.7l.43-.21.42-.23c.29-.15.56-.34.83-.51s.27-.19.4-.29L175,81c.25-.21.49-.43.72-.64a18.65,18.65,0,0,1,1.4-1.27,13.64,13.64,0,0,1,1.65-1c.59-.32,1.19-.62,1.81-.89s1.25-.51,1.89-.73A13.49,13.49,0,0,1,184.4,75.91Z"/><path class="cls-77" d="M204.3,77a.09.09,0,0,1-.08,0c-.88,0-2.13,0-3.6,0s-3.15.09-4.91.22c-.87.07-1.77.13-2.66.27a10.87,10.87,0,0,0-2.56.75A24.83,24.83,0,0,0,188,79.44c-.83.45-1.68.89-2.53,1.32-1.7.84-3.42,1.61-5,2.22-.77.32-1.5.59-2.15.83l-1.73.61-1.14.37-.42.14.8-.22c.51-.14,1.26-.35,2.19-.64a60.52,60.52,0,0,0,7.26-2.78c.7-.33,1.42-.68,2.15-1.05s1.45-.77,2.2-1.14a14.62,14.62,0,0,1,2.38-1,14.8,14.8,0,0,1,2.65-.47c1.85-.19,3.72-.34,5.56-.45,1.5-.1,3-.17,4.42-.23Z"/><path class="cls-77" d="M217.1,79.56l-.61-.07-.72-.07-.8,0-.89,0-1,0h-1l-1.13,0c-.77,0-1.58.12-2.43.21s-1.73.24-2.63.42-1.82.4-2.75.66-1.86.54-2.81.81-1.94.51-2.94.7-2,.35-3.09.48c-2.09.26-4.22.42-6.31.61s-4.16.39-6.12.6l5.67-.3c1.67-.1,3.58-.19,5.57-.37a39.77,39.77,0,0,0,6-.91c1.05-.25,2.11-.58,3.18-.9l1.6-.48c.54-.14,1.09-.29,1.63-.41,1.09-.25,2.19-.45,3.25-.6s2.11-.25,3.09-.31,1.88-.08,2.7-.07,1.54,0,2.14.08l.62,0Z"/></g><path class="cls-78" d="M178.67,20.73l.43.44a4.24,4.24,0,0,1-3.39-.7,1.46,1.46,0,0,0-.63-.46c-.61-.13-.93.53-1.29.94-.73.84-2.38.79-3.4.19a5.87,5.87,0,0,1-2-2.53,16.92,16.92,0,0,1-8.06,1.93,7.08,7.08,0,0,0-2.69.24c-1,.42-1.56,1.39-2.43,2A8.71,8.71,0,0,1,152.23,24c-3.25.86-6.65,1.73-10,1.37a6.18,6.18,0,0,0-2.57,0,11.76,11.76,0,0,0-1.85,1.08c-3.14,1.66-7.63-1.61-10.91-.15a4.07,4.07,0,0,1-1.93.67,3.12,3.12,0,0,1-.85-.27,17.57,17.57,0,0,0-6.74-1.38,8.62,8.62,0,0,1-2-.13,8.83,8.83,0,0,1-1.67-.71,12.35,12.35,0,0,0-6.31-1.08,2.11,2.11,0,0,1-2.53,1.44A14.79,14.79,0,0,0,94,24.4,8.42,8.42,0,0,1,95.28,23c.71-.44,1.56-1.13,2.26-.88a4.5,4.5,0,0,0,2.42-.05,3.15,3.15,0,0,1,2.73,0,6.14,6.14,0,0,1,2,1.55c.24.44,1.17.5,1.41.38s.46-1.5.86-1.5.7-.32,1.24-.26a10.59,10.59,0,0,1,2.18.44,4.77,4.77,0,0,0,1.48.44,6.91,6.91,0,0,0,1.72-.31,10.59,10.59,0,0,1,1.4,1.13c.47.5,1,1.19,1,1.19l1.87-.13s0-.5.77-.5a3,3,0,0,1,1.33.31h2A10,10,0,0,1,123.65,26l1.8.69a2.14,2.14,0,0,1,.85-1,5.93,5.93,0,0,1,1.87-.63c.31.07,1.41.13,1.41.13l1.09-.57a1.41,1.41,0,0,1,1.17.25,10,10,0,0,1,1.32,1,3.24,3.24,0,0,0,1.71.37,19.76,19.76,0,0,0,3-1c.23-.12,1.09-1,2-.88a11.44,11.44,0,0,1,1.72.38s1.56.06,1.95.12a6.67,6.67,0,0,1,1.16.44s1.1-.87,1.33-1a5.48,5.48,0,0,1,1.64-.44,10.52,10.52,0,0,0,1.32-.12,4.21,4.21,0,0,1,1.09.19,9.84,9.84,0,0,0,1.8-.44c.23-.06,1.4-1.19,1.63-1.32a2.14,2.14,0,0,1,.94.06l1.09-1.31s1.63-.56,2.41-.88a9.06,9.06,0,0,1,2.26-.37l.78.75L162.7,20a8,8,0,0,1,1.17-.88c.23-.06,1.87,0,1.87,0a9.8,9.8,0,0,1,1.64-1h1.79l1.17.88a2.69,2.69,0,0,0,0,1.44.88.88,0,0,0,.77.56l.71-1.44.78.13a7.54,7.54,0,0,1,1.55-1,3.46,3.46,0,0,1,1.25.32l.47,1.13,1,.68,1.33-.75Z"/><path class="cls-1" d="M186.08,23l1,3.76a2,2,0,0,1-.34-.23,3.19,3.19,0,0,1-.8-1,22.51,22.51,0,0,1-2.1-4.79,10.64,10.64,0,0,0-4.18.36l-.46.07v-.93l1-.19.55.44.78-.5.86-.12.85-.51.86-.06.7.63a1.61,1.61,0,0,1,.7.87C185.69,21.36,186.08,23,186.08,23Z"/><path class="cls-1" d="M191.53,27.62l.86,1.32a35.55,35.55,0,0,0-4.21-1.76c-.28-.1-.57-.19-.83-.31l.6-.44,1.71-.06v.5l.78-.81,1.09.56Z"/><path class="cls-1" d="M194.81,29.25v1c-.75-.44-1.52-.86-2.3-1.25l.43-.75,1.17.12Z"/><path class="cls-41" d="M194.81,32.79v2.28l-61.93-.6-22.48-.22L85.8,34h-.26s1.64-.12,2.11-.63l76.19.35,3-.09,10.28-.32,3-.09a9,9,0,0,1,1.37,0c.5.08,1,.21,1.49.29,2,.31,4,.41,6,.77a1.83,1.83,0,0,0,.47,0,2.21,2.21,0,0,0,.37-.08c1-.31,2-.66,2.89-1.06.23-.09.46-.22.7-.3a1.88,1.88,0,0,1,.63-.08Z"/></g></g></g></g></svg>