<svg xmlns="http://www.w3.org/2000/svg" viewBox="0 0 1202.9 217.95"><defs><style>.cls-1{opacity:0.5;}.cls-2{fill:#b64926;}.cls-3{fill:#7f2929;}</style></defs><title>設施介紹-資產 12</title><g id="圖層_2" data-name="圖層 2"><g id="圖層_1-2" data-name="圖層 1"><g class="cls-1"><path class="cls-2" d="M101.76,126.11c5.88,1.35,11,2.64,16.17,3.64a9.19,9.19,0,0,0,4.14-.64c10.37-3.18,20.71-6.44,31.09-9.6a23.64,23.64,0,0,1,4.41-.55c11.78-1.15,23.55-2.57,35.36-3.35,10.34-.68,20.73-.55,31.09-.93q54.85-2,109.7-4.11c.87,0,1.73-.16,2.59-.13,22.47.66,44.61-2.51,66.82-5.17,8.51-1,17.28-.39,25.9,0,19.86,1,39.7,2.54,59.57,3.36,11.59.47,23.23.28,34.83-.22,7-.29,13.94-2,20.94-2.61,9.73-.84,19.5-1.12,29.23-1.9,2.19-.17,4.26-1.5,6.44-2.07,2.69-.71,5.56-2,8.13-1.6a93.12,93.12,0,0,0,26.57,0c2.85-.38,6,1.35,9,2.18,1.5.41,2.93,1.27,4.43,1.41,16.23,1.58,32.45,3.25,48.7,4.48,7.74.58,15.55.22,23.33.37A602.69,602.69,0,0,0,775,105.23c13.18-1.38,26.36-.29,39.5,1.87,20,3.31,40.37,3.1,60.62,3.76,35.46,1.17,70.91,2.61,106.37,3.89,9.62.35,19.26.24,28.86.88,11.07.74,22.08,2.33,33.15,3.1,12.44.85,23.85,5.17,35.28,9.55,2.84,1.08,5.25,1.81,8.64.71,10.58-3.44,21.18-2.33,31.57,1.61,14,5.31,28,10.49,42,15.67,10.31,3.8,20.76,7.27,30.93,11.44a22.82,22.82,0,0,1,8.78,6.88c3,3.76,2.8,8.4.19,12.55a11.12,11.12,0,0,1-11.43,5.34,30,30,0,0,1-7.86-2c-22.5-9.3-45-18.55-67.36-28.2-6.65-2.87-12.77-7-19.16-10.47a4.41,4.41,0,0,0-2.66-.84c-11.09,2.72-22.1,1-33.17-.22-9.45-1-19-1.21-28.43-2.16-9.94-1-19.81-2.64-29.74-3.65-7.37-.74-14.79-1.06-22.19-1.34-39.17-1.47-78.32-3.35-117.5-4.11-21.58-.42-42.83-3.23-64.22-5.33-10.34-1-20.93.62-31.41,1.07-20.49.86-41,1.6-61.48,2.65-14.92.76-29.54-1.41-44.29-3.11a477.32,477.32,0,0,0-48.83-3.11c-17.14-.22-34.31.7-51.44,1.67-10.47.6-20.85,2.72-31.32,3.29-14.91.81-29.87,1.42-44.79,1-17.77-.47-35.53-1.87-53.27-3.28a156.22,156.22,0,0,0-38,1.43c-25.83,4.26-52,3.38-78,4.57-29.76,1.36-59.54,2.13-89.32,3.18a285.94,285.94,0,0,0-42.31,4.42l-.37.06c-20.81,1.42-41.61,3.58-62.44,3.88a43.86,43.86,0,0,0-20.14,4.64c-16,7.92-32.7,14.59-49.15,21.68q-13.28,5.72-26.67,11.16a52.26,52.26,0,0,1-9.89,3,11.2,11.2,0,0,1-12.13-5.29,11.19,11.19,0,0,1,.84-13.5,21.69,21.69,0,0,1,8.23-5.94Q46.46,144.17,82.2,131.3C88.66,129,95.5,127.74,101.76,126.11Z"/><path class="cls-2" d="M246.9,70.65c-13.79.95-27.61,1.66-41.38,3-5.35.51-10.55,2.55-15.88,3.6-8.21,1.61-16.46,3.11-24.74,4.36a213.18,213.18,0,0,1-22.07,2.62c-12.2.56-24.43.48-36.65.63a4.89,4.89,0,0,1-2.87-.56c-1.55-1.24-3.6-2.63-4-4.3-.34-1.45.87-4,2.2-5a48.29,48.29,0,0,1,9.15-4.73,170.54,170.54,0,0,1,57.84-13.43,29.25,29.25,0,0,0,7.62-1.5c12.1-4.11,24.38-6.75,37.27-6.77,12.22,0,24.46-.59,36.67-1.25,23.82-1.28,47.61-3.08,71.44-4,7.42-.3,15,.85,22.36,2.36,17,3.52,33.92,7.8,50.93,11.51,10.85,2.36,21.8,4.25,32.71,6.32a10.16,10.16,0,0,0,2.21.08c22.24-.72,44.47-1.55,66.71-2.13A450.85,450.85,0,0,0,569,54.08c22.27-4.23,44.39-3.8,66.66.37,29.12,5.46,58.58,7.13,88.2,7.23,15.93.06,31.86,1.25,47.79,1.72,2.75.08,5.53-.91,8.29-1.38,9.13-1.57,18.33-2.83,27.38-4.78,13.64-2.93,27.15-6.42,40.74-9.53,5.78-1.32,11.68-2.11,17.45-3.43,8.75-2,17.43-.69,26.18-.2,23.82,1.32,47.66,2.17,71.48,3.31,10.12.49,20.27,2.17,30.31,1.63,12.21-.66,22.91,4.35,34.33,6.58,9.92,1.93,20.07,2.67,30.09,4.18,13.93,2.1,26.73,7.85,39.76,12.82a1.54,1.54,0,0,1,.34.17c2.85,1.72,6.16,3.18,5.55,7.41-.42,2.94-3.3,4.55-8.28,4.77-15.46.71-30.87.66-46.2-2.14-5.44-1-11.12-.68-16.59-1.6-7.65-1.29-15.27-2.91-22.78-4.87-14.84-3.87-30-4.4-45.18-5-27.9-1.2-55.8-2.42-83.67-4.16-10.85-.68-21.17,1.49-31.53,3.68-12.31,2.6-24.44,6.08-36.75,8.72-9.29,2-18.71,3.49-28.13,4.75-3.73.49-7.62-.28-11.43-.44-17.29-.74-34.57-2-51.86-2.07A561.87,561.87,0,0,1,624.54,73c-18.16-3.27-36.19-2-54.19,1.2-29.9,5.4-60.08,7.15-90.42,7.55-18.64.25-37.26,2.08-55.9,2.55-6.7.17-13.53-1.16-20.14-2.52-14.26-2.94-28.4-6.42-42.63-9.53-7.11-1.56-14.32-2.71-21.46-4.22-10.25-2.16-20.42-.38-30.64.23-20.73,1.23-41.46,2.24-62.2,3.33Z"/><path class="cls-3" d="M941.27,168.07c.73-4.13,1.29-8.28,2.19-12.37q6.13-27.84,12.45-55.65a112.86,112.86,0,0,1,3.73-14c6.24-17.06,8.34-35,11.85-52.69a115.48,115.48,0,0,1,5.26-18.87,32.23,32.23,0,0,1,7.1-11.07c6.19-6.12,15.47-3.79,18.84,4.21,1.48,3.51,3.43,6.91,4.27,10.57a46.24,46.24,0,0,1,.77,11.59,75.51,75.51,0,0,1-1.42,10.21c-1.45,8.61-3.09,17.19-4.42,25.82-.86,5.59-1.43,11.24-1.95,16.88-2.05,22.38-3.92,44.78-6.09,67.15-.67,6.87-2,13.68-3.16,20.5-1.27,7.61-4.84,14.21-9.21,20.43-.28.41-.54,1.07-.89,1.14-5.82,1-11.72,3-17.46,2.63C949.92,193.71,941.62,182.86,941.27,168.07Z"/><path class="cls-3" d="M136.52,191.69c-.24,14.33-8.41,24.73-21.27,26.17-3.56.4-7.3-.63-10.93-1.13a34.61,34.61,0,0,1-5.87-1.32,5,5,0,0,1-2.09-1.79c-6.84-8.68-8.78-19-10.6-29.59-4.79-27.83-6.37-55.94-8.14-84-.28-4.51-1.48-9-2.32-13.43C74.21,80.74,72.89,75,72,69.13c-1-6.07-1.54-12.2-2.27-18.3a11.92,11.92,0,0,1-.17-2.59c.84-7.76,4.11-14.76,8.31-21,3.83-5.71,12.33-5.48,17.12.21a35.41,35.41,0,0,1,7.11,12.77c3,10.8,5,21.89,7.45,32.83,2.45,10.69,5.14,21.32,7.59,32,3.74,16.36,7.28,32.76,11.06,49.11,2.4,10.34,5.11,20.6,7.57,30.93A55.48,55.48,0,0,1,136.52,191.69Z"/><path class="cls-3" d="M1077.61,200.21c-.62.31-1.06.5-1.46.75-5.27,3.15-10.62,3.29-15.75-.09-5.29-3.48-7.13-8.74-6.35-14.84.66-5.14,1.76-10.22,2.61-15.34,5.71-34,11.32-68,17.15-102,1.31-7.65,3.44-15.17,5-22.78.94-4.46,1.62-9,2.34-13.46.93-5.91,3.7-10.5,9.39-12.81a14,14,0,0,1,14.68,2.12c4.82,3.83,6.15,9.09,5.44,15-1.57,12.87-3.41,25.72-4.75,38.62-1.27,12.29-1.92,24.63-3.07,36.93-1.36,14.64-2.59,29.32-4.62,43.87-1,7.4-3.67,14.58-5.66,21.84-1.46,5.36-3,10.7-4.59,16a35.27,35.27,0,0,1-2.14,5.91C1083.1,205.42,1081.29,205.51,1077.61,200.21Z"/><path class="cls-3" d="M218.48,189c-3.82,5.16-6,5-8.51-1a102.64,102.64,0,0,1-3.76-12c-3.68-12.92-8.8-25.48-9.85-39.08-1.33-17.12-2.52-34.25-4.21-51.34s-3.89-33.85-5.85-50.78c-.44-3.8-1-7.61-1.11-11.43-.31-8.53,5-15.08,12.75-16,8.06-1,15,4.05,16.59,12.5,3.62,18.76,7.22,37.53,10.54,56.35,5.51,31.26,10.81,62.56,16.15,93.85a36.22,36.22,0,0,1,.74,8.09c-.61,10.95-11.5,17-21.25,12C220,189.72,219.2,189.36,218.48,189Z"/><path class="cls-3" d="M885.49,32.07c-1,5.82-2,11.62-3,17.45-.79,4.86-2.29,9.78-2,14.6,1.08,21.89-2.08,43.35-5.32,64.88-1.39,9.25-1.12,18.73-2.15,28.05a85.66,85.66,0,0,1-3.57,15.83c-1,3.3-3,6.38-7.55,5.42-.74-.16-1.64.44-2.46.7-11.8,3.75-23.87-3.65-24.21-16-.26-9.41,1.2-18.94,2.67-28.29,3.1-19.63,6.92-39.15,10-58.78.73-4.76-.53-9.81-.71-14.72-.17-4.69-.18-9.38-.13-14.06.07-6.28.4-12.56.39-18.84,0-8.53,3-15.35,10.2-20.23,1.44-1,2.4-2.71,3.51-4.15,2.42-3.17,4.59-3.15,7.17-.08a8.61,8.61,0,0,0,3.37,2.54c7.59,2.7,11.47,8.26,12.56,16,.45,3.17.52,6.39.76,9.59Z"/><path class="cls-3" d="M348.1,33.23c.26,3.81.62,7.62.75,11.44.19,5.06,1,10.25.12,15.15-1.89,11-.51,21.69,1.4,32.41,3.11,17.51,6.56,35,9.55,52.51a86.88,86.88,0,0,1,1.18,17c-.37,13.14-12.18,21.22-24.66,17.23-.7-.22-1.47-.74-2.1-.61-4.54.93-6.66-2.12-7.55-5.45-1.76-6.65-3.75-13.45-4-20.25-.54-17-3.86-33.63-5.61-50.45-1.18-11.27-.85-22.69-1.56-34a121.89,121.89,0,0,0-2.48-19.75,73.06,73.06,0,0,1-1.25-26.13c1-7.91,5.17-13.44,13-16a8.59,8.59,0,0,0,3.28-2.67c2.35-2.69,4.37-2.67,6.73,0A79.76,79.76,0,0,0,341,9.87c4.49,4.12,7.23,9.07,7.58,15.19.15,2.7,0,5.43,0,8.15Z"/><path class="cls-3" d="M641.07,159.67c1.47-16.81,2.64-32.83,4.31-48.8,2.19-20.87,4.41-41.75,7.37-62.52,1-6.68,2.25-12.94-.6-19.39a15.3,15.3,0,0,1-.85-5.47C651,15,657.08,8.16,665.21,7.76c8.41-.42,15.18,5.82,15.5,14.49.09,2.32-.46,4.66-.57,7-.29,6-1.07,12.06-.64,18,1.67,23,.12,45.93-1.15,68.88-.87,15.78-1.63,31.58-2.58,47.36a30.37,30.37,0,0,1-1.62,8,16.32,16.32,0,0,1-31.11-.17C641.82,167.34,641.62,163.08,641.07,159.67Z"/><path class="cls-3" d="M515.55,75.8c.43-9,1.21-21.92,1.61-34.87.12-4-.81-8.09-1.24-12.13a55.85,55.85,0,0,1-.56-5.89c0-8.86,6.66-15.44,15.2-15.15a14.52,14.52,0,0,1,14.08,16.18c-.36,3.88-1.75,7.67-2.57,11.52-.32,1.53-.82,3.25-.45,4.67,5.49,21.3,6.68,43.17,8.6,64.93,1.44,16.24,2.87,32.48,4.08,48.74a67,67,0,0,1-.28,13.66c-1.15,8.73-8,15-16,15.29s-15.3-5.28-16.84-14.23c-1.19-6.89-1.22-14-1.62-21C518.24,124.94,517,102.37,515.55,75.8Z"/><path class="cls-3" d="M420.55,140.22c-1.49-28.6-2.91-56.6-4.5-84.59a15.21,15.21,0,0,0-2.14-6.13c-3.33-6-4-12.36-1.35-18.55,1.2-2.86,4.05-5.09,6.37-7.39,1.53-1.51,3.59-2.47,5.17-3.94,3.5-3.27,8.57-2.95,10.85,1.9,2.8,5.94,5.32,12.38,6.11,18.83,2.26,18.62,3.38,37.38,5.35,56C448,111.25,450.24,126,452,140.87c1.3,11,2.63,22.09,3.25,33.18.46,8.34-5.66,15-13.73,16.38a16.38,16.38,0,0,1-18.17-11.35,25,25,0,0,1-1.27-6.15c-.6-9-1.05-18-1.5-27C420.46,143.83,420.55,141.72,420.55,140.22Z"/><path class="cls-3" d="M785.57,38.68c-1,3.38-2.06,6.76-3.07,10.14s-2.62,6.47-2.78,9.76c-1.7,33.33-3.13,66.68-4.7,100-.27,5.56-.64,11.12-1.38,16.63-1.34,9.84-9,16.19-18.09,15.35s-15.71-8.51-14.66-18.49c2.26-21.63,5.3-43.18,7.61-64.81C750,92.9,750.76,78.44,752,64c1.12-12.79,1.78-25.69,6.65-37.82a22.69,22.69,0,0,1,3-5.49c3.23-4.15,7.51-4.18,11-.36a8,8,0,0,0,2.44,2.17C782.32,25.5,784.87,31.21,785.57,38.68Z"/></g></g></g></svg>