<svg xmlns="http://www.w3.org/2000/svg" viewBox="0 0 1191.26 27.17"><defs><style>.cls-1{fill:#3c3c3b;}</style></defs><title>設施介紹-資產 11</title><g id="圖層_2" data-name="圖層 2"><g id="圖層_1-2" data-name="圖層 1"><path class="cls-1" d="M22.6,14a56.82,56.82,0,0,0-10.11-.65c-.57-4-1.28-8.06-1.69-11.95-.2-1.83-2.93-1.93-2.94,0,0,3.75-.14,7.81,0,11.85-.66,0-1.33,0-2,0-1.93.05-2.93.78-4.85.94-1.07.09-1.5,1.82-.27,2,2.11.37,3,1.2,5.12,1.41.76.08,1.53.12,2.29.17a41.34,41.34,0,0,0,1.49,8,1.88,1.88,0,0,0,3.68-.5,50.68,50.68,0,0,0-.27-7.15,48.78,48.78,0,0,0,9,.2C24.3,18.14,25.28,14.54,22.6,14Z"/><path class="cls-1" d="M54.14,14A56.82,56.82,0,0,0,44,13.36c-.57-4-1.28-8.06-1.69-11.95-.2-1.83-2.93-1.93-2.94,0,0,3.75-.14,7.81,0,11.85-.66,0-1.33,0-2,0-1.93.05-2.93.78-4.85.94-1.07.09-1.5,1.82-.27,2,2.12.37,3,1.2,5.12,1.41.76.08,1.53.12,2.29.17a41.34,41.34,0,0,0,1.49,8,1.88,1.88,0,0,0,3.68-.5,52.2,52.2,0,0,0-.26-7.15,48.66,48.66,0,0,0,8.94.2C55.84,18.14,56.82,14.54,54.14,14Z"/><path class="cls-1" d="M85.69,14a57,57,0,0,0-10.12-.65c-.57-4-1.28-8.06-1.69-11.95-.19-1.83-2.92-1.93-2.94,0,0,3.75-.14,7.81,0,11.85-.66,0-1.33,0-2,0-1.93.05-2.93.78-4.84.94-1.08.09-1.51,1.82-.28,2,2.12.37,3,1.2,5.12,1.41.76.08,1.53.12,2.3.17a40.6,40.6,0,0,0,1.49,8,1.88,1.88,0,0,0,3.67-.5,52.2,52.2,0,0,0-.26-7.15,48.68,48.68,0,0,0,8.94.2C87.38,18.14,88.36,14.54,85.69,14Z"/><path class="cls-1" d="M117.23,14a57,57,0,0,0-10.11-.65c-.58-4-1.29-8.06-1.7-11.95-.19-1.83-2.92-1.93-2.94,0,0,3.75-.13,7.81,0,11.85-.67,0-1.34,0-2,0-1.93.05-2.93.78-4.84.94-1.08.09-1.51,1.82-.28,2,2.12.37,3,1.2,5.12,1.41.76.08,1.53.12,2.3.17a40.6,40.6,0,0,0,1.49,8,1.88,1.88,0,0,0,3.68-.5,53.87,53.87,0,0,0-.27-7.15,48.76,48.76,0,0,0,9,.2C118.92,18.14,119.9,14.54,117.23,14Z"/><path class="cls-1" d="M148.77,14a56.82,56.82,0,0,0-10.11-.65c-.57-4-1.29-8.06-1.7-11.95-.19-1.83-2.92-1.93-2.93,0,0,3.75-.14,7.81,0,11.85-.67,0-1.33,0-2,0-1.93.05-2.93.78-4.84.94-1.08.09-1.51,1.82-.28,2,2.12.37,3,1.2,5.12,1.41.77.08,1.53.12,2.3.17a40.6,40.6,0,0,0,1.49,8,1.88,1.88,0,0,0,3.68-.5,53.87,53.87,0,0,0-.27-7.15,48.76,48.76,0,0,0,9,.2C150.46,18.14,151.44,14.54,148.77,14Z"/><path class="cls-1" d="M180.31,14a56.82,56.82,0,0,0-10.11-.65c-.57-4-1.28-8.06-1.69-11.95-.2-1.83-2.93-1.93-2.94,0,0,3.75-.14,7.81,0,11.85-.67,0-1.33,0-2,0-1.93.05-2.93.78-4.84.94-1.07.09-1.51,1.82-.27,2,2.11.37,3,1.2,5.11,1.41.77.08,1.53.12,2.3.17a41.34,41.34,0,0,0,1.49,8,1.88,1.88,0,0,0,3.68-.5,50.68,50.68,0,0,0-.27-7.15,48.78,48.78,0,0,0,8.95.2C182,18.14,183,14.54,180.31,14Z"/><path class="cls-1" d="M211.85,14a56.82,56.82,0,0,0-10.11-.65c-.57-4-1.28-8.06-1.69-11.95-.2-1.83-2.93-1.93-2.94,0,0,3.75-.14,7.81,0,11.85-.66,0-1.33,0-2,0-1.93.05-2.93.78-4.85.94-1.07.09-1.5,1.82-.27,2,2.11.37,3,1.2,5.12,1.41.76.08,1.53.12,2.29.17a41.34,41.34,0,0,0,1.49,8,1.88,1.88,0,0,0,3.68-.5,52.2,52.2,0,0,0-.26-7.15,48.66,48.66,0,0,0,8.94.2C213.55,18.14,214.53,14.54,211.85,14Z"/><path class="cls-1" d="M243.39,14a56.82,56.82,0,0,0-10.11-.65c-.57-4-1.28-8.06-1.69-11.95-.2-1.83-2.93-1.93-2.94,0,0,3.75-.14,7.81,0,11.85-.66,0-1.33,0-2,0-1.93.05-2.93.78-4.85.94-1.07.09-1.5,1.82-.27,2,2.12.37,3,1.2,5.12,1.41.76.08,1.53.12,2.29.17a41.34,41.34,0,0,0,1.49,8,1.88,1.88,0,0,0,3.68-.5,52.2,52.2,0,0,0-.26-7.15,48.66,48.66,0,0,0,8.94.2C245.09,18.14,246.07,14.54,243.39,14Z"/><path class="cls-1" d="M274.94,14a57,57,0,0,0-10.12-.65c-.57-4-1.28-8.06-1.69-11.95-.19-1.83-2.92-1.93-2.94,0,0,3.75-.13,7.81,0,11.85-.67,0-1.34,0-2,0-1.93.05-2.93.78-4.84.94-1.08.09-1.51,1.82-.28,2,2.12.37,3,1.2,5.12,1.41.76.08,1.53.12,2.3.17a40.6,40.6,0,0,0,1.49,8,1.88,1.88,0,0,0,3.68-.5,53.87,53.87,0,0,0-.27-7.15,48.68,48.68,0,0,0,8.94.2C276.63,18.14,277.61,14.54,274.94,14Z"/><path class="cls-1" d="M306.48,14a57,57,0,0,0-10.11-.65c-.57-4-1.29-8.06-1.7-11.95-.19-1.83-2.92-1.93-2.94,0,0,3.75-.13,7.81,0,11.85-.67,0-1.33,0-2,0-1.93.05-2.93.78-4.84.94-1.08.09-1.51,1.82-.28,2,2.12.37,3,1.2,5.12,1.41.77.08,1.53.12,2.3.17a40.6,40.6,0,0,0,1.49,8,1.88,1.88,0,0,0,3.68-.5,53.87,53.87,0,0,0-.27-7.15,48.76,48.76,0,0,0,8.95.2C308.17,18.14,309.15,14.54,306.48,14Z"/><path class="cls-1" d="M338,14a56.82,56.82,0,0,0-10.11-.65c-.57-4-1.29-8.06-1.7-11.95-.19-1.83-2.92-1.93-2.93,0,0,3.75-.14,7.81,0,11.85-.67,0-1.33,0-2,0-1.93.05-2.93.78-4.84.94-1.07.09-1.51,1.82-.27,2,2.11.37,3,1.2,5.11,1.41.77.08,1.53.12,2.3.17a40.6,40.6,0,0,0,1.49,8,1.88,1.88,0,0,0,3.68-.5,50.68,50.68,0,0,0-.27-7.15,48.76,48.76,0,0,0,8.95.2C339.71,18.14,340.69,14.54,338,14Z"/><path class="cls-1" d="M369.56,14a56.82,56.82,0,0,0-10.11-.65c-.57-4-1.28-8.06-1.69-11.95-.2-1.83-2.93-1.93-2.94,0,0,3.75-.14,7.81,0,11.85-.67,0-1.33,0-2,0-1.94.05-2.93.78-4.85.94-1.07.09-1.51,1.82-.27,2,2.11.37,3,1.2,5.12,1.41.76.08,1.53.12,2.29.17a41.34,41.34,0,0,0,1.49,8,1.88,1.88,0,0,0,3.68-.5,50.68,50.68,0,0,0-.27-7.15,48.78,48.78,0,0,0,9,.2C371.26,18.14,372.24,14.54,369.56,14Z"/><path class="cls-1" d="M401.1,14A56.82,56.82,0,0,0,391,13.36c-.57-4-1.28-8.06-1.69-11.95-.2-1.83-2.93-1.93-2.94,0,0,3.75-.14,7.81,0,11.85-.66,0-1.33,0-2,0-1.93.05-2.93.78-4.85.94-1.07.09-1.5,1.82-.27,2,2.12.37,3,1.2,5.12,1.41.76.08,1.53.12,2.29.17a41.34,41.34,0,0,0,1.49,8,1.88,1.88,0,0,0,3.68-.5,52.2,52.2,0,0,0-.26-7.15,48.66,48.66,0,0,0,8.94.2C402.8,18.14,403.78,14.54,401.1,14Z"/><path class="cls-1" d="M432.64,14a56.82,56.82,0,0,0-10.11-.65c-.57-4-1.28-8.06-1.69-11.95-.2-1.83-2.93-1.93-2.94,0,0,3.75-.14,7.81,0,11.85-.66,0-1.33,0-2,0-1.93.05-2.93.78-4.84.94-1.08.09-1.51,1.82-.28,2,2.12.37,3,1.2,5.12,1.41.76.08,1.53.12,2.3.17a40.6,40.6,0,0,0,1.49,8,1.88,1.88,0,0,0,3.67-.5,52.2,52.2,0,0,0-.26-7.15,48.68,48.68,0,0,0,8.94.2C434.34,18.14,435.32,14.54,432.64,14Z"/><path class="cls-1" d="M464.19,14a57,57,0,0,0-10.11-.65c-.58-4-1.29-8.06-1.7-11.95-.19-1.83-2.92-1.93-2.94,0,0,3.75-.13,7.81,0,11.85-.67,0-1.34,0-2,0-1.93.05-2.93.78-4.84.94-1.08.09-1.51,1.82-.28,2,2.12.37,3,1.2,5.12,1.41.76.08,1.53.12,2.3.17a40.6,40.6,0,0,0,1.49,8,1.88,1.88,0,0,0,3.68-.5,53.87,53.87,0,0,0-.27-7.15,48.68,48.68,0,0,0,8.94.2C465.88,18.14,466.86,14.54,464.19,14Z"/><path class="cls-1" d="M495.73,14a57,57,0,0,0-10.11-.65c-.57-4-1.29-8.06-1.7-11.95-.19-1.83-2.92-1.93-2.93,0,0,3.75-.14,7.81,0,11.85-.67,0-1.33,0-2,0-1.93.05-2.93.78-4.84.94-1.08.09-1.51,1.82-.28,2,2.12.37,3,1.2,5.12,1.41.77.08,1.53.12,2.3.17a40.6,40.6,0,0,0,1.49,8,1.88,1.88,0,0,0,3.68-.5,53.87,53.87,0,0,0-.27-7.15,48.76,48.76,0,0,0,8.95.2C497.42,18.14,498.4,14.54,495.73,14Z"/><path class="cls-1" d="M527.27,14a56.82,56.82,0,0,0-10.11-.65c-.57-4-1.28-8.06-1.7-11.95-.19-1.83-2.92-1.93-2.93,0,0,3.75-.14,7.81,0,11.85-.67,0-1.33,0-2,0-1.93.05-2.93.78-4.84.94-1.07.09-1.51,1.82-.27,2,2.11.37,3,1.2,5.11,1.41.77.08,1.53.12,2.3.17a41.34,41.34,0,0,0,1.49,8,1.88,1.88,0,0,0,3.68-.5,50.68,50.68,0,0,0-.27-7.15,48.78,48.78,0,0,0,8.95.2C529,18.14,529.94,14.54,527.27,14Z"/><path class="cls-1" d="M558.81,14a56.82,56.82,0,0,0-10.11-.65c-.57-4-1.28-8.06-1.69-11.95-.2-1.83-2.93-1.93-2.94,0,0,3.75-.14,7.81,0,11.85-.66,0-1.33,0-2,0-1.93.05-2.93.78-4.85.94-1.07.09-1.5,1.82-.27,2,2.11.37,3,1.2,5.12,1.41.76.08,1.53.12,2.29.17a41.34,41.34,0,0,0,1.49,8,1.88,1.88,0,0,0,3.68-.5,50.68,50.68,0,0,0-.27-7.15,48.78,48.78,0,0,0,9,.2C560.51,18.14,561.49,14.54,558.81,14Z"/><path class="cls-1" d="M590.35,14a56.82,56.82,0,0,0-10.11-.65c-.57-4-1.28-8.06-1.69-11.95-.2-1.83-2.93-1.93-2.94,0,0,3.75-.14,7.81,0,11.85-.66,0-1.33,0-2,0-1.93.05-2.93.78-4.85.94-1.07.09-1.5,1.82-.27,2,2.12.37,3,1.2,5.12,1.41.76.08,1.53.12,2.29.17a41.34,41.34,0,0,0,1.49,8,1.88,1.88,0,0,0,3.68-.5,52.2,52.2,0,0,0-.26-7.15,48.66,48.66,0,0,0,8.94.2C592.05,18.14,593,14.54,590.35,14Z"/><path class="cls-1" d="M621.9,14a57,57,0,0,0-10.12-.65c-.57-4-1.28-8.06-1.69-11.95-.19-1.83-2.92-1.93-2.94,0,0,3.75-.14,7.81,0,11.85-.66,0-1.33,0-2,0-1.93.05-2.93.78-4.84.94-1.08.09-1.51,1.82-.28,2,2.12.37,3,1.2,5.12,1.41.76.08,1.53.12,2.3.17a40.6,40.6,0,0,0,1.49,8,1.88,1.88,0,0,0,3.67-.5,52.2,52.2,0,0,0-.26-7.15,48.68,48.68,0,0,0,8.94.2C623.59,18.14,624.57,14.54,621.9,14Z"/><path class="cls-1" d="M653.44,14a57,57,0,0,0-10.11-.65c-.58-4-1.29-8.06-1.7-11.95-.19-1.83-2.92-1.93-2.94,0,0,3.75-.13,7.81,0,11.85-.67,0-1.34,0-2,0-1.93.05-2.93.78-4.84.94-1.08.09-1.51,1.82-.28,2,2.12.37,3,1.2,5.12,1.41.76.08,1.53.12,2.3.17a40.6,40.6,0,0,0,1.49,8,1.88,1.88,0,0,0,3.68-.5,53.87,53.87,0,0,0-.27-7.15,48.76,48.76,0,0,0,9,.2C655.13,18.14,656.11,14.54,653.44,14Z"/><path class="cls-1" d="M685,14a56.82,56.82,0,0,0-10.11-.65c-.57-4-1.29-8.06-1.7-11.95-.19-1.83-2.92-1.93-2.93,0,0,3.75-.14,7.81,0,11.85-.67,0-1.33,0-2,0-1.93.05-2.93.78-4.84.94-1.08.09-1.51,1.82-.28,2,2.12.37,3,1.2,5.12,1.41.77.08,1.53.12,2.3.17a40.6,40.6,0,0,0,1.49,8,1.88,1.88,0,0,0,3.68-.5,53.87,53.87,0,0,0-.27-7.15,48.76,48.76,0,0,0,8.95.2C686.67,18.14,687.65,14.54,685,14Z"/><path class="cls-1" d="M716.52,14a56.82,56.82,0,0,0-10.11-.65c-.57-4-1.28-8.06-1.69-11.95-.2-1.83-2.93-1.93-2.94,0,0,3.75-.14,7.81,0,11.85-.67,0-1.33,0-2,0-1.93.05-2.93.78-4.84.94-1.07.09-1.51,1.82-.27,2,2.11.37,3,1.2,5.11,1.41.77.08,1.53.12,2.3.17a41.34,41.34,0,0,0,1.49,8,1.88,1.88,0,0,0,3.68-.5,50.68,50.68,0,0,0-.27-7.15,48.78,48.78,0,0,0,8.95.2C718.22,18.14,719.2,14.54,716.52,14Z"/><path class="cls-1" d="M748.06,14A56.82,56.82,0,0,0,738,13.36c-.57-4-1.28-8.06-1.69-11.95-.2-1.83-2.93-1.93-2.94,0,0,3.75-.14,7.81,0,11.85-.66,0-1.33,0-2,0-1.93.05-2.93.78-4.85.94-1.07.09-1.5,1.82-.27,2,2.11.37,3,1.2,5.12,1.41.76.08,1.53.12,2.29.17a41.34,41.34,0,0,0,1.49,8,1.88,1.88,0,0,0,3.68-.5,52.2,52.2,0,0,0-.26-7.15,48.66,48.66,0,0,0,8.94.2C749.76,18.14,750.74,14.54,748.06,14Z"/><path class="cls-1" d="M779.6,14a56.82,56.82,0,0,0-10.11-.65c-.57-4-1.28-8.06-1.69-11.95-.2-1.83-2.93-1.93-2.94,0,0,3.75-.14,7.81,0,11.85-.66,0-1.33,0-2,0-1.93.05-2.93.78-4.85.94-1.07.09-1.5,1.82-.27,2,2.12.37,3,1.2,5.12,1.41.76.08,1.53.12,2.29.17a41.34,41.34,0,0,0,1.49,8,1.88,1.88,0,0,0,3.68-.5,52.2,52.2,0,0,0-.26-7.15,48.66,48.66,0,0,0,8.94.2C781.3,18.14,782.28,14.54,779.6,14Z"/><path class="cls-1" d="M811.15,14A57,57,0,0,0,801,13.36c-.57-4-1.28-8.06-1.69-11.95-.19-1.83-2.92-1.93-2.94,0,0,3.75-.13,7.81,0,11.85-.67,0-1.34,0-2,0-1.93.05-2.93.78-4.84.94-1.08.09-1.51,1.82-.28,2,2.12.37,3,1.2,5.12,1.41.76.08,1.53.12,2.3.17a40.6,40.6,0,0,0,1.49,8,1.88,1.88,0,0,0,3.68-.5,53.87,53.87,0,0,0-.27-7.15,48.68,48.68,0,0,0,8.94.2C812.84,18.14,813.82,14.54,811.15,14Z"/><path class="cls-1" d="M842.69,14a57,57,0,0,0-10.11-.65c-.57-4-1.29-8.06-1.7-11.95-.19-1.83-2.92-1.93-2.94,0,0,3.75-.13,7.81,0,11.85-.67,0-1.33,0-2,0-1.93.05-2.93.78-4.84.94-1.08.09-1.51,1.82-.28,2,2.12.37,3,1.2,5.12,1.41.77.08,1.53.12,2.3.17a40.6,40.6,0,0,0,1.49,8,1.88,1.88,0,0,0,3.68-.5,53.87,53.87,0,0,0-.27-7.15,48.76,48.76,0,0,0,9,.2C844.38,18.14,845.36,14.54,842.69,14Z"/><path class="cls-1" d="M874.23,14a56.82,56.82,0,0,0-10.11-.65c-.57-4-1.29-8.06-1.7-11.95-.19-1.83-2.92-1.93-2.93,0,0,3.75-.14,7.81,0,11.85-.67,0-1.33,0-2,0-1.93.05-2.93.78-4.84.94-1.07.09-1.51,1.82-.27,2,2.11.37,3,1.2,5.11,1.41.77.08,1.53.12,2.3.17a40.6,40.6,0,0,0,1.49,8,1.88,1.88,0,0,0,3.68-.5,52.22,52.22,0,0,0-.27-7.15,48.76,48.76,0,0,0,8.95.2C875.92,18.14,876.9,14.54,874.23,14Z"/><path class="cls-1" d="M905.77,14a56.82,56.82,0,0,0-10.11-.65c-.57-4-1.28-8.06-1.69-11.95-.2-1.83-2.93-1.93-2.94,0,0,3.75-.14,7.81,0,11.85-.67,0-1.33,0-2,0-1.94.05-2.93.78-4.85.94-1.07.09-1.51,1.82-.27,2,2.11.37,3,1.2,5.12,1.41.76.08,1.53.12,2.29.17a41.34,41.34,0,0,0,1.49,8,1.88,1.88,0,0,0,3.68-.5,50.68,50.68,0,0,0-.27-7.15,48.78,48.78,0,0,0,8.95.2C907.47,18.14,908.45,14.54,905.77,14Z"/><path class="cls-1" d="M937.31,14a56.82,56.82,0,0,0-10.11-.65c-.57-4-1.28-8.06-1.69-11.95-.2-1.83-2.93-1.93-2.94,0,0,3.75-.14,7.81,0,11.85-.66,0-1.33,0-2,0-1.93.05-2.93.78-4.85.94-1.07.09-1.5,1.82-.27,2,2.12.37,3,1.2,5.12,1.41.76.08,1.53.12,2.29.17a41.34,41.34,0,0,0,1.49,8,1.88,1.88,0,0,0,3.68-.5,52.2,52.2,0,0,0-.26-7.15,48.66,48.66,0,0,0,8.94.2C939,18.14,940,14.54,937.31,14Z"/><path class="cls-1" d="M968.85,14a56.82,56.82,0,0,0-10.11-.65c-.57-4-1.28-8.06-1.69-11.95-.2-1.83-2.93-1.93-2.94,0,0,3.75-.14,7.81,0,11.85-.66,0-1.33,0-2,0-1.93.05-2.93.78-4.84.94-1.08.09-1.51,1.82-.28,2,2.12.37,3,1.2,5.12,1.41.76.08,1.53.12,2.3.17a40.6,40.6,0,0,0,1.49,8,1.88,1.88,0,0,0,3.67-.5,52.2,52.2,0,0,0-.26-7.15,48.68,48.68,0,0,0,8.94.2C970.55,18.14,971.53,14.54,968.85,14Z"/><path class="cls-1" d="M1000.4,14a57,57,0,0,0-10.12-.65c-.57-4-1.28-8.06-1.69-11.95-.19-1.83-2.92-1.93-2.94,0,0,3.75-.13,7.81,0,11.85-.67,0-1.34,0-2,0-1.93.05-2.93.78-4.84.94-1.08.09-1.51,1.82-.28,2,2.12.37,3,1.2,5.12,1.41.76.08,1.53.12,2.3.17a40.6,40.6,0,0,0,1.49,8,1.88,1.88,0,0,0,3.68-.5,53.87,53.87,0,0,0-.27-7.15,48.68,48.68,0,0,0,8.94.2C1002.09,18.14,1003.07,14.54,1000.4,14Z"/><path class="cls-1" d="M1031.94,14a57,57,0,0,0-10.11-.65c-.57-4-1.29-8.06-1.7-11.95-.19-1.83-2.92-1.93-2.93,0,0,3.75-.14,7.81,0,11.85-.67,0-1.33,0-2,0-1.93.05-2.93.78-4.84.94-1.08.09-1.51,1.82-.28,2,2.12.37,3,1.2,5.12,1.41.77.08,1.53.12,2.3.17a40.6,40.6,0,0,0,1.49,8,1.88,1.88,0,0,0,3.68-.5,53.87,53.87,0,0,0-.27-7.15,48.76,48.76,0,0,0,8.95.2C1033.63,18.14,1034.61,14.54,1031.94,14Z"/><path class="cls-1" d="M1063.48,14a56.82,56.82,0,0,0-10.11-.65c-.57-4-1.28-8.06-1.7-11.95-.19-1.83-2.92-1.93-2.93,0,0,3.75-.14,7.81,0,11.85-.67,0-1.33,0-2,0-1.93.05-2.93.78-4.84.94-1.07.09-1.51,1.82-.27,2,2.11.37,3,1.2,5.11,1.41.77.08,1.53.12,2.3.17a41.34,41.34,0,0,0,1.49,8,1.88,1.88,0,0,0,3.68-.5,50.68,50.68,0,0,0-.27-7.15,48.78,48.78,0,0,0,9,.2C1065.17,18.14,1066.15,14.54,1063.48,14Z"/><path class="cls-1" d="M1095,14a56.82,56.82,0,0,0-10.11-.65c-.57-4-1.28-8.06-1.69-11.95-.2-1.83-2.93-1.93-2.94,0,0,3.75-.14,7.81,0,11.85-.66,0-1.33,0-2,0-1.93.05-2.93.78-4.85.94-1.07.09-1.5,1.82-.27,2,2.11.37,3,1.2,5.12,1.41.76.08,1.53.12,2.29.17a41.34,41.34,0,0,0,1.49,8,1.88,1.88,0,0,0,3.68-.5,50.68,50.68,0,0,0-.27-7.15,48.78,48.78,0,0,0,9,.2C1096.72,18.14,1097.7,14.54,1095,14Z"/><path class="cls-1" d="M1126.56,14a56.82,56.82,0,0,0-10.11-.65c-.57-4-1.28-8.06-1.69-11.95-.2-1.83-2.93-1.93-2.94,0,0,3.75-.14,7.81,0,11.85-.66,0-1.33,0-2,0-1.93.05-2.93.78-4.85.94-1.07.09-1.5,1.82-.27,2,2.12.37,3,1.2,5.12,1.41.76.08,1.53.12,2.29.17a41.34,41.34,0,0,0,1.49,8,1.88,1.88,0,0,0,3.68-.5,52.2,52.2,0,0,0-.26-7.15,48.66,48.66,0,0,0,8.94.2C1128.26,18.14,1129.24,14.54,1126.56,14Z"/><path class="cls-1" d="M1158.11,14a57,57,0,0,0-10.12-.65c-.57-4-1.28-8.06-1.69-11.95-.19-1.83-2.92-1.93-2.94,0,0,3.75-.14,7.81,0,11.85-.66,0-1.33,0-2,0-1.93.05-2.93.78-4.84.94-1.08.09-1.51,1.82-.28,2,2.12.37,3,1.2,5.12,1.41.76.08,1.53.12,2.3.17a40.6,40.6,0,0,0,1.49,8,1.88,1.88,0,0,0,3.67-.5,52.2,52.2,0,0,0-.26-7.15,48.68,48.68,0,0,0,8.94.2C1159.8,18.14,1160.78,14.54,1158.11,14Z"/><path class="cls-1" d="M1189.65,14a57,57,0,0,0-10.11-.65c-.58-4-1.29-8.06-1.7-11.95-.19-1.83-2.92-1.93-2.94,0,0,3.75-.13,7.81,0,11.85-.67,0-1.34,0-2,0-1.93.05-2.93.78-4.84.94-1.08.09-1.51,1.82-.28,2,2.12.37,3,1.2,5.12,1.41.76.08,1.53.12,2.3.17a40.6,40.6,0,0,0,1.49,8,1.88,1.88,0,0,0,3.68-.5,53.87,53.87,0,0,0-.27-7.15,48.76,48.76,0,0,0,9,.2C1191.34,18.14,1192.32,14.54,1189.65,14Z"/></g></g></svg>