<svg xmlns="http://www.w3.org/2000/svg" viewBox="0 0 612.17 461.27"><defs><style>.cls-1{fill:#f7ebcf;}.cls-2{fill:#bce9f5;}.cls-12,.cls-13,.cls-14,.cls-15,.cls-16,.cls-18,.cls-19,.cls-2,.cls-20,.cls-21,.cls-27,.cls-28,.cls-3,.cls-34,.cls-36,.cls-38,.cls-39,.cls-40,.cls-41,.cls-47,.cls-5,.cls-7,.cls-8,.cls-9{fill-rule:evenodd;}.cls-3,.cls-4{fill:#96d2e3;}.cls-5{fill:#80c6d9;}.cls-39,.cls-6{fill:#e0d0aa;}.cls-33,.cls-42,.cls-7{fill:#9e844d;}.cls-8{fill:#b49e75;}.cls-10,.cls-9{fill:#7b6432;}.cls-11,.cls-41{fill:#fff1cf;}.cls-12{fill:#efe780;}.cls-13,.cls-26,.cls-31{fill:#368196;}.cls-14,.cls-45{fill:#666;}.cls-15{fill:#ccc;}.cls-16,.cls-24,.cls-25,.cls-43,.cls-46{fill:#fff;}.cls-17{fill:#75bcd0;}.cls-18{fill:none;stroke:#d6f6ff;stroke-linecap:round;stroke-linejoin:round;stroke-width:2.28px;}.cls-19{fill:#aad6a3;}.cls-20,.cls-44{fill:#508c46;}.cls-21,.cls-23{fill:#76b36b;}.cls-22,.cls-40{fill:#c7ac71;}.cls-24{font-size:13.73px;stroke:#fff;stroke-miterlimit:5;stroke-width:0.02px;}.cls-24,.cls-31,.cls-42,.cls-43{font-family:ABeeZee-Regular, ABeeZee Regular;}.cls-25{font-size:14.27px;font-family:Bitter-Bold, Bitter Bold;font-weight:700;}.cls-27,.cls-30{fill:#8ac280;}.cls-28{fill:#b0b0b1;}.cls-29{fill:#d0f1fa;}.cls-31{font-size:5.78px;}.cls-32,.cls-42{font-size:4.08px;}.cls-32{fill:#99a9bf;font-family:Ultra;}.cls-34{fill:#8f99a1;}.cls-35{fill:#d6be89;}.cls-36,.cls-37{fill:#cfeef7;}.cls-38{fill:#fefefe;}.cls-43{font-size:3.37px;}.cls-47{fill:#486639;}</style></defs><title>資產 5</title><g id="圖層_2" data-name="圖層 2"><g id="圖層_1-2" data-name="圖層 1"><rect class="cls-1" x="0.13" y="0.17" width="611.92" height="460.93"/><path class="cls-2" d="M612.1,139.2c-101.83,0-184.35-62.26-184.31-139l184.38.1Z"/><path class="cls-3" d="M612.1,131.79c-96.39,0-174.48-58.95-174.44-131.55l174.51.1Z"/><path class="cls-4" d="M218.53,396.81l0-63.35a5.7,5.7,0,0,0-1.79-4.2,4.49,4.49,0,0,0-3-1.27H186.13a4.48,4.48,0,0,0-3,1.26,5.71,5.71,0,0,0-1.8,4.2l0,49.65a12.87,12.87,0,0,1-4.25,9.38,16.85,16.85,0,0,1-11.56,4.37H137.84a16.83,16.83,0,0,1-11.55-4.39,12.87,12.87,0,0,1-4.25-9.38l0-27.24a5.71,5.71,0,0,0-1.8-4.2,4.46,4.46,0,0,0-3-1.27H89.62a4.43,4.43,0,0,0-3,1.26,5.71,5.71,0,0,0-1.81,4.2l0,92.41h-11l0-92.41a12.85,12.85,0,0,1,4.26-9.38A16.86,16.86,0,0,1,89.63,342l27.64,0a16.85,16.85,0,0,1,11.55,4.38,12.86,12.86,0,0,1,4.25,9.39v27.23a5.68,5.68,0,0,0,1.79,4.2,4.44,4.44,0,0,0,3,1.27l27.64,0a4.49,4.49,0,0,0,3-1.27,5.68,5.68,0,0,0,1.8-4.19l0-49.66a12.87,12.87,0,0,1,4.25-9.38,16.9,16.9,0,0,1,11.56-4.37l27.65,0a16.86,16.86,0,0,1,11.55,4.38,12.9,12.9,0,0,1,4.25,9.39l0,63.35Z"/><path class="cls-3" d="M.06,361.12c73.17,0,132.47,44.76,132.44,99.88L0,460.93Z"/><path class="cls-5" d="M.05,368.1c68.07,0,123.21,41.62,123.18,92.89L0,460.93Z"/><path class="cls-6" d="M496,461.2l.11-199.61a8.11,8.11,0,0,0-2.44-6,3,3,0,0,0-1.45-.91l-59.71,0a2.89,2.89,0,0,0-1.44.92,8.16,8.16,0,0,0-2.46,6l0,58.83c0,8.93-4.08,17.19-10.64,23.31A43.75,43.75,0,0,1,388,355l-59.71,0c-11.93,0-22.52-4.33-30-11.3-6.55-6.12-10.62-14.39-10.61-23.31l.1-179.39a8.12,8.12,0,0,0-2.45-6,2.89,2.89,0,0,0-1.44-.92l-59.72,0a3,3,0,0,0-1.44.91,8.12,8.12,0,0,0-2.45,6l0,58.84A32,32,0,0,1,209.61,223a43.73,43.73,0,0,1-30,11.27l-59.72,0a43.76,43.76,0,0,1-30-11.31,32,32,0,0,1-10.61-23.31L79.42,0l36.72,0L116,199.67a8.12,8.12,0,0,0,2.45,6,2.89,2.89,0,0,0,1.44.92l59.71,0a3,3,0,0,0,1.45-.91,8.12,8.12,0,0,0,2.45-6l0-58.84a32,32,0,0,1,10.64-23.3,43.71,43.71,0,0,1,30-11.27l59.71,0c11.93,0,22.53,4.34,30,11.31A32,32,0,0,1,324.5,141l-.1,179.39a8.11,8.11,0,0,0,2.44,6,3,3,0,0,0,1.44.91l59.72,0a2.89,2.89,0,0,0,1.44-.92,8.12,8.12,0,0,0,2.45-6l0-58.83c0-8.93,4.07-17.19,10.63-23.31a43.79,43.79,0,0,1,30-11.26l59.71,0c11.93,0,22.52,4.33,30,11.3,6.55,6.12,10.62,14.39,10.61,23.31l-.11,199.61Z"/><polygon class="cls-7" points="450.47 313.09 454.7 311.97 454.71 304.73 450.47 304.73 450.47 313.09"/><polygon class="cls-8" points="462.08 313.1 466.32 311.97 466.33 304.74 462.08 304.74 462.08 313.1"/><path class="cls-7" d="M461.48,328v-2.66h1.63v-3.93h-1.64v-1.2H475.7V328Zm0-7.79v1.2h-1.63v3.93h1.63V328h-5.76v-2.66h1.63V321.4h-1.63v-1.2Zm-11.74,1.19h1.63v3.93h-1.64V328h6v-2.66h-1.63V321.4h1.63v-1.2h-6Zm-1.64,0h1.64v-1.2h-4.45V328h4.45v-2.66H448.1Z"/><polygon class="cls-9" points="468.52 315.6 467.69 312.41 457.12 315.59 455.85 312.41 445.29 315.58 445.29 318.98 475.7 318.99 475.7 315.6 468.52 315.6"/><path class="cls-8" d="M448.56,304.21c.85-.08,1.83-1,2.79-1.17s1.28,0,1.8,1c.43,0,.39-2.12-1.69-1.92-1.53.14-2.18.9-3.21,1a1.77,1.77,0,0,1-2.12-1.26C445.72,302,446.19,304.42,448.56,304.21Z"/><polygon class="cls-7" points="462.08 313.1 466.32 311.97 466.33 304.74 462.08 304.74 462.08 313.1"/><rect class="cls-10" x="445.28" y="325.95" width="30.41" height="2.05"/><path class="cls-8" d="M459.54,304.21c.85-.07,1.83-1,2.79-1.16s1.28,0,1.8,1.05c.43,0,.39-2.12-1.69-1.92-1.53.14-2.18.9-3.21,1a1.77,1.77,0,0,1-2.12-1.25C456.7,302,457.17,304.42,459.54,304.21Z"/><path class="cls-8" d="M461.07,337.48c1.08-.09,2.33-1.31,3.55-1.48s1.63,0,2.28,1.34c.55,0,.5-2.7-2.14-2.45-1.94.19-2.76,1.15-4.08,1.28a2.26,2.26,0,0,1-2.69-1.59C457.47,334.65,458.07,337.75,461.07,337.48Z"/><path class="cls-7" d="M468.54,355.9h-3.31V339.3h4.14l1.37,15.45H474v4.54h1.7v7.87H465.23v-6.66h3.3Zm-3.31,0h-3.3v4.6h3.31v6.66H453.7v-6.67H457v-4.59H453.7v-6.51l6.38-3.37v8.73H463l1.58-15.44h.67Zm-11.52-6.51v6.51h-3.3v4.59h3.31v6.67H442.31v-6.66h3.31v-4.6h-3.31v-9.37l1-.51v4.44l8.41-4.43v4.44Zm-11.39-2.87v9.37H439v4.59h3.3v6.66H431.89v-7.86h3v-8.83Z"/><polygon class="cls-9" points="443.28 350.33 443.29 346 435.1 350.32 443.28 350.33"/><polygon class="cls-9" points="460.09 350.34 460.1 346.01 451.9 350.33 460.09 350.34"/><polygon class="cls-9" points="451.69 350.33 451.69 346.01 443.5 350.33 451.69 350.33"/><polygon class="cls-9" points="464.11 343.84 463.57 349.08 470.25 349.08 469.78 343.85 464.11 343.84"/><rect class="cls-10" x="431.89" y="362.07" width="43.79" height="5.08"/><path class="cls-11" d="M512.56,455.68h3.67v5.53h-3.67v-5.53ZM95.94.73h3.68V6.27H95.94V.73Zm0,13.83h3.67V20.1H95.93V14.56Zm0,13.83H99.6v5.53H95.93V28.39Zm0,13.83h3.67v5.53H95.92V42.22Zm0,13.83h3.68v5.53H95.91V56.05Zm0,13.83h3.67v5.53H95.9V69.88Zm0,13.83h3.67v5.53H95.9V83.71Zm0,13.83h3.67v5.53H95.89V97.54Zm0,13.82h3.68v5.53H95.88v-5.54Zm0,13.83h3.67v5.53H95.87v-5.53Zm0,13.83h3.67v5.54H95.87V139Zm0,13.83h3.67v5.53H95.86v-5.53Zm0,13.83h3.68v5.53H95.85v-5.53Zm0,13.83h3.67V186H95.84v-5.53Zm0,13.83h3.67v5.52l-3.67,0v-5.54Zm2,14.13,0,.07.06.12.06.12.06.12.06.13.06.12.06.12.06.12.07.11.06.12.07.12.07.12.06.12.07.11.07.12.07.12.07.11.07.12.07.12.07.11.08.11.07.12.07.11.08.11.08.12.07.11.08.11.08.11.08.11.08.11.08.11.08.11.08.11.08.11.09.11.08.11.08.1.09.11.08.11.09.1.09.11.09.1.08.11.09.1.09.11.09.1.09.09,3-1.54-.07-.08-.08-.09-.08-.09-.08-.1-.07-.09-.08-.09-.08-.09-.07-.09-.08-.1-.07-.09-.08-.1-.07-.09-.07-.1-.08-.09-.07-.1-.07-.09-.07-.1-.07-.1-.07-.1-.07-.09-.07-.1-.07-.1-.06-.1-.07-.1-.06-.1-.07-.1-.06-.1-.07-.1-.06-.11-.06-.1-.07-.1-.06-.1L102,209l-.06-.1-.06-.1-.06-.11,0-.1-.06-.11-.06-.11-.06-.1,0-.11-.06-.1,0-.11,0-.11-.06-.11,0-.11,0-.06-3.45.93Zm12,11.32a26,26,0,0,0,3.64,1.23,26.23,26.23,0,0,0,4,.69l.44-2.75a20.94,20.94,0,0,1-6-1.48l-.23-.1-1.8,2.41Zm18.83,2v-2.77h7.35v2.77Zm18.36,0v-2.77h7.35v2.77Zm18.36,0v-2.77h7.34v2.77Zm18.75-.39a25.22,25.22,0,0,0,7.28-2.46l-2.1-2.27a20.93,20.93,0,0,1-6,2l.85,2.69Zm15.15-9,0,0,.08-.11.09-.11.08-.11.08-.11.08-.11.08-.11.07-.11.08-.12.08-.11.07-.11.08-.11.08-.12.07-.11.07-.11.07-.12.08-.11.07-.12.07-.12.07-.11.07-.12.06-.12.07-.11.07-.12.06-.12.07-.12.06-.12.07-.12.06-.12.06-.12.06-.12.06-.12.06-.12.06-.12.06-.12.06-.13.05-.12.06-.12L202,208l.06-.12.05-.13,0-.12.06-.12.05-.13,0-.13.05-.12v-.05l-3.53-.76v0l0,.11-.05.12,0,.11-.05.11,0,.11,0,.11,0,.11-.05.11-.05.11,0,.11-.05.11,0,.11-.05.11-.06.1,0,.11-.06.11-.05.11-.06.1,0,.11-.06.1-.06.11-.06.1-.05.11-.06.1-.06.11-.07.1-.06.1-.06.11-.06.1-.07.1-.06.1-.06.1-.07.1-.06.1-.07.1-.07.1-.07.1-.06.1-.07.1-.07.09-.07.1-.07.1-.08.09-.07.1-.07.1,0,0,3.18,1.38Zm4.4-14h-3.67v-5.53h3.68v5.53Zm0-13.82h-3.67v-5.53h3.67v5.54Zm0-13.83h-3.67v-5.53h3.67v5.53Zm0-13.83h-3.68v-5.54h3.67V157Zm0-13.83h-3.67v-4l0-.13v-.28l0-.14v-.13l0-.14,0-.14v-.14l0-.13,0-.14,0-.13,0-.14v-.1l3.65.35,0,.09,0,.12,0,.13,0,.12v.12l0,.12,0,.13v.24l0,.13v4.15Zm3.3-12.78,0,0,.07-.1.07-.09.07-.1.07-.1.07-.1.07-.09.07-.1.08-.09.07-.1.07-.09.08-.1.07-.09.08-.09.07-.1.08-.09.08-.09.08-.09.07-.09.08-.09.08-.09.08-.09.08-.09.08-.09.08-.09L209,128l.08-.08.08-.09.08-.09.09-.08.08-.09.09-.08.08-.09.09-.08.09-.08.08-.09.09-.08L210,127l.09-.08.09-.08.09-.08.09-.08.09-.08.09-.08.09-.08.09-.08.1-.07.09-.08.06,0-2.68-1.89-.08.07-.11.09-.11.08-.1.09-.11.1-.11.09-.1.09-.1.09-.11.09-.1.09-.1.1-.1.09-.1.1-.11.09-.1.1-.09.09-.1.1-.1.1-.1.1-.09.09-.1.1-.09.1-.1.1-.09.1-.1.1-.09.1-.09.11-.09.1-.09.1-.09.11-.09.1-.09.1-.09.11-.09.1-.08.11-.09.11-.08.1-.09.11-.08.11-.09.11-.08.1-.08.11-.08.11-.08.11-.08.11-.08.11-.08.11-.08.12,0,0,3.26,1.27Zm12.24-8.3h0l.12,0,.12,0,.12,0,.12,0,.12,0,.12,0,.13,0,.12,0,.12,0,.12,0,.12,0,.13,0,.12,0H221l.13,0,.12,0,.13,0h.12l.13,0h.12l.12,0H226v-2.76h-3.7l-.15,0h-.31l-.16,0h-.15l-.15,0h-.16l-.15,0-.15,0-.15,0-.16,0-.15,0-.15,0-.15,0-.15,0-.15,0-.15,0-.15,0-.15,0-.15,0-.15,0-.15,0-.15,0-.15,0-.14,0-.15,0-.15,0h0l1.09,2.64Zm17.73-.56v-2.77h7.34v2.76Zm18.36,0v-2.76h7.34v2.76Zm18.36,0v-2.76h7.34v2.77ZM291,122.78a20.91,20.91,0,0,1,5.45,2.93l2.6-1.95a24.76,24.76,0,0,0-6.45-3.47l-1.6,2.49Zm11,9.37.06.1.05.1.06.11,0,.11.06.1.05.11.05.11.06.11.05.11.05.11,0,.11.05.1.05.11,0,.12,0,.11.05.11,0,.11.05.11,0,.11.05.11,0,.12,0,.11,0,.11.05.12,0,.11,0,.12,0,.11,0,.12,0,.11,0,.12,0,.11,0,.12,0,.11,0,.12,0,.12,0,.12,0,.11,0,.12,0,.12,0,.12,0,.12,0,.12,0,.11,0,.12v0l3.63-.42,0-.06,0-.14,0-.13,0-.13,0-.14,0-.13,0-.13,0-.13,0-.13,0-.14,0-.13,0-.13,0-.13,0-.13,0-.13,0-.13,0-.13,0-.12-.05-.13,0-.13-.05-.13,0-.13-.05-.12-.05-.13-.05-.13,0-.12-.05-.13-.05-.13-.05-.12-.05-.13,0-.12-.06-.12-.05-.13-.06-.12-.06-.12-.05-.13-.06-.12-.06-.12-.06-.12-.06-.12-.06-.12-.06-.12-.06-.12-.07-.12,0-.1-3.41,1Zm2.24,13.08H308v5.54h-3.68v-5.53Zm0,13.83H308v5.53h-3.67v-5.53Zm0,13.83H308v5.53h-3.67v-5.53Zm0,13.83H308v5.53h-3.67v-5.53Zm0,13.83h3.67v5.53h-3.68v-5.53Zm0,13.83h3.67v5.53h-3.67v-5.53Zm0,13.83h3.67v5.53h-3.67v-5.53Zm0,13.82h3.68v5.53h-3.67V242Zm0,13.83h3.67v5.53h-3.68v-5.53Zm0,13.83h3.67v5.54h-3.67v-5.53Zm0,13.83h3.67v5.53h-3.67v-5.53Zm0,13.83h3.68v5.53h-3.67v-5.53Zm0,13.83h3.67v5.53H304.2v-5.53Zm.59,14.06h0l0,.14,0,.13,0,.13,0,.13,0,.13,0,.13,0,.13,0,.13,0,.13,0,.13,0,.13.05.13,0,.13.05.13,0,.13.05.12,0,.13,0,.13.05.12.05.13.05.13.05.12,0,.13.05.12.06.12.05.13.06.12.05.13.06.12.05.12.06.12.06.13.06.12.06.12.06.12.06.12.07.12.06.12.06.12.07.12.06.12.07.11.07.12.07.12,0,.06,3.36-1.12,0-.05-.06-.11-.06-.1-.06-.11-.06-.1-.06-.11-.05-.1-.06-.11-.05-.1-.06-.11-.05-.11-.06-.1,0-.11-.05-.11-.05-.11-.05-.11-.06-.11,0-.11-.05-.11-.05-.11-.05-.11-.05-.11,0-.11-.05-.11,0-.12,0-.11-.05-.11,0-.11,0-.12,0-.11,0-.12,0-.11,0-.11,0-.12,0-.11,0-.12,0-.12,0-.11,0-.12,0-.12,0-.11,0-.12,0-.12,0-.12,0-.11v0l-3.61.51Zm9,12.78a24.87,24.87,0,0,0,6.66,3.26l1.4-2.55a21,21,0,0,1-5.58-2.75l-2.48,2ZM332,342.49v-2.77h7.35v2.76Zm18.36,0v-2.77h7.35v2.76Zm18.36,0v-2.77h7.35v2.76Zm18.36,0v-2.77h3l.12,0h.25l.13,0h.12l.13,0h.12l.13,0,.12,0,.12,0,.13,0,.12,0,.12,0,.12,0,.12,0,.13,0,.12,0,.12,0,.12,0,.12,0,.12,0,.12,0,.13,0,.12,0,.11,0,.12,0,.12,0,.12,0,.12,0,.07,0,1.28,2.6-.1,0-.14,0-.15,0-.14,0-.15,0-.15,0-.14,0-.15,0-.15,0-.14,0-.15,0-.15,0-.15,0-.15,0-.14,0-.16,0-.15,0-.15,0-.15,0-.15,0-.15,0-.15,0-.15,0-.15,0-.16,0-.15,0H391l-.15,0-.16,0h-.15l-.16,0h-3.26Zm17.49-6.08.06-.06.11-.09.1-.1.1-.09L405,336l.1-.1.1-.09.1-.1.1-.09.1-.1.1-.1.09-.09.1-.1.1-.1.09-.1.1-.1.09-.1.1-.1.09-.1.09-.1.09-.1.1-.1.09-.11.09-.1.08-.1.09-.11.09-.1.09-.11.09-.1.08-.11.09-.11.08-.1.09-.11.08-.11.08-.11.08-.11.08-.11.08-.11.08-.11.08-.11.08-.11.08-.11.08-.11.07-.12.08-.11.07-.11.07-.12.08-.11h0l-3.32-1.18h0l-.07.11-.06.1-.07.1-.07.1-.06.1-.07.09-.07.1-.07.1-.07.1-.07.1-.07.09-.07.1-.07.1-.07.09-.08.09-.07.1-.08.09-.07.1-.08.09-.07.09-.08.1-.07.09-.08.09-.08.09-.08.09-.08.09-.08.09-.08.09-.08.09-.08.09-.08.08-.09.09-.08.09-.08.08-.09.09-.08.08-.09.09-.08.08-.09.09-.09.08-.08.08-.09.08-.09.09-.09.08-.09.08-.08.08-.1.08-.06.05,2.79,1.81Zm7.35-13.35v-.2l0-.14,0-.14v-.13l0-.14v-4.91h-3.67v4.95l0,.13v.12l0,.12v.07l3.66.27Zm.19-14h-3.68V303.6h3.67v5.53Zm0-13.83h-3.67v-5.53h3.68v5.53Zm0-13.83h-3.67v-5.53h3.67v5.53Zm0-13.82h-3.67v-5.53h3.67v5.54Zm1.47-13.28.05-.1,0-.12.05-.1,0-.11.05-.11.05-.11.06-.11.05-.11.05-.11,0-.11.06-.1.05-.11.06-.11.06-.1.05-.11.06-.1.06-.11.06-.1.06-.11.06-.1.06-.1.06-.11.06-.1.06-.1.07-.1.06-.1.07-.11.06-.1.07-.1.06-.1.07-.1.07-.09.07-.1.07-.1.07-.1.07-.1.07-.09.07-.1.07-.1.07-.09.08-.09.07-.1.07-.09.08-.1.07-.09.08-.09v0l-3.11-1.47,0,0-.09.1-.08.11-.09.11-.08.1-.09.11-.08.11-.08.11-.08.11-.08.11-.09.11-.07.11-.08.11-.08.11-.08.11-.08.11L412,250l-.08.11-.07.11-.08.12-.07.11-.07.11-.07.12-.08.12-.07.11-.06.12-.07.11-.07.12-.07.12-.06.12-.07.12-.07.11-.06.12-.06.12-.07.12-.06.12-.06.12-.06.13-.06.12-.06.12-.06.12-.05.12-.06.13-.06.12-.05.12-.06.13,0,.1,3.49.86Zm9.91-10.17a21.35,21.35,0,0,1,6.14-1.83h0l-.63-2.73a25.45,25.45,0,0,0-7.45,2.21l1.95,2.34Zm16.81-2v-2.76h7.35v2.77Zm18.36,0v-2.76H466v2.77Zm18.36,0v-2.76h7.34v2.77Zm18,.19a21.13,21.13,0,0,1,6.16,1.8l1.95-2.34a25.41,25.41,0,0,0-7.45-2.18l-.66,2.72Zm13.23,7.24h0l.08.1.08.09.07.09.08.1.07.09.07.1.08.09.07.1.07.09.07.1.07.1.07.09.07.1.07.1.07.1.07.1.07.1.06.1.07.1.06.1.07.1.06.1.06.1.07.1.06.11.06.1.06.1.06.11.06.1.06.11.06.1.05.1.06.11.06.11,0,.11.06.1.05.11.06.11.05.1.05.11.05.11,0,.11.05.11.05.11.05.11.05.11h0l3.5-.84h0l0-.13-.06-.12,0-.13-.06-.12-.06-.12,0-.12-.06-.13-.06-.12-.06-.12-.06-.12-.07-.12L514,252l-.06-.12-.06-.12-.07-.12-.07-.12-.06-.11-.07-.12-.07-.12-.07-.12-.07-.11-.07-.12-.07-.11-.07-.12-.07-.11-.07-.12-.08-.11-.07-.12-.08-.11-.07-.11-.08-.11-.08-.12-.07-.11-.08-.11-.08-.11-.08-.11-.08-.11-.09-.11-.08-.11-.08-.1-.09-.11-.08-.11-.09-.11-.08-.1-.09-.11-.08-.1h0l-3.11,1.47Zm4.4,12.44h3.67v5.53h-3.67v-5.54Zm0,13.83h3.67v5.53h-3.67V275.9Zm0,13.83h3.67v5.54h-3.67v-5.53Zm0,13.83h3.67v5.53h-3.67v-5.53Zm0,13.83h3.67v5.53h-3.67v-5.53Zm0,13.83h3.67v5.53h-3.68v-5.53Zm0,13.83h3.67v5.53h-3.67v-5.53Zm0,13.83h3.67v5.53h-3.67v-5.53Zm0,13.83h3.68v5.53H512.6v-5.53Zm0,13.82h3.67v5.53h-3.67v-5.54Zm0,13.83h3.67v5.53h-3.67v-5.53Zm0,13.83h3.67v5.54h-3.67v-5.53Zm0,13.83h3.68v5.54h-3.67V428Zm0,13.83h3.67v5.53h-3.67Z"/><path class="cls-12" d="M505.44,249.35a.53.53,0,0,0,.58.44h.36c.32,0,.59-.2.59-.44v-1.43c0-.24-.26-.44-.59-.44H506a.53.53,0,0,0-.58.44Z"/><path class="cls-3" d="M476.32,241.13h10.43c3.68,0,6.6,2.89,7.68,4h8.2c1.78,0,4.34.9,4.34,2.24v2.94H465.15C467.87,240,475.44,241.13,476.32,241.13Z"/><path class="cls-13" d="M464.13,249.24c0,.29.31.52.69.52l40.69,0a.63.63,0,0,0,.69-.53v-.1c0-.29-.31-.52-.69-.53l-40.69,0c-.38,0-.69.24-.69.52Z"/><path class="cls-14" d="M494.7,250.27c0,1.46,1.57,2.64,3.51,2.64s3.5-1.18,3.5-2.64-1.56-2.64-3.5-2.64S494.71,248.81,494.7,250.27Z"/><path class="cls-15" d="M495.85,250.27c0,1,1.06,1.77,2.36,1.78a2.13,2.13,0,0,0,2.35-1.78c0-1-1.05-1.77-2.35-1.77S495.85,249.29,495.85,250.27Z"/><path class="cls-15" d="M496.41,250.27c0,.75.81,1.35,1.8,1.35s1.8-.6,1.8-1.35a1.63,1.63,0,0,0-1.8-1.35C497.22,248.92,496.41,249.52,496.41,250.27Z"/><path class="cls-14" d="M468.93,250.25c0,1.46,1.57,2.65,3.51,2.65s3.5-1.18,3.5-2.64-1.56-2.64-3.5-2.64S468.94,248.8,468.93,250.25Z"/><path class="cls-15" d="M470.08,250.25c0,1,1.06,1.78,2.36,1.78s2.35-.79,2.35-1.77a2.13,2.13,0,0,0-2.35-1.78C471.14,248.48,470.08,249.28,470.08,250.25Z"/><path class="cls-15" d="M470.64,250.25c0,.75.81,1.36,1.8,1.36s1.79-.6,1.79-1.35a1.62,1.62,0,0,0-1.79-1.36C471.45,248.9,470.64,249.51,470.64,250.25Z"/><path class="cls-16" d="M493,245.17H469.61a8.94,8.94,0,0,1,6.67-3.13l10.57,0C488.12,242,490.46,242.86,493,245.17Z"/><rect class="cls-17" x="481.72" y="241.71" width="1.53" height="3.46"/><path class="cls-13" d="M483.25,246.33c0,.31.34.56.76.56h1.55a.69.69,0,0,0,.75-.57v0a.68.68,0,0,0-.75-.57H484c-.42,0-.76.26-.76.57Z"/><path class="cls-13" d="M490.14,244.43c0-.26.14-.47.76-.43l2.7.18c.68,0,1.13.13,1.13.46v.74c0,.26-.27.49-1.3.41l-2.61-.2c-.34,0-.68-.15-.68-.41Z"/><path class="cls-13" d="M477.54,246.32c0,.32.34.57.76.57h1.55c.42,0,.76-.25.76-.56v0c0-.32-.34-.57-.76-.57H478.3c-.42,0-.76.25-.76.56Z"/><path class="cls-18" d="M491.89,18c0,2-2.14,3.6-4.77,3.6S482.34,20,482.35,18m9.54,0c0,2,2.14,3.6,4.78,3.6s4.77-1.6,4.77-3.59M511,18c0,2,2.14,3.6,4.77,3.6s4.78-1.6,4.78-3.59M511,18c0,2-2.14,3.6-4.77,3.6S501.44,20,501.44,18"/><path class="cls-18" d="M501.52,25.27c0,2-2.14,3.59-4.77,3.59S492,27.25,492,25.26m9.54,0c0,2,2.14,3.6,4.78,3.6s4.77-1.61,4.77-3.6m9.55,0c0,2,2.14,3.6,4.77,3.6s4.78-1.61,4.78-3.6m-9.55,0c0,2-2.14,3.59-4.78,3.59s-4.77-1.61-4.77-3.6"/><path class="cls-18" d="M23.46,396.28c0,1.85-2,3.34-4.43,3.34s-4.43-1.5-4.43-3.34m8.86,0c0,1.85,2,3.34,4.43,3.34s4.43-1.49,4.43-3.33m8.87,0c0,1.85,2,3.34,4.43,3.34s4.43-1.49,4.43-3.33m-8.86,0c0,1.85-2,3.34-4.44,3.34s-4.43-1.5-4.43-3.34"/><path class="cls-18" d="M32.4,403c0,1.85-2,3.34-4.43,3.34s-4.43-1.5-4.43-3.34m8.86,0c0,1.85,2,3.34,4.43,3.34s4.43-1.49,4.43-3.33m8.86,0c0,1.85,2,3.34,4.43,3.34S59,404.9,59,403.06m-8.87,0c0,1.85-2,3.34-4.43,3.34s-4.43-1.5-4.43-3.34"/><path class="cls-18" d="M62.89,434.26c0,1.84-2,3.33-4.43,3.33S54,436.1,54,434.25m8.86,0c0,1.84,2,3.34,4.43,3.34s4.43-1.49,4.43-3.34m8.87,0c0,1.84,2,3.34,4.42,3.34s4.44-1.49,4.44-3.34m-8.86,0c0,1.84-2,3.33-4.44,3.33s-4.43-1.49-4.43-3.34"/><path class="cls-18" d="M71.83,441c0,1.84-2,3.33-4.44,3.33S63,442.86,63,441m8.87,0c0,1.84,2,3.34,4.43,3.34s4.43-1.49,4.43-3.34m8.86,0c0,1.84,2,3.34,4.43,3.34s4.43-1.49,4.44-3.34m-8.87,0c0,1.84-2,3.33-4.43,3.33s-4.43-1.49-4.43-3.34"/><polygon class="cls-19" points="203.55 368.57 183.9 411.2 223.15 411.23 203.55 368.57"/><polygon class="cls-19" points="245.41 368.63 224.38 414.26 266.39 414.29 245.41 368.63"/><polygon class="cls-20" points="221.44 372.47 197.46 424.5 245.36 424.52 221.44 372.47"/><path class="cls-16" d="M452.11,57.11c9.34.61,14.67,2.12,18.83,5.67.94-4.68,4.35-8.12,11.76-12.44-7.78,3.38-11.56,5.87-13.12,9C466.05,57.33,461.08,56.78,452.11,57.11Z"/><path class="cls-16" d="M495.29,43.58c7.28,1,11.32,2.5,14.23,5.52C510.73,45.48,513.74,43,520,40c-6.45,2.22-9.67,4-11.2,6.31C506.22,44.54,502.37,43.83,495.29,43.58Z"/><path class="cls-16" d="M463.42,40.08c7.28,1,11.32,2.5,14.24,5.52,1.2-3.62,4.22-6.13,10.48-9.11-6.45,2.22-9.67,4-11.21,6.31C474.35,41.05,470.51,40.33,463.42,40.08Z"/><path class="cls-16" d="M527.64,53.25c5.1.71,7.93,1.75,10,3.87.85-2.54,3-4.3,7.35-6.38-4.52,1.55-6.77,2.77-7.85,4.41C535.3,53.93,532.6,53.43,527.64,53.25Z"/><path class="cls-16" d="M37,140.39c5.56,0,10.18,2.2,11.12,5.08a17.23,17.23,0,0,1,1.92-.11c5.21,0,9.43,2.31,9.43,5.14,0,2.44-3.12,4.48-7.3,5-.39,4-6.53,7.25-14.05,7.24-6.93,0-12.68-2.73-13.84-6.33-5.18-.39-9.17-2.81-9.17-5.74,0-3.2,4.76-5.79,10.63-5.78h.37C27.46,142.3,31.84,140.39,37,140.39Z"/><path class="cls-16" d="M580.36,148.12c5.56,0,10.18,2.2,11.11,5.08a17.41,17.41,0,0,1,1.93-.11c5.21,0,9.42,2.31,9.42,5.15,0,2.43-3.12,4.47-7.3,5-.39,4-6.53,7.25-14,7.24-6.92,0-12.68-2.73-13.84-6.33-5.18-.39-9.16-2.81-9.16-5.74,0-3.2,4.76-5.79,10.63-5.78h.36C570.79,150,575.16,148.12,580.36,148.12Z"/><path class="cls-9" d="M187.06,417h-2.65v7.07a2.41,2.41,0,0,0,2.65,0Z"/><path class="cls-20" d="M185.75,401.31c-4.19,0-7.58,4.11-7.58,9.19s3.38,9.21,7.57,9.21,7.57-4.12,7.57-9.2S189.93,401.31,185.75,401.31Z"/><path class="cls-9" d="M296.23,420.5h-2.54v3.83a3.81,3.81,0,0,0,2.54,0Z"/><path class="cls-21" d="M295,401.56a29.5,29.5,0,0,0-7.38,19.13,30.25,30.25,0,0,0,14.74,0C301.87,414.32,299.05,407.94,295,401.56Z"/><path class="cls-9" d="M57,195.06H54.29v7.1a2.4,2.4,0,0,0,2.66,0Z"/><path class="cls-20" d="M55.62,182.84c-5.21,0-9.45,3.33-9.45,7.45s4.23,7.47,9.44,7.47,9.45-3.33,9.46-7.45S60.84,182.84,55.62,182.84Z"/><path class="cls-16" d="M384.86,33.64c5.56,0,10.18,2.19,11.12,5.08a17.09,17.09,0,0,1,1.92-.11c5.21,0,9.43,2.3,9.43,5.14,0,2.44-3.12,4.48-7.31,5-.39,4-6.53,7.25-14,7.25-6.93,0-12.69-2.74-13.85-6.33C367,49.28,363,46.86,363,43.93c0-3.2,4.76-5.79,10.63-5.79H374C375.29,35.54,379.67,33.64,384.86,33.64Z"/><path class="cls-9" d="M183.93,281.34h-2.36v6.32a2.15,2.15,0,0,0,2.37,0Z"/><path class="cls-20" d="M182.76,267.29c-3.74,0-6.77,3.67-6.77,8.22s3,8.23,6.76,8.23,6.77-3.68,6.77-8.22S186.5,267.29,182.76,267.29Z"/><path class="cls-9" d="M170.67,263h-2.46v3.7a3.7,3.7,0,0,0,2.46,0Z"/><path class="cls-21" d="M169.45,244.67a28.52,28.52,0,0,0-7.13,18.5,29.2,29.2,0,0,0,14.24,0C176.12,257,173.4,250.84,169.45,244.67Z"/><path class="cls-9" d="M41.78,68.9H39.09v7.17a2.46,2.46,0,0,0,2.68,0Z"/><path class="cls-21" d="M40.44,56.57c-5.26,0-9.53,3.37-9.53,7.53s4.26,7.52,9.53,7.53S50,68.26,50,64.11,45.71,56.58,40.44,56.57Z"/><polygon class="cls-13" points="540.46 212.37 536.83 212.37 537.88 190.09 539.44 190.09 540.46 212.37"/><polygon class="cls-13" points="539.57 190.68 537.54 190.67 538.08 179.32 539.04 179.32 539.57 190.68"/><polygon class="cls-13" points="537.14 190.84 537.99 189.45 551.48 194.51 551.07 195.17 537.14 190.84"/><polygon class="cls-13" points="539.33 189.58 540.03 191 525.76 194.62 525.4 193.94 539.33 189.58"/><polygon class="cls-3" points="560.68 212.38 556.91 212.38 558 189.22 559.62 189.23 560.68 212.38"/><polygon class="cls-13" points="568.87 212.39 566.6 212.38 567.25 198.42 568.23 198.42 568.87 212.39"/><polygon class="cls-13" points="568.32 198.78 567.04 198.78 567.38 191.67 567.99 191.67 568.32 198.78"/><polygon class="cls-13" points="566.79 198.89 567.32 198.01 575.78 201.19 575.53 201.6 566.79 198.89"/><polygon class="cls-13" points="568.17 198.1 568.61 198.99 559.66 201.26 559.43 200.83 568.17 198.1"/><polygon class="cls-13" points="508.85 212.35 507.31 212.35 507.76 202.9 508.42 202.9 508.85 212.35"/><polygon class="cls-13" points="508.47 203.15 507.61 203.15 507.84 198.33 508.25 198.33 508.47 203.15"/><polygon class="cls-13" points="507.44 203.22 507.8 202.63 513.53 204.77 513.36 205.06 507.44 203.22"/><polygon class="cls-13" points="508.37 202.68 508.67 203.29 502.61 204.82 502.46 204.53 508.37 202.68"/><polygon class="cls-3" points="527.39 212.36 521.38 212.36 523.13 175.43 525.7 175.43 527.39 212.36"/><polygon class="cls-3" points="525.92 176.38 522.56 176.38 523.44 157.57 525.04 157.57 525.92 176.38"/><polygon class="cls-3" points="521.9 176.66 523.28 174.36 545.67 182.74 545.01 183.85 521.9 176.66"/><polygon class="cls-3" points="525.53 174.57 526.7 176.94 503 182.93 502.44 181.8 525.53 174.57"/><polygon class="cls-3" points="559.76 189.82 557.65 189.82 558.21 178.03 559.21 178.03 559.76 189.82"/><polygon class="cls-3" points="557.24 190 558.11 188.55 572.14 193.81 571.73 194.5 557.24 190"/><polygon class="cls-3" points="559.51 188.69 560.25 190.17 545.39 193.93 545.04 193.22 559.51 188.69"/><polygon class="cls-3" points="503.31 212.35 500.76 212.35 501.5 196.68 502.59 196.68 503.31 212.35"/><polygon class="cls-3" points="502.68 197.08 501.26 197.08 501.63 189.1 502.31 189.1 502.68 197.08"/><polygon class="cls-3" points="500.98 197.2 501.56 196.22 511.06 199.78 510.78 200.25 500.98 197.2"/><polygon class="cls-3" points="502.51 196.31 503.01 197.32 492.96 199.86 492.72 199.38 502.51 196.31"/><rect class="cls-22" x="157.95" y="33.25" width="7.67" height="43.88"/><rect class="cls-22" x="262.21" y="33.31" width="7.67" height="43.88"/><rect class="cls-23" x="150.29" y="18.48" width="127.27" height="44.63"/><text class="cls-24" transform="translate(165.1 38.27) rotate(0.03) scale(1.33 1)">ECOLOGICAL</text><text class="cls-25" transform="translate(167.43 54.99) rotate(0.03) scale(1.33 1)">RESOURCES</text><path class="cls-18" d="M550.17,86.08c0,2-2.14,3.59-4.77,3.59s-4.78-1.61-4.78-3.6m9.55,0c0,2,2.14,3.6,4.78,3.6s4.77-1.61,4.77-3.6m9.55,0c0,2,2.14,3.6,4.77,3.6s4.78-1.61,4.78-3.6m-9.55,0c0,2-2.14,3.59-4.77,3.59s-4.78-1.61-4.78-3.6"/><path class="cls-18" d="M559.8,93.36c0,2-2.14,3.6-4.77,3.6s-4.78-1.62-4.78-3.6m9.55,0c0,2,2.14,3.6,4.78,3.6s4.77-1.61,4.77-3.59m9.55,0c0,2,2.14,3.6,4.77,3.6s4.78-1.61,4.78-3.59m-9.55,0c0,2-2.14,3.6-4.77,3.6s-4.78-1.62-4.78-3.6"/><rect class="cls-4" x="240.5" y="153.76" width="19.88" height="10.34"/><rect class="cls-26" x="243.83" y="154.99" width="4.99" height="3.76"/><rect class="cls-26" x="252.14" y="156.25" width="4.99" height="7.51"/><polygon class="cls-13" points="260.42 153.77 240.47 153.75 240.47 153.74 237.15 153.73 242.14 147.47 250.45 147.48 250.45 144.98 255.44 144.98 255.44 147.48 258.76 147.48 263.75 153.75 260.42 153.75 260.42 153.77"/><rect class="cls-4" x="240.47" y="210.1" width="19.88" height="10.34"/><rect class="cls-26" x="243.8" y="211.33" width="4.99" height="3.76"/><rect class="cls-26" x="252.11" y="212.59" width="4.99" height="7.51"/><polygon class="cls-13" points="260.39 210.11 240.44 210.1 240.44 210.08 237.11 210.08 242.11 203.82 250.42 203.82 250.42 201.32 255.41 201.32 255.41 203.83 258.73 203.83 263.71 210.09 260.39 210.09 260.39 210.11"/><path class="cls-9" d="M62.6,353.62H59.94v7.1a2.4,2.4,0,0,0,2.66,0Z"/><path class="cls-20" d="M61.28,341.4c-5.22,0-9.45,3.34-9.46,7.46s4.23,7.46,9.45,7.46,9.45-3.33,9.45-7.45S66.49,341.4,61.28,341.4Z"/><path class="cls-9" d="M40.25,348H37.8v3.7a3.7,3.7,0,0,0,2.46,0Z"/><path class="cls-21" d="M39,329.7a28.52,28.52,0,0,0-7.13,18.5,29.24,29.24,0,0,0,14.25,0C45.7,342,43,335.87,39,329.7Z"/><path class="cls-27" d="M372.28,324.92H353.22c-2.94,0-5,4.47-6.65,4.47h-4.13a3.47,3.47,0,0,0-3.59,3.25v1.86c0,.55.3-.08,1-.08h2.54l35,0c.76,0,1.17.63,1.17.08v-4.28C378.64,327.86,374.59,324.93,372.28,324.92Z"/><path class="cls-27" d="M378.63,331.78s-.76-.06-.76.64v.39c0,.45,0,.54.76.54Z"/><path class="cls-16" d="M367.92,329.07a.85.85,0,0,1-.93.72h-7.31a.84.84,0,0,1-.93-.73v-2.68a.85.85,0,0,1,.93-.72H367a.86.86,0,0,1,.94.73Z"/><path class="cls-16" d="M377.58,329.28c.12.45-.41.52-.93.52H370.4c-.52,0-1.71,0-1.71-.75v-2.67c0-.46.55-.71,1.71-.71h2.5C374.85,325.67,377.25,328,377.58,329.28Z"/><path class="cls-16" d="M357.59,329.79h-7.18c-.52,0-.94,0-.94-.52,0-1.42,2.4-3.61,4.06-3.61h4.07Z"/><path class="cls-20" d="M339.9,334.39h2.54l35,0c.76,0,1.17.65,1.17.08v-1.23l-39.78,0v1.24C338.85,335,339.15,334.39,339.9,334.39Z"/><path class="cls-20" d="M341.14,334.39c0-1.16,1.78-3,4-3s4,1.84,4,3Z"/><path class="cls-14" d="M348.19,334.39c0,1.29-1.39,2.34-3.11,2.34s-3.1-1.05-3.1-2.34,1.39-2.34,3.1-2.34S348.19,333.1,348.19,334.39Z"/><path class="cls-28" d="M347.17,334.39c0,.87-.93,1.57-2.09,1.57s-2.08-.7-2.08-1.57.93-1.57,2.08-1.57S347.17,333.52,347.17,334.39Z"/><path class="cls-20" d="M367.07,334.4c0-1.15,1.78-3,4-3s4,1.83,4,3Z"/><path class="cls-14" d="M374.12,334.41c0,1.29-1.4,2.33-3.11,2.33s-3.11-1.05-3.11-2.34,1.39-2.34,3.11-2.34S374.12,333.11,374.12,334.41Z"/><path class="cls-28" d="M373.1,334.41c0,.86-.94,1.57-2.09,1.57s-2.09-.71-2.09-1.58.94-1.57,2.09-1.57S373.1,333.54,373.1,334.41Z"/><path class="cls-20" d="M358.49,330.65a.32.32,0,0,1-.32.29H356a.29.29,0,1,1,0-.58h2.2A.32.32,0,0,1,358.49,330.65Z"/><path class="cls-20" d="M367.16,330.71c0,.13-.14.23-.31.23h-2.44c-.17,0-.31-.1-.31-.23v-.11c0-.13.14-.23.31-.23h2.44c.17,0,.31.1.31.23Z"/><path class="cls-20" d="M348.8,329.16c0-.27.52-.48.87-.48h2.47a.43.43,0,0,1,.49.48v.67c0,.28-.09.45-.45.45h-2.59c-.36,0-.78-.16-.78-.43Z"/><path class="cls-16" d="M338.85,332.6l0,.06c2.44.15,3-1.76,1.21-2.63a3.38,3.38,0,0,0-1.25,2.53Z"/><rect class="cls-4" x="570.88" y="414.59" width="9.88" height="4.8"/><rect class="cls-4" x="543.95" y="407.63" width="28.4" height="17.53"/><rect class="cls-29" x="545.96" y="416.53" width="2.41" height="5.29"/><rect class="cls-29" x="549.8" y="416.53" width="2.42" height="5.29"/><rect class="cls-29" x="563.64" y="416.54" width="2.42" height="5.29"/><rect class="cls-29" x="567.48" y="416.54" width="2.42" height="5.29"/><path class="cls-13" d="M573.54,413.57v-8.46l-30.72,0v8.57h0l0,.11c0,.42.58.76,1.3.76a1.8,1.8,0,0,0,1-.28,1.74,1.74,0,0,0,1,.28,2,2,0,0,1,2,0,1.94,1.94,0,0,1,2,0,1.72,1.72,0,0,0,1-.28,1.8,1.8,0,0,0,1,.28,2,2,0,0,1,2,0,1.74,1.74,0,0,0,1-.28,2,2,0,0,0,2,0,1.74,1.74,0,0,0,1,.28,1.93,1.93,0,0,1,2,0,1.67,1.67,0,0,0,1-.29,1.7,1.7,0,0,0,1,.29,1.78,1.78,0,0,0,1-.28,1.74,1.74,0,0,0,1,.28,2,2,0,0,1,2,0,1.94,1.94,0,0,1,2,0,1.94,1.94,0,0,1,2,0,2,2,0,0,1,2,0c.71,0,1.29-.34,1.29-.76A.54.54,0,0,0,573.54,413.57Z"/><rect class="cls-26" x="554.19" y="416.54" width="7.61" height="8.52"/><path class="cls-3" d="M551.35,408.88c0-.51-.85-.93-1.91-.93s-1.91.42-1.91.93v3.05h3.8v-3.05Z"/><path class="cls-3" d="M560.5,408.89c0-.52-.85-.94-1.91-.94s-1.91.42-1.91.94v3h3.8v-3Z"/><path class="cls-3" d="M569.43,408.89c0-.51-.85-.93-1.91-.93s-1.91.42-1.91.93v3.05h3.8v-3.05Z"/><rect class="cls-26" x="564.69" y="403.54" width="2.06" height="2.36"/><rect class="cls-4" x="578.74" y="419.04" width="1.98" height="6.11"/><path class="cls-16" d="M260,124.86c0-.24-.52-.44-.85-.44h-.36c-.32,0-.32.2-.32.44v1.42c0,.25,0,.45.32.45h.36c.33,0,.85-.2.85-.45Z"/><path class="cls-27" d="M228.14,118.06h10.43c3.67,0,6.59,3.46,7.67,4.61h8.21c1.78,0,4.82.76,4.82,2.1v2.51H217C219.69,118.06,227.26,118.06,228.14,118.06Z"/><path class="cls-20" d="M258.5,126.67c0-.29-.57-.52-.95-.52l-40.69,0c-.39,0-.43.23-.43.52v.1c0,.29,0,.53.43.53l40.68,0c.39,0,1-.23,1-.52Z"/><path class="cls-14" d="M246.52,127.64c0,1.46,1.57,2.64,3.51,2.64s3.5-1.18,3.5-2.64S252,125,250,125,246.52,126.18,246.52,127.64Z"/><path class="cls-15" d="M247.67,127.64c0,1,1.05,1.78,2.36,1.78a2.13,2.13,0,0,0,2.35-1.78c0-1-1-1.77-2.35-1.77S247.67,126.66,247.67,127.64Z"/><path class="cls-15" d="M248.23,127.64c0,.75.8,1.35,1.8,1.36a1.41,1.41,0,1,0,0-2.71C249,126.29,248.23,126.89,248.23,127.64Z"/><path class="cls-14" d="M220.75,127.63c0,1.46,1.57,2.64,3.5,2.64s3.51-1.18,3.51-2.64-1.57-2.64-3.5-2.64S220.75,126.17,220.75,127.63Z"/><path class="cls-15" d="M221.9,127.63c0,1,1,1.77,2.36,1.77s2.35-.79,2.35-1.77-1.05-1.77-2.35-1.78S221.9,126.65,221.9,127.63Z"/><path class="cls-15" d="M222.46,127.63c0,.74.8,1.35,1.8,1.35s1.79-.6,1.79-1.35-.8-1.35-1.79-1.35S222.46,126.88,222.46,127.63Z"/><path class="cls-16" d="M244.78,122.68H221.43a8.89,8.89,0,0,1,6.67-3.19h10.56C239.94,119.49,242.28,120.38,244.78,122.68Z"/><rect class="cls-30" x="233.26" y="118.64" width="2.29" height="4.49"/><path class="cls-20" d="M235.68,123.23h1.37a.49.49,0,0,1,.54.41h0c0,.22-.24.4-.54.4h-1.37c-.3,0-.54-.18-.54-.4h0C235.14,123.41,235.38,123.23,235.68,123.23Z"/><path class="cls-20" d="M231.59,123.23H233c.3,0,.54.18.54.41h0c0,.22-.24.4-.54.4h-1.37c-.3,0-.54-.18-.54-.41h0C231.05,123.41,231.29,123.23,231.59,123.23Z"/><path class="cls-20" d="M242.8,121.64l1.8.28c.38.06.64.34.56.63h0a.73.73,0,0,1-.85.42l-1.8-.27c-.38-.06-.63-.35-.55-.64h0A.72.72,0,0,1,242.8,121.64Z"/><path class="cls-9" d="M148.21,369.68h-2.63v7a2.39,2.39,0,0,0,2.63,0Z"/><path class="cls-20" d="M146.9,354.06c-4.16,0-7.53,4.09-7.53,9.14s3.36,9.15,7.52,9.16,7.53-4.1,7.53-9.15S151.06,354.06,146.9,354.06Z"/><path class="cls-9" d="M156.2,343.4h-2.69v7.17a2.44,2.44,0,0,0,2.68,0Z"/><path class="cls-21" d="M154.86,331.08c-5.26,0-9.53,3.36-9.53,7.52s4.26,7.53,9.52,7.53,9.54-3.37,9.54-7.52S160.13,331.08,154.86,331.08Z"/><path class="cls-9" d="M255.6,393.08h-1.75v4.68a1.57,1.57,0,0,0,1.75,0Z"/><path class="cls-21" d="M254.73,385c-3.44,0-6.23,2.2-6.23,4.92s2.78,4.92,6.22,4.92,6.23-2.2,6.23-4.92S258.17,385,254.73,385Z"/><path class="cls-9" d="M239.86,384.44h-1.38v3.69a1.26,1.26,0,0,0,1.38,0Z"/><path class="cls-20" d="M239.18,376.25c-2.18,0-4,2.14-4,4.79s1.76,4.8,3.94,4.8,4-2.14,4-4.79S241.36,376.25,239.18,376.25Z"/><path class="cls-9" d="M218.28,414.44h-1.9v2.85a2.85,2.85,0,0,0,1.89,0Z"/><path class="cls-19" d="M217.34,400.33a21.94,21.94,0,0,0-5.5,14.25,22.54,22.54,0,0,0,11,0C222.48,409.83,220.38,405.08,217.34,400.33Z"/><path class="cls-9" d="M196.82,390.17h-1.53v4.09a1.39,1.39,0,0,0,1.53,0Z"/><path class="cls-21" d="M196.06,383.14c-3,0-5.44,1.92-5.44,4.29s2.43,4.3,5.43,4.3,5.44-1.92,5.44-4.29S199.06,383.14,196.06,383.14Z"/><path class="cls-9" d="M227.37,395.59h-1.7v4.55a1.58,1.58,0,0,0,1.71,0Z"/><path class="cls-19" d="M226.52,387.77c-3.34,0-6.05,2.13-6.05,4.77s2.71,4.78,6.05,4.78,6-2.14,6-4.77S229.86,387.77,226.52,387.77Z"/><path class="cls-9" d="M563.19,394.49h-2.54v3.83a3.81,3.81,0,0,0,2.54,0Z"/><path class="cls-21" d="M561.93,375.55a29.5,29.5,0,0,0-7.38,19.13,30.25,30.25,0,0,0,14.74,0C568.83,388.31,566,381.93,561.93,375.55Z"/><path class="cls-9" d="M548.84,379.43h-2.35v6.28a2.15,2.15,0,0,0,2.36,0Z"/><path class="cls-20" d="M547.67,365.46c-3.72,0-6.73,3.66-6.73,8.18s3,8.17,6.72,8.18,6.73-3.66,6.74-8.18S551.39,365.46,547.67,365.46Z"/><path class="cls-3" d="M163.46,221.55a2.14,2.14,0,0,0-2.1-1.75H146a2.3,2.3,0,0,0-2.12.81c-1.3,1.26-3,2.67-3,2.67s-6.56.63-8.47,1.28c-1.31.44-1,1.59-1,2.74,0,1.65,1.72,1.15,1.72,1.15s21.24.29,28.85.3c.66,0,2.37-.19,2.37-1.22S163.46,221.55,163.46,221.55Z"/><path class="cls-13" d="M164.35,227.55c0,1-1.45,1.47-2.1,1.47H132.4s-1.55,0-1.57-2.31l33.49,0C164.34,227.3,164.35,227.43,164.35,227.55Z"/><path class="cls-16" d="M140.85,223.28l3.24-2.91h9.76c.14,0,.13.08.13.18v2.55a.17.17,0,0,1-.19.19Z"/><path class="cls-16" d="M155.35,220.38H161c.7,0,1.24.38,1.24.91l.23,1.73a.23.23,0,0,1-.22.24h-6.88c-.14,0-.6-.1-.6-.2v-2.5C154.75,220.46,155.21,220.38,155.35,220.38Z"/><path class="cls-13" d="M154,224c0-.12-.13-.21-.29-.21h-2.48c-.16,0-.29.09-.29.21v.15c0,.12.13.21.29.21h2.48c.16,0,.29-.09.29-.21Z"/><path class="cls-13" d="M163.16,225.74c0,.53.71.4,1.45.4h.21c.74,0,.63.13.63-.4v-2.62c0-.54.1-1-.63-1h-.22c-.74,0-1.45.47-1.45,1Z"/><path class="cls-13" d="M161.61,229c0-2.3-2-3.4-4.52-3.4s-4.52,1.09-4.52,3.4Z"/><path class="cls-13" d="M143,229c0-2.3-2-3.4-4.52-3.4S134,226.7,134,229Z"/><path class="cls-14" d="M153.72,229.39c0,1.4,1.5,2.54,3.37,2.54s3.37-1.13,3.37-2.54-1.51-2.54-3.37-2.54S153.72,228,153.72,229.39Z"/><path class="cls-15" d="M154.51,229.39c0,1.07,1.16,1.94,2.58,1.94s2.57-.87,2.58-1.94-1.16-1.94-2.58-1.94S154.51,228.32,154.51,229.39Z"/><path class="cls-14" d="M135.12,229.38c0,1.4,1.51,2.54,3.37,2.54s3.38-1.13,3.38-2.54-1.51-2.54-3.37-2.54S135.12,228,135.12,229.38Z"/><path class="cls-15" d="M135.92,229.38c0,1.07,1.15,1.94,2.57,1.94s2.58-.87,2.58-1.94-1.15-1.94-2.57-1.94S135.92,228.31,135.92,229.38Z"/><polygon class="cls-3" points="144.09 223.82 144.85 223.82 144.91 220.15 144.09 220.37 144.09 223.82"/><path class="cls-13" d="M147.1,222.82c0-.08-.09-.14-.2-.14h-2.67c-.11,0-.19.06-.19.14v.29c0,.08.08.14.19.14h2.67c.11,0,.2-.06.2-.14Z"/><path class="cls-13" d="M157.94,224c0-.11-.13-.21-.29-.21h-2.49c-.16,0-.28.09-.28.21v.15c0,.12.12.21.28.21h2.49a.26.26,0,0,0,.29-.22Z"/><path class="cls-16" d="M132.57,224.5a1.11,1.11,0,0,1,.3.75,1.44,1.44,0,0,1-1.53,1.28c0-.86,0-1.63,1-2Z"/><path class="cls-9" d="M158.1,162h-2.66v7.1a2.4,2.4,0,0,0,2.66,0Z"/><path class="cls-20" d="M156.77,149.82c-5.21,0-9.45,3.34-9.45,7.46s4.23,7.46,9.45,7.46,9.45-3.33,9.45-7.45S162,149.82,156.77,149.82Z"/><path class="cls-9" d="M147.73,143.18h-2.54V147a3.91,3.91,0,0,0,2.55,0Z"/><path class="cls-21" d="M146.47,124.23c-4.7,5.63-7.34,12-7.38,19.13a30.13,30.13,0,0,0,14.74,0C153.37,137,150.55,130.61,146.47,124.23Z"/><path class="cls-9" d="M460.73,291.29h-2.54v3.84a3.94,3.94,0,0,0,2.54,0Z"/><path class="cls-20" d="M459.47,272.34c-4.69,5.63-7.33,11.94-7.38,19.13a30.25,30.25,0,0,0,14.74,0C466.37,285.1,463.55,278.72,459.47,272.34Z"/><path class="cls-9" d="M343.43,375.48h-2.35v6.29a2.15,2.15,0,0,0,2.36,0Z"/><path class="cls-21" d="M342.26,361.51c-3.71,0-6.73,3.66-6.73,8.17s3,8.18,6.72,8.18,6.73-3.65,6.74-8.17S346,361.51,342.26,361.51Z"/><path class="cls-9" d="M366.08,378.41H363.4v7.17a2.45,2.45,0,0,0,2.69,0Z"/><path class="cls-20" d="M364.74,366.08c-5.26,0-9.53,3.37-9.53,7.53s4.26,7.52,9.53,7.53,9.53-3.37,9.53-7.52S370,366.09,364.74,366.08Z"/><path class="cls-9" d="M359.09,295.88h-2.54v3.83a3.81,3.81,0,0,0,2.54,0Z"/><path class="cls-21" d="M357.83,276.94c-4.7,5.62-7.34,11.94-7.38,19.13a30.25,30.25,0,0,0,14.74,0C364.73,289.7,361.91,283.32,357.83,276.94Z"/><text class="cls-31" transform="translate(395.34 187.04) rotate(0.03) scale(1.33 1)">SAMPLE TEXT </text><text class="cls-32" transform="translate(395.34 193.22) rotate(0.03) scale(1.33 1)">Lorem ipsum dolor<tspan x="-17.68" y="5.19">sit amet, consectetur</tspan><tspan x="-12.21" y="10.37">adipiscing elit.</tspan></text><rect class="cls-33" x="101.96" y="262.7" width="23.45" height="4.73"/><rect class="cls-22" x="99.92" y="266.87" width="27.52" height="37.05"/><path class="cls-34" d="M126.38,303.92Z"/><path class="cls-34" d="M104.8,303.91h0v0Z"/><rect class="cls-33" x="106.24" y="299.13" width="14.9" height="4.8"/><rect class="cls-10" x="40.84" y="266.39" width="22.5" height="4.3"/><rect class="cls-10" x="47.49" y="263.26" width="9.21" height="3.98"/><rect class="cls-33" x="38.88" y="270.18" width="26.4" height="33.71"/><path class="cls-34" d="M64.27,303.89Z"/><path class="cls-34" d="M43.56,303.88h0l0,0Z"/><rect class="cls-10" x="44.95" y="298.42" width="14.3" height="5.48"/><rect class="cls-35" x="40.95" y="294.19" width="6.13" height="2.92"/><rect class="cls-35" x="49.01" y="294.19" width="6.13" height="2.92"/><rect class="cls-35" x="57.07" y="294.2" width="6.13" height="2.92"/><rect class="cls-35" x="40.95" y="289.85" width="6.13" height="2.92"/><rect class="cls-35" x="49.01" y="289.86" width="6.13" height="2.92"/><rect class="cls-35" x="57.07" y="289.86" width="6.13" height="2.92"/><rect class="cls-35" x="40.96" y="285.51" width="6.13" height="2.92"/><rect class="cls-35" x="49.02" y="285.52" width="6.13" height="2.92"/><rect class="cls-35" x="57.08" y="285.52" width="6.13" height="2.92"/><rect class="cls-35" x="40.96" y="281.17" width="6.13" height="2.92"/><rect class="cls-35" x="49.02" y="281.18" width="6.13" height="2.92"/><rect class="cls-35" x="57.08" y="281.18" width="6.13" height="2.92"/><rect class="cls-35" x="40.96" y="276.84" width="6.13" height="2.92"/><rect class="cls-35" x="49.02" y="276.84" width="6.13" height="2.92"/><rect class="cls-35" x="57.08" y="276.84" width="6.13" height="2.92"/><rect class="cls-35" x="40.96" y="272.5" width="6.13" height="2.92"/><rect class="cls-35" x="49.02" y="272.5" width="6.13" height="2.92"/><rect class="cls-35" x="57.08" y="272.51" width="6.13" height="2.92"/><rect class="cls-35" x="42.84" y="267.25" width="5.36" height="2.02"/><rect class="cls-35" x="49.41" y="267.25" width="5.36" height="2.02"/><rect class="cls-35" x="55.98" y="267.25" width="5.36" height="2.02"/><rect class="cls-35" x="49.41" y="264.36" width="5.36" height="2.02"/><rect class="cls-4" x="71.62" y="275.58" width="20.94" height="28.34"/><path class="cls-13" d="M75.06,272.35c1-2.19,3.79-3.77,7-3.77s6,1.58,7,3.78h3.43v3.22H71.63v-3.22Z"/><path class="cls-36" d="M76.52,274.1c0-2.32,2.5-4.2,5.58-4.2s5.59,1.88,5.58,4.21Z"/><rect class="cls-26" x="77.84" y="299.11" width="8.48" height="4.8"/><rect class="cls-37" x="73.63" y="295.41" width="7.33" height="2.56"/><rect class="cls-37" x="83.72" y="295.41" width="7.33" height="2.56"/><rect class="cls-37" x="73.63" y="291.61" width="7.33" height="2.56"/><rect class="cls-37" x="83.72" y="291.61" width="7.33" height="2.56"/><rect class="cls-37" x="73.63" y="287.8" width="7.33" height="2.56"/><rect class="cls-37" x="83.72" y="287.81" width="7.33" height="2.56"/><rect class="cls-37" x="73.63" y="284" width="7.33" height="2.56"/><rect class="cls-37" x="83.72" y="284.01" width="7.33" height="2.56"/><rect class="cls-37" x="73.63" y="280.2" width="7.33" height="2.56"/><rect class="cls-37" x="83.73" y="280.2" width="7.33" height="2.56"/><rect class="cls-37" x="73.64" y="276.4" width="7.33" height="2.56"/><rect class="cls-37" x="83.73" y="276.4" width="7.33" height="2.56"/><rect class="cls-11" x="102.07" y="293.99" width="6.39" height="4"/><rect class="cls-11" x="110.47" y="293.99" width="6.39" height="4"/><rect class="cls-11" x="118.88" y="294" width="6.39" height="4"/><rect class="cls-11" x="102.08" y="288.05" width="6.39" height="4"/><rect class="cls-11" x="110.48" y="288.05" width="6.39" height="4"/><rect class="cls-11" x="118.88" y="288.06" width="6.39" height="4"/><rect class="cls-11" x="102.08" y="282.11" width="6.39" height="4"/><rect class="cls-11" x="118.88" y="282.12" width="6.39" height="4"/><rect class="cls-11" x="102.08" y="276.18" width="6.39" height="4"/><rect class="cls-11" x="110.48" y="276.18" width="6.39" height="9.93"/><rect class="cls-11" x="118.89" y="276.19" width="6.39" height="4"/><rect class="cls-11" x="102.09" y="270.24" width="6.39" height="4"/><rect class="cls-11" x="110.49" y="270.25" width="6.39" height="4"/><rect class="cls-11" x="118.89" y="270.25" width="6.39" height="4"/><rect class="cls-11" x="104.05" y="263.64" width="5.59" height="2.23"/><rect class="cls-11" x="110.89" y="263.65" width="5.59" height="2.23"/><rect class="cls-11" x="117.74" y="263.65" width="5.59" height="2.23"/><path class="cls-9" d="M262.79,236.48h-1.15v-.76h1.14v-1h.91v3.44h-.91v-.67h-1.15v-.76h1.15Zm-1.15,0H260.5v.29h1.14v.76H260.5v.67h-.91v-.67h-1.14v-.76h1.14v-.29h-1.14v-.76h1.14v-1h.91v1h1.15Zm-3.19-.76v.76H257.3v.29h1.15v.76H257.3v.67h-.91v-.67h-1.14v-.75h1.14v-.29h-1.14v-.76h1.14v-1h.92v1Zm-3.2,0v.76h-1.14v.29h1.14v.75h-1.14v.68h-.92v-.68h-1.14v-.75h1.14v-.29h-1.14v-.75h1.14v-1h.92v1Zm-3.2,0v.75h-1.14v.3h1.14v.75h-1.14v.67H250v-.67h-1.14v-.76H250v-.29h-1.15v-.75H250v-1h.91v1Zm-3.2,0v.75h-1.14v.29h1.14v.76h-1.14v.67h-.91v-.67h-1.15v-.76h1.14v-.29h-1.14v-.76h1.14v-1h.91v1Zm-3.19,0v.76h-1.15v.29h1.15v.76h-1.14v.67h-.91v-.67h-1.14v-.76h1.14v-.29h-1.14v-.76h1.14v-1h.91v1Zm-3.2,0v.76h-1.14v.29h1.14v.76h-1.14v.67h-.91v-.67h-1.14v-.76h1.14v-.29h-1.14v-.76h1.14v-1h.92v1Zm-3.2,0v.76h-1.14v.29h1.14v.76h-1.14v.67h-.92v-.68h-1.14v-.75h1.14v-.29h-1.14v-.76h1.14v-1h.91v1Zm-3.2,0v.76h-1.14v.29h1.14v.75h-1.14v.68H234v-.67h-1.15v-.75H234v-.3h-1.15v-.75H234v-1h.91v1Zm-3.19,0v.75h-1.14v.29h1.14v.75h-1.14v.67h-.91v-.67h-1.14v-.76h1.14v-.29h-1.14v-.75h1.14v-1h.91v1Zm-3.2,0v.75h-1.15v.29h1.15v.76h-1.15v.67h-.91v-.67h-1.14v-.76h1.14v-.29h-1.14v-.76h1.14v-1h.92v1Zm-3.2,0v.76h-1.14v.29h1.14v.76h-1.14v.67h-.92v-3.44h.92v1Z"/><polygon class="cls-7" points="563.35 62.11 566.2 65.67 587.78 65.69 592.22 62.12 563.35 62.11"/><path class="cls-38" d="M569.87,62.21h13.35V45.07A26.48,26.48,0,0,0,569.87,62.21Z"/><rect class="cls-22" x="240.49" y="181.23" width="19.88" height="10.34"/><rect class="cls-11" x="243.82" y="182.46" width="4.99" height="3.76"/><rect class="cls-33" x="252.13" y="183.72" width="4.99" height="7.85"/><polygon class="cls-7" points="260.41 181.24 240.46 181.23 240.46 181.21 237.13 181.21 242.12 174.95 250.44 174.95 250.44 172.45 255.42 172.45 255.42 174.96 258.75 174.96 263.73 181.22 260.41 181.22 260.41 181.24"/><path class="cls-7" d="M359.58,39.09c-8.93,0-16.18,5.45-16.18,12.18,0,5.6,6.29,10.44,10.55,14.85H365.2c4.08-4.22,10.55-9.33,10.56-14.84C375.76,44.56,368.52,39.1,359.58,39.09Z"/><path class="cls-39" d="M359.58,39.09a12.08,12.08,0,0,0-11.95,12.18c0,5.6,4.64,10.44,7.79,14.85h8.31c3-4.21,7.79-9.32,7.79-14.83A12.07,12.07,0,0,0,359.58,39.09Z"/><path class="cls-7" d="M359.58,39.09c-3.9,0-7.07,5.46-7.07,12.19,0,5.59,2.74,10.43,4.6,14.84H362c1.78-4.21,4.61-9.32,4.62-14.84C366.65,44.55,363.49,39.1,359.58,39.09Z"/><path class="cls-39" d="M359.58,39.09c-1.36,0-2.47,5.46-2.47,12.19a96,96,0,0,0,1.6,14.84h1.72A97.94,97.94,0,0,0,362,51.28C362.05,44.55,361,39.09,359.58,39.09Z"/><path class="cls-7" d="M356,76.35v3.89a.54.54,0,0,0,.56.52h6.11a.55.55,0,0,0,.57-.52V76.36H356Z"/><path class="cls-6" d="M364.62,69.31l-1.85,7,.42,0,2-7-.58-.09Zm-5.34,0v7h.6v-7Zm-5.34,0,2,7,.4-.06-1.83-7Z"/><path class="cls-6" d="M359.56,76.36v-7h-.29v7Zm-5.62-7,2,7,.42-.05-1.85-7Z"/><path class="cls-39" d="M359.74,76.36h-.34a5.89,5.89,0,0,0-.79,1.39c-.2.65.43,1.06,1,1.06s1.16-.41,1-1.06A6.1,6.1,0,0,0,359.74,76.36Z"/><path class="cls-3" d="M356.12,76.35H356v2.46c.53,0,1.16-.41,1-1.06A6.41,6.41,0,0,0,356.12,76.35Z"/><path class="cls-39" d="M363.06,76.25l.13.11v2.45c-.53,0-1.16-.41-1-1A7.16,7.16,0,0,1,363.06,76.25Z"/><path class="cls-7" d="M359.58,39.09c-8.93,0-16.18,5.45-16.18,12.18,0,5.6,6.29,10.44,10.55,14.85h5.62A93.09,93.09,0,0,1,359.58,39.09Z"/><path class="cls-39" d="M359.58,39.09a12.08,12.08,0,0,0-11.95,12.18c0,5.6,4.64,10.44,7.79,14.85h4.15Z"/><path class="cls-7" d="M359.58,39.09c-3.9,0-7.07,5.46-7.07,12.19,0,5.59,2.74,10.43,4.6,14.84h2.46C356.62,57.11,357.13,48.1,359.58,39.09Z"/><path class="cls-39" d="M359.58,39.09c-1.36,0-2.47,5.46-2.47,12.19a96,96,0,0,0,1.6,14.84h.86Z"/><rect class="cls-26" x="353.94" y="66.09" width="5.62" height="3.31"/><path class="cls-7" d="M356,76.35v3.89a.54.54,0,0,0,.56.52h3.05v-2a3.16,3.16,0,0,1,0-2.45Z"/><path class="cls-6" d="M355.94,76.42a1.11,1.11,0,0,0,.39.33,3.08,3.08,0,0,0,2.51.23c.3-.11.42-.31.67-.56l.05-.06V76l-.2.26a2.08,2.08,0,0,1-.7.45,2.4,2.4,0,0,1-1.15.11,2.68,2.68,0,0,1-.93-.3.82.82,0,0,1-.27-.23Z"/><path class="cls-39" d="M359.56,76.36h-.16a5.89,5.89,0,0,0-.79,1.39c-.2.65.42,1.06.95,1.06Z"/><path class="cls-39" d="M356,76.26l-.09.09v2.46c.53,0,1.16-.41,1-1.06A7,7,0,0,0,356,76.26Z"/><path class="cls-6" d="M363.19,76.43a1.34,1.34,0,0,1-.39.33,3.15,3.15,0,0,1-1.11.36,3,3,0,0,1-1.41-.14c-.29-.11-.41-.31-.67-.56l-.05-.06V76l.21.26a1.9,1.9,0,0,0,.7.45,2.4,2.4,0,0,0,1.15.11,2.68,2.68,0,0,0,.93-.3.8.8,0,0,0,.27-.22Z"/><polygon class="cls-7" points="353.94 66.09 353.94 69.39 365.2 69.4 365.2 66.09 360.77 66.09 360.09 66.09 353.94 66.09"/><polygon class="cls-40" points="279.55 424.54 260.48 424.53 260.48 409.4 270.07 401.15 279.56 409.41 279.55 424.54"/><polygon class="cls-7" points="281.83 412.03 269.72 402.89 258.21 411.55 255.9 409.81 269.72 399.41 284.15 410.29 281.83 412.03"/><rect class="cls-11" x="273.03" y="411.91" width="2.99" height="2.26"/><rect class="cls-11" x="263.89" y="411.9" width="2.99" height="2.26"/><rect class="cls-33" x="267.43" y="417.1" width="5.17" height="7.38"/><path class="cls-41" d="M271.66,407.49c0,.63-.73,1.13-1.64,1.13s-1.63-.5-1.63-1.13.73-1.13,1.64-1.12S271.66,406.87,271.66,407.49Z"/><text class="cls-31" transform="translate(427.94 381.19) rotate(0.03) scale(1.33 1)">SAMPLE TEXT </text><text class="cls-42" transform="translate(433.42 387.38) rotate(0.03) scale(1.33 1)">Lorem ipsum dolor<tspan x="-3.2" y="5.19">sit amet, consectetur</tspan><tspan x="7.74" y="10.37">adipiscing elit.</tspan></text><text class="cls-31" transform="translate(546.3 230.97) rotate(0.03) scale(1.33 1)">SAMPLE TEXT </text><text class="cls-42" transform="translate(546.3 237.16) rotate(0.03) scale(1.33 1)">Lorem ipsum dolor<tspan x="0" y="5.19">sit amet, consectetur</tspan><tspan x="0" y="10.37">adipiscing elit.</tspan></text><path class="cls-9" d="M349.42,273.92h-2.69v7.16a2.45,2.45,0,0,0,2.69,0Z"/><path class="cls-20" d="M348.08,261.59c-5.26,0-9.53,3.36-9.53,7.52s4.26,7.53,9.53,7.53,9.53-3.36,9.53-7.52S353.35,261.59,348.08,261.59Z"/><path class="cls-27" d="M357.46,190c4.06,0,7.37-2.49,7.37-5.54s-3.3-5.56-7.36-5.56-7.37,2.49-7.37,5.55S353.4,190,357.46,190Z"/><path class="cls-27" d="M375.73,190c4,0,7.37-2.49,7.37-5.54s-3.31-5.56-7.37-5.56-7.37,2.49-7.37,5.55S371.67,190,375.73,190Z"/><path class="cls-27" d="M357.45,204.13c4.06,0,7.37-2.49,7.38-5.55s-3.31-5.55-7.37-5.55-7.37,2.49-7.37,5.54S353.4,204.13,357.45,204.13Z"/><path class="cls-27" d="M375.72,204.14c4.06,0,7.37-2.49,7.37-5.55s-3.31-5.55-7.37-5.55-7.36,2.49-7.37,5.54S371.66,204.14,375.72,204.14Z"/><path class="cls-13" d="M357.47,184.45l-7.05-1.63c.95-2.33,3.81-3.92,7.05-3.92Z"/><path class="cls-13" d="M375.73,184.46l-7-1.63c.94-2.33,3.8-3.92,7-3.92a7.8,7.8,0,0,1,6.68,3.21Z"/><path class="cls-13" d="M357.46,198.58l-7-1.63c.95-2.33,3.81-3.92,7-3.92,4.07,0,7.37,2.49,7.37,5.55s-3.31,5.55-7.38,5.55a8.24,8.24,0,0,1-6.08-2.43Z"/><path class="cls-13" d="M375.72,198.59l-7-1.63c.95-2.33,3.81-3.92,7-3.92,4.07,0,7.37,2.49,7.37,5.55,0,2.58-2.37,4.82-5.71,5.41Z"/><text class="cls-31" transform="translate(354.03 407.24) rotate(0.03) scale(1.33 1)">SAMPLE TEXT </text><text class="cls-42" transform="translate(354.03 413.43) rotate(0.03) scale(1.33 1)">Lorem ipsum dolor<tspan x="0" y="5.19">sit amet, consectetur</tspan><tspan x="0" y="10.37">adipiscing elit.</tspan></text><path class="cls-13" d="M323.26,400.33c.73.91,1.85,2.58,1.85,3.27s-.83,1.24-1.85,1.24-1.85-.56-1.85-1.25A6.88,6.88,0,0,1,323.26,400.33Z"/><path class="cls-13" d="M330.18,400.33c.72.92,1.85,2.58,1.85,3.27s-.83,1.25-1.85,1.25-1.85-.56-1.85-1.25A7,7,0,0,1,330.18,400.33Z"/><path class="cls-3" d="M337.1,400.34c.72.91,1.85,2.57,1.84,3.26s-.82,1.25-1.84,1.25-1.85-.56-1.85-1.25A6.88,6.88,0,0,1,337.1,400.34Z"/><path class="cls-3" d="M323.26,407c.72.91,1.84,2.57,1.84,3.26s-.82,1.25-1.84,1.25-1.85-.56-1.85-1.25A6.79,6.79,0,0,1,323.26,407Z"/><path class="cls-3" d="M330.18,407c.72.91,1.84,2.58,1.84,3.27s-.83,1.24-1.84,1.24-1.85-.56-1.85-1.25A6.84,6.84,0,0,1,330.18,407Z"/><path class="cls-3" d="M337.1,407c.72.92,1.84,2.58,1.84,3.27s-.83,1.25-1.85,1.24-1.84-.55-1.84-1.24A6.86,6.86,0,0,1,337.1,407Z"/><path class="cls-3" d="M344,400.34c.72.91,1.84,2.58,1.84,3.27s-.82,1.24-1.84,1.24-1.85-.56-1.85-1.25A6.84,6.84,0,0,1,344,400.34Z"/><path class="cls-3" d="M344,407c.72.91,1.84,2.58,1.84,3.26s-.83,1.25-1.85,1.25-1.84-.56-1.84-1.25A6.79,6.79,0,0,1,344,407Z"/><path class="cls-13" d="M323.26,413.7c.72.91,1.84,2.58,1.84,3.27s-.83,1.24-1.85,1.24-1.84-.56-1.84-1.24A6.82,6.82,0,0,1,323.26,413.7Z"/><path class="cls-13" d="M330.17,413.71c.73.91,1.85,2.57,1.85,3.26s-.83,1.25-1.85,1.25-1.84-.56-1.84-1.25A6.85,6.85,0,0,1,330.17,413.71Z"/><path class="cls-13" d="M337.09,413.71c.73.91,1.85,2.58,1.85,3.27s-.83,1.24-1.85,1.24-1.84-.56-1.84-1.25A6.89,6.89,0,0,1,337.09,413.71Z"/><path class="cls-13" d="M323.25,420.39c.73.91,1.85,2.58,1.85,3.26s-.83,1.25-1.85,1.25-1.85-.56-1.85-1.25A6.88,6.88,0,0,1,323.25,420.39Z"/><path class="cls-3" d="M330.17,420.39c.72.92,1.84,2.58,1.84,3.27s-.82,1.25-1.84,1.24-1.85-.55-1.85-1.24A6.9,6.9,0,0,1,330.17,420.39Z"/><path class="cls-3" d="M337.09,420.4c.72.91,1.84,2.57,1.84,3.26s-.82,1.25-1.84,1.25-1.85-.56-1.85-1.25A6.88,6.88,0,0,1,337.09,420.4Z"/><path class="cls-3" d="M344,413.71c.72.92,1.85,2.58,1.85,3.27s-.83,1.25-1.85,1.24-1.85-.55-1.85-1.24A7,7,0,0,1,344,413.71Z"/><path class="cls-3" d="M344,420.4c.72.91,1.84,2.58,1.84,3.27s-.83,1.24-1.84,1.24-1.85-.56-1.85-1.25A6.84,6.84,0,0,1,344,420.4Z"/><path class="cls-13" d="M316.34,400.33c.73.91,1.85,2.57,1.85,3.26s-.83,1.25-1.85,1.25-1.84-.56-1.84-1.25A6.85,6.85,0,0,1,316.34,400.33Z"/><path class="cls-13" d="M316.34,407c.72.91,1.85,2.58,1.85,3.27s-.83,1.24-1.85,1.24-1.85-.56-1.85-1.24A6.9,6.9,0,0,1,316.34,407Z"/><path class="cls-13" d="M316.34,413.7c.72.91,1.84,2.58,1.84,3.26s-.83,1.25-1.85,1.25-1.84-.56-1.84-1.25A6.79,6.79,0,0,1,316.34,413.7Z"/><path class="cls-13" d="M316.33,420.38c.73.92,1.85,2.58,1.85,3.27s-.83,1.25-1.85,1.25-1.84-.56-1.84-1.25A6.91,6.91,0,0,1,316.33,420.38Z"/><path class="cls-9" d="M366,258.78h-2.58v6.88a2.35,2.35,0,0,0,2.58,0Z"/><path class="cls-21" d="M364.67,243.48c-4.08,0-7.38,4-7.38,9s3.29,9,7.37,9,7.37-4,7.37-9S368.74,243.48,364.67,243.48Z"/><path class="cls-9" d="M461.94,128.71h-2.69v7.16a2.44,2.44,0,0,0,2.68,0Z"/><path class="cls-21" d="M460.6,116.38c-5.26,0-9.53,3.37-9.53,7.52s4.26,7.53,9.52,7.54,9.54-3.37,9.54-7.53S465.87,116.39,460.6,116.38Z"/><path class="cls-9" d="M303.58,84.06H301v3.83a3.81,3.81,0,0,0,2.54,0Z"/><path class="cls-21" d="M302.32,65.11c-4.7,5.63-7.34,12-7.38,19.13a30,30,0,0,0,14.74,0C309.21,77.87,306.4,71.49,302.32,65.11Z"/><rect class="cls-22" x="251.68" y="95.58" width="4.73" height="10.74"/><polygon class="cls-9" points="239.8 92.06 254.12 92.06 268.44 92.07 272.83 95.48 268.44 98.88 239.79 98.86 239.79 98.86 239.8 92.06"/><text class="cls-43" transform="translate(244 97.3) rotate(0.03) scale(1.33 1)">YOUR TEXT</text><rect class="cls-22" x="145.53" y="195.89" width="4.73" height="10.74"/><polygon class="cls-9" points="133.64 192.36 147.96 192.37 162.29 192.38 166.67 195.78 162.28 199.18 133.64 199.17 133.64 199.17 133.64 192.36"/><text class="cls-43" transform="translate(137.84 197.6) rotate(0.03) scale(1.33 1)">YOUR TEXT</text><rect class="cls-22" x="355.76" y="344.21" width="4.73" height="10.74"/><polygon class="cls-9" points="373.61 347.51 359.29 347.5 344.97 347.49 340.58 344.09 344.97 340.69 373.62 340.7 373.62 340.7 373.61 347.51"/><text class="cls-43" transform="translate(348.07 345.93) rotate(0.03) scale(1.33 1)">YOUR TEXT</text><rect class="cls-22" x="460.05" y="216.51" width="4.73" height="10.74"/><polygon class="cls-9" points="448.16 212.98 462.48 212.99 476.81 213 481.19 216.4 476.8 219.8 448.16 219.79 448.16 219.79 448.16 212.98"/><text class="cls-43" transform="translate(452.36 218.22) rotate(0.03) scale(1.33 1)">YOUR TEXT</text><rect class="cls-4" x="378.38" y="144.02" width="35.17" height="21.71"/><rect class="cls-29" x="383.05" y="155.04" width="2.99" height="2.25"/><rect class="cls-29" x="387.58" y="155.04" width="2.99" height="2.25"/><rect class="cls-29" x="392.11" y="155.04" width="2.99" height="2.25"/><rect class="cls-29" x="396.64" y="155.04" width="2.99" height="2.25"/><rect class="cls-29" x="401.17" y="155.05" width="2.99" height="2.25"/><rect class="cls-29" x="405.71" y="155.05" width="2.99" height="2.25"/><path class="cls-13" d="M415,151.37V140.89l-38,0v10.61h0l0,.13c0,.52.71.94,1.6.94a2.42,2.42,0,0,1,2.49,0,2.41,2.41,0,0,1,2.5,0,2.17,2.17,0,0,0,1.24-.35,2.41,2.41,0,0,0,2.5,0,2.39,2.39,0,0,0,2.49,0,2.39,2.39,0,0,0,2.49,0,2.13,2.13,0,0,0,1.25.35,2.17,2.17,0,0,0,1.24-.34,2.47,2.47,0,0,0,2.5,0,7,7,0,0,1,3.74.35,2.17,2.17,0,0,0,1.24-.35,2.41,2.41,0,0,0,2.5,0,2.39,2.39,0,0,0,2.49,0,2.39,2.39,0,0,0,2.49,0,2.13,2.13,0,0,0,1.25.35,2.23,2.23,0,0,0,1.25-.34,2.17,2.17,0,0,0,1.24.34c.89,0,1.6-.42,1.61-.93A.6.6,0,0,0,415,151.37Z"/><rect class="cls-26" x="382.55" y="158.3" width="9.43" height="7.28"/><rect class="cls-26" x="399.22" y="158.31" width="9.42" height="7.28"/><path class="cls-3" d="M387.55,145.57c0-.64-1.06-1.16-2.37-1.16s-2.36.52-2.36,1.15v3.78h4.72v-3.77Z"/><path class="cls-3" d="M398.88,145.57c0-.64-1.06-1.15-2.37-1.15s-2.36.51-2.36,1.15v3.77h4.72v-3.77Z"/><path class="cls-3" d="M409.93,145.58c0-.64-1.05-1.16-2.36-1.16s-2.36.52-2.36,1.16v3.77h4.71v-3.77Z"/><rect class="cls-4" x="437.36" y="125.68" width="9.88" height="4.8"/><rect class="cls-4" x="410.43" y="118.72" width="28.4" height="17.53"/><rect class="cls-29" x="412.44" y="127.62" width="2.41" height="5.29"/><rect class="cls-29" x="416.28" y="127.62" width="2.42" height="5.29"/><rect class="cls-29" x="430.12" y="127.63" width="2.41" height="5.29"/><rect class="cls-29" x="433.96" y="127.63" width="2.42" height="5.29"/><path class="cls-13" d="M440,124.66V116.2H409.3v8.56h0l0,.11c0,.42.58.76,1.3.76a1.74,1.74,0,0,0,1-.28,5.62,5.62,0,0,1,3,.28,2,2,0,0,1,2,0,1.74,1.74,0,0,0,1-.28,5.62,5.62,0,0,1,3,.28,1.93,1.93,0,0,1,2,0,1.65,1.65,0,0,0,1-.29,1.7,1.7,0,0,0,1,.29,2,2,0,0,1,2,0,1.94,1.94,0,0,1,2,0,1.72,1.72,0,0,0,1-.28,2,2,0,0,0,2,0,1.74,1.74,0,0,0,1,.28,2,2,0,0,1,2,0,1.8,1.8,0,0,0,1-.28,1.72,1.72,0,0,0,1,.28,1.94,1.94,0,0,1,2,0c.72,0,1.3-.33,1.3-.75A.54.54,0,0,0,440,124.66Z"/><rect class="cls-26" x="420.67" y="127.63" width="7.61" height="8.52"/><path class="cls-3" d="M417.83,120c0-.51-.85-.93-1.91-.93s-1.91.42-1.91.93v3h3.81v-3Z"/><path class="cls-3" d="M427,120c0-.52-.85-.93-1.91-.93s-1.91.41-1.91.93v3H427v-3Z"/><path class="cls-3" d="M435.91,120c0-.51-.85-.93-1.91-.93s-1.91.42-1.91.93v3h3.81v-3Z"/><rect class="cls-26" x="431.17" y="114.64" width="2.06" height="2.36"/><rect class="cls-4" x="445.22" y="130.13" width="1.98" height="6.11"/><polygon class="cls-40" points="398.85 136.24 378.48 136.23 378.49 121.1 388.73 112.85 398.86 121.11 398.85 136.24"/><polygon class="cls-7" points="401.29 123.73 388.35 114.59 376.06 123.26 373.6 121.51 388.35 111.11 403.75 121.99 401.29 123.73"/><rect class="cls-11" x="391.89" y="123.61" width="3.2" height="2.26"/><rect class="cls-11" x="382.13" y="123.6" width="3.2" height="2.26"/><rect class="cls-33" x="385.91" y="128.8" width="5.52" height="7.38"/><path class="cls-41" d="M390.42,119.2c0,.62-.78,1.13-1.74,1.12s-1.75-.5-1.75-1.12.78-1.13,1.75-1.13S390.42,118.57,390.42,119.2Z"/><rect class="cls-22" x="348.63" y="155.37" width="19.88" height="10.34"/><rect class="cls-11" x="351.96" y="156.6" width="4.99" height="3.76"/><rect class="cls-33" x="360.27" y="157.86" width="4.99" height="7.85"/><polygon class="cls-7" points="368.55 155.37 348.6 155.36 348.6 155.34 345.27 155.34 350.27 149.08 358.58 149.09 358.58 146.58 363.57 146.59 363.57 149.09 366.89 149.09 371.87 155.36 368.55 155.35 368.55 155.37"/><rect class="cls-4" x="347.68" y="118.69" width="20.29" height="17.53"/><path class="cls-13" d="M369,116.16H346.55v8.57h0v.11c0,.41.57.75,1.29.75a1.78,1.78,0,0,0,1-.28,5.5,5.5,0,0,1,3,.29,1.94,1.94,0,0,1,2,0,1.78,1.78,0,0,0,1-.28,1.74,1.74,0,0,0,1,.28,2,2,0,0,1,2,0,1.74,1.74,0,0,0,1-.28,2,2,0,0,0,2,0,1.74,1.74,0,0,0,1,.28,2,2,0,0,1,2,0,1.94,1.94,0,0,1,2,0,1.78,1.78,0,0,0,1-.28,1.74,1.74,0,0,0,1,.29,1.7,1.7,0,0,0,1-.29Z"/><rect class="cls-29" x="349.69" y="127.59" width="2.41" height="5.29"/><rect class="cls-29" x="353.53" y="127.59" width="2.42" height="5.29"/><rect class="cls-26" x="357.92" y="127.59" width="7.61" height="8.52"/><path class="cls-3" d="M355.08,119.94c0-.51-.85-.93-1.91-.93s-1.91.41-1.91.93v3h3.8v-3Z"/><path class="cls-3" d="M364.23,120c0-.52-.85-.94-1.91-.94s-1.91.42-1.91.93v3h3.8v-3Z"/><rect class="cls-26" x="349.24" y="114.59" width="2.06" height="2.36"/><rect class="cls-22" x="425.21" y="155.41" width="19.88" height="10.34"/><rect class="cls-11" x="428.54" y="156.64" width="4.99" height="3.76"/><rect class="cls-33" x="436.85" y="157.9" width="4.99" height="7.85"/><polygon class="cls-7" points="445.13 155.41 425.18 155.4 425.18 155.39 421.85 155.38 426.84 149.13 435.15 149.13 435.15 146.63 440.14 146.63 440.14 149.13 443.47 149.13 448.45 155.4 445.13 155.4 445.13 155.41"/><path class="cls-9" d="M57.67,85H55.13v3.83a3.91,3.91,0,0,0,2.55,0Z"/><path class="cls-20" d="M56.41,66.06C51.71,71.68,49.07,78,49,85.19a30.25,30.25,0,0,0,14.74,0C63.31,78.82,60.49,72.44,56.41,66.06Z"/><text class="cls-31" transform="translate(543.27 344.3) rotate(0.03) scale(1.33 1)">SAMPLE TEXT </text><text class="cls-42" transform="translate(543.26 350.48) rotate(0.03) scale(1.33 1)">Lorem ipsum dolor<tspan x="0" y="5.19">sit amet, consectetur</tspan><tspan x="0" y="10.37">adipiscing elit.</tspan></text><rect class="cls-22" x="56.49" y="39.61" width="9.88" height="4.8"/><rect class="cls-22" x="29.56" y="32.66" width="28.4" height="17.53"/><rect class="cls-11" x="31.57" y="41.56" width="2.41" height="5.29"/><rect class="cls-11" x="35.41" y="41.56" width="2.42" height="5.29"/><rect class="cls-11" x="49.24" y="41.57" width="2.42" height="5.29"/><rect class="cls-11" x="53.09" y="41.57" width="2.42" height="5.29"/><path class="cls-7" d="M59.14,38.59V30.14l-30.72,0v8.57h0l0,.1c0,.42.58.76,1.3.76a1.77,1.77,0,0,0,1-.28,2,2,0,0,0,2,0,1.74,1.74,0,0,0,1,.28,1.78,1.78,0,0,0,1-.28,1.7,1.7,0,0,0,1,.29,1.67,1.67,0,0,0,1-.29,1.7,1.7,0,0,0,1,.29,1.78,1.78,0,0,0,1-.28,1.74,1.74,0,0,0,1,.28,1.78,1.78,0,0,0,1-.28,1.78,1.78,0,0,0,1,.28,1.74,1.74,0,0,0,1-.28,2,2,0,0,0,2,0,1.74,1.74,0,0,0,1,.28,1.78,1.78,0,0,0,1-.28,1.78,1.78,0,0,0,1,.28,1.74,1.74,0,0,0,1-.28,2,2,0,0,0,2,0,1.74,1.74,0,0,0,1,.28,1.78,1.78,0,0,0,1-.28,1.7,1.7,0,0,0,1,.29,1.67,1.67,0,0,0,1-.29,1.7,1.7,0,0,0,1,.29,1.78,1.78,0,0,0,1-.28,1.74,1.74,0,0,0,1,.28c.72,0,1.3-.34,1.3-.76A.43.43,0,0,0,59.14,38.59Z"/><rect class="cls-33" x="39.8" y="41.56" width="7.61" height="8.52"/><path class="cls-40" d="M37,33.91c0-.52-.86-.94-1.91-.94s-1.91.42-1.91.94v3H37v-3Z"/><path class="cls-40" d="M46.11,33.91c0-.51-.86-.93-1.91-.93s-1.91.42-1.91.93V37H46.1V33.91Z"/><path class="cls-40" d="M55,33.92c0-.52-.86-.94-1.91-.94s-1.91.42-1.91.94v3H55v-3Z"/><rect class="cls-33" x="50.3" y="28.57" width="2.06" height="2.36"/><rect class="cls-22" x="64.34" y="44.07" width="1.98" height="6.11"/><text class="cls-31" transform="translate(23.38 99.35) rotate(0.03) scale(1.33 1)">SAMPLE TEXT </text><text class="cls-42" transform="translate(28.86 105.53) rotate(0.03) scale(1.33 1)">Lorem ipsum dolor<tspan x="-3.2" y="5.19">sit amet, consectetur</tspan><tspan x="7.74" y="10.37">adipiscing elit.</tspan></text><path class="cls-9" d="M320,93.66h-2.58v6.89a2.37,2.37,0,0,0,2.58,0Z"/><path class="cls-20" d="M318.67,78.36c-4.07,0-7.37,4-7.38,9s3.3,9,7.37,9,7.37-4,7.38-9S322.74,78.37,318.67,78.36Z"/><text class="cls-31" transform="translate(215.95 289.55) rotate(0.03) scale(1.33 1)">SAMPLE TEXT </text><text class="cls-42" transform="translate(221.43 295.74) rotate(0.03) scale(1.33 1)">Lorem ipsum dolor<tspan x="-3.2" y="5.19">sit amet, consectetur</tspan><tspan x="7.74" y="10.37">adipiscing elit.</tspan></text><rect class="cls-4" x="471.05" y="401.25" width="4.6" height="17.32"/><rect class="cls-6" x="444.48" y="418.56" width="31.17" height="3.46"/><rect class="cls-44" x="464.41" y="404.11" width="4.6" height="14.46"/><rect class="cls-33" x="457.77" y="407.3" width="4.6" height="11.27"/><rect class="cls-22" x="451.12" y="403.43" width="4.6" height="15.13"/><rect class="cls-23" x="444.48" y="410.99" width="4.6" height="7.57"/><path class="cls-27" d="M445.34,224.41h-7c-3,0-6,2.75-8.69,4.08a11.71,11.71,0,0,1-4,1.14,4.15,4.15,0,0,0-2.76,1.57,5.78,5.78,0,0,0-.57,2.54c0,.74.65,1,1.29,1h29.67a1.08,1.08,0,0,0,1-1.05,8,8,0,0,0-9-9.32Z"/><path class="cls-20" d="M422.36,233.73c0-.09,0-.19,0-.3l32-.32c0,.23-.05.45-.07.62a1.08,1.08,0,0,1-1,1.05H423.65C423,234.77,422.36,234.46,422.36,233.73Z"/><path class="cls-20" d="M451.82,234.78c0-2.3-1.91-3.21-4.27-3.22s-4.28.91-4.28,3.22Z"/><path class="cls-14" d="M444.22,234.82c0,1.4,1.5,2.52,3.35,2.53s3.35-1.13,3.35-2.52-1.5-2.53-3.35-2.53S444.23,233.43,444.22,234.82Z"/><path class="cls-15" d="M445.32,234.82a2,2,0,0,0,2.25,1.7c1.24,0,2.25-.76,2.25-1.69s-1-1.7-2.25-1.7S445.32,233.89,445.32,234.82Z"/><path class="cls-20" d="M433.82,234.77c0-2.3-1.91-3.21-4.27-3.22s-4.27.91-4.27,3.22Z"/><ellipse class="cls-45" cx="429.58" cy="234.81" rx="3.35" ry="2.52"/><path class="cls-15" d="M427.33,234.81c0,.94,1,1.7,2.25,1.7s2.25-.76,2.25-1.69a2,2,0,0,0-2.25-1.7C428.34,233.12,427.33,233.88,427.33,234.81Z"/><path class="cls-16" d="M438,225a10.27,10.27,0,0,0-6.5,4H438Z"/><rect class="cls-46" x="438.72" y="225.02" width="6.88" height="3.99"/><path class="cls-16" d="M446.37,225v4h5.21C453.56,229,450.2,225.14,446.37,225Z"/><path class="cls-20" d="M437.41,229.72c0,.11.12.2.27.2h.9c.15,0,.27-.09.27-.2v-.14c0-.11-.12-.2-.27-.2h-.9c-.15,0-.27.09-.27.2Z"/><path class="cls-20" d="M444.59,229.72a.24.24,0,0,0,.27.21h.9c.15,0,.27-.09.27-.2v-.14a.25.25,0,0,0-.26-.21h-.91c-.15,0-.27.09-.27.2Z"/><path class="cls-20" d="M430.65,229.15a.35.35,0,0,0,.4.22l1.18-.12c.19,0,.32-.16.29-.3l0-.18a.35.35,0,0,0-.4-.23l-1.18.13c-.19,0-.32.15-.29.3Z"/><path class="cls-16" d="M423.83,230.34a1.14,1.14,0,0,1,.73,1,1.3,1.3,0,0,1-1.41,1.15,1.61,1.61,0,0,1-.63-.13,3.47,3.47,0,0,1,.41-1.17A3.38,3.38,0,0,1,423.83,230.34Z"/><path class="cls-16" d="M282.46,353.32c5.56,0,10.18,2.19,11.11,5.08a17.41,17.41,0,0,1,1.93-.11c5.2,0,9.42,2.31,9.42,5.14,0,2.44-3.12,4.48-7.3,5-.39,4.05-6.53,7.26-14.05,7.25-6.92,0-12.68-2.74-13.84-6.33-5.18-.39-9.17-2.81-9.16-5.74,0-3.2,4.76-5.79,10.63-5.79h.36C272.88,355.22,277.26,353.32,282.46,353.32Z"/><path class="cls-9" d="M42.1,216.08H39.55v3.83a3.94,3.94,0,0,0,2.54,0Z"/><path class="cls-21" d="M40.84,197.13c-4.7,5.63-7.34,11.94-7.38,19.13a30.21,30.21,0,0,0,14.73,0C47.73,209.89,44.92,203.51,40.84,197.13Z"/><path class="cls-9" d="M562.73,289.5h-2.66v7.1a2.42,2.42,0,0,0,2.66,0Z"/><path class="cls-20" d="M561.41,277.28c-5.22,0-9.46,3.33-9.46,7.45s4.23,7.47,9.45,7.47,9.45-3.33,9.45-7.45S566.62,277.28,561.41,277.28Z"/><path class="cls-9" d="M553.69,315.63h-2.54v3.83a3.91,3.91,0,0,0,2.55,0Z"/><path class="cls-21" d="M552.43,296.68c-4.7,5.63-7.34,11.95-7.38,19.13a30.13,30.13,0,0,0,14.74,0C559.33,309.44,556.51,303.06,552.43,296.68Z"/><path class="cls-26" d="M549.26,252.12c.58,0,1,.35,1,.79s-.47.78-1,.78a.94.94,0,0,1-1-.79C548.22,252.47,548.69,252.12,549.26,252.12Z"/><polygon class="cls-26" points="547.57 255.07 547.87 255.07 547.87 256.99 547.86 256.99 547.86 259.88 549.08 259.88 549.08 256.8 549.44 256.8 549.44 259.88 550.66 259.88 550.66 256.8 550.67 256.8 550.67 255.08 550.96 255.08 550.96 256.8 551.77 256.8 551.77 253.99 546.7 253.99 546.7 256.79 547.57 256.79 547.57 255.07"/><path class="cls-26" d="M549.23,261.09c.58,0,1,.35,1,.78s-.46.79-1,.79a.94.94,0,0,1-1-.79C548.19,261.44,548.65,261.09,549.23,261.09Z"/><polygon class="cls-26" points="551.33 265.76 552.14 265.76 551.12 262.96 547.41 262.96 546.32 265.76 547.13 265.76 547.76 264.04 548.02 264.04 546.91 267.16 547.84 267.16 547.84 268.85 549.05 268.85 549.05 267.16 549.4 267.16 549.4 268.85 550.63 268.85 550.63 267.16 551.54 267.16 550.4 264.07 550.69 264.07 551.33 265.76"/><path class="cls-26" d="M557.7,252.12c.58,0,1,.36,1,.79s-.47.78-1,.78-1-.35-1-.78A.94.94,0,0,1,557.7,252.12Z"/><polygon class="cls-26" points="556.01 255.08 556.31 255.08 556.3 257 556.3 257 556.3 259.89 557.52 259.89 557.52 256.8 557.88 256.8 557.88 259.89 559.1 259.89 559.1 256.8 559.11 256.8 559.11 255.08 559.4 255.08 559.4 256.8 560.21 256.8 560.21 254 555.14 254 555.14 256.8 556.01 256.8 556.01 255.08"/><path class="cls-26" d="M557.67,261.09c.58,0,1,.35,1,.79s-.46.78-1,.78-1-.35-1-.78S557.09,261.09,557.67,261.09Z"/><polygon class="cls-26" points="559.77 265.77 560.58 265.77 559.56 262.97 555.85 262.96 554.76 265.76 555.57 265.77 556.2 264.05 556.46 264.05 555.35 267.17 556.28 267.17 556.28 268.85 557.49 268.85 557.49 267.17 557.85 267.17 557.85 268.85 559.07 268.86 559.07 267.17 559.98 267.17 558.85 264.07 559.13 264.07 559.77 265.77"/><path class="cls-26" d="M566.14,252.13c.58,0,1.05.35,1.05.78s-.47.79-1.05.79a.94.94,0,0,1-1-.79C565.1,252.48,565.57,252.13,566.14,252.13Z"/><polygon class="cls-26" points="564.45 255.09 564.75 255.09 564.75 257 564.75 257 564.74 259.89 565.96 259.89 565.96 256.8 566.32 256.8 566.32 259.89 567.54 259.89 567.54 256.81 567.55 256.81 567.55 255.09 567.84 255.09 567.84 256.81 568.65 256.81 568.65 254 563.58 254 563.58 256.8 564.45 256.8 564.45 255.09"/><path class="cls-4" d="M566.11,261.1c.58,0,1,.35,1,.78s-.46.79-1,.79a1,1,0,0,1-1-.79C565.07,261.45,565.54,261.1,566.11,261.1Z"/><polygon class="cls-4" points="568.21 265.77 569.02 265.77 568 262.97 564.29 262.97 563.2 265.77 564.01 265.77 564.64 264.05 564.9 264.05 563.79 267.17 564.72 267.17 564.72 268.86 565.93 268.86 565.93 267.17 566.29 267.17 566.28 268.86 567.51 268.86 567.51 267.17 568.42 267.17 567.29 264.08 567.57 264.08 568.21 265.77"/><path class="cls-4" d="M574.59,252.13a1,1,0,0,1,1,.79c0,.43-.47.78-1,.78s-1.05-.35-1.05-.78S574,252.13,574.59,252.13Z"/><polygon class="cls-4" points="572.89 255.09 573.19 255.09 573.19 257 573.18 257 573.18 259.9 574.4 259.9 574.41 256.81 574.76 256.81 574.76 259.9 575.98 259.9 575.98 256.81 575.99 256.81 575.99 255.09 576.28 255.09 576.28 256.81 577.09 256.81 577.1 254.01 572.02 254.01 572.02 256.81 572.89 256.81 572.89 255.09"/><path class="cls-4" d="M574.55,261.1c.58,0,1,.35,1,.79s-.46.78-1,.78a.94.94,0,0,1-1-.79C573.51,261.45,574,261.1,574.55,261.1Z"/><polygon class="cls-4" points="576.65 265.78 577.46 265.78 576.44 262.98 572.73 262.97 571.64 265.77 572.45 265.77 573.08 264.06 573.34 264.06 572.23 267.18 573.16 267.18 573.16 268.86 574.37 268.86 574.37 267.18 574.73 267.18 574.73 268.86 575.95 268.86 575.95 267.18 576.86 267.18 575.73 264.08 576.01 264.08 576.65 265.78"/><path class="cls-4" d="M583,252.14c.57,0,1,.35,1,.78a.94.94,0,0,1-1,.79c-.58,0-1-.35-1-.79S582.45,252.14,583,252.14Z"/><polygon class="cls-4" points="581.33 255.09 581.63 255.09 581.63 257.01 581.63 257.01 581.62 259.9 582.84 259.9 582.85 256.81 583.2 256.81 583.2 259.9 584.42 259.9 584.42 256.81 584.43 256.81 584.43 255.1 584.73 255.1 584.72 256.81 585.53 256.81 585.53 254.01 580.46 254.01 580.46 256.81 581.33 256.81 581.33 255.09"/><path class="cls-4" d="M583,261.11c.58,0,1,.35,1,.78a1.08,1.08,0,1,1-1-.78Z"/><polygon class="cls-4" points="585.09 265.78 585.9 265.78 584.88 262.98 581.17 262.98 580.08 265.78 580.89 265.78 581.52 264.06 581.78 264.06 580.67 267.18 581.6 267.18 581.6 268.87 582.81 268.87 582.81 267.18 583.17 267.18 583.16 268.87 584.39 268.87 584.39 267.18 585.3 267.18 584.17 264.09 584.45 264.09 585.09 265.78"/><path class="cls-4" d="M591.47,252.14a.94.94,0,0,1,1,.79c0,.43-.47.78-1,.78s-1.05-.35-1.05-.78S590.89,252.14,591.47,252.14Z"/><polygon class="cls-4" points="589.77 255.1 590.07 255.1 590.07 257.01 590.07 257.01 590.07 259.9 591.28 259.91 591.29 256.82 591.64 256.82 591.64 259.91 592.86 259.91 592.86 256.82 592.87 256.82 592.87 255.1 593.16 255.1 593.16 256.82 593.97 256.82 593.98 254.02 588.9 254.01 588.9 256.82 589.77 256.82 589.77 255.1"/><path class="cls-4" d="M591.43,261.11c.58,0,1,.35,1,.79s-.46.78-1,.78a.94.94,0,0,1-1-.79C590.39,261.46,590.86,261.11,591.43,261.11Z"/><polygon class="cls-4" points="593.53 265.79 594.34 265.79 593.32 262.99 589.61 262.98 588.52 265.78 589.33 265.78 589.96 264.07 590.22 264.07 589.11 267.19 590.04 267.19 590.04 268.87 591.25 268.87 591.25 267.19 591.61 267.19 591.61 268.87 592.83 268.87 592.83 267.19 593.74 267.19 592.61 264.09 592.89 264.09 593.53 265.79"/><path class="cls-47" d="M227.28,243.62a.32.32,0,0,1-.13.51.6.6,0,0,1-.67-.09l-2.17-2.35a.32.32,0,0,1,.12-.51.58.58,0,0,1,.68.09Z"/><path class="cls-47" d="M227.57,243.8c0,.2-.18.38-.45.39a.47.47,0,0,1-.52-.34l-.24-2.86c0-.2.19-.37.45-.38a.45.45,0,0,1,.52.34Z"/><path class="cls-47" d="M227.35,244.07a.6.6,0,0,1-.69,0,.31.31,0,0,1,0-.52l2.66-2a.6.6,0,0,1,.69,0,.3.3,0,0,1,0,.51Z"/><path class="cls-47" d="M235.66,243.63a.3.3,0,0,1-.12.5.57.57,0,0,1-.67-.09l-2.17-2.35a.32.32,0,0,1,.12-.51.62.62,0,0,1,.68.09Z"/><path class="cls-47" d="M236,243.81c0,.2-.19.37-.45.38a.46.46,0,0,1-.52-.34l-.24-2.85c0-.2.19-.38.45-.39a.47.47,0,0,1,.52.34Z"/><path class="cls-47" d="M235.74,244.08a.6.6,0,0,1-.69,0,.3.3,0,0,1,0-.51l2.66-2a.62.62,0,0,1,.69,0,.31.31,0,0,1,0,.52Z"/><path class="cls-47" d="M244.05,243.63a.32.32,0,0,1-.12.51.6.6,0,0,1-.67-.09l-2.17-2.35a.31.31,0,0,1,.12-.51.59.59,0,0,1,.68.09Z"/><path class="cls-47" d="M244.35,243.81a.43.43,0,0,1-.45.39.47.47,0,0,1-.52-.34l-.24-2.86c0-.2.19-.37.45-.39a.46.46,0,0,1,.52.35Z"/><path class="cls-47" d="M244.12,244.08a.59.59,0,0,1-.68,0,.31.31,0,0,1,0-.52l2.66-2a.6.6,0,0,1,.69,0,.31.31,0,0,1,0,.52Z"/><path class="cls-21" d="M252.44,243.64a.31.31,0,0,1-.12.5.59.59,0,0,1-.68-.09l-2.16-2.35a.31.31,0,0,1,.12-.51.6.6,0,0,1,.67.09Z"/><path class="cls-21" d="M252.74,243.82c0,.2-.19.37-.46.38a.45.45,0,0,1-.51-.34l-.24-2.85c0-.21.18-.38.45-.39s.5.14.51.34Z"/><path class="cls-21" d="M252.51,244.09a.59.59,0,0,1-.68,0,.3.3,0,0,1,0-.51l2.66-2.05a.6.6,0,0,1,.68,0,.31.31,0,0,1,0,.52Z"/><path class="cls-21" d="M260.83,243.64a.32.32,0,0,1-.12.51.62.62,0,0,1-.68-.09l-2.16-2.36a.3.3,0,0,1,.12-.5.57.57,0,0,1,.67.09Z"/><path class="cls-21" d="M261.13,243.82c0,.2-.19.37-.46.39s-.5-.14-.51-.34l-.24-2.86c0-.2.18-.37.45-.39s.5.14.51.34Z"/><path class="cls-21" d="M260.9,244.09a.6.6,0,0,1-.69,0,.31.31,0,0,1,0-.52l2.66-2a.59.59,0,0,1,.68,0,.31.31,0,0,1,0,.52Z"/><path class="cls-47" d="M227.27,249.88a.31.31,0,0,1-.12.51.57.57,0,0,1-.67-.09L224.31,248a.32.32,0,0,1,.12-.51.62.62,0,0,1,.68.09Z"/><path class="cls-47" d="M227.57,250.07c0,.2-.19.37-.45.38a.47.47,0,0,1-.52-.34l-.24-2.85c0-.21.18-.38.45-.39a.47.47,0,0,1,.52.34Z"/><path class="cls-47" d="M227.34,250.34a.6.6,0,0,1-.68,0,.3.3,0,0,1,0-.51l2.66-2.05a.62.62,0,0,1,.69,0,.3.3,0,0,1,0,.51Z"/><path class="cls-47" d="M235.66,249.89a.32.32,0,0,1-.12.51.6.6,0,0,1-.68-.1L232.7,248a.3.3,0,0,1,.12-.5.57.57,0,0,1,.67.09Z"/><path class="cls-47" d="M236,250.07c0,.2-.19.37-.46.39a.46.46,0,0,1-.51-.34l-.24-2.86c0-.2.18-.37.45-.39s.5.14.51.34Z"/><path class="cls-47" d="M235.73,250.34a.59.59,0,0,1-.68,0,.31.31,0,0,1,0-.52l2.66-2a.59.59,0,0,1,.68,0,.31.31,0,0,1,0,.52Z"/><path class="cls-21" d="M244.05,249.89a.31.31,0,0,1-.12.51.6.6,0,0,1-.68-.09L241.09,248a.31.31,0,0,1,.12-.51.6.6,0,0,1,.67.09Z"/><path class="cls-21" d="M244.34,250.07c0,.2-.18.38-.45.39s-.5-.14-.51-.34l-.25-2.85c0-.21.19-.38.46-.39a.44.44,0,0,1,.51.34Z"/><path class="cls-21" d="M244.12,250.35a.62.62,0,0,1-.69,0,.3.3,0,0,1,0-.51l2.66-2.05a.6.6,0,0,1,.68,0,.3.3,0,0,1,0,.51Z"/><path class="cls-21" d="M252.44,249.9a.32.32,0,0,1-.12.51.6.6,0,0,1-.68-.1L249.47,248a.32.32,0,0,1,.13-.51.59.59,0,0,1,.67.1Z"/><path class="cls-21" d="M252.73,250.08c0,.2-.18.37-.45.39s-.5-.14-.51-.34l-.25-2.86c0-.2.19-.37.46-.39a.46.46,0,0,1,.51.34Z"/><path class="cls-21" d="M252.51,250.35a.6.6,0,0,1-.69,0,.31.31,0,0,1,0-.52l2.65-2a.6.6,0,0,1,.69,0,.31.31,0,0,1,0,.52Z"/><path class="cls-21" d="M260.83,249.9a.32.32,0,0,1-.13.51.58.58,0,0,1-.67-.09L257.86,248a.32.32,0,0,1,.12-.51.6.6,0,0,1,.68.09Z"/><path class="cls-21" d="M261.12,250.08c0,.2-.18.38-.45.39a.47.47,0,0,1-.52-.34l-.24-2.86c0-.2.19-.37.45-.38a.46.46,0,0,1,.52.34Z"/><path class="cls-21" d="M260.9,250.36a.62.62,0,0,1-.69,0,.3.3,0,0,1,0-.51l2.66-2a.62.62,0,0,1,.69,0,.3.3,0,0,1,0,.51Z"/><path class="cls-47" d="M227.27,256.15a.31.31,0,0,1-.12.5.58.58,0,0,1-.68-.09l-2.16-2.35a.31.31,0,0,1,.12-.51.59.59,0,0,1,.67.1Z"/><path class="cls-47" d="M227.56,256.33c0,.2-.18.37-.45.39s-.5-.14-.51-.35l-.25-2.85a.43.43,0,0,1,.46-.39c.27,0,.5.14.51.34Z"/><path class="cls-47" d="M227.34,256.6a.6.6,0,0,1-.69,0,.31.31,0,0,1,0-.52l2.66-2a.59.59,0,0,1,.68,0,.31.31,0,0,1,0,.52Z"/><path class="cls-47" d="M235.66,256.15a.31.31,0,0,1-.13.51.6.6,0,0,1-.67-.09l-2.17-2.35a.32.32,0,0,1,.13-.51.57.57,0,0,1,.67.09Z"/><path class="cls-47" d="M236,256.33c0,.2-.18.38-.45.39s-.5-.14-.51-.34l-.25-2.86c0-.2.19-.37.46-.38a.45.45,0,0,1,.51.34Z"/><path class="cls-47" d="M235.73,256.6a.6.6,0,0,1-.69,0,.31.31,0,0,1,0-.52l2.65-2a.62.62,0,0,1,.69,0,.3.3,0,0,1,0,.51Z"/><path class="cls-47" d="M244.05,256.16a.31.31,0,0,1-.13.5.57.57,0,0,1-.67-.09l-2.17-2.35a.32.32,0,0,1,.12-.51.6.6,0,0,1,.68.1Z"/><path class="cls-47" d="M244.34,256.34c0,.2-.18.37-.45.38a.45.45,0,0,1-.52-.34l-.24-2.85c0-.2.19-.38.45-.39a.47.47,0,0,1,.52.34Z"/><path class="cls-47" d="M244.12,256.61a.62.62,0,0,1-.69,0,.31.31,0,0,1,0-.52l2.66-2a.6.6,0,0,1,.69,0,.31.31,0,0,1,0,.52Z"/><path class="cls-47" d="M252.43,256.16a.31.31,0,0,1-.12.51.6.6,0,0,1-.67-.09l-2.17-2.35a.31.31,0,0,1,.12-.51.58.58,0,0,1,.68.09Z"/><path class="cls-47" d="M252.73,256.34c0,.2-.19.38-.45.39a.47.47,0,0,1-.52-.34l-.24-2.86c0-.2.19-.37.45-.38a.46.46,0,0,1,.52.34Z"/><path class="cls-47" d="M252.51,256.61a.6.6,0,0,1-.69,0,.31.31,0,0,1,0-.52l2.66-2a.6.6,0,0,1,.69,0,.3.3,0,0,1,0,.51Z"/><path class="cls-21" d="M260.82,256.17a.31.31,0,0,1-.12.5.57.57,0,0,1-.67-.09l-2.17-2.35a.32.32,0,0,1,.12-.51.62.62,0,0,1,.68.09Z"/><path class="cls-21" d="M261.12,256.35c0,.2-.19.37-.45.38a.46.46,0,0,1-.52-.34l-.24-2.85c0-.2.19-.38.45-.39s.5.14.51.34Z"/><path class="cls-21" d="M260.89,256.62a.59.59,0,0,1-.68,0,.3.3,0,0,1,0-.51l2.66-2.05a.62.62,0,0,1,.69,0,.31.31,0,0,1,0,.52Z"/><path class="cls-47" d="M227.27,262.41a.32.32,0,0,1-.13.51.6.6,0,0,1-.67-.09l-2.17-2.36a.31.31,0,0,1,.12-.5.58.58,0,0,1,.68.09Z"/><path class="cls-47" d="M227.56,262.59c0,.2-.18.38-.45.39a.47.47,0,0,1-.52-.34l-.24-2.86c0-.2.19-.37.45-.38a.45.45,0,0,1,.52.34Z"/><path class="cls-47" d="M227.34,262.86a.6.6,0,0,1-.69,0,.31.31,0,0,1,0-.52l2.66-2a.62.62,0,0,1,.69,0,.31.31,0,0,1,0,.52Z"/><path class="cls-21" d="M235.65,262.42a.3.3,0,0,1-.12.5.57.57,0,0,1-.67-.09l-2.17-2.35a.32.32,0,0,1,.12-.51.62.62,0,0,1,.68.09Z"/><path class="cls-21" d="M236,262.6c0,.2-.19.37-.45.38a.46.46,0,0,1-.52-.34l-.24-2.85c0-.2.19-.38.45-.39a.47.47,0,0,1,.52.34Z"/><path class="cls-21" d="M235.72,262.87a.59.59,0,0,1-.68,0,.3.3,0,0,1,0-.51l2.66-2.05a.62.62,0,0,1,.69,0,.31.31,0,0,1,0,.52Z"/><path class="cls-21" d="M244,262.42a.32.32,0,0,1-.12.51.6.6,0,0,1-.67-.09l-2.17-2.36a.31.31,0,0,1,.12-.5.59.59,0,0,1,.68.09Z"/><path class="cls-21" d="M244.34,262.6a.43.43,0,0,1-.45.39.47.47,0,0,1-.52-.34l-.24-2.86c0-.2.18-.37.45-.39a.47.47,0,0,1,.52.34Z"/><path class="cls-21" d="M244.11,262.87a.59.59,0,0,1-.68,0,.31.31,0,0,1,0-.52l2.66-2a.6.6,0,0,1,.69,0,.31.31,0,0,1,0,.52Z"/><path class="cls-21" d="M252.43,262.42a.31.31,0,0,1-.12.51.59.59,0,0,1-.68-.09l-2.16-2.35a.31.31,0,0,1,.12-.51.6.6,0,0,1,.67.09Z"/><path class="cls-21" d="M252.73,262.61c0,.2-.19.37-.46.38a.45.45,0,0,1-.51-.34l-.24-2.85c0-.21.18-.38.45-.39s.5.14.51.34Z"/><path class="cls-21" d="M252.5,262.88a.6.6,0,0,1-.68,0,.3.3,0,0,1,0-.51l2.66-2.05a.6.6,0,0,1,.68,0,.3.3,0,0,1,0,.51Z"/><path class="cls-21" d="M260.82,262.43a.32.32,0,0,1-.12.51.6.6,0,0,1-.68-.1l-2.16-2.35a.3.3,0,0,1,.12-.5.57.57,0,0,1,.67.09Z"/><path class="cls-21" d="M261.11,262.61c0,.2-.18.37-.45.39s-.5-.14-.51-.34l-.25-2.86c0-.2.19-.37.46-.39s.5.14.51.34Z"/><path class="cls-21" d="M260.89,262.88a.6.6,0,0,1-.69,0,.31.31,0,0,1,0-.52l2.66-2a.59.59,0,0,1,.68,0,.31.31,0,0,1,0,.52Z"/><path class="cls-47" d="M227.26,268.67a.31.31,0,0,1-.12.51.6.6,0,0,1-.68-.09l-2.16-2.35a.32.32,0,0,1,.12-.51.62.62,0,0,1,.68.09Z"/><path class="cls-47" d="M227.56,268.86a.43.43,0,0,1-.45.38.47.47,0,0,1-.52-.34l-.24-2.85c0-.21.18-.38.45-.39a.44.44,0,0,1,.51.34Z"/><path class="cls-47" d="M227.33,269.13a.6.6,0,0,1-.68,0,.3.3,0,0,1,0-.51l2.66-2.05a.6.6,0,0,1,.68,0,.3.3,0,0,1,0,.51Z"/><path class="cls-47" d="M235.65,268.68a.32.32,0,0,1-.12.51.6.6,0,0,1-.68-.1l-2.16-2.35a.31.31,0,0,1,.12-.51.59.59,0,0,1,.67.1Z"/><path class="cls-47" d="M236,268.86c0,.2-.19.37-.46.39a.46.46,0,0,1-.51-.34l-.24-2.86c0-.2.18-.37.45-.39s.5.14.51.34Z"/><path class="cls-47" d="M235.72,269.13a.59.59,0,0,1-.68,0,.3.3,0,0,1,0-.52l2.66-2a.59.59,0,0,1,.68,0,.31.31,0,0,1,0,.52Z"/><path class="cls-47" d="M244,268.68a.31.31,0,0,1-.12.51.6.6,0,0,1-.68-.09l-2.16-2.35a.31.31,0,0,1,.12-.51.58.58,0,0,1,.67.09Z"/><path class="cls-47" d="M244.33,268.86c0,.2-.18.38-.45.39s-.5-.14-.51-.34l-.25-2.86c0-.2.19-.37.46-.38a.45.45,0,0,1,.51.34Z"/><path class="cls-47" d="M244.11,269.14a.62.62,0,0,1-.69,0,.3.3,0,0,1,0-.51l2.66-2.05a.6.6,0,0,1,.68,0,.3.3,0,0,1,0,.51Z"/><path class="cls-21" d="M252.43,268.69a.32.32,0,0,1-.12.51.6.6,0,0,1-.68-.1l-2.17-2.35a.32.32,0,0,1,.13-.51.59.59,0,0,1,.67.1Z"/><path class="cls-21" d="M252.72,268.87c0,.2-.18.37-.45.39s-.5-.14-.51-.34l-.25-2.86a.43.43,0,0,1,.46-.39.46.46,0,0,1,.51.34Z"/><path class="cls-21" d="M252.5,269.14a.6.6,0,0,1-.69,0,.31.31,0,0,1,0-.52l2.65-2a.6.6,0,0,1,.69,0,.31.31,0,0,1,0,.52Z"/><path class="cls-21" d="M260.82,268.69a.32.32,0,0,1-.13.51.6.6,0,0,1-.67-.09l-2.17-2.35a.32.32,0,0,1,.12-.51.58.58,0,0,1,.68.09Z"/><path class="cls-21" d="M261.11,268.87c0,.2-.18.38-.45.39a.47.47,0,0,1-.52-.34l-.24-2.86c0-.2.19-.37.45-.38a.46.46,0,0,1,.52.34Z"/><path class="cls-21" d="M260.89,269.15a.62.62,0,0,1-.69,0,.3.3,0,0,1,0-.51l2.66-2.05a.62.62,0,0,1,.69,0,.3.3,0,0,1,0,.51Z"/><path class="cls-47" d="M227.26,274.94a.31.31,0,0,1-.12.5.58.58,0,0,1-.68-.09L224.3,273a.31.31,0,0,1,.12-.51.59.59,0,0,1,.67.1Z"/><path class="cls-47" d="M227.55,275.12c0,.2-.18.37-.45.39s-.5-.14-.51-.35l-.25-2.85a.43.43,0,0,1,.46-.39c.26,0,.5.14.51.34Z"/><path class="cls-47" d="M227.33,275.39a.62.62,0,0,1-.69,0,.31.31,0,0,1,0-.52l2.66-2a.59.59,0,0,1,.68,0,.31.31,0,0,1,0,.52Z"/><path class="cls-47" d="M235.65,274.94a.31.31,0,0,1-.13.51.6.6,0,0,1-.67-.09L232.68,273a.32.32,0,0,1,.13-.51.57.57,0,0,1,.67.09Z"/><path class="cls-47" d="M235.94,275.12c0,.2-.18.38-.45.39s-.5-.14-.51-.34l-.25-2.86c0-.2.19-.37.46-.38a.44.44,0,0,1,.51.34Z"/><path class="cls-47" d="M235.72,275.39a.6.6,0,0,1-.69,0,.31.31,0,0,1,0-.52l2.65-2a.62.62,0,0,1,.69,0,.3.3,0,0,1,0,.51Z"/><path class="cls-21" d="M244,275a.31.31,0,0,1-.13.5.57.57,0,0,1-.67-.09L241.07,273a.32.32,0,0,1,.12-.51.6.6,0,0,1,.68.1Z"/><path class="cls-21" d="M244.33,275.13c0,.2-.18.37-.45.38a.46.46,0,0,1-.52-.34l-.24-2.85c0-.2.19-.38.45-.39a.47.47,0,0,1,.52.34Z"/><path class="cls-21" d="M244.11,275.4a.6.6,0,0,1-.69,0,.3.3,0,0,1,0-.51l2.66-2.05a.62.62,0,0,1,.69,0,.31.31,0,0,1,0,.52Z"/><path class="cls-21" d="M252.42,275a.31.31,0,0,1-.12.51.6.6,0,0,1-.67-.09L249.46,273a.31.31,0,0,1,.12-.51.58.58,0,0,1,.68.09Z"/><path class="cls-21" d="M252.72,275.13c0,.2-.19.38-.45.39a.47.47,0,0,1-.52-.34l-.24-2.86c0-.2.19-.37.45-.39a.46.46,0,0,1,.52.35Z"/><path class="cls-21" d="M252.49,275.4a.59.59,0,0,1-.68,0,.31.31,0,0,1,0-.52l2.66-2a.62.62,0,0,1,.69,0,.31.31,0,0,1,0,.52Z"/><path class="cls-21" d="M260.81,275a.31.31,0,0,1-.12.5.59.59,0,0,1-.68-.09L257.85,273a.32.32,0,0,1,.12-.51.62.62,0,0,1,.68.09Z"/><path class="cls-21" d="M261.11,275.14c0,.2-.19.37-.45.38a.46.46,0,0,1-.52-.34l-.24-2.85c0-.2.18-.38.45-.39s.5.14.51.34Z"/><path class="cls-21" d="M260.88,275.41a.59.59,0,0,1-.68,0,.3.3,0,0,1,0-.51l2.66-2a.62.62,0,0,1,.69,0,.31.31,0,0,1,0,.52Z"/><path class="cls-33" d="M218.81,446.28v-.15a4.62,4.62,0,0,1-.79.56,3.87,3.87,0,0,1-.84.33l-.38.07V446a2.25,2.25,0,0,0,.95-.21,1.61,1.61,0,0,0,.69-.63,1.92,1.92,0,0,0,.26-1.06,1.84,1.84,0,0,0-.26-1,1.69,1.69,0,0,0-.69-.66,2.14,2.14,0,0,0-.94-.23V441.1a3,3,0,0,1,.85.19,3.91,3.91,0,0,1,1.15.68v-2.21a.9.9,0,0,1,.25-.69.93.93,0,0,1,.69-.24,1,1,0,0,1,.69.22.8.8,0,0,1,.25.64v6.59a.76.76,0,0,1-.26.64,1,1,0,0,1-.67.21,1,1,0,0,1-.68-.22A.8.8,0,0,1,218.81,446.28Zm-2,.81a4,4,0,0,1-.61,0,3.73,3.73,0,0,1-1.32-.23,3,3,0,0,1-1.05-.65,2.68,2.68,0,0,1-.67-1,3.13,3.13,0,0,1-.23-1.23,2.71,2.71,0,0,1,.91-2.18,3.53,3.53,0,0,1,2.39-.78,5.54,5.54,0,0,1,.59,0v1.07h0a2.07,2.07,0,0,0-1,.23,1.58,1.58,0,0,0-.66.67,2.07,2.07,0,0,0-.24,1h0a1.94,1.94,0,0,0,.25,1,1.64,1.64,0,0,0,.68.65,2.21,2.21,0,0,0,1,.21h0Z"/><path class="cls-33" d="M227.56,444.47h-2.08v-.84h1.79a1.58,1.58,0,0,0-.54-1.15,2,2,0,0,0-1.25-.38v-1h.06a4.81,4.81,0,0,1,2,.37,3,3,0,0,1,1.25.95,2.12,2.12,0,0,1,.41,1.2.7.7,0,0,1-.43.73,3.4,3.4,0,0,1-1.2.17Zm-2.09,1.67h.15a3.2,3.2,0,0,0,.65-.06,2.27,2.27,0,0,0,.57-.2,3.07,3.07,0,0,0,.51-.28l.61-.42a.83.83,0,0,1,.43-.1.92.92,0,0,1,.5.13.41.41,0,0,1,.19.36.85.85,0,0,1-.22.47,2.3,2.3,0,0,1-.63.52,4.52,4.52,0,0,1-1.07.41,6,6,0,0,1-1.48.16h-.21Zm0-1.68h-1.8a1.54,1.54,0,0,0,.27.9,1.67,1.67,0,0,0,.7.59,2.52,2.52,0,0,0,.82.19v1a4.6,4.6,0,0,1-2.76-.82,2.66,2.66,0,0,1-1.06-2.23,3,3,0,0,1,.26-1.23,2.76,2.76,0,0,1,.77-1,3.56,3.56,0,0,1,1.23-.62,5.9,5.9,0,0,1,1.57-.21v1h0a1.88,1.88,0,0,0-1.21.38,1.7,1.7,0,0,0-.58,1.14h1.8Z"/><path class="cls-33" d="M236.59,445.19a1.52,1.52,0,0,1-.4,1.06,2.47,2.47,0,0,1-1.18.66,6.9,6.9,0,0,1-1.9.23,5.82,5.82,0,0,1-1.83-.25,2.72,2.72,0,0,1-1.12-.61,1.07,1.07,0,0,1-.37-.75.52.52,0,0,1,.24-.42,1,1,0,0,1,.58-.17.9.9,0,0,1,.48.11,1.26,1.26,0,0,1,.32.33,2.05,2.05,0,0,0,.73.59,2.85,2.85,0,0,0,1.16.2,2.13,2.13,0,0,0,1-.2c.25-.13.38-.28.38-.46a.6.6,0,0,0-.39-.57,6.11,6.11,0,0,0-1.31-.35,12.53,12.53,0,0,1-1.67-.4,2.83,2.83,0,0,1-1-.56,1.08,1.08,0,0,1-.39-.84,1.24,1.24,0,0,1,.36-.85,2.44,2.44,0,0,1,1-.64,5.13,5.13,0,0,1,1.67-.24,6.51,6.51,0,0,1,1.39.13,3.5,3.5,0,0,1,1,.32,1.86,1.86,0,0,1,.63.45.73.73,0,0,1,.21.48.51.51,0,0,1-.23.42,1,1,0,0,1-.65.16,1,1,0,0,1-.52-.13,4.11,4.11,0,0,1-.49-.39,1.63,1.63,0,0,0-.53-.35A2.09,2.09,0,0,0,233,442a2,2,0,0,0-.89.17c-.24.11-.36.25-.36.43a.45.45,0,0,0,.26.38,2.43,2.43,0,0,0,.71.25c.3.07.7.15,1.22.24a8.42,8.42,0,0,1,1.51.41,2.39,2.39,0,0,1,.88.56A1,1,0,0,1,236.59,445.19Z"/><path class="cls-33" d="M238.62,440.37a1.28,1.28,0,0,1-.71-.19.62.62,0,0,1-.29-.54.63.63,0,0,1,.3-.53,1.27,1.27,0,0,1,.7-.2,1.23,1.23,0,0,1,.69.19.56.56,0,0,1,.29.54.6.6,0,0,1-.29.54,1.19,1.19,0,0,1-.69.19Zm1,1.55h0v4.31a.81.81,0,0,1-.28.68,1.23,1.23,0,0,1-1.43,0,.87.87,0,0,1-.27-.68V442a.82.82,0,0,1,.27-.67,1.08,1.08,0,0,1,.71-.22,1.12,1.12,0,0,1,.72.22A.75.75,0,0,1,239.6,441.92Z"/><path class="cls-33" d="M248.29,442.17v4.34a3.54,3.54,0,0,1-.21,1.28,2,2,0,0,1-.68.88,3,3,0,0,1-1.21.52,8.45,8.45,0,0,1-1.74.17v-1a3.09,3.09,0,0,0,1-.16,1.19,1.19,0,0,0,.6-.45,1.51,1.51,0,0,0,.2-.62c0-.22,0-.58,0-1.07a3.12,3.12,0,0,1-1.06.74,3.2,3.2,0,0,1-.81.21V445.9a2.41,2.41,0,0,0,.92-.2,1.8,1.8,0,0,0,.71-.6,1.66,1.66,0,0,0,.28-1,1.79,1.79,0,0,0-1.91-1.93v-1.07a4,4,0,0,1,.84.2,3.48,3.48,0,0,1,1.14.77v-.2a.77.77,0,0,1,.26-.61,1,1,0,0,1,.65-.21.87.87,0,0,1,.76.28A1.44,1.44,0,0,1,248.29,442.17Zm-3.84,7.19h-.14a6.85,6.85,0,0,1-1.83-.22,3.41,3.41,0,0,1-1.24-.56.93.93,0,0,1-.44-.7.55.55,0,0,1,.25-.44,1,1,0,0,1,.6-.18,1.13,1.13,0,0,1,.76.29l.33.3a1.7,1.7,0,0,0,.88.42,4.27,4.27,0,0,0,.67.05h.16v1Zm0-2.39a4,4,0,0,1-.61,0,3.66,3.66,0,0,1-1.74-.39,2.71,2.71,0,0,1-1.15-1.07,3.18,3.18,0,0,1-.4-1.59,2.83,2.83,0,0,1,.25-1.22,2.48,2.48,0,0,1,.69-.91,3,3,0,0,1,1-.56,4.63,4.63,0,0,1,1.92-.15v1.07h0a1.9,1.9,0,0,0-1.36.48,1.85,1.85,0,0,0-.52,1.39h0a1.74,1.74,0,0,0,.53,1.37,2,2,0,0,0,1.36.47h0Z"/><path class="cls-33" d="M251.45,441.9v.18a3.34,3.34,0,0,1,1.15-.76,3.73,3.73,0,0,1,1.43-.24,3.64,3.64,0,0,1,1.4.25,2,2,0,0,1,.92.73,1.48,1.48,0,0,1,.26.59,5.93,5.93,0,0,1,0,.81v2.78a.84.84,0,0,1-.27.68,1.08,1.08,0,0,1-.71.23,1.11,1.11,0,0,1-.72-.23.87.87,0,0,1-.27-.68v-2.49a2,2,0,0,0-.27-1.13,1.27,1.27,0,0,0-1.09-.39,2,2,0,0,0-1,.24,1.49,1.49,0,0,0-.64.65,3.8,3.8,0,0,0-.14,1.25v1.87a.84.84,0,0,1-.28.68,1.14,1.14,0,0,1-.73.23,1,1,0,0,1-.7-.24.81.81,0,0,1-.28-.67v-4.32a.82.82,0,0,1,.25-.64,1,1,0,0,1,.68-.21,1,1,0,0,1,.47.1.77.77,0,0,1,.34.28A.8.8,0,0,1,251.45,441.9Z"/><path class="cls-33" d="M263.51,444.49h-2.08v-.84h1.8a1.58,1.58,0,0,0-.55-1.15,2,2,0,0,0-1.25-.38v-1h.06a4.86,4.86,0,0,1,2,.37,2.93,2.93,0,0,1,1.24.95,2.06,2.06,0,0,1,.42,1.2.71.71,0,0,1-.43.73,3.5,3.5,0,0,1-1.21.17Zm-2.08,1.67h.15a3.34,3.34,0,0,0,.65-.06,2.59,2.59,0,0,0,.57-.2,4.16,4.16,0,0,0,.51-.28l.6-.42a.87.87,0,0,1,.44-.1.91.91,0,0,1,.49.13.39.39,0,0,1,.19.36.82.82,0,0,1-.21.47,2.36,2.36,0,0,1-.64.52,4.35,4.35,0,0,1-1.07.41,6,6,0,0,1-1.48.16h-.2Zm0-1.68h-1.8a1.7,1.7,0,0,0,.27.9,1.64,1.64,0,0,0,.71.59,2.4,2.4,0,0,0,.82.19v1a4.61,4.61,0,0,1-2.77-.82,2.69,2.69,0,0,1-1.06-2.23,2.84,2.84,0,0,1,.27-1.23,2.73,2.73,0,0,1,.76-1,3.61,3.61,0,0,1,1.24-.62,5.83,5.83,0,0,1,1.56-.21v1h0a1.91,1.91,0,0,0-1.22.38,1.7,1.7,0,0,0-.58,1.14h1.8Z"/><path class="cls-33" d="M271.6,446.31v-.15a5.26,5.26,0,0,1-.79.56,3.76,3.76,0,0,1-.85.33l-.37.07V446a2.13,2.13,0,0,0,1-.2,1.61,1.61,0,0,0,.69-.63,2,2,0,0,0,.26-1.06,2,2,0,0,0-.26-1,1.69,1.69,0,0,0-.7-.65,2,2,0,0,0-.94-.23v-1.08a3.5,3.5,0,0,1,.86.2,3.83,3.83,0,0,1,1.15.68v-2.21a.93.93,0,0,1,.24-.69,1,1,0,0,1,.7-.24,1,1,0,0,1,.69.22.82.82,0,0,1,.24.64v6.59a.79.79,0,0,1-.26.64,1.06,1.06,0,0,1-.68.21,1,1,0,0,1-.67-.22A.77.77,0,0,1,271.6,446.31Zm-2,.81a4.12,4.12,0,0,1-.62,0,3.81,3.81,0,0,1-1.32-.23,3.15,3.15,0,0,1-1-.65,2.8,2.8,0,0,1-.67-1,3.32,3.32,0,0,1-.23-1.23,2.77,2.77,0,0,1,.91-2.18,3.53,3.53,0,0,1,2.4-.79,5.35,5.35,0,0,1,.58,0v1.08h0a2,2,0,0,0-1,.23,1.66,1.66,0,0,0-.67.67,2.06,2.06,0,0,0-.23,1h0a2,2,0,0,0,.25,1,1.58,1.58,0,0,0,.68.65,2.17,2.17,0,0,0,.95.21h0Z"/><path class="cls-33" d="M281.7,441.13a5.41,5.41,0,0,1,.59,0,4,4,0,0,1,1.73.36,2.59,2.59,0,0,1,1.15,1,2.94,2.94,0,0,1,.41,1.59,3.2,3.2,0,0,1-.23,1.25,2.83,2.83,0,0,1-.66,1,3.13,3.13,0,0,1-1.06.64,4,4,0,0,1-1.37.23,5.1,5.1,0,0,1-.57,0V446h.07a1.84,1.84,0,0,0,1.29-.49,1.79,1.79,0,0,0,.54-1.4,2.14,2.14,0,0,0-.22-1,1.63,1.63,0,0,0-.64-.66,2,2,0,0,0-1-.23h-.06Zm-2-1.41V442a5,5,0,0,1,1.15-.67,3.79,3.79,0,0,1,.85-.2v1.08a2.08,2.08,0,0,0-.95.23,1.67,1.67,0,0,0-.7.67,2.09,2.09,0,0,0-.25,1.05h0a1.73,1.73,0,0,0,.54,1.37,2,2,0,0,0,1.35.48v1.12l-.29-.05a2.82,2.82,0,0,1-.69-.21,2.64,2.64,0,0,1-.48-.28c-.13-.09-.31-.24-.53-.43v.15a.78.78,0,0,1-.27.64,1.06,1.06,0,0,1-.68.21,1,1,0,0,1-.67-.21.8.8,0,0,1-.25-.64v-6.52a.87.87,0,0,1,.25-.69.91.91,0,0,1,.68-.23,1,1,0,0,1,.7.22A.83.83,0,0,1,279.71,439.72Z"/><path class="cls-33" d="M288.15,447.36l.18-.34-2.43-4.63a1.48,1.48,0,0,1-.23-.58.55.55,0,0,1,.13-.36,1,1,0,0,1,.36-.26,1.29,1.29,0,0,1,.48-.1.88.88,0,0,1,.64.21,1.68,1.68,0,0,1,.39.59l1.67,3.68,1.6-3.42a4.16,4.16,0,0,1,.34-.65.81.81,0,0,1,.32-.32,1.11,1.11,0,0,1,.49-.08,1.07,1.07,0,0,1,.43.09.8.8,0,0,1,.32.24.56.56,0,0,1,.11.32l-.09.3c-.05.13-.1.26-.16.39l-2.59,5.1a5.5,5.5,0,0,1-.66,1,2,2,0,0,1-.85.59,3.9,3.9,0,0,1-1.42.21,4.56,4.56,0,0,1-1.3-.15.54.54,0,0,1-.44-.52.44.44,0,0,1,.21-.39,1,1,0,0,1,.61-.14,1.55,1.55,0,0,1,.31,0l.33,0a1.57,1.57,0,0,0,.54-.07.9.9,0,0,0,.35-.27A3.27,3.27,0,0,0,288.15,447.36Z"/><path class="cls-33" d="M316.89,441.24h.47v-.45a2.24,2.24,0,0,1,.24-1.12,1.41,1.41,0,0,1,.8-.6,5.23,5.23,0,0,1,1.54-.18c1.17,0,1.74.21,1.74.64a.44.44,0,0,1-.18.35.66.66,0,0,1-.43.15l-.4,0c-.19,0-.35,0-.48,0q-.54,0-.69.24a1.31,1.31,0,0,0-.15.69v.35h.48c.76,0,1.13.17,1.13.52a.42.42,0,0,1-.3.46,2.6,2.6,0,0,1-.83.1h-.48v4a.81.81,0,0,1-.28.67,1.21,1.21,0,0,1-1.42,0,.81.81,0,0,1-.28-.67v-4h-.54a1.31,1.31,0,0,1-.69-.15.45.45,0,0,1-.24-.39C315.89,441.42,316.23,441.24,316.89,441.24Z"/><path class="cls-33" d="M323.38,445v1.25a.82.82,0,0,1-.29.68,1.21,1.21,0,0,1-1.42,0,.86.86,0,0,1-.28-.68v-4.16c0-.67.33-1,1-1a.91.91,0,0,1,.71.24,1,1,0,0,1,.25.69,2.57,2.57,0,0,1,.72-.69,1.89,1.89,0,0,1,1-.24,3.18,3.18,0,0,1,1.21.24c.39.16.59.36.59.62a.54.54,0,0,1-.25.45.92.92,0,0,1-.54.18,2.67,2.67,0,0,1-.53-.1,3.09,3.09,0,0,0-.74-.1,1.36,1.36,0,0,0-.71.17,1.14,1.14,0,0,0-.43.51,3,3,0,0,0-.21.81A9.12,9.12,0,0,0,323.38,445Z"/><path class="cls-33" d="M332.5,444.52h-2.08v-.85h1.8a1.56,1.56,0,0,0-.55-1.14,1.9,1.9,0,0,0-1.25-.38v-1h.06a4.85,4.85,0,0,1,2,.38,2.85,2.85,0,0,1,1.24.95,2,2,0,0,1,.42,1.2.69.69,0,0,1-.43.72,3.27,3.27,0,0,1-1.21.17Zm-2.08,1.68h.15a3.27,3.27,0,0,0,.65-.06,2.59,2.59,0,0,0,.57-.2,4.21,4.21,0,0,0,.51-.29l.6-.41a.78.78,0,0,1,.44-.1.83.83,0,0,1,.49.13.39.39,0,0,1,.19.35.77.77,0,0,1-.21.47,2.08,2.08,0,0,1-.64.53,4.35,4.35,0,0,1-1.07.41,5.91,5.91,0,0,1-1.47.16h-.21Zm0-1.68h-1.8a1.62,1.62,0,0,0,.27.9,1.69,1.69,0,0,0,.71.58,2.2,2.2,0,0,0,.82.2v1a4.61,4.61,0,0,1-2.77-.82,2.69,2.69,0,0,1-1.06-2.23,2.84,2.84,0,0,1,.27-1.23,2.55,2.55,0,0,1,.76-1,3.44,3.44,0,0,1,1.24-.62,5.82,5.82,0,0,1,1.56-.22v1h0a1.85,1.85,0,0,0-1.22.38,1.7,1.7,0,0,0-.58,1.14h1.8Z"/><path class="cls-33" d="M340.75,444.53h-2.08v-.85h1.8a1.58,1.58,0,0,0-.55-1.15,2,2,0,0,0-1.25-.38v-1h.06a4.86,4.86,0,0,1,2,.37,2.87,2.87,0,0,1,1.24,1,2,2,0,0,1,.42,1.19.71.71,0,0,1-.43.73,3.5,3.5,0,0,1-1.21.17Zm-2.08,1.67h.15a2.66,2.66,0,0,0,.65-.06A3.18,3.18,0,0,0,340,446a4.88,4.88,0,0,0,.51-.29l.6-.42a.87.87,0,0,1,.44-.1.89.89,0,0,1,.49.13.4.4,0,0,1,.19.36.82.82,0,0,1-.21.47,2.21,2.21,0,0,1-.64.52,4,4,0,0,1-1.06.41,6,6,0,0,1-1.49.17h-.2Zm0-1.67h-1.8a1.7,1.7,0,0,0,.27.9,1.64,1.64,0,0,0,.71.59,2.4,2.4,0,0,0,.82.19v1a4.67,4.67,0,0,1-2.77-.81,2.7,2.7,0,0,1-1.06-2.23,2.77,2.77,0,0,1,.27-1.23,2.66,2.66,0,0,1,.76-1,3.52,3.52,0,0,1,1.24-.62,5.4,5.4,0,0,1,1.56-.21v1h0a1.86,1.86,0,0,0-1.22.39,1.65,1.65,0,0,0-.58,1.13h1.8Z"/><path class="cls-33" d="M347.09,441.17a4.56,4.56,0,0,1,.54,0,4.13,4.13,0,0,1,1.69.36,2.82,2.82,0,0,1,1.66,2.66,3.1,3.1,0,0,1-.26,1.27,2.68,2.68,0,0,1-.71,1,3.15,3.15,0,0,1-1.06.6,4.1,4.1,0,0,1-1.32.21,4.63,4.63,0,0,1-.54,0V446h.05a2,2,0,0,0,.92-.22,1.61,1.61,0,0,0,.67-.65,2,2,0,0,0,.26-1h0a2,2,0,0,0-.24-1,1.61,1.61,0,0,0-.67-.65,2,2,0,0,0-.94-.23h-.05Zm-2,.79v.18a3.78,3.78,0,0,1,1.17-.76,3.4,3.4,0,0,1,.82-.21v1.07a2,2,0,0,0-1.33.49,2,2,0,0,0,0,2.82,2,2,0,0,0,1.34.49v1.13a2.83,2.83,0,0,1-.89-.23,3.84,3.84,0,0,1-1.1-.75v2.24c0,.66-.31,1-.95,1a.87.87,0,0,1-.74-.26,1.34,1.34,0,0,1-.18-.74V442a.8.8,0,0,1,.24-.64,1,1,0,0,1,.68-.21,1,1,0,0,1,.68.22A.74.74,0,0,1,345.1,442Z"/><path class="cls-33" d="M353,440.43a1.26,1.26,0,0,1-.71-.19.6.6,0,0,1-.29-.54.63.63,0,0,1,.3-.53,1.35,1.35,0,0,1,1.38,0,.62.62,0,0,1,.3.55.62.62,0,0,1-.29.54,1.19,1.19,0,0,1-.69.19Zm1,1.55h0v4.32a.8.8,0,0,1-.29.67,1.23,1.23,0,0,1-1.43,0,.88.88,0,0,1-.27-.67V442a.82.82,0,0,1,.27-.67,1.08,1.08,0,0,1,.71-.22,1.12,1.12,0,0,1,.72.22A.75.75,0,0,1,354,442Z"/><path class="cls-33" d="M360.35,446.53l-1.74-2.17-1.08.76v1.19a.76.76,0,0,1-.31.66,1.05,1.05,0,0,1-.69.24,1,1,0,0,1-.72-.24.84.84,0,0,1-.26-.67v-6.38a1,1,0,0,1,.26-.75,1,1,0,0,1,.73-.26,1,1,0,0,1,.72.23.88.88,0,0,1,.27.7v3.62l2.23-1.76a5,5,0,0,1,.64-.45,1.05,1.05,0,0,1,.52-.12,1.07,1.07,0,0,1,.63.18.54.54,0,0,1,.24.44c0,.22-.27.52-.81.88l-1.05.73,2,2.41c.15.18.26.31.33.41a.5.5,0,0,1,.1.26.68.68,0,0,1-.27.57,1.09,1.09,0,0,1-.67.2.89.89,0,0,1-.56-.15A4.22,4.22,0,0,1,360.35,446.53Z"/><path class="cls-33" d="M364.66,447.21a1.32,1.32,0,0,1-.77-.22.69.69,0,0,1-.33-.61.71.71,0,0,1,.32-.58,1.2,1.2,0,0,1,.77-.24,1.29,1.29,0,0,1,.78.24.71.71,0,0,1,0,1.19A1.34,1.34,0,0,1,364.66,447.21Z"/><path class="cls-33" d="M374.53,445.37a1,1,0,0,1-.22.59,2.42,2.42,0,0,1-.68.61,4,4,0,0,1-1.14.46,6.21,6.21,0,0,1-1.56.17,4.6,4.6,0,0,1-2.87-.8,2.62,2.62,0,0,1-1-2.17,2.82,2.82,0,0,1,.48-1.63,3,3,0,0,1,1.36-1.09,5.15,5.15,0,0,1,2.14-.38,5.24,5.24,0,0,1,1.41.17,4.06,4.06,0,0,1,1.09.44,2.35,2.35,0,0,1,.68.57.93.93,0,0,1,.24.57.55.55,0,0,1-.26.45,1.16,1.16,0,0,1-.65.19.86.86,0,0,1-.41-.1,1.83,1.83,0,0,1-.37-.31,2.39,2.39,0,0,0-.76-.62,2.33,2.33,0,0,0-2.42.3,1.88,1.88,0,0,0-.54,1.42,2.11,2.11,0,0,0,.14.77,1.48,1.48,0,0,0,.4.6,1.55,1.55,0,0,0,.63.38,2.37,2.37,0,0,0,.81.13,2.49,2.49,0,0,0,1-.2,2.14,2.14,0,0,0,.75-.64,1.44,1.44,0,0,1,.39-.39.86.86,0,0,1,.52-.15.88.88,0,0,1,.6.21A.6.6,0,0,1,374.53,445.37Z"/><path class="cls-33" d="M383.09,444.18a2.85,2.85,0,0,1-.27,1.24,2.82,2.82,0,0,1-.8,1,3.75,3.75,0,0,1-1.25.62,5.54,5.54,0,0,1-1.63.22v-1.11a2,2,0,0,0,1.43-.51,1.92,1.92,0,0,0,.53-1.42h0a1.89,1.89,0,0,0-.53-1.42,2,2,0,0,0-1.43-.51v-1.11a5.54,5.54,0,0,1,1.63.22A3.92,3.92,0,0,1,382,442a2.68,2.68,0,0,1,.79,1A2.77,2.77,0,0,1,383.09,444.18Zm-3.95,3h0a5.43,5.43,0,0,1-1.62-.22,3.81,3.81,0,0,1-1.24-.63,2.74,2.74,0,0,1-.81-1,2.92,2.92,0,0,1-.27-1.23,2.82,2.82,0,0,1,.28-1.24,2.76,2.76,0,0,1,.8-1,3.69,3.69,0,0,1,1.24-.61,5.54,5.54,0,0,1,1.63-.22h0v1.11h0a2.23,2.23,0,0,0-1,.22,1.57,1.57,0,0,0-.68.67,2.19,2.19,0,0,0-.25,1,2.08,2.08,0,0,0,.24,1,1.52,1.52,0,0,0,.68.67,2.12,2.12,0,0,0,1,.24h0Z"/><path class="cls-33" d="M390.66,444.3v2a.86.86,0,0,1-.28.71,1.14,1.14,0,0,1-.75.24,1.07,1.07,0,0,1-.73-.24.86.86,0,0,1-.28-.71V443.9a6.52,6.52,0,0,0-.05-.88.92.92,0,0,0-.28-.51,1.07,1.07,0,0,0-.71-.2,1.37,1.37,0,0,0-1.28.51,2.7,2.7,0,0,0-.31,1.44v2a.91.91,0,0,1-.27.71,1.17,1.17,0,0,1-.74.23,1.12,1.12,0,0,1-.74-.24.86.86,0,0,1-.29-.7V442a.8.8,0,0,1,.25-.64,1.07,1.07,0,0,1,.68-.22,1.12,1.12,0,0,1,.68.21.64.64,0,0,1,.27.57v.14a3.43,3.43,0,0,1,1.11-.68,3.68,3.68,0,0,1,1.31-.22,3.26,3.26,0,0,1,1.28.22,2.15,2.15,0,0,1,.89.68,3.69,3.69,0,0,1,1.08-.68,3.46,3.46,0,0,1,1.27-.22,3.78,3.78,0,0,1,1.41.24,1.8,1.8,0,0,1,.87.69,2.49,2.49,0,0,1,.25,1.28v2.92a.86.86,0,0,1-.28.7,1.28,1.28,0,0,1-1.49,0,.88.88,0,0,1-.28-.71v-2.51a5.1,5.1,0,0,0-.05-.77.85.85,0,0,0-.3-.49,1.14,1.14,0,0,0-.73-.2,1.59,1.59,0,0,0-.74.18,1.34,1.34,0,0,0-.55.47A3,3,0,0,0,390.66,444.3Z"/><path class="cls-33" d="M298.32,443.77Z"/><path class="cls-33" d="M298.42,444.25h0a2.88,2.88,0,0,1-.09-.4C298.36,444,298.39,444.12,298.42,444.25Z"/><path class="cls-33" d="M299.08,445.64v0Z"/><path class="cls-33" d="M299,445.55a.35.35,0,0,1,0-.08A.35.35,0,0,0,299,445.55Z"/><path class="cls-33" d="M298.61,444.79a4.17,4.17,0,0,0,.35.66,4.66,4.66,0,0,1-.35-.66Z"/><path class="cls-33" d="M306,438.05a7.59,7.59,0,0,1,1,.07l.09-.44a8,8,0,0,0-2.07-.14l-.1-.24a.67.67,0,0,0,.64-.59.72.72,0,0,0-.8-.61c-.45,0-.81.27-.81.61a.67.67,0,0,0,.64.59l.1.27a10.29,10.29,0,0,0-2.25.5l.18.4a12.52,12.52,0,0,1,2-.35C305.21,438.07,305.65,438.05,306,438.05Z"/><path class="cls-33" d="M299.07,440.27h0l.09-.08-.24-.13-.37-.21a4.52,4.52,0,0,0-1.08,1.18l-.07-.07a.88.88,0,0,0-.57-.17h0a.62.62,0,0,1-.32-.08.34.34,0,0,0,.11-.24.47.47,0,0,0-.51-.39c-.29,0-.52.18-.52.39s.23.38.51.38h.13a.88.88,0,0,0,.62.19.5.5,0,0,1,.33.09.36.36,0,0,1,.13.25h0a3.14,3.14,0,0,0-.24,1.54l.8,0a3.66,3.66,0,0,1,.29-1.29A5.68,5.68,0,0,1,299.07,440.27Z"/><path class="cls-33" d="M313,438.57c-.28,0-.51.17-.51.38a.3.3,0,0,0,0,.1.53.53,0,0,0-.26.46.3.3,0,0,1-.12.26.72.72,0,0,1-.22.08,5.93,5.93,0,0,0-1.35-1l-.58.47a7.59,7.59,0,0,1,1.32,1.15,7,7,0,0,1,.87,1.16l.79-.28a8.29,8.29,0,0,0-.86-1.26,1.36,1.36,0,0,0,.25-.11.5.5,0,0,0,.22-.44.29.29,0,0,1,.12-.25.59.59,0,0,0,.31.08c.29,0,.52-.18.52-.39S313.33,438.57,313,438.57Z"/><path class="cls-33" d="M311,443.87a22.47,22.47,0,0,1-5.19,1.16c-.92.09-1.81.13-2.62.13-1.07,0-2-.06-2.73-.13s-1.47-.18-1.86-.24a3.82,3.82,0,0,0,.35.66s0,0,0,0a.35.35,0,0,0,0,.08l.05.07v0a4.37,4.37,0,0,0,.83.89,5,5,0,0,0,2.23,1.06h0a11.66,11.66,0,0,0,2.52.25,14.37,14.37,0,0,0,4.34-.67,7,7,0,0,0,2.49-1.54,3.78,3.78,0,0,0,.81-1.32,2.73,2.73,0,0,0,.11-1.05A14.34,14.34,0,0,1,311,443.87Z"/><path class="cls-33" d="M308.8,444a18.32,18.32,0,0,0,1.9-.57,12.33,12.33,0,0,0,1.62-.71A7.13,7.13,0,0,0,308.8,439v1.1c.74,0,1.33.45,1.33,1a1.2,1.2,0,0,1-1.33,1Zm-6.31.65a24.19,24.19,0,0,0,3.24-.11,22.39,22.39,0,0,0,3.07-.54V442.1h0a1.21,1.21,0,0,1-1.33-1c0-.55.59-1,1.33-1h0V439a6.31,6.31,0,0,0-1.84-.55,7.27,7.27,0,0,0-1-.06c-.34,0-.76,0-1.33.06a13.05,13.05,0,0,0-1.94.34l-.23.07V440a1.94,1.94,0,0,1,2.15,1.63c0,.89-1,1.62-2.16,1.62Zm-3.08-4.19a5.48,5.48,0,0,0-.87,1.29,3.87,3.87,0,0,0-.26,1.42h0a3.69,3.69,0,0,0,0,.58h0l0,.08a2.88,2.88,0,0,0,.09.4,27,27,0,0,0,4.06.41v-1.37h0c-1.19,0-2.15-.73-2.15-1.62s1-1.63,2.16-1.63h0v-1.19A8.07,8.07,0,0,0,300,440l0,0A4.28,4.28,0,0,0,299.41,440.47Z"/></g></g></svg>