<svg xmlns="http://www.w3.org/2000/svg" viewBox="0 0 318.96 249.35"><defs><style>.cls-1{isolation:isolate;}.cls-2{fill:#fca000;}.cls-3{fill:#b5b5b5;mix-blend-mode:multiply;}.cls-4{fill:#a0ba4f;}.cls-5{fill:#697a34;}.cls-6{fill:#94a54c;}.cls-7{fill:#c4d86c;}.cls-8{fill:#323a19;}.cls-9{fill:#ccc;}.cls-10{fill:#fff;}.cls-11{fill:#1a1a1a;}.cls-12{fill:#f2f2f2;}.cls-13{fill:#582d11;}.cls-14{fill:#875623;}.cls-15{fill:#bad4d4;}.cls-16{fill:#6fabab;}.cls-17{fill:#9b5b07;}.cls-18{fill:#512600;}.cls-19{fill:#90500f;}.cls-20{fill:#a96a31;}.cls-21{fill:#bd6600;}.cls-22{fill:#682f05;}.cls-23{fill:#9b5311;}.cls-24{fill:#894500;}.cls-25{fill:#e48c43;}.cls-26{fill:#f9a447;}.cls-27{fill:#ffcf92;}</style></defs><title>設施介紹-資產 2</title><g class="cls-1"><g id="圖層_2" data-name="圖層 2"><g id="圖層_1-2" data-name="圖層 1"><path class="cls-2" d="M91.2,160.45s-9.27,11.74-13.67,16.33S60.86,194,59.46,197.7s13.21,5.41,23.09,9.64S97.79,221,96.73,203.65,91.2,160.45,91.2,160.45Z"/><path class="cls-3" d="M83.52,172.06s-12.78,16.56-14.83,16.23S82,196.48,82.24,199.93s8.9-.66,8.9-.66l1.1-5.86s-4.49-6.76-4-11.14,1.17-9.52,1.17-9.52Z"/><path class="cls-4" d="M144.65,68s-40.08,7.17-51.74,30.63-13.84,36.5-13.11,50.84-1.46,37.15,5.1,45.62,13.84,19.55,13.84,24.77S87.09,226.41,79.8,231s-7.29,9.77-5.83,12.38,32.79,1.3,43.72,0,10.93-5.87,10.93-5.87,27.69-.65,31.33-.65,8.75,7.82,8.75,7.82,36.7,7.83,54.65,3.26,3.42-20.85-4.38-20.2,33.52-49.54,33.52-83.43-8-47.58-17.49-58S224.8,72,183.27,68,144.65,68,144.65,68Z"/><path class="cls-5" d="M237.43,85c-3.35,1.92-2.66,4.27-6.38,5.45-5.94,1.89,1,13.34-1.54,31.08-.68,4.73-4.36,19.68-13.79,28.44,7.72-11.72,9.22-26.45,9.24-30.12s-1.57-25.75-6.56-24.52c-4.69,1.16,4.91-8.56,4.91-8.56Z"/><path class="cls-5" d="M235,152.29c-1.8.66-1.69,1.86-3.6,2.13-3.07.43-.77,6.56-3.68,15-.77,2.24-4,9.2-9.37,12.69a32.15,32.15,0,0,0,7.32-13.88c.36-1.78,1.66-12.63-.88-12.44-2.38.18,3.19-3.75,3.19-3.75Z"/><path class="cls-5" d="M250.41,112.53c-1.81.66-1.69,1.86-3.61,2.13-3.07.43-.76,6.56-3.67,15-.78,2.24-4,9.2-9.37,12.69a32.08,32.08,0,0,0,7.31-13.87c.36-1.79,1.67-12.64-.87-12.44-2.39.18,3.19-3.76,3.19-3.76Z"/><path class="cls-6" d="M75.92,240.29c-.49-3,12,6.31,10,1.56C83,234.64,96.41,241,109.51,231.5c-14.27,5.29-26.69,4.41-24.84,1.79-2.89-2.44-7.43.4-7.43.4Z"/><path class="cls-6" d="M220.36,244.26s-8.69-.32-19.29-9c11.72,4.5,22.11,3,20.65.5,2.5-2.55,6.18,0,6.18,0s.49,2.94.82,5.81C229.25,246.18,220.65,244.56,220.36,244.26Z"/><path class="cls-7" d="M84,115.82c4.62-8.55,25.64-49.51,84-33.85-47.22-.43-74,26.63-78.09,51.89,4.67-14.75,23.89-37.29,65.54-35.17-51.31,7-62.36,28-67.14,61.56,2.73-17.07,12-22.4,19.22-24.3-11.93,7.17-23.33,32.59-16.34,55.35,4.09,13.31-1.49,14.26-5.32,2.14C73.75,154.91,84,115.82,84,115.82Z"/><path class="cls-8" d="M244.22,103.26a21.09,21.09,0,0,0,5.33-5.64c.9-1.59-1.53-5-3.5-4.47a20.84,20.84,0,0,0-6.87,4c-1.71,1.3-3.8,2-3,5.41a4.57,4.57,0,0,0,2,2.57C241.42,106.77,242.67,104.56,244.22,103.26Z"/><path class="cls-8" d="M251.88,117.41c-4.78,1.42-7.66,4.23-10.81,6.41-2.81,1.94-8.1,4.35-6.57,6.84.49.8,1.92,1.18,3.57,1.15,4.91-.11,7.78-3.43,10.27-5.2,3-2.14,7.62-4.53,8.67-7.11C257.51,118.27,254.59,116.6,251.88,117.41Z"/><path class="cls-8" d="M85.38,117.88a41.49,41.49,0,0,0-7.62-2.34c-2.19-.46-5-1.4-7.24-.48-1.54.65-1.28,2.36-.31,3.26,1.8,1.67,4.62,2.06,7,2.59a39.3,39.3,0,0,0,7.75,1C87.4,121.9,87,118.54,85.38,117.88Z"/><path class="cls-8" d="M81.22,132.68a56.35,56.35,0,0,0-7.81-1c-2.16-.12-5.11-.55-6.79.34-1.18.62-.33,1.84.88,2.41,2.25,1.05,5,1.07,7.37,1.23a48.56,48.56,0,0,0,7.44,0C84.52,135.43,82.92,133,81.22,132.68Z"/><path class="cls-8" d="M92.62,196.82a41.32,41.32,0,0,0-5.43,3.45c-1.41,1-3.49,2.32-4,3.8-.35,1,.92,1.41,2,1.15,2-.48,3.72-1.9,5.31-3.06a34.06,34.06,0,0,0,4.56-3.94C96.34,196.93,93.87,196.14,92.62,196.82Z"/><path class="cls-8" d="M98.7,200.05a42,42,0,0,0-5.43,3.45c-1.41,1.05-3.49,2.32-4,3.8-.34,1,.93,1.41,2,1.15,2-.48,3.72-1.9,5.3-3.06a34.89,34.89,0,0,0,4.57-3.94C102.42,200.16,100,199.37,98.7,200.05Z"/><ellipse class="cls-9" cx="118.75" cy="129.3" rx="18.21" ry="16.95"/><ellipse class="cls-10" cx="119.22" cy="129.74" rx="12.14" ry="11.3"/><ellipse class="cls-11" cx="118.87" cy="129.41" rx="12.49" ry="11.62"/><ellipse class="cls-12" cx="115.72" cy="124.52" rx="6.54" ry="6.08"/><ellipse class="cls-9" cx="197.18" cy="131.91" rx="18.91" ry="17.6"/><ellipse class="cls-10" cx="197.66" cy="132.36" rx="12.6" ry="11.73"/><path class="cls-5" d="M103.8,170s12.88,23.68,27.11.53c-1.35,6.17,7.88,13.79,8.75,13.74s11.71,5.45,16-9c1.48-4.15,2.78,16.11,17.19,9.21s14.18,3.28,21.89.81,14.14-11,15-11S197,179.08,197,179.08s-3,8.3-13.32-3.32-9.51,13-23,1.41-6.21,6.31-22.53-2.95-8.45,4.54-21.89-.81S103.8,170,103.8,170Z"/><ellipse class="cls-7" cx="76.04" cy="175.25" rx="7" ry="10.75"/><path class="cls-6" d="M79.88,164.42s-5.26-.93-6.87,2,6.69-.58,6.52.87-1.15,5.67.73,6.35,4-1.9,3.08-4.41A14.72,14.72,0,0,0,79.88,164.42Z"/><path class="cls-13" d="M51.43,158.78c1-3.56,4.42-5.55,7.63-4.45s5,4.89,4,8.44-4.42,5.55-7.63,4.45S50.43,162.33,51.43,158.78Zm1.43.49a5.22,5.22,0,0,0,3,6.37,4.55,4.55,0,0,0,5.76-3.36,5.21,5.21,0,0,0-3-6.37A4.53,4.53,0,0,0,52.86,159.27Z"/><path class="cls-13" d="M60.8,157.74A12.92,12.92,0,0,0,59.09,159c-.52.42-.87,1.05-1.37,1.54a20.6,20.6,0,0,1-1.55,1.4c-.54.46-1.12.87-1.71,1.28l.06.15a13.69,13.69,0,0,0,2-.7,11.61,11.61,0,0,0,1.91-1.07,5.36,5.36,0,0,0,1.73-1.46,4,4,0,0,0,.76-2.35Z"/><path class="cls-14" d="M64.29,141.83c15.22,2.93,15.28,21,14.28,30.19h0a7.79,7.79,0,0,0,2.07,5.59,1.69,1.69,0,0,1,.26.28h0a2.5,2.5,0,0,1,.46,2c-.42,2.91-4.4,6.61-8.88,8.25s-7.77.61-7.35-2.31a5.1,5.1,0,0,1,.52-1.54h0a8.12,8.12,0,0,1,.89-1.42c2.25-3.87,2.08-6.52,2-7.12-1.38-7.67-4.76-16-13.06-18.71C50,155.22,2.14,142.61,2.14,142.61l4-7.78S45.6,138.24,64.29,141.83Z"/><path class="cls-15" d="M63.8,145.11c-6.94-2.59-21.3-2.75-26.42-2.89s-2.17,3.92,5.83,5.29,20.94,3.47,27.52,8.72S76.05,149.68,63.8,145.11Z"/><path class="cls-16" d="M72.88,155.51a6.19,6.19,0,0,1-1.19-.77c-6.82-5.44-19.45-7.59-27.81-9l-.55-.09a18.73,18.73,0,0,1-5-1.49l.59,0c6,.15,18.35.46,24.45,2.74C70,149.37,72.58,153.85,72.88,155.51Z"/><path class="cls-4" d="M71.57,166.17s10,8.27,7.4,10.27,1.41,9.26-.6,13.46-9.26,9-16.79,6.82-17.7-21.36-13.35-26.94,17.2-8.07,20.27-5.84Z"/><path class="cls-7" d="M51.91,179.29c.24-2.17,1.15-12.49,15.9-15.48-10.78,4.85-14.3,13-12.85,18.45-.33-3.42,1.91-9.89,11.57-13.82-11,6.74-11.52,12.06-9.44,19.22-1-3.67.62-5.7,2.08-6.83-2,2.67-2.23,8.9,1.51,12.68,2.19,2.22,1,3-1,1C53.27,188.12,51.91,179.29,51.91,179.29Z"/><ellipse class="cls-11" cx="197.29" cy="132.24" rx="13.19" ry="12.06"/><ellipse class="cls-12" cx="193.97" cy="127.16" rx="6.9" ry="6.31"/><path class="cls-17" d="M163.4,57a3.06,3.06,0,0,1,2.38,1.38,12.69,12.69,0,0,1,1.37,2.57c.75,1.78,1.35,3.61,2,5.43l3.58,11c2.26,7.35,4.51,14.71,6.64,22.1l-.31.1a65.11,65.11,0,0,1-5.43-10.34c-.81-1.75-1.44-3.56-2.16-5.34s-1.24-3.63-1.87-5.44-1.1-3.68-1.61-5.54-1-3.73-1.31-5.62l-1.1-5.56a16.25,16.25,0,0,0-.64-2.54,2.79,2.79,0,0,0-1.52-1.79Z"/><path class="cls-18" d="M145.66,17.32c18.63-2.8,26.44-7.15,31.07-7-27,38-42.63,17.35-60.9,13.84l0,0C120.23,19.73,129.56,19.73,145.66,17.32Z"/><path class="cls-19" d="M115.78,24.21c6.26.71,11.94,3.4,17.63,5.29s11.67,3.13,17.26,1.54S161,26.1,165.3,22.35a82.08,82.08,0,0,0,6-6.05c2-2.07,3.79-4.26,5.68-6.41a68.14,68.14,0,0,1-10.11,13.72c-4,4.18-9,8.05-15.42,9.79a24.88,24.88,0,0,1-9.83.49,37.52,37.52,0,0,1-9.11-2.66c-2.85-1.18-5.56-2.5-8.31-3.74A54.91,54.91,0,0,0,115.78,24.21Z"/><path class="cls-17" d="M116.86,68.38C115.46,61,114,53.57,113,46.11a84.63,84.63,0,0,1-.77-11.26c.11-3.69.45-7.78,3.4-10.77l.32.24a11.93,11.93,0,0,0-.89,5.29,43.31,43.31,0,0,0,.51,5.26l1.65,10.83.61,5.53c.08,1.87.32,3.73.3,5.62a48.76,48.76,0,0,1-.82,11.47Z"/><path class="cls-20" d="M52.29,59.72a10.38,10.38,0,0,0,1.83,6.37,28.42,28.42,0,0,0,4.2,5.45,57.61,57.61,0,0,0,11,8.68A105,105,0,0,0,95.21,91.81a136.43,136.43,0,0,0,28,5.2,152.35,152.35,0,0,0,28.49-.24A186.49,186.49,0,0,0,179.81,92a156,156,0,0,0,26.77-9.09,118.78,118.78,0,0,0,24.06-14.31,78.82,78.82,0,0,0,19.13-20.23l.53.21c-4.13,8.49-10.5,15.74-17.6,22.1a110.53,110.53,0,0,1-24,16c-17.42,8.64-36.81,13.43-56.39,15.46-19.62,1.83-39.85.1-58.57-6.32A99.79,99.79,0,0,1,67.54,82.46a58.6,58.6,0,0,1-10.7-9.85,28.87,28.87,0,0,1-3.92-6,11.16,11.16,0,0,1-1.19-6.95Z"/><path class="cls-21" d="M249.38,25.17A14.19,14.19,0,0,1,253.66,31a25.23,25.23,0,0,1,1.82,6.81,22.73,22.73,0,0,1-3.11,13.81,40.68,40.68,0,0,1-10.09,11.09,75.24,75.24,0,0,1-13.18,8.2c-9.36,4.71-19.68,7.73-30.15,9.81a139,139,0,0,1-32.11,2.51,120.36,120.36,0,0,1-31.49-6.16c-10-3.26-19.69-7.08-29.16-11.14S87.25,57.82,77.33,55.16c-4.89-1.29-10.15-2.31-15-1.12a11.86,11.86,0,0,0-6.09,3.7A17,17,0,0,0,53,63.86l-.27,0a17,17,0,0,1,3-6.36A12.36,12.36,0,0,1,62,53.32c5.16-1.45,10.64-.55,15.7.59,10.21,2.51,19.77,6.53,29.38,10.29S126.3,71.86,136.23,75A117.14,117.14,0,0,0,167,80.79a136.63,136.63,0,0,0,31.42-2.24A123.92,123.92,0,0,0,228,69.24c9.16-4.37,17.9-10.17,23-18.23a21.89,21.89,0,0,0,3.53-13.14,24.68,24.68,0,0,0-1.48-6.7,13.74,13.74,0,0,0-3.92-5.83Z"/><path class="cls-18" d="M256.64,37.27c.46,6.8-2.07,12.92-6.76,18.21a0,0,0,0,1,0,0s0,.05,0,.08c-16,18-57,26.71-91.66,21.68,25.83-.68,37.71-12.42,37.71-12.42s-.53-2.76-1.75-8.43c-.24-1.24-.53-2.61-.88-4.12v0C209.08,35.1,254.45,4.54,256.64,37.27Z"/><path class="cls-22" d="M198.52,53.15a96.63,96.63,0,0,1,10.06-11.72A113.7,113.7,0,0,1,220.41,31a64.4,64.4,0,0,1,14.06-8.11A25,25,0,0,1,242.69,21a11.54,11.54,0,0,1,7.91,2.47l-.39.36a11.71,11.71,0,0,0-7.39-.24,28.88,28.88,0,0,0-6.49,2.8c-2.06,1.25-4.19,2.47-6.17,3.94s-4.1,2.82-6,4.39-4.05,3-6.05,4.58-4,3.15-6.12,4.67c-4.12,3.15-8.28,6.27-12.95,9.42Z"/><path class="cls-22" d="M116.68,22.45a14.94,14.94,0,0,1,6.87-3.52,73.6,73.6,0,0,1,7.78-1.49c5.22-.75,10.44-1.4,15.62-2.23a149.79,149.79,0,0,0,15.38-3c2.53-.63,5-1.34,7.54-2.06s5-1.57,7.78-1.6l0,.49a68.82,68.82,0,0,0-6.8,3.56,65.83,65.83,0,0,1-7.22,3.31,69.93,69.93,0,0,1-7.7,2.51c-2.6.67-5.37,1.17-8,1.65s-5.33.67-8,.89-5.28.36-7.9.33-5.17,0-7.62.16a19.58,19.58,0,0,0-7.33,1.35Z"/><path class="cls-2" d="M117,61.08,119,87.85s87.68-4.52,87.57-18-6.82-24.91-6.82-24.91Z"/><path class="cls-23" d="M171.17,106.71c-.95.26-1.94.44-2.93.66q-4.71,1-9.28,1.62a127.1,127.1,0,0,1-49.57-2.53c-38.86-10-61.77-36.91-60.2-49.35,3.78-29.78,34-10.89,68.08,5.82,4.71,2.34,9.5,4.59,14.29,6.67,9.78,4.28,19.63,7.82,29,9.47a84.43,84.43,0,0,0,12,1.27c34.53,1.44,72.07-15.5,83.42-40.78-.59,2-7.23,22.85-30.13,41.55-2.74,2.27-5.73,4.46-8.93,6.61C205.28,95.5,190.29,102.41,171.17,106.71Z"/><path class="cls-24" d="M201.92,48.85c.55,1.47,1,2.81,1.42,4,0,0-24.81,18.52-72.14,15.81-4.63-1.68-9.25-3.49-13.78-5.37-5.43-30.56-7-42.78-1.59-48.4l0,0c19.2,3.92,35.72,26.64,63.85-14.93,4.44.18,6.09,4.59,11.18,18.45,4.92,13.24,8.53,23.34,11,30.37Z"/><path class="cls-23" d="M237.52,174s-110,46-133.28,40.47,4.59,6.69,4.59,6.69,47.75-3.3,94.89-23.59,46-16,46-16l-6.28-9.92"/><polygon class="cls-2" points="226.75 152.58 255.2 141.91 259.58 147.55 236.85 161.41 226.75 152.58"/><path class="cls-2" d="M231.49,151.46s-22.41,46.28-27.31,46.28,34.31,15,36.41,23.46S260.9,216,260.9,216V201s-13.31-15-14-26.07-1.4-24.12-1.4-24.12Z"/><path class="cls-3" d="M229.62,155.3S208.39,198.07,203.81,198s31.95,14.09,33.86,22,19-4.71,19-4.71l.1-13.9s-12.33-14-12.91-24.24-1.15-22.36-1.15-22.36Z"/><path class="cls-4" d="M248.29,163.85s-14,5.21-11.9,7.82-4.9,8.47-4.2,13,7,11.08,16.1,11.08,27.31-15.64,24.51-22.16-16.11-12.38-20.31-11.08Z"/><path class="cls-13" d="M252.46,180.3c-4.23-.17-8.1-4.5-8.64-9.67s2.48-9.23,6.71-9.07,8.1,4.51,8.63,9.67S256.69,180.47,252.46,180.3Zm-1.7-16.44c-3.19-.12-5.46,2.95-5.06,6.84s3.33,7.18,6.52,7.3,5.46-2.94,5.06-6.84S254,164,250.76,163.86Z"/><path class="cls-13" d="M247.67,165.17a25,25,0,0,1,1.88,2.54c.56.82.88,1.82,1.39,2.72s1.07,1.76,1.67,2.62,1.22,1.7,1.87,2.53l-.1.17a22.24,22.24,0,0,1-2.37-1.93,21.38,21.38,0,0,1-2.17-2.36,10.26,10.26,0,0,1-1.87-2.79,6.62,6.62,0,0,1-.48-3.47Z"/><path class="cls-14" d="M252.19,151.56c-16.94.39-24.71,17.57-27.61,26.5h0c-.93,2.63-3.54,4.4-4.53,5a2.5,2.5,0,0,0-.39.23h0a3.15,3.15,0,0,0-1.33,1.8c-.81,2.84,1.71,7,5.63,9.26s7.75,1.79,8.56-1a4.2,4.2,0,0,0,.13-1.55h0a6.32,6.32,0,0,0-.32-1.49,10.57,10.57,0,0,1,1-7.09c4.69-7.09,11.75-14.5,21.45-15.77,6.45-.84,61.15-5.32,61.15-5.32l-.83-8.05S273,151.08,252.19,151.56Z"/><path class="cls-15" d="M247.58,154.6c8.23-2.64,26.16-.76,32.54-.22s3.42,5.85-6.34,6.62-25.58,1.85-32.88,8.29S233.07,159.27,247.58,154.6Z"/><path class="cls-16" d="M238.08,168c.07-2.31,2.52-8.24,10.37-10.76,7.23-2.32,22.68-1,30.1-.31l.74.07a17.71,17.71,0,0,1-6,1.36l-.68.06c-10.21.79-25.63,2-33.19,8.66A5.7,5.7,0,0,1,238.08,168Z"/><path class="cls-13" d="M316.08,158.08c.23,2.22.15,4-.17,4s-.77-1.82-1-4.05-.16-4,.16-4S315.85,155.86,316.08,158.08Z"/><ellipse class="cls-7" cx="242.63" cy="177.93" rx="11.07" ry="6.65" transform="translate(-51.66 240.56) rotate(-48.27)"/><path class="cls-6" d="M246.73,167.21s4.69,2.18,4,5.41-4.82-4.16-5.63-2.92-2.82,5.14-4.72,4.63-1.84-3.71.5-5.2A16.58,16.58,0,0,1,246.73,167.21Z"/><polygon class="cls-25" points="168.8 213.81 166.06 216.95 163.23 214.81 165.97 211.67 168.8 213.81"/><path class="cls-26" d="M168,213.14l-2.73,3.13a1,1,0,0,0,.15,1.39,1.12,1.12,0,0,0,1.49-.15l2.73-3.12a.94.94,0,0,0-.15-1.39A1.12,1.12,0,0,0,168,213.14Z"/><path class="cls-26" d="M154.35,209.27l8.22,6.21a2.07,2.07,0,0,0,2.77-.26l1.58-1.81a1.76,1.76,0,0,0-.29-2.58l-8.22-6.21Z"/><path class="cls-27" d="M157.68,204.22c-2-1.07-5.89-2.64-6.88-1.5s1.45,4.37,3,6l.56.59,4.06-4.65Z"/><polygon class="cls-25" points="180.28 209.42 177.54 212.56 174.71 210.42 177.45 207.28 180.28 209.42"/><path class="cls-26" d="M179.5,208.76l-2.73,3.13a.93.93,0,0,0,.15,1.38,1.11,1.11,0,0,0,1.49-.14l2.73-3.13a.93.93,0,0,0-.16-1.38A1.1,1.1,0,0,0,179.5,208.76Z"/><path class="cls-26" d="M165.83,204.89l8.22,6.21a2.07,2.07,0,0,0,2.77-.27L178.4,209a1.76,1.76,0,0,0-.29-2.58l-8.22-6.21Z"/><path class="cls-27" d="M169.16,199.84c-2-1.08-5.89-2.64-6.88-1.5s1.45,4.36,3,6l.57.59,4.06-4.66Z"/><polygon class="cls-25" points="190.99 204.46 188.25 207.6 185.42 205.46 188.16 202.32 190.99 204.46"/><path class="cls-26" d="M190.21,203.79l-2.73,3.13a1,1,0,0,0,.15,1.39,1.12,1.12,0,0,0,1.49-.15l2.73-3.12a.94.94,0,0,0-.16-1.39A1.11,1.11,0,0,0,190.21,203.79Z"/><path class="cls-26" d="M176.54,199.92l8.22,6.21a2.07,2.07,0,0,0,2.77-.26l1.58-1.81a1.76,1.76,0,0,0-.29-2.58l-8.22-6.21Z"/><path class="cls-27" d="M179.87,194.87c-2-1.07-5.89-2.64-6.88-1.5s1.45,4.37,3,6l.57.59,4.06-4.65Z"/><polygon class="cls-24" points="215.48 157.87 255 140.99 262.58 144.22 232.1 161.97 215.48 157.87"/><polygon class="cls-25" points="201.63 198.84 198.89 201.98 196.06 199.84 198.8 196.7 201.63 198.84"/><path class="cls-26" d="M200.84,198.18l-2.72,3.13a.93.93,0,0,0,.15,1.38,1.11,1.11,0,0,0,1.49-.14l2.73-3.13a.93.93,0,0,0-.16-1.38A1.11,1.11,0,0,0,200.84,198.18Z"/><path class="cls-26" d="M187.18,194.31l8.22,6.21a2.05,2.05,0,0,0,2.76-.27l1.58-1.81a1.75,1.75,0,0,0-.28-2.58l-8.22-6.21Z"/><path class="cls-27" d="M190.51,189.26c-2-1.08-5.89-2.64-6.88-1.5s1.44,4.36,3,6l.57.59,4.06-4.66Z"/><ellipse class="cls-9" cx="314.58" cy="157.69" rx="4.6" ry="4.27" transform="translate(2.12 319.53) rotate(-54.01)"/><ellipse class="cls-11" cx="314.64" cy="157.83" rx="3.06" ry="2.85" transform="matrix(0.59, -0.81, 0.81, 0.59, 2.03, 319.64)"/><ellipse class="cls-9" cx="4.39" cy="138.79" rx="4.6" ry="4.27" transform="translate(-110.48 60.77) rotate(-54.01)"/><ellipse class="cls-11" cx="4.45" cy="138.93" rx="3.06" ry="2.85" transform="translate(-110.57 60.88) rotate(-54.01)"/><path class="cls-6" d="M133.45,111.77s2.53,7.11,5.11,10.69c1.26,1.75,2.54,2.65,3.54,1.45,2.35-2.79,5.39-10,6.65-13.1.38-.93.6-1.51.6-1.51a68.17,68.17,0,0,0,3,9.55c.92,2.1,1.94,3.67,2.92,3.56,2.78-.31,11.64-2.64,13.05-8s-2.34-1.7-4.87.55-15.74,9-21.9,5.12"/></g></g></g></svg>