<svg xmlns="http://www.w3.org/2000/svg" viewBox="0 0 196.43 97.02"><defs><style>.cls-1{fill:none;}.cls-2{fill:#3c230d;}.cls-3,.cls-4,.cls-5{fill:#9c5a24;}.cls-15,.cls-17,.cls-33,.cls-4,.cls-43,.cls-53,.cls-55,.cls-59{opacity:0.5;}.cls-14,.cls-15,.cls-16,.cls-27,.cls-29,.cls-33,.cls-38,.cls-39,.cls-4,.cls-40,.cls-43,.cls-44,.cls-5,.cls-50,.cls-51,.cls-53,.cls-55,.cls-56,.cls-59,.cls-6{isolation:isolate;}.cls-27,.cls-5,.cls-51{opacity:0.8;}.cls-6{fill:#eed960;}.cls-16,.cls-29,.cls-40,.cls-50,.cls-6,.cls-8{opacity:0.6;}.cls-7{fill:#eae6cb;}.cls-16,.cls-9{fill:#b1a18c;}.cls-10,.cls-38,.cls-39,.cls-40{fill:#7f1926;}.cls-11{fill:#d2c466;}.cls-12{fill:#b59a6f;}.cls-13,.cls-14{fill:#2c5e3d;}.cls-14,.cls-39{opacity:0.3;}.cls-15,.cls-20{fill:#2c513c;}.cls-18{fill:#3d0924;}.cls-19{fill:#172d20;}.cls-21{fill:#4a9862;}.cls-22{fill:#542612;}.cls-23{fill:#881c21;}.cls-24{fill:#a11f24;}.cls-25{fill:#1b3059;}.cls-26{fill:#10223e;}.cls-27{fill:#71979b;}.cls-28{fill:#dce0e4;}.cls-29,.cls-58{fill:#73411e;}.cls-30{fill:#f2921a;}.cls-31,.cls-51{fill:#bb8835;}.cls-32,.cls-33{fill:#7d181f;}.cls-34{fill:#211525;}.cls-35{fill:#722e1c;}.cls-36{fill:#733e1e;}.cls-37{fill:#844d23;}.cls-38,.cls-44,.cls-56{opacity:0.4;}.cls-41,.cls-50,.cls-59{fill:#f0d378;}.cls-42,.cls-43,.cls-44{fill:#d08836;}.cls-45{fill:#040000;}.cls-46{fill:#e7dec2;}.cls-47{fill:#641014;}.cls-48{fill:#df1815;}.cls-49{fill:#f8e98c;}.cls-52,.cls-53{fill:#5b2565;}.cls-54,.cls-55{fill:#5b1d87;}.cls-56{fill:#822188;}.cls-57{fill:#c47a16;}.cls-60{fill:#fff;}</style></defs><title>設施介紹-資產 8</title><g id="圖層_2" data-name="圖層 2"><g id="圖層_1-2" data-name="圖層 1"><rect class="cls-1" width="196.43" height="97.02"/><g id="Layer_1" data-name="Layer 1"><path class="cls-2" d="M110.44,91.38c26.44-.42,21.73-12.63,21.73-12.63s-3.26-5.87-6.31-5.38-2.92,4.75-2.92,4.75l-5.58,1.62-6.43-5.59-1.34.28-2,10.3-5.07.43L94.28,74.52l-2.23.23-2,9.83H82.8L76.93,73.89l-.83.1-.62,3-.92.07c-1.78-.22-2.36-4.3-2.36-4.3a5.28,5.28,0,0,0-5.67,1L64.9,70.06s-4.71-1.5-1.46,8.62S84,91.82,110.44,91.38Z"/><polygon class="cls-3" points="97.11 14.66 125.86 74.08 127.3 73.5 98.1 13.85 97.11 14.66"/><polygon class="cls-4" points="97.11 14.66 125.86 74.08 127.3 73.5 98.1 13.85 97.11 14.66"/><path class="cls-5" d="M126,72.15c-.69-1.14-18.33-37-19.28-38.79a.83.83,0,0,1,.18-1.16l.11-.07L98.1,13.85l-1,.81,28.72,59.42,1.46-.57-.49-1A.67.67,0,0,1,126,72.15Z"/><path class="cls-3" d="M123.86,77.62s-.64-3,1.52-4.18,4.83-.08,5.26,1.8c0,0-.36,1.73-3,2.23A8.43,8.43,0,0,1,123.86,77.62Z"/><path class="cls-3" d="M129.6,73.71a.89.89,0,0,1-.19.93c-.49.49-1,.09-1.5-.19-.75-.43-1.44-.07-2.18.18-.37.49-.94,1.22-1.52.66a.88.88,0,0,1-.19-.24,5.45,5.45,0,0,0-.16,2.57,8.43,8.43,0,0,0,3.75-.15c2.67-.5,3-2.23,3-2.23A2.64,2.64,0,0,0,129.6,73.71Z"/><path class="cls-3" d="M128.55,75.14a1.59,1.59,0,1,1-1.63-1.54h0a1.56,1.56,0,0,1,1.59,1.54Z"/><path class="cls-3" d="M128.22,75.26a1.43,1.43,0,1,1-1.43-1.41h0a1.41,1.41,0,0,1,1.43,1.41Z"/><path class="cls-6" d="M125.66,75.53a1.65,1.65,0,0,1,1.42-1.24,2.4,2.4,0,0,1,.91.2,1.42,1.42,0,0,0-2.61.77,1.37,1.37,0,0,0,.16.66A2.91,2.91,0,0,1,125.66,75.53Z"/><path class="cls-3" d="M127.68,75.32a.91.91,0,0,1-.88.94.9.9,0,0,1-.94-.89.91.91,0,0,1,.88-.94h0a.89.89,0,0,1,.91.88Z"/><path class="cls-3" d="M127.48,75.38a.82.82,0,1,1-.82-.81h0a.81.81,0,0,1,.81.81Z"/><path class="cls-6" d="M126.64,74.89a1.28,1.28,0,0,1,.53-.15.78.78,0,0,0-.48-.17.81.81,0,0,0-.41,1.52A.9.9,0,0,1,126.64,74.89Z"/><polygon class="cls-3" points="98.34 12.7 72.57 73.47 71.1 72.96 97.31 11.93 98.34 12.7"/><polygon class="cls-4" points="98.34 12.7 72.57 73.47 71.1 72.96 97.31 11.93 98.34 12.7"/><path class="cls-5" d="M72.3,71.55c.62-1.18,16.47-37.87,17.33-39.7a.81.81,0,0,0-.22-1.14l-.13-.07,8-18.71,1,.77L72.57,73.47,71.11,73l.46-1A.68.68,0,0,0,72.3,71.55Z"/><path class="cls-3" d="M74.56,77s.65-3-1.51-4.18-4.83-.08-5.27,1.8c0,0,.36,1.73,3,2.24A8.49,8.49,0,0,0,74.56,77Z"/><path class="cls-3" d="M68.83,73.13a.85.85,0,0,0,.19.93c.48.49,1,.09,1.49-.18.75-.44,1.44-.08,2.18.17.38.52.94,1.23,1.53.66a1.08,1.08,0,0,0,.18-.24A5.21,5.21,0,0,1,74.56,77a8.49,8.49,0,0,1-3.75-.14c-2.67-.5-3-2.24-3-2.24A2.73,2.73,0,0,1,68.83,73.13Z"/><path class="cls-3" d="M69.87,74.57a1.59,1.59,0,0,0,1.54,1.63,1.59,1.59,0,0,0,.1-3.17h-.05a1.56,1.56,0,0,0-1.59,1.54Z"/><path class="cls-3" d="M70.21,74.69a1.42,1.42,0,1,0,1.42-1.42h0A1.41,1.41,0,0,0,70.21,74.69Z"/><path class="cls-6" d="M72.77,75c-.25-.62-.68-1.25-1.43-1.25a2.56,2.56,0,0,0-.9.2,1.42,1.42,0,0,1,2.61.78,1.38,1.38,0,0,1-.17.66A1.9,1.9,0,0,0,72.77,75Z"/><path class="cls-3" d="M70.74,74.74a.92.92,0,0,0,.88,1,.93.93,0,0,0,.95-.89.91.91,0,0,0-.88-.94h0A.89.89,0,0,0,70.74,74.74Z"/><path class="cls-3" d="M70.93,74.83a.82.82,0,1,0,.83-.81h0A.82.82,0,0,0,70.93,74.83Z"/><path class="cls-6" d="M71.78,74.34a1.2,1.2,0,0,0-.53-.15.81.81,0,1,1,1,1.26l-.12.09a.9.9,0,0,0-.38-1.2Z"/><path class="cls-7" d="M48.35,62.32c-.33-.17-.67-.33-1-.48a.06.06,0,0,0-.08,0h0a2.88,2.88,0,0,0,0,1.17v0h0a.08.08,0,0,0,.1.07h0a.09.09,0,0,0,.09-.05h0a3.09,3.09,0,0,0,.42-.25,1.85,1.85,0,0,0,.46-.33.12.12,0,0,0,0-.17Z"/><path class="cls-7" d="M49.59,61.71a1.65,1.65,0,0,0-.47-.35,1.42,1.42,0,0,0-.48-.23.06.06,0,0,0-.08,0,.05.05,0,0,0,0,0c0,.39-.15.76-.14,1.14a.1.1,0,0,0,.11.1h0a6.43,6.43,0,0,1,.71-.32c.12,0,.33-.09.33-.24A.13.13,0,0,0,49.59,61.71Z"/><path class="cls-7" d="M50.73,61.28h0a.07.07,0,0,0,0-.1,2.43,2.43,0,0,0-.34-.3,3,3,0,0,0-.39-.32h0s-.05,0-.06,0v0c-.06.29-.07.6-.11.9,0,.06,0,.13.1.11a2.29,2.29,0,0,0,.83-.29h0Z"/><path class="cls-7" d="M51.18,59.45h-.44a.83.83,0,0,0-.41.07.09.09,0,0,0,0,.12,1,1,0,0,0,.22.36.89.89,0,0,0,.29.32,0,0,0,0,0,.06,0v0h0c.19-.18.19-.48.35-.66a.1.1,0,0,0,0-.14.1.1,0,0,0-.13,0Z"/><path class="cls-7" d="M49.42,59.79a7.32,7.32,0,0,1-.93-.09.11.11,0,1,0,0,.21h0a3.66,3.66,0,0,0,.31.49.9.9,0,0,0,.33.34.09.09,0,0,0,.11,0,1.64,1.64,0,0,0,.25-.81C49.5,59.85,49.48,59.79,49.42,59.79Z"/><path class="cls-7" d="M47.85,60.92c.06-.3.16-.58.25-.88a.1.1,0,0,0-.08-.1h0c-.27,0-.55.06-.82.06a.09.09,0,0,0-.09.11.09.09,0,0,0,0,.06.8.8,0,0,0,.23.37,4.06,4.06,0,0,0,.44.49.05.05,0,0,0,.08-.06Z"/><path class="cls-7" d="M46.54,60.12a5.66,5.66,0,0,0-.72.08,2.63,2.63,0,0,0-.49.07.11.11,0,0,0,0,.2h0c.16,0,.28.37.35.48a1.26,1.26,0,0,0,.33.54.11.11,0,0,0,.15,0,1.07,1.07,0,0,0,.2-.52c0-.26.2-.48.27-.75a.09.09,0,0,0-.09-.1Z"/><g class="cls-8"><path class="cls-9" d="M48.35,62.32l-.55-.27a.45.45,0,0,1-.43.34h-.16a3.08,3.08,0,0,0,.07.68v0h0a.08.08,0,0,0,.1.06h0a.1.1,0,0,0,.09-.06h0a4.49,4.49,0,0,0,.42-.24,1.89,1.89,0,0,0,.46-.34.11.11,0,0,0,0-.16Z"/><path class="cls-9" d="M49.59,61.71a1.65,1.65,0,0,0-.47-.35l0,0a.41.41,0,0,1-.42.4.57.57,0,0,1-.18,0,2.62,2.62,0,0,0-.07.62.1.1,0,0,0,.11.1h0a6.43,6.43,0,0,1,.71-.32c.12,0,.33-.09.33-.24A.13.13,0,0,0,49.59,61.71Z"/><path class="cls-9" d="M50.73,61.2a3.39,3.39,0,0,0-.34-.31l-.17-.18A.26.26,0,0,1,50,61h0a.2.2,0,0,1-.13,0,4.69,4.69,0,0,1-.06.54c0,.06,0,.13.1.12a2.13,2.13,0,0,0,.83-.3h0A.08.08,0,0,0,50.73,61.2Z"/><path class="cls-9" d="M51.18,59.45h-.44a.83.83,0,0,0-.41.07.09.09,0,0,0,0,.12,1,1,0,0,0,.22.36l.08.12a.27.27,0,0,1,.29-.13.19.19,0,0,1,.14.09,2.16,2.16,0,0,1,.22-.49.09.09,0,0,0,0-.13A.12.12,0,0,0,51.18,59.45Z"/><path class="cls-9" d="M48.93,60.25a.42.42,0,0,1,.49.06,2,2,0,0,0,.07-.42s0-.1-.07-.1a7.3,7.3,0,0,1-.94-.09c-.14,0-.17.18,0,.21h.05a3.64,3.64,0,0,0,.3.46A.53.53,0,0,1,48.93,60.25Z"/><path class="cls-9" d="M47.35,60.54a.44.44,0,0,1,.61,0c0-.15.09-.31.14-.46a.1.1,0,0,0-.08-.1h0c-.27,0-.55.06-.82.06a.09.09,0,0,0-.09.11.09.09,0,0,0,0,.06A.8.8,0,0,0,47.35,60.54Z"/><path class="cls-9" d="M45.73,61.08a.46.46,0,0,1,.49-.22.37.37,0,0,1,.14.07c.06-.24.2-.45.27-.7a.12.12,0,0,0-.09-.11h0a5.66,5.66,0,0,0-.72.08,2.63,2.63,0,0,0-.49.07.11.11,0,0,0,0,.2h0c.15,0,.27.37.34.48A.69.69,0,0,1,45.73,61.08Z"/></g><path class="cls-10" d="M61.84,66.15A4.52,4.52,0,0,0,61,64.69h0c.32.12.48.48.81.63a.1.1,0,0,0,.13,0s0,0,0,0a3.42,3.42,0,0,0-.35-1.91,3.76,3.76,0,0,0-.65-1l.25.13a1,1,0,0,0,.54.24.1.1,0,0,0,.09-.11,3.07,3.07,0,0,0-1.21-2.27c.29.11.55.28.85.37a.1.1,0,0,0,.13-.05.07.07,0,0,0,0,0,3.82,3.82,0,0,0-.25-1.15,3.63,3.63,0,0,0-.58-1.08,3,3,0,0,0-1.56-1.07,2.57,2.57,0,0,0,.55-.38c.14-.13.66-.82.37-1a.11.11,0,0,0-.14,0l0,0a1.85,1.85,0,0,1-1.65.29c-.45-.08-.82-.48-1.28-.48a2.12,2.12,0,0,0-1.69.76h0c-.06,0-.06.09,0,.1,1.72.49,2.6,2.23,3.17,3.8a11.67,11.67,0,0,1,.63,3.41,16.31,16.31,0,0,1,0,1.85c0,.62-.11,1.34-.17,2a.14.14,0,0,0,0,.09s0,.06.06.08c.59.27,1.2,0,1.82.13.32,0,1,.15,1.14-.26A2.36,2.36,0,0,0,61.84,66.15Z"/><path class="cls-10" d="M61.91,66.34a1.4,1.4,0,0,1-.64-.18.81.81,0,0,1-.33-.58c0-.14-.08-.42.11-.49a.3.3,0,0,1,.26,0,4.59,4.59,0,0,0-.33-.44h0c.33.12.49.49.82.63a.09.09,0,0,0,.12,0s0,0,0,0A1.15,1.15,0,0,0,62,65a.19.19,0,0,1-.13.1c-.2.06-.32-.23-.4-.35-.22-.3-.58-.49-.76-.8s-.1-.75-.19-1.09c0-.15-.14-.45.05-.56s.41.1.53.2l.09.09a1.33,1.33,0,0,0-.21-.26l.24.12a1,1,0,0,0,.54.25.11.11,0,0,0,.1-.11v-.19a.27.27,0,0,1-.23,0c-.3-.17-.52-.42-.84-.57a1,1,0,0,1-.51-1.12c.06-.36.34-.3.59-.17l-.21-.18c.24.09.48.22.7.31-.11-.11-.23-.24-.35-.34a6.76,6.76,0,0,0-.7-.49,1.27,1.27,0,0,1-.39-.75,7.67,7.67,0,0,0-.38-.89,2.85,2.85,0,0,1-.26-.56.23.23,0,0,1,.15-.28h0l-.19-.07a2.57,2.57,0,0,0,.55-.38l.17-.21a2,2,0,0,1-.68.18,1.78,1.78,0,0,1-1.25-.4.62.62,0,0,1-.29-.55,1.68,1.68,0,0,0-.68-.24,2.16,2.16,0,0,0-1.69.77h0c-.06,0-.06.08,0,.1,1.72.49,2.6,2.22,3.17,3.8a11.61,11.61,0,0,1,.63,3.4,16.31,16.31,0,0,1,0,1.85c0,.62-.11,1.35-.17,2a.14.14,0,0,0,0,.09.11.11,0,0,0,.06.09c.59.26,1.2,0,1.82.13.32.05,1,.15,1.14-.27A2.12,2.12,0,0,0,61.91,66.34Z"/><path class="cls-11" d="M53.24,63.72l.34,3.7,1.92.1-.7-4.35A3.94,3.94,0,0,1,53.24,63.72Z"/><path class="cls-12" d="M53.63,66.1s0-.07,0-.07a9,9,0,0,0,1.47-.23c-.52,0-1,0-1.53.06a.08.08,0,0,1-.08,0c0-.25,0-.38-.05-.63a.08.08,0,0,1,0-.11l0,0a10.19,10.19,0,0,0,1.19-.27c-.26,0-1,0-1.22,0a.06.06,0,0,1-.07,0,4.35,4.35,0,0,1,0-.72.08.08,0,0,1,0-.07c.42-.12,1.1-.2,1.38-.6l0-.22a3.89,3.89,0,0,1-1.56.55l.34,3.7h.25A5.83,5.83,0,0,1,53.63,66.1Z"/><path class="cls-13" d="M60.38,67.29c0-.82-.06-1.63-.15-2.44L60,62.09a8.78,8.78,0,0,0-1.21-4.34,3.58,3.58,0,0,0-1.41-1.32,4.24,4.24,0,0,0-1.11-.3,6.91,6.91,0,0,1-1.29-.4,1.52,1.52,0,0,0-1.69.07c-.25.22-.42.49-.66.73l-.12.11a21.25,21.25,0,0,1-2.75.32,11.81,11.81,0,0,0-2.43.44.87.87,0,0,0-.49-.35c-.42-.09-.62.4-.74.83a5.69,5.69,0,0,0-1,1.06,4.07,4.07,0,0,0-.84,1.32.08.08,0,0,0,0,.09.67.67,0,0,0,.08.3.82.82,0,0,0,.24.25h0c.21.25.66,0,.91-.06a15.66,15.66,0,0,1,2.15-.52c1.46-.32,3-.4,4.48-.59a4.87,4.87,0,0,1-1.37,1l-1.69,1c-.57.34-1.14.67-1.73,1a2.82,2.82,0,0,0-.44.26c-.13.09-.34.21-.51.33a0,0,0,0,0,0,0c-.16.13,0,.48.1.63a.33.33,0,0,0,.13.13h0a.76.76,0,0,0,.26,0h.37C49.12,64,51,64,52.93,63.78a6,6,0,0,0,.94-.16A8.71,8.71,0,0,0,54,66.5c.05.27-.14.66.11.88a1.07,1.07,0,0,0,.69.21,7.22,7.22,0,0,0,.93,0c.41,0,.84,0,1.25,0a12.45,12.45,0,0,0,3.17-.22.09.09,0,0,0,.13,0,.09.09,0,0,0,0-.07h0A.07.07,0,0,0,60.38,67.29Z"/><path class="cls-14" d="M60.38,67.29c0-.82-.06-1.63-.15-2.44L60,62.09a8.78,8.78,0,0,0-1.21-4.34,3.58,3.58,0,0,0-1.41-1.32,4.24,4.24,0,0,0-1.11-.3A6.72,6.72,0,0,1,55,55.75a1.36,1.36,0,0,0,1.2,1.46c.55.11,1.18,0,1.67.38a5.21,5.21,0,0,1,1.51,3,14.4,14.4,0,0,1,.3,2.44c0,.46.06.91.06,1.37a6.65,6.65,0,0,0,0,1.18c.06.3.14.76-.27.81-.25,0-.3-.36-.39-.56a.88.88,0,0,1-.94.59c-.45,0-.43-.45-.55-.79-.27.52-.92,1.21-1.32.53-.32.21-.8.29-.74-.24a.49.49,0,0,1,.48-.5.63.63,0,0,1,.19,0,3.42,3.42,0,0,1-.13-.84c-.15.14-.34.3-.54.24s-.22-.42-.23-.59-.05-.64.18-.72a.66.66,0,0,1,.46,0,1.56,1.56,0,0,1-.32-.52c-.09-.34.12-.66.19-1a3.21,3.21,0,0,0-.4-2,2.62,2.62,0,0,1-.83,2,4.94,4.94,0,0,1-2.75.88c-1.35.1-2.71.28-4.06.37a1.83,1.83,0,0,1-1.17-.22l-.26.17c-.09.07,0,0,0,0-.16.13,0,.48.1.63a.33.33,0,0,0,.13.13h0a.76.76,0,0,0,.26,0h.37C49.13,64,51,64,52.94,63.78a6,6,0,0,0,.94-.16A9,9,0,0,0,54,66.5c.06.27-.13.66.12.88a1.07,1.07,0,0,0,.69.21,7.22,7.22,0,0,0,.93,0c.41,0,.84,0,1.25,0a12.45,12.45,0,0,0,3.17-.22.09.09,0,0,0,.13,0,.09.09,0,0,0,0-.07h0S60.38,67.31,60.38,67.29Z"/><path class="cls-15" d="M47.48,57.66a1.71,1.71,0,0,1-.21-.26.77.77,0,0,0-.48-.35c-.32-.06-.49.19-.64.49a.2.2,0,0,1,0,.16v0a2.14,2.14,0,0,1-.09.34h0L46,58.3s0,0,0,0c.09-.22.19-.43.3-.64s.15-.26.23-.38.33-.06.46,0a9.82,9.82,0,0,1,.77.81h0A3.46,3.46,0,0,0,47.48,57.66Z"/><path class="cls-15" d="M60.23,64.83,60,62.07a8.84,8.84,0,0,0-1.21-4.35,3.65,3.65,0,0,0-1.41-1.29,4.24,4.24,0,0,0-1.11-.3,6.91,6.91,0,0,1-1.29-.4,1.52,1.52,0,0,0-1.69.07,2.79,2.79,0,0,0-.37.4,2.9,2.9,0,0,1-.49.56,1.45,1.45,0,0,1-.87.34,0,0,0,0,0,0,0,2.27,2.27,0,0,0,1.14-.45h0a2.89,2.89,0,0,0,.25-.24,2.35,2.35,0,0,1,.71-.66c.4-.18.91.06,1.28.2.73.29,1.47.36,2.21.62a3.4,3.4,0,0,1,1.54,1.46,8.86,8.86,0,0,1,1.07,4.31c.15,1.67.29,3.35.43,5,0,.12.16.1.17,0A20,20,0,0,0,60.23,64.83Z"/><path class="cls-15" d="M52.28,59.53c-.67,0-1.34.14-2,.22s-1.43.15-2.14.27a17.88,17.88,0,0,0-2,.49l-.24.06q-.28.1-.57.18l-.2.07a.76.76,0,0,1-.69,0l.15.13h0c.21.25.67,0,.91-.06a15.73,15.73,0,0,1,2.15-.54c1.46-.32,3-.4,4.48-.59a4.87,4.87,0,0,1-1.37,1l-1.37.81.66-.36c.52-.29,1-.65,1.58-.93A3.6,3.6,0,0,0,52.28,59.53Z"/><path class="cls-15" d="M55.54,60.86h0a2.93,2.93,0,0,1-.17,1.49,1.94,1.94,0,0,1-.88.82,5.26,5.26,0,0,1-2.07.43c-.87,0-1.72.09-2.59.11a19,19,0,0,0-2.82.21H46.9a.37.37,0,0,1-.33-.11.45.45,0,0,1-.13-.1.61.61,0,0,1-.19-.33.83.83,0,0,0,.16.53.3.3,0,0,0,.13.12h0a.77.77,0,0,0,.26,0h.37C49.09,64,51,64,52.9,63.78A3.9,3.9,0,0,0,55,63.09,2,2,0,0,0,55.54,60.86Z"/><path class="cls-7" d="M55.07,55.93s0,.63,1,.8,1.11,0,1.11,0,.72-1.37.94-1.9.17-.67.07-.79-.49,0-.92.38S55.07,55.93,55.07,55.93Z"/><path class="cls-16" d="M58.17,54h0c.07.36-.72,1.34-.84,1.46a3.6,3.6,0,0,1-1,1,.91.91,0,0,1-1.15-.34c.07.2.28.53,1,.64,1,.17,1.11,0,1.11,0s.72-1.37.93-1.9S58.27,54.13,58.17,54Z"/><g class="cls-17"><path class="cls-9" d="M55.08,55.92h0s0,.63,1,.8,1.1,0,1.11,0A2.31,2.31,0,0,1,55.08,55.92Z"/><path class="cls-9" d="M57.72,54.08l-.07,0a.38.38,0,0,0,.44.32A.5.5,0,0,1,57.72,54.08Z"/><path class="cls-9" d="M57.59,55a.63.63,0,0,1-.49-.44l-.05,0c0,.38.55.56.94.49L58,55A.86.86,0,0,1,57.59,55Z"/><path class="cls-9" d="M56.2,55.17l-.11.06c0,.34.41.53.71.64a1.89,1.89,0,0,0,.75.09l.05-.12C57.05,56,56.18,55.67,56.2,55.17Z"/></g><path class="cls-18" d="M54.28,57.37c0,.45-.06.83-.23.85s-.32-.35-.36-.81.06-.83.22-.85S54.24,56.91,54.28,57.37Z"/><path class="cls-19" d="M47.07,58.28a2,2,0,0,0-.17-.36c0-.07-.11-.25-.21-.24h0s0,0-.07,0h0a2.51,2.51,0,0,0-.1.77.09.09,0,0,0,.09.07h0c.1,0,.48-.05.48-.19h0S47.07,58.3,47.07,58.28Z"/><g class="cls-17"><path class="cls-20" d="M57.52,58s0,0,0,0a2.1,2.1,0,0,1,.75.76c.21.43,0,.71-.39.93,0,0,0,.08,0,.07C59.06,59.52,58.4,58.07,57.52,58Z"/><path class="cls-20" d="M58.08,60.71s0,0,0,0c.77.28.65,1,.13,1.5,0,0,0,.1,0,.08a1,1,0,0,0,.59-.89A.84.84,0,0,0,58.08,60.71Z"/><path class="cls-20" d="M58.39,63.21s0,0,0,.06c.8.42.48,1.17,0,1.72,0,0,0,.11.06.08C59.19,64.69,59.32,63.42,58.39,63.21Z"/><path class="cls-20" d="M58.89,65.33c.58.27.14.87-.1,1.21,0,0,0,.06,0,0,.46-.22.71-1.14.07-1.3Z"/><path class="cls-20" d="M55.65,63.41s0,0,0,.05c.67.32.54,1.12.16,1.62,0,0,0,0,0,0A1,1,0,0,0,55.65,63.41Z"/><path class="cls-20" d="M56,65.23a0,0,0,1,0-.05,0h0c.45.22.28.76.08,1.09,0,0,0,.05,0,0a.7.7,0,0,0,.17-1A.74.74,0,0,0,56,65.23Z"/><path class="cls-20" d="M57.61,65.22a1,1,0,0,0-.59-.69s0,0,0,0a1.18,1.18,0,0,1,.43.53.6.6,0,0,1-.25.75s0,.07,0,.06A.62.62,0,0,0,57.61,65.22Z"/><path class="cls-20" d="M57.46,62.7a.8.8,0,0,0-.64-.61l0,0s0,0,0,0a.8.8,0,0,1,.49.54c.1.28-.06.48-.24.68a0,0,0,0,0,0,.06h0A.62.62,0,0,0,57.46,62.7Z"/><path class="cls-20" d="M56.76,59.68a0,0,0,0,0,0,0l0,0a.58.58,0,0,1,.36.48.94.94,0,0,1-.26.61s0,.06,0,.05a.7.7,0,0,0,.34-.67A.54.54,0,0,0,56.76,59.68Z"/></g><path class="cls-21" d="M56,64.67a.61.61,0,0,0,0-.65c-.11-.27-.32-.49-.46-.49A1.51,1.51,0,0,1,56,64.67Z"/><path class="cls-21" d="M54.73,56.1a1.16,1.16,0,0,0-1-.29c-.42.12-.65.62-.87,1,0,0,0,.05,0,0a5.61,5.61,0,0,1,.64-.65c.36-.29.72-.11,1.1,0C54.72,56.16,54.76,56.12,54.73,56.1Z"/><path class="cls-21" d="M45.56,58.45a10.24,10.24,0,0,0-1,1.23.71.71,0,0,0,0,.91s0,0,0,0c-.22-.37.19-.84.39-1.13s.45-.63.68-1c0,0,0,0,0,0S45.56,58.43,45.56,58.45Z"/><path class="cls-21" d="M46.41,57.33a1.64,1.64,0,0,0-.28.73h0c.1-.17.18-.33.29-.49a.41.41,0,0,1,.19-.18c.08,0,.19.06.25.11h0s0,0,0,0h0a.29.29,0,0,0-.33-.24A.31.31,0,0,0,46.41,57.33Z"/><path class="cls-21" d="M49.76,57.09a5.9,5.9,0,0,0-1.19.06c-.37.06-.72.23-1.09.26h0a2.9,2.9,0,0,0,1-.11c.43-.08.86-.13,1.3-.17C49.78,57.14,49.79,57.09,49.76,57.09Z"/><path class="cls-21" d="M55.28,59.69a2.6,2.6,0,0,0-1.06-1.07,1.55,1.55,0,0,0-1.08-.08,3,3,0,0,1,1.43,1.39,2.14,2.14,0,0,1,.23.54,2.73,2.73,0,0,1,0,1.74A2,2,0,0,0,55.28,59.69Z"/><path class="cls-21" d="M58.1,58.59A1.43,1.43,0,0,0,56.89,58a1.25,1.25,0,0,1,.66,1.62.68.68,0,0,0,.62-.73A.59.59,0,0,0,58.1,58.59Z"/><path class="cls-21" d="M57,60.08a1.1,1.1,0,0,0-.88-.49,1.13,1.13,0,0,1,.62.83.93.93,0,0,1-.14.54.61.61,0,0,0,.45-.73A.88.88,0,0,0,57,60.08Z"/><path class="cls-21" d="M58.54,61.26a.88.88,0,0,0-.92-.55,1.72,1.72,0,0,1,.57,1.62A1,1,0,0,0,58.54,61.26Z"/><path class="cls-21" d="M57.33,62.66a.85.85,0,0,0-1-.54,1.6,1.6,0,0,1,.58.88,2,2,0,0,1,0,.77A1.17,1.17,0,0,0,57.33,62.66Z"/><path class="cls-21" d="M58.84,63.84a.77.77,0,0,0-.76-.67,2.16,2.16,0,0,1,.14,2,.24.24,0,0,0,.13-.07A1.33,1.33,0,0,0,58.84,63.84Z"/><path class="cls-21" d="M57.46,65.26a.87.87,0,0,0-.52-.65,1.5,1.5,0,0,1,.12,1.49,1,1,0,0,0,.26-.23A.79.79,0,0,0,57.46,65.26Z"/><path class="cls-21" d="M59.14,65.61a.48.48,0,0,0-.53-.29h0a.92.92,0,0,1,.08,1A.68.68,0,0,0,59.14,65.61Z"/><path class="cls-22" d="M101.05,96c19.42,0,35.38-1.83,43.84-9.91s8.85-16.73,8.85-16.73H132.88v3.37c0,2-.68,5.19-5.87,5.84a43.36,43.36,0,0,1-9,.29l-.77-3.27-5.67-.07L109.8,85.84l-6.92.07-2.74-9.8H94.73L93,86H84.27L82.61,75.57h-4.9V78.1S69.43,78,66.82,75.43s-2.67-6.86-2.67-6.86L51.73,68.5s.86,12.5,7.49,19.24S81.63,96,101.05,96Z"/><path class="cls-23" d="M153,73.25a18.34,18.34,0,0,0,.76-3.89H132.88v3.85Z"/><polygon class="cls-24" points="100.44 77.19 100.14 76.13 94.73 76.13 94.54 77.19 100.44 77.19"/><polygon class="cls-24" points="117.57 77.19 117.2 75.62 111.53 75.55 111.26 77.19 117.57 77.19"/><path class="cls-24" d="M151.45,77.19a27.27,27.27,0,0,0,1.37-3.41h-20a5,5,0,0,1-1.92,3.41Z"/><path class="cls-24" d="M70.56,77.19a8.48,8.48,0,0,1-3.74-1.78,7.62,7.62,0,0,1-1.23-1.65h-13c.23,1.06.52,2.22.89,3.41Z"/><path class="cls-25" d="M149.15,81.16a28.72,28.72,0,0,0,2-3.41H130.08a9.13,9.13,0,0,1-3.07.9,44.05,44.05,0,0,1-9,.29l-.28-1.19h-6.52l-.57,3.41Z"/><polygon class="cls-25" points="101.54 81.13 100.58 77.71 94.45 77.71 93.85 81.13 101.54 81.13"/><path class="cls-25" d="M83.5,81.16,83,77.75H77.71v.37a38.08,38.08,0,0,1-4.52-.37H53.6a34.25,34.25,0,0,0,1.31,3.41Z"/><polygon class="cls-26" points="102.77 85.56 101.68 81.65 93.76 81.65 93.08 85.56 102.77 85.56"/><path class="cls-26" d="M145.45,85.54a31.83,31.83,0,0,0,3.34-3.9H110.51l-.66,3.9Z"/><path class="cls-26" d="M84.2,85.54l-.62-3.9H55.14a24.43,24.43,0,0,0,2.26,3.9Z"/><path class="cls-25" d="M62.54,90.27h76.34a24.77,24.77,0,0,0,6-4.17l0,0H57.78a19.39,19.39,0,0,0,1.46,1.67A16.25,16.25,0,0,0,62.54,90.27Z"/><path class="cls-26" d="M125.33,94.4a49.54,49.54,0,0,0,12.49-3.62H63.46A40.53,40.53,0,0,0,75.39,94.4Z"/><path class="cls-26" d="M121.89,94.92h-43A183.43,183.43,0,0,0,101.05,96,165.49,165.49,0,0,0,121.89,94.92Z"/><polygon class="cls-24" points="82.88 77.19 82.61 75.55 77.71 75.55 77.71 77.19 82.88 77.19"/><path class="cls-23" d="M65.32,73.25a12.52,12.52,0,0,1-1.17-4.7l-12.42,0a38.06,38.06,0,0,0,.71,4.75Z"/><path class="cls-27" d="M98.36,94.3c48.07,0,50.19-18.07,51.25-20.09s-5.19-1.83-8.08-1.74-5.29,2.69-6.06,4c-3.45,6-14.6,4.81-17.21,5s-4.81.29-5.09,1.73-.49,2.12-1,4-1.24,1.63-3.26,1.63H85.76c-2.21,0-3.26-.1-3.41-1-.22-1.51-.62-7.07-2.36-7.16C66.45,79.89,62.88,75,62.11,72.76s-4.33-1.54-6.44-1.63S50.28,94.3,98.36,94.3Z"/><path class="cls-28" d="M144.14,72.88a4,4,0,0,0-2.56-1,3.16,3.16,0,0,0-2.43.75,2.7,2.7,0,0,0-1.05,1.53,2.32,2.32,0,0,0,.33,1.68c.18.31.42.58.62.88a5.39,5.39,0,0,1,.3.52,1.73,1.73,0,0,1,0,.6c-.05.2-.15.37-.19.56a.5.5,0,0,0,.25.63.81.81,0,0,0,1-.33.33.33,0,0,1,.38.17.71.71,0,0,0,.25.29.86.86,0,0,0,.82-.1c.18-.1.62-.86.79-.4.06.16.11.31.25.35a.71.71,0,0,0,.56.24.64.64,0,0,0,.58-.59,3.36,3.36,0,0,0-.35-.91c-.12-.35.15-.63.41-.91a2.68,2.68,0,0,0,1-1.71A2.8,2.8,0,0,0,144.14,72.88Zm-3.25,3.94a.58.58,0,0,1-.8.16.52.52,0,0,1-.11-.1,1.84,1.84,0,0,1-.52-1.28c0-.49-.1-1.63.63-1.59a.25.25,0,0,1,.16.06.73.73,0,0,1,.51.28,2.3,2.3,0,0,1,.13,2.46Zm.66.93c0,.09,0,.24-.12.29s-.22-.12-.22-.22a1.41,1.41,0,0,1,.12-.49.07.07,0,0,1,.1,0s0,0,0,0,.05,0,.06,0A1.53,1.53,0,0,1,141.55,77.75Zm.48.31a.08.08,0,0,1-.1,0c-.16-.22-.07-.49-.09-.73a.08.08,0,0,1,.07-.08h0a.08.08,0,0,1,.11,0c.21.19.28.66,0,.82Zm1.46-1.69c-.13.34-.39.67-.79.49a1.07,1.07,0,0,1-.54-.88c-.08-.59-.08-2,.81-1.92a.14.14,0,0,1,.09,0h0c.45,0,.6.77.6,1.07a3.68,3.68,0,0,1-.15,1.23Z"/><path class="cls-28" d="M139.12,79.34c-.22-.29-.42-.6-.61-.91a.09.09,0,0,0-.08,0,15.77,15.77,0,0,0-.93,1.33,11.4,11.4,0,0,1-.6,1,.59.59,0,0,0-.8.26.61.61,0,0,0,0,.44.57.57,0,0,0,.7.36.52.52,0,0,0,.18-.1c0,.35.19.72.55.7a.56.56,0,0,0,.58-.52,1.15,1.15,0,0,0-.3-.66c.22-.3.4-.64.61-.94A10,10,0,0,1,139.12,79.34Z"/><path class="cls-28" d="M148.08,79.83a.58.58,0,0,0-.57-.44,1.13,1.13,0,0,0-.71.32c-.39-.31-.79-.61-1.19-.89a4,4,0,0,1-.63-.52,1.22,1.22,0,0,0-.25-.2,2,2,0,0,1-.4,1c.74.56,1.46,1,2.16,1.59a2.58,2.58,0,0,0,0,.68c.06.27.37.32.61.26.56-.14.48-.61.29-1a.64.64,0,0,0,.71-.56A.6.6,0,0,0,148.08,79.83Z"/><path class="cls-28" d="M146.89,71.85a.65.65,0,0,0,.11-.41.84.84,0,0,0-.63-.72c-.55-.17-.56.53-.38.89-.49.33-1,.62-1.52.92a2.67,2.67,0,0,1,.75,1A4.33,4.33,0,0,0,146,73c.17-.13.37-.24.54-.36.36.35,1,.55,1.18-.08S147.32,71.87,146.89,71.85Z"/><path class="cls-28" d="M137.8,73.56h0a1.93,1.93,0,0,1,.59-.87h0a.09.09,0,0,0-.06-.06.06.06,0,0,0,0-.06,16.53,16.53,0,0,0-1.4-1.24,1.19,1.19,0,0,0,.2-.66c0-.33-.44-.43-.71-.42-.56,0-.71.66-.49,1.1a1,1,0,0,0-.62.09.81.81,0,0,0-.27.9c.07.32.3.48.61.33a1.61,1.61,0,0,0,.39-.39l.07-.08c.69.26,1.07,1,1.71,1.33Z"/><path class="cls-28" d="M136.24,71.27l0,0h0l.06,0S136.27,71.25,136.24,71.27Z"/><path class="cls-29" d="M63,70.09a11.85,11.85,0,0,0,2.92,6.52c2.89,2.89,10.9,3,11.8,3h.73a.58.58,0,0,0,.58-.58V77.14h2.5l1.58,10a.56.56,0,0,0,.57.48h10a.56.56,0,0,0,.56-.48L96,77.75h3.2l2.63,9.39a.57.57,0,0,0,.55.42h0l8.08-.08A.59.59,0,0,0,111,87l1.73-9.57,3.54,0,.6,2.87a.59.59,0,0,0,.51.45l.49,0h.43a73.72,73.72,0,0,0,8.91-.65c4.76-.61,7.38-3.1,7.38-7V71.26l18.94,0a14.47,14.47,0,0,0,.27-1.85H132.88v3.37c0,2-.68,5.19-5.87,5.84a44.05,44.05,0,0,1-9,.29l-.77-3.27-5.67-.08L109.8,85.85l-6.92.07-2.74-9.81H94.73L93,86H84.27L82.61,75.57h-4.9V78.1S69.43,78,66.82,75.43s-2.67-6.86-2.67-6.86L51.73,68.5s0,.58.17,1.57Z"/><path class="cls-30" d="M93.61,86.06h-10L82,75.6H78.43v2.53h-.72c-.36,0-8.63-.1-11.4-2.88s-2.87-7.16-2.88-7.34h1.76s.1,3.81,2.43,6.16c1.78,1.78,6.51,2.39,9.14,2.5l.15-2.64h6.27L85.13,84.5l7.21-.14,2-9.81h6.58l2.7,9.9,5.57,0L111,74.18l7.14.09.63,2.92a43.76,43.76,0,0,0,8.17-.34c3.53-.45,5-1.3,5.29-4.76V68.73l1.78,0,.05,3.56c0,3.75-2.64,5.88-6.88,6.43a68.74,68.74,0,0,1-9.18.64l-.51-.06-.69-3.31-4.49,0-1.82,10-8.09.09-2.74-9.81H95.51Z"/><path class="cls-31" d="M133.94,68.65l-1.79,0v1.59a1,1,0,0,1,.88.26,2.33,2.33,0,0,1,.52,1.66,5.29,5.29,0,0,1-1.69,4.08,8.67,8.67,0,0,1-4.79,1.91,71.55,71.55,0,0,1-8.77.63h-.53l-.62-3a.44.44,0,0,0-.42-.34l-4.49-.06h0a.44.44,0,0,0-.43.36l-1.75,9.7-7.41.08L100,76.05a.44.44,0,0,0-.42-.32l-4.12,0a.43.43,0,0,0-.42.35l-1.8,9.51H84L82.43,75.52a.45.45,0,0,0-.43-.37H78.43a.43.43,0,0,0-.43.43v2.1h-.29c-2.92,0-9-.64-11.09-2.76-1.18-1.17-2.66-4.26-2.16-5.51a1,1,0,0,1,.83-.57,8,8,0,0,1-.1-1H63.43c0,.18.11,4.57,2.88,7.34s11,2.88,11.4,2.88h.72V75.56H82l1.66,10.5h10l1.87-9.86H99.6L102.34,86l8.08-.09,1.82-10,4.5.05.68,3.31.51.06h.39a74.1,74.1,0,0,0,8.8-.64c4.24-.55,6.87-2.68,6.87-6.44Z"/><path class="cls-31" d="M65.55,70.17a11.13,11.13,0,0,1-.36-2.3H63.43a12.49,12.49,0,0,0,.3,2.28Z"/><polygon class="cls-31" points="133.97 71.47 133.94 68.65 132.15 68.7 132.15 71.47 133.97 71.47"/><polygon class="cls-24" points="131.96 62.16 131.96 68.36 154.08 68.36 154.08 61.87 131.96 62.16"/><path class="cls-32" d="M133.84,62.93H152.4a2.11,2.11,0,0,1,1.68.85V61.87L132,62.16v1.92A2.14,2.14,0,0,1,133.84,62.93Z"/><path class="cls-33" d="M152.4,67.16H133.84A2.13,2.13,0,0,1,132,66v2.34h22.12v-2A2.11,2.11,0,0,1,152.4,67.16Z"/><rect class="cls-34" x="134.63" y="63.85" width="3.68" height="3.03"/><rect class="cls-35" x="136.26" y="63.97" width="0.32" height="2.72"/><rect class="cls-36" x="134.74" y="65.17" width="3.43" height="0.32"/><path class="cls-37" d="M134.32,63.58v3.51h4.21V63.58Zm3.7,3h-3.2V64.13H138Z"/><polygon class="cls-30" points="134.41 66.87 134.41 63.68 138.43 63.68 138.43 66.87 138.32 63.85 134.51 63.85 134.41 66.87"/><path class="cls-30" d="M134.94,65.28h3A9.43,9.43,0,0,1,134.94,65.28Z"/><rect class="cls-34" x="141.41" y="63.85" width="3.68" height="3.03"/><rect class="cls-35" x="143.04" y="63.97" width="0.32" height="2.72"/><rect class="cls-36" x="141.52" y="65.17" width="3.43" height="0.32"/><path class="cls-37" d="M141.11,63.58v3.51h4.21V63.58Zm3.71,3H141.6V64.13h3.2Z"/><polygon class="cls-30" points="141.19 66.87 141.19 63.68 145.21 63.68 145.21 66.87 145.09 63.85 141.29 63.85 141.19 66.87"/><path class="cls-30" d="M141.73,65.28h3A9.31,9.31,0,0,1,141.73,65.28Z"/><rect class="cls-34" x="147.97" y="63.85" width="3.68" height="3.03"/><rect class="cls-35" x="149.6" y="63.97" width="0.32" height="2.72"/><rect class="cls-36" x="148.08" y="65.17" width="3.43" height="0.32"/><path class="cls-37" d="M147.66,63.58v3.51h4.21V63.58Zm3.7,3h-3.19V64.13h3.19Z"/><polygon class="cls-30" points="147.75 66.87 147.75 63.68 151.77 63.68 151.77 66.87 151.66 63.85 147.85 63.85 147.75 66.87"/><path class="cls-30" d="M148.29,65.28h3A9.37,9.37,0,0,1,148.29,65.28Z"/><path class="cls-10" d="M97.33,2.33s.36,0,1.12-.72a2.26,2.26,0,0,1,3.16-.32c1.27,1,2,1.51,2.64.48S105.37-.35,107,1c0,0-1.08-.57-1.8,1.19s-.54,3.35-1.59,3.86-2.2-.36-2.66-.69a1.47,1.47,0,0,0-1.91.11,2.25,2.25,0,0,1-1.73.69C96.78,6.1,97.33,2.33,97.33,2.33Z"/><path class="cls-10" d="M100.17.77a2.87,2.87,0,0,0-1.72.84l-.1.08V5.91a4.27,4.27,0,0,0,.71-.49,1.6,1.6,0,0,1,1.11-.4Z"/><path class="cls-38" d="M103.68,2.29c-.35.13-.72,0-1.19-.34V6.11a1.66,1.66,0,0,0,1.14-.1l.05,0Z"/><path class="cls-39" d="M101.9,1.51l-.29-.22A2,2,0,0,0,99.32,1V5.25a1.46,1.46,0,0,1,1.65.07,6.31,6.31,0,0,0,.93.58Z"/><path class="cls-40" d="M104.25,1.75h0c0,1.07,0,2.13,0,3.19V5.3c.37-.75.43-1.91.94-3.16C105.94.39,107,1,107,1,105.37-.37,104.93.71,104.25,1.75Z"/><path class="cls-10" d="M98,2a1.63,1.63,0,0,1-.65.34s-.55,3.75,0,3.79A1.8,1.8,0,0,0,98,6.06Z"/><rect class="cls-31" x="96.75" y="1.64" width="0.74" height="5.05"/><rect class="cls-31" x="96.75" y="1.64" width="0.74" height="5.05"/><path class="cls-31" d="M97.5,2.62v-1h-.75v1A1,1,0,0,0,97.5,2.62Z"/><path class="cls-31" d="M96.75,5.7v1h.75v-1A2.14,2.14,0,0,1,96.75,5.7Z"/><path class="cls-31" d="M98.12,1.39a.94.94,0,1,1-1.88,0,.94.94,0,0,1,.93-.94h0A.94.94,0,0,1,98.12,1.39Z"/><path class="cls-31" d="M98.08,1.12v.22a.94.94,0,0,1-.41.53A1,1,0,0,1,97,2a.64.64,0,0,1-.34-.19.83.83,0,0,1-.2-.32.82.82,0,0,1,0-.49,1.36,1.36,0,0,1,.1-.21l.06-.09,0-.05a.94.94,0,0,0-.38.75.94.94,0,0,0,.87,1,.93.93,0,0,0,1-.87.33.33,0,0,0,0-.14A1,1,0,0,0,98.08,1.12Z"/><path class="cls-41" d="M97.83.85a.49.49,0,0,0-.36-.28A.39.39,0,0,0,97,.73c-.1.19.06.41.24.49a.63.63,0,0,0,.19,0,.58.58,0,0,0,.29-.05A.27.27,0,0,0,97.83.85Z"/><path class="cls-41" d="M96.72.7c-.19,0-.27.48,0,.4s.25-.43,0-.4Z"/><polygon class="cls-31" points="95.47 7.29 95.69 6.04 98.81 6.04 99.05 7.32 95.47 7.29"/><path class="cls-31" d="M98.89,6.46a.61.61,0,0,1-.57.34h-2a.6.6,0,0,1-.63-.53l-.18,1,3.59,0Z"/><polygon class="cls-31" points="94.84 7.04 99.49 7.04 99.81 8.66 94.48 8.59 94.84 7.04"/><path class="cls-31" d="M99.5,7.09A.61.61,0,0,1,99,7.4H95.38a.62.62,0,0,1-.56-.31l-.34,1.5,5.35.07Z"/><path class="cls-41" d="M98.56,6.13a17.51,17.51,0,0,0-2.71,0s0,0,0,0a18.86,18.86,0,0,0,2.71,0C98.63,6.21,98.64,6.13,98.56,6.13Z"/><path class="cls-41" d="M99.29,7.08c-1.38,0-2.92-.06-4.31,0-.06,0-.07,0,0,0a41.31,41.31,0,0,0,4.31,0C99.41,7.16,99.42,7.09,99.29,7.08Z"/><polygon class="cls-30" points="131.65 68.03 131.69 69.72 154.4 69.69 154.62 67.99 131.65 68.03"/><path class="cls-31" d="M153.86,69.12H132.09a.68.68,0,0,1-.42-.11v.71l22.72,0,.13-1A.67.67,0,0,1,153.86,69.12Z"/><polygon class="cls-30" points="50.96 66.73 65.48 66.73 65.72 68.56 51.22 68.53 50.96 66.73"/><path class="cls-31" d="M65,67.86H51.57a.72.72,0,0,1-.49-.16l.13.83,14.49,0-.13-1A.66.66,0,0,1,65,67.86Z"/><polygon class="cls-30" points="131.48 62.36 154.56 62.36 153.69 60.62 132.54 60.62 131.48 62.36"/><path class="cls-31" d="M153.86,61.68H132.81a.66.66,0,0,1-.66-.43l-.67,1.09h23.08l-.37-.73A.72.72,0,0,1,153.86,61.68Z"/><path class="cls-3" d="M92.22,20.37,87,30.1a14.61,14.61,0,0,1,2.09-.43l3-5.67-2.4,5.59c.49-.05,1-.07,1.49-.08l3.6-8.5C93.94,20.84,93.07,20.62,92.22,20.37Z"/><path class="cls-3" d="M101.94,21.2l4.53,8.68H106l-4.23-8.65c-.46.07-.91.12-1.36.15l4.11,8.5h-3.28a34.22,34.22,0,0,1,3.9.56,16.82,16.82,0,0,0,3.8.53l-5.3-10.13A16.23,16.23,0,0,1,101.94,21.2Z"/><path class="cls-42" d="M109.76,28.78c.75-.19,1.1-.42,1.12-.94s-.18-2-.09-2.81c0,0-1.91-.18-1.82,1.49A3.17,3.17,0,0,0,109.76,28.78Z"/><path class="cls-42" d="M109.76,28.78c.75-.19,1.1-.42,1.12-.94s-.18-2-.09-2.81c0,0-1.91-.18-1.82,1.49A3.17,3.17,0,0,0,109.76,28.78Z"/><path class="cls-42" d="M85.21,30.19a5.68,5.68,0,0,1,0-1,5.9,5.9,0,0,1,.2-1.38s-1.51.36-1.62,1.26S85.21,30.19,85.21,30.19Z"/><path class="cls-42" d="M85.21,30.19a5.68,5.68,0,0,1,0-1,5.9,5.9,0,0,1,.2-1.38s-1.51.36-1.62,1.26S85.21,30.19,85.21,30.19Z"/><path class="cls-42" d="M82.83,30.89a3.35,3.35,0,0,0,2.09-.29c.18-.11.33-.61-.29-.69s-.94-.64.69-1.33,6-.79,11.07-.32,10.13,1.83,12.33,1.19,2.47-1.88,1.46-2.24c-.62-.21-1.41-.54-.69-1.05a3.53,3.53,0,0,1,1.91-.43,27.24,27.24,0,0,0-.18-3.13c-.18-1.27-.49-3.9-.14-4.91,0,0-1.63-.28-2.2.8v.43a11.63,11.63,0,0,1-4.62.75,55.41,55.41,0,0,1-12-1.58c-4.36-1-7.21.43-8.4,2.52,0,0,0,.65-.07,1.16a1.59,1.59,0,0,1-1.08.48s.21,3.18.21,4.48S82.83,30.89,82.83,30.89Z"/><path class="cls-43" d="M96,27.54c-.18-2.92-.76-5.89-.88-8.84-1-.18-1.95-.39-2.92-.61-4.38-1-7.21.43-8.4,2.52,0,0,0,.65-.07,1.16a1.59,1.59,0,0,1-1.08.48s.21,3.18.21,4.48,0,4.14,0,4.14a3.22,3.22,0,0,0,2.09-.29c.18-.1.32-.61-.29-.68s-1-.63.68-1.32,5.76-.79,10.71-.35Z"/><path class="cls-42" d="M109.47,26.14a3.51,3.51,0,0,1,1.91-.43c0-1.05-.07-2.09-.18-3.13-.18-1.26-.49-3.9-.15-4.91,0,0-1.62-.28-2.2.8v.43a11.6,11.6,0,0,1-4.61.75,47.59,47.59,0,0,1-8.83-.92c.1,3.17.74,6.37,1,9.5h0c5.12.49,10.14,1.84,12.33,1.19s2.47-1.87,1.46-2.23C109.55,27,108.76,26.67,109.47,26.14Z"/><path class="cls-42" d="M110.16,27.21c-.41-.14-.89-.34-1-.59a1.28,1.28,0,0,1-.09-.61c0-.83,0-1.67,0-2.49s-.09-1.86-.14-2.78c0-.76,0-1.53-.1-2.28v.46a11.6,11.6,0,0,1-4.61.75,55.5,55.5,0,0,1-12-1.58c-4.36-1-7.21.43-8.39,2.52v1.73c0,1,.12,2,.2,2.95a12.58,12.58,0,0,1,0,2.53,2.71,2.71,0,0,0,.12,1.78c-.09-.25.18-.62,1.17-1,1.62-.68,6-.79,11.07-.32s10.13,1.83,12.33,1.19S111.19,27.57,110.16,27.21Z"/><path class="cls-44" d="M93.44,18.36l-1.24-.28c-2.94-.68-5.2-.24-6.71.76.1,2,.37,4,.48,6,.08,1.17.1,2.34.14,3.52a32.33,32.33,0,0,1,7.94-.25C93.74,24.85,93.48,21.61,93.44,18.36Z"/><path class="cls-45" d="M108.13,26.63l0-.09a.65.65,0,0,0,0-.13.27.27,0,0,0,0-.12.36.36,0,0,0,.07-.17.43.43,0,0,0,.1-.29,9.39,9.39,0,0,0-.1-1.18.38.38,0,0,0-.11-.23.42.42,0,0,0,.06-.31l-.14-.89A.46.46,0,0,0,108,23l0-.1a.46.46,0,0,0,.09-.32L107.92,21a.46.46,0,0,0-.17-.29.43.43,0,0,0-.26-.09h-.07l-2.47.42a.47.47,0,0,0-.29.19.36.36,0,0,0,0,.09h-.07l-.1-.12a.41.41,0,0,0-.28-.09h-.06c-.54.05-1.09.07-1.64.07a12,12,0,0,1-1.21,0h0a.42.42,0,0,0-.3.12.4.4,0,0,0-.12.22h-.26a2.48,2.48,0,0,0-.13-.35.41.41,0,0,0-.22-.21,4.09,4.09,0,0,0-1.55-.24h0a.43.43,0,0,0-.42.34H98a.44.44,0,0,0-.43.35c-.1.57-.23,1.26-.35,1.92-.12-.17-.24-.34-.37-.49a1.12,1.12,0,0,0,.2-.46v0l.06-.18v0a.58.58,0,0,0,0-.14,1.26,1.26,0,0,0,0-1.3,2.21,2.21,0,0,0-2.09-1,5.33,5.33,0,0,0-1.37.19.52.52,0,0,0-.21.07.58.58,0,0,0-.2.21.71.71,0,0,0-.23.06.39.39,0,0,0-.21.06h0a.43.43,0,0,0-.38-.39s-.31,0-.71,0a3.82,3.82,0,0,0-1.88.37h0a2.05,2.05,0,0,0-1.63-.72,3.26,3.26,0,0,0-1,.18,5,5,0,0,0-.84.41,6.11,6.11,0,0,0-1.58,1,.43.43,0,0,0-.11.52h0a.19.19,0,0,0,0,.1,3.42,3.42,0,0,1,.13.34,9.39,9.39,0,0,1,.28,1.3c0,.1,0,.2,0,.31a19,19,0,0,1,.31,2.92.58.58,0,0,0,0,.18.41.41,0,0,0,.13.23.32.32,0,0,0,.1.13.37.37,0,0,0,.12.13.4.4,0,0,0,.13.13.47.47,0,0,0,.43,0h.07l.76-.41a7.83,7.83,0,0,1,.79-.34l.1-.05a.44.44,0,0,0,.26-.29v-.1h0v-.28a.24.24,0,0,0,0-.14,0,0,0,0,0,0,0,.51.51,0,0,0,.09-.16.58.58,0,0,0,0-.32c-.11-.37-.24-.73-.37-1.09h0a3.16,3.16,0,0,0,1.28-1,1.83,1.83,0,0,0,.28-.44l.1.07a.27.27,0,0,0,.12,0l0,1.27h0a.42.42,0,0,0-.43.38l-.11,1a.49.49,0,0,0,0,.24.43.43,0,0,0,.11.21h0l.07.11,0,0,.06.07.06.06v0a.48.48,0,0,0,.32.13h0l2-.05a.36.36,0,0,0,.22-.07.45.45,0,0,0,.27-.34.3.3,0,0,0,0-.1.28.28,0,0,0,0-.12.56.56,0,0,0,0-.12.36.36,0,0,0,.07-.18.3.3,0,0,0,.08-.16.43.43,0,0,0,.12.22.76.76,0,0,0,.11.14.37.37,0,0,0,.12.13.4.4,0,0,0,.33.17h.29a4.54,4.54,0,0,1,.82.07h.09a.57.57,0,0,0,.48-.35s0,0,0,0v-.11l0-.07v-.13h0l.32.44.07.09h0a.57.57,0,0,0,.11.11.52.52,0,0,0,.41.21.57.57,0,0,0,.28-.08l.09-.05.07-.05.08,0h.1l0,0h0v0a.39.39,0,0,0,.08.1h0a1,1,0,0,0,.4.28l1.21.17h.32a.48.48,0,0,0,.23-.07l.1-.06a.43.43,0,0,0,.11-.12h0a.78.78,0,0,0,.41.3l1,.13h.06a.63.63,0,0,0,.22-.07.42.42,0,0,0,.16-.11.41.41,0,0,0,.11-.24.14.14,0,0,0,0-.09.29.29,0,0,0,.05-.13v.74a.39.39,0,0,0,0,.18.47.47,0,0,0,.13.24.45.45,0,0,0,.1.14.79.79,0,0,0,.47.3h1.22a.4.4,0,0,0,.22-.06.54.54,0,0,0,.16-.1.41.41,0,0,0,.11-.25.17.17,0,0,0,0-.1.28.28,0,0,0,0-.12.56.56,0,0,0,0-.12.36.36,0,0,0,.07-.18.43.43,0,0,0,.1-.27l0-2h.1a.87.87,0,0,0,.37-.16v0a15.16,15.16,0,0,1,.08,2,.45.45,0,0,0,0,.2.46.46,0,0,0,.12.23.44.44,0,0,0,.12.15,1.25,1.25,0,0,0,.09.12h0l.08.07a.38.38,0,0,0,.27.1h.1A9.75,9.75,0,0,1,107,27a2,2,0,0,1,.49,0h.1a.39.39,0,0,0,.23-.07.24.24,0,0,0,.11-.06A.45.45,0,0,0,108.13,26.63ZM92.49,24h-.23l0-1.46.06,0a.43.43,0,0,0,.27-.34l0-.1a.5.5,0,0,0,0-.13.45.45,0,0,0,0-.11v.16a6.93,6.93,0,0,1,.07.88v1.34a.4.4,0,0,0-.24-.22Z"/><path class="cls-46" d="M92,24.35l-.23,0,0-2.19h.19a.44.44,0,0,0,.43-.44v-1a.43.43,0,0,0-.39-.43s-.3,0-.7,0a3.93,3.93,0,0,0-1.88.36h0a2.08,2.08,0,0,0-1.64-.71,3.2,3.2,0,0,0-1,.18A6.13,6.13,0,0,0,85,21.18a.43.43,0,0,0-.11.52,6.18,6.18,0,0,1,.43,1.73,2.34,2.34,0,0,0,0,.3,19.28,19.28,0,0,1,.3,2.93.45.45,0,0,0,.22.36.34.34,0,0,0,.22.05.5.5,0,0,0,.21-.05,8.31,8.31,0,0,1,1.6-.75.41.41,0,0,0,.29-.31.44.44,0,0,0,0-.32c-.12-.43-.28-.84-.43-1.25L87.64,24a3.23,3.23,0,0,0,1.64-1.07,2.25,2.25,0,0,0,.31-.51.71.71,0,0,0,.14.1.45.45,0,0,0,.36,0l0,0,.07,1.74h-.06a.43.43,0,0,0-.43.39l-.11,1a.44.44,0,0,0,.12.34.41.41,0,0,0,.31.14h0L92,26.05a.43.43,0,0,0,.42-.43v-.83A.43.43,0,0,0,92,24.35Zm-4.68-2.24c.11,0,.21.06.22.12s-.06.15-.22.25a.48.48,0,0,1-.18.06,1.09,1.09,0,0,0-.08-.31,1.18,1.18,0,0,1,.19-.11Z"/><path class="cls-46" d="M107.84,25a.43.43,0,0,0-.12-.23.41.41,0,0,0,.07-.3l-.15-.87a.43.43,0,0,0-.15-.27.42.42,0,0,0,.16-.39l-.19-1.54a.45.45,0,0,0-.18-.3.45.45,0,0,0-.26-.08H107l-2.46.42a.44.44,0,0,0-.29.19.48.48,0,0,0-.07.23.45.45,0,0,0-.14-.24.42.42,0,0,0-.28-.1h0s-.68.07-1.64.07c-.42,0-.82,0-1.22,0h0a.45.45,0,0,0-.29.12.45.45,0,0,0-.14.33v.85a8.57,8.57,0,0,0-.39-1.31.41.41,0,0,0-.22-.21,4.14,4.14,0,0,0-1.56-.24h0a.44.44,0,0,0-.43.36c-.15.86-.37,2-.53,2.88-.13-.17-.25-.34-.38-.53s-.42-.6-.66-.88a2.69,2.69,0,0,0,.32-.27,1.29,1.29,0,0,0,.19-1.6,2.2,2.2,0,0,0-2.09-1,5.2,5.2,0,0,0-1.36.2.44.44,0,0,0-.22.07.49.49,0,0,0-.24.39v.14A10.36,10.36,0,0,0,92.85,22a6.65,6.65,0,0,1,.07.88l0,1.64v.7a.44.44,0,0,0,.42.42h.29a4.46,4.46,0,0,1,.82.06h.09a.43.43,0,0,0,.41-.31,0,0,0,0,0,0,0,2.78,2.78,0,0,0,.06-.58c.21.3.41.59.61.86a.51.51,0,0,0,.43.23.53.53,0,0,0,.3-.09l.07,0a.82.82,0,0,1,.2-.12h0l.23-.12a.42.42,0,0,0,.06.31.44.44,0,0,0,.31.2l1.2.16h.06a.39.39,0,0,0,.26-.09.4.4,0,0,0,.17-.29l0-.3v.32a.43.43,0,0,0,.38.43l1,.12h.06a.42.42,0,0,0,.42-.5c0-.17-.17-1-.35-1.84a.42.42,0,0,0,.21.06h0l.57,0v2.85a.43.43,0,0,0,.43.43h1.17a.4.4,0,0,0,.31-.13.43.43,0,0,0,.12-.31l-.06-2.74.4,0h0A.42.42,0,0,0,104,24a.44.44,0,0,0,.13-.34L104,22a19.61,19.61,0,0,1,.49,4.38.41.41,0,0,0,.15.35.42.42,0,0,0,.28.1h.1a9.75,9.75,0,0,1,1.78-.23,2,2,0,0,1,.49,0h.09a.42.42,0,0,0,.28-.1.44.44,0,0,0,.16-.34A11.61,11.61,0,0,0,107.84,25Z"/><path class="cls-47" d="M89.05,20.89a2,2,0,0,0-2.15-.41,5.76,5.76,0,0,0-1.65,1,7.68,7.68,0,0,1,.53,2.16,22.66,22.66,0,0,1,.32,3,8.59,8.59,0,0,1,1.68-.79h0a.06.06,0,0,0,0-.08c-.19-.67-.48-1.33-.7-2V23.7a3,3,0,0,0,1.84-1.06A1.35,1.35,0,0,0,89.05,20.89Zm-1.46,1.95a1.23,1.23,0,0,1-.73.13l-.24-.9a1.9,1.9,0,0,1,.49-.35.66.66,0,0,1,.87.33.42.42,0,0,1,0,.1.75.75,0,0,1-.46.7Z"/><path class="cls-47" d="M89.59,21l.31,1.1.63-.27.11,2.84h-.49l-.13,1,2-.06v-.82l-.61-.06-.08-3h.66v-1A5,5,0,0,0,89.59,21Z"/><path class="cls-47" d="M96.07,25.38a.09.09,0,0,0,.13,0s0,0,0,0h0a1.11,1.11,0,0,1,.3-.17l.54-.29h0a20.13,20.13,0,0,0-1.61-2.07,2,2,0,0,0,.73-.44.86.86,0,0,0,.12-1.09c-.57-1-2.08-.88-3-.6,0,0,0,0,0,0h0s0,0,0,0,0,0,0,0c0,.7.13,1.4.14,2.09l0,2.34a7.79,7.79,0,0,1,1.18.07h0a10.29,10.29,0,0,0,0-2C95.07,24,95.56,24.68,96.07,25.38ZM94.43,22a7.59,7.59,0,0,0-.12-.76,1,1,0,0,1,.89.24c.16.22-.06.49-.23.63a.6.6,0,0,1-.49.09C94.46,22.17,94.44,22.09,94.43,22Z"/><path class="cls-47" d="M99.54,25.77l1,.12a31.44,31.44,0,0,0-1-4.12,3.79,3.79,0,0,0-1.38-.2s-.62,3.44-.78,4l1.21.16.2-1.57c.19,0,.38,0,.56.08A11.63,11.63,0,0,1,99.54,25.77Zm-.49-3.22s.1.36.21.89a1.82,1.82,0,0,0-.33,0Z"/><path class="cls-47" d="M100.77,22l0,1.57,1-.06v3.31H103l-.07-3.22.89.09L103.7,22A17.9,17.9,0,0,1,100.77,22Z"/><path class="cls-47" d="M104.56,21.91a20.19,20.19,0,0,1,.49,4.52,7.51,7.51,0,0,1,2.46-.19,10.54,10.54,0,0,0-.1-1.13l-1.27.19-.08-.57s.81-.13,1.28-.15l-.12-.87-1.3.13L105.8,23a4.23,4.23,0,0,1,1.42,0l-.2-1.54Z"/><g class="cls-17"><path class="cls-48" d="M85.85,24.13c.4-.17.8-.31,1.21-.45h0l.82-.25a2.88,2.88,0,0,0,1-.79,1.35,1.35,0,0,0,.13-1.75,2,2,0,0,0-2.15-.41,5.76,5.76,0,0,0-1.65,1,7.68,7.68,0,0,1,.53,2.16Zm1.22-2.4a.67.67,0,0,1,.88.33l0,.1a.75.75,0,0,1-.42.69,1.23,1.23,0,0,1-.73.13c-.08-.3-.17-.6-.24-.9A1.85,1.85,0,0,1,87.07,21.73Z"/><path class="cls-48" d="M90.53,21.84l0,1,.76-.08v-1.1h.61v-1a5,5,0,0,0-2.35.29l.31,1.1Z"/><path class="cls-48" d="M93.25,20.76c0,.65.11,1.3.14,1.95a19.08,19.08,0,0,1,2.13.16l0-.05a1.82,1.82,0,0,0,.72-.43.85.85,0,0,0,.12-1.09c-.56-1-2.07-.89-3-.61a0,0,0,0,0,0,0h0s0,0,0,0A0,0,0,0,0,93.25,20.76Zm1.94.75c.16.22-.06.49-.23.63a.65.65,0,0,1-.49.1,1,1,0,0,0,0-.2,7.59,7.59,0,0,0-.12-.76,1,1,0,0,1,.89.23Z"/><path class="cls-48" d="M100.13,23.86a11.73,11.73,0,0,0-.56-2.09,3.79,3.79,0,0,0-1.38-.2s-.15.85-.32,1.76C98.62,23.51,99.37,23.71,100.13,23.86ZM99,22.55s.1.36.21.89a1.71,1.71,0,0,0-.32,0Z"/><path class="cls-48" d="M101.83,23.54v.57c.37,0,.75,0,1.12,0v-.52l.89.09L103.72,22a19,19,0,0,1-2.92,0l0,1.57Z"/><path class="cls-48" d="M106.06,23.83h-.14L105.8,23a4.23,4.23,0,0,1,1.42,0l-.2-1.54-2.46.41s.21.92.36,2.12A7.47,7.47,0,0,0,106.06,23.83Z"/></g><path class="cls-49" d="M108,19.28a17.34,17.34,0,0,1-3.73.49,38.69,38.69,0,0,1-4-.19c-1.19-.1-2.36-.22-3.53-.42s-2.53-.61-3.79-.92c-3.16-.79-7-.76-9,2.24,0,.05,0,.1.06.05,2.35-3.23,7-2.34,10.22-1.46a34.48,34.48,0,0,0,7.07,1,15.46,15.46,0,0,0,6.76-.69,0,0,0,0,0,0-.06Z"/><circle class="cls-31" cx="97.23" cy="11.23" r="3.82"/><path class="cls-50" d="M97.25,8A4,4,0,0,1,101,10.87a3.83,3.83,0,0,0-7.64.23A4,4,0,0,1,97.25,8Z"/><path class="cls-51" d="M101,10.86a.27.27,0,0,1-.22.08,4,4,0,0,1-.8-.35c-.14,0-.33-.1-.39-.26a1,1,0,0,1,.13-.72,7,7,0,0,0,.35-.9q-.15-.17-.3-.3L99,8.78c-.2.08-.57.32-.8.26s-.32-.26-.43-.49a7.75,7.75,0,0,1-.48-1.15H97c-.12.39-.24.78-.39,1.17s-.18.53-.49.6-.6-.22-.82-.29a2.91,2.91,0,0,1-.75-.37l-.11.11c.08.25.17.49.27.73a2.13,2.13,0,0,1,.23.74c0,.42-.44.39-.73.54s-.57.26-.74,0a3.62,3.62,0,0,0,0,1c.39.17.79.3,1.19.45.16.06.35.17.36.36a1.57,1.57,0,0,1-.23.76l-.28.62a3.81,3.81,0,0,0,5.4.1l.16-.16a7.71,7.71,0,0,1-.45-.85c-.09-.16-.24-.34-.16-.54s.59-.34.82-.43.52-.2.77-.31a3.55,3.55,0,0,0,0-.46A2,2,0,0,1,101,10.86Zm-4.42,3.76a.18.18,0,0,1-.2.18h0c-.25,0-.7-.09-.82-.35s.21-.49.44-.66a.15.15,0,0,1,.07,0,.19.19,0,0,1,.27,0l0,0A1.49,1.49,0,0,1,96.62,14.62Zm2.2-.11a1.12,1.12,0,0,1-1,.24.19.19,0,0,1-.13-.23h0a2.2,2.2,0,0,1,.37-.67.18.18,0,0,1,.19-.09.2.2,0,0,1,.15,0,1.69,1.69,0,0,1,.36.3A.31.31,0,0,1,98.82,14.51Z"/><path class="cls-52" d="M94.53,13.93h0a14.8,14.8,0,0,1,1.88-3.5,19.3,19.3,0,0,1,3.51-1.89A17.87,17.87,0,0,1,98,12.06,14.62,14.62,0,0,1,94.53,13.93Z"/><path class="cls-53" d="M98.91,10.19a.89.89,0,0,1-.48-.25,1,1,0,0,1-.19-.64,9.14,9.14,0,0,0-1.82,1.11,8.05,8.05,0,0,0-1.18,1.95.69.69,0,0,1,.45,0,.62.62,0,0,1,.34.4,2,2,0,0,1,.12.48,12.79,12.79,0,0,0,1.91-1.16,8.87,8.87,0,0,0,1.13-1.87C99.09,10.13,99,10.21,98.91,10.19Z"/><path class="cls-52" d="M94.53,8.52h0A14.8,14.8,0,0,0,96.41,12a19.3,19.3,0,0,0,3.51,1.89A17.87,17.87,0,0,0,98,10.39,14.62,14.62,0,0,0,94.53,8.52Z"/><path class="cls-53" d="M98.91,12.26a.76.76,0,0,0-.68.84v.05A9.18,9.18,0,0,1,96.41,12a8.25,8.25,0,0,1-1.18-1.95.69.69,0,0,0,.45,0,.62.62,0,0,0,.34-.4,2,2,0,0,0,.12-.48,12.07,12.07,0,0,1,1.91,1.17,8.87,8.87,0,0,1,1.13,1.87C99.09,12.32,99,12.25,98.91,12.26Z"/><path class="cls-54" d="M97.23,15.05h0a15.06,15.06,0,0,1-1.15-3.8,19.12,19.12,0,0,1,1.15-3.82,17.89,17.89,0,0,1,1.16,3.82A14.53,14.53,0,0,1,97.23,15.05Z"/><path class="cls-55" d="M97.83,13.07a1.05,1.05,0,0,1,.06.24,11.43,11.43,0,0,0,.49-2.08,7.82,7.82,0,0,0-.49-2,.66.66,0,0,1-.72.61.67.67,0,0,1-.61-.61,8.85,8.85,0,0,0-.49,2,7.3,7.3,0,0,0,.43,1.89.7.7,0,0,1,1.33,0Z"/><path class="cls-54" d="M93.4,11.23h0a15.48,15.48,0,0,1,3.8-1.15A19.59,19.59,0,0,1,101,11.24a18.12,18.12,0,0,1-3.83,1.15A14.53,14.53,0,0,1,93.4,11.23Z"/><path class="cls-56" d="M95.93,11.08a2.84,2.84,0,0,1,.61-.92,21.34,21.34,0,0,0-3.1,1.05C94.18,11.33,95.61,11.71,95.93,11.08Z"/><path class="cls-56" d="M97.92,10.24c.32.27.44.72.89.82a8.47,8.47,0,0,0,2.19.14,25.8,25.8,0,0,0-3.22-1.06Z"/><path class="cls-31" d="M98.38,11.23a1.16,1.16,0,1,1-1.16-1.15h0A1.15,1.15,0,0,1,98.38,11.23Z"/><path class="cls-51" d="M96.07,11.21h0a1.16,1.16,0,0,0,2.31,0A2.67,2.67,0,0,1,96.07,11.21Z"/><path class="cls-41" d="M97.73,10.3a.6.6,0,0,0-.29-.08h-.12a.24.24,0,0,0-.11.06.25.25,0,0,0-.1.08.54.54,0,0,0-.08.56.73.73,0,0,0,.67.41.47.47,0,0,0,.48-.39C98.21,10.65,98,10.43,97.73,10.3Z"/><path class="cls-41" d="M96.81,10.63a.14.14,0,0,0-.15-.12.37.37,0,0,0-.27.16c-.07.1-.11.29,0,.35a.15.15,0,0,0,.13,0,.25.25,0,0,0,.18-.08A.35.35,0,0,0,96.81,10.63Z"/><path class="cls-57" d="M108.22,30.75a.89.89,0,0,1-.91.86H87.91a.89.89,0,0,1-.9-.86h0a.89.89,0,0,1,.9-.87h19.4a.89.89,0,0,1,.91.86Z"/><path class="cls-31" d="M107.65,29.94A.6.6,0,0,1,107.4,31L87.59,31a.52.52,0,0,1-.49-.54h0a1,1,0,0,0-.07.34.89.89,0,0,0,.9.86h19.4a.9.9,0,0,0,.91-.86h0A.89.89,0,0,0,107.65,29.94Z"/><path class="cls-41" d="M107.4,30.2c-1.49-.11-3,0-4.51,0H97.78c-3.4,0-6.81,0-10.19.07-.09,0-.07.13,0,.13,3.3.1,6.61.07,9.92.07h4.82c1.67,0,3.39.1,5,0C107.52,30.41,107.52,30.21,107.4,30.2Z"/><path class="cls-58" d="M74.87,90.7a4.39,4.39,0,1,0-4.61-4.39A4.52,4.52,0,0,0,74.87,90.7Z"/><path class="cls-30" d="M74.85,90.33a4.09,4.09,0,1,0-4.38-4.08A4.23,4.23,0,0,0,74.85,90.33Z"/><path class="cls-24" d="M74.85,89.48a3.24,3.24,0,1,0-3.46-3.23A3.35,3.35,0,0,0,74.85,89.48Z"/><polygon class="cls-30" points="73.14 88.47 74.73 87.7 76.32 88.47 76.02 86.83 77.31 85.68 75.53 85.43 74.74 83.94 73.94 85.43 72.16 85.67 73.45 86.83 73.14 88.47"/><path class="cls-59" d="M78.87,84.64a4.5,4.5,0,0,0-6-2,4.55,4.55,0,0,0-2.11,2.24A6.18,6.18,0,0,0,78.87,84.64Z"/><path class="cls-31" d="M74.85,90.33a4.24,4.24,0,0,0,4.38-4,8,8,0,0,1-8.73.29A4.26,4.26,0,0,0,74.85,90.33Z"/><path class="cls-41" d="M76,83.59a3.17,3.17,0,0,0-4,1.46s0,.08.07,0A4,4,0,0,1,76,83.82a.12.12,0,0,0,.07-.23Z"/><path class="cls-41" d="M76.69,83.81a.35.35,0,0,0-.14-.06.18.18,0,0,0-.21.14.19.19,0,0,0,.16.22h0a.25.25,0,0,0,.14-.06.16.16,0,0,0,0-.22Z"/><path class="cls-60" d="M77.63,83.62a3.91,3.91,0,0,0-6.18.54.06.06,0,0,0,0,0h0a4.81,4.81,0,0,1,2.92-1.39,5,5,0,0,1,1.63.06,4.86,4.86,0,0,1,1.57.8S77.65,83.65,77.63,83.62Z"/><path class="cls-58" d="M75.64,81.54a.37.37,0,0,1-.37.36.35.35,0,0,1-.36-.37.36.36,0,0,1,.36-.36.37.37,0,0,1,.37.36Z"/><path class="cls-30" d="M75.55,81.48a.25.25,0,1,1-.24-.24A.25.25,0,0,1,75.55,81.48Z"/><path class="cls-58" d="M74.36,91.44a.38.38,0,0,0,.38-.37.38.38,0,0,0-.37-.37.36.36,0,0,0-.37.36h0a.36.36,0,0,0,.36.37Z"/><path class="cls-30" d="M74.41,91.26a.25.25,0,1,0,0-.49.25.25,0,0,0,0,.49Z"/><path class="cls-58" d="M71.25,90.1a.37.37,0,0,0,.37-.36.37.37,0,1,0-.74,0h0a.37.37,0,0,0,.36.37Z"/><path class="cls-30" d="M71.27,89.92a.25.25,0,1,0-.24-.24A.25.25,0,0,0,71.27,89.92Z"/><path class="cls-58" d="M70.2,85.86a.37.37,0,0,1-.37.36.37.37,0,0,1-.36-.37.36.36,0,0,1,.36-.36A.36.36,0,0,1,70.2,85.86Z"/><path class="cls-30" d="M70.11,85.8a.25.25,0,1,1-.49,0,.25.25,0,0,1,.49,0Z"/><path class="cls-58" d="M72.09,82.47a.37.37,0,1,1-.36-.37A.37.37,0,0,1,72.09,82.47Z"/><path class="cls-30" d="M72,82.41a.25.25,0,1,1-.24-.24A.25.25,0,0,1,72,82.41Z"/><path class="cls-58" d="M79.28,83.44a.37.37,0,0,1-.73,0,.37.37,0,0,1,.37-.36A.37.37,0,0,1,79.28,83.44Z"/><path class="cls-30" d="M79.21,83.39a.24.24,0,0,1-.24.24.25.25,0,0,1-.25-.24.25.25,0,1,1,.49,0Z"/><path class="cls-58" d="M79.82,87.6a.37.37,0,0,0,.37-.37.36.36,0,0,0-.36-.37.38.38,0,0,0-.38.36h0A.38.38,0,0,0,79.82,87.6Z"/><path class="cls-30" d="M79.85,87.42a.25.25,0,0,0,0-.49.25.25,0,0,0,0,.49Z"/><path class="cls-58" d="M77.94,90.5a.37.37,0,1,0-.36-.37h0a.37.37,0,0,0,.36.37Z"/><path class="cls-30" d="M78,90.32a.25.25,0,0,0,0-.49.25.25,0,1,0,0,.49Z"/><path class="cls-58" d="M122.75,90.41A4.38,4.38,0,1,0,118.14,86,4.51,4.51,0,0,0,122.75,90.41Z"/><path class="cls-30" d="M122.73,90A4.09,4.09,0,1,0,118.35,86,4.23,4.23,0,0,0,122.73,90Z"/><path class="cls-24" d="M122.73,89.19A3.24,3.24,0,1,0,119.27,86,3.36,3.36,0,0,0,122.73,89.19Z"/><polygon class="cls-30" points="121.03 88.18 122.62 87.41 124.2 88.18 123.91 86.54 125.19 85.38 123.42 85.14 122.62 83.65 121.82 85.14 120.05 85.38 121.33 86.54 121.03 88.18"/><path class="cls-59" d="M126.75,84.35a4.49,4.49,0,0,0-8.14.25A6.17,6.17,0,0,0,126.75,84.35Z"/><path class="cls-31" d="M122.73,90a4.25,4.25,0,0,0,4.39-4,8,8,0,0,1-8.73.28A4.25,4.25,0,0,0,122.73,90Z"/><path class="cls-41" d="M123.91,83.28a3.17,3.17,0,0,0-4,1.46.05.05,0,0,0,0,.05h0a4.06,4.06,0,0,1,3.84-1.28.11.11,0,0,0,.15-.07.12.12,0,0,0-.08-.15Z"/><path class="cls-41" d="M124.56,83.52a.35.35,0,0,0-.14-.06.18.18,0,0,0-.21.15h0c0,.1.08.24.19.22a.26.26,0,0,0,.15-.07.16.16,0,0,0,0-.22S124.57,83.53,124.56,83.52Z"/><path class="cls-60" d="M125.53,83.33a3.92,3.92,0,0,0-6.17.54s0,.06,0,0a4.78,4.78,0,0,1,2.92-1.39,3.93,3.93,0,0,1,3.19.86S125.53,83.35,125.53,83.33Z"/><path class="cls-58" d="M123.52,81.25a.37.37,0,1,1-.36-.37A.37.37,0,0,1,123.52,81.25Z"/><path class="cls-30" d="M123.43,81.2a.25.25,0,0,1-.49,0,.25.25,0,1,1,.49,0Z"/><path class="cls-58" d="M122.25,91.15a.37.37,0,1,0-.37-.38h0A.37.37,0,0,0,122.25,91.15Z"/><path class="cls-30" d="M122.28,91a.25.25,0,1,0-.25-.25A.25.25,0,0,0,122.28,91Z"/><path class="cls-58" d="M119.13,89.81a.36.36,0,0,0,.37-.36.38.38,0,0,0-.36-.38.37.37,0,0,0-.38.37h0A.36.36,0,0,0,119.13,89.81Z"/><path class="cls-30" d="M119.16,89.63a.24.24,0,1,0-.24-.24.23.23,0,0,0,.23.24Z"/><path class="cls-58" d="M118.08,85.57a.37.37,0,0,1-.73,0,.37.37,0,0,1,.73,0Z"/><path class="cls-30" d="M118,85.54a.25.25,0,1,1-.24-.24A.24.24,0,0,1,118,85.54Z"/><path class="cls-58" d="M120,82.18a.37.37,0,0,1-.73,0,.37.37,0,0,1,.37-.36.36.36,0,0,1,.36.37Z"/><path class="cls-30" d="M119.89,82.13a.27.27,0,0,1-.25.25.25.25,0,1,1,.25-.25Z"/><path class="cls-58" d="M127.18,83.15a.35.35,0,0,1-.37.36.36.36,0,0,1-.36-.37.37.37,0,0,1,.37-.36.37.37,0,0,1,.36.37Z"/><path class="cls-30" d="M127.1,83.11a.25.25,0,0,1-.25.24.25.25,0,0,1,0-.49A.25.25,0,0,1,127.1,83.11Z"/><path class="cls-58" d="M127.7,87.31a.37.37,0,1,0,0-.74.36.36,0,0,0-.37.36h0A.37.37,0,0,0,127.7,87.31Z"/><path class="cls-30" d="M127.73,87.13a.25.25,0,1,0,0-.49.25.25,0,0,0,0,.49Z"/><path class="cls-58" d="M125.83,90.21a.37.37,0,0,0,.37-.37.37.37,0,0,0-.74,0,.37.37,0,0,0,.37.37Z"/><path class="cls-30" d="M125.86,90a.25.25,0,1,0-.24-.25A.24.24,0,0,0,125.86,90Z"/><path class="cls-58" d="M98,91.49A3.46,3.46,0,1,0,94.4,88,3.56,3.56,0,0,0,98,91.49Z"/><path class="cls-30" d="M98,91.21A3.22,3.22,0,1,0,94.57,88,3.35,3.35,0,0,0,98,91.21Z"/><path class="cls-24" d="M98,90.53A2.55,2.55,0,1,0,95.3,88,2.63,2.63,0,0,0,98,90.53Z"/><polygon class="cls-30" points="96.67 89.74 97.92 89.13 99.17 89.74 98.94 88.45 99.95 87.54 98.55 87.35 97.93 86.18 97.3 87.35 95.9 87.53 96.91 88.45 96.67 89.74"/><path class="cls-59" d="M101.19,86.73a3.54,3.54,0,0,0-6.41.19A4.88,4.88,0,0,0,101.19,86.73Z"/><path class="cls-31" d="M98,91.21A3.35,3.35,0,0,0,101.46,88a6.26,6.26,0,0,1-6.87.23A3.36,3.36,0,0,0,98,91.21Z"/><path class="cls-41" d="M99,85.89A2.49,2.49,0,0,0,95.82,87s0,.06,0,0a3.16,3.16,0,0,1,3-1C99,86.07,99,85.93,99,85.89Z"/><path class="cls-41" d="M99.46,86.08a.21.21,0,0,0-.1-.06.15.15,0,0,0-.17.12c0,.09.06.19.15.17a.18.18,0,0,0,.12,0,.11.11,0,0,0,0-.16A0,0,0,0,0,99.46,86.08Z"/><path class="cls-60" d="M100.22,85.92a3.08,3.08,0,0,0-4.34-.2,3.17,3.17,0,0,0-.53.63s0,.05,0,0a3.74,3.74,0,0,1,2.29-1.09,3.87,3.87,0,0,1,1.27,0,3.83,3.83,0,0,1,1.24.63S100.22,85.94,100.22,85.92Z"/><path class="cls-58" d="M98.63,84.28a.29.29,0,0,1-.28.3h0a.3.3,0,0,1,0-.59.29.29,0,0,1,.29.29Z"/><path class="cls-30" d="M98.57,84.24a.21.21,0,0,1-.23.17.22.22,0,0,1-.16-.17.21.21,0,0,1,.23-.16A.22.22,0,0,1,98.57,84.24Z"/><path class="cls-58" d="M97.63,92.07a.29.29,0,0,0,.29-.28h0a.29.29,0,0,0-.28-.29h0a.29.29,0,0,0,0,.58Z"/><path class="cls-30" d="M97.66,91.93a.19.19,0,0,0,.22-.16.19.19,0,0,0-.16-.22h-.06a.19.19,0,0,0-.17.22A.2.2,0,0,0,97.66,91.93Z"/><path class="cls-58" d="M95.18,91a.3.3,0,0,0,.3-.29.29.29,0,0,0-.29-.29.28.28,0,0,0-.3.28h0a.28.28,0,0,0,.28.29Z"/><path class="cls-30" d="M95.2,90.89a.18.18,0,0,0,.19-.19.18.18,0,0,0-.19-.18.19.19,0,0,0-.19.18h0A.19.19,0,0,0,95.2,90.89Z"/><path class="cls-58" d="M94.07,88a.29.29,0,1,0-.29-.29A.29.29,0,0,0,94.07,88Z"/><path class="cls-30" d="M94.09,87.83a.19.19,0,1,0,.06-.38.06.06,0,0,0-.06,0,.19.19,0,0,0-.16.22A.19.19,0,0,0,94.09,87.83Z"/><path class="cls-58" d="M95.84,85a.31.31,0,0,1-.29.3h0A.29.29,0,0,1,95.3,85a.28.28,0,0,1,.25-.25A.29.29,0,0,1,95.84,85Z"/><path class="cls-30" d="M95.78,85a.19.19,0,0,1-.19.19h0a.18.18,0,0,1-.19-.18h0a.19.19,0,0,1,.19-.19h0A.2.2,0,0,1,95.78,85Z"/><path class="cls-58" d="M101.52,85.78a.29.29,0,0,1-.29.29h0a.31.31,0,0,1-.29-.3.29.29,0,0,1,.58,0Z"/><path class="cls-30" d="M101.45,85.74a.2.2,0,1,1-.2-.19h0A.19.19,0,0,1,101.45,85.74Z"/><path class="cls-58" d="M101.93,89.05a.29.29,0,0,0,.25-.33.3.3,0,0,0-.25-.25.3.3,0,0,0-.26.33A.3.3,0,0,0,101.93,89.05Z"/><path class="cls-30" d="M102,88.91a.19.19,0,0,0,.19-.19.18.18,0,0,0-.19-.19h0a.19.19,0,0,0,0,.38Z"/><path class="cls-58" d="M100.45,91.33a.28.28,0,0,0,.3-.28.29.29,0,0,0-.29-.3.3.3,0,0,0-.3.29h0A.29.29,0,0,0,100.45,91.33Z"/><path class="cls-30" d="M100.48,91.19a.19.19,0,0,0,.22-.16.19.19,0,0,0-.16-.22.06.06,0,0,0-.06,0,.19.19,0,0,0-.17.22A.2.2,0,0,0,100.48,91.19Z"/></g></g></g></svg>