<svg xmlns="http://www.w3.org/2000/svg" viewBox="0 0 226.75 196.5"><defs><style>.cls-1{isolation:isolate;}.cls-2{fill:#3d2206;}.cls-3,.cls-4,.cls-5,.cls-6{fill:#a25a00;}.cls-17,.cls-19,.cls-23,.cls-37,.cls-4,.cls-51,.cls-61,.cls-63,.cls-67{opacity:0.5;}.cls-12,.cls-14,.cls-16,.cls-17,.cls-18,.cls-20,.cls-23,.cls-33,.cls-35,.cls-36,.cls-37,.cls-4,.cls-44,.cls-45,.cls-5,.cls-50,.cls-51,.cls-59,.cls-6,.cls-61,.cls-63,.cls-66,.cls-9{mix-blend-mode:multiply;}.cls-31,.cls-5,.cls-59{opacity:0.8;}.cls-7{fill:#f7e15c;}.cls-18,.cls-33,.cls-45,.cls-58,.cls-7,.cls-9{opacity:0.6;}.cls-8{fill:#ede8cc;}.cls-10,.cls-18,.cls-20{fill:#b2a28d;}.cls-11,.cls-12,.cls-42,.cls-43,.cls-44,.cls-45{fill:#840b25;}.cls-13{fill:#d8ca65;}.cls-14{fill:#b79c70;}.cls-15,.cls-16{fill:#2b5f3d;}.cls-16,.cls-44{opacity:0.3;}.cls-17,.cls-24{fill:#2b523d;}.cls-21{fill:#3d0b25;}.cls-22{fill:#182d21;}.cls-25{fill:#4a9e64;}.cls-26{fill:#562400;}.cls-27{fill:#8f0009;}.cls-28{fill:#aa0009;}.cls-29{fill:#1b315b;}.cls-30{fill:#12233f;}.cls-31{fill:#729a9e;}.cls-31,.cls-67,.cls-68{mix-blend-mode:color-dodge;}.cls-32{fill:#dce1e5;}.cls-33,.cls-66{fill:#774004;}.cls-34{fill:#ff9700;}.cls-35,.cls-46,.cls-59{fill:#c08b33;}.cls-36,.cls-37{fill:#81161f;}.cls-38{fill:#211625;}.cls-39{fill:#772c00;}.cls-40{fill:#773d03;}.cls-41{fill:#894c09;}.cls-42,.cls-43,.cls-47,.cls-52,.cls-53,.cls-64{mix-blend-mode:screen;}.cls-43,.cls-53,.cls-64{opacity:0.4;}.cls-47,.cls-48,.cls-58,.cls-67,.cls-68{fill:#f8d977;}.cls-49,.cls-50,.cls-51,.cls-52,.cls-53{fill:#d88b33;}.cls-54{fill:#e9e0c3;}.cls-55{fill:#670b00;}.cls-56{fill:#ee0008;}.cls-57{fill:#ffef8c;}.cls-60,.cls-61{fill:#66006f;}.cls-62,.cls-63{fill:#66009c;}.cls-64{fill:#90009c;}.cls-65{fill:#cb7c00;}.cls-69{fill:#fff;}</style></defs><title>設施-資產 21遊樂設施</title><g class="cls-1"><g id="圖層_2" data-name="圖層 2"><g id="Layer_1" data-name="Layer 1"><path class="cls-2" d="M136,187c54.31-.86,44.63-25.94,44.63-25.94S173.94,149,167.67,150s-6,9.75-6,9.75l-11.45,3.34L137,151.6l-2.74.58-4.13,21.15-10.42.9-16.91-21.87-4.58.48-4,20.18h-15L67.16,151.08l-1.7.19-1.28,6.12-1.88.15c-3.65-.44-4.84-8.83-4.84-8.83-6.51-3-11.65,2-11.65,2l-3.36-7.5s-9.67-3.08-3,17.7S81.66,187.91,136,187Z"/><polygon class="cls-3" points="108.61 29.42 167.67 151.47 170.63 150.28 110.65 27.74 108.61 29.42"/><polygon class="cls-4" points="108.61 29.42 167.67 151.47 170.63 150.28 110.65 27.74 108.61 29.42"/><path class="cls-5" d="M168,147.5c-1.41-2.34-37.65-76-39.61-79.68A1.7,1.7,0,0,1,129,65.3L110.65,27.74l-2,1.68,59,122.05,3-1.18-1-2.11A1.4,1.4,0,0,1,168,147.5Z"/><path class="cls-3" d="M163.57,158.73s-1.33-6.22,3.11-8.59,9.92-.15,10.81,3.7c0,0-.74,3.55-6.22,4.59S163.57,158.73,163.57,158.73Z"/><path class="cls-6" d="M175.36,150.7a1.82,1.82,0,0,1-.4,1.91c-1,1-2.12.18-3.08-.38-1.53-.9-2.95-.15-4.47.37-.77,1-1.93,2.5-3.13,1.34a2.21,2.21,0,0,1-.39-.49,11,11,0,0,0-.32,5.28s2.22.74,7.7-.3,6.22-4.59,6.22-4.59A5.51,5.51,0,0,0,175.36,150.7Z"/><path class="cls-6" d="M173.2,153.64a3.26,3.26,0,1,1-3.26-3.16A3.21,3.21,0,0,1,173.2,153.64Z"/><path class="cls-3" d="M172.51,153.89a2.92,2.92,0,1,1-2.92-2.91A2.91,2.91,0,0,1,172.51,153.89Z"/><path class="cls-7" d="M167.26,154.45c.5-1.27,1.4-2.55,2.92-2.55a4.82,4.82,0,0,1,1.86.4,2.92,2.92,0,0,0-5.36,1.59,2.83,2.83,0,0,0,.34,1.36A4.59,4.59,0,0,1,167.26,154.45Z"/><path class="cls-6" d="M171.42,154a1.88,1.88,0,1,1-1.88-1.82A1.84,1.84,0,0,1,171.42,154Z"/><path class="cls-3" d="M171,154.14a1.68,1.68,0,1,1-1.67-1.68A1.67,1.67,0,0,1,171,154.14Z"/><path class="cls-7" d="M169.28,153.13a2.67,2.67,0,0,1,1.09-.32,1.66,1.66,0,0,0-1-.35,1.68,1.68,0,0,0-.84,3.13A1.84,1.84,0,0,1,169.28,153.13Z"/><polygon class="cls-3" points="111.15 25.38 58.22 150.21 55.2 149.17 109.03 23.8 111.15 25.38"/><polygon class="cls-4" points="111.15 25.38 58.22 150.21 55.2 149.17 109.03 23.8 111.15 25.38"/><path class="cls-5" d="M57.66,146.26c1.28-2.41,33.83-77.79,35.6-81.55a1.68,1.68,0,0,0-.73-2.48L109,23.8l2.12,1.58L58.22,150.21l-3-1,.93-2.15A1.42,1.42,0,0,0,57.66,146.26Z"/><path class="cls-3" d="M62.3,157.54s1.34-6.22-3.11-8.59-9.92-.15-10.81,3.71c0,0,.74,3.55,6.22,4.59S62.3,157.54,62.3,157.54Z"/><path class="cls-6" d="M50.52,149.51a1.81,1.81,0,0,0,.39,1.92c1,1,2.13.18,3.08-.38,1.53-.9,2.95-.16,4.47.36.77,1.05,1.93,2.51,3.14,1.35a2.45,2.45,0,0,0,.38-.5,10.88,10.88,0,0,1,.32,5.28s-2.22.74-7.7-.29-6.22-4.59-6.22-4.59A5.55,5.55,0,0,1,50.52,149.51Z"/><path class="cls-6" d="M52.67,152.46a3.26,3.26,0,1,0,3.26-3.16A3.21,3.21,0,0,0,52.67,152.46Z"/><path class="cls-3" d="M53.36,152.71a2.92,2.92,0,1,0,2.92-2.92A2.92,2.92,0,0,0,53.36,152.71Z"/><path class="cls-7" d="M58.62,153.27c-.51-1.27-1.4-2.56-2.93-2.56a4.74,4.74,0,0,0-1.85.41,2.91,2.91,0,0,1,5.35,1.59,2.86,2.86,0,0,1-.34,1.36A4.55,4.55,0,0,0,58.62,153.27Z"/><path class="cls-6" d="M54.45,152.81A1.88,1.88,0,1,0,56.33,151,1.85,1.85,0,0,0,54.45,152.81Z"/><path class="cls-3" d="M54.85,153a1.68,1.68,0,1,0,1.68-1.67A1.68,1.68,0,0,0,54.85,153Z"/><path class="cls-7" d="M56.59,152a2.52,2.52,0,0,0-1.09-.32,1.68,1.68,0,1,1,1.86,2.78A1.82,1.82,0,0,0,56.59,152Z"/><path class="cls-8" d="M8.46,127.31c-.68-.35-1.38-.68-2.08-1a.12.12,0,0,0-.15.08v0a5.84,5.84,0,0,0,0,2.39.17.17,0,0,0,0,.07h0a.17.17,0,0,0,.22.13.19.19,0,0,0,.18-.12s0,0,0,0h0a5.34,5.34,0,0,0,.86-.5,3.56,3.56,0,0,0,.95-.69A.24.24,0,0,0,8.46,127.31Z"/><path class="cls-8" d="M11,126.06a3.06,3.06,0,0,0-.95-.72,2.7,2.7,0,0,0-1-.47.11.11,0,0,0-.19.07c0,.8-.32,1.56-.3,2.35a.21.21,0,0,0,.28.18,10.5,10.5,0,0,1,1.45-.65c.25-.08.67-.19.68-.51A.21.21,0,0,0,11,126.06Z"/><path class="cls-8" d="M13.36,125.18h0a.18.18,0,0,0,0-.21,7,7,0,0,0-.7-.63,6.07,6.07,0,0,0-.8-.64.14.14,0,0,0-.09,0,.09.09,0,0,0-.14.05c-.12.6-.15,1.24-.23,1.85,0,.12.08.26.21.23a4.23,4.23,0,0,0,1.69-.6h0Z"/><path class="cls-8" d="M14.27,121.41c-.3,0-.6,0-.9,0a1.7,1.7,0,0,0-.84.15.19.19,0,0,0,0,.24,2.31,2.31,0,0,0,.45.75,2.07,2.07,0,0,0,.6.65.09.09,0,0,0,.13-.08.05.05,0,0,0,.05,0c.39-.37.4-1,.72-1.36A.19.19,0,0,0,14.27,121.41Z"/><path class="cls-8" d="M10.67,122.1a17.73,17.73,0,0,1-1.93-.17c-.27-.06-.35.37-.07.43h.1a7.55,7.55,0,0,0,.63,1,2,2,0,0,0,.68.71.19.19,0,0,0,.23-.05,3.27,3.27,0,0,0,.51-1.67C10.83,122.23,10.78,122.1,10.67,122.1Z"/><path class="cls-8" d="M7.43,124.43c.13-.62.34-1.2.51-1.81a.18.18,0,0,0-.19-.21c-.57,0-1.13.13-1.7.13a.2.2,0,0,0-.11.35,1.64,1.64,0,0,0,.46.76,8.36,8.36,0,0,0,.91,1c.07.06.21,0,.16-.12Z"/><path class="cls-8" d="M4.74,122.78c-.49,0-1,.11-1.48.17a5.3,5.3,0,0,0-1,.14c-.17.06-.21.35,0,.41l.05,0a.09.09,0,0,0,0,0c.31.06.57.76.7,1a2.89,2.89,0,0,0,.69,1.11.22.22,0,0,0,.3,0,2.13,2.13,0,0,0,.41-1.07c.11-.55.42-1,.57-1.54A.21.21,0,0,0,4.74,122.78Z"/><g class="cls-9"><path class="cls-10" d="M8.46,127.31l-1.13-.55a.92.92,0,0,1-.88.69H6.37a.69.69,0,0,1-.25,0,6.39,6.39,0,0,0,.15,1.4.17.17,0,0,0,0,.07h0a.17.17,0,0,0,.22.13.19.19,0,0,0,.18-.12s0,0,0,0h0a5.34,5.34,0,0,0,.86-.5,3.56,3.56,0,0,0,.95-.69A.24.24,0,0,0,8.46,127.31Z"/><path class="cls-10" d="M11,126.06a3.06,3.06,0,0,0-.95-.72l-.11-.08a.85.85,0,0,1-.87.82,1,1,0,0,1-.36-.06,6,6,0,0,0-.15,1.27.21.21,0,0,0,.28.18,10.5,10.5,0,0,1,1.45-.65c.25-.08.67-.19.68-.51A.21.21,0,0,0,11,126.06Z"/><path class="cls-10" d="M13.36,125a7,7,0,0,0-.7-.63L12.3,124a.52.52,0,0,1-.52.55.53.53,0,0,1-.26-.07c0,.37-.07.75-.12,1.11,0,.12.08.26.21.23a4.23,4.23,0,0,0,1.69-.6h0l0,0h0A.18.18,0,0,0,13.36,125Z"/><path class="cls-10" d="M14.27,121.41c-.3,0-.6,0-.9,0a1.7,1.7,0,0,0-.84.15.19.19,0,0,0,0,.24,2.31,2.31,0,0,0,.45.75l.16.23a.57.57,0,0,1,.61-.26.45.45,0,0,1,.28.18,4.76,4.76,0,0,1,.45-1A.19.19,0,0,0,14.27,121.41Z"/><path class="cls-10" d="M9.66,123.06a.86.86,0,0,1,1,.11,4.19,4.19,0,0,0,.14-.85c0-.09,0-.22-.15-.22a17.73,17.73,0,0,1-1.93-.17c-.27-.06-.35.37-.07.43h.1a7.37,7.37,0,0,0,.62.95A.84.84,0,0,1,9.66,123.06Z"/><path class="cls-10" d="M6.4,123.65a1,1,0,0,1,.44-.27.87.87,0,0,1,.82.19c.09-.32.19-.63.28-.95a.18.18,0,0,0-.19-.21c-.57,0-1.13.13-1.7.13a.2.2,0,0,0-.11.35,1.64,1.64,0,0,0,.46.76Z"/><path class="cls-10" d="M3.09,124.76a.93.93,0,0,1,1-.46.8.8,0,0,1,.29.15c.12-.5.4-.93.54-1.43a.21.21,0,0,0-.22-.24c-.49,0-1,.11-1.48.17a5.3,5.3,0,0,0-1,.14c-.17.06-.21.35,0,.41l.05,0a.09.09,0,0,0,0,0c.31.06.57.76.7,1A2,2,0,0,1,3.09,124.76Z"/></g><path class="cls-11" d="M36.18,135.17a9.46,9.46,0,0,0-1.74-3l0,0c.67.25,1,1,1.67,1.29a.2.2,0,0,0,.28-.15,7,7,0,0,0-.72-3.92,7.25,7.25,0,0,0-1.32-2.1,3.4,3.4,0,0,1,.5.26,2,2,0,0,0,1.11.5c.12,0,.2-.12.2-.23a6.34,6.34,0,0,0-2.5-4.66c.6.23,1.13.57,1.76.76a.2.2,0,0,0,.28-.2,7.87,7.87,0,0,0-.52-2.38A7.29,7.29,0,0,0,34,119.13a6.2,6.2,0,0,0-3.2-2.19,5.45,5.45,0,0,0,1.11-.79c.29-.27,1.36-1.69.76-2.05a.2.2,0,0,0-.34,0c-.83.87-2.31.79-3.39.6-.92-.17-1.69-1-2.63-1a4.39,4.39,0,0,0-3.47,1.57h-.09c-.12,0-.11.18,0,.21,3.55,1,5.35,4.57,6.53,7.8a24.32,24.32,0,0,1,1.29,7c.07,1.26.06,2.53,0,3.8s-.23,2.76-.36,4.15a.23.23,0,0,0,0,.18.22.22,0,0,0,.13.17c1.2.55,2.47.1,3.73.28.67.09,2,.3,2.34-.55A4.92,4.92,0,0,0,36.18,135.17Z"/><path class="cls-12" d="M36.31,135.57A2.89,2.89,0,0,1,35,135.2a1.72,1.72,0,0,1-.68-1.2c-.06-.29-.16-.86.22-1a.65.65,0,0,1,.55.06c-.22-.31-.44-.61-.68-.9l0,0c.67.25,1,1,1.67,1.29a.2.2,0,0,0,.28-.15,3.19,3.19,0,0,0,.06-.53.42.42,0,0,1-.26.21c-.42.12-.66-.48-.84-.73-.45-.6-1.19-1-1.55-1.63s-.2-1.55-.4-2.24c-.09-.32-.28-.92.11-1.15s.84.19,1.09.4l.19.18a3.75,3.75,0,0,0-.44-.53,3.4,3.4,0,0,1,.5.26,2,2,0,0,0,1.11.5c.12,0,.2-.12.2-.23a2.53,2.53,0,0,0,0-.38.62.62,0,0,1-.48-.08c-.6-.36-1.07-.86-1.71-1.18a2.14,2.14,0,0,1-1.06-2.29c.12-.74.71-.63,1.22-.36a5.07,5.07,0,0,0-.44-.37c.5.19,1,.45,1.45.65-.24-.24-.48-.49-.73-.71a14.87,14.87,0,0,0-1.43-1,2.69,2.69,0,0,1-.81-1.54,14,14,0,0,0-.78-1.83,6.16,6.16,0,0,1-.52-1.14.46.46,0,0,1,.34-.59l-.38-.13a5.45,5.45,0,0,0,1.11-.79,3.39,3.39,0,0,0,.36-.43,4.15,4.15,0,0,1-1.39.37,3.63,3.63,0,0,1-2.58-.82,1.33,1.33,0,0,1-.6-1.14,3.17,3.17,0,0,0-1.39-.48,4.39,4.39,0,0,0-3.47,1.57h-.09c-.12,0-.11.18,0,.21,3.55,1,5.35,4.57,6.53,7.8a24.32,24.32,0,0,1,1.29,7c.07,1.26.06,2.53,0,3.8s-.23,2.76-.36,4.15a.23.23,0,0,0,0,.18.22.22,0,0,0,.13.17c1.2.55,2.47.1,3.73.28.67.09,2,.3,2.34-.55A4.24,4.24,0,0,0,36.31,135.57Z"/><path class="cls-13" d="M18.51,130.19l.69,7.6,3.95.2-1.43-8.94A8.55,8.55,0,0,1,18.51,130.19Z"/><path class="cls-14" d="M19.3,135.07c0-.06,0-.14.1-.15a16.9,16.9,0,0,0,3-.47c-1.05,0-2.1.06-3.14.13a.14.14,0,0,1-.15-.11c-.07-.51-.07-.77-.11-1.29a.16.16,0,0,1,.1-.26c.54,0,1.92-.45,2.45-.56-.53,0-2,.08-2.51.11a.14.14,0,0,1-.15-.11,10.41,10.41,0,0,1-.08-1.48.15.15,0,0,1,.11-.14c.86-.24,2.26-.42,2.83-1.23l-.07-.46a8.55,8.55,0,0,1-3.21,1.14l.69,7.6.52,0A12.29,12.29,0,0,1,19.3,135.07Z"/><path class="cls-15" d="M33.17,137.51a47.51,47.51,0,0,0-.3-5c-.16-1.89-.34-3.78-.5-5.67-.26-3.18-.68-6.21-2.49-8.93A7.5,7.5,0,0,0,27,115.2a9.52,9.52,0,0,0-2.3-.61,14.3,14.3,0,0,1-2.65-.83c-1.16-.46-2.46-.78-3.47.15-.5.46-.86,1-1.34,1.5l-.26.23a44.7,44.7,0,0,1-5.64.66,24.06,24.06,0,0,0-5,.9,1.69,1.69,0,0,0-1-.72c-.86-.18-1.27.83-1.51,1.71a11.42,11.42,0,0,0-2.11,2.17A8.52,8.52,0,0,0,0,123.07a.14.14,0,0,0,.06.18,1.32,1.32,0,0,0,.17.62,1.57,1.57,0,0,0,.48.52.05.05,0,0,0,0,0c.44.51,1.37.06,1.87-.12A33.2,33.2,0,0,1,7,123.19c3-.64,6.14-.81,9.21-1.21a10.13,10.13,0,0,1-2.81,2q-1.74,1-3.48,2c-1.17.69-2.34,1.36-3.56,2a6.14,6.14,0,0,0-.89.53c-.27.2-.71.44-1.06.69,0,0-.08,0-.08.07-.33.28,0,1,.21,1.31a.59.59,0,0,0,.27.25s0,0,0,0h0a1.32,1.32,0,0,0,.53.05c.23,0,.53,0,.76,0,3.95-.16,7.84-.19,11.77-.57a14.15,14.15,0,0,0,1.93-.33,18,18,0,0,0,.34,5.91c.12.55-.28,1.36.23,1.81a2.3,2.3,0,0,0,1.42.44,15.25,15.25,0,0,0,1.91,0c.85,0,1.72,0,2.58.06a26.81,26.81,0,0,0,6.51-.45.18.18,0,0,0,.32-.11h0A.13.13,0,0,0,33.17,137.51Z"/><path class="cls-16" d="M33.17,137.51a47.51,47.51,0,0,0-.3-5c-.16-1.89-.34-3.78-.5-5.67-.26-3.18-.68-6.21-2.49-8.93A7.5,7.5,0,0,0,27,115.2a9.52,9.52,0,0,0-2.3-.61,14.3,14.3,0,0,1-2.51-.77c-.29,1.39.93,2.69,2.45,3,1.14.22,2.44,0,3.43.77,1.77,1.33,2.64,4,3.12,6.09a30.56,30.56,0,0,1,.61,5c.05.94.11,1.87.11,2.81a15.27,15.27,0,0,0,.06,2.44c.11.61.28,1.56-.57,1.66-.5.06-.61-.74-.79-1.16a1.82,1.82,0,0,1-1.93,1.22c-.93-.11-.89-.93-1.14-1.62-.56,1.07-1.88,2.48-2.71,1.09-.65.42-1.65.59-1.51-.51a1,1,0,0,1,1.37-.95,7.7,7.7,0,0,1-.27-1.74c-.3.3-.69.62-1.1.5s-.46-.87-.47-1.21-.12-1.32.36-1.48a1.33,1.33,0,0,1,.94.05,3.15,3.15,0,0,1-.66-1.08c-.18-.7.25-1.35.4-2a6.51,6.51,0,0,0-.83-4.14,5.46,5.46,0,0,1-1.7,4.18,10.1,10.1,0,0,1-5.65,1.79c-2.78.22-5.56.59-8.34.77a3.61,3.61,0,0,1-2.39-.46c-.19.12-.38.23-.55.36s-.08,0-.08.07c-.33.28,0,1,.21,1.31a.59.59,0,0,0,.27.25s0,0,0,0h0a1.32,1.32,0,0,0,.53.05c.23,0,.53,0,.76,0,3.95-.16,7.84-.19,11.77-.57a14.15,14.15,0,0,0,1.93-.33,18,18,0,0,0,.34,5.91c.12.55-.28,1.36.23,1.81a2.3,2.3,0,0,0,1.42.44,15.25,15.25,0,0,0,1.91,0c.85,0,1.72,0,2.58.06a26.81,26.81,0,0,0,6.51-.45.18.18,0,0,0,.32-.11h0A.13.13,0,0,0,33.17,137.51Z"/><path class="cls-17" d="M6.68,117.73a2,2,0,0,1-.43-.54,1.7,1.7,0,0,0-1-.71c-.64-.13-1,.4-1.3,1a.48.48,0,0,1-.08.33l0,.07c-.06.23-.12.47-.19.7h0l-.11.47s0,.05.06,0c.18-.45.4-.88.62-1.31.15-.27.31-.53.47-.79s.68-.11.94.08a22.76,22.76,0,0,1,1.59,1.67s.09,0,.07,0A9.79,9.79,0,0,0,6.68,117.73Z"/><path class="cls-17" d="M32.87,132.46c-.16-1.89-.34-3.78-.5-5.67-.26-3.18-.68-6.21-2.49-8.93A7.5,7.5,0,0,0,27,115.2a9.52,9.52,0,0,0-2.3-.61,14.3,14.3,0,0,1-2.65-.83c-1.16-.46-2.46-.78-3.47.15a7.39,7.39,0,0,0-.75.83,7.2,7.2,0,0,1-1,1.15,3,3,0,0,1-1.79.69s0,.08.07.08a4.51,4.51,0,0,0,2.35-.92h0l0,0a4.85,4.85,0,0,0,.52-.5,4.53,4.53,0,0,1,1.45-1.34c.82-.38,1.88.11,2.64.41,1.48.59,3,.74,4.52,1.27a6.88,6.88,0,0,1,3.17,3c1.71,2.68,2,5.77,2.21,8.84q.44,5.17.88,10.33c0,.23.33.19.34,0A42.84,42.84,0,0,0,32.87,132.46Z"/><path class="cls-17" d="M16.54,121.58c-1.38.07-2.75.29-4.12.44s-2.93.31-4.39.57-2.77.59-4.13,1l-.5.13a11.14,11.14,0,0,1-1.17.36l-.4.15a1.54,1.54,0,0,1-1.41-.07,1.53,1.53,0,0,0,.3.27.05.05,0,0,0,0,0c.44.51,1.37.06,1.87-.12A33.2,33.2,0,0,1,7,123.19c3-.64,6.14-.81,9.21-1.21a10.13,10.13,0,0,1-2.81,2l-2.83,1.66,1.36-.73C13,124.3,14,123.56,15.18,123A7.19,7.19,0,0,0,16.54,121.58Z"/><path class="cls-17" d="M23.24,124.3s-.09,0-.09,0a6,6,0,0,1-.35,3.06A4,4,0,0,1,21,129.05a10.74,10.74,0,0,1-4.27.88c-1.77.11-3.53.19-5.3.24a37.78,37.78,0,0,0-5.81.43l-.14,0a.76.76,0,0,1-.68-.24,1,1,0,0,1-.27-.19,1.38,1.38,0,0,1-.39-.68,1.85,1.85,0,0,0,.34,1.08.59.59,0,0,0,.27.25s0,0,0,0h0a1.32,1.32,0,0,0,.53.05c.23,0,.53,0,.76,0,3.95-.16,7.84-.19,11.77-.57a7.86,7.86,0,0,0,4.2-1.42A4,4,0,0,0,23.24,124.3Z"/><path class="cls-8" d="M22.26,114.19s0,1.29,2,1.63,2.28,0,2.28,0,1.48-2.81,1.92-3.9.35-1.38.15-1.63-1,.05-1.88.79S22.26,114.19,22.26,114.19Z"/><path class="cls-18" d="M28.63,110.24l-.07,0c.13.74-1.48,2.74-1.74,3a7.2,7.2,0,0,1-2.13,2,1.84,1.84,0,0,1-2.36-.68c.14.4.58,1.07,2,1.3,2,.35,2.28,0,2.28,0s1.48-2.81,1.92-3.9S28.83,110.49,28.63,110.24Z"/><g class="cls-19"><path class="cls-20" d="M22.28,114.17l0,0s0,1.29,2,1.63,2.25,0,2.27,0A4.77,4.77,0,0,1,22.28,114.17Z"/><path class="cls-20" d="M27.7,110.39l-.14.07c0,.44.47.7.91.67A1.1,1.1,0,0,1,27.7,110.39Z"/><path class="cls-20" d="M27.44,112.19a1.26,1.26,0,0,1-1-.9l-.11.08c0,.77,1.14,1.14,1.94,1l.09-.18A1.62,1.62,0,0,1,27.44,112.19Z"/><path class="cls-20" d="M24.58,112.61l-.21.14c0,.69.84,1.09,1.44,1.3a3.74,3.74,0,0,0,1.54.19l.12-.25C26.34,114.22,24.55,113.64,24.58,112.61Z"/></g><path class="cls-21" d="M20.65,117.13c.08.94-.13,1.72-.47,1.75s-.67-.71-.75-1.65.13-1.72.46-1.75S20.57,116.19,20.65,117.13Z"/><path class="cls-22" d="M5.83,119a5.35,5.35,0,0,0-.34-.73c-.07-.14-.23-.51-.44-.49H5a.11.11,0,0,0-.17,0,4.64,4.64,0,0,0-.2,1.57.16.16,0,0,0,.17.15c.22,0,1-.11,1-.39,0,0,0,0,0,0A.18.18,0,0,0,5.83,119Z"/><g class="cls-23"><path class="cls-24" d="M27.3,118.34c-.05,0-.07.07,0,.09A4.08,4.08,0,0,1,28.83,120c.43.88-.07,1.45-.79,1.9-.09.06,0,.17.07.15C30.46,121.56,29.1,118.57,27.3,118.34Z"/><path class="cls-24" d="M28.44,124c-.06,0-.09.08,0,.1,1.59.58,1.35,2.13.27,3.09-.07.06,0,.19.08.15A2,2,0,0,0,30,125.52,1.7,1.7,0,0,0,28.44,124Z"/><path class="cls-24" d="M29.08,129.14c-.07,0-.1.09,0,.12,1.64.85,1,2.41.05,3.53-.06.07,0,.22.12.17C30.72,132.18,31,129.57,29.08,129.14Z"/><path class="cls-24" d="M30.12,133.41a0,0,0,0,0,0,.08c1.18.56.27,1.79-.22,2.49,0,0,0,.11.06.09C30.91,135.63,31.43,133.73,30.12,133.41Z"/><path class="cls-24" d="M23.45,129.55c-.05,0-.07.07,0,.09,1.38.66,1.12,2.31.33,3.34,0,0,0,.09.06.06C25,132.07,25.09,130.06,23.45,129.55Z"/><path class="cls-24" d="M24.21,133.29a.07.07,0,1,0-.05.12c.91.45.57,1.55.16,2.23,0,.06.05.11.1.08A1.41,1.41,0,0,0,24.21,133.29Z"/><path class="cls-24" d="M27.49,133.27a2,2,0,0,0-1.22-1.43s-.07,0,0,.06a2.43,2.43,0,0,1,.89,1.09,1.24,1.24,0,0,1-.51,1.54c-.05,0,0,.15.07.12A1.27,1.27,0,0,0,27.49,133.27Z"/><path class="cls-24" d="M27.18,128.09a1.66,1.66,0,0,0-1.31-1.26.05.05,0,0,0,0,.1,1.7,1.7,0,0,1,1,1.11c.2.59-.13,1-.5,1.41a.08.08,0,0,0,.09.13A1.27,1.27,0,0,0,27.18,128.09Z"/><path class="cls-24" d="M25.73,121.89a.06.06,0,0,0,0,.11,1.18,1.18,0,0,1,.74,1,1.93,1.93,0,0,1-.52,1.24s0,.13.07.1a1.44,1.44,0,0,0,.71-1.36A1.12,1.12,0,0,0,25.73,121.89Z"/></g><path class="cls-25" d="M24.17,132.13a1.25,1.25,0,0,0,.11-1.34c-.22-.54-.65-1-.94-1A3.1,3.1,0,0,1,24.17,132.13Z"/><path class="cls-25" d="M21.56,114.54a2.3,2.3,0,0,0-2-.6c-.87.25-1.34,1.27-1.79,2,0,0,0,.12.09.07a11.84,11.84,0,0,1,1.32-1.33c.75-.6,1.48-.24,2.27,0C21.55,114.66,21.62,114.58,21.56,114.54Z"/><path class="cls-25" d="M2.73,119.36A21.2,21.2,0,0,0,.6,121.88a1.44,1.44,0,0,0,0,1.88s.08,0,.06-.05c-.46-.75.39-1.72.8-2.31s.93-1.3,1.4-2A.06.06,0,0,0,2.73,119.36Z"/><path class="cls-25" d="M4.48,117.06a3.13,3.13,0,0,0-.58,1.49s0,0,.05,0c.19-.34.37-.67.59-1a1,1,0,0,1,.38-.38c.18-.07.39.14.52.23a.06.06,0,0,0,.1-.07A.59.59,0,0,0,4.48,117.06Z"/><path class="cls-25" d="M11.35,116.57a11,11,0,0,0-2.43.11c-.77.13-1.48.47-2.25.55,0,0,0,0,0,0a6.86,6.86,0,0,0,2-.23c.88-.16,1.77-.27,2.66-.36C11.4,116.67,11.41,116.57,11.35,116.57Z"/><path class="cls-25" d="M22.69,121.91a5.28,5.28,0,0,0-2.18-2.21,3.15,3.15,0,0,0-2.21-.15,6.16,6.16,0,0,1,2.94,2.85,4,4,0,0,1,.47,1.11,5.6,5.6,0,0,1,0,3.57A4,4,0,0,0,22.69,121.91Z"/><path class="cls-25" d="M28.49,119.65A2.86,2.86,0,0,0,26,118.36a2.54,2.54,0,0,1,1.35,3.32A1.4,1.4,0,0,0,28.49,119.65Z"/><path class="cls-25" d="M26.12,122.7a2.27,2.27,0,0,0-1.8-1,2.32,2.32,0,0,1,1.27,1.7,1.85,1.85,0,0,1-.29,1.11A1.25,1.25,0,0,0,26.12,122.7Z"/><path class="cls-25" d="M29.39,125.12A1.78,1.78,0,0,0,27.51,124a3.52,3.52,0,0,1,1.16,3.33A1.93,1.93,0,0,0,29.39,125.12Z"/><path class="cls-25" d="M26.9,128a1.76,1.76,0,0,0-2-1.11,3.26,3.26,0,0,1,1.18,1.81,4.21,4.21,0,0,1,0,1.58A2.36,2.36,0,0,0,26.9,128Z"/><path class="cls-25" d="M30,130.43a1.56,1.56,0,0,0-1.55-1.37c.81.93.78,2.79.29,4.07A.48.48,0,0,0,29,133,2.73,2.73,0,0,0,30,130.43Z"/><path class="cls-25" d="M27.17,133.34A1.79,1.79,0,0,0,26.1,132a3.1,3.1,0,0,1,.26,3.07,1.82,1.82,0,0,0,.52-.47A1.63,1.63,0,0,0,27.17,133.34Z"/><path class="cls-25" d="M30.62,134.07a1,1,0,0,0-1.08-.61h0a1.92,1.92,0,0,1,.17,2.1A1.38,1.38,0,0,0,30.62,134.07Z"/><path class="cls-26" d="M116.71,196.5c39.9,0,72.68-3.75,90.06-20.34s18.17-34.37,18.17-34.37H182.09v6.92c0,4.14-1.39,10.66-12.05,12a89.85,89.85,0,0,1-18.57.6l-1.58-6.72-11.65-.15-3.55,21.18-14.22.15-5.63-20.14H103.73L100.17,176H82.25l-3.41-21.48H68.77v5.19s-17-.15-22.37-5.48-5.48-14.08-5.48-14.08L15.4,140s1.77,25.68,15.4,39.51S76.82,196.5,116.71,196.5Z"/><path class="cls-27" d="M223.37,149.76a37.16,37.16,0,0,0,1.57-8H182.09v6.92c0,.33,0,.68,0,1Z"/><polygon class="cls-28" points="115.45 157.85 114.84 155.67 103.73 155.67 103.34 157.85 115.45 157.85"/><polygon class="cls-28" points="150.65 157.85 149.89 154.63 138.24 154.48 137.68 157.85 150.65 157.85"/><path class="cls-28" d="M220.23,157.85a54.07,54.07,0,0,0,2.81-7H182a10.22,10.22,0,0,1-3.94,7Z"/><path class="cls-28" d="M54.09,157.85c-3.13-.81-6-2-7.69-3.66a15.62,15.62,0,0,1-2.53-3.38H17.08c.48,2.18,1.08,4.56,1.84,7Z"/><path class="cls-29" d="M215.51,166a61.11,61.11,0,0,0,4.2-7H176.34a18.63,18.63,0,0,1-6.3,1.84,89.85,89.85,0,0,1-18.57.6l-.57-2.44H137.5l-1.18,7Z"/><polygon class="cls-29" points="117.71 165.95 115.74 158.91 103.16 158.91 101.93 165.95 117.71 165.95"/><path class="cls-29" d="M80.66,166l-1.11-7H68.77v.76a77.48,77.48,0,0,1-9.28-.76H19.25a71.11,71.11,0,0,0,2.68,7Z"/><polygon class="cls-30" points="120.25 175.04 118 167.01 101.74 167.01 100.33 175.04 120.25 175.04"/><path class="cls-30" d="M207.92,175a67.11,67.11,0,0,0,6.85-8H136.14l-1.35,8Z"/><path class="cls-30" d="M82.1,175l-1.27-8H22.41a50.7,50.7,0,0,0,4.64,8Z"/><path class="cls-29" d="M37.6,184.71H194.42a51.25,51.25,0,0,0,12.35-8.55l.07-.07h-179a37.14,37.14,0,0,0,3,3.43A32.69,32.69,0,0,0,37.6,184.71Z"/><path class="cls-30" d="M166.59,193.21a102.78,102.78,0,0,0,25.64-7.44H39.5c6.49,3.4,14.79,5.79,24.5,7.44Z"/><path class="cls-30" d="M159.52,194.26H71.2c13.28,1.68,28.73,2.24,45.51,2.24C132.22,196.5,146.65,195.93,159.52,194.26Z"/><polygon class="cls-28" points="79.38 157.85 78.84 154.48 68.77 154.48 68.77 157.85 79.38 157.85"/><path class="cls-27" d="M43.31,149.76a25.78,25.78,0,0,1-2.39-9.65L15.4,140a79,79,0,0,0,1.46,9.75Z"/><path class="cls-31" d="M111.18,193c98.75,0,103.1-37.13,105.27-41.28s-10.66-3.75-16.59-3.56-10.86,5.53-12.44,8.3c-7.1,12.41-30,9.87-35.35,10.27s-9.88.59-10.47,3.55-1,4.35-2,8.1-2.56,3.36-6.71,3.36H85.31c-4.54,0-6.71-.2-7-2.08-.47-3.1-1.29-14.51-4.85-14.71-27.81-1.55-35.15-11.65-36.73-16.19s-8.9-3.17-13.24-3.36C19,145.15,12.43,193,111.18,193Z"/><path class="cls-32" d="M205.21,149a8.18,8.18,0,0,0-5.25-2,6.54,6.54,0,0,0-5,1.55,5.57,5.57,0,0,0-2.15,3.13,4.69,4.69,0,0,0,.69,3.45c.36.64.86,1.2,1.27,1.81a11.43,11.43,0,0,1,.62,1.07,3.47,3.47,0,0,1-.06,1.24c-.09.4-.3.76-.38,1.15a1.05,1.05,0,0,0,.52,1.3,1.69,1.69,0,0,0,2-.68.67.67,0,0,1,.78.35,1.65,1.65,0,0,0,.52.59,1.77,1.77,0,0,0,1.69-.21c.36-.21,1.27-1.76,1.62-.81.11.31.23.62.52.71a1.39,1.39,0,0,0,1.15.49,1.31,1.31,0,0,0,1.18-1.21,7,7,0,0,0-.71-1.86c-.26-.72.3-1.31.84-1.88a5.53,5.53,0,0,0,2.09-3.5A5.76,5.76,0,0,0,205.21,149Zm-6.66,8.09a1.19,1.19,0,0,1-1.87.13,3.82,3.82,0,0,1-1.07-2.64c0-1-.21-3.34,1.29-3.27a.55.55,0,0,1,.32.13,1.49,1.49,0,0,1,1.06.58C199.27,153.13,199.5,155.86,198.55,157.07Zm1.34,1.91c0,.18,0,.5-.23.59s-.45-.24-.46-.45a3.11,3.11,0,0,1,.25-1,.16.16,0,0,1,.31,0,.14.14,0,0,1,.11.1A2.27,2.27,0,0,1,199.89,159Zm1,.63a.16.16,0,0,1-.21-.06c-.32-.44-.14-1-.18-1.49a.15.15,0,0,1,.2-.15.17.17,0,0,1,.23,0C201.36,158.33,201.51,159.28,200.9,159.61Zm3-3.46c-.28.7-.8,1.37-1.63,1a2.15,2.15,0,0,1-1.1-1.81c-.17-1.2-.18-4,1.66-3.94a.58.58,0,0,1,.19,0h0c.92-.11,1.23,1.58,1.22,2.19A7.42,7.42,0,0,1,203.93,156.15Z"/><path class="cls-32" d="M194.9,162.26a21.46,21.46,0,0,1-1.24-1.86.17.17,0,0,0-.16.07,30.49,30.49,0,0,0-1.91,2.74c-.43.67-.79,1.39-1.25,2a1.22,1.22,0,0,0-1.73,1.43,1.18,1.18,0,0,0,1.43.75,1.63,1.63,0,0,0,.38-.22c0,.72.38,1.48,1.12,1.45a1.17,1.17,0,0,0,1.19-1.08,2.47,2.47,0,0,0-.61-1.35c.45-.62.82-1.31,1.24-1.94A21.66,21.66,0,0,1,194.9,162.26Z"/><path class="cls-32" d="M213.32,163.28a1.2,1.2,0,0,0-1.17-.91,2.43,2.43,0,0,0-1.47.65c-.79-.64-1.61-1.25-2.44-1.83a8.27,8.27,0,0,1-1.29-1.06,2.75,2.75,0,0,0-.52-.41,3.94,3.94,0,0,1-.83,2.08c1.52,1.15,3,2.11,4.44,3.26a5.05,5.05,0,0,0,0,1.4c.14.56.77.66,1.25.54,1.17-.29,1-1.26.61-2.11A1.31,1.31,0,0,0,213.32,163.28Z"/><path class="cls-32" d="M210.87,146.89a1.58,1.58,0,0,0,.23-.85,1.72,1.72,0,0,0-1.31-1.47c-1.12-.36-1.14,1.08-.78,1.82-1,.67-2.06,1.27-3.11,1.89a5.35,5.35,0,0,1,1.53,2.14,9.79,9.79,0,0,0,1.61-1.18c.35-.27.75-.48,1.11-.73.73.72,2.13,1.12,2.43-.18C212.83,147.26,211.76,146.92,210.87,146.89Z"/><path class="cls-32" d="M192.19,150.39l0,0a4.11,4.11,0,0,1,1.21-1.78h0a.14.14,0,0,0-.11-.12.19.19,0,0,0-.08-.14,38.33,38.33,0,0,0-2.89-2.54,2.3,2.3,0,0,0,.42-1.36c-.08-.68-.91-.87-1.46-.86-1.16,0-1.46,1.36-1,2.26a2.18,2.18,0,0,0-1.28.18,1.67,1.67,0,0,0-.55,1.85c.13.67.62,1,1.25.69a3.2,3.2,0,0,0,.8-.8l.15-.17c1.41.53,2.19,2,3.51,2.74Z"/><path class="cls-32" d="M189,145.68l-.09.07s0,.05,0,0a.24.24,0,0,0,.12-.07S189.06,145.64,189,145.68Z"/><path class="cls-33" d="M38.48,143.27c.44,3.21,1.81,9.16,6,13.39,5.93,5.93,22.37,6.25,24.23,6.27h1.5a1.2,1.2,0,0,0,1.19-1.19v-4h5.13l3.24,20.48a1.19,1.19,0,0,0,1.17,1h20.44a1.19,1.19,0,0,0,1.16-1L106.24,159l6.57,0,5.39,19.29a1.19,1.19,0,0,0,1.14.86h0l16.59-.17a1.2,1.2,0,0,0,1.16-1l3.56-19.66,7.27.09,1.22,5.88a1.19,1.19,0,0,0,1.05.93l1,.11c.11,0,.42,0,.9,0A152.27,152.27,0,0,0,170.38,164c9.78-1.27,15.16-6.38,15.16-14.41l0-3.92,38.91-.06a27.6,27.6,0,0,0,.54-3.81H182.09v6.92c0,4.14-1.39,10.66-12.05,12a89.85,89.85,0,0,1-18.57.6l-1.58-6.72-11.65-.15-3.55,21.18-14.22.15-5.63-20.14H103.73L100.17,176H82.25l-3.41-21.48H68.77v5.19s-17-.15-22.37-5.48-5.48-14.08-5.48-14.08L15.4,140s.08,1.2.35,3.22Z"/><path class="cls-34" d="M101.42,176.06H81l-3.4-21.48H70.25v5.2l-1.49,0c-.72,0-17.71-.21-23.4-5.91s-5.91-14.71-5.92-15.09l3.61,0c0,.08.2,7.83,5,12.66,3.65,3.65,13.37,4.92,18.76,5.14l.32-5.43H80l4,21.72,14.81-.3,4.05-20.14h13.53l5.53,20.34,11.45-.1,3.69-21,14.68.18,1.28,6a90.38,90.38,0,0,0,16.79-.69c7.24-.94,10.27-2.67,10.86-9.78v-6.91l3.66-.1.1,7.31c0,7.71-5.41,12.09-14.13,13.22a140.45,140.45,0,0,1-18.86,1.3l-1.05-.11-1.41-6.81-9.23-.11-3.74,20.64-16.6.17-5.63-20.15-8.45,0Z"/><path class="cls-35" d="M184.26,140.31l-3.66.1v3.26a2.17,2.17,0,0,1,1.79.54c1.23,1,1.08,3.41,1.08,3.41A10.84,10.84,0,0,1,180,156c-2.27,2.05-5.59,3.36-9.85,3.92a148.38,148.38,0,0,1-18,1.3h-.71l-.39,0L149.78,155a.91.91,0,0,0-.86-.71l-9.23-.11h0a.87.87,0,0,0-.87.73l-3.61,19.92L120,175l-5.45-19.5a.89.89,0,0,0-.86-.65l-8.46.05a.89.89,0,0,0-.87.72l-3.7,19.52H81.74l-3.28-20.73a.9.9,0,0,0-.88-.75H70.25a.89.89,0,0,0-.89.89v4.3h-.59c-6-.06-18.43-1.31-22.79-5.66-2.41-2.41-5.45-8.76-4.42-11.33a2,2,0,0,1,1.69-1.16,17.84,17.84,0,0,1-.2-2l-3.61,0c0,.38.23,9.4,5.92,15.09s22.68,5.91,23.4,5.91l1.49,0v-5.2h7.33L81,176.06h20.44l3.84-20.25,8.45,0,5.63,20.15,16.6-.17,3.74-20.64,9.23.11,1.41,6.81,1.05.11h.79a151.7,151.7,0,0,0,18.07-1.31c8.72-1.13,14.13-5.51,14.13-13.22Z"/><path class="cls-35" d="M43.8,143.44a22.25,22.25,0,0,1-.75-4.73l-3.61,0a25.47,25.47,0,0,0,.62,4.68Z"/><polygon class="cls-35" points="184.34 146.1 184.26 140.31 180.6 140.41 180.6 146.1 184.34 146.1"/><polygon class="cls-28" points="180.21 126.98 180.21 139.72 225.63 139.72 225.63 126.39 180.21 126.98"/><path class="cls-36" d="M184.06,128.56h38.12a4.33,4.33,0,0,1,3.45,1.74v-3.91l-45.42.59v3.94A4.36,4.36,0,0,1,184.06,128.56Z"/><path class="cls-37" d="M222.18,137.25H184.06a4.37,4.37,0,0,1-3.85-2.35v4.82h45.42v-4.21A4.33,4.33,0,0,1,222.18,137.25Z"/><rect class="cls-38" x="185.69" y="130.44" width="7.55" height="6.22"/><rect class="cls-39" x="189.03" y="130.7" width="0.66" height="5.59"/><rect class="cls-40" x="185.91" y="133.16" width="7.04" height="0.66"/><path class="cls-41" d="M185.05,129.89v7.21h8.64v-7.21Zm7.6,6.13h-6.57v-5h6.57Z"/><polygon class="cls-34" points="185.23 136.66 185.23 130.1 193.49 130.1 193.49 136.66 193.26 130.44 185.44 130.44 185.23 136.66"/><path class="cls-34" d="M186.33,133.38h6.15A19.36,19.36,0,0,1,186.33,133.38Z"/><rect class="cls-38" x="199.61" y="130.44" width="7.55" height="6.22"/><rect class="cls-39" x="202.95" y="130.7" width="0.66" height="5.59"/><rect class="cls-40" x="199.84" y="133.16" width="7.04" height="0.66"/><path class="cls-41" d="M199,129.89v7.21h8.64v-7.21Zm7.61,6.13H200v-5h6.57Z"/><polygon class="cls-34" points="199.16 136.66 199.16 130.1 207.42 130.1 207.42 136.66 207.18 130.44 199.37 130.44 199.16 136.66"/><path class="cls-34" d="M200.26,133.38h6.14A19.3,19.3,0,0,1,200.26,133.38Z"/><rect class="cls-38" x="213.09" y="130.44" width="7.55" height="6.22"/><rect class="cls-39" x="216.43" y="130.7" width="0.66" height="5.59"/><rect class="cls-40" x="213.32" y="133.16" width="7.04" height="0.66"/><path class="cls-41" d="M212.45,129.89v7.21h8.64v-7.21Zm7.6,6.13h-6.56v-5h6.56Z"/><polygon class="cls-34" points="212.64 136.66 212.64 130.1 220.89 130.1 220.89 136.66 220.66 130.44 212.85 130.44 212.64 136.66"/><path class="cls-34" d="M213.74,133.38h6.14A19.3,19.3,0,0,1,213.74,133.38Z"/><path class="cls-11" d="M109.06,4.09s.74-.08,2.3-1.48,3.92-2.74,6.51-.67,4,3.11,5.41,1,2.3-4.37,5.7-1.63c0,0-2.22-1.18-3.7,2.45s-1.11,6.88-3.26,7.92-4.52-.74-5.48-1.41a3,3,0,0,0-3.92.23c-1.56,1.26-2.45,1.48-3.56,1.4S109.06,4.09,109.06,4.09Z"/><path class="cls-42" d="M114.9.87a6,6,0,0,0-3.54,1.74l-.19.16v8.67a9.26,9.26,0,0,0,1.45-1,3.25,3.25,0,0,1,2.28-.83Z"/><path class="cls-43" d="M122.11,4c-.71.27-1.48,0-2.44-.69v8.54a3.44,3.44,0,0,0,2.35-.2l.09-.05Z"/><path class="cls-44" d="M118.45,2.4l-.58-.46a4.14,4.14,0,0,0-4.72-.59v8.74a3,3,0,0,1,3.39.14,13.8,13.8,0,0,0,1.91,1.18Z"/><path class="cls-45" d="M123.28,2.9l0,0c.1,2.18.11,4.37.11,6.55,0,.24,0,.49,0,.74.75-1.55.87-3.92,1.92-6.49C126.76.09,129,1.27,129,1.27,125.58-1.47,124.69.75,123.28,2.9Z"/><path class="cls-12" d="M110.4,3.39a3.41,3.41,0,0,1-1.34.7s-1.11,7.7,0,7.77a3.79,3.79,0,0,0,1.34-.12Z"/><rect class="cls-46" x="107.87" y="2.66" width="1.53" height="10.37"/><rect class="cls-35" x="107.87" y="2.66" width="1.53" height="10.37"/><path class="cls-35" d="M109.41,4.68v-2h-1.54V4.77A2.18,2.18,0,0,0,109.41,4.68Z"/><path class="cls-35" d="M107.87,11v2h1.54V10.84A4.09,4.09,0,0,1,107.87,11Z"/><path class="cls-46" d="M110.69,2.16A1.93,1.93,0,1,1,108.76.24,1.93,1.93,0,0,1,110.69,2.16Z"/><path class="cls-35" d="M110.6,1.59a1.73,1.73,0,0,1,0,.45,1.8,1.8,0,0,1-.84,1.09,1.9,1.9,0,0,1-1.36.22,1.51,1.51,0,0,1-.71-.39,1.64,1.64,0,0,1-.4-.67,1.57,1.57,0,0,1,0-1,2.19,2.19,0,0,1,.2-.44l.13-.18a.41.41,0,0,1,.05-.09,1.89,1.89,0,0,0-.78,1.54,1.93,1.93,0,1,0,3.85,0A1.79,1.79,0,0,0,110.6,1.59Z"/><path class="cls-47" d="M110.09,1.05a1,1,0,0,0-.74-.59.81.81,0,0,0-.94.34c-.21.39.13.84.49,1a1.11,1.11,0,0,0,.4.06,1,1,0,0,0,.59-.1A.55.55,0,0,0,110.09,1.05Z"/><path class="cls-47" d="M107.81.73c-.39.08-.54,1,0,.82.29-.09.51-.87.06-.82Z"/><polygon class="cls-46" points="105.25 14.27 105.69 11.71 112.1 11.71 112.61 14.34 105.25 14.27"/><path class="cls-35" d="M112.27,12.57a1.25,1.25,0,0,1-1.17.7h-4.19a1.26,1.26,0,0,1-1.3-1.09l-.36,2.09,7.37.07Z"/><polygon class="cls-46" points="103.95 13.75 113.5 13.75 114.17 17.09 103.21 16.94 103.95 13.75"/><path class="cls-35" d="M113.53,13.87a1.26,1.26,0,0,1-1.14.63h-7.33a1.26,1.26,0,0,1-1.14-.63l-.71,3.07,11,.14Z"/><path class="cls-48" d="M111.6,11.89a38.47,38.47,0,0,0-5.58,0c-.07,0-.09.08,0,.09a39.94,39.94,0,0,0,5.58.05C111.75,12.06,111.77,11.89,111.6,11.89Z"/><path class="cls-48" d="M113.1,13.85c-2.84-.07-6-.14-8.86.05-.12,0-.14.07,0,.08,2.81.19,6,.12,8.85,0C113.34,14,113.36,13.86,113.1,13.85Z"/><polygon class="cls-34" points="179.57 139.03 179.64 142.51 226.3 142.44 226.75 138.95 179.57 139.03"/><path class="cls-35" d="M225.19,141.28H180.46a1.47,1.47,0,0,1-.85-.24l0,1.47,46.66-.08.27-2.13A1.37,1.37,0,0,1,225.19,141.28Z"/><polygon class="cls-34" points="13.82 136.36 43.64 136.36 44.13 140.12 14.36 140.06 13.82 136.36"/><path class="cls-35" d="M42.7,138.69H15.08a1.43,1.43,0,0,1-1-.34l.25,1.71,29.77.05-.26-2A1.39,1.39,0,0,1,42.7,138.69Z"/><polygon class="cls-34" points="179.22 127.38 226.62 127.38 224.84 123.82 181.4 123.82 179.22 127.38"/><path class="cls-35" d="M225.19,126H181.94a1.38,1.38,0,0,1-1.35-.89l-1.37,2.24h47.4l-.75-1.5A1.58,1.58,0,0,1,225.19,126Z"/><path class="cls-6" d="M98.57,41.13l-10.66,20a28.38,28.38,0,0,1,4.29-.88L98.39,48.6,93.46,60.08c1-.1,2-.15,3.05-.17l7.4-17.45A54.8,54.8,0,0,1,98.57,41.13Z"/><path class="cls-6" d="M118.54,42.84l9.31,17.83h-1.08l-8.69-17.76c-.93.14-1.86.25-2.78.31l8.44,17.45H117A70.78,70.78,0,0,1,125,61.82a34,34,0,0,0,7.82,1.1L121.92,42.1A33.46,33.46,0,0,1,118.54,42.84Z"/><path class="cls-49" d="M134.61,58.41c1.54-.38,2.25-.85,2.29-1.92s-.36-4.11-.18-5.78c0,0-3.92-.37-3.74,3.07S134.61,58.41,134.61,58.41Z"/><path class="cls-50" d="M134.61,58.41c1.54-.38,2.25-.85,2.29-1.92s-.36-4.11-.18-5.78c0,0-3.92-.37-3.74,3.07S134.61,58.41,134.61,58.41Z"/><path class="cls-49" d="M84.17,61.31a13,13,0,0,1,0-2.07,12.59,12.59,0,0,1,.42-2.83s-3.11.72-3.33,2.57S84.17,61.31,84.17,61.31Z"/><path class="cls-50" d="M84.17,61.31a13,13,0,0,1,0-2.07,12.59,12.59,0,0,1,.42-2.83s-3.11.72-3.33,2.57S84.17,61.31,84.17,61.31Z"/><path class="cls-49" d="M79.29,62.74a6.78,6.78,0,0,0,4.29-.59c.37-.22.67-1.26-.59-1.41S81.06,59.41,84.4,58s12.22-1.62,22.73-.66,20.82,3.77,25.33,2.44,5.07-3.85,3-4.59c-1.26-.44-2.89-1.11-1.41-2.15a7.24,7.24,0,0,1,3.92-.89,57.09,57.09,0,0,0-.37-6.44c-.37-2.59-1-8-.29-10.07,0,0-3.34-.59-4.52,1.63v.89s-3,1.48-9.48,1.55-15.78-1.18-24.74-3.26-14.81.89-17.25,5.19c0,0-.08,1.33-.15,2.37a3.3,3.3,0,0,1-2.22,1s.44,6.52.44,9.19S79.29,62.74,79.29,62.74Z"/><path class="cls-51" d="M106.35,55.86c-.37-6-1.56-12.1-1.8-18.15-2-.38-4-.8-6-1.26-9-2.07-14.81.89-17.25,5.19,0,0-.08,1.33-.15,2.37a3.3,3.3,0,0,1-2.22,1s.44,6.52.44,9.19-.07,8.51-.07,8.51a6.78,6.78,0,0,0,4.29-.59c.37-.22.67-1.26-.59-1.41S81.06,59.41,84.4,58s11.83-1.61,22-.72Z"/><path class="cls-52" d="M134,53a7.24,7.24,0,0,1,3.92-.89,57.09,57.09,0,0,0-.37-6.44c-.37-2.59-1-8-.29-10.07,0,0-3.34-.59-4.52,1.63v.89s-3,1.48-9.48,1.55a100.57,100.57,0,0,1-18.14-1.89c.22,6.51,1.52,13.08,2,19.51h0c10.52,1,20.82,3.77,25.33,2.44s5.07-3.85,3-4.59C134.17,54.75,132.54,54.08,134,53Z"/><path class="cls-49" d="M135.43,55.19c-.84-.29-1.83-.69-2-1.22a2.72,2.72,0,0,1-.18-1.25c.07-1.7,0-3.42,0-5.12-.05-1.9-.18-3.81-.29-5.71-.1-1.55,0-3.13-.2-4.68l0,.06v.89s-3,1.48-9.48,1.55-15.78-1.18-24.74-3.26-14.81.89-17.25,5.19c0,0,0,.21,0,.54,0,1,0,2,0,3,.11,2,.26,4.05.41,6.07a26.49,26.49,0,0,1,.06,5.19c-.15,1.16-.45,2.63.23,3.66-.17-.51.38-1.28,2.41-2.14,3.33-1.4,12.22-1.62,22.73-.66s20.82,3.77,25.33,2.44S137.53,55.93,135.43,55.19Z"/><path class="cls-53" d="M101.08,37c-.85-.18-1.69-.36-2.54-.56-6.05-1.4-10.68-.5-13.8,1.55.22,4.1.76,8.16,1,12.27.16,2.4.21,4.81.29,7.22,3.38-.76,9.28-.94,16.3-.51C101.69,50.34,101.16,43.69,101.08,37Z"/><path d="M131.25,54a.7.7,0,0,0,.06-.19.92.92,0,0,0,.08-.27.72.72,0,0,0,.07-.25.73.73,0,0,0,.15-.35.87.87,0,0,0,.2-.58,23,23,0,0,0-.2-2.43.94.94,0,0,0-.23-.48.89.89,0,0,0,.12-.62L131.21,47a.86.86,0,0,0-.25-.48.66.66,0,0,0,.06-.2.89.89,0,0,0,.19-.67l-.39-3.18a.89.89,0,0,0-.35-.6.87.87,0,0,0-.53-.18h-.15l-5.06.87a.9.9,0,0,0-.6.38,1.11,1.11,0,0,0-.09.19l-.15,0a.91.91,0,0,0-.2-.24.9.9,0,0,0-.57-.2H123a31.9,31.9,0,0,1-3.37.15c-.85,0-1.68,0-2.49-.08h-.06a.9.9,0,0,0-.62.25.88.88,0,0,0-.25.45h-.52a6,6,0,0,0-.27-.71.9.9,0,0,0-.45-.45,8.7,8.7,0,0,0-3.19-.48h0a.88.88,0,0,0-.86.69h-.46a.9.9,0,0,0-.88.73c-.2,1.16-.46,2.59-.72,3.93-.24-.34-.49-.69-.75-1a2.62,2.62,0,0,0,.41-.94l0-.07a2.47,2.47,0,0,0,.11-.36.14.14,0,0,0,0-.06,1.48,1.48,0,0,0,.12-.29,2.64,2.64,0,0,0-.07-2.67c-.77-1.38-2.26-2.1-4.3-2.1a10.75,10.75,0,0,0-2.8.4,1,1,0,0,0-.44.14,1,1,0,0,0-.4.42c-.16,0-.32.07-.48.12a1,1,0,0,0-.44.14l-.05,0a.89.89,0,0,0-.79-.81s-.63-.06-1.45-.06a8,8,0,0,0-3.86.75l0,0a4.25,4.25,0,0,0-3.36-1.46,6.1,6.1,0,0,0-2,.36,10,10,0,0,0-1.74.84,13.15,13.15,0,0,0-3.24,2.09.89.89,0,0,0-.23,1.07h0a.83.83,0,0,0,.06.21,5.24,5.24,0,0,1,.28.69A19,19,0,0,1,84,47.26c0,.21.07.42.1.63a41.06,41.06,0,0,1,.62,6,1,1,0,0,0,.1.37.79.79,0,0,0,.26.47.83.83,0,0,0,.21.28.88.88,0,0,0,.24.27.81.81,0,0,0,.27.25.87.87,0,0,0,.88,0l.09,0,.06,0c.55-.31,1.06-.59,1.56-.83A13.08,13.08,0,0,1,90,54a.65.65,0,0,0,.22-.11.87.87,0,0,0,.52-.6,1.05,1.05,0,0,0,0-.19.05.05,0,0,1,0,0s0-.07,0-.1a.5.5,0,0,0,0-.13,1.21,1.21,0,0,0,0-.18s0-.05,0-.08a.38.38,0,0,0,0-.1.66.66,0,0,0,.12-.27.19.19,0,0,0,0-.08.76.76,0,0,0,.17-.32,1.11,1.11,0,0,0,0-.65c-.22-.77-.49-1.51-.76-2.24h0A6.49,6.49,0,0,0,92.9,47a4.23,4.23,0,0,0,.58-.91.56.56,0,0,0,.2.14.72.72,0,0,0,.25.07L94,48.9h-.12a.89.89,0,0,0-.88.79l-.22,2.07a.92.92,0,0,0,.09.49.87.87,0,0,0,.21.43l0,0a1.07,1.07,0,0,0,.15.22l.06.06.12.16a.53.53,0,0,0,.14.12l0,.07a.88.88,0,0,0,.65.28h0l4-.11a.85.85,0,0,0,.45-.13.9.9,0,0,0,.55-.71.66.66,0,0,0,.06-.2.79.79,0,0,0,.08-.26.73.73,0,0,0,.07-.24.82.82,0,0,0,.15-.36,1,1,0,0,0,.17-.33.81.81,0,0,0,.25.44.93.93,0,0,0,.22.3.85.85,0,0,0,.24.26.89.89,0,0,0,.68.36l.59,0a9.06,9.06,0,0,1,1.69.13h.18a1.17,1.17,0,0,0,1-.72.13.13,0,0,0,0-.08s0-.06,0-.09l0-.06a.31.31,0,0,1,0-.08,1.21,1.21,0,0,0,.05-.14.64.64,0,0,0,0-.09s0,0,0-.08l0-.09a0,0,0,0,0,0,0l.66.91.15.17,0,0a.88.88,0,0,0,.23.24,1.06,1.06,0,0,0,.83.42,1.14,1.14,0,0,0,.57-.16l.2-.11.14-.09.16-.1.1,0,.1,0,0,0h0l.1-.05,0,0,0,.07a1.54,1.54,0,0,0,.17.19l0,0a1,1,0,0,0,.22.23.89.89,0,0,0,.6.36l2.48.33H112a.86.86,0,0,0,.47-.14.94.94,0,0,0,.22-.12,1,1,0,0,0,.22-.24l0,0a1.68,1.68,0,0,0,.84.62l2,.25h.11a.94.94,0,0,0,.46-.13,1,1,0,0,0,.33-.22.89.89,0,0,0,.23-.51.48.48,0,0,0,0-.17.71.71,0,0,0,.09-.28l0-.07V54.3a.92.92,0,0,0,.09.38.9.9,0,0,0,.26.48,1.06,1.06,0,0,0,.22.29,1.56,1.56,0,0,0,.95.63H121a.86.86,0,0,0,.46-.14.83.83,0,0,0,.32-.2.84.84,0,0,0,.24-.51.66.66,0,0,0,.06-.2.79.79,0,0,0,.08-.26.73.73,0,0,0,.07-.24.82.82,0,0,0,.15-.36.9.9,0,0,0,.2-.57l-.09-4h.19a1.56,1.56,0,0,0,.76-.33l0-.05a28.38,28.38,0,0,1,.17,4.14,1,1,0,0,0,.09.42.84.84,0,0,0,.25.46.82.82,0,0,0,.24.32,1,1,0,0,0,.19.23l0,0,.15.16a.85.85,0,0,0,.57.2.65.65,0,0,0,.2,0,19.76,19.76,0,0,1,3.66-.48,4.61,4.61,0,0,1,1,.09l.2,0a.92.92,0,0,0,.47-.14.8.8,0,0,0,.24-.13A.93.93,0,0,0,131.25,54Zm-32.12-5.5-.47,0-.07-3,.12-.07a.86.86,0,0,0,.56-.7.76.76,0,0,0,.06-.2.77.77,0,0,0,.08-.27.88.88,0,0,0,.07-.23l0-.08c0,.14,0,.28,0,.42.07.63.14,1.22.15,1.8,0,.92,0,1.84,0,2.76A.85.85,0,0,0,99.13,48.48Z"/><path class="cls-54" d="M98.18,49.31l-.47-.05-.11-4.51H98a.89.89,0,0,0,.89-.89v-2a.9.9,0,0,0-.8-.89s-.63-.06-1.45-.06a7.93,7.93,0,0,0-3.86.75l0,0a4.26,4.26,0,0,0-3.36-1.46,6.05,6.05,0,0,0-2,.36,12.34,12.34,0,0,0-3.66,2.25.89.89,0,0,0-.23,1.07,12.59,12.59,0,0,1,.9,3.55c0,.21.07.42.1.62a41.18,41.18,0,0,1,.62,6,.91.91,0,0,0,.45.75.87.87,0,0,0,.44.11,1,1,0,0,0,.44-.11,17.52,17.52,0,0,1,3.29-1.55.87.87,0,0,0,.59-.63,1.06,1.06,0,0,0,0-.66c-.25-.87-.58-1.73-.89-2.56l-.3-.8a6.69,6.69,0,0,0,3.36-2.2,4.59,4.59,0,0,0,.65-1.06.83.83,0,0,0,.28.21.88.88,0,0,0,.73,0l.11-.05.14,3.57h-.12a.89.89,0,0,0-.88.8l-.22,2.07a.91.91,0,0,0,.23.7.88.88,0,0,0,.65.28h0l4-.11a.89.89,0,0,0,.87-.89v-1.7A.88.88,0,0,0,98.18,49.31Zm-9.6-4.6c.21,0,.43.12.45.25s-.13.31-.45.51a1,1,0,0,1-.37.12c0-.21-.11-.42-.17-.63a2.48,2.48,0,0,1,.38-.22A.38.38,0,0,1,88.58,44.71Z"/><path class="cls-54" d="M130.65,50.74a.87.87,0,0,0-.23-.48.84.84,0,0,0,.13-.62l-.3-1.78a.9.9,0,0,0-.31-.55.87.87,0,0,0,.32-.8l-.39-3.18a.9.9,0,0,0-.36-.6.85.85,0,0,0-.53-.18h-.15l-5.06.87a.91.91,0,0,0-.59.38,1,1,0,0,0-.14.49.92.92,0,0,0-.3-.51.9.9,0,0,0-.57-.2h-.1s-1.4.15-3.37.15c-.85,0-1.69,0-2.5-.08h-.06a.9.9,0,0,0-.61.25.86.86,0,0,0-.27.66l0,1.75a17.86,17.86,0,0,0-.81-2.68.84.84,0,0,0-.45-.44,8.35,8.35,0,0,0-3.2-.49h0a.9.9,0,0,0-.88.73c-.31,1.77-.76,4.19-1.1,5.93-.26-.35-.52-.71-.78-1.09-.43-.61-.87-1.24-1.36-1.82a4,4,0,0,0,.66-.55,2.63,2.63,0,0,0,.39-3.29c-.76-1.38-2.25-2.11-4.29-2.11a10.72,10.72,0,0,0-2.8.41,1,1,0,0,0-.44.14.94.94,0,0,0-.49.81,1.27,1.27,0,0,0,0,.28,19,19,0,0,0,.16,2.29c.07.62.14,1.21.15,1.8l.06,3.37,0,1.43a.9.9,0,0,0,.86.87l.59,0a9.06,9.06,0,0,1,1.69.13h.18a.89.89,0,0,0,.85-.64.46.46,0,0,0,0-.09,5.75,5.75,0,0,0,.11-1.18c.43.62.85,1.2,1.26,1.77a1.08,1.08,0,0,0,.88.47,1.16,1.16,0,0,0,.62-.19l.14-.09a1.93,1.93,0,0,1,.41-.23l.1,0,.48-.26a.81.81,0,0,0,.12.64.91.91,0,0,0,.63.41l2.48.33h.12a.91.91,0,0,0,.54-.19.89.89,0,0,0,.34-.59l.08-.62c0,.23,0,.46,0,.67a.89.89,0,0,0,.78.87l2,.25h.11a.91.91,0,0,0,.64-.27.9.9,0,0,0,.23-.76c-.06-.34-.34-2-.71-3.77a.92.92,0,0,0,.43.11h0l1.16-.07c0,1.8,0,5.57,0,5.85a.89.89,0,0,0,.89.89h2.4a.87.87,0,0,0,.63-.27.9.9,0,0,0,.26-.64l-.13-5.62.83.08h.09a.91.91,0,0,0,.62-.26.9.9,0,0,0,.26-.7l-.24-3.4a39.47,39.47,0,0,1,1,9,.9.9,0,0,0,.32.72.94.94,0,0,0,.57.2.75.75,0,0,0,.21,0,19.59,19.59,0,0,1,3.65-.48,4.61,4.61,0,0,1,1,.09l.2,0a.89.89,0,0,0,.56-.2.94.94,0,0,0,.33-.71A21.56,21.56,0,0,0,130.65,50.74Z"/><path class="cls-55" d="M92.07,42.21a4,4,0,0,0-4.42-.84,11.42,11.42,0,0,0-3.39,2.1,16.07,16.07,0,0,1,1.08,4.42A44.57,44.57,0,0,1,86,54a17.52,17.52,0,0,1,3.46-1.62v0a.19.19,0,0,0,0-.17c-.39-1.38-1-2.73-1.45-4.09,0,0,0-.09,0-.14A6.24,6.24,0,0,0,91.8,45.8,2.79,2.79,0,0,0,92.07,42.21Zm-3,4a2.42,2.42,0,0,1-1.5.26c-.17-.61-.34-1.22-.5-1.84a4,4,0,0,1,1-.72,1.36,1.36,0,0,1,1.87.89A1.54,1.54,0,0,1,89,46.23Z"/><path class="cls-55" d="M93.17,42.45l.63,2.26,1.3-.56L95.32,50l-1,0L94.06,52l4-.11v-1.7l-1.26-.11-.15-6.22H98v-2S94.69,41.53,93.17,42.45Z"/><path class="cls-55" d="M106.48,51.42a.19.19,0,0,0,.31,0l.06,0a3.36,3.36,0,0,1,.61-.34c.37-.21.74-.41,1.12-.6a0,0,0,0,0,0,0,44,44,0,0,0-3.31-4.25,3.89,3.89,0,0,0,1.49-.9,1.76,1.76,0,0,0,.25-2.24c-1.16-2.07-4.26-1.81-6.2-1.24a.09.09,0,0,0-.11,0h0a.05.05,0,0,0,0,.1c-.06,1.43.27,2.86.3,4.29l.09,4.79a15.11,15.11,0,0,1,2.43.16s0,0,0,0a21.34,21.34,0,0,0-.07-4.12C104.42,48.52,105.43,50,106.48,51.42Zm-3.37-6.86C103,44,103,43.5,102.86,43a2,2,0,0,1,1.84.51c.33.45-.13,1-.48,1.29a1.25,1.25,0,0,1-1,.19C103.17,44.83,103.13,44.68,103.11,44.56Z"/><path class="cls-55" d="M113.6,52.23l2,.24s-1.14-6.66-1.95-8.46a7.69,7.69,0,0,0-2.84-.41s-1.26,7.07-1.6,8.15l2.49.33.41-3.21c.39.05.77.08,1.15.15A24.24,24.24,0,0,1,113.6,52.23Zm-1-6.62s.2.74.43,1.83a5,5,0,0,0-.67,0Z"/><path class="cls-55" d="M116.14,44.55l.08,3.23,2.1-.12s0,6.42,0,6.79h2.4l-.15-6.62,1.83.18-.25-3.54A37.91,37.91,0,0,1,116.14,44.55Z"/><path class="cls-55" d="M123.92,44.3a40.81,40.81,0,0,1,1,9.29s3.31-.79,5.06-.4a22.25,22.25,0,0,0-.2-2.32l-2.61.39L127,50.1s1.66-.27,2.64-.32L129.38,48l-2.67.27-.24-1.68a8.06,8.06,0,0,1,2.91,0l-.4-3.18Z"/><g class="cls-19"><path class="cls-56" d="M85.49,48.87c.82-.35,1.64-.65,2.48-.93h0c.56-.19,1.12-.36,1.68-.52A5.64,5.64,0,0,0,91.8,45.8a2.79,2.79,0,0,0,.27-3.59,4,4,0,0,0-4.42-.84,11.42,11.42,0,0,0-3.39,2.1,16.07,16.07,0,0,1,1.08,4.42ZM88,43.93a1.36,1.36,0,0,1,1.87.89A1.54,1.54,0,0,1,89,46.23a2.42,2.42,0,0,1-1.5.26c-.17-.61-.34-1.22-.5-1.84A4,4,0,0,1,88,43.93Z"/><path class="cls-56" d="M95.1,44.15l.08,2.12,1.56-.17,0-2.24H98v-2s-3.3-.33-4.82.59l.63,2.26Z"/><path class="cls-56" d="M100.68,41.94c-.05,1.34.23,2.67.29,4a40.34,40.34,0,0,1,4.38.33l-.09-.09a3.89,3.89,0,0,0,1.49-.9,1.76,1.76,0,0,0,.25-2.24c-1.16-2.07-4.26-1.81-6.2-1.24a.09.09,0,0,0-.11,0h0A.05.05,0,0,0,100.68,41.94Zm4,1.55c.33.45-.13,1-.48,1.29a1.25,1.25,0,0,1-1,.19c0-.14-.07-.29-.09-.41C103,44,103,43.5,102.86,43A2,2,0,0,1,104.7,43.49Z"/><path class="cls-56" d="M114.83,48.31a27.21,27.21,0,0,0-1.15-4.3,7.69,7.69,0,0,0-2.84-.41s-.31,1.74-.66,3.62C111.72,47.59,113.27,48,114.83,48.31Zm-2.26-2.7s.2.74.43,1.83a5,5,0,0,0-.67,0Z"/><path class="cls-56" d="M118.32,47.66v1.16c.76.06,1.53.09,2.29.09l0-1.08,1.83.18-.25-3.54a37.91,37.91,0,0,1-6,.08l.08,3.23Z"/><path class="cls-56" d="M127,48.25l-.29,0-.24-1.68a8.06,8.06,0,0,1,2.91,0l-.4-3.18-5.06.86s.44,1.89.74,4.35C125.45,48.55,126.23,48.41,127,48.25Z"/></g><path class="cls-57" d="M131,38.91a37.26,37.26,0,0,1-7.65,1,82,82,0,0,1-8.29-.4c-2.43-.19-4.85-.45-7.25-.86-2.63-.45-5.19-1.24-7.77-1.88-6.49-1.62-14.45-1.57-18.54,4.6-.06.09.06.19.12.1,4.83-6.63,14.28-4.8,21-3a72,72,0,0,0,14.53,2c4.58.24,9.57.38,13.88-1.43A.09.09,0,0,0,131,38.91Z"/><circle class="cls-46" cx="108.86" cy="22.36" r="7.85"/><path class="cls-58" d="M108.91,15.79a8.21,8.21,0,0,1,7.77,5.83A7.85,7.85,0,0,0,101,22.1,8.2,8.2,0,0,1,108.91,15.79Z"/><path class="cls-59" d="M116.68,21.6a.47.47,0,0,1-.44.17,9.13,9.13,0,0,1-1.64-.71c-.3-.1-.68-.22-.8-.55a2,2,0,0,1,.26-1.48,13.7,13.7,0,0,0,.71-1.84,6,6,0,0,0-.61-.62l-1.75.77c-.41.16-1.16.64-1.63.53s-.67-.54-.88-1a15.64,15.64,0,0,1-1-2.38v0h-.52c-.25.81-.5,1.62-.81,2.41-.23.56-.36,1.09-1,1.23s-1.24-.44-1.69-.6a5.71,5.71,0,0,1-1.55-.75l-.21.22c.16.51.35,1,.54,1.5a4,4,0,0,1,.48,1.52c-.09.87-.91.8-1.5,1.12-.43.23-1.18.53-1.52,0a7.68,7.68,0,0,0,0,2.13c.81.34,1.63.61,2.45.92.32.12.72.36.74.74a3.37,3.37,0,0,1-.47,1.56l-.58,1.27a7.84,7.84,0,0,0,11.42-.12,15.39,15.39,0,0,1-.92-1.75c-.2-.33-.5-.7-.34-1.11.22-.57,1.21-.69,1.68-.88s1.07-.41,1.6-.63a7.46,7.46,0,0,0,.06-.95C116.71,22.1,116.7,21.85,116.68,21.6Zm-9.06,7.72a.4.4,0,0,1-.49.37c-.51-.07-1.42-.18-1.68-.72-.32-.7.44-1,.9-1.34a.34.34,0,0,1,.15-.07.39.39,0,0,1,.6.08A3.25,3.25,0,0,1,107.62,29.32Zm4.5-.22a2.31,2.31,0,0,1-2,.49.38.38,0,0,1-.27-.47,4.63,4.63,0,0,1,.75-1.38.38.38,0,0,1,.4-.17.31.31,0,0,1,.3.06,3.34,3.34,0,0,1,.74.61A.62.62,0,0,1,112.12,29.1Z"/><path class="cls-60" d="M103.31,27.91l0,0c.2-.49,2.37-5.77,3.86-7.19s7.22-3.88,7.22-3.88-2.53,6-3.87,7.23A29.21,29.21,0,0,1,103.31,27.91Z"/><path class="cls-61" d="M112.32,20.23a2,2,0,0,1-1-.51,2,2,0,0,1-.38-1.31,17.75,17.75,0,0,0-3.73,2.27,16.39,16.39,0,0,0-2.44,4,1.38,1.38,0,0,1,.94-.05,1.3,1.3,0,0,1,.69.81,4.93,4.93,0,0,1,.24,1,24.82,24.82,0,0,0,3.92-2.4,16.65,16.65,0,0,0,2.32-3.84C112.68,20.1,112.51,20.26,112.32,20.23Z"/><path class="cls-60" d="M103.31,16.8l0,0c.2.49,2.37,5.77,3.86,7.19s7.22,3.88,7.22,3.88-2.53-6-3.87-7.23A29.21,29.21,0,0,0,103.31,16.8Z"/><path class="cls-61" d="M112.32,24.48a1.58,1.58,0,0,0-1.4,1.82A17.75,17.75,0,0,1,107.19,24a16.2,16.2,0,0,1-2.44-4,1.38,1.38,0,0,0,.94,0,1.3,1.3,0,0,0,.69-.81,4.93,4.93,0,0,0,.24-1,24.82,24.82,0,0,1,3.92,2.4,16.76,16.76,0,0,1,2.32,3.85C112.68,24.61,112.51,24.45,112.32,24.48Z"/><path class="cls-62" d="M108.86,30.21a.1.1,0,0,0,0,0c-.21-.49-2.41-5.76-2.36-7.81s2.37-7.85,2.37-7.85,2.43,6,2.37,7.85A28.87,28.87,0,0,1,108.86,30.21Z"/><path class="cls-63" d="M110.09,26.14a2.83,2.83,0,0,1,.13.5,23.4,23.4,0,0,0,1-4.28,16,16,0,0,0-1-4.16,1.37,1.37,0,0,1-2.73,0,17.32,17.32,0,0,0-1,4.16,14.06,14.06,0,0,0,.88,3.88A1.43,1.43,0,0,1,110.09,26.14Z"/><path class="cls-62" d="M101,22.36l0,0c.49-.21,5.75-2.4,7.81-2.35s7.85,2.37,7.85,2.37-6,2.43-7.85,2.37A29.33,29.33,0,0,1,101,22.36Z"/><path class="cls-64" d="M106.19,22.06a5.78,5.78,0,0,1,1.26-1.9,44.13,44.13,0,0,0-6.37,2.17C102.6,22.57,105.54,23.36,106.19,22.06Z"/><path class="cls-64" d="M110.28,20.34c.65.54.9,1.47,1.83,1.67a18,18,0,0,0,4.5.3A49.88,49.88,0,0,0,110,20.13,2,2,0,0,1,110.28,20.34Z"/><path class="cls-46" d="M111.23,22.36A2.37,2.37,0,1,1,108.86,20,2.37,2.37,0,0,1,111.23,22.36Z"/><path class="cls-59" d="M106.49,22.32v0a2.37,2.37,0,0,0,4.74,0A5.46,5.46,0,0,1,106.49,22.32Z"/><path class="cls-48" d="M109.89,20.45a1.37,1.37,0,0,0-.59-.16c.1,0,0,0,0,0a.54.54,0,0,0-.25,0,.56.56,0,0,0-.22.13.62.62,0,0,0-.22.15,1.11,1.11,0,0,0-.15,1.16,1.51,1.51,0,0,0,1.36.85,1,1,0,0,0,1-.82C110.88,21.17,110.36,20.73,109.89,20.45Z"/><path class="cls-48" d="M108,21.14a.29.29,0,0,0-.3-.26.76.76,0,0,0-.56.34c-.15.21-.23.6.08.72a.29.29,0,0,0,.27,0,.58.58,0,0,0,.37-.17A.72.72,0,0,0,108,21.14Z"/><path class="cls-65" d="M131.43,62.45a1.82,1.82,0,0,1-1.86,1.78H89.73a1.82,1.82,0,0,1-1.85-1.78h0a1.82,1.82,0,0,1,1.85-1.78h39.84a1.82,1.82,0,0,1,1.86,1.78Z"/><path class="cls-35" d="M130.26,60.8a1.22,1.22,0,0,1-.51,2.19l-40.69-.1a1.06,1.06,0,0,1-1-1.13,1.74,1.74,0,0,0-.14.69,1.82,1.82,0,0,0,1.85,1.78h39.84a1.82,1.82,0,0,0,1.86-1.78A1.78,1.78,0,0,0,130.26,60.8Z"/><path class="cls-48" d="M129.76,61.33c-3.06-.22-6.2,0-9.27,0H110c-7,0-14-.07-20.94.14-.18,0-.15.27,0,.28,6.78.2,13.58.13,20.37.14h9.92c3.43,0,6.95.2,10.37-.05C130,61.77,130,61.35,129.76,61.33Z"/><path class="cls-66" d="M62.93,185.59a9,9,0,1,0-9.47-9A9.26,9.26,0,0,0,62.93,185.59Z"/><path class="cls-34" d="M62.89,184.85c5,0,9-3.76,9-8.4s-4-8.39-9-8.39-9,3.76-9,8.39S57.93,184.85,62.89,184.85Z"/><path class="cls-28" d="M62.89,183.1a6.66,6.66,0,1,0-7.1-6.65A6.89,6.89,0,0,0,62.89,183.1Z"/><polygon class="cls-34" points="59.38 181.01 62.65 179.43 65.92 181.02 65.3 177.66 67.95 175.28 64.3 174.78 62.66 171.71 61.02 174.77 57.37 175.26 60.01 177.65 59.38 181.01"/><path class="cls-67" d="M71.16,173.15a9.24,9.24,0,0,0-16.74.5C58.75,177.78,67,177.43,71.16,173.15Z"/><path class="cls-35" d="M62.89,184.85a8.72,8.72,0,0,0,9-8.28c-5,3.7-12.77,4-17.94.58A8.77,8.77,0,0,0,62.89,184.85Z"/><path class="cls-68" d="M65.32,171c-3.07-1.4-6.6.21-8.17,3,0,.08.07.15.13.08,2-2.49,4.86-2.92,7.89-2.62A.25.25,0,0,0,65.32,171Z"/><path class="cls-68" d="M66.67,171.45a.56.56,0,0,0-.28-.13.38.38,0,0,0-.44.3.39.39,0,0,0,.41.45.59.59,0,0,0,.29-.13A.32.32,0,0,0,66.67,171.45Z"/><path class="cls-69" d="M68.6,171.06c-3.49-4-9.81-3.22-12.68,1.11a.05.05,0,1,0,.08.07,9.83,9.83,0,0,1,6-2.85,10.7,10.7,0,0,1,3.34.12,10.12,10.12,0,0,1,3.22,1.64S68.64,171.11,68.6,171.06Z"/><path class="cls-66" d="M64.51,166.78a.75.75,0,1,1-.75-.76A.75.75,0,0,1,64.51,166.78Z"/><path class="cls-34" d="M64.33,166.67a.5.5,0,0,1-.5.5.5.5,0,0,1-.5-.5.5.5,0,0,1,.5-.5A.51.51,0,0,1,64.33,166.67Z"/><path class="cls-66" d="M61.89,187.11a.76.76,0,1,0-.75-.76A.75.75,0,0,0,61.89,187.11Z"/><path class="cls-34" d="M62,186.74a.5.5,0,0,0,.5-.5.51.51,0,0,0-.5-.5.5.5,0,0,0-.5.5A.5.5,0,0,0,62,186.74Z"/><path class="cls-66" d="M55.49,184.37a.76.76,0,1,0-.75-.76A.75.75,0,0,0,55.49,184.37Z"/><path class="cls-34" d="M55.55,184a.5.5,0,0,0,.5-.5.5.5,0,1,0-1,0A.5.5,0,0,0,55.55,184Z"/><path class="cls-66" d="M53.34,175.65a.75.75,0,1,1-.75-.76A.76.76,0,0,1,53.34,175.65Z"/><path class="cls-34" d="M53.15,175.54a.5.5,0,0,1-.5.5.5.5,0,0,1,0-1A.5.5,0,0,1,53.15,175.54Z"/><path class="cls-66" d="M57.23,168.69a.75.75,0,1,1-.75-.76A.76.76,0,0,1,57.23,168.69Z"/><path class="cls-34" d="M57,168.58a.5.5,0,1,1-.5-.5A.5.5,0,0,1,57,168.58Z"/><path class="cls-66" d="M72,170.69a.75.75,0,1,1-.75-.76A.76.76,0,0,1,72,170.69Z"/><path class="cls-34" d="M71.85,170.58a.5.5,0,0,1-.5.5.51.51,0,0,1-.5-.5.5.5,0,0,1,.5-.5A.5.5,0,0,1,71.85,170.58Z"/><path class="cls-66" d="M73.1,179.23a.76.76,0,1,0-.75-.76A.76.76,0,0,0,73.1,179.23Z"/><path class="cls-34" d="M73.17,178.86a.51.51,0,0,0,0-1,.51.51,0,0,0,0,1Z"/><path class="cls-66" d="M69.25,185.19a.76.76,0,1,0-.75-.76A.75.75,0,0,0,69.25,185.19Z"/><path class="cls-34" d="M69.32,184.82a.51.51,0,0,0,.5-.5.5.5,0,0,0-.5-.5.5.5,0,0,0-.5.5A.5.5,0,0,0,69.32,184.82Z"/><path class="cls-66" d="M161.29,185a9,9,0,1,0-9.47-9A9.25,9.25,0,0,0,161.29,185Z"/><path class="cls-34" d="M161.25,184.25c5,0,9-3.75,9-8.39s-4-8.39-9-8.39-9,3.76-9,8.39S156.29,184.25,161.25,184.25Z"/><path class="cls-28" d="M161.25,182.5a6.66,6.66,0,1,0-7.11-6.64A6.88,6.88,0,0,0,161.25,182.5Z"/><polygon class="cls-34" points="157.74 180.42 161.01 178.84 164.27 180.43 163.66 177.06 166.3 174.68 162.65 174.19 161.02 171.12 159.38 174.18 155.73 174.67 158.37 177.05 157.74 180.42"/><path class="cls-67" d="M169.51,172.56a9.23,9.23,0,0,0-16.73.5C157.11,177.19,165.4,176.83,169.51,172.56Z"/><path class="cls-35" d="M161.25,184.25c4.92,0,8.92-3.69,9-8.27-5,3.7-12.77,4-17.93.58A8.76,8.76,0,0,0,161.25,184.25Z"/><path class="cls-68" d="M163.67,170.36c-3.06-1.4-6.59.21-8.17,3a.08.08,0,0,0,.13.08c2.05-2.5,4.86-2.92,7.9-2.62A.24.24,0,0,0,163.67,170.36Z"/><path class="cls-68" d="M165,170.86a.62.62,0,0,0-.28-.14.38.38,0,0,0-.44.31c0,.22.16.5.4.45a.67.67,0,0,0,.3-.13A.32.32,0,0,0,165,170.86Z"/><path class="cls-69" d="M167,170.47c-3.49-4-9.81-3.22-12.68,1.11,0,.06,0,.12.08.07a9.88,9.88,0,0,1,6-2.85,10.34,10.34,0,0,1,3.33.12,9.86,9.86,0,0,1,3.23,1.64C166.93,170.59,167,170.51,167,170.47Z"/><path class="cls-66" d="M162.87,166.19a.75.75,0,1,1-.75-.76A.76.76,0,0,1,162.87,166.19Z"/><path class="cls-34" d="M162.68,166.08a.5.5,0,0,1-.5.5.5.5,0,0,1,0-1A.5.5,0,0,1,162.68,166.08Z"/><path class="cls-66" d="M160.25,186.52a.76.76,0,1,0-.75-.76A.76.76,0,0,0,160.25,186.52Z"/><path class="cls-34" d="M160.31,186.15a.5.5,0,0,0,0-1,.5.5,0,0,0,0,1Z"/><path class="cls-66" d="M153.84,183.78a.76.76,0,1,0-.75-.76A.76.76,0,0,0,153.84,183.78Z"/><path class="cls-34" d="M153.91,183.41a.5.5,0,1,0-.5-.5A.49.49,0,0,0,153.91,183.41Z"/><path class="cls-66" d="M151.69,175.06a.75.75,0,1,1-.75-.76A.75.75,0,0,1,151.69,175.06Z"/><path class="cls-34" d="M151.51,175a.51.51,0,0,1-.5.5.5.5,0,0,1-.5-.5.5.5,0,0,1,.5-.5A.5.5,0,0,1,151.51,175Z"/><path class="cls-66" d="M155.58,168.1a.75.75,0,1,1-.75-.76A.75.75,0,0,1,155.58,168.1Z"/><path class="cls-34" d="M155.4,168a.51.51,0,0,1-.5.5.5.5,0,0,1-.5-.5.5.5,0,0,1,.5-.5A.5.5,0,0,1,155.4,168Z"/><path class="cls-66" d="M170.39,170.1a.75.75,0,1,1-.75-.76A.75.75,0,0,1,170.39,170.1Z"/><path class="cls-34" d="M170.21,170a.51.51,0,0,1-.5.5.5.5,0,0,1-.5-.5.5.5,0,0,1,.5-.5A.5.5,0,0,1,170.21,170Z"/><path class="cls-66" d="M171.46,178.63a.76.76,0,1,0-.75-.76A.76.76,0,0,0,171.46,178.63Z"/><path class="cls-34" d="M171.52,178.26a.5.5,0,0,0,0-1,.5.5,0,1,0,0,1Z"/><path class="cls-66" d="M167.61,184.6a.76.76,0,0,0,0-1.52.76.76,0,0,0,0,1.52Z"/><path class="cls-34" d="M167.67,184.22a.5.5,0,0,0,.5-.5.5.5,0,0,0-.5-.5.51.51,0,0,0-.5.5A.5.5,0,0,0,167.67,184.22Z"/><path class="cls-66" d="M110.51,187.22a7.11,7.11,0,1,0-7.45-7.1A7.28,7.28,0,0,0,110.51,187.22Z"/><path class="cls-34" d="M110.48,186.64a6.62,6.62,0,1,0-7.07-6.61A6.85,6.85,0,0,0,110.48,186.64Z"/><path class="cls-28" d="M110.48,185.26a5.24,5.24,0,1,0-5.59-5.23A5.42,5.42,0,0,0,110.48,185.26Z"/><polygon class="cls-34" points="107.72 183.62 110.29 182.37 112.86 183.63 112.37 180.98 114.45 179.11 111.58 178.72 110.3 176.31 109.01 178.71 106.14 179.09 108.21 180.97 107.72 183.62"/><path class="cls-67" d="M117,177.44a7.26,7.26,0,0,0-13.16.39C107.22,181.07,113.74,180.8,117,177.44Z"/><path class="cls-35" d="M110.48,186.64a6.87,6.87,0,0,0,7.07-6.52,12.83,12.83,0,0,1-14.11.46A6.9,6.9,0,0,0,110.48,186.64Z"/><path class="cls-68" d="M112.39,175.71a5.12,5.12,0,0,0-6.43,2.36c0,.05.06.11.1.06,1.61-2,3.82-2.3,6.21-2.07C112.48,176.08,112.59,175.8,112.39,175.71Z"/><path class="cls-68" d="M113.45,176.1a.42.42,0,0,0-.22-.11.3.3,0,0,0-.34.24c0,.18.12.39.31.35a.37.37,0,0,0,.24-.1A.24.24,0,0,0,113.45,176.1Z"/><path class="cls-69" d="M115,175.79a6.31,6.31,0,0,0-10,.88s0,.09.06.05a7.79,7.79,0,0,1,4.7-2.24,8.23,8.23,0,0,1,2.62.09,7.92,7.92,0,0,1,2.54,1.29S115,175.83,115,175.79Z"/><path class="cls-66" d="M111.75,172.42a.59.59,0,0,1-.59.6.6.6,0,1,1,.59-.6Z"/><path class="cls-34" d="M111.61,172.34a.4.4,0,0,1-.79,0,.4.4,0,0,1,.79,0Z"/><path class="cls-66" d="M109.69,188.42a.59.59,0,0,0,.59-.6.58.58,0,0,0-.59-.59.59.59,0,0,0-.59.59A.6.6,0,0,0,109.69,188.42Z"/><path class="cls-34" d="M109.74,188.13a.4.4,0,1,0,0-.79.4.4,0,0,0,0,.79Z"/><path class="cls-66" d="M104.65,186.26a.6.6,0,1,0-.59-.6A.59.59,0,0,0,104.65,186.26Z"/><path class="cls-34" d="M104.7,186a.39.39,0,1,0-.39-.39A.39.39,0,0,0,104.7,186Z"/><path class="cls-66" d="M102.37,180a.6.6,0,0,0,0-1.2.6.6,0,0,0,0,1.2Z"/><path class="cls-34" d="M102.42,179.71a.4.4,0,1,0,0-.79.4.4,0,0,0,0,.79Z"/><path class="cls-66" d="M106,173.92a.59.59,0,0,1-.59.6.6.6,0,0,1,0-1.19A.59.59,0,0,1,106,173.92Z"/><path class="cls-34" d="M105.88,173.84a.39.39,0,0,1-.4.39.38.38,0,0,1-.39-.39.39.39,0,0,1,.39-.4A.4.4,0,0,1,105.88,173.84Z"/><path class="cls-66" d="M117.67,175.5a.59.59,0,0,1-.59.6.6.6,0,0,1,0-1.2A.59.59,0,0,1,117.67,175.5Z"/><path class="cls-34" d="M117.53,175.41a.4.4,0,1,1-.39-.39A.39.39,0,0,1,117.53,175.41Z"/><path class="cls-66" d="M118.51,182.21a.6.6,0,0,0,0-1.19.6.6,0,0,0,0,1.19Z"/><path class="cls-34" d="M118.56,181.92a.39.39,0,1,0,0-.78.39.39,0,1,0,0,.78Z"/><path class="cls-66" d="M115.48,186.9a.6.6,0,1,0-.59-.6A.6.6,0,0,0,115.48,186.9Z"/><path class="cls-34" d="M115.53,186.61a.4.4,0,1,0,0-.79.4.4,0,0,0,0,.79Z"/></g></g></g></svg>