<svg xmlns="http://www.w3.org/2000/svg" viewBox="0 0 1930.64 1451.39"><defs><style>.cls-1{fill:#cfe5e8;}</style></defs><title>設施介紹-資產 1</title><g id="圖層_2" data-name="圖層 2"><g id="圖層_1-2" data-name="圖層 1"><path class="cls-1" d="M1212.21,344.07V55.89c0-18.7,14.66-33.85,32.75-33.85h685.68V0H0V22H1143c18.09,0,32.76,15.15,32.76,33.85V306.51c0,18.69-14.67,33.84-32.76,33.84H.71v37.56H424.13c18.09,0,32.75,15.16,32.75,33.85V907.9c0,18.69,14.66,33.84,32.75,33.84H1400.4c18.08,0,32.75,15.16,32.75,33.85v475.8h63.6V935.19c0-18.68-14.64-33.82-32.71-33.85l-912.28-1.16c-18.07,0-32.71-15.17-32.71-33.84V411.76c0-18.69,14.67-33.85,32.76-33.85h627.65C1197.55,377.91,1212.21,362.76,1212.21,344.07Z"/></g></g></svg>