<svg xmlns="http://www.w3.org/2000/svg" xmlns:xlink="http://www.w3.org/1999/xlink" viewBox="0 0 196.5 68.9"><defs><style>.cls-1{isolation:isolate;}.cls-2{fill:#252d76;}.cls-3{fill:#ff0d07;}.cls-22,.cls-4{fill:#ffc502;}.cls-4{mix-blend-mode:screen;}.cls-14,.cls-18,.cls-20,.cls-24,.cls-5,.cls-9{mix-blend-mode:multiply;}.cls-6{fill:#aa9e2d;}.cls-7,.cls-9{fill:#ebe9f4;}.cls-8{fill:#b48294;}.cls-10{fill:red;}.cls-11{fill:#ff5;}.cls-12{fill:#ffb70d;}.cls-13,.cls-16,.cls-17{fill:#fff;}.cls-13,.cls-15,.cls-18,.cls-24{opacity:0.5;}.cls-14{fill:#ffd703;opacity:0.6;}.cls-16{opacity:0.2;}.cls-18{fill:#ae3c22;}.cls-19{fill:#efe863;}.cls-20,.cls-23{fill:#d3c94c;}.cls-21{fill:#d37b04;}.cls-25{fill:#590600;}.cls-26{fill:url(#radial-gradient);}.cls-27{fill:#ffbfbd;opacity:0.7;}.cls-28{fill:#8b1000;}.cls-29{fill:url(#radial-gradient-2);}.cls-30{fill:url(#radial-gradient-3);}.cls-31{fill:url(#radial-gradient-4);}</style><radialGradient id="radial-gradient" cx="86.14" cy="38.91" r="74.49" gradientUnits="userSpaceOnUse"><stop offset="0" stop-color="#ae160b"/><stop offset="0.43" stop-color="#d91e00"/><stop offset="1" stop-color="#640800"/></radialGradient><radialGradient id="radial-gradient-2" cx="160.01" cy="74.52" r="6.74" gradientUnits="userSpaceOnUse"><stop offset="0.9" stop-color="#ae160b"/><stop offset="0.96" stop-color="#d91e00"/><stop offset="1" stop-color="#640800"/></radialGradient><radialGradient id="radial-gradient-3" cx="97.33" cy="164.46" r="125.86" xlink:href="#radial-gradient-2"/><radialGradient id="radial-gradient-4" cx="95.3" cy="10.99" r="95.61" xlink:href="#radial-gradient"/></defs><title>設施-資產 22遊樂設施</title><g class="cls-1"><g id="圖層_2" data-name="圖層 2"><g id="Layer_1" data-name="Layer 1"><path d="M157,39.92a4.34,4.34,0,1,0-2-5.82A4.33,4.33,0,0,0,157,39.92Z"/><path class="cls-2" d="M157.39,39a3.36,3.36,0,1,0-1.51-4.51A3.37,3.37,0,0,0,157.39,39Z"/><path class="cls-3" d="M157.68,38.47a2.72,2.72,0,1,0-1.22-3.65A2.72,2.72,0,0,0,157.68,38.47Z"/><polygon class="cls-4" points="158.29 36.28 157.7 38.48 159.16 36.71 159.89 38.54 159.76 36.64 161.39 37.27 159.9 36.37 161.49 35.33 159.59 35.84 160.11 33.61 158.73 35.41 157.95 33.56 158.08 35.46 156.46 34.82 157.95 35.73 156.35 36.78 158.29 36.28"/><g class="cls-5"><path class="cls-6" d="M161.29,39.65A4.2,4.2,0,0,0,162.78,38a4.34,4.34,0,0,0-7.48-4.38A46.34,46.34,0,0,1,161.29,39.65Z"/></g><path d="M177.14,50a4.34,4.34,0,1,0-1.95-5.83A4.35,4.35,0,0,0,177.14,50Z"/><path class="cls-2" d="M177.58,49.08a3.37,3.37,0,1,0-1.52-4.51A3.36,3.36,0,0,0,177.58,49.08Z"/><path class="cls-3" d="M177.87,48.5a2.72,2.72,0,1,0-1.23-3.64A2.72,2.72,0,0,0,177.87,48.5Z"/><polygon class="cls-4" points="178.38 46.27 177.85 48.49 179.24 46.7 180.02 48.54 179.89 46.64 181.51 47.28 180.02 46.38 181.61 45.33 179.67 45.82 180.27 43.63 178.81 45.4 178.07 43.57 178.2 45.47 176.58 44.83 178.06 45.74 176.47 46.78 178.38 46.27"/><g class="cls-5"><path class="cls-6" d="M181,42.18a4.33,4.33,0,0,0-5.82,2,4.23,4.23,0,0,0-.45,2.21,45.43,45.43,0,0,1,8.45,1.12A4.33,4.33,0,0,0,181,42.18Z"/></g><rect class="cls-7" x="165.4" y="27.78" width="2.93" height="10.7" transform="translate(62.92 167.81) rotate(-63.57)"/><path class="cls-8" d="M172.84,34.26l-10.48-5.21-1.47,3,10.48,5.21Zm-10.9-2.13,1.15-2.3,8.7,4.32-1.14,2.3Z"/><rect class="cls-7" x="164.13" y="30.39" width="2.89" height="10.7" transform="translate(59.87 168.1) rotate(-63.57)"/><path class="cls-8" d="M171.53,36.89l-10.48-5.21-1.45,2.91,10.48,5.21Zm-10.87-2.18,1.12-2.26,8.71,4.33L169.37,39Z"/><path class="cls-7" d="M173,32.74c-5.06-2.53-8.25-6.49-7.43-9.1l-2.88,5.8,9.58,4.76Z"/><path class="cls-8" d="M173.56,32.8l-.43-.22c-4.75-2.37-7.86-6.22-7.07-8.73l-.9-.43-3,6,10.47,5.21Zm-1.6,1-8.71-4.33,2-3.95c.74,2.37,3.46,5.12,7.31,7.14Z"/><path class="cls-7" d="M184.91,33.23c-1.61,2.23-6.72,2.07-11.81-.46l-.06,0-.73,1.46L182,39Z"/><path class="cls-8" d="M185.35,33.45l-.9-.45c-1.53,2.16-6.5,2-11.32-.42h0l-.43-.22-.9,1.79,10.6,5.27Zm-12.51.81.56-1.14c3.91,1.86,7.86,2.39,10.23,1.54l-2,4Z"/><polygon class="cls-7" points="179.43 44.24 180.72 41.66 171 36.83 169.72 39.42 169.78 39.44 179.43 44.24"/><path class="cls-8" d="M181.24,41.72l-10.59-5.27-1.36,2.75,0,.19,10.54,5.24Zm-11-2.25,1.13-2.25,8.81,4.38-1.12,2.25Z"/><rect class="cls-7" x="175.05" y="32.51" width="2.94" height="10.85" transform="translate(63.99 179.12) rotate(-63.57)"/><path class="cls-8" d="M182.55,39.08,172,33.82l-1.47,3L181.08,42Zm-11-2.19,1.14-2.3L181.48,39l-1.14,2.3Z"/><path class="cls-9" d="M172.31,34.2l-9.58-4.76-1.31,2.63L171,36.83Zm-2.18,1.49L162.77,32l.86-1.72L171,34Z"/><path class="cls-9" d="M171,36.83l-9.59-4.76-1.28,2.58,9.58,4.77Zm-2.17,1.47-7.36-3.66.86-1.74,7.36,3.66Z"/><path class="cls-9" d="M173,32.74c-5.06-2.53-8.25-6.49-7.43-9.1l-2.88,5.8,9.58,4.76Zm-1.63.4-7.35-3.66,1.27-2.59a17.94,17.94,0,0,0,6.41,5.57Z"/><path class="cls-9" d="M184.91,33.23c-1.61,2.23-6.72,2.07-11.81-.46l-.06,0-.73,1.46L182,39Zm-11.17,1.06.34-.67a17.86,17.86,0,0,0,8.3,1.75L181.09,38Z"/><path class="cls-9" d="M179.43,44.25l1.29-2.59L171,36.83l-1.29,2.59.06,0ZM172,37.73l7.36,3.66-.86,1.73-7.36-3.66Z"/><path class="cls-9" d="M182,39l-9.72-4.83L171,36.83l9.71,4.83Zm-2.19,1.49-7.37-3.66.86-1.73,7.37,3.66Z"/><path class="cls-9" d="M169.72,39.42l.06,0,.73.37,8.92,4.44.2-.41L170.7,39.4l1.09-2.18,8.93,4.44.2-.41L172,36.81l1.11-2.22L182,39l.19-.38-8.93-4.44.54-1.1c-.25-.11-.49-.21-.73-.34l-.06,0c-.27-.13-.52-.27-.79-.42l-.54,1.1-8.79-4.37-.19.39,8.78,4.37L170.41,36l-8.78-4.37-.21.41,8.78,4.37-1.08,2.18-8.78-4.37-.2.4L168.92,39Z"/><polygon class="cls-10" points="165.14 23.88 165.52 23.12 154.28 17.54 153.83 31.99 159.66 34.89 165.14 23.88"/><polygon class="cls-10" points="196.5 38.52 185.26 32.94 184.89 33.7 179.41 44.71 185.24 47.61 196.5 38.52"/><polygon class="cls-11" points="158.16 24.99 159.05 26.22 159.49 24.76 160.94 24.3 159.69 23.43 159.69 21.91 158.48 22.83 157.03 22.36 157.54 23.8 156.64 25.02 158.16 24.99"/><path class="cls-12" d="M158.09,25.13l1,1.4.5-1.66,1.65-.53-1.43-1V21.63l-1.37,1.05-1.65-.54.57,1.63-1,1.39Zm-.83-2.56,1.25.42,1-.8V23.5l1.09.75-1.25.4L159,25.91l-.77-1.06-1.31,0,.77-1.06Z"/><polygon class="cls-13" points="158.38 24.55 158.91 25.29 159.17 24.42 160.04 24.14 159.29 23.62 159.29 22.71 158.56 23.26 157.7 22.98 158 23.84 157.47 24.58 158.38 24.55"/><path class="cls-14" d="M158.18,25l.89,1.23.44-1.46L161,24.3l-1.26-.87V21.91l-1.21.92-1.45-.47.51,1.43-.9,1.23Zm-.7-2.22,1.07.35.89-.68v1.12l.92.64-1.07.35L159,25.63l-.66-.92-1.13,0,.67-.91Z"/><g class="cls-15"><polygon class="cls-16" points="158.65 24 158.66 23.99 158.66 23.97 159.34 22.62 158.55 23.22 158.53 23.22 158.54 23.23 158.65 24"/><polygon class="cls-17" points="159.34 22.62 158.66 23.97 158.66 23.99 159.33 23.61 159.34 22.62"/><polygon class="cls-16" points="160.13 24.18 160.14 24.17 159.33 23.61 158.65 24 158.66 24 160.13 24.18"/><polygon class="cls-17" points="160.15 24.18 160.14 24.17 160.13 24.18 158.66 24 159.21 24.48 160.15 24.18"/><polygon class="cls-17" points="158.65 24 158.34 24.62 158.92 25.43 158.65 24"/><polygon class="cls-16" points="159.21 24.48 158.65 24 158.92 25.43 159.21 24.48"/><polygon class="cls-16" points="158.65 24 158.65 24 157.35 24.65 158.34 24.62 158.65 24"/><polygon class="cls-17" points="157.93 23.85 157.35 24.65 158.65 24 157.93 23.85"/><polygon class="cls-17" points="158.54 23.23 158.53 23.22 157.61 22.91 158.65 24 158.54 23.23"/><polygon class="cls-17" points="158.65 24 158.65 24 158.65 24 158.65 24"/><polygon class="cls-16" points="158.65 24 157.61 22.91 157.93 23.85 158.65 24"/></g><polygon class="cls-11" points="188.28 39.96 189.17 41.2 189.6 39.74 191.05 39.27 189.81 38.4 189.81 36.88 188.59 37.8 187.15 37.33 187.65 38.77 186.75 39.99 188.28 39.96"/><path class="cls-12" d="M188.21,40.1l1,1.4.5-1.65,1.64-.53-1.42-1V36.61l-1.38,1-1.64-.54.57,1.64-1,1.39Zm-.84-2.55,1.25.41,1-.8v1.32l1.08.75-1.24.4-.38,1.26-.77-1.07-1.32,0,.78-1.06Z"/><polygon class="cls-13" points="188.49 39.53 189.02 40.27 189.29 39.4 190.16 39.12 189.41 38.6 189.41 37.69 188.68 38.24 187.82 37.95 188.12 38.82 187.58 39.55 188.49 39.53"/><path class="cls-14" d="M188.3,40l.89,1.23.44-1.45,1.45-.47-1.25-.86V36.88l-1.21.92-1.45-.47.51,1.44-.9,1.22Zm-.71-2.22,1.07.35.9-.68v1.13l.93.64-1.07.34-.32,1.08-.66-.91-1.12,0,.66-.9Z"/><g class="cls-15"><polygon class="cls-16" points="188.76 38.97 188.78 38.96 188.78 38.94 189.45 37.6 188.67 38.19 188.65 38.19 188.66 38.2 188.76 38.97"/><polygon class="cls-17" points="189.45 37.6 188.78 38.94 188.78 38.96 189.45 38.58 189.45 37.6"/><polygon class="cls-16" points="190.24 39.15 190.26 39.15 189.45 38.58 188.76 38.97 188.78 38.98 190.24 39.15"/><polygon class="cls-17" points="190.27 39.15 190.26 39.15 190.24 39.15 188.78 38.98 189.32 39.45 190.27 39.15"/><polygon class="cls-17" points="188.76 38.97 188.46 39.6 189.04 40.41 188.76 38.97"/><polygon class="cls-16" points="189.32 39.45 188.76 38.97 189.04 40.41 189.32 39.45"/><polygon class="cls-16" points="188.76 38.97 187.46 39.62 188.46 39.6 188.76 38.97"/><polygon class="cls-17" points="188.05 38.82 187.46 39.62 188.76 38.97 188.05 38.82"/><polygon class="cls-17" points="188.66 38.2 188.65 38.19 187.73 37.88 188.76 38.97 188.66 38.2"/><polygon class="cls-16" points="188.76 38.97 187.73 37.88 188.05 38.82 188.76 38.97"/></g><path class="cls-18" d="M196.5,38.53l-.08-.05a6.42,6.42,0,0,0-.83.46c-1.76,1.11-7.26,5.71-10.36,4.37s-3.33-2.18-1.95-5c1.92-3.87,2.65-4.66,8.23-2.31l-6.24-3.11-.38.76-5.48,11,5.83,2.9Z"/><path class="cls-18" d="M188.75,44.77c-2.77,1.93-3.84,1.19-6,.12s-2.53-1.87-1.59-3.7a5.4,5.4,0,0,0,.23-.49l-2,4,5.83,2.9Z"/><path class="cls-18" d="M165.11,23.87l.38-.77L159.24,20c5.24,3,5,4.1,3.12,8-1.37,2.76-2.05,3.16-5.12,1.42s-2.59-8.82-2.77-10.89a5,5,0,0,0-.14-.94l-.07,0L153.8,32l5.83,2.9Z"/><path class="cls-18" d="M161.63,30.86a5.42,5.42,0,0,0-.26.48c-.89,1.85-1.68,2.07-3.9,1s-3.38-1.47-3.52-4.84L153.8,32l5.83,2.9Z"/><path class="cls-19" d="M161.51,38.67a24.84,24.84,0,0,0,5.92,4.93l.18.1a23.88,23.88,0,0,0,7.7,1.83c6.94.5,10,2.08,10,2.08l1.82-1.45L153.84,29.62V32S156.92,33.43,161.51,38.67Z"/><path class="cls-20" d="M156.25,32.08a.51.51,0,0,0-.22-.69.51.51,0,1,0-.46.92A.51.51,0,0,0,156.25,32.08Z"/><path class="cls-20" d="M158.84,33.36a.51.51,0,1,0-.69.23A.52.52,0,0,0,158.84,33.36Z"/><path class="cls-20" d="M161.42,34.65a.51.51,0,1,0-.69.23A.52.52,0,0,0,161.42,34.65Z"/><path class="cls-20" d="M164,35.93a.51.51,0,1,0-.69.23A.51.51,0,0,0,164,35.93Z"/><path class="cls-20" d="M166.58,37.21a.51.51,0,1,0-.91-.45.49.49,0,0,0,.23.68A.51.51,0,0,0,166.58,37.21Z"/><path class="cls-20" d="M169.16,38.49a.51.51,0,0,0-.23-.68.51.51,0,1,0,.23.68Z"/><path class="cls-20" d="M171.74,39.78a.52.52,0,0,0-.23-.69.51.51,0,0,0-.68.24.5.5,0,0,0,.23.68A.51.51,0,0,0,171.74,39.78Z"/><path class="cls-20" d="M174.32,41.06a.5.5,0,0,0-.23-.68.5.5,0,0,0-.68.23.51.51,0,0,0,.23.68A.49.49,0,0,0,174.32,41.06Z"/><path class="cls-20" d="M176.9,42.34a.5.5,0,0,0-.23-.68.51.51,0,0,0-.45.91A.49.49,0,0,0,176.9,42.34Z"/><path class="cls-20" d="M179.48,43.63a.49.49,0,0,0-.23-.68.5.5,0,0,0-.68.22.52.52,0,0,0,.23.69A.51.51,0,0,0,179.48,43.63Z"/><path class="cls-20" d="M182.06,44.91a.5.5,0,0,0-.22-.68.51.51,0,1,0-.46.91A.5.5,0,0,0,182.06,44.91Z"/><path class="cls-20" d="M184.65,46.2a.51.51,0,1,0-.69.23A.52.52,0,0,0,184.65,46.2Z"/><path class="cls-21" d="M156.37,31.86a.51.51,0,1,0-.69.23A.52.52,0,0,0,156.37,31.86Z"/><path class="cls-22" d="M156.29,31.72a.43.43,0,0,0-.19-.55.41.41,0,0,0-.36.73A.42.42,0,0,0,156.29,31.72Z"/><path class="cls-4" d="M156.14,31.48a.23.23,0,0,0-.1-.3.23.23,0,0,0-.31.1.23.23,0,0,0,.41.2Z"/><path class="cls-4" d="M155.75,31.64a.08.08,0,0,0,0-.1.07.07,0,0,0-.1,0,.08.08,0,0,0,0,.11A.08.08,0,0,0,155.75,31.64Z"/><path class="cls-21" d="M159,33.14a.51.51,0,1,0-.69.23A.52.52,0,0,0,159,33.14Z"/><path class="cls-22" d="M158.87,33a.41.41,0,0,0-.19-.54.4.4,0,0,0-.36.72A.41.41,0,0,0,158.87,33Z"/><path class="cls-4" d="M158.72,32.76a.23.23,0,0,0-.1-.3.23.23,0,1,0-.2.41A.23.23,0,0,0,158.72,32.76Z"/><path class="cls-4" d="M158.33,32.93a.07.07,0,0,0,0-.1.07.07,0,0,0-.07.13A.08.08,0,0,0,158.33,32.93Z"/><path class="cls-21" d="M161.53,34.42a.51.51,0,0,0-.23-.68.52.52,0,0,0-.69.23.51.51,0,0,0,.92.45Z"/><path class="cls-22" d="M161.45,34.28a.41.41,0,0,0-.73-.36.41.41,0,0,0,.73.36Z"/><path class="cls-4" d="M161.3,34.05a.22.22,0,1,0-.4-.2.22.22,0,0,0,.4.2Z"/><path class="cls-4" d="M160.91,34.21a.07.07,0,0,0,0-.1.07.07,0,1,0-.07.13A.07.07,0,0,0,160.91,34.21Z"/><path class="cls-21" d="M164.11,35.71a.51.51,0,0,0-.92-.46.51.51,0,1,0,.92.46Z"/><path class="cls-22" d="M164,35.57a.41.41,0,1,0-.73-.36.41.41,0,0,0,.19.54A.4.4,0,0,0,164,35.57Z"/><path class="cls-4" d="M163.88,35.33a.22.22,0,1,0-.3.1A.22.22,0,0,0,163.88,35.33Z"/><path class="cls-4" d="M163.49,35.49a.07.07,0,0,0,0-.1.08.08,0,0,0-.1,0,.08.08,0,0,0,0,.11A.08.08,0,0,0,163.49,35.49Z"/><path class="cls-21" d="M166.69,37a.52.52,0,0,0-.23-.69.51.51,0,0,0-.46.92A.52.52,0,0,0,166.69,37Z"/><path class="cls-22" d="M166.61,36.85a.4.4,0,0,0-.18-.54.42.42,0,0,0-.55.18.41.41,0,0,0,.73.36Z"/><path class="cls-4" d="M166.46,36.61a.22.22,0,0,0-.1-.3.23.23,0,0,0-.3.1.22.22,0,0,0,.1.3A.21.21,0,0,0,166.46,36.61Z"/><path class="cls-4" d="M166.07,36.77a.07.07,0,0,0,0-.1.08.08,0,0,0-.1,0,.08.08,0,0,0,0,.1A.07.07,0,0,0,166.07,36.77Z"/><path class="cls-21" d="M169.27,38.27a.51.51,0,1,0-.91-.45.51.51,0,0,0,.91.45Z"/><path class="cls-22" d="M169.19,38.13a.4.4,0,1,0-.54.18A.4.4,0,0,0,169.19,38.13Z"/><path class="cls-4" d="M169,37.9a.22.22,0,1,0-.4-.2.23.23,0,0,0,.1.3A.23.23,0,0,0,169,37.9Z"/><path class="cls-4" d="M168.66,38.06a.07.07,0,0,0,0-.1.08.08,0,0,0-.1,0,.07.07,0,0,0,0,.1A.08.08,0,0,0,168.66,38.06Z"/><path class="cls-21" d="M171.85,39.56a.51.51,0,1,0-.68.23A.51.51,0,0,0,171.85,39.56Z"/><path class="cls-22" d="M171.77,39.42a.4.4,0,1,0-.54.18A.4.4,0,0,0,171.77,39.42Z"/><path class="cls-4" d="M171.62,39.18a.21.21,0,0,0-.1-.3.22.22,0,0,0-.3.1.22.22,0,0,0,.1.3A.22.22,0,0,0,171.62,39.18Z"/><path class="cls-4" d="M171.24,39.34a.08.08,0,0,0,0-.1.07.07,0,0,0-.1,0,.08.08,0,0,0,0,.1A.08.08,0,0,0,171.24,39.34Z"/><path class="cls-21" d="M174.43,40.84a.51.51,0,0,0-.23-.69.51.51,0,1,0,.23.69Z"/><path class="cls-22" d="M174.35,40.7a.4.4,0,1,0-.54.18A.4.4,0,0,0,174.35,40.7Z"/><path class="cls-4" d="M174.21,40.46a.23.23,0,1,0-.31.11A.23.23,0,0,0,174.21,40.46Z"/><path class="cls-4" d="M173.82,40.63a.07.07,0,0,0,0-.1.07.07,0,0,0-.1,0,.08.08,0,0,0,0,.1A.08.08,0,0,0,173.82,40.63Z"/><path class="cls-21" d="M177,42.12a.49.49,0,0,0-.23-.68.51.51,0,0,0-.68.23.51.51,0,0,0,.23.68A.5.5,0,0,0,177,42.12Z"/><path class="cls-22" d="M176.93,42a.4.4,0,1,0-.54.18A.4.4,0,0,0,176.93,42Z"/><path class="cls-4" d="M176.79,41.75a.24.24,0,0,0-.1-.31.25.25,0,0,0-.31.11.23.23,0,0,0,.11.3A.23.23,0,0,0,176.79,41.75Z"/><path class="cls-4" d="M176.4,41.91a.08.08,0,0,0,0-.1.07.07,0,0,0-.1,0,.07.07,0,1,0,.13.07Z"/><path class="cls-21" d="M179.6,43.41a.51.51,0,1,0-.69.23A.52.52,0,0,0,179.6,43.41Z"/><path class="cls-22" d="M179.51,43.27a.41.41,0,0,0-.18-.55.41.41,0,0,0-.36.73A.4.4,0,0,0,179.51,43.27Z"/><path class="cls-4" d="M179.37,43a.23.23,0,0,0-.1-.3.23.23,0,0,0-.31.1.22.22,0,0,0,.11.3A.22.22,0,0,0,179.37,43Z"/><path class="cls-4" d="M179,43.19a.08.08,0,0,0,0-.1.07.07,0,0,0-.1,0,.07.07,0,0,0,0,.1A.08.08,0,0,0,179,43.19Z"/><path class="cls-21" d="M182.18,44.69a.51.51,0,0,0-.92-.46.51.51,0,1,0,.92.46Z"/><path class="cls-22" d="M182.1,44.55a.41.41,0,0,0-.73-.36.41.41,0,0,0,.73.36Z"/><path class="cls-4" d="M182,44.31a.22.22,0,0,0-.1-.3.23.23,0,0,0-.3.1.21.21,0,0,0,.1.3A.21.21,0,0,0,182,44.31Z"/><path class="cls-4" d="M181.56,44.48a.07.07,0,0,0,0-.1.07.07,0,0,0-.1,0,.07.07,0,0,0,0,.1A.07.07,0,0,0,181.56,44.48Z"/><path class="cls-21" d="M184.76,46a.51.51,0,0,0-.23-.68.52.52,0,0,0-.69.23.51.51,0,0,0,.92.45Z"/><path class="cls-22" d="M184.68,45.83a.4.4,0,0,0-.19-.54.4.4,0,0,0-.54.18.4.4,0,0,0,.19.54A.4.4,0,0,0,184.68,45.83Z"/><path class="cls-4" d="M184.53,45.6a.23.23,0,0,0-.1-.3.22.22,0,0,0-.3.1.22.22,0,0,0,.1.3A.22.22,0,0,0,184.53,45.6Z"/><path class="cls-4" d="M184.14,45.76a.07.07,0,1,0-.13-.07.07.07,0,0,0,0,.1A.07.07,0,0,0,184.14,45.76Z"/><g class="cls-5"><path class="cls-23" d="M164.13,39.38c1.08.14,2.7-.1,3.79.37a1.34,1.34,0,0,1,.21,2.31c-.69.39-1.56-.13-1.32-.78s.81-.38.84-.15a.29.29,0,0,1-.05.22.18.18,0,0,0-.09-.08.2.2,0,1,0-.18.36.21.21,0,0,0,.19,0,.45.45,0,0,0,0-.79.63.63,0,0,0-.88.37c-.38.78.93,1.69,1.7,1a1.59,1.59,0,0,0,.1-2.4c-.69-.58-1.76-.57-3.41-.57-2.1,0-3.08-.66-3.52-1.55s.25-1.47.85-1.28.63.88.39,1a.27.27,0,0,1-.4-.15.15.15,0,0,0,.17-.12.18.18,0,0,0-.26-.19.38.38,0,0,0,.11.64c.58.24,1.12-.73.18-1.25s-1.61.44-1.27,1.26A3.3,3.3,0,0,0,164.13,39.38Z"/><path class="cls-23" d="M170.86,43.28a.65.65,0,0,0-.24-.93.46.46,0,0,0-.61.52.22.22,0,0,0,.12.15.2.2,0,0,0,.18-.36.15.15,0,0,0-.11,0,.27.27,0,0,1,.13-.18c.21-.12.76.19.39.77s-1.31.2-1.42-.59a1.34,1.34,0,0,1,2-1.22c1,.58,1.82,2,2.59,2.8A3.34,3.34,0,0,0,177,45.39a.94.94,0,0,0,.23-1.78c-1-.44-1.42.59-.88.9a.38.38,0,0,0,.57-.3c0-.15-.23-.19-.31-.09a.15.15,0,0,0,0,.21.28.28,0,0,1-.37-.23c-.06-.26.52-.66,1-.29s.46,1.25-.51,1.45-2.09-.2-3.36-1.87c-1-1.31-1.64-2.17-2.52-2.37A1.58,1.58,0,0,0,169,42.55C168.94,43.56,170.46,44.06,170.86,43.28Z"/><path class="cls-23" d="M170.05,39.58a1.42,1.42,0,0,0-.67,1.42A1.61,1.61,0,0,0,170.05,39.58Z"/><path class="cls-23" d="M168.9,39.19a1.12,1.12,0,0,0,.31,1.18A1.25,1.25,0,0,0,168.9,39.19Z"/><path class="cls-23" d="M171,40.25a1.24,1.24,0,0,0-1.12.47A1.12,1.12,0,0,0,171,40.25Z"/></g><path class="cls-21" d="M164.18,39.28c1.08.14,2.7-.09,3.79.38a1.34,1.34,0,0,1,.21,2.3c-.69.39-1.56-.13-1.33-.77s.82-.39.85-.16a.29.29,0,0,1-.06.22.2.2,0,0,0-.08-.08.2.2,0,0,0-.27.09.21.21,0,0,0,.09.28.21.21,0,0,0,.19,0,.45.45,0,0,0,.05-.79.65.65,0,0,0-.89.37c-.38.79.94,1.69,1.71,1a1.59,1.59,0,0,0,.1-2.39c-.69-.58-1.76-.57-3.41-.58-2.1,0-3.09-.65-3.52-1.55s.25-1.46.85-1.28.63.89.39,1a.28.28,0,0,1-.4-.16.14.14,0,0,0,.17-.11c0-.13-.14-.28-.26-.19s-.15.53.11.64c.58.24,1.12-.74.18-1.25s-1.61.43-1.27,1.26A3.31,3.31,0,0,0,164.18,39.28Z"/><path class="cls-21" d="M170.9,43.18a.63.63,0,0,0-.24-.92.45.45,0,0,0-.6.51.18.18,0,0,0,.12.15.19.19,0,0,0,.27-.08.21.21,0,0,0-.09-.28l-.12,0a.28.28,0,0,1,.14-.17c.2-.12.76.19.39.76s-1.31.2-1.42-.58a1.34,1.34,0,0,1,2-1.23c1,.59,1.82,2,2.58,2.8a3.31,3.31,0,0,0,3.1,1.17.93.93,0,0,0,.23-1.77c-1-.44-1.42.58-.89.9a.39.39,0,0,0,.58-.3.18.18,0,0,0-.31-.09.15.15,0,0,0,0,.2.28.28,0,0,1-.37-.23c-.06-.26.52-.65,1-.28s.46,1.25-.51,1.44-2.09-.2-3.36-1.87c-1-1.31-1.64-2.17-2.52-2.37a1.6,1.6,0,0,0-1.85,1.53C169,43.46,170.51,44,170.9,43.18Z"/><path class="cls-21" d="M170.1,39.48a1.45,1.45,0,0,0-.68,1.42A1.59,1.59,0,0,0,170.1,39.48Z"/><path class="cls-21" d="M169,39.1a1.11,1.11,0,0,0,.3,1.18A1.26,1.26,0,0,0,169,39.1Z"/><path class="cls-21" d="M171.06,40.15a1.27,1.27,0,0,0-1.13.47A1.11,1.11,0,0,0,171.06,40.15Z"/><path class="cls-22" d="M168.88,40.93c.12-.31-.07-1.18-1.17-1.48A1.53,1.53,0,0,1,168.88,40.93Z"/><path class="cls-22" d="M167.71,39.45a3.05,3.05,0,0,0-.48-.12A2.11,2.11,0,0,1,167.71,39.45Z"/><path class="cls-22" d="M172,41.7c-1-1.2-2.08-.67-2.28-.34C170.81,40.47,172,41.7,172,41.7Z"/><path class="cls-22" d="M163,37.24a.52.52,0,0,0-.1-.64A.74.74,0,0,1,163,37.24Z"/><path class="cls-22" d="M162.92,36.6l-.09-.12S162.89,36.57,162.92,36.6Z"/><path class="cls-22" d="M176.82,43.51c.05,0,.1,0,.15,0Z"/><path class="cls-22" d="M176.26,43.82a.72.72,0,0,1,.56-.31A.5.5,0,0,0,176.26,43.82Z"/><g class="cls-5"><path class="cls-23" d="M177.26,43.7s-6.89,3.81-16.33-5.69l.58.66a24.84,24.84,0,0,0,5.92,4.93l.18.1a23.88,23.88,0,0,0,7.7,1.83c6.94.5,10,2.08,10,2.08l1.82-1.45L153.84,29.62l-.16.32,24.39,12.13Z"/></g><g class="cls-5"><path class="cls-23" d="M173.81,45.07a18.42,18.42,0,0,1-7-1.83,6.62,6.62,0,0,0,.6.36l.18.1a23.88,23.88,0,0,0,7.7,1.83c6.94.5,10,2.08,10,2.08l1.82-1.45-14.19-7,10.5,5.6L182.77,46S179.48,45.7,173.81,45.07Z"/></g><path class="cls-22" d="M169.8,39.84c.08-.08.14-.19.23-.23A1.3,1.3,0,0,0,169.8,39.84Z"/><path class="cls-22" d="M169.8,39.84a1,1,0,0,0-.3.76A1.64,1.64,0,0,1,169.8,39.84Z"/><path class="cls-22" d="M169.22,40.15a1,1,0,0,1-.26-.63A.67.67,0,0,0,169.22,40.15Z"/><path class="cls-22" d="M169,39.52a.62.62,0,0,1,0-.28A.81.81,0,0,0,169,39.52Z"/><path class="cls-22" d="M170.7,40.22a.9.9,0,0,1,.28,0A.88.88,0,0,0,170.7,40.22Z"/><path class="cls-22" d="M170.7,40.22a.67.67,0,0,0-.58.35A1.08,1.08,0,0,1,170.7,40.22Z"/><path class="cls-17" d="M160.63,37.32a15.64,15.64,0,0,0-6.27-5.42A33.19,33.19,0,0,1,160.63,37.32Z"/><g class="cls-24"><path class="cls-25" d="M156.93,68.9l4.41-1.85a3.41,3.41,0,0,0-1-.4c-1.43.35-2.86.67-4.31,1Z"/><path class="cls-25" d="M160.52,64.86,157.73,66,155,62.27c.64,3.49-1,1.32-1.74,1.58L156,67.63c1.45-.31,2.88-.63,4.31-1C159.85,66.46,159.63,66.09,160.52,64.86Z"/></g><g class="cls-24"><path class="cls-25" d="M187,61.18c-1.45-3.28,1.22-1.25,2-1.28l-2.56-2.68c-.73.36-1.46.74-2.19,1.09Z"/><path class="cls-25" d="M180.24,56.55c.56.56,1.84-.52.78,2.21l2.64-1.11.64.66c.73-.35,1.46-.73,2.19-1.09l-2.25-2.35Z"/></g><path d="M25,27.91a4.35,4.35,0,1,0-5.35-3A4.35,4.35,0,0,0,25,27.91Z"/><path class="cls-2" d="M24.75,27a3.36,3.36,0,1,0-4.14-2.34A3.36,3.36,0,0,0,24.75,27Z"/><path class="cls-3" d="M24.58,26.34a2.72,2.72,0,1,0-3.35-1.89A2.72,2.72,0,0,0,24.58,26.34Z"/><polygon class="cls-4" points="22.95 24.13 22.46 25.97 23.57 24.3 24.59 26.33 24.5 24.05 26.27 24.91 24.91 23.59 26.54 22.97 24.82 23.3 25.31 21.46 24.24 23.11 23.14 21.1 23.31 23.37 21.5 22.51 22.87 23.84 21.23 24.45 22.95 24.13"/><g class="cls-5"><path class="cls-6" d="M28.06,24.81a4.4,4.4,0,0,0,0-2.25,4.34,4.34,0,0,0-8.49,1.74A46.42,46.42,0,0,1,28.06,24.81Z"/></g><path d="M46.73,21.88a4.35,4.35,0,1,0-5.35-3A4.34,4.34,0,0,0,46.73,21.88Z"/><path class="cls-2" d="M46.47,20.94a3.37,3.37,0,1,0-4.14-2.35A3.36,3.36,0,0,0,46.47,20.94Z"/><path class="cls-3" d="M46.3,20.32A2.72,2.72,0,1,0,43,18.42,2.73,2.73,0,0,0,46.3,20.32Z"/><polygon class="cls-4" points="44.6 18.12 44.12 19.96 45.19 18.31 46.28 20.32 46.11 18.05 47.93 18.91 46.56 17.58 48.19 16.97 46.48 17.29 46.97 15.45 45.85 17.11 44.83 15.09 44.92 17.37 43.16 16.51 44.52 17.84 42.88 18.44 44.6 18.12"/><g class="cls-5"><path class="cls-6" d="M42.53,20.8a45,45,0,0,1,7-4.82,4.35,4.35,0,0,0-8.18,2.88A4.43,4.43,0,0,0,42.53,20.8Z"/></g><rect class="cls-7" x="22.5" y="14.77" width="10.7" height="2.94" transform="translate(-3.33 8.04) rotate(-15.52)"/><path class="cls-8" d="M33.92,16.26,33,13.08,21.77,16.2l.88,3.19ZM32.19,13.7l.69,2.47-9.37,2.6-.69-2.47Z"/><rect class="cls-7" x="23.27" y="17.6" width="10.7" height="2.88" transform="matrix(0.96, -0.27, 0.27, 0.96, -4.05, 8.34)"/><path class="cls-8" d="M34.69,19.05l-.87-3.14L22.55,19l.87,3.13ZM33,16.52,33.65,19l-9.37,2.6-.67-2.43Z"/><path class="cls-7" d="M32.61,13.39l-.44-1.57c-5.45,1.49-10.47.68-11.6-1.81l1.73,6.24Z"/><path class="cls-8" d="M33.14,13.44l-.54-1.93-.46.12C27,13,22.13,12.26,21,9.87l-1,.27,1.78,6.43Zm-1.39-1.33.34,1.23-9.37,2.6-1.18-4.26C23.68,13,27.55,13.18,31.75,12.11Z"/><path class="cls-7" d="M43.06,10.49,41.33,4.25c.3,2.73-3.61,6-9.09,7.55l-.07,0,.44,1.57Z"/><path class="cls-8" d="M43.59,10.54,41.81,4.12l-1,.26c.3,2.63-3.51,5.82-8.7,7.25h0l-.47.13.53,1.93ZM41.33,6.17l1.19,4.28L33,13.08l-.34-1.22C36.85,10.62,40.15,8.38,41.33,6.17Z"/><polygon class="cls-7" points="34.23 18.98 44.62 16.1 43.85 13.32 33.4 16.22 34.17 19 34.23 18.98"/><path class="cls-8" d="M33.8,19.29l11.34-3.14L44.27,13,32.88,16.17l.82,3Zm9.6-5.66.68,2.43L34.6,18.69l-.68-2.43Z"/><rect class="cls-7" x="32.81" y="11.89" width="10.85" height="2.94" transform="translate(-2.18 10.69) rotate(-15.49)"/><path class="cls-8" d="M44.37,13.36l-.88-3.18-11.4,3.16L33,16.52Zm-1.75-2.55.69,2.47-9.49,2.63-.68-2.47Z"/><path class="cls-9" d="M33.4,16.22l-.79-2.83L22.3,16.25l.78,2.83ZM31.47,14.1,32,16l-7.92,2.2-.51-1.86Z"/><path class="cls-9" d="M34.17,19l-.77-2.78L23.08,19.08l.77,2.78Zm-1.93-2.11.52,1.87L24.84,21l-.52-1.86Z"/><path class="cls-9" d="M32.61,13.39l-.44-1.57c-5.45,1.49-10.47.68-11.6-1.81l1.73,6.24ZM31,12.48l.2.72-7.91,2.19-.79-2.77A18,18,0,0,0,31,12.48Z"/><path class="cls-9" d="M43.06,10.49,41.33,4.25c.3,2.73-3.61,6-9.09,7.55l-.07,0,.44,1.57Zm-2.17-3,.75,2.78-7.9,2.19-.2-.72A18,18,0,0,0,40.89,7.53Z"/><path class="cls-9" d="M34.23,19,44.62,16.1l-.77-2.78L33.4,16.22,34.17,19Zm8.46-5,.51,1.86-7.92,2.2-.52-1.86Z"/><path class="cls-9" d="M43.85,13.32l-.79-2.83-10.45,2.9.79,2.83ZM41.91,11.2l.52,1.86-7.93,2.2L34,13.4Z"/><path class="cls-9" d="M22.3,16.25l9.45-2.62L32.41,16,23,18.64l.12.44,9.46-2.62.65,2.35-9.46,2.62.12.43,9.46-2.62.86-.24.06,0,.78-.22,9.61-2.66-.12-.43-9.61,2.67L34.24,16l9.61-2.67-.12-.44-9.61,2.66-.67-2.38,9.61-2.67L43,10.07l-9.61,2.67L33,11.56c-.26.09-.5.17-.77.24l-.07,0-.86.21.33,1.18-9.46,2.62Z"/><polygon class="cls-10" points="23.66 22.36 20.38 10.5 20.15 9.69 8.06 13.04 17.39 24.1 23.66 22.36"/><polygon class="cls-10" points="44.92 16.46 51.19 14.72 53.49 0.44 41.4 3.79 41.63 4.61 44.92 16.46"/><polygon class="cls-11" points="14.81 17.03 15.93 15.99 17.41 16.31 16.76 14.94 17.53 13.62 16.02 13.81 15.01 12.68 14.72 14.17 13.33 14.79 14.66 15.52 14.81 17.03"/><path class="cls-12" d="M14.71,17.32,16,16.14l1.68.37L16.92,15l.87-1.5-1.72.22-1.15-1.29-.32,1.7L13,14.77l1.51.84Zm.13-3.05L15.09,13,16,14l1.31-.16-.66,1.13.56,1.19-1.29-.28-1,.9-.13-1.31-1.15-.63Z"/><polygon class="cls-13" points="15.13 16.15 15.8 15.53 16.68 15.72 16.3 14.9 16.75 14.11 15.85 14.22 15.25 13.55 15.07 14.44 14.24 14.81 15.04 15.25 15.13 16.15"/><path class="cls-14" d="M14.83,17l1.11-1,1.49.32-.65-1.38.77-1.31L16,13.8l-1-1.14-.28,1.5-1.4.61,1.34.74ZM15,14.34l.21-1.1.75.84L17,13.94l-.57,1,.48,1-1.09-.24-.83.77-.11-1.12-1-.54Z"/><g class="cls-15"><polygon class="cls-16" points="15.63 14.93 15.63 14.92 15.62 14.9 15.22 13.45 15.03 14.42 15.02 14.43 15.03 14.43 15.63 14.93"/><polygon class="cls-17" points="15.63 14.92 15.88 14.18 15.22 13.45 15.62 14.9 15.63 14.92"/><polygon class="cls-16" points="16.84 14.07 16.86 14.06 15.88 14.18 15.63 14.93 15.64 14.93 16.84 14.07"/><polygon class="cls-17" points="16.86 14.06 16.86 14.06 16.84 14.07 15.64 14.93 16.37 14.91 16.86 14.06"/><polygon class="cls-17" points="16.78 15.82 15.63 14.93 15.82 15.6 16.78 15.82"/><polygon class="cls-16" points="16.37 14.91 15.63 14.93 16.78 15.82 16.37 14.91"/><polygon class="cls-16" points="15.63 14.93 15.62 14.93 15.1 16.28 15.82 15.6 15.63 14.93"/><polygon class="cls-17" points="15.62 14.93 14.99 15.3 15.1 16.28 15.62 14.93"/><polygon class="cls-17" points="15.63 14.93 15.03 14.43 15.02 14.43 14.13 14.82 15.62 14.93 15.63 14.93"/><polygon class="cls-16" points="15.62 14.93 14.13 14.82 14.99 15.3 15.62 14.93"/></g><polygon class="cls-11" points="47.23 8.05 48.34 7 49.82 7.33 49.17 5.95 49.94 4.63 48.43 4.82 47.42 3.69 47.13 5.18 45.74 5.8 47.08 6.53 47.23 8.05"/><path class="cls-12" d="M47.12,8.34l1.26-1.19,1.69.37L49.33,6l.87-1.5-1.72.22L47.33,3.39,47,5.09l-1.58.69,1.51.84Zm.13-3L47.5,4l.88,1,1.3-.16L49,5.94l.56,1.19L48.3,6.85l-1,.9L47.2,6.44l-1.15-.63Z"/><polygon class="cls-13" points="47.54 7.16 48.21 6.54 49.09 6.73 48.71 5.91 49.17 5.12 48.27 5.23 47.66 4.56 47.49 5.45 46.65 5.82 47.45 6.26 47.54 7.16"/><path class="cls-14" d="M47.24,8l1.11-1,1.49.32-.65-1.38L50,4.62l-1.51.19-1-1.14-.28,1.5-1.39.62,1.33.73Zm.13-2.67.21-1.11.75.84L49.45,5l-.57,1,.49,1L48.26,6.7l-.81.77-.12-1.12-1-.54Z"/><g class="cls-15"><polygon class="cls-16" points="48.04 5.94 48.04 5.93 48.03 5.91 47.63 4.46 47.44 5.43 47.43 5.44 47.44 5.44 48.04 5.94"/><polygon class="cls-17" points="48.04 5.93 48.29 5.19 47.63 4.46 48.03 5.91 48.04 5.93"/><polygon class="cls-16" points="49.25 5.08 49.27 5.07 48.29 5.19 48.04 5.94 48.05 5.94 49.25 5.08"/><polygon class="cls-17" points="49.27 5.07 49.27 5.07 49.25 5.08 48.05 5.94 48.77 5.93 49.27 5.07"/><polygon class="cls-17" points="49.2 6.83 48.04 5.94 48.23 6.61 49.2 6.83"/><polygon class="cls-16" points="48.77 5.93 48.04 5.94 49.2 6.83 48.77 5.93"/><polygon class="cls-16" points="48.04 5.94 48.03 5.94 47.51 7.29 48.23 6.61 48.04 5.94"/><polygon class="cls-17" points="48.03 5.94 47.41 6.31 47.51 7.29 48.03 5.94"/><polygon class="cls-17" points="48.04 5.94 47.44 5.44 47.43 5.44 46.54 5.83 48.03 5.94 48.04 5.94"/><polygon class="cls-16" points="48.03 5.94 46.54 5.83 47.41 6.31 48.03 5.94"/></g><path class="cls-18" d="M44.92,16.46l6.27-1.74L53.49.44l-.09,0a6.09,6.09,0,0,0-.31.89c-.56,2-1.58,9.1-4.78,10.17-3.35,1.13-3.94.6-4.76-2.37C42.39,5,42.41,3.91,48.12,1.93L41.4,3.79l.23.82Z"/><path class="cls-18" d="M51.19,14.72l.71-4.46c-.77,3.29-2.06,3.45-4.37,4.09s-3.13.3-3.65-1.69c-.05-.18-.1-.35-.16-.52l1.2,4.32Z"/><path class="cls-18" d="M23.63,22.37,20.34,10.52l-.23-.82-6.72,1.86c5.93-1.24,6.5-.32,7.65,3.84.83,3,.59,3.73-2.85,4.49s-7.84-4.84-9.34-6.26A6.25,6.25,0,0,0,8.11,13l-.08,0L17.36,24.1Z"/><path class="cls-18" d="M23.63,22.37,22.43,18c0,.18.08.35.13.53.58,2,.13,2.67-2.26,3.33s-3.49,1.17-5.85-1.25l2.91,3.45Z"/><path class="cls-19" d="M27.56,23.93a25,25,0,0,0,7.7-.28l.2,0a24.05,24.05,0,0,0,6.95-3.79c5.5-4.27,8.81-5.12,8.81-5.12l.39-2.29L15.8,22.33l1.57,1.75S20.65,23.1,27.56,23.93Z"/><path class="cls-20" d="M18.89,23.17a.52.52,0,0,0,.36-.63.51.51,0,0,0-1,.27A.52.52,0,0,0,18.89,23.17Z"/><path class="cls-20" d="M21.67,22.4a.52.52,0,0,0,.36-.63A.51.51,0,0,0,21,22,.52.52,0,0,0,21.67,22.4Z"/><path class="cls-20" d="M24.45,21.63A.51.51,0,0,0,24.8,21a.5.5,0,0,0-.63-.35.49.49,0,0,0-.35.62A.52.52,0,0,0,24.45,21.63Z"/><path class="cls-20" d="M27.22,20.86a.51.51,0,1,0-.27-1,.49.49,0,0,0-.35.62A.51.51,0,0,0,27.22,20.86Z"/><path class="cls-20" d="M30,20.09a.52.52,0,0,0,.36-.63.51.51,0,0,0-.63-.35.49.49,0,0,0-.35.62A.51.51,0,0,0,30,20.09Z"/><path class="cls-20" d="M32.78,19.32a.52.52,0,0,0,.36-.63.51.51,0,0,0-1,.27A.52.52,0,0,0,32.78,19.32Z"/><path class="cls-20" d="M35.56,18.55a.51.51,0,0,0,.35-.63.51.51,0,0,0-1,.27A.52.52,0,0,0,35.56,18.55Z"/><path class="cls-20" d="M38.34,17.78a.51.51,0,1,0-.28-1,.49.49,0,0,0-.35.62A.51.51,0,0,0,38.34,17.78Z"/><path class="cls-20" d="M41.11,17a.51.51,0,1,0-.27-1,.51.51,0,0,0,.27,1Z"/><path class="cls-20" d="M43.89,16.24a.51.51,0,1,0-.63-.36A.52.52,0,0,0,43.89,16.24Z"/><path class="cls-20" d="M46.67,15.47a.51.51,0,0,0-.28-1,.52.52,0,0,0-.35.63A.52.52,0,0,0,46.67,15.47Z"/><path class="cls-20" d="M49.45,14.7a.51.51,0,1,0-.63-.36A.51.51,0,0,0,49.45,14.7Z"/><path class="cls-21" d="M18.82,22.93a.52.52,0,0,0,.36-.63.51.51,0,0,0-.63-.35.49.49,0,0,0-.35.62A.5.5,0,0,0,18.82,22.93Z"/><path class="cls-22" d="M18.74,22.75a.41.41,0,0,0,.29-.5.41.41,0,1,0-.29.5Z"/><path class="cls-4" d="M18.6,22.45a.23.23,0,0,0,.16-.27.22.22,0,0,0-.28-.16.21.21,0,0,0-.15.27A.22.22,0,0,0,18.6,22.45Z"/><path class="cls-4" d="M18.58,22.55a.07.07,0,0,0-.09-.05.08.08,0,0,0-.06.09s.06.07.1.05A.07.07,0,0,0,18.58,22.55Z"/><path class="cls-21" d="M21.6,22.16a.52.52,0,0,0,.36-.63.51.51,0,0,0-.63-.35.49.49,0,0,0-.35.62A.51.51,0,0,0,21.6,22.16Z"/><path class="cls-22" d="M21.52,22a.4.4,0,0,0,.28-.5.39.39,0,0,0-.49-.28.4.4,0,0,0,.21.78Z"/><path class="cls-4" d="M21.38,21.68a.23.23,0,0,0,.16-.28.23.23,0,0,0-.44.12A.24.24,0,0,0,21.38,21.68Z"/><path class="cls-4" d="M21.36,21.78a.08.08,0,0,0-.1-.05.07.07,0,1,0,.1.05Z"/><path class="cls-21" d="M24.38,21.39a.51.51,0,1,0-.63-.36A.52.52,0,0,0,24.38,21.39Z"/><path class="cls-22" d="M24.3,21.21a.41.41,0,1,0-.22-.78.41.41,0,0,0-.28.5A.41.41,0,0,0,24.3,21.21Z"/><path class="cls-4" d="M24.16,20.91a.23.23,0,0,0,.16-.28.23.23,0,0,0-.44.12A.23.23,0,0,0,24.16,20.91Z"/><path class="cls-4" d="M24.13,21a.07.07,0,0,0-.14,0,.07.07,0,1,0,.14,0Z"/><path class="cls-21" d="M27.16,20.62a.51.51,0,0,0-.28-1,.51.51,0,0,0,.28,1Z"/><path class="cls-22" d="M27.08,20.44a.41.41,0,0,0,.28-.5.4.4,0,0,0-.5-.28.41.41,0,0,0,.22.78Z"/><path class="cls-4" d="M26.94,20.14a.22.22,0,0,0,.15-.28.21.21,0,0,0-.27-.15.22.22,0,0,0-.16.27A.23.23,0,0,0,26.94,20.14Z"/><path class="cls-4" d="M26.91,20.24a.07.07,0,0,0-.14,0,.07.07,0,0,0,.09,0A.07.07,0,0,0,26.91,20.24Z"/><path class="cls-21" d="M29.94,19.85a.51.51,0,0,0,.35-.63.52.52,0,0,0-.63-.36.51.51,0,0,0,.28,1Z"/><path class="cls-22" d="M29.86,19.67a.41.41,0,0,0,.28-.5.4.4,0,0,0-.5-.28.41.41,0,0,0,.22.78Z"/><path class="cls-4" d="M29.71,19.37a.22.22,0,0,0,.16-.28.23.23,0,0,0-.28-.16.23.23,0,0,0,.12.44Z"/><path class="cls-4" d="M29.69,19.47a.07.07,0,0,0-.09,0,.07.07,0,0,0-.05.09.07.07,0,1,0,.14,0Z"/><path class="cls-21" d="M32.71,19.08a.52.52,0,0,0,.36-.63.52.52,0,0,0-.63-.36.51.51,0,0,0,.27,1Z"/><path class="cls-22" d="M32.63,18.9a.4.4,0,0,0,.28-.5.39.39,0,0,0-.49-.28.39.39,0,0,0-.28.49A.4.4,0,0,0,32.63,18.9Z"/><path class="cls-4" d="M32.49,18.6a.23.23,0,1,0-.12-.44.23.23,0,0,0,.12.44Z"/><path class="cls-4" d="M32.47,18.7a.07.07,0,0,0-.09-.05.08.08,0,0,0-.06.09.09.09,0,0,0,.1.05A.07.07,0,0,0,32.47,18.7Z"/><path class="cls-21" d="M35.49,18.31a.51.51,0,1,0-.63-.36A.52.52,0,0,0,35.49,18.31Z"/><path class="cls-22" d="M35.41,18.13a.4.4,0,0,0,.28-.5.39.39,0,0,0-.49-.28.41.41,0,0,0-.29.5A.41.41,0,0,0,35.41,18.13Z"/><path class="cls-4" d="M35.27,17.83a.23.23,0,0,0,.16-.28.23.23,0,1,0-.16.28Z"/><path class="cls-4" d="M35.25,17.93a.08.08,0,0,0-.1-.05.07.07,0,0,0,0,.14A.08.08,0,0,0,35.25,17.93Z"/><path class="cls-21" d="M38.27,17.54a.51.51,0,0,0-.27-1,.52.52,0,0,0-.36.63A.52.52,0,0,0,38.27,17.54Z"/><path class="cls-22" d="M38.19,17.36a.41.41,0,0,0,.28-.5.4.4,0,0,0-.78.21A.41.41,0,0,0,38.19,17.36Z"/><path class="cls-4" d="M38.05,17.06a.22.22,0,0,0,.15-.28.22.22,0,0,0-.27-.16.24.24,0,0,0-.16.28A.23.23,0,0,0,38.05,17.06Z"/><path class="cls-4" d="M38,17.16a.07.07,0,1,0-.05.09A.07.07,0,0,0,38,17.16Z"/><path class="cls-21" d="M41.05,16.77a.51.51,0,1,0-.63-.36A.51.51,0,0,0,41.05,16.77Z"/><path class="cls-22" d="M41,16.59a.41.41,0,0,0,.28-.5.4.4,0,0,0-.5-.28.39.39,0,0,0-.28.49A.41.41,0,0,0,41,16.59Z"/><path class="cls-4" d="M40.82,16.29a.23.23,0,0,0-.11-.44.24.24,0,0,0-.16.28A.23.23,0,0,0,40.82,16.29Z"/><path class="cls-4" d="M40.8,16.39a.07.07,0,1,0,0,.09A.07.07,0,0,0,40.8,16.39Z"/><path class="cls-21" d="M43.83,16a.51.51,0,0,0-.28-1,.51.51,0,0,0,.28,1Z"/><path class="cls-22" d="M43.74,15.82a.41.41,0,0,0,.29-.5.4.4,0,0,0-.5-.28.39.39,0,0,0-.28.49A.41.41,0,0,0,43.74,15.82Z"/><path class="cls-4" d="M43.6,15.52a.23.23,0,1,0-.12-.44.23.23,0,0,0,.12.44Z"/><path class="cls-4" d="M43.58,15.62a.07.07,0,0,0-.09,0,.08.08,0,0,0-.06.09.09.09,0,0,0,.1.05A.07.07,0,0,0,43.58,15.62Z"/><path class="cls-21" d="M46.6,15.23A.52.52,0,0,0,47,14.6a.52.52,0,0,0-.63-.36.51.51,0,0,0,.27,1Z"/><path class="cls-22" d="M46.52,15.05a.42.42,0,0,0,.29-.5.41.41,0,0,0-.5-.28.4.4,0,0,0-.29.49A.42.42,0,0,0,46.52,15.05Z"/><path class="cls-4" d="M46.38,14.75a.23.23,0,1,0-.28-.16A.24.24,0,0,0,46.38,14.75Z"/><path class="cls-4" d="M46.36,14.85a.08.08,0,0,0-.09,0,.07.07,0,0,0-.06.09.08.08,0,0,0,.1,0A.08.08,0,0,0,46.36,14.85Z"/><path class="cls-21" d="M49.38,14.46a.51.51,0,1,0-.63-.36A.52.52,0,0,0,49.38,14.46Z"/><path class="cls-22" d="M49.3,14.28a.41.41,0,0,0,.28-.5.4.4,0,0,0-.78.21A.41.41,0,0,0,49.3,14.28Z"/><path class="cls-4" d="M49.16,14a.23.23,0,1,0-.28-.16A.23.23,0,0,0,49.16,14Z"/><path class="cls-4" d="M49.14,14.08A.09.09,0,0,0,49,14a.07.07,0,0,0,0,.14A.08.08,0,0,0,49.14,14.08Z"/><g class="cls-5"><path class="cls-23" d="M26.73,23.27A3.3,3.3,0,0,0,30,22.71c.9-.62,1.95-1.88,3.07-2.26A1.34,1.34,0,0,1,34.75,22c-.26.75-1.25.95-1.5.31s.35-.84.53-.68a.3.3,0,0,1,.1.2.25.25,0,0,0-.12,0,.21.21,0,0,0-.14.25.19.19,0,0,0,.25.14.19.19,0,0,0,.14-.13.44.44,0,0,0-.49-.61.63.63,0,0,0-.41.86c.24.84,1.82.63,2-.37a1.58,1.58,0,0,0-1.52-1.85c-.91,0-1.69.75-2.92,1.85-1.57,1.4-2.74,1.57-3.66,1.2s-.79-1.26-.22-1.52,1.06.24,1,.48a.29.29,0,0,1-.41.15.14.14,0,0,0,.05-.2.18.18,0,0,0-.32,0,.38.38,0,0,0,.51.4c.59-.2.34-1.29-.7-1A.93.93,0,0,0,26.73,23.27Z"/><path class="cls-23" d="M37.59,21.11a.63.63,0,0,0-.79-.52.45.45,0,0,0-.11.78.22.22,0,0,0,.19,0,.2.2,0,1,0-.11-.39.15.15,0,0,0-.09.06.24.24,0,0,1,0-.22c.07-.23.69-.37.8.31s-.84,1-1.45.51a1.35,1.35,0,0,1,.65-2.23c1.16-.25,2.71.29,3.79.36a3.32,3.32,0,0,0,3.08-1.2.93.93,0,0,0-1-1.48c-1,.33-.67,1.39-.06,1.26a.37.37,0,0,0,.23-.6c-.1-.11-.3,0-.29.14a.15.15,0,0,0,.15.14.28.28,0,0,1-.43.08c-.21-.16,0-.84.58-.91s1.18.63.58,1.42-1.68,1.25-3.74.86c-1.62-.31-2.67-.53-3.46-.08a1.57,1.57,0,0,0-.35,2.36C36.36,22.6,37.82,22,37.59,21.11Z"/><path class="cls-23" d="M34.52,18.9A1.44,1.44,0,0,0,35,20.41,1.6,1.6,0,0,0,34.52,18.9Z"/><path class="cls-23" d="M34.42,20.05a1.25,1.25,0,0,0-1-.67A1.11,1.11,0,0,0,34.42,20.05Z"/><path class="cls-23" d="M35.68,18.76a1.26,1.26,0,0,0-.52,1.1A1.12,1.12,0,0,0,35.68,18.76Z"/></g><path class="cls-21" d="M26.7,23.17A3.32,3.32,0,0,0,30,22.6c.89-.61,1.94-1.87,3.07-2.25a1.33,1.33,0,0,1,1.69,1.57c-.25.75-1.25.95-1.5.31s.35-.83.53-.68a.32.32,0,0,1,.1.2.24.24,0,0,0-.12,0,.21.21,0,0,0-.14.25.2.2,0,0,0,.25.14A.2.2,0,0,0,34,22a.45.45,0,0,0-.49-.62.63.63,0,0,0-.41.86c.24.85,1.82.64,2-.36A1.58,1.58,0,0,0,33.51,20c-.9,0-1.69.75-2.92,1.85-1.56,1.39-2.74,1.57-3.65,1.19s-.8-1.25-.23-1.51,1.06.23,1,.47a.28.28,0,0,1-.41.16.14.14,0,0,0,0-.2A.18.18,0,0,0,27,22a.38.38,0,0,0,.51.4c.59-.21.35-1.29-.7-1.05A.93.93,0,0,0,26.7,23.17Z"/><path class="cls-21" d="M37.56,21a.63.63,0,0,0-.79-.53.45.45,0,0,0-.1.79.19.19,0,0,0,.18,0,.2.2,0,1,0-.11-.39.15.15,0,0,0-.09.06.29.29,0,0,1,0-.23c.07-.22.69-.36.8.31s-.84,1-1.45.51a1.34,1.34,0,0,1,.65-2.22c1.16-.26,2.71.28,3.79.35a3.29,3.29,0,0,0,3.08-1.19.93.93,0,0,0-1-1.48c-1,.33-.67,1.39-.05,1.26a.39.39,0,0,0,.23-.61.19.19,0,0,0-.3.14.16.16,0,0,0,.15.15.28.28,0,0,1-.43.07c-.21-.15,0-.84.58-.9s1.18.62.59,1.42-1.69,1.25-3.75.85c-1.62-.3-2.67-.52-3.46-.08a1.59,1.59,0,0,0-.35,2.37C36.33,22.5,37.79,21.86,37.56,21Z"/><path class="cls-21" d="M34.49,18.8a1.44,1.44,0,0,0,.45,1.5A1.59,1.59,0,0,0,34.49,18.8Z"/><path class="cls-21" d="M34.39,20a1.25,1.25,0,0,0-1-.67A1.12,1.12,0,0,0,34.39,20Z"/><path class="cls-21" d="M35.66,18.66a1.24,1.24,0,0,0-.53,1.09A1.1,1.1,0,0,0,35.66,18.66Z"/><path class="cls-22" d="M34.55,20.69c-.13-.36-1-1.08-2.3-.09C32.25,20.6,33.66,19.62,34.55,20.69Z"/><path class="cls-22" d="M36.89,19.2a2.69,2.69,0,0,1,.51,0A3.11,3.11,0,0,0,36.89,19.2Z"/><path class="cls-22" d="M36.89,19.2c-1.12.09-1.48.9-1.41,1.24A1.51,1.51,0,0,1,36.89,19.2Z"/><path class="cls-22" d="M27.72,21.86a.5.5,0,0,0-.49-.41A.73.73,0,0,1,27.72,21.86Z"/><path class="cls-22" d="M27.23,21.45l-.15,0C27.14,21.41,27.18,21.45,27.23,21.45Z"/><path class="cls-22" d="M42,17.91a.72.72,0,0,1,.22-.61A.52.52,0,0,0,42,17.91Z"/><path class="cls-22" d="M42.19,17.3s.06-.08.11-.1Z"/><g class="cls-5"><path class="cls-23" d="M42.15,15.4l.49,1.75s-2.58,7.44-16,6.68l.88.1a25,25,0,0,0,7.7-.28l.2,0a24.05,24.05,0,0,0,6.95-3.79c5.5-4.27,8.81-5.12,8.81-5.12l.39-2.29L15.8,22.33l.1.35Z"/></g><g class="cls-5"><path class="cls-23" d="M34.58,23.78l.68-.13.2,0a24.05,24.05,0,0,0,6.95-3.79c5.5-4.27,8.81-5.12,8.81-5.12l.39-2.29L36.34,16.64l11.55-2.85.38,1.38s-2.65,2-7.28,5.3A18.63,18.63,0,0,1,34.58,23.78Z"/></g><path class="cls-22" d="M34.79,20a1.65,1.65,0,0,1-.28-.77A1.05,1.05,0,0,0,34.79,20Z"/><path class="cls-22" d="M34.51,19.26a.91.91,0,0,1,0-.33A1.32,1.32,0,0,0,34.51,19.26Z"/><path class="cls-22" d="M34.28,19.88a1,1,0,0,1-.61-.3A.65.65,0,0,0,34.28,19.88Z"/><path class="cls-22" d="M33.67,19.58c-.06-.07-.15-.14-.16-.22A.62.62,0,0,0,33.67,19.58Z"/><path class="cls-22" d="M35.23,19.59a1,1,0,0,1,.21-.64A.65.65,0,0,0,35.23,19.59Z"/><path class="cls-22" d="M35.44,19a.61.61,0,0,1,.19-.2A.84.84,0,0,0,35.44,19Z"/><path class="cls-17" d="M26,23.51a15.64,15.64,0,0,0-8.28.17A33.42,33.42,0,0,1,26,23.51Z"/><path d="M66.77,19.09a4.35,4.35,0,1,0-4.26-4.43A4.35,4.35,0,0,0,66.77,19.09Z"/><path class="cls-2" d="M66.79,18.11a3.37,3.37,0,1,0-3.3-3.43A3.36,3.36,0,0,0,66.79,18.11Z"/><path class="cls-3" d="M66.8,17.47a2.72,2.72,0,1,0-2.67-2.78A2.72,2.72,0,0,0,66.8,17.47Z"/><polygon class="cls-4" points="65.87 14.88 64.88 16.51 66.42 15.23 66.82 17.47 67.38 15.25 68.83 16.59 67.9 14.92 69.64 14.8 67.91 14.62 68.9 13 67.4 14.28 66.92 12.04 66.44 14.26 64.95 12.92 65.88 14.58 64.14 14.69 65.87 14.88"/><g class="cls-5"><path class="cls-6" d="M71.2,14.83a4.35,4.35,0,0,0-8.64-.75,44.35,44.35,0,0,1,8,2.92A4.43,4.43,0,0,0,71.2,14.83Z"/></g><path d="M89.31,19.53a4.35,4.35,0,1,0-4.26-4.43A4.35,4.35,0,0,0,89.31,19.53Z"/><path class="cls-2" d="M89.33,18.55A3.37,3.37,0,1,0,86,15.12,3.35,3.35,0,0,0,89.33,18.55Z"/><path class="cls-3" d="M89.34,17.9a2.72,2.72,0,1,0-2.67-2.77A2.71,2.71,0,0,0,89.34,17.9Z"/><polygon class="cls-4" points="88.34 15.32 87.34 16.95 88.84 15.67 89.32 17.9 89.81 15.69 91.3 17.02 90.37 15.36 92.11 15.24 90.38 15.06 91.37 13.44 89.83 14.71 89.43 12.47 88.86 14.69 87.41 13.36 88.35 15.02 86.6 15.13 88.34 15.32"/><g class="cls-5"><path class="cls-6" d="M93.71,14.68a4.35,4.35,0,0,0-8.66.42,4.29,4.29,0,0,0,.54,2.19A45.84,45.84,0,0,1,93.71,14.68Z"/></g><rect class="cls-7" x="71.35" y="3.37" width="2.94" height="10.7" transform="translate(62.71 81.36) rotate(-88.9)"/><path class="cls-8" d="M78.7,7.18,67,7l-.06,3.3,11.69.23Zm-1,2.92-9.72-.19,0-2.56,9.72.18Z"/><rect class="cls-7" x="71.32" y="6.28" width="2.89" height="10.7" transform="translate(59.73 84.16) rotate(-88.89)"/><path class="cls-8" d="M78.64,10.12l-11.7-.23-.06,3.25,11.7.23ZM77.6,13l-9.71-.19,0-2.52,9.73.19Z"/><path class="cls-7" d="M78.23,5.72C72.58,5.6,68,3.38,67.63.67L67.5,7.15l10.7.2Z"/><path class="cls-8" d="M78.73,5.55h-.48C72.94,5.43,68.48,3.28,68.12.67h-1L67,7.33l11.7.22Zm-1,1.61L68,7l.08-4.42c1.69,1.84,5.33,3.16,9.66,3.34Z"/><path class="cls-7" d="M89.17,1.09C88.67,3.79,84,5.84,78.3,5.73h-.07l0,1.63,10.85.21Z"/><path class="cls-8" d="M89.66,1.1l-1,0c-.46,2.61-5,4.57-10.41,4.47h-.5l0,2,11.82.23ZM88.54,7.37,78.7,7.18l0-1.27c4.33,0,8.14-1.2,9.9-3Z"/><polygon class="cls-7" points="88.93 13.38 88.99 10.5 78.14 10.29 78.09 13.18 78.15 13.18 88.93 13.38"/><path class="cls-8" d="M89.42,13.58l.06-3.25L77.66,10.1l-.06,3.07.06.18Zm-10.79-3.1,9.84.19,0,2.52L78.59,13Z"/><rect class="cls-7" x="82.13" y="3.5" width="2.94" height="10.85" transform="translate(73.05 92.33) rotate(-88.89)"/><path class="cls-8" d="M89.54,7.39,77.72,7.16l-.06,3.3,11.82.23Zm-1.06,2.92-9.84-.19,0-2.57,9.84.19Z"/><path class="cls-9" d="M78.2,7.35l-10.7-.2-.06,2.93,10.7.21ZM76.87,9.63l-8.22-.15,0-1.94,8.21.16Z"/><path class="cls-9" d="M78.14,10.29l-10.7-.21,0,2.89,10.7.2Zm-1.33,2.25-8.22-.16,0-1.93,8.22.16Z"/><path class="cls-9" d="M78.23,5.72C72.58,5.6,68,3.38,67.63.67L67.5,7.15l10.7.2Zm-1.3,1.06-8.21-.16,0-2.88A17.93,17.93,0,0,0,76.94,6Z"/><path class="cls-9" d="M89.17,1.09C88.67,3.79,84,5.84,78.3,5.73h-.07l0,1.63,10.85.21ZM87.73,7l-8.2-.16,0-.75a17.91,17.91,0,0,0,8.25-2Z"/><path class="cls-9" d="M88.93,13.38,89,10.5l-10.85-.21,0,2.88h.06Zm-9.47-2.72,8.22.16,0,1.93-8.23-.16Z"/><path class="cls-9" d="M89.05,7.56,78.2,7.35l-.06,2.94L89,10.5ZM87.7,9.84l-8.22-.15,0-1.93,8.23.15Z"/><path class="cls-9" d="M78.09,13.17H79l10,.19v-.44l-10-.19,0-2.44,10,.19V10L79,9.85l0-2.48,10,.19V7.13l-10-.19,0-1.22h-.88c-.29,0-.59,0-.89,0l0,1.22-9.81-.19v.44l9.81.19,0,2.48-9.81-.19v.45l9.81.19,0,2.44-9.81-.19V13l9.81.19Z"/><polygon class="cls-10" points="67.06 13.39 67.3 1.09 67.32 0.24 54.77 0 60.55 13.26 67.06 13.39"/><polygon class="cls-10" points="101.91 0.92 89.37 0.67 89.35 1.52 89.12 13.82 95.62 13.94 101.91 0.92"/><polygon class="cls-11" points="60.1 5.76 61.47 5.08 62.8 5.81 62.57 4.31 63.69 3.27 62.18 3.02 61.53 1.64 60.83 2.99 59.32 3.18 60.4 4.27 60.1 5.76"/><path class="cls-12" d="M59.92,6l1.54-.78L63,6.06l-.26-1.7L64,3.18l-1.71-.29-.73-1.56-.79,1.54L59,3.08l1.21,1.23Zm-.3-2.72,1.3-.17L61.53,2l.55,1.19,1.3.22-1,.89.2,1.3-1.15-.63-1.18.59.25-1.29Z"/><polygon class="cls-13" points="60.66 5 61.48 4.59 62.27 5.04 62.14 4.14 62.8 3.51 61.91 3.36 61.52 2.54 61.1 3.35 60.19 3.46 60.83 4.11 60.66 5"/><path class="cls-14" d="M60.13,5.75l1.36-.68,1.33.73-.23-1.5,1.12-1L62.2,3l-.65-1.38L60.85,3l-1.51.19,1.07,1.09ZM59.9,3.37,61,3.22l.53-1,.47,1,1.11.19-.82.77.17,1.11-1-.54-1,.5.22-1.1Z"/><g class="cls-15"><polygon class="cls-16" points="61.48 3.98 61.49 3.96 61.49 3.94 61.52 2.44 61.06 3.31 61.05 3.32 61.06 3.33 61.48 3.98"/><polygon class="cls-17" points="61.94 3.33 61.52 2.44 61.49 3.94 61.49 3.96 61.94 3.33"/><polygon class="cls-16" points="62.9 3.5 62.91 3.49 61.94 3.33 61.48 3.98 61.5 3.98 62.9 3.5"/><polygon class="cls-17" points="62.91 3.49 62.91 3.49 62.9 3.5 61.5 3.98 62.2 4.17 62.91 3.49"/><polygon class="cls-17" points="61.48 3.98 61.48 4.67 62.34 5.15 61.48 3.98"/><polygon class="cls-16" points="62.2 4.17 61.48 3.98 62.34 5.15 62.2 4.17"/><polygon class="cls-16" points="61.48 3.98 61.48 3.98 60.59 5.12 61.48 4.67 61.48 3.98"/><polygon class="cls-17" points="60.77 4.14 60.59 5.12 61.48 3.98 60.77 4.14"/><polygon class="cls-17" points="61.48 3.98 61.06 3.33 61.05 3.32 60.08 3.44 61.48 3.98 61.48 3.98"/><polygon class="cls-16" points="61.48 3.98 60.08 3.44 60.77 4.14 61.48 3.98"/></g><polygon class="cls-11" points="93.73 6.41 95.1 5.73 96.43 6.46 96.2 4.96 97.31 3.92 95.81 3.67 95.16 2.29 94.46 3.64 92.95 3.83 94.02 4.92 93.73 6.41"/><path class="cls-12" d="M93.55,6.66l1.54-.77,1.52.83L96.35,5l1.26-1.18L95.9,3.55,95.17,2l-.79,1.54-1.72.21L93.87,5Zm-.3-2.72,1.3-.17.61-1.17.56,1.2L97,4l-1,.9.19,1.3L95.1,5.57l-1.18.59.25-1.29Z"/><polygon class="cls-13" points="94.29 5.66 95.11 5.25 95.9 5.69 95.77 4.79 96.44 4.16 95.53 4.01 95.15 3.19 94.72 4 93.82 4.12 94.46 4.76 94.29 5.66"/><path class="cls-14" d="M93.75,6.4l1.37-.68,1.33.73L96.22,5l1.11-1-1.5-.25-.65-1.38-.7,1.36L93,3.83,94,4.91ZM93.53,4l1.11-.14.52-1,.48,1,1.11.18-.82.77L96.1,6l-1-.54-1,.5.21-1.1Z"/><g class="cls-15"><polygon class="cls-16" points="95.11 4.63 95.12 4.62 95.11 4.59 95.15 3.09 94.69 3.97 94.67 3.97 94.69 3.98 95.11 4.63"/><polygon class="cls-17" points="95.57 3.98 95.15 3.09 95.11 4.59 95.12 4.62 95.57 3.98"/><polygon class="cls-16" points="96.52 4.16 96.54 4.14 95.57 3.98 95.11 4.63 95.12 4.63 96.52 4.16"/><polygon class="cls-17" points="96.55 4.14 96.54 4.14 96.52 4.16 95.12 4.63 95.83 4.83 96.55 4.14"/><polygon class="cls-17" points="95.11 4.63 95.11 5.32 95.97 5.81 95.11 4.63"/><polygon class="cls-16" points="95.83 4.83 95.11 4.63 95.97 5.81 95.83 4.83"/><polygon class="cls-16" points="95.11 4.63 95.11 4.63 94.22 5.77 95.11 5.32 95.11 4.63"/><polygon class="cls-17" points="94.4 4.8 94.22 5.77 95.11 4.63 94.4 4.8"/><polygon class="cls-17" points="95.11 4.63 94.69 3.98 94.67 3.97 93.71 4.09 95.11 4.63 95.11 4.63"/><polygon class="cls-16" points="95.11 4.63 93.71 4.09 94.4 4.8 95.11 4.63"/></g><path class="cls-18" d="M101.91.92h-.09a6.41,6.41,0,0,0-.55.77c-1.11,1.76-4.12,8.27-7.5,8.38s-3.94-.54-3.88-3.64C90,2.1,90.3,1.07,96.34.81l-7-.14,0,.85-.23,12.3,6.5.12Z"/><path class="cls-18" d="M97.58,9.88c-1.68,2.92-3,2.71-5.36,2.66s-3.08-.61-3-2.66a5,5,0,0,0,0-.55l-.08,4.49,6.5.12Z"/><path class="cls-18" d="M67,13.39l.24-12.3V.24l-7-.13c6,.5,6.32,1.54,6.23,5.86-.06,3.09-.5,3.74-4,3.49C59.16,9.21,56.4,2.58,55.36.79A6,6,0,0,0,54.83,0h-.09l5.78,13.26Z"/><path class="cls-18" d="M67,13.39l.09-4.49c0,.18,0,.36,0,.55C67.08,11.5,66.45,12,64,12s-3.68.12-5.25-2.87l1.8,4.14Z"/><path class="cls-19" d="M70.35,16a24.86,24.86,0,0,0,7.45,1.93H78a23.89,23.89,0,0,0,7.74-1.64c6.48-2.52,9.9-2.39,9.9-2.39l1-2.08-37.15-.72,1,2.12S64,13.24,70.35,16Z"/><path class="cls-20" d="M62.26,12.8a.51.51,0,0,0,.52-.5.52.52,0,0,0-.5-.52.51.51,0,0,0-.52.5A.51.51,0,0,0,62.26,12.8Z"/><path class="cls-20" d="M65.14,12.86a.51.51,0,1,0-.5-.52A.51.51,0,0,0,65.14,12.86Z"/><path class="cls-20" d="M68,12.92a.51.51,0,0,0,.52-.5.49.49,0,0,0-.5-.52.51.51,0,0,0-.52.5A.52.52,0,0,0,68,12.92Z"/><path class="cls-20" d="M70.9,13a.51.51,0,0,0,.53-.5.52.52,0,0,0-.51-.52.5.5,0,0,0-.51.5A.5.5,0,0,0,70.9,13Z"/><path class="cls-20" d="M73.78,13a.52.52,0,0,0,.53-.5.51.51,0,0,0-.5-.52.51.51,0,0,0,0,1Z"/><path class="cls-20" d="M76.67,13.08a.51.51,0,0,0,.52-.5.52.52,0,0,0-.5-.52.51.51,0,0,0-.52.5A.5.5,0,0,0,76.67,13.08Z"/><path class="cls-20" d="M79.55,13.14a.52.52,0,0,0,.52-.5.51.51,0,1,0-.52.5Z"/><path class="cls-20" d="M82.43,13.19a.51.51,0,1,0,0-1,.51.51,0,1,0,0,1Z"/><path class="cls-20" d="M85.32,13.25a.51.51,0,0,0,0-1,.51.51,0,1,0,0,1Z"/><path class="cls-20" d="M88.2,13.31a.52.52,0,0,0,.52-.5.51.51,0,0,0-.51-.52.5.5,0,0,0-.51.5A.51.51,0,0,0,88.2,13.31Z"/><path class="cls-20" d="M91.08,13.36a.51.51,0,1,0-.5-.52A.5.5,0,0,0,91.08,13.36Z"/><path class="cls-20" d="M94,13.42a.51.51,0,0,0,.52-.5.51.51,0,0,0-.5-.52.51.51,0,0,0-.52.5A.52.52,0,0,0,94,13.42Z"/><path class="cls-21" d="M62.26,12.55a.5.5,0,0,0,.52-.5.51.51,0,0,0-.5-.52.52.52,0,0,0-.52.5A.51.51,0,0,0,62.26,12.55Z"/><path class="cls-22" d="M62.24,12.36a.41.41,0,0,0,.41-.4.4.4,0,0,0-.4-.41.41.41,0,0,0-.41.4A.42.42,0,0,0,62.24,12.36Z"/><path class="cls-4" d="M62.42,11.81a.24.24,0,0,0-.22-.23.22.22,0,0,0-.23.22.21.21,0,0,0,.22.23A.22.22,0,0,0,62.42,11.81Z"/><path class="cls-4" d="M62.14,12.12a.08.08,0,0,0-.08-.07.08.08,0,0,0-.08.07.09.09,0,0,0,.08.08A.08.08,0,0,0,62.14,12.12Z"/><path class="cls-21" d="M65.14,12.61a.5.5,0,0,0,.52-.5.51.51,0,1,0-1,0A.5.5,0,0,0,65.14,12.61Z"/><path class="cls-22" d="M65.12,12.41a.4.4,0,0,0,0-.8.4.4,0,1,0,0,.8Z"/><path class="cls-4" d="M65.3,11.87a.22.22,0,0,0-.22-.23.22.22,0,0,0-.23.22.23.23,0,1,0,.45,0Z"/><path class="cls-4" d="M65,12.18a.08.08,0,0,0-.08-.08.08.08,0,0,0-.07.08.07.07,0,0,0,.07.07A.08.08,0,0,0,65,12.18Z"/><path class="cls-21" d="M68,12.67a.52.52,0,0,0,.52-.5.51.51,0,0,0-.5-.52.5.5,0,0,0-.52.5A.51.51,0,0,0,68,12.67Z"/><path class="cls-22" d="M68,12.47a.41.41,0,0,0,.42-.39.42.42,0,0,0-.4-.42.41.41,0,0,0-.41.4A.4.4,0,0,0,68,12.47Z"/><path class="cls-4" d="M68.18,11.92a.24.24,0,0,0-.22-.23.23.23,0,0,0-.23.23.24.24,0,0,0,.22.23A.23.23,0,0,0,68.18,11.92Z"/><path class="cls-4" d="M67.9,12.24a.08.08,0,0,0-.07-.08.07.07,0,0,0-.08.07.08.08,0,1,0,.15,0Z"/><path class="cls-21" d="M70.91,12.72a.51.51,0,0,0,.52-.5.51.51,0,0,0-1,0A.51.51,0,0,0,70.91,12.72Z"/><path class="cls-22" d="M70.89,12.52a.4.4,0,0,0,.41-.39.41.41,0,0,0-.4-.41.4.4,0,1,0,0,.8Z"/><path class="cls-4" d="M70.83,12.2a.22.22,0,0,0,.23-.22.22.22,0,0,0-.22-.23.24.24,0,0,0-.23.22A.22.22,0,0,0,70.83,12.2Z"/><path class="cls-4" d="M70.78,12.29a.08.08,0,0,0-.07-.08.09.09,0,0,0-.08.08s0,.07.08.08A.08.08,0,0,0,70.78,12.29Z"/><path class="cls-21" d="M73.79,12.78a.51.51,0,0,0,.52-.5.51.51,0,0,0-.5-.52.51.51,0,0,0-.52.5A.52.52,0,0,0,73.79,12.78Z"/><path class="cls-22" d="M73.77,12.58a.4.4,0,0,0,.41-.39.41.41,0,1,0-.81,0A.4.4,0,0,0,73.77,12.58Z"/><path class="cls-4" d="M73.71,12.26a.22.22,0,0,0,.23-.22.21.21,0,0,0-.22-.23.22.22,0,0,0-.23.22A.24.24,0,0,0,73.71,12.26Z"/><path class="cls-4" d="M73.66,12.35a.07.07,0,0,0-.07-.08.08.08,0,0,0-.08.07.08.08,0,0,0,.08.08A.07.07,0,0,0,73.66,12.35Z"/><path class="cls-21" d="M76.67,12.84a.52.52,0,0,0,0-1,.52.52,0,0,0-.52.5A.53.53,0,0,0,76.67,12.84Z"/><path class="cls-22" d="M76.65,12.64a.42.42,0,0,0,.41-.4.4.4,0,0,0-.4-.41.41.41,0,0,0,0,.81Z"/><path class="cls-4" d="M76.6,12.31a.22.22,0,0,0,.23-.22.23.23,0,0,0-.22-.23.22.22,0,0,0-.23.22A.21.21,0,0,0,76.6,12.31Z"/><path class="cls-4" d="M76.55,12.4a.08.08,0,0,0-.08-.07.07.07,0,0,0-.07.07.08.08,0,0,0,.07.08S76.54,12.45,76.55,12.4Z"/><path class="cls-21" d="M79.56,12.89a.51.51,0,0,0,.52-.5.52.52,0,0,0-.51-.52.51.51,0,0,0-.52.5A.52.52,0,0,0,79.56,12.89Z"/><path class="cls-22" d="M79.53,12.69a.4.4,0,0,0,.41-.39.39.39,0,0,0-.39-.41.4.4,0,0,0-.42.39A.41.41,0,0,0,79.53,12.69Z"/><path class="cls-4" d="M79.71,12.15a.22.22,0,0,0-.22-.23.22.22,0,0,0-.23.22.23.23,0,0,0,.45,0Z"/><path class="cls-4" d="M79.43,12.46a.08.08,0,0,0-.08-.08.08.08,0,0,0-.07.08.07.07,0,0,0,.07.07A.08.08,0,0,0,79.43,12.46Z"/><path class="cls-21" d="M82.44,13a.52.52,0,0,0,.52-.5.53.53,0,0,0-.5-.53.52.52,0,0,0,0,1Z"/><path class="cls-22" d="M82.41,12.75a.4.4,0,0,0,.41-.39.4.4,0,0,0-.39-.42.41.41,0,0,0,0,.81Z"/><path class="cls-4" d="M82.59,12.2a.22.22,0,0,0-.22-.22.22.22,0,0,0-.23.22.22.22,0,0,0,.22.22A.21.21,0,0,0,82.59,12.2Z"/><path class="cls-4" d="M82.31,12.52a.08.08,0,0,0-.15,0,.08.08,0,1,0,.15,0Z"/><path class="cls-21" d="M85.32,13a.51.51,0,1,0-.5-.52A.51.51,0,0,0,85.32,13Z"/><path class="cls-22" d="M85.29,12.81a.42.42,0,0,0,.42-.4.41.41,0,0,0-.4-.41.4.4,0,0,0-.41.39A.4.4,0,0,0,85.29,12.81Z"/><path class="cls-4" d="M85.47,12.26a.22.22,0,0,0-.22-.23.24.24,0,0,0-.23.22.23.23,0,0,0,.22.23A.22.22,0,0,0,85.47,12.26Z"/><path class="cls-4" d="M85.19,12.57s0-.07-.07-.08a.08.08,0,0,0,0,.16A.08.08,0,0,0,85.19,12.57Z"/><path class="cls-21" d="M88.2,13.06a.51.51,0,0,0,.52-.5.51.51,0,0,0-.5-.52.51.51,0,0,0-.52.5A.52.52,0,0,0,88.2,13.06Z"/><path class="cls-22" d="M88.18,12.86a.4.4,0,0,0,.41-.39.41.41,0,1,0-.41.39Z"/><path class="cls-4" d="M88.36,12.32a.23.23,0,0,0-.23-.23.22.22,0,0,0-.23.22.23.23,0,0,0,.46,0Z"/><path class="cls-4" d="M88.07,12.63a.08.08,0,0,0-.07-.08.08.08,0,0,0-.08.08.08.08,0,0,0,.08.07A.07.07,0,0,0,88.07,12.63Z"/><path class="cls-21" d="M91.08,13.11a.49.49,0,0,0,.52-.5.51.51,0,0,0-.5-.52.52.52,0,0,0-.52.5A.51.51,0,0,0,91.08,13.11Z"/><path class="cls-22" d="M91.06,12.92a.41.41,0,1,0-.4-.42A.42.42,0,0,0,91.06,12.92Z"/><path class="cls-4" d="M91,12.59a.22.22,0,0,0,.23-.22.24.24,0,0,0-.22-.23.22.22,0,0,0-.23.22A.21.21,0,0,0,91,12.59Z"/><path class="cls-4" d="M91,12.68a.08.08,0,0,0-.08-.07.07.07,0,0,0-.07.07.07.07,0,0,0,.07.08S91,12.72,91,12.68Z"/><path class="cls-21" d="M94,13.17a.52.52,0,0,0,.52-.5.51.51,0,0,0-.5-.52.5.5,0,0,0-.52.5A.51.51,0,0,0,94,13.17Z"/><path class="cls-22" d="M93.94,13a.4.4,0,0,0,0-.8.4.4,0,1,0,0,.8Z"/><path class="cls-4" d="M94.12,12.43a.23.23,0,0,0-.45,0,.23.23,0,0,0,.22.23A.22.22,0,0,0,94.12,12.43Z"/><path class="cls-4" d="M93.84,12.74a.08.08,0,0,0-.07-.08.07.07,0,0,0-.08.08.07.07,0,0,0,.07.07A.08.08,0,0,0,93.84,12.74Z"/><g class="cls-5"><path class="cls-23" d="M73,15.53c1-.33,2.4-1.24,3.59-1.28a1.33,1.33,0,0,1,1.17,2c-.46.65-1.47.56-1.53-.13s.58-.7.7-.5a.26.26,0,0,1,0,.22l-.11,0a.2.2,0,0,0-.2.2.2.2,0,0,0,.2.21.21.21,0,0,0,.17-.08.46.46,0,0,0-.3-.74c-.4,0-.63.31-.64.71,0,.88,1.57,1.13,2,.21a1.58,1.58,0,0,0-.93-2.21c-.88-.23-1.84.23-3.33.94-1.9.89-3.07.72-3.84.1s-.4-1.43.22-1.52,1,.53.78.73a.27.27,0,0,1-.43,0,.14.14,0,0,0,.1-.17c0-.13-.24-.2-.31-.07a.38.38,0,0,0,.37.54c.63,0,.7-1.15-.37-1.21a.93.93,0,0,0-.61,1.68A3.29,3.29,0,0,0,73,15.53Z"/><path class="cls-23" d="M80.77,16.18c0-.4-.21-.74-.61-.73a.45.45,0,0,0-.33.72.22.22,0,0,0,.17.09.21.21,0,0,0,.21-.2.22.22,0,0,0-.2-.21.21.21,0,0,0-.11,0,.26.26,0,0,1,0-.22c.14-.2.77-.16.69.53s-1.1.73-1.54.07a1.34,1.34,0,0,1,1.26-1.95c1.18.09,2.51,1,3.53,1.42a3.32,3.32,0,0,0,3.3-.26.93.93,0,0,0-.55-1.7c-1.07,0-1,1.13-.42,1.19a.38.38,0,0,0,.39-.52.17.17,0,0,0-.31.05.15.15,0,0,0,.1.18.28.28,0,0,1-.43,0c-.17-.21.19-.81.81-.7s1,.94.15,1.53-2,.71-3.83-.25c-1.47-.76-2.41-1.27-3.29-1.07a1.59,1.59,0,0,0-1,2.17C79.16,17.25,80.74,17.06,80.77,16.18Z"/><path class="cls-23" d="M78.46,13.18a1.43,1.43,0,0,0,0,1.57A1.6,1.6,0,0,0,78.46,13.18Z"/><path class="cls-23" d="M78,14.26a1.24,1.24,0,0,0-.78-.93A1.11,1.11,0,0,0,78,14.26Z"/><path class="cls-23" d="M79.61,13.38a1.23,1.23,0,0,0-.81.9A1.11,1.11,0,0,0,79.61,13.38Z"/></g><path class="cls-21" d="M73,15.43c1-.34,2.4-1.25,3.59-1.29a1.34,1.34,0,0,1,1.18,2c-.46.64-1.47.55-1.54-.14s.58-.7.71-.5a.26.26,0,0,1,0,.22.17.17,0,0,0-.1,0,.2.2,0,0,0-.21.2.2.2,0,0,0,.2.2.21.21,0,0,0,.17-.08.46.46,0,0,0-.3-.74.65.65,0,0,0-.64.71c0,.88,1.57,1.14,2,.21A1.58,1.58,0,0,0,77.16,14c-.87-.23-1.83.24-3.33.94-1.9.89-3.07.73-3.84.1s-.4-1.43.22-1.52,1,.53.78.73a.27.27,0,0,1-.43,0,.15.15,0,0,0,.1-.18.18.18,0,0,0-.31-.06.38.38,0,0,0,.37.53c.63,0,.7-1.14-.37-1.2A.93.93,0,0,0,69.74,15,3.32,3.32,0,0,0,73,15.43Z"/><path class="cls-21" d="M80.77,16.07a.63.63,0,0,0-.61-.73.45.45,0,0,0-.33.72.21.21,0,0,0,.38-.11.2.2,0,0,0-.31-.17.31.31,0,0,1,0-.22c.13-.19.77-.15.68.53s-1.1.73-1.54.07a1.34,1.34,0,0,1,1.26-1.95c1.18.09,2.51,1,3.53,1.43a3.32,3.32,0,0,0,3.3-.27.93.93,0,0,0-.55-1.7c-1.07,0-1,1.14-.42,1.19a.38.38,0,0,0,.4-.52.18.18,0,0,0-.32.05.15.15,0,0,0,.1.18.28.28,0,0,1-.43,0c-.16-.21.19-.82.81-.71s1,.94.16,1.53-2,.71-3.84-.25c-1.47-.76-2.41-1.26-3.29-1.07a1.59,1.59,0,0,0-1,2.17C79.16,17.14,80.74,17,80.77,16.07Z"/><path class="cls-21" d="M78.46,13.07a1.45,1.45,0,0,0,0,1.58A1.62,1.62,0,0,0,78.46,13.07Z"/><path class="cls-21" d="M78,14.15a1.24,1.24,0,0,0-.77-.93A1.11,1.11,0,0,0,78,14.15Z"/><path class="cls-21" d="M79.61,13.27a1.23,1.23,0,0,0-.81.9A1.11,1.11,0,0,0,79.61,13.27Z"/><path class="cls-22" d="M78,14.91c0-.34-.57-1-1.68-.84A1.5,1.5,0,0,1,78,14.91Z"/><path class="cls-22" d="M76.29,14.07a2.93,2.93,0,0,0-.49.09A2.44,2.44,0,0,1,76.29,14.07Z"/><path class="cls-22" d="M80.64,14.15a1.84,1.84,0,0,1,.49.12A2.3,2.3,0,0,0,80.64,14.15Z"/><path class="cls-22" d="M80.64,14.15c-1.1-.24-1.68.44-1.71.78A1.51,1.51,0,0,1,80.64,14.15Z"/><path class="cls-22" d="M71.1,14.08a.51.51,0,0,0-.36-.54A.74.74,0,0,1,71.1,14.08Z"/><path class="cls-22" d="M70.74,13.54l-.13-.07S70.69,13.52,70.74,13.54Z"/><path class="cls-22" d="M86.26,13.84a.5.5,0,0,0-.38.52A.74.74,0,0,1,86.26,13.84Z"/><path class="cls-22" d="M86.26,13.84s.08-.06.14-.06A.71.71,0,0,0,86.26,13.84Z"/><g class="cls-5"><path class="cls-23" d="M86.73,13.82s-4.59,6.39-17.19,1.85l.81.34a24.86,24.86,0,0,0,7.45,1.93H78a23.89,23.89,0,0,0,7.74-1.64c6.48-2.52,9.9-2.39,9.9-2.39l1-2.08-37.15-.72v.36L86.77,12Z"/></g><g class="cls-5"><path class="cls-23" d="M84.2,16.53a18.36,18.36,0,0,1-7.09,1.34l.69.07H78a23.89,23.89,0,0,0,7.74-1.64c6.48-2.52,9.9-2.39,9.9-2.39l1-2.08-15.85-.31,11.88.57,0,1.44S89.6,14.68,84.2,16.53Z"/></g><path class="cls-22" d="M78.35,13.52a.94.94,0,0,1,.1-.31A1.41,1.41,0,0,0,78.35,13.52Z"/><path class="cls-22" d="M78.39,14.34a1.57,1.57,0,0,1,0-.82A1.06,1.06,0,0,0,78.39,14.34Z"/><path class="cls-22" d="M77.45,13.6a.77.77,0,0,1-.1-.26A1,1,0,0,0,77.45,13.6Z"/><path class="cls-22" d="M78,14.05a1,1,0,0,1-.5-.45A.66.66,0,0,0,78,14.05Z"/><path class="cls-22" d="M79.33,13.48a.66.66,0,0,0-.39.57A1,1,0,0,1,79.33,13.48Z"/><path class="cls-22" d="M79.33,13.48c.08-.05.16-.12.23-.12A.91.91,0,0,0,79.33,13.48Z"/><path class="cls-17" d="M61,13a33.17,33.17,0,0,1,8,2.21A15.48,15.48,0,0,0,61,13Z"/><path d="M111.55,22.66a4.35,4.35,0,1,0-2.92-5.41A4.35,4.35,0,0,0,111.55,22.66Z"/><path class="cls-2" d="M111.83,21.72a3.37,3.37,0,1,0-2.26-4.19A3.37,3.37,0,0,0,111.83,21.72Z"/><path class="cls-3" d="M112,21.1a2.72,2.72,0,1,0-1.83-3.38A2.71,2.71,0,0,0,112,21.1Z"/><polygon class="cls-4" points="111.81 18.36 110.42 19.66 112.25 18.84 112.03 21.11 113.17 19.12 114.21 20.8 113.76 18.95 115.47 19.3 113.84 18.66 115.24 17.36 113.45 18.19 113.59 15.9 112.53 17.91 111.45 16.22 111.89 18.07 110.19 17.72 111.81 18.36"/><g class="cls-5"><path class="cls-6" d="M117,19.74a4.35,4.35,0,0,0-8.12-3,45.35,45.35,0,0,1,6.93,5A4.38,4.38,0,0,0,117,19.74Z"/></g><path d="M133.14,29.13a4.35,4.35,0,1,0-2.92-5.41A4.35,4.35,0,0,0,133.14,29.13Z"/><path class="cls-2" d="M133.42,28.19A3.37,3.37,0,1,0,131.17,24,3.36,3.36,0,0,0,133.42,28.19Z"/><path class="cls-3" d="M133.61,27.57a2.72,2.72,0,1,0-1.83-3.39A2.72,2.72,0,0,0,133.61,27.57Z"/><polygon class="cls-4" points="133.34 24.81 131.95 26.11 133.73 25.28 133.59 27.56 134.65 25.56 135.74 27.25 135.29 25.39 136.99 25.74 135.37 25.11 136.76 23.8 134.93 24.62 135.15 22.36 134.01 24.35 132.97 22.67 133.43 24.52 131.72 24.16 133.34 24.81"/><g class="cls-5"><path class="cls-6" d="M138.68,25.63a4.35,4.35,0,0,0-8.46-1.91,4.42,4.42,0,0,0-.06,2.25A46.59,46.59,0,0,1,138.68,25.63Z"/></g><rect class="cls-7" x="118.69" y="8.94" width="2.94" height="10.7" transform="translate(71.99 125.3) rotate(-73.32)"/><path class="cls-8" d="M126.24,14.38,115,11l-1,3.16,11.21,3.36Zm-1.79,2.54-9.31-2.79.73-2.46,9.32,2.79Z"/><rect class="cls-7" x="117.88" y="11.73" width="2.89" height="10.7" transform="translate(68.76 126.5) rotate(-73.34)"/><path class="cls-8" d="M125.39,17.2l-11.2-3.36L113.25,17l11.21,3.36Zm-1.76,2.48-9.32-2.79.72-2.41,9.32,2.79Z"/><path class="cls-7" d="M126.18,12.86c-5.42-1.64-9.23-5-8.87-7.72l-1.85,6.21,10.25,3.07Z"/><path class="cls-8" d="M126.7,12.82l-.45-.14c-5.09-1.53-8.81-4.79-8.46-7.4l-1-.28-1.91,6.38,11.21,3.36Zm-1.4,1.28L116,11.31l1.27-4.23c1.13,2.22,4.28,4.47,8.41,5.8Z"/><path class="cls-7" d="M138,11.33c-1.21,2.47-6.28,3.18-11.72,1.54h-.06l-.47,1.56,10.39,3.11Z"/><path class="cls-8" d="M138.43,11.47l-1-.3c-1.15,2.39-6.07,3.06-11.22,1.51h0l-.47-.14-.57,1.92,11.33,3.39Zm-12.19,2.91.36-1.21c4.17,1.17,8.16,1,10.34-.22l-1.28,4.25Z"/><polygon class="cls-7" points="134.43 23.11 135.26 20.34 124.87 17.23 124.04 20 124.1 20.01 134.43 23.11"/><path class="cls-8" d="M135.78,20.31l-11.33-3.39-.88,2.94v.19l11.28,3.38ZM134,22.79,124.56,20l.73-2.41,9.43,2.82Z"/><rect class="cls-7" x="129.02" y="11.96" width="2.93" height="10.85" transform="translate(76.42 137.4) rotate(-73.34)"/><path class="cls-8" d="M136.63,17.49,125.3,14.1l-1,3.17,11.33,3.39ZM134.82,20l-9.43-2.82.74-2.46,9.43,2.82Z"/><path class="cls-9" d="M125.71,14.42l-10.25-3.07-.85,2.81,10.26,3.07Zm-1.9,1.84-7.87-2.36.55-1.85,7.88,2.36Z"/><path class="cls-9" d="M124.87,17.23l-10.26-3.07-.82,2.77L124,20ZM123,19l-7.88-2.36.56-1.85,7.87,2.36Z"/><path class="cls-9" d="M126.18,12.86c-5.42-1.64-9.23-5-8.87-7.72l-1.85,6.21,10.25,3.07Zm-1.54.66-7.87-2.35.82-2.77a17.82,17.82,0,0,0,7.26,4.4Z"/><path class="cls-9" d="M138,11.33c-1.21,2.47-6.28,3.18-11.72,1.54h-.06l-.47,1.56,10.39,3.11Zm-3,5.29-7.86-2.36.22-.71a17.91,17.91,0,0,0,8.48.31Z"/><path class="cls-9" d="M134.43,23.11l.83-2.77-10.39-3.11L124,20h.06ZM126,17.94l7.88,2.36-.56,1.85-7.88-2.36Z"/><path class="cls-9" d="M136.1,17.53l-10.39-3.11-.84,2.81,10.39,3.11Zm-1.91,1.84L126.31,17l.56-1.85,7.88,2.36Z"/><path class="cls-9" d="M124,20h.06l.78.24,9.55,2.86.13-.43L125,19.82l.7-2.34,9.55,2.86.13-.43L125.84,17l.71-2.37,9.55,2.86.13-.41-9.56-2.87.35-1.16c-.26-.07-.52-.13-.78-.22h-.06l-.85-.28L125,13.75l-9.4-2.82-.12.42,9.39,2.81-.7,2.38-9.41-2.82-.13.44L124,17l-.7,2.34-9.39-2.81-.13.43,9.39,2.81Z"/><polygon class="cls-10" points="113.36 17.24 116.89 5.46 117.13 4.65 105.11 1.05 107.12 15.38 113.36 17.24"/><polygon class="cls-10" points="150.28 14.57 138.26 10.98 138.02 11.79 134.49 23.57 140.72 25.44 150.28 14.57"/><polygon class="cls-11" points="108.71 8.03 110.2 7.74 111.29 8.8 111.47 7.29 112.82 6.58 111.44 5.94 111.18 4.44 110.14 5.55 108.64 5.33 109.38 6.67 108.71 8.03"/><path class="cls-12" d="M108.46,8.21l1.69-.33,1.24,1.21.21-1.71,1.53-.8-1.57-.73-.29-1.71L110.1,5.41l-1.72-.25.84,1.51Zm.44-2.7,1.3.2.89-1,.22,1.3,1.2.55-1.17.61-.16,1.3-.94-.91L109,7.84l.59-1.18Z"/><polygon class="cls-13" points="109.44 7.45 110.34 7.27 110.99 7.91 111.1 7.01 111.9 6.58 111.08 6.2 110.93 5.31 110.31 5.97 109.4 5.84 109.85 6.63 109.44 7.45"/><path class="cls-14" d="M108.73,8l1.49-.29,1.09,1.06.18-1.5,1.35-.71-1.38-.64-.25-1.5-1,1.11-1.51-.22.75,1.33Zm.42-2.35,1.11.16L111,5l.18,1.11,1,.47-1,.52-.14,1.12-.8-.79-1.11.22.51-1Z"/><g class="cls-15"><polygon class="cls-16" points="110.51 6.68 110.52 6.67 110.52 6.64 110.96 5.21 110.28 5.93 110.27 5.93 110.27 5.94 110.51 6.68"/><polygon class="cls-17" points="110.96 5.21 110.52 6.64 110.52 6.67 111.12 6.18 110.96 5.21"/><polygon class="cls-16" points="112 6.6 112.02 6.6 111.12 6.18 110.51 6.68 110.52 6.68 112 6.6"/><polygon class="cls-17" points="112.02 6.6 112.02 6.6 112 6.6 110.52 6.68 111.15 7.06 112.02 6.6"/><polygon class="cls-17" points="110.51 6.68 110.32 7.35 111.02 8.04 110.51 6.68"/><polygon class="cls-16" points="111.15 7.06 110.51 6.68 111.02 8.04 111.15 7.06"/><polygon class="cls-16" points="110.51 6.68 110.51 6.68 109.34 7.54 110.32 7.35 110.51 6.68"/><polygon class="cls-17" points="109.78 6.65 109.34 7.54 110.51 6.68 109.78 6.65"/><polygon class="cls-17" points="110.51 6.68 110.27 5.94 110.27 5.93 109.3 5.79 110.51 6.68 110.51 6.68"/><polygon class="cls-16" points="110.51 6.68 109.3 5.79 109.78 6.65 110.51 6.68"/></g><polygon class="cls-11" points="140.93 17.68 142.42 17.39 143.51 18.45 143.69 16.94 145.04 16.23 143.66 15.59 143.41 14.09 142.37 15.2 140.86 14.98 141.6 16.32 140.93 17.68"/><path class="cls-12" d="M140.68,17.86l1.7-.33,1.23,1.21.21-1.71,1.53-.8-1.57-.73-.28-1.7-1.18,1.26-1.71-.26.84,1.52Zm.44-2.7,1.3.19.9-1,.21,1.3,1.2.55-1.16.61-.16,1.3-.94-.91-1.3.25.59-1.18Z"/><polygon class="cls-13" points="141.66 17.1 142.56 16.92 143.21 17.56 143.32 16.66 144.13 16.24 143.3 15.85 143.15 14.95 142.53 15.62 141.62 15.49 142.07 16.28 141.66 17.1"/><path class="cls-14" d="M141,17.67l1.49-.29,1.09,1.06.19-1.5,1.34-.71-1.38-.64-.25-1.5-1,1.11-1.5-.22.74,1.33Zm.42-2.35,1.11.16.77-.83.19,1.11,1,.48-1,.52-.13,1.12-.81-.79-1.1.22.5-1Z"/><g class="cls-15"><polygon class="cls-16" points="142.73 16.33 142.74 16.32 142.74 16.29 143.18 14.86 142.5 15.58 142.49 15.58 142.5 15.59 142.73 16.33"/><polygon class="cls-17" points="143.18 14.86 142.74 16.29 142.74 16.32 143.34 15.83 143.18 14.86"/><polygon class="cls-16" points="144.22 16.25 144.24 16.25 143.34 15.83 142.73 16.33 142.75 16.33 144.22 16.25"/><polygon class="cls-17" points="144.24 16.25 144.24 16.25 144.22 16.25 142.75 16.33 143.37 16.71 144.24 16.25"/><polygon class="cls-17" points="142.73 16.33 142.54 17 143.25 17.69 142.73 16.33"/><polygon class="cls-16" points="143.37 16.71 142.73 16.33 143.25 17.69 143.37 16.71"/><polygon class="cls-16" points="142.73 16.33 142.73 16.33 141.56 17.19 142.54 17 142.73 16.33"/><polygon class="cls-17" points="142 16.3 141.56 17.19 142.73 16.33 142 16.3"/><polygon class="cls-17" points="142.73 16.33 142.5 15.59 142.49 15.58 141.52 15.43 142.73 16.33 142.73 16.33"/><polygon class="cls-16" points="142.73 16.33 141.52 15.43 142 16.3 142.73 16.33"/></g><path class="cls-18" d="M150.28,14.57l-.09,0a6.79,6.79,0,0,0-.74.59c-1.54,1.39-6.19,6.86-9.47,6.06s-3.65-1.58-2.76-4.54c1.24-4.14,1.83-5.05,7.72-3.68l-6.68-2-.24.81-3.53,11.78,6.23,1.87Z"/><path class="cls-18" d="M143.7,22.05c-2.4,2.37-3.58,1.81-5.87,1.13s-2.81-1.42-2.2-3.38a5.26,5.26,0,0,0,.15-.53l-1.29,4.3,6.23,1.87Z"/><path class="cls-18" d="M113.33,17.23l3.52-11.78.25-.81-6.68-2c5.67,2.1,5.67,3.18,4.43,7.32-.89,3-1.49,3.47-4.81,2.28S106,4,105.47,2a6.59,6.59,0,0,0-.3-.89l-.08,0,2,14.33Z"/><path class="cls-18" d="M113.33,17.23l1.28-4.29c-.06.16-.12.34-.17.52-.56,2-1.31,2.32-3.68,1.61s-3.58-.87-4.29-4.17l.62,4.47Z"/><path class="cls-19" d="M115.82,20.65a24.75,24.75,0,0,0,6.67,3.86l.2.07a23.79,23.79,0,0,0,7.89.49c6.93-.69,10.18.36,10.18.36l1.56-1.73L106.72,13l.4,2.31S110.41,16.27,115.82,20.65Z"/><path class="cls-20" d="M108.89,15.39a.5.5,0,0,0,.63-.34.51.51,0,1,0-.63.34Z"/><path class="cls-20" d="M111.65,16.22a.51.51,0,1,0,.29-1,.5.5,0,0,0-.63.34A.51.51,0,0,0,111.65,16.22Z"/><path class="cls-20" d="M114.41,17.05a.52.52,0,0,0,.64-.35.5.5,0,0,0-.34-.63.51.51,0,0,0-.3,1Z"/><path class="cls-20" d="M117.17,17.87a.51.51,0,0,0,.64-.34.51.51,0,1,0-.64.34Z"/><path class="cls-20" d="M119.93,18.7a.51.51,0,1,0-.34-.64A.51.51,0,0,0,119.93,18.7Z"/><path class="cls-20" d="M122.7,19.53a.51.51,0,0,0,.63-.35.5.5,0,0,0-.34-.63.52.52,0,0,0-.64.34A.51.51,0,0,0,122.7,19.53Z"/><path class="cls-20" d="M125.46,20.35a.5.5,0,0,0,.63-.34.52.52,0,0,0-.34-.64.53.53,0,0,0-.64.35A.51.51,0,0,0,125.46,20.35Z"/><path class="cls-20" d="M128.22,21.18a.52.52,0,0,0,.64-.34.53.53,0,0,0-.35-.64.5.5,0,0,0-.63.35A.51.51,0,0,0,128.22,21.18Z"/><path class="cls-20" d="M131,22a.51.51,0,0,0,.63-.35.5.5,0,0,0-.34-.63.5.5,0,0,0-.63.34A.51.51,0,0,0,131,22Z"/><path class="cls-20" d="M133.74,22.83a.51.51,0,1,0,.29-1,.51.51,0,1,0-.29,1Z"/><path class="cls-20" d="M136.5,23.66a.51.51,0,0,0,.64-.34.52.52,0,0,0-.35-.64.51.51,0,0,0-.63.35A.51.51,0,0,0,136.5,23.66Z"/><path class="cls-20" d="M139.26,24.49a.51.51,0,1,0-.34-.64A.51.51,0,0,0,139.26,24.49Z"/><path class="cls-21" d="M109,15.15a.51.51,0,0,0,.64-.34.52.52,0,0,0-.35-.64.51.51,0,0,0-.63.35A.5.5,0,0,0,109,15.15Z"/><path class="cls-22" d="M109,15a.4.4,0,0,0,.5-.27.42.42,0,0,0-.27-.51A.41.41,0,0,0,109,15Z"/><path class="cls-4" d="M109,14.63a.22.22,0,0,0,.28-.15.23.23,0,0,0-.15-.28.22.22,0,0,0-.28.15A.22.22,0,0,0,109,14.63Z"/><path class="cls-4" d="M109,14.7a.07.07,0,0,0,0-.09.07.07,0,1,0,0,.14A.07.07,0,0,0,109,14.7Z"/><path class="cls-21" d="M111.72,16a.51.51,0,1,0,.29-1,.5.5,0,0,0-.63.34A.51.51,0,0,0,111.72,16Z"/><path class="cls-22" d="M111.75,15.78a.4.4,0,1,0-.27-.5A.41.41,0,0,0,111.75,15.78Z"/><path class="cls-4" d="M112.07,15.3a.22.22,0,0,0-.43-.12.22.22,0,0,0,.15.28A.24.24,0,0,0,112.07,15.3Z"/><path class="cls-4" d="M111.71,15.53a.07.07,0,1,0-.14,0,.07.07,0,0,0,.14,0Z"/><path class="cls-21" d="M114.48,16.81a.52.52,0,0,0,.64-.35.51.51,0,0,0-.34-.63.51.51,0,1,0-.3,1Z"/><path class="cls-22" d="M114.51,16.61a.42.42,0,0,0,.51-.27.4.4,0,0,0-.28-.5.39.39,0,0,0-.5.27A.41.41,0,0,0,114.51,16.61Z"/><path class="cls-4" d="M114.55,16.28a.22.22,0,0,0,.28-.15.23.23,0,0,0-.15-.28.22.22,0,0,0-.13.43Z"/><path class="cls-4" d="M114.48,16.36a.09.09,0,0,0,0-.1.08.08,0,1,0-.05.15A.09.09,0,0,0,114.48,16.36Z"/><path class="cls-21" d="M117.24,17.63a.51.51,0,0,0,.64-.34.51.51,0,1,0-1-.29A.5.5,0,0,0,117.24,17.63Z"/><path class="cls-22" d="M117.27,17.44a.41.41,0,1,0,.23-.78.41.41,0,0,0-.5.27A.42.42,0,0,0,117.27,17.44Z"/><path class="cls-4" d="M117.31,17.11a.22.22,0,0,0,.13-.43.22.22,0,0,0-.28.15A.23.23,0,0,0,117.31,17.11Z"/><path class="cls-4" d="M117.24,17.18a.07.07,0,0,0,0-.09.08.08,0,1,0,0,.15A.09.09,0,0,0,117.24,17.18Z"/><path class="cls-21" d="M120,18.46a.51.51,0,1,0,.3-1,.51.51,0,0,0-.3,1Z"/><path class="cls-22" d="M120,18.27a.41.41,0,0,0,.23-.78.41.41,0,1,0-.23.78Z"/><path class="cls-4" d="M120.07,17.94a.23.23,0,0,0,.28-.15.22.22,0,0,0-.15-.28.22.22,0,1,0-.13.43Z"/><path class="cls-4" d="M120,18a.07.07,0,0,0,0-.09s-.08,0-.1,0a.08.08,0,0,0,.05.09A.08.08,0,0,0,120,18Z"/><path class="cls-21" d="M122.77,19.29a.51.51,0,0,0,.29-1,.51.51,0,1,0-.29,1Z"/><path class="cls-22" d="M122.8,19.09a.4.4,0,1,0-.28-.5A.4.4,0,0,0,122.8,19.09Z"/><path class="cls-4" d="M122.83,18.76a.23.23,0,0,0,.29-.15.24.24,0,0,0-.16-.28.23.23,0,0,0-.27.15A.21.21,0,0,0,122.83,18.76Z"/><path class="cls-4" d="M122.76,18.84a.07.07,0,0,0-.05-.09.07.07,0,0,0-.09.05.08.08,0,0,0,0,.09A.08.08,0,0,0,122.76,18.84Z"/><path class="cls-21" d="M125.53,20.11a.51.51,0,0,0,.29-1,.5.5,0,0,0-.63.34A.5.5,0,0,0,125.53,20.11Z"/><path class="cls-22" d="M125.56,19.92a.41.41,0,0,0,.5-.27.41.41,0,1,0-.5.27Z"/><path class="cls-4" d="M125.6,19.59a.23.23,0,0,0,.28-.15.22.22,0,0,0-.15-.28.22.22,0,0,0-.28.15A.22.22,0,0,0,125.6,19.59Z"/><path class="cls-4" d="M125.52,19.67a.08.08,0,0,0,0-.1.07.07,0,0,0-.09.05.09.09,0,0,0,.05.1A.07.07,0,0,0,125.52,19.67Z"/><path class="cls-21" d="M128.29,20.94a.51.51,0,0,0,.64-.34.52.52,0,0,0-.35-.64.51.51,0,0,0-.29,1Z"/><path class="cls-22" d="M128.32,20.75a.41.41,0,0,0,.23-.78.41.41,0,0,0-.23.78Z"/><path class="cls-4" d="M128.36,20.42a.23.23,0,0,0,.28-.15.23.23,0,0,0-.15-.28.22.22,0,0,0-.28.15A.22.22,0,0,0,128.36,20.42Z"/><path class="cls-4" d="M128.28,20.49a.07.07,0,0,0-.05-.09.07.07,0,1,0,.05.09Z"/><path class="cls-21" d="M131.05,21.77a.51.51,0,0,0,.64-.34.52.52,0,0,0-.35-.64.51.51,0,0,0-.63.34A.51.51,0,0,0,131.05,21.77Z"/><path class="cls-22" d="M131.08,21.57a.4.4,0,1,0,.23-.77.4.4,0,0,0-.5.27A.41.41,0,0,0,131.08,21.57Z"/><path class="cls-4" d="M131.4,21.09a.23.23,0,0,0-.15-.28A.23.23,0,0,0,131,21a.23.23,0,0,0,.15.28A.24.24,0,0,0,131.4,21.09Z"/><path class="cls-4" d="M131,21.32a.07.07,0,0,0,0-.09s-.08,0-.09.05a.07.07,0,0,0,.14,0Z"/><path class="cls-21" d="M133.81,22.6a.52.52,0,0,0,.64-.35.5.5,0,0,0-.34-.63.51.51,0,0,0-.64.34A.52.52,0,0,0,133.81,22.6Z"/><path class="cls-22" d="M133.84,22.4a.42.42,0,0,0,.51-.27.4.4,0,0,0-.28-.5.39.39,0,0,0-.5.27A.41.41,0,0,0,133.84,22.4Z"/><path class="cls-4" d="M134.16,21.92a.23.23,0,0,0-.15-.28.22.22,0,1,0-.13.43A.22.22,0,0,0,134.16,21.92Z"/><path class="cls-4" d="M133.81,22.15a.08.08,0,0,0-.06-.1.08.08,0,0,0-.09.05.08.08,0,0,0,.15,0Z"/><path class="cls-21" d="M136.57,23.42a.51.51,0,0,0,.3-1,.52.52,0,0,0-.64.35A.5.5,0,0,0,136.57,23.42Z"/><path class="cls-22" d="M136.6,23.23a.41.41,0,1,0,.23-.78.41.41,0,0,0-.5.27A.42.42,0,0,0,136.6,23.23Z"/><path class="cls-4" d="M136.92,22.75a.22.22,0,1,0-.43-.13.23.23,0,0,0,.15.28A.23.23,0,0,0,136.92,22.75Z"/><path class="cls-4" d="M136.57,23a.07.07,0,0,0,0-.09.09.09,0,0,0-.1.05.07.07,0,0,0,.05.09A.08.08,0,0,0,136.57,23Z"/><path class="cls-21" d="M139.34,24.25a.5.5,0,0,0,.63-.34.51.51,0,1,0-.63.34Z"/><path class="cls-22" d="M139.36,24.05a.4.4,0,0,0,.51-.27.41.41,0,0,0-.27-.5.42.42,0,0,0-.51.27A.4.4,0,0,0,139.36,24.05Z"/><path class="cls-4" d="M139.68,23.58a.23.23,0,0,0-.15-.29.23.23,0,1,0,.15.29Z"/><path class="cls-4" d="M139.33,23.8a.07.07,0,0,0-.05-.09.09.09,0,0,0-.1.05.09.09,0,0,0,0,.09A.08.08,0,0,0,139.33,23.8Z"/><g class="cls-5"><path class="cls-23" d="M118.53,20.91c1.08-.05,2.64-.56,3.79-.28a1.34,1.34,0,0,1,.6,2.24c-.62.5-1.56.14-1.44-.54s.74-.52.81-.3a.29.29,0,0,1,0,.23.18.18,0,0,0-.09-.06.2.2,0,0,0-.26.13.22.22,0,0,0,.14.26.25.25,0,0,0,.19,0,.46.46,0,0,0-.09-.79.64.64,0,0,0-.8.51c-.25.85,1.2,1.51,1.85.73a1.58,1.58,0,0,0-.31-2.37c-.78-.46-1.83-.27-3.46,0-2.06.35-3.15-.13-3.73-.93s0-1.49.62-1.41.78.77.56.91a.28.28,0,0,1-.43-.08.15.15,0,0,0,.15-.14.18.18,0,0,0-.29-.15.38.38,0,0,0,.22.61c.61.14,1-.91,0-1.25s-1.52.69-1.05,1.45A3.36,3.36,0,0,0,118.53,20.91Z"/><path class="cls-23" d="M125.81,23.61a.63.63,0,0,0-.39-.87.45.45,0,0,0-.5.61.21.21,0,0,0,.13.13.2.2,0,0,0,.25-.14.19.19,0,0,0-.13-.25.2.2,0,0,0-.11,0,.28.28,0,0,1,.1-.2c.18-.15.78.06.52.69s-1.26.42-1.5-.34a1.34,1.34,0,0,1,1.73-1.54c1.11.41,2.13,1.69,3,2.32a3.27,3.27,0,0,0,3.24.63.92.92,0,0,0-.07-1.78c-1-.27-1.3.81-.72,1a.38.38,0,0,0,.52-.39c0-.15-.26-.15-.32,0a.15.15,0,0,0,0,.2.27.27,0,0,1-.4-.16c-.1-.24.41-.74,1-.46s.66,1.16-.26,1.51-2.1.16-3.63-1.27c-1.21-1.12-2-1.86-2.88-1.91a1.59,1.59,0,0,0-1.56,1.82C124,24.21,125.55,24.45,125.81,23.61Z"/><path class="cls-23" d="M124.39,20.1a1.44,1.44,0,0,0-.42,1.51A1.59,1.59,0,0,0,124.39,20.1Z"/><path class="cls-23" d="M123.69,21a1.23,1.23,0,0,0-.5-1.1A1.11,1.11,0,0,0,123.69,21Z"/><path class="cls-23" d="M125.45,20.6a1.23,1.23,0,0,0-1,.65A1.11,1.11,0,0,0,125.45,20.6Z"/></g><path class="cls-21" d="M118.55,20.8c1.09,0,2.65-.55,3.81-.27a1.34,1.34,0,0,1,.59,2.24c-.61.49-1.56.13-1.44-.54s.75-.52.82-.3a.34.34,0,0,1,0,.23.16.16,0,0,0-.09-.07.2.2,0,0,0-.25.14.19.19,0,0,0,.13.25.21.21,0,0,0,.19,0,.45.45,0,0,0-.09-.79.64.64,0,0,0-.81.51c-.24.84,1.21,1.51,1.86.73a1.58,1.58,0,0,0-.31-2.37c-.78-.46-1.83-.27-3.46,0-2.07.35-3.15-.12-3.73-.93s0-1.48.62-1.4.78.76.56.91a.28.28,0,0,1-.43-.08.15.15,0,0,0,.15-.14.19.19,0,0,0-.29-.15.38.38,0,0,0,.22.61c.61.14,1-.91,0-1.26a.93.93,0,0,0-1,1.46A3.29,3.29,0,0,0,118.55,20.8Z"/><path class="cls-21" d="M125.85,23.51a.64.64,0,0,0-.4-.87.44.44,0,0,0-.5.6.2.2,0,0,0,.13.14.2.2,0,1,0,.12-.39h-.11a.26.26,0,0,1,.1-.2c.18-.15.78.06.52.69s-1.26.42-1.5-.34a1.34,1.34,0,0,1,1.73-1.54c1.12.4,2.14,1.69,3,2.32a3.31,3.31,0,0,0,3.25.63.93.93,0,0,0-.07-1.79c-1-.26-1.31.82-.72,1a.38.38,0,0,0,.51-.39.18.18,0,0,0-.32,0,.16.16,0,0,0,0,.2.27.27,0,0,1-.4-.16c-.1-.25.4-.74,1-.46s.66,1.15-.26,1.51-2.09.16-3.63-1.27c-1.21-1.12-2-1.86-2.88-1.91a1.59,1.59,0,0,0-1.56,1.82C124,24.11,125.58,24.34,125.85,23.51Z"/><path class="cls-21" d="M124.43,20a1.43,1.43,0,0,0-.43,1.51A1.61,1.61,0,0,0,124.43,20Z"/><path class="cls-21" d="M123.73,20.92a1.24,1.24,0,0,0-.5-1.11A1.1,1.1,0,0,0,123.73,20.92Z"/><path class="cls-21" d="M125.48,20.5a1.23,1.23,0,0,0-1,.65A1.11,1.11,0,0,0,125.48,20.5Z"/><path class="cls-22" d="M121.57,20.33a2.53,2.53,0,0,1,.5,0A2.51,2.51,0,0,0,121.57,20.33Z"/><path class="cls-22" d="M123.46,21.63c.07-.33-.27-1.15-1.39-1.26A1.5,1.5,0,0,1,123.46,21.63Z"/><path class="cls-22" d="M126.68,21.86c-1.23-1-2.16-.32-2.3.05C125.3,20.85,126.68,21.86,126.68,21.86Z"/><path class="cls-22" d="M116.75,18.28s.07.06.11.09A.64.64,0,0,0,116.75,18.28Z"/><path class="cls-22" d="M116.86,18.37a.73.73,0,0,1,.2.62A.51.51,0,0,0,116.86,18.37Z"/><path class="cls-22" d="M131.73,22.83c.05,0,.09,0,.15,0Z"/><path class="cls-22" d="M131.73,22.83a.51.51,0,0,0-.5.4A.68.68,0,0,1,131.73,22.83Z"/><g class="cls-5"><path class="cls-23" d="M132.19,22.94s-6.14,4.92-17.06-2.84l.69.55a24.75,24.75,0,0,0,6.67,3.86l.2.07a23.79,23.79,0,0,0,7.89.49c6.93-.69,10.18.36,10.18.36l1.56-1.73L106.72,13l-.1.34,26.1,7.82Z"/></g><g class="cls-5"><path class="cls-23" d="M122.69,24.58a23.79,23.79,0,0,0,7.89.49c6.93-.69,10.18.36,10.18.36l1.56-1.73-15.19-4.55,11.3,3.74L138,24.26s-3.29.27-9,.61a18.46,18.46,0,0,1-7.19-.61l.65.25Z"/></g><path class="cls-22" d="M124.19,20.4a1.09,1.09,0,0,1,.19-.27A1.31,1.31,0,0,0,124.19,20.4Z"/><path class="cls-22" d="M124.19,20.4a1.07,1.07,0,0,0-.17.8A1.64,1.64,0,0,1,124.19,20.4Z"/><path class="cls-22" d="M123.28,20a1,1,0,0,0,0,.29A.76.76,0,0,1,123.28,20Z"/><path class="cls-22" d="M123.31,20.24a.63.63,0,0,0,.36.56A1,1,0,0,1,123.31,20.24Z"/><path class="cls-22" d="M125.15,20.62a.68.68,0,0,0-.53.44A1.09,1.09,0,0,1,125.15,20.62Z"/><path class="cls-22" d="M125.15,20.62c.09,0,.19-.07.26-.05A.91.91,0,0,0,125.15,20.62Z"/><path class="cls-17" d="M107.62,15.2a33.42,33.42,0,0,1,7.11,4.27A15.63,15.63,0,0,0,107.62,15.2Z"/><path class="cls-26" d="M148.34,62.16C126.4,50,101.25,43.24,77.55,43.24a150.67,150.67,0,0,0-58.9,12.35c1,.64,1.94,1.26,2.93,1.87A147.53,147.53,0,0,1,77.55,46c23.24,0,47.89,6.59,69.43,18.57,1.19.66,3.32,1.93,6.11,3.63,1.33-.26,2.66-.55,4-.85C153.06,64.92,150,63.08,148.34,62.16Z"/><path class="cls-27" d="M148.11,63c-21.77-11.83-45.78-19-70.67-19.09A150,150,0,0,0,19.59,56.22l.15.1A149.36,149.36,0,0,1,78.43,44.41C102.93,44.64,126.54,51.65,148.11,63Z"/><path class="cls-28" d="M148.57,61.75c-22-12.24-47.24-19-71-19A151.36,151.36,0,0,0,18.19,55.28l.92.62A150.18,150.18,0,0,1,77.55,43.7c23.63,0,48.69,6.7,70.56,18.87,1.59.88,4.5,2.62,8.31,5l1.31-.29C153.52,64.65,150.3,62.72,148.57,61.75Z"/><path class="cls-25" d="M147.2,64.2c-21.6-12-46.34-18.63-69.65-18.63A148.15,148.15,0,0,0,21.09,57.16l1,.59A147.29,147.29,0,0,1,77.55,46.51c23.16,0,47.73,6.57,69.2,18.51,1.11.61,3.08,1.78,5.65,3.35l1.37-.26C150.76,66.27,148.48,64.91,147.2,64.2Z"/><path class="cls-29" d="M157,68.62l6.83-2.88c-2.5.68-5,1.28-7.59,1.84Z"/><path class="cls-30" d="M184.52,58.2c.59-.28,1.16-.58,1.75-.87l-2.09-2.18L157.65,66.32,131,29.81,104.22,45.53,77.47,20.42,50.71,45.54,24,30.53,10,49c.47.41,1,.81,1.43,1.21L24.48,33,51,47.84,77.47,23,104,47.85l26.5-15.58,25.79,35.31c2.55-.56,5.09-1.16,7.59-1.84l19.88-8.37Z"/><path class="cls-25" d="M184.3,58.31l.43-.22-.95-1-21.46,9c1.13-.29,2.27-.6,3.39-.92l17.95-7.56Z"/><path class="cls-25" d="M50.59,45.74l.16.08L77.47,20.74l26.59,25,.13.12,26.71-15.7,26.67,36.49,26.55-11.18,1.93,2,.44-.22-2.25-2.35L157.73,66,131,29.5,104.25,45.24,77.47,20.1,50.68,45.25,24.09,30.33l-.18-.1L9.84,48.87l.35.31L24,30.83Z"/><path class="cls-25" d="M157.09,68.33l-.59-.81-.5.11.93,1.27,8.78-3.69c-1.12.32-2.26.63-3.39.92Z"/><path class="cls-25" d="M130.52,32,104,47.56,77.47,22.66,51,47.55,24.42,32.65,11.26,50.09l.36.29L24.55,33.26,50.87,48l.15.08L77.47,23.3,103.8,48l.13.12,26.46-15.56L156,67.63l.5-.11Z"/><g class="cls-24"><path class="cls-25" d="M22.44,36.05l2.11-2.79,2.57,1.44c.07-.75-2-2.49,1.19-2l-4.22-2.36-.18-.1-3.35,4.44C21.85,33.8,22.52,33.49,22.44,36.05Z"/></g><g class="cls-24"><path class="cls-25" d="M128.26,33.83l2.13-1.25L133,36.16c-.74-3.33.5-2.39,1.68-1.66l-3.66-5-4,2.35C127.69,32.27,128.84,31.2,128.26,33.83Z"/></g><g class="cls-24"><path class="cls-25" d="M100,44.44,103.8,48l.13.12,4.78-2.82c-.68-.37-3.38.67-1.33-1.92l-3.13,1.84-3.18-3C102.61,45.05,100.66,44,100,44.44Z"/></g><g class="cls-24"><path class="cls-25" d="M75.05,25.58l2.42-2.28,2.43,2.29c.08-.88-1.42-3.11,1.47-1.83l-3.9-3.66L73.33,24C75.76,22.64,75.37,24.27,75.05,25.58Z"/></g><g class="cls-24"><path class="cls-25" d="M46.25,45.44,50.87,48l.15.08,4.7-4.4c-.81-.09-3.62,1.8-1.86-1.46l-3.18,3-3.07-1.72C49.53,45.91,46.94,45.06,46.25,45.44Z"/></g><path class="cls-31" d="M168.35,45.69c-33.83-18.29-59-26.11-86-26.61v0H75.52c-24.35,0-47,5.83-75.39,19.74C.73,39.54,1.36,40.28,2,41,29.71,27.52,51.8,21.86,75.52,21.86h4c27.56,0,52.89,7.61,87.45,26.29,7,3.79,13.18,6.86,18.79,9.41,1.09-.53,2.18-1.06,3.25-1.63C183,53.25,176.18,49.92,168.35,45.69Z"/><polygon class="cls-28" points="82.78 19.05 82.78 18.69 82.38 18.68 82.78 19.08 82.78 19.05"/><polygon class="cls-28" points="81.97 19.05 81.97 19.08 81.97 19.46 82.37 19.46 81.97 19.05"/><path class="cls-28" d="M165.8,47.1Q155.6,41.55,145,36.77a205.46,205.46,0,0,0-21.66-8.41A150.18,150.18,0,0,0,100.74,23a143,143,0,0,0-23.19-1.61A144,144,0,0,0,54.36,23a149.66,149.66,0,0,0-22.61,5.4,203.75,203.75,0,0,0-21.67,8.38C7.27,38,4.49,39.34,1.72,40.68l.59.7c2.7-1.3,5.4-2.6,8.13-3.82A206.64,206.64,0,0,1,32,29.26a149.58,149.58,0,0,1,22.48-5.32,143.09,143.09,0,0,1,23-1.6,143.15,143.15,0,0,1,23,1.58,150.42,150.42,0,0,1,22.47,5.33,212.31,212.31,0,0,1,21.61,8.28q10.58,4.71,20.79,10.21c6.59,3.48,13.24,6.91,20,10l.62-.31C179.22,54.24,172.49,50.71,165.8,47.1Z"/><path class="cls-28" d="M181.72,52.35c-3.14-1.59-6.31-3.14-9.41-4.82l-9.34-5c-1.56-.82-3.14-1.61-4.71-2.42l-2.36-1.2-2.39-1.16c-3.16-1.57-6.38-3-9.6-4.47L139,31.2l-4.93-1.95c-1.65-.63-3.32-1.21-5-1.83-.82-.31-1.66-.58-2.51-.85l-2.52-.83c-3.37-1.07-6.77-2-10.2-2.9s-6.9-1.58-10.39-2.19c-.86-.17-1.74-.29-2.62-.42l-2.62-.37c-1.76-.25-3.52-.39-5.28-.6s-3.53-.25-5.3-.38l-4.9-.19v.39l-.4-.4h.4v0H76.42c-2,0-4,.06-6,.09s-4,.19-6,.34l-3,.27-1.49.14c-.49.05-1,.12-1.48.19-2,.26-4,.48-5.9.85l-2.94.5c-1,.18-1.95.4-2.92.6s-2,.39-2.92.62L41,23c-1.94.45-3.84,1-5.76,1.56-3.82,1.11-7.58,2.37-11.31,3.73s-7.42,2.85-11.06,4.43c-1.84.75-3.63,1.61-5.44,2.42S3.83,36.79,2,37.65l-2,1c.08.11.18.21.26.32l2-.93C4,37.17,5.79,36.3,7.61,35.51s3.61-1.65,5.44-2.39c3.65-1.54,7.34-3,11.06-4.34s7.5-2.57,11.3-3.65c1.91-.53,3.81-1.09,5.74-1.53L44,22.91c1-.22,1.94-.4,2.9-.61s1.94-.4,2.91-.57l2.93-.49c1.95-.35,3.92-.56,5.88-.81l1.47-.18,1.48-.13,3-.26c2-.14,4-.23,5.92-.33s4-.08,5.94-.08H82v-.41l.4.41H82l.4,0,5.27.2c1.75.13,3.51.23,5.26.39s3.5.36,5.25.6l2.61.38c.87.13,1.74.24,2.6.41,3.47.6,6.92,1.3,10.34,2.15s6.8,1.79,10.16,2.85l2.52.81c.83.28,1.67.54,2.5.85,1.65.6,3.32,1.18,5,1.8l4.92,1.93,4.88,2.06c3.22,1.41,6.44,2.84,9.61,4.38l2.39,1.14L158,40.62c1.58.8,3.16,1.57,4.73,2.38l9.37,4.92c3.12,1.67,6.3,3.19,9.46,4.76,2.45,1.13,4.89,2.26,7.36,3.33l.33-.19C186.72,54.71,184.22,53.53,181.72,52.35Z"/><path class="cls-27" d="M83.15,19.36c-13.65-.1-27,.54-40.36,3.75A204.88,204.88,0,0,0,.32,39l.46.54a209.13,209.13,0,0,1,42.12-16C56.16,20.29,69.55,19.47,83.15,19.36Z"/><path class="cls-27" d="M82.37,19.68s0,0,0,0l.54,0Z"/><path class="cls-27" d="M164.2,43.77c-7.71-4.09-15.62-7.81-23.66-11.21A160.78,160.78,0,0,0,82.91,19.73c5.91.64,12,.76,17.89,1.67a157.11,157.11,0,0,1,29.77,7.84c14.41,5.19,28,12.23,41.5,19.36q7.86,4.23,16.05,7.81l.59-.29C180.34,52.44,172.27,48.05,164.2,43.77Z"/></g></g></g></svg>