<svg xmlns="http://www.w3.org/2000/svg" viewBox="0 0 196.09 96.68"><defs><style>.cls-1{fill:#571983;}.cls-2{fill:#8a4ead;}.cls-27,.cls-3{opacity:0.5;}.cls-4{fill:#d68c5b;}.cls-5{fill:#54d2dc;}.cls-6{fill:#ff93d0;}.cls-7{fill:#dd54a9;}.cls-8{fill:#8025c1;}.cls-9{fill:#cb73ff;}.cls-10{fill:#b52d88;}.cls-11{fill:#515149;}.cls-12{fill:#ffa402;}.cls-13,.cls-27{fill:#ffc502;}.cls-14{fill:#ffec02;}.cls-15{fill:#3c979e;}.cls-16{fill:#b86a96;}.cls-17{fill:none;}.cls-18{fill:#bf6202;}.cls-19{fill:#939393;}.cls-20{fill:#ffe902;}.cls-21{fill:#d37b04;}.cls-22{fill:#ffff02;}.cls-23{fill:#9253b8;}.cls-24{fill:#b8aa01;}.cls-25{fill:#ffcc02;}.cls-26{fill:#ffc302;}.cls-27{isolation:isolate;}.cls-28{fill:#fff;}.cls-29{fill:#ff8502;}.cls-30{fill:#d36c05;}.cls-31{fill:red;}.cls-32{fill:#bf2c02;}.cls-33{fill:#934703;}</style></defs><title>設施介紹-資產 1</title><g id="圖層_2" data-name="圖層 2"><g id="圖層_1-2" data-name="圖層 1"><g id="Layer_1" data-name="Layer 1"><path class="cls-1" d="M76.05,45.11a.24.24,0,0,0,.26-.11L84,28.55c0-.09,0-.18-.14-.2a.27.27,0,0,0-.3.09L75.88,44.9c0,.09,0,.18.14.2Z"/><path class="cls-2" d="M84.22,26.84c-.67,0-1.21.38-1.21.86s.54.86,1.21.86,1.23-.38,1.23-.86S84.9,26.84,84.22,26.84Zm0,1.34c-.37,0-.68-.21-.68-.49s.31-.48.68-.48.69.22.69.48S84.6,28.18,84.22,28.18Z"/><g class="cls-3"><path class="cls-4" d="M80.73,46.67l-.57-.1v.27s.4-.06.43.16,0,.4.08,1.07a6.22,6.22,0,0,0,.08.75v0h.34v-.62C81.08,47.1,81.11,46.75,80.73,46.67Z"/></g><path class="cls-5" d="M78.9,47.12l.37.05a3.87,3.87,0,0,0,.12-.82c0-.62-.17-1-.59-1.06a27.59,27.59,0,0,0-3-.16v.27a23.8,23.8,0,0,1,2.92.15C79.13,45.63,79.08,46.54,78.9,47.12Z"/><path class="cls-6" d="M75.34,46.67a.21.21,0,0,0,.22.19h0a.25.25,0,0,0,.26-.15l.28-2.29a.2.2,0,0,0-.21-.19h0c-.13,0-.25.06-.26.16Z"/><path class="cls-7" d="M75.66,46.66c-.17,0-.31.06-.32.15h0c0,.09.1.18.27.19l3.94.29c.17,0,.31,0,.32-.14h0c0-.1-.1-.18-.26-.19Z"/><path class="cls-2" d="M77.7,45.27a.24.24,0,0,0,.2-.12l6.33-16.72c0-.08,0-.18-.16-.2a.25.25,0,0,0-.28.12L77.44,45.08c0,.09,0,.17.16.2Z"/><path class="cls-8" d="M122.7,45.48a.3.3,0,0,1-.28-.09l-11.6-17c-.06-.08,0-.18.11-.22a.28.28,0,0,1,.31.08l11.6,17c.06.08,0,.18-.11.22Z"/><path class="cls-9" d="M127.69,43.16a.27.27,0,0,1-.26,0L111,28.22a.14.14,0,0,1,0-.19.1.1,0,0,1,0,0,.29.29,0,0,1,.33,0l16.44,14.89a.12.12,0,0,1,0,.18.15.15,0,0,1-.06,0Z"/><path class="cls-9" d="M110.38,26.84c-.67,0-1.22.38-1.22.86s.55.86,1.22.86,1.23-.38,1.23-.86S111.06,26.84,110.38,26.84Zm0,1.34c-.37,0-.68-.21-.68-.49s.31-.48.68-.48.69.22.69.48S110.76,28.18,110.38,28.18Z"/><path class="cls-6" d="M123.52,46.31a.18.18,0,0,1-.15-.07l-.82-1.06a.09.09,0,0,1,0-.1.11.11,0,0,1,.08-.07L128.07,43a.22.22,0,0,1,.23,0,.1.1,0,0,1,0,.15h0l.65,1.16-5.19,1.81c0,.06,0,.13-.07.16Z"/><polygon class="cls-7" points="129 44.1 123.43 46 122.99 47.13 129.52 45.03 129 44.1"/><polygon class="cls-10" points="129.52 45.03 122.99 47.13 123.23 47.46 129.73 45.39 129.52 45.03"/><path d="M123.6,45.93a.22.22,0,0,1-.16,0,.11.11,0,0,1-.06-.14l0,0A8.57,8.57,0,0,1,128.63,44c.1,0,.18,0,.19.12s-.08.12-.18.14a18.61,18.61,0,0,0-4.94,1.63Z"/><path class="cls-11" d="M123.73,45.71a10.81,10.81,0,0,1,4.71-1.57A7.69,7.69,0,0,0,123.73,45.71Z"/><path class="cls-5" d="M123,47.25a.17.17,0,0,1-.15-.07s-.58-.78-.81-1.13.74-1.26.94-1.43a.23.23,0,0,1,.25,0,.11.11,0,0,1,0,.13l0,0c-.52.43-1,1-.9,1.18.23.34.8,1.11.81,1.12a.16.16,0,0,1-.08.16Z"/><path class="cls-5" d="M129.52,45.15a.21.21,0,0,1-.16-.08l-1.3-2c0-.07,0-.14.08-.17a.23.23,0,0,1,.24.06l1.3,2c0,.07,0,.13-.08.16Z"/><path class="cls-1" d="M108.57,47.26a.2.2,0,0,1-.22-.13l-4-18.7a.2.2,0,0,1,.2-.18.22.22,0,0,1,.26.14l4,18.69a.19.19,0,0,1-.2.18Z"/><path class="cls-2" d="M113.5,46.37a.24.24,0,0,1-.22-.11l-8.44-17.92c0-.09,0-.18.14-.21a.27.27,0,0,1,.29.1l8.42,17.92c0,.09,0,.18-.15.21Z"/><path class="cls-6" d="M109.21,47.73l-.36-.75a22.94,22.94,0,0,1,4.63-.87,3.28,3.28,0,0,1,.79.83Z"/><polygon class="cls-10" points="113.72 48.04 108.49 48.8 108.57 49.01 113.89 48.22 114.51 47.25 114.38 47.08 113.72 48.04"/><polygon class="cls-7" points="114.38 47.08 114.27 46.94 109.21 47.73 108.49 48.8 113.72 48.04 114.38 47.08"/><path class="cls-5" d="M108.51,48.9a.17.17,0,0,1-.15,0c-.15-.17-.88-1-.49-1.4a3.61,3.61,0,0,1,1.61-.75.18.18,0,0,1,.22.08c0,.06,0,.13-.1.15a3.17,3.17,0,0,0-1.46.68c-.19.16.19.75.48,1.1a.12.12,0,0,1,0,.16l0,0Z"/><path class="cls-11" d="M109.26,47.89a11.42,11.42,0,0,1,4.8-.75A7.89,7.89,0,0,0,109.26,47.89Z"/><path class="cls-5" d="M113.68,48.1a.2.2,0,0,1-.15-.06c-1-1.26-1-1.42-.37-1.82l.07,0a.57.57,0,0,1,.38-.07c.49.08.88.82,1,1s0,.13-.1.16a.19.19,0,0,1-.22-.07c-.19-.37-.52-.78-.71-.82h0l-.09.06c-.44.28-.48.32.44,1.51.05.05,0,.13-.07.16A.19.19,0,0,1,113.68,48.1Z"/><path class="cls-2" d="M104.59,26.84c-.66,0-1.21.38-1.21.86s.55.86,1.21.86,1.23-.38,1.23-.86S105.27,26.84,104.59,26.84Zm0,1.34c-.37,0-.67-.21-.67-.49s.3-.48.67-.48.69.22.69.48S105,28.18,104.59,28.18Z"/><path class="cls-5" d="M59.9,47.34h-.08c-.09,0-.12-.11-.07-.17s.64-.78,1-1.12.34-.34.53-.33a.43.43,0,0,1,.31.21l.35.49s0,.12-.07.12a.2.2,0,0,1-.23,0L61.25,46s0,0,0,0l-.2.2c-.34.35-1,1.1-1,1.11A.19.19,0,0,1,59.9,47.34Z"/><path class="cls-6" d="M64.81,50.07a.23.23,0,0,1-.18,0,.13.13,0,0,1,0-.19.09.09,0,0,1,.06,0h0a3.43,3.43,0,0,0,.67-.7c.49-.62.41-.66.07-.83h0c-.49-.26-1.11-.57-2.3-1.12l-.45-.21a3.36,3.36,0,0,0-.65-.28c-.05,0-.16.1-.26.19-.43.4-1.07,1.12-1.07,1.13a.31.31,0,0,1-.32.06c-.11-.05-.15-.15-.08-.23a15.32,15.32,0,0,1,1.1-1.18c.46-.41.75-.36,1.54,0l.44.21c1.2.55,1.82.87,2.32,1.13h0c.68.35.54.65.07,1.25A3.33,3.33,0,0,1,65,50,.25.25,0,0,1,64.81,50.07Z"/><path class="cls-7" d="M64.93,50.06h-.12l-4.88-2.13a.19.19,0,0,1-.1-.1l-.17-.54c0-.09,0-.18.17-.2a.25.25,0,0,1,.28.12l.15.46,4.79,2.09c.11.05.15.15.07.23A.23.23,0,0,1,64.93,50.06Z"/><path class="cls-8" d="M65.9,48.32c-.09,0-.13-.13-.08-.2L79.53,28.43a.28.28,0,0,1,.31-.08c.12,0,.16.14.11.22L66.23,48.27a.27.27,0,0,1-.3.07Z"/><path class="cls-9" d="M61.89,46.42a.12.12,0,0,1,0-.17l0,0,17.27-18a.29.29,0,0,1,.32,0c.11.05.14.15.07.23l-17.28,18a.29.29,0,0,1-.32.05Z"/><path class="cls-9" d="M80,26.84c-.67,0-1.22.38-1.22.86s.57.86,1.22.86,1.22-.38,1.22-.86S80.71,26.84,80,26.84Zm0,1.34c-.38,0-.69-.21-.69-.49s.31-.48.69-.48.69.22.69.48S80.42,28.18,80,28.18Z"/><rect class="cls-12" x="88.16" y="27.24" width="13.52" height="58.82"/><rect class="cls-13" x="90.49" y="27.38" width="8.85" height="58.68"/><rect class="cls-14" x="92.53" y="27.38" width="4.78" height="58.58"/><polygon class="cls-6" points="94.5 35.91 94.53 35.9 94.5 35.9 94.5 35.91"/><polygon class="cls-6" points="94.51 32.17 94.51 32.17 94.53 32.17 94.51 32.17"/><polygon class="cls-6" points="89.72 34.06 91.27 35.87 92.88 34.02 91.33 32.22 89.72 34.06"/><polygon class="cls-5" points="97.77 32.22 97.73 32.17 94.53 32.17 96.14 34.06 97.77 32.22"/><polygon class="cls-5" points="92.88 34.02 94.51 32.17 91.37 32.17 91.33 32.22 92.88 34.02"/><polygon class="cls-6" points="91.37 32.17 91.3 32.17 91.33 32.22 91.37 32.17"/><polygon class="cls-6" points="100.94 32.17 100.9 32.17 100.92 32.2 100.94 32.17"/><polygon class="cls-15" points="101.68 33.08 101.68 32.17 100.94 32.17 100.92 32.2 101.68 33.08"/><polygon class="cls-6" points="97.81 32.17 97.73 32.17 97.77 32.22 97.81 32.17"/><polygon class="cls-6" points="96.14 34.06 97.7 35.87 99.32 34.02 97.77 32.22 96.14 34.06"/><polygon class="cls-16" points="88.09 32.17 88.09 35.9 89.72 34.06 88.09 32.17"/><polygon class="cls-6" points="100.89 35.9 100.93 35.9 100.91 35.88 100.89 35.9"/><polygon class="cls-15" points="100.93 35.9 101.68 35.9 101.68 35 100.91 35.88 100.93 35.9"/><polygon class="cls-16" points="100.92 32.2 99.32 34.02 100.91 35.88 101.68 35 101.68 33.08 100.92 32.2"/><polygon class="cls-6" points="97.66 35.9 97.73 35.9 97.7 35.87 97.66 35.9"/><polygon class="cls-6" points="91.23 35.9 91.3 35.9 91.27 35.87 91.23 35.9"/><polygon class="cls-6" points="94.53 32.17 94.51 32.17 92.88 34.02 94.5 35.9 94.53 35.9 96.14 34.06 94.53 32.17"/><polygon class="cls-5" points="96.14 34.06 94.53 35.9 97.66 35.9 97.7 35.87 96.14 34.06"/><polygon class="cls-5" points="91.27 35.87 91.3 35.9 94.5 35.9 92.88 34.02 91.27 35.87"/><polygon class="cls-5" points="94.92 70.33 95.64 71.36 97.23 71.52 96.08 72.32 96.35 73.44 94.92 72.91 93.48 73.44 93.76 72.32 92.6 71.52 94.2 71.36 94.92 70.33"/><polygon class="cls-5" points="91.26 71.52 89.66 71.36 88.94 70.33 88.22 71.36 88.18 71.36 88.18 73.2 88.94 72.91 90.37 73.44 90.1 72.32 91.26 71.52"/><polygon class="cls-5" points="98.61 71.52 100.2 71.36 100.91 70.33 101.64 71.36 101.68 71.36 101.68 73.2 100.91 72.91 99.48 73.44 99.76 72.32 98.61 71.52"/><polygon class="cls-16" points="90.49 33.17 89.72 34.06 90.49 34.97 90.49 33.17"/><polygon class="cls-5" points="91.33 32.22 91.3 32.17 90.49 32.17 90.49 33.17 91.33 32.22"/><polygon class="cls-15" points="90.49 32.17 88.09 32.17 89.72 34.06 90.49 33.17 90.49 32.17"/><polygon class="cls-15" points="89.72 34.06 88.09 35.9 90.49 35.9 90.49 34.97 89.72 34.06"/><polygon class="cls-5" points="90.49 35.9 91.23 35.9 91.27 35.87 90.49 34.97 90.49 35.9"/><polygon class="cls-17" points="99.34 33.99 99.32 34.02 99.34 34.05 99.34 33.99"/><polygon class="cls-15" points="100.92 32.2 100.9 32.17 99.34 32.17 99.34 33.99 100.92 32.2"/><polygon class="cls-5" points="99.34 32.17 97.81 32.17 97.77 32.22 99.32 34.02 99.34 33.99 99.34 32.17"/><polygon class="cls-5" points="99.32 34.02 97.7 35.87 97.73 35.9 99.34 35.9 99.34 34.05 99.32 34.02"/><polygon class="cls-15" points="99.34 35.9 100.89 35.9 100.91 35.88 99.34 34.05 99.34 35.9"/><rect class="cls-18" x="85.79" y="85.7" width="18.18" height="3.57"/><rect class="cls-12" x="85.79" y="86.82" width="18.18" height="0.68"/><rect class="cls-12" x="85.79" y="88.6" width="18.18" height="0.67"/><g class="cls-3"><rect class="cls-19" x="85.79" y="85.7" width="3.08" height="3.57"/><rect class="cls-19" x="100.98" y="85.7" width="3" height="3.57"/></g><path class="cls-20" d="M84.87,90.27c0,.26-.31.48-.69.48s-.69-.22-.69-.48.31-.49.69-.49S84.87,90,84.87,90.27Z"/><path class="cls-21" d="M84.34,89.79a.41.41,0,0,1,.18.33c0,.27-.31.49-.69.49h-.16a.84.84,0,0,0,.49.16c.38,0,.69-.22.69-.49S84.64,89.85,84.34,89.79Z"/><path class="cls-22" d="M84,90.08c-.12.09-.26.13-.33.08s0-.15.08-.24a.36.36,0,0,1,.33-.08C84.13,89.91,84.09,90,84,90.08Z"/><path class="cls-22" d="M83.65,90.27a.06.06,0,0,1-.06.06s0,0,0-.07a.08.08,0,0,1,.07-.07S83.66,90.23,83.65,90.27Z"/><path class="cls-20" d="M104.89,90.27c0,.26.3.48.68.48s.69-.22.69-.48-.3-.49-.69-.49S104.89,90,104.89,90.27Z"/><path class="cls-21" d="M105.41,89.79a.44.44,0,0,0-.18.33c0,.27.31.49.69.49h.16a.84.84,0,0,1-.48.16c-.38,0-.69-.22-.69-.49S105.11,89.85,105.41,89.79Z"/><path class="cls-22" d="M105.78,90.08a.32.32,0,0,0,.32.08c.07,0,0-.15-.08-.24a.36.36,0,0,0-.33-.08C105.63,89.91,105.67,90,105.78,90.08Z"/><path class="cls-22" d="M106.1,90.27a.06.06,0,0,0,.07.06s0,0,0-.07a.1.1,0,0,0-.07-.07.06.06,0,0,0,0,.07Z"/><polygon class="cls-5" points="91.26 89.28 85.79 89.28 82.85 92 94.14 92 95.65 92 106.93 92 103.98 89.28 98.52 89.28 91.26 89.28"/><path class="cls-6" d="M91.89,94.51c-2.49,0-3,1.36-3,1.36h6S94.38,94.51,91.89,94.51Z"/><polygon class="cls-5" points="94.84 95.91 94.85 95.95 94.95 95.87 94.85 95.87 94.84 95.91"/><polygon class="cls-5" points="100.91 95.87 100.92 95.9 100.96 95.87 100.91 95.87"/><polygon class="cls-5" points="100.92 95.9 100.94 96 100.98 95.87 100.96 95.87 100.92 95.9"/><polygon class="cls-5" points="94.83 95.87 94.84 95.91 94.85 95.87 94.83 95.87"/><polygon class="cls-5" points="94.83 95.97 94.85 95.95 94.84 95.91 94.83 95.97"/><polygon class="cls-5" points="88.84 95.97 88.87 95.87 88.83 95.9 88.84 95.97"/><polygon class="cls-5" points="88.83 95.9 88.87 95.87 88.81 95.87 88.83 95.9"/><path class="cls-9" d="M94.86,93.17a5.56,5.56,0,0,1,3.1-.88,4.74,4.74,0,0,1,3,1V92H94.85v1.15Z"/><path class="cls-9" d="M91.9,92.29a4.33,4.33,0,0,1,2.93.88V92h-6v1.12A5.24,5.24,0,0,1,91.9,92.29Z"/><path class="cls-6" d="M98,92.29a5.56,5.56,0,0,0-3.1.88h0v1.21h0a5.47,5.47,0,0,1,3.1-.87,4.72,4.72,0,0,1,3,1V93.32A4.74,4.74,0,0,0,98,92.29Z"/><path class="cls-23" d="M104.1,92.29c2.41,0,2.83,1,2.83,1V92h-6v1.32S101.69,92.29,104.1,92.29Z"/><path class="cls-23" d="M85.73,92.29a5.7,5.7,0,0,1,3.11.85h0V92h-6V93.2A4.33,4.33,0,0,1,85.73,92.29Z"/><path class="cls-16" d="M104.1,92.29c-2.41,0-3.12,1-3.12,1v1.21s.71-1,3.12-1,2.83,1,2.83,1V93.32S106.51,92.29,104.1,92.29Z"/><path class="cls-6" d="M91.9,92.29a5.24,5.24,0,0,0-3,.83v1.21a5.16,5.16,0,0,1,3-.82,4.35,4.35,0,0,1,2.93.87V93.17A4.38,4.38,0,0,0,91.9,92.29Z"/><path class="cls-9" d="M94.85,94.38a4.52,4.52,0,0,0-2.92-.87,5.16,5.16,0,0,0-3,.82v1.54s.52-1.36,3-1.36,2.92,1.36,2.92,1.36h0Z"/><path class="cls-16" d="M104,94.51c-2.25,0-2.9,1.11-3,1.33v0h6S106.47,94.51,104,94.51Z"/><path class="cls-9" d="M101,95.84V94.51a4.72,4.72,0,0,0-3-1,5.47,5.47,0,0,0-3.1.87h0v1.47H95s.54-1.36,3-1.36,2.92,1.36,2.92,1.36H101Z"/><path class="cls-5" d="M101,95.87h0v0Z"/><path class="cls-23" d="M106.93,94.51s-.42-1-2.83-1-3.12,1-3.12,1v1.33c.1-.22.75-1.33,3-1.33,2.49,0,3,1.36,3,1.36h0Z"/><path class="cls-6" d="M98,94.51c-2.49,0-3,1.36-3,1.36h6S100.46,94.51,98,94.51Z"/><path class="cls-16" d="M85.87,94.51c-2.49,0-3,1.36-3,1.36h6S88.36,94.51,85.87,94.51Z"/><path class="cls-24" d="M85.86,95.05c-1.49,0-1.82.82-1.82.82h3.59S87.35,95.05,85.86,95.05Z"/><path class="cls-14" d="M92,95.05c-1.49,0-1.81.82-1.81.82h3.59S93.46,95.05,92,95.05Z"/><path class="cls-14" d="M98,95.05c-1.5,0-1.82.82-1.82.82h3.58S99.48,95.05,98,95.05Z"/><path class="cls-24" d="M104.12,95.05c-1.5,0-1.81.82-1.81.82h3.58S105.62,95.05,104.12,95.05Z"/><path class="cls-23" d="M88.85,94.35a5.72,5.72,0,0,0-3.12-.84,4.32,4.32,0,0,0-2.88.89v1.46h0s.53-1.36,3-1.36,2.92,1.36,2.92,1.36h.06V94.35Z"/><path class="cls-16" d="M85.73,93.51a5.69,5.69,0,0,1,3.11.84h0V93.14h0a5.7,5.7,0,0,0-3.11-.85,4.37,4.37,0,0,0-2.88.89V94.4A4.32,4.32,0,0,1,85.73,93.51Z"/><polygon class="cls-15" points="103.98 89.28 100.98 89.28 100.98 92 106.93 92 103.98 89.28"/><polygon class="cls-15" points="85.79 89.28 82.85 92 88.87 92 88.87 89.28 85.79 89.28"/><path class="cls-15" d="M86.12,90.3c-.38,0-.69.22-.69.49s.31.49.69.49.68-.22.68-.49S86.5,90.3,86.12,90.3Z"/><path class="cls-15" d="M89,90.3c-.38,0-.69.22-.69.49s.31.49.69.49.69-.22.69-.49S89.41,90.3,89,90.3Z"/><path class="cls-15" d="M91.94,90.3c-.38,0-.69.22-.69.49s.31.49.69.49.69-.22.69-.49S92.32,90.3,91.94,90.3Z"/><path class="cls-15" d="M94.86,90.3c-.38,0-.69.22-.69.49s.31.49.69.49.68-.22.68-.49S95.23,90.3,94.86,90.3Z"/><path class="cls-15" d="M97.77,90.3c-.38,0-.69.22-.69.49s.31.49.69.49.68-.22.68-.49S98.15,90.3,97.77,90.3Z"/><path class="cls-15" d="M100.68,90.3c-.38,0-.69.22-.69.49s.31.49.69.49.69-.22.69-.49S101.06,90.3,100.68,90.3Z"/><path class="cls-15" d="M103.59,90.3c-.38,0-.69.22-.69.49s.31.49.69.49.69-.22.69-.49S104,90.3,103.59,90.3Z"/><path class="cls-21" d="M86.8,90.49c0,.27-.3.49-.68.49s-.69-.22-.69-.49.31-.49.69-.49S86.8,90.22,86.8,90.49Z"/><path class="cls-20" d="M86.63,90.4c0,.21-.25.38-.55.38s-.55-.17-.55-.38.24-.39.55-.39S86.63,90.19,86.63,90.4Z"/><path class="cls-22" d="M86.31,90.27c0,.11-.14.21-.31.21s-.3-.1-.3-.21.13-.22.3-.22S86.31,90.15,86.31,90.27Z"/><path class="cls-22" d="M85.94,90.57s0,.07-.11.07-.1,0-.1-.07,0-.07.1-.07S85.94,90.53,85.94,90.57Z"/><path class="cls-21" d="M89.72,90.49c0,.27-.31.49-.69.49s-.69-.22-.69-.49S88.65,90,89,90,89.72,90.22,89.72,90.49Z"/><path class="cls-20" d="M89.54,90.4c0,.21-.25.38-.55.38s-.55-.17-.55-.38S88.69,90,89,90,89.54,90.19,89.54,90.4Z"/><path class="cls-22" d="M89.22,90.27c0,.11-.14.21-.31.21s-.3-.1-.3-.21.14-.22.3-.22S89.22,90.15,89.22,90.27Z"/><path class="cls-22" d="M88.85,90.57s0,.07-.1.07-.11,0-.11-.07,0-.07.11-.07S88.85,90.53,88.85,90.57Z"/><path class="cls-21" d="M92.63,90.49c0,.27-.31.49-.69.49s-.69-.22-.69-.49.31-.49.69-.49S92.63,90.22,92.63,90.49Z"/><path class="cls-20" d="M92.45,90.4c0,.21-.24.38-.55.38s-.54-.17-.54-.38.24-.39.54-.39S92.45,90.19,92.45,90.4Z"/><path class="cls-22" d="M92.13,90.27c0,.11-.13.21-.3.21s-.31-.1-.31-.21.14-.22.31-.22S92.13,90.15,92.13,90.27Z"/><path class="cls-22" d="M91.76,90.57s-.05.07-.1.07-.1,0-.1-.07,0-.07.1-.07S91.76,90.53,91.76,90.57Z"/><path class="cls-21" d="M95.54,90.49c0,.27-.31.49-.68.49s-.69-.22-.69-.49.31-.49.69-.49S95.54,90.22,95.54,90.49Z"/><path class="cls-20" d="M95.36,90.4c0,.21-.24.38-.55.38s-.54-.17-.54-.38.24-.39.54-.39S95.36,90.19,95.36,90.4Z"/><path class="cls-22" d="M95,90.27c0,.11-.13.21-.3.21s-.3-.1-.3-.21.13-.22.3-.22S95,90.15,95,90.27Z"/><path class="cls-22" d="M94.67,90.57s0,.07-.1.07-.1,0-.1-.07,0-.07.1-.07S94.67,90.53,94.67,90.57Z"/><path class="cls-21" d="M98.45,90.49c0,.27-.3.49-.68.49s-.69-.22-.69-.49.31-.49.69-.49S98.45,90.22,98.45,90.49Z"/><path class="cls-20" d="M98.28,90.4c0,.21-.25.38-.55.38s-.55-.17-.55-.38.25-.39.55-.39S98.28,90.19,98.28,90.4Z"/><path class="cls-22" d="M98,90.27c0,.11-.14.21-.31.21s-.3-.1-.3-.21.13-.22.3-.22S98,90.15,98,90.27Z"/><path class="cls-22" d="M97.59,90.57s0,.07-.11.07-.1,0-.1-.07.05-.07.1-.07S97.59,90.53,97.59,90.57Z"/><path class="cls-21" d="M101.37,90.49c0,.27-.31.49-.69.49s-.69-.22-.69-.49.31-.49.69-.49S101.37,90.22,101.37,90.49Z"/><path class="cls-20" d="M101.19,90.4c0,.21-.25.38-.55.38s-.54-.17-.54-.38.24-.39.54-.39S101.19,90.19,101.19,90.4Z"/><path class="cls-22" d="M100.87,90.27c0,.11-.14.21-.31.21s-.3-.1-.3-.21.13-.22.3-.22S100.87,90.15,100.87,90.27Z"/><path class="cls-22" d="M100.5,90.57s0,.07-.11.07-.09,0-.09-.07a.08.08,0,0,1,.09-.07C100.45,90.5,100.5,90.53,100.5,90.57Z"/><path class="cls-21" d="M104.28,90.49c0,.27-.31.49-.69.49s-.69-.22-.69-.49.31-.49.69-.49S104.28,90.22,104.28,90.49Z"/><path class="cls-20" d="M104.1,90.4c0,.21-.24.38-.55.38s-.54-.17-.54-.38.24-.39.54-.39S104.1,90.19,104.1,90.4Z"/><path class="cls-22" d="M103.78,90.27c0,.11-.14.21-.3.21s-.3-.1-.3-.21.13-.22.3-.22S103.78,90.15,103.78,90.27Z"/><path class="cls-22" d="M103.41,90.57s0,.07-.1.07-.11,0-.11-.07,0-.07.11-.07S103.41,90.53,103.41,90.57Z"/><path class="cls-8" d="M93.94,52.88h0a.27.27,0,0,1-.23-.29l.64-24.12a.25.25,0,0,1,.23-.26h0a.26.26,0,0,1,.22.29l-.64,24.1a.25.25,0,0,1-.22.28Z"/><path class="cls-9" d="M95,26.84c-.67,0-1.21.38-1.21.86s.54.86,1.21.86,1.23-.38,1.23-.86S95.63,26.84,95,26.84Zm0,1.34c-.37,0-.68-.21-.68-.49s.31-.48.68-.48.69.22.69.48S95.33,28.18,95,28.18Z"/><path class="cls-9" d="M95.78,53.25c-.12,0-.24-.07-.24-.16l-.45-24.8c0-.09.1-.16.22-.17h0c.13,0,.23.08.23.16L96,53.09c0,.08-.09.16-.23.16Z"/><path class="cls-5" d="M91.35,54.45l-.45-.07a4.83,4.83,0,0,1,.4-1c.39-.71.85-1,1.37-1a29.16,29.16,0,0,1,3.56.83l-.18.3a30.72,30.72,0,0,0-3.41-.81C92.09,52.68,91.57,53.72,91.35,54.45Z"/><path class="cls-6" d="M95.72,55.13a.33.33,0,0,1-.38.14h0c-.15,0-.24-.15-.19-.26l1.21-2.7a.33.33,0,0,1,.37-.15h0c.15,0,.24.16.19.27Z"/><path class="cls-7" d="M95.36,55c.19,0,.32.16.27.27h0c0,.11-.24.16-.44.12l-4.68-1c-.2,0-.32-.17-.27-.27h0a.39.39,0,0,1,.43-.13Z"/><path class="cls-14" d="M93.68,1.66S94.47.25,94.84.25,96,1.62,96,1.62s2.92.34,2.92.64-2.1.91-2.1.91.76,1.74.49,1.92-2.34-1.57-2.34-1.57-1.86,1.69-2.3,1.6S93,3.28,93,3.28s-2.08-.76-2-1A12.82,12.82,0,0,1,93.68,1.66Z"/><path class="cls-13" d="M94.84.25V2.48h0c-.18.23-.36.45-.55.67l-.51.67-.57.66-.29.33-.29.33.26-.34.26-.34.54-.67.55-.67.55-.66V.8C94.79.62,94.83.43,94.84.25Z"/><path class="cls-13" d="M90.92,2.33h1l1,0,2,.06h0l.61.66.65.69.6.66c.19.22.39.44.58.67l-.63-.65L96,3.81l-.61-.64-.62-.65h0c-.65,0-1.3,0-2-.08l-1,0Z"/><path class="cls-13" d="M94.84,2.47H95l.46-.05.64,0,.74,0,.74,0h1.12l-.45,0-.65,0-.74,0-.74,0H94.84Z"/><path class="cls-25" d="M96.57,4.22c-.62.11-1.69-1-1.69-1s-1.19,1.11-1.59,1,.45-1.35.45-1.35A9.44,9.44,0,0,1,91,2.29s0,0,0,0c0,.2,2,1,2,1s-.79,1.76-.34,1.82,2.31-1.6,2.31-1.6S97,5.26,97.28,5.09s-.48-1.92-.48-1.92,2.08-.62,2.08-.91c0,0,0,0,0,0a20.72,20.72,0,0,1-2.92.6S97.18,4.1,96.57,4.22Z"/><path class="cls-13" d="M95,4.41a3.09,3.09,0,0,1,2.51,1c1-.49,3.82-.17,4.08,1A5,5,0,0,0,98,8H91.71a4.92,4.92,0,0,0-3.5-1.68c.25-1.12,3.07-1.46,4.08-1a3.08,3.08,0,0,1,2.51-1Z"/><path class="cls-12" d="M88.21,6.34A4.94,4.94,0,0,1,91.73,8h1.18C91.51,4.53,88.21,6.34,88.21,6.34Z"/><path class="cls-12" d="M89.92,6.69a4.09,4.09,0,0,1,2,1.61l.49-.2C91.36,5.53,89.92,6.69,89.92,6.69Z"/><path class="cls-12" d="M95,5.2h-.12C93,5.2,93.22,7.33,93.34,8H96.5C96.61,7.33,96.87,5.2,95,5.2Z"/><path class="cls-12" d="M95,5.89h-.09c-1.44,0-1.25,1.61-1.15,2.11H96.1C96.19,7.5,96.39,5.89,95,5.89Z"/><path class="cls-12" d="M96.88,8H98a5,5,0,0,1,3.53-1.66h0C101.36,6.22,98.23,4.63,96.88,8Z"/><path class="cls-12" d="M99.86,6.69a4.09,4.09,0,0,0-2,1.61l-.49-.2C98.4,5.53,99.86,6.69,99.86,6.69Z"/><path class="cls-14" d="M99.37,8.89c0,1-2,1.75-4.46,1.75s-4.47-.78-4.47-1.75,2-1.46,4.47-1.46S99.37,7.92,99.37,8.89Z"/><path class="cls-14" d="M92.93,7.56c-1.46.2-2.5.65-2.5,1.35s1,1.29,2.5,1.58Z"/><path class="cls-26" d="M96.74,7.52v3c1.54-.28,2.62-.88,2.62-1.6S98.28,7.71,96.74,7.52Z"/><path class="cls-13" d="M100.54,9.8c-.29-1.08-2.71-1.64-5.65-1.64s-5.36.56-5.65,1.64Z"/><path class="cls-13" d="M100.54,9.8c-.19-.67-1.21-1.15-2.67-1.41V9.8Z"/><path class="cls-27" d="M92,9.8V8.38c-1.49.26-2.53.74-2.71,1.42Z"/><path class="cls-13" d="M100.54,9.8A1.44,1.44,0,0,0,99.86,9,30.51,30.51,0,0,0,90,9a1.33,1.33,0,0,0-.69.78Z"/><path class="cls-28" d="M92.64,5.42a3.09,3.09,0,0,1,2.59-.86C94.59,4.33,93,4.55,92.64,5.42Z"/><path class="cls-28" d="M88.56,6A4.3,4.3,0,0,1,92,5.53,3.14,3.14,0,0,0,88.56,6Z"/><polygon class="cls-6" points="92.41 9.04 92.4 9.04 92.41 9.04 92.41 9.04"/><path class="cls-5" d="M95.56,8.94H95a27.16,27.16,0,0,0,.38,6c1.66,0,3.23-.06,4.7-.14a17,17,0,0,0-4.44-5.9Z"/><path class="cls-6" d="M92.4,9c-10.23.64-16.08,4.23-16.08,4.23,1,.19,2,.35,2.92.48C80.42,12.66,83.93,10.15,92.4,9Z"/><path class="cls-6" d="M97.55,9c3.68,1,8.28,2.56,11.31,4.94,1-.15,1.76-.3,2.43-.43-3.05-2-8.67-3.52-13.22-4.47Z"/><path class="cls-5" d="M98.07,9c4.55,1,10.17,2.48,13.2,4.49a13.27,13.27,0,0,1,2.17-.27S108.49,9.51,98.07,9Z"/><path class="cls-6" d="M95.76,8.94h-.14a17,17,0,0,1,4.44,5.9c2-.11,3.83-.27,5.43-.49C103,11.34,98.68,9.73,95.76,8.94Z"/><path class="cls-5" d="M97.55,9c-.58,0-1.18,0-1.79,0,2.92.79,7.25,2.4,9.74,5.44,1.27-.15,2.39-.31,3.37-.46C105.83,11.54,101.23,10,97.55,9Z"/><path class="cls-6" d="M93.68,9c-.44,0-.86,0-1.27.06-6,1.49-8.75,3.83-9.89,5.2,1.12.14,2.21.25,3.27.35C86.67,13.2,88.83,10.71,93.68,9Z"/><path class="cls-5" d="M92.41,9h0c-8.48,1.11-12,3.62-13.16,4.73,1.11.18,2.21.33,3.28.49C83.66,12.87,86.38,10.53,92.41,9Z"/><path class="cls-5" d="M93.68,9c-4.85,1.73-7,4.22-7.89,5.61,1.67.15,3.29.25,4.85.32A8.69,8.69,0,0,1,94.42,9Z"/><path class="cls-6" d="M95,8.94h-.56a8.7,8.7,0,0,0-3.79,6c1.65.07,3.23.1,4.73.08A27.07,27.07,0,0,1,95,8.94Z"/><g class="cls-3"><path class="cls-19" d="M104.92,9.89c.29.29,1.18,1.75-9.93,1.75-10.58,0-10.12-1.24-9.75-1.59a31.6,31.6,0,0,0-8.88,3.21c1,.19,1.94.36,2.92.49s2.21.33,3.28.49,2.2.25,3.27.35c1.66.15,3.28.25,4.84.32S93.9,15,95.4,15c1.66,0,3.23-.06,4.7-.14,2-.11,3.83-.27,5.42-.49,1.27-.14,2.39-.3,3.37-.46s1.76-.3,2.44-.43a14.16,14.16,0,0,1,2.16-.26A24.33,24.33,0,0,0,104.92,9.89Z"/></g><path class="cls-21" d="M131.75,14.87c-1.08,1.79-4.15,8-4.15,8H114.12l3.71-8.74C122.55,11.79,132.82,13.09,131.75,14.87Z"/><path class="cls-21" d="M58,14.87c1.08,1.8,4.15,8,4.15,8H75.66L72,14.12C67.21,11.79,57,13.09,58,14.87Z"/><path class="cls-21" d="M79.8,12.49C74,12.49,72,14.12,72,14.12l3.71,8.74h12.5l-1.75-9S85.56,12.49,79.8,12.49Z"/><path class="cls-21" d="M117.81,14.11h0s-2.07-1.63-7.84-1.63c-5.17,0-6.38,1.13-6.58,1.36v.05l-1.75,9h12.48l3.71-8.74Z"/><path class="cls-21" d="M103.36,13.86l0,0s-1.57-2-8.19-2h-.55c-6.62,0-8.18,2-8.18,2l1.75,9h13.45l1.74-9Z"/><path class="cls-12" d="M131.75,15.32c-1.08,1.79-4.15,8-4.15,8H114.12l3.71-8.74C122.55,12.24,132.82,13.53,131.75,15.32Z"/><path class="cls-12" d="M58,15.32c1.08,1.79,4.15,8,4.15,8H75.66L72,14.56C67.21,12.24,57,13.53,58,15.32Z"/><path class="cls-13" d="M79.8,12.92C74,12.92,72,14.55,72,14.55l3.71,8.74h12.5l-1.75-8.94S85.56,12.92,79.8,12.92Z"/><path class="cls-13" d="M117.81,14.55h0s-2.07-1.63-7.84-1.63c-5.17,0-6.38,1.13-6.58,1.37v0l-1.75,9h12.48l3.71-8.74Z"/><path class="cls-14" d="M103.36,14.3l0,0s-1.57-2-8.19-2h-.55c-6.62,0-8.18,2-8.18,2l1.75,9h13.45l1.74-9Z"/><path class="cls-29" d="M63.49,22.3H73.76l-2.87-6.41a15.44,15.44,0,0,0-11.15-.34Z"/><path class="cls-12" d="M86.54,22.3H76.8l-3-7a16.36,16.36,0,0,1,11.21,0Z"/><path class="cls-29" d="M126.41,22.3H116.13L119,15.89a15.44,15.44,0,0,1,11.15-.34Z"/><path class="cls-12" d="M103.35,22.3h9.75l3.05-7a16.25,16.25,0,0,0-11.21,0Z"/><path class="cls-13" d="M89.48,22.3h10.86L101.86,15A17.4,17.4,0,0,0,88,15Z"/><path class="cls-21" d="M92.06,17s-.06.2-.32.11-.16-.49.49-.49,1,1-.31,1.17-2.07-1-1.13-1.82,3.07-.81,3.82.18-.67,2-2.15,2.76c-1.31.69-1.33,1.74-.25,2.11s1.75-.31,1.31-.68c-.06.31-1.16.23-1-.43s1.79-.63,2.06.08-.52,2-2.46,1.5c-1.46-.37-1.92-1.84.1-2.78s2.53-1.39,2.43-2.17-2.06-1.33-3.36-.49A.7.7,0,0,0,91,17a.71.71,0,0,0,.58.39C92.06,17.39,92.25,17.13,92.06,17Z"/><path class="cls-21" d="M97.53,17s.06.2.33.11.15-.49-.49-.49-1,1,.31,1.17,2.07-1,1.13-1.82-3.07-.81-3.82.18.67,2,2.15,2.76c1.31.69,1.33,1.74.25,2.11s-1.75-.31-1.3-.68c0,.31,1.15.23,1-.43S95.27,19.25,95,20s.49,2,2.44,1.5c1.46-.37,2-1.84-.09-2.78s-2.54-1.39-2.44-2.17S97,15.18,98.27,16A.69.69,0,0,1,98,17.35C97.51,17.39,97.32,17.13,97.53,17Z"/><path class="cls-21" d="M77.28,17s0,.2-.3.11-.27-.49.38-.49,1.22,1,0,1.17-2.3-1-1.55-1.82,2.88-.81,3.86.18-.19,2-1.5,2.76c-1.14.69-.91,1.74.25,2.11s1.67-.31,1.15-.68c0,.31-1.1.23-1.1-.43s1.63-.63,2.07.08,0,2-2.08,1.5c-1.53-.38-2.36-1.85-.56-2.78s2.2-1.39,2-2.17-2.39-1.34-3.49-.49c-.67.49,0,1.27.57,1.33S77.52,17.13,77.28,17Z"/><path class="cls-21" d="M82.77,17a.28.28,0,0,0,.35.11c.25-.1,0-.49-.62-.49s-.74,1,.59,1.17,1.85-1,.71-1.82-3.28-.81-3.79.18,1.15,2,2.81,2.76c1.46.69,1.74,1.74.75,2.11s-1.83-.31-1.46-.68c.13.31,1.2.23.89-.43s-2-.63-2,.08,1,2,2.82,1.5c1.35-.37,1.49-1.84-.75-2.78s-2.87-1.38-3-2.17,1.76-1.34,3.25-.49c.91.49.59,1.27.07,1.33S82.6,17.13,82.77,17Z"/><path class="cls-21" d="M62.91,17s0,.2-.27.11-.39-.49.26-.49,1.46,1,.26,1.17-2.54-1-2-1.82,2.67-.81,3.9.18.32,2-.8,2.76c-1,.69-.49,1.74.78,2.11s1.6-.31,1-.68c.09.31-1,.23-1.22-.43s1.46-.63,2.1.08.49,2-1.72,1.5c-1.63-.37-2.83-1.84-1.27-2.78s1.86-1.38,1.39-2.17-2.72-1.34-3.61-.49c-.54.49.34,1.27.9,1.33S63.2,17.13,62.91,17Z"/><path class="cls-21" d="M68.4,17a.36.36,0,0,0,.39.11c.22-.1-.09-.49-.74-.49s-.49,1,.88,1.17,1.61-1,.24-1.82-3.48-.81-3.74.18,1.67,2,3.51,2.76c1.64.69,2.18,1.74,1.28,2.11s-1.91-.31-1.64-.68c.21.31,1.27.23.79-.43s-2.1-.63-2,.08a2.6,2.6,0,0,0,3.2,1.5c1.25-.37,1-1.84-1.46-2.78s-3.22-1.39-3.5-2.17S67,15.18,68.7,16c1,.49.92,1.28.4,1.33S68.27,17.13,68.4,17Z"/><path class="cls-21" d="M112.78,17s0,.2.31.11.26-.49-.39-.49-1.22,1,0,1.17,2.3-1,1.56-1.82-2.89-.81-3.87.18.19,2,1.5,2.76c1.15.69.91,1.74-.25,2.11s-1.67-.31-1.15-.68c0,.31,1.1.23,1.11-.43s-1.64-.63-2.08.08,0,2,2.1,1.5c1.53-.37,2.37-1.84.56-2.78s-2.2-1.39-1.92-2.17,2.39-1.33,3.48-.49c.67.49,0,1.28-.56,1.33S112.53,17.13,112.78,17Z"/><path class="cls-21" d="M107.29,17a.27.27,0,0,1-.35.11c-.25-.1,0-.49.62-.49s.74,1-.59,1.17-1.85-1-.7-1.82,3.26-.81,3.78.18-1.15,2-2.81,2.76c-1.46.69-1.74,1.74-.75,2.11s1.83-.31,1.47-.68c-.14.31-1.21.23-.91-.43s2-.63,2,.08-1,2-2.82,1.5c-1.35-.37-1.46-1.84.75-2.78s2.87-1.39,3-2.17-1.76-1.33-3.25-.49c-.9.49-.59,1.28-.06,1.33S107.47,17.13,107.29,17Z"/><path class="cls-21" d="M127.15,17s-.05.2.27.11.39-.49-.26-.49-1.46,1-.27,1.17,2.55-1,2-1.82-2.68-.81-3.9.18-.32,2,.79,2.76.49,1.74-.77,2.11-1.6-.31-1-.68c-.09.31,1,.23,1.21-.43s-1.46-.63-2.09.08-.49,2,1.72,1.5c1.63-.37,2.83-1.84,1.27-2.78s-1.86-1.39-1.38-2.17,2.72-1.33,3.61-.49c.54.49-.33,1.28-.9,1.33S126.86,17.13,127.15,17Z"/><path class="cls-21" d="M121.66,17a.35.35,0,0,1-.38.11c-.23-.1.09-.49.73-.49s.49,1-.87,1.17-1.62-1-.25-1.82,3.48-.81,3.74.18-1.67,2-3.5,2.76c-1.65.69-2.19,1.74-1.29,2.11s1.9-.31,1.64-.68c-.21.31-1.26.23-.78-.43s2.08-.63,2,.08a2.58,2.58,0,0,1-3.2,1.5c-1.25-.37-1-1.84,1.47-2.78s3.21-1.39,3.5-2.17-1.41-1.33-3.11-.49c-1,.49-.92,1.28-.41,1.33S121.78,17.13,121.66,17Z"/><g class="cls-3"><path class="cls-13" d="M94.87,21.57c-3.49,0-5.7-3.95-6.78-6.56L88,15l1.46,7.26h10.86L101.86,15h0C100.62,17.93,98.29,21.57,94.87,21.57Z"/></g><g class="cls-3"><path class="cls-12" d="M85,15.36c-.32,3.05-1.42,6.48-4.52,6.43-3.9-.06-6.71-6.53-6.71-6.53l3,7h9.75Z"/></g><g class="cls-3"><path class="cls-12" d="M104.93,15.36c.32,3.05,1.42,6.48,4.52,6.43,3.9-.06,6.7-6.53,6.7-6.53l-3,7h-9.74Z"/></g><g class="cls-3"><path class="cls-30" d="M73.76,22.3l-2.87-6.41a12.88,12.88,0,0,0-2.32-.77c.34,2.55.41,6-1.67,6.37s-5-3-7-5.7l3.61,6.51Z"/></g><g class="cls-3"><path class="cls-30" d="M116.18,22.3l2.89-6.41a12.53,12.53,0,0,1,2.31-.77c-.35,2.55-.41,6,1.67,6.37s5-3,7-5.7l-3.61,6.51Z"/></g><path class="cls-28" d="M89.33,14.87a18.24,18.24,0,0,1,9.1-.46C96.78,13.54,92.55,13.3,89.33,14.87Z"/><path class="cls-12" d="M74.52,15.56A15.14,15.14,0,0,1,81,14.81C80,14.31,75.9,14.47,74.52,15.56Z"/><path class="cls-12" d="M115.54,15.56a15.14,15.14,0,0,0-6.47-.75C110.12,14.31,114.17,14.47,115.54,15.56Z"/><path class="cls-29" d="M60.51,15.7s1.85-1,5.7-.54A7.54,7.54,0,0,0,60.51,15.7Z"/><path class="cls-29" d="M129.71,15.7s-1.84-1-5.69-.54A7.51,7.51,0,0,1,129.71,15.7Z"/><polygon class="cls-14" points="94.94 27.28 94.95 27.25 94.94 27.25 94.94 27.28"/><polygon class="cls-31" points="79.25 27.25 88.21 27.25 75.66 23.3 79.25 27.25"/><polygon class="cls-31" points="88.21 27.25 94.94 27.25 88.15 23.3 88.21 27.25"/><polygon class="cls-31" points="101.67 27.25 110.4 27.25 114.22 23.3 101.67 27.25"/><polygon class="cls-31" points="94.95 27.25 95.23 27.25 96.8 27.25 101.67 27.25 101.73 23.3 94.95 27.25"/><polygon class="cls-32" points="88.15 23.3 94.94 27.25 94.95 27.25 94.95 23.3 88.15 23.3"/><polygon class="cls-18" points="94.95 23.3 94.95 27.25 101.73 23.3 94.95 23.3"/><polygon class="cls-18" points="69.09 23.3 79.24 27.24 75.66 23.3 69.09 23.3"/><polygon class="cls-32" points="62.19 23.3 79.25 27.25 79.24 27.24 69.09 23.3 62.19 23.3"/><polygon class="cls-32" points="114.22 23.3 110.4 27.25 120.56 23.3 114.22 23.3"/><polygon class="cls-18" points="120.56 23.3 110.4 27.25 127.47 23.3 120.56 23.3"/><polygon class="cls-32" points="75.66 23.3 88.21 27.25 81.94 23.3 75.66 23.3"/><polygon class="cls-18" points="81.94 23.3 88.21 27.25 88.15 23.3 81.94 23.3"/><polygon class="cls-32" points="101.73 23.3 101.67 27.25 101.81 27.2 108.02 23.3 101.73 23.3"/><polygon class="cls-18" points="108.02 23.3 101.81 27.2 114.22 23.3 108.02 23.3"/><rect class="cls-18" x="88.02" y="27.65" width="13.72" height="0.41"/><rect class="cls-33" x="79.24" y="27.24" width="31.16" height="0.41"/></g><rect class="cls-17" width="196.09" height="96.68"/></g></g></svg>