<svg xmlns="http://www.w3.org/2000/svg" viewBox="0 0 151.61 196.5"><defs><style>.cls-1{isolation:isolate;}.cls-2{fill:#571983;}.cls-3{fill:#8a4ead;}.cls-33,.cls-4{opacity:0.5;}.cls-26,.cls-27,.cls-29,.cls-31,.cls-32,.cls-4{mix-blend-mode:multiply;}.cls-5{fill:#d68c5b;}.cls-6{fill:#54d2dc;}.cls-7{fill:#ff93d0;}.cls-8{fill:#dd54a9;}.cls-9{fill:#8025c1;}.cls-10{fill:#cb73ff;}.cls-11{fill:#b52d88;}.cls-12{fill:#515149;}.cls-13,.cls-29,.cls-37{fill:#ffa402;}.cls-14,.cls-32,.cls-33{fill:#ffc502;}.cls-15,.cls-30{fill:#ffec02;}.cls-16,.cls-26{fill:#3c979e;}.cls-17{fill:#b86a96;}.cls-18{fill:none;}.cls-19{fill:#bf6202;}.cls-20{fill:#939393;}.cls-21{fill:#ffe902;}.cls-22{fill:#d37b04;}.cls-23{fill:#ffff02;}.cls-23,.cls-30,.cls-33,.cls-37,.cls-38{mix-blend-mode:screen;}.cls-24{fill:#9253b8;}.cls-25{fill:#b8aa01;}.cls-28{fill:#ffcc02;}.cls-31{fill:#ffc302;}.cls-34{fill:#fff;}.cls-35,.cls-38{fill:#ff8502;}.cls-36{fill:#d36c05;}.cls-39{fill:red;}.cls-40{fill:#bf2c02;}.cls-41{fill:#934703;}</style></defs><title>設施-資產 24遊樂設施</title><g class="cls-1"><g id="圖層_2" data-name="圖層 2"><g id="Layer_1" data-name="Layer 1"><path class="cls-2" d="M37.15,92.07a.52.52,0,0,0,.53-.23l15.7-33.76c.08-.18-.05-.37-.3-.42a.54.54,0,0,0-.6.2L36.79,91.63c-.09.18,0,.37.29.42Z"/><path class="cls-3" d="M53.92,54.56c-1.38,0-2.5.79-2.5,1.77s1.12,1.77,2.5,1.77,2.51-.79,2.51-1.77S55.31,54.56,53.92,54.56Zm0,2.76c-.77,0-1.4-.44-1.4-1s.63-1,1.4-1,1.41.45,1.41,1S54.7,57.32,53.92,57.32Z"/><g class="cls-4"><path class="cls-5" d="M46.74,95.26c-.38-.08-.82-.15-1.17-.21v.56s.83-.13.89.33,0,.83.16,2.2c0,.42.09.93.16,1.54a.25.25,0,0,1,0,.07c.22,0,.47,0,.71,0,0-.34,0-.76,0-1.27C47.46,96.14,47.53,95.43,46.74,95.26Z"/></g><path class="cls-6" d="M43,96.18l.75.11A8.57,8.57,0,0,0,44,94.6c.05-1.27-.36-2-1.21-2.16a51.15,51.15,0,0,0-6.19-.33v.54a54.14,54.14,0,0,1,6,.31C43.47,93.13,43.36,95,43,96.18Z"/><path class="cls-7" d="M35.69,95.27c0,.2.18.37.44.39h0c.27,0,.51-.13.54-.32l.58-4.7c0-.2-.17-.36-.44-.39h0c-.27,0-.51.13-.53.33Z"/><path class="cls-8" d="M36.34,95.25c-.34,0-.63.12-.66.3h0c0,.19.22.37.56.39l8.09.6c.34,0,.63-.11.66-.3h0c0-.19-.22-.36-.55-.39Z"/><path class="cls-3" d="M40.52,92.39a.47.47,0,0,0,.42-.25l13-34.31c.07-.17-.08-.36-.34-.4a.5.5,0,0,0-.57.24L40,92c-.06.18.08.36.33.41Z"/><path class="cls-9" d="M132.88,92.82a.57.57,0,0,1-.57-.18l-23.81-35c-.12-.16,0-.36.22-.44a.57.57,0,0,1,.63.16l23.81,34.95c.12.17,0,.37-.22.45Z"/><path class="cls-10" d="M143.11,88.06a.58.58,0,0,1-.53-.11L108.83,57.4a.28.28,0,0,1,.08-.47.6.6,0,0,1,.67.06l33.74,30.55a.27.27,0,0,1-.08.47Z"/><path class="cls-10" d="M107.6,54.56c-1.37,0-2.5.79-2.5,1.77s1.13,1.77,2.5,1.77,2.51-.79,2.51-1.77S109,54.56,107.6,54.56Zm0,2.76c-.77,0-1.4-.44-1.4-1s.63-1,1.4-1,1.41.45,1.41,1S108.38,57.32,107.6,57.32Z"/><path class="cls-7" d="M134.56,94.52a.39.39,0,0,1-.31-.13l-1.69-2.19a.17.17,0,0,1,0-.19.26.26,0,0,1,.17-.15l11.16-4.23a.47.47,0,0,1,.49.1.23.23,0,0,1-.15.34l1.34,2.38-10.66,3.7c.08.12,0,.27-.15.34A.47.47,0,0,1,134.56,94.52Z"/><polygon class="cls-8" points="145.81 90 134.38 93.89 133.48 96.21 146.88 91.89 145.81 90"/><polygon class="cls-11" points="146.88 91.89 133.48 96.21 133.97 96.89 147.3 92.63 146.88 91.89"/><path d="M134.72,93.75a.5.5,0,0,1-.32,0,.22.22,0,0,1-.06-.38c.15-.13,3.82-3.31,10.7-3.54.21,0,.38.1.39.25s-.16.23-.36.28a37.76,37.76,0,0,0-10.14,3.35A.78.78,0,0,1,134.72,93.75Z"/><path class="cls-12" d="M135,93.3s3.35-2.45,9.66-3.23C141.5,90.17,137.62,91,135,93.3Z"/><path class="cls-6" d="M133.48,96.46a.38.38,0,0,1-.31-.14c-.06-.06-1.2-1.6-1.67-2.32s1.52-2.6,1.94-2.94a.45.45,0,0,1,.5,0,.2.2,0,0,1,0,.35c-1.07.88-2.07,2.05-1.84,2.41.46.71,1.64,2.28,1.66,2.3s0,.27-.16.34A.41.41,0,0,1,133.48,96.46Z"/><path class="cls-6" d="M146.88,92.14a.41.41,0,0,1-.33-.15l-2.67-4.06c-.08-.13,0-.28.17-.34a.44.44,0,0,1,.48.13l2.67,4.06c.09.13,0,.27-.17.33A.37.37,0,0,1,146.88,92.14Z"/><path class="cls-2" d="M103.88,96.48a.44.44,0,0,1-.46-.28L95.24,57.84c0-.18.15-.35.41-.38a.47.47,0,0,1,.53.28l8.17,38.36c0,.18-.14.36-.4.38Z"/><path class="cls-3" d="M114,94.65a.51.51,0,0,1-.46-.23L96.22,57.64c-.09-.17,0-.36.29-.42a.54.54,0,0,1,.6.21L114.39,94.2c.09.18,0,.37-.3.43Z"/><path class="cls-7" d="M105.19,97.43l-.74-1.53s6.24-1.81,9.51-1.78a6.64,6.64,0,0,1,1.61,1.7Z"/><polygon class="cls-11" points="114.45 98.07 103.71 99.63 103.88 100.07 114.8 98.45 116.07 96.46 115.8 96.1 114.45 98.07"/><polygon class="cls-8" points="115.8 96.1 115.57 95.82 105.19 97.44 103.71 99.63 114.45 98.07 115.8 96.1"/><path class="cls-6" d="M103.75,99.85a.38.38,0,0,1-.3-.12c-.31-.35-1.8-2.13-1-2.86a7.31,7.31,0,0,1,3.29-1.54.4.4,0,0,1,.46.15c.07.13,0,.27-.21.32a6.45,6.45,0,0,0-3,1.39c-.38.33.39,1.55,1,2.27a.22.22,0,0,1-.11.35A.65.65,0,0,1,103.75,99.85Z"/><path class="cls-12" d="M105.3,97.77a23.24,23.24,0,0,1,9.85-1.54A16.05,16.05,0,0,0,105.3,97.77Z"/><path class="cls-6" d="M114.36,98.19a.41.41,0,0,1-.31-.12c-2.07-2.59-2-2.91-.76-3.72l.16-.11a1.15,1.15,0,0,1,.77-.15c1,.17,1.8,1.69,2,2,.08.13,0,.27-.21.32a.39.39,0,0,1-.45-.15c-.39-.75-1.06-1.6-1.46-1.67,0,0,0,0-.11,0l-.17.11c-.9.58-1,.67.9,3.1.09.12,0,.27-.14.34A.32.32,0,0,1,114.36,98.19Z"/><path class="cls-3" d="M95.72,54.56c-1.37,0-2.49.79-2.49,1.77s1.12,1.77,2.49,1.77,2.52-.79,2.52-1.77S97.11,54.56,95.72,54.56Zm0,2.76c-.77,0-1.39-.44-1.39-1s.62-1,1.39-1,1.41.45,1.41,1S96.51,57.32,95.72,57.32Z"/><path class="cls-6" d="M4,96.64a.33.33,0,0,1-.17,0c-.18-.07-.23-.22-.13-.34S5,94.68,5.7,94c.42-.43.7-.7,1.09-.68a.81.81,0,0,1,.63.43c.29.4.73,1,.73,1S8.18,95,8,95a.42.42,0,0,1-.47-.1s-.45-.58-.75-1c0,0,0-.07-.06-.09a4.31,4.31,0,0,0-.43.41c-.69.71-2,2.26-2,2.28A.41.41,0,0,1,4,96.64Z"/><path class="cls-7" d="M14.07,102.25a.57.57,0,0,1-.37-.12.27.27,0,0,1,.06-.47h0a6.55,6.55,0,0,0,1.38-1.43c1-1.27.84-1.36.14-1.71l-.07,0c-1-.52-2.28-1.17-4.73-2.3l-.91-.43a6.94,6.94,0,0,0-1.35-.56c-.1,0-.31.19-.53.38-.88.82-2.19,2.31-2.2,2.33a.61.61,0,0,1-.65.11c-.23-.1-.3-.31-.16-.46S6,96,6.94,95.16s1.54-.73,3.16,0c.25.13.55.27.9.43,2.46,1.14,3.74,1.79,4.77,2.32l.07,0c1.39.71,1.11,1.33.14,2.57a7.09,7.09,0,0,1-1.61,1.63A.6.6,0,0,1,14.07,102.25Z"/><path class="cls-8" d="M14.32,102.23a.7.7,0,0,1-.25,0l-10-4.38a.41.41,0,0,1-.21-.2L3.5,96.53c-.06-.18.1-.36.35-.4a.5.5,0,0,1,.58.24l.32.94,9.82,4.3c.22.1.3.3.15.46A.54.54,0,0,1,14.32,102.23Z"/><path class="cls-9" d="M16.31,98.66c-.19-.09-.26-.27-.15-.42L44.29,57.83a.58.58,0,0,1,.64-.16c.23.08.32.29.21.45L17,98.54a.59.59,0,0,1-.63.15S16.33,98.68,16.31,98.66Z"/><path class="cls-10" d="M8.08,94.75a.25.25,0,0,1,0-.39l35.45-37a.61.61,0,0,1,.65-.09c.22.11.29.31.14.47l-35.46,37a.6.6,0,0,1-.65.09A.41.41,0,0,1,8.08,94.75Z"/><path class="cls-10" d="M45.33,54.56c-1.38,0-2.5.79-2.5,1.77S44,58.1,45.33,58.1s2.51-.79,2.51-1.77S46.71,54.56,45.33,54.56Zm0,2.76c-.78,0-1.41-.44-1.41-1s.63-1,1.41-1,1.41.45,1.41,1S46.11,57.32,45.33,57.32Z"/><rect class="cls-13" x="61.99" y="55.39" width="27.75" height="120.71"/><rect class="cls-14" x="66.78" y="55.67" width="18.17" height="120.43"/><rect class="cls-15" x="70.96" y="55.67" width="9.81" height="120.22"/><polygon class="cls-7" points="75.01 73.18 75.06 73.17 75.01 73.17 75.01 73.18"/><polygon class="cls-7" points="75.03 65.51 75.03 65.51 75.06 65.51 75.03 65.51"/><polygon class="cls-7" points="65.19 69.39 68.37 73.1 71.69 69.31 68.51 65.6 65.19 69.39"/><polygon class="cls-6" points="81.71 65.6 81.63 65.51 75.06 65.51 78.38 69.39 81.71 65.6"/><polygon class="cls-6" points="71.69 69.31 75.03 65.51 68.59 65.51 68.51 65.6 71.69 69.31"/><polygon class="cls-7" points="68.59 65.51 68.44 65.51 68.51 65.6 68.59 65.51"/><polygon class="cls-7" points="88.23 65.51 88.14 65.51 88.18 65.56 88.23 65.51"/><polygon class="cls-16" points="89.74 67.38 89.74 65.51 88.23 65.51 88.18 65.56 89.74 67.38"/><polygon class="cls-7" points="81.79 65.51 81.63 65.51 81.71 65.6 81.79 65.51"/><polygon class="cls-7" points="78.38 69.39 81.57 73.1 84.89 69.31 81.71 65.6 78.38 69.39"/><polygon class="cls-17" points="61.86 65.51 61.86 73.17 65.19 69.39 61.86 65.51"/><polygon class="cls-7" points="88.11 73.17 88.2 73.17 88.15 73.12 88.11 73.17"/><polygon class="cls-16" points="88.2 73.17 89.74 73.17 89.74 71.31 88.15 73.12 88.2 73.17"/><polygon class="cls-17" points="88.18 65.56 84.89 69.31 88.15 73.12 89.74 71.31 89.74 67.38 88.18 65.56"/><polygon class="cls-7" points="81.5 73.17 81.63 73.17 81.57 73.1 81.5 73.17"/><polygon class="cls-7" points="68.3 73.17 68.44 73.17 68.37 73.1 68.3 73.17"/><polygon class="cls-7" points="75.06 65.51 75.03 65.51 71.69 69.31 75.01 73.17 75.06 73.17 78.38 69.39 75.06 65.51"/><polygon class="cls-6" points="78.38 69.39 75.06 73.17 81.5 73.17 81.57 73.1 78.38 69.39"/><polygon class="cls-6" points="68.37 73.1 68.44 73.17 75.01 73.17 71.69 69.31 68.37 73.1"/><polygon class="cls-6" points="75.87 143.82 77.34 145.93 80.62 146.26 78.24 147.9 78.8 150.2 75.87 149.11 72.92 150.2 73.49 147.9 71.11 146.26 74.39 145.93 75.87 143.82"/><polygon class="cls-6" points="68.36 146.26 65.07 145.93 63.6 143.82 62.13 145.93 62.03 145.93 62.03 149.7 63.6 149.11 66.54 150.2 65.98 147.9 68.36 146.26"/><polygon class="cls-6" points="83.43 146.26 86.71 145.93 88.17 143.82 89.65 145.93 89.74 145.93 89.74 149.7 88.17 149.11 85.23 150.2 85.8 147.9 83.43 146.26"/><polygon class="cls-17" points="66.78 67.57 65.19 69.39 66.78 71.25 66.78 67.57"/><polygon class="cls-6" points="68.51 65.6 68.44 65.51 66.78 65.51 66.78 67.57 68.51 65.6"/><polygon class="cls-16" points="66.78 65.51 61.86 65.51 65.19 69.39 66.78 67.57 66.78 65.51"/><polygon class="cls-16" points="65.19 69.39 61.86 73.17 66.78 73.17 66.78 71.25 65.19 69.39"/><polygon class="cls-6" points="66.78 73.17 68.3 73.17 68.37 73.1 66.78 71.25 66.78 73.17"/><polygon class="cls-18" points="84.95 69.25 84.89 69.31 84.95 69.37 84.95 69.25"/><polygon class="cls-16" points="88.18 65.56 88.14 65.51 84.95 65.51 84.95 69.25 88.18 65.56"/><polygon class="cls-6" points="84.95 65.51 81.79 65.51 81.71 65.6 84.89 69.31 84.95 69.25 84.95 65.51"/><polygon class="cls-6" points="84.89 69.31 81.57 73.1 81.63 73.17 84.95 73.17 84.95 69.37 84.89 69.31"/><polygon class="cls-16" points="84.95 73.17 88.11 73.17 88.15 73.12 84.95 69.37 84.95 73.17"/><rect class="cls-19" x="57.14" y="175.37" width="37.31" height="7.33"/><rect class="cls-13" x="57.14" y="177.65" width="37.31" height="1.39"/><rect class="cls-13" x="57.14" y="181.32" width="37.31" height="1.38"/><g class="cls-4"><rect class="cls-20" x="57.14" y="175.37" width="6.32" height="7.33"/><rect class="cls-20" x="88.31" y="175.37" width="6.15" height="7.33"/></g><path class="cls-21" d="M55.24,184.73c0,.55-.64,1-1.42,1s-1.41-.45-1.41-1,.63-1,1.41-1S55.24,184.18,55.24,184.73Z"/><path class="cls-22" d="M54.16,183.76a.84.84,0,0,1,.37.67c0,.55-.64,1-1.42,1a1.69,1.69,0,0,1-.33,0,1.72,1.72,0,0,0,1,.33c.78,0,1.42-.45,1.42-1S54.77,183.87,54.16,183.76Z"/><path class="cls-23" d="M53.41,184.35c-.23.18-.53.26-.67.17s-.06-.31.17-.49a.72.72,0,0,1,.67-.17C53.72,184,53.65,184.17,53.41,184.35Z"/><path class="cls-23" d="M52.75,184.74a.14.14,0,0,1-.14.13c-.06,0-.1-.07-.08-.15a.17.17,0,0,1,.14-.14C52.74,184.59,52.77,184.66,52.75,184.74Z"/><path class="cls-21" d="M96.32,184.73c0,.55.63,1,1.41,1s1.42-.45,1.42-1-.63-1-1.42-1S96.32,184.18,96.32,184.73Z"/><path class="cls-22" d="M97.4,183.76a.84.84,0,0,0-.37.67c0,.55.63,1,1.41,1a1.79,1.79,0,0,0,.34,0,1.73,1.73,0,0,1-1,.33c-.78,0-1.41-.45-1.41-1S96.78,183.87,97.4,183.76Z"/><path class="cls-23" d="M98.15,184.35a.69.69,0,0,0,.67.17c.13-.09.06-.31-.17-.49a.72.72,0,0,0-.67-.17C97.84,184,97.92,184.17,98.15,184.35Z"/><path class="cls-23" d="M98.81,184.74c0,.08.08.14.14.13s.1-.07.08-.15a.16.16,0,0,0-.14-.14A.12.12,0,0,0,98.81,184.74Z"/><polygon class="cls-6" points="68.36 182.7 57.14 182.7 51.1 188.29 74.26 188.29 77.36 188.29 100.52 188.29 94.47 182.7 83.26 182.7 68.36 182.7"/><path class="cls-7" d="M69.64,193.44c-5.1,0-6.18,2.79-6.18,2.79H75.69S74.75,193.44,69.64,193.44Z"/><polygon class="cls-6" points="75.71 196.32 75.72 196.39 75.93 196.23 75.73 196.23 75.71 196.32"/><polygon class="cls-6" points="88.17 196.23 88.18 196.3 88.27 196.23 88.17 196.23"/><polygon class="cls-6" points="88.18 196.3 88.23 196.5 88.31 196.23 88.27 196.23 88.18 196.3"/><polygon class="cls-6" points="75.69 196.23 75.71 196.32 75.73 196.23 75.69 196.23"/><polygon class="cls-6" points="75.68 196.44 75.72 196.39 75.71 196.32 75.68 196.44"/><polygon class="cls-6" points="63.39 196.44 63.46 196.23 63.36 196.3 63.39 196.44"/><polygon class="cls-6" points="63.36 196.3 63.46 196.23 63.34 196.23 63.36 196.3"/><path class="cls-10" d="M75.74,190.69a11.35,11.35,0,0,1,6.36-1.8A9.72,9.72,0,0,1,88.31,191v-2.66H75.73v2.4Z"/><path class="cls-10" d="M69.68,188.89c4,0,5.94,1.69,6,1.8v-2.4H63.46v2.3A10.7,10.7,0,0,1,69.68,188.89Z"/><path class="cls-7" d="M82.1,188.89a11.35,11.35,0,0,0-6.36,1.8h0v2.49h0a11.35,11.35,0,0,1,6.36-1.8,9.72,9.72,0,0,1,6.21,2.06V191A9.72,9.72,0,0,0,82.1,188.89Z"/><path class="cls-24" d="M94.71,188.89c4.94,0,5.81,2.06,5.81,2.06v-2.66H88.31V191S89.77,188.89,94.71,188.89Z"/><path class="cls-24" d="M57,188.89a11.81,11.81,0,0,1,6.4,1.73l.05,0v-2.3H51.1v2.43A8.94,8.94,0,0,1,57,188.89Z"/><path class="cls-17" d="M94.71,188.89c-4.94,0-6.4,2.06-6.4,2.06v2.49s1.46-2.06,6.4-2.06,5.81,2.06,5.81,2.06V191S99.65,188.89,94.71,188.89Z"/><path class="cls-7" d="M69.68,188.89a10.7,10.7,0,0,0-6.22,1.7v2.49a10.7,10.7,0,0,1,6.22-1.7c4,0,5.94,1.69,6,1.8v-2.49C75.62,190.58,73.64,188.89,69.68,188.89Z"/><path class="cls-10" d="M75.73,193.18c-.11-.11-2.09-1.8-6-1.8a10.7,10.7,0,0,0-6.22,1.7v3.15s1.08-2.79,6.18-2.79,6,2.79,6,2.79h0Z"/><path class="cls-17" d="M94.46,193.44c-4.61,0-5.94,2.27-6.15,2.72v.07h12.2S99.57,193.44,94.46,193.44Z"/><path class="cls-10" d="M88.31,196.16v-2.72a9.72,9.72,0,0,0-6.21-2.06,11.35,11.35,0,0,0-6.36,1.8h0v3h.2s1.09-2.79,6.19-2.79,6,2.79,6,2.79h.1Z"/><path class="cls-6" d="M88.27,196.23h0v-.07Z"/><path class="cls-24" d="M100.52,193.44s-.87-2.06-5.81-2.06-6.4,2.06-6.4,2.06v2.72c.21-.45,1.54-2.72,6.15-2.72,5.11,0,6.05,2.79,6.05,2.79h0Z"/><path class="cls-7" d="M82.12,193.44c-5.1,0-6.19,2.79-6.19,2.79H88.17S87.23,193.44,82.12,193.44Z"/><path class="cls-17" d="M57.3,193.44c-5.11,0-6.19,2.79-6.19,2.79H63.34S62.41,193.44,57.3,193.44Z"/><path class="cls-25" d="M57.27,194.55c-3.06,0-3.72,1.68-3.72,1.68H60.9S60.34,194.55,57.27,194.55Z"/><path class="cls-15" d="M69.8,194.55c-3.07,0-3.72,1.68-3.72,1.68h7.36S72.87,194.55,69.8,194.55Z"/><path class="cls-15" d="M82.14,194.55c-3.06,0-3.72,1.68-3.72,1.68h7.35S85.22,194.55,82.14,194.55Z"/><path class="cls-25" d="M94.75,194.55c-3.07,0-3.72,1.68-3.72,1.68h7.35S97.82,194.55,94.75,194.55Z"/><path class="cls-24" d="M63.41,193.11a11.81,11.81,0,0,0-6.4-1.73,8.91,8.91,0,0,0-5.91,1.84v3h0s1.08-2.79,6.19-2.79,6,2.79,6,2.79h.12v-3.15Z"/><path class="cls-17" d="M57,191.38a11.81,11.81,0,0,1,6.4,1.73l.05,0v-2.49l-.05,0a11.81,11.81,0,0,0-6.4-1.73,8.94,8.94,0,0,0-5.91,1.83v2.5A8.91,8.91,0,0,1,57,191.38Z"/><polygon class="cls-16" points="94.47 182.7 88.31 182.7 88.31 188.29 100.52 188.29 94.47 182.7"/><polygon class="cls-16" points="57.14 182.7 51.1 188.29 63.46 188.29 63.46 182.7 57.14 182.7"/><path class="cls-26" d="M57.8,184.81c-.78,0-1.41.44-1.41,1s.63,1,1.41,1,1.41-.44,1.41-1S58.59,184.81,57.8,184.81Z"/><path class="cls-26" d="M63.78,184.81c-.78,0-1.41.44-1.41,1s.63,1,1.41,1,1.42-.44,1.42-1S64.57,184.81,63.78,184.81Z"/><path class="cls-26" d="M69.76,184.81c-.78,0-1.42.44-1.42,1s.64,1,1.42,1,1.41-.44,1.41-1S70.54,184.81,69.76,184.81Z"/><path class="cls-26" d="M75.74,184.81c-.78,0-1.42.44-1.42,1s.64,1,1.42,1,1.4-.44,1.4-1S76.51,184.81,75.74,184.81Z"/><path class="cls-26" d="M81.71,184.81c-.78,0-1.41.44-1.41,1s.63,1,1.41,1,1.41-.44,1.41-1S82.49,184.81,81.71,184.81Z"/><path class="cls-26" d="M87.69,184.81c-.78,0-1.41.44-1.41,1s.63,1,1.41,1,1.41-.44,1.41-1S88.47,184.81,87.69,184.81Z"/><path class="cls-26" d="M93.67,184.81c-.79,0-1.42.44-1.42,1s.63,1,1.42,1,1.41-.44,1.41-1S94.45,184.81,93.67,184.81Z"/><path class="cls-22" d="M59.21,185.19c0,.55-.62,1-1.41,1s-1.41-.45-1.41-1,.63-1,1.41-1S59.21,184.63,59.21,185.19Z"/><path class="cls-21" d="M58.85,185c0,.44-.5.79-1.13.79s-1.12-.35-1.12-.79.5-.79,1.12-.79S58.85,184.58,58.85,185Z"/><path class="cls-23" d="M58.19,184.73c0,.24-.28.44-.62.44s-.63-.2-.63-.44.28-.44.63-.44S58.19,184.49,58.19,184.73Z"/><path class="cls-23" d="M57.43,185.35c0,.08-.1.15-.21.15s-.21-.07-.21-.15.09-.14.21-.14S57.43,185.27,57.43,185.35Z"/><path class="cls-22" d="M65.2,185.19c0,.55-.63,1-1.42,1s-1.41-.45-1.41-1,.63-1,1.41-1S65.2,184.63,65.2,185.19Z"/><path class="cls-21" d="M64.82,185c0,.44-.5.79-1.12.79s-1.12-.35-1.12-.79.5-.79,1.12-.79S64.82,184.58,64.82,185Z"/><path class="cls-23" d="M64.17,184.73c0,.24-.28.44-.63.44s-.62-.2-.62-.44.28-.44.62-.44S64.17,184.49,64.17,184.73Z"/><path class="cls-23" d="M63.41,185.35c0,.08-.1.15-.21.15s-.21-.07-.21-.15.09-.14.21-.14S63.41,185.27,63.41,185.35Z"/><path class="cls-22" d="M71.17,185.19c0,.55-.63,1-1.41,1s-1.42-.45-1.42-1,.64-1,1.42-1S71.17,184.63,71.17,185.19Z"/><path class="cls-21" d="M70.8,185c0,.44-.5.79-1.12.79s-1.12-.35-1.12-.79.5-.79,1.12-.79S70.8,184.58,70.8,185Z"/><path class="cls-23" d="M70.15,184.73c0,.24-.28.44-.63.44s-.63-.2-.63-.44.28-.44.63-.44S70.15,184.49,70.15,184.73Z"/><path class="cls-23" d="M69.38,185.35c0,.08-.09.15-.21.15s-.2-.07-.2-.15.09-.14.2-.14S69.38,185.27,69.38,185.35Z"/><path class="cls-22" d="M77.14,185.19c0,.55-.63,1-1.4,1s-1.42-.45-1.42-1,.64-1,1.42-1S77.14,184.63,77.14,185.19Z"/><path class="cls-21" d="M76.78,185c0,.44-.5.79-1.13.79s-1.11-.35-1.11-.79.49-.79,1.11-.79S76.78,184.58,76.78,185Z"/><path class="cls-23" d="M76.12,184.73c0,.24-.27.44-.62.44s-.62-.2-.62-.44.27-.44.62-.44S76.12,184.49,76.12,184.73Z"/><path class="cls-23" d="M75.35,185.35c0,.08-.08.15-.2.15s-.21-.07-.21-.15.09-.14.21-.14S75.35,185.27,75.35,185.35Z"/><path class="cls-22" d="M83.12,185.19c0,.55-.63,1-1.41,1s-1.41-.45-1.41-1,.63-1,1.41-1S83.12,184.63,83.12,185.19Z"/><path class="cls-21" d="M82.76,185c0,.44-.51.79-1.13.79s-1.12-.35-1.12-.79.5-.79,1.12-.79S82.76,184.58,82.76,185Z"/><path class="cls-23" d="M82.1,184.73c0,.24-.28.44-.62.44s-.63-.2-.63-.44.28-.44.63-.44S82.1,184.49,82.1,184.73Z"/><path class="cls-23" d="M81.34,185.35c0,.08-.1.15-.21.15s-.21-.07-.21-.15.09-.14.21-.14S81.34,185.27,81.34,185.35Z"/><path class="cls-22" d="M89.1,185.19c0,.55-.63,1-1.41,1s-1.41-.45-1.41-1,.63-1,1.41-1S89.1,184.63,89.1,185.19Z"/><path class="cls-21" d="M88.73,185c0,.44-.5.79-1.12.79s-1.12-.35-1.12-.79.5-.79,1.12-.79S88.73,184.58,88.73,185Z"/><path class="cls-23" d="M88.08,184.73c0,.24-.28.44-.63.44s-.62-.2-.62-.44.27-.44.62-.44S88.08,184.49,88.08,184.73Z"/><path class="cls-23" d="M87.32,185.35c0,.08-.1.15-.22.15s-.2-.07-.2-.15.09-.14.2-.14S87.32,185.27,87.32,185.35Z"/><path class="cls-22" d="M95.08,185.19c0,.55-.63,1-1.41,1s-1.42-.45-1.42-1,.63-1,1.42-1S95.08,184.63,95.08,185.19Z"/><path class="cls-21" d="M94.71,185c0,.44-.5.79-1.13.79s-1.11-.35-1.11-.79.5-.79,1.11-.79S94.71,184.58,94.71,185Z"/><path class="cls-23" d="M94.06,184.73c0,.24-.29.44-.63.44s-.62-.2-.62-.44.27-.44.62-.44S94.06,184.49,94.06,184.73Z"/><path class="cls-23" d="M93.29,185.35c0,.08-.1.15-.21.15s-.21-.07-.21-.15.1-.14.21-.14S93.29,185.27,93.29,185.35Z"/><path class="cls-9" d="M73.85,108h0a.53.53,0,0,1-.46-.59L74.7,57.92a.51.51,0,0,1,.49-.55.54.54,0,0,1,.46.59l-1.33,49.45A.52.52,0,0,1,73.85,108Z"/><path class="cls-10" d="M75.94,54.56c-1.39,0-2.5.79-2.5,1.77s1.11,1.77,2.5,1.77,2.51-.79,2.51-1.77S77.32,54.56,75.94,54.56Zm0,2.76c-.77,0-1.4-.44-1.4-1s.63-1,1.4-1,1.4.45,1.4,1S76.72,57.32,75.94,57.32Z"/><path class="cls-10" d="M77.63,108.77c-.25,0-.48-.15-.48-.33l-.94-50.9c0-.18.21-.33.46-.34h0c.26,0,.47.15.47.33l.95,50.9c0,.18-.2.34-.47.34Z"/><path class="cls-6" d="M68.54,111.23l-.93-.14a10.65,10.65,0,0,1,.83-2c.79-1.46,1.74-2.15,2.82-2a60.49,60.49,0,0,1,7.29,1.69l-.36.62a62.3,62.3,0,0,0-7-1.65C70.07,107.59,69,109.74,68.54,111.23Z"/><path class="cls-7" d="M77.5,112.63a.68.68,0,0,1-.76.29h0c-.32-.07-.5-.32-.39-.55l2.47-5.54a.68.68,0,0,1,.76-.29h0c.32.07.5.32.39.54Z"/><path class="cls-8" d="M76.78,112.39c.39.08.64.33.54.56h0c-.09.23-.49.34-.89.26l-9.62-2c-.4-.08-.65-.34-.55-.56h0c.1-.23.49-.35.89-.26Z"/><path class="cls-15" d="M73.32,2.9S74.94,0,75.7,0C76.67,0,78,2.82,78,2.82S84,3.51,84,4.12,79.69,6,79.69,6s1.55,3.56,1,3.93-4.81-3.21-4.81-3.21S72.08,10.18,71.16,10s.71-3.78.71-3.78-4.28-1.56-4.22-2S73.32,2.9,73.32,2.9Z"/><path class="cls-14" d="M75.7,0c0,.38,0,.76,0,1.14l0,1.14c0,.38,0,.76,0,1.14V4.58l0,0c-.37.46-.74.92-1.13,1.37L73.52,7.33,72.36,8.69l-.6.67-.6.67.54-.69.54-.7,1.11-1.38,1.12-1.37c.37-.46.75-.91,1.13-1.36V3.42c0-.38,0-.76,0-1.14s0-.76,0-1.14S75.68.38,75.7,0Z"/><path class="cls-14" d="M67.65,4.27l2,0,2,.06,4,.12h.05l0,0c.43.45.84.9,1.26,1.35L78.3,7.22l1.22,1.36c.4.46.81.91,1.2,1.38-.43-.45-.87-.89-1.3-1.33L78.13,7.3,76.87,6c-.43-.45-.86-.9-1.27-1.35l.09,0c-1.34,0-2.68-.09-4-.16l-2-.1Z"/><path class="cls-14" d="M75.7,4.56l.36,0L77,4.45l1.32-.1,1.51-.09,1.52-.08,1.33,0,.94,0H84l-.35,0c-.23,0-.55.06-.93.08l-1.33.1-1.51.1-1.52.07L77,4.54l-.93,0Z"/><g class="cls-27"><path class="cls-28" d="M79.25,8.14c-1.26.23-3.46-2-3.46-2s-2.44,2.27-3.26,2,.91-2.76.91-2.76a19.6,19.6,0,0,1-5.72-1.19s-.07.06-.07.08c-.06.42,4.22,2,4.22,2S70.24,9.88,71.16,10s4.75-3.28,4.75-3.28,4.3,3.57,4.81,3.21-1-3.93-1-3.93S84,4.73,84,4.12a.1.1,0,0,0,0-.08,39.77,39.77,0,0,1-6,1.23S80.51,7.9,79.25,8.14Z"/></g><path class="cls-14" d="M76,8.53c3.68,0,5.15,2,5.15,2,2.08-1,7.84-.34,8.36,2a10.14,10.14,0,0,0-7.23,3.41h-13A10.14,10.14,0,0,0,62.1,12.5c.52-2.3,6.29-3,8.37-2,0,0,1.46-2,5.15-2Z"/><path class="cls-13" d="M62.1,12.5a10.14,10.14,0,0,1,7.23,3.41h2.41C68.87,8.78,62.1,12.5,62.1,12.5Z"/><path class="cls-29" d="M65.61,13.22c3.39,1.64,4.13,3.3,4.13,3.3l1-.41C68.57,10.83,65.61,13.22,65.61,13.22Z"/><path class="cls-13" d="M76,10.17h-.26c-3.91,0-3.37,4.37-3.11,5.74h6.48C79.34,14.54,79.88,10.17,76,10.17Z"/><path class="cls-29" d="M75.93,11.57h-.19c-2.95,0-2.55,3.31-2.35,4.34h4.9C78.48,14.88,78.89,11.57,75.93,11.57Z"/><path class="cls-13" d="M79.89,15.91h2.39a10.14,10.14,0,0,1,7.23-3.41h0C89.08,12.26,82.67,9,79.89,15.91Z"/><path class="cls-29" d="M86,13.22c-3.38,1.64-4.12,3.3-4.12,3.3l-1-.41C83,10.83,86,13.22,86,13.22Z"/><path class="cls-15" d="M85,17.73c0,2-4.11,3.6-9.16,3.6s-9.16-1.61-9.16-3.6,4.09-3,9.16-3S85,15.74,85,17.73Z"/><path class="cls-30" d="M71.78,15c-3,.41-5.13,1.34-5.13,2.77s2.09,2.65,5.13,3.24Z"/><path class="cls-31" d="M79.6,14.93V21c3.17-.57,5.37-1.82,5.37-3.28S82.77,15.32,79.6,14.93Z"/><path class="cls-14" d="M87.4,19.61c-.6-2.23-5.56-3.38-11.59-3.38s-11,1.15-11.59,3.38Z"/><path class="cls-32" d="M87.4,19.61c-.39-1.39-2.48-2.37-5.47-2.9v2.9Z"/><path class="cls-33" d="M69.8,19.61V16.69c-3.06.52-5.19,1.51-5.57,2.92Z"/><g class="cls-27"><path class="cls-14" d="M87.4,19.61A2.89,2.89,0,0,0,86,18a62.49,62.49,0,0,0-20.34,0,2.76,2.76,0,0,0-1.41,1.59Z"/></g><path class="cls-34" d="M71.18,10.61s1.5-1.93,5.32-1.77C75.19,8.37,72,8.82,71.18,10.61Z"/><path class="cls-34" d="M62.81,11.84a8.78,8.78,0,0,1,7-1A6.42,6.42,0,0,0,62.81,11.84Z"/><polygon class="cls-7" points="70.71 18.04 70.7 18.04 70.71 18.04 70.71 18.04"/><path class="cls-6" d="M77.18,17.84H76a54.72,54.72,0,0,0,.78,12.4c3.4,0,6.62-.13,9.63-.3-1.89-4.89-6-9.29-9.11-12.1Z"/><path class="cls-7" d="M70.7,18c-21,1.32-33,8.67-33,8.67,2,.39,4,.73,6,1C46.12,25.46,53.31,20.31,70.7,18Z"/><path class="cls-7" d="M81.26,17.91c7.55,2,17,5.26,23.21,10.14,2-.31,3.61-.62,5-.88C103.21,23,91.68,19.94,82.33,18Z"/><path class="cls-6" d="M82.33,18c9.35,2,20.88,5.08,27.1,9.21a28.94,28.94,0,0,1,4.44-.55S103.72,19,82.33,18Z"/><path class="cls-7" d="M77.59,17.84h-.28c3.09,2.81,7.22,7.21,9.11,12.1,4.12-.23,7.86-.56,11.14-1C92.47,22.76,83.59,19.45,77.59,17.84Z"/><path class="cls-6" d="M81.26,17.91c-1.19,0-2.41-.07-3.67-.07,6,1.61,14.88,4.92,20,11.15,2.59-.3,4.9-.62,6.91-.94C98.25,23.17,88.81,19.91,81.26,17.91Z"/><path class="cls-7" d="M73.32,17.91c-.89,0-1.76.08-2.61.13C58.35,21.1,52.77,25.9,50.43,28.71q3.42.42,6.71.72C58.94,26.58,63.38,21.46,73.32,17.91Z"/><path class="cls-6" d="M70.71,18h0c-17.39,2.27-24.58,7.42-27,9.71,2.28.37,4.53.68,6.73,1C52.77,25.9,58.35,21.1,70.71,18Z"/><path class="cls-6" d="M73.32,17.91c-9.94,3.55-14.38,8.67-16.18,11.52,3.42.31,6.74.52,9.94.65a17.82,17.82,0,0,1,7.77-12.21Z"/><path class="cls-7" d="M76,17.84l-1.16,0a17.82,17.82,0,0,0-7.77,12.21q5.07.21,9.71.16A54.72,54.72,0,0,1,76,17.84Z"/><g class="cls-4"><path class="cls-20" d="M96.38,19.78c.6.6,2.44,3.59-20.37,3.59-21.72,0-20.76-2.53-20-3.26-11.77,2.63-18.24,6.6-18.24,6.6,2,.39,4,.73,6,1,2.28.37,4.53.68,6.73,1s4.52.52,6.71.72c3.42.31,6.74.52,9.94.65q5.07.21,9.71.16c3.4,0,6.62-.13,9.63-.3,4.12-.23,7.86-.56,11.14-1,2.59-.3,4.9-.62,6.91-.94s3.61-.62,5-.88a28.94,28.94,0,0,1,4.44-.55S108.2,22.36,96.38,19.78Z"/></g><path class="cls-22" d="M151.45,30c-2.21,3.67-8.52,16.38-8.52,16.38H115.26l7.62-17.94C132.57,23.69,153.65,26.35,151.45,30Z"/><path class="cls-22" d="M.16,30C2.37,33.7,8.69,46.41,8.69,46.41H36.35L28.73,28.47C19,23.69-2,26.35.16,30Z"/><path class="cls-22" d="M44.83,25.13c-11.83,0-16.1,3.34-16.1,3.34l7.62,17.94H62L58.4,28S56.66,25.13,44.83,25.13Z"/><path class="cls-22" d="M122.85,28.44l-.06,0s-4.26-3.34-16.1-3.34c-10.6,0-13.1,2.32-13.5,2.8l0,.09L89.59,46.41h25.62l7.62-17.94Z"/><path class="cls-22" d="M93.19,27.93l-.07.09s-3.21-4.13-16.8-4.13H75.2C61.61,23.89,58.4,28,58.4,28L62,46.41H89.59L93.17,28Z"/><path class="cls-13" d="M151.45,30.93c-2.21,3.68-8.52,16.38-8.52,16.38H115.26l7.62-17.94C132.57,24.6,153.65,27.25,151.45,30.93Z"/><path class="cls-13" d="M.16,30.93c2.21,3.68,8.53,16.38,8.53,16.38H36.35L28.73,29.37C19,24.6-2,27.25.16,30.93Z"/><path class="cls-14" d="M44.83,26c-11.83,0-16.1,3.34-16.1,3.34l7.62,17.94H62L58.4,28.93S56.66,26,44.83,26Z"/><path class="cls-14" d="M122.85,29.35l-.06,0S118.53,26,106.69,26c-10.6,0-13.1,2.32-13.5,2.81l0,.09L89.59,47.31h25.62l7.62-17.94Z"/><path class="cls-15" d="M93.19,28.84l-.07.09s-3.21-4.13-16.8-4.13H75.2c-13.59,0-16.8,4.13-16.8,4.13L62,47.31H89.59l3.58-18.38Z"/><path class="cls-35" d="M11.36,45.25H32.45l-5.9-13.16a31.73,31.73,0,0,0-22.88-.7Z"/><path class="cls-13" d="M58.68,45.25h-20L32.45,30.83a33.41,33.41,0,0,1,23,0Z"/><path class="cls-35" d="M140.49,45.25H119.4l5.91-13.16a31.72,31.72,0,0,1,22.88-.7Z"/><path class="cls-13" d="M93.17,45.25h20l6.26-14.42a33.39,33.39,0,0,0-23,0Z"/><path class="cls-14" d="M64.71,45.25H87l3.12-14.89a35.62,35.62,0,0,0-28.45,0Z"/><path class="cls-22" d="M70,34.31s-.12.42-.66.22-.32-1,1-1,2,2.07-.62,2.4-4.26-2-2.33-3.73,6.31-1.67,7.85.36-1.38,4.18-4.42,5.68c-2.68,1.4-2.72,3.57-.51,4.32s3.59-.64,2.68-1.39c-.12.64-2.37.47-2-.89s3.67-1.28,4.22.16-1.06,4.15-5.05,3.09c-3-.77-3.94-3.78.2-5.7s5.2-2.85,5-4.46-4.24-2.73-6.91-1a1.44,1.44,0,0,0,.52,2.73C70,35.17,70.38,34.64,70,34.31Z"/><path class="cls-22" d="M81.22,34.31s.13.42.68.22.31-1-1-1-2,2.07.63,2.4,4.26-2,2.33-3.73-6.31-1.67-7.85.36,1.38,4.18,4.41,5.68c2.69,1.4,2.73,3.57.52,4.32s-3.59-.64-2.68-1.39c.12.64,2.37.47,2-.89s-3.67-1.28-4.22.16,1,4.15,5,3.09c3-.77,4-3.78-.19-5.7s-5.21-2.85-5-4.46,4.24-2.73,6.9-1a1.43,1.43,0,0,1-.51,2.73C81.19,35.17,80.79,34.64,81.22,34.31Z"/><path class="cls-22" d="M39.66,34.31s0,.42-.61.22-.56-1,.78-1,2.5,2.07-.07,2.4-4.72-2-3.2-3.73,5.91-1.67,7.93.36-.39,4.18-3.07,5.68c-2.35,1.4-1.88,3.57.51,4.32s3.43-.64,2.35-1.39c0,.64-2.26.47-2.26-.89s3.36-1.28,4.25.16S46.2,44.58,42,43.52c-3.14-.77-4.84-3.78-1.15-5.7s4.53-2.85,4-4.46-4.9-2.73-7.15-1c-1.38,1,0,2.62,1.16,2.73S40.17,34.64,39.66,34.31Z"/><path class="cls-22" d="M50.94,34.31a.54.54,0,0,0,.72.22c.5-.2.08-1-1.27-1s-1.52,2.07,1.2,2.4,3.8-2,1.45-3.73-6.72-1.67-7.77.36,2.37,4.18,5.76,5.68c3,1.4,3.57,3.57,1.54,4.32s-3.74-.64-3-1.39c.27.64,2.47.47,1.84-.89s-4-1.28-4.19.16,2,4.15,5.78,3.09c2.78-.77,3.06-3.78-1.54-5.7S45.57,35,45.38,33.36s3.6-2.73,6.67-1c1.85,1,1.2,2.62.13,2.73S50.58,34.64,50.94,34.31Z"/><path class="cls-22" d="M10.18,34.31s.09.42-.56.22-.8-1,.53-1,3,2.07.55,2.4-5.22-2-4.16-3.73,5.49-1.67,8,.36.67,4.18-1.63,5.68c-2,1.4-1,3.57,1.6,4.32s3.28-.64,2-1.39c.19.64-2.14.47-2.49-.89s3-1.28,4.31.16,1,4.15-3.54,3.09c-3.34-.77-5.8-3.78-2.6-5.7S16,35,15.05,33.36s-5.59-2.73-7.41-1c-1.12,1,.69,2.62,1.84,2.73S10.78,34.64,10.18,34.31Z"/><path class="cls-22" d="M21.45,34.31a.69.69,0,0,0,.79.22c.45-.2-.18-1-1.52-1s-1,2.07,1.81,2.4,3.3-2,.49-3.73-7.13-1.67-7.67.36,3.43,4.18,7.2,5.68c3.37,1.4,4.47,3.57,2.63,4.32s-3.91-.64-3.36-1.39c.43.64,2.59.47,1.61-.89s-4.3-1.28-4.14.16,3.09,4.15,6.57,3.09c2.57-.77,2.09-3.78-3-5.7s-6.6-2.85-7.19-4.46,2.91-2.73,6.4-1c2.12,1,1.87,2.62.82,2.73S21.18,34.64,21.45,34.31Z"/><path class="cls-22" d="M112.53,34.31s0,.42.62.22.55-1-.79-1-2.5,2.07.07,2.4,4.72-2,3.21-3.73-5.93-1.67-7.94.36.39,4.18,3.07,5.68c2.36,1.4,1.88,3.57-.51,4.32s-3.43-.64-2.35-1.39c0,.64,2.26.47,2.27-.89s-3.37-1.28-4.26.16.08,4.15,4.31,3.09c3.14-.77,4.85-3.78,1.15-5.7s-4.53-2.85-3.95-4.46,4.9-2.73,7.15-1c1.37,1,0,2.62-1.16,2.73S112,34.64,112.53,34.31Z"/><path class="cls-22" d="M101.26,34.31a.55.55,0,0,1-.72.22c-.51-.2-.08-1,1.26-1s1.52,2.07-1.2,2.4-3.8-2-1.44-3.73,6.7-1.67,7.76.36-2.37,4.18-5.76,5.68c-3,1.4-3.57,3.57-1.54,4.32s3.75-.64,3-1.39c-.28.64-2.48.47-1.85-.89s4-1.28,4.19.16-2,4.15-5.78,3.09c-2.77-.77-3-3.78,1.55-5.7s5.88-2.85,6.06-4.46-3.6-2.73-6.66-1c-1.86,1-1.21,2.62-.13,2.73S101.62,34.64,101.26,34.31Z"/><path class="cls-22" d="M142,34.31s-.09.42.56.22.81-1-.53-1-3,2.07-.55,2.4,5.22-2,4.16-3.73-5.5-1.67-8,.36-.66,4.18,1.63,5.68c2,1.4,1,3.57-1.6,4.32s-3.27-.64-2-1.39c-.19.64,2.14.47,2.49-.89s-3-1.28-4.3.16-1,4.15,3.54,3.09c3.33-.77,5.8-3.78,2.6-5.7s-3.82-2.85-2.83-4.46,5.58-2.73,7.4-1c1.12,1-.68,2.62-1.84,2.73S141.41,34.64,142,34.31Z"/><path class="cls-22" d="M130.74,34.31a.68.68,0,0,1-.78.22c-.46-.2.18-1,1.51-1s1,2.07-1.8,2.4-3.31-2-.5-3.73,7.13-1.67,7.67.36-3.42,4.18-7.19,5.68c-3.37,1.4-4.48,3.57-2.64,4.32s3.9-.64,3.37-1.39c-.44.64-2.59.47-1.61-.89s4.28-1.28,4.13.16-3.09,4.15-6.56,3.09c-2.58-.77-2.09-3.78,3-5.7s6.6-2.85,7.2-4.46-2.91-2.73-6.4-1c-2.12,1-1.88,2.62-.83,2.73S131,34.64,130.74,34.31Z"/><g class="cls-4"><path class="cls-14" d="M75.76,43.76c-7.16,0-11.7-8.12-13.91-13.46l-.15.06,3,14.89H87l3.12-14.89h0C87.57,36.28,82.79,43.76,75.76,43.76Z"/></g><g class="cls-4"><path class="cls-13" d="M55.49,31c-.66,6.27-2.92,13.3-9.28,13.2-8-.11-13.76-13.4-13.76-13.4l6.26,14.42h20Z"/></g><g class="cls-4"><path class="cls-13" d="M96.41,31c.66,6.27,2.92,13.3,9.27,13.2,8-.11,13.76-13.4,13.76-13.4L113.2,45.25h-20Z"/></g><g class="cls-4"><path class="cls-36" d="M32.45,45.25l-5.9-13.16a27.17,27.17,0,0,0-4.76-1.58c.71,5.24.85,12.34-3.43,13.07S8.09,37.41,4,31.9l7.41,13.35Z"/></g><g class="cls-4"><path class="cls-36" d="M119.5,45.25l5.92-13.16a26.84,26.84,0,0,1,4.75-1.58c-.71,5.24-.85,12.34,3.43,13.07S143.88,37.41,148,31.9L140.6,45.25Z"/></g><path class="cls-34" d="M64.4,30s9.69-3.26,18.67-.94C79.69,27.28,71,26.78,64.4,30Z"/><path class="cls-37" d="M34,31.42a31,31,0,0,1,13.29-1.54C45.15,28.86,36.84,29.18,34,31.42Z"/><path class="cls-37" d="M118.18,31.42a31,31,0,0,0-13.28-1.54C107.06,28.86,115.38,29.18,118.18,31.42Z"/><path class="cls-38" d="M5.26,31.71s3.78-2,11.68-1.11A15.41,15.41,0,0,0,5.26,31.71Z"/><path class="cls-38" d="M147.27,31.71s-3.79-2-11.68-1.11A15.42,15.42,0,0,1,147.27,31.71Z"/><polygon class="cls-15" points="75.91 55.47 75.94 55.4 75.9 55.4 75.91 55.47"/><polygon class="cls-39" points="43.7 55.4 62.1 55.4 36.35 47.31 43.7 55.4"/><polygon class="cls-39" points="62.1 55.4 75.9 55.4 61.98 47.31 62.1 55.4"/><polygon class="cls-39" points="89.72 55.4 107.64 55.4 115.48 47.31 89.72 55.4"/><polygon class="cls-39" points="75.94 55.4 76.5 55.4 79.73 55.4 89.72 55.4 89.85 47.31 75.94 55.4"/><polygon class="cls-40" points="61.98 47.31 75.9 55.4 75.94 55.4 75.94 47.31 61.98 47.31"/><polygon class="cls-19" points="75.94 47.31 75.94 55.4 89.85 47.31 75.94 47.31"/><polygon class="cls-19" points="22.87 47.31 43.69 55.39 36.35 47.31 22.87 47.31"/><polygon class="cls-40" points="8.69 47.31 43.7 55.4 43.69 55.39 22.87 47.31 8.69 47.31"/><polygon class="cls-40" points="115.48 47.31 107.64 55.4 128.49 47.31 115.48 47.31"/><polygon class="cls-19" points="128.49 47.31 107.64 55.4 142.66 47.31 128.49 47.31"/><polygon class="cls-40" points="36.35 47.31 62.1 55.4 49.23 47.31 36.35 47.31"/><polygon class="cls-19" points="49.23 47.31 62.1 55.4 61.98 47.31 49.23 47.31"/><polygon class="cls-40" points="89.85 47.31 89.72 55.4 90 55.31 102.75 47.31 89.85 47.31"/><polygon class="cls-19" points="102.75 47.31 90 55.31 115.48 47.31 102.75 47.31"/><rect class="cls-19" x="61.7" y="56.24" width="28.16" height="0.84"/><rect class="cls-41" x="43.7" y="55.39" width="63.94" height="0.84"/></g></g></g></svg>