<svg xmlns="http://www.w3.org/2000/svg" viewBox="0 0 147.31 196.5"><defs><style>.cls-1{isolation:isolate;}.cls-2{fill:#a20000;}.cls-14,.cls-3{fill:#760000;}.cls-4{fill:#ff6700;}.cls-5{fill:#9c5a39;}.cls-39,.cls-5{opacity:0.6;}.cls-11,.cls-14,.cls-16,.cls-19,.cls-20,.cls-21,.cls-22,.cls-25,.cls-26,.cls-38,.cls-40,.cls-5,.cls-52{mix-blend-mode:multiply;}.cls-6{fill:#2e0000;}.cls-7{fill:#fea30e;}.cls-27,.cls-8{fill:#d31616;}.cls-9{fill:#e56d00;}.cls-10{fill:#ffd016;}.cls-11{fill:#6e3939;}.cls-11,.cls-20,.cls-22{opacity:0.4;}.cls-12{fill:#740000;}.cls-13{fill:#480000;}.cls-15{fill:#fecd06;}.cls-16{fill:#debb06;}.cls-17{fill:#e9f7f9;}.cls-18{fill:#f5000f;}.cls-19{fill:#4f4946;}.cls-19,.cls-25{opacity:0.9;}.cls-21,.cls-22,.cls-25{fill:gray;}.cls-23,.cls-26{fill:#ab0000;}.cls-24{fill:#d6a500;}.cls-26,.cls-38{opacity:0.7;}.cls-27,.cls-39,.cls-49{mix-blend-mode:color-dodge;}.cls-28{fill:#d35a16;}.cls-29{fill:#00af8b;}.cls-30{fill:#0078a9;}.cls-31{fill:none;}.cls-32{fill:#88e9ff;}.cls-33{fill:#daff92;}.cls-34{fill:#fef23e;}.cls-35{fill:#22c2f2;}.cls-36{fill:#92c63e;}.cls-37{fill:#6e9839;}.cls-38{fill:#fea806;}.cls-39,.cls-45{fill:#fff;}.cls-41{fill:#578b03;}.cls-42{fill:#c39200;}.cls-43{fill:#0087b7;}.cls-44{fill:#335d00;}.cls-46{fill:#75b506;}.cls-47{fill:#b54400;}.cls-48{fill:#755d06;}.cls-49{fill:#ffad99;opacity:0.3;}.cls-50{fill:#ff934a;}.cls-51,.cls-52,.cls-55{fill:#ffc502;}.cls-53{fill:#ffe102;}.cls-54{fill:#af8308;}.cls-55{mix-blend-mode:screen;}.cls-56{fill:#939393;}.cls-57{fill:#ab1113;}.cls-58{fill:#fb0f0f;}.cls-59{fill:#eef9fb;}.cls-60{fill:#b3afae;}</style></defs><title>設施-資產 18遊樂設施</title><g class="cls-1"><g id="圖層_2" data-name="圖層 2"><g id="Layer_1" data-name="Layer 1"><rect class="cls-2" x="75.78" y="58.75" width="0.79" height="131.31"/><rect class="cls-3" x="74.99" y="58.75" width="0.79" height="131.31"/><rect class="cls-2" x="60.75" y="77.8" width="0.79" height="112.26"/><rect class="cls-3" x="59.97" y="77.8" width="0.78" height="112.26"/><path class="cls-4" d="M83.12,81.41a27.67,27.67,0,0,0-7.19,2.44V93.5a17.9,17.9,0,0,1,10.95-7.26Z"/><path class="cls-5" d="M83.12,81.41a27.67,27.67,0,0,0-7.19,2.44V93.5a17.9,17.9,0,0,1,10.95-7.26Z"/><path class="cls-6" d="M133.82,61a25.53,25.53,0,0,1-6.51,3.07A26.32,26.32,0,0,1,120,65.66a32.31,32.31,0,0,1-7.61-.33,20.07,20.07,0,0,1-5.17-1.5s-.1,0,0,0a20.66,20.66,0,0,0,4.74,1.59,37.91,37.91,0,0,0,7.6.44,25.26,25.26,0,0,0,7.63-1.53,23.88,23.88,0,0,0,6.8-3.18A.11.11,0,1,0,133.82,61Z"/><rect class="cls-7" x="118.35" y="95.54" width="13.06" height="90.32"/><rect class="cls-8" x="118.35" y="95.54" width="13.06" height="13.95"/><rect class="cls-3" x="118.35" y="109.86" width="13.06" height="0.5"/><path class="cls-3" d="M120.23,108.78a.54.54,0,1,1-1.07,0,.54.54,0,1,1,1.07,0Z"/><path class="cls-9" d="M120.07,108.73a.43.43,0,1,1-.42-.42A.42.42,0,0,1,120.07,108.73Z"/><path class="cls-10" d="M119.79,108.67a.18.18,0,0,1-.19.18.19.19,0,1,1,0-.37A.18.18,0,0,1,119.79,108.67Z"/><path class="cls-3" d="M123.53,108.78a.54.54,0,0,1-.53.54.54.54,0,0,1-.54-.54.54.54,0,0,1,.54-.54A.53.53,0,0,1,123.53,108.78Z"/><path class="cls-9" d="M123.38,108.73a.43.43,0,1,1-.85,0,.43.43,0,0,1,.85,0Z"/><path class="cls-10" d="M123.1,108.67a.19.19,0,0,1-.19.18.18.18,0,0,1-.19-.18.18.18,0,0,1,.19-.19A.19.19,0,0,1,123.1,108.67Z"/><path class="cls-3" d="M127.09,108.78a.54.54,0,1,1-1.07,0,.54.54,0,1,1,1.07,0Z"/><path class="cls-9" d="M126.93,108.73a.42.42,0,0,1-.42.43.43.43,0,1,1,0-.85A.42.42,0,0,1,126.93,108.73Z"/><path class="cls-10" d="M126.65,108.67a.18.18,0,0,1-.19.18.18.18,0,0,1-.18-.18.18.18,0,0,1,.18-.19A.18.18,0,0,1,126.65,108.67Z"/><path class="cls-3" d="M130.51,108.78a.54.54,0,1,1-1.07,0,.54.54,0,1,1,1.07,0Z"/><path class="cls-9" d="M130.35,108.73a.42.42,0,0,1-.42.43.43.43,0,1,1,.42-.43Z"/><path class="cls-10" d="M130.07,108.67a.18.18,0,0,1-.19.18.19.19,0,1,1,0-.37A.18.18,0,0,1,130.07,108.67Z"/><rect class="cls-2" x="118.15" y="109.49" width="13.48" height="0.46"/><rect class="cls-8" x="118.35" y="122.77" width="13.06" height="22.13"/><rect class="cls-3" x="118.35" y="145.26" width="13.06" height="0.5"/><path class="cls-3" d="M120.23,144.17a.54.54,0,1,1-1.07,0,.54.54,0,0,1,1.07,0Z"/><path class="cls-9" d="M120.07,144.13a.43.43,0,1,1-.85,0,.43.43,0,1,1,.85,0Z"/><path class="cls-10" d="M119.79,144.07a.18.18,0,0,1-.19.18.19.19,0,0,1-.19-.18.2.2,0,0,1,.19-.2A.19.19,0,0,1,119.79,144.07Z"/><path class="cls-3" d="M123.53,144.17a.53.53,0,0,1-.53.54.54.54,0,1,1,0-1.07A.53.53,0,0,1,123.53,144.17Z"/><path class="cls-9" d="M123.38,144.13a.43.43,0,1,1-.85,0,.43.43,0,1,1,.85,0Z"/><path class="cls-10" d="M123.1,144.07a.19.19,0,0,1-.19.18.18.18,0,0,1-.19-.18.19.19,0,0,1,.19-.2A.2.2,0,0,1,123.1,144.07Z"/><path class="cls-3" d="M127.09,144.17a.54.54,0,1,1-.54-.53A.54.54,0,0,1,127.09,144.17Z"/><path class="cls-9" d="M126.93,144.13a.42.42,0,0,1-.42.43.43.43,0,0,1-.43-.43.44.44,0,0,1,.43-.43A.43.43,0,0,1,126.93,144.13Z"/><path class="cls-10" d="M126.65,144.07a.18.18,0,0,1-.19.18.18.18,0,0,1-.18-.18.19.19,0,1,1,.37,0Z"/><path class="cls-3" d="M130.51,144.17a.54.54,0,1,1-.54-.53A.54.54,0,0,1,130.51,144.17Z"/><path class="cls-9" d="M130.35,144.13a.42.42,0,0,1-.42.43.42.42,0,0,1-.42-.43.42.42,0,0,1,.42-.43A.43.43,0,0,1,130.35,144.13Z"/><path class="cls-10" d="M130.07,144.07a.18.18,0,0,1-.19.18.19.19,0,0,1-.19-.18.2.2,0,0,1,.19-.2A.19.19,0,0,1,130.07,144.07Z"/><rect class="cls-2" x="118.15" y="144.9" width="13.48" height="0.45"/><rect class="cls-3" x="118.35" y="122.83" width="13.06" height="0.5"/><rect class="cls-2" x="118.15" y="122.46" width="13.48" height="0.46"/><rect class="cls-8" x="118.35" y="154.25" width="13.06" height="13.12"/><rect class="cls-3" x="118.35" y="167.74" width="13.06" height="0.5"/><path class="cls-3" d="M120.23,166.65a.54.54,0,1,1-1.07,0,.54.54,0,0,1,1.07,0Z"/><path class="cls-9" d="M120.07,166.61a.43.43,0,0,1-.85,0,.43.43,0,1,1,.85,0Z"/><path class="cls-10" d="M119.79,166.54a.18.18,0,0,1-.19.19.19.19,0,0,1-.19-.19.2.2,0,0,1,.19-.19A.19.19,0,0,1,119.79,166.54Z"/><path class="cls-3" d="M123.53,166.65a.53.53,0,0,1-.53.54.54.54,0,1,1,0-1.07A.53.53,0,0,1,123.53,166.65Z"/><path class="cls-9" d="M123.38,166.61a.43.43,0,0,1-.85,0,.43.43,0,1,1,.85,0Z"/><path class="cls-10" d="M123.1,166.54a.19.19,0,0,1-.19.19.18.18,0,0,1-.19-.19.19.19,0,0,1,.19-.19A.2.2,0,0,1,123.1,166.54Z"/><path class="cls-3" d="M127.09,166.65a.54.54,0,1,1-.54-.53A.54.54,0,0,1,127.09,166.65Z"/><path class="cls-9" d="M126.93,166.61a.42.42,0,0,1-.42.42.43.43,0,0,1-.43-.42.44.44,0,0,1,.43-.43A.43.43,0,0,1,126.93,166.61Z"/><path class="cls-10" d="M126.65,166.54a.18.18,0,0,1-.19.19.18.18,0,0,1-.18-.19.19.19,0,1,1,.37,0Z"/><path class="cls-3" d="M130.51,166.65a.54.54,0,1,1-.54-.53A.54.54,0,0,1,130.51,166.65Z"/><path class="cls-9" d="M130.35,166.61a.42.42,0,0,1-.42.42.42.42,0,0,1-.42-.42.42.42,0,0,1,.42-.43A.43.43,0,0,1,130.35,166.61Z"/><path class="cls-10" d="M130.07,166.54a.18.18,0,0,1-.19.19.19.19,0,0,1-.19-.19.2.2,0,0,1,.19-.19A.19.19,0,0,1,130.07,166.54Z"/><path class="cls-3" d="M120.23,156a.54.54,0,1,1-1.07,0,.54.54,0,0,1,1.07,0Z"/><path class="cls-9" d="M120.07,156a.43.43,0,0,1-.85,0,.43.43,0,1,1,.85,0Z"/><path class="cls-10" d="M119.79,155.9a.18.18,0,0,1-.19.19.19.19,0,0,1-.19-.19.2.2,0,0,1,.19-.19A.19.19,0,0,1,119.79,155.9Z"/><path class="cls-3" d="M123.53,156a.53.53,0,0,1-.53.54.54.54,0,1,1,0-1.07A.53.53,0,0,1,123.53,156Z"/><path class="cls-9" d="M123.38,156a.43.43,0,0,1-.85,0,.43.43,0,1,1,.85,0Z"/><path class="cls-10" d="M123.1,155.9a.19.19,0,0,1-.19.19.18.18,0,0,1-.19-.19.19.19,0,0,1,.19-.19A.2.2,0,0,1,123.1,155.9Z"/><path class="cls-3" d="M127.09,156a.54.54,0,1,1-.54-.53A.54.54,0,0,1,127.09,156Z"/><path class="cls-9" d="M126.93,156a.42.42,0,0,1-.42.42.43.43,0,0,1-.43-.42.44.44,0,0,1,.43-.43A.43.43,0,0,1,126.93,156Z"/><path class="cls-10" d="M126.65,155.9a.18.18,0,0,1-.19.19.18.18,0,0,1-.18-.19.19.19,0,1,1,.37,0Z"/><path class="cls-3" d="M130.51,156a.54.54,0,1,1-.54-.53A.54.54,0,0,1,130.51,156Z"/><path class="cls-9" d="M130.35,156a.42.42,0,0,1-.42.42.42.42,0,0,1-.42-.42.42.42,0,0,1,.42-.43A.43.43,0,0,1,130.35,156Z"/><path class="cls-10" d="M130.07,155.9a.18.18,0,0,1-.19.19.19.19,0,0,1-.19-.19.2.2,0,0,1,.19-.19A.19.19,0,0,1,130.07,155.9Z"/><rect class="cls-2" x="118.15" y="167.37" width="13.48" height="0.45"/><rect class="cls-3" x="118.35" y="154.3" width="13.06" height="0.5"/><rect class="cls-2" x="118.15" y="153.93" width="13.48" height="0.46"/><polygon class="cls-11" points="131.41 109.95 131.63 109.95 131.63 109.49 131.41 109.49 131.41 95.54 128.11 95.54 128.11 185.86 131.41 185.86 131.41 167.82 131.63 167.82 131.63 167.37 131.41 167.37 131.41 154.39 131.63 154.39 131.63 153.93 131.41 153.93 131.41 145.35 131.63 145.35 131.63 144.9 131.41 144.9 131.41 122.92 131.63 122.92 131.63 122.46 131.41 122.46 131.41 109.95"/><polygon class="cls-11" points="118.35 185.86 120.04 185.86 120.04 95.54 118.35 95.54 118.35 109.49 118.15 109.49 118.15 109.95 118.35 109.95 118.35 122.46 118.15 122.46 118.15 122.92 118.35 122.92 118.35 144.9 118.15 144.9 118.15 145.35 118.35 145.35 118.35 153.93 118.15 153.93 118.15 154.39 118.35 154.39 118.35 167.37 118.15 167.37 118.15 167.82 118.35 167.82 118.35 185.86"/><rect class="cls-12" x="113.85" y="80.41" width="0.72" height="7.09"/><rect class="cls-13" x="113.14" y="80.41" width="0.71" height="7.09"/><rect class="cls-12" x="118.4" y="80.41" width="0.72" height="7.09"/><rect class="cls-13" x="117.68" y="80.41" width="0.72" height="7.09"/><rect class="cls-12" x="122.94" y="80.41" width="0.72" height="7.09"/><rect class="cls-13" x="122.23" y="80.41" width="0.72" height="7.09"/><rect class="cls-12" x="127.49" y="80.41" width="0.72" height="7.09"/><rect class="cls-13" x="126.77" y="80.41" width="0.71" height="7.09"/><rect class="cls-12" x="132.03" y="80.41" width="0.72" height="7.09"/><rect class="cls-13" x="131.32" y="80.41" width="0.71" height="7.09"/><rect class="cls-2" x="110.75" y="79.98" width="22.98" height="0.71"/><rect class="cls-3" x="110.75" y="80.7" width="22.98" height="0.72"/><polygon class="cls-3" points="75.96 96.52 81.75 87.98 82.18 88.21 76.39 96.75 75.96 96.52"/><polygon class="cls-2" points="75.54 96.28 81.32 87.75 81.75 87.98 75.96 96.52 75.54 96.28"/><polygon class="cls-14" points="76.45 94.94 75.54 96.28 76.39 96.75 77.62 94.94 76.45 94.94"/><polygon class="cls-14" points="81.37 89.42 82.18 88.21 81.32 87.75 80.2 89.42 81.37 89.42"/><polygon class="cls-3" points="82.6 96.52 76.81 87.98 76.38 88.21 82.17 96.75 82.6 96.52"/><polygon class="cls-2" points="83.03 96.28 77.24 87.75 76.81 87.98 82.6 96.52 83.03 96.28"/><polygon class="cls-14" points="82.11 94.94 83.03 96.28 82.17 96.75 80.94 94.94 82.11 94.94"/><polygon class="cls-14" points="77.19 89.42 76.38 88.21 77.24 87.75 78.36 89.42 77.19 89.42"/><polygon class="cls-3" points="82.36 96.52 88.14 87.98 88.57 88.21 82.78 96.75 82.36 96.52"/><polygon class="cls-2" points="81.93 96.28 87.71 87.75 88.14 87.98 82.36 96.52 81.93 96.28"/><polygon class="cls-14" points="82.85 94.94 81.93 96.28 82.78 96.75 84.02 94.94 82.85 94.94"/><polygon class="cls-14" points="87.77 89.42 88.57 88.21 87.71 87.75 86.6 89.42 87.77 89.42"/><polygon class="cls-3" points="88.99 96.52 83.21 87.98 82.78 88.21 88.56 96.75 88.99 96.52"/><polygon class="cls-2" points="89.42 96.28 83.64 87.75 83.21 87.98 88.99 96.52 89.42 96.28"/><polygon class="cls-14" points="88.51 94.94 89.42 96.28 88.56 96.75 87.34 94.94 88.51 94.94"/><polygon class="cls-14" points="83.58 89.42 82.78 88.21 83.64 87.75 84.75 89.42 83.58 89.42"/><polygon class="cls-3" points="88.92 96.52 94.7 87.98 95.13 88.21 89.35 96.75 88.92 96.52"/><polygon class="cls-2" points="88.49 96.28 94.27 87.75 94.7 87.98 88.92 96.52 88.49 96.28"/><polygon class="cls-14" points="89.41 94.94 88.49 96.28 89.35 96.75 90.58 94.94 89.41 94.94"/><polygon class="cls-14" points="94.33 89.42 95.13 88.21 94.27 87.75 93.16 89.42 94.33 89.42"/><polygon class="cls-3" points="95.55 96.52 89.77 87.98 89.34 88.21 95.12 96.75 95.55 96.52"/><polygon class="cls-2" points="95.98 96.28 90.2 87.75 89.77 87.98 95.55 96.52 95.98 96.28"/><polygon class="cls-14" points="95.07 94.94 95.98 96.28 95.12 96.75 93.9 94.94 95.07 94.94"/><polygon class="cls-14" points="90.14 89.42 89.34 88.21 90.2 87.75 91.31 89.42 90.14 89.42"/><rect class="cls-2" x="82.49" y="88.03" width="0.45" height="8.14"/><rect class="cls-3" x="82.04" y="88.03" width="0.45" height="8.14"/><rect class="cls-14" x="82.04" y="93.89" width="0.9" height="2.28"/><rect class="cls-14" x="82.04" y="88.03" width="0.9" height="1.48"/><rect class="cls-2" x="88.96" y="88.03" width="0.44" height="8.14"/><rect class="cls-3" x="88.52" y="88.03" width="0.44" height="8.14"/><rect class="cls-14" x="88.52" y="93.89" width="0.89" height="2.28"/><rect class="cls-14" x="88.52" y="88.03" width="0.89" height="1.48"/><polygon class="cls-3" points="95.4 96.52 101.19 87.98 101.61 88.21 95.83 96.75 95.4 96.52"/><polygon class="cls-2" points="94.97 96.28 100.76 87.75 101.19 87.98 95.4 96.52 94.97 96.28"/><polygon class="cls-14" points="95.89 94.94 94.97 96.28 95.83 96.75 97.06 94.94 95.89 94.94"/><polygon class="cls-14" points="100.81 89.42 101.61 88.21 100.76 87.75 99.65 89.42 100.81 89.42"/><polygon class="cls-3" points="102.04 96.52 96.26 87.98 95.83 88.21 101.61 96.75 102.04 96.52"/><polygon class="cls-2" points="102.47 96.28 96.68 87.75 96.26 87.98 102.04 96.52 102.47 96.28"/><polygon class="cls-14" points="101.55 94.94 102.47 96.28 101.61 96.75 100.38 94.94 101.55 94.94"/><polygon class="cls-14" points="96.63 89.42 95.83 88.21 96.68 87.75 97.79 89.42 96.63 89.42"/><polygon class="cls-3" points="101.96 96.52 107.75 87.98 108.17 88.21 102.39 96.75 101.96 96.52"/><polygon class="cls-2" points="101.53 96.28 107.32 87.75 107.75 87.98 101.96 96.52 101.53 96.28"/><polygon class="cls-14" points="102.44 94.94 101.53 96.28 102.39 96.75 103.62 94.94 102.44 94.94"/><polygon class="cls-14" points="107.37 89.42 108.17 88.21 107.32 87.75 106.21 89.42 107.37 89.42"/><polygon class="cls-3" points="108.6 96.52 102.81 87.98 102.38 88.21 108.17 96.75 108.6 96.52"/><polygon class="cls-2" points="109.03 96.28 103.24 87.75 102.81 87.98 108.6 96.52 109.03 96.28"/><polygon class="cls-14" points="108.11 94.94 109.03 96.28 108.17 96.75 106.94 94.94 108.11 94.94"/><polygon class="cls-14" points="103.19 89.42 102.38 88.21 103.24 87.75 104.36 89.42 103.19 89.42"/><rect class="cls-2" x="95.54" y="88.03" width="0.45" height="8.14"/><rect class="cls-3" x="95.09" y="88.03" width="0.45" height="8.14"/><rect class="cls-14" x="95.09" y="93.89" width="0.9" height="2.28"/><rect class="cls-14" x="95.09" y="88.03" width="0.9" height="1.48"/><rect class="cls-2" x="102.01" y="88.03" width="0.45" height="8.14"/><rect class="cls-3" x="101.56" y="88.03" width="0.45" height="8.14"/><rect class="cls-14" x="101.56" y="93.89" width="0.89" height="2.28"/><rect class="cls-14" x="101.56" y="88.03" width="0.89" height="1.48"/><polygon class="cls-3" points="108.41 96.52 114.19 87.98 114.62 88.21 108.84 96.75 108.41 96.52"/><polygon class="cls-2" points="107.98 96.28 113.77 87.75 114.19 87.98 108.41 96.52 107.98 96.28"/><polygon class="cls-14" points="108.89 94.94 107.98 96.28 108.84 96.75 110.07 94.94 108.89 94.94"/><polygon class="cls-14" points="113.82 89.42 114.62 88.21 113.77 87.75 112.66 89.42 113.82 89.42"/><polygon class="cls-3" points="115.05 96.52 109.26 87.98 108.83 88.21 114.62 96.75 115.05 96.52"/><polygon class="cls-2" points="115.48 96.28 109.69 87.75 109.26 87.98 115.05 96.52 115.48 96.28"/><polygon class="cls-14" points="114.56 94.94 115.48 96.28 114.62 96.75 113.39 94.94 114.56 94.94"/><polygon class="cls-14" points="109.64 89.42 108.83 88.21 109.69 87.75 110.8 89.42 109.64 89.42"/><polygon class="cls-3" points="114.98 96.52 120.76 87.98 121.19 88.21 115.41 96.75 114.98 96.52"/><polygon class="cls-2" points="114.55 96.28 120.33 87.75 120.76 87.98 114.98 96.52 114.55 96.28"/><polygon class="cls-14" points="115.46 94.94 114.55 96.28 115.41 96.75 116.63 94.94 115.46 94.94"/><polygon class="cls-14" points="120.38 89.42 121.19 88.21 120.33 87.75 119.22 89.42 120.38 89.42"/><polygon class="cls-3" points="121.61 96.52 115.83 87.98 115.4 88.21 121.18 96.75 121.61 96.52"/><polygon class="cls-2" points="122.04 96.28 116.25 87.75 115.83 87.98 121.61 96.52 122.04 96.28"/><polygon class="cls-14" points="121.13 94.94 122.04 96.28 121.18 96.75 119.95 94.94 121.13 94.94"/><polygon class="cls-14" points="116.2 89.42 115.4 88.21 116.25 87.75 117.36 89.42 116.2 89.42"/><rect class="cls-2" x="108.55" y="88.03" width="0.44" height="8.14"/><rect class="cls-3" x="108.1" y="88.03" width="0.45" height="8.14"/><rect class="cls-14" x="108.1" y="93.89" width="0.89" height="2.28"/><rect class="cls-14" x="108.1" y="88.03" width="0.89" height="1.48"/><rect class="cls-2" x="115.02" y="88.03" width="0.45" height="8.14"/><rect class="cls-3" x="114.57" y="88.03" width="0.44" height="8.14"/><rect class="cls-14" x="114.57" y="93.89" width="0.9" height="2.28"/><rect class="cls-14" x="114.57" y="88.03" width="0.9" height="1.48"/><polygon class="cls-3" points="121.45 96.52 127.24 87.98 127.67 88.21 121.88 96.75 121.45 96.52"/><polygon class="cls-2" points="121.03 96.28 126.81 87.75 127.24 87.98 121.45 96.52 121.03 96.28"/><polygon class="cls-14" points="121.94 94.94 121.03 96.28 121.88 96.75 123.12 94.94 121.94 94.94"/><polygon class="cls-14" points="126.87 89.42 127.67 88.21 126.81 87.75 125.7 89.42 126.87 89.42"/><polygon class="cls-3" points="128.09 96.52 122.3 87.98 121.88 88.21 127.67 96.75 128.09 96.52"/><polygon class="cls-2" points="128.52 96.28 122.74 87.75 122.3 87.98 128.09 96.52 128.52 96.28"/><polygon class="cls-14" points="127.61 94.94 128.52 96.28 127.67 96.75 126.43 94.94 127.61 94.94"/><polygon class="cls-14" points="122.68 89.42 121.88 88.21 122.74 87.75 123.85 89.42 122.68 89.42"/><polygon class="cls-3" points="128.02 96.52 133.8 87.98 134.23 88.21 128.45 96.75 128.02 96.52"/><polygon class="cls-2" points="127.59 96.28 133.38 87.75 133.8 87.98 128.02 96.52 127.59 96.28"/><polygon class="cls-14" points="128.5 94.94 127.59 96.28 128.45 96.75 129.68 94.94 128.5 94.94"/><polygon class="cls-14" points="133.42 89.42 134.23 88.21 133.38 87.75 132.26 89.42 133.42 89.42"/><polygon class="cls-3" points="134.65 96.52 128.87 87.98 128.44 88.21 134.22 96.75 134.65 96.52"/><polygon class="cls-2" points="135.08 96.28 129.3 87.75 128.87 87.98 134.65 96.52 135.08 96.28"/><polygon class="cls-14" points="134.17 94.94 135.08 96.28 134.22 96.75 133 94.94 134.17 94.94"/><polygon class="cls-14" points="129.24 89.42 128.44 88.21 129.3 87.75 130.41 89.42 129.24 89.42"/><rect class="cls-2" x="121.59" y="88.03" width="0.45" height="8.14"/><rect class="cls-3" x="121.15" y="88.03" width="0.44" height="8.14"/><rect class="cls-14" x="121.15" y="93.89" width="0.89" height="2.28"/><rect class="cls-14" x="121.15" y="88.03" width="0.89" height="1.48"/><rect class="cls-2" x="128.06" y="88.03" width="0.45" height="8.14"/><rect class="cls-3" x="127.62" y="88.03" width="0.44" height="8.14"/><rect class="cls-14" x="127.62" y="93.89" width="0.89" height="2.28"/><rect class="cls-14" x="127.62" y="88.03" width="0.89" height="1.48"/><rect class="cls-2" x="75.61" y="95.72" width="59.02" height="0.72"/><rect class="cls-3" x="75.61" y="96.44" width="59.02" height="0.72"/><rect class="cls-2" x="75.61" y="86.96" width="59.02" height="0.72"/><rect class="cls-3" x="75.61" y="87.67" width="59.02" height="0.72"/><polygon class="cls-3" points="76.1 121.62 83.68 114.5 84.25 114.69 76.66 121.81 76.1 121.62"/><polygon class="cls-2" points="75.54 121.42 83.12 114.31 83.68 114.5 76.1 121.62 75.54 121.42"/><polygon class="cls-14" points="76.73 120.31 75.54 121.42 76.66 121.81 78.27 120.31 76.73 120.31"/><polygon class="cls-14" points="83.19 115.7 84.25 114.69 83.12 114.31 81.66 115.7 83.19 115.7"/><polygon class="cls-3" points="84.8 121.62 77.21 114.5 76.65 114.69 84.23 121.81 84.8 121.62"/><polygon class="cls-2" points="85.36 121.42 77.78 114.31 77.21 114.5 84.8 121.62 85.36 121.42"/><polygon class="cls-14" points="84.16 120.31 85.36 121.42 84.23 121.81 82.62 120.31 84.16 120.31"/><polygon class="cls-14" points="77.7 115.7 76.65 114.69 77.78 114.31 79.23 115.7 77.7 115.7"/><polygon class="cls-3" points="84.48 121.62 92.06 114.5 92.62 114.69 85.04 121.81 84.48 121.62"/><polygon class="cls-2" points="83.91 121.42 91.5 114.31 92.06 114.5 84.48 121.62 83.91 121.42"/><polygon class="cls-14" points="85.12 120.31 83.91 121.42 85.04 121.81 86.65 120.31 85.12 120.31"/><polygon class="cls-14" points="91.57 115.7 92.62 114.69 91.5 114.31 90.04 115.7 91.57 115.7"/><polygon class="cls-3" points="93.17 121.62 85.6 114.5 85.03 114.69 92.62 121.81 93.17 121.62"/><polygon class="cls-2" points="93.74 121.42 86.15 114.31 85.6 114.5 93.17 121.62 93.74 121.42"/><polygon class="cls-14" points="92.54 120.31 93.74 121.42 92.62 121.81 91 120.31 92.54 120.31"/><polygon class="cls-14" points="86.09 115.7 85.03 114.69 86.15 114.31 87.61 115.7 86.09 115.7"/><polygon class="cls-3" points="93.08 121.62 100.66 114.5 101.22 114.69 93.64 121.81 93.08 121.62"/><polygon class="cls-2" points="92.52 121.42 100.1 114.31 100.66 114.5 93.08 121.62 92.52 121.42"/><polygon class="cls-14" points="93.72 120.31 92.52 121.42 93.64 121.81 95.25 120.31 93.72 120.31"/><polygon class="cls-14" points="100.17 115.7 101.22 114.69 100.1 114.31 98.64 115.7 100.17 115.7"/><polygon class="cls-3" points="101.78 121.62 94.19 114.5 93.63 114.69 101.22 121.81 101.78 121.62"/><polygon class="cls-2" points="102.34 121.42 94.75 114.31 94.19 114.5 101.78 121.62 102.34 121.42"/><polygon class="cls-14" points="101.14 120.31 102.34 121.42 101.22 121.81 99.6 120.31 101.14 120.31"/><polygon class="cls-14" points="94.69 115.7 93.63 114.69 94.75 114.31 96.21 115.7 94.69 115.7"/><rect class="cls-2" x="84.65" y="114.54" width="0.58" height="6.78"/><rect class="cls-3" x="84.07" y="114.54" width="0.58" height="6.78"/><rect class="cls-14" x="84.07" y="119.43" width="1.17" height="1.9"/><rect class="cls-14" x="84.07" y="114.54" width="1.17" height="1.23"/><rect class="cls-2" x="93.14" y="114.54" width="0.58" height="6.78"/><rect class="cls-3" x="92.55" y="114.54" width="0.59" height="6.78"/><rect class="cls-14" x="92.55" y="119.43" width="1.17" height="1.9"/><rect class="cls-14" x="92.55" y="114.54" width="1.17" height="1.23"/><polygon class="cls-3" points="101.58 121.62 109.16 114.5 109.72 114.69 102.14 121.81 101.58 121.62"/><polygon class="cls-2" points="101.01 121.42 108.6 114.31 109.16 114.5 101.58 121.62 101.01 121.42"/><polygon class="cls-14" points="102.21 120.31 101.01 121.42 102.14 121.81 103.75 120.31 102.21 120.31"/><polygon class="cls-14" points="108.67 115.7 109.72 114.69 108.6 114.31 107.14 115.7 108.67 115.7"/><polygon class="cls-3" points="110.28 121.62 102.69 114.5 102.13 114.69 109.71 121.81 110.28 121.62"/><polygon class="cls-2" points="110.84 121.42 103.26 114.31 102.69 114.5 110.28 121.62 110.84 121.42"/><polygon class="cls-14" points="109.64 120.31 110.84 121.42 109.71 121.81 108.1 120.31 109.64 120.31"/><polygon class="cls-14" points="103.19 115.7 102.13 114.69 103.26 114.31 104.71 115.7 103.19 115.7"/><polygon class="cls-3" points="110.17 121.62 117.76 114.5 118.32 114.69 110.74 121.81 110.17 121.62"/><polygon class="cls-2" points="109.62 121.42 117.2 114.31 117.76 114.5 110.17 121.62 109.62 121.42"/><polygon class="cls-14" points="110.81 120.31 109.62 121.42 110.74 121.81 112.35 120.31 110.81 120.31"/><polygon class="cls-14" points="117.27 115.7 118.32 114.69 117.2 114.31 115.74 115.7 117.27 115.7"/><polygon class="cls-3" points="118.88 121.62 111.29 114.5 110.73 114.69 118.31 121.81 118.88 121.62"/><polygon class="cls-2" points="119.44 121.42 111.85 114.31 111.29 114.5 118.88 121.62 119.44 121.42"/><polygon class="cls-14" points="118.24 120.31 119.44 121.42 118.31 121.81 116.7 120.31 118.24 120.31"/><polygon class="cls-14" points="111.78 115.7 110.73 114.69 111.85 114.31 113.31 115.7 111.78 115.7"/><rect class="cls-2" x="101.75" y="114.54" width="0.59" height="6.78"/><rect class="cls-3" x="101.17" y="114.54" width="0.58" height="6.78"/><rect class="cls-14" x="101.17" y="119.43" width="1.17" height="1.9"/><rect class="cls-14" x="101.17" y="114.54" width="1.17" height="1.23"/><rect class="cls-2" x="110.23" y="114.54" width="0.59" height="6.78"/><rect class="cls-3" x="109.65" y="114.54" width="0.59" height="6.78"/><rect class="cls-14" x="109.65" y="119.43" width="1.18" height="1.9"/><rect class="cls-14" x="109.65" y="114.54" width="1.18" height="1.23"/><polygon class="cls-3" points="118.63 121.62 126.22 114.5 126.78 114.69 119.2 121.81 118.63 121.62"/><polygon class="cls-2" points="118.07 121.42 125.66 114.31 126.22 114.5 118.63 121.62 118.07 121.42"/><polygon class="cls-14" points="119.27 120.31 118.07 121.42 119.2 121.81 120.81 120.31 119.27 120.31"/><polygon class="cls-14" points="125.72 115.7 126.78 114.69 125.66 114.31 124.19 115.7 125.72 115.7"/><polygon class="cls-3" points="127.33 121.62 119.74 114.5 119.19 114.69 126.77 121.81 127.33 121.62"/><polygon class="cls-2" points="127.89 121.42 120.31 114.31 119.74 114.5 127.33 121.62 127.89 121.42"/><polygon class="cls-14" points="126.7 120.31 127.89 121.42 126.77 121.81 125.16 120.31 126.7 120.31"/><polygon class="cls-14" points="120.24 115.7 119.19 114.69 120.31 114.31 121.76 115.7 120.24 115.7"/><polygon class="cls-3" points="134.63 114.68 127.23 121.62 127.79 121.81 134.63 115.4 134.63 114.68"/><polygon class="cls-2" points="134.63 114.44 134.25 114.31 126.67 121.42 127.23 121.62 134.63 114.68 134.63 114.44"/><polygon class="cls-14" points="127.87 120.31 126.67 121.42 127.79 121.81 129.41 120.31 127.87 120.31"/><polygon class="cls-14" points="134.63 114.44 134.25 114.31 132.79 115.7 134.32 115.7 134.63 115.41 134.63 114.44"/><polygon class="cls-3" points="134.63 120.39 128.34 114.5 127.78 114.69 134.63 121.11 134.63 120.39"/><polygon class="cls-2" points="134.63 119.67 128.91 114.31 128.34 114.5 134.63 120.39 134.63 119.67"/><polygon class="cls-14" points="134.63 120.31 133.75 120.31 134.63 121.11 134.63 120.31"/><polygon class="cls-14" points="128.84 115.7 127.78 114.69 128.91 114.31 130.37 115.7 128.84 115.7"/><rect class="cls-2" x="118.81" y="114.54" width="0.59" height="6.78"/><rect class="cls-3" x="118.22" y="114.54" width="0.58" height="6.78"/><rect class="cls-14" x="118.22" y="119.43" width="1.17" height="1.9"/><rect class="cls-14" x="118.22" y="114.54" width="1.17" height="1.23"/><rect class="cls-2" x="127.29" y="114.54" width="0.59" height="6.78"/><rect class="cls-3" x="126.71" y="114.54" width="0.58" height="6.78"/><rect class="cls-14" x="126.71" y="119.43" width="1.17" height="1.9"/><rect class="cls-14" x="126.71" y="114.54" width="1.17" height="1.23"/><rect class="cls-2" x="75.63" y="120.96" width="58.99" height="0.59"/><rect class="cls-3" x="75.63" y="121.55" width="58.99" height="0.6"/><rect class="cls-2" x="75.63" y="113.65" width="58.99" height="0.6"/><rect class="cls-3" x="75.63" y="114.25" width="58.99" height="0.59"/><polygon class="cls-3" points="76.1 164.41 83.68 157.29 84.25 157.48 76.66 164.6 76.1 164.41"/><polygon class="cls-2" points="75.54 164.21 83.12 157.09 83.68 157.29 76.1 164.41 75.54 164.21"/><polygon class="cls-14" points="76.73 163.09 75.54 164.21 76.66 164.6 78.27 163.09 76.73 163.09"/><polygon class="cls-14" points="83.19 158.49 84.25 157.48 83.12 157.09 81.66 158.49 83.19 158.49"/><polygon class="cls-3" points="84.8 164.41 77.21 157.29 76.65 157.48 84.23 164.6 84.8 164.41"/><polygon class="cls-2" points="85.36 164.21 77.78 157.09 77.21 157.29 84.8 164.41 85.36 164.21"/><polygon class="cls-14" points="84.16 163.09 85.36 164.21 84.23 164.6 82.62 163.09 84.16 163.09"/><polygon class="cls-14" points="77.7 158.49 76.65 157.48 77.78 157.09 79.23 158.49 77.7 158.49"/><polygon class="cls-3" points="84.48 164.41 92.06 157.29 92.62 157.48 85.04 164.6 84.48 164.41"/><polygon class="cls-2" points="83.91 164.21 91.5 157.09 92.06 157.29 84.48 164.41 83.91 164.21"/><polygon class="cls-14" points="85.12 163.09 83.91 164.21 85.04 164.6 86.65 163.09 85.12 163.09"/><polygon class="cls-14" points="91.57 158.49 92.62 157.48 91.5 157.09 90.04 158.49 91.57 158.49"/><polygon class="cls-3" points="93.17 164.41 85.6 157.29 85.03 157.48 92.62 164.6 93.17 164.41"/><polygon class="cls-2" points="93.74 164.21 86.15 157.09 85.6 157.29 93.17 164.41 93.74 164.21"/><polygon class="cls-14" points="92.54 163.09 93.74 164.21 92.62 164.6 91 163.09 92.54 163.09"/><polygon class="cls-14" points="86.09 158.49 85.03 157.48 86.15 157.09 87.61 158.49 86.09 158.49"/><polygon class="cls-3" points="93.08 164.41 100.66 157.29 101.22 157.48 93.64 164.6 93.08 164.41"/><polygon class="cls-2" points="92.52 164.21 100.1 157.09 100.66 157.29 93.08 164.41 92.52 164.21"/><polygon class="cls-14" points="93.72 163.09 92.52 164.21 93.64 164.6 95.25 163.09 93.72 163.09"/><polygon class="cls-14" points="100.17 158.49 101.22 157.48 100.1 157.09 98.64 158.49 100.17 158.49"/><polygon class="cls-3" points="101.78 164.41 94.19 157.29 93.63 157.48 101.22 164.6 101.78 164.41"/><polygon class="cls-2" points="102.34 164.21 94.75 157.09 94.19 157.29 101.78 164.41 102.34 164.21"/><polygon class="cls-14" points="101.14 163.09 102.34 164.21 101.22 164.6 99.6 163.09 101.14 163.09"/><polygon class="cls-14" points="94.69 158.49 93.63 157.48 94.75 157.09 96.21 158.49 94.69 158.49"/><rect class="cls-2" x="84.65" y="157.33" width="0.58" height="6.78"/><rect class="cls-3" x="84.07" y="157.33" width="0.58" height="6.78"/><rect class="cls-14" x="84.07" y="162.21" width="1.17" height="1.9"/><rect class="cls-14" x="84.07" y="157.33" width="1.17" height="1.23"/><rect class="cls-2" x="93.14" y="157.33" width="0.58" height="6.78"/><rect class="cls-3" x="92.55" y="157.33" width="0.59" height="6.78"/><rect class="cls-14" x="92.55" y="162.21" width="1.17" height="1.9"/><rect class="cls-14" x="92.55" y="157.33" width="1.17" height="1.23"/><polygon class="cls-3" points="101.58 164.41 109.16 157.29 109.72 157.48 102.14 164.6 101.58 164.41"/><polygon class="cls-2" points="101.01 164.21 108.6 157.09 109.16 157.29 101.58 164.41 101.01 164.21"/><polygon class="cls-14" points="102.21 163.09 101.01 164.21 102.14 164.6 103.75 163.09 102.21 163.09"/><polygon class="cls-14" points="108.67 158.49 109.72 157.48 108.6 157.09 107.14 158.49 108.67 158.49"/><polygon class="cls-3" points="110.28 164.41 102.69 157.29 102.13 157.48 109.71 164.6 110.28 164.41"/><polygon class="cls-2" points="110.84 164.21 103.26 157.09 102.69 157.29 110.28 164.41 110.84 164.21"/><polygon class="cls-14" points="109.64 163.09 110.84 164.21 109.71 164.6 108.1 163.09 109.64 163.09"/><polygon class="cls-14" points="103.19 158.49 102.13 157.48 103.26 157.09 104.71 158.49 103.19 158.49"/><polygon class="cls-3" points="110.17 164.41 117.76 157.29 118.32 157.48 110.74 164.6 110.17 164.41"/><polygon class="cls-2" points="109.62 164.21 117.2 157.09 117.76 157.29 110.17 164.41 109.62 164.21"/><polygon class="cls-14" points="110.81 163.09 109.62 164.21 110.74 164.6 112.35 163.09 110.81 163.09"/><polygon class="cls-14" points="117.27 158.49 118.32 157.48 117.2 157.09 115.74 158.49 117.27 158.49"/><polygon class="cls-3" points="118.88 164.41 111.29 157.29 110.73 157.48 118.31 164.6 118.88 164.41"/><polygon class="cls-2" points="119.44 164.21 111.85 157.09 111.29 157.29 118.88 164.41 119.44 164.21"/><polygon class="cls-14" points="118.24 163.09 119.44 164.21 118.31 164.6 116.7 163.09 118.24 163.09"/><polygon class="cls-14" points="111.78 158.49 110.73 157.48 111.85 157.09 113.31 158.49 111.78 158.49"/><rect class="cls-2" x="101.75" y="157.33" width="0.59" height="6.78"/><rect class="cls-3" x="101.17" y="157.33" width="0.58" height="6.78"/><rect class="cls-14" x="101.17" y="162.21" width="1.17" height="1.9"/><rect class="cls-14" x="101.17" y="157.33" width="1.17" height="1.23"/><rect class="cls-2" x="110.23" y="157.33" width="0.59" height="6.78"/><rect class="cls-3" x="109.65" y="157.33" width="0.59" height="6.78"/><rect class="cls-14" x="109.65" y="162.21" width="1.18" height="1.9"/><rect class="cls-14" x="109.65" y="157.33" width="1.18" height="1.23"/><polygon class="cls-3" points="118.63 164.41 126.22 157.29 126.78 157.48 119.2 164.6 118.63 164.41"/><polygon class="cls-2" points="118.07 164.21 125.66 157.09 126.22 157.29 118.63 164.41 118.07 164.21"/><polygon class="cls-14" points="119.27 163.09 118.07 164.21 119.2 164.6 120.81 163.09 119.27 163.09"/><polygon class="cls-14" points="125.72 158.49 126.78 157.48 125.66 157.09 124.19 158.49 125.72 158.49"/><polygon class="cls-3" points="127.33 164.41 119.74 157.29 119.19 157.48 126.77 164.6 127.33 164.41"/><polygon class="cls-2" points="127.89 164.21 120.31 157.09 119.74 157.29 127.33 164.41 127.89 164.21"/><polygon class="cls-14" points="126.7 163.09 127.89 164.21 126.77 164.6 125.16 163.09 126.7 163.09"/><polygon class="cls-14" points="120.24 158.49 119.19 157.48 120.31 157.09 121.76 158.49 120.24 158.49"/><polygon class="cls-3" points="134.63 157.47 127.23 164.41 127.79 164.6 134.63 158.19 134.63 157.47"/><polygon class="cls-2" points="134.63 157.22 134.25 157.09 126.67 164.21 127.23 164.41 134.63 157.47 134.63 157.22"/><polygon class="cls-14" points="127.87 163.09 126.67 164.21 127.79 164.6 129.41 163.09 127.87 163.09"/><polygon class="cls-14" points="134.63 157.22 134.25 157.09 132.79 158.49 134.32 158.49 134.63 158.2 134.63 157.22"/><polygon class="cls-3" points="134.63 163.18 128.34 157.29 127.78 157.48 134.63 163.9 134.63 163.18"/><polygon class="cls-2" points="134.63 162.46 128.91 157.09 128.34 157.29 134.63 163.18 134.63 162.46"/><polygon class="cls-14" points="134.63 163.09 133.75 163.09 134.63 163.91 134.63 163.09"/><polygon class="cls-14" points="128.84 158.49 127.78 157.48 128.91 157.09 130.37 158.49 128.84 158.49"/><rect class="cls-2" x="118.81" y="157.33" width="0.59" height="6.78"/><rect class="cls-3" x="118.22" y="157.33" width="0.58" height="6.78"/><rect class="cls-14" x="118.22" y="162.21" width="1.17" height="1.9"/><rect class="cls-14" x="118.22" y="157.33" width="1.17" height="1.23"/><rect class="cls-2" x="127.29" y="157.33" width="0.59" height="6.78"/><rect class="cls-3" x="126.71" y="157.33" width="0.58" height="6.78"/><rect class="cls-14" x="126.71" y="162.21" width="1.17" height="1.9"/><rect class="cls-14" x="126.71" y="157.33" width="1.17" height="1.23"/><rect class="cls-2" x="75.63" y="163.74" width="58.99" height="0.59"/><rect class="cls-3" x="75.63" y="164.34" width="58.99" height="0.6"/><rect class="cls-2" x="75.63" y="156.44" width="58.99" height="0.59"/><rect class="cls-3" x="75.63" y="157.03" width="58.99" height="0.6"/><rect class="cls-2" x="134.25" y="58.75" width="0.79" height="131.31"/><rect class="cls-3" x="133.47" y="58.75" width="0.78" height="131.31"/><polygon class="cls-15" points="72.92 60.22 137.58 60.22 134.5 47.08 77.08 47.08 72.92 60.22"/><polygon class="cls-8" points="134.73 48.11 134.5 47.08 77.08 47.08 76.76 48.11 134.73 48.11"/><path class="cls-16" d="M106.13,58.72c-6.5-.12-13.22-.51-19.3-3-3.53-1.44-7.69-3.66-10.33-6.82L72.92,60.22h64.66l-2.25-9.54C127.28,57.16,116.38,58.9,106.13,58.72Z"/><rect class="cls-17" x="75.36" y="73.03" width="18.51" height="14.14"/><rect class="cls-18" x="75.36" y="73.03" width="1.91" height="14.14"/><rect class="cls-18" x="79.47" y="73.03" width="2.13" height="14.14"/><rect class="cls-18" x="83.8" y="73.03" width="2.12" height="14.14"/><rect class="cls-18" x="88.12" y="73.03" width="2.12" height="14.14"/><rect class="cls-18" x="92.45" y="73.03" width="1.43" height="14.14"/><rect class="cls-19" x="75.36" y="73.03" width="18.51" height="14.14"/><rect class="cls-17" x="91.77" y="73.03" width="18.5" height="14.14"/><rect class="cls-18" x="91.77" y="73.03" width="1.91" height="14.14"/><rect class="cls-18" x="95.88" y="73.03" width="2.12" height="14.14"/><rect class="cls-18" x="100.21" y="73.03" width="2.12" height="14.14"/><rect class="cls-18" x="104.53" y="73.03" width="2.12" height="14.14"/><rect class="cls-18" x="108.86" y="73.03" width="1.42" height="14.14"/><g class="cls-20"><rect class="cls-21" x="91.77" y="73.03" width="18.5" height="1.12"/></g><path class="cls-22" d="M109.91,78.31a25.24,25.24,0,0,1-.91,3,6.44,6.44,0,0,1-1.51,2.58A7.81,7.81,0,0,1,105,85.49a10.91,10.91,0,0,1-5.9.74,8.73,8.73,0,0,1-2.66-.91,8,8,0,0,1-2.35-2,11.49,11.49,0,0,1-2.3-5.17v9h18.51v-11C110.19,76.89,110.07,77.61,109.91,78.31Z"/><rect class="cls-7" x="109.88" y="71.69" width="1.14" height="16.03"/><rect class="cls-7" x="91.5" y="71.69" width="1.14" height="16.03"/><path class="cls-23" d="M90.4,65a13.17,13.17,0,0,0-6-1.48l-2.32.07c-2,.72-4,1.64-5.18,3.37a12.18,12.18,0,0,0-2.09,6.25H92.62a17.9,17.9,0,0,1,.76-4.6A6.6,6.6,0,0,0,90.4,65Z"/><path class="cls-23" d="M90.4,65l-.22-.11c-3.28,2.62-3.18,7.26-3.1,8.32h5.54a17.9,17.9,0,0,1,.76-4.6A6.6,6.6,0,0,0,90.4,65Z"/><path class="cls-24" d="M90.18,64.91a12.35,12.35,0,0,0-3.94-1.22c-5.5,2-5.38,8.28-5.29,9.54h6.13C87,72.17,86.9,67.53,90.18,64.91Z"/><path class="cls-23" d="M86.24,63.69c-.61-.08-1.22-.12-1.84-.15l-2.68.08-.21,0h-.62c-5.66,2-5.53,8.32-5.44,9.59H81C80.86,72,80.74,65.7,86.24,63.69Z"/><path class="cls-25" d="M90.4,65l-.22-.11L90,64.8l-.55-.25-.26-.11-.35-.13-.31-.11L88,64.05,87.65,64l-.33-.08-.39-.08-.46-.08-.23,0h-.07l-.73-.08h-.16l-.88-.06h0l-2.32.07h-.36l-.21,0h-.62a7.47,7.47,0,0,0-4.59,4.3,12.76,12.76,0,0,0-1.49,5.29H92.62a17.9,17.9,0,0,1,.76-4.6A6.6,6.6,0,0,0,90.4,65Z"/><path class="cls-26" d="M79.19,69.39a8,8,0,0,1,8-3,8.4,8.4,0,0,1,5.67,4.19,15,15,0,0,1,.47-1.93,6.6,6.6,0,0,0-3-3.61l-.22-.11L90,64.8l-.55-.25-.26-.11-.35-.13-.31-.11L88,64.05,87.65,64l-.33-.08-.39-.08-.46-.08-.23,0h-.07l-.73-.08h-.16l-.88-.06h0l-2.32.07h-.36l-.21,0h-.62a7.47,7.47,0,0,0-4.59,4.3,12.76,12.76,0,0,0-1.49,5.29h3A7.28,7.28,0,0,1,79.19,69.39Z"/><path class="cls-8" d="M84.23,63.08l22.45.63s4.6.43,5.37,6a24.92,24.92,0,0,1,.07,3.53H92.57s-.09-5.16-2.28-7.27S84.23,63.08,84.23,63.08Z"/><path class="cls-15" d="M98.25,63.48l-7-.2c7.08,1.3,6.93,8.58,6.84,10h6.13C104.32,71.92,104.47,65.18,98.25,63.48Z"/><path class="cls-8" d="M104.3,63.64l-6-.16c6.22,1.7,6.07,8.44,6,9.75h5.5C109.82,72,110,65.59,104.3,63.64Z"/><path class="cls-15" d="M112.05,69.7c-.77-5.56-5.37-6-5.37-6l-2.38-.07c5.66,2,5.52,8.32,5.44,9.59h2.38A24.92,24.92,0,0,0,112.05,69.7Z"/><path class="cls-27" d="M88.23,64.33c1,.43,1.66,1.31,2.62,1.81a17.73,17.73,0,0,0,3.44,1.4,20.8,20.8,0,0,0,6.76.75,26.79,26.79,0,0,0,9.6-2.2,6.12,6.12,0,0,0-4-2.38l-22.45-.63a17,17,0,0,1,3.52,1.19A.82.82,0,0,1,88.23,64.33Z"/><path class="cls-2" d="M91.39,73.45H93s1.16-10.14-8.81-10.37-9.79,8.45-9.92,10.24h1.61s-.49-9.37,8.36-9C92.24,64.6,91.39,73.45,91.39,73.45Z"/><path class="cls-28" d="M124.32,65.21a8,8,0,0,0,2.08,2.26c.09-.69,0-1.44,0-2.15,0-.24.09-.51.14-.77a2.1,2.1,0,0,1,.06-.24c-.81.27-1.61.5-2.43.7Z"/><path class="cls-29" d="M127.86,64.12c.39.38.77.78,1.13,1.2a4.25,4.25,0,0,0,.82,1,18.4,18.4,0,0,1,.44-2.33c.05-.19.1-.5.16-.8,0-.1,0-.19.06-.29-.92.4-1.86.75-2.78,1.09Z"/><path class="cls-28" d="M131,62.64c0,.06.08.14.13.21a6.21,6.21,0,0,0,1.67,1.84c0-1,.34-2,.44-3,0-.1,0-.2,0-.3A17,17,0,0,1,131,62.64Z"/><path class="cls-30" d="M112.15,65.29a1.59,1.59,0,0,0,.07.2,20.17,20.17,0,0,0,1.52,3,9.64,9.64,0,0,0,.75-2.72,1,1,0,0,1,0-.17,21.58,21.58,0,0,1-2.14-.28Z"/><path class="cls-29" d="M119.7,65.67a1.28,1.28,0,0,0,.11.2c.53.93,1.25,1.82,1.84,2.67a15.19,15.19,0,0,1,.75-2.93,2,2,0,0,0,0-.24,22.14,22.14,0,0,1-2.45.29Z"/><path class="cls-8" d="M115.94,65.71l.06.16c.35,1,1.13,1.82,1.56,2.78a13.49,13.49,0,0,1,.6-2.75,1.15,1.15,0,0,1,.06-.17C117.46,65.74,116.7,65.74,115.94,65.71Z"/><path class="cls-15" d="M91.39,73.45a9,9,0,0,0,0-1c-8.9.4-24.81,2.11-36.55,8.84-17.17,9.83-25.39,23.07-12.52,43.81,1.13,1.83,2.21,3.59,3.25,5.32-.9-1.92-1.76-3.69-2.53-5.14-4.12-7.69-3.94-23.78,8.76-31.65C63,86.67,73,81.69,91.5,80.82V73.45Z"/><path class="cls-15" d="M.67,105c-2.14,17.88,12.88,22.72,12.16,49.36-.37,13.89-4.53,20.78-11.72,24.35l-.08.06c-1.07.9-2.06,2.33,1.16,7.07s10.11,9.66,18.6,10.46,15.49-.92,23.61-8c1.24-1.08,3.48-2.38,4.37-3.21.31-.53.62-1.06.9-1.61,11.43-21.54,6.62-35.19-4.08-53.17-1-1.73-2.12-3.49-3.25-5.32-12.87-20.74-4.65-34,12.52-43.81C66.6,74.51,82.51,72.8,91.41,72.4c0-.09,0-.19,0-.29C25.43,70.91,2.75,87.71.67,105Z"/><path class="cls-31" d="M49.38,184.08l-.61,1.07A3.8,3.8,0,0,0,49.38,184.08Z"/><path class="cls-32" d="M52.13,74.51c9.4-1.38,18.39-2,24.62-2.36l2.15-.05a235.35,235.35,0,0,0-27.38,2,1.19,1.19,0,0,1,.49.28A.88.88,0,0,1,52.13,74.51Z"/><path class="cls-33" d="M24.81,81.32c7.8-3.27,17.58-5.39,27-6.76a1.66,1.66,0,0,0-.7-.45C40,75.65,31,78,23.93,80.85a2,2,0,0,1,.55.21A1.64,1.64,0,0,1,24.81,81.32Z"/><path class="cls-33" d="M45.94,133.91a2.24,2.24,0,0,0-.71,1c4,6.41,7.44,13.23,7.44,23,0,.92,0,1.81,0,2.66a3,3,0,0,1,1.59-1.38,2.63,2.63,0,0,1,2,.46c-.21-8.57-3.41-16.44-8.3-25.17C47.43,133.8,46.75,133.32,45.94,133.91Z"/><path class="cls-34" d="M53.32,160.1a6.79,6.79,0,0,0-.71,1c-.64,16.43-6.11,21.07-6.11,21.07-3.42,1.94-7.24,11.33-21.8,11.93s-19.18-9.45-20.12-12a4.2,4.2,0,0,0-.42-.85,28.42,28.42,0,0,0,9.55-14.75l-.05-.06c-.69-.88-1.64-.62-2.53-.06-1.89,6.23-5.31,10-10,12.34l-.08.06c-1.07.9-2.06,2.33,1.16,7.07s10.11,9.66,18.6,10.46,15.49-.92,23.61-8c1.24-1.08,3.48-2.38,4.37-3.21.31-.53.62-1.06.9-1.61,4.73-8.91,6.68-16.47,6.58-23.54a3.15,3.15,0,0,0-1.43-.42A1.59,1.59,0,0,0,53.32,160.1Z"/><path class="cls-32" d="M11.77,138.15a1.84,1.84,0,0,1,1.27-.24A81.39,81.39,0,0,0,7.65,124.4C4.9,118.89,3.2,113.53,3,108.46c-.23-.67-.53-1.53-1.25-1.59a1.54,1.54,0,0,0-1.23.49c-.47,12,7.14,18.18,10.65,31.3A3.12,3.12,0,0,1,11.77,138.15Z"/><path class="cls-32" d="M34.26,114c.13.49.27,1,.43,1.5,2.38,7.44,6.59,13.09,10.34,19.06a2,2,0,0,1,1.19-1.15,1.55,1.55,0,0,1,1.17.06c-.58-1-1.19-2-1.8-3.09-1-1.73-2.12-3.49-3.25-5.32A44.33,44.33,0,0,1,37,113.3C36.29,113,35.25,113.4,34.26,114Z"/><path class="cls-33" d="M13.83,166.07a28.82,28.82,0,0,0,.61-3.1,55.83,55.83,0,0,0-1.31-24.75,1.41,1.41,0,0,0-1.12.06,2.57,2.57,0,0,0-.81.63,54.6,54.6,0,0,1,1.63,15.47A46.32,46.32,0,0,1,11.23,166a2.94,2.94,0,0,1,1.49-.47A1.45,1.45,0,0,1,13.83,166.07Z"/><path class="cls-34" d="M2.93,107.52c-.1-9.75,5.39-18.43,19.56-25.17.66-.31,1.34-.61,2-.9a1.78,1.78,0,0,0-1-.45C8.33,87.26,1.75,96.08.67,105c-.08.68-.13,1.34-.17,2a1.64,1.64,0,0,1,.7-.37A1.5,1.5,0,0,1,2.93,107.52Z"/><path class="cls-15" d="M28.14,97.69c-1.58-1.9-2.06-4.36-2.32-6.75a33.37,33.37,0,0,1-.29-3.6c0-1,0-2,0-3a4.93,4.93,0,0,0-.75-2.68,2.13,2.13,0,0,0-.22-.21c-.69.29-1.37.59-2,.9C8.32,89.09,2.83,97.77,2.93,107.52a2.74,2.74,0,0,1,.21.42A21.27,21.27,0,0,0,5,112a13.74,13.74,0,0,0,3,3.32c6.05,4.7,14.75,4.34,21.45,1.33,1.71-.76,3.07-2.08,4.69-3A24.89,24.89,0,0,1,34,100.31,7.14,7.14,0,0,1,28.14,97.69Z"/><path class="cls-35" d="M24.39,118.72A21.45,21.45,0,0,1,14,118.54a15.94,15.94,0,0,1-8.44-5.39,18.34,18.34,0,0,1-2.44-4.31L3,108.46c.24,5.07,1.94,10.43,4.69,15.94A81.39,81.39,0,0,1,13,137.91a3,3,0,0,1,1.23.53c1.11.73,2.1,1.63,3.23,2.35a26.58,26.58,0,0,0,4.4,2.2c5.58,2.19,12.41,3,17.78-.2A11.23,11.23,0,0,0,42.84,140a10.75,10.75,0,0,0,1.25-2,8,8,0,0,0,.49-1.86,7.62,7.62,0,0,1,.45-1.61c-3.75-6-8-11.62-10.34-19.06-.16-.51-.3-1-.43-1.5a25.36,25.36,0,0,0-2.29,1.6A19.26,19.26,0,0,1,24.39,118.72Z"/><path class="cls-36" d="M44.31,138.32A10.47,10.47,0,0,1,43,140.38c-3.49,4.31-9.64,5.36-14.87,4.59a29.06,29.06,0,0,1-9.77-3.39A24.9,24.9,0,0,1,16,140.11c-.54-.39-1-.83-1.58-1.21a4.8,4.8,0,0,0-1.24-.68A55.83,55.83,0,0,1,14.44,163a28.82,28.82,0,0,1-.61,3.1,2.36,2.36,0,0,1,.32.44,16.87,16.87,0,0,0,1.35,2.12c2.47,3.12,6.43,4.17,10.25,4.54a50.13,50.13,0,0,0,5.34.16,40.1,40.1,0,0,0,5.8-.41,21.61,21.61,0,0,0,9.85-4.36,16.14,16.14,0,0,0,3.4-3.6c.78-1.17,1.32-2.47,2-3.68.14-.23.29-.49.46-.75,0-.85,0-1.74,0-2.66,0-9.77-3.42-16.59-7.44-23a8,8,0,0,0-.35,1.34A7.76,7.76,0,0,1,44.31,138.32Z"/><path class="cls-35" d="M90.43,72.1h-.07l-2.11,0h-.38l-2.16,0H83.32L79,72.1h-.1l-2.15.05c-6.23.34-15.22,1-24.62,2.36a2.05,2.05,0,0,1,.24,1.21c0,1.61-.54,3.87.65,5.2.71-.38,1.45-.75,2.2-1.11,10.47-5.09,21.65-6.56,29.28-6.91,2.55-.26,4.87-.41,6.85-.5h.06a2.62,2.62,0,0,0,0-.28Z"/><path class="cls-36" d="M52,77.71a20.42,20.42,0,0,0,.11-2.47,1,1,0,0,0-.28-.68c-9.4,1.37-19.18,3.49-27,6.76a3.1,3.1,0,0,1,.8,1.58c.42,1.88.14,3.83.3,5.74.22,2.52.34,5.31,1.6,7.57A7.5,7.5,0,0,0,34.09,100c2.24-7.45,8.56-13.65,18.69-19C52,80.27,51.92,78.67,52,77.71Z"/><path class="cls-15" d="M46.19,169.46a22.44,22.44,0,0,1-9.5,3.84,47,47,0,0,1-10.8.26c-3.16-.29-6.79-1-9.26-3.13a11.16,11.16,0,0,1-1.87-2.13c-.39-.56-.65-1.24-1-1.79a28.42,28.42,0,0,1-9.55,14.75,4.2,4.2,0,0,1,.42.85c.94,2.52,5.57,12.58,20.12,12s18.38-10,21.8-11.93c0,0,5.47-4.64,6.11-21.07a18.8,18.8,0,0,0-1,2A15.41,15.41,0,0,1,46.19,169.46Z"/><path class="cls-11" d="M54.22,159.15a3,3,0,0,0-1.59,1.38c0,.19,0,.37,0,.55a6.79,6.79,0,0,1,.71-1,1.59,1.59,0,0,1,1.5-.52,3.15,3.15,0,0,1,1.43.42c0-.14,0-.26,0-.39A2.63,2.63,0,0,0,54.22,159.15Z"/><path class="cls-37" d="M54.22,159.15a3,3,0,0,0-1.59,1.38c0,.19,0,.37,0,.55a6.79,6.79,0,0,1,.71-1,1.59,1.59,0,0,1,1.5-.52,3.15,3.15,0,0,1,1.43.42c0-.14,0-.26,0-.39A2.63,2.63,0,0,0,54.22,159.15Z"/><path class="cls-11" d="M13.66,166.45l.05.06.12-.44a1.45,1.45,0,0,0-1.11-.5,2.94,2.94,0,0,0-1.49.47c0,.11-.06.23-.1.35C12,165.83,13,165.57,13.66,166.45Z"/><path class="cls-37" d="M13.66,166.45l.05.06.12-.44a1.45,1.45,0,0,0-1.11-.5,2.94,2.94,0,0,0-1.49.47c0,.11-.06.23-.1.35C12,165.83,13,165.57,13.66,166.45Z"/><path class="cls-11" d="M50.14,165a16.14,16.14,0,0,1-3.4,3.6,21.61,21.61,0,0,1-9.85,4.36,40.1,40.1,0,0,1-5.8.41,50.13,50.13,0,0,1-5.34-.16c-3.82-.37-7.78-1.42-10.25-4.54a16.87,16.87,0,0,1-1.35-2.12,2.36,2.36,0,0,0-.32-.44l-.12.44c.4.55.66,1.23,1,1.79a11.16,11.16,0,0,0,1.87,2.13c2.47,2.17,6.1,2.84,9.26,3.13a47,47,0,0,0,10.8-.26,22.44,22.44,0,0,0,9.5-3.84,15.41,15.41,0,0,0,5.4-6.38,18.8,18.8,0,0,1,1-2c0-.18,0-.36,0-.55-.17.26-.32.52-.46.75C51.46,162.49,50.92,163.79,50.14,165Z"/><path class="cls-37" d="M50.14,165a16.14,16.14,0,0,1-3.4,3.6,21.61,21.61,0,0,1-9.85,4.36,40.1,40.1,0,0,1-5.8.41,50.13,50.13,0,0,1-5.34-.16c-3.82-.37-7.78-1.42-10.25-4.54a16.87,16.87,0,0,1-1.35-2.12,2.36,2.36,0,0,0-.32-.44l-.12.44c.4.55.66,1.23,1,1.79a11.16,11.16,0,0,0,1.87,2.13c2.47,2.17,6.1,2.84,9.26,3.13a47,47,0,0,0,10.8-.26,22.44,22.44,0,0,0,9.5-3.84,15.41,15.41,0,0,0,5.4-6.38,18.8,18.8,0,0,1,1-2c0-.18,0-.36,0-.55-.17.26-.32.52-.46.75C51.46,162.49,50.92,163.79,50.14,165Z"/><path class="cls-37" d="M12,138.28a1.41,1.41,0,0,1,1.12-.06l-.09-.31a1.84,1.84,0,0,0-1.27.24,3.12,3.12,0,0,0-.64.51l.07.25A2.57,2.57,0,0,1,12,138.28Z"/><path class="cls-37" d="M46.22,133.4A2,2,0,0,0,45,134.55l.2.32a2.24,2.24,0,0,1,.71-1c.81-.59,1.49-.11,2,.53l-.55-1A1.55,1.55,0,0,0,46.22,133.4Z"/><path class="cls-37" d="M44.09,138a10.75,10.75,0,0,1-1.25,2,11.23,11.23,0,0,1-3.16,2.78c-5.37,3.24-12.2,2.39-17.78.2a26.58,26.58,0,0,1-4.4-2.2c-1.13-.72-2.12-1.62-3.23-2.35a3,3,0,0,0-1.23-.53l.09.31a4.8,4.8,0,0,1,1.24.68c.54.38,1,.82,1.58,1.21a24.9,24.9,0,0,0,2.43,1.47A29.06,29.06,0,0,0,28.15,145c5.23.77,11.38-.28,14.87-4.59a10.47,10.47,0,0,0,1.29-2.06,7.76,7.76,0,0,0,.57-2.11,8,8,0,0,1,.35-1.34l-.2-.32a7.62,7.62,0,0,0-.45,1.61A8,8,0,0,1,44.09,138Z"/><path class="cls-37" d="M1.71,106.87c.72.06,1,.92,1.25,1.59,0-.31,0-.63,0-.94a1.5,1.5,0,0,0-1.73-.88,1.64,1.64,0,0,0-.7.37c0,.12,0,.24,0,.35A1.54,1.54,0,0,1,1.71,106.87Z"/><path class="cls-37" d="M34.57,113.43l-.4.24c0,.1.06.2.09.32,1-.59,2-1,2.74-.69,0-.14-.07-.28-.1-.41A3.58,3.58,0,0,0,34.57,113.43Z"/><path class="cls-37" d="M8,115.34A13.74,13.74,0,0,1,5,112a21.27,21.27,0,0,1-1.89-4.08,2.74,2.74,0,0,0-.21-.42c0,.31,0,.63,0,.94l.14.38a18.34,18.34,0,0,0,2.44,4.31A15.94,15.94,0,0,0,14,118.54a21.45,21.45,0,0,0,10.41.18A19.26,19.26,0,0,0,32,115.59a25.36,25.36,0,0,1,2.29-1.6c0-.12-.06-.22-.09-.32-1.62.92-3,2.24-4.69,3C22.78,119.68,14.08,120,8,115.34Z"/><path class="cls-37" d="M24.81,81.32a1.64,1.64,0,0,0-.33-.26,2,2,0,0,0-.55-.21,2.87,2.87,0,0,0-.37.15,1.78,1.78,0,0,1,1,.45Z"/><path class="cls-32" d="M73.32,74.63A107.14,107.14,0,0,1,84.5,72.9a88.59,88.59,0,0,0-11.65,1.3h0A1.47,1.47,0,0,1,73.32,74.63Z"/><path class="cls-37" d="M72.88,74.21h0l-.57.11a1,1,0,0,1,.78.37l.26-.05A1.47,1.47,0,0,0,72.88,74.21Z"/><path class="cls-37" d="M30.27,99a7,7,0,0,1-2.76-2.8c-1.26-2.26-1.38-5-1.6-7.57-.16-1.91.12-3.86-.3-5.74a3.1,3.1,0,0,0-.8-1.58l-.29.13a2.13,2.13,0,0,1,.22.21,4.93,4.93,0,0,1,.75,2.68c.07,1,0,2,0,3a33.37,33.37,0,0,0,.29,3.6c.26,2.39.74,4.85,2.32,6.75A7.14,7.14,0,0,0,34,100.31c0-.09.06-.19.08-.28A7,7,0,0,1,30.27,99Z"/><path class="cls-37" d="M51.79,74.56l.34,0a.88.88,0,0,0-.12-.17,1.19,1.19,0,0,0-.49-.28l-.43,0A1.66,1.66,0,0,1,51.79,74.56Z"/><path class="cls-37" d="M46.37,84.89l-.33.23a8.92,8.92,0,0,1,1.7.82l.22-.17A5,5,0,0,0,46.37,84.89Z"/><path class="cls-34" d="M34.09,100c0,.09-.05.19-.08.28a24.89,24.89,0,0,0,.16,13.36l.4-.24a3.58,3.58,0,0,1,2.33-.54c-2.89-11.33,1.79-20,10.84-26.95a8.92,8.92,0,0,0-1.7-.82C39.81,89.49,35.79,94.41,34.09,100Z"/><path class="cls-33" d="M72.28,74.31a68.17,68.17,0,0,0-17.06,5.5c-.75.36-1.49.73-2.2,1.11-.08,0-.16.08-.24.12a64.65,64.65,0,0,0-6.41,3.85,5,5,0,0,1,1.59.88,61.9,61.9,0,0,1,6.9-4.53,64.38,64.38,0,0,1,18.2-6.56A1,1,0,0,0,72.28,74.31Z"/><path class="cls-37" d="M52.37,75.72a2.05,2.05,0,0,0-.24-1.21l-.34,0a1,1,0,0,1,.28.68A20.42,20.42,0,0,1,52,77.71c0,1,0,2.56.82,3.33.08,0,.16-.09.24-.12C51.83,79.59,52.36,77.33,52.37,75.72Z"/><path class="cls-38" d="M46.5,182.15c-3.42,1.94-7.24,11.33-21.8,11.93s-19.18-9.45-20.12-12a4.2,4.2,0,0,0-.42-.85C3,179.41.72,178.54.08,180.15c-.28,1,.08,2.73,2.11,5.71,3.22,4.73,10.11,9.66,18.6,10.46s15.49-.92,23.61-8c1.24-1.08,3.48-2.38,4.37-3.21l.61-1.07C50,182.42,49.28,180.56,46.5,182.15Z"/><path class="cls-39" d="M41.27,75.79C13.2,81.54,2.1,93.16.67,105c-2.14,17.88,12.88,22.72,12.16,49.36-.37,13.89-4.53,20.78-11.72,24.35l-.08.06a3,3,0,0,0-.72.81l.11,0c.79-.75,2.31-.16,3.35,1.09a28.78,28.78,0,0,0,9.33-17.49c1.61-11.09,1.43-22.05-6.8-38.57s-7.11-31.61,14.85-42c6-2.85,13.45-4.91,21.1-6.4a220.42,220.42,0,0,1,26.92-3.57A194.56,194.56,0,0,0,41.27,75.79Z"/><path class="cls-39" d="M35.91,115.49c-5-15.56,2.27-26.83,20.51-35.68a74.46,74.46,0,0,1,26.63-6.74l1.45-.17c-7.63.35-18.81,1.82-29.28,6.91C37,88.66,29.73,99.93,34.69,115.49s18,23.33,18,42.38-6.17,24.28-6.17,24.28a3.83,3.83,0,0,1,1.77-.6c1.52-1.83,5.61-8.18,5.61-23.68C53.88,138.82,40.87,131.05,35.91,115.49Z"/><path class="cls-36" d="M73.36,76.55a3.1,3.1,0,0,0-.26-1.81l0-.06a64.38,64.38,0,0,0-18.2,6.56,62.09,62.09,0,0,0-7,4.58,8.25,8.25,0,0,1,.56,4.4,33.93,33.93,0,0,1-.85,5.66c-.11.48-.24,1-.38,1.41a23.34,23.34,0,0,1,4.59-3.71c6.34-3.93,12.32-7.24,19.71-9.52a8.23,8.23,0,0,0,1.38-3.26A20.94,20.94,0,0,0,73.36,76.55Z"/><path class="cls-15" d="M48.05,91a10.44,10.44,0,0,0-.28-4.69l-.14-.3c-9,7-13.62,15.63-10.71,27l.29.13a3.69,3.69,0,0,1,1.09,1.17c.43.61.83,1.23,1.22,1.87.49.8,1,1.61,1.44,2.42-1-6.48.33-14.58,5.7-20.65.21-.63.4-1.25.55-1.91A38.5,38.5,0,0,0,48.05,91Z"/><path class="cls-35" d="M37.81,114a3,3,0,0,0-.81-.77,44.3,44.3,0,0,0,5.34,11.78c1.13,1.83,2.21,3.59,3.25,5.32-.9-1.92-1.76-3.69-2.53-5.14a20.3,20.3,0,0,1-2-6c-.35-.57-.69-1.14-1-1.7A33.57,33.57,0,0,0,37.81,114Z"/><path class="cls-35" d="M91.39,73.45a9,9,0,0,0,0-1,114.7,114.7,0,0,0-18.09,2.23,1.93,1.93,0,0,1,.25.66,14.22,14.22,0,0,1-.14,4.6,10.56,10.56,0,0,1-1.28,4A79.57,79.57,0,0,1,91.5,80.82V73.45Z"/><path class="cls-37" d="M48.46,90.22a8.25,8.25,0,0,0-.56-4.4l-.27.2.14.3A10.44,10.44,0,0,1,48.05,91a38.5,38.5,0,0,1-.84,5c-.15.66-.34,1.28-.55,1.91.19-.21.37-.42.57-.62.14-.46.27-.93.38-1.41A33.93,33.93,0,0,0,48.46,90.22Z"/><path class="cls-37" d="M73.57,75.29a1.93,1.93,0,0,0-.25-.66l-.26.05,0,.06a3.1,3.1,0,0,1,.26,1.81,20.94,20.94,0,0,1-.45,4.25,8.23,8.23,0,0,1-1.38,3.26l.62-.18a10.56,10.56,0,0,0,1.28-4A14.22,14.22,0,0,0,73.57,75.29Z"/><path class="cls-37" d="M38.3,114.27a3.69,3.69,0,0,0-1.09-1.17l-.29-.13c0,.1,0,.2.08.3a3,3,0,0,1,.81.77,33.57,33.57,0,0,1,2.25,3.54c.33.56.67,1.13,1,1.7l-.12-.72c-.48-.81-1-1.62-1.44-2.42C39.13,115.5,38.73,114.88,38.3,114.27Z"/><g class="cls-40"><path class="cls-41" d="M73.36,76.55a3.1,3.1,0,0,0-.26-1.81l0-.06a64.38,64.38,0,0,0-18.2,6.56,62.09,62.09,0,0,0-7,4.58,8.25,8.25,0,0,1,.56,4.4,33.93,33.93,0,0,1-.85,5.66c-.11.48-.24,1-.38,1.41a23.34,23.34,0,0,1,4.59-3.71c6.34-3.93,12.32-7.24,19.71-9.52a8.23,8.23,0,0,0,1.38-3.26A20.94,20.94,0,0,0,73.36,76.55Z"/><path class="cls-42" d="M48.05,91a10.44,10.44,0,0,0-.28-4.69l-.14-.3c-9,7-13.62,15.63-10.71,27l.29.13a3.69,3.69,0,0,1,1.09,1.17c.43.61.83,1.23,1.22,1.87.49.8,1,1.61,1.44,2.42-1-6.48.33-14.58,5.7-20.65.21-.63.4-1.25.55-1.91A38.5,38.5,0,0,0,48.05,91Z"/><path class="cls-43" d="M37.81,114a3,3,0,0,0-.81-.77,44.3,44.3,0,0,0,5.34,11.78c1.13,1.83,2.21,3.59,3.25,5.32-.9-1.92-1.76-3.69-2.53-5.14a20.3,20.3,0,0,1-2-6c-.35-.57-.69-1.14-1-1.7A33.57,33.57,0,0,0,37.81,114Z"/><path class="cls-43" d="M91.39,73.45a9,9,0,0,0,0-1,114.7,114.7,0,0,0-18.09,2.23,1.93,1.93,0,0,1,.25.66,14.22,14.22,0,0,1-.14,4.6,10.56,10.56,0,0,1-1.28,4A79.57,79.57,0,0,1,91.5,80.82V73.45Z"/><path class="cls-44" d="M48.46,90.22a8.25,8.25,0,0,0-.56-4.4l-.27.2.14.3A10.44,10.44,0,0,1,48.05,91a38.5,38.5,0,0,1-.84,5c-.15.66-.34,1.28-.55,1.91.19-.21.37-.42.57-.62.14-.46.27-.93.38-1.41A33.93,33.93,0,0,0,48.46,90.22Z"/><path class="cls-44" d="M73.57,75.29a1.93,1.93,0,0,0-.25-.66l-.26.05,0,.06a3.1,3.1,0,0,1,.26,1.81,20.94,20.94,0,0,1-.45,4.25,8.23,8.23,0,0,1-1.38,3.26l.62-.18a10.56,10.56,0,0,0,1.28-4A14.22,14.22,0,0,0,73.57,75.29Z"/><path class="cls-44" d="M38.3,114.27a3.69,3.69,0,0,0-1.09-1.17l-.29-.13c0,.1,0,.2.08.3a3,3,0,0,1,.81.77,33.57,33.57,0,0,1,2.25,3.54c.33.56.67,1.13,1,1.7l-.12-.72c-.48-.81-1-1.62-1.44-2.42C39.13,115.5,38.73,114.88,38.3,114.27Z"/></g><g class="cls-40"><path class="cls-41" d="M70.13,82.88a64.41,64.41,0,0,0-12.75,7c-.74.53-1.47,1.07-2.2,1.63a75.69,75.69,0,0,1,16.35-7.48,7.51,7.51,0,0,0,1.08-2.13C71.77,82.23,71,82.54,70.13,82.88Z"/><path class="cls-43" d="M91.39,73.45a9,9,0,0,0,0-1l-1.32.06c.22,3-2,5.21-5.06,6-4,1-8.08,2-12,3.36a7.44,7.44,0,0,1-.89,2.11A79.57,79.57,0,0,1,91.5,80.82V73.45Z"/><path class="cls-44" d="M72.61,81.93a7.51,7.51,0,0,1-1.08,2.13l.62-.18A7.44,7.44,0,0,0,73,81.77Z"/></g><path class="cls-45" d="M46.5,182.15l-.12.08c-.08.06-.2.13-.34.25a13.19,13.19,0,0,0-1.16,1.11c-.47.52-1,1.16-1.65,1.89S41.87,187,41,187.85a24.77,24.77,0,0,1-3,2.48,22.63,22.63,0,0,1-3.8,2.11,23.63,23.63,0,0,1-4.43,1.42,30.08,30.08,0,0,1-4.76.61,28.36,28.36,0,0,1-4.79-.17,21.53,21.53,0,0,1-4.53-1.06c-.37-.11-.71-.27-1.06-.4l-1-.46c-.65-.34-1.27-.68-1.85-1.06a17.75,17.75,0,0,1-3-2.47,18.64,18.64,0,0,1-3.34-4.71,14.26,14.26,0,0,1-.64-1.48c-.14-.36-.2-.55-.2-.55l.23.53c.16.33.4.82.75,1.42a18.3,18.3,0,0,0,1.37,2.08,20.57,20.57,0,0,0,2.15,2.39,19.13,19.13,0,0,0,3,2.28,18.82,18.82,0,0,0,3.82,1.76,22.49,22.49,0,0,0,4.4,1,28.9,28.9,0,0,0,4.66.14,31,31,0,0,0,4.64-.57,24.34,24.34,0,0,0,4.32-1.32,22.73,22.73,0,0,0,3.74-1.95,25.88,25.88,0,0,0,3-2.32c.88-.78,1.65-1.54,2.33-2.24s1.26-1.3,1.76-1.79a9.14,9.14,0,0,1,1.25-1,3.26,3.26,0,0,1,.36-.23Z"/><g class="cls-40"><path class="cls-15" d="M27.59,117.43c0-.24-.08-.49-.12-.72a28.57,28.57,0,0,1,2.8-17.27,7.86,7.86,0,0,1-2.13-1.75c-1.58-1.9-2.06-4.36-2.32-6.75a33.37,33.37,0,0,1-.29-3.6c0-1,0-2,0-3a4.93,4.93,0,0,0-.75-2.68,2.13,2.13,0,0,0-.22-.21c-.69.29-1.37.59-2,.9C8.32,89.09,2.83,97.77,2.93,107.52a2.74,2.74,0,0,1,.21.42A21.27,21.27,0,0,0,5,112a13.74,13.74,0,0,0,3,3.32C13.52,119.61,21.21,119.7,27.59,117.43Z"/><path class="cls-35" d="M14.27,138.44c1.11.73,2.1,1.63,3.23,2.35a26.58,26.58,0,0,0,4.4,2.2c4.85,1.91,10.65,2.8,15.62.86a67,67,0,0,0-3-8.08c-2.56-5.79-5.68-11.66-6.86-18a28.79,28.79,0,0,1-3.27.9A21.45,21.45,0,0,1,14,118.54a15.94,15.94,0,0,1-8.44-5.39,18.34,18.34,0,0,1-2.44-4.31L3,108.46c.24,5.07,1.94,10.43,4.69,15.94A81.39,81.39,0,0,1,13,137.91,3,3,0,0,1,14.27,138.44Z"/><path class="cls-36" d="M14.44,163a28.82,28.82,0,0,1-.61,3.1,2.36,2.36,0,0,1,.32.44,16.87,16.87,0,0,0,1.35,2.12c2.47,3.12,6.43,4.17,10.25,4.54a50.13,50.13,0,0,0,5.34.16A42.07,42.07,0,0,0,36.7,173a54.56,54.56,0,0,0,2.69-17.38,43.86,43.86,0,0,0-1.78-11.43,19.54,19.54,0,0,1-9.46.83,29.06,29.06,0,0,1-9.77-3.39A24.9,24.9,0,0,1,16,140.11c-.54-.39-1-.83-1.58-1.21a4.8,4.8,0,0,0-1.24-.68A55.83,55.83,0,0,1,14.44,163Z"/><path class="cls-35" d="M90.43,72.1h-.07l-2.11,0h-.38l-2.16,0H83.32L79,72.1h-.1l-2.15.05c-6.23.34-15.22,1-24.62,2.36a2.05,2.05,0,0,1,.24,1.21c0,1.61-.54,3.87.65,5.2.71-.38,1.45-.75,2.2-1.11,10.47-5.09,21.65-6.56,29.28-6.91,2.55-.26,4.87-.41,6.85-.5h.06a2.62,2.62,0,0,0,0-.28Z"/><path class="cls-36" d="M25.91,88.64c.22,2.52.34,5.31,1.6,7.57A7,7,0,0,0,30.27,99l.18.1A30.59,30.59,0,0,1,32.32,96c3.35-4.8,8.08-7.91,13.17-10.51A59.15,59.15,0,0,1,52.78,81c-.81-.77-.86-2.37-.82-3.33a20.42,20.42,0,0,0,.11-2.47,1,1,0,0,0-.28-.68c-9.4,1.37-19.18,3.49-27,6.76a3.1,3.1,0,0,1,.8,1.58C26,84.78,25.75,86.73,25.91,88.64Z"/><path class="cls-15" d="M24.7,194.08c.52,0,1-.05,1.52-.09a77.76,77.76,0,0,0,9.68-18.64c.24-.68.47-1.35.68-2a46.62,46.62,0,0,1-10.69.25c-3.16-.29-6.79-1-9.26-3.13a11.16,11.16,0,0,1-1.87-2.13c-.39-.56-.65-1.24-1-1.79a28.42,28.42,0,0,1-9.55,14.75,4.2,4.2,0,0,1,.42.85C5.52,184.63,10.15,194.69,24.7,194.08Z"/><path class="cls-11" d="M16.63,170.43c2.47,2.17,6.1,2.84,9.26,3.13a46.62,46.62,0,0,0,10.69-.25l.12-.36a42.07,42.07,0,0,1-5.61.38,50.13,50.13,0,0,1-5.34-.16c-3.82-.37-7.78-1.42-10.25-4.54a16.87,16.87,0,0,1-1.35-2.12,2.36,2.36,0,0,0-.32-.44l-.12.44c.4.55.66,1.23,1,1.79A11.16,11.16,0,0,0,16.63,170.43Z"/><path class="cls-37" d="M16.63,170.43c2.47,2.17,6.1,2.84,9.26,3.13a46.62,46.62,0,0,0,10.69-.25l.12-.36a42.07,42.07,0,0,1-5.61.38,50.13,50.13,0,0,1-5.34-.16c-3.82-.37-7.78-1.42-10.25-4.54a16.87,16.87,0,0,1-1.35-2.12,2.36,2.36,0,0,0-.32-.44l-.12.44c.4.55.66,1.23,1,1.79A11.16,11.16,0,0,0,16.63,170.43Z"/><path class="cls-37" d="M14.37,138.9c.54.38,1,.82,1.58,1.21a24.9,24.9,0,0,0,2.43,1.47A29.06,29.06,0,0,0,28.15,145a19.54,19.54,0,0,0,9.46-.83l-.09-.29c-5,1.94-10.77,1.05-15.62-.86a26.58,26.58,0,0,1-4.4-2.2c-1.13-.72-2.12-1.62-3.23-2.35a3,3,0,0,0-1.23-.53l.09.31A4.8,4.8,0,0,1,14.37,138.9Z"/><path class="cls-37" d="M24.39,118.72a28.79,28.79,0,0,0,3.27-.9c0-.13-.05-.26-.07-.39-6.38,2.27-14.07,2.18-19.56-2.09A13.74,13.74,0,0,1,5,112a21.27,21.27,0,0,1-1.89-4.08,2.74,2.74,0,0,0-.21-.42c0,.31,0,.63,0,.94l.14.38a18.34,18.34,0,0,0,2.44,4.31A15.94,15.94,0,0,0,14,118.54,21.45,21.45,0,0,0,24.39,118.72Z"/><path class="cls-37" d="M24.74,81.66a4.93,4.93,0,0,1,.75,2.68c.07,1,0,2,0,3a33.37,33.37,0,0,0,.29,3.6c.26,2.39.74,4.85,2.32,6.75a7.86,7.86,0,0,0,2.13,1.75l.18-.33-.18-.1a7,7,0,0,1-2.76-2.8c-1.26-2.26-1.38-5-1.6-7.57-.16-1.91.12-3.86-.3-5.74a3.1,3.1,0,0,0-.8-1.58l-.29.13A2.13,2.13,0,0,1,24.74,81.66Z"/><path class="cls-37" d="M52.37,75.72a2.05,2.05,0,0,0-.24-1.21l-.34,0a1,1,0,0,1,.28.68A20.42,20.42,0,0,1,52,77.71c0,1,0,2.56.82,3.33.08,0,.16-.09.24-.12C51.83,79.59,52.36,77.33,52.37,75.72Z"/></g><path class="cls-4" d="M74.82,143.29a15.31,15.31,0,0,0,5.09,11.17A10.92,10.92,0,0,1,82,152.77c8-5.18,27.9-11.08,49.18-11.26l-9.66-14.85s-27.16,1.84-43.41,9.45C75.08,138.91,74.82,141.2,74.82,143.29Z"/><path class="cls-5" d="M74.82,143.29a15.31,15.31,0,0,0,5.09,11.17A10.92,10.92,0,0,1,82,152.77c8-5.18,27.9-11.08,49.18-11.26l-9.66-14.85s-27.16,1.84-43.41,9.45C75.08,138.91,74.82,141.2,74.82,143.29Z"/><path class="cls-5" d="M119.5,136.52c-5.89.64-11.77,1.27-17.57,2.49a75.43,75.43,0,0,0-16.29,5.07A20.35,20.35,0,0,0,77,150.91a18.82,18.82,0,0,0,2.89,3.55A10.92,10.92,0,0,1,82,152.77c8-5.18,27.9-11.08,49.18-11.26l-3.72-5.72C124.78,135.94,122.13,136.24,119.5,136.52Z"/><path class="cls-46" d="M102.9,145c1.08-2.28.95-6,0-8.89s-3.07-5.65-6.33-5.78l-1.67.37a7.37,7.37,0,0,1,2.74,1A9.07,9.07,0,0,1,101,136a13,13,0,0,1,.1,9.44Z"/><path class="cls-46" d="M84.59,151.28c.66-.35,1.38-.69,2.14-1a12.47,12.47,0,0,0,.71-10,8.16,8.16,0,0,0-3.49-4.2,8.26,8.26,0,0,0-4.64-.49l-1.21.54a7.7,7.7,0,0,1,2.15-.08,6.64,6.64,0,0,1,5.23,3.74,11.76,11.76,0,0,1,.65,6.69A13.65,13.65,0,0,1,84.59,151.28Z"/><g class="cls-40"><path class="cls-47" d="M120.49,137.1l-2,.24c-.63.06-1.39.16-2.26.26l-2.91.38-1.67.22-1.77.28c-1.22.2-2.51.36-3.83.64l-2,.39-1,.2-1,.23c-.69.15-1.39.31-2.08.49l-1,.25-1,.28-1,.27-1,.31-1,.3-1,.32-1,.33-1,.35-1,.35c-.32.11-.63.25-.94.37-.63.24-1.25.47-1.83.74l-.88.38-.44.18-.41.2-.82.39-.78.42c-.5.26-1,.56-1.43.83-.23.14-.44.29-.65.44l-.62.41c-.4.29-.75.59-1.1.86A17.79,17.79,0,0,0,79.3,150a11.55,11.55,0,0,0-.94,1.1l-.33.41,0,0,.29-.43a12,12,0,0,1,.87-1.18c.11-.12.21-.24.32-.38a4.72,4.72,0,0,1,.37-.41l.88-.87c.34-.28.68-.6,1.07-.9s.81-.63,1.27-.92.92-.62,1.44-.9l.78-.44.81-.41c.56-.3,1.15-.53,1.74-.8s1.22-.51,1.84-.77l1-.36,1-.34,1-.34,1-.3,1-.32,1-.28,1-.29,1.05-.26,1-.26,1-.24c.7-.17,1.4-.32,2.09-.46l1-.22,1-.18,2-.37c1.32-.25,2.62-.41,3.84-.58l1.78-.25,1.67-.19,2.93-.32,2.26-.23,2-.2Z"/></g><path class="cls-5" d="M86,135.08c2.47,1.07,4.58,3,4.82,5.84.27,3.2-1.28,6.4-3.44,9,9.8-4.3,26.31-8.31,43.78-8.45l-9.66-14.85s-22.94,1.55-39.27,7.71A9,9,0,0,1,86,135.08Z"/><path class="cls-4" d="M135.7,124.69c-7.33,0-61.09-1.06-61.88-24.67A10.33,10.33,0,0,1,75,95.16V84.35a21.63,21.63,0,0,0-11.7,16.38c-2.42,16.64,12.07,33.8,42.65,38.9s34.07,2.77,38-2.24S143,124.69,135.7,124.69Z"/><g class="cls-40"><path class="cls-48" d="M130.4,142.49c.58,0,1.12,0,1.65,0a32.06,32.06,0,0,0,.95-8.71c0-3-.05-6.31-1.33-9.11l-1.52,0c1.36,3.33,1.38,6.91,1.24,10.51A32.79,32.79,0,0,1,130.4,142.49Z"/><path class="cls-48" d="M75,90.51a5.21,5.21,0,0,0-.56-.59c-1.81-1.61-3.78-1.41-5.77-.63a20.13,20.13,0,0,0-1.71,2,5.72,5.72,0,0,1,5.6-1A4.89,4.89,0,0,1,75,92.2Z"/><path class="cls-48" d="M71.82,103.79a6.94,6.94,0,0,0-4.44,1.61A7.78,7.78,0,0,0,64.21,112c.23.65.45,1.47.73,2.1a8.14,8.14,0,0,1,3.25-7.24c2-1.46,4.1-2.21,6.21-1.65a5.88,5.88,0,0,1-.32-.85A5.24,5.24,0,0,0,71.82,103.79Z"/><path class="cls-48" d="M80.94,115.23a9.2,9.2,0,0,0-4.21,2.64A9.07,9.07,0,0,0,74.32,123a12.3,12.3,0,0,0,.45,3.77c.61.5,1.17,1,1.84,1.42a10.89,10.89,0,0,1,1.52-8.91A9.11,9.11,0,0,1,86,115.66c-.61-.29-1.09-.6-1.67-.9A10,10,0,0,0,80.94,115.23Z"/><path class="cls-48" d="M97.91,121.64a9.57,9.57,0,0,0-4,3.6,13.51,13.51,0,0,0-2,5.7,18.92,18.92,0,0,0,.57,5.36c.82.27,1.66.55,2.51.81-1.44-3.56-1.61-7.37.72-10.78a11.54,11.54,0,0,1,4.59-4.07,8.81,8.81,0,0,1,3.33-.78c-.89-.18-1.77-.38-2.66-.59A8.19,8.19,0,0,0,97.91,121.64Z"/><path class="cls-48" d="M118.91,123.76l-2.38-.24a14.9,14.9,0,0,0-4.67,8.46,18.26,18.26,0,0,0-.34,5.94,11.4,11.4,0,0,0,.74,2.71l2.23.33a18.2,18.2,0,0,1-.28-10.3C114.92,128.11,116.52,125.17,118.91,123.76Z"/></g><path class="cls-46" d="M130.93,142.49c.58,0,1.13,0,1.65,0a31.68,31.68,0,0,0,.95-8.71c0-3,0-6.31-1.33-9.11l-1.51,0c1.36,3.33,1.38,6.91,1.23,10.51A32.79,32.79,0,0,1,130.93,142.49Z"/><path class="cls-46" d="M75,89.9l-.32-.31C72.84,88,70.87,88.18,68.87,89a21.54,21.54,0,0,0-1.71,2,5.74,5.74,0,0,1,5.61-1A5,5,0,0,1,75,91.53Z"/><path class="cls-46" d="M72.35,103.79a6.94,6.94,0,0,0-4.44,1.61,9.45,9.45,0,0,0-3.46,7.25c.23.64.48,1.29.76,1.92a9.28,9.28,0,0,1,3.52-7.76,7.32,7.32,0,0,1,6.32-1.37c-.16-.38-.31-.76-.44-1.13A5.21,5.21,0,0,0,72.35,103.79Z"/><path class="cls-46" d="M81.53,115.25A9.07,9.07,0,0,0,77.35,118,9.72,9.72,0,0,0,75,123.32a13.63,13.63,0,0,0,.37,3.93c.61.49,1.24,1,1.9,1.44a11.71,11.71,0,0,1,1.51-9.23,8.44,8.44,0,0,1,7.6-3.59c-.6-.31-1.18-.62-1.75-1A8.29,8.29,0,0,0,81.53,115.25Z"/><path class="cls-46" d="M98.6,121.83a9.59,9.59,0,0,0-4.12,3.6,13,13,0,0,0-2,5.7,18.17,18.17,0,0,0,.59,5.35c.83.28,1.69.55,2.57.81-1.49-3.55-1.65-7.36.74-10.78a11.86,11.86,0,0,1,4.7-4.07,9.42,9.42,0,0,1,3.42-.78c-.91-.18-1.82-.38-2.73-.58A8.4,8.4,0,0,0,98.6,121.83Z"/><path class="cls-46" d="M119.45,123.85l-2.38-.25a14.87,14.87,0,0,0-4.67,8.47,18.18,18.18,0,0,0-.34,5.93,11.39,11.39,0,0,0,.73,2.71L115,141a18.16,18.16,0,0,1-.28-10.29C115.46,128.2,117.05,125.25,119.45,123.85Z"/><path class="cls-5" d="M135.68,137.56a197.25,197.25,0,0,1-20.18-1.08,78.45,78.45,0,0,1-21.59-4.34,61.66,61.66,0,0,1-18.23-10.51c-5.25-4.43-9.63-9.84-10.78-16.79a23.4,23.4,0,0,1,.65-11.12l.18-.48a22,22,0,0,0-2.46,7.49c-2.42,16.64,12.07,33.8,42.65,38.9s34.07,2.77,38-2.24a6.65,6.65,0,0,0,.78-1.25C142.14,137.67,138.53,137.5,135.68,137.56Z"/><path class="cls-49" d="M72.12,102.2S72.47,111.05,88,118s41.94,7.58,46.9,7.45,7.65,1.88,8.45,3.36-12.34,1.73-24.41.53S73.73,123.67,72.12,102.2Z"/><g class="cls-40"><path class="cls-47" d="M143.92,137l-.26.15a5.91,5.91,0,0,1-.78.4,11.85,11.85,0,0,1-3.22.83c-.72.09-1.51.16-2.37.2l-2.79.08-3.16,0c-.55,0-1.12,0-1.71,0l-1.8-.06-1.87-.07L124,138.5l-4.08-.26c-1.39-.09-2.82-.2-4.29-.32l-1.1-.09-1.12-.1c-.75-.07-1.5-.12-2.26-.21s-1.53-.17-2.31-.28l-2.32-.33-2.35-.41c-.78-.14-1.56-.33-2.35-.49a65.22,65.22,0,0,1-9.35-2.83c-.75-.31-1.51-.59-2.26-.92s-1.5-.66-2.24-1l-2.18-1.07L83.69,129a59.12,59.12,0,0,1-7.79-5.29c-1.2-1-2.32-1.94-3.39-3a35.85,35.85,0,0,1-2.93-3.16,32.7,32.7,0,0,1-2.37-3.32,28.45,28.45,0,0,1-1.72-3.39c-.22-.57-.45-1.12-.61-1.68s-.31-1.1-.46-1.64c-.07-.27-.1-.55-.16-.81l-.15-.79c0-.52-.14-1-.18-1.5a24,24,0,0,1,0-5.1c0-.36.09-.69.13-1s.08-.6.15-.87.11-.52.17-.75a4.54,4.54,0,0,1,.15-.61L64.87,95l.11,0s-.12.38-.33,1.1c-.05.18-.1.39-.14.62s-.1.47-.16.73-.08.56-.13.88-.1.63-.12,1a24.18,24.18,0,0,0,.09,5c0,.49.14,1,.21,1.5,0,.25.11.51.16.77s.1.53.18.79c.14.53.27,1.07.47,1.62s.41,1.08.63,1.64a25.2,25.2,0,0,0,1.75,3.31A31.35,31.35,0,0,0,70,117.29a35.21,35.21,0,0,0,2.94,3.07,41.58,41.58,0,0,0,3.38,2.88,57.72,57.72,0,0,0,7.76,5.15l2.11,1.12,2.17,1c.73.33,1.48.63,2.21,1s1.51.58,2.26.89a64.76,64.76,0,0,0,9.25,2.63c.78.15,1.55.33,2.33.45l2.32.38,2.31.31c.76.1,1.52.17,2.27.25,3,.33,6,.54,8.75.81l4,.34c.66.07,1.31.1,1.94.14l1.85.11,1.78.11c.58,0,1.15,0,1.71,0l3.15.09c2,0,3.71.05,5.11-.06a12,12,0,0,0,3.2-.62,6.09,6.09,0,0,0,.79-.34l.27-.13Z"/></g><path class="cls-5" d="M64.38,103.27c1.17-2.59,4-5.22,7.09-4.36A7.71,7.71,0,0,1,73.82,100h0A10.33,10.33,0,0,1,75,95.16V84.35a21.63,21.63,0,0,0-11.7,16.38,24.61,24.61,0,0,0,.11,7.85A13.36,13.36,0,0,1,64.38,103.27Z"/><path class="cls-4" d="M137.42,170.65s-42.59-1.58-57.51-16.19a15.31,15.31,0,0,1-5.09-11.17c0-2.09.26-4.38,3.27-7.18-4,1.9-7.42,4.15-9.53,6.83C58,156.35,63.91,186,142.25,191.76Z"/><g class="cls-40"><path class="cls-48" d="M126.31,179.78a13.81,13.81,0,0,0,.61,7.32,21.08,21.08,0,0,0,1.85,3.36l2.57.29a17.34,17.34,0,0,1-1-16.51,8.53,8.53,0,0,1,3.46-3.53,5.07,5.07,0,0,1,.68-.27c-.66,0-1.45-.09-2.36-.15C128.6,171.77,126.8,176.21,126.31,179.78Z"/><path class="cls-48" d="M69.84,146.6c-2.72.75-4.09,2.43-5.12,4.82a18,18,0,0,0,.14,5.42,12.37,12.37,0,0,1,.26-2.87,7,7,0,0,1,.31-1.35,7.4,7.4,0,0,1,3.85-4.46,7.53,7.53,0,0,1,5.24-.7c.52.17.88.79,1.31,1.09-.12-.28-.22-.56-.32-.84A6.24,6.24,0,0,0,69.84,146.6Z"/><path class="cls-48" d="M79.17,158.71A11.46,11.46,0,0,0,75,162.65c-1.55,2.47-2.62,6.22-1.32,9,.79.64,1.61,1.39,2.51,2a12.69,12.69,0,0,1-.13-9.63,7.77,7.77,0,0,1,4-4.36c2-.83,4.06-1.68,6.13-.64-.76-.41-1.26-.77-2-1.2A7.83,7.83,0,0,0,79.17,158.71Z"/><path class="cls-48" d="M91,172a15.4,15.4,0,0,0,.88,10.06c1,.37,2,.74,3.1,1.09a10.19,10.19,0,0,1-2.24-4.91,14.29,14.29,0,0,1,.85-7.52c1.28-2.84,4.61-5.05,8-5.55-.86-.23-1.73-.48-2.58-.73A11,11,0,0,0,91,172Z"/><path class="cls-48" d="M116.85,168.48a11.61,11.61,0,0,0-5,2.91,10.37,10.37,0,0,0-2.63,6.33,15.12,15.12,0,0,0,.66,6.58,19.33,19.33,0,0,0,1.81,3.39l3,.58a11.09,11.09,0,0,1-2.49-3.57,13.54,13.54,0,0,1-.86-7.52A9.56,9.56,0,0,1,115,171a10.25,10.25,0,0,1,3.83-1.85A7.5,7.5,0,0,1,120,169C119,168.81,117.94,168.65,116.85,168.48Z"/></g><path class="cls-46" d="M127.08,179.88a13.71,13.71,0,0,0,.62,7.32,20.4,20.4,0,0,0,1.85,3.36l2.55.29a15.39,15.39,0,0,1-2.61-8.39,15.22,15.22,0,0,1,1.59-8.13,8.42,8.42,0,0,1,3.45-3.52,5.66,5.66,0,0,1,.68-.27l-2.35-.16C129.37,171.86,127.57,176.31,127.08,179.88Z"/><path class="cls-46" d="M69.8,147c-2.72.74-4,2.65-5.08,5a18.08,18.08,0,0,0,.14,5.43,12.37,12.37,0,0,1,.26-2.87,7.23,7.23,0,0,1,.31-1.36,7.39,7.39,0,0,1,3.85-4.45,7.53,7.53,0,0,1,5.24-.7,5.79,5.79,0,0,1,1.43.71,8.53,8.53,0,0,1-.32-.84A6.57,6.57,0,0,0,69.8,147Z"/><path class="cls-46" d="M80,159.05a11.84,11.84,0,0,0-4.24,4c-1.55,2.54-2.58,6.37-1.28,9.27.8.65,1.64,1.31,2.54,1.95a12.91,12.91,0,0,1-.19-9.75,8,8,0,0,1,4-4.49c2-.85,4.1-1.6,6.17-.53-.77-.42-1.5-.85-2.22-1.3A7,7,0,0,0,80,159.05Z"/><path class="cls-46" d="M91.8,172.26a15.59,15.59,0,0,0,.89,10.1c1,.37,2,.74,3.09,1.1a10.37,10.37,0,0,1-2.23-4.93,14.43,14.43,0,0,1,.84-7.56c1.28-2.84,4.62-5.07,8-5.56-.86-.24-1.72-.48-2.58-.74A11.09,11.09,0,0,0,91.8,172.26Z"/><path class="cls-46" d="M117.71,168.61a11.53,11.53,0,0,0-5.06,2.93,10.31,10.31,0,0,0-2.63,6.34,15,15,0,0,0,.66,6.58,19.42,19.42,0,0,0,1.81,3.4c1,.2,2,.4,3,.58a11,11,0,0,1-2.5-3.57,13.62,13.62,0,0,1-.86-7.54,9.62,9.62,0,0,1,3.71-6.24,10.22,10.22,0,0,1,3.84-1.85,7.38,7.38,0,0,1,1.23-.15Z"/><path class="cls-5" d="M137.06,186.92c-4.66.45-11.86-.2-17.39-1.06a112,112,0,0,1-23.11-5.81c-6-2.23-11.92-4.61-17.27-8.11-4.63-3-9.15-6.85-11.76-11.82a19.07,19.07,0,0,1-2.11-11.25c-4.66,14.76,8.63,37.91,76.83,42.89l-1.3-5.69A26.23,26.23,0,0,1,137.06,186.92Z"/><g class="cls-40"><path class="cls-47" d="M137.13,188.14l-1,.1c-.32,0-.73.1-1.2.11l-1.64.08h-2c-.74,0-1.53-.05-2.38-.07s-1.76-.09-2.72-.16-2-.14-3-.27c-.53-.05-1.06-.1-1.6-.18l-1.66-.21-3.45-.52c-1.19-.2-2.41-.4-3.65-.66l-1.88-.37-1.91-.43c-1.28-.28-2.56-.64-3.87-1-.65-.17-1.31-.38-2-.57l-1-.29-1-.33-2-.65c-.65-.25-1.3-.48-2-.72l-1-.37-1-.37-2-.76c-2.6-1-5.19-2.11-7.66-3.33a64.7,64.7,0,0,1-7-4,45.83,45.83,0,0,1-6-4.67,29.77,29.77,0,0,1-4.39-5.15c-.15-.22-.27-.45-.41-.67a5.38,5.38,0,0,1-.38-.66c-.13-.21-.25-.44-.36-.65s-.21-.44-.31-.66l-.31-.63c-.09-.21-.17-.43-.25-.64-.16-.43-.33-.84-.44-1.24s-.25-.81-.34-1.2-.16-.76-.24-1.12-.1-.71-.15-1c0-.16,0-.32-.07-.49a3.44,3.44,0,0,0,0-.46c0-.31,0-.6,0-.87s0-.52,0-.76,0-.46,0-.66,0-.38,0-.54c.07-.65.1-1,.1-1l.1,0s0,.34-.07,1c0,.16,0,.34,0,.53v.66c0,.23,0,.49,0,.76s0,.55.07.85l0,.46c0,.16,0,.32.08.49,0,.33.1.67.17,1s.17.72.26,1.1.23.77.36,1.17a12.81,12.81,0,0,0,.45,1.21c.09.21.16.42.26.62s.2.42.31.64.21.42.32.64.24.42.37.63a6.08,6.08,0,0,0,.39.64c.14.21.27.44.42.64a27.74,27.74,0,0,0,4.42,5,45.08,45.08,0,0,0,6,4.52,62,62,0,0,0,7,3.85c2.47,1.17,5,2.2,7.65,3.18l2,.73,1,.36,1,.34,2,.67,2,.62c.33.1.65.21,1,.3l1,.28c.65.17,1.3.37,1.94.54,1.3.33,2.57.67,3.85.94,2.53.62,5,1.06,7.35,1.52s4.57.81,6.64,1.08c1,.15,2,.26,3,.39s1.84.2,2.68.28l2.37.18,2,.11,1.61,0h1.21l1,0Z"/></g><path class="cls-50" d="M137.36,170.67c-5.08-.26-7.56,6.83-5.49,12.54a13.53,13.53,0,0,0,10.44,8.54c3,.43,5.79-2.18,4.8-5.22s-2.89-4.72-4-9.46S140.22,170.81,137.36,170.67Z"/><path class="cls-4" d="M137.58,171.34c-4.4-.24-6.64,6-4.86,11.34s7.51,8.48,10.17,8.3a3.63,3.63,0,0,0,3.42-4.83c-1.06-2.69-3-4.07-3.93-8.49S140,171.48,137.58,171.34Z"/><path class="cls-46" d="M139.62,178.83c.21,3.4-.19,7.2-2.18,10a13.26,13.26,0,0,0,1.25.81,15.76,15.76,0,0,0,2.38-8.3c.12-3.11.22-7.24-2-9.7a4.17,4.17,0,0,0-1.48-.34,4,4,0,0,0-.78,0C139.08,172.57,139.47,176.39,139.62,178.83Z"/><path class="cls-5" d="M146.41,186.47c0-.1-.06-.21-.1-.32-1.06-2.69-3-4.07-3.93-8.49s-2.34-6.18-4.8-6.32c-4-.22-6.24,5-5.22,10A64.92,64.92,0,0,1,146.41,186.47Z"/><path class="cls-5" d="M142.11,176.52c-.94-3.59-2.3-5.06-4.53-5.18a4.52,4.52,0,0,0-4.14,2.37A28.21,28.21,0,0,1,142.11,176.52Z"/><path class="cls-45" d="M137.58,171.34h-.4a4.54,4.54,0,0,0-1.08.22,4.25,4.25,0,0,0-1.44.87,6,6,0,0,0-1.31,1.74,9.37,9.37,0,0,0-.83,2.46,12,12,0,0,0-.15,2.89,11.53,11.53,0,0,0,.59,3,11.86,11.86,0,0,0,1.44,2.84,13.05,13.05,0,0,0,2.12,2.39A14.06,14.06,0,0,0,139,189.6a10.5,10.5,0,0,0,2.67,1.07c.23.05.45.07.67.11H143l.33,0a2.65,2.65,0,0,0,.3-.06,3,3,0,0,0,.58-.17,3.61,3.61,0,0,0,1.67-1.32,3.41,3.41,0,0,0,.52-2.66c-.07-.25-.1-.38-.1-.38l.14.37a3.54,3.54,0,0,1,.12,1.11,3.81,3.81,0,0,1-.51,1.68,3.71,3.71,0,0,1-1.73,1.48,2.52,2.52,0,0,1-.62.21l-.33.09-.32,0-.18,0h-.53c-.24,0-.48,0-.71-.1a10,10,0,0,1-2.83-1.05,13.57,13.57,0,0,1-2.63-1.84,13.36,13.36,0,0,1-2.22-2.46,12.66,12.66,0,0,1-1.49-3,11.71,11.71,0,0,1-.58-3.16,11.31,11.31,0,0,1,.25-3,9,9,0,0,1,.94-2.52,8.29,8.29,0,0,1,.67-1,6.08,6.08,0,0,1,.78-.75,4.34,4.34,0,0,1,1.54-.81,4.17,4.17,0,0,1,1.11-.16Z"/><path class="cls-49" d="M72.24,142.49s-1.93,13.81,19.7,21a154.65,154.65,0,0,0,42.59,7.31,9.15,9.15,0,0,0-3.56,5.71s-30.88-1.23-49.65-14.31C68,153,72.24,142.49,72.24,142.49Z"/><path class="cls-2" d="M75.79,148.12c.23.63.49,1.24.77,1.84v-17.3h-.78v15.41A.09.09,0,0,0,75.79,148.12Z"/><path class="cls-3" d="M75.78,148.07V132.66H75v13.19C75.32,146.56,75.51,147.35,75.78,148.07Z"/><path class="cls-51" d="M106.52,2.91s5.75,1.06,8-1.26,3.8-1.71,5.28-1.06a9.25,9.25,0,0,0,3.57.51A8.72,8.72,0,0,1,120,3.61c1.24.91,3.67.47,3.67.47a3.37,3.37,0,0,1-4.74,2c-1.6-.63-2.55.05-3.85,1.23-2,1.85-4.66,2-8.57,1.19Z"/><path class="cls-52" d="M106.52,2.91l0,5.57c.47.1.92.18,1.36.25V3.07C107,3,106.52,2.91,106.52,2.91Z"/><path class="cls-53" d="M120,3.61a8.72,8.72,0,0,0,3.38-2.51,9.25,9.25,0,0,1-3.57-.51c-1.48-.65-3.06-1.26-5.28,1.06a3.74,3.74,0,0,1-1,.71v6a5.86,5.86,0,0,0,1.51-1c1.3-1.18,2.25-1.86,3.85-1.23a3.37,3.37,0,0,0,4.74-2S121.2,4.52,120,3.61Z"/><rect class="cls-54" x="106.36" y="3.12" width="0.23" height="6.14"/><path class="cls-51" d="M107.59,2.16a1.11,1.11,0,1,1-1.12-1.11A1.12,1.12,0,0,1,107.59,2.16Z"/><path class="cls-52" d="M106.47,1.05h-.12a.89.89,0,0,1,.82.89.9.9,0,0,1-1.79.08s0,.09,0,.13a1.11,1.11,0,1,0,1.1-1.11Z"/><path class="cls-55" d="M106.24,1.7a.29.29,0,0,1-.36.23.31.31,0,0,1-.24-.36.31.31,0,0,1,.37-.24A.3.3,0,0,1,106.24,1.7Z"/><path class="cls-55" d="M105.78,2a.1.1,0,0,1-.12.08.12.12,0,0,1-.08-.12.11.11,0,0,1,.13-.08A.09.09,0,0,1,105.78,2Z"/><g class="cls-40"><path class="cls-56" d="M69.28,44v3.45c1.25.41,4.08,1.07,6-.54a6.93,6.93,0,0,0,8.73.6c2.78,2.31,7.88,2.31,10.29.21a7.22,7.22,0,0,0,8.62.2c3.25,2.51,8.71,1.3,10.2-.3a5.75,5.75,0,0,0,7.6-.31c1.85,2.21,6.4,1.81,7.7-.4,1.48,2.11,5.37,1.71,6.76-.2,1.3,1.49,4.15,1.28,6.06,0V43.45A508,508,0,0,1,69.28,44Z"/></g><g class="cls-40"><path class="cls-56" d="M69.28,43.27v3.18c1.25.38,4.08,1,6-.49a7.39,7.39,0,0,0,8.73.55c2.78,2.14,7.88,2.14,10.29.19a7.71,7.71,0,0,0,8.62.19c3.25,2.32,8.71,1.2,10.2-.28a6.11,6.11,0,0,0,7.6-.28c1.85,2,6.4,1.67,7.7-.37,1.48,1.95,5.37,1.57,6.76-.19,1.3,1.37,4.15,1.18,6.06,0v-3A549.77,549.77,0,0,1,69.28,43.27Z"/></g><path class="cls-57" d="M68.4,43.25v1.3c0,.57.93,1.58,3.33,1.91,1.32.07,3.63-.55,3.63-.94V43.83Z"/><path class="cls-31" d="M106.44,8.93v0Z"/><path class="cls-58" d="M106.45,8.91C103.61,34.85,95,44,94.33,44.71c2.72.07,5.62.1,8.66.11,0,0,3.27-18.39,3.44-35C106.44,9.48,106.44,9.2,106.45,8.91Z"/><path class="cls-59" d="M84,44.35c3.1.15,6.58.28,10.38.36.67-.68,9.28-9.86,12.12-35.8C103.14,30.39,85.08,43.55,84,44.35Z"/><path class="cls-58" d="M106.45,8.91v0c-3.74,22.77-31.11,34.9-31.11,34.9h0c2.36.17,5.27.36,8.63.52C85.08,43.55,103.14,30.39,106.45,8.91Z"/><path class="cls-59" d="M106.44,8.93c-.15.82-4.41,23.41-38,34.32,0,0,2.5.27,6.92.58h0S102.7,31.7,106.44,8.93Z"/><path class="cls-59" d="M106.45,8.91c5.75,22.23,27.86,34.27,28.66,34.7q3.31-.27,6.69-.61A53.43,53.43,0,0,1,106.45,8.91Z"/><path class="cls-59" d="M106.43,9.77c-.17,16.66-3.44,35-3.44,35.05,3.17,0,6.49,0,9.93-.09v-.06S106.41,26.36,106.43,9.77Z"/><path class="cls-58" d="M106.45,8.91c2.91,20.79,21.22,34.59,22,35.18q3.28-.21,6.65-.48C134.31,43.18,112.2,31.14,106.45,8.91Z"/><path class="cls-58" d="M106.43,9.77c0,16.59,6.48,34.9,6.48,34.9v.06q3.77-.07,7.71-.24c-1-1.06-11-12.45-14.18-35.58C106.45,9.2,106.44,9.48,106.43,9.77Z"/><path class="cls-59" d="M106.45,8.91c3.19,23.13,13.2,34.52,14.18,35.58q3.84-.16,7.83-.4C127.67,43.5,109.36,29.7,106.45,8.91Z"/><path class="cls-60" d="M84,44.35v1.1c0,.4-1.8,1.88-4.63,1.64s-4-1.58-4-1.82V43.83Z"/><path class="cls-57" d="M84,44.35l10.37.36v1.15c0,.64-2.6,2-6,1.61C86.1,47.24,84,45.86,84,45.21Z"/><path class="cls-60" d="M94.33,44.71l8.66.11v1.31c0,.52-1.93,1.62-4.88,1.4s-3.78-1.42-3.78-1.84Z"/><path class="cls-57" d="M103,44.82l9.93-.09v1.13c0,.7-1.47,1.7-5,1.7s-5-1.11-5-1.62Z"/><path class="cls-60" d="M112.92,44.73l7.71-.24v1c0,.46-1.3,1.82-3.55,1.82s-4.16-1.11-4.16-1.61Z"/><path class="cls-57" d="M120.63,44.49l7.83-.4v1c0,.5-1.48,2.16-3.69,2.25s-4.14-1.31-4.14-1.82Z"/><path class="cls-60" d="M128.46,44.09l6.65-.48v1.12a3.12,3.12,0,0,1-3,2c-1.91.09-3.67-1-3.67-1.63Z"/><path class="cls-57" d="M135.11,43.61,141.8,43v1.41c0,.54-1.1,1.53-3.11,1.72s-3.58-1-3.58-1.57Z"/></g></g></g></svg>