<svg xmlns="http://www.w3.org/2000/svg" viewBox="0 0 196.09 97.18"><defs><style>.cls-1{fill:none;}.cls-2{fill:#a20000;}.cls-3{fill:#760000;}.cls-4{fill:#ff6700;}.cls-5{fill:#9c5a39;}.cls-36,.cls-5{opacity:0.6;}.cls-11,.cls-18,.cls-21,.cls-24,.cls-25,.cls-35,.cls-36,.cls-45,.cls-5{isolation:isolate;}.cls-6{fill:#2e0000;}.cls-7{fill:#fea30e;}.cls-8{fill:#d31616;}.cls-9{fill:#e56d00;}.cls-10{fill:#ffd016;}.cls-11{fill:#6e3939;}.cls-11,.cls-19,.cls-21{opacity:0.4;}.cls-12{fill:#740000;}.cls-13{fill:#480000;}.cls-14{fill:#fecd06;}.cls-15{fill:#debb06;}.cls-16{fill:#e9f7f9;}.cls-17{fill:#f5000f;}.cls-18{fill:#4f4946;}.cls-18,.cls-24{opacity:0.9;}.cls-20,.cls-21,.cls-24{fill:gray;}.cls-22,.cls-25{fill:#ab0000;}.cls-23{fill:#d6a500;}.cls-25,.cls-35{opacity:0.7;}.cls-26{fill:#d35a16;}.cls-27{fill:#00af8b;}.cls-28{fill:#0078a9;}.cls-29{fill:#88e9ff;}.cls-30{fill:#daff92;}.cls-31{fill:#fef23e;}.cls-32{fill:#22c2f2;}.cls-33{fill:#92c63e;}.cls-34{fill:#6e9839;}.cls-35{fill:#fea806;}.cls-36,.cls-41{fill:#fff;}.cls-37{fill:#578b03;}.cls-38{fill:#c39200;}.cls-39{fill:#0087b7;}.cls-40{fill:#335d00;}.cls-42{fill:#75b506;}.cls-43{fill:#b54400;}.cls-44{fill:#755d06;}.cls-45{fill:#ffad99;opacity:0.3;}.cls-46{fill:#ff934a;}.cls-47{fill:#ffc502;}.cls-48{fill:#ffe102;}.cls-49{fill:#af8308;}.cls-50{fill:#939393;}.cls-51{fill:#ab1113;}.cls-52{fill:#fb0f0f;}.cls-53{fill:#eef9fb;}.cls-54{fill:#b3afae;}</style></defs><title>設施介紹-資產 2</title><g id="圖層_2" data-name="圖層 2"><g id="圖層_1-2" data-name="圖層 1"><rect class="cls-1" width="196.09" height="96.68"/><g id="Layer_1" data-name="Layer 1"><rect class="cls-2" x="94.72" y="29.16" width="0.39" height="64.84"/><rect class="cls-3" x="94.33" y="29.16" width="0.39" height="64.84"/><rect class="cls-2" x="87.3" y="38.56" width="0.39" height="55.44"/><rect class="cls-3" x="86.91" y="38.56" width="0.39" height="55.44"/><path class="cls-4" d="M98.34,40.35a13.52,13.52,0,0,0-3.55,1.2v4.77a8.85,8.85,0,0,1,5.41-3.59Z"/><path class="cls-5" d="M98.34,40.35a13.52,13.52,0,0,0-3.55,1.2v4.77a8.85,8.85,0,0,1,5.41-3.59Z"/><path class="cls-6" d="M123.38,30.27a12.8,12.8,0,0,1-3.22,1.51,12.75,12.75,0,0,1-3.61.79,16.24,16.24,0,0,1-3.75-.16,10,10,0,0,1-2.56-.74h0a10.38,10.38,0,0,0,2.34.78,18.91,18.91,0,0,0,3.76.22,12.52,12.52,0,0,0,3.77-.76,11.66,11.66,0,0,0,3.35-1.57.06.06,0,0,0,0-.08.06.06,0,0,0-.08,0Z"/><rect class="cls-7" x="115.74" y="47.32" width="6.45" height="44.6"/><rect class="cls-8" x="115.74" y="47.32" width="6.45" height="6.89"/><rect class="cls-3" x="115.74" y="54.4" width="6.45" height="0.25"/><path class="cls-3" d="M116.67,53.86a.27.27,0,0,1-.53.08v-.08a.27.27,0,1,1,.53-.07Z"/><path class="cls-9" d="M116.59,53.84a.22.22,0,1,1-.43,0,.21.21,0,0,1,.21-.22h0A.21.21,0,0,1,116.59,53.84Z"/><path class="cls-10" d="M116.45,53.81a.09.09,0,0,1-.09.09h0a.11.11,0,0,1-.12-.07.09.09,0,0,1,.07-.11h0a.08.08,0,0,1,.09.08Z"/><path class="cls-3" d="M118.3,53.86a.27.27,0,1,1-.53,0h0a.27.27,0,0,1,.27-.26h0a.26.26,0,0,1,.26.26Z"/><path class="cls-9" d="M118.22,53.84a.21.21,0,0,1-.17.24.22.22,0,0,1-.25-.18v-.06a.22.22,0,0,1,.25-.18A.2.2,0,0,1,118.22,53.84Z"/><path class="cls-10" d="M118.09,53.81a.11.11,0,0,1-.1.09.09.09,0,0,1-.09-.09h0a.08.08,0,0,1,.08-.09h0a.1.1,0,0,1,.1.09Z"/><path class="cls-3" d="M120.06,53.86a.27.27,0,0,1-.23.3.26.26,0,0,1-.3-.22.11.11,0,0,1,0-.08.27.27,0,1,1,.53-.07Z"/><path class="cls-9" d="M120,53.84a.21.21,0,0,1-.21.21h0a.21.21,0,0,1-.24-.18.21.21,0,0,1,.17-.24h.07A.21.21,0,0,1,120,53.84Z"/><path class="cls-10" d="M119.84,53.81a.09.09,0,0,1-.09.09h0a.09.09,0,0,1-.08-.09h0a.08.08,0,0,1,.08-.09h0a.08.08,0,0,1,.1.08Z"/><path class="cls-3" d="M121.74,53.86a.26.26,0,1,1-.52.08.11.11,0,0,1,0-.08.27.27,0,0,1,.22-.3.26.26,0,0,1,.3.23A.09.09,0,0,1,121.74,53.86Z"/><path class="cls-9" d="M121.67,53.84a.21.21,0,0,1-.21.21h0a.21.21,0,0,1-.22-.21.22.22,0,0,1,.43,0Z"/><path class="cls-10" d="M121.53,53.81a.09.09,0,0,1-.09.09h0a.09.09,0,0,1,0-.18h0a.09.09,0,0,1,.1.08Z"/><rect class="cls-2" x="115.64" y="54.21" width="6.66" height="0.23"/><rect class="cls-8" x="115.74" y="60.77" width="6.45" height="10.93"/><rect class="cls-3" x="115.74" y="71.88" width="6.45" height="0.25"/><path class="cls-3" d="M116.67,71.34a.27.27,0,1,1-.53.07v-.07a.26.26,0,0,1,.3-.23A.28.28,0,0,1,116.67,71.34Z"/><path class="cls-9" d="M116.59,71.32a.21.21,0,0,1-.18.24.21.21,0,0,1-.24-.18v-.06a.21.21,0,0,1,.18-.24.21.21,0,0,1,.24.18Z"/><path class="cls-10" d="M116.45,71.29a.09.09,0,0,1-.09.09h0a.11.11,0,0,1-.1-.09.1.1,0,0,1,.1-.1.09.09,0,0,1,.09.1Z"/><path class="cls-3" d="M118.3,71.34a.27.27,0,0,1-.26.27h0a.27.27,0,0,1-.3-.23.26.26,0,0,1,.22-.3.11.11,0,0,1,.08,0,.26.26,0,0,1,.26.26Z"/><path class="cls-9" d="M118.22,71.32a.21.21,0,0,1-.17.24.22.22,0,0,1-.25-.18v-.06a.22.22,0,0,1,.18-.24.2.2,0,0,1,.24.18A.06.06,0,0,1,118.22,71.32Z"/><path class="cls-10" d="M118.09,71.29a.11.11,0,0,1-.1.09.09.09,0,0,1-.09-.08h0a.09.09,0,0,1,.09-.1h0A.11.11,0,0,1,118.09,71.29Z"/><path class="cls-3" d="M120.06,71.34a.27.27,0,0,1-.27.27.27.27,0,0,1-.27-.26.27.27,0,0,1,.26-.27h0A.27.27,0,0,1,120.06,71.34Z"/><path class="cls-9" d="M120,71.32a.21.21,0,0,1-.21.21h0a.21.21,0,1,1,0-.42A.21.21,0,0,1,120,71.32Z"/><path class="cls-10" d="M119.84,71.29a.09.09,0,0,1-.09.09h0a.09.09,0,0,1-.08-.09.09.09,0,0,1,.07-.11.09.09,0,0,1,.11.07Z"/><path class="cls-3" d="M121.74,71.34a.25.25,0,0,1-.26.27.27.27,0,0,1,0-.53h0A.26.26,0,0,1,121.74,71.34Z"/><path class="cls-9" d="M121.67,71.32a.21.21,0,0,1-.21.21h0a.21.21,0,0,1-.21-.21h0a.21.21,0,0,1,.2-.21h0A.21.21,0,0,1,121.67,71.32Z"/><path class="cls-10" d="M121.53,71.29a.09.09,0,0,1-.09.09h0a.09.09,0,0,1-.09-.09.1.1,0,0,1,.09-.1.09.09,0,0,1,.1.1Z"/><rect class="cls-2" x="115.64" y="71.7" width="6.66" height="0.22"/><rect class="cls-3" x="115.74" y="60.8" width="6.45" height="0.25"/><rect class="cls-2" x="115.64" y="60.62" width="6.66" height="0.23"/><rect class="cls-8" x="115.74" y="76.32" width="6.45" height="6.48"/><rect class="cls-3" x="115.74" y="82.98" width="6.45" height="0.25"/><path class="cls-3" d="M116.67,82.44a.27.27,0,1,1-.53.07v-.07a.26.26,0,0,1,.3-.23A.28.28,0,0,1,116.67,82.44Z"/><path class="cls-9" d="M116.59,82.42a.21.21,0,0,1-.24.18.22.22,0,0,1-.18-.18.21.21,0,0,1,.18-.24.21.21,0,0,1,.24.18Z"/><path class="cls-10" d="M116.45,82.39a.08.08,0,0,1-.08.09h0a.1.1,0,0,1-.1-.09h0a.12.12,0,0,1,.1-.1.09.09,0,0,1,.09.1Z"/><path class="cls-3" d="M118.3,82.44a.27.27,0,0,1-.26.27h0a.27.27,0,0,1-.08-.53H118a.26.26,0,0,1,.26.26Z"/><path class="cls-9" d="M118.22,82.42a.2.2,0,0,1-.24.18.24.24,0,0,1-.18-.18.22.22,0,0,1,.18-.24.2.2,0,0,1,.24.18A.06.06,0,0,1,118.22,82.42Z"/><path class="cls-10" d="M118.09,82.39a.1.1,0,0,1-.1.09h0a.08.08,0,0,1-.09-.08h0a.09.09,0,0,1,.09-.1h0A.12.12,0,0,1,118.09,82.39Z"/><path class="cls-3" d="M120.06,82.44a.27.27,0,0,1-.27.27.27.27,0,0,1-.27-.26.27.27,0,0,1,.26-.27h0A.28.28,0,0,1,120.06,82.44Z"/><path class="cls-9" d="M120,82.42a.21.21,0,0,1-.21.21.21.21,0,0,1,0-.42A.22.22,0,0,1,120,82.42Z"/><path class="cls-10" d="M119.84,82.39a.09.09,0,0,1-.09.09h0a.09.09,0,0,1-.08-.09h0a.1.1,0,0,1,.07-.12.09.09,0,0,1,.11.07Z"/><path class="cls-3" d="M121.74,82.44a.25.25,0,0,1-.26.27.27.27,0,0,1,0-.53h0A.26.26,0,0,1,121.74,82.44Z"/><path class="cls-9" d="M121.67,82.42a.21.21,0,0,1-.21.21.21.21,0,0,1-.21-.21.21.21,0,0,1,.2-.21h0A.22.22,0,0,1,121.67,82.42Z"/><path class="cls-10" d="M121.53,82.39a.09.09,0,0,1-.09.09h0a.09.09,0,0,1-.09-.09h0a.1.1,0,0,1,.09-.1.09.09,0,0,1,.1.1Z"/><path class="cls-3" d="M116.67,77.18a.27.27,0,1,1-.53.07v-.07a.27.27,0,0,1,.3-.23A.28.28,0,0,1,116.67,77.18Z"/><path class="cls-9" d="M116.59,77.18a.21.21,0,0,1-.24.18.22.22,0,0,1-.18-.18.21.21,0,1,1,.42-.06Z"/><path class="cls-10" d="M116.45,77.13a.1.1,0,0,1-.08.1h0a.11.11,0,0,1-.1-.1h0a.11.11,0,0,1,.1-.09.09.09,0,0,1,.09.09Z"/><path class="cls-3" d="M118.3,77.18a.26.26,0,0,1-.26.27h0a.27.27,0,0,1-.08-.53H118a.26.26,0,0,1,.26.26Z"/><path class="cls-9" d="M118.22,77.18a.2.2,0,0,1-.24.18.24.24,0,0,1-.18-.18.23.23,0,0,1,.18-.24.2.2,0,0,1,.24.18A.06.06,0,0,1,118.22,77.18Z"/><path class="cls-10" d="M118.09,77.13a.11.11,0,0,1-.1.1h0a.09.09,0,0,1-.09-.09h0A.09.09,0,0,1,118,77h0A.11.11,0,0,1,118.09,77.13Z"/><path class="cls-3" d="M120.06,77.18a.27.27,0,1,1-.28-.26h0A.28.28,0,0,1,120.06,77.18Z"/><path class="cls-9" d="M120,77.18a.21.21,0,0,1-.21.21.21.21,0,0,1-.21-.21.21.21,0,0,1,.21-.21A.22.22,0,0,1,120,77.18Z"/><path class="cls-10" d="M119.84,77.13a.11.11,0,0,1-.09.1h0a.09.09,0,0,1-.08-.09h0a.09.09,0,0,1,.07-.11.09.09,0,0,1,.11.07Z"/><path class="cls-3" d="M121.74,77.18a.25.25,0,0,1-.26.27.26.26,0,0,1-.27-.26.27.27,0,0,1,.26-.27h0A.26.26,0,0,1,121.74,77.18Z"/><path class="cls-9" d="M121.67,77.18a.21.21,0,0,1-.21.21.21.21,0,0,1-.21-.21.21.21,0,0,1,.2-.21h0A.22.22,0,0,1,121.67,77.18Z"/><path class="cls-10" d="M121.53,77.13a.11.11,0,0,1-.09.1h0a.1.1,0,0,1-.09-.1h0a.09.09,0,0,1,.09-.09.09.09,0,0,1,.1.09Z"/><rect class="cls-2" x="115.64" y="82.8" width="6.66" height="0.22"/><rect class="cls-3" x="115.74" y="76.34" width="6.45" height="0.25"/><rect class="cls-2" x="115.64" y="76.16" width="6.66" height="0.23"/><polygon class="cls-11" points="122.19 54.44 122.3 54.44 122.3 54.21 122.19 54.21 122.19 47.33 120.56 47.33 120.56 91.93 122.19 91.93 122.19 83.02 122.3 83.02 122.3 82.8 122.19 82.8 122.19 76.39 122.3 76.39 122.3 76.16 122.19 76.16 122.19 71.92 122.3 71.92 122.3 71.7 122.19 71.7 122.19 60.85 122.3 60.85 122.3 60.62 122.19 60.62 122.19 54.44"/><polygon class="cls-11" points="115.74 91.93 116.57 91.93 116.57 47.33 115.74 47.33 115.74 54.21 115.64 54.21 115.64 54.44 115.74 54.44 115.74 60.62 115.64 60.62 115.64 60.85 115.74 60.85 115.74 71.7 115.64 71.7 115.64 71.92 115.74 71.92 115.74 76.16 115.64 76.16 115.64 76.39 115.74 76.39 115.74 82.8 115.64 82.8 115.64 83.02 115.74 83.02 115.74 91.93"/><rect class="cls-12" x="113.52" y="39.85" width="0.36" height="3.5"/><rect class="cls-13" x="113.17" y="39.85" width="0.35" height="3.5"/><rect class="cls-12" x="115.76" y="39.85" width="0.36" height="3.5"/><rect class="cls-13" x="115.41" y="39.85" width="0.36" height="3.5"/><rect class="cls-12" x="118.01" y="39.85" width="0.36" height="3.5"/><rect class="cls-13" x="117.66" y="39.85" width="0.36" height="3.5"/><rect class="cls-12" x="120.25" y="39.85" width="0.36" height="3.5"/><rect class="cls-13" x="119.9" y="39.85" width="0.35" height="3.5"/><rect class="cls-12" x="122.5" y="39.85" width="0.36" height="3.5"/><rect class="cls-13" x="122.14" y="39.85" width="0.35" height="3.5"/><rect class="cls-2" x="111.99" y="39.64" width="11.35" height="0.35"/><rect class="cls-3" x="111.99" y="40" width="11.35" height="0.36"/><polygon class="cls-3" points="94.81 47.81 97.67 43.59 97.88 43.7 95.02 47.92 94.81 47.81"/><polygon class="cls-2" points="94.6 47.69 97.45 43.48 97.67 43.59 94.81 47.81 94.6 47.69"/><polygon class="cls-3" points="95.05 47.03 94.6 47.69 95.02 47.92 95.63 47.03 95.05 47.03"/><polygon class="cls-3" points="97.48 44.3 97.88 43.7 97.45 43.48 96.9 44.3 97.48 44.3"/><polygon class="cls-3" points="98.09 47.81 95.23 43.59 95.01 43.7 97.87 47.92 98.09 47.81"/><polygon class="cls-2" points="98.3 47.69 95.44 43.48 95.23 43.59 98.09 47.81 98.3 47.69"/><polygon class="cls-3" points="97.84 47.03 98.3 47.69 97.87 47.92 97.27 47.03 97.84 47.03"/><polygon class="cls-3" points="95.41 44.3 95.01 43.7 95.44 43.48 95.99 44.3 95.41 44.3"/><polygon class="cls-3" points="97.97 47.81 100.82 43.59 101.03 43.7 98.17 47.92 97.97 47.81"/><polygon class="cls-2" points="97.75 47.69 100.61 43.48 100.82 43.59 97.97 47.81 97.75 47.69"/><polygon class="cls-3" points="98.21 47.03 97.75 47.69 98.17 47.92 98.79 47.03 98.21 47.03"/><polygon class="cls-3" points="100.64 44.3 101.03 43.7 100.61 43.48 100.06 44.3 100.64 44.3"/><polygon class="cls-3" points="101.24 47.81 98.39 43.59 98.17 43.7 101.03 47.92 101.24 47.81"/><polygon class="cls-2" points="101.45 47.69 98.6 43.48 98.39 43.59 101.24 47.81 101.45 47.69"/><polygon class="cls-3" points="101 47.03 101.45 47.69 101.03 47.92 100.43 47.03 101 47.03"/><polygon class="cls-3" points="98.57 44.3 98.17 43.7 98.6 43.48 99.15 44.3 98.57 44.3"/><polygon class="cls-3" points="101.21 47.81 104.06 43.59 104.27 43.7 101.42 47.92 101.21 47.81"/><polygon class="cls-2" points="100.99 47.69 103.85 43.48 104.06 43.59 101.21 47.81 100.99 47.69"/><polygon class="cls-3" points="101.45 47.03 100.99 47.69 101.42 47.92 102.03 47.03 101.45 47.03"/><polygon class="cls-3" points="103.88 44.3 104.27 43.7 103.85 43.48 103.3 44.3 103.88 44.3"/><polygon class="cls-3" points="104.48 47.81 101.63 43.59 101.41 43.7 104.27 47.92 104.48 47.81"/><polygon class="cls-2" points="104.69 47.69 101.84 43.48 101.63 43.59 104.48 47.81 104.69 47.69"/><polygon class="cls-3" points="104.24 47.03 104.69 47.69 104.27 47.92 103.67 47.03 104.24 47.03"/><polygon class="cls-3" points="101.81 44.3 101.41 43.7 101.84 43.48 102.39 44.3 101.81 44.3"/><rect class="cls-2" x="98.03" y="43.62" width="0.22" height="4.02"/><rect class="cls-3" x="97.81" y="43.62" width="0.22" height="4.02"/><rect class="cls-3" x="97.81" y="46.51" width="0.44" height="1.13"/><rect class="cls-3" x="97.81" y="43.62" width="0.44" height="0.73"/><rect class="cls-2" x="101.23" y="43.62" width="0.22" height="4.02"/><rect class="cls-3" x="101.01" y="43.62" width="0.22" height="4.02"/><rect class="cls-3" x="101.01" y="46.51" width="0.44" height="1.13"/><rect class="cls-3" x="101.01" y="43.62" width="0.44" height="0.73"/><polygon class="cls-3" points="104.41 47.81 107.27 43.59 107.47 43.7 104.62 47.92 104.41 47.81"/><polygon class="cls-2" points="104.19 47.69 107.05 43.48 107.27 43.59 104.41 47.81 104.19 47.69"/><polygon class="cls-3" points="104.65 47.03 104.19 47.69 104.62 47.92 105.23 47.03 104.65 47.03"/><polygon class="cls-3" points="107.08 44.3 107.47 43.7 107.05 43.48 106.5 44.3 107.08 44.3"/><polygon class="cls-3" points="107.69 47.81 104.83 43.59 104.62 43.7 107.47 47.92 107.69 47.81"/><polygon class="cls-2" points="107.9 47.69 105.04 43.48 104.83 43.59 107.69 47.81 107.9 47.69"/><polygon class="cls-3" points="107.44 47.03 107.9 47.69 107.47 47.92 106.87 47.03 107.44 47.03"/><polygon class="cls-3" points="105.01 44.3 104.62 43.7 105.04 43.48 105.59 44.3 105.01 44.3"/><polygon class="cls-3" points="107.65 47.81 110.5 43.59 110.71 43.7 107.86 47.92 107.65 47.81"/><polygon class="cls-2" points="107.43 47.69 110.29 43.48 110.5 43.59 107.65 47.81 107.43 47.69"/><polygon class="cls-3" points="107.88 47.03 107.43 47.69 107.86 47.92 108.47 47.03 107.88 47.03"/><polygon class="cls-3" points="110.32 44.3 110.71 43.7 110.29 43.48 109.75 44.3 110.32 44.3"/><polygon class="cls-3" points="110.92 47.81 108.07 43.59 107.85 43.7 110.71 47.92 110.92 47.81"/><polygon class="cls-2" points="111.14 47.69 108.28 43.48 108.07 43.59 110.92 47.81 111.14 47.69"/><polygon class="cls-3" points="110.68 47.03 111.14 47.69 110.71 47.92 110.11 47.03 110.68 47.03"/><polygon class="cls-3" points="108.25 44.3 107.85 43.7 108.28 43.48 108.83 44.3 108.25 44.3"/><rect class="cls-2" x="104.48" y="43.62" width="0.22" height="4.02"/><rect class="cls-3" x="104.25" y="43.62" width="0.22" height="4.02"/><rect class="cls-3" x="104.25" y="46.51" width="0.44" height="1.13"/><rect class="cls-3" x="104.25" y="43.62" width="0.44" height="0.73"/><rect class="cls-2" x="107.67" y="43.62" width="0.22" height="4.02"/><rect class="cls-3" x="107.45" y="43.62" width="0.22" height="4.02"/><rect class="cls-3" x="107.45" y="46.51" width="0.44" height="1.13"/><rect class="cls-3" x="107.45" y="43.62" width="0.44" height="0.73"/><polygon class="cls-3" points="110.83 47.81 113.69 43.59 113.9 43.7 111.04 47.92 110.83 47.81"/><polygon class="cls-2" points="110.62 47.69 113.48 43.48 113.69 43.59 110.83 47.81 110.62 47.69"/><polygon class="cls-3" points="111.07 47.03 110.62 47.69 111.04 47.92 111.65 47.03 111.07 47.03"/><polygon class="cls-3" points="113.5 44.3 113.9 43.7 113.48 43.48 112.93 44.3 113.5 44.3"/><polygon class="cls-3" points="114.11 47.81 111.25 43.59 111.04 43.7 113.9 47.92 114.11 47.81"/><polygon class="cls-2" points="114.32 47.69 111.46 43.48 111.25 43.59 114.11 47.81 114.32 47.69"/><polygon class="cls-3" points="113.87 47.03 114.32 47.69 113.9 47.92 113.29 47.03 113.87 47.03"/><polygon class="cls-3" points="111.44 44.3 111.04 43.7 111.46 43.48 112.01 44.3 111.44 44.3"/><polygon class="cls-3" points="114.08 47.81 116.93 43.59 117.14 43.7 114.29 47.92 114.08 47.81"/><polygon class="cls-2" points="113.86 47.69 116.72 43.48 116.93 43.59 114.08 47.81 113.86 47.69"/><polygon class="cls-3" points="114.31 47.03 113.86 47.69 114.29 47.92 114.89 47.03 114.31 47.03"/><polygon class="cls-3" points="116.74 44.3 117.14 43.7 116.72 43.48 116.17 44.3 116.74 44.3"/><polygon class="cls-3" points="117.35 47.81 114.5 43.59 114.28 43.7 117.14 47.92 117.35 47.81"/><polygon class="cls-2" points="117.56 47.69 114.7 43.48 114.5 43.59 117.35 47.81 117.56 47.69"/><polygon class="cls-3" points="117.11 47.03 117.56 47.69 117.14 47.92 116.53 47.03 117.11 47.03"/><polygon class="cls-3" points="114.68 44.3 114.28 43.7 114.7 43.48 115.25 44.3 114.68 44.3"/><rect class="cls-2" x="110.9" y="43.62" width="0.22" height="4.02"/><rect class="cls-3" x="110.68" y="43.62" width="0.22" height="4.02"/><rect class="cls-3" x="110.68" y="46.51" width="0.44" height="1.13"/><rect class="cls-3" x="110.68" y="43.62" width="0.44" height="0.73"/><rect class="cls-2" x="114.1" y="43.62" width="0.22" height="4.02"/><rect class="cls-3" x="113.87" y="43.62" width="0.22" height="4.02"/><rect class="cls-3" x="113.87" y="46.51" width="0.44" height="1.13"/><rect class="cls-3" x="113.87" y="43.62" width="0.44" height="0.73"/><polygon class="cls-3" points="117.27 47.81 120.13 43.59 120.34 43.7 117.48 47.92 117.27 47.81"/><polygon class="cls-2" points="117.06 47.69 119.92 43.48 120.13 43.59 117.27 47.81 117.06 47.69"/><polygon class="cls-3" points="117.51 47.03 117.06 47.69 117.48 47.92 118.09 47.03 117.51 47.03"/><polygon class="cls-3" points="119.95 44.3 120.34 43.7 119.92 43.48 119.37 44.3 119.95 44.3"/><polygon class="cls-3" points="120.55 47.81 117.69 43.59 117.48 43.7 120.34 47.92 120.55 47.81"/><polygon class="cls-2" points="120.76 47.69 117.91 43.48 117.69 43.59 120.55 47.81 120.76 47.69"/><polygon class="cls-3" points="120.31 47.03 120.76 47.69 120.34 47.92 119.73 47.03 120.31 47.03"/><polygon class="cls-3" points="117.88 44.3 117.48 43.7 117.91 43.48 118.46 44.3 117.88 44.3"/><polygon class="cls-3" points="120.52 47.81 123.37 43.59 123.58 43.7 120.73 47.92 120.52 47.81"/><polygon class="cls-2" points="120.3 47.69 123.16 43.48 123.37 43.59 120.52 47.81 120.3 47.69"/><polygon class="cls-3" points="120.75 47.03 120.3 47.69 120.73 47.92 121.33 47.03 120.75 47.03"/><polygon class="cls-3" points="123.18 44.3 123.58 43.7 123.16 43.48 122.61 44.3 123.18 44.3"/><polygon class="cls-3" points="123.79 47.81 120.94 43.59 120.72 43.7 123.58 47.92 123.79 47.81"/><polygon class="cls-2" points="124 47.69 121.15 43.48 120.94 43.59 123.79 47.81 124 47.69"/><polygon class="cls-3" points="123.55 47.03 124 47.69 123.58 47.92 122.97 47.03 123.55 47.03"/><polygon class="cls-3" points="121.12 44.3 120.72 43.7 121.15 43.48 121.69 44.3 121.12 44.3"/><rect class="cls-2" x="117.34" y="43.62" width="0.22" height="4.02"/><rect class="cls-3" x="117.12" y="43.62" width="0.22" height="4.02"/><rect class="cls-3" x="117.12" y="46.51" width="0.44" height="1.13"/><rect class="cls-3" x="117.12" y="43.62" width="0.44" height="0.73"/><rect class="cls-2" x="120.53" y="43.62" width="0.22" height="4.02"/><rect class="cls-3" x="120.32" y="43.62" width="0.22" height="4.02"/><rect class="cls-3" x="120.32" y="46.51" width="0.44" height="1.13"/><rect class="cls-3" x="120.32" y="43.62" width="0.44" height="0.73"/><rect class="cls-2" x="94.63" y="47.41" width="29.15" height="0.36"/><rect class="cls-3" x="94.63" y="47.77" width="29.15" height="0.36"/><rect class="cls-2" x="94.63" y="43.09" width="29.15" height="0.36"/><rect class="cls-3" x="94.63" y="43.44" width="29.15" height="0.36"/><polygon class="cls-3" points="94.88 60.2 98.62 56.69 98.9 56.78 95.15 60.3 94.88 60.2"/><polygon class="cls-2" points="94.6 60.1 98.34 56.59 98.62 56.69 94.88 60.2 94.6 60.1"/><polygon class="cls-3" points="95.19 59.56 94.6 60.1 95.15 60.3 95.95 59.56 95.19 59.56"/><polygon class="cls-3" points="98.38 57.28 98.9 56.78 98.34 56.59 97.62 57.28 98.38 57.28"/><polygon class="cls-3" points="99.17 60.2 95.42 56.69 95.15 56.78 98.89 60.3 99.17 60.2"/><polygon class="cls-2" points="99.45 60.1 95.71 56.59 95.42 56.69 99.17 60.2 99.45 60.1"/><polygon class="cls-3" points="98.86 59.56 99.45 60.1 98.89 60.3 98.1 59.56 98.86 59.56"/><polygon class="cls-3" points="95.67 57.28 95.15 56.78 95.71 56.59 96.42 57.28 95.67 57.28"/><polygon class="cls-3" points="99.01 60.2 102.76 56.69 103.03 56.78 99.29 60.3 99.01 60.2"/><polygon class="cls-2" points="98.73 60.1 102.48 56.59 102.76 56.69 99.01 60.2 98.73 60.1"/><polygon class="cls-3" points="99.33 59.56 98.73 60.1 99.29 60.3 100.09 59.56 99.33 59.56"/><polygon class="cls-3" points="102.52 57.28 103.03 56.78 102.48 56.59 101.76 57.28 102.52 57.28"/><polygon class="cls-3" points="103.31 60.2 99.57 56.69 99.29 56.78 103.03 60.3 103.31 60.2"/><polygon class="cls-2" points="103.59 60.1 99.84 56.59 99.57 56.69 103.31 60.2 103.59 60.1"/><polygon class="cls-3" points="102.99 59.56 103.59 60.1 103.03 60.3 102.23 59.56 102.99 59.56"/><polygon class="cls-3" points="99.81 57.28 99.29 56.78 99.84 56.59 100.56 57.28 99.81 57.28"/><polygon class="cls-3" points="103.26 60.2 107 56.69 107.28 56.78 103.54 60.3 103.26 60.2"/><polygon class="cls-2" points="102.98 60.1 106.73 56.59 107 56.69 103.26 60.2 102.98 60.1"/><polygon class="cls-3" points="103.58 59.56 102.98 60.1 103.54 60.3 104.33 59.56 103.58 59.56"/><polygon class="cls-3" points="106.76 57.28 107.28 56.78 106.73 56.59 106.01 57.28 106.76 57.28"/><polygon class="cls-3" points="107.56 60.2 103.81 56.69 103.53 56.78 107.28 60.3 107.56 60.2"/><polygon class="cls-2" points="107.83 60.1 104.09 56.59 103.81 56.69 107.56 60.2 107.83 60.1"/><polygon class="cls-3" points="107.24 59.56 107.83 60.1 107.28 60.3 106.48 59.56 107.24 59.56"/><polygon class="cls-3" points="104.06 57.28 103.53 56.78 104.09 56.59 104.81 57.28 104.06 57.28"/><rect class="cls-2" x="99.1" y="56.71" width="0.29" height="3.35"/><rect class="cls-3" x="98.81" y="56.71" width="0.29" height="3.35"/><rect class="cls-3" x="98.81" y="59.12" width="0.58" height="0.94"/><rect class="cls-3" x="98.81" y="56.71" width="0.58" height="0.61"/><rect class="cls-2" x="103.29" y="56.71" width="0.29" height="3.35"/><rect class="cls-3" x="103" y="56.71" width="0.29" height="3.35"/><rect class="cls-3" x="103" y="59.12" width="0.58" height="0.94"/><rect class="cls-3" x="103" y="56.71" width="0.58" height="0.61"/><polygon class="cls-3" points="107.46 60.2 111.2 56.69 111.48 56.78 107.73 60.3 107.46 60.2"/><polygon class="cls-2" points="107.18 60.1 110.92 56.59 111.2 56.69 107.46 60.2 107.18 60.1"/><polygon class="cls-3" points="107.77 59.56 107.18 60.1 107.73 60.3 108.53 59.56 107.77 59.56"/><polygon class="cls-3" points="110.96 57.28 111.48 56.78 110.92 56.59 110.2 57.28 110.96 57.28"/><polygon class="cls-3" points="111.75 60.2 108.01 56.69 107.73 56.78 111.47 60.3 111.75 60.2"/><polygon class="cls-2" points="112.03 60.1 108.29 56.59 108.01 56.69 111.75 60.2 112.03 60.1"/><polygon class="cls-3" points="111.44 59.56 112.03 60.1 111.47 60.3 110.68 59.56 111.44 59.56"/><polygon class="cls-3" points="108.25 57.28 107.73 56.78 108.29 56.59 109 57.28 108.25 57.28"/><polygon class="cls-3" points="111.7 60.2 115.45 56.69 115.72 56.78 111.98 60.3 111.7 60.2"/><polygon class="cls-2" points="111.43 60.1 115.17 56.59 115.45 56.69 111.7 60.2 111.43 60.1"/><polygon class="cls-3" points="112.02 59.56 111.43 60.1 111.98 60.3 112.78 59.56 112.02 59.56"/><polygon class="cls-3" points="115.21 57.28 115.72 56.78 115.17 56.59 114.45 57.28 115.21 57.28"/><polygon class="cls-3" points="116 60.2 112.25 56.69 111.98 56.78 115.72 60.3 116 60.2"/><polygon class="cls-2" points="116.28 60.1 112.53 56.59 112.25 56.69 116 60.2 116.28 60.1"/><polygon class="cls-3" points="115.69 59.56 116.28 60.1 115.72 60.3 114.92 59.56 115.69 59.56"/><polygon class="cls-3" points="112.5 57.28 111.98 56.78 112.53 56.59 113.25 57.28 112.5 57.28"/><rect class="cls-2" x="107.54" y="56.71" width="0.29" height="3.35"/><rect class="cls-3" x="107.26" y="56.71" width="0.29" height="3.35"/><rect class="cls-3" x="107.26" y="59.12" width="0.58" height="0.94"/><rect class="cls-3" x="107.26" y="56.71" width="0.58" height="0.61"/><rect class="cls-2" x="111.73" y="56.71" width="0.29" height="3.35"/><rect class="cls-3" x="111.44" y="56.71" width="0.29" height="3.35"/><rect class="cls-3" x="111.44" y="59.12" width="0.58" height="0.94"/><rect class="cls-3" x="111.44" y="56.71" width="0.58" height="0.61"/><polygon class="cls-3" points="115.88 60.2 119.63 56.69 119.9 56.78 116.16 60.3 115.88 60.2"/><polygon class="cls-2" points="115.6 60.1 119.35 56.59 119.63 56.69 115.88 60.2 115.6 60.1"/><polygon class="cls-3" points="116.19 59.56 115.6 60.1 116.16 60.3 116.95 59.56 116.19 59.56"/><polygon class="cls-3" points="119.38 57.28 119.9 56.78 119.35 56.59 118.62 57.28 119.38 57.28"/><polygon class="cls-3" points="120.17 60.2 116.43 56.69 116.16 56.78 119.9 60.3 120.17 60.2"/><polygon class="cls-2" points="120.45 60.1 116.71 56.59 116.43 56.69 120.17 60.2 120.45 60.1"/><polygon class="cls-3" points="119.86 59.56 120.45 60.1 119.9 60.3 119.1 59.56 119.86 59.56"/><polygon class="cls-3" points="116.67 57.28 116.16 56.78 116.71 56.59 117.42 57.28 116.67 57.28"/><polygon class="cls-3" points="123.78 56.78 120.13 60.2 120.4 60.3 123.78 57.13 123.78 56.78"/><polygon class="cls-2" points="123.78 56.66 123.59 56.59 119.85 60.1 120.13 60.2 123.78 56.78 123.78 56.66"/><polygon class="cls-3" points="120.44 59.56 119.85 60.1 120.4 60.3 121.2 59.56 120.44 59.56"/><polygon class="cls-3" points="123.78 56.66 123.59 56.59 122.87 57.28 123.63 57.28 123.78 57.14 123.78 56.66"/><polygon class="cls-3" points="123.78 59.6 120.67 56.69 120.4 56.78 123.78 59.95 123.78 59.6"/><polygon class="cls-2" points="123.78 59.24 120.95 56.59 120.67 56.69 123.78 59.6 123.78 59.24"/><polygon class="cls-3" points="123.78 59.56 123.34 59.56 123.78 59.95 123.78 59.56"/><polygon class="cls-3" points="120.92 57.28 120.4 56.78 120.95 56.59 121.68 57.28 120.92 57.28"/><rect class="cls-2" x="115.97" y="56.71" width="0.29" height="3.35"/><rect class="cls-3" x="115.68" y="56.71" width="0.29" height="3.35"/><rect class="cls-3" x="115.68" y="59.12" width="0.58" height="0.94"/><rect class="cls-3" x="115.68" y="56.71" width="0.58" height="0.61"/><rect class="cls-2" x="120.15" y="56.71" width="0.29" height="3.35"/><rect class="cls-3" x="119.87" y="56.71" width="0.29" height="3.35"/><rect class="cls-3" x="119.87" y="59.12" width="0.58" height="0.94"/><rect class="cls-3" x="119.87" y="56.71" width="0.58" height="0.61"/><rect class="cls-2" x="94.64" y="59.88" width="29.13" height="0.29"/><rect class="cls-3" x="94.64" y="60.17" width="29.13" height="0.3"/><rect class="cls-2" x="94.64" y="56.27" width="29.13" height="0.3"/><rect class="cls-3" x="94.64" y="56.56" width="29.13" height="0.29"/><polygon class="cls-3" points="94.88 81.33 98.62 77.82 98.9 77.91 95.15 81.43 94.88 81.33"/><polygon class="cls-2" points="94.6 81.24 98.34 77.72 98.62 77.82 94.88 81.33 94.6 81.24"/><polygon class="cls-3" points="95.19 80.68 94.6 81.24 95.15 81.43 95.95 80.68 95.19 80.68"/><polygon class="cls-3" points="98.38 78.41 98.9 77.91 98.34 77.72 97.62 78.41 98.38 78.41"/><polygon class="cls-3" points="99.17 81.33 95.42 77.82 95.15 77.91 98.89 81.43 99.17 81.33"/><polygon class="cls-2" points="99.45 81.24 95.71 77.72 95.42 77.82 99.17 81.33 99.45 81.24"/><polygon class="cls-3" points="98.86 80.68 99.45 81.24 98.89 81.43 98.1 80.68 98.86 80.68"/><polygon class="cls-3" points="95.67 78.41 95.15 77.91 95.71 77.72 96.42 78.41 95.67 78.41"/><polygon class="cls-3" points="99.01 81.33 102.76 77.82 103.03 77.91 99.29 81.43 99.01 81.33"/><polygon class="cls-2" points="98.73 81.24 102.48 77.72 102.76 77.82 99.01 81.33 98.73 81.24"/><polygon class="cls-3" points="99.33 80.68 98.73 81.24 99.29 81.43 100.09 80.68 99.33 80.68"/><polygon class="cls-3" points="102.52 78.41 103.03 77.91 102.48 77.72 101.76 78.41 102.52 78.41"/><polygon class="cls-3" points="103.31 81.33 99.57 77.82 99.29 77.91 103.03 81.43 103.31 81.33"/><polygon class="cls-2" points="103.59 81.24 99.84 77.72 99.57 77.82 103.31 81.33 103.59 81.24"/><polygon class="cls-3" points="102.99 80.68 103.59 81.24 103.03 81.43 102.23 80.68 102.99 80.68"/><polygon class="cls-3" points="99.81 78.41 99.29 77.91 99.84 77.72 100.56 78.41 99.81 78.41"/><polygon class="cls-3" points="103.26 81.33 107 77.82 107.28 77.91 103.54 81.43 103.26 81.33"/><polygon class="cls-2" points="102.98 81.24 106.73 77.72 107 77.82 103.26 81.33 102.98 81.24"/><polygon class="cls-3" points="103.58 80.68 102.98 81.24 103.54 81.43 104.33 80.68 103.58 80.68"/><polygon class="cls-3" points="106.76 78.41 107.28 77.91 106.73 77.72 106.01 78.41 106.76 78.41"/><polygon class="cls-3" points="107.56 81.33 103.81 77.82 103.53 77.91 107.28 81.43 107.56 81.33"/><polygon class="cls-2" points="107.83 81.24 104.09 77.72 103.81 77.82 107.56 81.33 107.83 81.24"/><polygon class="cls-3" points="107.24 80.68 107.83 81.24 107.28 81.43 106.48 80.68 107.24 80.68"/><polygon class="cls-3" points="104.06 78.41 103.53 77.91 104.09 77.72 104.81 78.41 104.06 78.41"/><rect class="cls-2" x="99.1" y="77.84" width="0.29" height="3.35"/><rect class="cls-3" x="98.81" y="77.84" width="0.29" height="3.35"/><rect class="cls-3" x="98.81" y="80.25" width="0.58" height="0.94"/><rect class="cls-3" x="98.81" y="77.84" width="0.58" height="0.61"/><rect class="cls-2" x="103.29" y="77.84" width="0.29" height="3.35"/><rect class="cls-3" x="103" y="77.84" width="0.29" height="3.35"/><rect class="cls-3" x="103" y="80.25" width="0.58" height="0.94"/><rect class="cls-3" x="103" y="77.84" width="0.58" height="0.61"/><polygon class="cls-3" points="107.46 81.33 111.2 77.82 111.48 77.91 107.73 81.43 107.46 81.33"/><polygon class="cls-2" points="107.18 81.24 110.92 77.72 111.2 77.82 107.46 81.33 107.18 81.24"/><polygon class="cls-3" points="107.77 80.68 107.18 81.24 107.73 81.43 108.53 80.68 107.77 80.68"/><polygon class="cls-3" points="110.96 78.41 111.48 77.91 110.92 77.72 110.2 78.41 110.96 78.41"/><polygon class="cls-3" points="111.75 81.33 108.01 77.82 107.73 77.91 111.47 81.43 111.75 81.33"/><polygon class="cls-2" points="112.03 81.24 108.29 77.72 108.01 77.82 111.75 81.33 112.03 81.24"/><polygon class="cls-3" points="111.44 80.68 112.03 81.24 111.47 81.43 110.68 80.68 111.44 80.68"/><polygon class="cls-3" points="108.25 78.41 107.73 77.91 108.29 77.72 109 78.41 108.25 78.41"/><polygon class="cls-3" points="111.7 81.33 115.45 77.82 115.72 77.91 111.98 81.43 111.7 81.33"/><polygon class="cls-2" points="111.43 81.24 115.17 77.72 115.45 77.82 111.7 81.33 111.43 81.24"/><polygon class="cls-3" points="112.02 80.68 111.43 81.24 111.98 81.43 112.78 80.68 112.02 80.68"/><polygon class="cls-3" points="115.21 78.41 115.72 77.91 115.17 77.72 114.45 78.41 115.21 78.41"/><polygon class="cls-3" points="116 81.33 112.25 77.82 111.98 77.91 115.72 81.43 116 81.33"/><polygon class="cls-2" points="116.28 81.24 112.53 77.72 112.25 77.82 116 81.33 116.28 81.24"/><polygon class="cls-3" points="115.69 80.68 116.28 81.24 115.72 81.43 114.92 80.68 115.69 80.68"/><polygon class="cls-3" points="112.5 78.41 111.98 77.91 112.53 77.72 113.25 78.41 112.5 78.41"/><rect class="cls-2" x="107.54" y="77.84" width="0.29" height="3.35"/><rect class="cls-3" x="107.26" y="77.84" width="0.29" height="3.35"/><rect class="cls-3" x="107.26" y="80.25" width="0.58" height="0.94"/><rect class="cls-3" x="107.26" y="77.84" width="0.58" height="0.61"/><rect class="cls-2" x="111.73" y="77.84" width="0.29" height="3.35"/><rect class="cls-3" x="111.44" y="77.84" width="0.29" height="3.35"/><rect class="cls-3" x="111.44" y="80.25" width="0.58" height="0.94"/><rect class="cls-3" x="111.44" y="77.84" width="0.58" height="0.61"/><polygon class="cls-3" points="115.88 81.33 119.63 77.82 119.9 77.91 116.16 81.43 115.88 81.33"/><polygon class="cls-2" points="115.6 81.24 119.35 77.72 119.63 77.82 115.88 81.33 115.6 81.24"/><polygon class="cls-3" points="116.19 80.68 115.6 81.24 116.16 81.43 116.95 80.68 116.19 80.68"/><polygon class="cls-3" points="119.38 78.41 119.9 77.91 119.35 77.72 118.62 78.41 119.38 78.41"/><polygon class="cls-3" points="120.17 81.33 116.43 77.82 116.16 77.91 119.9 81.43 120.17 81.33"/><polygon class="cls-2" points="120.45 81.24 116.71 77.72 116.43 77.82 120.17 81.33 120.45 81.24"/><polygon class="cls-3" points="119.86 80.68 120.45 81.24 119.9 81.43 119.1 80.68 119.86 80.68"/><polygon class="cls-3" points="116.67 78.41 116.16 77.91 116.71 77.72 117.42 78.41 116.67 78.41"/><polygon class="cls-3" points="123.78 77.91 120.13 81.33 120.4 81.43 123.78 78.26 123.78 77.91"/><polygon class="cls-2" points="123.78 77.78 123.59 77.72 119.85 81.24 120.13 81.33 123.78 77.91 123.78 77.78"/><polygon class="cls-3" points="120.44 80.68 119.85 81.24 120.4 81.43 121.2 80.68 120.44 80.68"/><polygon class="cls-3" points="123.78 77.78 123.59 77.72 122.87 78.41 123.63 78.41 123.78 78.27 123.78 77.78"/><polygon class="cls-3" points="123.78 80.73 120.67 77.82 120.4 77.91 123.78 81.08 123.78 80.73"/><polygon class="cls-2" points="123.78 80.37 120.95 77.72 120.67 77.82 123.78 80.73 123.78 80.37"/><polygon class="cls-3" points="123.78 80.68 123.34 80.68 123.78 81.09 123.78 80.68"/><polygon class="cls-3" points="120.92 78.41 120.4 77.91 120.95 77.72 121.68 78.41 120.92 78.41"/><rect class="cls-2" x="115.97" y="77.84" width="0.29" height="3.35"/><rect class="cls-3" x="115.68" y="77.84" width="0.29" height="3.35"/><rect class="cls-3" x="115.68" y="80.25" width="0.58" height="0.94"/><rect class="cls-3" x="115.68" y="77.84" width="0.58" height="0.61"/><rect class="cls-2" x="120.15" y="77.84" width="0.29" height="3.35"/><rect class="cls-3" x="119.87" y="77.84" width="0.29" height="3.35"/><rect class="cls-3" x="119.87" y="80.25" width="0.58" height="0.94"/><rect class="cls-3" x="119.87" y="77.84" width="0.58" height="0.61"/><rect class="cls-2" x="94.64" y="81" width="29.13" height="0.29"/><rect class="cls-3" x="94.64" y="81.3" width="29.13" height="0.3"/><rect class="cls-2" x="94.64" y="77.4" width="29.13" height="0.29"/><rect class="cls-3" x="94.64" y="77.69" width="29.13" height="0.3"/><rect class="cls-2" x="123.59" y="29.16" width="0.39" height="64.84"/><rect class="cls-3" x="123.21" y="29.16" width="0.39" height="64.84"/><polygon class="cls-14" points="93.31 29.88 125.24 29.88 123.72 23.39 95.36 23.39 93.31 29.88"/><polygon class="cls-8" points="123.83 23.9 123.72 23.39 95.36 23.39 95.2 23.9 123.83 23.9"/><path class="cls-15" d="M109.71,29.14a26.4,26.4,0,0,1-9.54-1.48,13.34,13.34,0,0,1-5.1-3.37l-1.76,5.59h31.93l-1.12-4.71C120.15,28.37,114.77,29.23,109.71,29.14Z"/><rect class="cls-16" x="94.51" y="36.21" width="9.14" height="6.98"/><rect class="cls-17" x="94.51" y="36.21" width="0.94" height="6.98"/><rect class="cls-17" x="96.54" y="36.21" width="1.05" height="6.98"/><rect class="cls-17" x="98.68" y="36.21" width="1.05" height="6.98"/><rect class="cls-17" x="100.81" y="36.21" width="1.05" height="6.98"/><rect class="cls-17" x="102.95" y="36.21" width="0.71" height="6.98"/><rect class="cls-18" x="94.51" y="36.21" width="9.14" height="6.98"/><rect class="cls-16" x="102.61" y="36.21" width="9.14" height="6.98"/><rect class="cls-17" x="102.61" y="36.21" width="0.94" height="6.98"/><rect class="cls-17" x="104.64" y="36.21" width="1.05" height="6.98"/><rect class="cls-17" x="106.78" y="36.21" width="1.05" height="6.98"/><rect class="cls-17" x="108.92" y="36.21" width="1.05" height="6.98"/><rect class="cls-17" x="111.05" y="36.21" width="0.7" height="6.98"/><g class="cls-19"><rect class="cls-20" x="102.61" y="36.21" width="9.14" height="0.55"/></g><path class="cls-21" d="M111.57,38.82a13.24,13.24,0,0,1-.45,1.48,3.13,3.13,0,0,1-.74,1.27,3.92,3.92,0,0,1-1.23.79,5.41,5.41,0,0,1-2.92.37,4.33,4.33,0,0,1-1.31-.45,3.94,3.94,0,0,1-1.16-1,5.62,5.62,0,0,1-1.14-2.55v4.44h9.14V37.75C111.71,38.12,111.65,38.47,111.57,38.82Z"/><rect class="cls-7" x="111.56" y="35.55" width="0.56" height="7.92"/><rect class="cls-7" x="102.48" y="35.55" width="0.56" height="7.92"/><path class="cls-22" d="M101.94,32.24a6.65,6.65,0,0,0-3-.73l-1.14,0a5,5,0,0,0-2.56,1.66,6,6,0,0,0-1,3.09H103a9.14,9.14,0,0,1,.38-2.27A3.29,3.29,0,0,0,101.94,32.24Z"/><path class="cls-22" d="M101.94,32.24l-.11-.05a5,5,0,0,0-1.53,4.11H103a9.14,9.14,0,0,1,.38-2.27A3.29,3.29,0,0,0,101.94,32.24Z"/><path class="cls-23" d="M101.83,32.2a6.05,6.05,0,0,0-2-.6c-2.71,1-2.65,4.09-2.61,4.71h3A5,5,0,0,1,101.83,32.2Z"/><path class="cls-22" d="M99.88,31.6c-.3,0-.6-.06-.91-.08l-1.32,0h-.41c-2.79,1-2.73,4.11-2.69,4.74H97.3C97.23,35.7,97.17,32.59,99.88,31.6Z"/><path class="cls-24" d="M101.94,32.24l-.11-.05-.09,0-.27-.12-.13-.05-.17-.07-.16,0-.26-.08-.17,0-.16,0-.2,0-.22,0h-.15l-.36,0h-.08l-.44,0h0l-1.14,0h-.59A3.69,3.69,0,0,0,95,33.72a6.31,6.31,0,0,0-.73,2.61H103a9.22,9.22,0,0,1,.38-2.27A3.27,3.27,0,0,0,101.94,32.24Z"/><path class="cls-25" d="M96.4,34.41a4,4,0,0,1,3.95-1.48,4.15,4.15,0,0,1,2.8,2.07c.06-.32.14-.64.23-1a3.23,3.23,0,0,0-1.48-1.79l-.11,0-.05-.07-.27-.12-.13-.05-.17-.07-.16,0-.26-.08-.17,0-.16,0-.2,0-.22,0h-.15l-.36,0h-.08l-.44,0h0l-1.14,0h-.59A3.69,3.69,0,0,0,95,33.72a6.31,6.31,0,0,0-.73,2.61h1.48A3.6,3.6,0,0,1,96.4,34.41Z"/><path class="cls-8" d="M98.89,31.3l11.09.31a3.16,3.16,0,0,1,2.65,3,12.64,12.64,0,0,1,0,1.74H103s-.05-2.55-1.13-3.59A7,7,0,0,0,98.89,31.3Z"/><path class="cls-14" d="M105.81,31.49l-3.45-.1c3.49.65,3.42,4.24,3.38,4.94h3C108.81,35.66,108.89,32.33,105.81,31.49Z"/><path class="cls-8" d="M108.8,31.57l-3-.08c3.07.84,3,4.17,3,4.82h2.72C111.53,35.7,111.62,32.54,108.8,31.57Z"/><path class="cls-14" d="M112.63,34.56a3.18,3.18,0,0,0-2.65-3l-1.18,0c2.8,1,2.73,4.11,2.69,4.73h1.17A12.64,12.64,0,0,0,112.63,34.56Z"/><path class="cls-8" d="M100.87,31.91c.49.22.82.65,1.29.9a8.66,8.66,0,0,0,1.7.69,10.43,10.43,0,0,0,3.34.37,13.38,13.38,0,0,0,4.74-1.09,3,3,0,0,0-2-1.17L98.88,31.3a8,8,0,0,1,1.73.58A.57.57,0,0,1,100.87,31.91Z"/><path class="cls-2" d="M102.43,36.42h.79s.57-5-4.35-5.12S94,35.47,94,36.35h.8s-.24-4.62,4.13-4.44C102.85,32.05,102.43,36.42,102.43,36.42Z"/><path class="cls-26" d="M118.69,32.35a3.89,3.89,0,0,0,1,1.11,9.37,9.37,0,0,0,0-1.06,2.71,2.71,0,0,1,.06-.38l0-.12c-.4.14-.79.25-1.2.35Z"/><path class="cls-27" d="M120.44,31.81a7.68,7.68,0,0,1,.55.59,2.19,2.19,0,0,0,.41.5,9.12,9.12,0,0,1,.22-1.16l.08-.39a.34.34,0,0,1,0-.14c-.45.19-.91.37-1.37.53Z"/><path class="cls-26" d="M122,31.08s0,.07.06.1a2.89,2.89,0,0,0,.83.91c0-.49.16-1,.21-1.48v-.15A9.13,9.13,0,0,1,122,31.08Z"/><path class="cls-28" d="M112.68,32.39l0,.1a10.28,10.28,0,0,0,.75,1.48,4.51,4.51,0,0,0,.37-1.35v-.08a9.44,9.44,0,0,1-1-.14Z"/><path class="cls-27" d="M116.41,32.57a.31.31,0,0,0,0,.1c.26.46.62.9.91,1.32a7.35,7.35,0,0,1,.37-1.45v-.11a12.1,12.1,0,0,1-1.21.14Z"/><path class="cls-8" d="M114.55,32.59l0,.08c.17.5.56.9.77,1.38a6.23,6.23,0,0,1,.3-1.36.16.16,0,0,1,0-.09C115.3,32.61,114.93,32.61,114.55,32.59Z"/><path class="cls-14" d="M102.43,36.42a4.17,4.17,0,0,0,0-.5c-4.4.2-12.26,1-18.05,4.37-8.48,4.85-12.54,11.39-6.19,21.63.56.91,1.1,1.78,1.61,2.63-.44-.95-.87-1.82-1.25-2.54-2-3.8-2-11.74,4.33-15.63,5.53-3.44,10.47-5.89,19.6-6.32V36.42Z"/><path class="cls-14" d="M57.63,52c-1.06,8.83,6.36,11.22,6,24.37-.18,6.86-2.24,10.26-5.79,12l0,0c-.52.44-1,1.15.58,3.49a12.89,12.89,0,0,0,9.18,5.16c4.2.4,7.65-.45,11.66-4,.61-.53,1.72-1.17,2.16-1.58.15-.27.31-.53.44-.8,5.65-10.64,3.27-17.38-2-26.25-.49-.86-1-1.73-1.61-2.63-6.35-10.24-2.29-16.79,6.19-21.64,5.79-3.29,13.65-4.13,18-4.33v-.15C69.85,35.16,58.65,43.46,57.63,52Z"/><path class="cls-1" d="M81.68,91.05l-.3.53A1.86,1.86,0,0,0,81.68,91.05Z"/><path class="cls-29" d="M83,36.94c4.64-.68,9.08-1,12.16-1.17l1.06,0a117.55,117.55,0,0,0-13.52,1,.49.49,0,0,1,.24.14Z"/><path class="cls-30" d="M69.55,40.3A57.56,57.56,0,0,1,82.88,37a.87.87,0,0,0-.34-.22,57.05,57.05,0,0,0-13.43,3.33,1.08,1.08,0,0,1,.27.1A1.09,1.09,0,0,1,69.55,40.3Z"/><path class="cls-30" d="M80,66.27a1.11,1.11,0,0,0-.35.5c2,3.16,3.68,6.53,3.68,11.35v1.32a1.44,1.44,0,0,1,.78-.68,1.33,1.33,0,0,1,1,.22C85,74.75,83.39,70.87,81,66.55,80.72,66.22,80.38,66,80,66.27Z"/><path class="cls-31" d="M83.63,79.21a2.9,2.9,0,0,0-.35.49c-.32,8.11-3,10.4-3,10.4-1.69,1-3.58,5.6-10.77,5.9S60,91.33,59.56,90.07a2.06,2.06,0,0,0-.21-.42,14.11,14.11,0,0,0,4.72-7.28l0,0c-.34-.44-.81-.31-1.25,0a9.36,9.36,0,0,1-4.94,6.09l0,0c-.52.45-1,1.15.58,3.49a12.93,12.93,0,0,0,9.18,5.17c4.2.39,7.65-.46,11.66-4,.61-.54,1.72-1.18,2.16-1.59.15-.26.31-.52.44-.79,2.34-4.4,3.3-8.14,3.25-11.63a1.68,1.68,0,0,0-.7-.21A.77.77,0,0,0,83.63,79.21Z"/><path class="cls-29" d="M63.11,68.37a.87.87,0,0,1,.63-.12,40,40,0,0,0-2.67-6.67,19.83,19.83,0,0,1-2.29-7.87c-.12-.34-.26-.76-.62-.79a.78.78,0,0,0-.61.24c-.23,5.93,3.53,9,5.26,15.46A1.42,1.42,0,0,1,63.11,68.37Z"/><path class="cls-29" d="M74.21,56.44c.07.24.14.49.22.74,1.17,3.68,3.25,6.47,5.1,9.41a1,1,0,0,1,.59-.56.73.73,0,0,1,.58,0c-.29-.5-.59-1-.89-1.53-.49-.85-1-1.72-1.61-2.63a22,22,0,0,1-2.63-5.8A1.68,1.68,0,0,0,74.21,56.44Z"/><path class="cls-30" d="M64.13,82.15q.18-.75.3-1.53a27.59,27.59,0,0,0-.65-12.22.66.66,0,0,0-.55,0,1.23,1.23,0,0,0-.4.31,27,27,0,0,1,.8,7.64,22.7,22.7,0,0,1-.79,5.74,1.5,1.5,0,0,1,.74-.23A.74.74,0,0,1,64.13,82.15Z"/><path class="cls-31" d="M58.74,53.24c-.05-4.81,2.66-9.1,9.66-12.43l1-.44a.93.93,0,0,0-.49-.23C61.41,43.24,58.16,47.59,57.63,52c0,.33-.07.66-.09,1a.9.9,0,0,1,.35-.18A.74.74,0,0,1,58.74,53.24Z"/><path class="cls-14" d="M71.19,48.39a6.12,6.12,0,0,1-1.14-3.34,17.6,17.6,0,0,1-.15-1.77V41.79a2.4,2.4,0,0,0-.37-1.32.52.52,0,0,0-.11-.1c-.34.14-.67.29-1,.44-7,3.33-9.75,7.62-9.7,12.43a2.12,2.12,0,0,1,.11.21,9.79,9.79,0,0,0,.92,2,6.62,6.62,0,0,0,1.48,1.64c3,2.32,7.28,2.15,10.59.66.84-.38,1.52-1,2.32-1.48a12.19,12.19,0,0,1-.07-6.59A3.55,3.55,0,0,1,71.19,48.39Z"/><path class="cls-32" d="M69.34,58.77a10.6,10.6,0,0,1-5.13-.09A7.85,7.85,0,0,1,60,56a9.12,9.12,0,0,1-1.2-2.13l-.06-.18a20.21,20.21,0,0,0,2.31,7.87,40.73,40.73,0,0,1,2.63,6.67,1.47,1.47,0,0,1,.6.26c.55.36,1,.8,1.6,1.16a13.35,13.35,0,0,0,2.17,1.09c2.76,1.08,6.13,1.48,8.78-.1a5.5,5.5,0,0,0,1.58-1.38,5.66,5.66,0,0,0,.62-1,3.56,3.56,0,0,0,.24-.92,4.42,4.42,0,0,1,.22-.79c-1.85-3-4-5.74-5.1-9.41l-.22-.74a12.09,12.09,0,0,0-1.13.79A9.42,9.42,0,0,1,69.34,58.77Z"/><path class="cls-33" d="M79.18,68.45a5.19,5.19,0,0,1-.65,1c-1.72,2.13-4.76,2.64-7.34,2.26a14.31,14.31,0,0,1-4.83-1.67,10.75,10.75,0,0,1-1.16-.73c-.27-.19-.5-.41-.78-.59a2.5,2.5,0,0,0-.62-.34,27.52,27.52,0,0,1,.63,12.24q-.12.77-.3,1.53a1.07,1.07,0,0,1,.15.22,8.76,8.76,0,0,0,.67,1A7.09,7.09,0,0,0,70,85.68a25.86,25.86,0,0,0,2.64.07,18.25,18.25,0,0,0,2.86-.2,10.61,10.61,0,0,0,4.87-2.15,7.9,7.9,0,0,0,1.68-1.78c.38-.58.65-1.22,1-1.82l.23-.37V78.12c0-4.83-1.69-8.19-3.67-11.36a4,4,0,0,0-.18.66A3.6,3.6,0,0,1,79.18,68.45Z"/><path class="cls-32" d="M102,35.75H96.26l-1.06,0c-3.08.17-7.52.5-12.16,1.17a1,1,0,0,1,.12.6c0,.79-.27,1.91.32,2.57.35-.19.71-.38,1.08-.55A37.75,37.75,0,0,1,99,36.14c1.26-.12,2.41-.2,3.39-.24h0v-.14Z"/><path class="cls-33" d="M83,38.52A8.24,8.24,0,0,0,83,37.3a.48.48,0,0,0-.14-.34A57.82,57.82,0,0,0,69.56,40.3a1.56,1.56,0,0,1,.39.78,20.62,20.62,0,0,1,.15,2.84,9.4,9.4,0,0,0,.79,3.74,3.72,3.72,0,0,0,3.24,1.87c1.11-3.68,4.23-6.74,9.23-9.39A2.21,2.21,0,0,1,83,38.52Z"/><path class="cls-14" d="M80.11,83.83a11.17,11.17,0,0,1-4.7,1.89,22.62,22.62,0,0,1-5.33.13,8.17,8.17,0,0,1-4.57-1.54,5.73,5.73,0,0,1-.92-1c-.2-.28-.33-.62-.5-.89a14,14,0,0,1-4.71,7.29,2.22,2.22,0,0,1,.2.41c.47,1.25,2.75,6.22,9.94,5.93s9.07-4.94,10.76-5.89c0,0,2.7-2.29,3-10.41a9.1,9.1,0,0,0-.49,1A7.68,7.68,0,0,1,80.11,83.83Z"/><path class="cls-11" d="M84.07,78.74a1.44,1.44,0,0,0-.78.68v.27a3.36,3.36,0,0,1,.35-.49.77.77,0,0,1,.74-.26,1.43,1.43,0,0,1,.7.21V79A1.29,1.29,0,0,0,84.07,78.74Z"/><path class="cls-34" d="M84.07,78.74a1.44,1.44,0,0,0-.78.68v.27a3.36,3.36,0,0,1,.35-.49.77.77,0,0,1,.74-.26,1.43,1.43,0,0,1,.7.21V79A1.29,1.29,0,0,0,84.07,78.74Z"/><path class="cls-11" d="M64,82.34l0,0,.06-.22a.76.76,0,0,0-.55-.24,1.5,1.5,0,0,0-.74.23.64.64,0,0,1-.05.17C63.22,82,63.72,81.91,64,82.34Z"/><path class="cls-34" d="M64,82.34l0,0,.06-.22a.76.76,0,0,0-.55-.24,1.5,1.5,0,0,0-.74.23.64.64,0,0,1-.05.17C63.22,82,63.72,81.91,64,82.34Z"/><path class="cls-11" d="M82.06,81.63a8.06,8.06,0,0,1-1.68,1.77,10.73,10.73,0,0,1-4.87,2.16,21,21,0,0,1-2.86.2A25.87,25.87,0,0,1,70,85.68,7,7,0,0,1,65,83.44a8.13,8.13,0,0,1-.67-1,1.07,1.07,0,0,0-.15-.22l-.06.22c.19.27.32.61.49.89a5.73,5.73,0,0,0,.92,1,8,8,0,0,0,4.58,1.54,23.19,23.19,0,0,0,5.33-.13,11.13,11.13,0,0,0,4.69-1.89,7.69,7.69,0,0,0,2.67-3.15,9.1,9.1,0,0,1,.49-1v-.27l-.23.37C82.71,80.39,82.44,81,82.06,81.63Z"/><path class="cls-34" d="M82.06,81.63a8.06,8.06,0,0,1-1.68,1.77,10.73,10.73,0,0,1-4.87,2.16,21,21,0,0,1-2.86.2A25.87,25.87,0,0,1,70,85.68,7,7,0,0,1,65,83.44a8.13,8.13,0,0,1-.67-1,1.07,1.07,0,0,0-.15-.22l-.06.22c.19.27.32.61.49.89a5.73,5.73,0,0,0,.92,1,8,8,0,0,0,4.58,1.54,23.19,23.19,0,0,0,5.33-.13,11.13,11.13,0,0,0,4.69-1.89,7.69,7.69,0,0,0,2.67-3.15,9.1,9.1,0,0,1,.49-1v-.27l-.23.37C82.71,80.39,82.44,81,82.06,81.63Z"/><path class="cls-34" d="M63.22,68.43a.68.68,0,0,1,.56,0l-.05-.15a.87.87,0,0,0-.63.12,1.48,1.48,0,0,0-.31.25l0,.12A1.35,1.35,0,0,1,63.22,68.43Z"/><path class="cls-34" d="M80.12,66a1,1,0,0,0-.6.57l.1.16a1.11,1.11,0,0,1,.35-.5c.4-.29.73,0,1,.26L80.68,66A.77.77,0,0,0,80.12,66Z"/><path class="cls-34" d="M79.07,68.29a5.66,5.66,0,0,1-.62,1,5.52,5.52,0,0,1-1.56,1.37c-2.65,1.6-6,1.18-8.78.1a13.3,13.3,0,0,1-2.17-1.08c-.56-.36-1-.8-1.6-1.17a1.47,1.47,0,0,0-.6-.26l0,.16a2.25,2.25,0,0,1,.61.33c.27.19.5.41.78.6s.79.51,1.2.73a14.56,14.56,0,0,0,4.83,1.69c2.58.38,5.62-.14,7.34-2.27a5.07,5.07,0,0,0,.64-1,4.29,4.29,0,0,0,.28-1,5.33,5.33,0,0,1,.17-.66l-.1-.16a4.52,4.52,0,0,0-.22.8A3.77,3.77,0,0,1,79.07,68.29Z"/><path class="cls-34" d="M58.14,52.92c.36,0,.49.45.62.79v-.47a.74.74,0,0,0-.86-.43.8.8,0,0,0-.34.18v.17A.75.75,0,0,1,58.14,52.92Z"/><path class="cls-34" d="M74.37,56.16l-.2.12a1.24,1.24,0,0,0,0,.16,1.63,1.63,0,0,1,1.36-.34,1.6,1.6,0,0,0,0-.21A1.79,1.79,0,0,0,74.37,56.16Z"/><path class="cls-34" d="M61.25,57.1a6.66,6.66,0,0,1-1.48-1.65,10,10,0,0,1-.94-2,2,2,0,0,0-.1-.21v.47l.07.18A9.12,9.12,0,0,0,60,56a7.88,7.88,0,0,0,4.21,2.67,10.64,10.64,0,0,0,5.14.09,9.65,9.65,0,0,0,3.75-1.54,10.9,10.9,0,0,1,1.13-.79.43.43,0,0,0,0-.16c-.8.45-1.48,1.1-2.31,1.48C68.55,59.25,64.25,59.4,61.25,57.1Z"/><path class="cls-34" d="M69.55,40.3a1.09,1.09,0,0,0-.17-.13,1.08,1.08,0,0,0-.27-.1l-.18.07a.89.89,0,0,1,.49.23Z"/><path class="cls-29" d="M93.5,37A54.56,54.56,0,0,1,99,36.14a44.38,44.38,0,0,0-5.75.65h0A.66.66,0,0,1,93.5,37Z"/><path class="cls-34" d="M93.29,36.79h0l-.29.06a.48.48,0,0,1,.39.18l.13,0A.77.77,0,0,0,93.29,36.79Z"/><path class="cls-34" d="M72.24,49a3.47,3.47,0,0,1-1.36-1.38,9.29,9.29,0,0,1-.79-3.74,20.56,20.56,0,0,0-.15-2.83,1.52,1.52,0,0,0-.39-.78l-.15.06.11.11a2.35,2.35,0,0,1,.37,1.32c0,.49,0,1,0,1.48A17.55,17.55,0,0,0,70,45.05a6.09,6.09,0,0,0,1.14,3.33,3.53,3.53,0,0,0,2.92,1.3,1,1,0,0,1,0-.14A3.4,3.4,0,0,1,72.24,49Z"/><path class="cls-34" d="M82.87,37H83L83,36.88a.72.72,0,0,0-.24-.14h-.21A.87.87,0,0,1,82.87,37Z"/><path class="cls-34" d="M80.19,42.07l-.16.11a4.06,4.06,0,0,1,.84.4L81,42.5A2.34,2.34,0,0,0,80.19,42.07Z"/><path class="cls-31" d="M74.13,49.53a.43.43,0,0,1,0,.14,12.29,12.29,0,0,0,.08,6.59l.2-.12a1.79,1.79,0,0,1,1.15-.26c-1.43-5.6.88-9.88,5.35-13.31a4.67,4.67,0,0,0-.84-.41C77,44.34,75,46.77,74.13,49.53Z"/><path class="cls-30" d="M93,36.84a33.36,33.36,0,0,0-8.43,2.72c-.37.17-.73.36-1.08.55a.31.31,0,0,0-.12,0,32.89,32.89,0,0,0-3.17,1.91,2.34,2.34,0,0,1,.79.43,29.9,29.9,0,0,1,3.41-2.24,31.87,31.87,0,0,1,9-3.24A.49.49,0,0,0,93,36.84Z"/><path class="cls-34" d="M83.16,37.54a1,1,0,0,0-.12-.6h-.17a.48.48,0,0,1,.14.34,10.28,10.28,0,0,1,0,1.24,2.32,2.32,0,0,0,.41,1.64s.08,0,.12,0C82.89,39.45,83.15,38.33,83.16,37.54Z"/><path class="cls-35" d="M80.26,90.09c-1.69,1-3.58,5.6-10.77,5.9S60,91.32,59.56,90.06a2.06,2.06,0,0,0-.21-.42c-.57-.9-1.7-1.33-2-.53-.14.49,0,1.35,1,2.82a12.92,12.92,0,0,0,9.18,5.16c4.2.4,7.65-.45,11.66-4,.61-.53,1.72-1.17,2.16-1.58l.3-.53C82,90.23,81.63,89.31,80.26,90.09Z"/><path class="cls-36" d="M77.68,37.57C63.81,40.41,58.33,46.15,57.63,52c-1.06,8.83,6.36,11.22,6,24.37-.18,6.86-2.24,10.26-5.79,12l0,0a1.35,1.35,0,0,0-.35.4h0c.39-.37,1.14-.08,1.66.53a14.23,14.23,0,0,0,4.61-8.63c.79-5.48.7-10.89-3.36-19.05S56.9,46.07,67.74,40.94a45,45,0,0,1,10.42-3.16A108.16,108.16,0,0,1,91.45,36,95.14,95.14,0,0,0,77.68,37.57Z"/><path class="cls-36" d="M75,57.18c-2.47-7.69,1.12-13.25,10.13-17.62a36.6,36.6,0,0,1,13.15-3.33l.71-.09a37.75,37.75,0,0,0-14.46,3.42c-9,4.37-12.58,9.93-10.13,17.62S83.32,68.7,83.32,78.1s-3,12-3,12a1.91,1.91,0,0,1,.87-.29c.75-.91,2.77-4,2.77-11.7C83.9,68.7,77.48,64.86,75,57.18Z"/><path class="cls-33" d="M93.52,38a1.47,1.47,0,0,0-.13-.9v0a31.87,31.87,0,0,0-9,3.24A30.3,30.3,0,0,0,81,42.53a4.12,4.12,0,0,1,.28,2.17,16.49,16.49,0,0,1-.42,2.79c-.06.24-.12.5-.19.7a11.46,11.46,0,0,1,2.27-1.83,40.53,40.53,0,0,1,9.73-4.7,4.11,4.11,0,0,0,.68-1.61A9.92,9.92,0,0,0,93.52,38Z"/><path class="cls-14" d="M81,45.08a5.16,5.16,0,0,0-.13-2.31l-.07-.15c-4.45,3.46-6.73,7.72-5.29,13.33l.14.07a1.84,1.84,0,0,1,.54.57c.21.31.41.61.6.93s.5.79.71,1.19a12.65,12.65,0,0,1,2.82-10.19c.1-.32.2-.62.27-1A19,19,0,0,0,81,45.08Z"/><path class="cls-32" d="M76,56.44a1.6,1.6,0,0,0-.4-.38,22.14,22.14,0,0,0,2.63,5.82c.56.9,1.1,1.77,1.61,2.62-.44-.94-.87-1.82-1.25-2.53a10,10,0,0,1-1-3c-.17-.28-.34-.56-.49-.84A19.39,19.39,0,0,0,76,56.44Z"/><path class="cls-32" d="M102.43,36.42a4.17,4.17,0,0,0,0-.5A57.17,57.17,0,0,0,93.49,37a1,1,0,0,1,.13.33,7.2,7.2,0,0,1-.07,2.27,5.28,5.28,0,0,1-.63,2,38.72,38.72,0,0,1,9.56-1.54V36.42Z"/><path class="cls-34" d="M81.23,44.7A4.12,4.12,0,0,0,81,42.53l-.13.09.07.15A5.16,5.16,0,0,1,81,45.08a18.71,18.71,0,0,1-.41,2.47c-.07.33-.17.63-.27,1a4.12,4.12,0,0,1,.28-.31c.07-.23.13-.46.19-.7A16.49,16.49,0,0,0,81.23,44.7Z"/><path class="cls-34" d="M93.63,37.33A1,1,0,0,0,93.5,37l-.13,0v0a1.47,1.47,0,0,1,.13.9,9.92,9.92,0,0,1-.22,2.1,4.11,4.11,0,0,1-.68,1.61l.31-.09a5.28,5.28,0,0,0,.63-2A7.14,7.14,0,0,0,93.63,37.33Z"/><path class="cls-34" d="M76.21,56.57a1.84,1.84,0,0,0-.54-.57l-.14-.07a.21.21,0,0,0,0,.15,1.6,1.6,0,0,1,.4.38,16.68,16.68,0,0,1,1.11,1.75l.49.84-.06-.36c-.23-.4-.49-.8-.71-1.19S76.42,56.88,76.21,56.57Z"/><path class="cls-37" d="M93.52,38a1.47,1.47,0,0,0-.13-.9v0a31.87,31.87,0,0,0-9,3.24A30.3,30.3,0,0,0,81,42.53a4.12,4.12,0,0,1,.28,2.17,16.49,16.49,0,0,1-.42,2.79c-.06.24-.12.5-.19.7a11.46,11.46,0,0,1,2.27-1.83,40.53,40.53,0,0,1,9.73-4.7,4.11,4.11,0,0,0,.68-1.61A9.92,9.92,0,0,0,93.52,38Z"/><path class="cls-38" d="M81,45.08a5.16,5.16,0,0,0-.13-2.31l-.07-.15c-4.45,3.46-6.73,7.72-5.29,13.33l.14.07a1.84,1.84,0,0,1,.54.57c.21.31.41.61.6.93s.5.79.71,1.19a12.65,12.65,0,0,1,2.82-10.19c.1-.32.2-.62.27-1A19,19,0,0,0,81,45.08Z"/><path class="cls-39" d="M76,56.44a1.6,1.6,0,0,0-.4-.38,22.14,22.14,0,0,0,2.63,5.82c.56.9,1.1,1.77,1.61,2.62-.44-.94-.87-1.82-1.25-2.53a10,10,0,0,1-1-3c-.17-.28-.34-.56-.49-.84A19.39,19.39,0,0,0,76,56.44Z"/><path class="cls-39" d="M102.43,36.42a4.17,4.17,0,0,0,0-.5A57.17,57.17,0,0,0,93.49,37a1,1,0,0,1,.13.33,7.2,7.2,0,0,1-.07,2.27,5.28,5.28,0,0,1-.63,2,38.72,38.72,0,0,1,9.56-1.54V36.42Z"/><path class="cls-40" d="M81.23,44.7A4.12,4.12,0,0,0,81,42.53l-.13.09.07.15A5.16,5.16,0,0,1,81,45.08a18.71,18.71,0,0,1-.41,2.47c-.07.33-.17.63-.27,1a4.12,4.12,0,0,1,.28-.31c.07-.23.13-.46.19-.7A16.49,16.49,0,0,0,81.23,44.7Z"/><path class="cls-40" d="M93.63,37.33A1,1,0,0,0,93.5,37l-.13,0v0a1.47,1.47,0,0,1,.13.9,9.92,9.92,0,0,1-.22,2.1,4.11,4.11,0,0,1-.68,1.61l.31-.09a5.28,5.28,0,0,0,.63-2A7.14,7.14,0,0,0,93.63,37.33Z"/><path class="cls-40" d="M76.21,56.57a1.84,1.84,0,0,0-.54-.57l-.14-.07a.21.21,0,0,0,0,.15,1.6,1.6,0,0,1,.4.38,16.68,16.68,0,0,1,1.11,1.75l.49.84-.06-.36c-.23-.4-.49-.8-.71-1.19S76.42,56.88,76.21,56.57Z"/><path class="cls-37" d="M91.93,41.07a31.65,31.65,0,0,0-6.3,3.46l-1.08.8a37.75,37.75,0,0,1,8.07-3.69,3.71,3.71,0,0,0,.53-1Z"/><path class="cls-39" d="M102.43,36.42a4.17,4.17,0,0,0,0-.5l-.66,0a2.94,2.94,0,0,1-2.49,3c-2,.49-4,1-5.93,1.65a3.72,3.72,0,0,1-.44,1,38.82,38.82,0,0,1,9.57-1.56V36.42Z"/><path class="cls-40" d="M93.15,40.6a3.76,3.76,0,0,1-.53,1.06l.31-.09a4.05,4.05,0,0,0,.42-1Z"/><path class="cls-41" d="M80.26,90.09l-.06,0-.17.13a5.9,5.9,0,0,0-.57.55c-.23.25-.49.57-.82.93s-.67.75-1.1,1.17a10.78,10.78,0,0,1-1.48,1.22,11.15,11.15,0,0,1-1.88,1.05,11.79,11.79,0,0,1-2.18.7,15.57,15.57,0,0,1-2.35.3,13.43,13.43,0,0,1-2.37-.09A10.26,10.26,0,0,1,65,95.57a4.65,4.65,0,0,1-.52-.2L64,95.15c-.32-.17-.63-.34-.92-.53a9.06,9.06,0,0,1-1.48-1.22A9.24,9.24,0,0,1,60,91.08a6.66,6.66,0,0,1-.31-.73c-.07-.18-.1-.28-.1-.28l.11.27c.08.16.2.4.37.7a8.73,8.73,0,0,0,.68,1,10.76,10.76,0,0,0,1.06,1.18,9.11,9.11,0,0,0,3.37,2,10.66,10.66,0,0,0,2.17.49,13.58,13.58,0,0,0,2.3.07,14.62,14.62,0,0,0,2.29-.28,12.28,12.28,0,0,0,2.14-.65,11.48,11.48,0,0,0,1.84-1,12.73,12.73,0,0,0,1.48-1.15c.44-.38.82-.76,1.16-1.1l.86-.89a4.76,4.76,0,0,1,.62-.49l.18-.12Z"/><path class="cls-14" d="M70.92,58.13a2.14,2.14,0,0,0-.06-.35,14.14,14.14,0,0,1,1.38-8.53,4.13,4.13,0,0,1-1-.86,6.12,6.12,0,0,1-1.14-3.34,17.6,17.6,0,0,1-.15-1.77V41.79a2.4,2.4,0,0,0-.37-1.32.52.52,0,0,0-.11-.1c-.34.14-.67.29-1,.44-7,3.33-9.75,7.62-9.7,12.43a2.12,2.12,0,0,1,.11.21,9.79,9.79,0,0,0,.92,2,6.62,6.62,0,0,0,1.48,1.64C64,59.21,67.77,59.26,70.92,58.13Z"/><path class="cls-32" d="M64.34,68.51c.55.36,1,.8,1.6,1.16a13.35,13.35,0,0,0,2.17,1.09,10.82,10.82,0,0,0,7.71.42,31.87,31.87,0,0,0-1.48-4c-1.26-2.86-2.8-5.76-3.38-8.89a14.93,14.93,0,0,1-1.62.45,10.6,10.6,0,0,1-5.13-.07A7.85,7.85,0,0,1,60,56a9.12,9.12,0,0,1-1.2-2.13l-.06-.18a20.21,20.21,0,0,0,2.31,7.87,40.73,40.73,0,0,1,2.63,6.67A1.55,1.55,0,0,1,64.34,68.51Z"/><path class="cls-33" d="M64.43,80.64q-.12.77-.3,1.53a1.07,1.07,0,0,1,.15.22,8.76,8.76,0,0,0,.67,1A7.09,7.09,0,0,0,70,85.68a25.86,25.86,0,0,0,2.64.07,19.72,19.72,0,0,0,2.77-.17A27.19,27.19,0,0,0,76.75,77a21.54,21.54,0,0,0-.88-5.64,9.63,9.63,0,0,1-4.67.41,14.53,14.53,0,0,1-4.83-1.67,11.15,11.15,0,0,1-1.17-.76c-.27-.19-.5-.41-.78-.59a2.5,2.5,0,0,0-.62-.34A27.52,27.52,0,0,1,64.43,80.64Z"/><path class="cls-32" d="M102,35.75H96.26l-1.06,0c-3.08.17-7.52.5-12.16,1.17a1,1,0,0,1,.12.6c0,.79-.27,1.91.32,2.57.35-.19.71-.38,1.08-.55A37.75,37.75,0,0,1,99,36.14c1.26-.12,2.41-.2,3.39-.24h0v-.14Z"/><path class="cls-33" d="M70.09,43.92a9.4,9.4,0,0,0,.79,3.74A3.45,3.45,0,0,0,72.24,49l.09,0a14.85,14.85,0,0,1,.93-1.53,17,17,0,0,1,6.5-5.19,30.78,30.78,0,0,1,3.6-2.22A2.29,2.29,0,0,1,83,38.5,9.88,9.88,0,0,0,83,37.28a.51.51,0,0,0-.14-.34,57.82,57.82,0,0,0-13.33,3.34,1.56,1.56,0,0,1,.39.78A21.1,21.1,0,0,1,70.09,43.92Z"/><path class="cls-14" d="M69.49,96c.26,0,.5,0,.75,0A38.15,38.15,0,0,0,75,86.74c.12-.34.24-.67.34-1a23.31,23.31,0,0,1-5.28.12,8.17,8.17,0,0,1-4.57-1.54,5.73,5.73,0,0,1-.92-1c-.2-.28-.33-.62-.5-.89a14,14,0,0,1-4.71,7.28,2.67,2.67,0,0,1,.2.42C60,91.32,62.31,96.29,69.49,96Z"/><path class="cls-11" d="M65.51,84.31a8,8,0,0,0,4.57,1.54,23.31,23.31,0,0,0,5.28-.12l.06-.18a19.73,19.73,0,0,1-2.77.19A25.87,25.87,0,0,1,70,85.66,7,7,0,0,1,65,83.42a8.13,8.13,0,0,1-.67-1,1.07,1.07,0,0,0-.15-.22l-.06.22c.19.27.32.61.49.89A5.57,5.57,0,0,0,65.51,84.31Z"/><path class="cls-34" d="M65.51,84.31a8,8,0,0,0,4.57,1.54,23.31,23.31,0,0,0,5.28-.12l.06-.18a19.73,19.73,0,0,1-2.77.19A25.87,25.87,0,0,1,70,85.66,7,7,0,0,1,65,83.42a8.13,8.13,0,0,1-.67-1,1.07,1.07,0,0,0-.15-.22l-.06.22c.19.27.32.61.49.89A5.57,5.57,0,0,0,65.51,84.31Z"/><path class="cls-34" d="M64.39,68.74c.27.18.5.4.78.59a12.39,12.39,0,0,0,1.2.73,14.34,14.34,0,0,0,4.83,1.69,9.63,9.63,0,0,0,4.67-.41l-.05-.14a10.87,10.87,0,0,1-7.71-.43,13.3,13.3,0,0,1-2.17-1.08c-.56-.36-1-.8-1.6-1.17a1.47,1.47,0,0,0-.6-.26l0,.16A2,2,0,0,1,64.39,68.74Z"/><path class="cls-34" d="M69.34,58.77A12.92,12.92,0,0,0,71,58.33a1.42,1.42,0,0,0,0-.2c-3.15,1.13-7,1.08-9.66-1a6.7,6.7,0,0,1-1.49-1.65,10,10,0,0,1-.94-2,2,2,0,0,0-.1-.21v.47l.07.18A9.12,9.12,0,0,0,60,56a7.88,7.88,0,0,0,4.21,2.67A10.6,10.6,0,0,0,69.34,58.77Z"/><path class="cls-34" d="M69.51,40.47a2.4,2.4,0,0,1,.37,1.32c0,.5,0,1,0,1.49A17.6,17.6,0,0,0,70,45.05a6.12,6.12,0,0,0,1.14,3.34,4.13,4.13,0,0,0,1,.86l.09-.16L72.22,49a3.47,3.47,0,0,1-1.36-1.38,9.29,9.29,0,0,1-.79-3.74,20.62,20.62,0,0,0-.15-2.84,1.56,1.56,0,0,0-.39-.78l-.15.07Z"/><path class="cls-34" d="M83.16,37.54a1,1,0,0,0-.12-.6h-.17a.48.48,0,0,1,.14.34,10.28,10.28,0,0,1,0,1.24,2.32,2.32,0,0,0,.41,1.64s.08,0,.12,0C82.89,39.45,83.15,38.33,83.16,37.54Z"/><path class="cls-4" d="M94.24,70.9a7.61,7.61,0,0,0,2.52,5.52,5.14,5.14,0,0,1,1-.83c3.95-2.56,13.78-5.48,24.29-5.56l-4.77-7.34s-13.42.91-21.44,4.67A4.27,4.27,0,0,0,94.24,70.9Z"/><path class="cls-5" d="M94.24,70.9a7.61,7.61,0,0,0,2.52,5.52,5.14,5.14,0,0,1,1-.83c3.95-2.56,13.78-5.48,24.29-5.56l-4.77-7.34s-13.42.91-21.44,4.67A4.27,4.27,0,0,0,94.24,70.9Z"/><path class="cls-5" d="M116.31,67.56c-2.91.32-5.81.63-8.68,1.23a37.13,37.13,0,0,0-8,2.51,10,10,0,0,0-4.27,3.37,8.9,8.9,0,0,0,1.43,1.75,5.2,5.2,0,0,1,1-.83c3.95-2.56,13.78-5.48,24.29-5.56l-1.84-2.83C118.92,67.28,117.61,67.42,116.31,67.56Z"/><path class="cls-42" d="M108.11,71.75a6.6,6.6,0,0,0,0-4.39A3.71,3.71,0,0,0,105,64.5l-.82.19a3.6,3.6,0,0,1,1.35.49,4.45,4.45,0,0,1,1.66,2.12,6.43,6.43,0,0,1,0,4.67Z"/><path class="cls-42" d="M99.07,74.85a10.49,10.49,0,0,1,1.06-.49,6.21,6.21,0,0,0,.35-4.94,4.06,4.06,0,0,0-1.73-2.08,4.16,4.16,0,0,0-2.29-.24l-.6.27a3.83,3.83,0,0,1,1.07,0,3.29,3.29,0,0,1,2.58,1.85,5.81,5.81,0,0,1,.32,3.3A6.86,6.86,0,0,1,99.07,74.85Z"/><path class="cls-43" d="M116.8,67.85l-1,.12-1.12.13-1.43.18-.83.11-.87.14c-.61.1-1.24.18-1.89.32l-1,.19-.5.1-.49.11c-.34.07-.69.15-1,.24l-.49.13-.49.13-.5.14-.49.15-.5.15-.49.16-.49.16-.5.17-.49.18c-.16,0-.31.12-.47.18-.31.12-.61.23-.9.36l-.43.19-.22.09-.2.1-.41.19-.38.21c-.25.13-.5.28-.71.41a3.62,3.62,0,0,0-.32.22l-.31.2-.54.42a9.38,9.38,0,0,0-.87.79,6.06,6.06,0,0,0-.47.54l-.16.2h0l.14-.21a6.22,6.22,0,0,1,.43-.58,1.46,1.46,0,0,0,.16-.19l.18-.2.44-.43c.17-.14.33-.3.53-.45s.4-.31.62-.45.46-.31.71-.44l.39-.22.4-.2c.28-.15.57-.27.86-.4l.91-.38.49-.18.49-.16.5-.17.49-.15.5-.16.49-.14.49-.14.52-.13.5-.13.49-.12,1-.22.5-.11.49-.09,1-.18c.65-.13,1.29-.21,1.89-.29l.88-.12.83-.1,1.44-.15,1.12-.12,1-.1Z"/><path class="cls-5" d="M99.76,66.85a3.56,3.56,0,0,1,2.38,2.88,6.39,6.39,0,0,1-1.69,4.45A58.94,58.94,0,0,1,122.07,70l-4.77-7.34s-11.33.77-19.4,3.81A4.39,4.39,0,0,1,99.76,66.85Z"/><path class="cls-4" d="M124.31,61.72c-3.62,0-30.17-.52-30.56-12.18a5,5,0,0,1,.58-2.4V41.8a10.66,10.66,0,0,0-5.77,8.09c-1.2,8.22,6,16.69,21.06,19.21s16.82,1.37,18.76-1.11S127.91,61.72,124.31,61.72Z"/><path class="cls-44" d="M121.69,70.51h.82a15.58,15.58,0,0,0,.46-4.3,10.92,10.92,0,0,0-.65-4.5h-.75a12.26,12.26,0,0,1,.61,5.19A16.26,16.26,0,0,1,121.69,70.51Z"/><path class="cls-44" d="M94.33,44.84a2.44,2.44,0,0,0-.27-.29,2.52,2.52,0,0,0-2.85-.31,8.88,8.88,0,0,0-.85,1,2.81,2.81,0,0,1,2.77-.5,2.44,2.44,0,0,1,1.2,1Z"/><path class="cls-44" d="M92.76,51.4a3.44,3.44,0,0,0-2.19.79A3.87,3.87,0,0,0,89,55.45c.12.32.23.73.36,1A4,4,0,0,1,91,52.92,3.57,3.57,0,0,1,94,52.1a2.41,2.41,0,0,1-.16-.42A2.58,2.58,0,0,0,92.76,51.4Z"/><path class="cls-44" d="M97.27,57.05A4.64,4.64,0,0,0,94,60.89a5.89,5.89,0,0,0,.22,1.86,10.45,10.45,0,0,0,.91.7,5.36,5.36,0,0,1,.75-4.4,4.49,4.49,0,0,1,3.88-1.79c-.3-.14-.53-.3-.82-.44A5,5,0,0,0,97.27,57.05Z"/><path class="cls-44" d="M105.65,60.21a4.8,4.8,0,0,0-2,1.78,6.76,6.76,0,0,0-1,2.82,9.76,9.76,0,0,0,.28,2.64l1.24.4a5.44,5.44,0,0,1,.36-5.32,5.65,5.65,0,0,1,2.27-2,4.38,4.38,0,0,1,1.64-.39c-.44-.08-.87-.18-1.31-.29A4.09,4.09,0,0,0,105.65,60.21Z"/><path class="cls-44" d="M116,61.26l-1.18-.12a7.42,7.42,0,0,0-2.31,4.18,9,9,0,0,0-.16,2.93,5.65,5.65,0,0,0,.36,1.34l1.1.16a9,9,0,0,1-.13-5.08A5.85,5.85,0,0,1,116,61.26Z"/><path class="cls-42" d="M122,70.51h.82a16,16,0,0,0,.47-4.3,10.45,10.45,0,0,0-.66-4.5h-.75a12,12,0,0,1,.61,5.19A16.26,16.26,0,0,1,122,70.51Z"/><path class="cls-42" d="M94.33,44.54l-.16-.15a2.52,2.52,0,0,0-2.86-.29,9.78,9.78,0,0,0-.85,1,2.84,2.84,0,0,1,2.77-.49,2.55,2.55,0,0,1,1.1.75Z"/><path class="cls-42" d="M93,51.4a3.44,3.44,0,0,0-2.19.79,4.7,4.7,0,0,0-1.71,3.58c.12.32.24.64.38.95a4.56,4.56,0,0,1,1.74-3.83,3.61,3.61,0,0,1,3.12-.68c-.08-.18-.16-.37-.22-.55A2.56,2.56,0,0,0,93,51.4Z"/><path class="cls-42" d="M97.56,57.06a4.5,4.5,0,0,0-2.07,1.36A4.81,4.81,0,0,0,94.33,61,6.63,6.63,0,0,0,94.52,63c.3.25.61.5.93.72a5.81,5.81,0,0,1,.75-4.56A4.19,4.19,0,0,1,100,57.36a8.23,8.23,0,0,1-.86-.49A4.16,4.16,0,0,0,97.56,57.06Z"/><path class="cls-42" d="M106,60.31a4.7,4.7,0,0,0-2,1.78,6.54,6.54,0,0,0-1,2.81,9,9,0,0,0,.3,2.64c.41.14.83.27,1.27.4a5.3,5.3,0,0,1,.36-5.32,5.78,5.78,0,0,1,2.32-2,5,5,0,0,1,1.69-.39l-1.35-.28A4,4,0,0,0,106,60.31Z"/><path class="cls-42" d="M116.28,61.31l-1.17-.13a7.31,7.31,0,0,0-2.31,4.18,9.3,9.3,0,0,0-.17,2.93,6.17,6.17,0,0,0,.36,1.34l1.1.14a8.88,8.88,0,0,1-.14-5.08A5.88,5.88,0,0,1,116.28,61.31Z"/><path class="cls-5" d="M124.3,68.08a97.63,97.63,0,0,1-10-.54,38.91,38.91,0,0,1-10.66-2.14,30.41,30.41,0,0,1-9-5.19c-2.59-2.19-4.76-4.86-5.32-8.29a11.47,11.47,0,0,1,.32-5.49l.09-.24a10.76,10.76,0,0,0-1.22,3.7c-1.19,8.22,6,16.69,21.06,19.21s16.83,1.37,18.77-1.11a3,3,0,0,0,.38-.62C127.49,68.13,125.71,68.05,124.3,68.08Z"/><path class="cls-45" d="M92.91,50.61s.17,4.37,7.84,7.81,20.71,3.74,23.16,3.68,3.78.92,4.18,1.65S122,64.61,116,64,93.71,61.22,92.91,50.61Z"/><path class="cls-43" d="M128.37,67.8l-.13.07a2.38,2.38,0,0,1-.39.2,5.73,5.73,0,0,1-1.59.41c-.35,0-.74.08-1.17.1l-1.37,0h-2.41l-.89,0-.92,0h-1l-2-.13c-.69,0-1.4-.1-2.12-.16l-.55,0-.55,0-1.12-.1L111,67.92l-1.14-.17-1.16-.2c-.39-.07-.77-.16-1.16-.24a32.36,32.36,0,0,1-4.62-1.4c-.37-.15-.75-.29-1.12-.45l-1.1-.5-1.08-.52-1-.59a29.48,29.48,0,0,1-3.84-2.61c-.6-.5-1.15-1-1.68-1.49a17.74,17.74,0,0,1-1.44-1.56,14.38,14.38,0,0,1-1.17-1.64,12.47,12.47,0,0,1-.85-1.67,6.91,6.91,0,0,1-.3-.83c-.08-.28-.16-.54-.23-.81s0-.27-.08-.4L89,52.45c0-.26-.07-.49-.09-.74a11.79,11.79,0,0,1,0-2.52,3.46,3.46,0,0,1,.06-.49,4.3,4.3,0,0,1,.07-.43c0-.14.06-.26.09-.37s0-.2.07-.3l.17-.54h0s0,.19-.16.54c0,.09,0,.19-.07.31s-.05.23-.08.36,0,.27-.06.43a3.61,3.61,0,0,0-.06.5,12,12,0,0,0,0,2.47,4.9,4.9,0,0,0,.11.74,1.84,1.84,0,0,0,.08.38,2.74,2.74,0,0,0,.09.39c.07.26.13.53.23.8l.31.81a14.07,14.07,0,0,0,.86,1.63,14.39,14.39,0,0,0,2.65,3.16A18.58,18.58,0,0,0,95,61a29.07,29.07,0,0,0,3.84,2.55l1,.55,1.07.49c.36.17.73.31,1.09.5s.75.28,1.12.44a32.65,32.65,0,0,0,4.57,1.3c.38.07.76.16,1.15.22l1.14.19,1.14.15,1.12.12c1.48.17,3,.27,4.32.4l2,.17,1,.07.91,0,.88.06h.84l1.56,0c1,0,1.83,0,2.52,0a6,6,0,0,0,1.58-.3,3.52,3.52,0,0,0,.39-.17l.14-.07Z"/><path class="cls-5" d="M89.09,51.14c.58-1.28,2-2.58,3.5-2.15a3.61,3.61,0,0,1,1.16.54h0a5.21,5.21,0,0,1,.58-2.39V41.8a10.66,10.66,0,0,0-5.77,8.09,12,12,0,0,0,0,3.87A6.55,6.55,0,0,1,89.09,51.14Z"/><path class="cls-4" d="M125.16,84.42s-21-.78-28.4-8a7.61,7.61,0,0,1-2.52-5.52,4.28,4.28,0,0,1,1.62-3.54,13.16,13.16,0,0,0-4.71,3.37C85.94,77.35,88.86,92,127.54,94.84Z"/><path class="cls-44" d="M119.67,88.92a6.87,6.87,0,0,0,.3,3.62,10.77,10.77,0,0,0,.92,1.66l1.26.14a8.58,8.58,0,0,1-.49-8.15,4.22,4.22,0,0,1,1.71-1.74,2,2,0,0,1,.34-.14c-.33,0-.72,0-1.17-.07C120.8,85,119.91,87.16,119.67,88.92Z"/><path class="cls-44" d="M91.78,72.54a3.65,3.65,0,0,0-2.52,2.38,8.61,8.61,0,0,0,.07,2.68,6.1,6.1,0,0,1,.12-1.42,3.11,3.11,0,0,1,.16-.67,3.66,3.66,0,0,1,1.9-2.2A3.75,3.75,0,0,1,94.1,73c.25.09.43.39.64.54-.06-.14-.11-.27-.16-.41A3.07,3.07,0,0,0,91.78,72.54Z"/><path class="cls-44" d="M96.39,78.52a5.58,5.58,0,0,0-2.06,2,5,5,0,0,0-.65,4.44c.39.32.8.69,1.24,1a6.23,6.23,0,0,1-.06-4.76,3.78,3.78,0,0,1,2-2.15,3.54,3.54,0,0,1,3-.32c-.38-.2-.62-.38-1-.59A3.9,3.9,0,0,0,96.39,78.52Z"/><path class="cls-44" d="M102.23,85.08a7.65,7.65,0,0,0,.44,5c.49.18,1,.37,1.53.54a5.11,5.11,0,0,1-1.11-2.43,7.13,7.13,0,0,1,.42-3.71,5.29,5.29,0,0,1,3.95-2.74l-1.27-.36A5.45,5.45,0,0,0,102.23,85.08Z"/><path class="cls-44" d="M115,83.34a5.82,5.82,0,0,0-2.47,1.44,5.2,5.2,0,0,0-1.3,3.13,7.48,7.48,0,0,0,.33,3.25,9.92,9.92,0,0,0,.89,1.67l1.48.29a5.47,5.47,0,0,1-1.23-1.77,6.64,6.64,0,0,1-.42-3.71,4.69,4.69,0,0,1,1.81-3,5,5,0,0,1,1.89-.91,3.72,3.72,0,0,1,.57-.08Z"/><path class="cls-42" d="M120.05,89a6.77,6.77,0,0,0,.31,3.62,9.94,9.94,0,0,0,.91,1.66l1.26.14a7.66,7.66,0,0,1-1.29-4.14,7.55,7.55,0,0,1,.79-4,4.19,4.19,0,0,1,1.7-1.74l.34-.13-1.16-.08C121.18,85,120.29,87.21,120.05,89Z"/><path class="cls-42" d="M91.76,72.74a3.83,3.83,0,0,0-2.5,2.47,8.61,8.61,0,0,0,.07,2.68,6.15,6.15,0,0,1,.12-1.42,3.11,3.11,0,0,1,.16-.67,3.64,3.64,0,0,1,1.9-2.2,3.69,3.69,0,0,1,2.59-.34,2.7,2.7,0,0,1,.7.35c-.06-.14-.11-.28-.16-.42A3.21,3.21,0,0,0,91.76,72.74Z"/><path class="cls-42" d="M96.8,78.69a5.81,5.81,0,0,0-2.09,2,5.25,5.25,0,0,0-.63,4.58c.39.32.81.65,1.25,1a6.36,6.36,0,0,1-.09-4.81,4,4,0,0,1,2-2.22,3.47,3.47,0,0,1,3.05-.26c-.38-.21-.74-.42-1.1-.64A3.42,3.42,0,0,0,96.8,78.69Z"/><path class="cls-42" d="M102.63,85.21a7.71,7.71,0,0,0,.44,5l1.52.54a5.23,5.23,0,0,1-1.1-2.43,7.24,7.24,0,0,1,.42-3.74,5.27,5.27,0,0,1,4-2.74l-1.28-.37A5.48,5.48,0,0,0,102.63,85.21Z"/><path class="cls-42" d="M115.42,83.41a5.66,5.66,0,0,0-2.49,1.45,5,5,0,0,0-1.3,3.13,7.32,7.32,0,0,0,.32,3.25,9,9,0,0,0,.9,1.67l1.48.29a5.41,5.41,0,0,1-1.24-1.76,6.71,6.71,0,0,1-.42-3.73,4.74,4.74,0,0,1,1.83-3.08,5.14,5.14,0,0,1,1.9-.91,3.07,3.07,0,0,1,.6-.07Z"/><path class="cls-5" d="M125,92.45a40.33,40.33,0,0,1-8.59-.52A55.46,55.46,0,0,1,105,89.06a42.06,42.06,0,0,1-8.53-4,16.47,16.47,0,0,1-5.81-5.83,9.49,9.49,0,0,1-1-5.56C87.3,81,93.86,92.38,127.54,94.84L126.9,92A12.65,12.65,0,0,1,125,92.45Z"/><path class="cls-43" d="M125,93.05l-.49,0c-.16,0-.36.05-.59.06l-.81,0h-1c-.37,0-.76,0-1.18,0s-.86,0-1.34-.08-1-.07-1.48-.13l-.79-.09-.82-.1-1.7-.26c-.59-.1-1.19-.2-1.81-.33l-.92-.18-1-.21c-.63-.14-1.26-.32-1.91-.5-.32-.08-.65-.18-1-.28l-.49-.14-.49-.16-1-.32c-.32-.13-.64-.24-1-.36l-.49-.18-.5-.18-1-.38c-1.29-.49-2.57-1-3.79-1.64a32.74,32.74,0,0,1-3.45-2,23.64,23.64,0,0,1-3-2.31,14.59,14.59,0,0,1-2.16-2.54c-.08-.11-.14-.22-.21-.33a1.74,1.74,0,0,1-.18-.33,2,2,0,0,1-.18-.32,3.18,3.18,0,0,1-.16-.32l-.15-.31-.12-.32a5.65,5.65,0,0,1-.22-.61c0-.2-.12-.4-.17-.59s-.08-.38-.12-.56-.05-.35-.07-.49a.66.66,0,0,0,0-.24V74.76c0-.32,0-.49,0-.49h0s0,.17,0,.49v1a2,2,0,0,0,0,.42v.23a.51.51,0,0,0,0,.24,2.19,2.19,0,0,0,.09.5c0,.16.08.35.13.54s.11.38.17.58.14.4.23.6l.12.3c0,.1.1.21.16.32l.16.31a2.58,2.58,0,0,0,.18.32c.06.1.12.21.19.31s.13.22.21.32a13.83,13.83,0,0,0,2.18,2.47,22.93,22.93,0,0,0,3,2.23,30.59,30.59,0,0,0,3.46,1.9c1.22.58,2.47,1.09,3.78,1.57l1,.36.49.18.49.17,1,.33,1,.3c.16,0,.32.11.49.15l.5.14c.32.08.64.18,1,.27.65.16,1.27.33,1.91.46,1.25.31,2.46.52,3.63.75s2.25.4,3.27.53c.5.08,1,.13,1.49.2l1.32.14,1.17.08,1,.06H125Z"/><path class="cls-46" d="M125.13,84.43c-2.51-.13-3.74,3.37-2.71,6.19a6.69,6.69,0,0,0,5.15,4.22,2.06,2.06,0,0,0,2.37-2.58c-.49-1.5-1.42-2.33-2-4.67S126.54,84.49,125.13,84.43Z"/><path class="cls-4" d="M125.24,84.76c-2.18-.12-3.28,3-2.4,5.6s3.7,4.18,5,4.1a1.8,1.8,0,0,0,1.79-1.8,2,2,0,0,0-.1-.59c-.53-1.33-1.48-2-1.94-4.19S126.43,84.83,125.24,84.76Z"/><path class="cls-42" d="M126.24,88.46a7.74,7.74,0,0,1-1.07,4.93,5.81,5.81,0,0,0,.61.4,7.73,7.73,0,0,0,1.18-4.1c.06-1.53.11-3.57-1-4.79a2,2,0,0,0-.73-.16,1.21,1.21,0,0,0-.38,0C126,85.36,126.17,87.25,126.24,88.46Z"/><path class="cls-5" d="M129.6,92.23a.49.49,0,0,0,0-.16c-.53-1.33-1.48-2-1.94-4.19s-1.16-3-2.37-3.12c-2-.11-3.09,2.47-2.58,4.93A32.44,32.44,0,0,1,129.6,92.23Z"/><path class="cls-5" d="M127.47,87.31c-.46-1.77-1.13-2.49-2.23-2.55a2.23,2.23,0,0,0-2,1.17A13.76,13.76,0,0,1,127.47,87.31Z"/><path class="cls-41" d="M125.24,84.76H125a1.93,1.93,0,0,0-.53.11,2.17,2.17,0,0,0-.72.42,3.16,3.16,0,0,0-.64.86,4.5,4.5,0,0,0-.41,1.22,6.21,6.21,0,0,0-.08,1.43,5.79,5.79,0,0,0,.29,1.48,6.18,6.18,0,0,0,.72,1.4,6.87,6.87,0,0,0,1,1.18,6.74,6.74,0,0,0,1.23.91,4.74,4.74,0,0,0,1.32.53c.11,0,.22,0,.33.06h.49l.14,0a1.4,1.4,0,0,0,.29-.09,1.75,1.75,0,0,0,.82-.65,1.65,1.65,0,0,0,.26-1.31c0-.13-.05-.19-.05-.19l.07.18a1.72,1.72,0,0,1,.06.55,1.87,1.87,0,0,1-.25.83,1.81,1.81,0,0,1-.86.73,1.06,1.06,0,0,1-.3.1l-.16,0h-.51a.83.83,0,0,1-.35,0,5,5,0,0,1-1.4-.52,6.47,6.47,0,0,1-1.3-.91,7,7,0,0,1-1.1-1.21,6.37,6.37,0,0,1-.73-1.48,5.58,5.58,0,0,1-.29-1.56,6.21,6.21,0,0,1,.12-1.49,4.66,4.66,0,0,1,.47-1.24,4.2,4.2,0,0,1,.33-.49,3.3,3.3,0,0,1,.38-.37,2.1,2.1,0,0,1,.77-.4,2,2,0,0,1,.54-.08Z"/><path class="cls-45" d="M93,70.51s-1,6.82,9.73,10.37a76.29,76.29,0,0,0,21,3.61A4.54,4.54,0,0,0,122,87.31s-15.25-.61-24.52-7.07C90.88,75.7,93,70.51,93,70.51Z"/><path class="cls-2" d="M94.72,73.29c.12.31.24.61.38.91V65.66h-.38v7.63Z"/><path class="cls-3" d="M94.72,73.27V65.66h-.39v6.51C94.49,72.52,94.58,72.91,94.72,73.27Z"/><path class="cls-47" d="M109.9,1.58s2.84.53,3.95-.62a1.94,1.94,0,0,1,2.61-.52,4.56,4.56,0,0,0,1.76.25,4.36,4.36,0,0,1-1.67,1.24,2.89,2.89,0,0,0,1.82.23,1.66,1.66,0,0,1-2.09,1.09l-.25-.1c-.79-.31-1.26,0-1.9.61-1,.91-2.31,1-4.24.58Z"/><path class="cls-47" d="M109.9,1.58V4.33l.67.13V1.66A5.53,5.53,0,0,1,109.9,1.58Z"/><path class="cls-48" d="M116.55,1.93A4.28,4.28,0,0,0,118.22.69a4.61,4.61,0,0,1-1.76-.25,1.94,1.94,0,0,0-2.61.52,1.9,1.9,0,0,1-.49.35v3a3,3,0,0,0,.75-.49c.64-.58,1.11-.92,1.9-.61a1.65,1.65,0,0,0,2.23-.73,2,2,0,0,0,.11-.26A2.89,2.89,0,0,1,116.55,1.93Z"/><rect class="cls-49" x="109.82" y="1.69" width="0.11" height="3.03"/><path class="cls-47" d="M110.43,1.21a.55.55,0,1,1-.56-.55A.56.56,0,0,1,110.43,1.21Z"/><path class="cls-47" d="M109.87.66h-.06a.45.45,0,0,1,.41.44.43.43,0,0,1-.47.42.43.43,0,0,1-.41-.38v.07a.55.55,0,1,0,.54-.55h0Z"/><path class="cls-47" d="M109.76,1a.15.15,0,0,1-.17.12h0a.16.16,0,0,1-.12-.18.16.16,0,0,1,.18-.12h0a.15.15,0,0,1,.11.18Z"/><path class="cls-47" d="M109.53,1.13s0,.05,0,0h0a.07.07,0,0,1,0-.06.07.07,0,0,1,.07,0s0,0,0,.05Z"/><path class="cls-50" d="M91.51,21.87v1.71a3.2,3.2,0,0,0,3-.27,3.43,3.43,0,0,0,4.31.3,4.36,4.36,0,0,0,5.08.1,3.57,3.57,0,0,0,4.26.1,4.46,4.46,0,0,0,5-.15,2.84,2.84,0,0,0,3.75-.15,2.61,2.61,0,0,0,3.8-.2,2.25,2.25,0,0,0,3.34-.1c.64.74,2,.63,3,0V21.6A250.8,250.8,0,0,1,91.51,21.87Z"/><path class="cls-50" d="M91.51,21.51v1.57a3.4,3.4,0,0,0,3-.24,3.65,3.65,0,0,0,4.31.27,4.64,4.64,0,0,0,5.08.1,3.82,3.82,0,0,0,4.26.09,4.75,4.75,0,0,0,5-.14,3,3,0,0,0,3.75-.14c.91,1,3.16.83,3.8-.18a2.38,2.38,0,0,0,3.34-.09,2.61,2.61,0,0,0,3,0V21.27A271.77,271.77,0,0,1,91.51,21.51Z"/><path class="cls-51" d="M91.07,21.5v.65c0,.28.46.78,1.65.94.65,0,1.79-.27,1.79-.47v-.83Z"/><path class="cls-52" d="M109.86,4.55c-1.4,12.81-5.65,17.32-6,17.67,1.34,0,2.77.05,4.27.06A121.86,121.86,0,0,0,109.85,5C109.86,4.83,109.86,4.69,109.86,4.55Z"/><path class="cls-53" d="M98.78,22.05c1.53.07,3.25.13,5.12.17.33-.33,4.59-4.86,6-17.67C108.23,15.15,99.31,21.65,98.78,22.05Z"/><path class="cls-52" d="M109.86,4.55h0C108,15.79,94.5,21.78,94.5,21.78h0c1.17.08,2.6.18,4.26.26C99.31,21.65,108.23,15.15,109.86,4.55Z"/><path class="cls-53" d="M109.86,4.56c-.08.4-2.18,11.56-18.77,16.94,0,0,1.24.14,3.42.29h0S108,15.8,109.86,4.56Z"/><path class="cls-53" d="M109.86,4.55c2.84,11,13.76,16.92,14.16,17.13l3.3-.3A26.4,26.4,0,0,1,109.86,4.55Z"/><path class="cls-53" d="M109.85,5a122.54,122.54,0,0,1-1.7,17.31c1.57,0,3.21,0,4.91-.05v0S109.84,13.16,109.85,5Z"/><path class="cls-52" d="M109.86,4.55c1.44,10.26,10.48,17.08,10.87,17.37l3.28-.24C123.62,21.47,112.7,15.52,109.86,4.55Z"/><path class="cls-52" d="M109.85,5c0,8.19,3.2,17.23,3.2,17.23v0c1.24,0,2.51-.06,3.81-.11-.49-.53-5.43-6.15-7-17.57C109.86,4.69,109.86,4.83,109.85,5Z"/><path class="cls-53" d="M109.86,4.55c1.58,11.42,6.52,17,7,17.57,1.26-.06,2.55-.12,3.86-.2C120.34,21.63,111.3,14.81,109.86,4.55Z"/><path class="cls-54" d="M98.78,22.05v.54a2.39,2.39,0,0,1-2.29.81c-1.4-.12-2-.78-2-.9v-.71Z"/><path class="cls-51" d="M98.78,22.05l5.12.17v.57c0,.32-1.29,1-3,.8-1.13-.12-2.16-.8-2.16-1.12Z"/><path class="cls-54" d="M103.88,22.22l4.27.06v.65c0,.25-1,.8-2.41.69s-1.86-.7-1.86-.91Z"/><path class="cls-51" d="M108.16,22.28l4.9-.05v.56c0,.35-.72.84-2.47.84s-2.46-.55-2.46-.8Z"/><path class="cls-54" d="M113.06,22.23l3.81-.11v.49a1.79,1.79,0,0,1-1.76.9c-1.11,0-2-.55-2-.8Z"/><path class="cls-51" d="M116.87,22.12l3.86-.2v.49a2,2,0,0,1-1.82,1.11c-1.09.05-2-.64-2-.9Z"/><path class="cls-54" d="M120.73,21.92l3.29-.24v.55a1.55,1.55,0,0,1-1.49,1c-.94.05-1.81-.49-1.81-.8Z"/><path class="cls-51" d="M124,21.68l3.3-.3v.7c0,.26-.54.75-1.54.85s-1.76-.5-1.76-.78Z"/></g></g></g></svg>