<?xml version="1.0" encoding="utf-8"?>
<!-- Generator: Adobe Illustrator 23.0.3, SVG Export Plug-In . SVG Version: 6.00 Build 0)  -->
<svg version="1.1" id="圖層_1" xmlns="http://www.w3.org/2000/svg" xmlns:xlink="http://www.w3.org/1999/xlink" x="0px" y="0px"
	 viewBox="0 0 223.6 74" style="enable-background:new 0 0 223.6 74;" xml:space="preserve">
<style type="text/css">
	.st0{clip-path:url(#SVGID_34_);}
	.st1{fill:#7C5724;}
	.st2{clip-path:url(#SVGID_36_);}
	.st3{fill:#8A6228;}
	.st4{fill:#8C6328;}
	.st5{clip-path:url(#SVGID_38_);}
	.st6{clip-path:url(#SVGID_40_);}
	.st7{fill:#855E26;}
	.st8{fill:#835C25;}
	.st9{fill:#825A25;}
	.st10{clip-path:url(#SVGID_42_);}
	.st11{clip-path:url(#SVGID_44_);}
	.st12{fill:#886027;}
	.st13{fill:#7F5825;}
	.st14{clip-path:url(#SVGID_46_);}
	.st15{clip-path:url(#SVGID_48_);}
	.st16{clip-path:url(#SVGID_50_);}
	.st17{clip-path:url(#SVGID_52_);}
	.st18{clip-path:url(#SVGID_54_);}
	.st19{clip-path:url(#SVGID_56_);}
	.st20{clip-path:url(#SVGID_58_);}
	.st21{clip-path:url(#SVGID_60_);}
	.st22{clip-path:url(#SVGID_62_);}
	.st23{fill:#7E4B22;}
	.st24{fill:#A57435;}
	.st25{clip-path:url(#SVGID_64_);}
</style>
<g>
	
		<image style="overflow:visible;opacity:0.55;" width="1109" height="435" xlink:href="2F871FA32B9C8119.png"  transform="matrix(0.24 0 0 0.24 -20.5023 -16.1996)">
	</image>
	<g>
		<g>
			<g>
				<g>
					<defs>
						<path id="SVGID_1_" d="M7.2,63.5c-0.3-0.4-0.5-0.9-0.8-1.3C5,60,4.9,57.7,5,56.3l0.8,1.3C5.7,59,5.8,61.4,7.2,63.5z"/>
					</defs>
					<clipPath id="SVGID_2_">
						<use xlink:href="#SVGID_1_"  style="overflow:visible;"/>
					</clipPath>
				</g>
				<g>
					<defs>
						<path id="SVGID_3_" d="M14.3,68.4c-3.8-1.1-6-2.9-7.1-4.9l-0.8-1.3c1.2,1.9,3.3,3.8,7.1,4.9C13.7,67.5,14.1,68,14.3,68.4z"/>
					</defs>
					<clipPath id="SVGID_4_">
						<use xlink:href="#SVGID_3_"  style="overflow:visible;"/>
					</clipPath>
				</g>
				<g>
					<defs>
						<path id="SVGID_5_" d="M6.5,63.7C6.3,63.4,6,63,5.8,62.6c0-0.1-0.1-0.1-0.1-0.2c1.3,2.1,3.6,4.1,7.7,5.2l0.8,1.3
							C10.1,67.8,7.8,65.8,6.5,63.7z"/>
					</defs>
					<clipPath id="SVGID_6_">
						<use xlink:href="#SVGID_5_"  style="overflow:visible;"/>
					</clipPath>
				</g>
				<g>
					<defs>
						<path id="SVGID_7_" d="M40.7,66.3c-9.1-0.3-12.5,2.8-23.2,2.3l-0.8-1.3C27.4,67.8,30.8,64.8,40,65
							C40.2,65.5,40.5,65.9,40.7,66.3z"/>
					</defs>
					<clipPath id="SVGID_8_">
						<use xlink:href="#SVGID_7_"  style="overflow:visible;"/>
					</clipPath>
				</g>
				<g>
					<defs>
						<path id="SVGID_9_" d="M41.3,66.4c-0.2,0-0.4,0-0.6,0c-0.2-0.4-0.6-0.9-0.8-1.3l0,0c0.2,0,0.3,0,0.5,0c0,0,0,0,0,0
							C40.8,65.5,41,65.9,41.3,66.4L41.3,66.4C41.3,66.4,41.3,66.4,41.3,66.4z"/>
					</defs>
					<clipPath id="SVGID_10_">
						<use xlink:href="#SVGID_9_"  style="overflow:visible;"/>
					</clipPath>
				</g>
				<g>
					<defs>
						<path id="SVGID_11_" d="M220.2,9.9c0.3,0.4,0.5,0.9,0.8,1.3c-1-1.7-2.5-2.9-4.6-3.6c-5.6-1.9-11.3-2.7-16.9-2.9
							C188,4.2,177,6.1,168,5.7c-1.3-0.1-2.6-0.2-3.8-0.3c-9.2-1.3-17.6-2-25.5-2.3c-22.1-1-40,0.9-57.6,0.3
							C63.3,2.8,48.7,4,35.2,3.4C30.6,3.2,26.2,2.8,21.8,2c-0.6-0.1-1.2-0.2-1.8-0.2C13.2,1.5,5.9,6.3,2.9,16l-0.8-1.3
							C5.1,5,12.4,0.2,19.2,0.5c0.6,0,1.2,0.1,1.8,0.2c4.4,0.8,8.9,1.2,13.5,1.4C47.9,2.7,62.5,1.5,80.2,2
							c17.6,0.5,35.5-1.3,57.6-0.3c7.9,0.3,16.4,1,25.5,2.3c1.2,0.2,2.5,0.3,3.8,0.3c9,0.4,20-1.5,31.5-1c5.6,0.2,11.3,1,16.9,2.9
							C217.7,7,219.2,8.3,220.2,9.9z"/>
					</defs>
					<clipPath id="SVGID_12_">
						<use xlink:href="#SVGID_11_"  style="overflow:visible;"/>
					</clipPath>
				</g>
				<g>
					<defs>
						<path id="SVGID_13_" d="M219.5,40.8c-0.1,1.5-0.2,3.1-0.2,4.9c-0.3-0.5-0.5-0.9-0.8-1.4l0,0c0-1.7,0-3.3,0.2-4.8
							c0.1-1,0.2-2,0.4-2.8c0.7-3.6,2.3-9.4,2.8-15c0.4-4.4,0.1-8.7-1.8-11.7l0.8,1.3c1.8,3,2.2,7.3,1.8,11.7
							c-0.5,5.6-2.1,11.4-2.8,15C219.8,38.8,219.6,39.8,219.5,40.8z"/>
					</defs>
					<clipPath id="SVGID_14_">
						<use xlink:href="#SVGID_13_"  style="overflow:visible;"/>
					</clipPath>
				</g>
				<g>
					<defs>
						<path id="SVGID_15_" d="M213,72.3c-0.2-0.4-0.5-0.8-0.7-1.1c0.3,0.3,0.6,0.7,1,1C213.1,72.2,213.1,72.3,213,72.3z"/>
					</defs>
					<clipPath id="SVGID_16_">
						<use xlink:href="#SVGID_15_"  style="overflow:visible;"/>
					</clipPath>
				</g>
				<g>
					<defs>
						<path id="SVGID_17_" d="M219.4,45.6c0,3.3,0.2,7,0.2,10.8c0,0,0-0.1,0-0.1c-0.1-0.2-0.3-0.4-0.4-0.7c-0.1-0.2-0.2-0.4-0.3-0.6
							c0-3.8-0.2-7.5-0.2-10.8C218.9,44.7,219.1,45.2,219.4,45.6z"/>
					</defs>
					<clipPath id="SVGID_18_">
						<use xlink:href="#SVGID_17_"  style="overflow:visible;"/>
					</clipPath>
				</g>
				<g>
					<defs>
						<path id="SVGID_19_" d="M219.5,62.5c-0.2-0.4-0.2-0.4-0.8-1.3c0,0,0,0,0,0c0.1-2,0.2-4.1,0.2-6.1c0,0,0.1,0.1,0.1,0.2
							c0,0,0.1,0.1,0.1,0.2c0.1,0.1,0.2,0.3,0.3,0.4c0,0.1,0.1,0.1,0.1,0.2c0,0,0,0.1,0.1,0.1c0.1,0.1,0.1,0.2,0.2,0.3l0,0
							C219.7,58.4,219.6,60.5,219.5,62.5C219.5,62.5,219.5,62.5,219.5,62.5z"/>
					</defs>
					<clipPath id="SVGID_20_">
						<use xlink:href="#SVGID_19_"  style="overflow:visible;"/>
					</clipPath>
				</g>
				<g>
					<defs>
						<path id="SVGID_21_" d="M220.9,9.7C220.9,9.8,220.9,9.8,220.9,9.7c0.1,0.1,0.1,0.2,0.2,0.3c0.2,0.3,0.4,0.7,0.6,1
							c1.9,3.1,2.2,7.5,1.8,11.9c-0.5,5.7-2.1,11.5-2.8,15c-0.2,0.9-0.3,1.8-0.4,2.8c-0.5,5.9,0.5,13.8-0.1,21.7l-0.8-1.3
							c0.5-8-0.5-15.8,0.1-21.7c0.1-1,0.2-1.9,0.4-2.8c0.7-3.5,2.3-9.4,2.8-15C223.1,17.2,222.8,12.9,220.9,9.7z"/>
					</defs>
					<clipPath id="SVGID_22_">
						<use xlink:href="#SVGID_21_"  style="overflow:visible;"/>
					</clipPath>
				</g>
				<g>
					<defs>
						<path id="SVGID_23_" d="M219.5,62.5c-0.1,1.4-0.9,4.2-2.8,6.6c-0.3-0.4-0.5-0.9-0.8-1.3l0,0c1.9-2.4,2.7-5.3,2.8-6.6
							C218.9,61.7,219.2,62.1,219.5,62.5C219.5,62.5,219.5,62.5,219.5,62.5z"/>
					</defs>
					<clipPath id="SVGID_24_">
						<use xlink:href="#SVGID_23_"  style="overflow:visible;"/>
					</clipPath>
				</g>
				<g>
					<defs>
						<path id="SVGID_25_" d="M49,67.3c-3-0.6-5.5-0.9-7.7-1c-0.3-0.4-0.5-0.9-0.8-1.3l0,0c2.2,0.1,4.7,0.4,7.7,1
							c3.9,0.8,8.5,1.2,13.5,1.4c17.6,0.8,39.6-1.2,51-0.7c1.4,0.1,2.6,0.2,3.6,0.3c8.8,1.2,16.4,1.8,23.1,2.1
							c16.3,0.7,27.9-0.4,41.7,0.2c6.9,0.3,14.5,1,23.4,2.7c0.7,0.1,1.4,0.2,2,0.2c0,0,0,0,0,0c0.1,0.1,0.1,0.2,0.2,0.3
							c0,0,0,0.1,0.1,0.1c0.2,0.3,0.4,0.6,0.6,0.9l0,0c0,0,0,0,0,0c-0.6,0-1.3-0.1-2-0.2c-8.9-1.6-16.4-2.4-23.4-2.7
							c-13.8-0.6-25.4,0.5-41.7-0.2c-6.7-0.3-14.3-0.9-23.1-2.1c-1-0.1-2.3-0.2-3.6-0.3c-11.5-0.5-33.4,1.4-51,0.7
							C57.6,68.5,53,68.1,49,67.3z"/>
					</defs>
					<clipPath id="SVGID_26_">
						<use xlink:href="#SVGID_25_"  style="overflow:visible;"/>
					</clipPath>
				</g>
				<g>
					<defs>
						<path id="SVGID_27_" d="M213,72.3c-0.4,0.2-0.8,0.4-1.2,0.5c-0.3-0.4-0.5-0.8-0.8-1.3c2.1-0.8,3.7-2.1,4.9-3.7c0,0,0,0,0,0
							c0.3,0.4,0.5,0.9,0.8,1.3l0,0c0,0,0,0,0,0c-0.9,1.2-2,2.2-3.4,3c-0.3-0.3-0.6-0.7-1-1C212.5,71.6,212.7,72,213,72.3z"/>
					</defs>
					<clipPath id="SVGID_28_">
						<use xlink:href="#SVGID_27_"  style="overflow:visible;"/>
					</clipPath>
				</g>
				<g>
					<g>
						<defs>
							<path id="SVGID_29_" d="M16.8,67.4c-1.1,0-2.1-0.1-3.3-0.2C5.4,64.8,4.8,59,5,56.4c0-0.1-1.3-5.3-2.5-12.3
								c-1.2-7-2.2-15.9-1.6-23.1c0.2-2.3,0.6-4.4,1.2-6.3C5.1,5,12.4,0.2,19.2,0.5c0.6,0,1.2,0.1,1.8,0.2c4.4,0.8,8.9,1.2,13.5,1.4
								C47.9,2.7,62.5,1.5,80.2,2c17.6,0.5,35.5-1.3,57.6-0.3c7.9,0.3,16.4,1,25.5,2.3c1.2,0.2,2.5,0.3,3.8,0.3c9,0.4,20-1.5,31.5-1
								c5.6,0.2,11.3,1,16.9,2.9c5.9,1.9,7,8.5,6.4,15.3c-0.5,5.6-2.1,11.4-2.8,15c-0.2,0.9-0.3,1.8-0.4,2.8
								c-0.5,6,0.5,13.8-0.1,21.7c-0.1,1.4-0.9,4.2-2.8,6.7c-1.9,2.5-4.8,4.5-9.2,4.3c-0.6,0-1.3-0.1-2-0.2
								c-8.9-1.6-16.4-2.4-23.4-2.7c-13.8-0.6-25.4,0.5-41.7-0.2c-6.7-0.3-14.3-0.9-23.1-2.1c-1-0.1-2.3-0.2-3.6-0.3
								c-11.5-0.5-33.4,1.4-51,0.7c-4.9-0.2-9.6-0.6-13.5-1.4c-3-0.6-5.5-0.9-7.7-1C31,64.7,27.6,67.8,16.8,67.4z"/>
						</defs>
						<clipPath id="SVGID_30_">
							<use xlink:href="#SVGID_29_"  style="overflow:visible;"/>
						</clipPath>
					</g>
				</g>
				<g>
					<defs>
						<path id="SVGID_31_" d="M219.4,61.2l0.8,1.3c-0.1,1.5-1,4.4-2.9,6.9c-2,2.6-5.1,4.8-9.9,4.6c-0.7,0-1.4-0.1-2.1-0.2
							c-8.9-1.6-16.3-2.3-23.2-2.6c-13.7-0.6-25.3,0.5-41.7-0.2c-6.8-0.3-14.3-0.9-23.2-2.1c-1-0.1-2.2-0.2-3.5-0.3
							c-11.3-0.5-33.3,1.4-51,0.7c-5-0.2-9.6-0.6-13.6-1.4c-3-0.6-5.5-0.9-7.6-0.9c-9.3-0.4-12.6,2.8-23.8,2.3c-1,0-2.1-0.1-3.3-0.2
							l-0.8-1.3c1.2,0.1,2.3,0.2,3.3,0.2c11.2,0.5,14.6-2.7,23.8-2.3c2.1,0.1,4.6,0.4,7.6,0.9c4,0.8,8.6,1.2,13.6,1.4
							c17.7,0.8,39.7-1.2,51-0.7c1.3,0.1,2.5,0.2,3.5,0.3c8.9,1.2,16.4,1.8,23.2,2.1c16.4,0.7,28-0.4,41.7,0.2
							c6.9,0.3,14.4,1,23.2,2.6c0.7,0.1,1.5,0.2,2.1,0.2c4.8,0.2,7.9-2,9.9-4.6C218.4,65.6,219.3,62.7,219.4,61.2z"/>
					</defs>
					<clipPath id="SVGID_32_">
						<use xlink:href="#SVGID_31_"  style="overflow:visible;"/>
					</clipPath>
				</g>
			</g>
		</g>
		<g>
			<g>
				<g>
					<defs>
						<path id="SVGID_33_" d="M7.2,63.5c-0.3-0.4-0.5-0.9-0.8-1.3C5,60,4.9,57.7,5,56.3l0.8,1.3C5.7,59,5.8,61.4,7.2,63.5z"/>
					</defs>
					<clipPath id="SVGID_34_">
						<use xlink:href="#SVGID_33_"  style="overflow:visible;"/>
					</clipPath>
					<g class="st0">
						<path class="st1" d="M5,56.3l0.8,1.3c-0.1,1.4,0,3.7,1.4,5.9l-0.8-1.3C5,60,4.9,57.7,5,56.3"/>
					</g>
				</g>
				<g>
					<defs>
						<path id="SVGID_35_" d="M14.3,68.4c-3.8-1.1-6-2.9-7.1-4.9l-0.8-1.3c1.2,1.9,3.3,3.8,7.1,4.9C13.7,67.5,14.1,68,14.3,68.4z"/>
					</defs>
					<clipPath id="SVGID_36_">
						<use xlink:href="#SVGID_35_"  style="overflow:visible;"/>
					</clipPath>
					<g class="st2">
						<path class="st3" d="M13.5,67.1l0.8,1.3c-0.3-0.1-0.6-0.2-0.8-0.3l-0.8-1.3C12.9,67,13.2,67,13.5,67.1"/>
						<path class="st4" d="M12.7,66.9l0.8,1.3c-2.4-0.8-4-1.9-5.2-3.2l-0.8-1.3C8.6,64.9,10.3,66.1,12.7,66.9"/>
						<path class="st3" d="M7.5,63.7L8.3,65c-0.4-0.5-0.8-1-1.1-1.5l-0.8-1.3C6.7,62.7,7,63.2,7.5,63.7"/>
					</g>
				</g>
				<g>
					<defs>
						<path id="SVGID_37_" d="M6.5,63.7C6.3,63.4,6,63,5.8,62.6c0-0.1-0.1-0.1-0.1-0.2c1.3,2.1,3.6,4.1,7.7,5.2l0.8,1.3
							C10.1,67.8,7.8,65.8,6.5,63.7z"/>
					</defs>
					<clipPath id="SVGID_38_">
						<use xlink:href="#SVGID_37_"  style="overflow:visible;"/>
					</clipPath>
					<g class="st5">
						<path class="st3" d="M13.4,67.6l0.8,1.3c-0.3-0.1-0.6-0.2-0.9-0.3l-0.8-1.3C12.7,67.4,13,67.5,13.4,67.6"/>
						<path class="st4" d="M12.4,67.3l0.8,1.3c-2.5-0.9-4.3-2.1-5.5-3.4L6.9,64C8.1,65.3,9.9,66.5,12.4,67.3"/>
						<path class="st3" d="M6.9,64l0.8,1.3c-0.5-0.5-0.9-1-1.2-1.6l-0.8-1.3C6,62.9,6.4,63.5,6.9,64"/>
					</g>
				</g>
				<g>
					<defs>
						<path id="SVGID_39_" d="M40.7,66.3c-9.1-0.3-12.5,2.8-23.2,2.3l-0.8-1.3C27.4,67.8,30.8,64.8,40,65
							C40.2,65.5,40.5,65.9,40.7,66.3z"/>
					</defs>
					<clipPath id="SVGID_40_">
						<use xlink:href="#SVGID_39_"  style="overflow:visible;"/>
					</clipPath>
					<g class="st6">
						<path class="st7" d="M41.1,65.1l0.8,1.3c-0.2,0-0.4,0-0.6,0c-1.1,0-2.2,0-3.2,0l-0.8-1.3c1,0,2,0,3.2,0
							C40.7,65.1,40.9,65.1,41.1,65.1"/>
						<path class="st8" d="M37.3,65.1l0.8,1.3c-1.3,0.1-2.5,0.2-3.6,0.3l-0.8-1.3C34.9,65.2,36,65.1,37.3,65.1"/>
						<path class="st9" d="M33.7,65.4l0.8,1.3c-3,0.4-5.6,1.1-8.8,1.6L25,67C28.1,66.5,30.7,65.8,33.7,65.4"/>
						<path class="st8" d="M25,67l0.8,1.3c-1.3,0.2-2.6,0.3-4.1,0.4l-0.8-1.3C22.3,67.3,23.7,67.2,25,67"/>
						<path class="st7" d="M20.8,67.4l0.8,1.3c-1.2,0.1-2.6,0.1-4.1,0l-0.8-1.3C18.2,67.4,19.6,67.4,20.8,67.4"/>
					</g>
				</g>
				<g>
					<defs>
						<path id="SVGID_41_" d="M41.3,66.4c-0.2,0-0.4,0-0.6,0c-0.2-0.4-0.6-0.9-0.8-1.3l0,0c0.2,0,0.3,0,0.5,0c0,0,0,0,0,0
							C40.8,65.5,41,65.9,41.3,66.4L41.3,66.4C41.3,66.4,41.3,66.4,41.3,66.4z"/>
					</defs>
					<clipPath id="SVGID_42_">
						<use xlink:href="#SVGID_41_"  style="overflow:visible;"/>
					</clipPath>
					<g class="st10">
						<path class="st7" d="M41.1,65.1l0.8,1.3c-0.2,0-0.4,0-0.6,0c-1.1,0-2.2,0-3.2,0l-0.8-1.3c1,0,2,0,3.2,0
							C40.7,65.1,40.9,65.1,41.1,65.1"/>
					</g>
				</g>
				<g>
					<defs>
						<path id="SVGID_43_" d="M220.2,9.9c0.3,0.4,0.5,0.9,0.8,1.3c-1-1.7-2.5-2.9-4.6-3.6c-5.6-1.9-11.3-2.7-16.9-2.9
							C188,4.2,177,6.1,168,5.7c-1.3-0.1-2.6-0.2-3.8-0.3c-9.2-1.3-17.6-2-25.5-2.3c-22.1-1-40,0.9-57.6,0.3
							C63.3,2.8,48.7,4,35.2,3.4C30.6,3.2,26.2,2.8,21.8,2c-0.6-0.1-1.2-0.2-1.8-0.2C13.2,1.5,5.9,6.3,2.9,16l-0.8-1.3
							C5.1,5,12.4,0.2,19.2,0.5c0.6,0,1.2,0.1,1.8,0.2c4.4,0.8,8.9,1.2,13.5,1.4C47.9,2.7,62.5,1.5,80.2,2
							c17.6,0.5,35.5-1.3,57.6-0.3c7.9,0.3,16.4,1,25.5,2.3c1.2,0.2,2.5,0.3,3.8,0.3c9,0.4,20-1.5,31.5-1c5.6,0.2,11.3,1,16.9,2.9
							C217.7,7,219.2,8.3,220.2,9.9z"/>
					</defs>
					<clipPath id="SVGID_44_">
						<use xlink:href="#SVGID_43_"  style="overflow:visible;"/>
					</clipPath>
					<g class="st11">
						<path class="st3" d="M220.2,9.9l0.8,1.3c-0.3-0.5-0.7-1-1-1.4l-0.8-1.3C219.6,9,219.9,9.4,220.2,9.9"/>
						<path class="st4" d="M219.2,8.5l0.8,1.3c-0.9-1-2.1-1.7-3.5-2.2l-0.8-1.3C217.1,6.8,218.3,7.6,219.2,8.5"/>
						<path class="st3" d="M215.7,6.3l0.8,1.3c0,0,0,0-0.1,0c-2.7-0.9-5.4-1.6-8.2-2l-0.8-1.3C210.2,4.7,212.9,5.4,215.7,6.3
							C215.6,6.3,215.7,6.3,215.7,6.3"/>
						<path class="st12" d="M207.5,4.3l0.8,1.3c-2.6-0.4-5.1-0.7-7.6-0.8l-0.8-1.3C202.4,3.6,204.9,3.8,207.5,4.3"/>
						<path class="st7" d="M199.8,3.4l0.8,1.3c-0.4,0-0.7,0-1.1-0.1c-3.2-0.1-6.4-0.1-9.5,0l-0.8-1.3c3.1-0.1,6.3-0.2,9.5,0
							C199.1,3.4,199.5,3.4,199.8,3.4"/>
						<path class="st8" d="M189.2,3.4l0.8,1.3c-5.4,0.2-10.7,0.7-15.5,0.9l-0.8-1.3C178.5,4.1,183.7,3.7,189.2,3.4"/>
						<path class="st7" d="M173.7,4.4l0.8,1.3c-2.3,0.1-4.5,0.1-6.5,0c-0.2,0-0.4,0-0.7,0l-0.8-1.3c0.2,0,0.4,0,0.7,0
							C169.2,4.5,171.4,4.4,173.7,4.4"/>
						<path class="st12" d="M166.5,4.4l0.8,1.3c-1.1-0.1-2.1-0.2-3.1-0.3c-7.7-1.1-15-1.8-21.8-2.1l-0.8-1.3
							c6.8,0.4,14,1.1,21.8,2.1C164.4,4.2,165.4,4.3,166.5,4.4"/>
						<path class="st7" d="M141.6,1.9l0.8,1.3c-1.3-0.1-2.5-0.1-3.8-0.2c-22.1-1-40,0.9-57.6,0.3C63.3,2.8,48.7,4,35.2,3.4
							c-0.6,0-1.2-0.1-1.9-0.1L32.6,2c0.6,0,1.2,0.1,1.9,0.1C47.9,2.7,62.5,1.5,80.2,2c17.6,0.5,35.5-1.3,57.6-0.3
							C139.1,1.8,140.3,1.8,141.6,1.9"/>
						<path class="st12" d="M32.6,2l0.8,1.3c-3.8-0.2-7.6-0.6-11.3-1.2l-0.8-1.3C25,1.4,28.7,1.8,32.6,2"/>
						<path class="st3" d="M21.3,0.8l0.8,1.3c-0.1,0-0.2,0-0.3-0.1c0,0,0,0,0,0l-0.8-1.3c0,0,0,0,0,0C21.1,0.7,21.2,0.8,21.3,0.8"/>
						<path class="st12" d="M20.9,0.7L21.7,2c-0.5-0.1-1-0.1-1.6-0.2l-0.8-1.3C19.9,0.6,20.4,0.6,20.9,0.7"/>
						<path class="st7" d="M19.4,0.5l0.8,1.3c-0.1,0-0.1,0-0.2,0c-0.4,0-0.8,0-1.2,0L18,0.5c0.4,0,0.8,0,1.2,0
							C19.3,0.5,19.3,0.5,19.4,0.5"/>
						<path class="st8" d="M18,0.5l0.8,1.3c-0.5,0-0.9,0.1-1.4,0.1l-0.8-1.3C17,0.6,17.5,0.5,18,0.5"/>
						<path class="st9" d="M16.6,0.7L17.4,2c-0.5,0.1-1,0.2-1.5,0.3L15.1,1C15.6,0.8,16.1,0.7,16.6,0.7"/>
						<path class="st13" d="M15.1,1l0.8,1.3c-0.6,0.2-1.3,0.4-1.9,0.6l-0.8-1.3C13.8,1.3,14.4,1.1,15.1,1"/>
						<path class="st1" d="M13.1,1.6l0.8,1.3C9.2,4.8,5,9.1,2.9,16l-0.8-1.3C4.2,7.8,8.4,3.5,13.1,1.6"/>
					</g>
				</g>
				<g>
					<defs>
						<path id="SVGID_45_" d="M219.5,40.8c-0.1,1.5-0.2,3.1-0.2,4.9c-0.3-0.5-0.5-0.9-0.8-1.4l0,0c0-1.7,0-3.3,0.2-4.8
							c0.1-1,0.2-2,0.4-2.8c0.7-3.6,2.3-9.4,2.8-15c0.4-4.4,0.1-8.7-1.8-11.7l0.8,1.3c1.8,3,2.2,7.3,1.8,11.7
							c-0.5,5.6-2.1,11.4-2.8,15C219.8,38.8,219.6,39.8,219.5,40.8z"/>
					</defs>
					<clipPath id="SVGID_46_">
						<use xlink:href="#SVGID_45_"  style="overflow:visible;"/>
					</clipPath>
					<g class="st14">
						<path class="st1" d="M220.2,9.9l0.8,1.3c1.8,3,2.1,7.3,1.8,11.7c-0.5,5.6-2.1,11.4-2.8,15c-0.2,0.9-0.3,1.8-0.4,2.8
							c-0.5,6,0.5,13.8-0.1,21.7c-0.1,1.4-0.9,4.2-2.8,6.7c-1.1,1.5-2.6,2.8-4.6,3.6l-0.8-1.3c2-0.8,3.5-2.1,4.6-3.6
							c1.9-2.5,2.7-5.3,2.8-6.7c0.5-7.9-0.5-15.7,0.1-21.7c0.1-1,0.2-2,0.4-2.8c0.7-3.6,2.3-9.4,2.8-15
							C222.4,17.2,222.1,12.9,220.2,9.9"/>
					</g>
				</g>
				<g>
					<defs>
						<path id="SVGID_47_" d="M213,72.3c-0.2-0.4-0.5-0.8-0.7-1.1c0.3,0.3,0.6,0.7,1,1C213.1,72.2,213.1,72.3,213,72.3z"/>
					</defs>
					<clipPath id="SVGID_48_">
						<use xlink:href="#SVGID_47_"  style="overflow:visible;"/>
					</clipPath>
					<g class="st15">
						<path class="st1" d="M220.2,9.9l0.8,1.3c1.8,3,2.1,7.3,1.8,11.7c-0.5,5.6-2.1,11.4-2.8,15c-0.2,0.9-0.3,1.8-0.4,2.8
							c-0.5,6,0.5,13.8-0.1,21.7c-0.1,1.4-0.9,4.2-2.8,6.7c-1.1,1.5-2.6,2.8-4.6,3.6l-0.8-1.3c2-0.8,3.5-2.1,4.6-3.6
							c1.9-2.5,2.7-5.3,2.8-6.7c0.5-7.9-0.5-15.7,0.1-21.7c0.1-1,0.2-2,0.4-2.8c0.7-3.6,2.3-9.4,2.8-15
							C222.4,17.2,222.1,12.9,220.2,9.9"/>
					</g>
				</g>
				<g>
					<defs>
						<path id="SVGID_49_" d="M219.4,45.6c0,3.3,0.2,7,0.2,10.8c0,0,0-0.1,0-0.1c-0.1-0.2-0.3-0.4-0.4-0.7c-0.1-0.2-0.2-0.4-0.3-0.6
							c0-3.8-0.2-7.5-0.2-10.8C218.9,44.7,219.1,45.2,219.4,45.6z"/>
					</defs>
					<clipPath id="SVGID_50_">
						<use xlink:href="#SVGID_49_"  style="overflow:visible;"/>
					</clipPath>
					<g class="st16">
						<path class="st1" d="M220.2,9.9l0.8,1.3c1.8,3,2.1,7.3,1.8,11.7c-0.5,5.6-2.1,11.4-2.8,15c-0.2,0.9-0.3,1.8-0.4,2.8
							c-0.5,6,0.5,13.8-0.1,21.7c-0.1,1.4-0.9,4.2-2.8,6.7c-1.1,1.5-2.6,2.8-4.6,3.6l-0.8-1.3c2-0.8,3.5-2.1,4.6-3.6
							c1.9-2.5,2.7-5.3,2.8-6.7c0.5-7.9-0.5-15.7,0.1-21.7c0.1-1,0.2-2,0.4-2.8c0.7-3.6,2.3-9.4,2.8-15
							C222.4,17.2,222.1,12.9,220.2,9.9"/>
					</g>
				</g>
				<g>
					<defs>
						<path id="SVGID_51_" d="M219.5,62.5c-0.2-0.4-0.2-0.4-0.8-1.3c0,0,0,0,0,0c0.1-2,0.2-4.1,0.2-6.1c0,0,0.1,0.1,0.1,0.2
							c0,0,0.1,0.1,0.1,0.2c0.1,0.1,0.2,0.3,0.3,0.4c0,0.1,0.1,0.1,0.1,0.2c0,0,0,0.1,0.1,0.1c0.1,0.1,0.1,0.2,0.2,0.3l0,0
							C219.7,58.4,219.6,60.5,219.5,62.5C219.5,62.5,219.5,62.5,219.5,62.5z"/>
					</defs>
					<clipPath id="SVGID_52_">
						<use xlink:href="#SVGID_51_"  style="overflow:visible;"/>
					</clipPath>
					<g class="st17">
						<path class="st1" d="M220.2,9.9l0.8,1.3c1.8,3,2.1,7.3,1.8,11.7c-0.5,5.6-2.1,11.4-2.8,15c-0.2,0.9-0.3,1.8-0.4,2.8
							c-0.5,6,0.5,13.8-0.1,21.7c-0.1,1.4-0.9,4.2-2.8,6.7c-1.1,1.5-2.6,2.8-4.6,3.6l-0.8-1.3c2-0.8,3.5-2.1,4.6-3.6
							c1.9-2.5,2.7-5.3,2.8-6.7c0.5-7.9-0.5-15.7,0.1-21.7c0.1-1,0.2-2,0.4-2.8c0.7-3.6,2.3-9.4,2.8-15
							C222.4,17.2,222.1,12.9,220.2,9.9"/>
					</g>
				</g>
				<g>
					<defs>
						<path id="SVGID_53_" d="M220.9,9.7C220.9,9.8,220.9,9.8,220.9,9.7c0.1,0.1,0.1,0.2,0.2,0.3c0.2,0.3,0.4,0.7,0.6,1
							c1.9,3.1,2.2,7.5,1.8,11.9c-0.5,5.7-2.1,11.5-2.8,15c-0.2,0.9-0.3,1.8-0.4,2.8c-0.5,5.9,0.5,13.8-0.1,21.7l-0.8-1.3
							c0.5-8-0.5-15.8,0.1-21.7c0.1-1,0.2-1.9,0.4-2.8c0.7-3.5,2.3-9.4,2.8-15C223.1,17.2,222.8,12.9,220.9,9.7z"/>
					</defs>
					<clipPath id="SVGID_54_">
						<use xlink:href="#SVGID_53_"  style="overflow:visible;"/>
					</clipPath>
					<g class="st18">
						<path class="st1" d="M220.9,9.7l0.8,1.3c1.9,3.1,2.2,7.5,1.8,11.9c-0.5,5.7-2.1,11.5-2.8,15c-0.2,0.9-0.3,1.8-0.4,2.8
							c-0.5,5.9,0.5,13.8-0.1,21.7l-0.8-1.3c0.5-8-0.5-15.8,0.1-21.7c0.1-1,0.2-1.9,0.4-2.8c0.7-3.5,2.3-9.4,2.8-15
							C223.1,17.2,222.8,12.9,220.9,9.7"/>
					</g>
				</g>
				<g>
					<defs>
						<path id="SVGID_55_" d="M219.5,62.5c-0.1,1.4-0.9,4.2-2.8,6.6c-0.3-0.4-0.5-0.9-0.8-1.3l0,0c1.9-2.4,2.7-5.3,2.8-6.6
							C218.9,61.7,219.2,62.1,219.5,62.5C219.5,62.5,219.5,62.5,219.5,62.5z"/>
					</defs>
					<clipPath id="SVGID_56_">
						<use xlink:href="#SVGID_55_"  style="overflow:visible;"/>
					</clipPath>
					<g class="st19">
						<path class="st1" d="M220.2,9.9l0.8,1.3c1.8,3,2.1,7.3,1.8,11.7c-0.5,5.6-2.1,11.4-2.8,15c-0.2,0.9-0.3,1.8-0.4,2.8
							c-0.5,6,0.5,13.8-0.1,21.7c-0.1,1.4-0.9,4.2-2.8,6.7c-1.1,1.5-2.6,2.8-4.6,3.6l-0.8-1.3c2-0.8,3.5-2.1,4.6-3.6
							c1.9-2.5,2.7-5.3,2.8-6.7c0.5-7.9-0.5-15.7,0.1-21.7c0.1-1,0.2-2,0.4-2.8c0.7-3.6,2.3-9.4,2.8-15
							C222.4,17.2,222.1,12.9,220.2,9.9"/>
					</g>
				</g>
				<g>
					<defs>
						<path id="SVGID_57_" d="M49,67.3c-3-0.6-5.5-0.9-7.7-1c-0.3-0.4-0.5-0.9-0.8-1.3l0,0c2.2,0.1,4.7,0.4,7.7,1
							c3.9,0.8,8.5,1.2,13.5,1.4c17.6,0.8,39.6-1.2,51-0.7c1.4,0.1,2.6,0.2,3.6,0.3c8.8,1.2,16.4,1.8,23.1,2.1
							c16.3,0.7,27.9-0.4,41.7,0.2c6.9,0.3,14.5,1,23.4,2.7c0.7,0.1,1.4,0.2,2,0.2c0,0,0,0,0,0c0.1,0.1,0.1,0.2,0.2,0.3
							c0,0,0,0.1,0.1,0.1c0.2,0.3,0.4,0.6,0.6,0.9l0,0c0,0,0,0,0,0c-0.6,0-1.3-0.1-2-0.2c-8.9-1.6-16.4-2.4-23.4-2.7
							c-13.8-0.6-25.4,0.5-41.7-0.2c-6.7-0.3-14.3-0.9-23.1-2.1c-1-0.1-2.3-0.2-3.6-0.3c-11.5-0.5-33.4,1.4-51,0.7
							C57.6,68.5,53,68.1,49,67.3z"/>
					</defs>
					<clipPath id="SVGID_58_">
						<use xlink:href="#SVGID_57_"  style="overflow:visible;"/>
					</clipPath>
					<g class="st20">
						<path class="st7" d="M207.7,72.2l0.8,1.3c-0.4,0-0.7,0-1.1,0c-0.1,0-0.1,0-0.2,0l-0.8-1.3c0.1,0,0.1,0,0.2,0
							C207,72.2,207.4,72.2,207.7,72.2"/>
						<path class="st12" d="M206.4,72.2l0.8,1.3c-0.5,0-1.1-0.1-1.7-0.2l-0.8-1.3C205.3,72.1,205.9,72.2,206.4,72.2"/>
						<path class="st3" d="M204.8,72l0.8,1.3c0,0-0.1,0-0.2,0c-0.7-0.1-1.4-0.2-2-0.4l-0.8-1.3c0.7,0.1,1.4,0.2,2,0.4
							C204.7,72,204.7,72,204.8,72"/>
						<path class="st12" d="M202.6,71.6l0.8,1.3c-7.1-1.2-13.2-1.9-19-2.2l-0.8-1.3C189.3,69.8,195.5,70.4,202.6,71.6"/>
						<path class="st7" d="M183.6,69.4l0.8,1.3c-0.8,0-1.6-0.1-2.3-0.1c-13.8-0.6-25.4,0.5-41.7-0.2c-1.1,0-2.2-0.1-3.4-0.2
							l-0.8-1.3c1.1,0.1,2.3,0.1,3.4,0.2c16.3,0.7,27.9-0.4,41.7,0.2C182,69.3,182.8,69.4,183.6,69.4"/>
						<path class="st12" d="M136.1,68.9l0.8,1.3c-5.9-0.3-12.4-0.9-19.7-1.9c-0.8-0.1-1.8-0.2-2.8-0.2l-0.8-1.3c1,0.1,2,0.1,2.8,0.2
							C123.8,68,130.3,68.6,136.1,68.9"/>
						<path class="st7" d="M113.6,66.8l0.8,1.3c-0.3,0-0.5,0-0.8,0c-11.5-0.5-33.4,1.4-51,0.7c-0.7,0-1.4-0.1-2.1-0.1l-0.8-1.3
							c0.7,0,1.4,0.1,2.1,0.1c17.6,0.8,39.6-1.2,51-0.7C113.1,66.8,113.3,66.8,113.6,66.8"/>
						<path class="st12" d="M59.7,67.3l0.8,1.3c-3.7-0.2-7.2-0.6-10.3-1.1l-0.8-1.3C52.5,66.8,56,67.1,59.7,67.3"/>
						<path class="st3" d="M49.4,66.2l0.8,1.3c-0.4-0.1-0.8-0.1-1.1-0.2c-0.5-0.1-0.9-0.2-1.4-0.2l-0.8-1.3c0.4,0.1,0.9,0.2,1.4,0.2
							C48.6,66.1,49,66.2,49.4,66.2"/>
						<path class="st12" d="M46.9,65.8l0.8,1.3c-2.2-0.4-4.1-0.6-5.8-0.7l-0.8-1.3C42.8,65.2,44.7,65.4,46.9,65.8"/>
						<path class="st7" d="M41.1,65.1l0.8,1.3c-0.2,0-0.4,0-0.6,0c-1.1,0-2.2,0-3.2,0l-0.8-1.3c1,0,2,0,3.2,0
							C40.7,65.1,40.9,65.1,41.1,65.1"/>
					</g>
				</g>
				<g>
					<defs>
						<path id="SVGID_59_" d="M213,72.3c-0.4,0.2-0.8,0.4-1.2,0.5c-0.3-0.4-0.5-0.8-0.8-1.3c2.1-0.8,3.7-2.1,4.9-3.7c0,0,0,0,0,0
							c0.3,0.4,0.5,0.9,0.8,1.3l0,0c0,0,0,0,0,0c-0.9,1.2-2,2.2-3.4,3c-0.3-0.3-0.6-0.7-1-1C212.5,71.6,212.7,72,213,72.3z"/>
					</defs>
					<clipPath id="SVGID_60_">
						<use xlink:href="#SVGID_59_"  style="overflow:visible;"/>
					</clipPath>
					<g class="st21">
						<path class="st1" d="M220.2,9.9l0.8,1.3c1.8,3,2.1,7.3,1.8,11.7c-0.5,5.6-2.1,11.4-2.8,15c-0.2,0.9-0.3,1.8-0.4,2.8
							c-0.5,6,0.5,13.8-0.1,21.7c-0.1,1.4-0.9,4.2-2.8,6.7c-1.1,1.5-2.6,2.8-4.6,3.6l-0.8-1.3c2-0.8,3.5-2.1,4.6-3.6
							c1.9-2.5,2.7-5.3,2.8-6.7c0.5-7.9-0.5-15.7,0.1-21.7c0.1-1,0.2-2,0.4-2.8c0.7-3.6,2.3-9.4,2.8-15
							C222.4,17.2,222.1,12.9,220.2,9.9"/>
						<path class="st13" d="M211.3,71.5l0.8,1.3c-0.4,0.2-0.8,0.3-1.3,0.4l-0.8-1.3C210.4,71.8,210.8,71.6,211.3,71.5"/>
					</g>
				</g>
				<g>
					<g>
						<defs>
							<path id="SVGID_61_" d="M16.8,67.4c-1.1,0-2.1-0.1-3.3-0.2C5.4,64.8,4.8,59,5,56.4c0-0.1-1.3-5.3-2.5-12.3
								c-1.2-7-2.2-15.9-1.6-23.1c0.2-2.3,0.6-4.4,1.2-6.3C5.1,5,12.4,0.2,19.2,0.5c0.6,0,1.2,0.1,1.8,0.2c4.4,0.8,8.9,1.2,13.5,1.4
								C47.9,2.7,62.5,1.5,80.2,2c17.6,0.5,35.5-1.3,57.6-0.3c7.9,0.3,16.4,1,25.5,2.3c1.2,0.2,2.5,0.3,3.8,0.3c9,0.4,20-1.5,31.5-1
								c5.6,0.2,11.3,1,16.9,2.9c5.9,1.9,7,8.5,6.4,15.3c-0.5,5.6-2.1,11.4-2.8,15c-0.2,0.9-0.3,1.8-0.4,2.8
								c-0.5,6,0.5,13.8-0.1,21.7c-0.1,1.4-0.9,4.2-2.8,6.7c-1.9,2.5-4.8,4.5-9.2,4.3c-0.6,0-1.3-0.1-2-0.2
								c-8.9-1.6-16.4-2.4-23.4-2.7c-13.8-0.6-25.4,0.5-41.7-0.2c-6.7-0.3-14.3-0.9-23.1-2.1c-1-0.1-2.3-0.2-3.6-0.3
								c-11.5-0.5-33.4,1.4-51,0.7c-4.9-0.2-9.6-0.6-13.5-1.4c-3-0.6-5.5-0.9-7.7-1C31,64.7,27.6,67.8,16.8,67.4z"/>
						</defs>
						<use xlink:href="#SVGID_61_"  style="overflow:visible;fill:#A57435;"/>
						<clipPath id="SVGID_62_">
							<use xlink:href="#SVGID_61_"  style="overflow:visible;"/>
						</clipPath>
						<g class="st22">
							<g>
								<g>
									<g>
										<path class="st23" d="M121.7,72.1c7.3,0.3,14.6-0.1,22.1-0.6c1.1,0,2.2,0.1,3.3,0.1c0.1,0,0.2,0,0.3,0
											c7.3,0.3,14.6,0.9,21.9,1.8l0,0l0,0c1.1,0,2.1-0.1,3.2-0.2c4.2-0.4,8.3-1.1,12.6-0.9c1.1,0,2.2,0.1,3.3,0.3
											c4.6,0.9,9.3,1.8,14.1,2c2.1,0.1,4.3,0,6.6-0.2c1.1-0.1,2.2-0.2,3.3-0.2c1.4-0.1,2.7-0.1,4.1,0c1.9,0.1,3.8,0.3,5.7,0.8
											l0.1-0.2c-1.9-0.5-3.9-0.8-5.8-0.8c-1.4-0.1-2.8,0-4.2,0c-1.1,0.1-2.2,0.1-3.3,0.2l0,0c-2.2,0.2-4.4,0.3-6.5,0.2
											c-4.8-0.2-9.4-1.1-14.1-2l0,0c-1.2-0.2-2.3-0.3-3.4-0.3c-4.4-0.2-8.5,0.5-12.7,0.9c-1,0.1-2.1,0.2-3.1,0.2
											c-7.4-0.9-14.7-1.5-21.9-1.8c-0.1,0-0.2,0-0.3,0c-1.1,0-2.2-0.1-3.3-0.1l0,0l0,0c-7.5,0.5-14.7,0.9-22,0.6
											c-3.6-0.2-7.2-0.5-10.9-1.1l0,0l0,0c-0.9,0-1.9,0-2.8-0.1c-0.9,0-1.9,0-2.8-0.1c-0.4,0-0.7,0-1.1,0c-0.5,0-1,0-1.5-0.1
											c-1.5-0.1-3.1-0.2-4.6-0.3c-5.3-0.2-10.6-0.2-15.8-0.4c-2.1-0.1-4.2-0.2-6.4-0.4c-1-0.1-2-0.2-3-0.3l0,0l0,0
											c-3.6-0.3-6.6-0.4-10.6-0.6c-1.2-0.1-2.3-0.1-3.5-0.2l0,0c-0.7,0-1.4,0-2-0.1c-6.3-0.3-12.3-0.8-18.4-1
											c-1.9-0.1-3.8-0.1-5.7-0.2c-1.2-0.1-2.5-0.1-3.7-0.2c-2.1-0.1-4.1-0.2-6.2-0.3c-0.7,0-1.4-0.1-2.1-0.1
											c-2-0.2-3.8-0.4-5.3-0.4c-5.2-0.2-8.3,0.2-13,0c-2-0.1-4.3-0.3-7.2-0.7L-5,65.6c2.9,0.4,5.2,0.7,7.3,0.7
											c4.7,0.2,7.8-0.2,13,0c1.6,0.1,3.3,0.2,5.3,0.4l0,0l0,0c0.7,0,1.4,0.1,2.1,0.1c2.1,0.1,4.1,0.2,6.2,0.3
											c1.2,0.1,2.5,0.1,3.7,0.2l0,0l0,0c1.9,0,3.8,0.1,5.7,0.2c6.1,0.3,12,0.8,18.4,1c0.7,0,1.3,0.1,2,0.1
											c1.1,0.1,2.3,0.1,3.5,0.2c4,0.2,7.1,0.3,10.6,0.6c1,0.1,2,0.2,3,0.3c2.1,0.2,4.3,0.3,6.4,0.4c5.3,0.2,10.6,0.2,15.8,0.4
											c1.5,0.1,3,0.2,4.6,0.3l0,0c0.5,0,1,0,1.5,0.1c0.4,0,0.7,0,1.1,0l0,0c0.9,0,1.9,0,2.8,0.1c0.9,0,1.9,0,2.8,0.1
											C114.5,71.6,118.1,72,121.7,72.1"/>
										<path class="st23" d="M123.7,69.7c6.6,0.3,13.3-0.1,19.7-1c1.2,0.1,2.4,0.2,3.5,0.2c5.7,0.4,11.4,1,17.3,1.2
											c1.6,0.1,3.1,0.1,4.7,0.1l0,0c1.1,0,2.3,0,3.4,0c2.1,0,4.2,0.1,6.3,0.2c9.8,0.4,19.5,1.4,29.2,1.8c0.6,0,1.3,0,1.9,0.1
											l0,0l0,0c1.1-0.1,2.2-0.1,3.3-0.1c1.3,0,2.6,0,3.9,0c1.9,0.1,3.9,0.3,5.7,0.7l0.1-0.2c-1.9-0.4-3.9-0.6-5.8-0.7
											c-1.3-0.1-2.6-0.1-3.9,0c-1.1,0-2.2,0.1-3.3,0.1c-0.6,0-1.2,0-1.9-0.1c-9.7-0.4-19.4-1.4-29.2-1.8
											c-2.1-0.1-4.2-0.2-6.3-0.2c-1.1,0-2.3,0-3.4,0c-1.6,0-3.1-0.1-4.7-0.1c-5.9-0.2-11.6-0.8-17.3-1.2
											c-1.2-0.1-2.4-0.2-3.6-0.2l0,0l0,0c-6.4,0.9-13.1,1.3-19.7,1c-4.3-0.2-8.5-0.6-12.5-1.4l0,0l0,0c-0.9,0-1.8,0-2.7,0l0,0
											l0,0c-5,0.3-9.9,0.3-14.8,0.1c-4.4-0.2-8.8-0.5-13.3-0.9c-1.1-0.1-2.1-0.2-3.2-0.2l0,0l0,0c-0.2,0-0.3,0-0.5,0
											c-4.4-0.2-8.4-0.8-12.6-1.1c-0.6,0-1.3-0.1-1.9-0.1c-0.4,0-0.9,0-1.3,0c-0.4,0-0.9,0-1.3-0.1c-7.9-0.3-15.3-1.1-22.9-1.4
											c-2-0.1-4-0.1-6-0.1c-1.1,0-2.3,0-3.4,0c-7.7-0.8-13.4-2-19.6-2.2l0,0c-3.9-0.2-8.1,0-13,1l0.1,0.2
											c4.9-0.9,8.9-1.1,12.8-1c6.1,0.3,11.8,1.4,19.6,2.2l0,0l0,0c1.1,0,2.3,0,3.4,0c2,0,4,0.1,6,0.1c7.5,0.3,14.9,1.1,22.9,1.4
											c0.4,0,0.9,0,1.3,0.1l0,0c0.4,0,0.9,0,1.3,0c0.6,0,1.3,0.1,1.9,0.1c4.1,0.3,8.2,0.9,12.6,1.1c0.2,0,0.3,0,0.5,0
											c1.1,0.1,2.1,0.2,3.2,0.2c4.5,0.3,8.9,0.7,13.4,0.9c4.9,0.2,9.8,0.2,14.8-0.1c0.9,0,1.8,0,2.7,0
											C115.2,69.1,119.4,69.5,123.7,69.7"/>
										<path class="st23" d="M86.4,66c8.6,0.4,17,0.1,26-0.2c1.1,0.3,2.3,0.6,3.4,0.8c2.9,0.6,5.8,0.9,8.7,1
											c7.1,0.3,14.1-0.5,21.2-0.9c1.1,0.1,2.3,0.1,3.4,0.2c5.7,0.4,11.4,0.8,17,1.3l0,0l0,0c1.2,0,2.4,0,3.6,0
											c4,0.1,7.9,0.2,11.8,0.3c7.7,0.3,15.4,0.9,23.2,1.8l0,0l0,0c1.2,0,2.3,0,3.5,0.1c3,0,6,0.1,9,0.2c2.7,0.1,5.3,0.3,7.9,0.5
											l0-0.3c-2.6-0.2-5.3-0.4-8-0.5c-3-0.1-6-0.2-9-0.2c-1.1,0-2.3,0-3.4-0.1c-7.8-0.9-15.5-1.5-23.3-1.8
											c-3.9-0.2-7.8-0.3-11.8-0.3c-1.2,0-2.4,0-3.6,0c-5.5-0.4-11.2-0.9-17-1.3c-1.2-0.1-2.3-0.1-3.5-0.2l0,0l0,0
											c-7.1,0.4-14.1,1.2-21.1,0.9c-2.8-0.1-5.7-0.4-8.6-1c-1.1-0.2-2.3-0.5-3.4-0.8l0,0l0,0c-8.9,0.3-17.4,0.6-26,0.2
											c-0.4,0-0.9,0-1.3-0.1c-1.1-0.1-2.3-0.1-3.4-0.2c-5.2-0.6-10.3-1.2-15.3-1.7c-1-0.1-2-0.2-3-0.3l0,0
											c-5.6-0.3-11.3-0.8-17.1-1.2c-1-0.1-1.9-0.2-2.9-0.2l0,0l0,0c-2.6-0.1-5.1-0.2-7.7-0.3c-2.7-0.1-5.3-0.2-8-0.4l0,0
											c-0.3,0-0.5,0-0.8,0c-0.8,0-1.6-0.1-2.4-0.2c-5.9-0.8-12-1.9-18.2-2.2c-4.6-0.2-9.3,0.1-13.8,1.4l0.2,0.2
											c4.4-1.3,9-1.6,13.6-1.4c6.1,0.3,12.3,1.4,18.2,2.2l0,0l0,0c0.8,0.1,1.6,0.1,2.5,0.2c0.3,0,0.5,0,0.8,0
											c2.7,0.1,5.3,0.3,8,0.4c2.6,0.1,5.2,0.2,7.7,0.3c1,0.1,1.9,0.2,2.9,0.2c5.8,0.5,11.6,1,17.2,1.2c1,0.1,2,0.2,3,0.3
											c5,0.5,10.1,1.1,15.3,1.7l0,0c1.1,0.1,2.3,0.2,3.4,0.2C85.5,65.9,85.9,66,86.4,66"/>
										<path class="st23" d="M84.4,63.6L84.4,63.6c0.2,0,0.4,0,0.5,0c0.9,0,1.8,0.1,2.7,0.1c7.6,0.2,15.1-0.3,23-0.5l0,0l0,0
											c0.3-0.1,0.6-0.1,0.9-0.1c0,0,0,0,0,0c1.7,0.1,3.5,1.1,5.4,1.2c0.1,0,0.2,0,0.3,0c1.1,0.2,2.2,0.3,3.4,0.4
											c1.3,0.1,2.7,0.2,4,0.3c6.7,0.3,13.4-0.3,20.3-0.8c1.1,0.1,2.2,0.2,3.3,0.3c4.5,0.4,9,0.9,13.4,1.2l0,0l0,0
											c1.2,0,2.3,0,3.4,0.1c2.6,0.1,5.2,0.1,7.8,0.3c9.9,0.4,19.8,1.2,29.7,2.1l0,0l0,0c1,0,2,0.1,3,0.1
											c7,0.2,14.3,0.4,21.5,0.4l0-0.3c-7.1,0-14.4-0.2-21.4-0.4c-1,0-2-0.1-3-0.1c-9.9-0.8-19.8-1.6-29.7-2.1
											c-2.6-0.1-5.2-0.2-7.8-0.2c-1.1,0-2.3,0-3.4-0.1c-4.5-0.4-8.9-0.8-13.4-1.2c-1.1-0.1-2.3-0.2-3.4-0.3l0,0l0,0
											c-6.9,0.5-13.6,1.1-20.2,0.8c-1.3-0.1-2.6-0.1-4-0.3c-1.1-0.1-2.2-0.3-3.4-0.4l0,0l0,0c-0.1,0-0.2,0-0.3,0c0,0,0,0,0,0
											c-1.7-0.1-3.5-1.1-5.4-1.2c-0.3,0-0.7,0-1,0.1c-8,0.3-15.4,0.7-23,0.5c-0.9,0-1.8-0.1-2.7-0.1c-0.2,0-0.3,0-0.5,0
											c-5.4-0.7-10.8-1.3-16.1-1.8c-1.1-0.1-2.1-0.2-3.2-0.3c-3.5-0.3-7-0.6-10.6-1c-1.2-0.1-2.4-0.2-3.6-0.3l0,0l0,0
											c-8.5-0.4-16.4-1.5-24.8-1.9c-1.1,0-2.3-0.1-3.5-0.1c-1.1-0.1-2.3-0.2-3.4-0.4c-4.5-0.5-9.1-1.1-13.5-1.3
											c-4.5-0.2-8.9,0-13.2,1l0.1,0.2c4.2-1,8.6-1.1,13.1-0.9c4.4,0.2,9,0.7,13.5,1.3c1.1,0.1,2.3,0.3,3.4,0.4l0,0l0,0
											c1.2,0,2.3,0,3.4,0.1c8.3,0.4,16.3,1.5,24.8,1.9c1.2,0.1,2.4,0.2,3.6,0.3c3.6,0.3,7.1,0.7,10.6,1c1.1,0.1,2.1,0.2,3.2,0.3
											C73.6,62.3,79,63,84.4,63.6L84.4,63.6"/>
										<path class="st23" d="M130,62.8c5.2,0.2,10.4,0.1,15.4-0.6c1.1,0.1,2.2,0.1,3.3,0.2c2.2,0.2,4.4,0.3,6.7,0.6l0,0
											c1.3,0.1,2.5,0.2,3.8,0.2c1.3,0.1,2.5,0.2,3.8,0.2l0,0c3.6,0.1,7.2,0.3,10.9,0.4c7.8,0.3,15.8,0.8,23.4,1.4l0,0
											c0.3,0,0.7,0,1,0c1,0,1.9,0.1,2.9,0.1c1.8,0.1,3.6,0.2,5.5,0.3c4.5,0.2,9.2,0.3,13.7,0.3c1.3,0,2.6,0,3.9,0.1
											c1.3,0,2.6,0,3.9,0l0-0.3c-1.3,0-2.6,0-3.9,0c-1.3,0-2.6,0-3.9-0.1l0,0c-4.5,0.1-9.2-0.1-13.7-0.3
											c-1.9-0.1-3.7-0.2-5.5-0.3c-1,0-1.9-0.1-2.9-0.1c-0.3,0-0.6,0-1,0c-7.6-0.6-15.6-1.1-23.4-1.4c-3.7-0.2-7.4-0.3-10.9-0.4
											c-1.3-0.1-2.5-0.2-3.8-0.2c-1.3-0.1-2.5-0.2-3.8-0.2c-2.3-0.2-4.5-0.4-6.7-0.6c-1.1-0.1-2.2-0.2-3.3-0.2l0,0l0,0
											c-5,0.6-10.2,0.8-15.4,0.6c-3-0.1-5.9-0.4-8.8-0.7c-1.1-0.1-2.3-0.3-3.4-0.5l0,0l0,0c-1.9-0.2-3.8-0.3-5.7-0.4
											c-7.9-0.3-15.8-0.1-23.7-0.3c-0.8,0-1.6,0-2.4-0.1c-0.3,0-0.6,0-0.9,0c-3.7-0.8-7.4-1.5-11.2-2c-0.9-0.1-1.9-0.2-2.8-0.4
											l0,0l0,0c-0.7,0-1.4-0.1-2.2-0.1l0,0C62.9,57.9,57.6,57.3,52,57c-0.9,0-1.7-0.1-2.6-0.1c-1.1,0-2.2,0-3.2-0.1
											c-4-0.1-8-0.2-11.9-0.3c-4.6-0.2-9.1-0.5-13.6-1.1l0,0l0,0c-1.2-0.1-2.4-0.2-3.6-0.3c-4.2-0.3-8.4-0.6-12.7-0.8
											c-2.9-0.1-5.8-0.2-8.7-0.2l0,0.3c2.9,0,5.8,0,8.7,0.2c4.2,0.2,8.4,0.5,12.6,0.8c1.2,0.1,2.4,0.2,3.6,0.3
											c4.5,0.6,9.1,0.9,13.7,1.1c3.9,0.2,7.9,0.2,11.9,0.3c1.1,0,2.2,0,3.2,0.1c0.9,0,1.7,0,2.6,0.1c5.5,0.2,10.8,0.8,16.9,1.1
											c0.7,0.1,1.4,0.1,2.2,0.1c0.9,0.1,1.9,0.2,2.8,0.4c3.7,0.5,7.5,1.2,11.2,2l0,0l0,0c0.3,0,0.6,0,0.9,0
											c0.8,0,1.6,0.1,2.4,0.1c7.9,0.2,15.8,0,23.7,0.3c1.9,0.1,3.8,0.2,5.7,0.4c1.1,0.2,2.3,0.3,3.4,0.5
											C124.1,62.5,127.1,62.7,130,62.8"/>
										<path class="st23" d="M128.6,59.9c5.6,0.2,11.3,0.2,17.1,0.2l0,0c0.8,0,1.7,0.1,2.5,0.1c0.8,0,1.6,0,2.5,0
											c1.2,0,2.5,0.1,3.7,0.1c3.7,0.1,7.4,0.3,11.2,0.4c1.2,0,2.5,0.1,3.7,0.1l0,0c4,0,7.9,0.1,11.9,0.3c3.5,0.2,7,0.4,10.5,0.6
											l0,0c1.2,0.1,2.5,0.1,3.7,0.2c5,0.2,10,0.5,14.9,0.7l0,0l0,0c1.2,0,2.5,0,3.7,0c1.2,0,2.5,0,3.7-0.1l0,0l0,0
											c1.3-0.2,2.7-0.2,4.2-0.2c2,0.1,4.1,0.4,6.2,1l0.1-0.2c-2.1-0.6-4.3-0.9-6.3-1c-1.5-0.1-3,0-4.3,0.2
											c-1.2,0-2.5,0.1-3.7,0.1c-1.2,0-2.4,0-3.7,0c-5-0.3-10-0.5-14.9-0.7c-1.2-0.1-2.5-0.1-3.7-0.2c-3.5-0.3-7-0.5-10.5-0.6
											c-4-0.2-7.9-0.3-11.9-0.3c-1.2,0-2.5-0.1-3.7-0.1c-3.7-0.1-7.5-0.3-11.2-0.4c-1.2,0-2.5-0.1-3.7-0.1l0,0
											c-0.8,0-1.6,0-2.5,0c-0.8,0-1.7,0-2.5-0.1l0,0l0,0c-5.8,0-11.4,0.1-17-0.2c-2-0.1-4-0.2-6.1-0.4c-1.1-0.1-2.2-0.2-3.3-0.3
											c-2.9-0.4-5.8-0.6-8.7-0.7c-6.6-0.3-13.3-0.1-20-0.4c-0.8,0-1.6-0.1-2.4-0.1c-1.2-0.1-2.3-0.2-3.5-0.3
											c-1-0.2-2-0.4-3.1-0.6c-1-0.2-2.1-0.4-3.1-0.5l0,0l0,0c-0.9-0.1-1.8-0.2-2.7-0.3c-0.9-0.1-1.8-0.2-2.7-0.2
											c-2.2-0.2-4.4-0.4-6.6-0.4c-7.1-0.3-14-0.1-21.3-0.4c-0.9,0-1.8-0.1-2.7-0.1c-1.2-0.1-2.4-0.2-3.6-0.3
											c-6.1-0.5-12.1-1-18.1-1.4l0,0l0,0c-1.2,0-2.4,0-3.7,0c-6.4,0-12.8,0-19.1-0.2c-1,0-2-0.1-2.9-0.1l0,0.2
											c1,0.1,2,0.1,3,0.2c6.4,0.3,12.8,0.2,19.1,0.2c1.2,0,2.4,0,3.6,0c5.9,0.4,12,1,18.1,1.4c1.2,0.1,2.4,0.2,3.7,0.3
											c0.9,0.1,1.8,0.1,2.8,0.1c7.3,0.3,14.3,0.1,21.3,0.4c2.2,0.1,4.4,0.2,6.6,0.4l0,0v0c0.9,0.1,1.8,0.1,2.7,0.2
											c0.9,0.1,1.8,0.2,2.6,0.3c1,0.2,2,0.3,3.1,0.5c1,0.2,2.1,0.4,3.1,0.6l0,0l0,0c1.2,0.1,2.3,0.2,3.5,0.3
											c0.8,0.1,1.6,0.1,2.5,0.1c6.7,0.3,13.4,0.1,20,0.4c2.9,0.1,5.8,0.3,8.7,0.7l0,0c1.1,0.1,2.2,0.2,3.3,0.3
											C124.5,59.7,126.6,59.8,128.6,59.9"/>
										<path class="st23" d="M177.6,59.5c3.1,0.1,6.3,0.2,9.2,0.3c1.2,0,2.5,0.1,3.7,0.1c4.9,0.1,9.8,0.1,14.8-0.1
											c1.2,0,2.5-0.1,3.7-0.1l0,0l0,0c1.8-0.2,3.7-0.3,5.7-0.2c2.8,0.1,5.7,0.4,8.4,0.6c0.9,0.1,1.7,0.3,2.6,0.5
											c0.9,0.2,1.7,0.4,2.5,0.5l0.1-0.2c-0.8-0.2-1.7-0.4-2.6-0.6c-0.9-0.2-1.7-0.3-2.6-0.5l0,0l0,0c-2.7-0.2-5.6-0.5-8.4-0.6
											c-2-0.1-4-0.1-5.8,0.2c-1.2,0-2.5,0.1-3.7,0.1c-4.9,0.1-9.8,0.2-14.8,0.1c-1.2,0-2.5,0-3.7-0.1l0,0
											c-2.9,0-6.1-0.1-9.2-0.3c-1.9-0.1-3.7-0.2-5.5-0.3c-1.2-0.1-2.4-0.1-3.7-0.2c-7.4-0.4-14.7-0.8-22.1-1.1
											c-0.9,0-1.7-0.1-2.6-0.1c-0.4,0-0.7,0-1.1,0l0,0c-1.1,0-2.2-0.1-3.4-0.1c-6.5-0.3-13.1-1-19.7-1.6c-1-0.1-1.9-0.2-2.9-0.2
											l0,0c-9-0.4-17.6-0.2-26.5-0.5c-0.7,0-1.4-0.1-2-0.1c-1.2-0.1-2.4-0.1-3.6-0.2c-0.9-0.1-1.8-0.3-2.7-0.4
											C80.9,54.2,80,54.1,79,54c-1.2-0.1-2.4-0.3-3.7-0.4c-2.8-0.4-5.5-0.6-8.3-0.7c-8.7-0.4-17.3,0.2-26-0.1
											c-2-0.1-4-0.2-6.1-0.4c-1.1-0.1-2.1-0.3-3.2-0.5c-2.1-0.4-4.2-0.9-6.3-1.6l0,0c-0.7-0.2-1.4-0.3-2.1-0.3
											c-1.6-0.1-3.2,0.2-4.9,0.3c-1.2,0-2.4,0-3.5,0c-4.7,0-9.4,0.1-14.2-0.1c-2.4-0.1-4.8-0.3-7.3-0.5l-0.1,0.2
											c2.5,0.3,4.9,0.4,7.3,0.5c4.8,0.2,9.5,0.2,14.2,0.1c1.2,0,2.4,0,3.5,0l0,0l0,0c1.7-0.1,3.3-0.4,4.9-0.3
											c0.7,0,1.3,0.1,2,0.3c2.1,0.7,4.2,1.2,6.4,1.6c1.1,0.2,2.1,0.4,3.2,0.5l0,0c2.1,0.2,4.1,0.4,6.1,0.4
											c8.7,0.4,17.3-0.2,26,0.1c2.7,0.1,5.5,0.3,8.2,0.7l0,0c1.2,0.1,2.5,0.3,3.7,0.4c0.9,0.1,1.8,0.2,2.7,0.4
											c0.9,0.1,1.8,0.3,2.7,0.4l0,0l0,0c1.2,0.1,2.4,0.2,3.6,0.2c0.7,0,1.4,0.1,2.1,0.1c8.9,0.4,17.5,0.2,26.5,0.5
											c1,0.1,1.9,0.1,2.9,0.2c6.6,0.5,13.2,1.3,19.7,1.6c1.1,0,2.2,0.1,3.4,0.1c0.4,0,0.7,0,1.1,0c0.9,0,1.7,0.1,2.6,0.1
											c7.4,0.3,14.7,0.8,22.1,1.1c1.2,0.1,2.5,0.1,3.7,0.2C173.8,59.3,175.7,59.4,177.6,59.5"/>
										<path class="st23" d="M39,51.5L39,51.5c10.6,0,21.3-0.6,31.7-0.2c2.2,0.1,4.4,0.2,6.6,0.5l0,0c1.1,0.1,2.1,0.1,3.2,0.2
											l0,0l0,0c1.1,0,2.2,0.1,3.3,0.1c2.9,0.4,5.8,0.6,8.7,0.7c5.5,0.2,11.1,0.2,16.7,0.4c1.3,0.1,2.5,0.1,3.8,0.2
											c1.3,0.1,2.6,0.2,3.9,0.3l0,0c4.6,0.6,9.6,1.2,14.5,1.4c2.9,0.1,5.7,0.1,8.4-0.1c1,0,1.9,0,2.9,0c1,0,2,0,2.9,0
											c1.1,0,2.2,0,3.3,0.1c3,0.1,6,0.2,9,0.3c7,0.3,13.9,0.8,20.7,1.5l0,0c2.3,0.2,4.5,0.4,6.8,0.5c5.1,0.2,10.2,0.2,15.2,0.1
											c1.2,0,2.4,0,3.6-0.1l0,0l0,0c3.1-0.2,6.1-0.2,9.2,0c5.2,0.2,10.3,0.8,15.4,1.4l0.1-0.2c-5.1-0.6-10.2-1.2-15.4-1.4
											c-3.1-0.1-6.2-0.1-9.3,0c-1.2,0-2.4,0-3.6,0.1c-5,0.1-10.1,0.1-15.2-0.1c-2.2-0.1-4.5-0.2-6.7-0.5
											c-6.8-0.8-13.7-1.3-20.7-1.6c-3-0.1-6-0.2-9.1-0.3c-1.1,0-2.2-0.1-3.3-0.1l0,0c-1,0-2,0-3,0c-1,0-1.9,0-2.9,0l0,0l0,0
											c-2.7,0.2-5.5,0.2-8.4,0.1c-4.9-0.2-9.8-0.8-14.4-1.4l0,0l0,0c-1.3-0.1-2.6-0.2-3.9-0.3c-1.3-0.1-2.5-0.2-3.8-0.2
											c-5.6-0.2-11.2-0.2-16.7-0.4c-2.9-0.1-5.8-0.3-8.7-0.7l0,0l0,0c-1.1,0-2.2-0.1-3.3-0.1c-1.1-0.1-2.1-0.1-3.2-0.2
											c-2.2-0.2-4.4-0.4-6.7-0.5c-10.5-0.4-21.1,0.2-31.7,0.2c-2.9-0.1-5.1-1.2-8.1-2c-0.9-0.2-1.7-0.5-2.6-0.7
											c-1.4-0.3-2.7-0.5-4.1-0.6c-1.3-0.1-2.7,0-4,0.3c-1,0.1-2,0.1-3,0.2c-3.9,0.1-7.6,0.1-11.2-0.1C1.9,48.2-2,48-6,47.8
											l0,0.3c4,0.2,8,0.5,12,0.6c3.7,0.2,7.4,0.2,11.3,0.1c1,0,2-0.1,3.1-0.2l0,0l0,0c1.3-0.3,2.6-0.4,3.9-0.3
											c1.3,0.1,2.7,0.3,4,0.6c0.9,0.2,1.7,0.4,2.6,0.6C33.7,50.3,35.9,51.4,39,51.5"/>
										<path class="st23" d="M128.2,52.8c3.1,0.1,6.4,0.2,9.5,0.3c1.2,0,2.5,0.1,3.7,0.1c3.7,0.1,7.4,0.1,11.1,0.2
											c1.2,0,2.3,0.1,3.5,0.1c7.9,0.2,15.8,0.4,23.7,0.7c6.1,0.3,12.2,0.6,18.2,1.1c1.1,0.1,2.1,0.2,3.2,0.2
											c3.1,0.3,6.2,0.5,9.4,0.6c6.2,0.3,12.5,0.3,18.8,0.6c0.3,0,0.6,0,0.9,0l0-0.2c-0.3,0-0.6,0-0.9,0
											c-6.3-0.3-12.6-0.3-18.8-0.6c-3.1-0.1-6.3-0.3-9.3-0.6l0,0c-1.1-0.1-2.1-0.2-3.2-0.2c-6.1-0.5-12.1-0.8-18.2-1.1
											c-7.9-0.3-15.8-0.5-23.7-0.7c-1.2,0-2.3-0.1-3.5-0.1c-3.7-0.1-7.4-0.1-11.1-0.2c-1.2,0-2.5-0.1-3.7-0.1l0,0
											c-3.1,0-6.3-0.1-9.4-0.2c-1.8-0.1-3.6-0.2-5.3-0.3c-1.2-0.1-2.5-0.1-3.7-0.2c-1-0.1-2-0.1-3.1-0.2c-1-0.1-2-0.1-3-0.2
											c-7.2-1.1-15.3-1.4-22.8-1.7c-0.2,0-0.4,0-0.6,0c-0.8,0-1.6-0.1-2.5-0.1c-0.5,0-1,0-1.5-0.1c-0.3,0-0.6,0-0.9,0
											c-0.8,0-1.6-0.1-2.5-0.1c-1.1,0-2.1-0.1-3.2-0.1C66,48.9,53.2,48,40,47.5c-4.1-0.2-8.1-0.3-12.3-0.4
											c-1.3-0.1-2.5-0.2-3.8-0.3c-1.3-0.1-2.5-0.2-3.8-0.3l0,0l0,0c-1.2,0-2.3,0-3.5,0c-6.8,0-11.2,0.3-16.7,0.1
											C-2,46.5-4.3,46.3-6.8,46l-0.1,0.2c2.6,0.3,4.8,0.5,6.9,0.6c5.5,0.2,9.9-0.1,16.7-0.1c1.2,0,2.3,0,3.5,0
											c1.3,0.1,2.5,0.2,3.8,0.3c1.3,0.1,2.5,0.2,3.8,0.3l0,0l0,0c4.1,0.1,8.2,0.3,12.3,0.4c13.2,0.6,25.9,1.4,39.1,2
											c1,0,2.1,0.1,3.2,0.1c0.8,0,1.6,0.1,2.5,0.1c0.3,0,0.6,0,0.9,0c0.5,0,1,0,1.5,0.1c0.8,0,1.6,0.1,2.4,0.1l0,0
											c0.2,0,0.4,0,0.6,0c7.5,0.3,15.6,0.7,22.8,1.7l0,0l0,0c1,0.1,2,0.2,3.1,0.2c1,0.1,2,0.1,3.1,0.2c1.2,0.1,2.5,0.1,3.7,0.2
											l0,0C124.5,52.6,126.3,52.7,128.2,52.8"/>
										<path class="st23" d="M28.8,46.1L28.8,46.1L28.8,46.1c15.9,0.7,32.5,0.9,48.2,1.2c1.1,0,2.3,0.1,3.4,0.1
											c1.1,0,2.3,0,3.4,0.1c1.2,0,2.5,0.1,3.7,0.2c1.8,0.1,3.6,0.1,5.4,0.2c14.2,0.6,28.5,1.6,42.9,2.2
											c7.9,0.3,15.8,0.6,23.8,0.6c1.3,0,2.5,0.1,3.8,0.1c8.8,0.4,17.6,0.8,26.4,1.3c1.3,0.1,2.5,0.1,3.8,0.2
											c9,1,17.7,1.5,26.5,1.9c3.6,0.2,7.2,0.3,10.8,0.4l0-0.3c-3.7-0.1-7.3-0.2-10.8-0.4c-8.9-0.4-17.5-0.9-26.5-1.9l0,0l0,0
											c-1.3-0.1-2.5-0.1-3.8-0.2c-8.8-0.5-17.6-0.9-26.4-1.3l0,0c-1.3,0-2.5-0.1-3.8-0.1l0,0c-7.9,0-15.9-0.3-23.8-0.6
											c-14.4-0.6-28.6-1.6-42.9-2.2c-1.8-0.1-3.6-0.2-5.4-0.2c-1.2-0.1-2.5-0.1-3.8-0.2l0,0c-1.1,0-2.2,0-3.4-0.1
											c-1.1,0-2.3-0.1-3.4-0.1c-15.7-0.4-32.3-0.6-48.1-1.2c-1.1-0.2-2.2-0.3-3.4-0.5c-1.1-0.2-2.2-0.4-3.4-0.6l0,0l0,0
											c-1.1-0.1-2.2-0.1-3.4-0.2c-6-0.3-12-0.6-18-0.9c-3-0.1-5.9-0.2-8.8-0.4l0,0.3c2.9,0.1,5.9,0.2,8.8,0.4
											c6,0.3,12,0.5,18,0.9c1.1,0.1,2.2,0.1,3.3,0.2c1.1,0.2,2.2,0.4,3.4,0.6C26.6,45.7,27.7,45.9,28.8,46.1"/>
										<path class="st23" d="M218.1,52.3c4.4,0.2,8.8,0.2,13.2-0.1l0-0.3c-4.4,0.3-8.8,0.3-13.1,0.1c-9.2-0.4-18.4-1.5-27.5-2.1
											c-1.1-0.1-2.2-0.1-3.3-0.2c-3.3-0.2-6.7-0.4-10-0.6c-1.3-0.1-2.5-0.2-3.8-0.2l0,0l0,0c-1.3,0-2.5-0.1-3.8-0.1
											c-0.6,0-1.2,0-1.9-0.1c-0.6,0-1.2-0.1-1.9-0.1c-18.4-1.1-36.6-2.1-54.8-2.8c-8.1-0.3-16.2-0.7-24.2-0.9
											c-1.2,0-2.5-0.1-3.7-0.1l0,0l0,0c-1.1,0.1-2.2,0.1-3.3,0.1c-1.1,0-2.2,0-3.3,0l0,0c-3.1,0-6.2,0-9.2-0.1
											c-8.2-0.4-16.3-1.2-24.6-1.5c-4.3-0.2-8.6-0.2-13-0.1c-1.2-0.1-2.3-0.2-3.5-0.3l0,0l0,0c-1.1,0-2.2,0-3.3,0
											c-7.4-0.1-14.7-0.2-22.1-0.5c-2.4-0.1-4.8-0.2-7.2-0.4l0,0.3c2.4,0.2,4.8,0.3,7.2,0.4c7.4,0.3,14.8,0.4,22.1,0.5
											c1.1,0,2.2,0,3.2,0.1c1.2,0.1,2.3,0.2,3.5,0.3l0,0l0,0c4.4-0.2,8.7-0.1,12.9,0.1c8.3,0.4,16.4,1.2,24.6,1.5
											c3.1,0.1,6.1,0.2,9.3,0.1c1.1,0,2.2,0,3.4,0c1.1,0,2.2-0.1,3.3-0.1c1.2,0,2.5,0.1,3.7,0.1c8.1,0.3,16.2,0.6,24.2,0.9
											c18.2,0.8,36.4,1.7,54.8,2.9l0,0c0.6,0,1.2,0.1,1.9,0.1c0.6,0,1.3,0.1,1.9,0.1c1.3,0,2.5,0.1,3.8,0.1
											c1.3,0.1,2.5,0.2,3.8,0.2c3.3,0.2,6.7,0.4,10,0.6c1.1,0.1,2.2,0.1,3.3,0.2C199.7,50.7,208.9,51.9,218.1,52.3"/>
										<path class="st23" d="M215.3,50.1c5.3,0.2,10.7,0.2,16.3-0.3l-0.1-0.2c-5.5,0.5-10.9,0.6-16.2,0.3
											c-7.9-0.3-15.7-1.3-23.7-2.3l0,0l0,0c-1.3-0.1-2.6-0.1-3.9-0.2l0,0c-3.8,0-7.6-0.2-11.4-0.3c-0.8,0-1.6-0.1-2.3-0.1
											c-0.5,0-1,0-1.4-0.1l0,0c-4.7-0.1-9.5-0.3-14.3-0.5c-15.7-0.7-31.6-1.8-47.1-3.3c-3.7-0.5-7.4-0.7-11.1-0.9
											C94.7,42,89.3,42,83.9,42.1c-1.1,0-2.3,0-3.4,0l0,0l0,0c-1,0.1-2,0.1-3,0.1c-1,0-2,0.1-3,0.1c-15.7,0.1-32.3-1.1-47.8-1.3
											c-1.2-0.1-2.3-0.2-3.5-0.2c-3.9-0.3-7.8-0.5-11.7-0.7c-6.6-0.3-13.2-0.4-20,0l0,0.3c6.8-0.3,13.4-0.2,20,0
											c3.9,0.2,7.8,0.4,11.7,0.7c1.2,0.1,2.3,0.2,3.5,0.2l0,0l0,0c15.5,0.2,32.1,1.4,47.8,1.3c1,0,2,0,3.1-0.1c1,0,2-0.1,3-0.2
											c1.1,0,2.3,0,3.4,0c5.4-0.1,10.8-0.1,16.1,0.1c3.7,0.2,7.4,0.4,11,0.9l0,0c15.5,1.4,31.5,2.6,47.2,3.3
											c4.8,0.2,9.6,0.4,14.3,0.5c0.5,0,1,0,1.4,0.1c0.8,0,1.6,0.1,2.4,0.1c3.8,0.1,7.6,0.3,11.4,0.3c1.3,0.1,2.5,0.1,3.8,0.2
											C199.6,48.8,207.3,49.8,215.3,50.1"/>
										<path class="st23" d="M211.6,47.8c1.1,0,2.2,0.1,3.3,0.1c4.9,0.2,9.9-0.9,15.3-0.6c0.5,0,1,0.1,1.5,0.1l0-0.3
											c-0.5,0-1-0.1-1.5-0.1c-5.5-0.2-10.5,0.8-15.3,0.6l0,0l0,0c-1.1,0-2.2,0-3.3-0.1c-7.6-0.3-14.8-1.9-22.4-2.2
											c-0.9,0-1.8-0.1-2.7-0.1c-1,0-2-0.1-2.9-0.1c-1.9-0.1-3.7-0.1-5.6-0.2c-1.1,0-2.2-0.1-3.3-0.1c-1.2-0.1-2.4-0.1-3.6-0.2
											l0,0c-0.1,0-0.2,0-0.3,0c-5.7-0.2-11.6,0.1-17.1-0.1c0,0,0,0-0.1,0c-1.4-0.1-2.8-0.2-4.1-0.3v0c-15.8-1.9-31.3-3-46.8-3.6
											c-7.6-0.3-15.1-0.6-22.7-0.7c-1.2,0-2.4-0.1-3.6-0.1l0,0l0,0c-1.2,0.1-2.3,0.1-3.5,0.2c-14.1,0-28.4-1.1-42.8-0.6
											c-1-0.1-1.9-0.2-2.9-0.3c-1.9-0.2-3.9-0.5-5.8-0.8l0,0l0,0c-1.1-0.1-2.2-0.2-3.4-0.2c-0.2,0-0.4,0-0.6,0
											c-4.8-0.2-9.6-0.2-14.4-0.2c-1,0-2,0-3,0c-3.1,0-6.9-0.2-9.6-0.3l0,0.3c2.7,0.1,6.5,0.3,9.6,0.3c1,0,2,0,3,0
											c4.8,0,9.6,0,14.4,0.2c0.2,0,0.4,0,0.6,0c1.1,0.1,2.2,0.1,3.3,0.2c1.9,0.3,3.8,0.6,5.8,0.8c1,0.1,2,0.2,2.9,0.3l0,0l0,0
											c14.4-0.5,28.7,0.6,42.8,0.6l0,0c1.2,0,2.4-0.1,3.5-0.2c1.2,0,2.4,0,3.6,0.1c7.6,0.2,15.1,0.4,22.7,0.7
											c15.4,0.7,30.9,1.7,46.7,3.6c1.4,0.2,2.8,0.3,4.2,0.3c5.6,0.2,11.5-0.1,17.2,0.1c0.1,0,0.2,0,0.3,0
											c1.2,0.1,2.4,0.1,3.6,0.2c1.1,0.1,2.2,0.1,3.3,0.1c1.9,0.1,3.8,0.2,5.6,0.2c1,0,2,0.1,3,0.1l0,0c0.9,0,1.8,0,2.7,0.1
											c0,0,0,0,0,0C196.8,46,204,47.5,211.6,47.8"/>
										<path class="st23" d="M149.7,43L149.7,43c2.8,0.1,5.7,0.1,8.6,0c1,0,1.9,0,2.9-0.1l0,0l0,0c2.6-0.4,5.3-0.3,8-0.2
											c1.7,0.1,3.4,0.2,5.1,0.3c0.8,0,1.5,0.1,2.3,0.1c1.1,0,2.2,0.1,3.3,0.1c1.9,0.1,3.8,0.1,5.8,0.2c1,0,1.9,0.1,2.9,0.1
											c8.1,0.5,16.3,1.3,24.4,1.7c5.8,0.2,11.6,0.3,17.3-0.2c1.2,0,1.8,0.1,1.8,0.1l0-0.3c0,0-0.2,0-0.4,0c-0.3,0-0.7,0-1.3-0.1
											l0,0l0,0c-5.6,0.4-11.4,0.4-17.3,0.2c-8.1-0.3-16.3-1.1-24.4-1.7l0,0l0,0c-1,0-1.9-0.1-2.9-0.1c-1.9-0.1-3.8-0.1-5.8-0.2
											c-1.1,0-2.2-0.1-3.3-0.1c-0.8,0-1.5,0-2.3-0.1c-1.7-0.1-3.4-0.2-5.1-0.3c-2.7-0.1-5.4-0.1-8.1,0.2c-1,0-1.9,0-2.9,0.1
											c-2.9,0.1-5.7,0.1-8.5,0c-18.7-1.2-36.5-4.2-55.1-5c-5.6-0.2-11.2-0.3-17,0c-1.3,0.1-2.6,0.1-4,0.2c-0.8,0-1.6,0-2.3-0.1
											c-0.5,0-1,0-1.5-0.1c-0.3,0-0.5,0-0.8,0c-0.1,0-0.2,0-0.3,0c-0.8,0-1.5-0.1-2.3-0.1c-0.9-0.1-1.7-0.2-2.6-0.3
											c-3.5-0.7-6.9-1-10.4-1.2c-7.2-0.3-14.4,0.2-21.7-0.1c-0.4,0-0.8,0-1.2-0.1h0C29.7,36,29,36,28.2,36
											c-2.3-0.1-4.7-0.2-7-0.3c-1-0.1-1.9-0.2-2.9-0.2c-0.3,0-0.6,0-0.9,0c-5.7-0.2-11.1,0.1-17-0.2c-0.6,0-1.2-0.1-1.9-0.1
											C-2.6,35-3.9,35-5.1,34.9l0,0.3c1.2,0.1,2.5,0.2,3.7,0.2c0.6,0,1.2,0.1,1.9,0.1c5.9,0.3,11.2-0.1,17,0.2
											c0.3,0,0.6,0,0.9,0c0.9,0,1.9,0.1,2.9,0.2h0l0,0c2.3,0.1,4.7,0.2,7,0.3c0.8,0,1.5,0.1,2.3,0.1c0.4,0,0.8,0,1.2,0.1
											c7.4,0.3,14.5-0.2,21.6,0.1c0,0,0,0,0.1,0c3.4,0.1,6.8,0.5,10.3,1.2l0,0l0,0c0.9,0.1,1.8,0.2,2.6,0.3
											c0.8,0.1,1.5,0.1,2.3,0.1c0.1,0,0.2,0,0.3,0c0.3,0,0.5,0,0.8,0c0.5,0,1,0,1.5,0.1c0.8,0,1.6,0,2.4,0.1l0,0l0,0
											c1.3-0.1,2.6-0.2,4-0.2c5.8-0.3,11.4-0.2,16.9,0C113.2,38.8,130.9,41.8,149.7,43"/>
										<path class="st23" d="M149.4,40.9c1.7,0.1,3.3,0.1,5,0.1c1,0,2.1,0,3.1-0.1c5.7-0.2,11.5-0.3,17.4-0.1
											c1.7,0.1,3.4,0.2,5.2,0.3l0,0l0,0l0.2,0c1.1,0,2.1,0.1,3.2,0.1c1.1,0,2.2,0.1,3.4,0.1c1.1,0,2.3,0.1,3.4,0.1
											c4.3,0.3,8.6,0.5,13,0.7c8.2,0.3,16.4,0.5,24.3,0.1c1,0,1.8,0.1,2.5,0.1c1.4,0.1,2.1,0.1,2.1,0.1l0-0.2c0,0-0.7,0-2.1-0.1
											c-0.7,0-1.5-0.1-2.5-0.1l0,0l0,0c-7.9,0.3-16.1,0.2-24.2-0.2c-4.4-0.2-8.7-0.4-13-0.7l0,0l0,0c-1.1,0-2.3-0.1-3.4-0.1
											c-1.1,0-2.2-0.1-3.4-0.1c-1.1,0-2.1-0.1-3.2-0.1l-0.2,0c-1.7-0.1-3.5-0.3-5.2-0.3c-5.9-0.3-11.8-0.1-17.5,0.1
											c-1,0-2.1,0.1-3.1,0.1c-1.7,0-3.4,0-5-0.1c-2.4-0.1-4.7-0.3-7-0.8c-12.6-2.5-25.1-3.5-37.4-4c-10.4-0.4-20.8-0.6-31.1-1
											c-5.7-0.2-11.3-0.6-17-1.1c-1.2-0.1-2.5-0.2-3.7-0.3c-0.5,0-1-0.1-1.5-0.1c-5.5-0.2-11.8,0.8-17.1,0.8h0v0c-1,0-2,0-3,0
											c-0.8,0-1.7,0-2.5-0.1c-2.2-0.1-4.5-0.3-6.8-0.7l0,0l0,0c-1.1-0.1-2.3-0.1-3.4-0.2C18,33,17,33,16.1,32.9
											c-3.7-0.2-7.7,0.3-11.5,0.1c-0.9,0-1.8-0.1-2.7-0.2l0,0l0,0c-0.7,0-1.4-0.1-2.1-0.1c-0.5,0-0.9,0-1.4-0.1l0,0.3
											c0.4,0,0.9,0,1.4,0.1c0.7,0,1.4,0.1,2.1,0.1c0.9,0.1,1.8,0.2,2.7,0.2c3.8,0.2,7.8-0.3,11.5-0.1c0.9,0,1.8,0.1,2.7,0.3l0,0
											l0,0c1.1,0.1,2.2,0.1,3.4,0.2c2.4,0.4,4.6,0.6,6.9,0.7c0.8,0,1.7,0.1,2.5,0.1c1,0,2,0,3,0c5.4,0,11.6-1,17.1-0.8
											c0.5,0,1,0.1,1.4,0.1c1.2,0.1,2.5,0.2,3.7,0.3c5.7,0.5,11.4,0.9,17,1.1c10.3,0.4,20.7,0.6,31.1,1
											c12.4,0.5,24.8,1.5,37.4,4C144.6,40.6,147,40.8,149.4,40.9"/>
										<path class="st23" d="M198.9,39.8c8.3,0.4,16.5,0.3,25,0c0.8,0,1.5,0.1,2.2,0.1c4,0.2,6.2,0.3,6.2,0.3l0-0.3
											c0,0-2.2-0.1-6.2-0.3c-0.7,0-1.4-0.1-2.2-0.1l0,0l0,0c-8.6,0.3-16.7,0.4-25,0.1c-2.8-0.1-5.5-0.3-8.4-0.5l0,0l0,0
											c-1,0-2.1-0.1-3.1-0.1c-0.8,0-1.6-0.1-2.3-0.1c-0.4,0-0.8,0-1.1,0l0,0c-4-0.2-7.8-0.4-11.6-0.6c-4.9-0.2-9.7-0.4-14.8-0.5
											c-1.3-0.1-2.6-0.1-3.9-0.2c-26.3-1.5-52.5-4.4-79.3-5.6c-5.9-0.3-11.9-0.4-17.9-0.5h0c-1.2,0-2.4,0-3.6,0
											c-1.2,0-2.4,0-3.6,0.1c-7,0.2-13.4,0.1-20.2-0.2c-2.2-0.1-4.4-0.2-6.7-0.3c-0.8-0.1-1.5-0.1-2.3-0.2
											c-3.1-0.3-6.2-0.7-9.3-1.2l0,0l0,0c-1.2,0-16.9,0.9-18.1,0.9l0,0.3c1.2,0,16.7-0.9,18.1-0.9c3.1,0.5,6.2,0.9,9.4,1.2
											c0.8,0.1,1.6,0.1,2.3,0.2l0,0l0,0c2.3,0.1,4.5,0.2,6.7,0.3c6.8,0.3,13.2,0.4,20.3,0.2c1.2,0,2.4,0,3.6-0.1
											c1.2,0,2.4,0,3.6,0c6,0,12,0.2,17.9,0.5c26.7,1.1,52.9,4.1,79.3,5.5c1.3,0.1,2.6,0.1,3.9,0.2l0,0c5,0.1,9.9,0.3,14.8,0.5
											c3.8,0.2,7.6,0.4,11.5,0.6c0.4,0,0.8,0,1.1,0.1c0.8,0,1.6,0.1,2.3,0.1c1,0,2.1,0.1,3.1,0.1
											C193.4,39.6,196.2,39.7,198.9,39.8"/>
										<path class="st23" d="M190.4,37c0.4,0,0.7,0,1.1,0c0.8,0,1.6,0.1,2.4,0.1l0,0c2.1,0,4.2,0.1,6.2,0.2
											c1.6,0.1,3.2,0.1,4.8,0.2c4.3,0.2,8.6,0.3,13.1,0c1.1,0,2.3,0,3.4,0c1.2,0,2.3,0,3.5-0.1c0.7,0,1.4,0.1,2,0.1
											c3.7,0.2,5.6,0.2,5.6,0.2l0-0.2c0,0-2-0.1-5.6-0.2c-0.6,0-1.3-0.1-2-0.1l0,0l0,0c-1.2,0-2.3,0.1-3.5,0.1
											c-1.2,0-2.3,0-3.5,0l0,0l0,0c-4.5,0.3-8.7,0.2-13,0c-1.6-0.1-3.2-0.1-4.8-0.2c-2-0.1-4.1-0.2-6.2-0.2
											c-0.8,0-1.6-0.1-2.4-0.1c-0.4,0-0.7,0-1.1,0c-1.1,0-2.3-0.1-3.4-0.2c-4.5-0.7-8.8-1-13.2-1.2c-5.3-0.2-10.5-0.3-15.9-0.5
											c-1.4-0.1-2.8-0.1-4.1-0.2h0c-1.3-0.1-2.6-0.1-3.9-0.2c-7.7-0.5-15.4-0.9-23.1-1.3c-1.3-0.1-2.6-0.1-3.8-0.2l0,0l0,0
											c-0.2,0-0.4,0-0.6,0c0,0,0,0,0,0c-1.5-0.1-3.2-0.5-4.9-0.6c-0.7,0-1.4,0-2.1,0.2c-1.3-0.1-2.5-0.1-3.8-0.2l0,0l0,0
											c-17.9-1-35.8-2-53.6-2.9l0,0h0c-1.1,0-2.2,0-3.3,0c-1.1,0-2.2,0-3.3,0c-1.1,0-2.2,0-3.3,0l0,0l0,0
											c-2.6,0.4-5.3,0.4-7.9,0.3c-4.5-0.2-9.1-0.8-13.6-1c-0.8,0-1.5-0.1-2.3-0.1c-0.7-0.1-1.4-0.1-2.2-0.2
											c-2.2-0.2-4.4-0.6-6.6-0.9l0,0l0,0c-1.3,0.1-2.5,0.1-3.8,0.2c-4.8,0.2-9.5,0.2-14.2,0.1c-1.2,0-2.4-0.1-3.5-0.1l0,0.3
											c1.2,0,2.4,0.1,3.5,0.1C2.1,28,6.9,28,11.7,27.8c1.3,0,2.5-0.1,3.8-0.2c2.2,0.4,4.5,0.7,6.6,0.9c0.7,0.1,1.5,0.2,2.2,0.2
											l0,0l0,0c0.7,0,1.5,0,2.2,0.1c4.4,0.2,9,0.8,13.6,1c2.7,0.1,5.3,0.1,8-0.3c1.1,0,2.2,0,3.3,0c1.1,0,2.2,0,3.3,0
											c1.1,0,2.2,0,3.3,0c17.8,0.9,35.7,1.9,53.6,2.9c1.3,0.1,2.6,0.1,3.8,0.2l0,0l0,0c0.6-0.2,1.3-0.2,2-0.2
											c1.6,0.1,3.4,0.5,5,0.6c0.2,0,0.5,0,0.7,0c1.3,0.1,2.5,0.1,3.8,0.2c7.7,0.4,15.4,0.9,23.1,1.3c1.3,0.1,2.6,0.2,3.9,0.2
											c1.4,0.1,2.8,0.2,4.2,0.2c5.4,0.2,10.6,0.3,15.9,0.5c4.4,0.2,8.7,0.5,13.1,1.2l0,0l0,0C188.2,36.9,189.3,36.9,190.4,37"/>
										<path class="st23" d="M198.2,35c4.9,0.2,10.2,0.4,15.6,0.5c1,0,2.1,0,3.1,0c5.2,0,10.4,0,15.7-0.2l0-0.3
											c-5.2,0.2-10.5,0.2-15.7,0.2c-1,0-2.1,0-3.1,0c-5.3,0-10.6-0.3-15.6-0.5c-1,0-2.1-0.1-3.1-0.1c-1.1-0.1-2.3-0.1-3.4-0.2
											c-7.8-1-15.6-2-23.7-2.3c-4.3-0.2-8.6-0.2-13.1,0.1c-1.1-0.1-2.2-0.1-3.3-0.2c-3.3-0.2-6.5-0.5-9.8-0.8l0,0
											c-1.2-0.1-2.4-0.1-3.5-0.2c-1.8-0.1-3.5-0.2-5.3-0.3c-0.7,0-1.5-0.1-2.2-0.1c-0.1,0-0.3,0-0.4,0l0,0
											c-7.1-0.1-13.1-0.4-20.3-0.6c-1.3,0-2.5-0.1-3.8-0.1c-0.8,0-1.5-0.1-2.3-0.1c-14.4-0.6-28.9-1.9-42.9-2.7l0,0
											c-1.2,0-2.5,0-3.7,0c-3.7,0-7.3,0.1-10.9,0.2c-1.2,0-2.4,0.1-3.6,0.1c-0.7-0.1-1.3-0.1-2-0.1c-3.8-0.2-7.7,0.3-11.1,0.1
											c-0.4,0-0.8,0-1.1-0.1l0,0c-1.2-0.1-2.4-0.2-3.5-0.3c-3.5-0.4-7.1-1-10.6-2l0,0l0,0c-1.3,0-18.3,0.2-19.6,0.2l0,0.3
											c1.3,0,18-0.2,19.5-0.2c3.6,1,7.1,1.6,10.7,2c1.2,0.1,2.4,0.2,3.6,0.3c0.4,0,0.8,0.1,1.1,0.1c3.4,0.1,7.4-0.3,11.1-0.1
											c0.7,0,1.3,0.1,2,0.1l0,0l0,0c1.2,0,2.4-0.1,3.6-0.1c3.6-0.1,7.2-0.2,10.9-0.2c1.2,0,2.4,0,3.7,0
											c13.9,0.8,28.5,2.1,42.9,2.7c0.8,0,1.5,0.1,2.3,0.1c1.3,0,2.5,0.1,3.8,0.1c7.2,0.3,13.2,0.5,20.3,0.6c0.1,0,0.3,0,0.4,0
											c0.7,0,1.5,0.1,2.2,0.1c1.8,0.1,3.5,0.2,5.3,0.3c1.2,0.1,2.4,0.1,3.5,0.2c3.3,0.3,6.6,0.5,9.8,0.8
											c1.1,0.1,2.2,0.1,3.3,0.2l0,0l0,0c4.4-0.3,8.8-0.3,13-0.1c8.1,0.3,15.9,1.3,23.7,2.3h0l0,0c1.1,0.1,2.3,0.1,3.4,0.2
											C196.1,34.9,197.2,35,198.2,35"/>
										<path class="st23" d="M205,33.4c8.9,0.4,17.7,0.4,26.7-0.5l-0.1-0.3c-8.9,0.8-17.8,0.9-26.6,0.5
											c-3.8-0.2-7.5-0.4-11.3-0.7c-1.3-0.1-2.5-0.2-3.7-0.3c-5.7-1.7-11.6-2.2-17.6-2.5c-5.1-0.2-10.3-0.2-15.4-0.4
											c-0.9,0-1.7-0.1-2.6-0.1l0,0c-0.9,0-1.7,0-2.5,0c-1.2-0.1-2.4-0.2-3.5-0.3c-1.9-0.1-3.8-0.2-5.7-0.3
											c-1.7-0.1-3.3-0.1-5-0.2c-1.2,0-2.4-0.1-3.5-0.1h0l0,0c-9.2,0.2-19-0.2-28,0c-1.2,0-2.4,0-3.5,0c-1.3,0-2.5-0.1-3.8-0.1
											c-10.5-0.4-21.1-1.9-31.6-2.8l0,0c-1.3-0.1-2.6-0.2-3.9-0.3l0,0l0,0c-7.6,0.1-15.2,0.3-22.7,0c-6.7-0.3-13.4-1-20-2.4l0,0
											l0,0l0,0C19.1,22.5-4.8,22.7-6,22.7l0,0.3c1.3,0,25.1-0.2,26.6-0.1c6.6,1.5,13.4,2.1,20.1,2.4c7.5,0.3,15.1,0.2,22.7,0
											c1.3,0.1,2.6,0.2,3.9,0.3c10.5,1,21.1,2.4,31.6,2.8c1.3,0.1,2.5,0.1,3.8,0.1c1.2,0,2.4,0,3.5,0h0c8.9-0.1,18.7,0.3,28,0
											c1.2,0,2.4,0,3.5,0.1c1.6,0,3.3,0.1,4.9,0.2c1.9,0.1,3.8,0.2,5.6,0.3c1.2,0.1,2.4,0.2,3.5,0.3l0,0l0,0
											c0.8-0.1,1.7-0.1,2.5,0c0.8,0.1,1.7,0.1,2.6,0.1c5.2,0.2,10.4,0.2,15.4,0.4c6,0.3,11.8,0.8,17.5,2.5l0,0l0,0
											c1.3,0.1,2.5,0.2,3.8,0.3C197.5,33,201.2,33.3,205,33.4"/>
										<path class="st23" d="M207.5,31.1c7.4,0.3,14.7,0.3,22.2-0.5l-0.1-0.2c-7.4,0.7-14.8,0.8-22.1,0.5
											c-3.6-0.2-7.3-0.4-10.9-0.7c-1.2-0.1-2.4-0.2-3.6-0.3c-8-1.5-16.1-2.3-24.3-2.7c-4.7-0.2-9.5-0.3-14.3-0.2
											c-1.1,0-2.2-0.1-3.4-0.1c-3.1-0.1-6.2-0.2-9.3-0.2c-1,0-2.1,0-3.1-0.1h0l0,0c-11.2,0.7-23.2-0.3-34.9-0.4
											c-0.7,0-1.4,0-2.2,0c-1.4,0-2.9,0-4.3-0.1c-0.6,0-1.2,0-1.9-0.1c-0.5,0-0.9,0-1.4-0.1c-1-0.1-1.9-0.1-2.8-0.2
											c-1.1,0-2.1-0.1-3.1-0.1c-2.4-0.1-4.6-0.3-7-0.9l0,0l0,0c-1.1-0.2-2.2-0.3-3.2-0.5c-1.2-0.2-2.4-0.4-3.6-0.6l0,0l0,0
											c-1.2-0.1-2.4-0.1-3.5-0.2c-1.2-0.1-2.4-0.1-3.6-0.2c-0.4,0-0.8,0-1.1-0.1c-9.2-0.4-18.3,0.2-27.2-0.2
											c-5-0.2-9.9-0.7-14.7-1.9l0,0l0,0c-1.2-0.1-2.3-0.1-3.5-0.2c-1.2-0.1-2.4-0.1-3.5-0.2h0c-1.3-0.1-2.6-0.1-3.9-0.2
											c-1.3-0.1-2.6-0.1-3.9-0.2C7.9,20.2-5,19.1-6.3,19.1l0,0.3c1.3,0.1,14.2,1.1,15.5,1.2c1.3,0.1,2.6,0.1,3.9,0.2
											c1.3,0.1,2.6,0.1,3.9,0.2c1.2,0.1,2.3,0.1,3.5,0.2c1.2,0.1,2.3,0.1,3.5,0.2c4.8,1.2,9.8,1.7,14.7,1.9
											c8.9,0.4,18-0.2,27.2,0.2c0.4,0,0.8,0,1.1,0.1c1.2,0.1,2.4,0.1,3.6,0.2c1.2,0.1,2.4,0.1,3.5,0.2c1.2,0.2,2.4,0.4,3.6,0.6
											c1.1,0.2,2.2,0.3,3.2,0.5c2.5,0.7,4.8,0.8,7.1,0.9c1,0,2.1,0.1,3.1,0.1c0.9,0,1.8,0.1,2.7,0.2l0,0c0.5,0,0.9,0,1.4,0.1
											c0.6,0,1.2,0.1,1.9,0.1c1.4,0,2.9,0.1,4.3,0.1c0.7,0,1.4,0,2.2,0c11.7,0.1,23.7,1.1,35,0.4c1,0,2.1,0,3.1,0.1
											c3.1,0.1,6.2,0.1,9.3,0.2c1.1,0,2.2,0.1,3.4,0.1h0l0,0c4.8,0,9.5,0,14.2,0.2c8.2,0.4,16.3,1.1,24.3,2.6l0,0l0,0
											c1.2,0.1,2.4,0.2,3.7,0.3C200.2,30.7,203.8,30.9,207.5,31.1"/>
										<path class="st23" d="M100.8,24.2L100.8,24.2c1.1,0,2.2,0.1,3.3,0.1h0c12.8,0.1,26.4,1.2,39.5,0.6c1,0,2,0,3,0.1
											c2,0.1,4,0.1,6,0.2c1.3,0,2.6,0.1,3.8,0.1l0,0c6.8,0,13.4-0.1,20,0.2c4.9,0.2,9.8,0.6,14.8,1.3l0,0l0,0
											c0.9,0.1,1.9,0.2,2.8,0.2c1.9,0.2,3.9,0.4,6,0.7h0c1.1,0.1,2.2,0.3,3.4,0.4c3.4,0.4,6.8,0.7,10.3,0.8
											c4.5,0.2,9.1,0.1,13.8-0.5l-0.1-0.2c-4.6,0.6-9.2,0.7-13.7,0.5c-3.4-0.1-6.8-0.5-10.3-0.8c-1.1-0.1-2.3-0.2-3.4-0.4
											c-2.1-0.3-4.1-0.5-6-0.7c-1-0.1-1.9-0.2-2.8-0.2c-5-0.7-9.9-1.1-14.9-1.3c-6.6-0.3-13.2-0.3-20-0.2
											c-1.3,0-2.5-0.1-3.8-0.1c-2,0-4-0.1-6-0.2c-1,0-2-0.1-3-0.1l0,0h0c-13.1,0.7-26.7-0.4-39.5-0.6c-1.1,0-2.2-0.1-3.3-0.1
											l-0.1,0c-4.4-0.2-8.8-0.6-13.2-1.1c-1.1-0.1-2.2-0.3-3.3-0.4l0,0l0,0c-0.4,0-0.7,0-1.1,0c0,0,0,0,0,0
											c-3.6-0.2-7.3-1.6-11.3-1.8c-1.1,0-2.3,0-3.4,0.2c-1.2,0-2.5-0.1-3.7-0.1c-0.8-0.1-1.6-0.1-2.4-0.1
											c-8.2-0.3-16.6,0.5-24.7,0.2c-3.5-0.1-6.9-0.5-10.2-1.3l0,0l0,0c-1.2-0.1-2.4-0.2-3.7-0.2c-1.2-0.1-2.5-0.2-3.7-0.2
											c-1.3-0.1-2.6-0.2-3.9-0.2c-3.2-0.2-6.5-0.4-9.7-0.6c-1.1-0.1-2.2-0.1-3.2-0.2c-3.8-0.3-6.8-0.4-10.2-0.7l0,0.2
											c3.4,0.3,6.4,0.4,10.2,0.7c1.1,0.1,2.2,0.1,3.2,0.2c3.2,0.2,6.5,0.4,9.7,0.6c1.3,0.1,2.6,0.2,3.9,0.2
											c1.2,0.1,2.5,0.2,3.7,0.2c1.2,0.1,2.4,0.1,3.6,0.2c3.4,0.8,6.8,1.2,10.3,1.3c8.2,0.3,16.6-0.5,24.7-0.2
											c0.8,0,1.6,0.1,2.4,0.1h0l0,0c1.3,0,2.5,0.1,3.8,0.1l0,0l0,0c1.1-0.2,2.3-0.3,3.3-0.2c0,0,0,0,0,0
											c3.9,0.2,7.5,1.6,11.3,1.7c0.4,0,0.7,0,1.1,0c1.1,0.1,2.2,0.3,3.3,0.4C92,23.6,96.4,24,100.8,24.2"/>
										<path class="st23" d="M99,21.9c0.6,0,1.2,0,1.7,0.1c1,0,2,0.1,3,0.1c13.4,0.4,27.7,1.5,41.4,0.1c0.7,0,1.5,0,2.2,0
											c0.7,0,1.4,0,2.1,0.1c1.6,0.1,3.2,0.2,4.9,0.4l0,0l0,0c1.1,0,2.2,0.1,3.4,0.1c0.9,0,1.9,0.1,2.8,0.1
											c0.9,0,1.9,0.1,2.8,0.1c0.2,0,0.4,0,0.6,0c5.3,0.2,10.3,0.2,15.5,0.5c2.6,0.1,5.3,0.3,8.1,0.6h0c1,0.1,2,0.1,3,0.2
											c4,0.3,8,0.6,12.3,1c0.9,0.1,1.8,0.2,2.7,0.3c0.9,0.1,1.8,0.2,2.7,0.3c1.1,0.1,2.1,0.2,3.2,0.3c1.6,0.1,3.2,0.2,4.8,0.3
											c3.7,0.2,7.4,0.1,11.1-0.4l-0.1-0.2c-3.7,0.4-7.3,0.5-11,0.4c-1.6-0.1-3.2-0.2-4.8-0.3c-1.1-0.1-2.1-0.2-3.2-0.3
											c-0.9-0.1-1.8-0.2-2.7-0.3c-0.9-0.1-1.8-0.2-2.7-0.3c-4.3-0.5-8.3-0.8-12.3-1c-1-0.1-2-0.1-3-0.2
											c-2.8-0.3-5.4-0.4-8.1-0.6c-5.2-0.2-10.2-0.2-15.5-0.5c-0.2,0-0.4,0-0.6,0c-0.9,0-1.9-0.1-2.8-0.1c-0.9,0-1.9-0.1-2.8-0.1
											c-1.1,0-2.2-0.1-3.3-0.1c-1.7-0.2-3.3-0.3-4.9-0.4c-0.7,0-1.4-0.1-2.1-0.1c-0.8,0-1.5,0-2.3,0l0,0l0,0
											c-13.6,1.5-27.9,0.3-41.4-0.1h0c-1,0-2,0-2.9-0.1c-0.6,0-1.2,0-1.7-0.1c-2.4-0.1-4.7-0.3-7-0.5c-1.2-0.1-2.3-0.2-3.5-0.4
											h0c-7.4-0.6-15.3-2.2-22.8-2.6c-0.8,0-1.7-0.1-2.5-0.1c-1,0-2-0.1-2.9-0.1c-1.8-0.1-3.6-0.1-5.4-0.2
											c-7-0.3-13.9-0.7-20.7-1.3h0c-1.2-0.1-2.4-0.1-3.5-0.2c-5.3-0.3-10.7-0.6-16-0.8c-0.9,0-1.8-0.1-2.7-0.1l0,0
											c-0.4,0-0.8,0-1.2,0c0,0,0,0,0,0C6.8,15.3,3,14.5-0.9,14.4c-1.9-0.1-3.8,0-5.7,0.3l0.1,0.2c1.9-0.3,3.8-0.4,5.6-0.3
											c3.9,0.2,7.6,0.9,11.6,1.1c0.4,0,0.8,0,1.2,0l0,0c0.9,0,1.8,0.1,2.7,0.1c5.3,0.2,10.6,0.5,16,0.8c1.2,0.1,2.4,0.1,3.5,0.2
											c6.8,0.6,13.8,1,20.8,1.3c1.8,0.1,3.6,0.1,5.4,0.2c1,0,2,0.1,2.9,0.1l0,0h0c0.8,0,1.6,0,2.5,0.1
											c7.4,0.3,15.4,1.9,22.8,2.6c1.2,0.1,2.3,0.3,3.5,0.4C94.3,21.6,96.7,21.8,99,21.9"/>
										<path class="st23" d="M123.8,20.8c0.9,0,1.7,0,2.6,0c7.5,0.3,14.4-1.4,21.8-1c0.1,0,0.2,0,0.3,0h0c1,0,1.9,0.1,2.9,0.1
											c0.7,0,1.4,0.1,2,0.1c2.2,0.1,4.5,0.2,6.8,0.3c1.1,0.1,2.2,0.1,3.3,0.2c0.8,0.1,1.7,0.1,2.5,0.1c0.6,0,1.3,0.1,1.9,0.1
											c0.2,0,0.4,0,0.6,0h0c0.8,0,1.6,0,2.4,0.1c1.7,0.1,3.5,0.2,5.3,0.3c2.4,0.1,4.8,0.1,7.2-0.2c1,0,2,0,3,0
											c2.1,0,4.3,0.1,6.4,0.2c4.9,0.2,9.9,0.6,14.6,1.5l0,0l0,0c0.8,0.1,1.6,0.1,2.4,0.2c3.3,0.2,6.5,0.5,9.5,0.8l0,0l0,0
											c1,0,2.1,0.1,3.1,0.1c2.1,0,4.2,0,6.4-0.2l0-0.3c-2.2,0.1-4.3,0.2-6.4,0.2c-1,0-2.1,0-3.1-0.1c-3-0.3-6.3-0.5-9.5-0.8
											c-0.8-0.1-1.6-0.1-2.4-0.2c-4.8-0.9-9.7-1.3-14.6-1.5c-2.2-0.1-4.3-0.1-6.4-0.2c-1,0-2,0-3,0l0,0l0,0
											c-2.3,0.3-4.6,0.3-7.1,0.2c-1.8-0.1-3.5-0.2-5.3-0.3c-0.8,0-1.6-0.1-2.4-0.1c-0.2,0-0.4,0-0.6,0c-0.6,0-1.3-0.1-1.9-0.1
											c-0.8,0-1.7-0.1-2.5-0.1c-1.1-0.1-2.2-0.1-3.3-0.2h0c-2.3-0.1-4.5-0.2-6.8-0.3c-0.7,0-1.4-0.1-2-0.1c-1,0-1.9-0.1-2.9-0.1
											c-0.1,0-0.2,0-0.3,0c-7.5-0.3-14.4,1.4-21.8,1l0,0l0,0c-0.9,0-1.7,0-2.6,0c0,0,0,0,0,0c-5.2-0.2-10.3-1.3-15.7-1.6
											c-1.5-0.1-3.1-0.1-4.7,0.1c-1.1,0-2.2,0-3.3-0.1c-0.5,0-0.9,0-1.4-0.1c-0.6,0-1.3-0.1-1.9-0.1c-1.1-0.1-2.2-0.1-3.3-0.2
											l0,0c-0.2,0-0.3,0-0.5,0c-8.8-0.4-17.9-2.3-26.9-2.7c-1,0-2.1-0.1-3.1-0.1c-1,0-2-0.1-3-0.1c-2.2-0.1-4.5-0.2-6.8-0.3
											c-3-0.1-6-0.3-8.7-0.4c-1,0-2.1-0.1-3.1-0.1c-0.3,0-0.6,0-0.9,0c-1.7-0.1-3.4-0.2-4.9-0.2c-1.2,0-2.3-0.1-3.5-0.1
											c-4.3-0.2-8.7-0.4-13.1-0.6c-0.9,0-1.8-0.1-2.6-0.1l0,0l0,0c-0.6,0-1.3,0-2,0c0,0,0,0,0,0C8.2,13.5-0.9,11.3-6.2,11l0,0.2
											C-1,11.5,8.1,13.8,14.4,14c0.7,0,1.4,0,2.1,0c0.9,0,1.8,0.1,2.6,0.1c4.4,0.2,8.8,0.4,13.1,0.6c1.2,0,2.3,0.1,3.5,0.1
											c1.5,0.1,3.1,0.2,4.9,0.2c0.3,0,0.6,0,0.9,0c1,0,2.1,0.1,3.1,0.1c2.8,0.1,5.7,0.3,8.7,0.4c2.3,0.1,4.6,0.2,6.8,0.3
											c1,0,2,0.1,3,0.1l0,0c1,0,2.1,0,3.1,0.1c0,0,0,0,0,0c8.9,0.4,18,2.3,26.8,2.7c0.2,0,0.3,0,0.5,0c1.1,0.1,2.2,0.2,3.3,0.2
											c0.6,0,1.3,0.1,1.9,0.1c0.5,0,0.9,0,1.4,0.1c1.1,0,2.2,0.1,3.3,0.1l0,0l0,0c1.6-0.1,3.1-0.1,4.6-0.1
											C113.4,19.4,118.6,20.6,123.8,20.8"/>
										<path class="st23" d="M91,16.2c3.1,0.1,6.3,0.1,9.5-0.1c1.2,0,2.5,0,3.7,0c1.2,0,2.4,0,3.6,0c4.4,0.8,8.7,1.2,13,1.4
											c9.5,0.4,18.7-0.3,28.6-0.3c0.2,0,0.5,0,0.7,0c0.6,0,1.3,0.1,1.9,0.1c2.6,0.1,5.3,0.3,7.9,0.6l0,0l0,0
											c1.2,0.1,2.4,0.1,3.6,0.2c2.9,0.2,5.7,0.3,8.6,0.4c1.9,0.1,3.8,0.1,5.7,0.2l0,0c1.2,0,2.4-0.1,3.5-0.1
											c4.1-0.1,8.2-0.2,12.2,0c4,0.2,8.1,0.6,12.1,1.4l0,0l0,0c1,0,2,0,3,0c2.9,0,5.9,0,8.7,0.1c2,0.1,3.9,0.2,5.8,0.5l0,0l0,0
											c0.9,0,1.8,0.1,2.6,0.1c1.8,0.1,3.5,0.2,5.2,0.2l0-0.2c-1.7-0.1-3.5-0.2-5.2-0.2c-0.9,0-1.7-0.1-2.6-0.1
											c-1.9-0.3-3.9-0.4-5.9-0.5c-2.9-0.1-5.8-0.1-8.8-0.1c-1,0-2,0-2.9,0c-4.1-0.8-8.1-1.2-12.2-1.4c-4.1-0.2-8.2-0.1-12.3,0
											c-1.2,0-2.3,0.1-3.5,0.1c-1.9,0-3.7-0.1-5.6-0.2c-2.9-0.1-5.7-0.3-8.6-0.4c-1.2-0.1-2.4-0.1-3.6-0.2
											c-2.6-0.3-5.3-0.5-7.9-0.6c-0.7,0-1.3-0.1-1.9-0.1c-0.2,0-0.5,0-0.7,0h0l0,0c-9.9,0-19.2,0.7-28.6,0.3
											c-4.2-0.2-8.5-0.6-12.9-1.4l0,0l0,0c-1.2,0-2.4,0-3.7,0c-1.2,0-2.5,0-3.7,0l0,0h0c-3.2,0.3-6.3,0.3-9.4,0.1
											c-9.6-0.4-19.1-2.2-28.5-2.6c-0.1,0-0.2,0-0.4,0c-1.1-0.1-2.3-0.1-3.4-0.2c-3.8-0.2-7.7-0.4-11.5-0.5
											c-3.1-0.1-6.2-0.3-9.1-0.4c-1,0-2-0.1-3-0.1c-2-0.1-4-0.1-5.9-0.2c-1,0-1.9-0.1-2.9-0.1c-1,0-1.9-0.1-2.9-0.1
											c-1,0-1.9-0.1-2.9-0.1l0,0h0c-0.7,0-1.5,0-2.4,0c-6.3-0.3-16.4-1.8-22.3-2c-0.5,0-1,0-1.5,0l0,0.3c0.4,0,0.9,0,1.4,0
											c5.9,0.3,15.9,1.8,22.3,2c0.9,0,1.7,0,2.4,0c1,0,1.9,0.1,2.9,0.1c1,0,1.9,0.1,2.9,0.1c1,0,1.9,0.1,2.9,0.1l0,0
											c1.9,0.1,3.9,0.1,5.9,0.2c1,0,2,0.1,3,0.1c2.9,0.1,6,0.2,9.1,0.4c3.8,0.2,7.7,0.3,11.5,0.5c1.2,0.1,2.3,0.1,3.4,0.2
											c0.1,0,0.2,0,0.4,0C71.9,14,81.3,15.8,91,16.2"/>
										<path class="st23" d="M85.7,13.1c6.8,0.3,13.5,0.2,20.2-0.5c1.2,0,2.4,0,3.5,0.1c1.1,0,2.1,0,3.2,0.1
											c3.3,0.4,6.7,0.6,10.1,0.8c8.3,0.4,16.8,0.2,24.8,0.5c0.9,0.1,1.8,0.1,2.6,0.2c3.5,0.3,7.2,0.7,11,1.1l0,0h0
											c1.1,0.1,2.2,0.1,3.3,0.2c2.2,0.1,4.5,0.2,6.7,0.3c2.1,0.1,4.2,0.2,6.2,0.2l0,0l0,0c1.1,0,2.2-0.1,3.4-0.1
											c3.2-0.1,6.5,0,9.7,0.1c6.6,0.3,13.2,1,19.9,1.8l0,0l0,0c1.2,0,2.5,0.1,3.7,0.1c6.2,0.2,12.3,0.4,18.3,0.6l0-0.3
											c-5.9-0.2-12.1-0.4-18.3-0.6c-1.2,0-2.5-0.1-3.7-0.1c-6.7-0.8-13.3-1.5-19.9-1.8c-3.2-0.1-6.4-0.2-9.7-0.1
											c-1.1,0-2.2,0.1-3.4,0.1c-2.1,0-4.1-0.1-6.2-0.2c-2.2-0.1-4.5-0.2-6.7-0.3c-1.1-0.1-2.2-0.1-3.3-0.2
											c-3.8-0.4-7.5-0.8-11-1.1c-0.9-0.1-1.8-0.2-2.7-0.2l0,0h0c-8.1-0.3-16.6-0.1-24.8-0.5c-3.4-0.1-6.7-0.4-10-0.8l0,0l0,0
											c-1.1,0-2.1-0.1-3.2-0.1c-1.2,0-2.4,0-3.6-0.1l0,0l0,0c-6.7,0.7-13.4,0.7-20.2,0.5c-8.5-0.4-17.1-1.3-26-2.2l0,0l0,0
											c-1.2-0.1-2.3-0.1-3.5-0.2c-0.4,0-0.7,0-1.1,0c-6.6-0.3-13.3-0.5-20.3-0.6c-1-0.1-2-0.1-3-0.2c-1-0.1-2-0.1-3-0.2h0
											c-1.2-0.1-2.4-0.1-3.6-0.2l0,0l0,0c-0.9,0.1-1.9,0.1-3,0C14.5,9,1.9,6.3-3.3,5.5l-0.1,0.2c5.2,0.8,17.8,3.5,25.5,3.8
											c1.1,0,2.1,0,3,0c1.2,0.1,2.4,0.1,3.6,0.2c1,0.1,2,0.1,3,0.2c1,0.1,2,0.1,3,0.2l0,0h0c7,0.1,13.7,0.3,20.3,0.6
											c0.4,0,0.7,0,1.1,0c1.2,0.1,2.3,0.1,3.5,0.2C68.5,11.8,77.1,12.8,85.7,13.1"/>
										<path class="st23" d="M81.5,10.6c10.4,0.4,20.9-0.1,31.4-0.6c1.2,0,2.3,0,3.5,0.1h0l0,0c9.4-0.4,19.2,1.1,28.1,0
											c0.6,0,1.1,0,1.7,0.1c0.4,0,0.8,0,1.2,0.1c4.8,0.3,9.6,1,14.4,2l0,0l0,0c1.2,0.1,2.4,0.1,3.6,0.2
											c4.8,0.3,9.6,0.6,14.6,0.9h0l0,0c1.1,0,2.3,0,3.4,0c2,0,4,0.1,6,0.2c5.9,0.3,11.7,0.8,17.4,1.7l0,0l0,0
											c1.1,0.1,2.1,0.1,3.2,0.2c1.3,0.1,2.6,0.1,4,0.2c5.9,0.3,11.8,0.6,17.8,0.9l0-0.2c-6-0.3-11.9-0.6-17.8-0.9
											c-1.3-0.1-2.6-0.1-4-0.2c-1,0-2.1-0.1-3.1-0.2c-5.7-0.9-11.6-1.5-17.5-1.7c-2-0.1-4-0.1-6-0.2c-1.1,0-2.3,0-3.4,0
											c-5-0.3-9.8-0.6-14.6-0.9c-1.2-0.1-2.4-0.1-3.6-0.2c-4.9-1-9.7-1.7-14.5-2c-0.4,0-0.8,0-1.2-0.1c-0.6,0-1.1,0-1.7-0.1l0,0
											l0,0c-8.8,1-18.5-0.4-28,0c-1.2,0-2.3,0-3.5-0.1h0l0,0c-10.5,0.6-21,1.1-31.3,0.6C74.6,10,67.8,9.3,61,7.9l0,0l0,0
											c-0.7,0-1.5-0.1-2.2-0.1c-0.4,0-0.7,0-1.1,0c-8.8-0.3-17.8,0-26.5-0.4l-0.1,0c-1.1-0.1-2.3-0.2-3.4-0.3l0,0l0,0
											c-0.6,0-1.2,0-1.7,0c-0.3,0-0.6,0-1-0.1C18.8,6.4,1.1,4.1-5,3.8l0,0.3c6,0.3,23.8,2.6,29.9,3.1c0.3,0,0.6,0.1,1,0.1
											c0.6,0,1.2,0,1.8,0c1.1,0.1,2.2,0.2,3.4,0.3l0,0l0,0l0.1,0C39.9,8,48.9,7.7,57.7,8c0.4,0,0.7,0,1.1,0
											c0.7,0,1.4,0.1,2.2,0.1C67.7,9.6,74.6,10.3,81.5,10.6"/>
										<path class="st23" d="M85.4,8.6c8.6,0.4,17.4,0,26.4-1c1.1,0,2.2,0,3.3,0c1,0,2,0,2.9,0c1,0,2,0,2.9,0l0,0l0,0
											c2.1-0.2,4.1-0.1,6.1-0.1c1.1,0,2.3,0.1,3.4,0.2c2.5,0.1,5.2,0.1,8.1-0.2c1.2-0.1,2.3-0.1,3.5-0.1c1.6,0,3.2,0,4.8,0
											c4.1,0.2,8.1,0.7,12.3,1.9l0,0l0,0c1.3,0.1,2.5,0.2,3.7,0.3c4.9,0.4,9.9,0.9,14.7,1.5l0,0l0,0c1.1,0,2.1,0,3.2,0
											c5.1,0,10.2-0.1,15.4,0.2c3.3,0.1,6.6,0.4,10,0.8l0,0l0,0c1.2,0,2.3,0.1,3.4,0.1c0.3,0,0.6,0,0.9,0
											c6.6,0.3,13.1,0.8,19.7,1.9l0.1-0.2c-6.6-1-13.1-1.6-19.7-1.9c-0.3,0-0.6,0-0.9,0c-1.1,0-2.3-0.1-3.4-0.1
											c-3.4-0.4-6.7-0.7-10.1-0.8c-5.2-0.2-10.3-0.2-15.4-0.2c-1,0-2.1,0-3.1,0c-4.9-0.6-9.8-1.2-14.7-1.5
											c-1.2-0.1-2.5-0.2-3.7-0.3c-4.2-1.2-8.3-1.8-12.4-2c-1.6-0.1-3.2-0.1-4.9,0c-1.1,0-2.3,0.1-3.5,0.2l0,0l0,0
											c-2.8,0.4-5.4,0.3-8,0.2c-1.1,0-2.3-0.1-3.4-0.2c-2-0.1-4-0.1-6.1,0.1c-1,0-1.9,0-2.9,0c-1,0-2,0-2.9,0
											c-1.1,0-2.2,0-3.4,0l0,0l0,0c-9,1-17.7,1.4-26.3,1C78.6,8.1,71.9,7.3,65,6l0,0l0,0c-1.2,0-2.3-0.1-3.5-0.1
											c-8-0.2-16.1-0.2-24.2-0.6c-2.6-0.1-5.2-0.3-7.8-0.4c-1.1-0.1-2.3-0.3-3.4-0.4c-1-0.2-2-0.4-3-0.7C20,2.9,13.1,2.3,6.9,2
											c-4-0.2-7.7-0.2-10-0.1l0,0.3c2.3-0.1,6-0.1,9.9,0.1c6.2,0.3,13.1,0.9,16,1.7c1,0.3,2,0.5,3,0.7h0l0,0
											c1.2,0.1,2.3,0.3,3.4,0.4h0l0,0c2.6,0.2,5.2,0.3,7.8,0.4c8.1,0.3,16.2,0.4,24.2,0.6c1.2,0,2.3,0.1,3.5,0.1
											C71.8,7.5,78.6,8.3,85.4,8.6"/>
										<path class="st23" d="M89,6.6c7.4,0.3,14.3-1.4,21.6-1.1c0.1,0,0.3,0,0.4,0h0c1.2,0,2.3,0.1,3.4,0.1
											c7.9,0.3,15.9,0.3,23.9-0.2c1.1,0,2.3,0,3.4,0c1.1,0,2.2,0,3.4,0.1c4.5,0.2,8.9,0.7,13.3,1.5l0,0l0,0
											c1.2,0,2.4,0.1,3.5,0.1c0.8,0,1.7,0.1,2.5,0.1c3.9,0.2,7.8,0.4,11.8,0.8h0l0,0c1.2,0,2.4,0.1,3.6,0.1c0.3,0,0.6,0,0.9,0
											c8,0.3,15.8,1,24,1.5l0,0h0c1,0,2.1,0.1,3.1,0.1c0.2,0,0.4,0,0.5,0c7.1,0.3,14.2,0.9,21,2l0.1-0.2c-6.9-1.1-14-1.7-21.1-2
											c-0.2,0-0.4,0-0.5,0c-1,0-2.1-0.1-3.1-0.1c-8.2-0.5-16-1.2-24-1.5c-0.3,0-0.6,0-0.9,0c-1.2,0-2.4-0.1-3.6-0.1
											c-4-0.4-7.9-0.7-11.8-0.8c-0.8,0-1.7-0.1-2.5-0.1c-1.2,0-2.3-0.1-3.5-0.1c-4.4-0.8-8.8-1.3-13.3-1.5
											c-1.1,0-2.2-0.1-3.4-0.1c-1.1,0-2.3,0-3.4,0h0l0,0c-8,0.5-15.9,0.4-23.8,0.2c-1.1,0-2.3-0.1-3.4-0.1c-0.1,0-0.3,0-0.4,0
											C103.2,5,96.3,6.7,89,6.4c-0.7,0-1.5-0.1-2.2-0.2c-5-1-9.6-2.5-14.6-2.7c-1.6-0.1-3.4,0-5.1,0.3c-1.1,0-2.1,0-3.2,0
											c-7.1,0.1-14.2,0-21.3-0.3C39,3.3,35.4,3.1,31.8,2.8c-1-0.2-2.1-0.4-3.2-0.7l0,0l0,0c-1-0.1-2-0.3-3-0.5
											c-5.2-0.9-19-2.6-26.8-3c-1.4-0.1-2.5-0.1-3.4,0l0,0.3c0.9,0,2.1,0,3.4,0c7.7,0.3,21.6,2,26.7,3c1,0.2,2,0.3,3,0.5
											c1.1,0.3,2.1,0.5,3.2,0.7l0,0l0,0c3.6,0.3,7.2,0.5,10.8,0.7C49.6,4.1,56.8,4.1,63.9,4c1.1,0,2.1,0,3.2,0l0,0l0,0
											c1.7-0.3,3.4-0.4,5-0.3c4.9,0.2,9.5,1.7,14.6,2.7l0,0l0,0C87.5,6.5,88.3,6.6,89,6.6"/>
										<path class="st23" d="M42.1,1.8c9.1,0.4,18.2-0.6,27.6-0.4l0,0l0,0c1.1-0.1,2.3-0.2,3.4-0.3C74.4,1,75.6,1,76.8,1.1
											c4.3,0.2,8.5,1.4,13.2,2l0,0c1.2,0.1,2.4,0.2,3.6,0.3c6.2,0.3,12.1-0.3,18.5-0.1c0.8,0,1.6,0.1,2.4,0.1l0,0
											c1.2,0.1,2.4,0.1,3.6,0.2c0.6,0,1.1,0.1,1.7,0.1c5.4,0.2,10.8,0.3,16.2,0c1.2,0,2.4,0,3.5,0c2.3,0,4.6,0,6.9,0.1
											c3.6,0.2,7.3,0.5,11.1,1.1l0,0l0,0c1.2,0,2.5,0,3.7,0.1c1.4,0,2.8,0.1,4.2,0.1c2.3,0.1,4.5,0.2,6.7,0.4l0,0l0,0
											c1.2,0,2.4,0,3.6,0.1c1.5,0,3.1,0.1,4.6,0.2c7.9,0.3,15.6,1,23.8,1.7c1.1,0.1,2.2,0.2,3.3,0.3c7.4,0.6,14.8,1.4,21.9,1.7
											c0.2,0,0.5,0,0.7,0l0-0.2c-0.2,0-0.5,0-0.7,0c-7.1-0.3-14.5-1.1-21.9-1.7c-1.1-0.1-2.2-0.2-3.3-0.3
											c-8.1-0.7-15.9-1.4-23.8-1.7c-1.5-0.1-3.1-0.1-4.6-0.2c-1.2,0-2.4,0-3.6-0.1c-2.2-0.2-4.4-0.3-6.7-0.4
											c-1.4-0.1-2.8-0.1-4.2-0.1c-1.2,0-2.5-0.1-3.7-0.1c-3.8-0.6-7.4-0.9-11.1-1.1c-2.3-0.1-4.6-0.1-6.9-0.1
											c-1.2,0-2.4,0-3.6,0l0,0c-5.4,0.3-10.8,0.2-16.2,0c-0.6,0-1.1-0.1-1.7-0.1c-1.2-0.1-2.4-0.1-3.6-0.2
											C113.8,3.1,113,3,112.2,3c-6.4-0.3-12.4,0.3-18.5,0.1c-1.2-0.1-2.3-0.1-3.5-0.3c-4.7-0.6-8.9-1.8-13.3-2
											c-1.2-0.1-2.5,0-3.7,0.1C72,1,70.9,1.1,69.7,1.2C60.3,1,51.2,2,42.1,1.6c-3.3-0.1-6.5-0.5-9.8-1.1C31.3,0.3,30.2,0,29-0.3
											l0,0l0,0c-0.9-0.1-1.8-0.2-2.7-0.4C21.5-1.4,7.1-2.9-0.5-3.3c-1.1,0-2-0.1-2.7-0.1l0,0.3c0.7,0,1.7,0,2.7,0.1
											C7-2.7,21.4-1.2,26.2-0.4c0.9,0.1,1.8,0.3,2.7,0.4c1.1,0.3,2.2,0.6,3.3,0.8h0C35.5,1.4,38.8,1.7,42.1,1.8"/>
										<path class="st23" d="M42.3-0.5C50-0.2,58-0.9,65.7-0.8l0,0l0,0C67-0.9,68.2-1,69.4-1.1c2.7-0.3,5.5-0.6,8.3-0.8
											c0.9-0.1,1.8-0.2,2.7-0.3c5.6,2,11.4,2.6,17.4,2.9c5,0.2,10.1,0.1,15.2,0.4c0,0,0.1,0,0.1,0c0.3,0,0.6,0,0.9,0
											c1.1,0.1,2.2,0.1,3.3,0.2c1.2,0.1,2.5,0.1,3.8,0.2c2,0.1,4.1,0.1,6.2,0.2h0c1.1,0,2.2-0.1,3.3-0.1c4.4-0.1,8.7-0.1,13,0.1
											c4.2,0.2,8.4,0.5,12.6,1.1l0,0l0,0c1,0,2.1,0.1,3.1,0.1c3.1,0.1,6.2,0.2,9.3,0.3h0l0,0c1.2,0,2.3-0.1,3.5-0.1
											c2.7,0.1,5.5,0.1,8.2,0.3c6.2,0.3,12.4,0.7,18.4,1.6l0,0c1.2,0.1,2.4,0.3,3.6,0.4c6.1,0.6,12.2,1.1,18.4,1.4
											c3.6,0.2,7.3,0.2,11,0.2l0-0.3c-3.7,0-7.3-0.1-10.9-0.2c-6.2-0.3-12.3-0.7-18.4-1.4c-1.2-0.1-2.4-0.3-3.6-0.4
											c-6.1-0.9-12.3-1.3-18.4-1.6c-2.7-0.1-5.5-0.2-8.2-0.3h0l0,0c-1.2,0-2.4,0.1-3.5,0.1c-3.1-0.1-6.2-0.2-9.3-0.3
											c-1,0-2.1-0.1-3.1-0.1c-4.2-0.6-8.4-0.9-12.6-1.1c-4.3-0.2-8.6-0.2-13-0.1c-1.1,0-2.2,0-3.3,0.1c-2.1,0-4.1-0.1-6.2-0.1
											c-1.3-0.1-2.5-0.1-3.8-0.2c-1.1-0.1-2.2-0.1-3.3-0.2l0,0c-0.3,0-0.6,0-0.9,0c-5.2-0.2-10.3-0.2-15.3-0.4
											c-5.9-0.3-11.7-0.9-17.3-2.9l-0.1,0l-0.1,0c-0.9,0.1-1.9,0.2-2.8,0.3c-2.8,0.3-5.5,0.6-8.3,0.8c-1.2,0.1-2.4,0.2-3.7,0.3
											C58-1.2,49.9-0.5,42.3-0.8c-3.1-0.1-6.2-0.4-9.1-1.1c-1.2-0.3-2.4-0.6-3.6-0.9l0,0l0,0c-1.1-0.1-2.3-0.3-3.4-0.4
											C21.9-3.7,13.6-4.5,6.2-4.8C1.6-5-2.7-5-5.6-4.6l0.1,0.2c2.7-0.4,6.9-0.4,11.5-0.2c0.1,0,0.1,0,0.2,0
											c7.4,0.3,15.6,1.1,19.8,1.7c1.2,0.1,2.3,0.3,3.4,0.4c1.2,0.3,2.4,0.6,3.6,0.9C36-1,39.1-0.7,42.3-0.5"/>
									</g>
								</g>
							</g>
						</g>
					</g>
				</g>
				<g>
					<path class="st24" d="M4.3,56.4C4,55.5-1,35.2,0.2,21c0.2-2.3,0.6-4.5,1.2-6.4C4.4,4.7,11.9-0.3,19.2,0c0.6,0,1.3,0.1,1.9,0.2
						c4.3,0.8,8.8,1.2,13.3,1.4c13.4,0.6,28-0.6,45.8-0.1c17.5,0.5,35.4-1.3,57.6-0.3c7.9,0.3,16.4,1,25.6,2.3
						c1.2,0.2,2.4,0.3,3.7,0.3c8.8,0.4,19.9-1.5,31.5-1c5.6,0.2,11.4,1.1,17.1,3c6.4,2.2,7.4,8.9,6.8,15.8c-0.5,5.7-2.1,11.5-2.8,15
						c-0.2,0.9-0.3,1.8-0.4,2.8c-0.5,5.9,0.5,13.8-0.1,21.7c-0.1,1.5-1,4.4-2.9,6.9c-2,2.6-5.1,4.8-9.9,4.6c-0.7,0-1.4-0.1-2.1-0.2
						c-8.9-1.6-16.3-2.3-23.2-2.6c-13.7-0.6-25.3,0.5-41.7-0.2c-6.8-0.3-14.3-0.9-23.2-2.1c-1-0.1-2.2-0.2-3.5-0.3
						c-11.3-0.5-33.3,1.4-51,0.7c-5-0.2-9.6-0.6-13.6-1.4c-3-0.6-5.5-0.9-7.6-0.9c-9.3-0.4-12.6,2.8-23.8,2.3c-1,0-2.1-0.1-3.3-0.2
						C4.8,65.2,4.1,59.1,4.3,56.4z M2.1,14.7c-0.6,1.9-0.9,4-1.2,6.3c-0.6,7.2,0.4,16.1,1.6,23.1C3.6,51.1,5,56.3,5,56.3
						c-0.2,2.7,0.5,8.5,8.5,10.8c1.1,0.1,2.2,0.2,3.2,0.2c11,0.5,14.3-2.7,23.8-2.3c2.2,0.1,4.7,0.4,7.7,1c3.9,0.8,8.5,1.2,13.5,1.4
						c17.6,0.8,39.6-1.2,51-0.7c1.4,0.1,2.6,0.2,3.6,0.3c8.8,1.2,16.4,1.8,23.1,2.1c16.3,0.7,27.9-0.4,41.7,0.2
						c6.9,0.3,14.5,1,23.4,2.7c0.7,0.1,1.4,0.2,2,0.2c4.4,0.2,7.3-1.8,9.2-4.3c1.9-2.5,2.7-5.3,2.8-6.6c0.5-8-0.5-15.8,0.1-21.8
						c0.1-1,0.2-2,0.4-2.8c0.7-3.6,2.3-9.4,2.8-15c0.6-6.9-0.5-13.4-6.4-15.3c-5.6-1.9-11.3-2.7-16.9-2.9c-11.5-0.5-22.6,1.4-31.5,1
						c-1.3-0.1-2.6-0.2-3.8-0.3c-9.2-1.3-17.6-2-25.5-2.3c-22.1-1-40,0.9-57.6,0.3C62.5,1.5,47.9,2.7,34.4,2.1
						C29.8,1.9,25.4,1.5,21,0.7c-0.6-0.1-1.2-0.2-1.8-0.2C12.4,0.2,5.1,5,2.1,14.7"/>
				</g>
				<g>
					<defs>
						<path id="SVGID_63_" d="M219.4,61.2l0.8,1.3c-0.1,1.5-1,4.4-2.9,6.9c-2,2.6-5.1,4.8-9.9,4.6c-0.7,0-1.4-0.1-2.1-0.2
							c-8.9-1.6-16.3-2.3-23.2-2.6c-13.7-0.6-25.3,0.5-41.7-0.2c-6.8-0.3-14.3-0.9-23.2-2.1c-1-0.1-2.2-0.2-3.5-0.3
							c-11.3-0.5-33.3,1.4-51,0.7c-5-0.2-9.6-0.6-13.6-1.4c-3-0.6-5.5-0.9-7.6-0.9c-9.3-0.4-12.6,2.8-23.8,2.3c-1,0-2.1-0.1-3.3-0.2
							l-0.8-1.3c1.2,0.1,2.3,0.2,3.3,0.2c11.2,0.5,14.6-2.7,23.8-2.3c2.1,0.1,4.6,0.4,7.6,0.9c4,0.8,8.6,1.2,13.6,1.4
							c17.7,0.8,39.7-1.2,51-0.7c1.3,0.1,2.5,0.2,3.5,0.3c8.9,1.2,16.4,1.8,23.2,2.1c16.4,0.7,28-0.4,41.7,0.2
							c6.9,0.3,14.4,1,23.2,2.6c0.7,0.1,1.5,0.2,2.1,0.2c4.8,0.2,7.9-2,9.9-4.6C218.4,65.6,219.3,62.7,219.4,61.2z"/>
					</defs>
					<clipPath id="SVGID_64_">
						<use xlink:href="#SVGID_63_"  style="overflow:visible;"/>
					</clipPath>
					<g class="st25">
						<path class="st1" d="M219.4,61.2l0.8,1.3c-0.1,1.5-1,4.4-2.9,6.9c-1.2,1.5-2.8,2.9-4.9,3.8l-0.8-1.3c2.1-0.8,3.7-2.3,4.9-3.8
							C218.4,65.6,219.3,62.7,219.4,61.2"/>
						<path class="st13" d="M211.6,71.9l0.8,1.3c-0.4,0.2-0.9,0.3-1.4,0.5l-0.8-1.3C210.7,72.2,211.1,72.1,211.6,71.9"/>
						<path class="st9" d="M210.2,72.4l0.8,1.3c-0.4,0.1-0.8,0.2-1.2,0.2l-0.8-1.3C209.4,72.5,209.8,72.5,210.2,72.4"/>
						<path class="st8" d="M209,72.6l0.8,1.3c-0.4,0.1-0.8,0.1-1.2,0.1l-0.8-1.3C208.2,72.7,208.6,72.7,209,72.6"/>
						<path class="st7" d="M207.8,72.7l0.8,1.3c-0.4,0-0.8,0-1.2,0c-0.1,0-0.1,0-0.2,0l-0.8-1.3c0.1,0,0.1,0,0.2,0
							C207,72.7,207.4,72.7,207.8,72.7"/>
						<path class="st12" d="M206.4,72.7l0.8,1.3c-0.6,0-1.1-0.1-1.7-0.2l-0.8-1.3C205.2,72.6,205.8,72.7,206.4,72.7"/>
						<path class="st3" d="M204.6,72.5l0.8,1.3c-0.1,0-0.1,0-0.2,0c-0.7-0.1-1.4-0.2-2.1-0.4l-0.8-1.3c0.7,0.1,1.4,0.2,2.1,0.4
							C204.5,72.5,204.6,72.5,204.6,72.5"/>
						<path class="st12" d="M202.4,72.1l0.8,1.3c-7-1.2-13.1-1.8-18.8-2.2l-0.8-1.3C189.2,70.3,195.4,70.9,202.4,72.1"/>
						<path class="st7" d="M183.5,69.9l0.8,1.3c-0.8,0-1.6-0.1-2.3-0.1c-13.7-0.6-25.3,0.5-41.7-0.2c-1.1,0-2.2-0.1-3.4-0.2
							l-0.8-1.3c1.2,0.1,2.3,0.1,3.4,0.2c16.4,0.7,28-0.4,41.7,0.2C182,69.9,182.7,69.9,183.5,69.9"/>
						<path class="st12" d="M136.1,69.4l0.8,1.3c-5.9-0.3-12.4-0.9-19.8-1.9c-0.8-0.1-1.7-0.2-2.7-0.2l-0.8-1.3
							c1,0.1,1.9,0.1,2.7,0.2C123.7,68.5,130.2,69.1,136.1,69.4"/>
						<path class="st7" d="M113.5,67.3l0.8,1.3c-0.3,0-0.5,0-0.8,0c-11.3-0.5-33.3,1.4-51,0.7c-0.7,0-1.4-0.1-2.1-0.1l-0.8-1.3
							c0.7,0,1.4,0.1,2.1,0.1c17.7,0.8,39.7-1.2,51-0.7C113,67.3,113.3,67.3,113.5,67.3"/>
						<path class="st12" d="M59.6,67.8l0.8,1.3c-3.7-0.2-7.3-0.6-10.4-1.1l-0.8-1.3C52.4,67.3,55.9,67.6,59.6,67.8"/>
						<path class="st3" d="M49.2,66.7L50,68c-0.4-0.1-0.8-0.1-1.1-0.2c-0.5-0.1-0.9-0.2-1.4-0.2l-0.8-1.3c0.4,0.1,0.9,0.2,1.4,0.2
							C48.4,66.6,48.8,66.7,49.2,66.7"/>
						<path class="st12" d="M46.7,66.3l0.8,1.3c-2.1-0.4-4-0.6-5.7-0.7L41,65.6C42.7,65.7,44.5,65.9,46.7,66.3"/>
						<path class="st7" d="M41,65.6l0.8,1.3c-0.2,0-0.4,0-0.5,0c-1.1,0-2.1,0-3.1,0l-0.8-1.3c1,0,2,0,3.1,0
							C40.6,65.6,40.8,65.6,41,65.6"/>
						<path class="st8" d="M37.4,65.6l0.8,1.3c-1.2,0.1-2.4,0.2-3.5,0.3l-0.8-1.3C35,65.7,36.2,65.6,37.4,65.6"/>
						<path class="st9" d="M33.9,65.9l0.8,1.3c-3,0.4-5.5,1.1-8.8,1.6l-0.8-1.3C28.4,67,31,66.3,33.9,65.9"/>
						<path class="st8" d="M25.2,67.5l0.8,1.3c-1.3,0.2-2.7,0.3-4.3,0.4l-0.8-1.3C22.4,67.8,23.9,67.7,25.2,67.5"/>
						<path class="st7" d="M20.9,67.9l0.8,1.3c-1.3,0.1-2.7,0.1-4.2,0c-0.3,0-0.5,0-0.8,0l-0.8-1.3c0.3,0,0.5,0,0.8,0
							C18.2,67.9,19.6,67.9,20.9,67.9"/>
						<path class="st12" d="M15.9,67.8l0.8,1.3c-0.8,0-1.6-0.1-2.5-0.2l-0.8-1.3C14.2,67.7,15.1,67.8,15.9,67.8"/>
					</g>
				</g>
			</g>
		</g>
		<g>
			<g>
				<g>
					<defs>
						<path id="SVGID_65_" d="M7.2,63.5c-0.3-0.4-0.5-0.9-0.8-1.3C5,60,4.9,57.7,5,56.3l0.8,1.3C5.7,59,5.8,61.4,7.2,63.5z"/>
					</defs>
					<clipPath id="SVGID_66_">
						<use xlink:href="#SVGID_65_"  style="overflow:visible;"/>
					</clipPath>
				</g>
				<g>
					<defs>
						<path id="SVGID_67_" d="M14.3,68.4c-3.8-1.1-6-2.9-7.1-4.9l-0.8-1.3c1.2,1.9,3.3,3.8,7.1,4.9C13.7,67.5,14.1,68,14.3,68.4z"/>
					</defs>
					<clipPath id="SVGID_68_">
						<use xlink:href="#SVGID_67_"  style="overflow:visible;"/>
					</clipPath>
				</g>
				<g>
					<defs>
						<path id="SVGID_69_" d="M6.5,63.7C6.3,63.4,6,63,5.8,62.6c0-0.1-0.1-0.1-0.1-0.2c1.3,2.1,3.6,4.1,7.7,5.2l0.8,1.3
							C10.1,67.8,7.8,65.8,6.5,63.7z"/>
					</defs>
					<clipPath id="SVGID_70_">
						<use xlink:href="#SVGID_69_"  style="overflow:visible;"/>
					</clipPath>
				</g>
				<g>
					<defs>
						<path id="SVGID_71_" d="M40.7,66.3c-9.1-0.3-12.5,2.8-23.2,2.3l-0.8-1.3C27.4,67.8,30.8,64.8,40,65
							C40.2,65.5,40.5,65.9,40.7,66.3z"/>
					</defs>
					<clipPath id="SVGID_72_">
						<use xlink:href="#SVGID_71_"  style="overflow:visible;"/>
					</clipPath>
				</g>
				<g>
					<defs>
						<path id="SVGID_73_" d="M41.3,66.4c-0.2,0-0.4,0-0.6,0c-0.2-0.4-0.6-0.9-0.8-1.3l0,0c0.2,0,0.3,0,0.5,0c0,0,0,0,0,0
							C40.8,65.5,41,65.9,41.3,66.4L41.3,66.4C41.3,66.4,41.3,66.4,41.3,66.4z"/>
					</defs>
					<clipPath id="SVGID_74_">
						<use xlink:href="#SVGID_73_"  style="overflow:visible;"/>
					</clipPath>
				</g>
				<g>
					<defs>
						<path id="SVGID_75_" d="M220.2,9.9c0.3,0.4,0.5,0.9,0.8,1.3c-1-1.7-2.5-2.9-4.6-3.6c-5.6-1.9-11.3-2.7-16.9-2.9
							C188,4.2,177,6.1,168,5.7c-1.3-0.1-2.6-0.2-3.8-0.3c-9.2-1.3-17.6-2-25.5-2.3c-22.1-1-40,0.9-57.6,0.3
							C63.3,2.8,48.7,4,35.2,3.4C30.6,3.2,26.2,2.8,21.8,2c-0.6-0.1-1.2-0.2-1.8-0.2C13.2,1.5,5.9,6.3,2.9,16l-0.8-1.3
							C5.1,5,12.4,0.2,19.2,0.5c0.6,0,1.2,0.1,1.8,0.2c4.4,0.8,8.9,1.2,13.5,1.4C47.9,2.7,62.5,1.5,80.2,2
							c17.6,0.5,35.5-1.3,57.6-0.3c7.9,0.3,16.4,1,25.5,2.3c1.2,0.2,2.5,0.3,3.8,0.3c9,0.4,20-1.5,31.5-1c5.6,0.2,11.3,1,16.9,2.9
							C217.7,7,219.2,8.3,220.2,9.9z"/>
					</defs>
					<clipPath id="SVGID_76_">
						<use xlink:href="#SVGID_75_"  style="overflow:visible;"/>
					</clipPath>
				</g>
				<g>
					<defs>
						<path id="SVGID_77_" d="M219.5,40.8c-0.1,1.5-0.2,3.1-0.2,4.9c-0.3-0.5-0.5-0.9-0.8-1.4l0,0c0-1.7,0-3.3,0.2-4.8
							c0.1-1,0.2-2,0.4-2.8c0.7-3.6,2.3-9.4,2.8-15c0.4-4.4,0.1-8.7-1.8-11.7l0.8,1.3c1.8,3,2.2,7.3,1.8,11.7
							c-0.5,5.6-2.1,11.4-2.8,15C219.8,38.8,219.6,39.8,219.5,40.8z"/>
					</defs>
					<clipPath id="SVGID_78_">
						<use xlink:href="#SVGID_77_"  style="overflow:visible;"/>
					</clipPath>
				</g>
				<g>
					<defs>
						<path id="SVGID_79_" d="M213,72.3c-0.2-0.4-0.5-0.8-0.7-1.1c0.3,0.3,0.6,0.7,1,1C213.1,72.2,213.1,72.3,213,72.3z"/>
					</defs>
					<clipPath id="SVGID_80_">
						<use xlink:href="#SVGID_79_"  style="overflow:visible;"/>
					</clipPath>
				</g>
				<g>
					<defs>
						<path id="SVGID_81_" d="M219.4,45.6c0,3.3,0.2,7,0.2,10.8c0,0,0-0.1,0-0.1c-0.1-0.2-0.3-0.4-0.4-0.7c-0.1-0.2-0.2-0.4-0.3-0.6
							c0-3.8-0.2-7.5-0.2-10.8C218.9,44.7,219.1,45.2,219.4,45.6z"/>
					</defs>
					<clipPath id="SVGID_82_">
						<use xlink:href="#SVGID_81_"  style="overflow:visible;"/>
					</clipPath>
				</g>
				<g>
					<defs>
						<path id="SVGID_83_" d="M219.5,62.5c-0.2-0.4-0.2-0.4-0.8-1.3c0,0,0,0,0,0c0.1-2,0.2-4.1,0.2-6.1c0,0,0.1,0.1,0.1,0.2
							c0,0,0.1,0.1,0.1,0.2c0.1,0.1,0.2,0.3,0.3,0.4c0,0.1,0.1,0.1,0.1,0.2c0,0,0,0.1,0.1,0.1c0.1,0.1,0.1,0.2,0.2,0.3l0,0
							C219.7,58.4,219.6,60.5,219.5,62.5C219.5,62.5,219.5,62.5,219.5,62.5z"/>
					</defs>
					<clipPath id="SVGID_84_">
						<use xlink:href="#SVGID_83_"  style="overflow:visible;"/>
					</clipPath>
				</g>
				<g>
					<defs>
						<path id="SVGID_85_" d="M220.9,9.7C220.9,9.8,220.9,9.8,220.9,9.7c0.1,0.1,0.1,0.2,0.2,0.3c0.2,0.3,0.4,0.7,0.6,1
							c1.9,3.1,2.2,7.5,1.8,11.9c-0.5,5.7-2.1,11.5-2.8,15c-0.2,0.9-0.3,1.8-0.4,2.8c-0.5,5.9,0.5,13.8-0.1,21.7l-0.8-1.3
							c0.5-8-0.5-15.8,0.1-21.7c0.1-1,0.2-1.9,0.4-2.8c0.7-3.5,2.3-9.4,2.8-15C223.1,17.2,222.8,12.9,220.9,9.7z"/>
					</defs>
					<clipPath id="SVGID_86_">
						<use xlink:href="#SVGID_85_"  style="overflow:visible;"/>
					</clipPath>
				</g>
				<g>
					<defs>
						<path id="SVGID_87_" d="M219.5,62.5c-0.1,1.4-0.9,4.2-2.8,6.6c-0.3-0.4-0.5-0.9-0.8-1.3l0,0c1.9-2.4,2.7-5.3,2.8-6.6
							C218.9,61.7,219.2,62.1,219.5,62.5C219.5,62.5,219.5,62.5,219.5,62.5z"/>
					</defs>
					<clipPath id="SVGID_88_">
						<use xlink:href="#SVGID_87_"  style="overflow:visible;"/>
					</clipPath>
				</g>
				<g>
					<defs>
						<path id="SVGID_89_" d="M49,67.3c-3-0.6-5.5-0.9-7.7-1c-0.3-0.4-0.5-0.9-0.8-1.3l0,0c2.2,0.1,4.7,0.4,7.7,1
							c3.9,0.8,8.5,1.2,13.5,1.4c17.6,0.8,39.6-1.2,51-0.7c1.4,0.1,2.6,0.2,3.6,0.3c8.8,1.2,16.4,1.8,23.1,2.1
							c16.3,0.7,27.9-0.4,41.7,0.2c6.9,0.3,14.5,1,23.4,2.7c0.7,0.1,1.4,0.2,2,0.2c0,0,0,0,0,0c0.1,0.1,0.1,0.2,0.2,0.3
							c0,0,0,0.1,0.1,0.1c0.2,0.3,0.4,0.6,0.6,0.9l0,0c0,0,0,0,0,0c-0.6,0-1.3-0.1-2-0.2c-8.9-1.6-16.4-2.4-23.4-2.7
							c-13.8-0.6-25.4,0.5-41.7-0.2c-6.7-0.3-14.3-0.9-23.1-2.1c-1-0.1-2.3-0.2-3.6-0.3c-11.5-0.5-33.4,1.4-51,0.7
							C57.6,68.5,53,68.1,49,67.3z"/>
					</defs>
					<clipPath id="SVGID_90_">
						<use xlink:href="#SVGID_89_"  style="overflow:visible;"/>
					</clipPath>
				</g>
				<g>
					<defs>
						<path id="SVGID_91_" d="M213,72.3c-0.4,0.2-0.8,0.4-1.2,0.5c-0.3-0.4-0.5-0.8-0.8-1.3c2.1-0.8,3.7-2.1,4.9-3.7c0,0,0,0,0,0
							c0.3,0.4,0.5,0.9,0.8,1.3l0,0c0,0,0,0,0,0c-0.9,1.2-2,2.2-3.4,3c-0.3-0.3-0.6-0.7-1-1C212.5,71.6,212.7,72,213,72.3z"/>
					</defs>
					<clipPath id="SVGID_92_">
						<use xlink:href="#SVGID_91_"  style="overflow:visible;"/>
					</clipPath>
				</g>
				<g>
					<g>
						<defs>
							<path id="SVGID_93_" d="M16.8,67.4c-1.1,0-2.1-0.1-3.3-0.2C5.4,64.8,4.8,59,5,56.4c0-0.1-1.3-5.3-2.5-12.3
								c-1.2-7-2.2-15.9-1.6-23.1c0.2-2.3,0.6-4.4,1.2-6.3C5.1,5,12.4,0.2,19.2,0.5c0.6,0,1.2,0.1,1.8,0.2c4.4,0.8,8.9,1.2,13.5,1.4
								C47.9,2.7,62.5,1.5,80.2,2c17.6,0.5,35.5-1.3,57.6-0.3c7.9,0.3,16.4,1,25.5,2.3c1.2,0.2,2.5,0.3,3.8,0.3c9,0.4,20-1.5,31.5-1
								c5.6,0.2,11.3,1,16.9,2.9c5.9,1.9,7,8.5,6.4,15.3c-0.5,5.6-2.1,11.4-2.8,15c-0.2,0.9-0.3,1.8-0.4,2.8
								c-0.5,6,0.5,13.8-0.1,21.7c-0.1,1.4-0.9,4.2-2.8,6.7c-1.9,2.5-4.8,4.5-9.2,4.3c-0.6,0-1.3-0.1-2-0.2
								c-8.9-1.6-16.4-2.4-23.4-2.7c-13.8-0.6-25.4,0.5-41.7-0.2c-6.7-0.3-14.3-0.9-23.1-2.1c-1-0.1-2.3-0.2-3.6-0.3
								c-11.5-0.5-33.4,1.4-51,0.7c-4.9-0.2-9.6-0.6-13.5-1.4c-3-0.6-5.5-0.9-7.7-1C31,64.7,27.6,67.8,16.8,67.4z"/>
						</defs>
						<clipPath id="SVGID_94_">
							<use xlink:href="#SVGID_93_"  style="overflow:visible;"/>
						</clipPath>
					</g>
				</g>
				<g>
					<defs>
						<path id="SVGID_95_" d="M219.4,61.2l0.8,1.3c-0.1,1.5-1,4.4-2.9,6.9c-2,2.6-5.1,4.8-9.9,4.6c-0.7,0-1.4-0.1-2.1-0.2
							c-8.9-1.6-16.3-2.3-23.2-2.6c-13.7-0.6-25.3,0.5-41.7-0.2c-6.8-0.3-14.3-0.9-23.2-2.1c-1-0.1-2.2-0.2-3.5-0.3
							c-11.3-0.5-33.3,1.4-51,0.7c-5-0.2-9.6-0.6-13.6-1.4c-3-0.6-5.5-0.9-7.6-0.9c-9.3-0.4-12.6,2.8-23.8,2.3c-1,0-2.1-0.1-3.3-0.2
							l-0.8-1.3c1.2,0.1,2.3,0.2,3.3,0.2c11.2,0.5,14.6-2.7,23.8-2.3c2.1,0.1,4.6,0.4,7.6,0.9c4,0.8,8.6,1.2,13.6,1.4
							c17.7,0.8,39.7-1.2,51-0.7c1.3,0.1,2.5,0.2,3.5,0.3c8.9,1.2,16.4,1.8,23.2,2.1c16.4,0.7,28-0.4,41.7,0.2
							c6.9,0.3,14.4,1,23.2,2.6c0.7,0.1,1.5,0.2,2.1,0.2c4.8,0.2,7.9-2,9.9-4.6C218.4,65.6,219.3,62.7,219.4,61.2z"/>
					</defs>
					<clipPath id="SVGID_96_">
						<use xlink:href="#SVGID_95_"  style="overflow:visible;"/>
					</clipPath>
				</g>
			</g>
		</g>
	</g>
</g>
</svg>
