<?xml version="1.0" encoding="utf-8"?>
<!-- Generator: Adobe Illustrator 23.0.3, SVG Export Plug-In . SVG Version: 6.00 Build 0)  -->
<svg version="1.1" id="圖層_1" xmlns="http://www.w3.org/2000/svg" xmlns:xlink="http://www.w3.org/1999/xlink" x="0px" y="0px"
	 viewBox="0 0 538.1 146" style="enable-background:new 0 0 538.1 146;" xml:space="preserve">
<style type="text/css">
	.st0{opacity:0.8;}
	.st1{fill:#F5C923;}
	.st2{fill:#F3D286;}
	.st3{fill:#F5EFD9;}
	.st4{fill:#FFFFFF;}
	.st5{fill-rule:evenodd;clip-rule:evenodd;fill:#F6C16B;}
</style>
<g>
	<g class="st0">
		<path class="st1" d="M506.6,146h-475C14.2,146,0,131.9,0,114.5V31.6C0,14.2,14.2,0,31.6,0h475c17.4,0,31.6,14.2,31.6,31.6v82.9
			C538.1,131.9,524,146,506.6,146z M31.6,4.4c-15,0-27.2,12.2-27.2,27.2v82.9c0,15,12.2,27.2,27.2,27.2h475
			c15,0,27.2-12.2,27.2-27.2V31.6c0-15-12.2-27.2-27.2-27.2H31.6z"/>
	</g>
	<g>
		<polygon class="st2" points="0,86.5 0,98.2 269.1,73 		"/>
		<polygon class="st2" points="81.5,146 110.1,146 269.1,73 		"/>
		<polygon class="st2" points="144.3,146 160.1,146 269.1,73 		"/>
		<polygon class="st2" points="259.1,146 265.1,146 269.1,73 		"/>
		<polygon class="st2" points="273,146 279,146 269.1,73 		"/>
		<polygon class="st2" points="292.3,0 286.9,0 269.1,73 		"/>
		<polygon class="st2" points="230.2,146 236.7,146 269.1,73 		"/>
		<polygon class="st3" points="245.8,146 251.2,146 269.1,73 		"/>
		<polygon class="st3" points="214.6,146 220.5,146 269.1,73 		"/>
		<polygon class="st3" points="175.5,146 185.9,146 269.1,73 		"/>
		<polygon class="st2" points="196,146 204.4,146 269.1,73 		"/>
		<path class="st2" d="M2.9,127.6c2.8,6.1,7.5,11.1,13.3,14.4l252.9-69L2.9,127.6z"/>
		<polygon class="st2" points="236.7,0 230.2,0 269.1,73 		"/>
		<polygon class="st3" points="220.5,0 214.6,0 269.1,73 		"/>
		<polygon class="st3" points="251.2,0 245.8,0 269.1,73 		"/>
		<polygon class="st2" points="265.1,0 259.1,0 269.1,73 		"/>
		<polygon class="st3" points="279,0 273,0 269.1,73 		"/>
		<path class="st2" d="M16.2,4C10.3,7.3,5.7,12.4,2.9,18.5L269.1,73L16.2,4z"/>
		<polygon class="st2" points="110.1,0 81.5,0 269.1,73 		"/>
		<polygon class="st2" points="0,47.8 0,59.6 269.1,73 		"/>
		<polygon class="st2" points="160.1,0 144.3,0 269.1,73 		"/>
		<polygon class="st3" points="185.9,0 175.5,0 269.1,73 		"/>
		<polygon class="st2" points="204.4,0 196,0 269.1,73 		"/>
		<polygon class="st2" points="323.6,0 317.6,0 269.1,73 		"/>
		<polygon class="st2" points="362.6,0 352.3,0 269.1,73 		"/>
		<polygon class="st2" points="378,146 393.8,146 269.1,73 		"/>
		<polygon class="st2" points="333.7,146 342.1,146 269.1,73 		"/>
		<polygon class="st3" points="342.1,0 333.7,0 269.1,73 		"/>
		<polygon class="st3" points="307.9,0 301.4,0 269.1,73 		"/>
		<path class="st2" d="M522,142c5.8-3.3,10.5-8.3,13.3-14.4L269.1,73L522,142z"/>
		<polygon class="st2" points="428,146 456.6,146 269.1,73 		"/>
		<path class="st2" d="M535.2,18.5C532.4,12.4,527.8,7.3,522,4L269.1,73L535.2,18.5z"/>
		<polygon class="st2" points="269.1,73 456.6,0 428,0 		"/>
		<polygon class="st3" points="393.8,0 378,0 269.1,73 		"/>
		<polygon class="st2" points="538.1,59.6 538.1,47.8 269.1,73 		"/>
		<polygon class="st2" points="538.1,98.2 538.1,86.5 269.1,73 		"/>
		<polygon class="st3" points="352.3,146 362.6,146 269.1,73 		"/>
		<polygon class="st3" points="286.9,146 292.3,146 269.1,73 		"/>
		<polygon class="st2" points="301.4,146 307.9,146 269.1,73 		"/>
		<polygon class="st3" points="317.6,146 323.6,146 269.1,73 		"/>
		<polygon class="st3" points="259.1,0 251.2,0 269.1,73 		"/>
		<polygon class="st2" points="245.8,0 236.7,0 269.1,73 		"/>
		<polygon class="st3" points="230.2,0 220.5,0 269.1,73 		"/>
		<polygon class="st2" points="214.6,0 204.4,0 269.1,73 		"/>
		<polygon class="st3" points="196,0 185.9,0 269.1,73 		"/>
		<polygon class="st2" points="175.5,0 160.1,0 269.1,73 		"/>
		<polygon class="st3" points="144.3,0 110.1,0 269.1,73 		"/>
		<path class="st3" d="M81.5,0h-50C26,0,20.7,1.5,16.2,4l252.9,69L81.5,0z"/>
		<path class="st3" d="M2.9,18.5C1.1,22.5,0,26.9,0,31.6v16.2L269.1,73L2.9,18.5z"/>
		<polygon class="st3" points="0,59.6 0,86.5 269.1,73 		"/>
		<polygon class="st2" points="273,0 265.1,0 269.1,73 		"/>
		<polygon class="st3" points="286.9,0 279,0 269.1,73 		"/>
		<polygon class="st2" points="301.4,0 292.3,0 269.1,73 		"/>
		<polygon class="st3" points="317.6,0 307.9,0 269.1,73 		"/>
		<polygon class="st2" points="333.7,0 323.6,0 269.1,73 		"/>
		<polygon class="st3" points="352.3,0 342.1,0 269.1,73 		"/>
		<polygon class="st2" points="378,0 362.6,0 269.1,73 		"/>
		<polygon class="st3" points="428,0 393.8,0 269.1,73 		"/>
		<path class="st3" d="M522,4c-4.6-2.6-9.8-4-15.4-4h-50L269.1,73L522,4z"/>
		<path class="st3" d="M538.1,47.8V31.6c0-4.7-1.1-9.1-2.9-13.1L269.1,73L538.1,47.8z"/>
		<polygon class="st2" points="265.1,146 273,146 269.1,73 		"/>
		<polygon class="st3" points="251.2,146 259.1,146 269.1,73 		"/>
		<polygon class="st2" points="236.7,146 245.8,146 269.1,73 		"/>
		<polygon class="st3" points="220.5,146 230.2,146 269.1,73 		"/>
		<polygon class="st2" points="204.4,146 214.6,146 269.1,73 		"/>
		<polygon class="st3" points="185.9,146 196,146 269.1,73 		"/>
		<polygon class="st2" points="160.1,146 175.5,146 269.1,73 		"/>
		<polygon class="st3" points="110.1,146 144.3,146 269.1,73 		"/>
		<path class="st3" d="M16.2,142c4.6,2.6,9.8,4,15.4,4h50l187.5-73L16.2,142z"/>
		<path class="st3" d="M0,98.2v16.2c0,4.7,1.1,9.1,2.9,13.1L269.1,73L0,98.2z"/>
		<polygon class="st3" points="279,146 286.9,146 269.1,73 		"/>
		<polygon class="st2" points="292.3,146 301.4,146 269.1,73 		"/>
		<polygon class="st3" points="307.9,146 317.6,146 269.1,73 		"/>
		<polygon class="st2" points="323.6,146 333.7,146 269.1,73 		"/>
		<polygon class="st3" points="342.1,146 352.3,146 269.1,73 		"/>
		<polygon class="st2" points="362.6,146 378,146 269.1,73 		"/>
		<polygon class="st3" points="393.8,146 428,146 269.1,73 		"/>
		<path class="st3" d="M456.6,146h50c5.6,0,10.9-1.5,15.4-4L269.1,73L456.6,146z"/>
		<path class="st3" d="M535.2,127.6c1.8-4,2.9-8.4,2.9-13.1V98.2L269.1,73L535.2,127.6z"/>
		<polygon class="st3" points="538.1,86.5 538.1,59.6 269.1,73 		"/>
	</g>
	<g class="st0">
		<path class="st1" d="M506.6,146h-475C14.2,146,0,131.9,0,114.5V31.6C0,14.2,14.2,0,31.6,0h475c17.4,0,31.6,14.2,31.6,31.6v82.9
			C538.1,131.9,524,146,506.6,146z M31.6,4.4c-15,0-27.2,12.2-27.2,27.2v82.9c0,15,12.2,27.2,27.2,27.2h475
			c15,0,27.2-12.2,27.2-27.2V31.6c0-15-12.2-27.2-27.2-27.2H31.6z"/>
	</g>
	<g>
		<path class="st4" d="M482.3,124.6H62.9c-16.6,0-30.2-13.6-30.2-30.2V52c0-16.6,13.6-30.2,30.2-30.2h419.4
			c16.6,0,30.2,13.6,30.2,30.2v42.4C512.5,111,498.9,124.6,482.3,124.6z"/>
	</g>
	<g>
		
			<image style="overflow:visible;opacity:0.55;" width="2122" height="471" xlink:href="1A0A7E4B4EE22E15.png"  transform="matrix(0.24 0 0 0.24 19.7205 18.4127)">
		</image>
		<g>
			<g>
				<g>
					<g>
						<path class="st5" d="M77.7,121.5c0.2-0.2,0-0.5,0-1c-0.4-0.1-4-0.1-4.4-0.2c0.1-3.1-0.8-5.9-2.7-8.1c-2-2.3-4.9-3.6-8.2-4
							c-0.2,3.3,0.7,6.4,2.7,8.7c0.8,1,1.9,1.8,3.1,2.5c-2.3-0.7-4.6-1.6-6.8-2.6c0.9-3.1,0.9-6.1-0.4-8.8c-1.3-2.8-3.8-4.8-6.9-5.9
							c-1,3.2-1,6.3,0.3,9.1c0.5,1.1,1.3,2.1,2.1,3c-2.1-1.3-4.1-2.8-6.1-4.5c1.8-2.8,2.7-5.8,2.1-8.8c-0.5-3-2.3-5.6-5.1-7.6
							c-1.8,2.8-2.7,5.8-2.1,8.8c0.3,1.9,1.1,3.6,2.3,5.1c-2.1-2.1-3.9-4.3-5.6-6.8c0.3-0.3,0.3-0.3,0.8-0.9c2-2.1,3.2-4.5,3.4-7.2
							c0.2-3-0.9-6-3-8.6c-2.5,2.2-4,5-4.3,8c-0.1,2,0.3,3.9,1.1,5.7c-0.4-0.8-0.9-1.5-1.3-2.3c-0.2-0.6-0.5-1.2-0.8-1.7
							c-0.7-1.5-1.3-3-1.9-4.6c0.2-0.1,0.4-0.1,0.6-0.2c2.9-1.2,4.7-3.6,5.8-6.3c1.1-2.9,0.8-6-0.4-9.1c-3,1.4-5.3,3.6-6.4,6.5
							c-0.8,2.1-0.9,4.3-0.4,6.5c-0.9-3.2-1.5-6.5-1.7-9.8c3.2-0.5,6-1.9,7.8-4.2c1.9-2.4,2.6-5.5,2.4-8.8c-3.3,0.5-6.2,1.9-8.1,4.3
							c-1.3,1.6-2,3.5-2.3,5.6c0-1.9,0.8-8.8,0.7-8.7c3.3,0.3,6.4-0.5,8.8-2.4c2.4-1.9,3.7-4.8,4.2-8.1c-3.3-0.3-6.6,0.7-8.8,2.4
							c-2.2,1.8-3.1,3.2-3.7,5.8c0.6-2.9,1.3-5.1,2.4-7.8c3.3,0.3,6.4-0.5,8.7-2.4c2.4-1.9,3.8-4.8,4.2-8.1
							c-3.3-0.3-6.3,0.5-8.6,2.3c1-1.5,2-2.9,3.2-4.3c0.8,0.4,1.7,0.8,2.6,1c2.3,0.6,4.6,0.4,6.7-0.4c2.9-1.1,5.1-3.3,6.5-6.4
							c-3.1-1.3-6.2-1.5-9.1-0.5c-0.5,0.2-1,0.4-1.4,0.7c1.4-1.2,2.8-2.3,4.3-3.4c3.3,0.5,6.3,0,8.8-1.8c2.5-1.7,4.1-4.5,4.8-7.7
							c-3.3-0.5-6.4,0-9,1.7c-2.3,1.6-3.9,4.1-4.6,7c-0.6,0.4-1.2,0.8-1.7,1.2c1-1.2,1.6-2.5,2-4c0.8-3,0.2-6.1-1.5-9
							c-2.8,1.8-4.8,4.2-5.6,7.2c-0.7,2.9-0.2,6,1.4,8.9c-1.1,1-2.2,2.1-3.2,3.2c0.6-1.3,1-2.6,1.1-4c0.2-3.1-0.9-6-3-8.6
							c-2.5,2.3-4,5-4.2,8.1c-0.2,3,0.9,5.9,3,8.5c-0.9,1.2-1.8,2.5-2.5,3.8c0.5-1.7,0.5-3.3,0.2-5c-0.6-3-2.5-5.5-5.3-7.4
							c-1.8,2.8-2.5,5.9-1.9,8.9c0.6,2.9,2.3,5.3,4.9,7.2c-0.6,1.6-1.3,3.1-1.8,4.6c0.3-2.1,0.1-4.1-0.8-6c-1.2-2.8-3.6-4.9-6.7-6.2
							c-1.1,3.1-1.2,6.3,0,9.1c1.2,2.7,3.5,4.8,6.5,6.1c-0.5,1.5-0.8,3-1.1,4.6c-0.2-1.2-0.5-2.3-1.1-3.4c-1.4-2.7-3.9-4.6-7.1-5.7
							c-0.9,3.2-0.8,6.4,0.7,9.1c1.4,2.6,3.7,4.5,6.8,5.6c-0.1,1.3-0.2,2.6-0.2,3.9c-0.5-1.5-1.3-2.9-2.4-4c-2.1-2.2-5-3.4-8.4-3.6
							c0,3.3,0.9,6.3,3,8.6c2,2.1,4.8,3.3,7.9,3.6c0.2,1.9,0.4,3.8,0.8,5.7c-0.8-1.7-2-3.1-3.4-4.1c-2.5-1.8-5.6-2.4-8.9-1.9
							c0.6,3.3,2.2,6,4.6,7.8c2.4,1.7,5.4,2.3,8.6,1.9c0,0.1,0,0.1,0.1,0.2c0.4,1.5,0.9,2.9,1.5,4.3c-0.8-0.8-1.7-1.6-2.6-2.1
							c-2.7-1.5-5.8-1.7-9.1-0.9c1,3.2,2.8,5.8,5.5,7.3c2.5,1.4,5.5,1.7,8.7,1c0.7,1.3,1.4,2.6,2.2,3.8c-1-0.8-2.1-1.4-3.3-1.9
							c-2.9-1-6-0.6-9.1,0.8c1.6,3,3.9,5.1,6.7,6.1c2.8,1,5.9,0.6,8.9-0.7c0.9,1,1.8,2,2.7,3c-1.1-0.5-2.2-0.9-3.3-1
							c-3-0.4-6,0.5-8.8,2.5c2.1,2.6,4.7,4.3,7.8,4.7c2.9,0.4,5.9-0.5,8.5-2.3c1.4,1.1,2.9,2.2,4.4,3.2c-1.4-0.4-2.8-0.6-4.2-0.5
							c-3,0.3-5.8,1.8-8,4.4c2.6,2.1,5.6,3.2,8.6,2.9c3-0.3,5.7-1.8,7.9-4.3c1.5,0.7,3,1.4,4.5,2c-1.4-0.1-2.8,0.1-4.2,0.6
							c-2.9,1-5.1,3.3-6.6,6.3c3.1,1.3,6.2,1.6,9.1,0.6c2.6-0.9,4.7-2.9,6.2-5.4C70.8,121.1,76.1,121.2,77.7,121.5z"/>
					</g>
				</g>
				<g>
					<g>
						<path class="st5" d="M477.5,121.2c1.5,2.6,3.6,4.5,6.2,5.4c2.9,1,6,0.7,9.1-0.6c-1.5-3-3.7-5.2-6.6-6.3
							c-1.4-0.5-2.7-0.7-4.2-0.6c1.5-0.6,3-1.3,4.5-2c2.2,2.5,4.9,4,7.9,4.3c3.1,0.3,6-0.8,8.6-2.9c-2.2-2.5-4.9-4.1-8-4.4
							c-1.4-0.1-2.8,0-4.2,0.5c1.5-1,3-2,4.4-3.2c2.7,1.9,5.6,2.7,8.5,2.3c3-0.4,5.7-2.1,7.8-4.7c-2.7-2-5.7-2.9-8.8-2.5
							c-1.2,0.2-2.3,0.5-3.3,1c0.9-1,1.8-2,2.7-3c3,1.3,6.1,1.7,8.9,0.7c2.9-1,5.2-3.2,6.7-6.1c-3-1.4-6.2-1.8-9.1-0.8
							c-1.2,0.4-2.3,1-3.3,1.9c0.8-1.2,1.6-2.5,2.2-3.8c3.1,0.7,6.1,0.4,8.7-1c2.7-1.5,4.5-4.1,5.5-7.3c-3.3-0.8-6.4-0.6-9.1,0.9
							c-1,0.6-1.9,1.3-2.6,2.1c0.5-1.4,1.1-2.8,1.5-4.3c0-0.1,0-0.1,0.1-0.2c3.2,0.4,6.2-0.2,8.6-1.9c2.5-1.8,4-4.5,4.6-7.8
							c-3.3-0.5-6.4,0.1-8.9,1.9c-1.5,1.1-2.6,2.5-3.4,4.1c0.4-1.9,0.7-3.8,0.8-5.7c3.1-0.3,5.9-1.4,7.9-3.6c2.1-2.2,3.1-5.2,3-8.6
							c-3.3,0.2-6.3,1.4-8.4,3.6c-1.1,1.2-1.9,2.5-2.4,4c0-1.3-0.1-2.6-0.2-3.9c3-1.1,5.4-3,6.8-5.6c1.4-2.7,1.5-5.9,0.7-9.1
							c-3.2,1.1-5.7,3-7.1,5.7c-0.5,1.1-0.9,2.2-1.1,3.4c-0.3-1.5-0.7-3.1-1.1-4.6c3-1.3,5.3-3.4,6.5-6.1c1.2-2.8,1.1-6,0-9.1
							c-3.1,1.3-5.5,3.4-6.7,6.2c-0.8,1.9-1.1,3.9-0.8,6c-0.6-1.6-1.3-3.1-1.8-4.6c2.5-1.9,4.3-4.3,4.9-7.2c0.6-3-0.1-6.1-1.9-8.9
							c-2.8,1.9-4.6,4.4-5.3,7.4c-0.3,1.7-0.3,3.4,0.2,5c-0.8-1.3-1.6-2.6-2.5-3.8c2.1-2.6,3.2-5.5,3-8.5c-0.2-3.1-1.8-5.8-4.2-8.1
							c-2.1,2.6-3.3,5.5-3,8.6c0.1,1.4,0.5,2.7,1.1,4c-1-1.1-2.1-2.2-3.2-3.2c1.6-2.9,2.1-6,1.4-8.9c-0.7-3-2.8-5.4-5.6-7.2
							c-1.7,2.9-2.2,6-1.5,9c0.4,1.5,1.1,2.8,2,4c-0.6-0.4-1.1-0.8-1.7-1.2c-0.8-3-2.3-5.4-4.6-7c-2.5-1.7-5.6-2.3-9-1.7
							c0.7,3.3,2.3,6,4.8,7.7c2.5,1.7,5.6,2.3,8.8,1.8c1.5,1,2.9,2.2,4.3,3.4c-0.4-0.3-0.9-0.5-1.4-0.7c-2.8-1.1-6-0.8-9.1,0.5
							c1.5,3,3.7,5.3,6.5,6.4c2.1,0.8,4.4,1,6.7,0.4c0.9-0.2,1.8-0.6,2.6-1c1.1,1.4,2.2,2.8,3.2,4.3c-2.4-1.9-5.4-2.6-8.6-2.3
							c0.4,3.3,1.8,6.2,4.2,8.1c2.4,1.9,5.4,2.7,8.7,2.4c1.1,2.7,1.8,4.9,2.4,7.8c-0.6-2.6-1.5-4-3.7-5.8c-2.2-1.8-5.5-2.7-8.8-2.4
							c0.4,3.3,1.8,6.2,4.2,8.1c2.4,1.9,5.4,2.7,8.8,2.4c0-0.1,0.8,6.7,0.7,8.7c-0.3-2.1-1-4-2.3-5.6c-1.9-2.4-4.8-3.8-8.1-4.3
							c-0.3,3.3,0.4,6.4,2.4,8.8c1.9,2.3,4.6,3.7,7.8,4.2c-0.2,3.3-0.8,6.6-1.7,9.8c0.5-2.2,0.4-4.5-0.4-6.5
							c-1.1-2.9-3.4-5.1-6.4-6.5c-1.3,3.1-1.5,6.2-0.4,9.1c1,2.7,2.9,5.1,5.8,6.3c0.2,0.1,0.4,0.2,0.6,0.2c-0.5,1.6-1.1,3.1-1.9,4.6
							c-0.3,0.6-0.6,1.1-0.8,1.7c-0.4,0.8-0.8,1.6-1.3,2.3c0.9-1.8,1.3-3.7,1.1-5.7c-0.2-3.1-1.8-5.8-4.3-8c-2.1,2.6-3.2,5.5-3,8.6
							c0.2,2.7,1.4,5.1,3.4,7.2c0.6,0.6,0.5,0.6,0.8,0.9c-1.7,2.4-3.6,4.7-5.6,6.8c1.2-1.5,2-3.2,2.3-5.1c0.5-3-0.3-6.1-2.1-8.8
							c-2.7,2-4.5,4.6-5.1,7.6c-0.5,3,0.3,6,2.1,8.8c-1.9,1.7-4,3.2-6.1,4.5c0.9-0.9,1.6-1.9,2.1-3c1.3-2.8,1.4-5.9,0.3-9.1
							c-3.1,1.2-5.6,3.2-6.9,5.9c-1.3,2.7-1.4,5.7-0.4,8.8c-2.2,1-4.4,1.9-6.8,2.6c1.2-0.6,2.2-1.4,3.1-2.5c2-2.3,2.8-5.4,2.7-8.7
							c-3.3,0.3-6.2,1.6-8.2,4c-1.9,2.2-2.7,5-2.7,8.1c-0.4,0-4,0.1-4.4,0.2c0,0.5-0.2,0.8,0,1C470.6,121.2,475.8,121.1,477.5,121.2
							z"/>
					</g>
				</g>
			</g>
		</g>
	</g>
</g>
</svg>
