<svg id="Layer_1" data-name="Layer 1" xmlns="http://www.w3.org/2000/svg" xmlns:xlink="http://www.w3.org/1999/xlink" viewBox="0 0 128 89.5"><defs><style>.cls-1{fill:none;}.cls-2{clip-path:url(#clip-path);}.cls-3{fill:#cacc0d;}.cls-4{fill:#c0c60a;}.cls-5{fill:#b6c108;}.cls-6{fill:#acbb05;}.cls-7{fill:#9e8b5c;}.cls-8{fill:#c9d12c;}.cls-9{isolation:isolate;}.cls-10{fill:#bdbdbd;}.cls-11{fill:#f5f5f5;}.cls-12{fill:#f73d3d;}</style><clipPath id="clip-path"><rect class="cls-1" x="-1.5" y="-1" width="130" height="90"/></clipPath></defs><title>設施介紹-工作區域 9</title><g class="cls-2"><rect class="cls-3" x="-10.5" y="-43.77" width="502" height="49.39"/><rect class="cls-4" x="-10.5" y="-7.87" width="502" height="54.07"/><rect class="cls-5" x="-10.5" y="28.03" width="502" height="58.74"/><rect class="cls-6" x="-10.5" y="63.93" width="502" height="63.41"/><polygon class="cls-7" points="116.29 123.41 117.58 127.55 99.56 133.16 7.51 75.36 -9.36 64.76 -9.87 44.18 29.09 68.63 116.29 123.41"/><path class="cls-8" d="M60.27,14.38,19.76,37.93a3.49,3.49,0,0,0,0,6L61.17,68.3a11.81,11.81,0,0,0,11.9,0l15.12-8.89,25.14-14.63a3.5,3.5,0,0,0,0-6L72.15,14.39A11.79,11.79,0,0,0,60.27,14.38Z"/><g class="cls-9"><polygon class="cls-10" points="47.61 118.76 45.77 117.64 45.64 72.69 47.48 73.81 47.61 118.76"/><polygon class="cls-11" points="47.48 73.81 45.64 72.69 47.77 71.72 49.61 72.84 47.48 73.81"/><polygon class="cls-11" points="49.61 72.84 49.74 117.79 47.61 118.76 47.48 73.81 49.61 72.84"/></g><polygon class="cls-12" points="-15.34 120.16 50.17 83.14 50.17 69.45 -15.34 106.47 -15.34 120.16"/><path class="cls-11" d="M46.09,81.73a2.46,2.46,0,0,0,.66-.29,5.53,5.53,0,0,0,.8-.55c.21-.19.32-.33.32-.43a17.66,17.66,0,0,0-.58-1.92l-.66-2c0-.05-.19,0-.52.14a11.43,11.43,0,0,0-1,.53c-.37.21-.58.4-.62.57Q43.24,83,43.23,83.12a.11.11,0,0,0,.08.1c.12,0,.36,0,.72-.25.76-.43,1.15-.75,1.16-1l.05-.5.62-.35,0,.39C45.9,81.69,46,81.74,46.09,81.73Zm-.71-1.68.09-1.37.14-.08.11,1.25Z"/><path class="cls-11" d="M41.92,84.17l.47-.27a2,2,0,0,0,.41-.28.35.35,0,0,0,.11-.23v-4.6c0-.11-.13-.12-.4,0a4.32,4.32,0,0,0-.84.38,2.32,2.32,0,0,0-.65.5,1,1,0,0,0-.22.4l-.44,2.18-.06,0-.41-1.61c0-.11-.17-.15-.43-.1a2.42,2.42,0,0,0-.83.32,3.66,3.66,0,0,0-.66.45c-.15.14-.22.25-.22.33v4.68c0,.06.12,0,.37,0a9.32,9.32,0,0,0,.9-.45c.35-.2.52-.37.52-.51,0-.39,0-1-.11-2l.06,0L39.83,85c0,.07.06.09.16.07a1.74,1.74,0,0,0,.41-.18,1.42,1.42,0,0,0,.34-.24.4.4,0,0,0,.08-.21l.35-2.1.06,0c-.08,1-.12,1.75-.12,2.11Q41.11,84.61,41.92,84.17Z"/><path class="cls-11" d="M33.6,88.4a1.87,1.87,0,0,0,1.54-.35,4.3,4.3,0,0,0,1.55-1.39,3.4,3.4,0,0,0,.55-1.88V82.1c0-.12-.13-.16-.37-.12a2.81,2.81,0,0,0-.85.33,1.19,1.19,0,0,0-.5.46.6.6,0,0,0-.08.27v2.17a6.77,6.77,0,0,1-.06,1.12.55.55,0,0,1-.23.4c-.12.07-.2,0-.23-.13a6,6,0,0,1-.05-1.07V83.44c0-.12-.12-.16-.37-.12a2.68,2.68,0,0,0-.84.33,1.11,1.11,0,0,0-.51.46.57.57,0,0,0-.08.27v2.75C33.07,87.83,33.25,88.26,33.6,88.4Z"/><path class="cls-11" d="M29.27,91a1.18,1.18,0,0,0,.54,0,3.93,3.93,0,0,0,.89-.4,8,8,0,0,0,1-.68,5.63,5.63,0,0,0,.71-.63.69.69,0,0,0,.21-.36,3.49,3.49,0,0,0-.1-.79c-.07-.25-.15-.36-.25-.3l-.53.5a5.06,5.06,0,0,1-.77.63.8.8,0,0,1-.34.13c-.05,0-.07-.06-.07-.14a.47.47,0,0,1,.14-.29,3.82,3.82,0,0,1,.35-.36,5,5,0,0,0,.46-.46,5.83,5.83,0,0,0,.46-.55,2.61,2.61,0,0,0,.36-.66,2.21,2.21,0,0,0,.14-.75c0-1.08-.57-1.3-1.71-.65a9.56,9.56,0,0,0-1.1.71,5,5,0,0,0-.66.57.72.72,0,0,0-.19.33,1.81,1.81,0,0,0,.16.73c.11.23.21.32.31.27l.17-.17a3.35,3.35,0,0,1,.7-.61,1.14,1.14,0,0,1,.38-.15c.07,0,.1,0,.1.12a.43.43,0,0,1-.14.28,3.89,3.89,0,0,1-.35.33,6.27,6.27,0,0,0-.46.45c-.16.18-.32.37-.46.56a2.63,2.63,0,0,0-.35.69,2.24,2.24,0,0,0-.15.81,1.06,1.06,0,0,0,.2.68A.63.63,0,0,0,29.27,91Z"/><path class="cls-11" d="M25.06,93.69l2.74-1.54a1.76,1.76,0,0,0,.42-.3.29.29,0,0,0,.11-.22V87c0-.13,0-.19-.15-.19a1.64,1.64,0,0,0-.54.23L25,88.53c-.09,0-.13.24-.13.58a3.28,3.28,0,0,0,.06.74q.06.23.15.18.42-.24,1.41-.9v.49l-1.24.66c-.12.07-.17.25-.17.56a2.52,2.52,0,0,0,.06.66c.05.13.11.18.19.13l1.16-.69v.47c-.74.36-1.26.62-1.54.78-.09,0-.14.25-.14.59a3.28,3.28,0,0,0,.06.74C25,93.67,25,93.73,25.06,93.69Z"/><path class="cls-11" d="M23.41,94.63l.46-.27a1.84,1.84,0,0,0,.42-.28.35.35,0,0,0,.11-.22v-4.6c0-.12-.13-.13-.4-.05a5.48,5.48,0,0,0-.85.38,2.25,2.25,0,0,0-.64.5,1,1,0,0,0-.23.4l-.43,2.18-.06,0-.42-1.6c0-.12-.17-.15-.42-.11a2.56,2.56,0,0,0-.83.32,3.66,3.66,0,0,0-.66.45c-.15.14-.22.25-.22.33v4.68c0,.06.12,0,.37,0a8.28,8.28,0,0,0,.89-.45c.36-.2.53-.37.53-.51,0-.39,0-1.05-.11-2l.06,0,.34,1.71c0,.07.06.09.15.07a1.33,1.33,0,0,0,.42-.18,1.36,1.36,0,0,0,.34-.24.4.4,0,0,0,.08-.21l.35-2.1.06,0c-.08,1-.12,1.75-.12,2.11Q22.6,95.07,23.41,94.63Z"/></g></svg>