<svg xmlns="http://www.w3.org/2000/svg" xmlns:xlink="http://www.w3.org/1999/xlink" viewBox="0 0 164 116.72"><defs><style>.cls-1,.cls-8{fill:none;}.cls-2{isolation:isolate;}.cls-3{clip-path:url(#clip-path);}.cls-4{fill:#acbb05;}.cls-5{fill:#a2b603;}.cls-6{fill:#98b000;}.cls-7{fill:#9e8b5c;}.cls-8{stroke:#9e8b5c;stroke-miterlimit:10;stroke-width:23px;}.cls-9{fill:#d1db46;}.cls-10{clip-path:url(#clip-path-2);}.cls-11{fill:#cb7c00;}.cls-12{fill:#c08b33;}.cls-12,.cls-19,.cls-26{mix-blend-mode:multiply;}.cls-13{fill:#f8d977;opacity:0.8;}.cls-14{fill:#176271;}.cls-15{fill:#2c8b9d;}.cls-16{fill:#5eb9b0;}.cls-17{fill:#e7ccc2;}.cls-18{fill:#27a39d;}.cls-19,.cls-26{fill:#1b315b;}.cls-19{opacity:0.3;}.cls-20{fill:#0a447e;}.cls-21,.cls-25{fill:#1b65ae;}.cls-22{fill:#50abc7;}.cls-23{fill:#ecd9bd;}.cls-24{fill:#1488b6;}.cls-25{opacity:0.7;mix-blend-mode:color-dodge;}.cls-26{opacity:0.5;}.cls-27{fill:#683b00;}</style><clipPath id="clip-path"><rect class="cls-1" x="-0.57" y="-0.72" width="163.91" height="117.96"/></clipPath><clipPath id="clip-path-2"><rect class="cls-1" x="-159.53" y="-118.22" width="173.6" height="112.37"/></clipPath></defs><title>設施介紹-工作區域 6</title><g class="cls-2"><g id="Layer_1" data-name="Layer 1"><g class="cls-3"><rect class="cls-4" x="-335.48" y="-23.79" width="502" height="63.41"/><rect class="cls-5" x="-335.48" y="12.11" width="502" height="68.08"/><rect class="cls-6" x="-335.48" y="48.02" width="502" height="72.76"/><polygon class="cls-7" points="166.52 115.1 166.52 118.39 137.48 118.39 28.76 55.62 8.84 44.12 17.52 29.07 63.53 55.62 166.52 115.1"/><path class="cls-8" d="M-62.48-103.89-249.1,4.59a9.52,9.52,0,0,0,0,16.47l115.92,67.23a51.78,51.78,0,0,0,52.26-.15l66.44-39,119-69.3a9.53,9.53,0,0,0,0-16.46L-10.28-103.83A51.84,51.84,0,0,0-62.48-103.89Z"/><path class="cls-9" d="M-61.68-58.52l-100.14,57a5.88,5.88,0,0,0,0,10.23l67.27,38.44a20.43,20.43,0,0,0,20.38-.06l.49.1L25.54-9.88a5.87,5.87,0,0,0,0-10.21l-66.87-38.4A20.44,20.44,0,0,0-61.68-58.52Z"/><g class="cls-10"><polygon class="cls-11" points="14.39 47.52 12.72 48.27 -74.88 -95.64 -73.21 -96.39 14.39 47.52"/><path class="cls-12" d="M12.69,44.71a.62.62,0,0,1-.95-.06c-.66-1-38.18-62.34-38-62,.13.23-9.53-15.6-10.72-17.59-.3-.5-16.36-27-17.11-28.13s-8.42-14.09-8.51-14.6c0-.17.19-.29.49-.36l-6.76-11.18c-1.1-.07-1.32-.26-1.32-.26s-1.67-2.95-2-3.38c-.16-.2.2-.53.62-.81l-1.68-2.77-1.67.75L12.72,48.27l1.67-.75Z"/><path class="cls-13" d="M11.87,44c-.68-1.38-64.24-105.57-65-106.9q-1.35-2.26-2.72-4.52c-1.8-3-3.57-6-5.49-9a.07.07,0,0,0-.13.07c1.65,3,3.45,5.89,5.21,8.82l2.56,4.28c.89,1.48,21.14,35.34,22.15,36.76C-31.51-26.42,11.93,44.09,11.87,44Z"/><path class="cls-14" d="M6.92,45.71s.46-7.33-8.06-7.89A8.61,8.61,0,0,0-10.73,46Z"/><path class="cls-15" d="M6.92,45.71S7.36,38.51-.92,38s-9.54,7.49-9.32,8Z"/><path class="cls-16" d="M-1.47,40.29c1.86-.08,4.1.26,5.44,1.44a5,5,0,0,1,1.61,4L-8.3,46a6.86,6.86,0,0,1,1.58-3.41A7.51,7.51,0,0,1-1.47,40.29Z"/><path class="cls-17" d="M4.92,46.1s.31-4.58-5.44-4.93S-7.14,45.92-7,46.28Z"/><path class="cls-18" d="M1.8,46A2.12,2.12,0,0,0-.46,43.84a2.38,2.38,0,0,0-2.69,2.25Z"/><path class="cls-19" d="M6.92,45.71s.46-7.33-8.06-7.89A8.61,8.61,0,0,0-10.73,46Z"/><path class="cls-19" d="M-10,42.86c.11.75.28,1.53,1.41,1.54,2,0,5.76.33,6.79-.53A21.69,21.69,0,0,0,.64,40.49a24.13,24.13,0,0,1,1.76-1.9,7.43,7.43,0,0,1,4.53,6.88,2.17,2.17,0,0,1,0,.24l-1.34,0h0l-.66,0a3.18,3.18,0,0,1,0,.35L-7,46.28a.9.9,0,0,1,0-.34l-3.26.05h-.49A6.75,6.75,0,0,1-10,42.86Z"/><path class="cls-20" d="M17.69,45.76s.45-7.61-8.18-8.2-10,7.9-9.73,8.49Z"/><path class="cls-21" d="M17.69,45.76s.44-7.48-8-8S.06,45.47.28,46.05Z"/><path class="cls-22" d="M9.18,40.13c1.88-.08,4.15.27,5.52,1.5a5.3,5.3,0,0,1,1.62,4.16L2.25,46a7.18,7.18,0,0,1,1.6-3.54A7.57,7.57,0,0,1,9.18,40.13Z"/><path class="cls-23" d="M15.66,46.16S16,41.41,10.14,41,3.43,46,3.58,46.35Z"/><path class="cls-24" d="M12.49,46.07a2.2,2.2,0,0,0-2.3-2.26,2.45,2.45,0,0,0-2.72,2.35Z"/><path class="cls-25" d="M13.64,42.06a6.14,6.14,0,0,1-2.53,1,7,7,0,0,1-1.29.07,3.38,3.38,0,0,1-1-.12,7.15,7.15,0,0,1-4.68-4,8.71,8.71,0,0,1,5.54-1.27,8.68,8.68,0,0,1,5.68,2.23A7.13,7.13,0,0,1,13.64,42.06Z"/><path class="cls-26" d="M.6,42.67a1.7,1.7,0,0,0,1.87,1.84H16.52a2.1,2.1,0,0,0,1.06-.26,8.14,8.14,0,0,1,.11,1.33v.18l-1.37,0h-.67c0,.23,0,.36,0,.36l-12.08.19a1,1,0,0,1,0-.35l-3.3,0h-.5A7.39,7.39,0,0,1,.6,42.67Z"/><polygon class="cls-27" points="-48.54 45.26 -49.96 41.47 -96.97 41.47 -98.63 45.26 -168.58 45.26 -168.58 49.02 18.39 49.02 18.39 45.26 -48.54 45.26"/><rect class="cls-11" x="-168.58" y="45.57" width="186.97" height="3.45"/><rect class="cls-12" x="-168.58" y="47.8" width="186.97" height="1.22"/></g></g></g></g></svg>