<svg id="Layer_1" data-name="Layer 1" xmlns="http://www.w3.org/2000/svg" xmlns:xlink="http://www.w3.org/1999/xlink" viewBox="0 0 144 103"><defs><style>.cls-1{fill:none;}.cls-2{clip-path:url(#clip-path);}.cls-3{fill:#ded712;}.cls-4{fill:#d4d10f;}.cls-5{fill:#cacc0d;}.cls-6{fill:#c0c60a;}.cls-7{fill:#e8db4a;}</style><clipPath id="clip-path"><rect class="cls-1" x="-1" y="-1.5" width="145.5" height="107.5"/></clipPath></defs><title>設施介紹-工作區域 10</title><g class="cls-2"><rect class="cls-3" x="-68.5" y="-32.58" width="502" height="40.05"/><rect class="cls-4" x="-68.5" y="3.32" width="502" height="44.72"/><rect class="cls-5" x="-68.5" y="39.23" width="502" height="49.39"/><rect class="cls-6" x="-68.5" y="75.13" width="502" height="54.07"/><path class="cls-7" d="M75.39,33.31l-58.51,34a5,5,0,0,0,0,8.73l56.69,32.8a17,17,0,0,0,17.19,0L112.61,96l36.3-21.13a5,5,0,0,0,0-8.72L92.55,33.33A17,17,0,0,0,75.39,33.31Z"/><rect class="cls-1" x="81.57" y="61.55" width="124.93" height="139.95"/></g></svg>