<svg xmlns="http://www.w3.org/2000/svg" xmlns:xlink="http://www.w3.org/1999/xlink" viewBox="0 0 101 74"><defs><style>.cls-1,.cls-8{fill:none;}.cls-2{isolation:isolate;}.cls-3{clip-path:url(#clip-path);}.cls-4{fill:#b6c108;}.cls-5{fill:#acbb05;}.cls-6{fill:#a2b603;}.cls-7{fill:#9e8b5c;}.cls-8{stroke:#9e8b5c;stroke-miterlimit:10;stroke-width:23px;}.cls-15,.cls-9{fill:#ffec02;}.cls-10,.cls-17,.cls-18{fill:#ffc502;}.cls-11,.cls-14,.cls-16,.cls-17{mix-blend-mode:multiply;}.cls-12{fill:#ffcc02;}.cls-13,.cls-14{fill:#ffa402;}.cls-15,.cls-18{mix-blend-mode:screen;}.cls-16{fill:#ffc302;}.cls-18{opacity:0.5;}.cls-19{fill:#fff;}</style><clipPath id="clip-path"><rect class="cls-1" x="-0.5" y="0.5" width="101" height="75"/></clipPath></defs><title>設施介紹-工作區域 9</title><g class="cls-2"><g id="Layer_1" data-name="Layer 1"><g class="cls-3"><rect class="cls-4" x="-32" y="-19.97" width="502" height="58.74"/><rect class="cls-5" x="-32" y="15.93" width="502" height="63.41"/><rect class="cls-6" x="-32" y="51.84" width="502" height="68.08"/><polygon class="cls-7" points="94.79 75.41 96.08 79.55 78.06 85.17 -13.99 27.36 -30.86 16.76 -31.37 -3.82 7.59 20.63 94.79 75.41"/><path class="cls-8" d="M241-64.17,54.37,44.31a9.53,9.53,0,0,0,0,16.48L170.3,128a51.83,51.83,0,0,0,52.26-.15L289,88.81l119-69.3a9.53,9.53,0,0,0,0-16.46L293.2-64.1A51.81,51.81,0,0,0,241-64.17Z"/><path class="cls-9" d="M35.63,68.38s.54-1.15.79-1.15.77,1.12.77,1.12,2,.27,2,.52-1.42.75-1.42.75.51,1.42.34,1.56-1.6-1.27-1.6-1.27-1.27,1.36-1.58,1.3.24-1.5.24-1.5-1.42-.62-1.4-.78A8,8,0,0,1,35.63,68.38Z"/><path class="cls-10" d="M36.42,67.23c0,.15,0,.31,0,.46s0,.3,0,.45,0,.3,0,.45V69h0l-.37.54-.38.54-.39.54-.2.27-.2.26.18-.27.18-.28.37-.55.37-.54.38-.54h0v-.45c0-.15,0-.3,0-.45v-.45Z"/><path class="cls-10" d="M33.75,68.93h.67l.67,0,1.33.05h0v0l.42.53.41.54.41.54.4.54-.43-.52-.43-.53-.42-.53-.42-.54,0,0L35.08,69l-.67,0Z"/><path class="cls-10" d="M36.42,69h.12l.31,0,.44,0,.5,0,.5,0h.76l-.31,0-.44,0-.5,0-.51,0-.44,0h-.43Z"/><g class="cls-11"><path class="cls-12" d="M37.6,70.46c-.42.09-1.15-.78-1.15-.78s-.81.9-1.08.78.3-1.09.3-1.09a5.91,5.91,0,0,1-1.9-.47s0,0,0,0,1.4.78,1.4.78-.54,1.44-.24,1.5,1.58-1.3,1.58-1.3,1.43,1.42,1.6,1.27-.34-1.56-.34-1.56,1.42-.51,1.42-.75c0,0,0,0,0,0a11.18,11.18,0,0,1-2,.48S38,70.37,37.6,70.46Z"/></g><path class="cls-10" d="M36.52,70.62a2,2,0,0,1,1.71.79c.69-.39,2.61-.13,2.78.78a3.27,3.27,0,0,0-2.4,1.35h-4.3a3.27,3.27,0,0,0-2.41-1.35c.18-.91,2.09-1.17,2.78-.78a2,2,0,0,1,1.71-.79Z"/><path class="cls-13" d="M31.9,72.19a3.27,3.27,0,0,1,2.41,1.35h.8C34.15,70.72,31.9,72.19,31.9,72.19Z"/><path class="cls-14" d="M33.07,72.48a3,3,0,0,1,1.37,1.31l.32-.17C34.05,71.53,33.07,72.48,33.07,72.48Z"/><path class="cls-13" d="M36.51,71.27h-.09c-1.29,0-1.11,1.73-1,2.27h2.15C37.63,73,37.81,71.27,36.51,71.27Z"/><path class="cls-14" d="M36.5,71.82h-.06c-1,0-.85,1.31-.78,1.72h1.62C37.35,73.13,37.48,71.82,36.5,71.82Z"/><path class="cls-13" d="M37.81,73.54h.8A3.27,3.27,0,0,1,41,72.19h0C40.87,72.1,38.74,70.81,37.81,73.54Z"/><path class="cls-14" d="M39.83,72.48a3.05,3.05,0,0,0-1.37,1.31l-.32-.17C38.85,71.53,39.83,72.48,39.83,72.48Z"/><path class="cls-9" d="M39.5,74.27c0,.79-1.36,1.43-3,1.43s-3.05-.64-3.05-1.43,1.36-1.2,3.05-1.2S39.5,73.48,39.5,74.27Z"/><path class="cls-15" d="M35.12,73.17c-1,.16-1.71.53-1.71,1.1s.7,1,1.71,1.28Z"/><path class="cls-16" d="M37.72,73.15v2.42c1.05-.23,1.78-.72,1.78-1.3S38.77,73.31,37.72,73.15Z"/><path class="cls-10" d="M40.31,75c-.2-.88-1.85-1.34-3.85-1.34s-3.65.46-3.85,1.34Z"/><path class="cls-17" d="M40.31,75c-.13-.55-.82-.94-1.82-1.15V75Z"/><path class="cls-18" d="M34.46,75V73.85c-1,.21-1.72.6-1.85,1.16Z"/><path class="cls-19" d="M34.92,71.44a2,2,0,0,1,1.77-.7A1.5,1.5,0,0,0,34.92,71.44Z"/><path class="cls-19" d="M32.14,71.93a2.55,2.55,0,0,1,2.32-.41A1.87,1.87,0,0,0,32.14,71.93Z"/></g></g></g></svg>