<svg xmlns="http://www.w3.org/2000/svg" xmlns:xlink="http://www.w3.org/1999/xlink" viewBox="0 0 146.5 101.5"><defs><style>.cls-1,.cls-20{fill:none;}.cls-2{isolation:isolate;}.cls-3{clip-path:url(#clip-path);}.cls-4{fill:#cb7c00;}.cls-5{fill:#c08b33;}.cls-10,.cls-5{mix-blend-mode:multiply;}.cls-6,.cls-8{fill:#f8d977;}.cls-6{opacity:0.8;}.cls-7{fill:#683b00;}.cls-8{opacity:0.5;}.cls-9{fill:#ffef8c;}.cls-10{fill:#d79e38;}.cls-11{fill:#ff3e00;}.cls-12{fill:#901d18;}.cls-13{fill:#ffd9bc;mix-blend-mode:screen;}.cls-14{clip-path:url(#clip-path-2);}.cls-15{fill:#c0c60a;}.cls-16{fill:#b6c108;}.cls-17{fill:#acbb05;}.cls-18{fill:#a2b603;}.cls-19{fill:#9e8b5c;}.cls-20{stroke:#9e8b5c;stroke-miterlimit:10;stroke-width:23px;}.cls-21{fill:#d1db46;}</style><clipPath id="clip-path"><rect class="cls-1" x="-17.48" y="-211.19" width="194.54" height="165.69"/></clipPath><clipPath id="clip-path-2"><rect class="cls-1" x="-3" y="-3.5" width="154" height="108.5"/></clipPath></defs><title>設施介紹-工作區域 10</title><g class="cls-2"><g id="Layer_1" data-name="Layer 1"><g class="cls-3"><polygon class="cls-4" points="208.09 35.93 205.62 37.03 76.03 -175.86 78.5 -176.97 208.09 35.93"/><path class="cls-5" d="M205.57,31.77a.92.92,0,0,1-1.4-.08c-1-1.51-56.48-92.23-56.17-91.67.2.35-14.09-23.08-15.86-26-.44-.74-24.19-39.91-25.3-41.61s-12.46-20.86-12.59-21.6c0-.26.28-.43.73-.54L85-166.28a4.19,4.19,0,0,1-2-.38s-2.47-4.37-3-5c-.24-.3.3-.79.92-1.2L78.49-177,76-175.86,205.62,37l2.47-1.11Z"/><path class="cls-6" d="M204.36,30.67c-1-2-95-156.17-96.21-158.13l-4-6.7c-2.67-4.45-5.29-8.93-8.12-13.31-.07-.12-.26,0-.2.1,2.45,4.4,5.11,8.72,7.71,13.05L107.3-128c1.32,2.19,31.27,52.28,32.77,54.38C140.18-73.45,204.45,30.85,204.36,30.67Z"/><polygon class="cls-4" points="-56.53 34.98 -54.07 36.1 76.69 -174.69 74.24 -175.81 -56.53 34.98"/><path class="cls-5" d="M-54,30.84a.92.92,0,0,0,1.4-.07c1-1.5,58.76-94.32,58.44-93.77-.2.35,12-19.35,13.75-22.28.45-.73,24.62-39.71,25.75-41.4s12.68-20.76,12.82-21.5c0-.26-.28-.43-.72-.54l10.18-16.46c1.63-.09,1.95-.36,1.95-.36s2.52-4.35,3-5c.24-.31-.29-.79-.91-1.21l2.53-4.08,2.45,1.12L-54.07,36.11-56.53,35Z"/><path class="cls-6" d="M-52.75,29.75c1-2,95.61-154.34,96.81-156.29q2-3.35,4.1-6.67c2.72-4.43,5.38-8.89,8.26-13.24.08-.12.26,0,.2.1-2.5,4.38-5.2,8.67-7.85,13q-1.92,3.15-3.86,6.29c-1.34,2.19-31.83,52-33.35,54.12C11.44-72.79-52.84,29.93-52.75,29.75Z"/><polygon class="cls-7" points="114.99 32.58 112.89 26.98 43.34 26.98 40.88 32.58 -62.59 32.58 -62.59 38.15 214.01 38.15 214.01 32.58 114.99 32.58"/><polygon class="cls-4" points="40.31 34.43 43.15 27.51 112.15 27.51 114.62 33.9 40.31 34.43"/><rect class="cls-4" x="-62.59" y="33.04" width="276.6" height="5.11"/><path class="cls-8" d="M77.71,34.53c7.35-.08,13.07,0,20.25-1.49,5.18-1.06,10.12-2.84,13.76-5.53H43.31C52.48,33.79,66.57,34.66,77.71,34.53Z"/><rect class="cls-5" x="-62.59" y="36.34" width="276.6" height="1.81"/><path class="cls-9" d="M43.32,27.79h68.46S66.85,29.14,43.32,27.79Z"/><path class="cls-10" d="M49.09,30.83a2.49,2.49,0,0,1-4.93,0,2.49,2.49,0,0,1,4.93,0Z"/><path class="cls-11" d="M48.78,30.83a2.18,2.18,0,0,1-4.31,0,2.18,2.18,0,0,1,4.31,0Z"/><path class="cls-12" d="M46.87,29a1.67,1.67,0,0,1,.73.36,1.51,1.51,0,0,1,.52,1,1.27,1.27,0,0,1-.73,1.13,2.11,2.11,0,0,1-1.44.2,1.72,1.72,0,0,1-.69-.34,1.38,1.38,0,0,1-.4-.57,1.12,1.12,0,0,1,.15-1.1,1.81,1.81,0,0,1,.37-.36l0,0a1.81,1.81,0,0,0-1,1.54,2.18,2.18,0,0,0,4.31,0A2,2,0,0,0,46.87,29Z"/><path class="cls-13" d="M46.52,29.14a.55.55,0,0,0-.55.56.6.6,0,0,0,.65.48.55.55,0,0,0,.55-.56A.6.6,0,0,0,46.52,29.14Z"/><path class="cls-13" d="M45.71,29.86h0a.41.41,0,0,0-.55.25c-.06.25.24.46.51.38h0A.32.32,0,0,0,45.71,29.86Z"/><path class="cls-10" d="M58,30.83a2.5,2.5,0,0,1-4.94,0,2.5,2.5,0,0,1,4.94,0Z"/><path class="cls-11" d="M57.66,30.83a2.17,2.17,0,0,1-4.3,0,2.17,2.17,0,0,1,4.3,0Z"/><path class="cls-12" d="M55.75,29a1.67,1.67,0,0,1,.73.36,1.44,1.44,0,0,1,.52,1,1.28,1.28,0,0,1-.72,1.13,2.11,2.11,0,0,1-1.44.2,1.66,1.66,0,0,1-.69-.34,1.41,1.41,0,0,1-.41-.57,1.15,1.15,0,0,1,.15-1.1,2.1,2.1,0,0,1,.37-.36l.05,0a1.81,1.81,0,0,0-1,1.54,2.17,2.17,0,0,0,4.3,0A2,2,0,0,0,55.75,29Z"/><path class="cls-13" d="M55.41,29.14a.56.56,0,0,0-.56.56.6.6,0,0,0,.65.48.56.56,0,0,0,.56-.56A.6.6,0,0,0,55.41,29.14Z"/><path class="cls-13" d="M54.59,29.86h0a.41.41,0,0,0-.55.25c-.05.25.24.46.52.38h0A.32.32,0,0,0,54.59,29.86Z"/><path class="cls-10" d="M66.86,30.83a2.49,2.49,0,0,1-4.93,0,2.49,2.49,0,0,1,4.93,0Z"/><path class="cls-11" d="M66.54,30.83a2.17,2.17,0,0,1-4.3,0,2.17,2.17,0,0,1,4.3,0Z"/><path class="cls-12" d="M64.64,29a1.67,1.67,0,0,1,.73.36,1.51,1.51,0,0,1,.52,1,1.27,1.27,0,0,1-.73,1.13,2.11,2.11,0,0,1-1.44.2,1.72,1.72,0,0,1-.69-.34,1.38,1.38,0,0,1-.4-.57,1.12,1.12,0,0,1,.15-1.1,1.81,1.81,0,0,1,.37-.36l0,0a1.81,1.81,0,0,0-.95,1.54,2.17,2.17,0,0,0,4.3,0A2,2,0,0,0,64.64,29Z"/><path class="cls-13" d="M64.29,29.14a.55.55,0,0,0-.55.56.59.59,0,0,0,.65.48.56.56,0,0,0,.55-.56A.6.6,0,0,0,64.29,29.14Z"/><path class="cls-13" d="M63.48,29.86h0a.41.41,0,0,0-.55.25c0,.25.24.46.52.38h0A.32.32,0,0,0,63.48,29.86Z"/><path class="cls-10" d="M75.75,30.83a2.5,2.5,0,0,1-4.94,0,2.5,2.5,0,0,1,4.94,0Z"/><path class="cls-11" d="M75.43,30.83a2.17,2.17,0,0,1-4.3,0,2.17,2.17,0,0,1,4.3,0Z"/><path class="cls-12" d="M73.52,29a1.67,1.67,0,0,1,.73.36,1.44,1.44,0,0,1,.52,1A1.27,1.27,0,0,1,74,31.5a2.07,2.07,0,0,1-1.43.2,1.66,1.66,0,0,1-.69-.34,1.41,1.41,0,0,1-.41-.57,1.15,1.15,0,0,1,.15-1.1,1.81,1.81,0,0,1,.37-.36l0,0a1.79,1.79,0,0,0-1,1.54,2.17,2.17,0,0,0,4.3,0A2,2,0,0,0,73.52,29Z"/><path class="cls-13" d="M73.17,29.14a.56.56,0,0,0-.55.56.6.6,0,0,0,.65.48.55.55,0,0,0,.55-.56A.59.59,0,0,0,73.17,29.14Z"/><path class="cls-13" d="M72.36,29.86h0a.41.41,0,0,0-.55.25c0,.25.24.46.52.38h0A.32.32,0,0,0,72.36,29.86Z"/><path class="cls-10" d="M84.63,30.83a2.5,2.5,0,0,1-4.94,0,2.5,2.5,0,0,1,4.94,0Z"/><path class="cls-11" d="M84.31,30.83a2.17,2.17,0,0,1-4.3,0,2.17,2.17,0,0,1,4.3,0Z"/><path class="cls-12" d="M82.41,29a1.73,1.73,0,0,1,.73.36,1.51,1.51,0,0,1,.52,1,1.29,1.29,0,0,1-.73,1.13,2.11,2.11,0,0,1-1.44.2,1.66,1.66,0,0,1-.69-.34,1.38,1.38,0,0,1-.4-.57,1.12,1.12,0,0,1,.15-1.1,1.75,1.75,0,0,1,.36-.36l0,0A1.81,1.81,0,0,0,80,30.83a2.17,2.17,0,0,0,4.3,0A2,2,0,0,0,82.41,29Z"/><path class="cls-13" d="M82.06,29.14a.55.55,0,0,0-.55.56.59.59,0,0,0,.65.48.56.56,0,0,0,.55-.56A.6.6,0,0,0,82.06,29.14Z"/><path class="cls-13" d="M81.25,29.86h0a.41.41,0,0,0-.55.25c-.05.25.24.46.52.38h0A.32.32,0,0,0,81.25,29.86Z"/><path class="cls-10" d="M93.52,30.83a2.5,2.5,0,0,1-4.94,0,2.5,2.5,0,0,1,4.94,0Z"/><path class="cls-11" d="M93.2,30.83a2.17,2.17,0,0,1-4.3,0,2.17,2.17,0,0,1,4.3,0Z"/><path class="cls-12" d="M91.29,29a1.67,1.67,0,0,1,.73.36,1.44,1.44,0,0,1,.52,1,1.27,1.27,0,0,1-.73,1.13,2.07,2.07,0,0,1-1.43.2,1.66,1.66,0,0,1-.69-.34,1.41,1.41,0,0,1-.41-.57,1.15,1.15,0,0,1,.15-1.1,1.81,1.81,0,0,1,.37-.36l0,0a1.79,1.79,0,0,0-.95,1.54,2.17,2.17,0,0,0,4.3,0A2,2,0,0,0,91.29,29Z"/><path class="cls-13" d="M90.94,29.14a.56.56,0,0,0-.55.56.6.6,0,0,0,.65.48.55.55,0,0,0,.55-.56A.6.6,0,0,0,90.94,29.14Z"/><path class="cls-13" d="M90.13,29.86h0a.41.41,0,0,0-.55.25c0,.25.24.46.52.38h0A.32.32,0,0,0,90.13,29.86Z"/><path class="cls-10" d="M102.4,30.83a2.5,2.5,0,0,1-4.94,0,2.5,2.5,0,0,1,4.94,0Z"/><path class="cls-11" d="M102.08,30.83a2.17,2.17,0,0,1-4.3,0,2.17,2.17,0,0,1,4.3,0Z"/><path class="cls-12" d="M100.18,29a1.64,1.64,0,0,1,.72.36,1.49,1.49,0,0,1,.53,1,1.31,1.31,0,0,1-.73,1.13,2.11,2.11,0,0,1-1.44.2,1.66,1.66,0,0,1-.69-.34,1.51,1.51,0,0,1-.41-.57,1.15,1.15,0,0,1,.16-1.1,1.75,1.75,0,0,1,.36-.36l0,0a1.81,1.81,0,0,0-1,1.54,2.17,2.17,0,0,0,4.3,0A2,2,0,0,0,100.18,29Z"/><path class="cls-13" d="M99.83,29.14a.55.55,0,0,0-.55.56.59.59,0,0,0,.65.48.56.56,0,0,0,.55-.56A.6.6,0,0,0,99.83,29.14Z"/><path class="cls-13" d="M99,29.86h0a.41.41,0,0,0-.55.25c0,.25.24.46.52.38h0A.32.32,0,0,0,99,29.86Z"/><path class="cls-10" d="M111.28,30.83a2.49,2.49,0,0,1-4.93,0,2.49,2.49,0,0,1,4.93,0Z"/><path class="cls-11" d="M111,30.83a2.17,2.17,0,0,1-4.3,0,2.17,2.17,0,0,1,4.3,0Z"/><path class="cls-12" d="M109.06,29a1.67,1.67,0,0,1,.73.36,1.44,1.44,0,0,1,.52,1,1.27,1.27,0,0,1-.73,1.13,2.09,2.09,0,0,1-1.43.2,1.76,1.76,0,0,1-.7-.34,1.38,1.38,0,0,1-.4-.57,1.12,1.12,0,0,1,.15-1.1,1.81,1.81,0,0,1,.37-.36l.05,0a1.79,1.79,0,0,0-1,1.54,2.17,2.17,0,0,0,4.3,0A2,2,0,0,0,109.06,29Z"/><path class="cls-13" d="M108.71,29.14a.56.56,0,0,0-.55.56.6.6,0,0,0,.65.48.55.55,0,0,0,.55-.56A.6.6,0,0,0,108.71,29.14Z"/><path class="cls-13" d="M107.9,29.86h0a.41.41,0,0,0-.55.25c0,.25.24.46.52.38h0A.32.32,0,0,0,107.9,29.86Z"/></g><g class="cls-14"><rect class="cls-15" x="-200.5" y="-32.37" width="502" height="54.07"/><rect class="cls-16" x="-200.5" y="3.53" width="502" height="58.74"/><rect class="cls-17" x="-200.5" y="39.43" width="502" height="63.41"/><rect class="cls-18" x="-200.5" y="75.34" width="502" height="68.08"/><polygon class="cls-19" points="301.5 178.32 301.5 181.61 272.46 181.61 163.74 118.85 143.82 107.34 152.5 92.29 198.51 118.85 301.5 178.32"/><path class="cls-20" d="M72.5-40.67-114.13,67.81a9.53,9.53,0,0,0,0,16.48L1.8,151.52a51.83,51.83,0,0,0,52.26-.15l66.44-39.06,119-69.3a9.53,9.53,0,0,0,0-16.46L124.7-40.6A51.81,51.81,0,0,0,72.5-40.67Z"/><path class="cls-21" d="M73.3,4.7-26.84,61.75a5.88,5.88,0,0,0,0,10.23l67.27,38.43a20.43,20.43,0,0,0,20.38-.06l.49.1,99.22-57.1a5.88,5.88,0,0,0,0-10.22L93.66,4.73A20.44,20.44,0,0,0,73.3,4.7Z"/><rect class="cls-1" x="-50.43" y="-45.95" width="124.93" height="139.95"/></g></g></g></svg>