<svg xmlns="http://www.w3.org/2000/svg" xmlns:xlink="http://www.w3.org/1999/xlink" viewBox="0 0 137 96"><defs><style>.cls-1{fill:none;}.cls-2{isolation:isolate;}.cls-3{clip-path:url(#clip-path);}.cls-4{fill:#ded712;}.cls-5{fill:#d4d10f;}.cls-6{fill:#cacc0d;}.cls-7{fill:#e8db4a;}.cls-11,.cls-18,.cls-32,.cls-8{fill:#e0918b;}.cls-19,.cls-9{fill:#e35a4d;}.cls-10{fill:#e8e4a3;}.cls-11,.cls-23,.cls-24,.cls-27,.cls-30,.cls-31,.cls-32{opacity:0.5;}.cls-11,.cls-16,.cls-18,.cls-19,.cls-23,.cls-24,.cls-30,.cls-31,.cls-33{mix-blend-mode:multiply;}.cls-12{fill:#dded75;}.cls-13{fill:#97b2d5;}.cls-14{fill:#417ae8;}.cls-15{fill:#be3a25;}.cls-16{fill:#759bdc;}.cls-17{fill:#b8c7d9;}.cls-20{fill:#d8f52c;}.cls-21,.cls-33{fill:#eed830;}.cls-22,.cls-27,.cls-28{fill:#e0e0e0;}.cls-23{fill:#def248;}.cls-24{fill:#e7f708;}.cls-25{fill:#eaf43b;}.cls-26{fill:#eed01d;}.cls-28{opacity:0.7;}.cls-29{fill:#e8f14d;}.cls-30{fill:#f0df21;}.cls-31{fill:#e16870;}.cls-34{fill:#920e23;}.cls-35{opacity:0.8;}</style><clipPath id="clip-path"><rect class="cls-1" x="-1.5" y="-1.5" width="140.36" height="101.5"/></clipPath></defs><title>設施介紹-工作區域 12</title><g class="cls-2"><g id="Layer_1" data-name="Layer 1"><g class="cls-3"><rect class="cls-4" x="-201.02" y="-6.23" width="582.32" height="46.45"/><rect class="cls-5" x="-201.02" y="35.41" width="582.32" height="51.87"/><rect class="cls-6" x="-201.02" y="77.06" width="582.32" height="57.29"/><path class="cls-7" d="M-34.11,70.2-102,109.65a5.86,5.86,0,0,0,0,10.13l65.77,38.05a19.74,19.74,0,0,0,19.93-.06L9.07,142.88l42.11-24.52a5.85,5.85,0,0,0,0-10.11l-65.39-38A19.77,19.77,0,0,0-34.11,70.2Z"/><path class="cls-7" d="M80.73,15.68,12.86,55.13a5.86,5.86,0,0,0,0,10.13l65.77,38.05a19.74,19.74,0,0,0,19.93-.06l25.34-14.89L166,63.84a5.85,5.85,0,0,0,0-10.11l-65.39-38A19.77,19.77,0,0,0,80.73,15.68Z"/><polygon class="cls-8" points="10.56 33.05 -1.85 33.05 -1.07 35.45 9.78 35.45 10.56 33.05"/><path class="cls-9" d="M9.82,35.51H-1.11L-1.93,33H10.64ZM-1,35.39H9.74l.75-2.29H-1.78Z"/><polygon class="cls-8" points="0.52 40.34 8.19 40.34 9.22 37.19 -0.51 37.19 0.52 40.34"/><path class="cls-9" d="M8.24,40.4H.48L-.59,37.13H9.3ZM.56,40.29H8.15l1-3H-.43Z"/><polygon class="cls-10" points="-0.66 36.71 -0.51 37.19 9.22 37.19 9.37 36.71 -0.66 36.71"/><path class="cls-9" d="M9.26,37.24H-.55l-.19-.58H9.45Zm-9.73-.11H9.18l.12-.36H-.58Z"/><polygon class="cls-8" points="9.63 35.92 -0.92 35.92 -0.66 36.71 9.37 36.71 9.63 35.92"/><path class="cls-9" d="M9.42,36.77H-.7l-.3-.9H9.71Zm-10-.11h10L9.55,36H-.84Z"/><polygon class="cls-10" points="9.78 35.45 -1.07 35.45 -0.92 35.92 9.63 35.92 9.78 35.45"/><path class="cls-9" d="M9.67,36H-1l-.19-.59h11ZM-.88,35.87H9.59l.12-.36H-1Z"/><path class="cls-11" d="M7.22,40.07c-1,0-1.25-2.7-1.25-2.7s-.13,2.71-1.52,2.72-1.6-2.72-1.6-2.72-.3,2.7-1.31,2.62C.72,39.94.06,38.69-.31,37.8l.83,2.54H8.19l.92-2.83C8.85,38.23,8.08,40.09,7.22,40.07Z"/><rect class="cls-12" x="2.85" y="37.31" width="3.13" height="2.98"/><polygon class="cls-13" points="2.47 37.38 0.08 37.38 -1.02 33.82 2.47 33.82 2.47 37.38"/><path class="cls-14" d="M2.47,37.44H.08a.05.05,0,0,1-.06,0l-1.1-3.56a.07.07,0,0,1,0-.05s0,0,.05,0H2.47s.06,0,.06,0v3.57S2.51,37.44,2.47,37.44ZM.12,37.33h2.3V33.88H-.94Z"/><rect class="cls-13" x="2.79" y="33.82" width="3.21" height="3.56"/><path class="cls-14" d="M6,37.44H2.79a.06.06,0,0,1-.06,0V33.82a.06.06,0,0,1,.06,0H6a.06.06,0,0,1,.06,0v3.57A.06.06,0,0,1,6,37.44Zm-3.15-.11H6V33.88H2.85Z"/><polygon class="cls-13" points="6.31 37.38 6.31 33.82 9.8 33.82 8.55 37.38 6.31 37.38"/><path class="cls-14" d="M8.55,37.44H6.31a.06.06,0,0,1-.06,0V33.82a.06.06,0,0,1,.06,0H9.8l0,0s0,0,0,.05L8.61,37.4A.05.05,0,0,1,8.55,37.44Zm-2.18-.11H8.51l1.22-3.45H6.37Z"/><path class="cls-9" d="M5.17,37.92a.21.21,0,0,1-.21.21.21.21,0,0,1,0-.42A.21.21,0,0,1,5.17,37.92Z"/><path class="cls-15" d="M5,38.19a.27.27,0,0,1,0-.54.27.27,0,0,1,0,.54Zm0-.42a.15.15,0,0,0-.15.15.15.15,0,0,0,.15.15.15.15,0,0,0,.16-.15A.16.16,0,0,0,5,37.77Z"/><path class="cls-9" d="M4,37.92a.21.21,0,1,1-.21-.21A.21.21,0,0,1,4,37.92Z"/><path class="cls-15" d="M3.75,38.19A.27.27,0,1,1,4,37.92.27.27,0,0,1,3.75,38.19Zm0-.42a.15.15,0,0,0-.15.15.14.14,0,0,0,.15.15.15.15,0,0,0,.15-.15A.15.15,0,0,0,3.75,37.77Z"/><polygon class="cls-13" points="6.37 37.67 8.49 37.67 7.79 40.07 6.37 40.07 6.37 37.67"/><path class="cls-14" d="M7.79,40.13H6.37a.06.06,0,0,1-.06-.06v-2.4s0-.05.06-.05H8.5a0,0,0,0,1,0,0,0,0,0,0,1,0,0l-.71,2.4A.07.07,0,0,1,7.79,40.13ZM6.42,40H7.74l.68-2.29h-2Z"/><polygon class="cls-13" points="2.29 37.67 0.16 37.67 0.87 40.07 2.29 40.07 2.29 37.67"/><path class="cls-14" d="M2.29,40.13H.87a.07.07,0,0,1-.06,0L.1,37.69a.07.07,0,0,1,0,0s0,0,.05,0H2.29a.06.06,0,0,1,.06.05v2.4A.06.06,0,0,1,2.29,40.13ZM.91,40H2.23V37.73h-2Z"/><path class="cls-16" d="M6.37,37.67v2.4H7.79l.71-2.4Zm1.28,2H6.56V37.77H8.19Z"/><path class="cls-16" d="M.87,40.07H2.29v-2.4H.16ZM2.1,39.7H1L.47,37.77H2.1Z"/><polygon class="cls-17" points="-0.04 34.95 -0.22 35.33 0.06 36.28 0.68 34.95 -0.04 34.95"/><polygon class="cls-17" points="2.14 34.95 1.43 34.95 0.42 37.1 1.13 37.1 2.14 34.95"/><polygon class="cls-17" points="3.53 34.95 3.09 35.88 3.09 37.1 3.24 37.1 4.26 34.95 3.53 34.95"/><polygon class="cls-17" points="5.7 34.98 5.7 34.95 5 34.95 3.99 37.1 4.7 37.1 5.7 34.98"/><polygon class="cls-17" points="8.19 34.95 7.17 37.1 7.88 37.1 8.9 34.95 8.19 34.95"/><polygon class="cls-17" points="6.71 34.95 6.68 35.02 6.68 36.55 7.44 34.95 6.71 34.95"/><path class="cls-16" d="M-.68,34.92h0l.76,2.47H2.47V33.82H-1ZM2.17,37.1H.3l-.64-2.18H2.17Z"/><path class="cls-16" d="M2.79,34.92v2.47H6V33.82H2.79ZM5.7,37.1H3.09V34.92H5.7Z"/><path class="cls-16" d="M6.31,33.82v3.57H8.55L9.8,33.82Zm2,3.28H6.68V34.92H9Z"/><polygon class="cls-16" points="-1.02 33.82 -0.87 34.31 2.47 34.31 2.47 33.82 -1.02 33.82"/><rect class="cls-16" x="2.79" y="33.82" width="3.21" height="0.49"/><polygon class="cls-16" points="9.8 33.82 6.31 33.82 6.31 34.31 9.63 34.31 9.8 33.82"/><polygon class="cls-18" points="-1.85 33.05 -1.67 33.59 10.4 33.59 10.57 33.05 -1.85 33.05"/><polygon class="cls-19" points="-1.81 33.14 -1.71 33.46 10.46 33.46 10.57 33.14 -1.81 33.14"/><polygon class="cls-20" points="-2.8 33.28 4.36 30.26 11.52 33.28 -2.8 33.28"/><path class="cls-21" d="M11.8,33.34H-3.09L4.36,30.2Zm-14.32-.12H11.24l-6.88-2.9Z"/><polygon class="cls-17" points="8.02 38.36 8.19 37.77 7.57 37.77 6.68 39.7 7.4 39.7 8.02 38.36"/><polygon class="cls-17" points="6.56 37.77 6.56 38.43 6.87 37.77 6.56 37.77"/><polygon class="cls-17" points="0.79 37.77 0.59 38.2 0.86 39.13 1.49 37.77 0.79 37.77"/><polygon class="cls-17" points="1.32 39.7 2.02 39.7 2.1 39.53 2.1 38.02 1.32 39.7"/><polygon class="cls-22" points="-0.04 34.95 -0.22 35.33 -0.13 35.64 0.22 34.95 -0.04 34.95"/><polygon class="cls-22" points="1.43 34.95 0.42 37.1 0.62 37.1 1.7 34.95 1.43 34.95"/><polygon class="cls-22" points="0.79 37.77 0.59 38.2 0.66 38.45 1 37.77 0.79 37.77"/><polygon class="cls-22" points="2.1 38.02 1.32 39.7 1.5 39.7 2.1 38.51 2.1 38.02"/><polygon class="cls-22" points="3.53 34.95 3.09 35.88 3.09 36.33 3.79 34.95 3.53 34.95"/><polygon class="cls-22" points="5 34.95 3.99 37.1 4.2 37.1 5.29 34.95 5 34.95"/><polygon class="cls-22" points="8.19 34.95 7.17 37.1 7.39 37.1 8.48 34.95 8.19 34.95"/><polygon class="cls-22" points="6.71 34.95 6.68 35.02 6.68 35.62 7.02 34.95 6.71 34.95"/><polygon class="cls-22" points="7.57 37.77 6.68 39.7 6.91 39.7 7.89 37.77 7.57 37.77"/><path class="cls-23" d="M6,37.31S5.86,40,4.47,40s-1.62-2.73-1.62-2.73v3H6v-3Z"/><path class="cls-24" d="M11.52,33.28,8.75,32.11c1.63,1-.55,1.21-4.95,1.14s-5-.53-4.26-1l-2.34,1Z"/><polygon class="cls-9" points="3.79 31.24 3.44 30.16 4.36 29.49 5.27 30.16 4.92 31.24 3.79 31.24"/><path class="cls-15" d="M5,31.3H3.75l-.38-1.16,1-.72,1,.72Zm-1.14-.12h1l.33-1-.85-.62-.86.62Z"/><polygon class="cls-25" points="4.07 30.84 3.89 30.29 4.36 29.96 4.82 30.29 4.64 30.84 4.07 30.84"/><path class="cls-26" d="M4.68,30.89H4l-.2-.62.53-.38.53.38Zm-.57-.11H4.6l.15-.47L4.36,30l-.4.28Z"/><path class="cls-27" d="M5.39,30.87c-.1,0-.43.48-.43.48H3.73s-.24-.54-.38-.49l-3,1.29a11,11,0,0,0,7.88-.08Z"/><path class="cls-28" d="M5.23,31a4.42,4.42,0,0,0-.27.37H4.68l.5,1.47A9.82,9.82,0,0,0,7.3,32.4Z"/><path class="cls-28" d="M3.51,31,1.22,32.45l.78.18,1.61-1.52Z"/><polygon class="cls-8" points="19.1 59.31 6.68 59.31 7.46 61.71 18.32 61.71 19.1 59.31"/><path class="cls-9" d="M18.36,61.77H7.42L6.6,59.25H19.17ZM7.5,61.65H18.28L19,59.37H6.76Z"/><polygon class="cls-8" points="9.05 66.61 16.73 66.61 17.75 63.45 8.02 63.45 9.05 66.61"/><path class="cls-9" d="M16.77,66.66H9L8,63.39h9.88Zm-7.68-.11h7.59l1-3H8.1Z"/><polygon class="cls-10" points="7.87 62.98 8.02 63.45 17.75 63.45 17.91 62.98 7.87 62.98"/><path class="cls-9" d="M17.79,63.51H8l-.19-.59H18Zm-9.72-.12h9.64l.12-.36H8Z"/><polygon class="cls-8" points="18.16 62.19 7.62 62.19 7.87 62.98 17.91 62.98 18.16 62.19"/><path class="cls-9" d="M18,63H7.83l-.29-.9h10.7Zm-10-.11h10l.22-.68H7.69Z"/><polygon class="cls-10" points="18.32 61.71 7.46 61.71 7.62 62.19 18.16 62.19 18.32 61.71"/><path class="cls-9" d="M18.2,62.24H7.57l-.19-.59h11ZM7.65,62.13H18.12l.12-.36H7.54Z"/><path class="cls-11" d="M15.75,66.33c-.95,0-1.25-2.7-1.25-2.7s-.12,2.71-1.52,2.73-1.6-2.73-1.6-2.73-.3,2.7-1.31,2.63c-.82-.06-1.48-1.31-1.85-2.2l.83,2.55h7.68l.92-2.84C17.38,64.49,16.62,66.35,15.75,66.33Z"/><rect class="cls-12" x="11.38" y="63.57" width="3.12" height="2.98"/><polygon class="cls-13" points="11.01 63.65 8.61 63.65 7.51 60.09 11.01 60.09 11.01 63.65"/><path class="cls-14" d="M11,63.7H8.61a.05.05,0,0,1-.06,0L7.45,60.1a.11.11,0,0,1,0-.05l0,0H11s.05,0,.05.06v3.56A0,0,0,0,1,11,63.7Zm-2.36-.11H11V60.14H7.59Z"/><rect class="cls-13" x="11.32" y="60.09" width="3.21" height="3.56"/><path class="cls-14" d="M14.53,63.7H11.32a0,0,0,0,1-.05-.05V60.09s0-.06.05-.06h3.21a.05.05,0,0,1,.06.06v3.56S14.57,63.7,14.53,63.7Zm-3.15-.11h3.1V60.14h-3.1Z"/><polygon class="cls-13" points="14.85 63.65 14.85 60.09 18.34 60.09 17.09 63.65 14.85 63.65"/><path class="cls-14" d="M17.09,63.7H14.84a0,0,0,0,1-.05-.05V60.09s0-.06.05-.06h3.5l0,0a.07.07,0,0,1,0,.06l-1.25,3.56A.05.05,0,0,1,17.09,63.7Zm-2.19-.11h2.15l1.21-3.45H14.9Z"/><path class="cls-9" d="M13.7,64.18a.21.21,0,0,1-.21.21.21.21,0,0,1-.21-.21.22.22,0,0,1,.21-.21A.21.21,0,0,1,13.7,64.18Z"/><path class="cls-15" d="M13.49,64.45a.27.27,0,0,1-.26-.27.27.27,0,0,1,.53,0A.27.27,0,0,1,13.49,64.45Zm0-.42a.15.15,0,0,0-.15.15.16.16,0,0,0,.15.16.16.16,0,0,0,.16-.16A.16.16,0,0,0,13.49,64Z"/><path class="cls-9" d="M12.49,64.18a.21.21,0,0,1-.42,0,.21.21,0,1,1,.42,0Z"/><path class="cls-15" d="M12.28,64.45a.28.28,0,0,1-.27-.27.27.27,0,0,1,.27-.26.26.26,0,0,1,.27.26A.27.27,0,0,1,12.28,64.45Zm0-.42a.15.15,0,0,0-.15.15.16.16,0,0,0,.15.16.16.16,0,0,0,.16-.16A.16.16,0,0,0,12.28,64Z"/><polygon class="cls-13" points="14.9 63.94 17.03 63.94 16.32 66.33 14.9 66.33 14.9 63.94"/><path class="cls-14" d="M16.32,66.39H14.9a.06.06,0,0,1-.06,0v-2.4a.06.06,0,0,1,.06-.06H17l0,0s0,0,0,.05l-.71,2.4S16.34,66.39,16.32,66.39ZM15,66.28h1.33L17,64H15Z"/><polygon class="cls-13" points="10.82 63.94 8.69 63.94 9.4 66.33 10.82 66.33 10.82 63.94"/><path class="cls-14" d="M10.82,66.39H9.4s-.05,0-.05,0L8.64,64s0,0,0-.05l0,0h2.13a.06.06,0,0,1,.06.06v2.4A.06.06,0,0,1,10.82,66.39Zm-1.38-.11h1.32V64h-2Z"/><path class="cls-16" d="M14.9,63.94v2.4h1.42l.71-2.4Zm1.28,2H15.1V64h1.62Z"/><path class="cls-16" d="M9.4,66.34h1.42v-2.4H8.69ZM10.63,66H9.54L9,64h1.63Z"/><polygon class="cls-17" points="8.49 61.21 8.31 61.59 8.59 62.54 9.22 61.21 8.49 61.21"/><polygon class="cls-17" points="10.67 61.21 9.96 61.21 8.95 63.36 9.66 63.36 10.67 61.21"/><polygon class="cls-17" points="12.07 61.21 11.63 62.14 11.63 63.36 11.77 63.36 12.79 61.21 12.07 61.21"/><polygon class="cls-17" points="14.23 61.25 14.23 61.21 13.54 61.21 12.52 63.36 13.23 63.36 14.23 61.25"/><polygon class="cls-17" points="16.72 61.21 15.7 63.36 16.41 63.36 17.43 61.21 16.72 61.21"/><polygon class="cls-17" points="15.25 61.21 15.21 61.29 15.21 62.81 15.97 61.21 15.25 61.21"/><path class="cls-16" d="M7.85,61.19h0l.76,2.46H11V60.09H7.51Zm2.85,2.17H8.83l-.64-2.17H10.7Z"/><path class="cls-16" d="M11.32,61.19v2.46h3.21V60.09H11.32Zm2.91,2.17h-2.6V61.19h2.6Z"/><path class="cls-16" d="M14.84,60.09v3.56h2.25l1.25-3.56Zm2,3.27H15.21V61.19h2.35Z"/><polygon class="cls-16" points="7.51 60.09 7.66 60.58 11.01 60.58 11.01 60.09 7.51 60.09"/><rect class="cls-16" x="11.32" y="60.09" width="3.21" height="0.49"/><polygon class="cls-16" points="18.34 60.09 14.85 60.09 14.85 60.58 18.17 60.58 18.34 60.09"/><polygon class="cls-18" points="6.68 59.32 6.87 59.86 18.93 59.85 19.1 59.32 6.68 59.32"/><polygon class="cls-19" points="6.71 59.41 6.82 59.73 18.99 59.73 19.1 59.41 6.71 59.41"/><polygon class="cls-20" points="5.73 59.54 12.89 56.52 20.05 59.54 5.73 59.54"/><path class="cls-21" d="M20.33,59.6H5.45l7.44-3.14ZM6,59.49H19.77l-6.88-2.91Z"/><polygon class="cls-17" points="16.55 64.62 16.72 64.03 16.11 64.03 15.21 65.96 15.93 65.96 16.55 64.62"/><polygon class="cls-17" points="15.1 64.03 15.1 64.69 15.4 64.03 15.1 64.03"/><polygon class="cls-17" points="9.32 64.03 9.12 64.46 9.39 65.4 10.02 64.03 9.32 64.03"/><polygon class="cls-17" points="9.85 65.96 10.55 65.96 10.63 65.79 10.63 64.29 9.85 65.96"/><polygon class="cls-22" points="8.49 61.21 8.31 61.59 8.4 61.9 8.75 61.21 8.49 61.21"/><polygon class="cls-22" points="9.96 61.21 8.95 63.36 9.15 63.36 10.23 61.21 9.96 61.21"/><polygon class="cls-22" points="9.32 64.03 9.12 64.46 9.19 64.71 9.54 64.03 9.32 64.03"/><polygon class="cls-22" points="10.63 64.29 9.85 65.96 10.03 65.96 10.63 64.77 10.63 64.29"/><polygon class="cls-22" points="12.07 61.21 11.63 62.14 11.63 62.59 12.32 61.21 12.07 61.21"/><polygon class="cls-22" points="13.54 61.21 12.52 63.36 12.73 63.36 13.82 61.21 13.54 61.21"/><polygon class="cls-22" points="16.72 61.21 15.7 63.36 15.92 63.36 17.01 61.21 16.72 61.21"/><polygon class="cls-22" points="15.25 61.21 15.21 61.29 15.21 61.88 15.55 61.21 15.25 61.21"/><polygon class="cls-22" points="16.11 64.03 15.21 65.96 15.44 65.96 16.42 64.03 16.11 64.03"/><path class="cls-23" d="M14.5,63.58s-.11,2.7-1.49,2.72-1.63-2.73-1.63-2.73v3H14.5v-3Z"/><path class="cls-24" d="M20.05,59.54l-2.77-1.17c1.63,1-.55,1.21-5,1.14s-5-.53-4.26-1l-2.34,1Z"/><polygon class="cls-9" points="12.32 57.5 11.97 56.42 12.89 55.75 13.81 56.42 13.46 57.5 12.32 57.5"/><path class="cls-15" d="M13.5,57.56H12.28L11.9,56.4l1-.72,1,.72Zm-1.14-.11h1.05l.33-1-.85-.61-.85.61Z"/><polygon class="cls-25" points="12.6 57.1 12.43 56.56 12.89 56.22 13.35 56.56 13.17 57.1 12.6 57.1"/><path class="cls-26" d="M13.21,57.16h-.65l-.2-.63.53-.38.53.38ZM12.64,57h.49l.15-.46-.39-.29-.4.29Z"/><path class="cls-27" d="M13.92,57.14c-.1,0-.42.47-.42.47H12.26s-.24-.54-.38-.49l-3,1.3a11,11,0,0,0,7.88-.09Z"/><path class="cls-28" d="M13.76,57.24c-.12.15-.26.37-.26.37h-.29l.5,1.47a10,10,0,0,0,2.13-.41Z"/><path class="cls-28" d="M12,57.22,9.76,58.71l.77.18,1.61-1.52Z"/><polygon class="cls-8" points="10.54 85.46 -1.87 85.46 -1.09 87.86 9.76 87.86 10.54 85.46"/><path class="cls-9" d="M9.8,87.92H-1.13l-.82-2.52H10.62ZM-1,87.81H9.72l.75-2.29H-1.8Z"/><polygon class="cls-8" points="0.5 92.76 8.17 92.76 9.2 89.6 -0.53 89.6 0.5 92.76"/><path class="cls-9" d="M8.21,92.81H.46L-.6,89.54H9.28ZM.54,92.7H8.13l1-3H-.45Z"/><polygon class="cls-10" points="-0.68 89.13 -0.53 89.6 9.2 89.6 9.35 89.13 -0.68 89.13"/><path class="cls-9" d="M9.24,89.66H-.57l-.19-.59H9.43Zm-9.73-.12H9.16l.11-.36H-.6Z"/><polygon class="cls-8" points="9.61 88.33 -0.94 88.33 -0.68 89.13 9.35 89.13 9.61 88.33"/><path class="cls-9" d="M9.39,89.18H-.72l-.3-.9H9.69Zm-10-.11h10l.22-.68H-.86Z"/><polygon class="cls-10" points="9.76 87.86 -1.09 87.86 -0.94 88.33 9.61 88.33 9.76 87.86"/><path class="cls-9" d="M9.65,88.39H-1l-.19-.58h11ZM-.9,88.28H9.57l.12-.36H-1Z"/><path class="cls-11" d="M7.2,92.48c-1,0-1.25-2.7-1.25-2.7s-.13,2.71-1.52,2.73-1.6-2.73-1.6-2.73-.3,2.7-1.31,2.63C.7,92.35,0,91.1-.33,90.21L.5,92.76H8.17l.92-2.83C8.83,90.64,8.06,92.5,7.2,92.48Z"/><rect class="cls-12" x="2.83" y="89.72" width="3.13" height="2.98"/><polygon class="cls-13" points="2.45 89.8 0.06 89.8 -1.04 86.24 2.45 86.24 2.45 89.8"/><path class="cls-14" d="M2.45,89.86H.06a.07.07,0,0,1-.06,0l-1.1-3.57a.11.11,0,0,1,0,0l.05,0H2.45a.06.06,0,0,1,.06.06V89.8A.06.06,0,0,1,2.45,89.86ZM.1,89.74H2.4V86.29H-1Z"/><rect class="cls-13" x="2.77" y="86.24" width="3.21" height="3.56"/><path class="cls-14" d="M6,89.86H2.77a.06.06,0,0,1-.06-.06V86.24a.06.06,0,0,1,.06-.06H6a.06.06,0,0,1,.06.06V89.8A.06.06,0,0,1,6,89.86Zm-3.15-.12h3.1V86.29H2.83Z"/><polygon class="cls-13" points="6.29 89.8 6.29 86.24 9.78 86.24 8.53 89.8 6.29 89.8"/><path class="cls-14" d="M8.53,89.86H6.29a.06.06,0,0,1-.06-.06V86.24a.06.06,0,0,1,.06-.06H9.78l.05,0a.07.07,0,0,1,0,.06L8.59,89.82A.07.07,0,0,1,8.53,89.86Zm-2.18-.12H8.49l1.22-3.45H6.35Z"/><path class="cls-9" d="M5.15,90.33a.21.21,0,0,1-.21.21.21.21,0,0,1-.21-.21.22.22,0,0,1,.21-.21A.21.21,0,0,1,5.15,90.33Z"/><path class="cls-15" d="M4.94,90.6a.27.27,0,0,1,0-.53.27.27,0,1,1,0,.53Zm0-.42a.15.15,0,0,0-.15.15.16.16,0,0,0,.15.16.15.15,0,0,0,.15-.16A.15.15,0,0,0,4.94,90.18Z"/><path class="cls-9" d="M3.94,90.33a.21.21,0,0,1-.42,0,.21.21,0,1,1,.42,0Z"/><path class="cls-15" d="M3.73,90.6A.27.27,0,1,1,4,90.33.27.27,0,0,1,3.73,90.6Zm0-.42a.15.15,0,0,0-.15.15.15.15,0,1,0,.3,0A.15.15,0,0,0,3.73,90.18Z"/><polygon class="cls-13" points="6.34 90.09 8.47 90.09 7.76 92.49 6.34 92.49 6.34 90.09"/><path class="cls-14" d="M7.76,92.54H6.34a0,0,0,0,1,0-.05v-2.4a.06.06,0,0,1,0-.06H8.48l0,0s0,0,0,0l-.71,2.4A.05.05,0,0,1,7.76,92.54ZM6.4,92.43H7.72l.68-2.29h-2Z"/><polygon class="cls-13" points="2.27 90.09 0.14 90.09 0.85 92.49 2.27 92.49 2.27 90.09"/><path class="cls-14" d="M2.27,92.54H.85a.05.05,0,0,1-.06,0L.08,90.1a.11.11,0,0,1,0,0l.05,0H2.27a.06.06,0,0,1,0,.06v2.4A0,0,0,0,1,2.27,92.54ZM.89,92.43H2.21V90.14h-2Z"/><path class="cls-16" d="M6.34,90.09v2.4H7.76l.72-2.4Zm1.29,2H6.54V90.18H8.17Z"/><path class="cls-16" d="M.85,92.49H2.27v-2.4H.14Zm1.23-.38H1L.45,90.18H2.08Z"/><polygon class="cls-17" points="-0.06 87.36 -0.24 87.75 0.04 88.69 0.66 87.36 -0.06 87.36"/><polygon class="cls-17" points="2.12 87.36 1.41 87.36 0.4 89.52 1.1 89.52 2.12 87.36"/><polygon class="cls-17" points="3.52 87.36 3.07 88.29 3.07 89.52 3.22 89.52 4.24 87.36 3.52 87.36"/><polygon class="cls-17" points="5.68 87.4 5.68 87.36 4.98 87.36 3.97 89.52 4.68 89.52 5.68 87.4"/><polygon class="cls-17" points="8.16 87.36 7.15 89.52 7.86 89.52 8.88 87.36 8.16 87.36"/><polygon class="cls-17" points="6.7 87.36 6.66 87.44 6.66 88.96 7.42 87.36 6.7 87.36"/><path class="cls-16" d="M-.7,87.34h0L.06,89.8H2.45V86.24H-1Zm2.85,2.17H.28l-.64-2.17H2.15Z"/><path class="cls-16" d="M2.77,87.34V89.8H6V86.24H2.77Zm2.91,2.17H3.07V87.34H5.68Z"/><path class="cls-16" d="M6.29,86.24V89.8H8.53l1.25-3.56Zm2,3.27H6.66V87.34H9Z"/><polygon class="cls-16" points="-1.04 86.24 -0.89 86.73 2.45 86.73 2.45 86.24 -1.04 86.24"/><rect class="cls-16" x="2.77" y="86.24" width="3.21" height="0.49"/><polygon class="cls-16" points="9.78 86.24 6.29 86.24 6.29 86.73 9.61 86.73 9.78 86.24"/><polygon class="cls-18" points="-1.87 85.47 -1.68 86.01 10.38 86 10.55 85.47 -1.87 85.47"/><polygon class="cls-19" points="-1.83 85.56 -1.73 85.88 10.44 85.88 10.55 85.56 -1.83 85.56"/><polygon class="cls-20" points="-2.83 85.69 4.34 82.67 11.49 85.69 -2.83 85.69"/><path class="cls-21" d="M11.78,85.75H-3.11l7.45-3.14Zm-14.33-.11H11.21L4.34,82.73Z"/><polygon class="cls-17" points="8 90.78 8.17 90.18 7.55 90.18 6.66 92.11 7.38 92.11 8 90.78"/><polygon class="cls-17" points="6.54 90.18 6.54 90.85 6.85 90.18 6.54 90.18"/><polygon class="cls-17" points="0.77 90.18 0.57 90.61 0.83 91.55 1.47 90.18 0.77 90.18"/><polygon class="cls-17" points="1.3 92.11 2 92.11 2.08 91.94 2.08 90.44 1.3 92.11"/><polygon class="cls-22" points="-0.06 87.36 -0.24 87.75 -0.15 88.05 0.2 87.36 -0.06 87.36"/><polygon class="cls-22" points="1.41 87.36 0.4 89.52 0.59 89.52 1.68 87.36 1.41 87.36"/><polygon class="cls-22" points="0.77 90.18 0.57 90.61 0.64 90.86 0.98 90.18 0.77 90.18"/><polygon class="cls-22" points="2.08 90.44 1.3 92.11 1.48 92.11 2.08 90.92 2.08 90.44"/><polygon class="cls-22" points="3.52 87.36 3.07 88.29 3.07 88.74 3.77 87.36 3.52 87.36"/><polygon class="cls-22" points="4.98 87.36 3.97 89.52 4.18 89.52 5.27 87.36 4.98 87.36"/><polygon class="cls-22" points="8.16 87.36 7.15 89.52 7.37 89.52 8.46 87.36 8.16 87.36"/><polygon class="cls-22" points="6.7 87.36 6.66 87.44 6.66 88.03 7 87.36 6.7 87.36"/><polygon class="cls-22" points="7.55 90.18 6.66 92.11 6.89 92.11 7.87 90.18 7.55 90.18"/><path class="cls-23" d="M6,89.73s-.11,2.71-1.5,2.72-1.62-2.73-1.62-2.73v3H6v-3Z"/><path class="cls-24" d="M11.5,85.69,8.73,84.52c1.63,1-.55,1.21-5,1.14s-5-.53-4.26-1l-2.35,1Z"/><polygon class="cls-9" points="3.77 83.66 3.42 82.57 4.34 81.91 5.25 82.57 4.9 83.66 3.77 83.66"/><path class="cls-15" d="M4.94,83.71H3.73l-.38-1.16,1-.71,1,.71ZM3.81,83.6H4.86l.33-1L4.34,82l-.86.62Z"/><polygon class="cls-25" points="4.05 83.25 3.87 82.71 4.34 82.37 4.8 82.71 4.62 83.25 4.05 83.25"/><path class="cls-26" d="M4.66,83.31H4l-.21-.63.54-.38.52.38Zm-.57-.12h.49l.15-.46-.39-.29-.4.29Z"/><path class="cls-27" d="M5.37,83.29c-.1-.05-.43.47-.43.47H3.71s-.24-.54-.39-.48l-3,1.29a11,11,0,0,0,7.88-.09Z"/><path class="cls-28" d="M5.21,83.39c-.12.15-.27.37-.27.37H4.66l.5,1.47a9.78,9.78,0,0,0,2.12-.41Z"/><path class="cls-28" d="M3.49,83.37,1.2,84.86,2,85l1.61-1.52Z"/><polygon class="cls-10" points="0.67 23.13 -11.75 23.13 -10.97 25.53 -0.11 25.53 0.67 23.13"/><path class="cls-29" d="M-.07,25.59H-11l-.82-2.52H.74Zm-10.86-.11H-.15l.74-2.29H-11.67Z"/><polygon class="cls-23" points="-11.74 23.14 -11.56 23.68 0.5 23.67 0.68 23.14 -11.74 23.14"/><polygon class="cls-30" points="-11.71 23.23 -11.61 23.55 0.56 23.55 0.67 23.23 -11.71 23.23"/><polygon class="cls-9" points="-12.7 23.36 -5.54 20.34 1.62 23.36 -12.7 23.36"/><path class="cls-15" d="M1.9,23.42H-13l7.44-3.14Zm-14.32-.11H1.34L-5.54,20.4Z"/><path class="cls-31" d="M1.62,23.36l-2.77-1.17c1.63,1-.55,1.21-4.95,1.14s-5-.53-4.26-.95l-2.34,1Z"/><polygon class="cls-10" points="16.92 45.4 4.5 45.4 5.28 47.8 16.14 47.8 16.92 45.4"/><path class="cls-29" d="M16.18,47.86H5.24l-.82-2.52H17ZM5.32,47.75H16.09l.75-2.29H4.58Z"/><polygon class="cls-10" points="6.87 52.7 14.54 52.7 15.57 49.54 5.84 49.54 6.87 52.7"/><path class="cls-29" d="M14.58,52.76H6.83L5.76,49.48h9.89Zm-7.67-.12H14.5l1-3H5.92Z"/><polygon class="cls-8" points="5.69 49.07 5.84 49.54 15.57 49.54 15.72 49.07 5.69 49.07"/><path class="cls-9" d="M15.61,49.6H5.8L5.61,49H15.8Zm-9.73-.12h9.65l.11-.36H5.77Z"/><polygon class="cls-10" points="15.98 48.28 5.43 48.28 5.69 49.07 15.72 49.07 15.98 48.28"/><path class="cls-29" d="M15.77,49.12H5.65l-.3-.9H16.06ZM5.73,49h10l.22-.68H5.51Z"/><polygon class="cls-8" points="16.14 47.8 5.28 47.8 5.43 48.28 15.98 48.28 16.14 47.8"/><path class="cls-9" d="M16,48.33H5.39l-.19-.58h11ZM5.47,48.22H15.94l.12-.36H5.36Z"/><path class="cls-23" d="M13.57,52.42c-1,0-1.25-2.7-1.25-2.7s-.12,2.71-1.52,2.73-1.6-2.73-1.6-2.73-.3,2.7-1.31,2.63C7.07,52.29,6.41,51,6,50.15l.83,2.55h7.67l.92-2.83C15.2,50.58,14.43,52.44,13.57,52.42Z"/><rect class="cls-8" x="9.2" y="49.66" width="3.13" height="2.98"/><polygon class="cls-13" points="8.82 49.74 6.43 49.74 5.33 46.18 8.82 46.18 8.82 49.74"/><path class="cls-14" d="M8.82,49.8H6.43a.07.07,0,0,1-.06,0L5.27,46.2a.13.13,0,0,1,0-.06l0,0H8.82a.06.06,0,0,1,.06.06v3.56A.06.06,0,0,1,8.82,49.8Zm-2.35-.12h2.3V46.23H5.4Z"/><rect class="cls-13" x="9.14" y="46.18" width="3.21" height="3.56"/><path class="cls-14" d="M12.35,49.8H9.14a.06.06,0,0,1-.06-.06V46.18a.06.06,0,0,1,.06-.06h3.21a.06.06,0,0,1,.06.06v3.56A.06.06,0,0,1,12.35,49.8ZM9.2,49.68h3.1V46.23H9.2Z"/><polygon class="cls-13" points="12.66 49.74 12.66 46.18 16.16 46.18 14.9 49.74 12.66 49.74"/><path class="cls-14" d="M14.9,49.8H12.66a.06.06,0,0,1-.05-.06V46.18a.06.06,0,0,1,.05-.06h3.5l0,0a.13.13,0,0,1,0,.06L15,49.76A.07.07,0,0,1,14.9,49.8Zm-2.18-.12h2.15l1.21-3.45H12.72Z"/><path class="cls-25" d="M11.52,50.27a.21.21,0,0,1-.21.21.21.21,0,0,1-.21-.21.22.22,0,0,1,.21-.21A.21.21,0,0,1,11.52,50.27Z"/><path class="cls-26" d="M11.31,50.54a.27.27,0,0,1,0-.53.27.27,0,1,1,0,.53Zm0-.42a.15.15,0,0,0-.15.15.16.16,0,0,0,.15.16.16.16,0,0,0,.16-.16A.16.16,0,0,0,11.31,50.12Z"/><path class="cls-25" d="M10.31,50.27a.21.21,0,0,1-.21.21.21.21,0,0,1-.21-.21.22.22,0,0,1,.21-.21A.21.21,0,0,1,10.31,50.27Z"/><path class="cls-26" d="M10.1,50.54a.27.27,0,1,1,.27-.27A.27.27,0,0,1,10.1,50.54Zm0-.42a.15.15,0,0,0-.15.15.16.16,0,0,0,.15.16.15.15,0,0,0,.15-.16A.15.15,0,0,0,10.1,50.12Z"/><polygon class="cls-13" points="12.72 50.03 14.85 50.03 14.14 52.43 12.72 52.43 12.72 50.03"/><path class="cls-14" d="M14.14,52.48H12.72a.06.06,0,0,1-.06,0V50a.06.06,0,0,1,.06-.06h2.13l0,0s0,0,0,0l-.71,2.4A.05.05,0,0,1,14.14,52.48Zm-1.37-.11h1.32l.68-2.29h-2Z"/><polygon class="cls-13" points="8.64 50.03 6.51 50.03 7.22 52.43 8.64 52.43 8.64 50.03"/><path class="cls-14" d="M8.64,52.48H7.22a.05.05,0,0,1-.06,0L6.45,50a.11.11,0,0,1,0,0l0,0H8.64A.06.06,0,0,1,8.7,50v2.4A.06.06,0,0,1,8.64,52.48Zm-1.38-.11H8.58V50.08h-2Z"/><path class="cls-16" d="M12.72,50v2.4h1.42l.71-2.4Zm1.28,2H12.91V50.12h1.63Z"/><path class="cls-16" d="M7.22,52.43H8.64V50H6.51Zm1.23-.38H7.37l-.55-1.93H8.45Z"/><polygon class="cls-17" points="6.31 47.3 6.13 47.69 6.41 48.63 7.03 47.3 6.31 47.3"/><polygon class="cls-17" points="8.49 47.3 7.78 47.3 6.77 49.45 7.47 49.45 8.49 47.3"/><polygon class="cls-17" points="9.88 47.3 9.45 48.23 9.45 49.45 9.59 49.45 10.61 47.3 9.88 47.3"/><polygon class="cls-17" points="12.05 47.34 12.05 47.3 11.36 47.3 10.34 49.45 11.05 49.45 12.05 47.34"/><polygon class="cls-17" points="14.54 47.3 13.52 49.45 14.23 49.45 15.25 47.3 14.54 47.3"/><polygon class="cls-17" points="13.07 47.3 13.03 47.38 13.03 48.9 13.79 47.3 13.07 47.3"/><path class="cls-16" d="M5.67,47.28h0l.76,2.46H8.82V46.18H5.33Zm2.85,2.17H6.65L6,47.28H8.52Z"/><path class="cls-16" d="M9.14,47.28v2.46h3.21V46.18H9.14Zm2.91,2.17H9.44V47.28h2.61Z"/><path class="cls-16" d="M12.66,46.18v3.56H14.9l1.26-3.56Zm2,3.27H13V47.28h2.35Z"/><polygon class="cls-16" points="5.33 46.18 5.48 46.67 8.82 46.67 8.82 46.18 5.33 46.18"/><rect class="cls-16" x="9.14" y="46.18" width="3.21" height="0.49"/><polygon class="cls-16" points="16.16 46.18 12.66 46.18 12.66 46.67 15.98 46.67 16.16 46.18"/><polygon class="cls-23" points="4.5 45.41 4.69 45.95 16.75 45.94 16.92 45.41 4.5 45.41"/><polygon class="cls-30" points="4.54 45.5 4.64 45.82 16.81 45.82 16.92 45.5 4.54 45.5"/><polygon class="cls-9" points="3.55 45.63 10.71 42.61 17.87 45.63 3.55 45.63"/><path class="cls-15" d="M18.15,45.69H3.27l7.44-3.14ZM3.83,45.58H17.59l-6.88-2.91Z"/><polygon class="cls-17" points="14.37 50.72 14.54 50.12 13.93 50.12 13.03 52.05 13.75 52.05 14.37 50.72"/><polygon class="cls-17" points="12.91 50.12 12.91 50.78 13.22 50.12 12.91 50.12"/><polygon class="cls-17" points="7.14 50.12 6.94 50.55 7.21 51.49 7.84 50.12 7.14 50.12"/><polygon class="cls-17" points="7.67 52.05 8.37 52.05 8.45 51.88 8.45 50.38 7.67 52.05"/><polygon class="cls-22" points="6.31 47.3 6.13 47.69 6.22 47.99 6.57 47.3 6.31 47.3"/><polygon class="cls-22" points="7.78 47.3 6.77 49.45 6.97 49.45 8.05 47.3 7.78 47.3"/><polygon class="cls-22" points="7.14 50.12 6.94 50.55 7.01 50.8 7.36 50.12 7.14 50.12"/><polygon class="cls-22" points="8.45 50.38 7.67 52.05 7.85 52.05 8.45 50.86 8.45 50.38"/><polygon class="cls-22" points="9.88 47.3 9.45 48.23 9.45 48.69 10.14 47.3 9.88 47.3"/><polygon class="cls-22" points="11.36 47.3 10.34 49.45 10.55 49.45 11.64 47.3 11.36 47.3"/><polygon class="cls-22" points="14.54 47.3 13.52 49.45 13.74 49.45 14.83 47.3 14.54 47.3"/><polygon class="cls-22" points="13.07 47.3 13.03 47.38 13.03 47.97 13.37 47.3 13.07 47.3"/><polygon class="cls-22" points="13.93 50.12 13.03 52.05 13.26 52.05 14.23 50.12 13.93 50.12"/><path class="cls-11" d="M12.32,49.67s-.11,2.71-1.5,2.72S9.2,49.66,9.2,49.66v3h3.12v-3Z"/><path class="cls-31" d="M17.87,45.63,15.1,44.46c1.63,1-.55,1.21-4.95,1.14s-5-.53-4.26-1l-2.34,1Z"/><polygon class="cls-25" points="10.14 43.59 9.79 42.52 10.71 41.85 11.63 42.52 11.27 43.59 10.14 43.59"/><path class="cls-26" d="M11.32,43.65H10.1l-.38-1.16,1-.71,1,.71Zm-1.14-.11h1.05l.33-1-.85-.62-.85.62Z"/><polygon class="cls-9" points="10.42 43.19 10.24 42.65 10.71 42.31 11.17 42.65 10.99 43.19 10.42 43.19"/><path class="cls-15" d="M11,43.25h-.65l-.2-.63.53-.38.53.38Zm-.57-.12H11l.15-.46-.39-.29-.4.29Z"/><path class="cls-32" d="M11.74,43.23c-.1,0-.43.48-.43.48H10.08s-.24-.54-.39-.49l-3,1.3a11,11,0,0,0,7.88-.09Z"/><path class="cls-8" d="M11.58,43.33c-.12.15-.27.38-.27.38H11l.5,1.47a9.78,9.78,0,0,0,2.12-.41Z"/><path class="cls-8" d="M9.86,43.31,7.57,44.8l.78.18L10,43.46Z"/><polygon class="cls-10" points="16.8 73.05 4.38 73.05 5.16 75.45 16.02 75.45 16.8 73.05"/><path class="cls-29" d="M16.06,75.51H5.12L4.31,73H16.88ZM5.21,75.39H16l.74-2.28H4.46Z"/><polygon class="cls-10" points="6.76 80.35 14.43 80.35 15.46 77.19 5.73 77.19 6.76 80.35"/><path class="cls-29" d="M14.47,80.41H6.71L5.65,77.13h9.88ZM6.8,80.29h7.59l1-3H5.81Z"/><polygon class="cls-8" points="5.58 76.72 5.73 77.19 15.46 77.19 15.61 76.72 5.58 76.72"/><path class="cls-9" d="M15.5,77.25H5.69l-.19-.59H15.69Zm-9.73-.12h9.65l.11-.36H5.65Z"/><polygon class="cls-10" points="15.87 75.93 5.32 75.93 5.58 76.72 15.61 76.72 15.87 75.93"/><path class="cls-29" d="M15.65,76.77H5.53l-.29-.9H16Zm-10-.11h10l.22-.68H5.39Z"/><polygon class="cls-8" points="16.02 75.45 5.16 75.45 5.32 75.93 15.87 75.93 16.02 75.45"/><path class="cls-9" d="M15.91,76H5.28l-.19-.59h11ZM5.36,75.87H15.83l.11-.36H5.24Z"/><path class="cls-23" d="M13.46,80.07c-1,0-1.25-2.7-1.25-2.7s-.13,2.71-1.52,2.73-1.61-2.73-1.61-2.73-.29,2.7-1.3,2.63C7,79.94,6.3,78.69,5.93,77.8l.83,2.55h7.67l.92-2.84C15.09,78.23,14.32,80.09,13.46,80.07Z"/><rect class="cls-8" x="9.08" y="77.31" width="3.12" height="2.98"/><polygon class="cls-13" points="8.71 77.39 6.31 77.39 5.22 73.83 8.71 73.83 8.71 77.39"/><path class="cls-14" d="M8.71,77.44H6.31a.05.05,0,0,1,0,0l-1.1-3.57a.11.11,0,0,1,0,0l0,0H8.71a.06.06,0,0,1,.06.06v3.56A.06.06,0,0,1,8.71,77.44Zm-2.35-.11H8.65V73.89H5.29Z"/><rect class="cls-13" x="9.03" y="73.83" width="3.21" height="3.56"/><path class="cls-14" d="M12.24,77.44H9a.06.06,0,0,1-.06,0V73.83A.06.06,0,0,1,9,73.77h3.21a.06.06,0,0,1,.06.06v3.56A.06.06,0,0,1,12.24,77.44Zm-3.16-.11h3.1V73.89H9.08Z"/><polygon class="cls-13" points="12.55 77.39 12.55 73.83 16.04 73.83 14.79 77.39 12.55 77.39"/><path class="cls-14" d="M14.79,77.44H12.55a.06.06,0,0,1-.06,0V73.83a.06.06,0,0,1,.06-.06H16l.05,0a.13.13,0,0,1,0,.06l-1.26,3.56S14.82,77.44,14.79,77.44Zm-2.18-.11h2.14L16,73.89H12.61Z"/><path class="cls-25" d="M11.41,77.92a.21.21,0,0,1-.42,0,.21.21,0,1,1,.42,0Z"/><path class="cls-26" d="M11.2,78.19a.27.27,0,0,1-.27-.27.27.27,0,0,1,.54,0A.27.27,0,0,1,11.2,78.19Zm0-.42a.15.15,0,0,0-.15.15.15.15,0,1,0,.3,0A.15.15,0,0,0,11.2,77.77Z"/><path class="cls-25" d="M10.2,77.92a.21.21,0,0,1-.21.21.21.21,0,0,1-.21-.21.21.21,0,0,1,.21-.21A.22.22,0,0,1,10.2,77.92Z"/><path class="cls-26" d="M10,78.19a.27.27,0,0,1-.27-.27.27.27,0,0,1,.53,0A.27.27,0,0,1,10,78.19Zm0-.42a.16.16,0,0,0-.16.15.16.16,0,0,0,.16.16.16.16,0,0,0,.15-.16A.15.15,0,0,0,10,77.77Z"/><polygon class="cls-13" points="12.6 77.67 14.73 77.67 14.02 80.08 12.6 80.08 12.6 77.67"/><path class="cls-14" d="M14,80.13H12.6a0,0,0,0,1,0,0v-2.4s0-.06,0-.06h2.13l0,0a.09.09,0,0,1,0,0l-.71,2.4A.05.05,0,0,1,14,80.13ZM12.66,80H14l.68-2.29h-2Z"/><polygon class="cls-13" points="8.53 77.67 6.4 77.67 7.11 80.08 8.53 80.08 8.53 77.67"/><path class="cls-14" d="M8.53,80.13H7.11a.05.05,0,0,1-.06,0l-.71-2.4a.09.09,0,0,1,0,0l.05,0H8.53s.05,0,.05.06v2.4A0,0,0,0,1,8.53,80.13ZM7.15,80H8.47V77.73h-2Z"/><path class="cls-16" d="M12.6,77.68v2.4H14l.71-2.4Zm1.28,2H12.8V77.77h1.63Z"/><path class="cls-16" d="M7.11,80.08H8.53v-2.4H6.4Zm1.22-.38H7.25l-.54-1.93H8.33Z"/><polygon class="cls-17" points="6.2 74.95 6.02 75.33 6.29 76.28 6.92 74.95 6.2 74.95"/><polygon class="cls-17" points="8.38 74.95 7.67 74.95 6.65 77.11 7.36 77.11 8.38 74.95"/><polygon class="cls-17" points="9.77 74.95 9.33 75.88 9.33 77.11 9.47 77.11 10.49 74.95 9.77 74.95"/><polygon class="cls-17" points="11.94 74.99 11.94 74.95 11.24 74.95 10.23 77.11 10.93 77.11 11.94 74.99"/><polygon class="cls-17" points="14.42 74.95 13.41 77.11 14.12 77.11 15.13 74.95 14.42 74.95"/><polygon class="cls-17" points="12.95 74.95 12.92 75.03 12.92 76.55 13.67 74.95 12.95 74.95"/><path class="cls-16" d="M5.55,74.93h0l.76,2.46h2.4V73.83H5.22ZM8.4,77.11H6.53L5.9,74.93H8.4Z"/><path class="cls-16" d="M9,74.93v2.46h3.21V73.83H9Zm2.91,2.18H9.33V74.93h2.61Z"/><path class="cls-16" d="M12.55,73.83v3.56h2.24L16,73.83Zm2,3.28H12.92V74.93h2.35Z"/><polygon class="cls-16" points="5.22 73.83 5.37 74.31 8.71 74.31 8.71 73.83 5.22 73.83"/><rect class="cls-16" x="9.03" y="73.83" width="3.21" height="0.49"/><polygon class="cls-16" points="16.04 73.83 12.55 73.83 12.55 74.31 15.87 74.31 16.04 73.83"/><polygon class="cls-23" points="4.39 73.06 4.57 73.6 16.63 73.59 16.81 73.06 4.39 73.06"/><polygon class="cls-30" points="4.42 73.14 4.53 73.47 16.7 73.47 16.8 73.14 4.42 73.14"/><polygon class="cls-9" points="3.43 73.28 10.59 70.26 17.75 73.28 3.43 73.28"/><path class="cls-15" d="M18,73.34H3.15l7.44-3.14ZM3.71,73.23H17.47l-6.88-2.91Z"/><polygon class="cls-17" points="14.26 78.36 14.43 77.77 13.81 77.77 12.91 79.7 13.64 79.7 14.26 78.36"/><polygon class="cls-17" points="12.8 77.77 12.8 78.44 13.11 77.77 12.8 77.77"/><polygon class="cls-17" points="7.03 77.77 6.83 78.2 7.09 79.14 7.73 77.77 7.03 77.77"/><polygon class="cls-17" points="7.56 79.7 8.26 79.7 8.34 79.53 8.34 78.03 7.56 79.7"/><polygon class="cls-22" points="6.2 74.95 6.02 75.33 6.11 75.64 6.45 74.95 6.2 74.95"/><polygon class="cls-22" points="7.67 74.95 6.65 77.11 6.85 77.11 7.94 74.95 7.67 74.95"/><polygon class="cls-22" points="7.03 77.77 6.83 78.2 6.9 78.45 7.24 77.77 7.03 77.77"/><polygon class="cls-22" points="8.34 78.03 7.56 79.7 7.73 79.7 8.34 78.51 8.34 78.03"/><polygon class="cls-22" points="9.77 74.95 9.33 75.88 9.33 76.33 10.03 74.95 9.77 74.95"/><polygon class="cls-22" points="11.24 74.95 10.23 77.11 10.44 77.11 11.53 74.95 11.24 74.95"/><polygon class="cls-22" points="14.42 74.95 13.41 77.11 13.63 77.11 14.71 74.95 14.42 74.95"/><polygon class="cls-22" points="12.95 74.95 12.92 75.03 12.92 75.62 13.26 74.95 12.95 74.95"/><polygon class="cls-22" points="13.81 77.77 12.91 79.7 13.15 79.7 14.12 77.77 13.81 77.77"/><path class="cls-11" d="M12.21,77.31S12.1,80,10.71,80s-1.62-2.73-1.62-2.73a.18.18,0,0,1,0,.06v2.92h3.13v-3Z"/><path class="cls-31" d="M17.75,73.28,15,72.11c1.63,1-.55,1.21-5,1.14s-5-.53-4.26-1l-2.35,1Z"/><polygon class="cls-25" points="10.03 71.24 9.67 70.16 10.59 69.5 11.51 70.16 11.16 71.24 10.03 71.24"/><path class="cls-26" d="M11.2,71.3H10l-.38-1.16,1-.71,1,.71Zm-1.14-.11h1.06l.33-1-.86-.62-.85.62Z"/><polygon class="cls-9" points="10.31 70.84 10.13 70.3 10.59 69.96 11.06 70.3 10.88 70.84 10.31 70.84"/><path class="cls-15" d="M10.92,70.9h-.65l-.21-.63.53-.38.53.38Zm-.57-.12h.49l.15-.46-.4-.29-.39.29Z"/><path class="cls-32" d="M11.63,70.88c-.1,0-.43.48-.43.48H10s-.24-.54-.39-.49l-3,1.3a11,11,0,0,0,7.88-.09Z"/><path class="cls-8" d="M11.47,71a3.41,3.41,0,0,0-.27.38h-.28l.5,1.47a9.78,9.78,0,0,0,2.12-.41Z"/><path class="cls-8" d="M9.74,71,7.46,72.45l.78.18,1.61-1.52Z"/><polygon class="cls-10" points="0.7 95.4 -11.71 95.4 -10.93 97.8 -0.08 97.8 0.7 95.4"/><path class="cls-29" d="M0,97.86H-11l-.82-2.52H.78Zm-10.86-.12H-.12l.75-2.29H-11.64Z"/><polygon class="cls-23" points="-11.71 95.4 -11.52 95.94 0.54 95.94 0.71 95.4 -11.71 95.4"/><polygon class="cls-30" points="-11.68 95.49 -11.57 95.81 0.6 95.81 0.7 95.49 -11.68 95.49"/><polygon class="cls-9" points="-12.66 95.63 -5.5 92.61 1.66 95.63 -12.66 95.63"/><path class="cls-15" d="M1.94,95.69H-12.95l7.45-3.15Zm-14.32-.12H1.38l-6.88-2.9Z"/><path class="cls-31" d="M1.66,95.63l-2.77-1.17c1.63,1-.55,1.2-4.95,1.14s-5-.53-4.26-1l-2.34,1Z"/><path class="cls-18" d="M2.47,33.68H-1a.11.11,0,0,0-.11.06.14.14,0,0,0,0,.13l1.1,3.56a.14.14,0,0,0,.14.1H2.47a.15.15,0,0,0,.15-.14V33.82A.15.15,0,0,0,2.47,33.68Zm0,3.71H.08L-1,33.82H2.47Z"/><path class="cls-18" d="M2.79,37.53H6a.14.14,0,0,0,.14-.14V33.82A.14.14,0,0,0,6,33.68H2.79a.14.14,0,0,0-.14.14v3.57A.14.14,0,0,0,2.79,37.53Zm0-3.71H6v3.57H2.79Z"/><path class="cls-18" d="M6.31,37.53H8.55a.14.14,0,0,0,.14-.1l1.25-3.56a.13.13,0,0,0,0-.13.14.14,0,0,0-.12-.06H6.31a.14.14,0,0,0-.14.14v3.57A.14.14,0,0,0,6.31,37.53Zm0-3.71H9.8L8.55,37.39H6.31Z"/><path class="cls-18" d="M11.15,63.65V60.09a.15.15,0,0,0-.14-.15H7.51a.2.2,0,0,0-.12.06.2.2,0,0,0,0,.13l1.1,3.56a.15.15,0,0,0,.14.1H11A.14.14,0,0,0,11.15,63.65ZM7.51,60.09H11v3.56H8.61Z"/><path class="cls-18" d="M11.32,59.94a.15.15,0,0,0-.14.15v3.56a.14.14,0,0,0,.14.14h3.21a.15.15,0,0,0,.15-.14V60.09a.15.15,0,0,0-.15-.15Zm3.21,3.71H11.32V60.09h3.21Z"/><path class="cls-18" d="M18.45,60a.15.15,0,0,0-.11-.06h-3.5a.15.15,0,0,0-.14.15v3.56a.14.14,0,0,0,.14.14h2.25a.14.14,0,0,0,.13-.1l1.25-3.56A.13.13,0,0,0,18.45,60Zm-1.36,3.65H14.84V60.09h3.5Z"/><path class="cls-18" d="M2.45,86.1H-1a.17.17,0,0,0-.12.05.2.2,0,0,0,0,.13l1.1,3.56a.14.14,0,0,0,.14.1H2.45a.15.15,0,0,0,.15-.14V86.24A.15.15,0,0,0,2.45,86.1Zm0,3.7H.06L-1,86.24H2.45Z"/><path class="cls-18" d="M6,86.1H2.77a.14.14,0,0,0-.14.14V89.8a.14.14,0,0,0,.14.14H6a.14.14,0,0,0,.14-.14V86.24A.14.14,0,0,0,6,86.1Zm0,3.7H2.77V86.24H6Z"/><path class="cls-18" d="M9.78,86.1H6.29a.14.14,0,0,0-.14.14V89.8a.14.14,0,0,0,.14.14H8.53a.16.16,0,0,0,.14-.09l1.25-3.57a.13.13,0,0,0,0-.12A.14.14,0,0,0,9.78,86.1ZM8.53,89.8H6.29V86.24H9.78Z"/><path class="cls-30" d="M-3.59,27.61h2.25a.14.14,0,0,0,.13-.09L0,24a.11.11,0,0,0,0-.12.13.13,0,0,0-.11-.06h-3.5a.14.14,0,0,0-.14.14v3.56A.14.14,0,0,0-3.59,27.61Zm0-3.7h3.5l-1.25,3.56H-3.59Z"/><path class="cls-30" d="M6.43,49.88H8.82A.15.15,0,0,0,9,49.74V46.18A.15.15,0,0,0,8.82,46H5.33a.17.17,0,0,0-.12.05.2.2,0,0,0,0,.13l1.1,3.56A.15.15,0,0,0,6.43,49.88Zm2.39-3.7v3.56H6.43l-1.1-3.56Z"/><path class="cls-30" d="M9,46.18v3.56a.14.14,0,0,0,.14.14h3.21a.14.14,0,0,0,.14-.14V46.18a.14.14,0,0,0-.14-.14H9.14A.14.14,0,0,0,9,46.18Zm3.35,3.56H9.14V46.18h3.21Z"/><path class="cls-30" d="M12.66,49.88H14.9a.15.15,0,0,0,.14-.09l1.25-3.57a.11.11,0,0,0,0-.12.13.13,0,0,0-.11-.06h-3.5a.14.14,0,0,0-.14.14v3.56A.14.14,0,0,0,12.66,49.88Zm0-3.7h3.5L14.9,49.74H12.66Z"/><path class="cls-30" d="M5.1,73.74a.15.15,0,0,0,0,.13l1.1,3.56a.14.14,0,0,0,.13.1h2.4a.14.14,0,0,0,.14-.14V73.83a.14.14,0,0,0-.14-.14H5.22A.17.17,0,0,0,5.1,73.74Zm3.61.09v3.56H6.31L5.22,73.83Z"/><path class="cls-30" d="M12.24,73.69H9a.14.14,0,0,0-.14.14v3.56a.14.14,0,0,0,.14.14h3.21a.14.14,0,0,0,.14-.14V73.83A.14.14,0,0,0,12.24,73.69Zm0,3.7H9V73.83h3.21Z"/><path class="cls-30" d="M16,73.69H12.55a.14.14,0,0,0-.14.14v3.56a.14.14,0,0,0,.14.14h2.24a.14.14,0,0,0,.13-.09l1.26-3.57a.16.16,0,0,0,0-.12A.14.14,0,0,0,16,73.69Zm-1.25,3.7H12.55V73.83H16Z"/><path class="cls-20" d="M-31.81,93.36a36.44,36.44,0,0,1-14.3-2.89,36.41,36.41,0,0,1-11.66-7.86A36.41,36.41,0,0,1-65.63,71a36.41,36.41,0,0,1-2.88-14.29,36.43,36.43,0,0,1,2.88-14.3A36.41,36.41,0,0,1-57.77,30.7a36.41,36.41,0,0,1,11.66-7.86A36.6,36.6,0,0,1-31.81,20a36.59,36.59,0,0,1,14.29,2.88A36.41,36.41,0,0,1-5.86,30.7,36.57,36.57,0,0,1,2,42.36a36.61,36.61,0,0,1,2.89,14.3A36.6,36.6,0,0,1,2,71,36.57,36.57,0,0,1-5.86,82.61a36.41,36.41,0,0,1-11.66,7.86A36.42,36.42,0,0,1-31.81,93.36Zm0-73A36.12,36.12,0,0,0-45.95,23.2,36.15,36.15,0,0,0-57.49,31a36.26,36.26,0,0,0-7.78,11.54,36.16,36.16,0,0,0-2.85,14.14,36.11,36.11,0,0,0,2.85,14.13,36.15,36.15,0,0,0,7.78,11.54,36.15,36.15,0,0,0,11.54,7.78A36.12,36.12,0,0,0-31.81,93a36.11,36.11,0,0,0,14.13-2.85A36.15,36.15,0,0,0-6.14,82.33,36,36,0,0,0,1.63,70.79,35.94,35.94,0,0,0,4.49,56.66,36,36,0,0,0,1.63,42.52,36.07,36.07,0,0,0-6.14,31,36.15,36.15,0,0,0-17.68,23.2,36.11,36.11,0,0,0-31.81,20.35Z"/><path class="cls-21" d="M-31.81,93.41a36.67,36.67,0,0,1-14.32-2.88,36.44,36.44,0,0,1-11.68-7.88A36.44,36.44,0,0,1-65.69,71a36.65,36.65,0,0,1-2.88-14.31,36.67,36.67,0,0,1,2.88-14.32,36.44,36.44,0,0,1,7.88-11.68,36.41,36.41,0,0,1,11.68-7.87A36.5,36.5,0,0,1-31.81,19.9,36.48,36.48,0,0,1-17.5,22.79,36.41,36.41,0,0,1-5.82,30.66,36.57,36.57,0,0,1,2.05,42.34,36.5,36.5,0,0,1,4.94,56.66,36.48,36.48,0,0,1,2.05,71,36.57,36.57,0,0,1-5.82,82.65,36.44,36.44,0,0,1-17.5,90.53,36.65,36.65,0,0,1-31.81,93.41Zm0-73.4a36.47,36.47,0,0,0-14.28,2.88,36.46,36.46,0,0,0-11.64,7.85,36.29,36.29,0,0,0-7.85,11.64,36.47,36.47,0,0,0-2.88,14.28,36.46,36.46,0,0,0,2.88,14.27,36.29,36.29,0,0,0,7.85,11.64,36.29,36.29,0,0,0,11.64,7.85A36.47,36.47,0,0,0-31.81,93.3a36.37,36.37,0,0,0,14.26-2.88A36.23,36.23,0,0,0-5.9,82.57,36.62,36.62,0,0,0,2,70.93,36.46,36.46,0,0,0,4.83,56.66,36.47,36.47,0,0,0,2,42.38,36.62,36.62,0,0,0-5.9,30.74a36.39,36.39,0,0,0-11.65-7.85A36.37,36.37,0,0,0-31.81,20Zm0,73A36.22,36.22,0,0,1-46,90.16a36.21,36.21,0,0,1-11.56-7.79,36.21,36.21,0,0,1-7.79-11.56,36.2,36.2,0,0,1-2.85-14.15A36.22,36.22,0,0,1-65.32,42.5a36.21,36.21,0,0,1,7.79-11.56A36.21,36.21,0,0,1-46,23.15,36.22,36.22,0,0,1-31.81,20.3a36.2,36.2,0,0,1,14.15,2.85A36.21,36.21,0,0,1-6.1,30.94,36.21,36.21,0,0,1,1.69,42.5,36.22,36.22,0,0,1,4.54,56.66,36.2,36.2,0,0,1,1.69,70.81,36.21,36.21,0,0,1-6.1,82.37a36.21,36.21,0,0,1-11.56,7.79A36.2,36.2,0,0,1-31.81,93Zm0-72.6a36.06,36.06,0,0,0-14.12,2.85A36,36,0,0,0-57.45,31a36.15,36.15,0,0,0-7.77,11.52,36.23,36.23,0,0,0-2.84,14.12,36.22,36.22,0,0,0,2.84,14.11,36.15,36.15,0,0,0,7.77,11.52,36.15,36.15,0,0,0,11.52,7.77A36.23,36.23,0,0,0-31.81,92.9,36.22,36.22,0,0,0-17.7,90.06,36.15,36.15,0,0,0-6.18,82.29,36,36,0,0,0,1.58,70.77,36,36,0,0,0,4.43,56.66,36.06,36.06,0,0,0,1.58,42.54,36,36,0,0,0-6.18,31,36,36,0,0,0-17.7,23.26,36,36,0,0,0-31.81,20.41Z"/><path class="cls-21" d="M1.63,42.52l-.26-.6c-.09-.2-.2-.44-.34-.73s-.3-.62-.48-1C.17,39.46-.32,38.55-1,37.52c-.08-.13-.16-.26-.25-.39l-.26-.4-.27-.42-.3-.42-.14-.21-.16-.22c-.11-.14-.21-.29-.32-.44L-3,34.57c-.12-.15-.23-.3-.36-.45s-.24-.31-.37-.46l-.39-.47c-.07-.08-.13-.16-.2-.23l-.21-.24-.42-.48c-.59-.63-1.22-1.28-1.9-1.92a36.45,36.45,0,0,0-4.74-3.8,35.28,35.28,0,0,0-6.08-3.27A36.13,36.13,0,0,0-25,21,35.26,35.26,0,0,0-29,20.51a35.16,35.16,0,0,0-4.24-.07c-.36,0-.72,0-1.09.06a4.9,4.9,0,0,0-.54,0l-.54,0c-.73.08-1.47.17-2.2.29l-.55.09-.55.11-.27.05-.28.06-.55.11-.55.13-.56.14-1.1.31c-.73.21-1.46.46-2.19.72l-.55.2-.27.11-.27.11-.54.22-.54.23L-47.5,24l-.53.26-.27.13-.26.14-.53.28-.52.29-.26.15-.26.15-.52.3a36.62,36.62,0,0,0-7.62,6.18,35.88,35.88,0,0,0-5.85,8.28,35.94,35.94,0,0,0-3.36,9.83,36.84,36.84,0,0,0-.41,10.54,35.78,35.78,0,0,0,2.65,10.3,36.3,36.3,0,0,0,5.54,9.07,36.47,36.47,0,0,0,7.86,7,36.16,36.16,0,0,0,9.39,4.43,35.9,35.9,0,0,0,10,1.57,36.43,36.43,0,0,0,9.73-1.14,35.88,35.88,0,0,0,4.53-1.5l.54-.22.53-.23.54-.24.53-.25,1-.52.51-.27.5-.28.25-.14.25-.15.49-.29.48-.29.24-.16.24-.15.47-.31.46-.32c.31-.21.61-.43.91-.65A38.62,38.62,0,0,0-6.86,83a35.85,35.85,0,0,0,5.34-6.36,38.05,38.05,0,0,0,2-3.38A35.21,35.21,0,0,0,2,69.8a35.77,35.77,0,0,0,1.88-6.65c.19-1.06.33-2.11.43-3.12,0-.25.05-.5.06-.75s0-.49,0-.74c0-.48,0-1,0-1.43s0-.93,0-1.38,0-.89-.06-1.32c0-.11,0-.22,0-.32s0-.22,0-.32,0-.42-.05-.62l0-.31c0-.1,0-.2,0-.3L4.18,52a38.64,38.64,0,0,0-.77-4.09c-.29-1.18-.6-2.16-.87-2.95-.14-.4-.26-.75-.37-1s-.21-.55-.29-.75C1.71,42.73,1.63,42.52,1.63,42.52Zm0,0,.25.6c.08.2.18.45.29.75s.23.65.37,1c.27.79.58,1.77.88,3A39.64,39.64,0,0,1,4.2,52c0,.2,0,.39.07.59l0,.3,0,.31c0,.2,0,.41,0,.62s0,.21,0,.31,0,.22,0,.32c0,.44,0,.88.06,1.33s0,.91,0,1.38,0,1,0,1.44c0,.24,0,.49,0,.73s0,.51-.06.76q-.13,1.51-.42,3.12a35.74,35.74,0,0,1-1.86,6.66A36.79,36.79,0,0,1,.54,73.25a36.82,36.82,0,0,1-2,3.39A36.94,36.94,0,0,1-6.79,83a37.19,37.19,0,0,1-3.36,2.83l-.91.66-.47.31-.47.32-.24.15-.24.15-.48.3-.49.29-.25.15-.25.14-.51.28-.51.27-1,.53-.53.24q-.27.14-.54.24l-.53.24-.55.22a34.48,34.48,0,0,1-4.54,1.5A36.25,36.25,0,0,1-32.45,93a36.26,36.26,0,0,1-10-1.59A36.17,36.17,0,0,1-51.9,87a36.83,36.83,0,0,1-7.86-7.06A36.24,36.24,0,0,1-65.3,70.8a35.82,35.82,0,0,1-2.64-10.31,37,37,0,0,1,.42-10.56,36.69,36.69,0,0,1,3.36-9.84,36.3,36.3,0,0,1,5.85-8.3,36.77,36.77,0,0,1,7.62-6.21l.52-.31.25-.15.27-.15.52-.29.53-.28.26-.13.27-.14.53-.26.54-.25.27-.13.27-.11.54-.24.54-.22.27-.11.28-.11.54-.2c.74-.26,1.47-.52,2.2-.73l1.11-.3.55-.14.55-.13.56-.12L-39,21l.28-.05.55-.11.56-.09c.73-.12,1.47-.21,2.19-.29l.55,0,.55-.05c.36,0,.72-.05,1.08-.05a37.44,37.44,0,0,1,4.25.07A37.47,37.47,0,0,1-25,21a36.34,36.34,0,0,1,7.34,2.23,37.18,37.18,0,0,1,6.08,3.3,38.07,38.07,0,0,1,4.74,3.81c.67.65,1.3,1.3,1.88,1.94l.43.47.21.24.2.24.39.46.37.47.36.45.33.45c.11.15.22.29.32.44l.16.21.15.22.29.42.28.42.26.4.24.39c.64,1,1.13,1.94,1.51,2.68q.28.57.48,1c.14.3.26.54.34.74Z"/><path class="cls-33" d="M-6,30.84A36.31,36.31,0,0,0-31.79,20.16,36.31,36.31,0,0,0-57.61,30.84,36.27,36.27,0,0,0-68.3,56.65a36.23,36.23,0,0,0,10.69,25.8A36.27,36.27,0,0,0-31.79,93.13,36.27,36.27,0,0,0-6,82.45,36.22,36.22,0,0,0,4.71,56.65,36.26,36.26,0,0,0-6,30.84Zm-.17,51.49a36.15,36.15,0,0,1-11.54,7.78A36.11,36.11,0,0,1-31.81,93a36.12,36.12,0,0,1-14.14-2.85,36.15,36.15,0,0,1-11.54-7.78,36.15,36.15,0,0,1-7.78-11.54,36.11,36.11,0,0,1-2.85-14.13,36.16,36.16,0,0,1,2.85-14.14A36.26,36.26,0,0,1-57.49,31,36.15,36.15,0,0,1-45.95,23.2a36.12,36.12,0,0,1,14.14-2.85A36.11,36.11,0,0,1-17.68,23.2,36.15,36.15,0,0,1-6.14,31,36.07,36.07,0,0,1,1.63,42.52,36,36,0,0,1,4.49,56.66,35.94,35.94,0,0,1,1.63,70.79,36,36,0,0,1-6.14,82.33Z"/><path class="cls-15" d="M12.84,56.54H-31.1L10.7,43a.11.11,0,0,0,.07-.14.12.12,0,0,0-.14-.08l-41.8,13.59L4.38,30.49a.1.1,0,0,0,0-.15.11.11,0,0,0-.16,0L-31.3,56.14-5.47,20.59a.11.11,0,0,0,0-.16.11.11,0,0,0-.16,0L-31.49,56l13.58-41.8a.11.11,0,0,0-.07-.14.11.11,0,0,0-.14.07L-31.7,55.94V12a.11.11,0,0,0-.11-.12.12.12,0,0,0-.12.12V55.94l-13.58-41.8a.11.11,0,0,0-.15-.07.12.12,0,0,0-.07.14L-32.15,56-58,20.46a.11.11,0,0,0-.16,0,.11.11,0,0,0,0,.16l25.83,35.55L-67.88,30.31a.11.11,0,0,0-.16,0,.1.1,0,0,0,0,.15l35.56,25.84-41.8-13.59a.12.12,0,0,0-.14.08.11.11,0,0,0,.07.14l41.8,13.58H-76.48a.11.11,0,0,0-.11.12.11.11,0,0,0,.11.11h44l-41.8,13.58a.12.12,0,0,0-.07.15.11.11,0,0,0,.1.07h0L-32.46,57-68,82.82A.11.11,0,0,0-68,83a.11.11,0,0,0,.09,0,.1.1,0,0,0,.07,0l35.55-25.83L-58.16,92.72a.11.11,0,0,0,0,.16.1.1,0,0,0,.07,0,.11.11,0,0,0,.09,0L-32.15,57.3-45.73,99.1a.12.12,0,0,0,.07.14h0a.12.12,0,0,0,.11-.08l13.58-41.8v43.95a.11.11,0,0,0,.12.11.11.11,0,0,0,.11-.11V57.37l13.58,41.8a.12.12,0,0,0,.11.08h0a.11.11,0,0,0,.07-.14L-31.49,57.3-5.65,92.86a.1.1,0,0,0,.09,0,.11.11,0,0,0,.07,0,.11.11,0,0,0,0-.16L-31.3,57.17,4.25,83a.08.08,0,0,0,.07,0,.11.11,0,0,0,.09,0,.11.11,0,0,0,0-.16L-31.17,57l41.8,13.58h0a.11.11,0,0,0,.11-.07.12.12,0,0,0-.07-.15L-31.1,56.77H12.84a.11.11,0,0,0,.12-.11A.12.12,0,0,0,12.84,56.54Z"/><path class="cls-34" d="M-31.81,101.49a.18.18,0,0,1-.18-.17V57.73L-45.46,99.19a.17.17,0,0,1-.16.12h-.05a.18.18,0,0,1-.11-.22l13.47-41.45L-57.93,92.89a.19.19,0,0,1-.24,0,.17.17,0,0,1,0-.24l25.62-35.26L-67.85,83.05a.19.19,0,0,1-.24,0,.18.18,0,0,1,0-.24l35.27-25.62L-74.24,70.62a.18.18,0,0,1-.22-.11.16.16,0,0,1,.11-.21l41.46-13.47H-76.48a.18.18,0,0,1-.17-.17.18.18,0,0,1,.17-.18h43.59L-74.35,43a.16.16,0,0,1-.11-.21.17.17,0,0,1,.16-.12h.06l41.46,13.47L-68,30.54a.19.19,0,0,1-.07-.11.28.28,0,0,1,0-.13.19.19,0,0,1,.24,0l35.26,25.62L-58.21,20.62a.13.13,0,0,1,0-.12.19.19,0,0,1,.07-.12.19.19,0,0,1,.24,0l25.62,35.26L-45.78,14.23a.18.18,0,0,1,.11-.22.18.18,0,0,1,.21.11L-32,55.58V12a.18.18,0,0,1,.18-.18.17.17,0,0,1,.16.18V55.58l13.48-41.46A.16.16,0,0,1-18,14H-18a.22.22,0,0,1,.1.09.2.2,0,0,1,0,.13L-31.32,55.68-5.7,20.42a.19.19,0,0,1,.24,0,.19.19,0,0,1,.07.12.24.24,0,0,1,0,.12L-31,55.88,4.22,30.26a.19.19,0,0,1,.24,0,.28.28,0,0,1,0,.13.19.19,0,0,1-.07.11L-30.84,56.16,10.61,42.69h.05a.18.18,0,0,1,.17.12.17.17,0,0,1-.11.21L-30.74,56.48H12.84a.17.17,0,0,1,.17.18.17.17,0,0,1-.17.17H-30.74L10.72,70.3a.17.17,0,0,1,.11.21.18.18,0,0,1-.22.11L-30.84,57.15,4.42,82.77a.17.17,0,1,1-.2.28L-31,57.43-5.42,92.69a.19.19,0,0,1,0,.24.19.19,0,0,1-.24,0L-31.32,57.63l13.47,41.45a.19.19,0,0,1,0,.13.22.22,0,0,1-.1.09H-18a.17.17,0,0,1-.16-.12L-31.65,57.73v43.59A.17.17,0,0,1-31.81,101.49ZM-31.87,57v44.31s0,.05.06.05a0,0,0,0,0,0-.05V57l13.69,42.14a.07.07,0,0,0,.08,0s0,0,0,0a0,0,0,0,0,0,0L-31.65,57l26,35.84a.07.07,0,0,0,.08,0,.05.05,0,0,0,0-.08l-26-35.85L4.29,83a.06.06,0,0,0,.06-.1l-35.84-26,.34.11L10.64,70.51s.07,0,.08,0a.06.06,0,0,0,0-.07l-42.14-13.7h44.3a.06.06,0,0,0,.06-.05.06.06,0,0,0-.06-.06h-44.3L10.68,42.91a.07.07,0,0,0,0-.08.07.07,0,0,0-.08,0L-31.49,56.49l35.84-26a.08.08,0,0,0,0,0s0,0,0,0a.05.05,0,0,0-.07,0L-31.56,56.4l26-35.85a.05.05,0,0,0,0,0l0,0a.05.05,0,0,0-.08,0l-26,35.84L-18,14.19a0,0,0,0,0,0,0l0,0a.07.07,0,0,0-.08,0L-31.76,56.3V12s0-.06,0-.06a.05.05,0,0,0-.06.06V56.3L-45.56,14.16a.07.07,0,0,0-.08,0,.07.07,0,0,0,0,.07L-32,56.33-58,20.49a0,0,0,0,0-.07,0l0,0s0,0,0,0L-32.07,56.4l-35.85-26a.07.07,0,0,0-.08,0s0,0,0,0,0,0,0,0l35.84,26L-74.28,42.8a.06.06,0,0,0-.07,0,.07.07,0,0,0,0,.08L-32.18,56.6h-44.3s0,0,0,.06a0,0,0,0,0,0,.05h44.3l-42.13,13.7a.06.06,0,0,0,0,.07.05.05,0,0,0,.07,0l42.14-13.69L-68,82.87s0,0,0,.07a.07.07,0,0,0,.08,0l35.85-26-26,35.85a.06.06,0,0,0,0,.08s.06,0,.07,0L-32,57-45.67,99.12a.06.06,0,0,0,0,.07.07.07,0,0,0,.08,0Z"/><path class="cls-9" d="M-31.81,93.36a.21.21,0,0,1-.15-.07l-8.7-9.42-12.58,2.52a.17.17,0,0,1-.15,0,.2.2,0,0,1-.09-.13L-55,73.48l-11.65-5.36a.17.17,0,0,1-.11-.12.18.18,0,0,1,0-.16l6.28-11.15-6.28-11.22a.18.18,0,0,1,0-.16.19.19,0,0,1,.11-.12L-55,39.83l1.49-12.73a.19.19,0,0,1,.09-.14.2.2,0,0,1,.15,0l12.58,2.52L-32,20a.2.2,0,0,1,.15-.06.2.2,0,0,1,.14.06l8.7,9.42,12.58-2.52a.2.2,0,0,1,.15,0,.16.16,0,0,1,.08.14l1.49,12.73L3,45.19a.22.22,0,0,1,.11.12.18.18,0,0,1,0,.16L-3.21,56.66,3.08,67.84a.18.18,0,0,1,0,.16.19.19,0,0,1-.11.12L-8.67,73.48l-1.49,12.74a.16.16,0,0,1-.08.13.17.17,0,0,1-.15,0L-23,83.87l-8.7,9.42A.21.21,0,0,1-31.81,93.36Zm-8.78-9.9a.2.2,0,0,1,.15.06l8.63,9.34,8.62-9.34a.22.22,0,0,1,.19-.06L-10.53,86-9,73.32a.22.22,0,0,1,.12-.16L2.63,67.85l-6.24-11.1a.21.21,0,0,1,0-.19l6.24-11.1L-8.93,40.15A.22.22,0,0,1-9,40l-1.48-12.63L-23,29.85a.22.22,0,0,1-.19-.06l-8.62-9.34-8.63,9.34a.22.22,0,0,1-.19.06L-53.1,27.36-54.58,40a.22.22,0,0,1-.12.16l-11.56,5.31L-60,56.59a.23.23,0,0,1,0,.2l-6.24,11.06,11.56,5.31a.22.22,0,0,1,.12.16L-53.1,86l12.47-2.5Z"/><path class="cls-15" d="M-31.81,93.41a.24.24,0,0,1-.19-.08l-8.68-9.39-12.55,2.5a.24.24,0,0,1-.2,0,.25.25,0,0,1-.1-.18L-55,73.52l-11.63-5.35a.24.24,0,0,1-.13-.15.2.2,0,0,1,0-.2l6.27-11.13L-66.77,45.5a.26.26,0,0,1,0-.21.24.24,0,0,1,.13-.15L-55,39.8l1.49-12.71a.25.25,0,0,1,.1-.18.24.24,0,0,1,.2,0l12.55,2.5L-32,20a.24.24,0,0,1,.19-.08.25.25,0,0,1,.18.08l8.68,9.39,12.55-2.5a.24.24,0,0,1,.2,0,.29.29,0,0,1,.1.18L-8.61,39.8,3,45.14a.24.24,0,0,1,.13.15.23.23,0,0,1,0,.21L-3.14,56.66,3.13,67.82a.2.2,0,0,1,0,.2.24.24,0,0,1-.13.15L-8.61,73.52l-1.49,12.7a.29.29,0,0,1-.1.18.24.24,0,0,1-.2,0l-12.55-2.5-8.68,9.39A.25.25,0,0,1-31.81,93.41Zm-8.83-9.6,0,0,8.7,9.41a.15.15,0,0,0,.21,0L-23,83.81l12.61,2.52a.14.14,0,0,0,.11,0,.21.21,0,0,0,.06-.1l1.49-12.77h0L3,68.07A.18.18,0,0,0,3.05,68a.15.15,0,0,0,0-.11l-6.3-11.21v0L3,45.44a.14.14,0,0,0,0-.11A.18.18,0,0,0,3,45.24L-8.72,39.87-10.21,27.1a.21.21,0,0,0-.06-.1.14.14,0,0,0-.11,0L-23,29.5l0,0-8.7-9.42a.15.15,0,0,0-.21,0l-8.72,9.44L-53.25,27a.14.14,0,0,0-.11,0,.21.21,0,0,0-.06.1l-1.5,12.77L-66.6,45.24a.14.14,0,0,0-.08.09.14.14,0,0,0,0,.11l6.31,11.25,0,0-6.29,11.15a.14.14,0,0,0,0,.11.14.14,0,0,0,.08.09l11.68,5.37,1.5,12.77a.21.21,0,0,0,.06.1.14.14,0,0,0,.11,0ZM-31.81,93l-8.68-9.39a.15.15,0,0,0-.13,0L-53.15,86l-1.49-12.69a.2.2,0,0,0-.08-.12l-11.62-5.33,0-.06,6.24-11.06a.17.17,0,0,0,0-.14l-6.27-11.18,11.62-5.34a.17.17,0,0,0,.08-.12l1.49-12.69,12.53,2.5a.12.12,0,0,0,.13,0l8.68-9.39,8.66,9.39a.15.15,0,0,0,.14,0l12.53-2.5L-9,40a.17.17,0,0,0,.08.12L2.71,45.44l0,.05-6.24,11.1a.17.17,0,0,0,0,.14L2.71,67.88l0,0L-8.91,73.21a.2.2,0,0,0-.08.12L-10.48,86-23,83.52a.18.18,0,0,0-.14,0Zm-8.78-9.55a.25.25,0,0,1,.19.09l8.59,9.29,8.58-9.29a.24.24,0,0,1,.24-.08l12.41,2.48L-9.1,73.31a.26.26,0,0,1,.14-.2L2.55,67.82l-6.21-11a.28.28,0,0,1,0-.25l6.21-11L-9,40.2A.25.25,0,0,1-9.1,40l-1.48-12.58L-23,29.9a.26.26,0,0,1-.24-.07l-8.58-9.3-8.59,9.3a.26.26,0,0,1-.24.07l-12.42-2.48L-54.53,40a.24.24,0,0,1-.15.2l-11.5,5.29L-60,56.56a.3.3,0,0,1,0,.26l-6.21,11,11.5,5.29a.25.25,0,0,1,.15.2l1.47,12.58,12.42-2.48Z"/><path class="cls-20" d="M-20.53,91.58l-.1,0-11.18-6.3L-43,91.56a.22.22,0,0,1-.16,0,.16.16,0,0,1-.12-.11l-5.36-11.65-12.74-1.49a.2.2,0,0,1-.13-.09.17.17,0,0,1,0-.15L-59,65.5l-9.42-8.7a.2.2,0,0,1-.06-.14.2.2,0,0,1,.06-.15l9.42-8.7-2.52-12.58a.17.17,0,0,1,0-.15.16.16,0,0,1,.13-.08l12.74-1.5,5.36-11.65a.22.22,0,0,1,.12-.11.18.18,0,0,1,.16,0l11.19,6.29,11.18-6.29a.18.18,0,0,1,.16,0,.22.22,0,0,1,.12.11L-15,33.5-2.26,35a.16.16,0,0,1,.14.08.2.2,0,0,1,0,.15L-4.6,47.81l9.42,8.7a.21.21,0,0,1,.07.15.21.21,0,0,1-.07.14L-4.6,65.5l2.52,12.58a.2.2,0,0,1,0,.15.19.19,0,0,1-.14.09L-15,79.81l-5.36,11.65a.16.16,0,0,1-.12.11Zm-11.28-6.74.09,0,11.1,6.24,5.31-11.56a.19.19,0,0,1,.16-.11L-2.52,78-5,65.47a.22.22,0,0,1,.06-.19l9.34-8.62L-4.95,48A.22.22,0,0,1-5,47.84l2.49-12.47-12.63-1.48a.22.22,0,0,1-.16-.12l-5.31-11.56-11.1,6.24a.21.21,0,0,1-.19,0L-43,22.21l-5.31,11.56a.22.22,0,0,1-.16.12l-12.64,1.48,2.5,12.47a.22.22,0,0,1-.06.19L-68,56.66l9.34,8.62a.22.22,0,0,1,.06.19L-61.12,78l12.64,1.48a.19.19,0,0,1,.16.11L-43,91.1l11.1-6.24Z"/><path class="cls-21" d="M-43.1,91.64h-.08a.26.26,0,0,1-.15-.14l-5.35-11.63-12.7-1.49a.25.25,0,0,1-.18-.1.24.24,0,0,1,0-.2l2.5-12.55-9.39-8.68a.23.23,0,0,1-.08-.18.26.26,0,0,1,.08-.19l9.39-8.68-2.5-12.55a.24.24,0,0,1,0-.2.29.29,0,0,1,.18-.1l12.7-1.49,5.35-11.63a.24.24,0,0,1,.15-.13.2.2,0,0,1,.2,0L-31.81,28l11.15-6.27a.22.22,0,0,1,.21,0,.27.27,0,0,1,.15.13L-15,33.45l12.71,1.49a.29.29,0,0,1,.18.1.24.24,0,0,1,0,.2l-2.5,12.55,9.39,8.68a.26.26,0,0,1,.08.19.23.23,0,0,1-.08.18l-9.39,8.68L-2,78.07a.24.24,0,0,1,0,.2.25.25,0,0,1-.18.1L-15,79.86-20.3,91.49a.34.34,0,0,1-.15.14.3.3,0,0,1-.21,0l-11.15-6.28L-43,91.61A.24.24,0,0,1-43.1,91.64Zm0-69.85h0a.18.18,0,0,0-.09.08L-48.6,33.56h0l-12.74,1.49a.21.21,0,0,0-.1.06.14.14,0,0,0,0,.11L-59,47.83l0,0-9.41,8.7a.16.16,0,0,0,0,.11.14.14,0,0,0,0,.1L-59,65.48v0l-2.51,12.58a.14.14,0,0,0,0,.11.21.21,0,0,0,.1.06l12.77,1.5,5.37,11.68a.14.14,0,0,0,.09.08.14.14,0,0,0,.11,0l11.22-6.31,0,0,11.19,6.29a.14.14,0,0,0,.11,0,.14.14,0,0,0,.09-.08L-15,79.76h0l12.74-1.49a.21.21,0,0,0,.1-.06.14.14,0,0,0,0-.11L-4.66,65.48l0,0,9.42-8.7a.14.14,0,0,0,0-.1.16.16,0,0,0,0-.11l-9.44-8.72v0l2.51-12.58a.14.14,0,0,0,0-.11.21.21,0,0,0-.1-.06L-15,33.56l0,0L-20.4,21.87a.18.18,0,0,0-.09-.08.14.14,0,0,0-.11,0l-11.21,6.3h0L-43,21.81A.1.1,0,0,0-43.1,21.79Zm22.5,69.39-11.15-6.27a.17.17,0,0,0-.14,0L-43,91.18l0-.05-5.31-11.57a.17.17,0,0,0-.12-.08L-61.18,78v-.06l2.49-12.47a.12.12,0,0,0,0-.13l-9.39-8.67L-58.72,48a.15.15,0,0,0,0-.14l-2.5-12.53,12.69-1.49a.15.15,0,0,0,.12-.08L-43,22.13l.06,0,11.09,6.24a.17.17,0,0,0,.14,0l11.15-6.27,0,.05,5.31,11.57a.15.15,0,0,0,.12.08l12.69,1.49v.06L-4.95,47.85a.15.15,0,0,0,0,.14l9.38,8.67-9.38,8.67a.12.12,0,0,0,0,.13L-2.45,78l-12.69,1.49a.17.17,0,0,0-.12.08ZM-61,77.9l12.58,1.47a.28.28,0,0,1,.2.15L-43,91l11-6.2a.23.23,0,0,1,.25,0l11,6.2,5.29-11.5a.26.26,0,0,1,.2-.15L-2.59,77.9-5.06,65.48A.26.26,0,0,1-5,65.24l9.3-8.58L-5,48.07a.26.26,0,0,1-.07-.24l2.47-12.41-12.57-1.48a.25.25,0,0,1-.2-.14l-5.29-11.51-11,6.21a.28.28,0,0,1-.25,0l-11-6.21L-48.27,33.8a.26.26,0,0,1-.2.14L-61,35.42l2.48,12.41a.26.26,0,0,1-.07.24l-9.3,8.59,9.3,8.58a.26.26,0,0,1,.07.24Z"/><polygon class="cls-9" points="-0.8 115.11 -31.49 56.01 -7.52 115.11 -12.33 115.11 -12.33 117.39 3.58 117.39 3.58 115.11 -0.8 115.11"/><path class="cls-15" d="M3.64,117.44h-16v-2.38H-7.6L-31.54,56l.1-.05L-.76,115.06h4.4Zm-15.91-.11H3.52v-2.16H-.84v0L-31,57.11l23.54,58.06h-4.83Z"/><g class="cls-35"><path class="cls-22" d="M-3.27,42.54s.35.12.88.34l.42.17.47.2.49.22.52.23.51.23.49.23.87.42c.51.25.84.43.84.43l-.88-.34L.45,44.3,0,44.08l-.51-.23-.51-.23-.5-.23L-2,43.17l-.41-.2C-2.94,42.72-3.27,42.54-3.27,42.54Z"/><path class="cls-22" d="M2.59,45.93s-.16.35-.42.86L2,47.2c-.08.15-.16.31-.25.46l-.26.49-.28.51-.28.5-.28.48c-.18.31-.36.6-.5.85l-.52.82s.16-.36.43-.87c.13-.26.29-.55.46-.87l.26-.49c.1-.17.19-.34.28-.51s.19-.33.29-.5l.27-.48c.1-.15.18-.31.27-.45s.17-.27.24-.4C2.38,46.25,2.59,45.93,2.59,45.93Z"/><path class="cls-22" d="M-.42,62s.21.31.51.8l.24.39c.08.15.17.29.26.45l.27.47.28.49.28.5c.09.16.18.32.26.48.17.31.33.6.46.86.26.5.42.85.42.85l-.51-.8-.5-.84-.28-.47c-.09-.16-.18-.33-.28-.49l-.27-.5c-.09-.16-.18-.32-.26-.48s-.17-.31-.24-.46L0,62.83C-.26,62.32-.42,62-.42,62Z"/><path class="cls-22" d="M2.41,68.17l-.85.44-.41.21-.47.23-.5.23-.52.25-.52.23-.51.23-.9.38c-.53.23-.89.36-.89.36s.33-.19.85-.44c.25-.14.55-.28.88-.44l.5-.24.52-.24.52-.24.51-.22.48-.21.42-.18C2.05,68.3,2.41,68.17,2.41,68.17Z"/><path class="cls-22" d="M-4.1,48.57l.1.08.27.24c.24.2.57.49,1,.85.2.17.42.36.64.57l.72.64.76.69.78.71.77.72c.26.23.51.47.75.7.49.46.94.88,1.32,1.25s.7.68.93.89a2.74,2.74,0,0,0,.26.25l.09.1-.1-.09-.27-.23-1-.85c-.4-.35-.87-.76-1.36-1.21L.8,53.19,0,52.48l-.78-.72-.74-.7-.7-.66-.63-.59-.92-.9L-4,48.66Z"/><path class="cls-22" d="M4.6,56.73l-.09.1-.27.26-1,.94-.66.63-.73.69-.79.74-.81.76-.82.76-.8.72c-.52.48-1,.91-1.42,1.28l-1,.9-.28.25-.1.09.09-.1.27-.26,1-.95,1.39-1.32.79-.74.81-.75L1,60l.8-.73.75-.67c.23-.22.46-.42.67-.61l1-.89.29-.25Z"/></g></g></g></g></svg>