<svg id="Layer_1" data-name="Layer 1" xmlns="http://www.w3.org/2000/svg" xmlns:xlink="http://www.w3.org/1999/xlink" viewBox="0 0 126 91.5"><defs><style>.cls-1{fill:none;}.cls-2{clip-path:url(#clip-path);}.cls-3{fill:#acbb05;}.cls-4{fill:#a2b603;}.cls-5{fill:#98b000;}.cls-6{isolation:isolate;}.cls-7{fill:#bdbdbd;}.cls-8{fill:#f5f5f5;}.cls-9{clip-path:url(#clip-path-2);}.cls-10{fill:#c9d12c;}</style><clipPath id="clip-path"><rect class="cls-1" x="-1" y="-1" width="128" height="94"/></clipPath><clipPath id="clip-path-2"><rect class="cls-1" y="27.5" width="126.5" height="66.5"/></clipPath></defs><title>設施介紹-工作區域 8</title><g class="cls-2"><rect class="cls-3" x="-4" y="-50.57" width="502" height="63.41"/><rect class="cls-4" x="-4" y="-14.66" width="502" height="68.08"/><rect class="cls-5" x="-4" y="21.24" width="502" height="72.76"/><g class="cls-6"><polygon class="cls-7" points="11.34 6.85 9.5 5.73 9.38 -39.22 11.21 -38.1 11.34 6.85"/><polygon class="cls-8" points="13.35 -39.07 13.47 5.88 11.34 6.85 11.21 -38.1 13.35 -39.07"/></g><g class="cls-9"><path class="cls-10" d="M57.06,39.35,5.8,69.15a4.42,4.42,0,0,0,0,7.65l49.68,28.75a15,15,0,0,0,15.06,0L89.67,94.25l31.81-18.51a4.42,4.42,0,0,0,0-7.64L72.1,39.37A15,15,0,0,0,57.06,39.35Z"/></g></g></svg>