<svg xmlns="http://www.w3.org/2000/svg" xmlns:xlink="http://www.w3.org/1999/xlink" viewBox="0 0 186.89 134.55"><defs><style>.cls-1{fill:none;}.cls-2{isolation:isolate;}.cls-3{clip-path:url(#clip-path);}.cls-4{fill:#ded712;}.cls-5{fill:#d4d10f;}.cls-6{fill:#cacc0d;}.cls-7{fill:#c0c60a;}.cls-8{fill:#05d8ba;}.cls-9{fill:#e8db4a;}.cls-10{fill:#a20000;}.cls-11,.cls-22{fill:#760000;}.cls-12{fill:#ff6700;}.cls-13{fill:#9c5a39;}.cls-13,.cls-46{opacity:0.6;}.cls-13,.cls-19,.cls-22,.cls-24,.cls-27,.cls-28,.cls-29,.cls-30,.cls-33,.cls-34,.cls-45,.cls-47,.cls-59{mix-blend-mode:multiply;}.cls-14{fill:#2e0000;}.cls-15{fill:#fea30e;}.cls-16,.cls-35{fill:#d31616;}.cls-17{fill:#e56d00;}.cls-18{fill:#ffd016;}.cls-19{fill:#6e3939;}.cls-19,.cls-28,.cls-30{opacity:0.4;}.cls-20{fill:#740000;}.cls-21{fill:#480000;}.cls-23{fill:#fecd06;}.cls-24{fill:#debb06;}.cls-25{fill:#e9f7f9;}.cls-26{fill:#f5000f;}.cls-27{fill:#4f4946;}.cls-27,.cls-33{opacity:0.9;}.cls-29,.cls-30,.cls-33{fill:gray;}.cls-31,.cls-34{fill:#ab0000;}.cls-32{fill:#d6a500;}.cls-34,.cls-45{opacity:0.7;}.cls-35,.cls-46,.cls-56{mix-blend-mode:color-dodge;}.cls-36{fill:#d35a16;}.cls-37{fill:#00af8b;}.cls-38{fill:#0078a9;}.cls-39{fill:#88e9ff;}.cls-40{fill:#daff92;}.cls-41{fill:#fef23e;}.cls-42{fill:#22c2f2;}.cls-43{fill:#92c63e;}.cls-44{fill:#6e9839;}.cls-45{fill:#fea806;}.cls-46,.cls-52{fill:#fff;}.cls-48{fill:#578b03;}.cls-49{fill:#c39200;}.cls-50{fill:#0087b7;}.cls-51{fill:#335d00;}.cls-53{fill:#75b506;}.cls-54{fill:#b54400;}.cls-55{fill:#755d06;}.cls-56{fill:#ffad99;opacity:0.3;}.cls-57{fill:#ff934a;}.cls-58,.cls-59,.cls-62{fill:#ffc502;}.cls-60{fill:#ffe102;}.cls-61{fill:#af8308;}.cls-62{mix-blend-mode:screen;}.cls-63{fill:#939393;}.cls-64{fill:#ab1113;}.cls-65{fill:#fb0f0f;}.cls-66{fill:#eef9fb;}.cls-67{fill:#b3afae;}</style><clipPath id="clip-path"><rect class="cls-1" x="-0.34" y="0.6" width="188" height="135.23"/></clipPath></defs><title>設施介紹-工作區域 13</title><g class="cls-2"><g id="Layer_1" data-name="Layer 1"><g class="cls-3"><rect class="cls-4" x="-339.49" y="-10.43" width="575.16" height="45.78"/><rect class="cls-5" x="-339.49" y="30.61" width="575.16" height="51.12"/><rect class="cls-6" x="-339.49" y="71.66" width="575.16" height="56.46"/><rect class="cls-7" x="-339.49" y="112.7" width="575.16" height="61.81"/><path class="cls-8" d="M139,97.31l44.56,25.84a3.84,3.84,0,0,1,0,6.64l-46.85,27.13a13,13,0,0,1-13.09,0L107,147.12,79.31,131.06a3.82,3.82,0,0,1,0-6.62l46.6-27.11A13,13,0,0,1,139,97.31Z"/><path class="cls-9" d="M73.67,59.89l43.14,25a3.7,3.7,0,0,1,0,6.42L71.45,117.59a12.59,12.59,0,0,1-12.67,0l-16.1-9.45L15.91,92.56a3.71,3.71,0,0,1,0-6.41L61,59.9A12.59,12.59,0,0,1,73.67,59.89Z"/><rect class="cls-10" x="128.34" y="75.78" width="0.33" height="55.45"/><rect class="cls-11" x="128.01" y="75.78" width="0.33" height="55.45"/><rect class="cls-10" x="121.99" y="83.82" width="0.33" height="47.41"/><rect class="cls-11" x="121.66" y="83.82" width="0.33" height="47.41"/><path class="cls-12" d="M131.45,85.35a12,12,0,0,0-3,1v4.08A7.55,7.55,0,0,1,133,87.39Z"/><path class="cls-13" d="M131.45,85.35a12,12,0,0,0-3,1v4.08A7.55,7.55,0,0,1,133,87.39Z"/><path class="cls-14" d="M152.91,76.73a10.58,10.58,0,0,1-2.76,1.3,11.23,11.23,0,0,1-3.09.67,13.86,13.86,0,0,1-3.22-.14,8.34,8.34,0,0,1-2.19-.63s-.05,0,0,0a8.72,8.72,0,0,0,2,.67,15.78,15.78,0,0,0,3.22.18,10.54,10.54,0,0,0,3.23-.64A10.09,10.09,0,0,0,153,76.81.05.05,0,0,0,152.91,76.73Z"/><rect class="cls-15" x="146.36" y="91.32" width="5.53" height="38.14"/><rect class="cls-16" x="146.36" y="91.32" width="5.53" height="5.89"/><rect class="cls-11" x="146.36" y="97.36" width="5.53" height="0.21"/><path class="cls-11" d="M147.16,96.91a.22.22,0,0,1-.23.22.23.23,0,1,1,0-.45A.23.23,0,0,1,147.16,96.91Z"/><path class="cls-17" d="M147.09,96.89a.18.18,0,1,1-.18-.18A.18.18,0,0,1,147.09,96.89Z"/><path class="cls-18" d="M147,96.86a.08.08,0,0,1-.08.08.09.09,0,0,1-.08-.08.08.08,0,0,1,.08-.08A.07.07,0,0,1,147,96.86Z"/><path class="cls-11" d="M148.56,96.91a.22.22,0,0,1-.23.22.23.23,0,1,1,0-.45A.23.23,0,0,1,148.56,96.91Z"/><path class="cls-17" d="M148.49,96.89a.18.18,0,1,1-.18-.18A.18.18,0,0,1,148.49,96.89Z"/><path class="cls-18" d="M148.37,96.86a.08.08,0,0,1-.08.08.09.09,0,0,1-.08-.08.08.08,0,0,1,.08-.08A.07.07,0,0,1,148.37,96.86Z"/><path class="cls-11" d="M150.06,96.91a.22.22,0,0,1-.23.22.22.22,0,0,1-.22-.22.23.23,0,1,1,.45,0Z"/><path class="cls-17" d="M150,96.89a.18.18,0,1,1-.18-.18A.18.18,0,0,1,150,96.89Z"/><path class="cls-18" d="M149.88,96.86a.09.09,0,0,1-.08.08.08.08,0,0,1-.08-.08.07.07,0,0,1,.08-.08A.08.08,0,0,1,149.88,96.86Z"/><path class="cls-11" d="M151.51,96.91a.22.22,0,0,1-.23.22.22.22,0,0,1-.22-.22.23.23,0,1,1,.45,0Z"/><path class="cls-17" d="M151.44,96.89a.18.18,0,1,1-.18-.18A.18.18,0,0,1,151.44,96.89Z"/><path class="cls-18" d="M151.32,96.86a.08.08,0,0,1-.08.08.09.09,0,0,1-.08-.08.08.08,0,0,1,.08-.08A.07.07,0,0,1,151.32,96.86Z"/><rect class="cls-10" x="146.28" y="97.21" width="5.71" height="0.19"/><rect class="cls-16" x="146.36" y="102.81" width="5.53" height="9.34"/><rect class="cls-11" x="146.36" y="112.31" width="5.53" height="0.21"/><path class="cls-11" d="M147.16,111.85a.23.23,0,0,1-.23.23.23.23,0,1,1,0-.45A.22.22,0,0,1,147.16,111.85Z"/><path class="cls-17" d="M147.09,111.84a.18.18,0,1,1-.36,0,.18.18,0,0,1,.36,0Z"/><path class="cls-18" d="M147,111.81a.08.08,0,0,1-.08.08.09.09,0,0,1-.08-.08.08.08,0,0,1,.08-.08A.07.07,0,0,1,147,111.81Z"/><path class="cls-11" d="M148.56,111.85a.23.23,0,0,1-.23.23.23.23,0,1,1,0-.45A.22.22,0,0,1,148.56,111.85Z"/><path class="cls-17" d="M148.49,111.84a.18.18,0,1,1-.36,0,.18.18,0,1,1,.36,0Z"/><path class="cls-18" d="M148.37,111.81a.08.08,0,0,1-.08.08.09.09,0,0,1-.08-.08.08.08,0,0,1,.08-.08A.07.07,0,0,1,148.37,111.81Z"/><path class="cls-11" d="M150.06,111.85a.23.23,0,1,1-.45,0,.22.22,0,0,1,.22-.22A.22.22,0,0,1,150.06,111.85Z"/><path class="cls-17" d="M150,111.84a.18.18,0,1,1-.36,0,.18.18,0,1,1,.36,0Z"/><path class="cls-18" d="M149.88,111.81a.09.09,0,0,1-.08.08.08.08,0,0,1-.08-.08.07.07,0,0,1,.08-.08A.08.08,0,0,1,149.88,111.81Z"/><path class="cls-11" d="M151.51,111.85a.23.23,0,1,1-.45,0,.22.22,0,0,1,.22-.22A.22.22,0,0,1,151.51,111.85Z"/><path class="cls-17" d="M151.44,111.84a.18.18,0,0,1-.36,0,.18.18,0,0,1,.36,0Z"/><path class="cls-18" d="M151.32,111.81a.08.08,0,0,1-.08.08.09.09,0,0,1-.08-.08.08.08,0,0,1,.08-.08A.07.07,0,0,1,151.32,111.81Z"/><rect class="cls-10" x="146.28" y="112.16" width="5.71" height="0.19"/><rect class="cls-11" x="146.36" y="102.84" width="5.53" height="0.21"/><rect class="cls-10" x="146.28" y="102.68" width="5.71" height="0.19"/><rect class="cls-16" x="146.36" y="116.11" width="5.53" height="5.54"/><rect class="cls-11" x="146.36" y="121.81" width="5.53" height="0.21"/><path class="cls-11" d="M147.16,121.35a.22.22,0,0,1-.23.22.23.23,0,1,1,0-.45A.23.23,0,0,1,147.16,121.35Z"/><path class="cls-17" d="M147.09,121.33a.18.18,0,1,1-.18-.18A.18.18,0,0,1,147.09,121.33Z"/><path class="cls-18" d="M147,121.3a.08.08,0,0,1-.08.08.08.08,0,1,1,0-.16A.08.08,0,0,1,147,121.3Z"/><path class="cls-11" d="M148.56,121.35a.22.22,0,0,1-.23.22.23.23,0,1,1,0-.45A.23.23,0,0,1,148.56,121.35Z"/><path class="cls-17" d="M148.49,121.33a.18.18,0,1,1-.18-.18A.18.18,0,0,1,148.49,121.33Z"/><path class="cls-18" d="M148.37,121.3a.08.08,0,0,1-.08.08.08.08,0,1,1,0-.16A.08.08,0,0,1,148.37,121.3Z"/><path class="cls-11" d="M150.06,121.35a.22.22,0,0,1-.23.22.22.22,0,0,1-.22-.22.23.23,0,1,1,.45,0Z"/><path class="cls-17" d="M150,121.33a.18.18,0,1,1-.18-.18A.18.18,0,0,1,150,121.33Z"/><path class="cls-18" d="M149.88,121.3a.09.09,0,0,1-.08.08.08.08,0,0,1,0-.16A.09.09,0,0,1,149.88,121.3Z"/><path class="cls-11" d="M151.51,121.35a.22.22,0,0,1-.23.22.22.22,0,0,1-.22-.22.23.23,0,1,1,.45,0Z"/><path class="cls-17" d="M151.44,121.33a.18.18,0,1,1-.18-.18A.18.18,0,0,1,151.44,121.33Z"/><path class="cls-18" d="M151.32,121.3a.08.08,0,0,1-.08.08.08.08,0,0,1,0-.16A.08.08,0,0,1,151.32,121.3Z"/><path class="cls-11" d="M147.16,116.85a.23.23,0,0,1-.23.23.23.23,0,1,1,0-.45A.22.22,0,0,1,147.16,116.85Z"/><path class="cls-17" d="M147.09,116.84a.18.18,0,0,1-.36,0,.18.18,0,0,1,.36,0Z"/><path class="cls-18" d="M147,116.81a.08.08,0,0,1-.08.08.09.09,0,0,1-.08-.08.08.08,0,0,1,.08-.08A.07.07,0,0,1,147,116.81Z"/><path class="cls-11" d="M148.56,116.85a.23.23,0,0,1-.23.23.23.23,0,1,1,0-.45A.22.22,0,0,1,148.56,116.85Z"/><path class="cls-17" d="M148.49,116.84a.18.18,0,0,1-.36,0,.18.18,0,1,1,.36,0Z"/><path class="cls-18" d="M148.37,116.81a.08.08,0,0,1-.08.08.09.09,0,0,1-.08-.08.08.08,0,0,1,.08-.08A.07.07,0,0,1,148.37,116.81Z"/><path class="cls-11" d="M150.06,116.85a.23.23,0,1,1-.45,0,.22.22,0,0,1,.22-.22A.22.22,0,0,1,150.06,116.85Z"/><path class="cls-17" d="M150,116.84a.18.18,0,0,1-.36,0,.18.18,0,1,1,.36,0Z"/><path class="cls-18" d="M149.88,116.81a.09.09,0,0,1-.08.08.08.08,0,0,1-.08-.08.07.07,0,0,1,.08-.08A.08.08,0,0,1,149.88,116.81Z"/><path class="cls-11" d="M151.51,116.85a.23.23,0,1,1-.45,0,.22.22,0,0,1,.22-.22A.22.22,0,0,1,151.51,116.85Z"/><path class="cls-17" d="M151.44,116.84a.18.18,0,0,1-.36,0,.18.18,0,0,1,.36,0Z"/><path class="cls-18" d="M151.32,116.81a.08.08,0,0,1-.08.08.09.09,0,0,1-.08-.08.08.08,0,0,1,.08-.08A.07.07,0,0,1,151.32,116.81Z"/><rect class="cls-10" x="146.28" y="121.65" width="5.71" height="0.19"/><rect class="cls-11" x="146.36" y="116.13" width="5.53" height="0.21"/><rect class="cls-10" x="146.28" y="115.97" width="5.71" height="0.19"/><polygon class="cls-19" points="151.89 97.4 151.99 97.4 151.99 97.21 151.89 97.21 151.89 91.32 150.49 91.32 150.49 129.46 151.89 129.46 151.89 121.84 151.99 121.84 151.99 121.65 151.89 121.65 151.89 116.17 151.99 116.17 151.99 115.97 151.89 115.97 151.89 112.35 151.99 112.35 151.99 112.16 151.89 112.16 151.89 102.88 151.99 102.88 151.99 102.69 151.89 102.69 151.89 97.4"/><polygon class="cls-19" points="146.36 129.46 147.08 129.46 147.08 91.32 146.36 91.32 146.36 97.21 146.28 97.21 146.28 97.4 146.36 97.4 146.36 102.69 146.28 102.69 146.28 102.88 146.36 102.88 146.36 112.16 146.28 112.16 146.28 112.35 146.36 112.35 146.36 115.97 146.28 115.97 146.28 116.17 146.36 116.17 146.36 121.65 146.28 121.65 146.28 121.84 146.36 121.84 146.36 129.46"/><rect class="cls-20" x="144.46" y="84.93" width="0.3" height="2.99"/><rect class="cls-21" x="144.16" y="84.93" width="0.3" height="2.99"/><rect class="cls-20" x="146.38" y="84.93" width="0.3" height="2.99"/><rect class="cls-21" x="146.08" y="84.93" width="0.3" height="2.99"/><rect class="cls-20" x="148.31" y="84.93" width="0.31" height="2.99"/><rect class="cls-21" x="148" y="84.93" width="0.3" height="2.99"/><rect class="cls-20" x="150.23" y="84.93" width="0.3" height="2.99"/><rect class="cls-21" x="149.93" y="84.93" width="0.3" height="2.99"/><rect class="cls-20" x="152.15" y="84.93" width="0.3" height="2.99"/><rect class="cls-21" x="151.85" y="84.93" width="0.3" height="2.99"/><rect class="cls-10" x="143.15" y="84.75" width="9.73" height="0.3"/><rect class="cls-11" x="143.15" y="85.05" width="9.73" height="0.3"/><polygon class="cls-11" points="128.42 91.73 130.87 88.12 131.05 88.22 128.6 91.83 128.42 91.73"/><polygon class="cls-10" points="128.24 91.63 130.69 88.03 130.87 88.12 128.42 91.73 128.24 91.63"/><polygon class="cls-22" points="128.63 91.06 128.24 91.63 128.6 91.83 129.13 91.06 128.63 91.06"/><polygon class="cls-22" points="130.71 88.73 131.05 88.22 130.69 88.03 130.22 88.73 130.71 88.73"/><polygon class="cls-11" points="131.23 91.73 128.78 88.12 128.6 88.22 131.05 91.83 131.23 91.73"/><polygon class="cls-10" points="131.41 91.63 128.97 88.03 128.78 88.12 131.23 91.73 131.41 91.63"/><polygon class="cls-22" points="131.03 91.06 131.41 91.63 131.05 91.83 130.53 91.06 131.03 91.06"/><polygon class="cls-22" points="128.94 88.73 128.6 88.22 128.97 88.03 129.44 88.73 128.94 88.73"/><polygon class="cls-11" points="131.13 91.73 133.58 88.12 133.76 88.22 131.31 91.83 131.13 91.73"/><polygon class="cls-10" points="130.95 91.63 133.4 88.03 133.58 88.12 131.13 91.73 130.95 91.63"/><polygon class="cls-22" points="131.34 91.06 130.95 91.63 131.31 91.83 131.83 91.06 131.34 91.06"/><polygon class="cls-22" points="133.42 88.73 133.76 88.22 133.4 88.03 132.93 88.73 133.42 88.73"/><polygon class="cls-11" points="133.94 91.73 131.49 88.12 131.31 88.22 133.76 91.83 133.94 91.73"/><polygon class="cls-10" points="134.12 91.63 131.67 88.03 131.49 88.12 133.94 91.73 134.12 91.63"/><polygon class="cls-22" points="133.73 91.06 134.12 91.63 133.76 91.83 133.24 91.06 133.73 91.06"/><polygon class="cls-22" points="131.65 88.73 131.31 88.22 131.67 88.03 132.14 88.73 131.65 88.73"/><polygon class="cls-11" points="133.91 91.73 136.35 88.12 136.53 88.22 134.09 91.83 133.91 91.73"/><polygon class="cls-10" points="133.72 91.63 136.17 88.03 136.35 88.12 133.91 91.73 133.72 91.63"/><polygon class="cls-22" points="134.11 91.06 133.72 91.63 134.09 91.83 134.61 91.06 134.11 91.06"/><polygon class="cls-22" points="136.2 88.73 136.53 88.22 136.17 88.03 135.7 88.73 136.2 88.73"/><polygon class="cls-11" points="136.71 91.73 134.27 88.12 134.09 88.22 136.53 91.83 136.71 91.73"/><polygon class="cls-10" points="136.9 91.63 134.45 88.03 134.27 88.12 136.71 91.73 136.9 91.63"/><polygon class="cls-22" points="136.51 91.06 136.9 91.63 136.53 91.83 136.01 91.06 136.51 91.06"/><polygon class="cls-22" points="134.43 88.73 134.09 88.22 134.45 88.03 134.92 88.73 134.43 88.73"/><rect class="cls-10" x="131.19" y="88.15" width="0.19" height="3.44"/><rect class="cls-11" x="131" y="88.15" width="0.19" height="3.44"/><rect class="cls-22" x="131" y="90.62" width="0.38" height="0.96"/><rect class="cls-22" x="131" y="88.15" width="0.38" height="0.62"/><rect class="cls-10" x="133.93" y="88.15" width="0.19" height="3.44"/><rect class="cls-11" x="133.74" y="88.15" width="0.19" height="3.44"/><rect class="cls-22" x="133.74" y="90.62" width="0.38" height="0.96"/><rect class="cls-22" x="133.74" y="88.15" width="0.38" height="0.62"/><polygon class="cls-11" points="136.65 91.73 139.1 88.12 139.28 88.22 136.83 91.83 136.65 91.73"/><polygon class="cls-10" points="136.47 91.63 138.92 88.03 139.1 88.12 136.65 91.73 136.47 91.63"/><polygon class="cls-22" points="136.86 91.06 136.47 91.63 136.83 91.83 137.35 91.06 136.86 91.06"/><polygon class="cls-22" points="138.94 88.73 139.28 88.22 138.92 88.03 138.45 88.73 138.94 88.73"/><polygon class="cls-11" points="139.46 91.73 137.01 88.12 136.83 88.22 139.28 91.83 139.46 91.73"/><polygon class="cls-10" points="139.64 91.63 137.19 88.03 137.01 88.12 139.46 91.73 139.64 91.63"/><polygon class="cls-22" points="139.25 91.06 139.64 91.63 139.28 91.83 138.76 91.06 139.25 91.06"/><polygon class="cls-22" points="137.17 88.73 136.83 88.22 137.19 88.03 137.66 88.73 137.17 88.73"/><polygon class="cls-11" points="139.43 91.73 141.88 88.12 142.06 88.22 139.61 91.83 139.43 91.73"/><polygon class="cls-10" points="139.25 91.63 141.69 88.03 141.88 88.12 139.43 91.73 139.25 91.63"/><polygon class="cls-22" points="139.63 91.06 139.25 91.63 139.61 91.83 140.13 91.06 139.63 91.06"/><polygon class="cls-22" points="141.72 88.73 142.06 88.22 141.69 88.03 141.22 88.73 141.72 88.73"/><polygon class="cls-11" points="142.24 91.73 139.79 88.12 139.6 88.22 142.06 91.83 142.24 91.73"/><polygon class="cls-10" points="142.42 91.63 139.97 88.03 139.79 88.12 142.24 91.73 142.42 91.63"/><polygon class="cls-22" points="142.03 91.06 142.42 91.63 142.06 91.83 141.53 91.06 142.03 91.06"/><polygon class="cls-22" points="139.95 88.73 139.6 88.22 139.97 88.03 140.44 88.73 139.95 88.73"/><rect class="cls-10" x="136.71" y="88.15" width="0.19" height="3.44"/><rect class="cls-11" x="136.52" y="88.15" width="0.19" height="3.44"/><rect class="cls-22" x="136.52" y="90.62" width="0.38" height="0.96"/><rect class="cls-22" x="136.52" y="88.15" width="0.38" height="0.62"/><rect class="cls-10" x="139.45" y="88.15" width="0.19" height="3.44"/><rect class="cls-11" x="139.26" y="88.15" width="0.19" height="3.44"/><rect class="cls-22" x="139.26" y="90.62" width="0.38" height="0.96"/><rect class="cls-22" x="139.26" y="88.15" width="0.38" height="0.62"/><polygon class="cls-11" points="142.16 91.73 144.6 88.12 144.79 88.22 142.34 91.83 142.16 91.73"/><polygon class="cls-10" points="141.98 91.63 144.43 88.03 144.6 88.12 142.16 91.73 141.98 91.63"/><polygon class="cls-22" points="142.36 91.06 141.98 91.63 142.34 91.83 142.86 91.06 142.36 91.06"/><polygon class="cls-22" points="144.45 88.73 144.79 88.22 144.43 88.03 143.96 88.73 144.45 88.73"/><polygon class="cls-11" points="144.97 91.73 142.52 88.12 142.34 88.22 144.78 91.83 144.97 91.73"/><polygon class="cls-10" points="145.15 91.63 142.7 88.03 142.52 88.12 144.97 91.73 145.15 91.63"/><polygon class="cls-22" points="144.76 91.06 145.15 91.63 144.78 91.83 144.26 91.06 144.76 91.06"/><polygon class="cls-22" points="142.68 88.73 142.34 88.22 142.7 88.03 143.17 88.73 142.68 88.73"/><polygon class="cls-11" points="144.94 91.73 147.38 88.12 147.56 88.22 145.12 91.83 144.94 91.73"/><polygon class="cls-10" points="144.75 91.63 147.2 88.03 147.38 88.12 144.94 91.73 144.75 91.63"/><polygon class="cls-22" points="145.14 91.06 144.75 91.63 145.12 91.83 145.63 91.06 145.14 91.06"/><polygon class="cls-22" points="147.22 88.73 147.56 88.22 147.2 88.03 146.73 88.73 147.22 88.73"/><polygon class="cls-11" points="147.74 91.73 145.29 88.12 145.11 88.22 147.56 91.83 147.74 91.73"/><polygon class="cls-10" points="147.92 91.63 145.48 88.03 145.29 88.12 147.74 91.73 147.92 91.63"/><polygon class="cls-22" points="147.54 91.06 147.92 91.63 147.56 91.83 147.04 91.06 147.54 91.06"/><polygon class="cls-22" points="145.45 88.73 145.11 88.22 145.48 88.03 145.95 88.73 145.45 88.73"/><rect class="cls-10" x="142.22" y="88.15" width="0.19" height="3.44"/><rect class="cls-11" x="142.03" y="88.15" width="0.19" height="3.44"/><rect class="cls-22" x="142.03" y="90.62" width="0.38" height="0.96"/><rect class="cls-22" x="142.03" y="88.15" width="0.38" height="0.62"/><rect class="cls-10" x="144.95" y="88.15" width="0.19" height="3.44"/><rect class="cls-11" x="144.76" y="88.15" width="0.19" height="3.44"/><rect class="cls-22" x="144.76" y="90.62" width="0.38" height="0.96"/><rect class="cls-22" x="144.76" y="88.15" width="0.38" height="0.62"/><polygon class="cls-11" points="147.68 91.73 150.13 88.12 150.31 88.22 147.86 91.83 147.68 91.73"/><polygon class="cls-10" points="147.5 91.63 149.95 88.03 150.13 88.12 147.68 91.73 147.5 91.63"/><polygon class="cls-22" points="147.88 91.06 147.5 91.63 147.86 91.83 148.38 91.06 147.88 91.06"/><polygon class="cls-22" points="149.97 88.73 150.31 88.22 149.95 88.03 149.47 88.73 149.97 88.73"/><polygon class="cls-11" points="150.49 91.73 148.04 88.12 147.86 88.22 150.31 91.83 150.49 91.73"/><polygon class="cls-10" points="150.67 91.63 148.22 88.03 148.04 88.12 150.49 91.73 150.67 91.63"/><polygon class="cls-22" points="150.28 91.06 150.67 91.63 150.31 91.83 149.78 91.06 150.28 91.06"/><polygon class="cls-22" points="148.2 88.73 147.86 88.22 148.22 88.03 148.69 88.73 148.2 88.73"/><polygon class="cls-11" points="150.46 91.73 152.9 88.12 153.09 88.22 150.64 91.83 150.46 91.73"/><polygon class="cls-10" points="150.27 91.63 152.72 88.03 152.9 88.12 150.46 91.73 150.27 91.63"/><polygon class="cls-22" points="150.66 91.06 150.27 91.63 150.64 91.83 151.16 91.06 150.66 91.06"/><polygon class="cls-22" points="152.74 88.73 153.09 88.22 152.72 88.03 152.25 88.73 152.74 88.73"/><polygon class="cls-11" points="153.26 91.73 150.82 88.12 150.63 88.22 153.08 91.83 153.26 91.73"/><polygon class="cls-10" points="153.44 91.63 151 88.03 150.82 88.12 153.26 91.73 153.44 91.63"/><polygon class="cls-22" points="153.06 91.06 153.44 91.63 153.08 91.83 152.56 91.06 153.06 91.06"/><polygon class="cls-22" points="150.97 88.73 150.63 88.22 151 88.03 151.47 88.73 150.97 88.73"/><rect class="cls-10" x="147.73" y="88.15" width="0.19" height="3.44"/><rect class="cls-11" x="147.55" y="88.15" width="0.19" height="3.44"/><rect class="cls-22" x="147.55" y="90.62" width="0.38" height="0.96"/><rect class="cls-22" x="147.55" y="88.15" width="0.38" height="0.62"/><rect class="cls-10" x="150.47" y="88.15" width="0.19" height="3.44"/><rect class="cls-11" x="150.29" y="88.15" width="0.19" height="3.44"/><rect class="cls-22" x="150.29" y="90.62" width="0.38" height="0.96"/><rect class="cls-22" x="150.29" y="88.15" width="0.38" height="0.62"/><rect class="cls-10" x="128.27" y="91.39" width="24.98" height="0.3"/><rect class="cls-11" x="128.27" y="91.7" width="24.98" height="0.3"/><rect class="cls-10" x="128.27" y="87.69" width="24.98" height="0.3"/><rect class="cls-11" x="128.27" y="87.99" width="24.98" height="0.3"/><polygon class="cls-11" points="128.48 102.33 131.69 99.32 131.93 99.41 128.72 102.41 128.48 102.33"/><polygon class="cls-10" points="128.24 102.25 131.45 99.24 131.69 99.32 128.48 102.33 128.24 102.25"/><polygon class="cls-22" points="128.75 101.78 128.24 102.25 128.72 102.41 129.4 101.78 128.75 101.78"/><polygon class="cls-22" points="131.48 99.83 131.93 99.41 131.45 99.24 130.83 99.83 131.48 99.83"/><polygon class="cls-11" points="132.16 102.33 128.95 99.32 128.72 99.41 131.92 102.41 132.16 102.33"/><polygon class="cls-10" points="132.4 102.25 129.19 99.24 128.95 99.32 132.16 102.33 132.4 102.25"/><polygon class="cls-22" points="131.89 101.78 132.4 102.25 131.92 102.41 131.24 101.78 131.89 101.78"/><polygon class="cls-22" points="129.16 99.83 128.72 99.41 129.19 99.24 129.81 99.83 129.16 99.83"/><polygon class="cls-11" points="132.03 102.33 135.24 99.32 135.47 99.41 132.26 102.41 132.03 102.33"/><polygon class="cls-10" points="131.79 102.25 135 99.24 135.24 99.32 132.03 102.33 131.79 102.25"/><polygon class="cls-22" points="132.3 101.78 131.79 102.25 132.26 102.41 132.95 101.78 132.3 101.78"/><polygon class="cls-22" points="135.03 99.83 135.47 99.41 135 99.24 134.38 99.83 135.03 99.83"/><polygon class="cls-11" points="135.71 102.33 132.5 99.32 132.26 99.41 135.47 102.41 135.71 102.33"/><polygon class="cls-10" points="135.95 102.25 132.74 99.24 132.5 99.32 135.71 102.33 135.95 102.25"/><polygon class="cls-22" points="135.44 101.78 135.95 102.25 135.47 102.41 134.79 101.78 135.44 101.78"/><polygon class="cls-22" points="132.71 99.83 132.26 99.41 132.74 99.24 133.35 99.83 132.71 99.83"/><polygon class="cls-11" points="135.67 102.33 138.88 99.32 139.11 99.41 135.91 102.41 135.67 102.33"/><polygon class="cls-10" points="135.43 102.25 138.64 99.24 138.88 99.32 135.67 102.33 135.43 102.25"/><polygon class="cls-22" points="135.94 101.78 135.43 102.25 135.91 102.41 136.59 101.78 135.94 101.78"/><polygon class="cls-22" points="138.67 99.83 139.11 99.41 138.64 99.24 138.02 99.83 138.67 99.83"/><polygon class="cls-11" points="139.35 102.33 136.14 99.32 135.9 99.41 139.11 102.41 139.35 102.33"/><polygon class="cls-10" points="139.59 102.25 136.38 99.24 136.14 99.32 139.35 102.33 139.59 102.25"/><polygon class="cls-22" points="139.08 101.78 139.59 102.25 139.11 102.41 138.43 101.78 139.08 101.78"/><polygon class="cls-22" points="136.35 99.83 135.9 99.41 136.38 99.24 137 99.83 136.35 99.83"/><rect class="cls-10" x="132.1" y="99.34" width="0.25" height="2.86"/><rect class="cls-11" x="131.85" y="99.34" width="0.25" height="2.86"/><rect class="cls-22" x="131.85" y="101.4" width="0.5" height="0.8"/><rect class="cls-22" x="131.85" y="99.34" width="0.5" height="0.52"/><rect class="cls-10" x="135.69" y="99.34" width="0.25" height="2.86"/><rect class="cls-11" x="135.44" y="99.34" width="0.25" height="2.86"/><rect class="cls-22" x="135.44" y="101.4" width="0.5" height="0.8"/><rect class="cls-22" x="135.44" y="99.34" width="0.5" height="0.52"/><polygon class="cls-11" points="139.26 102.33 142.47 99.32 142.71 99.41 139.5 102.41 139.26 102.33"/><polygon class="cls-10" points="139.03 102.25 142.24 99.24 142.47 99.32 139.26 102.33 139.03 102.25"/><polygon class="cls-22" points="139.53 101.78 139.03 102.25 139.5 102.41 140.19 101.78 139.53 101.78"/><polygon class="cls-22" points="142.27 99.83 142.71 99.41 142.24 99.24 141.62 99.83 142.27 99.83"/><polygon class="cls-11" points="142.95 102.33 139.74 99.32 139.5 99.41 142.71 102.41 142.95 102.33"/><polygon class="cls-10" points="143.19 102.25 139.97 99.24 139.74 99.32 142.95 102.33 143.19 102.25"/><polygon class="cls-22" points="142.68 101.78 143.19 102.25 142.71 102.41 142.03 101.78 142.68 101.78"/><polygon class="cls-22" points="139.94 99.83 139.5 99.41 139.97 99.24 140.59 99.83 139.94 99.83"/><polygon class="cls-11" points="142.9 102.33 146.12 99.32 146.35 99.41 143.14 102.41 142.9 102.33"/><polygon class="cls-10" points="142.67 102.25 145.88 99.24 146.12 99.32 142.9 102.33 142.67 102.25"/><polygon class="cls-22" points="143.17 101.78 142.67 102.25 143.14 102.41 143.82 101.78 143.17 101.78"/><polygon class="cls-22" points="145.91 99.83 146.35 99.41 145.88 99.24 145.26 99.83 145.91 99.83"/><polygon class="cls-11" points="146.59 102.33 143.38 99.32 143.14 99.41 146.35 102.41 146.59 102.33"/><polygon class="cls-10" points="146.82 102.25 143.61 99.24 143.38 99.32 146.59 102.33 146.82 102.25"/><polygon class="cls-22" points="146.32 101.78 146.82 102.25 146.35 102.41 145.67 101.78 146.32 101.78"/><polygon class="cls-22" points="143.59 99.83 143.14 99.41 143.61 99.24 144.23 99.83 143.59 99.83"/><rect class="cls-10" x="139.34" y="99.34" width="0.25" height="2.86"/><rect class="cls-11" x="139.09" y="99.34" width="0.25" height="2.86"/><rect class="cls-22" x="139.09" y="101.4" width="0.5" height="0.8"/><rect class="cls-22" x="139.09" y="99.34" width="0.5" height="0.52"/><rect class="cls-10" x="142.93" y="99.34" width="0.25" height="2.86"/><rect class="cls-11" x="142.68" y="99.34" width="0.25" height="2.86"/><rect class="cls-22" x="142.68" y="101.4" width="0.5" height="0.8"/><rect class="cls-22" x="142.68" y="99.34" width="0.5" height="0.52"/><polygon class="cls-11" points="146.48 102.33 149.69 99.32 149.93 99.41 146.72 102.41 146.48 102.33"/><polygon class="cls-10" points="146.25 102.25 149.46 99.24 149.69 99.32 146.48 102.33 146.25 102.25"/><polygon class="cls-22" points="146.75 101.78 146.25 102.25 146.72 102.41 147.4 101.78 146.75 101.78"/><polygon class="cls-22" points="149.48 99.83 149.93 99.41 149.46 99.24 148.84 99.83 149.48 99.83"/><polygon class="cls-11" points="150.16 102.33 146.95 99.32 146.72 99.41 149.93 102.41 150.16 102.33"/><polygon class="cls-10" points="150.4 102.25 147.19 99.24 146.95 99.32 150.16 102.33 150.4 102.25"/><polygon class="cls-22" points="149.9 101.78 150.4 102.25 149.93 102.41 149.24 101.78 149.9 101.78"/><polygon class="cls-22" points="147.16 99.83 146.72 99.41 147.19 99.24 147.81 99.83 147.16 99.83"/><polygon class="cls-11" points="153.25 99.4 150.12 102.33 150.36 102.41 153.25 99.7 153.25 99.4"/><polygon class="cls-10" points="153.25 99.3 153.09 99.24 149.89 102.25 150.12 102.33 153.25 99.4 153.25 99.3"/><polygon class="cls-22" points="150.39 101.78 149.89 102.25 150.36 102.41 151.04 101.78 150.39 101.78"/><polygon class="cls-22" points="153.25 99.3 153.09 99.24 152.48 99.83 153.13 99.83 153.25 99.71 153.25 99.3"/><polygon class="cls-11" points="153.25 101.81 150.59 99.32 150.35 99.41 153.25 102.11 153.25 101.81"/><polygon class="cls-10" points="153.25 101.5 150.83 99.24 150.59 99.32 153.25 101.81 153.25 101.5"/><polygon class="cls-22" points="153.25 101.78 152.88 101.78 153.25 102.11 153.25 101.78"/><polygon class="cls-22" points="150.8 99.83 150.35 99.41 150.83 99.24 151.45 99.83 150.8 99.83"/><rect class="cls-10" x="146.56" y="99.34" width="0.25" height="2.86"/><rect class="cls-11" x="146.31" y="99.34" width="0.25" height="2.86"/><rect class="cls-22" x="146.31" y="101.4" width="0.49" height="0.8"/><rect class="cls-22" x="146.31" y="99.34" width="0.49" height="0.52"/><rect class="cls-10" x="150.15" y="99.34" width="0.25" height="2.86"/><rect class="cls-11" x="149.9" y="99.34" width="0.25" height="2.86"/><rect class="cls-22" x="149.9" y="101.4" width="0.5" height="0.8"/><rect class="cls-22" x="149.9" y="99.34" width="0.5" height="0.52"/><rect class="cls-10" x="128.28" y="102.05" width="24.97" height="0.25"/><rect class="cls-11" x="128.28" y="102.3" width="24.97" height="0.25"/><rect class="cls-10" x="128.28" y="98.96" width="24.97" height="0.25"/><rect class="cls-11" x="128.28" y="99.22" width="24.97" height="0.25"/><polygon class="cls-11" points="128.48 120.4 131.69 117.39 131.93 117.47 128.72 120.48 128.48 120.4"/><polygon class="cls-10" points="128.24 120.31 131.45 117.31 131.69 117.39 128.48 120.4 128.24 120.31"/><polygon class="cls-22" points="128.75 119.84 128.24 120.31 128.72 120.48 129.4 119.84 128.75 119.84"/><polygon class="cls-22" points="131.48 117.9 131.93 117.47 131.45 117.31 130.83 117.9 131.48 117.9"/><polygon class="cls-11" points="132.16 120.4 128.95 117.39 128.72 117.47 131.92 120.48 132.16 120.4"/><polygon class="cls-10" points="132.4 120.31 129.19 117.31 128.95 117.39 132.16 120.4 132.4 120.31"/><polygon class="cls-22" points="131.89 119.84 132.4 120.31 131.92 120.48 131.24 119.84 131.89 119.84"/><polygon class="cls-22" points="129.16 117.9 128.72 117.47 129.19 117.31 129.81 117.9 129.16 117.9"/><polygon class="cls-11" points="132.03 120.4 135.24 117.39 135.47 117.47 132.26 120.48 132.03 120.4"/><polygon class="cls-10" points="131.79 120.31 135 117.31 135.24 117.39 132.03 120.4 131.79 120.31"/><polygon class="cls-22" points="132.3 119.84 131.79 120.31 132.26 120.48 132.95 119.84 132.3 119.84"/><polygon class="cls-22" points="135.03 117.9 135.47 117.47 135 117.31 134.38 117.9 135.03 117.9"/><polygon class="cls-11" points="135.71 120.4 132.5 117.39 132.26 117.47 135.47 120.48 135.71 120.4"/><polygon class="cls-10" points="135.95 120.31 132.74 117.31 132.5 117.39 135.71 120.4 135.95 120.31"/><polygon class="cls-22" points="135.44 119.84 135.95 120.31 135.47 120.48 134.79 119.84 135.44 119.84"/><polygon class="cls-22" points="132.71 117.9 132.26 117.47 132.74 117.31 133.35 117.9 132.71 117.9"/><polygon class="cls-11" points="135.67 120.4 138.88 117.39 139.11 117.47 135.91 120.48 135.67 120.4"/><polygon class="cls-10" points="135.43 120.31 138.64 117.31 138.88 117.39 135.67 120.4 135.43 120.31"/><polygon class="cls-22" points="135.94 119.84 135.43 120.31 135.91 120.48 136.59 119.84 135.94 119.84"/><polygon class="cls-22" points="138.67 117.9 139.11 117.47 138.64 117.31 138.02 117.9 138.67 117.9"/><polygon class="cls-11" points="139.35 120.4 136.14 117.39 135.9 117.47 139.11 120.48 139.35 120.4"/><polygon class="cls-10" points="139.59 120.31 136.38 117.31 136.14 117.39 139.35 120.4 139.59 120.31"/><polygon class="cls-22" points="139.08 119.84 139.59 120.31 139.11 120.48 138.43 119.84 139.08 119.84"/><polygon class="cls-22" points="136.35 117.9 135.9 117.47 136.38 117.31 137 117.9 136.35 117.9"/><rect class="cls-10" x="132.1" y="117.41" width="0.25" height="2.86"/><rect class="cls-11" x="131.85" y="117.41" width="0.25" height="2.86"/><rect class="cls-22" x="131.85" y="119.47" width="0.5" height="0.8"/><rect class="cls-22" x="131.85" y="117.41" width="0.5" height="0.52"/><rect class="cls-10" x="135.69" y="117.41" width="0.25" height="2.86"/><rect class="cls-11" x="135.44" y="117.41" width="0.25" height="2.86"/><rect class="cls-22" x="135.44" y="119.47" width="0.5" height="0.8"/><rect class="cls-22" x="135.44" y="117.41" width="0.5" height="0.52"/><polygon class="cls-11" points="139.26 120.4 142.47 117.39 142.71 117.47 139.5 120.48 139.26 120.4"/><polygon class="cls-10" points="139.03 120.31 142.24 117.31 142.47 117.39 139.26 120.4 139.03 120.31"/><polygon class="cls-22" points="139.53 119.84 139.03 120.31 139.5 120.48 140.19 119.84 139.53 119.84"/><polygon class="cls-22" points="142.27 117.9 142.71 117.47 142.24 117.31 141.62 117.9 142.27 117.9"/><polygon class="cls-11" points="142.95 120.4 139.74 117.39 139.5 117.47 142.71 120.48 142.95 120.4"/><polygon class="cls-10" points="143.19 120.31 139.97 117.31 139.74 117.39 142.95 120.4 143.19 120.31"/><polygon class="cls-22" points="142.68 119.84 143.19 120.31 142.71 120.48 142.03 119.84 142.68 119.84"/><polygon class="cls-22" points="139.94 117.9 139.5 117.47 139.97 117.31 140.59 117.9 139.94 117.9"/><polygon class="cls-11" points="142.9 120.4 146.12 117.39 146.35 117.47 143.14 120.48 142.9 120.4"/><polygon class="cls-10" points="142.67 120.31 145.88 117.31 146.12 117.39 142.9 120.4 142.67 120.31"/><polygon class="cls-22" points="143.17 119.84 142.67 120.31 143.14 120.48 143.82 119.84 143.17 119.84"/><polygon class="cls-22" points="145.91 117.9 146.35 117.47 145.88 117.31 145.26 117.9 145.91 117.9"/><polygon class="cls-11" points="146.59 120.4 143.38 117.39 143.14 117.47 146.35 120.48 146.59 120.4"/><polygon class="cls-10" points="146.82 120.31 143.61 117.31 143.38 117.39 146.59 120.4 146.82 120.31"/><polygon class="cls-22" points="146.32 119.84 146.82 120.31 146.35 120.48 145.67 119.84 146.32 119.84"/><polygon class="cls-22" points="143.59 117.9 143.14 117.47 143.61 117.31 144.23 117.9 143.59 117.9"/><rect class="cls-10" x="139.34" y="117.41" width="0.25" height="2.86"/><rect class="cls-11" x="139.09" y="117.41" width="0.25" height="2.86"/><rect class="cls-22" x="139.09" y="119.47" width="0.5" height="0.8"/><rect class="cls-22" x="139.09" y="117.41" width="0.5" height="0.52"/><rect class="cls-10" x="142.93" y="117.41" width="0.25" height="2.86"/><rect class="cls-11" x="142.68" y="117.41" width="0.25" height="2.86"/><rect class="cls-22" x="142.68" y="119.47" width="0.5" height="0.8"/><rect class="cls-22" x="142.68" y="117.41" width="0.5" height="0.52"/><polygon class="cls-11" points="146.48 120.4 149.69 117.39 149.93 117.47 146.72 120.48 146.48 120.4"/><polygon class="cls-10" points="146.25 120.31 149.46 117.31 149.69 117.39 146.48 120.4 146.25 120.31"/><polygon class="cls-22" points="146.75 119.84 146.25 120.31 146.72 120.48 147.4 119.84 146.75 119.84"/><polygon class="cls-22" points="149.48 117.9 149.93 117.47 149.46 117.31 148.84 117.9 149.48 117.9"/><polygon class="cls-11" points="150.16 120.4 146.95 117.39 146.72 117.47 149.93 120.48 150.16 120.4"/><polygon class="cls-10" points="150.4 120.31 147.19 117.31 146.95 117.39 150.16 120.4 150.4 120.31"/><polygon class="cls-22" points="149.9 119.84 150.4 120.31 149.93 120.48 149.24 119.84 149.9 119.84"/><polygon class="cls-22" points="147.16 117.9 146.72 117.47 147.19 117.31 147.81 117.9 147.16 117.9"/><polygon class="cls-11" points="153.25 117.47 150.12 120.4 150.36 120.48 153.25 117.77 153.25 117.47"/><polygon class="cls-10" points="153.25 117.36 153.09 117.31 149.89 120.31 150.12 120.4 153.25 117.47 153.25 117.36"/><polygon class="cls-22" points="150.39 119.84 149.89 120.31 150.36 120.48 151.04 119.84 150.39 119.84"/><polygon class="cls-22" points="153.25 117.36 153.09 117.31 152.48 117.9 153.13 117.9 153.25 117.78 153.25 117.36"/><polygon class="cls-11" points="153.25 119.88 150.59 117.39 150.35 117.47 153.25 120.18 153.25 119.88"/><polygon class="cls-10" points="153.25 119.58 150.83 117.31 150.59 117.39 153.25 119.88 153.25 119.58"/><polygon class="cls-22" points="153.25 119.84 152.88 119.84 153.25 120.19 153.25 119.84"/><polygon class="cls-22" points="150.8 117.9 150.35 117.47 150.83 117.31 151.45 117.9 150.8 117.9"/><rect class="cls-10" x="146.56" y="117.41" width="0.25" height="2.86"/><rect class="cls-11" x="146.31" y="117.41" width="0.25" height="2.86"/><rect class="cls-22" x="146.31" y="119.47" width="0.49" height="0.8"/><rect class="cls-22" x="146.31" y="117.41" width="0.49" height="0.52"/><rect class="cls-10" x="150.15" y="117.41" width="0.25" height="2.86"/><rect class="cls-11" x="149.9" y="117.41" width="0.25" height="2.86"/><rect class="cls-22" x="149.9" y="119.47" width="0.5" height="0.8"/><rect class="cls-22" x="149.9" y="117.41" width="0.5" height="0.52"/><rect class="cls-10" x="128.28" y="120.12" width="24.97" height="0.25"/><rect class="cls-11" x="128.28" y="120.37" width="24.97" height="0.25"/><rect class="cls-10" x="128.28" y="117.03" width="24.97" height="0.25"/><rect class="cls-11" x="128.28" y="117.28" width="24.97" height="0.25"/><rect class="cls-10" x="153.09" y="75.78" width="0.33" height="55.45"/><rect class="cls-11" x="152.76" y="75.78" width="0.33" height="55.45"/><polygon class="cls-23" points="127.14 76.4 154.5 76.4 153.2 70.85 128.9 70.85 127.14 76.4"/><polygon class="cls-16" points="153.3 71.29 153.2 70.85 128.9 70.85 128.76 71.29 153.3 71.29"/><path class="cls-24" d="M141.19,75.77A22.87,22.87,0,0,1,133,74.51a11.49,11.49,0,0,1-4.37-2.88l-1.51,4.77H154.5l-.95-4C150.14,75.11,145.53,75.84,141.19,75.77Z"/><rect class="cls-25" x="128.17" y="81.81" width="7.83" height="5.97"/><rect class="cls-26" x="128.17" y="81.81" width="0.81" height="5.97"/><rect class="cls-26" x="129.91" y="81.81" width="0.9" height="5.97"/><rect class="cls-26" x="131.74" y="81.81" width="0.9" height="5.97"/><rect class="cls-26" x="133.57" y="81.81" width="0.9" height="5.97"/><rect class="cls-26" x="135.4" y="81.81" width="0.6" height="5.97"/><rect class="cls-27" x="128.17" y="81.81" width="7.83" height="5.97"/><rect class="cls-25" x="135.12" y="81.81" width="7.83" height="5.97"/><rect class="cls-26" x="135.12" y="81.81" width="0.81" height="5.97"/><rect class="cls-26" x="136.85" y="81.81" width="0.9" height="5.97"/><rect class="cls-26" x="138.69" y="81.81" width="0.9" height="5.97"/><rect class="cls-26" x="140.52" y="81.81" width="0.9" height="5.97"/><rect class="cls-26" x="142.35" y="81.81" width="0.6" height="5.97"/><g class="cls-28"><rect class="cls-29" x="135.12" y="81.81" width="7.83" height="0.47"/></g><path class="cls-30" d="M142.79,84a9.86,9.86,0,0,1-.38,1.28,2.69,2.69,0,0,1-.64,1.09,3.1,3.1,0,0,1-1.07.66,4.7,4.7,0,0,1-2.49.32,3.61,3.61,0,0,1-1.13-.39,3.38,3.38,0,0,1-1-.84,4.82,4.82,0,0,1-1-2.18v3.8H143V83.14C142.91,83.44,142.86,83.74,142.79,84Z"/><rect class="cls-15" x="142.78" y="81.24" width="0.48" height="6.77"/><rect class="cls-15" x="135" y="81.24" width="0.48" height="6.77"/><path class="cls-31" d="M134.54,78.43A5.59,5.59,0,0,0,132,77.8l-1,0a4.48,4.48,0,0,0-2.19,1.42,5.08,5.08,0,0,0-.88,2.65h7.53a7.53,7.53,0,0,1,.33-2A2.86,2.86,0,0,0,134.54,78.43Z"/><path class="cls-31" d="M134.54,78.43l-.1-.05a4.29,4.29,0,0,0-1.31,3.52h2.34a7.53,7.53,0,0,1,.33-2A2.86,2.86,0,0,0,134.54,78.43Z"/><path class="cls-32" d="M134.44,78.38a5.21,5.21,0,0,0-1.67-.51c-2.33.84-2.27,3.49-2.24,4h2.6A4.29,4.29,0,0,1,134.44,78.38Z"/><path class="cls-31" d="M132.77,77.87a6.46,6.46,0,0,0-.78-.07l-1.13,0h-.35c-2.4.82-2.34,3.51-2.3,4.05h2.32C130.5,81.36,130.44,78.71,132.77,77.87Z"/><path class="cls-33" d="M134.54,78.43l-.1-.05-.09,0-.23-.11-.12,0-.14-.05-.13,0L133.5,78l-.13,0-.14,0-.17,0-.19,0h-.13l-.31,0h-.06l-.38,0h0l-1,0h-.5a3.17,3.17,0,0,0-1.95,1.81,5.29,5.29,0,0,0-.62,2.24h7.53a7.53,7.53,0,0,1,.33-2A2.86,2.86,0,0,0,134.54,78.43Z"/><path class="cls-34" d="M129.79,80.27A3.39,3.39,0,0,1,133.2,79a3.54,3.54,0,0,1,2.39,1.77,7.07,7.07,0,0,1,.21-.82,2.86,2.86,0,0,0-1.26-1.52l-.1-.05-.09,0-.23-.11-.12,0-.14-.05-.13,0L133.5,78l-.13,0-.14,0-.17,0-.19,0h-.13l-.31,0h-.06l-.38,0h0l-1,0h-.5a3.17,3.17,0,0,0-1.95,1.81,5.29,5.29,0,0,0-.62,2.24h1.27A3.09,3.09,0,0,1,129.79,80.27Z"/><path class="cls-16" d="M131.92,77.61l9.5.27a2.7,2.7,0,0,1,2.28,2.52,11.77,11.77,0,0,1,0,1.5h-8.28s0-2.18-1-3.08A5.94,5.94,0,0,0,131.92,77.61Z"/><path class="cls-23" d="M137.86,77.78l-3-.09c3,.55,2.94,3.63,2.9,4.21h2.59C140.43,81.34,140.49,78.5,137.86,77.78Z"/><path class="cls-16" d="M140.42,77.85l-2.56-.07c2.63.72,2.57,3.56,2.53,4.12h2.33C142.75,81.36,142.81,78.67,140.42,77.85Z"/><path class="cls-23" d="M143.7,80.4a2.7,2.7,0,0,0-2.28-2.52l-1,0c2.39.82,2.33,3.51,2.3,4.05h1A11.77,11.77,0,0,0,143.7,80.4Z"/><path class="cls-35" d="M133.62,78.14c.42.18.7.55,1.1.76a7.09,7.09,0,0,0,1.46.59,8.89,8.89,0,0,0,2.86.32,11.35,11.35,0,0,0,4.07-.93,2.6,2.6,0,0,0-1.69-1l-9.5-.27a7,7,0,0,1,1.49.5A.41.41,0,0,1,133.62,78.14Z"/><path class="cls-10" d="M135,82h.7s.49-4.28-3.73-4.38-4.14,3.57-4.2,4.32h.68s-.2-4,3.54-3.81C135.31,78.25,135,82,135,82Z"/><path class="cls-36" d="M148.89,78.51a3.5,3.5,0,0,0,.88.95c0-.29,0-.6,0-.9,0-.11,0-.22.06-.33a.36.36,0,0,0,0-.1c-.33.11-.68.21-1,.29A.36.36,0,0,0,148.89,78.51Z"/><path class="cls-37" d="M150.39,78.05c.16.16.33.33.48.51a1.68,1.68,0,0,0,.35.4,6.28,6.28,0,0,1,.18-1c0-.08,0-.21.07-.34s0-.08,0-.12c-.39.16-.78.31-1.18.45Z"/><path class="cls-36" d="M151.71,77.42a.41.41,0,0,0,0,.09,2.55,2.55,0,0,0,.71.78c0-.43.14-.83.18-1.26,0,0,0-.08,0-.12A7.85,7.85,0,0,1,151.71,77.42Z"/><path class="cls-38" d="M143.74,78.54l0,.09a9.42,9.42,0,0,0,.64,1.27,4.15,4.15,0,0,0,.32-1.15s0,0,0-.07c-.3,0-.61-.07-.9-.12Z"/><path class="cls-37" d="M146.93,78.7a.41.41,0,0,1,0,.09c.22.39.53.76.78,1.12a6,6,0,0,1,.32-1.23s0-.07,0-.1c-.35,0-.69.1-1,.12Z"/><path class="cls-16" d="M145.35,78.72a.25.25,0,0,0,0,.07c.15.42.48.76.66,1.17a5.71,5.71,0,0,1,.25-1.16l0-.07Z"/><path class="cls-23" d="M135,82a3.26,3.26,0,0,0,0-.45c-3.76.17-10.5.9-15.47,3.74-7.26,4.15-10.74,9.74-5.3,18.5.48.77.94,1.51,1.38,2.24-.38-.81-.75-1.55-1.07-2.17-1.75-3.24-1.67-10,3.7-13.36,4.72-2.92,9-5,16.8-5.39V82Z"/><path class="cls-23" d="M96.56,95.32c-.91,7.55,5.45,9.59,5.14,20.84-.15,5.87-1.91,8.78-5,10.28l0,0c-.45.38-.87,1,.49,3a11,11,0,0,0,7.87,4.41c3.6.34,6.56-.38,10-3.36.53-.45,1.48-1,1.86-1.35.13-.23.26-.45.38-.68,4.83-9.1,2.8-14.86-1.73-22.46-.44-.73-.9-1.47-1.38-2.24-5.44-8.76-2-14.35,5.3-18.5,5-2.84,11.71-3.57,15.47-3.74v-.12C107,80.92,97.44,88,96.56,95.32Z"/><path class="cls-1" d="M117.17,128.71l-.25.45A1.66,1.66,0,0,0,117.17,128.71Z"/><path class="cls-39" d="M118.34,82.43c4-.58,7.78-.85,10.42-1l.91,0a102.38,102.38,0,0,0-11.59.82.72.72,0,0,1,.21.12Z"/><path class="cls-40" d="M106.77,85.31a49.34,49.34,0,0,1,11.42-2.85.64.64,0,0,0-.29-.19,48.9,48.9,0,0,0-11.5,2.84.92.92,0,0,1,.23.09Z"/><path class="cls-40" d="M115.72,107.52a.82.82,0,0,0-.3.41,17.2,17.2,0,0,1,3.15,9.71c0,.39,0,.76,0,1.12a1.25,1.25,0,0,1,.67-.58,1.16,1.16,0,0,1,.86.19c-.09-3.62-1.45-6.94-3.52-10.63C116.35,107.47,116.06,107.27,115.72,107.52Z"/><path class="cls-41" d="M118.84,118.58a3.91,3.91,0,0,0-.3.41c-.27,6.94-2.59,8.9-2.59,8.9-1.44.82-3.06,4.79-9.22,5s-8.12-4-8.52-5.06a1.51,1.51,0,0,0-.18-.36,11.91,11.91,0,0,0,4-6.22s0,0,0,0c-.29-.37-.69-.26-1.07,0a8,8,0,0,1-4.24,5.2l0,0c-.45.38-.87,1,.49,3a11,11,0,0,0,7.87,4.41c3.6.34,6.56-.38,10-3.36.53-.45,1.48-1,1.86-1.35.13-.23.26-.45.38-.68a20.42,20.42,0,0,0,2.78-9.94,1.25,1.25,0,0,0-.6-.18A.68.68,0,0,0,118.84,118.58Z"/><path class="cls-39" d="M101.25,109.31a.77.77,0,0,1,.54-.1,34.17,34.17,0,0,0-2.28-5.71,17.12,17.12,0,0,1-2-6.73c-.1-.28-.23-.64-.53-.67a.63.63,0,0,0-.52.21c-.2,5.09,3,7.68,4.5,13.22A1.74,1.74,0,0,1,101.25,109.31Z"/><path class="cls-39" d="M110.77,99.11c.06.2.12.42.19.63,1,3.14,2.79,5.53,4.37,8.05a.85.85,0,0,1,.51-.49.63.63,0,0,1,.49,0l-.76-1.31c-.44-.73-.9-1.47-1.38-2.24a19.23,19.23,0,0,1-2.26-5C111.63,98.68,111.19,98.86,110.77,99.11Z"/><path class="cls-40" d="M102.12,121.1a12.63,12.63,0,0,0,.27-1.31,23.5,23.5,0,0,0-.56-10.45.59.59,0,0,0-.47,0,1.31,1.31,0,0,0-.35.27,22.69,22.69,0,0,1,.69,6.53,19.77,19.77,0,0,1-.67,4.93,1.18,1.18,0,0,1,.63-.2A.57.57,0,0,1,102.12,121.1Z"/><path class="cls-41" d="M97.51,96.37c0-4.11,2.28-7.78,8.28-10.62.28-.14.57-.26.86-.39a.8.8,0,0,0-.41-.18C99.8,87.82,97,91.54,96.56,95.32c0,.29-.06.56-.08.84a.73.73,0,0,1,.3-.16A.63.63,0,0,1,97.51,96.37Z"/><path class="cls-23" d="M108.18,92.22a5.25,5.25,0,0,1-1-2.84,13.14,13.14,0,0,1-.12-1.53c0-.42,0-.84,0-1.26a2,2,0,0,0-.32-1.13l-.09-.1c-.29.13-.58.25-.86.39-6,2.84-8.32,6.51-8.28,10.62a.76.76,0,0,1,.09.18,9.3,9.3,0,0,0,.8,1.72,5.89,5.89,0,0,0,1.27,1.41c2.56,2,6.25,1.83,9.08.56a21.48,21.48,0,0,0,2-1.27,10.5,10.5,0,0,1-.06-5.64A3,3,0,0,1,108.18,92.22Z"/><path class="cls-42" d="M106.6,101.11a9.14,9.14,0,0,1-4.41-.08,6.75,6.75,0,0,1-3.57-2.28,7.8,7.8,0,0,1-1-1.82,1.42,1.42,0,0,0,0-.16,17.12,17.12,0,0,0,2,6.73,34.17,34.17,0,0,1,2.28,5.71,1.24,1.24,0,0,1,.52.22c.47.31.89.69,1.37,1a10.77,10.77,0,0,0,1.86.93c2.36.93,5.25,1.29,7.53-.08a5,5,0,0,0,1.34-1.17,4.3,4.3,0,0,0,.52-.85,2.9,2.9,0,0,0,.21-.78,3,3,0,0,1,.19-.68c-1.58-2.52-3.37-4.91-4.37-8.05-.07-.21-.13-.43-.19-.63-.39.23-.76.52-1,.67A8.22,8.22,0,0,1,106.6,101.11Z"/><path class="cls-43" d="M115,109.38a4.13,4.13,0,0,1-.55.87c-1.48,1.82-4.08,2.26-6.29,1.94a12.43,12.43,0,0,1-4.14-1.43,10.81,10.81,0,0,1-1-.62c-.23-.17-.43-.35-.67-.51a1.88,1.88,0,0,0-.52-.29,23.5,23.5,0,0,1,.56,10.45,12.63,12.63,0,0,1-.27,1.31.67.67,0,0,1,.14.19,8.38,8.38,0,0,0,.57.89,6.07,6.07,0,0,0,4.34,1.92,21.33,21.33,0,0,0,2.26.07,18.38,18.38,0,0,0,2.46-.18,9,9,0,0,0,4.16-1.84,6.7,6.7,0,0,0,1.44-1.52c.34-.49.56-1,.86-1.55l.2-.32c0-.36,0-.73,0-1.12a17.2,17.2,0,0,0-3.15-9.71,3.87,3.87,0,0,0-.15.56A3.77,3.77,0,0,1,115,109.38Z"/><path class="cls-42" d="M134.55,81.42h-3l-1.83,0h0l-.91,0c-2.64.14-6.45.41-10.42,1a.9.9,0,0,1,.1.52c0,.68-.23,1.63.27,2.19l.93-.47A32.35,32.35,0,0,1,132,81.76c1.08-.11,2.06-.18,2.9-.22h0v-.11Z"/><path class="cls-43" d="M118.27,83.79a9.21,9.21,0,0,0,0-1.05.38.38,0,0,0-.12-.28,49.34,49.34,0,0,0-11.42,2.85,1.23,1.23,0,0,1,.34.67,17.76,17.76,0,0,1,.13,2.42,8,8,0,0,0,.68,3.2,3.15,3.15,0,0,0,2.78,1.61c1-3.14,3.62-5.76,7.91-8A2,2,0,0,1,118.27,83.79Z"/><path class="cls-23" d="M115.82,122.53a9.37,9.37,0,0,1-4,1.62,19.41,19.41,0,0,1-4.57.11,6.86,6.86,0,0,1-3.92-1.32,4.86,4.86,0,0,1-.79-.9c-.16-.24-.27-.52-.45-.75a11.91,11.91,0,0,1-4,6.22,1.51,1.51,0,0,1,.18.36c.4,1.07,2.36,5.31,8.52,5.06s7.78-4.22,9.22-5c0,0,2.32-2,2.59-8.9a6.77,6.77,0,0,0-.43.85A6.49,6.49,0,0,1,115.82,122.53Z"/><path class="cls-19" d="M119.22,118.18a1.25,1.25,0,0,0-.67.58,1.85,1.85,0,0,0,0,.23,3.91,3.91,0,0,1,.3-.41.68.68,0,0,1,.64-.22,1.25,1.25,0,0,1,.6.18v-.17A1.16,1.16,0,0,0,119.22,118.18Z"/><path class="cls-44" d="M119.22,118.18a1.25,1.25,0,0,0-.67.58,1.85,1.85,0,0,0,0,.23,3.91,3.91,0,0,1,.3-.41.68.68,0,0,1,.64-.22,1.25,1.25,0,0,1,.6.18v-.17A1.16,1.16,0,0,0,119.22,118.18Z"/><path class="cls-19" d="M102.05,121.26s0,0,0,0a1.33,1.33,0,0,0,.05-.19.57.57,0,0,0-.46-.21,1.18,1.18,0,0,0-.63.2l0,.15C101.36,121,101.76,120.89,102.05,121.26Z"/><path class="cls-44" d="M102.05,121.26s0,0,0,0a1.33,1.33,0,0,0,.05-.19.57.57,0,0,0-.46-.21,1.18,1.18,0,0,0-.63.2l0,.15C101.36,121,101.76,120.89,102.05,121.26Z"/><path class="cls-19" d="M117.49,120.63a6.7,6.7,0,0,1-1.44,1.52,9,9,0,0,1-4.16,1.84,18.38,18.38,0,0,1-2.46.18,21.33,21.33,0,0,1-2.26-.07,6.07,6.07,0,0,1-4.34-1.92,8.38,8.38,0,0,1-.57-.89.67.67,0,0,0-.14-.19,1.33,1.33,0,0,1-.05.19c.18.23.29.51.45.75a4.86,4.86,0,0,0,.79.9,6.86,6.86,0,0,0,3.92,1.32,19.41,19.41,0,0,0,4.57-.11,9.37,9.37,0,0,0,4-1.62,6.49,6.49,0,0,0,2.29-2.69,6.77,6.77,0,0,1,.43-.85,1.85,1.85,0,0,1,0-.23l-.2.32C118.05,119.59,117.83,120.14,117.49,120.63Z"/><path class="cls-44" d="M117.49,120.63a6.7,6.7,0,0,1-1.44,1.52,9,9,0,0,1-4.16,1.84,18.38,18.38,0,0,1-2.46.18,21.33,21.33,0,0,1-2.26-.07,6.07,6.07,0,0,1-4.34-1.92,8.38,8.38,0,0,1-.57-.89.67.67,0,0,0-.14-.19,1.33,1.33,0,0,1-.05.19c.18.23.29.51.45.75a4.86,4.86,0,0,0,.79.9,6.86,6.86,0,0,0,3.92,1.32,19.41,19.41,0,0,0,4.57-.11,9.37,9.37,0,0,0,4-1.62,6.49,6.49,0,0,0,2.29-2.69,6.77,6.77,0,0,1,.43-.85,1.85,1.85,0,0,1,0-.23l-.2.32C118.05,119.59,117.83,120.14,117.49,120.63Z"/><path class="cls-44" d="M101.36,109.36a.59.59,0,0,1,.47,0,.65.65,0,0,0,0-.13.77.77,0,0,0-.54.1,1.74,1.74,0,0,0-.27.22l0,.1A1.31,1.31,0,0,1,101.36,109.36Z"/><path class="cls-44" d="M115.84,107.3a.85.85,0,0,0-.51.49l.09.14a.82.82,0,0,1,.3-.41c.34-.25.63,0,.84.22-.07-.14-.15-.27-.23-.41A.63.63,0,0,0,115.84,107.3Z"/><path class="cls-44" d="M114.93,109.25a4.3,4.3,0,0,1-.52.85,5,5,0,0,1-1.34,1.17c-2.28,1.37-5.17,1-7.53.08a10.77,10.77,0,0,1-1.86-.93c-.48-.3-.9-.68-1.37-1a1.24,1.24,0,0,0-.52-.22.65.65,0,0,1,0,.13,1.88,1.88,0,0,1,.52.29c.24.16.44.34.67.51a10.81,10.81,0,0,0,1,.62,12.43,12.43,0,0,0,4.14,1.43c2.21.32,4.81-.12,6.29-1.94a4.13,4.13,0,0,0,.55-.87,3.77,3.77,0,0,0,.24-.89,3.87,3.87,0,0,1,.15-.56l-.09-.14a3,3,0,0,0-.19.68A2.9,2.9,0,0,1,114.93,109.25Z"/><path class="cls-44" d="M97,96.1c.3,0,.43.39.53.67,0-.13,0-.26,0-.4a.63.63,0,0,0-.73-.37.73.73,0,0,0-.3.16v.15A.63.63,0,0,1,97,96.1Z"/><path class="cls-44" d="M110.9,98.87l-.17.1a.74.74,0,0,1,0,.14c.42-.25.86-.43,1.16-.29,0-.06,0-.12,0-.18A1.52,1.52,0,0,0,110.9,98.87Z"/><path class="cls-44" d="M99.67,99.68a5.89,5.89,0,0,1-1.27-1.41,9.3,9.3,0,0,1-.8-1.72.76.76,0,0,0-.09-.18c0,.14,0,.27,0,.4a1.42,1.42,0,0,1,0,.16,7.8,7.8,0,0,0,1,1.82,6.75,6.75,0,0,0,3.57,2.28,9.14,9.14,0,0,0,4.41.08,8.22,8.22,0,0,0,3.2-1.33c.21-.15.58-.44,1-.67a.74.74,0,0,0,0-.14,21.48,21.48,0,0,1-2,1.27C105.92,101.51,102.23,101.66,99.67,99.68Z"/><path class="cls-44" d="M106.77,85.31l-.14-.11a.92.92,0,0,0-.23-.09l-.16.07a.8.8,0,0,1,.41.18Z"/><path class="cls-39" d="M127.3,82.49a46.66,46.66,0,0,1,4.74-.73,36.86,36.86,0,0,0-4.93.55h0A.52.52,0,0,1,127.3,82.49Z"/><path class="cls-44" d="M127.12,82.31h0l-.24,0a.43.43,0,0,1,.32.16l.11,0A.52.52,0,0,0,127.12,82.31Z"/><path class="cls-44" d="M109.08,92.78a2.93,2.93,0,0,1-1.16-1.18,8,8,0,0,1-.68-3.2,17.76,17.76,0,0,0-.13-2.42,1.23,1.23,0,0,0-.34-.67l-.12,0,.09.1a2,2,0,0,1,.32,1.13c0,.42,0,.84,0,1.26a13.14,13.14,0,0,0,.12,1.53,5.25,5.25,0,0,0,1,2.84,3,3,0,0,0,2.49,1.11l0-.12A2.94,2.94,0,0,1,109.08,92.78Z"/><path class="cls-44" d="M118.19,82.46l.15,0,0-.07a.72.72,0,0,0-.21-.12l-.18,0A.64.64,0,0,1,118.19,82.46Z"/><path class="cls-44" d="M115.9,86.82l-.14.1a4,4,0,0,1,.72.34l.09-.07A2,2,0,0,0,115.9,86.82Z"/><path class="cls-41" d="M110.7,93.21l0,.12a10.5,10.5,0,0,0,.06,5.64l.17-.1a1.52,1.52,0,0,1,1-.23c-1.22-4.78.76-8.43,4.59-11.38a4,4,0,0,0-.72-.34A12.16,12.16,0,0,0,110.7,93.21Z"/><path class="cls-40" d="M126.87,82.35a28.74,28.74,0,0,0-7.23,2.32l-.93.47-.1,0a26.24,26.24,0,0,0-2.71,1.63,2,2,0,0,1,.67.37,26.78,26.78,0,0,1,2.92-1.91,27.09,27.09,0,0,1,7.7-2.77A.43.43,0,0,0,126.87,82.35Z"/><path class="cls-44" d="M118.44,83a.9.9,0,0,0-.1-.52l-.15,0a.38.38,0,0,1,.12.28,9.21,9.21,0,0,1,0,1.05,2,2,0,0,0,.34,1.4l.1,0C118.21,84.58,118.44,83.63,118.44,83Z"/><path class="cls-45" d="M116,127.89c-1.44.82-3.06,4.79-9.22,5s-8.12-4-8.52-5.06a1.51,1.51,0,0,0-.18-.36c-.49-.78-1.45-1.14-1.72-.46-.12.44,0,1.15.89,2.41a11,11,0,0,0,7.87,4.41c3.6.34,6.56-.38,10-3.36.53-.45,1.48-1,1.86-1.35l.25-.45C117.42,128,117.13,127.22,116,127.89Z"/><path class="cls-46" d="M113.74,83c-11.88,2.43-16.58,7.34-17.18,12.35-.91,7.55,5.45,9.59,5.14,20.84-.15,5.87-1.91,8.78-5,10.28l0,0a1.5,1.5,0,0,0-.31.35h0c.34-.32,1-.07,1.42.46a12.15,12.15,0,0,0,3.95-7.39c.68-4.68.6-9.31-2.88-16.28s-3-13.35,6.28-17.76a38.94,38.94,0,0,1,8.94-2.7,94.78,94.78,0,0,1,11.39-1.51A82.51,82.51,0,0,0,113.74,83Z"/><path class="cls-46" d="M111.47,99.74c-2.1-6.57,1-11.33,8.68-15.07a31.5,31.5,0,0,1,11.27-2.84l.62-.07a32.35,32.35,0,0,0-12.4,2.91c-7.72,3.74-10.78,8.5-8.68,15.07s7.61,9.85,7.61,17.9S116,127.89,116,127.89a1.55,1.55,0,0,1,.75-.25c.64-.77,2.38-3.46,2.38-10C119.08,109.59,113.57,106.31,111.47,99.74Z"/><path class="cls-43" d="M127.32,83.3a1.27,1.27,0,0,0-.11-.77s0,0,0,0a27.09,27.09,0,0,0-7.7,2.77,26.22,26.22,0,0,0-2.94,1.93,3.46,3.46,0,0,1,.23,1.86,15,15,0,0,1-.35,2.39c-.05.2-.11.4-.17.6a9.79,9.79,0,0,1,1.94-1.57,35,35,0,0,1,8.35-4,3.53,3.53,0,0,0,.58-1.38A8.92,8.92,0,0,0,127.32,83.3Z"/><path class="cls-23" d="M116.61,89.4a4.41,4.41,0,0,0-.12-2l-.06-.12c-3.81,3-5.76,6.59-4.53,11.38l.12,0a1.44,1.44,0,0,1,.46.49c.18.26.36.53.52.79s.41.69.61,1A10.84,10.84,0,0,1,116,92.32a7.49,7.49,0,0,0,.23-.81A15,15,0,0,0,116.61,89.4Z"/><path class="cls-42" d="M112.28,99.13a1.57,1.57,0,0,0-.35-.33,18.67,18.67,0,0,0,2.26,5c.48.77.94,1.51,1.38,2.24-.38-.81-.75-1.55-1.07-2.17a8.32,8.32,0,0,1-.84-2.51c-.15-.24-.29-.48-.43-.72A14.45,14.45,0,0,0,112.28,99.13Z"/><path class="cls-42" d="M135,82a3.26,3.26,0,0,0,0-.45,48.16,48.16,0,0,0-7.66.95.81.81,0,0,1,.11.27,6.08,6.08,0,0,1-.06,1.95,4.36,4.36,0,0,1-.54,1.68A33.64,33.64,0,0,1,135,85.1V82Z"/><path class="cls-44" d="M116.78,89.07a3.46,3.46,0,0,0-.23-1.86l-.12.09.06.12a4.41,4.41,0,0,1,.12,2,15,15,0,0,1-.36,2.11,7.49,7.49,0,0,1-.23.81l.24-.26c.06-.2.12-.4.17-.6A15,15,0,0,0,116.78,89.07Z"/><path class="cls-44" d="M127.41,82.76a.81.81,0,0,0-.11-.27l-.11,0s0,0,0,0a1.27,1.27,0,0,1,.11.77,8.92,8.92,0,0,1-.19,1.79,3.53,3.53,0,0,1-.58,1.38l.26-.08a4.36,4.36,0,0,0,.54-1.68A6.08,6.08,0,0,0,127.41,82.76Z"/><path class="cls-44" d="M112.48,99.22a1.44,1.44,0,0,0-.46-.49l-.12,0,0,.12a1.57,1.57,0,0,1,.35.33,14.45,14.45,0,0,1,1,1.49c.14.24.28.48.43.72,0-.1,0-.2,0-.3-.2-.34-.4-.69-.61-1S112.66,99.48,112.48,99.22Z"/><g class="cls-47"><path class="cls-48" d="M127.32,83.3a1.27,1.27,0,0,0-.11-.77s0,0,0,0a27.09,27.09,0,0,0-7.7,2.77,26.22,26.22,0,0,0-2.94,1.93,3.46,3.46,0,0,1,.23,1.86,15,15,0,0,1-.35,2.39c-.05.2-.11.4-.17.6a9.79,9.79,0,0,1,1.94-1.57,35,35,0,0,1,8.35-4,3.53,3.53,0,0,0,.58-1.38A8.92,8.92,0,0,0,127.32,83.3Z"/><path class="cls-49" d="M116.61,89.4a4.41,4.41,0,0,0-.12-2l-.06-.12c-3.81,3-5.76,6.59-4.53,11.38l.12,0a1.44,1.44,0,0,1,.46.49c.18.26.36.53.52.79s.41.69.61,1A10.84,10.84,0,0,1,116,92.32a7.49,7.49,0,0,0,.23-.81A15,15,0,0,0,116.61,89.4Z"/><path class="cls-50" d="M112.28,99.13a1.57,1.57,0,0,0-.35-.33,18.67,18.67,0,0,0,2.26,5c.48.77.94,1.51,1.38,2.24-.38-.81-.75-1.55-1.07-2.17a8.32,8.32,0,0,1-.84-2.51c-.15-.24-.29-.48-.43-.72A14.45,14.45,0,0,0,112.28,99.13Z"/><path class="cls-50" d="M135,82a3.26,3.26,0,0,0,0-.45,48.16,48.16,0,0,0-7.66.95.81.81,0,0,1,.11.27,6.08,6.08,0,0,1-.06,1.95,4.36,4.36,0,0,1-.54,1.68A33.64,33.64,0,0,1,135,85.1V82Z"/><path class="cls-51" d="M116.78,89.07a3.46,3.46,0,0,0-.23-1.86l-.12.09.06.12a4.41,4.41,0,0,1,.12,2,15,15,0,0,1-.36,2.11,7.49,7.49,0,0,1-.23.81l.24-.26c.06-.2.12-.4.17-.6A15,15,0,0,0,116.78,89.07Z"/><path class="cls-51" d="M127.41,82.76a.81.81,0,0,0-.11-.27l-.11,0s0,0,0,0a1.27,1.27,0,0,1,.11.77,8.92,8.92,0,0,1-.19,1.79,3.53,3.53,0,0,1-.58,1.38l.26-.08a4.36,4.36,0,0,0,.54-1.68A6.08,6.08,0,0,0,127.41,82.76Z"/><path class="cls-51" d="M112.48,99.22a1.44,1.44,0,0,0-.46-.49l-.12,0,0,.12a1.57,1.57,0,0,1,.35.33,14.45,14.45,0,0,1,1,1.49c.14.24.28.48.43.72,0-.1,0-.2,0-.3-.2-.34-.4-.69-.61-1S112.66,99.48,112.48,99.22Z"/></g><g class="cls-47"><path class="cls-48" d="M126,86a27,27,0,0,0-5.4,3c-.31.22-.63.45-.93.69a31.85,31.85,0,0,1,6.92-3.16,3.16,3.16,0,0,0,.45-.9Z"/><path class="cls-50" d="M135,82a3.26,3.26,0,0,0,0-.45l-.56,0a2.5,2.5,0,0,1-2.14,2.51c-1.7.42-3.42.84-5.07,1.42a3.37,3.37,0,0,1-.38.89A33.64,33.64,0,0,1,135,85.1V82Z"/><path class="cls-51" d="M127,85.57a3.16,3.16,0,0,1-.45.9l.26-.08a3.37,3.37,0,0,0,.38-.89Z"/></g><path class="cls-52" d="M116,127.89l0,0-.14.11a6.27,6.27,0,0,0-.49.47l-.7.8c-.27.3-.58.65-.95,1a9.7,9.7,0,0,1-1.26,1,10.33,10.33,0,0,1-1.61.9,9.58,9.58,0,0,1-1.88.59,11.17,11.17,0,0,1-2,.26,11.46,11.46,0,0,1-2-.07,9.27,9.27,0,0,1-1.92-.45,4,4,0,0,1-.44-.17l-.43-.19a8.37,8.37,0,0,1-.78-.45,7.61,7.61,0,0,1-1.28-1,7.72,7.72,0,0,1-1.41-2,5.08,5.08,0,0,1-.27-.63l-.09-.23s0,.08.1.23.17.34.31.6a8.42,8.42,0,0,0,.59.87,6.85,6.85,0,0,0,.91,1,8.15,8.15,0,0,0,1.27,1,8,8,0,0,0,1.62.74,9.17,9.17,0,0,0,1.86.41,13.5,13.5,0,0,0,3.94-.19,9.85,9.85,0,0,0,1.82-.55,10.36,10.36,0,0,0,1.59-.83,11.12,11.12,0,0,0,1.27-1c.37-.34.7-.66,1-.95l.74-.76a3.55,3.55,0,0,1,.53-.43,1.26,1.26,0,0,1,.15-.1Z"/><g class="cls-47"><path class="cls-23" d="M108,100.56c0-.1,0-.21,0-.31A12.07,12.07,0,0,1,109.08,93a3.46,3.46,0,0,1-.9-.74,5.25,5.25,0,0,1-1-2.84,13.14,13.14,0,0,1-.12-1.53c0-.42,0-.84,0-1.26a2,2,0,0,0-.32-1.13l-.09-.1c-.29.13-.58.25-.86.39-6,2.84-8.32,6.51-8.28,10.62a.76.76,0,0,1,.09.18,9.3,9.3,0,0,0,.8,1.72,5.89,5.89,0,0,0,1.27,1.41C102,101.48,105.25,101.52,108,100.56Z"/><path class="cls-42" d="M102.31,109.43c.47.31.89.69,1.37,1a10.77,10.77,0,0,0,1.86.93,9.22,9.22,0,0,0,6.61.36,27,27,0,0,0-1.27-3.4c-1.08-2.45-2.4-4.93-2.9-7.59a11.35,11.35,0,0,1-1.38.39,9.14,9.14,0,0,1-4.41-.08,6.75,6.75,0,0,1-3.57-2.28,7.8,7.8,0,0,1-1-1.82,1.42,1.42,0,0,0,0-.16,17.12,17.12,0,0,0,2,6.73,34.17,34.17,0,0,1,2.28,5.71A1.24,1.24,0,0,1,102.31,109.43Z"/><path class="cls-43" d="M102.39,119.79a12.63,12.63,0,0,1-.27,1.31.67.67,0,0,1,.14.19,8.38,8.38,0,0,0,.57.89,6.07,6.07,0,0,0,4.34,1.92,21.33,21.33,0,0,0,2.26.07,19,19,0,0,0,2.38-.17,23.11,23.11,0,0,0,1.14-7.33,18.89,18.89,0,0,0-.76-4.83,8.25,8.25,0,0,1-4,.35,12.43,12.43,0,0,1-4.14-1.43,10.81,10.81,0,0,1-1-.62c-.23-.17-.43-.35-.67-.51a1.88,1.88,0,0,0-.52-.29A23.5,23.5,0,0,1,102.39,119.79Z"/><path class="cls-42" d="M134.55,81.42h-3l-1.83,0h0l-.91,0c-2.64.14-6.45.41-10.42,1a.9.9,0,0,1,.1.52c0,.68-.23,1.63.27,2.19l.93-.47A32.35,32.35,0,0,1,132,81.76c1.08-.11,2.06-.18,2.9-.22h0v-.11Z"/><path class="cls-43" d="M107.24,88.4a8,8,0,0,0,.68,3.2,2.93,2.93,0,0,0,1.16,1.18l.08,0a12.41,12.41,0,0,1,6.37-5.74,25.39,25.39,0,0,1,3.08-1.89,2,2,0,0,1-.34-1.4,9.21,9.21,0,0,0,0-1.05.38.38,0,0,0-.12-.28,49.34,49.34,0,0,0-11.42,2.85,1.23,1.23,0,0,1,.34.67A17.76,17.76,0,0,1,107.24,88.4Z"/><path class="cls-23" d="M106.73,132.93l.64,0a32.78,32.78,0,0,0,4.1-7.87c.1-.29.19-.57.28-.86a19.51,19.51,0,0,1-4.52.1,6.86,6.86,0,0,1-3.92-1.32,4.86,4.86,0,0,1-.79-.9c-.16-.24-.27-.52-.45-.75a11.91,11.91,0,0,1-4,6.22,1.51,1.51,0,0,1,.18.36C98.61,128.94,100.57,133.18,106.73,132.93Z"/><path class="cls-19" d="M103.31,122.94a6.86,6.86,0,0,0,3.92,1.32,19.51,19.51,0,0,0,4.52-.1l.06-.16a19,19,0,0,1-2.38.17,21.33,21.33,0,0,1-2.26-.07,6.07,6.07,0,0,1-4.34-1.92,8.38,8.38,0,0,1-.57-.89.67.67,0,0,0-.14-.19,1.33,1.33,0,0,1-.05.19c.18.23.29.51.45.75A4.86,4.86,0,0,0,103.31,122.94Z"/><path class="cls-44" d="M103.31,122.94a6.86,6.86,0,0,0,3.92,1.32,19.51,19.51,0,0,0,4.52-.1l.06-.16a19,19,0,0,1-2.38.17,21.33,21.33,0,0,1-2.26-.07,6.07,6.07,0,0,1-4.34-1.92,8.38,8.38,0,0,1-.57-.89.67.67,0,0,0-.14-.19,1.33,1.33,0,0,1-.05.19c.18.23.29.51.45.75A4.86,4.86,0,0,0,103.31,122.94Z"/><path class="cls-44" d="M102.35,109.63c.24.16.44.34.67.51a10.81,10.81,0,0,0,1,.62,12.43,12.43,0,0,0,4.14,1.43,8.25,8.25,0,0,0,4-.35.93.93,0,0,0,0-.13,9.22,9.22,0,0,1-6.61-.36,10.77,10.77,0,0,1-1.86-.93c-.48-.3-.9-.68-1.37-1a1.24,1.24,0,0,0-.52-.22.65.65,0,0,1,0,.13A1.88,1.88,0,0,1,102.35,109.63Z"/><path class="cls-44" d="M106.6,101.11a11.35,11.35,0,0,0,1.38-.39l0-.16c-2.7,1-6,.92-8.28-.88a5.89,5.89,0,0,1-1.27-1.41,9.3,9.3,0,0,1-.8-1.72.76.76,0,0,0-.09-.18c0,.14,0,.27,0,.4a1.42,1.42,0,0,1,0,.16,7.8,7.8,0,0,0,1,1.82,6.75,6.75,0,0,0,3.57,2.28A9.14,9.14,0,0,0,106.6,101.11Z"/><path class="cls-44" d="M106.74,85.46a2,2,0,0,1,.32,1.13c0,.42,0,.84,0,1.26a13.14,13.14,0,0,0,.12,1.53,5.25,5.25,0,0,0,1,2.84,3.46,3.46,0,0,0,.9.74s0-.09.08-.14l-.08,0a2.93,2.93,0,0,1-1.16-1.18,8,8,0,0,1-.68-3.2,17.76,17.76,0,0,0-.13-2.42,1.23,1.23,0,0,0-.34-.67l-.12,0Z"/><path class="cls-44" d="M118.44,83a.9.9,0,0,0-.1-.52l-.15,0a.38.38,0,0,1,.12.28,9.21,9.21,0,0,1,0,1.05,2,2,0,0,0,.34,1.4l.1,0C118.21,84.58,118.44,83.63,118.44,83Z"/></g><path class="cls-12" d="M127.94,111.48a6.47,6.47,0,0,0,2.15,4.72,5.23,5.23,0,0,1,.88-.72c3.41-2.18,11.81-4.68,20.82-4.75l-4.09-6.27s-11.5.77-18.38,4A3.67,3.67,0,0,0,127.94,111.48Z"/><path class="cls-13" d="M127.94,111.48a6.47,6.47,0,0,0,2.15,4.72,5.23,5.23,0,0,1,.88-.72c3.41-2.18,11.81-4.68,20.82-4.75l-4.09-6.27s-11.5.77-18.38,4A3.67,3.67,0,0,0,127.94,111.48Z"/><path class="cls-13" d="M146.85,108.62c-2.49.27-5,.54-7.44,1a31.82,31.82,0,0,0-6.89,2.14,8.62,8.62,0,0,0-3.65,2.89,8.53,8.53,0,0,0,1.22,1.5,5.23,5.23,0,0,1,.88-.72c3.41-2.18,11.81-4.68,20.82-4.75l-1.58-2.42C149.09,108.38,148,108.5,146.85,108.62Z"/><path class="cls-53" d="M139.83,112.18a5.66,5.66,0,0,0,0-3.75,3.16,3.16,0,0,0-2.68-2.44l-.71.15a3.06,3.06,0,0,1,1.16.43,3.86,3.86,0,0,1,1.43,1.81,5.55,5.55,0,0,1,0,4Z"/><path class="cls-53" d="M132.07,114.86c.29-.15.59-.3.91-.44a5.28,5.28,0,0,0,.3-4.22,2.82,2.82,0,0,0-3.44-2l-.51.23a3.06,3.06,0,0,1,.91,0,2.8,2.8,0,0,1,2.21,1.58,5,5,0,0,1,.28,2.83A5.68,5.68,0,0,1,132.07,114.86Z"/><g class="cls-47"><path class="cls-54" d="M147.27,108.87l-.83.1-.95.11-1.24.16-.71.09-.75.12c-.51.08-1.06.15-1.61.27l-.86.17-.43.08-.43.1-.88.2-.45.11-.43.12-.45.11-.43.13-.43.13L136,111l-.42.14-.42.15-.41.15-.4.15c-.26.11-.52.2-.77.32l-.38.16-.18.07-.17.09-.35.16-.33.18c-.21.11-.41.24-.61.35l-.27.19-.26.17c-.17.12-.32.25-.47.36a7.27,7.27,0,0,0-.68.66,4.11,4.11,0,0,0-.4.46,1.76,1.76,0,0,1-.14.17h0l.12-.18c.09-.12.2-.3.37-.5l.14-.16.16-.17.37-.37.45-.38a5.76,5.76,0,0,1,.54-.39c.19-.12.39-.26.61-.38l.33-.18.34-.18.74-.34.78-.32.4-.15.42-.14.42-.15.43-.13.43-.13.44-.12.44-.12.44-.11.44-.11.45-.1.88-.2.44-.09.44-.08.85-.15c.56-.11,1.11-.17,1.63-.25l.75-.1.71-.08,1.24-.14,1-.09.84-.09Z"/></g><path class="cls-13" d="M132.67,108a3.08,3.08,0,0,1,2,2.47,5.52,5.52,0,0,1-1.45,3.82,50.41,50.41,0,0,1,18.53-3.57l-4.09-6.27s-9.71.65-16.62,3.25A4,4,0,0,1,132.67,108Z"/><path class="cls-12" d="M153.71,103.63c-3.11,0-25.86-.45-26.19-10.42a4.4,4.4,0,0,1,.48-2.06V86.59a9.16,9.16,0,0,0-5,6.92c-1,7,5.11,14.27,18,16.42s14.42,1.17,16.09-.94S156.81,103.63,153.71,103.63Z"/><g class="cls-47"><path class="cls-55" d="M151.46,111.14h.7a13.07,13.07,0,0,0,.4-3.68,9.51,9.51,0,0,0-.56-3.85l-.64,0a10.55,10.55,0,0,1,.52,4.44A13.63,13.63,0,0,1,151.46,111.14Z"/><path class="cls-55" d="M128,89.19a2.73,2.73,0,0,0-.23-.25,2.19,2.19,0,0,0-2.45-.26,8.7,8.7,0,0,0-.72.85,2.44,2.44,0,0,1,2.37-.44,2.05,2.05,0,0,1,1,.82Z"/><path class="cls-55" d="M126.67,94.8a3,3,0,0,0-1.88.68,3.29,3.29,0,0,0-1.34,2.77,9.18,9.18,0,0,0,.31.88,3.41,3.41,0,0,1,1.37-3,3.07,3.07,0,0,1,2.63-.7c-.07-.16-.08-.2-.14-.36A2.14,2.14,0,0,0,126.67,94.8Z"/><path class="cls-55" d="M130.53,99.63a3.9,3.9,0,0,0-1.78,1.12,3.78,3.78,0,0,0-1,2.18,5.06,5.06,0,0,0,.19,1.59,9.46,9.46,0,0,0,.78.6,4.59,4.59,0,0,1,.64-3.77,3.87,3.87,0,0,1,3.32-1.54c-.26-.12-.47-.25-.71-.38A4.36,4.36,0,0,0,130.53,99.63Z"/><path class="cls-55" d="M137.71,102.34a4.09,4.09,0,0,0-1.7,1.52,5.74,5.74,0,0,0-.84,2.41,7.8,7.8,0,0,0,.24,2.26l1.06.34a4.63,4.63,0,0,1,.31-4.55,4.87,4.87,0,0,1,1.94-1.72,3.83,3.83,0,0,1,1.41-.33L139,102A3.5,3.5,0,0,0,137.71,102.34Z"/><path class="cls-55" d="M146.6,103.23l-1-.1a6.35,6.35,0,0,0-2,3.57,7.58,7.58,0,0,0-.15,2.51,4.89,4.89,0,0,0,.32,1.15l.94.14a7.65,7.65,0,0,1-.12-4.35A5,5,0,0,1,146.6,103.23Z"/></g><path class="cls-53" d="M151.69,111.14h.7a13.85,13.85,0,0,0,.4-3.68,9.69,9.69,0,0,0-.56-3.85l-.64,0a10.55,10.55,0,0,1,.52,4.44A13.63,13.63,0,0,1,151.69,111.14Z"/><path class="cls-53" d="M128,88.94l-.13-.14a2.19,2.19,0,0,0-2.45-.26,8.85,8.85,0,0,0-.72.86,2.39,2.39,0,0,1,2.37-.44,2,2,0,0,1,.93.66Z"/><path class="cls-53" d="M126.9,94.8a2.91,2.91,0,0,0-1.88.68,4,4,0,0,0-1.47,3.06c.1.27.21.55.32.81a3.9,3.9,0,0,1,1.49-3.27A3.09,3.09,0,0,1,128,95.5c-.07-.16-.13-.32-.19-.48A2.17,2.17,0,0,0,126.9,94.8Z"/><path class="cls-53" d="M130.78,99.64a3.87,3.87,0,0,0-1.77,1.15,4.06,4.06,0,0,0-1,2.26,5.82,5.82,0,0,0,.16,1.66c.26.2.53.41.8.6a5,5,0,0,1,.64-3.89,3.59,3.59,0,0,1,3.22-1.52c-.25-.13-.5-.26-.74-.4A3.64,3.64,0,0,0,130.78,99.64Z"/><path class="cls-53" d="M138,102.42a4,4,0,0,0-1.75,1.52,5.35,5.35,0,0,0-.86,2.4,7.54,7.54,0,0,0,.25,2.27l1.08.34a4.56,4.56,0,0,1,.32-4.55,4.88,4.88,0,0,1,2-1.72,3.83,3.83,0,0,1,1.44-.33l-1.15-.25A3.6,3.6,0,0,0,138,102.42Z"/><path class="cls-53" d="M146.83,103.27l-1-.11a6.3,6.3,0,0,0-2,3.58,7.83,7.83,0,0,0-.14,2.51,5.32,5.32,0,0,0,.31,1.14l.94.14a7.74,7.74,0,0,1-.11-4.35A5,5,0,0,1,146.83,103.27Z"/><path class="cls-13" d="M153.7,109.06c-2.86,0-5.7-.22-8.54-.45a33.59,33.59,0,0,1-9.14-1.84,26,26,0,0,1-7.72-4.44,12,12,0,0,1-4.56-7.08,9.84,9.84,0,0,1,.28-4.7c0-.07,0-.14.07-.2a9.26,9.26,0,0,0-1,3.16c-1,7,5.11,14.27,18,16.42s14.42,1.17,16.09-.94a3.32,3.32,0,0,0,.33-.53A7.91,7.91,0,0,1,153.7,109.06Z"/><path class="cls-56" d="M126.8,94.13s.14,3.74,6.71,6.66,17.75,3.2,19.85,3.14,3.24.79,3.58,1.42-5.22.73-10.33.22S127.48,103.19,126.8,94.13Z"/><g class="cls-47"><path class="cls-54" d="M157.18,108.83l-.1.06a3.15,3.15,0,0,1-.33.17,5.22,5.22,0,0,1-1.37.35c-.3,0-.64.07-1,.09l-1.18,0-1.34,0c-.23,0-.47,0-.72,0l-.76,0-.79,0-.83,0-1.72-.11-1.82-.14-.47,0-.47,0-1-.09-1-.11-1-.14-1-.18-1-.21a26.72,26.72,0,0,1-4-1.19c-.32-.13-.64-.25-1-.39l-.94-.42-.93-.46-.9-.49a24.32,24.32,0,0,1-3.29-2.23c-.51-.4-1-.82-1.44-1.25a17.14,17.14,0,0,1-1.24-1.33,13.92,13.92,0,0,1-1-1.4A10.83,10.83,0,0,1,124,97.8c-.09-.24-.19-.47-.26-.71s-.13-.46-.19-.69,0-.23-.07-.34l-.06-.33c0-.22-.06-.43-.08-.64a10.23,10.23,0,0,1,0-2.15c0-.15,0-.29.06-.42a3.18,3.18,0,0,1,.06-.37c0-.12,0-.22.07-.32a1.49,1.49,0,0,1,.07-.25l.14-.48,0,0s0,.16-.13.47a.91.91,0,0,0-.06.26,2.38,2.38,0,0,0-.07.31c0,.11,0,.24-.06.37s0,.26,0,.41a11.21,11.21,0,0,0,0,2.14c0,.2.06.41.09.63s0,.21.07.32,0,.23.07.34.12.45.2.68a6.55,6.55,0,0,0,.27.69,9.94,9.94,0,0,0,.74,1.4,11.38,11.38,0,0,0,1,1.36,13.7,13.7,0,0,0,1.24,1.3,15.45,15.45,0,0,0,1.43,1.21,24.69,24.69,0,0,0,3.29,2.18l.89.47.92.44.93.4c.32.14.64.25,1,.38a27.25,27.25,0,0,0,3.92,1.11c.32.06.65.14,1,.19l1,.16,1,.13,1,.11c1.28.14,2.53.23,3.71.34l1.71.14.81.06.79,0,.75,0,.73,0,1.33,0c.84,0,1.57,0,2.16,0a5.1,5.1,0,0,0,1.36-.26c.14-.06.26-.1.33-.14l.11-.06Z"/></g><path class="cls-13" d="M123.52,94.58c.5-1.09,1.7-2.2,3-1.84a3.28,3.28,0,0,1,1,.47h0a4.4,4.4,0,0,1,.48-2.06V86.59a9.16,9.16,0,0,0-5,6.92,10.5,10.5,0,0,0,0,3.31A5.58,5.58,0,0,1,123.52,94.58Z"/><path class="cls-12" d="M154.43,123s-18-.67-24.34-6.84a6.47,6.47,0,0,1-2.15-4.72,3.67,3.67,0,0,1,1.38-3,11.06,11.06,0,0,0-4,2.88c-4.46,5.66-2,18.2,31.19,20.62Z"/><g class="cls-47"><path class="cls-55" d="M149.73,126.89A5.91,5.91,0,0,0,150,130a9.31,9.31,0,0,0,.78,1.42l1.09.12a7.33,7.33,0,0,1-.44-7,3.64,3.64,0,0,1,1.47-1.49,1.36,1.36,0,0,1,.28-.11l-1-.07C150.7,123.51,149.94,125.38,149.73,126.89Z"/><path class="cls-55" d="M125.83,112.88a3.14,3.14,0,0,0-2.17,2,7.69,7.69,0,0,0,.07,2.29,5.4,5.4,0,0,1,.1-1.21,3.9,3.9,0,0,1,.13-.57,3.15,3.15,0,0,1,1.64-1.88,3.2,3.2,0,0,1,2.21-.3c.22.07.38.33.56.46l-.14-.35A2.63,2.63,0,0,0,125.83,112.88Z"/><path class="cls-55" d="M129.78,118a4.84,4.84,0,0,0-1.78,1.67,4.28,4.28,0,0,0-.56,3.81c.33.27.68.59,1.06.85a5.34,5.34,0,0,1-.05-4.06,3.27,3.27,0,0,1,1.7-1.84,3,3,0,0,1,2.6-.27c-.33-.18-.53-.33-.83-.51A3.33,3.33,0,0,0,129.78,118Z"/><path class="cls-55" d="M134.77,123.6a6.51,6.51,0,0,0,.37,4.25l1.31.46a4.31,4.31,0,0,1-.94-2.07,6,6,0,0,1,.36-3.18,4.51,4.51,0,0,1,3.37-2.34l-1.09-.31A4.66,4.66,0,0,0,134.77,123.6Z"/><path class="cls-55" d="M145.73,122.12a4.8,4.8,0,0,0-2.14,1.23,4.39,4.39,0,0,0-1.11,2.67,6.25,6.25,0,0,0,.28,2.78,7.89,7.89,0,0,0,.77,1.43c.41.08.83.17,1.25.24a4.67,4.67,0,0,1-1.05-1.5,5.68,5.68,0,0,1-.36-3.18,4,4,0,0,1,1.56-2.63,4.39,4.39,0,0,1,1.63-.78,2.24,2.24,0,0,1,.52-.06Z"/></g><path class="cls-53" d="M150.06,126.93a5.81,5.81,0,0,0,.26,3.09,9.31,9.31,0,0,0,.78,1.42l1.08.12a6.44,6.44,0,0,1-1.1-3.54,6.36,6.36,0,0,1,.67-3.43,3.55,3.55,0,0,1,1.46-1.49,1.72,1.72,0,0,1,.29-.11l-1-.07C151,123.55,150.26,125.42,150.06,126.93Z"/><path class="cls-53" d="M125.82,113.06a3.26,3.26,0,0,0-2.16,2.13,7.69,7.69,0,0,0,.07,2.29,5.4,5.4,0,0,1,.1-1.21,3.39,3.39,0,0,1,.13-.57,3.33,3.33,0,0,1,3.85-2.18,2.47,2.47,0,0,1,.61.3c0-.12-.1-.24-.14-.36A2.81,2.81,0,0,0,125.82,113.06Z"/><path class="cls-53" d="M130.12,118.13a4.92,4.92,0,0,0-1.79,1.72,4.49,4.49,0,0,0-.55,3.91c.34.28.7.55,1.08.82a5.42,5.42,0,0,1-.08-4.11,3.37,3.37,0,0,1,1.71-1.9,3,3,0,0,1,2.61-.22c-.32-.18-.63-.36-.93-.55A2.94,2.94,0,0,0,130.12,118.13Z"/><path class="cls-53" d="M135.13,123.72a6.54,6.54,0,0,0,.37,4.26l1.31.46a4.3,4.3,0,0,1-.94-2.08,6.09,6.09,0,0,1,.35-3.19,4.56,4.56,0,0,1,3.38-2.35l-1.1-.31A4.69,4.69,0,0,0,135.13,123.72Z"/><path class="cls-53" d="M146.09,122.17a4.91,4.91,0,0,0-2.14,1.24,4.33,4.33,0,0,0-1.11,2.68,6.25,6.25,0,0,0,.28,2.78,7.84,7.84,0,0,0,.76,1.43l1.27.25a4.59,4.59,0,0,1-1.06-1.51,5.69,5.69,0,0,1-.36-3.18,4,4,0,0,1,1.57-2.64,4.27,4.27,0,0,1,1.62-.78,3.24,3.24,0,0,1,.52-.07C147,122.31,146.55,122.25,146.09,122.17Z"/><path class="cls-13" d="M154.28,129.9a33.79,33.79,0,0,1-7.36-.44,47.67,47.67,0,0,1-9.78-2.46,36.6,36.6,0,0,1-7.31-3.42,14.25,14.25,0,0,1-5-5,8.13,8.13,0,0,1-.89-4.75c-2,6.23,3.65,16,32.52,18.11l-.55-2.4A10.54,10.54,0,0,1,154.28,129.9Z"/><g class="cls-47"><path class="cls-54" d="M154.31,130.42l-.42,0-.51,0-.69,0h-.86l-1,0-1.15-.07c-.41,0-.83-.06-1.27-.11l-.68-.08-.7-.09-1.46-.22c-.5-.09-1-.17-1.55-.28l-.79-.15-.81-.18c-.54-.12-1.08-.28-1.64-.42l-.83-.25-.41-.12-.42-.14-.83-.27-.83-.3-.42-.16-.41-.16-.83-.32c-1.09-.44-2.19-.89-3.24-1.4a26.79,26.79,0,0,1-3-1.69,18.79,18.79,0,0,1-2.52-2,12.27,12.27,0,0,1-1.86-2.17l-.17-.29a1.91,1.91,0,0,1-.16-.27c0-.09-.11-.19-.15-.28s-.09-.18-.14-.28l-.12-.26c0-.09-.08-.18-.11-.27s-.14-.36-.19-.53-.11-.34-.14-.5-.07-.32-.1-.47,0-.31-.07-.45l0-.21a1.21,1.21,0,0,0,0-.19c0-.13,0-.25,0-.37v-.32a2.72,2.72,0,0,0,0-.28,1.64,1.64,0,0,1,0-.23c0-.27,0-.42,0-.42h0l0,.42a1.55,1.55,0,0,0,0,.22v.6q0,.16,0,.36c0,.06,0,.13,0,.2a1.18,1.18,0,0,1,0,.2c0,.14,0,.29.07.44s.07.3.11.46.1.33.15.49a5.44,5.44,0,0,0,.19.52c0,.08.07.17.11.26s.09.18.13.27l.14.27.15.27c0,.09.11.18.17.27s.11.18.18.27a11.29,11.29,0,0,0,1.87,2.1,17.9,17.9,0,0,0,2.52,1.91,25.49,25.49,0,0,0,3,1.63c1,.49,2.14.92,3.24,1.34l.82.31.42.15.41.14.83.29.83.26.41.13.42.11.82.23c.55.14,1.09.28,1.63.4,1.07.26,2.12.45,3.11.64s1.94.34,2.81.46l1.26.16,1.13.12,1,.08.85,0h.68a1.31,1.31,0,0,0,.28,0h.66Z"/></g><path class="cls-57" d="M154.41,123c-2.15-.11-3.2,2.89-2.32,5.3a5.7,5.7,0,0,0,4.41,3.6,1.74,1.74,0,0,0,2-2.2c-.42-1.28-1.22-2-1.68-4S155.62,123.1,154.41,123Z"/><path class="cls-12" d="M154.5,123.33c-1.86-.11-2.81,2.53-2.05,4.79s3.17,3.57,4.3,3.5a1.53,1.53,0,0,0,1.45-2c-.45-1.14-1.26-1.72-1.67-3.58S155.54,123.38,154.5,123.33Z"/><path class="cls-53" d="M155.37,126.49a6.8,6.8,0,0,1-.93,4.24l.53.34a6.66,6.66,0,0,0,1-3.5c.05-1.32.09-3.06-.85-4.1a1.82,1.82,0,0,0-.63-.14,1.22,1.22,0,0,0-.33,0C155.14,123.85,155.3,125.46,155.37,126.49Z"/><path class="cls-13" d="M158.24,129.72a.57.57,0,0,0,0-.14c-.45-1.14-1.26-1.72-1.67-3.58s-1-2.62-2-2.67c-1.7-.1-2.64,2.1-2.21,4.21A27.06,27.06,0,0,1,158.24,129.72Z"/><path class="cls-13" d="M156.42,125.51c-.4-1.51-1-2.13-1.92-2.18a1.9,1.9,0,0,0-1.75,1A12,12,0,0,1,156.42,125.51Z"/><path class="cls-52" d="M154.5,123.33h-.17a2.19,2.19,0,0,0-.45.09,1.75,1.75,0,0,0-.61.37,2.57,2.57,0,0,0-.56.74,4.3,4.3,0,0,0-.35,1,4.88,4.88,0,0,0,.8,3.7,5.37,5.37,0,0,0,.89,1,6,6,0,0,0,1.07.77,4.84,4.84,0,0,0,1.13.45l.28,0h.41l.13,0a1.09,1.09,0,0,0,.24-.07,1.6,1.6,0,0,0,.71-.55,1.4,1.4,0,0,0,.24-.67,1.28,1.28,0,0,0,0-.46,1.45,1.45,0,0,1,0-.16l.05.16a1.37,1.37,0,0,1,.06.47,1.55,1.55,0,0,1-.95,1.33,1.14,1.14,0,0,1-.26.09l-.14,0-.14,0h-.3l-.3,0a4.06,4.06,0,0,1-1.2-.44,5.87,5.87,0,0,1-1.11-.78,5.49,5.49,0,0,1-.94-1,5.12,5.12,0,0,1-.63-1.26,5.2,5.2,0,0,1-.25-1.33,4.74,4.74,0,0,1,.11-1.27,3.49,3.49,0,0,1,.4-1.07,3.27,3.27,0,0,1,.28-.41,2,2,0,0,1,.33-.32,1.9,1.9,0,0,1,.65-.35,1.53,1.53,0,0,1,.47-.06Z"/><path class="cls-56" d="M126.85,111.14S126,117,135.18,120a65.77,65.77,0,0,0,18,3.08,3.84,3.84,0,0,0-1.5,2.41s-13.07-.52-21-6C125.06,115.56,126.85,111.14,126.85,111.14Z"/><path class="cls-10" d="M128.35,113.52q.15.39.33.78V107h-.34v6.53Z"/><path class="cls-11" d="M128.34,113.5V107H128v5.57C128.15,112.86,128.23,113.19,128.34,113.5Z"/><path class="cls-58" d="M141.36,52.2s2.43.45,3.37-.53a1.67,1.67,0,0,1,2.24-.45,3.86,3.86,0,0,0,1.51.21,3.83,3.83,0,0,1-1.43,1.07,2.47,2.47,0,0,0,1.55.19,1.44,1.44,0,0,1-2,.84c-.68-.26-1.08,0-1.63.52-.84.78-2,.85-3.62.5Z"/><path class="cls-59" d="M141.36,52.2l0,2.35c.2.05.39.08.57.11V52.27C141.58,52.24,141.36,52.2,141.36,52.2Z"/><path class="cls-60" d="M147.05,52.5a3.83,3.83,0,0,0,1.43-1.07,3.86,3.86,0,0,1-1.51-.21,1.67,1.67,0,0,0-2.24.45,1.55,1.55,0,0,1-.41.3v2.51a2.25,2.25,0,0,0,.64-.43c.55-.5.95-.78,1.63-.52a1.44,1.44,0,0,0,2-.84A2.47,2.47,0,0,1,147.05,52.5Z"/><rect class="cls-61" x="141.29" y="52.29" width="0.1" height="2.59"/><path class="cls-58" d="M141.81,51.88a.47.47,0,1,1-.94,0,.47.47,0,0,1,.94,0Z"/><path class="cls-59" d="M141.34,51.42h-.05a.38.38,0,0,1,0,.76.39.39,0,0,1-.38-.35v.05a.47.47,0,1,0,.94,0A.46.46,0,0,0,141.34,51.42Z"/><path class="cls-62" d="M141.24,51.69a.13.13,0,0,1-.16.1.13.13,0,0,1,.06-.26A.13.13,0,0,1,141.24,51.69Z"/><path class="cls-62" d="M141,51.83s0,0,0,0a.06.06,0,0,1,0-.06s0,0,0,0S141.05,51.81,141,51.83Z"/><g class="cls-47"><path class="cls-63" d="M125.6,69.54V71a2.75,2.75,0,0,0,2.53-.23,2.93,2.93,0,0,0,3.69.26,3.76,3.76,0,0,0,4.36.08,3.06,3.06,0,0,0,3.65.09,3.81,3.81,0,0,0,4.31-.13,2.44,2.44,0,0,0,3.22-.13,2.23,2.23,0,0,0,3.26-.17,1.92,1.92,0,0,0,2.86-.08,2.07,2.07,0,0,0,2.56,0V69.32A215,215,0,0,1,125.6,69.54Z"/></g><g class="cls-47"><path class="cls-63" d="M125.6,69.24v1.35a3,3,0,0,0,2.53-.21,3.11,3.11,0,0,0,3.69.23,4,4,0,0,0,4.36.08,3.26,3.26,0,0,0,3.65.08,4.06,4.06,0,0,0,4.31-.12,2.59,2.59,0,0,0,3.22-.12,2.37,2.37,0,0,0,3.26-.15,2,2,0,0,0,2.86-.08,2.2,2.2,0,0,0,2.56,0V69A232.13,232.13,0,0,1,125.6,69.24Z"/></g><path class="cls-64" d="M125.22,69.23v.55c0,.24.4.67,1.41.81.56,0,1.54-.23,1.54-.4v-.71Z"/><path class="cls-1" d="M141.32,54.74h0Z"/><path class="cls-65" d="M141.33,54.73c-1.2,11-4.85,14.83-5.13,15.12,1.15,0,2.38,0,3.66.05a104.35,104.35,0,0,0,1.46-14.8C141.32,55,141.32,54.86,141.33,54.73Z"/><path class="cls-66" d="M131.81,69.7c1.31.06,2.78.12,4.39.15.28-.29,3.93-4.16,5.13-15.12C139.93,63.81,132.28,69.36,131.81,69.7Z"/><path class="cls-65" d="M141.33,54.73h0c-1.58,9.62-13.17,14.74-13.17,14.74h0c1,.07,2.23.15,3.66.22C132.28,69.36,139.93,63.81,141.33,54.73Z"/><path class="cls-66" d="M141.32,54.74c-.06.35-1.86,9.89-16.1,14.49,0,0,1.06.12,2.93.25h0S139.74,64.36,141.32,54.74Z"/><path class="cls-66" d="M141.33,54.73c2.43,9.39,11.79,14.47,12.13,14.66.93-.08,1.88-.16,2.83-.26A22.58,22.58,0,0,1,141.33,54.73Z"/><path class="cls-66" d="M141.32,55.1a104.35,104.35,0,0,1-1.46,14.8c1.34,0,2.75,0,4.21,0v0S141.31,62.1,141.32,55.1Z"/><path class="cls-65" d="M141.33,54.73c1.23,8.78,9,14.61,9.31,14.86l2.82-.2C153.12,69.2,143.76,64.12,141.33,54.73Z"/><path class="cls-65" d="M141.32,55.1c0,7,2.74,14.73,2.74,14.73v0c1.06,0,2.15-.06,3.26-.1-.41-.45-4.65-5.26-6-15C141.33,54.86,141.32,55,141.32,55.1Z"/><path class="cls-66" d="M141.33,54.73c1.35,9.77,5.59,14.58,6,15,1.08-.05,2.19-.1,3.31-.17C150.31,69.34,142.56,63.51,141.33,54.73Z"/><path class="cls-67" d="M131.81,69.7v.46a2,2,0,0,1-2,.69c-1.2-.1-1.68-.66-1.68-.76v-.61Z"/><path class="cls-64" d="M131.81,69.7l4.39.15v.49c0,.27-1.1.82-2.54.68-.94-.1-1.85-.68-1.85-1Z"/><path class="cls-67" d="M136.2,69.85l3.66.05v.55c0,.22-.81.69-2.06.59s-1.6-.6-1.6-.78Z"/><path class="cls-64" d="M139.86,69.9l4.21,0v.48c0,.29-.63.71-2.11.71s-2.1-.47-2.1-.68Z"/><path class="cls-67" d="M144.07,69.86l3.26-.1v.42a1.53,1.53,0,0,1-1.5.76c-1,0-1.76-.46-1.76-.68Z"/><path class="cls-64" d="M147.33,69.76l3.31-.17V70a1.74,1.74,0,0,1-1.56.94c-.94,0-1.75-.55-1.75-.76Z"/><path class="cls-67" d="M150.64,69.59l2.82-.2v.47a1.32,1.32,0,0,1-1.27.82c-.8,0-1.55-.44-1.55-.68Z"/><path class="cls-64" d="M153.46,69.39l2.83-.26v.6c0,.22-.47.64-1.32.72s-1.51-.43-1.51-.66Z"/></g></g></g></svg>