<svg id="Layer_1" data-name="Layer 1" xmlns="http://www.w3.org/2000/svg" xmlns:xlink="http://www.w3.org/1999/xlink" viewBox="0 0 175.23 117.23"><defs><style>.cls-1,.cls-3{fill:none;}.cls-2{clip-path:url(#clip-path);}.cls-3{stroke:#9e8b5c;stroke-miterlimit:10;stroke-width:23px;}.cls-4{clip-path:url(#clip-path-2);}.cls-5{clip-path:url(#clip-path-3);}.cls-6{fill:#ded712;}.cls-7{fill:#d4d10f;}.cls-8{fill:#cacc0d;}.cls-9{fill:#c0c60a;}.cls-10{fill:#05d8ba;}.cls-11{fill:#e8db4a;}.cls-12{fill:#f73d3d;}.cls-13{isolation:isolate;}.cls-14{fill:#022f45;}.cls-15{fill:#025074;}.cls-16{fill:#db3636;}.cls-17{fill:#ba2e2e;}.cls-18{fill:#fdbf2b;}.cls-19{fill:#fdb813;}.cls-20{fill:#f3b910;}.cls-21{fill:#c4c1ac;}.cls-22{fill:#fffbe0;}.cls-23{fill:#f0c39a;}.cls-24{fill:#edd6bc;}.cls-25{fill:#fa7564;}.cls-26{fill:#20b8f3;}.cls-27{fill:#ffca00;}.cls-28{fill:#efd0b4;}.cls-29,.cls-30{fill:#d6bb7b;}.cls-30,.cls-31{opacity:0.2;}.cls-31{fill:#fafbfd;}.cls-32{fill:#fff;}.cls-33{fill:#dcdcdc;}.cls-34{fill:#b32c31;}.cls-35{fill:#ff9800;}.cls-36{fill:#fca232;}.cls-37{fill:#d6a67f;}.cls-38{fill:#915533;}</style><clipPath id="clip-path"><rect class="cls-1" x="317.69" y="202.75" width="163.91" height="117.96"/></clipPath><clipPath id="clip-path-2"><rect class="cls-1" x="158.73" y="85.25" width="173.6" height="112.37"/></clipPath><clipPath id="clip-path-3"><rect class="cls-1" x="-0.06" y="-1.23" width="175.66" height="119.49"/></clipPath></defs><title>設施介紹-工作區域 6</title><g id="Layer_1-2" data-name="Layer 1"><g class="cls-2"><path class="cls-3" d="M255.78,99.58,69.16,208.06a9.52,9.52,0,0,0,0,16.47l115.92,67.23a51.78,51.78,0,0,0,52.26-.15l66.44-39,119-69.3a9.54,9.54,0,0,0,3.42-13,9.66,9.66,0,0,0-3.42-3.42L308,99.64A51.84,51.84,0,0,0,255.78,99.58Z"/></g></g><g class="cls-5"><rect class="cls-6" x="-346.36" y="-28.74" width="539.65" height="40.92"/><rect class="cls-7" x="-346.36" y="7.94" width="539.65" height="45.69"/><rect class="cls-8" x="-346.36" y="44.63" width="539.65" height="50.47"/><rect class="cls-9" x="-346.36" y="81.32" width="539.65" height="55.25"/><path class="cls-10" d="M102.55,67.56l41.81,23.1a3.34,3.34,0,0,1,0,5.93l-44,24.25a12.7,12.7,0,0,1-12.28,0l-15.61-8.72L46.58,97.73a3.34,3.34,0,0,1,0-5.92L90.29,67.58A12.72,12.72,0,0,1,102.55,67.56Z"/><path class="cls-11" d="M41.29,34.11,81.76,56.47a3.25,3.25,0,0,1,0,5.75L39.21,85.69a12.32,12.32,0,0,1-11.89,0L12.21,77.22-12.9,63.32a3.24,3.24,0,0,1,0-5.74L29.41,34.12A12.35,12.35,0,0,1,41.29,34.11Z"/><polygon class="cls-12" points="53.28 45.6 53.31 60.08 51.62 60.81 51.59 46.34 53.28 45.6"/><g class="cls-13"><g class="cls-13"><path class="cls-14" d="M19.22,60.76l-.78-.43a14.49,14.49,0,0,0,1.92-3.17l.79.43a14.93,14.93,0,0,1-1.93,3.17Z"/></g><g class="cls-13"><path class="cls-14" d="M16.06,63.59l-.78-.43a11.46,11.46,0,0,0,2.64-2.22l.78.43a11.46,11.46,0,0,1-2.64,2.22Z"/></g><g class="cls-13"><path class="cls-14" d="M21.44,56.86l-.78-.43a10.61,10.61,0,0,0,.7-3.27l.78.43a10.55,10.55,0,0,1-.7,3.27Z"/></g><g class="cls-13"><path class="cls-14" d="M12.82,64.6,12,64.17a5.88,5.88,0,0,0,2.65-.68l.78.43a5.88,5.88,0,0,1-2.65.68Z"/></g><g class="cls-13"><path class="cls-14" d="M22.13,52.94l-.78-.43a4.89,4.89,0,0,0-.71-2.5l.78.43a4.92,4.92,0,0,1,.71,2.5Z"/></g><polygon class="cls-14" points="18.7 61.37 17.93 60.94 15.39 57.55 16.17 57.98 18.7 61.37"/><polygon class="cls-14" points="17.07 56.51 16.29 56.08 20.66 56.43 21.44 56.87 17.07 56.51"/><polygon class="cls-14" points="15.47 63.92 14.69 63.49 14.67 57.99 15.45 58.42 15.47 63.92"/><polygon class="cls-14" points="17.1 55.7 16.32 55.27 21.35 52.51 22.14 52.94 17.1 55.7"/><polygon class="cls-14" points="12.31 64.56 11.53 64.13 14.03 57.97 14.81 58.41 12.31 64.56"/><polygon class="cls-14" points="16.77 55.19 15.99 54.76 20.34 49.61 21.12 50.04 16.77 55.19"/><g class="cls-13"><path class="cls-14" d="M11.21,64.19l-.78-.43a3.31,3.31,0,0,0,1.1.36l.78.44a3.32,3.32,0,0,1-1.1-.37Z"/></g><g class="cls-13"><path class="cls-14" d="M21.12,50l-.78-.43a3,3,0,0,0-.84-.68l.78.43a3,3,0,0,1,.84.68Z"/></g><g class="cls-13"><path class="cls-14" d="M14.77,58.38,14,58l-.05,0,.78.44,0,0Z"/></g><g class="cls-13"><path class="cls-14" d="M16.68,55.14l-.78-.43,0,0,.78.43,0,0Z"/></g><g class="cls-13"><path class="cls-14" d="M14.43,58l-.78-.44a.36.36,0,0,1,0-.11l.78.43a.56.56,0,0,0,0,.12Z"/></g><g class="cls-13"><path class="cls-14" d="M16,55.13l-.78-.43a.53.53,0,0,1,.12,0l.78.43a.53.53,0,0,0-.12,0Z"/></g><g class="cls-13"><path class="cls-14" d="M14.39,57.19l-.78-.43,0-.15.78.43,0,.15Z"/></g><g class="cls-13"><path class="cls-14" d="M15.32,55.56l-.78-.43.12-.11.78.43-.12.11Z"/></g><g class="cls-13"><path class="cls-14" d="M14.72,56.32l-.78-.43.09-.15.78.43-.09.15Z"/></g><polygon class="cls-14" points="10.07 63.11 9.29 62.67 13.65 57.52 14.43 57.95 10.07 63.11"/><polygon class="cls-14" points="16.16 55.1 15.38 54.67 17.89 48.52 18.67 48.95 16.16 55.1"/><polygon class="cls-14" points="9.35 59.96 8.57 59.52 13.61 56.76 14.39 57.19 9.35 59.96"/><polygon class="cls-14" points="15.44 55.45 14.66 55.02 14.65 49.53 15.43 49.96 15.44 55.45"/><g class="cls-13"><path class="cls-14" d="M15.72,48.61l-.78-.43c2.08-1.14,4-1.25,5.32-.5l.78.43c-1.36-.75-3.24-.64-5.32.5Z"/></g><polygon class="cls-14" points="10.35 55.96 9.57 55.53 13.94 55.88 14.72 56.32 10.35 55.96"/><polygon class="cls-14" points="14.81 56.17 14.03 55.74 11.49 52.35 12.27 52.78 14.81 56.17"/><path class="cls-15" d="M15.72,48.61c4.13-2.27,7.49-.45,7.5,4.06s-3.32,10-7.45,12.27-7.49.44-7.5-4.06S11.59,50.88,15.72,48.61Zm-3.45,4.17A14.56,14.56,0,0,0,10.35,56l4.37.36.09-.15-2.54-3.39Zm7,8a14.93,14.93,0,0,0,1.93-3.17l-4.38-.36-.09.15,2.54,3.38ZM21.12,50a3.16,3.16,0,0,0-1.94-1l-2.5,6.15.09,0L21.12,50ZM10.37,63.5a3.13,3.13,0,0,0,1.94,1.06l2.5-6.15-.09,0L10.37,63.5Zm5.1.42,0-5.5-.12,0L12.82,64.6a5.88,5.88,0,0,0,2.65-.68Zm.59-.33a11.46,11.46,0,0,0,2.64-2.22L16.17,58l-.12.1v5.5Zm6.07-10.65a4.92,4.92,0,0,0-.71-2.5l-4.36,5.15a.49.49,0,0,1,0,.11l5-2.76ZM10.05,56.68A10.67,10.67,0,0,0,9.35,60l5-2.77,0-.15-4.37-.36Zm5.39-1.23V50a11.46,11.46,0,0,0-2.64,2.22l2.53,3.38.12-.11ZM16,49.63l0,5.5a.53.53,0,0,1,.12,0L18.67,49a5.76,5.76,0,0,0-2.65.68Zm5.42,7.23a10.55,10.55,0,0,0,.7-3.27l-5,2.76,0,.16,4.37.35ZM9.36,60.61a4.92,4.92,0,0,0,.71,2.5L14.43,58a.56.56,0,0,1,0-.12l-5,2.77Z"/><g class="cls-13"><path class="cls-14" d="M10.45,65.43,9.67,65c-1.34-.74-2.17-2.32-2.18-4.56,0-4.5,3.32-10,7.45-12.26l.78.43c-4.13,2.27-7.46,7.76-7.45,12.27,0,2.24.84,3.81,2.18,4.55Z"/></g></g><g class="cls-13"><polygon class="cls-16" points="24.05 70.33 9.93 62.54 9.9 48.85 24.02 56.65 24.05 70.33"/><polygon class="cls-17" points="24.02 56.65 9.9 48.85 41.34 32.04 55.46 39.84 24.02 56.65"/><polygon class="cls-18" points="10.69 48.86 41.34 32.47 54.67 39.83 24.02 56.23 10.69 48.86"/><polygon class="cls-12" points="55.46 39.84 55.49 53.52 24.05 70.33 24.02 56.65 55.46 39.84"/><polygon class="cls-19" points="24.02 56.65 24.02 56.66 24.05 70.33 27.51 68.48 27.51 54.78 24.02 56.65"/><polygon class="cls-19" points="31.01 52.91 31.01 66.61 34.51 64.74 34.51 51.04 31.01 52.91"/><polygon class="cls-19" points="38 49.17 38 62.87 41.5 61 41.5 47.3 38 49.17"/><polygon class="cls-19" points="55.46 39.84 51.99 41.69 51.99 55.39 55.49 53.52 55.46 39.84"/><polygon class="cls-20" points="45 45.43 45 59.13 48.49 57.26 48.49 43.56 45 45.43"/></g><polygon class="cls-21" points="46.23 38.65 38.9 42.68 41.12 33.91 48.45 29.89 46.23 38.65"/><polygon class="cls-22" points="50.42 39.52 43.09 43.55 41.12 33.91 48.45 29.89 50.42 39.52"/><path class="cls-23" d="M48.09,34A8.34,8.34,0,0,1,46,35.4a5.9,5.9,0,0,1-2.09.92h0l.66,1.82L44.8,38l1.11,3.07L46,41l1.15-4.31.24-.13Z"/><path class="cls-24" d="M48.09,34A6.31,6.31,0,0,0,46,35a8.59,8.59,0,0,0-2.09,1.37A5.9,5.9,0,0,0,46,35.4,8.34,8.34,0,0,0,48.09,34Z"/><path class="cls-25" d="M47.13,33c0-.76-.59-1.05-1.28-.65a2.63,2.63,0,0,0-1.24,2.09c0,.76.59,1,1.28.65A2.63,2.63,0,0,0,47.13,33Z"/><path class="cls-26" d="M48.08,33.57c0-.76-.56-1.06-1.25-.69a2.61,2.61,0,0,0-1.25,2.06c0,.76.56,1.07,1.25.69A2.61,2.61,0,0,0,48.08,33.57Z"/><path class="cls-27" d="M46.15,34.43c0-.72-.53-1-1.18-.65a2.45,2.45,0,0,0-1.19,1.94c0,.72.53,1,1.19.65A2.47,2.47,0,0,0,46.15,34.43Z"/><path class="cls-25" d="M45.08,34a.27.27,0,0,1-.11.2c-.07,0-.12,0-.12-.07a.22.22,0,0,1,.12-.19C45,33.87,45.08,33.9,45.08,34Z"/><path class="cls-25" d="M44.89,34.76a.24.24,0,0,1-.12.2c-.06,0-.11,0-.11-.07a.24.24,0,0,1,.11-.19C44.84,34.66,44.89,34.69,44.89,34.76Z"/><path class="cls-22" d="M47.25,33a.25.25,0,0,1-.12.2.08.08,0,0,1-.12-.07.25.25,0,0,1,.12-.19C47.2,32.89,47.25,32.92,47.25,33Z"/><path class="cls-28" d="M46.66,32.44a.14.14,0,0,1-.07.11s-.07,0-.07,0a.14.14,0,0,1,.07-.11S46.66,32.39,46.66,32.44Z"/><path class="cls-28" d="M45.94,33.31a.14.14,0,0,1-.07.11s-.07,0-.07,0a.14.14,0,0,1,.07-.12S45.94,33.26,45.94,33.31Z"/><path class="cls-28" d="M45.16,33.34a.16.16,0,0,1-.08.12,0,0,0,0,1-.07,0,.19.19,0,0,1,.07-.12S45.16,33.3,45.16,33.34Z"/><path class="cls-22" d="M48,33.76a.24.24,0,0,1-.12.2c-.06,0-.12,0-.12-.07a.26.26,0,0,1,.12-.19C48,33.66,48,33.69,48,33.76Z"/><path class="cls-22" d="M47.25,33.83a.22.22,0,0,1-.12.19A.07.07,0,0,1,47,34a.28.28,0,0,1,.12-.2C47.2,33.73,47.25,33.76,47.25,33.83Z"/><path class="cls-22" d="M46.32,34a.24.24,0,0,1-.12.19.07.07,0,0,1-.12-.06.27.27,0,0,1,.12-.2C46.27,33.84,46.32,33.87,46.32,34Z"/><path class="cls-22" d="M46.71,34.63a.24.24,0,0,1-.12.19.07.07,0,0,1-.12-.06.27.27,0,0,1,.12-.2C46.66,34.52,46.71,34.55,46.71,34.63Z"/><path class="cls-25" d="M45.7,34.32a.28.28,0,0,1-.12.2c-.07,0-.12,0-.12-.07a.22.22,0,0,1,.12-.19A.07.07,0,0,1,45.7,34.32Z"/><path class="cls-25" d="M44.18,35.4a.22.22,0,0,1-.11.17s-.1,0-.1-.06a.23.23,0,0,1,.1-.17C44.13,35.31,44.18,35.34,44.18,35.4Z"/><path class="cls-25" d="M44.37,34.61a.11.11,0,0,1,0,.09s0,0,0,0a.12.12,0,0,1,0-.09S44.37,34.58,44.37,34.61Z"/><path class="cls-25" d="M45.63,35.13a.09.09,0,0,1-.05.09s-.06,0-.06,0a.1.1,0,0,1,.06-.08S45.63,35.1,45.63,35.13Z"/><path class="cls-25" d="M44.21,36a.11.11,0,0,1-.06.09s0,0,0,0a.12.12,0,0,1,0-.1S44.21,35.93,44.21,36Z"/><path class="cls-25" d="M45,35.43a.19.19,0,0,1-.1.16s-.1,0-.1-.05a.23.23,0,0,1,.1-.17C45,35.34,45,35.37,45,35.43Z"/><polygon class="cls-29" points="47.9 33.89 47.9 33.89 47.9 33.9 47.9 33.89"/><path class="cls-23" d="M48.09,34A8.34,8.34,0,0,1,46,35.4a5.9,5.9,0,0,1-2.09.92h0l.66,1.82L44.8,38l2.37-1.3.24-.13Z"/><polygon class="cls-30" points="45.6 40.22 45.69 40.47 46.02 40.65 45.85 40.92 45.9 41.05 46.11 40.7 46.11 40.7 46.21 40.34 46.11 40.5 45.6 40.22"/><path class="cls-31" d="M46.82,35.43l.47-.78-.19.12-.37.61-.34-.19-.18.1.43.24-.53.87-.54-.29.43-.7-.18.09-.34.56-.35-.19-.2.09.46.25-.53.88-.53-.3L44.8,36l-.17.07-.39.64L44,36.62l.09.25,0,0,0,0,.05.12.07-.12.53.3-.34.55,0,.13.38-.63.53.29-.47.77,0,.13.51-.85.54.29-.54.87-.5-.27.09.25.32.17-.16.27.05.13.2-.35.54.3-.48.78.05.12.52-.85.32.17,0-.17-.27-.15.53-.88h0l.11-.42-.13.21-.53-.29.53-.88.33.19,0-.18-.29-.16.53-.87.21.11,0-.17-.16-.09.34-.55.09-.36-.52.86ZM45,37.14l.53-.88.54.29-.54.88Zm1.69,1.12-.53.88-.54-.3.54-.87Zm-.53-.49-.54-.29.54-.88.53.29Zm.62-1-.53-.29.53-.87.53.29Z"/><g class="cls-13"><g class="cls-13"><path class="cls-14" d="M36.51,70l-.78-.43a14.93,14.93,0,0,0,1.93-3.17l.78.43A14.93,14.93,0,0,1,36.51,70Z"/></g><g class="cls-13"><path class="cls-14" d="M33.35,72.84l-.78-.43a11.72,11.72,0,0,0,2.65-2.22l.78.43a11.72,11.72,0,0,1-2.65,2.22Z"/></g><g class="cls-13"><path class="cls-14" d="M38.73,66.11,38,65.68a10.61,10.61,0,0,0,.7-3.27l.78.43a10.55,10.55,0,0,1-.7,3.27Z"/></g><g class="cls-13"><path class="cls-14" d="M30.11,73.85l-.78-.43A5.88,5.88,0,0,0,32,72.74l.78.43a5.88,5.88,0,0,1-2.65.68Z"/></g><g class="cls-13"><path class="cls-14" d="M39.43,62.19l-.78-.43a5,5,0,0,0-.72-2.5l.78.43a5,5,0,0,1,.72,2.5Z"/></g><polygon class="cls-14" points="36 70.62 35.22 70.19 32.68 66.8 33.46 67.23 36 70.62"/><polygon class="cls-14" points="34.36 65.76 33.58 65.33 37.95 65.68 38.73 66.11 34.36 65.76"/><polygon class="cls-14" points="32.76 73.17 31.98 72.74 31.96 67.24 32.74 67.67 32.76 73.17"/><polygon class="cls-14" points="34.39 64.95 33.61 64.52 38.65 61.76 39.42 62.19 34.39 64.95"/><polygon class="cls-14" points="29.6 73.81 28.82 73.37 31.32 67.22 32.1 67.66 29.6 73.81"/><polygon class="cls-14" points="34.06 64.44 33.28 64.01 37.63 58.86 38.41 59.29 34.06 64.44"/><g class="cls-13"><path class="cls-14" d="M28.5,73.44,27.72,73a3.31,3.31,0,0,0,1.1.36l.78.44a3.57,3.57,0,0,1-1.1-.37Z"/></g><g class="cls-13"><path class="cls-14" d="M38.41,59.29l-.78-.43a2.89,2.89,0,0,0-.84-.68l.78.43a2.89,2.89,0,0,1,.84.68Z"/></g><g class="cls-13"><path class="cls-14" d="M32.06,67.63l-.78-.43,0,0,.78.44,0,0Z"/></g><g class="cls-13"><path class="cls-14" d="M34,64.39,33.19,64l0,0,.78.43,0,0Z"/></g><g class="cls-13"><path class="cls-14" d="M31.72,67.2l-.78-.43s0-.07,0-.11l.78.43s0,.08,0,.11Z"/></g><g class="cls-13"><path class="cls-14" d="M33.33,64.38,32.55,64l.12,0,.78.43-.12,0Z"/></g><g class="cls-13"><path class="cls-14" d="M31.68,66.44,30.9,66a.83.83,0,0,1,0-.15l.78.43a.83.83,0,0,0,0,.15Z"/></g><g class="cls-13"><path class="cls-14" d="M32.61,64.81l-.78-.43.12-.11.79.43-.13.11Z"/></g><g class="cls-13"><path class="cls-14" d="M32,65.57l-.78-.44.09-.14.78.43-.09.15Z"/></g><polygon class="cls-14" points="27.36 72.36 26.58 71.92 30.94 66.77 31.72 67.2 27.36 72.36"/><polygon class="cls-14" points="33.45 64.35 32.67 63.92 35.18 57.77 35.96 58.2 33.45 64.35"/><polygon class="cls-14" points="26.64 69.21 25.86 68.78 30.9 66.01 31.68 66.44 26.64 69.21"/><polygon class="cls-14" points="32.73 64.7 31.95 64.27 31.94 58.77 32.72 59.21 32.73 64.7"/><g class="cls-13"><path class="cls-14" d="M33,57.86l-.78-.43c2.08-1.14,4-1.25,5.32-.5l.78.43c-1.36-.75-3.24-.64-5.32.5Z"/></g><polygon class="cls-14" points="27.64 65.21 26.86 64.78 31.23 65.14 32.01 65.57 27.64 65.21"/><polygon class="cls-14" points="32.1 65.42 31.32 64.99 28.78 61.6 29.56 62.03 32.1 65.42"/><path class="cls-15" d="M33,57.86c4.13-2.27,7.49-.45,7.5,4.06s-3.32,10-7.45,12.27-7.48.44-7.5-4.06S28.88,60.13,33,57.86ZM29.56,62a14.56,14.56,0,0,0-1.92,3.18l4.37.36.09-.15L29.56,62Zm7,8a14.93,14.93,0,0,0,1.93-3.17l-4.38-.36-.09.15L36.51,70Zm1.9-10.72a3.16,3.16,0,0,0-1.94-1L34,64.39l.09,0,4.35-5.15ZM27.66,72.75a3.13,3.13,0,0,0,1.94,1.06l2.51-6.16-.09,0-4.36,5.14Zm5.1.42,0-5.5-.12,0-2.51,6.16a5.88,5.88,0,0,0,2.65-.68Zm.59-.33A11.72,11.72,0,0,0,36,70.62l-2.54-3.39-.12.11v5.5Zm6.08-10.65a5,5,0,0,0-.72-2.5l-4.36,5.15a.49.49,0,0,1,0,.11l5-2.76ZM27.34,65.93a10.58,10.58,0,0,0-.69,3.28l5-2.77a.83.83,0,0,1,0-.15l-4.38-.36Zm5.4-1.23,0-5.49a11.46,11.46,0,0,0-2.64,2.22l2.53,3.38.13-.11Zm.57-5.82,0,5.5.12,0L36,58.2a5.76,5.76,0,0,0-2.65.68Zm5.42,7.23a10.55,10.55,0,0,0,.7-3.27l-5,2.76a.9.9,0,0,1,0,.16l4.37.35ZM26.65,69.86a4.92,4.92,0,0,0,.71,2.5l4.36-5.16s0-.07,0-.11l-5,2.77Z"/><g class="cls-13"><path class="cls-14" d="M27.74,74.68,27,74.25c-1.34-.74-2.17-2.32-2.18-4.56,0-4.5,3.32-10,7.45-12.26l.78.43c-4.13,2.27-7.46,7.76-7.45,12.27,0,2.24.84,3.81,2.18,4.55Z"/></g></g><g class="cls-13"><g class="cls-13"><path class="cls-14" d="M54.54,61.44l-.42-.24a8.07,8.07,0,0,0,1.05-1.73l.42.24a8.07,8.07,0,0,1-1.05,1.73Z"/></g><g class="cls-13"><path class="cls-14" d="M52.82,63l-.42-.24a6.26,6.26,0,0,0,1.44-1.21l.42.24A6.57,6.57,0,0,1,52.82,63Z"/></g><g class="cls-13"><path class="cls-14" d="M55.75,59.31l-.42-.23a6.17,6.17,0,0,0,.38-1.79l.42.24a5.52,5.52,0,0,1-.38,1.78Z"/></g><g class="cls-13"><path class="cls-14" d="M51.06,63.52l-.43-.23a3.05,3.05,0,0,0,1.44-.37l.43.23a3.11,3.11,0,0,1-1.44.37Z"/></g><g class="cls-13"><path class="cls-14" d="M56.13,57.18l-.43-.24a2.73,2.73,0,0,0-.38-1.36l.42.23a2.74,2.74,0,0,1,.39,1.37Z"/></g><polygon class="cls-14" points="54.26 61.77 53.84 61.53 52.45 59.69 52.88 59.92 54.26 61.77"/><polygon class="cls-14" points="53.37 59.12 52.94 58.88 55.33 59.08 55.75 59.31 53.37 59.12"/><polygon class="cls-14" points="52.5 63.15 52.08 62.92 52.07 59.92 52.49 60.16 52.5 63.15"/><polygon class="cls-14" points="53.39 58.68 52.96 58.45 55.7 56.94 56.13 57.18 53.39 58.68"/><polygon class="cls-14" points="50.78 63.5 50.35 63.27 51.72 59.92 52.14 60.15 50.78 63.5"/><polygon class="cls-14" points="53.21 58.4 52.78 58.17 55.15 55.36 55.58 55.6 53.21 58.4"/><g class="cls-13"><path class="cls-14" d="M50.18,63.3l-.42-.23a2,2,0,0,0,.59.2l.43.23a1.7,1.7,0,0,1-.6-.2Z"/></g><g class="cls-13"><path class="cls-14" d="M55.58,55.6l-.43-.24a1.5,1.5,0,0,0-.46-.37l.43.23a1.67,1.67,0,0,1,.46.38Z"/></g><g class="cls-13"><path class="cls-14" d="M52.12,60.14l-.43-.24h0l.42.23,0,0Z"/></g><g class="cls-13"><path class="cls-14" d="M53.16,58.37l-.43-.23h0l.43.24,0,0Z"/></g><g class="cls-13"><path class="cls-14" d="M51.93,59.91l-.42-.24a.14.14,0,0,1,0-.06l.42.23a.64.64,0,0,0,0,.07Z"/></g><g class="cls-13"><path class="cls-14" d="M52.81,58.37l-.43-.24h.07l.43.23-.07,0Z"/></g><g class="cls-13"><path class="cls-14" d="M51.91,59.49l-.42-.23a.29.29,0,0,1,0-.09l.42.24s0,.05,0,.08Z"/></g><g class="cls-13"><path class="cls-14" d="M52.42,58.6,52,58.37l.07-.06.43.23-.07.06Z"/></g><g class="cls-13"><path class="cls-14" d="M52.09,59l-.42-.23a.59.59,0,0,1,0-.08l.43.23a.56.56,0,0,1,0,.08Z"/></g><polygon class="cls-14" points="49.56 62.71 49.13 62.48 51.51 59.67 51.93 59.91 49.56 62.71"/><polygon class="cls-14" points="52.88 58.35 52.45 58.12 53.82 54.77 54.24 55 52.88 58.35"/><polygon class="cls-14" points="49.17 61 48.74 60.76 51.48 59.26 51.91 59.49 49.17 61"/><polygon class="cls-14" points="52.49 58.54 52.06 58.31 52.05 55.31 52.48 55.55 52.49 58.54"/><g class="cls-13"><path class="cls-14" d="M52.64,54.82l-.43-.24a3,3,0,0,1,2.9-.27l.42.24a3,3,0,0,0-2.89.27Z"/></g><polygon class="cls-14" points="49.71 58.82 49.28 58.58 51.67 58.78 52.09 59.01 49.71 58.82"/><polygon class="cls-14" points="52.14 58.93 51.71 58.7 50.33 56.85 50.76 57.09 52.14 58.93"/><path class="cls-15" d="M52.64,54.82c2.24-1.24,4.07-.25,4.08,2.21a8.42,8.42,0,0,1-4.06,6.68c-2.25,1.23-4.07.24-4.08-2.21A8.41,8.41,0,0,1,52.64,54.82Zm-1.88,2.27a8.07,8.07,0,0,0-1,1.73l2.38.19a.56.56,0,0,0,0-.08l-1.38-1.84Zm3.78,4.35a8.07,8.07,0,0,0,1.05-1.73l-2.38-.2a.56.56,0,0,1-.05.08l1.38,1.85Zm1-5.84A1.7,1.7,0,0,0,54.52,55l-1.36,3.35.05,0,2.37-2.8Zm-5.86,7.33a1.69,1.69,0,0,0,1.06.57l1.36-3.35,0,0-2.37,2.81Zm2.78.22v-3h-.07l-1.36,3.35a3.11,3.11,0,0,0,1.44-.37Zm.32-.17a6.57,6.57,0,0,0,1.44-1.21l-1.38-1.85-.07.06v3Zm3.31-5.8a2.74,2.74,0,0,0-.39-1.37l-2.37,2.81a.14.14,0,0,0,0,.06l2.74-1.5Zm-6.58,2A5.58,5.58,0,0,0,49.17,61l2.74-1.51s0-.05,0-.08l-2.38-.2Zm2.94-.67v-3A6.06,6.06,0,0,0,51,56.76l1.38,1.84.07-.06Zm.31-3.17v3l.07,0L54.24,55a3.11,3.11,0,0,0-1.44.37Zm3,3.94a5.52,5.52,0,0,0,.38-1.78L53.39,59s0,.06,0,.09l2.38.19Zm-6.58,2a2.73,2.73,0,0,0,.39,1.36l2.37-2.8a.64.64,0,0,1,0-.07l-2.74,1.51Z"/><g class="cls-13"><path class="cls-14" d="M49.77,64l-.43-.24a2.67,2.67,0,0,1-1.19-2.48,8.45,8.45,0,0,1,4.06-6.68l.43.24a8.41,8.41,0,0,0-4.06,6.68A2.65,2.65,0,0,0,49.77,64Z"/></g></g><path class="cls-22" d="M53.61,47.38c0-3.18-2.34-4.46-5.24-2.88a10.91,10.91,0,0,0-5.23,8.62c0,3.18,2.34,4.46,5.23,2.88A10.9,10.9,0,0,0,53.61,47.38Z"/><g id="ice_cream" data-name="ice cream"><path class="cls-12" d="M46.13,52c.91.3,4.16.81,4.64.9s.64-.23.45-.66S49,47.63,49,47.63Z"/><path class="cls-32" d="M47.92,51.09l.22-.15a.08.08,0,0,0-.13,0l-.31.22a.25.25,0,0,0-.12.22l0,.32c0,.08.08.1.15.05l.09-.07s0,0,0,0l0-.32A.27.27,0,0,1,47.92,51.09Z"/><path class="cls-32" d="M48.81,50.48l.22-.15a.08.08,0,0,0-.13,0l-.31.22a.25.25,0,0,0-.12.22l0,.32c0,.08.08.1.15.05l.09-.07s0,0,0,0l0-.32A.26.26,0,0,1,48.81,50.48Z"/><path class="cls-32" d="M48.76,52l.1-.07a.05.05,0,0,1,0,0l0-.32a.25.25,0,0,1,.12-.22l.22-.15s-.08,0-.14,0l-.31.22a.28.28,0,0,0-.12.22l0,.32C48.62,52,48.69,52,48.76,52Z"/><path class="cls-32" d="M48.11,51.76,47.8,52a.31.31,0,0,0-.12.18l.24.05v-.06a.28.28,0,0,1,.12-.23l.22-.15S48.17,51.72,48.11,51.76Z"/><path class="cls-32" d="M50.1,52.2l-.32.21a.38.38,0,0,0-.09.12l.21,0a.31.31,0,0,1,.11-.21l.22-.15S50.15,52.16,50.1,52.2Z"/><path class="cls-32" d="M50.67,51.8a.27.27,0,0,0-.11.23l0,.32c0,.07.07.09.15,0l.09-.06a.06.06,0,0,1,0,0l0-.32a.18.18,0,0,1,0-.1l0-.12Z"/><path class="cls-32" d="M49.45,49.68l.09-.06s0,0,0,0l0-.32a.18.18,0,0,1,0-.1L49.44,49l-.07.05a.27.27,0,0,0-.11.23l0,.32C49.31,49.71,49.37,49.73,49.45,49.68Z"/><path class="cls-32" d="M50.46,51.2l0,.32c0,.07.07.09.14,0h0c-.06-.13-.12-.27-.19-.41S50.45,51.18,50.46,51.2Z"/><path class="cls-32" d="M47,51.7l.21-.15s-.08,0-.13,0l-.31.21a.32.32,0,0,0-.12.18l.24.06v-.07A.26.26,0,0,1,47,51.7Z"/><path class="cls-32" d="M47.67,50.91l.09-.07a0,0,0,0,1,0,0l0-.32a.27.27,0,0,1,.11-.23l.22-.15s-.08,0-.14,0l-.18.13-.24.37,0,.26C47.53,50.94,47.59,51,47.67,50.91Z"/><path class="cls-32" d="M49,52.14l.22-.15s-.08-.05-.14,0l-.31.22a.28.28,0,0,0-.11.15l.23,0v0A.26.26,0,0,1,49,52.14Z"/><path class="cls-32" d="M49.36,50.15l0,.32c0,.07.08.09.15,0l.09-.06s0,0,0,0l0-.32a.28.28,0,0,1,.11-.23l.11-.07,0-.07-.29.2A.26.26,0,0,0,49.36,50.15Z"/><path class="cls-32" d="M48.83,48.67s0,0-.07,0l-.09.14Z"/><path class="cls-32" d="M49.91,51.52l.22-.15s-.08,0-.14,0l-.31.21a.27.27,0,0,0-.11.23l0,.32c0,.07.07.09.14,0l.1-.06s0,0,0,0l0-.32A.28.28,0,0,1,49.91,51.52Z"/><path class="cls-32" d="M48.3,49.42c0,.08.08.1.15,0l.1-.07s0,0,0,0l0-.32h0l-.2.31Z"/><path class="cls-32" d="M48.79,49.49l-.31.22a.26.26,0,0,0-.11.22l0,.32c0,.08.07.1.15,0l.09-.07s0,0,0,0l0-.32a.26.26,0,0,1,.11-.22l.22-.15S48.85,49.45,48.79,49.49Z"/><path class="cls-32" d="M49.15,48.49l0,.32c0,.07.08.09.15,0h0c-.08-.16-.14-.3-.19-.41A.09.09,0,0,0,49.15,48.49Z"/><path class="cls-32" d="M49.65,51.34l.1-.06a.05.05,0,0,1,0,0l0-.32a.27.27,0,0,1,.12-.23l.22-.15s-.08,0-.14,0l-.31.21a.28.28,0,0,0-.12.23l0,.32C49.51,51.37,49.58,51.39,49.65,51.34Z"/><path class="cls-12" d="M49,46.65c-.39-.3-1-.14-1.56.36-.52-.25-1.33.16-1.9,1a2.27,2.27,0,0,0-.42,2c-.6,1-.67,2-.14,2.44a1,1,0,0,0,.94.09c0,.14,0,.18.28,0a2.23,2.23,0,0,0,.63-1c.08-.26,0-.42.38-.56s.72-.57.61-.89.37-.61.51-.71.44-.11.46-.59.07-.39.28-.51.56-.32.54-.57-.18-.13-.29-.12A1.09,1.09,0,0,0,49,46.65Z"/><path class="cls-32" d="M46.05,52.32s0-.06,0-.07l0,0-.06,0a.82.82,0,0,1-.8-.08c-.46-.37-.41-1.3.12-2.13l.05-.08,0-.06a2,2,0,0,1,.36-1.77,2.47,2.47,0,0,1,.78-.74.9.9,0,0,1,.84-.09l.05,0,0,0a1.9,1.9,0,0,1,.39-.28.83.83,0,0,1,1,0,1,1,0,0,1,.28.84v.08h.12c.1,0,.15,0,.15.06a.06.06,0,0,1,0,.06,1,1,0,0,1-.36.28l0,0-.06,0-.06,0c-.2.11-.21.33-.21.57s-.08.26-.15.3l-.07,0-.08,0,0,0,0,0a1.32,1.32,0,0,0-.5.5.48.48,0,0,0,0,.32.31.31,0,0,1,0,.26.86.86,0,0,1-.31.32l-.11.05-.15.06a.59.59,0,0,0-.29.45.35.35,0,0,1,0,.13,1.75,1.75,0,0,1-.49.83l-.11.07Z"/><path class="cls-12" d="M49.05,47.33c0-.13-.08-.18-.17-.13a.39.39,0,0,0-.13.33c0,.12.09.18.17.13A.4.4,0,0,0,49.05,47.33Z"/><path class="cls-12" d="M48.56,48.1a.16.16,0,0,0-.25,0,.21.21,0,0,0,0,.28.16.16,0,0,0,.25,0A.21.21,0,0,0,48.56,48.1Z"/><path class="cls-12" d="M47.74,49.2c-.11.11-.17.26-.13.32s.15,0,.26-.1.17-.26.13-.33S47.85,49.08,47.74,49.2Z"/><path class="cls-12" d="M46.79,50.55c-.13.17-.21.35-.17.4s.19,0,.33-.2.21-.35.17-.4S46.93,50.38,46.79,50.55Z"/><path class="cls-12" d="M46.2,48.67c-.16.09-.29.22-.28.29s.13,0,.29,0,.29-.23.29-.3S46.36,48.57,46.2,48.67Z"/><path class="cls-12" d="M46.68,47.93c0,.12-.06.22,0,.22s.11-.09.15-.22.06-.22,0-.22S46.72,47.81,46.68,47.93Z"/><path class="cls-12" d="M46.3,51.68c-.06.11-.07.21,0,.23s.14-.06.2-.17.06-.21,0-.23S46.36,51.57,46.3,51.68Z"/></g><g class="cls-13"><polygon class="cls-33" points="31.88 46.15 30.84 45.72 30.73 20.06 31.78 20.48 31.88 46.15"/><polygon class="cls-34" points="31.78 20.48 30.73 20.06 31.84 19.61 32.88 20.04 31.78 20.48"/><polygon class="cls-22" points="32.88 20.04 32.99 45.7 31.88 46.15 31.78 20.48 32.88 20.04"/></g><path class="cls-12" d="M11.17,28.8l20.1-16.67L21.74,33.76a29,29,0,0,1-7-2.51,16.71,16.71,0,0,1-3.58-2.45Z"/><path class="cls-12" d="M21.74,33.76l9.53-21.63L28.7,34.72a41.24,41.24,0,0,1-7-1Z"/><path class="cls-20" d="M28.7,34.72l2.57-22.59,2.58,22.59a44.24,44.24,0,0,1-5.15,0Z"/><path class="cls-20" d="M33.85,34.72,31.27,12.13,44.13,32.8a39.21,39.21,0,0,1-10.28,1.92Z"/><path class="cls-12" d="M44.13,32.8,31.27,12.13l19,17.6a20.18,20.18,0,0,1-3,1.81,27.36,27.36,0,0,1-3.07,1.26Z"/><path class="cls-12" d="M50.24,29.73l-19-17.6,22.78,9.46c.75,2.8-.53,5.72-3.81,8.14Z"/><path class="cls-20" d="M54.05,21.59,31.27,12.13l16.6,3c3.49,1.83,5.54,4.1,6.18,6.45Z"/><path class="cls-20" d="M11.17,28.8l20.1-16.67L13.5,15.91C7.56,19.6,6.75,24.73,11.17,28.8Z"/><path class="cls-32" d="M31.27,12.13l2.63-.46c-1-.06-2-.07-3-.06Z"/><path class="cls-12" d="M31.27,12.13l16.6,3c-.33-.17-.66-.34-1-.49h0a35.9,35.9,0,0,0-13-3Z"/><path class="cls-12" d="M30,11.63a36.63,36.63,0,0,0-14.62,3.22,21.49,21.49,0,0,0-1.92,1.06l17.77-3.77Z"/><path class="cls-32" d="M31.27,12.13l-.4-.52-.83,0,1.23.51Z"/><g class="cls-13"><path class="cls-35" d="M34.8,12.61a1.7,1.7,0,0,1-1,1l-.05,0A3.61,3.61,0,0,1,33,14a6.33,6.33,0,0,1-2.23.21,5.32,5.32,0,0,1-2-.51c-.7-.35-1.05-.81-1.05-1.28v.47c0,.47.35.93,1.05,1.28a5.32,5.32,0,0,0,2,.51A6.35,6.35,0,0,0,33,14.43a4.51,4.51,0,0,0,.78-.3l0,0a1.73,1.73,0,0,0,1-1,1.52,1.52,0,0,0,0-.21V12.4A.76.76,0,0,1,34.8,12.61Z"/><path class="cls-36" d="M33.78,11.12c1.39.7,1.4,1.84,0,2.54a6.21,6.21,0,0,1-5,0c-1.39-.7-1.4-1.84,0-2.54A6.29,6.29,0,0,1,33.78,11.12Z"/></g><polygon class="cls-21" points="26.87 49.06 19.54 53.08 21.75 44.32 29.09 40.3 26.87 49.06"/><polygon class="cls-22" points="31.05 49.93 23.72 53.95 21.75 44.32 29.09 40.3 31.05 49.93"/><path class="cls-37" d="M26,50.67c.13.45,0,.58-.2.73s-.33.28-.46-.18l-.51-1.87c-.13-.45,0-.6.19-.75s.33-.25.46.2Z"/><path class="cls-27" d="M26.45,48.21l-.77-2.77c-.19-.66-.9-.72-1.59-.14a2.5,2.5,0,0,0-.92,2.25l.77,2.77Z"/><polygon class="cls-38" points="23.82 49.88 23.94 50.32 26.45 48.21 26.33 47.77 23.82 49.88"/><path class="cls-38" d="M23.5,48.32c.33.12.37-.41.5-.59s.3-.27.42-.16.11.33.25.32a.4.4,0,0,0,.33-.55l0-.14a.53.53,0,0,1,0-.12c0-.1.06-.27.17-.3a.74.74,0,0,1,.21,0c.23,0,.16-.51.16-.62a.72.72,0,0,1,.22-.44l-.07-.28c-.19-.66-.9-.72-1.59-.14a2.5,2.5,0,0,0-.92,2.25l.2.7A.33.33,0,0,0,23.5,48.32Z"/><path class="cls-25" d="M23.77,46a.15.15,0,0,1-.06.13h0s-.08,0-.1,0h0a.15.15,0,0,1,.06-.13h0s.09,0,.1,0Z"/><path class="cls-25" d="M24.72,45.42a.15.15,0,0,1-.06.13h0s-.09,0-.1,0h0a.15.15,0,0,1,.06-.13h0s.09,0,.1,0Z"/><path class="cls-28" d="M24.2,46.14a.14.14,0,0,1-.05.13h0s-.09,0-.1,0h0a.14.14,0,0,1,.06-.14h0s.08,0,.09,0Z"/><path class="cls-28" d="M25.06,45.79a.18.18,0,0,1-.06.14h0s-.08,0-.1,0h0a.18.18,0,0,1,.06-.14h0s.09,0,.1,0Z"/><path class="cls-28" d="M24.8,47.49a.18.18,0,0,1-.06.14h0s-.09,0-.1,0h0a.18.18,0,0,1,.06-.14h0s.08,0,.1,0Z"/><path class="cls-28" d="M23.69,47.87a.15.15,0,0,1-.06.13h0s-.09,0-.1,0h0a.16.16,0,0,1,.06-.14h0s.08,0,.1,0Z"/><path class="cls-25" d="M25.38,45.24a.18.18,0,0,1-.06.14h0s-.08,0-.1,0h0a.18.18,0,0,1,.06-.14h0s.09,0,.1,0Z"/><path class="cls-25" d="M23.57,47.13a.12.12,0,0,1-.05.13h0s-.09,0-.1,0h0a.14.14,0,0,1,.06-.14h0s.08,0,.09,0Z"/><path class="cls-25" d="M24.44,46.64a.18.18,0,0,1-.06.14h0s-.09,0-.1,0h0a.18.18,0,0,1,.06-.14h0s.09,0,.1,0Z"/><path class="cls-25" d="M25.3,46.31a.15.15,0,0,1-.06.13h0s-.09,0-.1,0h0a.15.15,0,0,1,.06-.13h0s.08,0,.1,0Z"/><path class="cls-23" d="M26.38,50.87c-.17.57-.3.6-.47.62s-.3,0-.14-.54l.68-2.35c.17-.58.31-.63.48-.65s.29,0,.13.57Z"/><path class="cls-19" d="M26.64,46.09c.18,0,.27-.32.45-.35s.1.27.28.25.27-.32.45-.35.1.27.28.25.26-.32.45-.35.1.27.27.25l.44-1.52a1.88,1.88,0,0,0,.06-.31.26.26,0,0,1-.14.09c-.17,0-.09-.28-.26-.25s-.26.32-.43.34-.09-.27-.26-.25-.26.32-.43.35-.09-.28-.26-.25-.26.32-.44.34-.08-.27-.26-.25h0a2.28,2.28,0,0,0-.23.56l-.36,1.26a.24.24,0,0,1,.11-.06C26.54,45.82,26.46,46.11,26.64,46.09Z"/><path class="cls-25" d="M27.1,44.33c.18,0,.26-.32.44-.34s.08.27.26.25.25-.32.43-.35.09.27.26.25.26-.32.43-.34.09.27.26.25a.26.26,0,0,0,.14-.09,1.32,1.32,0,0,0,0-.44.42.42,0,0,1-.44-.05.64.64,0,0,1-.15-.54.23.23,0,0,1,0-.07H28.5l-.23,0a2.21,2.21,0,0,0-1.43,1.18h0C27,44.06,26.93,44.35,27.1,44.33Z"/><path class="cls-19" d="M27.93,47.32c-.2,0-.28.32-.48.35s-.11-.27-.3-.24-.28.32-.48.35-.11-.27-.3-.24-.28.32-.48.35-.12,0-.14-.11c-.06.65.27,1.08.83,1l.23,0a2.2,2.2,0,0,0,1.43-1.19h0C28,47.59,28.12,47.3,27.93,47.32Z"/><path class="cls-25" d="M28.82,45.79c-.17,0-.09-.27-.27-.25s-.27.32-.45.35-.1-.27-.28-.25-.27.32-.45.35-.1-.27-.28-.25-.27.32-.45.35-.1-.27-.28-.25a.24.24,0,0,0-.11.06l-.43,1.47a2.35,2.35,0,0,0-.07.41c0,.06.05.12.14.11s.28-.33.48-.35.11.26.3.24.28-.32.48-.35.11.27.3.24.28-.32.48-.35.11.27.3.24h0a2.21,2.21,0,0,0,.23-.55Z"/><polygon class="cls-20" points="15.31 51.87 12.56 50.35 12.56 64.04 15.31 65.56 15.31 51.87"/><polygon class="cls-20" points="21.04 54.97 18.29 53.45 18.29 67.15 21.04 68.67 21.04 54.97"/></g></svg>