<svg xmlns="http://www.w3.org/2000/svg" viewBox="0 0 76.16 96.05"><defs><style>.cls-1{isolation:isolate;}.cls-2{fill:#d5e7eb;}.cls-3{fill:#90a8ad;}.cls-4{fill:#a7c1c7;}.cls-5{fill:#f2dbd3;}.cls-6{fill:#26839e;}.cls-7{fill:#2fa3c4;}.cls-8{fill:#2c96b5;}.cls-9{fill:#35b6db;}.cls-10{fill:#f9f9f9;}.cls-11{fill:#ab280f;}.cls-12{fill:#d93313;}.cls-13{fill:#2788a3;mix-blend-mode:screen;}.cls-14{fill:#2a92b0;}.cls-15{fill:#d1ac27;}.cls-16{fill:#f5ca2e;}.cls-17{fill:#c4814f;}.cls-18{fill:#d18a54;}.cls-19{fill:#ba7a4b;}.cls-20{fill:#9e6840;}.cls-21{fill:#fff0f0;}</style></defs><title>設施介紹-資產 2</title><g class="cls-1"><g id="圖層_2" data-name="圖層 2"><g id="Layer_1" data-name="Layer 1"><path class="cls-2" d="M16.64,48.83V91.21a.63.63,0,0,1-.32.5l-.12.08a2.13,2.13,0,0,1-1,.21h-.15l-.17,0a1.93,1.93,0,0,1-.69-.22l0,0a.66.66,0,0,1-.37-.53V48.83Z"/><path class="cls-3" d="M14.92,48.83V92a1.93,1.93,0,0,1-.69-.22l0,0a.66.66,0,0,1-.37-.53V48.83Z"/><path class="cls-4" d="M16.64,48.83V91.21a.63.63,0,0,1-.32.5V48.83Z"/><path class="cls-5" d="M16.64,48.83c0,.44-.63.79-1.4.79s-1.41-.35-1.41-.79.63-.8,1.41-.8S16.64,48.39,16.64,48.83Z"/><path class="cls-2" d="M62.8,21.92V64.29a.65.65,0,0,1-.32.51l-.12.07a2,2,0,0,1-1,.22h-.32a2.15,2.15,0,0,1-.69-.22l0,0a.66.66,0,0,1-.37-.54V21.92Z"/><path class="cls-3" d="M61.08,21.92V65.07a2.15,2.15,0,0,1-.69-.22l0,0a.66.66,0,0,1-.37-.54V21.92Z"/><path class="cls-4" d="M62.8,21.92V64.29a.65.65,0,0,1-.32.51V21.92Z"/><path class="cls-5" d="M62.8,21.91c0,.44-.63.8-1.4.8S60,22.35,60,21.91s.63-.79,1.41-.79S62.8,21.47,62.8,21.91Z"/><path class="cls-6" d="M65.61,66.57c0,.59.7,1.14,1.94,1.2s2.38-.37,2.55-1a13.64,13.64,0,0,0,0-1.81c-.2-.43-.94.67-1.91.62S66,64.53,65.61,65C65.55,65.08,65.62,66.49,65.61,66.57Z"/><path class="cls-7" d="M65.61,65c-.17.6.7,1.13,1.94,1.19s2.38-.37,2.55-1-.7-1.13-1.94-1.2S65.78,64.35,65.61,65Z"/><path class="cls-8" d="M66.36,64.82c0,.39.46.75,1.29.8s1.59-.25,1.71-.65a8.12,8.12,0,0,0,0-1.21c-.13-.29-.62.44-1.27.41s-1.47-.72-1.71-.4C66.32,63.82,66.36,64.76,66.36,64.82Z"/><path class="cls-9" d="M66.36,63.73c-.12.4.46.76,1.29.8s1.59-.25,1.71-.65-.47-.75-1.3-.8S66.47,63.33,66.36,63.73Z"/><path class="cls-10" d="M68.1,63.81l-.39-.25c.62-1,2.8-15.41,3.76-24.68l.47,0C71.69,41.3,69,62.4,68.1,63.81Z"/><path class="cls-11" d="M72.12,38.71c-.1-.2-.25-.41-.47-.43a.17.17,0,0,0-.14,0l-.05.06c-.17.32-.35.63-.53.94h0l.25.15.14.08a.55.55,0,0,0,.18,0,3,3,0,0,0,.93-.15A4.49,4.49,0,0,0,72.12,38.71Z"/><path class="cls-12" d="M75.91,27.34a6.68,6.68,0,0,0-.66-2.1,4.63,4.63,0,0,0-5.2-2,6,6,0,0,0-4,4.15,8.84,8.84,0,0,0,.51,5.88,15.61,15.61,0,0,0,2.91,4.33,2.79,2.79,0,0,0,1.58.9,1.71,1.71,0,0,0,.5,0A4.64,4.64,0,0,0,74.69,36,12.92,12.92,0,0,0,75.91,27.34Z"/><path class="cls-13" d="M74.46,25.77a3.36,3.36,0,0,0-1.26-1.52,2.51,2.51,0,0,0-3.13.77,2.78,2.78,0,0,0-.16,2.28,8,8,0,0,0,1.07,3,3.37,3.37,0,0,0,2.61,1.6,1.55,1.55,0,0,0,1-.33,1.92,1.92,0,0,0,.51-1.19A8,8,0,0,0,74.46,25.77Z"/><path class="cls-10" d="M67.57,63.79c-1.69-3.63-5.4-24-5.54-24.91l.46-.07C62.53,39,66.33,60,68,63.59Z"/><rect class="cls-10" x="67.34" y="48.35" width="0.47" height="15.38" transform="translate(-1.88 2.35) rotate(-1.97)"/><path class="cls-14" d="M62.49,38.28c-.11-.19-.25-.4-.47-.43a.25.25,0,0,0-.15,0,.25.25,0,0,0,0,.07l-.53.94h0l.25.16a.51.51,0,0,0,.15.07.47.47,0,0,0,.17,0A3,3,0,0,0,62.8,39,6.36,6.36,0,0,0,62.49,38.28Z"/><path class="cls-7" d="M66.27,26.92a6.6,6.6,0,0,0-.66-2.1,4.63,4.63,0,0,0-5.2-2,6.07,6.07,0,0,0-4,4.16,8.88,8.88,0,0,0,.51,5.87,15.84,15.84,0,0,0,2.92,4.34,2.82,2.82,0,0,0,1.57.9,1.72,1.72,0,0,0,.5,0,4.71,4.71,0,0,0,3.13-2.48A13,13,0,0,0,66.27,26.92Z"/><path class="cls-13" d="M64.82,25.35a3.33,3.33,0,0,0-1.26-1.53,2.51,2.51,0,0,0-3.13.77,2.82,2.82,0,0,0-.16,2.28,8.13,8.13,0,0,0,1.07,3A3.35,3.35,0,0,0,64,31.45,1.54,1.54,0,0,0,65,31.12a1.93,1.93,0,0,0,.51-1.19A7.94,7.94,0,0,0,64.82,25.35Z"/><path class="cls-15" d="M67.76,48c-.11-.2-.25-.4-.47-.43a.2.2,0,0,0-.15,0,.16.16,0,0,0,0,.07l-.53.94h0l.25.16.15.07a.47.47,0,0,0,.17,0,3,3,0,0,0,.94-.15A6.36,6.36,0,0,0,67.76,48Z"/><path class="cls-16" d="M71.54,36.66a6.76,6.76,0,0,0-.66-2.1,4.63,4.63,0,0,0-5.2-2,6,6,0,0,0-4,4.16,8.88,8.88,0,0,0,.51,5.87,15.65,15.65,0,0,0,2.92,4.33,2.73,2.73,0,0,0,1.57.9,1.72,1.72,0,0,0,.5,0,4.62,4.62,0,0,0,3.12-2.48A12.92,12.92,0,0,0,71.54,36.66Z"/><path class="cls-13" d="M70.09,35.09a3.36,3.36,0,0,0-1.26-1.52,2.51,2.51,0,0,0-3.13.77,2.82,2.82,0,0,0-.16,2.28,8.19,8.19,0,0,0,1.07,3,3.38,3.38,0,0,0,2.62,1.6,1.59,1.59,0,0,0,1-.33,2,2,0,0,0,.51-1.19A8,8,0,0,0,70.09,35.09Z"/><polygon class="cls-17" points="13.34 27.66 15.46 28.91 63.38 1.25 61.26 0 13.34 27.66"/><path class="cls-18" d="M45.86,3.76l-.33.35L34,16.67l-5.14,4.5-2.08-1.3c1.12-7.68,6-15.32,11.38-17.54a6.93,6.93,0,0,1,3.69-.55l.15,0h0l.81.21.67.3.65.4Z"/><path class="cls-19" d="M49.23,9.42c-1-5.13-4.45-7.65-9-5.79C34.9,5.85,30,13.49,28.88,21.17L15.46,28.91l0,22.57L63.35,23.82l0-22.57Z"/><polygon class="cls-18" points="17.97 47.08 60.12 22.74 60.15 6.05 18 30.38 18.01 37.37 17.97 38.2 17.97 47.08"/><polygon class="cls-20" points="58.92 6.76 58.88 22.13 17.97 45.75 17.97 47.08 60.12 22.74 60.15 6.05 58.92 6.76"/><polygon class="cls-20" points="15.46 28.91 13.34 27.66 13.34 50.18 15.43 51.48 15.46 28.91"/><path class="cls-16" d="M20.36,28.54a.32.32,0,0,1-.25-.12.89.89,0,0,1-.16-.65,1.78,1.78,0,0,1,.84-1.4.72.72,0,0,1,.19,0,.32.32,0,0,1,.25.12.89.89,0,0,1,.16.65,1.75,1.75,0,0,1-.84,1.39A.49.49,0,0,1,20.36,28.54Z"/><path class="cls-16" d="M24.1,26.41a.31.31,0,0,1-.25-.11.85.85,0,0,1-.15-.65,1.74,1.74,0,0,1,.84-1.4.65.65,0,0,1,.18,0,.33.33,0,0,1,.25.11.88.88,0,0,1,.16.66,1.75,1.75,0,0,1-.84,1.39A.46.46,0,0,1,24.1,26.41Z"/><path class="cls-16" d="M27.84,24.29a.32.32,0,0,1-.25-.11.89.89,0,0,1-.15-.65,1.74,1.74,0,0,1,.84-1.4.43.43,0,0,1,.19,0,.36.36,0,0,1,.25.11.86.86,0,0,1,.15.66A1.72,1.72,0,0,1,28,24.25.43.43,0,0,1,27.84,24.29Z"/><path class="cls-16" d="M31.59,22.17a.33.33,0,0,1-.25-.11.85.85,0,0,1-.16-.65A1.77,1.77,0,0,1,32,20a.46.46,0,0,1,.19,0,.34.34,0,0,1,.25.11.86.86,0,0,1,.15.66,1.71,1.71,0,0,1-.84,1.39A.39.39,0,0,1,31.59,22.17Z"/><path class="cls-16" d="M35.33,20.05a.34.34,0,0,1-.25-.11.9.9,0,0,1-.16-.66,1.76,1.76,0,0,1,.84-1.39.46.46,0,0,1,.19,0,.34.34,0,0,1,.25.11.9.9,0,0,1,.16.66A1.76,1.76,0,0,1,35.52,20,.46.46,0,0,1,35.33,20.05Z"/><path class="cls-16" d="M39.07,17.93a.34.34,0,0,1-.25-.11.92.92,0,0,1-.16-.66,1.75,1.75,0,0,1,.84-1.39.46.46,0,0,1,.19,0,.31.31,0,0,1,.25.11.85.85,0,0,1,.16.65,1.77,1.77,0,0,1-.84,1.4A.72.72,0,0,1,39.07,17.93Z"/><path class="cls-16" d="M42.81,15.81a.34.34,0,0,1-.25-.11.88.88,0,0,1-.15-.66,1.72,1.72,0,0,1,.84-1.39.42.42,0,0,1,.18,0,.3.3,0,0,1,.25.11.85.85,0,0,1,.16.65,1.77,1.77,0,0,1-.84,1.4A.65.65,0,0,1,42.81,15.81Z"/><path class="cls-16" d="M46.55,13.69a.33.33,0,0,1-.25-.12.89.89,0,0,1-.15-.65,1.76,1.76,0,0,1,.84-1.4.65.65,0,0,1,.19,0,.33.33,0,0,1,.25.12.85.85,0,0,1,.15.65,1.72,1.72,0,0,1-.84,1.39A.45.45,0,0,1,46.55,13.69Z"/><path class="cls-16" d="M50.3,11.56a.3.3,0,0,1-.25-.11.85.85,0,0,1-.16-.65,1.77,1.77,0,0,1,.84-1.4.72.72,0,0,1,.19,0,.34.34,0,0,1,.25.11.88.88,0,0,1,.15.66,1.71,1.71,0,0,1-.83,1.39A.46.46,0,0,1,50.3,11.56Z"/><path class="cls-16" d="M54,9.44a.31.31,0,0,1-.25-.11.89.89,0,0,1-.16-.65,1.77,1.77,0,0,1,.84-1.4.46.46,0,0,1,.19,0,.34.34,0,0,1,.25.11.92.92,0,0,1,.16.66,1.75,1.75,0,0,1-.84,1.39A.46.46,0,0,1,54,9.44Z"/><path class="cls-16" d="M57.78,7.32a.34.34,0,0,1-.25-.11.89.89,0,0,1-.16-.65,1.77,1.77,0,0,1,.84-1.4.46.46,0,0,1,.19,0,.34.34,0,0,1,.25.11.86.86,0,0,1,.16.66A1.76,1.76,0,0,1,58,7.28.46.46,0,0,1,57.78,7.32Z"/><path class="cls-16" d="M16.62,30.66a.34.34,0,0,1-.25-.11.93.93,0,0,1-.16-.66,1.75,1.75,0,0,1,.84-1.39.46.46,0,0,1,.19,0,.31.31,0,0,1,.25.11.89.89,0,0,1,.16.65,1.77,1.77,0,0,1-.84,1.4A.72.72,0,0,1,16.62,30.66Z"/><path class="cls-16" d="M16.62,35.51a.34.34,0,0,1-.25-.11.92.92,0,0,1-.16-.66,1.75,1.75,0,0,1,.84-1.39.46.46,0,0,1,.19,0,.31.31,0,0,1,.25.11.89.89,0,0,1,.16.65,1.77,1.77,0,0,1-.84,1.4A.72.72,0,0,1,16.62,35.51Z"/><path class="cls-16" d="M16.62,40.36a.34.34,0,0,1-.25-.11.92.92,0,0,1-.16-.66,1.75,1.75,0,0,1,.84-1.39.46.46,0,0,1,.19,0,.31.31,0,0,1,.25.11.89.89,0,0,1,.16.65,1.77,1.77,0,0,1-.84,1.4A.72.72,0,0,1,16.62,40.36Z"/><path class="cls-16" d="M16.62,45.21a.34.34,0,0,1-.25-.11.9.9,0,0,1-.16-.66,1.76,1.76,0,0,1,.84-1.39.46.46,0,0,1,.19,0,.31.31,0,0,1,.25.11.89.89,0,0,1,.16.65,1.77,1.77,0,0,1-.84,1.4A.46.46,0,0,1,16.62,45.21Z"/><path class="cls-16" d="M16.62,50.06a.34.34,0,0,1-.25-.11.9.9,0,0,1-.16-.66,1.76,1.76,0,0,1,.84-1.39.46.46,0,0,1,.19,0,.34.34,0,0,1,.25.11.9.9,0,0,1,.16.66A1.76,1.76,0,0,1,16.81,50,.46.46,0,0,1,16.62,50.06Z"/><path class="cls-16" d="M20.36,47.94a.34.34,0,0,1-.25-.11.92.92,0,0,1-.16-.66,1.75,1.75,0,0,1,.84-1.39.46.46,0,0,1,.19,0,.31.31,0,0,1,.25.11.89.89,0,0,1,.16.65,1.77,1.77,0,0,1-.84,1.4A.72.72,0,0,1,20.36,47.94Z"/><path class="cls-16" d="M24.1,45.82a.34.34,0,0,1-.25-.11.88.88,0,0,1-.15-.66,1.72,1.72,0,0,1,.84-1.39.42.42,0,0,1,.18,0,.3.3,0,0,1,.25.11.85.85,0,0,1,.16.65,1.77,1.77,0,0,1-.84,1.4A.72.72,0,0,1,24.1,45.82Z"/><path class="cls-16" d="M27.84,43.7a.33.33,0,0,1-.25-.12.89.89,0,0,1-.15-.65,1.76,1.76,0,0,1,.84-1.4.65.65,0,0,1,.19,0,.33.33,0,0,1,.25.12.85.85,0,0,1,.15.65A1.72,1.72,0,0,1,28,43.65.45.45,0,0,1,27.84,43.7Z"/><path class="cls-16" d="M31.59,41.57a.3.3,0,0,1-.25-.11.85.85,0,0,1-.16-.65,1.77,1.77,0,0,1,.84-1.4.72.72,0,0,1,.19,0,.34.34,0,0,1,.25.11.88.88,0,0,1,.15.66,1.7,1.7,0,0,1-.84,1.39A.39.39,0,0,1,31.59,41.57Z"/><path class="cls-16" d="M35.33,39.45a.31.31,0,0,1-.25-.11.89.89,0,0,1-.16-.65,1.77,1.77,0,0,1,.84-1.4.46.46,0,0,1,.19,0,.34.34,0,0,1,.25.11.92.92,0,0,1,.16.66,1.75,1.75,0,0,1-.84,1.39A.46.46,0,0,1,35.33,39.45Z"/><path class="cls-16" d="M39.07,37.33a.34.34,0,0,1-.25-.11.89.89,0,0,1-.16-.65,1.77,1.77,0,0,1,.84-1.4.46.46,0,0,1,.19,0,.34.34,0,0,1,.25.11.86.86,0,0,1,.16.66,1.76,1.76,0,0,1-.84,1.39A.46.46,0,0,1,39.07,37.33Z"/><path class="cls-16" d="M42.81,35.21a.34.34,0,0,1-.25-.11.86.86,0,0,1-.15-.66,1.74,1.74,0,0,1,.84-1.39.42.42,0,0,1,.18,0,.33.33,0,0,1,.25.11.86.86,0,0,1,.16.66A1.76,1.76,0,0,1,43,35.17.43.43,0,0,1,42.81,35.21Z"/><path class="cls-16" d="M46.55,33.09A.36.36,0,0,1,46.3,33a.9.9,0,0,1-.15-.66A1.72,1.72,0,0,1,47,30.93a.43.43,0,0,1,.19,0,.32.32,0,0,1,.25.11.85.85,0,0,1,.15.65,1.74,1.74,0,0,1-.84,1.4A.43.43,0,0,1,46.55,33.09Z"/><path class="cls-16" d="M50.3,31a.33.33,0,0,1-.25-.11.87.87,0,0,1-.16-.66,1.75,1.75,0,0,1,.84-1.39.46.46,0,0,1,.19,0,.31.31,0,0,1,.25.11.85.85,0,0,1,.15.65,1.73,1.73,0,0,1-.83,1.4A.72.72,0,0,1,50.3,31Z"/><path class="cls-16" d="M54,28.85a.32.32,0,0,1-.25-.12.89.89,0,0,1-.16-.65,1.75,1.75,0,0,1,.84-1.39.49.49,0,0,1,.19-.05.32.32,0,0,1,.25.12.89.89,0,0,1,.16.65,1.78,1.78,0,0,1-.84,1.4A.72.72,0,0,1,54,28.85Z"/><path class="cls-16" d="M57.78,26.72a.31.31,0,0,1-.25-.11.89.89,0,0,1-.16-.65,1.77,1.77,0,0,1,.84-1.4.72.72,0,0,1,.19,0,.34.34,0,0,1,.25.11.88.88,0,0,1,.16.66A1.75,1.75,0,0,1,58,26.68.46.46,0,0,1,57.78,26.72Z"/><path class="cls-16" d="M61.52,5.2a.34.34,0,0,1-.25-.11.86.86,0,0,1-.15-.66A1.74,1.74,0,0,1,62,3a.42.42,0,0,1,.18,0,.36.36,0,0,1,.26.11.9.9,0,0,1,.15.66,1.74,1.74,0,0,1-.84,1.39A.43.43,0,0,1,61.52,5.2Z"/><path class="cls-16" d="M61.52,10.05a.34.34,0,0,1-.25-.11.85.85,0,0,1-.15-.65A1.74,1.74,0,0,1,62,7.89a.42.42,0,0,1,.18,0A.36.36,0,0,1,62.4,8a.9.9,0,0,1,.15.66A1.74,1.74,0,0,1,61.71,10,.43.43,0,0,1,61.52,10.05Z"/><path class="cls-16" d="M61.52,14.9a.34.34,0,0,1-.25-.11.85.85,0,0,1-.15-.65,1.74,1.74,0,0,1,.84-1.4.42.42,0,0,1,.18,0,.36.36,0,0,1,.26.11.9.9,0,0,1,.15.66,1.74,1.74,0,0,1-.84,1.39A.43.43,0,0,1,61.52,14.9Z"/><path class="cls-16" d="M61.52,19.75a.34.34,0,0,1-.25-.11.85.85,0,0,1-.15-.65,1.74,1.74,0,0,1,.84-1.4.42.42,0,0,1,.18,0,.36.36,0,0,1,.26.11.9.9,0,0,1,.15.66,1.72,1.72,0,0,1-.84,1.39A.43.43,0,0,1,61.52,19.75Z"/><path class="cls-16" d="M61.52,24.6a.31.31,0,0,1-.25-.11.85.85,0,0,1-.15-.65,1.74,1.74,0,0,1,.84-1.4.65.65,0,0,1,.18,0,.36.36,0,0,1,.26.11.92.92,0,0,1,.15.66,1.72,1.72,0,0,1-.84,1.39A.43.43,0,0,1,61.52,24.6Z"/><path class="cls-16" d="M40.42,6.84c-3.65,1.5-7,6.69-7.73,11.9l13.8-8C45.84,7.28,43.47,5.58,40.42,6.84Z"/><path class="cls-19" d="M23.32,30.69a3.05,3.05,0,0,0-1.23,1.76,9.89,9.89,0,0,0-.45,3.19c0,2.6.59,3.57,1.77,2.89A5.93,5.93,0,0,0,25,37v1.86a6,6,0,0,1-1.84,1.6c-1.1.63-1.95.61-2.54-.06s-.89-1.92-.89-3.75a11.69,11.69,0,0,1,.92-4.79,6.24,6.24,0,0,1,2.54-3,4.14,4.14,0,0,1,1-.42,2.7,2.7,0,0,1,1.06,0l-.61,2a2.62,2.62,0,0,0-.64-.07A1.57,1.57,0,0,0,23.32,30.69Z"/><path class="cls-19" d="M26.76,38.31V27.06l1.71-1V37.33Z"/><path class="cls-19" d="M32.37,30.73v4.38l-1.83,1V24.9l2.39-1.36c1-.57,1.75-.72,2.23-.45s.72,1,.72,2.11a5.68,5.68,0,0,1-1.25,3.69l1.88,3.85-1.95,1.12L33,30.36Zm0-1.8.46-.26a2.23,2.23,0,0,0,.93-1A3.2,3.2,0,0,0,34,26.31c0-.57-.1-.93-.3-1.06s-.5-.07-.92.16l-.45.26Z"/><path class="cls-19" d="M40.65,20.81a3.05,3.05,0,0,0-1.23,1.76A9.82,9.82,0,0,0,39,25.75c0,2.61.59,3.57,1.77,2.9a6.26,6.26,0,0,0,1.63-1.5V29a6,6,0,0,1-1.84,1.6c-1.1.63-2,.6-2.54-.07s-.89-1.91-.89-3.74A11.69,11.69,0,0,1,38,22a6.15,6.15,0,0,1,2.54-3,4.14,4.14,0,0,1,1-.42,2.84,2.84,0,0,1,1,0l-.6,2a2.62,2.62,0,0,0-.64-.07A1.47,1.47,0,0,0,40.65,20.81Z"/><path class="cls-19" d="M49.78,13.93v7.28A7.46,7.46,0,0,1,49,24.73a5.82,5.82,0,0,1-2.28,2.36c-1,.55-1.72.62-2.23.21s-.76-1.29-.76-2.66V17.39l1.81-1v7.4c0,1.43.41,1.91,1.24,1.44a2.15,2.15,0,0,0,.89-1.06A4.31,4.31,0,0,0,48,22.41V15Z"/><path class="cls-19" d="M55.93,18.57a5.65,5.65,0,0,1-.69,2.81,5.21,5.21,0,0,1-2,2,4,4,0,0,1-2.18.67V22a2.92,2.92,0,0,0,2-.33,2,2,0,0,0,.79-.78,2.21,2.21,0,0,0,.26-1.05,1.08,1.08,0,0,0-.31-.85,2.25,2.25,0,0,0-1-.44,2.26,2.26,0,0,1-1-.41,1.9,1.9,0,0,1-.5-.74,3.51,3.51,0,0,1-.18-1.23,5.48,5.48,0,0,1,.7-2.69,4.93,4.93,0,0,1,1.88-1.91A3.52,3.52,0,0,1,55.89,11l-.61,2a3.74,3.74,0,0,0-.67,0,1.92,1.92,0,0,0-.75.26,1.6,1.6,0,0,0-.68.73,2.24,2.24,0,0,0-.24,1,1.07,1.07,0,0,0,.28.83,2,2,0,0,0,1,.4,2,2,0,0,1,1.34.74A2.72,2.72,0,0,1,55.93,18.57Z"/><path class="cls-21" d="M24.15,30.75a3,3,0,0,0-1.24,1.76,9.84,9.84,0,0,0-.45,3.19c0,2.6.59,3.57,1.77,2.89a6.26,6.26,0,0,0,1.63-1.5V39A6,6,0,0,1,24,40.55c-1.11.63-2,.61-2.55-.06s-.88-1.92-.88-3.75A11.7,11.7,0,0,1,21.51,32a6.2,6.2,0,0,1,2.54-3,4.14,4.14,0,0,1,1-.42,2.89,2.89,0,0,1,1.06,0l-.61,2.05a2.62,2.62,0,0,0-.64-.07A1.51,1.51,0,0,0,24.15,30.75Z"/><path class="cls-21" d="M27.58,38.37V27.12l1.71-1V37.39Z"/><path class="cls-21" d="M33.19,30.79v4.38l-1.83,1V25l2.39-1.36c1-.57,1.75-.72,2.23-.45s.73,1,.73,2.11A5.69,5.69,0,0,1,35.45,29l1.88,3.85-1.95,1.12-1.54-3.5Zm0-1.8.47-.26a2.27,2.27,0,0,0,.92-.95,3.2,3.2,0,0,0,.28-1.41c0-.58-.1-.93-.3-1.06s-.5-.08-.92.16l-.45.26Z"/><path class="cls-21" d="M41.48,20.87a3,3,0,0,0-1.24,1.75,9.93,9.93,0,0,0-.45,3.19c0,2.61.59,3.57,1.77,2.9a6.11,6.11,0,0,0,1.63-1.5v1.86a5.88,5.88,0,0,1-1.83,1.59c-1.11.63-2,.61-2.55-.06s-.88-1.91-.88-3.74a11.66,11.66,0,0,1,.91-4.79,6.2,6.2,0,0,1,2.54-3,3.79,3.79,0,0,1,1-.42,2.69,2.69,0,0,1,1.06,0l-.61,2a3.24,3.24,0,0,0-.64-.06A1.44,1.44,0,0,0,41.48,20.87Z"/><path class="cls-21" d="M50.6,14v7.28a7.46,7.46,0,0,1-.79,3.52,5.76,5.76,0,0,1-2.28,2.36c-1,.55-1.72.62-2.23.21s-.76-1.3-.76-2.66V17.45l1.81-1v7.4c0,1.43.41,1.91,1.24,1.44a2.15,2.15,0,0,0,.89-1.06,4.31,4.31,0,0,0,.31-1.73V15Z"/><path class="cls-21" d="M56.76,18.63a5.56,5.56,0,0,1-.7,2.81,5.21,5.21,0,0,1-2,2,3.91,3.91,0,0,1-2.18.66V22a2.91,2.91,0,0,0,2-.33,2,2,0,0,0,.79-.78A2.1,2.1,0,0,0,55,19.86a1.08,1.08,0,0,0-.31-.85,2.25,2.25,0,0,0-1-.44,2.16,2.16,0,0,1-1-.42,1.69,1.69,0,0,1-.51-.74A3.41,3.41,0,0,1,52,16.19a5.38,5.38,0,0,1,.71-2.69,4.94,4.94,0,0,1,1.87-1.92,3.58,3.58,0,0,1,2.17-.51l-.6,2a3.86,3.86,0,0,0-.68,0,1.92,1.92,0,0,0-.75.26,1.66,1.66,0,0,0-.68.73,2.24,2.24,0,0,0-.24,1,1.07,1.07,0,0,0,.29.83,2,2,0,0,0,1,.4,2,2,0,0,1,1.34.74A2.72,2.72,0,0,1,56.76,18.63Z"/><path class="cls-6" d="M9.47,94.85c-.05.59.7,1.13,1.94,1.19s2.38-.37,2.55-1a13.79,13.79,0,0,0,0-1.82c-.2-.43-.94.67-1.91.62s-2.19-1.07-2.55-.6C9.41,93.35,9.48,94.77,9.47,94.85Z"/><path class="cls-7" d="M9.47,93.22c-.16.6.7,1.14,1.94,1.2s2.38-.37,2.55-1-.7-1.13-1.94-1.19S9.64,92.63,9.47,93.22Z"/><path class="cls-8" d="M10.22,93.09c0,.4.47.76,1.29.8s1.59-.25,1.71-.64a9.9,9.9,0,0,0,0-1.22c-.14-.29-.63.45-1.28.42s-1.46-.72-1.7-.41A9.2,9.2,0,0,0,10.22,93.09Z"/><path class="cls-9" d="M10.22,92c-.12.4.47.75,1.29.8s1.59-.25,1.71-.65-.47-.76-1.3-.8S10.33,91.61,10.22,92Z"/><path class="cls-10" d="M12,92.08l-.4-.24c.62-1,2.8-15.41,3.77-24.69l.46,0C15.56,69.58,12.85,90.67,12,92.08Z"/><path class="cls-11" d="M16,67c-.1-.19-.25-.4-.46-.43a.25.25,0,0,0-.15,0l0,.07-.53.94h0l.25.16a.46.46,0,0,0,.14.07.55.55,0,0,0,.18,0,2.92,2.92,0,0,0,.93-.15A4.93,4.93,0,0,0,16,67Z"/><path class="cls-12" d="M19.77,55.62a6.6,6.6,0,0,0-.66-2.1,4.63,4.63,0,0,0-5.2-2,6,6,0,0,0-4,4.16,8.81,8.81,0,0,0,.51,5.87,15.62,15.62,0,0,0,2.92,4.34,2.78,2.78,0,0,0,1.57.9,1.71,1.71,0,0,0,.5,0,4.69,4.69,0,0,0,3.12-2.48A12.93,12.93,0,0,0,19.77,55.62Z"/><path class="cls-13" d="M18.32,54.05a3.33,3.33,0,0,0-1.26-1.53,2.51,2.51,0,0,0-3.13.77,2.78,2.78,0,0,0-.16,2.28,8.13,8.13,0,0,0,1.07,3,3.35,3.35,0,0,0,2.61,1.6,1.5,1.5,0,0,0,1.05-.33A1.88,1.88,0,0,0,19,58.63,7.94,7.94,0,0,0,18.32,54.05Z"/><path class="cls-10" d="M11.44,92.06C9.74,88.44,6,68,5.89,67.16l.46-.08c0,.21,3.84,21.22,5.51,24.78Z"/><rect class="cls-10" x="11.2" y="76.62" width="0.47" height="15.38" transform="translate(-2.89 0.44) rotate(-1.97)"/><path class="cls-14" d="M6.35,66.56c-.11-.2-.25-.41-.47-.43a.17.17,0,0,0-.14,0l0,.06-.53.94h0l.24.15.15.08a.47.47,0,0,0,.17,0,3,3,0,0,0,.94-.15A5.64,5.64,0,0,0,6.35,66.56Z"/><path class="cls-7" d="M10.13,55.19a7,7,0,0,0-.65-2.1,4.63,4.63,0,0,0-5.2-2,6.07,6.07,0,0,0-4,4.15A8.9,8.9,0,0,0,.8,61.12a15.65,15.65,0,0,0,2.92,4.33,2.76,2.76,0,0,0,1.57.9,1.77,1.77,0,0,0,.51,0,4.66,4.66,0,0,0,3.12-2.48A12.92,12.92,0,0,0,10.13,55.19Z"/><path class="cls-13" d="M8.68,53.62A3.24,3.24,0,0,0,7.42,52.1a2.52,2.52,0,0,0-3.13.77,2.82,2.82,0,0,0-.16,2.28,8.19,8.19,0,0,0,1.07,3,3.39,3.39,0,0,0,2.62,1.6,1.57,1.57,0,0,0,1-.33,2,2,0,0,0,.51-1.19A8,8,0,0,0,8.68,53.62Z"/><path class="cls-15" d="M11.62,76.31c-.11-.2-.25-.41-.47-.44-.05,0-.11,0-.14,0A.15.15,0,0,0,11,76l-.53.94h0l.24.16.15.08a.47.47,0,0,0,.17,0,3,3,0,0,0,.94-.15A5.51,5.51,0,0,0,11.62,76.31Z"/><path class="cls-16" d="M15.4,64.94a6.85,6.85,0,0,0-.65-2.1,4.64,4.64,0,0,0-5.2-2,6.08,6.08,0,0,0-4,4.16,8.88,8.88,0,0,0,.51,5.87A15.84,15.84,0,0,0,9,75.2a2.82,2.82,0,0,0,1.57.9,1.77,1.77,0,0,0,.51,0,4.69,4.69,0,0,0,3.12-2.48A12.93,12.93,0,0,0,15.4,64.94Z"/><path class="cls-13" d="M14,63.37a3.22,3.22,0,0,0-1.26-1.53,2.53,2.53,0,0,0-3.13.77A2.84,2.84,0,0,0,9.4,64.9a8.26,8.26,0,0,0,1.07,3,3.38,3.38,0,0,0,2.62,1.59,1.52,1.52,0,0,0,1.05-.33A1.93,1.93,0,0,0,14.65,68,7.94,7.94,0,0,0,14,63.37Z"/></g></g></g></svg>