<svg xmlns="http://www.w3.org/2000/svg" viewBox="0 0 65.51 82.93"><defs><style>.cls-1{isolation:isolate;}.cls-2{fill:#bdbdbd;}.cls-3{fill:#f5f5f5;}.cls-4{fill:#f73d3d;}</style></defs><title>設施介紹-資產 3</title><g id="圖層_2" data-name="圖層 2"><g id="Layer_1" data-name="Layer 1"><g class="cls-1"><polygon class="cls-2" points="62.95 49.32 61.11 48.19 60.98 3.24 62.82 4.37 62.95 49.32"/><polygon class="cls-3" points="62.82 4.37 60.98 3.24 63.12 2.27 64.95 3.39 62.82 4.37"/><polygon class="cls-3" points="64.95 3.39 65.08 48.34 62.95 49.32 62.82 4.37 64.95 3.39"/></g><g class="cls-1"><polygon class="cls-2" points="4.72 82.93 2.89 81.81 2.76 36.86 4.6 37.98 4.72 82.93"/><polygon class="cls-3" points="4.6 37.98 2.76 36.86 4.89 35.88 6.73 37.01 4.6 37.98"/><polygon class="cls-3" points="6.73 37.01 6.86 81.96 4.72 82.93 4.6 37.98 6.73 37.01"/></g><polygon class="cls-4" points="0 50.72 65.51 13.69 65.51 0 0 37.02 0 50.72"/><path class="cls-3" d="M61.43,12.28a2.16,2.16,0,0,0,.66-.29,4.84,4.84,0,0,0,.8-.55c.21-.19.32-.33.32-.43a15.48,15.48,0,0,0-.58-1.91c-.38-1.16-.6-1.83-.66-2s-.19,0-.51.13-.68.32-1.05.53-.58.4-.62.57q-1.22,5.26-1.21,5.34a.1.1,0,0,0,.07.1q.18.06.72-.24c.76-.43,1.15-.75,1.17-1l0-.5.62-.35,0,.39C61.24,12.24,61.31,12.3,61.43,12.28Zm-.71-1.68.09-1.37L61,9.15l.1,1.25Z"/><path class="cls-3" d="M57.26,14.72l.47-.26a2.36,2.36,0,0,0,.41-.29.31.31,0,0,0,.11-.22V9.35c0-.12-.13-.13-.39,0a5.59,5.59,0,0,0-.85.38,2.52,2.52,0,0,0-.65.5,1,1,0,0,0-.22.41l-.44,2.17-.06,0-.41-1.6c0-.12-.17-.15-.42-.11a2.48,2.48,0,0,0-.83.32,3.29,3.29,0,0,0-.67.46c-.15.13-.22.24-.22.32v4.68c0,.07.12.05.37-.05a8.3,8.3,0,0,0,.9-.45c.35-.2.53-.37.53-.51,0-.38,0-1-.11-2l0,0,.34,1.71c0,.07.07.09.16.07a1.17,1.17,0,0,0,.41-.18,1.22,1.22,0,0,0,.34-.23.48.48,0,0,0,.08-.22l.35-2.1.06,0c-.08,1-.12,1.75-.12,2.11Q56.45,15.16,57.26,14.72Z"/><path class="cls-3" d="M48.94,19a1.91,1.91,0,0,0,1.54-.35A4.32,4.32,0,0,0,52,17.21a3.29,3.29,0,0,0,.55-1.88V12.66c0-.13-.12-.17-.37-.13a2.63,2.63,0,0,0-.85.34,1.18,1.18,0,0,0-.5.45.83.83,0,0,0-.08.27v2.18a6.86,6.86,0,0,1-.06,1.12.54.54,0,0,1-.23.4c-.12.06-.2,0-.23-.13a7.44,7.44,0,0,1,0-1.08V14c0-.12-.12-.16-.37-.12a2.68,2.68,0,0,0-.84.33,1.17,1.17,0,0,0-.51.46.83.83,0,0,0-.08.27v2.76C48.41,18.39,48.59,18.81,48.94,19Z"/><path class="cls-3" d="M44.61,21.56a1.05,1.05,0,0,0,.54,0,4.08,4.08,0,0,0,.89-.39,9.24,9.24,0,0,0,1-.69,5.06,5.06,0,0,0,.71-.62.74.74,0,0,0,.21-.37,3,3,0,0,0-.1-.79c-.07-.25-.15-.35-.25-.3l-.53.5a5.06,5.06,0,0,1-.77.63.65.65,0,0,1-.34.13s-.07-.06-.07-.14a.45.45,0,0,1,.14-.28,2.93,2.93,0,0,1,.35-.37,4,4,0,0,0,.46-.46c.17-.18.32-.36.47-.55a2.52,2.52,0,0,0,.35-.65,2.27,2.27,0,0,0,.14-.76c0-1.08-.57-1.3-1.71-.65a11.12,11.12,0,0,0-1.1.71,4.9,4.9,0,0,0-.66.58.64.64,0,0,0-.19.33,1.8,1.8,0,0,0,.16.72c.11.24.21.32.31.27l.17-.16a3.3,3.3,0,0,1,.7-.61,1,1,0,0,1,.38-.16c.07,0,.1,0,.1.12a.41.41,0,0,1-.14.28,3.85,3.85,0,0,1-.35.34,6.27,6.27,0,0,0-.46.45,6.09,6.09,0,0,0-.46.55,2.79,2.79,0,0,0-.35.69,2.24,2.24,0,0,0-.15.81,1.06,1.06,0,0,0,.2.68A.6.6,0,0,0,44.61,21.56Z"/><path class="cls-3" d="M40.4,24.24l2.74-1.54a2.77,2.77,0,0,0,.43-.29.33.33,0,0,0,.1-.22V17.57q0-.2-.15-.18a1.54,1.54,0,0,0-.54.22l-2.59,1.47c-.1.05-.14.24-.14.58a3.22,3.22,0,0,0,.06.74q.06.24.15.18c.28-.16.75-.45,1.42-.89v.49l-1.25.66c-.12.06-.17.25-.17.55a2.52,2.52,0,0,0,.06.66c0,.13.11.18.19.14l1.17-.69V22c-.75.36-1.27.62-1.55.78-.09.05-.14.25-.14.59a3.22,3.22,0,0,0,.06.74C40.29,24.22,40.34,24.28,40.4,24.24Z"/><path class="cls-3" d="M38.75,25.18l.46-.26a1.8,1.8,0,0,0,.42-.29.33.33,0,0,0,.11-.22v-4.6c0-.11-.13-.13-.4,0a4.32,4.32,0,0,0-.84.38,2.18,2.18,0,0,0-.65.49,1.16,1.16,0,0,0-.23.41l-.43,2.17-.06,0-.41-1.6c0-.12-.18-.15-.43-.11a2.64,2.64,0,0,0-.83.32,3.18,3.18,0,0,0-.66.46c-.15.13-.22.24-.22.32v4.69c0,.06.12,0,.37-.06a8.28,8.28,0,0,0,.89-.45c.36-.2.53-.37.53-.51,0-.38,0-1-.11-2l.06,0L36.66,26c0,.06.06.08.16.07a1.5,1.5,0,0,0,.41-.19,1.22,1.22,0,0,0,.34-.23.48.48,0,0,0,.08-.22l.35-2.1.06,0c-.08,1.05-.12,1.75-.12,2.12C37.94,25.55,38.21,25.47,38.75,25.18Z"/><path class="cls-3" d="M30.79,29.68l2.74-1.55a2.17,2.17,0,0,0,.42-.29.31.31,0,0,0,.11-.22V23c0-.12-.05-.19-.15-.18a1.44,1.44,0,0,0-.54.23l-2.6,1.46c-.09,0-.13.25-.13.58a3.22,3.22,0,0,0,.06.74q.06.24.15.18c.28-.16.75-.45,1.41-.89v.49L31,26.27c-.12.06-.17.25-.17.56a2.48,2.48,0,0,0,.06.65c.05.14.11.18.19.14l1.16-.69v.46c-.74.36-1.26.62-1.54.78-.09.06-.14.25-.14.59a3.22,3.22,0,0,0,.06.74Q30.7,29.73,30.79,29.68Z"/><path class="cls-3" d="M28.73,30.79a8.23,8.23,0,0,0,.79-.39,2.35,2.35,0,0,0,.5-.34.33.33,0,0,0,.11-.22V25.36c0-.12-.12-.16-.37-.12a2.46,2.46,0,0,0-.84.32,1.37,1.37,0,0,0-.25.16.82.82,0,0,0-.31.49l-.62,2.23h0V26.73c0-.12-.12-.16-.37-.13a2.88,2.88,0,0,0-.84.32,1.18,1.18,0,0,0-.51.47.72.72,0,0,0-.08.27v4.56c0,.07.13,0,.4-.07a8.65,8.65,0,0,0,.87-.43c.31-.18.49-.32.52-.43l.6-2.13,0,0v1.72C28.33,30.92,28.46,30.9,28.73,30.79Z"/><path class="cls-3" d="M23.05,34c.26-.12.53-.26.79-.41a2.93,2.93,0,0,0,.51-.32.28.28,0,0,0,.1-.2V30l.9-.51s.09-.12.12-.27a2.8,2.8,0,0,0,.05-.64,2.63,2.63,0,0,0-.07-.68q-.07-.29-.21-.21l-3.49,2a.39.39,0,0,0-.13.28,4.51,4.51,0,0,0,0,.61,3.49,3.49,0,0,0,.07.69c.05.2.12.28.2.23l.8-.45V34.1S22.79,34.12,23.05,34Z"/><path class="cls-3" d="M18,36.72c0,.07.13,0,.39-.07a6.35,6.35,0,0,0,.79-.38,2.86,2.86,0,0,0,.51-.34.32.32,0,0,0,.1-.22V31c0-.23-.61,0-1.85.7a7.11,7.11,0,0,0-1.49,1,2.59,2.59,0,0,0-.59.89,3.7,3.7,0,0,0-.21,1.28,1.74,1.74,0,0,0,.3,1.24.52.52,0,0,0,.43.17,1.48,1.48,0,0,0,.35-.06,1.9,1.9,0,0,0,.34-.13l.78-.41.15-.1Zm0-2.31-.15.09a.49.49,0,0,1-.19.06c-.05,0-.09,0-.13-.14a1.45,1.45,0,0,1,0-.48,2,2,0,0,1,.06-.53.87.87,0,0,1,.12-.27.58.58,0,0,1,.15-.11l.19-.12Z"/><path class="cls-3" d="M14,39.09a2.16,2.16,0,0,0,.66-.29,4.84,4.84,0,0,0,.8-.55c.21-.18.31-.33.31-.43a16.43,16.43,0,0,0-.57-1.91l-.66-2s-.19,0-.52.14a11.18,11.18,0,0,0-1,.52c-.37.21-.58.4-.62.57q-1.22,5.27-1.22,5.34a.11.11,0,0,0,.08.1q.18.06.72-.24c.76-.43,1.15-.75,1.16-1l.05-.5.62-.35,0,.39C13.8,39.05,13.87,39.11,14,39.09Zm-.72-1.68.1-1.37.14-.08.11,1.25Z"/><path class="cls-3" d="M9,41.78c0,.06.14,0,.4-.07a8.23,8.23,0,0,0,.79-.39A2.86,2.86,0,0,0,10.7,41a.33.33,0,0,0,.11-.22V36.07q0-.2-.42,0a7.71,7.71,0,0,0-1.07.52c-.43.25-.71.4-.83.48s-.28.17-.45.28a3.38,3.38,0,0,0-.41.3l-.34.32a1.5,1.5,0,0,0-.28.37,3.29,3.29,0,0,0-.2.42,2.43,2.43,0,0,0-.18,1,1.85,1.85,0,0,0,.17.88.64.64,0,0,0,.46.34A8.8,8.8,0,0,0,6.52,43c0,.24.42.12,1.27-.36a4.63,4.63,0,0,0,.51-.33.51.51,0,0,0,.18-.26l.42-1.74.1-.07Zm0-2.62-.16.1c-.25.14-.38,0-.38-.45a1.28,1.28,0,0,1,.1-.53A.71.71,0,0,1,8.79,38L9,37.89Z"/><path class="cls-3" d="M4.79,44.3a7.22,7.22,0,0,0,.79-.39,3,3,0,0,0,.5-.33.31.31,0,0,0,.11-.23V38.88c0-.12-.12-.17-.36-.13a3,3,0,0,0-.84.33,1.12,1.12,0,0,0-.51.47.6.6,0,0,0-.09.27V41l0,0a3.72,3.72,0,0,0-.19-.49c-.25-.58-.43-.83-.54-.77a6.19,6.19,0,0,0-.89.71,3.72,3.72,0,0,0-.48.57,1,1,0,0,0-.2.54q0,.14.27.42a6.46,6.46,0,0,0,.79.67c-.09.14-.19.32-.31.54s-.29.54-.5,1A2.63,2.63,0,0,0,2,45c0,.12.11.21.31.27a1.92,1.92,0,0,0,.64,0,1.33,1.33,0,0,0,.51-.13,1.36,1.36,0,0,0,.3-.55c.13-.32.28-.78.46-1.38l.2.15v.95C4.39,44.43,4.53,44.41,4.79,44.3Z"/></g></g></svg>