<svg xmlns="http://www.w3.org/2000/svg" xmlns:xlink="http://www.w3.org/1999/xlink" viewBox="0 0 191.5 144.5"><defs><style>.cls-1{fill:none;}.cls-2{isolation:isolate;}.cls-3{clip-path:url(#clip-path);}.cls-4{fill:#3d2206;}.cls-5,.cls-6,.cls-7,.cls-8{fill:#a25a00;}.cls-19,.cls-21,.cls-25,.cls-39,.cls-55,.cls-6,.cls-65,.cls-67,.cls-70{opacity:0.5;}.cls-11,.cls-14,.cls-16,.cls-18,.cls-19,.cls-20,.cls-22,.cls-25,.cls-35,.cls-37,.cls-38,.cls-39,.cls-46,.cls-47,.cls-54,.cls-55,.cls-6,.cls-63,.cls-65,.cls-67,.cls-69,.cls-7,.cls-8{mix-blend-mode:multiply;}.cls-33,.cls-52,.cls-63,.cls-7{opacity:0.8;}.cls-9{fill:#f7e15c;}.cls-11,.cls-20,.cls-35,.cls-47,.cls-62,.cls-9{opacity:0.6;}.cls-10{fill:#ede8cc;}.cls-12,.cls-20,.cls-22{fill:#b2a28d;}.cls-13,.cls-14,.cls-44,.cls-45,.cls-46,.cls-47{fill:#840b25;}.cls-15{fill:#d8ca65;}.cls-16{fill:#b79c70;}.cls-17,.cls-18{fill:#2b5f3d;}.cls-18,.cls-46{opacity:0.3;}.cls-19,.cls-26{fill:#2b523d;}.cls-23{fill:#3d0b25;}.cls-24{fill:#182d21;}.cls-27{fill:#4a9e64;}.cls-28{fill:#562400;}.cls-29{fill:#8f0009;}.cls-30{fill:#aa0009;}.cls-31{fill:#1b315b;}.cls-32{fill:#12233f;}.cls-33{fill:#729a9e;}.cls-33,.cls-70,.cls-71{mix-blend-mode:color-dodge;}.cls-34{fill:#dce1e5;}.cls-35,.cls-69{fill:#774004;}.cls-36{fill:#ff9700;}.cls-37,.cls-48,.cls-63{fill:#c08b33;}.cls-38,.cls-39{fill:#81161f;}.cls-40{fill:#211625;}.cls-41{fill:#772c00;}.cls-42{fill:#773d03;}.cls-43{fill:#894c09;}.cls-44,.cls-45,.cls-49,.cls-56,.cls-57,.cls-68{mix-blend-mode:screen;}.cls-45,.cls-57,.cls-68{opacity:0.4;}.cls-49,.cls-50,.cls-52,.cls-62,.cls-70,.cls-71{fill:#f8d977;}.cls-51{fill:#cb7c00;}.cls-53,.cls-54,.cls-55,.cls-56,.cls-57{fill:#d88b33;}.cls-58{fill:#e9e0c3;}.cls-59{fill:#670b00;}.cls-60{fill:#ee0008;}.cls-61{fill:#ffef8c;}.cls-64,.cls-65{fill:#66006f;}.cls-66,.cls-67{fill:#66009c;}.cls-68{fill:#90009c;}.cls-72{fill:#fff;}</style><clipPath id="clip-path"><rect class="cls-1" x="-1.48" y="-15.19" width="194.54" height="165.69"/></clipPath></defs><title>設施介紹-工作區域 9</title><g class="cls-2"><g id="Layer_1" data-name="Layer 1"><g class="cls-3"><path class="cls-4" d="M36.36,105l2.8,5.39A10.15,10.15,0,0,1,48.87,109s1,6,4,6.35l1.56-.11,1.07-4.4,1.42-.14L67,126.43H79.53l3.29-14.5,3.82-.35,14.09,15.72,8.68-.65,3.44-15.2,2.29-.41,11,8.27,9.54-2.4s-.24-6.26,5-7,10.78,8,10.78,8,8.06,18-37.19,18.64S39.5,132.65,33.9,117.72,36.36,105,36.36,105Z"/><polygon class="cls-5" points="91.49 23.27 140.7 110.96 143.17 110.1 93.19 22.06 91.49 23.27"/><polygon class="cls-6" points="91.49 23.27 140.7 110.96 143.17 110.1 93.19 22.06 91.49 23.27"/><path class="cls-7" d="M141,108.1c-1.17-1.68-31.36-54.61-33-57.24a1.15,1.15,0,0,1,.51-1.81l-15.32-27-1.7,1.21L140.7,111l2.47-.86-.86-1.51A1.25,1.25,0,0,1,141,108.1Z"/><path class="cls-5" d="M137.28,116.17s-1.11-4.47,2.59-6.17,8.27-.11,9,2.66c0,0-.61,2.55-5.18,3.3S137.28,116.17,137.28,116.17Z"/><path class="cls-8" d="M147.1,110.4a1.18,1.18,0,0,1-.32,1.38c-.82.71-1.78.13-2.57-.28-1.28-.64-2.46-.11-3.73.27-.64.74-1.61,1.8-2.61,1a1.72,1.72,0,0,1-.32-.35,6.87,6.87,0,0,0-.27,3.79s1.85.53,6.42-.21,5.18-3.3,5.18-3.3A4,4,0,0,0,147.1,110.4Z"/><path class="cls-8" d="M145.31,112.52a2.76,2.76,0,1,1-2.72-2.27A2.53,2.53,0,0,1,145.31,112.52Z"/><path class="cls-5" d="M144.73,112.69a2.46,2.46,0,1,1-2.43-2.09A2.28,2.28,0,0,1,144.73,112.69Z"/><path class="cls-9" d="M140.35,113.1a2.76,2.76,0,0,1,2.44-1.84,4.58,4.58,0,0,1,1.55.29,2.57,2.57,0,0,0-2-1,2.28,2.28,0,0,0-2.43,2.09,1.84,1.84,0,0,0,.29,1A3.18,3.18,0,0,1,140.35,113.1Z"/><path class="cls-8" d="M143.82,112.77a1.58,1.58,0,1,1-1.56-1.31A1.45,1.45,0,0,1,143.82,112.77Z"/><path class="cls-5" d="M143.49,112.87a1.41,1.41,0,1,1-1.4-1.2A1.31,1.31,0,0,1,143.49,112.87Z"/><path class="cls-9" d="M142,112.15a2.54,2.54,0,0,1,.91-.23,1.53,1.53,0,0,0-.86-.25,1.31,1.31,0,0,0-1.39,1.2,1.19,1.19,0,0,0,.7,1A1.24,1.24,0,0,1,142,112.15Z"/><polygon class="cls-5" points="93.6 20.37 49.5 110.05 46.99 109.31 91.84 19.24 93.6 20.37"/><polygon class="cls-6" points="93.6 20.37 49.5 110.05 46.99 109.31 91.84 19.24 93.6 20.37"/><path class="cls-7" d="M49,107.21c1.07-1.73,28.19-55.88,29.67-58.58a1.16,1.16,0,0,0-.61-1.79l13.75-27.6,1.76,1.13L49.5,110.05,47,109.31l.77-1.55A1.23,1.23,0,0,0,49,107.21Z"/><path class="cls-5" d="M52.9,115.32s1.11-4.47-2.59-6.17-8.27-.11-9,2.66c0,0,.62,2.55,5.18,3.3S52.9,115.32,52.9,115.32Z"/><path class="cls-8" d="M43.08,109.55a1.19,1.19,0,0,0,.33,1.38c.82.7,1.77.12,2.56-.28,1.28-.64,2.46-.11,3.73.26.64.75,1.61,1.8,2.61,1a1.47,1.47,0,0,0,.32-.35,6.77,6.77,0,0,1,.27,3.79s-1.85.53-6.42-.21-5.18-3.3-5.18-3.3A4,4,0,0,1,43.08,109.55Z"/><path class="cls-8" d="M44.88,111.66a2.76,2.76,0,1,0,2.71-2.27A2.52,2.52,0,0,0,44.88,111.66Z"/><path class="cls-5" d="M45.45,111.84a2.46,2.46,0,1,0,2.43-2.09A2.28,2.28,0,0,0,45.45,111.84Z"/><path class="cls-9" d="M49.83,112.25a2.74,2.74,0,0,0-2.44-1.84,4.52,4.52,0,0,0-1.54.29,2.54,2.54,0,0,1,2-1,2.28,2.28,0,0,1,2.43,2.09,1.76,1.76,0,0,1-.29,1A2.54,2.54,0,0,0,49.83,112.25Z"/><path class="cls-8" d="M46.36,111.92a1.59,1.59,0,1,0,1.56-1.31A1.45,1.45,0,0,0,46.36,111.92Z"/><path class="cls-5" d="M46.69,112a1.42,1.42,0,1,0,1.4-1.2A1.32,1.32,0,0,0,46.69,112Z"/><path class="cls-9" d="M48.14,111.3a2.49,2.49,0,0,0-.9-.23,1.49,1.49,0,0,1,.85-.25,1.32,1.32,0,0,1,1.4,1.2,1.2,1.2,0,0,1-.71,1A1.23,1.23,0,0,0,48.14,111.3Z"/><path class="cls-10" d="M8,93.6c-.56-.25-1.15-.49-1.73-.71a.09.09,0,0,0-.12.06h0a3.71,3.71,0,0,0,0,1.72.11.11,0,0,0,0,0h0a.15.15,0,0,0,.18.1.16.16,0,0,0,.15-.09s0,0,0,0,0,0,0,0a4.36,4.36,0,0,0,.72-.35,3.32,3.32,0,0,0,.79-.5C8.19,93.78,8.14,93.65,8,93.6Z"/><path class="cls-10" d="M10.16,92.7a2.58,2.58,0,0,0-.79-.52,2.41,2.41,0,0,0-.83-.33.09.09,0,0,0-.16.05c0,.57-.27,1.12-.25,1.69a.17.17,0,0,0,.23.13,8.9,8.9,0,0,1,1.21-.47c.21-.06.56-.14.56-.37A.13.13,0,0,0,10.16,92.7Z"/><path class="cls-10" d="M12.12,92.07h0a.12.12,0,0,0,0-.15,6.65,6.65,0,0,0-.59-.46,4.5,4.5,0,0,0-.66-.45.08.08,0,0,0-.07,0,.08.08,0,0,0-.12,0c-.1.43-.13.89-.19,1.33a.16.16,0,0,0,.17.17,3.94,3.94,0,0,0,1.41-.44h0Z"/><path class="cls-10" d="M12.88,89.36h-.75a1.64,1.64,0,0,0-.7.11.11.11,0,0,0,0,.17,1.58,1.58,0,0,0,.37.54,1.5,1.5,0,0,0,.5.47.08.08,0,0,0,.11-.06.05.05,0,0,0,0,0c.32-.27.33-.68.6-1C13.1,89.48,13,89.37,12.88,89.36Z"/><path class="cls-10" d="M9.87,89.85c-.53,0-1.07,0-1.6-.12a.16.16,0,1,0-.06.31H8.3a5,5,0,0,0,.52.69,1.65,1.65,0,0,0,.57.51.18.18,0,0,0,.19,0A2.25,2.25,0,0,0,10,90,.16.16,0,0,0,9.87,89.85Z"/><path class="cls-10" d="M7.18,91.53c.11-.45.28-.86.43-1.3,0-.08-.07-.16-.16-.15-.48,0-.94.09-1.42.09a.14.14,0,0,0-.09.25c0,.2.26.42.38.55a6.23,6.23,0,0,0,.76.69c.06,0,.17,0,.13-.08Z"/><path class="cls-10" d="M4.94,90.34c-.41,0-.82.09-1.23.13a4.24,4.24,0,0,0-.88.1.15.15,0,0,0,0,.29l0,0,0,0c.26,0,.47.54.58.72a2.06,2.06,0,0,0,.58.79.17.17,0,0,0,.24,0,1.32,1.32,0,0,0,.34-.77c.1-.39.36-.72.48-1.11C5.15,90.42,5,90.34,4.94,90.34Z"/><g class="cls-11"><path class="cls-12" d="M8,93.6c-.3-.14-.62-.27-.94-.4a.74.74,0,0,1-.73.5H6.3a.71.71,0,0,1-.21,0,4.23,4.23,0,0,0,.12,1,.11.11,0,0,0,0,0h0a.15.15,0,0,0,.18.1.16.16,0,0,0,.15-.09s0,0,0,0,0,0,0,0a4.36,4.36,0,0,0,.72-.35,3.32,3.32,0,0,0,.79-.5C8.19,93.78,8.14,93.65,8,93.6Z"/><path class="cls-12" d="M10.16,92.7a2.58,2.58,0,0,0-.79-.52l-.1-.05a.66.66,0,0,1-.72.59.94.94,0,0,1-.3,0,4.07,4.07,0,0,0-.12.92.17.17,0,0,0,.23.13,8.9,8.9,0,0,1,1.21-.47c.21-.06.56-.14.56-.37A.13.13,0,0,0,10.16,92.7Z"/><path class="cls-12" d="M12.12,91.92a6.65,6.65,0,0,0-.59-.46c-.1-.07-.19-.15-.3-.22a.39.39,0,0,1-.43.39.46.46,0,0,1-.21,0c0,.27-.06.54-.1.8a.16.16,0,0,0,.17.17,3.94,3.94,0,0,0,1.41-.44h0l0,0h0A.12.12,0,0,0,12.12,91.92Z"/><path class="cls-12" d="M12.88,89.36h-.75a1.64,1.64,0,0,0-.7.11.11.11,0,0,0,0,.17,1.58,1.58,0,0,0,.37.54l.14.17a.5.5,0,0,1,.5-.19.47.47,0,0,1,.24.13,3.36,3.36,0,0,1,.37-.7C13.1,89.48,13,89.37,12.88,89.36Z"/><path class="cls-12" d="M9,90.55a.83.83,0,0,1,.86.07A3.35,3.35,0,0,0,10,90a.16.16,0,0,0-.14-.17c-.53,0-1.07,0-1.6-.12a.16.16,0,1,0-.06.31H8.3a4.64,4.64,0,0,0,.51.68A.76.76,0,0,1,9,90.55Z"/><path class="cls-12" d="M6.32,91a.91.91,0,0,1,.36-.2.85.85,0,0,1,.69.14l.24-.68c0-.08-.07-.16-.16-.15-.48,0-.94.09-1.42.09a.14.14,0,0,0-.09.25c0,.2.26.42.38.55Z"/><path class="cls-12" d="M3.57,91.77a.79.79,0,0,1,.86-.33.87.87,0,0,1,.24.1c.1-.36.33-.67.45-1,0-.09-.08-.17-.18-.17-.41,0-.82.09-1.23.13a4.24,4.24,0,0,0-.88.1.15.15,0,0,0,0,.29l0,0,0,0c.26,0,.47.54.58.72Z"/></g><path class="cls-13" d="M31.14,99.24a6.63,6.63,0,0,0-1.46-2.14h0c.56.18.8.75,1.39.93a.18.18,0,0,0,.24-.11,4.4,4.4,0,0,0-.61-2.81,5.15,5.15,0,0,0-1.1-1.52,2.71,2.71,0,0,1,.42.2,1.88,1.88,0,0,0,.93.35.16.16,0,0,0,.16-.16,4.39,4.39,0,0,0-2.08-3.35c.5.16.94.41,1.46.55.13,0,.24,0,.24-.15a4.81,4.81,0,0,0-.44-1.71,4.91,4.91,0,0,0-1-1.61,5.21,5.21,0,0,0-2.66-1.57,4.4,4.4,0,0,0,.92-.57c.24-.19,1.13-1.21.64-1.47a.19.19,0,0,0-.29,0,3.59,3.59,0,0,1-2.83.43c-.76-.12-1.41-.71-2.18-.72a3.87,3.87,0,0,0-2.9,1.13H20c-.11,0-.1.13,0,.15,3,.72,4.46,3.29,5.44,5.61a15.23,15.23,0,0,1,1.07,5c.06.91.06,1.82,0,2.73s-.19,2-.3,3a.13.13,0,0,0,0,.12.17.17,0,0,0,.11.13c1,.39,2.06.07,3.1.2.57.06,1.68.22,2-.4A3,3,0,0,0,31.14,99.24Z"/><path class="cls-14" d="M31.25,99.53a2.64,2.64,0,0,1-1.07-.26,1.2,1.2,0,0,1-.57-.87c-.05-.2-.14-.61.19-.7a.59.59,0,0,1,.45,0c-.18-.23-.37-.44-.57-.65h0c.56.18.8.75,1.39.93a.18.18,0,0,0,.24-.11c0-.13,0-.25,0-.38a.35.35,0,0,1-.22.15c-.35.08-.55-.34-.7-.52-.37-.43-1-.71-1.29-1.17s-.18-1.12-.34-1.61c-.08-.24-.23-.67.1-.83s.69.14.9.29L30,94a2.72,2.72,0,0,0-.37-.39,2.71,2.71,0,0,1,.42.2,1.88,1.88,0,0,0,.93.35.16.16,0,0,0,.16-.16c0-.09,0-.18,0-.28a.55.55,0,0,1-.4-.06c-.51-.25-.9-.61-1.43-.84a1.48,1.48,0,0,1-.88-1.65c.1-.53.59-.45,1-.26-.12-.09-.24-.18-.37-.26.41.14.79.32,1.21.47a7.75,7.75,0,0,0-.62-.52c-.37-.27-.78-.45-1.18-.69a1.82,1.82,0,0,1-.68-1.1,9,9,0,0,0-.65-1.32,3.71,3.71,0,0,1-.43-.81c-.07-.24.08-.37.28-.43l-.31-.09a4.4,4.4,0,0,0,.92-.57,2.26,2.26,0,0,0,.3-.31,3.5,3.5,0,0,1-1.15.26A3.26,3.26,0,0,1,24.61,85c-.32-.23-.57-.52-.51-.82A2.83,2.83,0,0,0,23,83.79a3.87,3.87,0,0,0-2.9,1.13H20c-.11,0-.1.13,0,.15,3,.72,4.46,3.29,5.44,5.61a15.23,15.23,0,0,1,1.07,5c.06.91.06,1.82,0,2.73s-.19,2-.3,3a.13.13,0,0,0,0,.12.17.17,0,0,0,.11.13c1,.39,2.06.07,3.1.2.57.06,1.68.22,2-.4A2.67,2.67,0,0,0,31.25,99.53Z"/><path class="cls-15" d="M16.41,95.67l.58,5.46,3.29.14-1.2-6.42A7.67,7.67,0,0,1,16.41,95.67Z"/><path class="cls-16" d="M17.07,99.17a.1.1,0,0,1,.09-.1,17.69,17.69,0,0,0,2.53-.34c-.88,0-1.75,0-2.62.1-.05,0-.12,0-.12-.08-.06-.38-.06-.56-.1-.94a.11.11,0,0,1,.09-.18c.45,0,1.6-.32,2-.4-.44,0-1.65,0-2.1.08a.14.14,0,0,1-.12-.08,7.59,7.59,0,0,1-.06-1.07.1.1,0,0,1,.09-.1c.71-.17,1.88-.3,2.35-.88l-.06-.33a7.67,7.67,0,0,1-2.67.82l.58,5.46.43,0A7.92,7.92,0,0,1,17.07,99.17Z"/><path class="cls-17" d="M28.63,100.92a29.36,29.36,0,0,0-.25-3.62c-.14-1.36-.29-2.72-.42-4.08a11.71,11.71,0,0,0-2.07-6.41,6,6,0,0,0-2.44-1.91,8.92,8.92,0,0,0-1.92-.44,14.66,14.66,0,0,1-2.21-.59,3,3,0,0,0-2.89.1c-.42.33-.72.74-1.12,1.08l-.22.16a40.72,40.72,0,0,1-4.69.48,21.71,21.71,0,0,0-4.19.65,1.4,1.4,0,0,0-.87-.52c-.72-.13-1.06.59-1.26,1.23A9.05,9.05,0,0,0,2.32,88.6a6,6,0,0,0-1.32,2,.09.09,0,0,0,.05.13.84.84,0,0,0,.14.44,1.09,1.09,0,0,0,.39.38l0,0c.37.36,1.15,0,1.57-.09a31.72,31.72,0,0,1,3.63-.8c2.53-.46,5.11-.59,7.67-.87a8.61,8.61,0,0,1-2.34,1.42l-2.9,1.46c-1,.5-1.95,1-3,1.43a6.51,6.51,0,0,0-.74.39c-.22.14-.59.31-.88.49,0,0-.07,0-.07.05-.28.21,0,.72.17.95a.66.66,0,0,0,.23.18,0,0,0,0,0,0,0h0a1.21,1.21,0,0,0,.43,0c.2,0,.45,0,.64,0,3.29-.11,6.53-.13,9.81-.41a10.82,10.82,0,0,0,1.6-.23,11.44,11.44,0,0,0,.29,4.24c.1.4-.23,1,.19,1.3a2.07,2.07,0,0,0,1.18.32,14.06,14.06,0,0,0,1.59,0c.72,0,1.44,0,2.15,0a25.91,25.91,0,0,0,5.43-.32.16.16,0,0,0,.27-.08h0A.14.14,0,0,0,28.63,100.92Z"/><path class="cls-18" d="M28.63,100.92a29.36,29.36,0,0,0-.25-3.62c-.14-1.36-.29-2.72-.42-4.08a11.71,11.71,0,0,0-2.07-6.41,6,6,0,0,0-2.44-1.91,8.92,8.92,0,0,0-1.92-.44,13.5,13.5,0,0,1-2.1-.55c-.24,1,.78,1.93,2,2.14,1,.16,2,0,2.87.55,1.47,1,2.2,2.88,2.59,4.38a17.74,17.74,0,0,1,.51,3.62c0,.67.09,1.34.1,2a8.54,8.54,0,0,0,.05,1.75c.09.44.23,1.12-.48,1.19-.42,0-.51-.53-.66-.84a1.55,1.55,0,0,1-1.61.89c-.77-.09-.74-.68-.95-1.17-.46.77-1.56,1.78-2.26.79-.53.29-1.37.42-1.26-.37a.85.85,0,0,1,1.15-.68,4.84,4.84,0,0,1-.23-1.25,1.07,1.07,0,0,1-.91.35c-.37-.09-.39-.62-.39-.87s-.11-.94.29-1.06a1.33,1.33,0,0,1,.79,0,2.33,2.33,0,0,1-.55-.78c-.15-.5.2-1,.34-1.44a4.13,4.13,0,0,0-.7-3,3.68,3.68,0,0,1-1.42,3A9.41,9.41,0,0,1,14,94.48c-2.31.16-4.63.43-6.95.55a3.48,3.48,0,0,1-2-.32c-.15.08-.31.16-.45.25s-.07,0-.07.05c-.28.21,0,.72.17.95a.66.66,0,0,0,.23.18,0,0,0,0,0,0,0h0a1.21,1.21,0,0,0,.43,0c.2,0,.45,0,.64,0,3.29-.11,6.53-.13,9.81-.41a10.82,10.82,0,0,0,1.6-.23,11.44,11.44,0,0,0,.29,4.24c.1.4-.23,1,.19,1.3a2.07,2.07,0,0,0,1.18.32,14.06,14.06,0,0,0,1.59,0c.72,0,1.44,0,2.15,0a25.91,25.91,0,0,0,5.43-.32.16.16,0,0,0,.27-.08h0A.14.14,0,0,0,28.63,100.92Z"/><path class="cls-19" d="M6.55,86.72a1.9,1.9,0,0,1-.36-.39,1.39,1.39,0,0,0-.85-.51c-.54-.1-.87.29-1.08.75a.29.29,0,0,1-.08.24l0,0a4.13,4.13,0,0,1-.15.5H4c0,.13-.07.25-.09.34s0,0,0,0a10.63,10.63,0,0,1,.53-.93,5.72,5.72,0,0,1,.39-.57c.22-.29.56-.08.78.06A14.92,14.92,0,0,1,7,87.46s.08,0,.06,0A6.64,6.64,0,0,0,6.55,86.72Z"/><path class="cls-19" d="M28.38,97.3c-.14-1.36-.29-2.72-.42-4.08a11.71,11.71,0,0,0-2.07-6.41,6,6,0,0,0-2.44-1.91,8.92,8.92,0,0,0-1.92-.44,14.66,14.66,0,0,1-2.21-.59,3,3,0,0,0-2.89.1,6,6,0,0,0-.63.6,5.54,5.54,0,0,1-.85.83,2.79,2.79,0,0,1-1.49.49s0,.06.06,0a4,4,0,0,0,2-.65h0l0,0A4.82,4.82,0,0,0,16,84.9a3.41,3.41,0,0,1,1.22-1,3.33,3.33,0,0,1,2.19.29c1.23.42,2.53.53,3.77.91a5.54,5.54,0,0,1,2.64,2.13c1.42,1.92,1.62,4.14,1.84,6.35.24,2.48.49,4.95.73,7.42,0,.16.28.14.29,0A28.93,28.93,0,0,0,28.38,97.3Z"/><path class="cls-19" d="M14.77,89.48c-1.15,0-2.29.21-3.43.32s-2.45.22-3.66.41-2.31.42-3.44.69L3.82,91a8.87,8.87,0,0,1-1,.26l-.32.1a1.47,1.47,0,0,1-1.18,0,1.12,1.12,0,0,0,.24.19l0,0c.37.36,1.15,0,1.57-.09a31.72,31.72,0,0,1,3.63-.8c2.53-.46,5.11-.59,7.67-.87a8.61,8.61,0,0,1-2.34,1.42L9.77,92.38l1.13-.52c.93-.42,1.79-1,2.74-1.34A5.61,5.61,0,0,0,14.77,89.48Z"/><path class="cls-19" d="M20.35,91.43s-.07,0-.07,0a3.78,3.78,0,0,1-.3,2.2,3.14,3.14,0,0,1-1.47,1.2,10.15,10.15,0,0,1-3.56.63c-1.47.08-2.94.14-4.41.17A37.23,37.23,0,0,0,5.7,96H5.58A.67.67,0,0,1,5,95.8a.79.79,0,0,1-.23-.14.93.93,0,0,1-.31-.48,1.18,1.18,0,0,0,.27.78.66.66,0,0,0,.23.18,0,0,0,0,0,0,0h0a1.21,1.21,0,0,0,.43,0c.2,0,.45,0,.64,0,3.29-.11,6.53-.13,9.81-.41a7.11,7.11,0,0,0,3.5-1A2.62,2.62,0,0,0,20.35,91.43Z"/><path class="cls-10" d="M19.53,84.17s0,.93,1.69,1.18,1.89,0,1.89,0,1.24-2,1.61-2.8.29-1,.12-1.17-.82,0-1.56.56S19.53,84.17,19.53,84.17Z"/><path class="cls-20" d="M24.84,81.34a.1.1,0,0,0-.05,0c.11.54-1.24,2-1.46,2.2a6,6,0,0,1-1.77,1.4,1.69,1.69,0,0,1-2-.49c.12.29.49.77,1.63.94,1.69.24,1.89,0,1.89,0s1.24-2,1.61-2.8S25,81.51,24.84,81.34Z"/><g class="cls-21"><path class="cls-22" d="M19.56,84.16h0s0,.93,1.69,1.18,1.88,0,1.89,0A4.29,4.29,0,0,1,19.56,84.16Z"/><path class="cls-22" d="M24.07,81.44,24,81.5c0,.31.39.49.76.47A.86.86,0,0,1,24.07,81.44Z"/><path class="cls-22" d="M23.85,82.74a1,1,0,0,1-.85-.65l-.09.06c0,.55.95.81,1.62.73a.54.54,0,0,1,.07-.13A1.59,1.59,0,0,1,23.85,82.74Z"/><path class="cls-22" d="M21.47,83l-.17.1c0,.5.69.78,1.2.93a3.3,3.3,0,0,0,1.28.14,1.62,1.62,0,0,1,.1-.18C22.94,84.19,21.44,83.78,21.47,83Z"/></g><path class="cls-23" d="M18.19,86.28c.07.68-.11,1.24-.39,1.26s-.56-.51-.62-1.18.1-1.24.38-1.26S18.13,85.61,18.19,86.28Z"/><path class="cls-24" d="M5.84,87.63a3,3,0,0,0-.28-.53c-.06-.1-.19-.37-.36-.35h0c-.05,0-.12,0-.14,0a2.76,2.76,0,0,0-.17,1.13A.13.13,0,0,0,5,88c.19,0,.79-.09.82-.28,0,0,0,0,0,0S5.85,87.67,5.84,87.63Z"/><g class="cls-25"><path class="cls-26" d="M23.74,87.16s-.06,0,0,.06A3.09,3.09,0,0,1,25,88.36c.36.63-.06,1-.66,1.37-.08,0,0,.12.06.11C26.37,89.47,25.23,87.32,23.74,87.16Z"/><path class="cls-26" d="M24.69,91.2c-.05,0-.08,0,0,.07,1.33.42,1.12,1.53.22,2.22-.06,0,0,.14.07.11a1.45,1.45,0,0,0,1-1.29C26,91.69,25.32,91.31,24.69,91.2Z"/><path class="cls-26" d="M25.22,94.91a0,0,0,0,0,0,.09c1.36.61.81,1.73,0,2.53-.06.06,0,.16.1.13C26.58,97.1,26.79,95.22,25.22,94.91Z"/><path class="cls-26" d="M26.08,98s0,0,0,.06c1,.4.22,1.28-.18,1.79,0,0,0,.08.05.06C26.75,99.57,27.18,98.21,26.08,98Z"/><path class="cls-26" d="M20.53,95.21s-.06.05,0,.06c1.15.48.94,1.66.27,2.4a0,0,0,0,0,0,0C21.85,97,21.9,95.57,20.53,95.21Z"/><path class="cls-26" d="M21.16,97.89c-.07,0-.11.06,0,.09.76.33.48,1.11.14,1.61,0,0,0,.08.07,0A1,1,0,0,0,21.16,97.89Z"/><path class="cls-26" d="M23.9,97.88a1.5,1.5,0,0,0-1-1s-.06,0,0,0a1.87,1.87,0,0,1,.74.79c.22.45,0,.82-.43,1.1,0,0,0,.11.06.09A.91.91,0,0,0,23.9,97.88Z"/><path class="cls-26" d="M23.63,94.16a1.3,1.3,0,0,0-1.08-.91c-.05,0-.08.06,0,.08a1.28,1.28,0,0,1,.83.79c.17.43-.1.72-.41,1-.05.05,0,.11.07.1A.87.87,0,0,0,23.63,94.16Z"/><path class="cls-26" d="M22.42,89.7c-.05,0-.07.06,0,.08a.87.87,0,0,1,.62.74c0,.37-.22.61-.43.9a.05.05,0,0,0,.06.07,1,1,0,0,0,.59-1A.86.86,0,0,0,22.42,89.7Z"/></g><path class="cls-27" d="M21.12,97.06a.8.8,0,0,0,.1-1c-.18-.39-.54-.72-.78-.73A2,2,0,0,1,21.12,97.06Z"/><path class="cls-27" d="M19,84.42A2.08,2.08,0,0,0,17.32,84c-.72.17-1.12.9-1.49,1.39,0,0,0,.09.07,0a10,10,0,0,1,1.1-1c.63-.43,1.24-.17,1.9,0C19,84.51,19,84.46,19,84.42Z"/><path class="cls-27" d="M3.27,87.89A14.46,14.46,0,0,0,1.49,89.7c-.32.43-.48,1,0,1.35,0,0,.07,0,.05,0-.38-.54.33-1.23.67-1.65s.78-.94,1.16-1.42C3.38,87.9,3.31,87.85,3.27,87.89Z"/><path class="cls-27" d="M4.72,86.23a2.09,2.09,0,0,0-.48,1.07s0,0,0,0c.16-.24.31-.48.49-.71a.8.8,0,0,1,.32-.28c.15,0,.33.1.43.17a.06.06,0,0,0,.09,0A.52.52,0,0,0,4.72,86.23Z"/><path class="cls-27" d="M10.44,85.88a9.77,9.77,0,0,0-2,.09c-.64.08-1.23.33-1.88.39a0,0,0,1,0,0,0,6.75,6.75,0,0,0,1.68-.17C9,86.1,9.7,86,10.44,86,10.49,86,10.5,85.89,10.44,85.88Z"/><path class="cls-27" d="M19.89,89.72a4,4,0,0,0-1.81-1.59A3.13,3.13,0,0,0,16.23,88a4.93,4.93,0,0,1,2.46,2,3.12,3.12,0,0,1,.39.8,3.48,3.48,0,0,1,0,2.56A2.62,2.62,0,0,0,19.89,89.72Z"/><path class="cls-27" d="M24.73,88.1a2.49,2.49,0,0,0-2.08-.93c1.07.49,1.66,1.54,1.13,2.38A1,1,0,0,0,24.73,88.1Z"/><path class="cls-27" d="M22.75,90.29a2,2,0,0,0-1.5-.69c.56.31,1,.68,1.06,1.22a1.13,1.13,0,0,1-.24.79A.87.87,0,0,0,22.75,90.29Z"/><path class="cls-27" d="M25.48,92a1.51,1.51,0,0,0-1.57-.83,2.32,2.32,0,0,1,1,2.39A1.29,1.29,0,0,0,25.48,92Z"/><path class="cls-27" d="M23.4,94.12c-.17-.6-1-.87-1.65-.79a2.33,2.33,0,0,1,1,1.3,2.41,2.41,0,0,1,0,1.13A1.56,1.56,0,0,0,23.4,94.12Z"/><path class="cls-27" d="M26,95.84a1.26,1.26,0,0,0-1.29-1,2.83,2.83,0,0,1,.24,2.93.55.55,0,0,0,.23-.09A1.83,1.83,0,0,0,26,95.84Z"/><path class="cls-27" d="M23.62,97.93a1.33,1.33,0,0,0-.88-1A2,2,0,0,1,23,99.15a1.28,1.28,0,0,0,.42-.33A1,1,0,0,0,23.62,97.93Z"/><path class="cls-27" d="M26.5,98.45a.86.86,0,0,0-.9-.44h0a1.2,1.2,0,0,1,.14,1.5C26.22,99.35,26.65,98.87,26.5,98.45Z"/><path class="cls-28" d="M13.82,102.73s1.48,18.44,12.83,28.37S65,143.31,98.24,143.31s60.56-2.7,75-14.62S188.42,104,188.42,104H152.71v5c0,3-1.15,7.66-10,8.65a86.5,86.5,0,0,1-15.47.43l-1.31-4.82-9.71-.11-3,15.22-11.84.1L96.67,114H87.42l-3,14.58H69.52l-2.84-15.43H58.29v3.72s-14.19-.1-18.64-3.93-4.56-10.11-4.56-10.11Z"/><path class="cls-29" d="M187.11,109.72a22.94,22.94,0,0,0,1.31-5.72H152.71v5q0,.36,0,.75Z"/><polygon class="cls-30" points="97.18 115.54 96.67 113.97 87.42 113.97 87.1 115.54 97.18 115.54"/><polygon class="cls-30" points="126.52 115.54 125.89 113.23 116.18 113.12 115.7 115.54 126.52 115.54"/><path class="cls-30" d="M184.49,115.54a37.18,37.18,0,0,0,2.35-5.06H152.6a7.15,7.15,0,0,1-3.28,5.06Z"/><path class="cls-30" d="M46.06,115.54a15.47,15.47,0,0,1-6.41-2.63,11.65,11.65,0,0,1-2.11-2.43H15.22c.4,1.57.9,3.28,1.53,5.06Z"/><path class="cls-31" d="M180.56,121.36a42.58,42.58,0,0,0,3.5-5.06H147.92a17.26,17.26,0,0,1-5.25,1.32,86.5,86.5,0,0,1-15.47.43l-.47-1.75H115.56l-1,5.06Z"/><polygon class="cls-31" points="99.07 121.36 97.43 116.3 86.94 116.3 85.92 121.36 99.07 121.36"/><path class="cls-31" d="M68.2,121.36l-.93-5.06h-9v.54a73,73,0,0,1-7.74-.54H17a47.07,47.07,0,0,0,2.23,5.06Z"/><polygon class="cls-32" points="101.19 127.89 99.32 122.12 85.76 122.12 84.59 127.89 101.19 127.89"/><path class="cls-32" d="M174.24,127.89a49.67,49.67,0,0,0,5.7-5.77H114.43l-1.13,5.77Z"/><path class="cls-32" d="M69.4,127.89l-1.06-5.77H19.66a35.26,35.26,0,0,0,3.87,5.77Z"/><path class="cls-31" d="M163,134.84a43.17,43.17,0,0,0,10.29-6.15l.06,0H24.18a28.57,28.57,0,0,0,2.47,2.45,27.79,27.79,0,0,0,5.66,3.74Z"/><path class="cls-32" d="M139.8,140.94a96.84,96.84,0,0,0,21.37-5.34H33.9c5.41,2.44,12.33,4.16,20.42,5.34Z"/><path class="cls-32" d="M60.31,141.7a362.41,362.41,0,0,0,37.93,1.61,327.12,327.12,0,0,0,35.67-1.61Z"/><polygon class="cls-30" points="67.13 115.54 66.68 113.12 58.29 113.12 58.29 115.54 67.13 115.54"/><path class="cls-29" d="M37.07,109.72a16.33,16.33,0,0,1-2-6.92l-21.27-.07a50.6,50.6,0,0,0,1.21,7Z"/><path class="cls-33" d="M20.56,106.56c3.62.13,9.71-.85,11,2.41S39,119.49,62.2,120.6c3,.15,3.65,8.34,4,10.57.24,1.35,2.05,1.5,5.83,1.5h39.66c3.46,0,4.78.28,5.6-2.42s1.15-3.69,1.64-5.82,4.28-2.26,8.73-2.55,23.54,1.54,29.45-7.38c1.32-2,5.43-5.81,10.37-6s15.64-.42,13.82,2.56-5.42,29.65-87.71,29.65S16.78,106.42,20.56,106.56Z"/><path class="cls-34" d="M172,109.17a7.45,7.45,0,0,0-4.38-1.43,6.09,6.09,0,0,0-4.18,1.12,4,4,0,0,0-1.79,2.25,3,3,0,0,0,.57,2.48c.3.46.72.86,1.06,1.29a6.61,6.61,0,0,1,.52.78,2.08,2.08,0,0,1-.05.89c-.07.28-.25.54-.32.82a.73.73,0,0,0,.43.94,1.54,1.54,0,0,0,1.63-.49.59.59,0,0,1,.65.25,1.24,1.24,0,0,0,.43.42,1.7,1.7,0,0,0,1.41-.15c.3-.15,1.06-1.26,1.35-.58.1.22.2.45.44.51a1.24,1.24,0,0,0,.95.35c.47,0,1-.45,1-.87a4.79,4.79,0,0,0-.59-1.33c-.22-.52.25-1,.69-1.35a3.88,3.88,0,0,0,1.74-2.52A3.84,3.84,0,0,0,172,109.17ZM166.43,115a1.1,1.1,0,0,1-1.56.09,2.54,2.54,0,0,1-.89-1.9c0-.69-.17-2.39,1.07-2.34a.46.46,0,0,1,.27.09,1.25,1.25,0,0,1,.88.42A3,3,0,0,1,166.43,115Zm1.12,1.37c0,.13,0,.36-.19.42s-.38-.17-.39-.32a1.79,1.79,0,0,1,.21-.74c0-.12.23-.09.26,0a.13.13,0,0,1,.09.07A1.51,1.51,0,0,1,167.55,116.35Zm.84.45a.15.15,0,0,1-.18,0c-.26-.32-.12-.71-.14-1.07,0-.09.08-.12.16-.11a.17.17,0,0,1,.19,0C168.77,115.88,168.9,116.57,168.39,116.8Zm2.52-2.48c-.23.5-.66,1-1.35.75a1.54,1.54,0,0,1-.92-1.3c-.14-.87-.15-2.89,1.38-2.84l.16,0h0c.77-.08,1,1.14,1,1.57A4.76,4.76,0,0,1,170.91,114.32Z"/><path class="cls-34" d="M163.39,118.71c-.37-.43-.71-.88-1-1.34a.18.18,0,0,0-.13,0,22.83,22.83,0,0,0-1.59,2c-.36.48-.66,1-1,1.47-.68-.35-1.76.26-1.44,1a1,1,0,0,0,1.19.54,1.2,1.2,0,0,0,.32-.16,1,1,0,0,0,.93,1c.51,0,1-.34,1-.78a1.69,1.69,0,0,0-.5-1c.37-.44.67-.94,1-1.4A17.59,17.59,0,0,1,163.39,118.71Z"/><path class="cls-34" d="M178.74,119.44a1,1,0,0,0-1-.65,2.18,2.18,0,0,0-1.22.46c-.66-.45-1.34-.9-2-1.31a7.48,7.48,0,0,1-1.08-.76,1.84,1.84,0,0,0-.43-.3,2.59,2.59,0,0,1-.69,1.5c1.27.82,2.47,1.52,3.71,2.34a2.8,2.8,0,0,0,0,1c.12.4.64.48,1,.39,1-.21.84-.9.51-1.51C178.27,120.59,179,120.14,178.74,119.44Z"/><path class="cls-34" d="M176.69,107.67a1.08,1.08,0,0,0,.2-.62c0-.53-.53-.89-1.09-1-.94-.26-1,.78-.65,1.3-.85.49-1.73.92-2.6,1.36a3.93,3.93,0,0,1,1.28,1.54,8,8,0,0,0,1.34-.85c.29-.19.62-.34.93-.52.61.52,1.77.8,2-.13C178.33,107.93,177.44,107.68,176.69,107.67Z"/><path class="cls-34" d="M161.13,110.18l0,0a3,3,0,0,1,1-1.28h0c0-.05,0-.08-.09-.09a.13.13,0,0,0-.07-.1,28.69,28.69,0,0,0-2.41-1.82,1.46,1.46,0,0,0,.35-1c-.06-.49-.75-.62-1.21-.61a1,1,0,0,0-.85,1.61,2.16,2.16,0,0,0-1.06.14,1.09,1.09,0,0,0-.46,1.32.69.69,0,0,0,1,.5,2.47,2.47,0,0,0,.67-.57l.13-.13c1.17.39,1.82,1.44,2.92,2Z"/><path class="cls-34" d="M158.49,106.79l-.08,0s0,0,0,0,.06,0,.1-.05S158.52,106.77,158.49,106.79Z"/><path class="cls-35" d="M188.42,104H152.71v5c0,3-1.15,7.66-10,8.65a86.5,86.5,0,0,1-15.47.43l-1.31-4.82-9.71-.11-3,15.22-11.84.1L96.67,114H87.42l-3,14.58H69.52l-2.84-15.43H58.29v3.72s-14.19-.1-18.64-3.93-4.56-10.11-4.56-10.11l-21.27-.07s.07.86.29,2.3l18.94,0a16.17,16.17,0,0,0,5,9.63c4.94,4.26,18.65,4.48,20.19,4.5h1.25a1.07,1.07,0,0,0,.7-.25.79.79,0,0,0,.29-.61v-2.88h4.28l2.7,14.71a1,1,0,0,0,1,.72h17a1,1,0,0,0,1-.69l3.05-13.86,5.48,0,4.49,13.85a1,1,0,0,0,1,.62h0l13.83-.12a1,1,0,0,0,1-.7l3-14.12,6.06.06,1,4.22a.94.94,0,0,0,.87.68l.87.07c.1,0,.35,0,.75,0A146.62,146.62,0,0,0,143,120c8.14-.91,12.63-4.58,12.63-10.35l0-2.82,32.42,0A17.18,17.18,0,0,0,188.42,104Z"/><path class="cls-36" d="M85.49,128.62h-17l-2.84-15.43H59.52v3.73H58.28c-.6,0-14.75-.15-19.5-4.24s-4.92-10.57-4.93-10.85l3,0s.17,5.62,4.19,9.09c3,2.62,11.14,3.54,15.64,3.69l.26-3.9H67.63l3.29,15.61,12.34-.21,3.38-14.48H97.91l4.61,14.62,9.54-.07,3.08-15.09,12.23.13,1.07,4.32a87.38,87.38,0,0,0,14-.5c6-.67,8.55-1.92,9-7v-5l3-.07.08,5.25c0,5.54-4.5,8.68-11.77,9.5a137.61,137.61,0,0,1-15.71.93l-.88-.08-1.18-4.89-7.68-.08-3.12,14.83-13.83.12L95.74,114l-7,0Z"/><path class="cls-37" d="M154.52,102.94l-3,.07v2.34a2,2,0,0,1,1.48.39c1,.71.9,2.45.9,2.45a7.32,7.32,0,0,1-2.91,6,16.25,16.25,0,0,1-8.21,2.81,144.24,144.24,0,0,1-15,.94h-.58l-.33,0-1.07-4.43a.74.74,0,0,0-.72-.51l-7.68-.08h0a.72.72,0,0,0-.73.52l-3,14.32-12.65.11-4.54-14a.73.73,0,0,0-.72-.47l-7,0A.71.71,0,0,0,88,114l-3.09,14H69.1l-2.74-14.89a.72.72,0,0,0-.73-.54H59.52a.7.7,0,0,0-.74.64v3.09h-.49c-5,0-15.36-.94-19-4.07-2-1.73-4.54-6.29-3.68-8.14a1.7,1.7,0,0,1,1.4-.83,10.37,10.37,0,0,1-.16-1.45l-3,0c0,.28.19,6.76,4.93,10.85s18.9,4.24,19.5,4.24h1.24v-3.73h6.11l2.84,15.43h17l3.2-14.54,7,0,4.69,14.48,13.83-.12,3.12-14.83,7.68.08,1.18,4.89.88.08h.65a144.92,144.92,0,0,0,15.06-.94c7.27-.82,11.77-4,11.77-9.5Z"/><path class="cls-37" d="M37.49,105.18a13.71,13.71,0,0,1-.63-3.39l-3,0a16.26,16.26,0,0,0,.52,3.36Z"/><polygon class="cls-37" points="154.59 107.1 154.52 102.94 151.48 103.01 151.48 107.1 154.59 107.1"/><polygon class="cls-30" points="151.15 93.36 151.15 102.51 189 102.51 189 92.94 151.15 93.36"/><path class="cls-38" d="M154.36,94.49h31.76A3.85,3.85,0,0,1,189,95.75V92.94l-37.85.42v2.83A3.76,3.76,0,0,1,154.36,94.49Z"/><path class="cls-39" d="M186.12,100.74H154.36a3.75,3.75,0,0,1-3.21-1.69v3.46H189v-3A3.85,3.85,0,0,1,186.12,100.74Z"/><rect class="cls-40" x="155.71" y="95.84" width="6.29" height="4.47"/><rect class="cls-41" x="158.49" y="96.03" width="0.55" height="4.02"/><rect class="cls-42" x="155.9" y="97.8" width="5.86" height="0.48"/><path class="cls-43" d="M155.18,95.46v5.17h7.2V95.46Zm6.33,4.39H156V96.24h5.47Z"/><polygon class="cls-36" points="155.33 100.31 155.33 95.61 162.22 95.61 162.22 100.31 162.02 95.84 155.51 95.84 155.33 100.31"/><path class="cls-36" d="M156.25,98h5.12A18.62,18.62,0,0,1,156.25,98Z"/><rect class="cls-40" x="167.32" y="95.84" width="6.29" height="4.47"/><rect class="cls-41" x="170.1" y="96.03" width="0.55" height="4.02"/><rect class="cls-42" x="167.5" y="97.8" width="5.86" height="0.48"/><path class="cls-43" d="M166.78,95.46v5.17H174V95.46Zm6.34,4.39h-5.47V96.24h5.47Z"/><polygon class="cls-36" points="166.94 100.31 166.94 95.61 173.82 95.61 173.82 100.31 173.62 95.84 167.11 95.84 166.94 100.31"/><path class="cls-36" d="M167.85,98H173A18.62,18.62,0,0,1,167.85,98Z"/><rect class="cls-40" x="178.55" y="95.84" width="6.29" height="4.47"/><rect class="cls-41" x="181.33" y="96.03" width="0.55" height="4.02"/><rect class="cls-42" x="178.73" y="97.8" width="5.86" height="0.48"/><path class="cls-43" d="M178,95.46v5.17h7.2V95.46Zm6.34,4.39h-5.47V96.24h5.47Z"/><polygon class="cls-36" points="178.17 100.31 178.17 95.61 185.05 95.61 185.05 100.31 184.85 95.84 178.34 95.84 178.17 100.31"/><path class="cls-36" d="M179.08,98h5.13A18.71,18.71,0,0,1,179.08,98Z"/><path class="cls-13" d="M91.86,5.07A4.37,4.37,0,0,0,93.77,4c1.3-1,3.28-2,5.44-.48s3.33,2.23,4.5.69,1.91-3.14,4.75-1.17c0,0-1.85-.85-3.08,1.76s-.93,4.94-2.72,5.69-3.76-.53-4.57-1a2.84,2.84,0,0,0-3.27.16,4.22,4.22,0,0,1-3,1C90.94,10.61,91.86,5.07,91.86,5.07Z"/><path class="cls-44" d="M96.72,2.76a5.38,5.38,0,0,0-3,1.25l-.15.11v6.23a7.28,7.28,0,0,0,1.2-.7,3,3,0,0,1,1.9-.6Z"/><path class="cls-45" d="M102.73,5a2.54,2.54,0,0,1-2-.49v6.13a3.31,3.31,0,0,0,2-.14l.07,0Z"/><path class="cls-46" d="M99.69,3.86l-.48-.33a3.88,3.88,0,0,0-3.94-.42V9.38a2.81,2.81,0,0,1,2.82.11,11.71,11.71,0,0,0,1.6.84Z"/><path class="cls-47" d="M103.71,4.22v0c.08,1.56.08,3.13.08,4.7v.53c.62-1.11.72-2.82,1.6-4.66,1.23-2.61,3.08-1.76,3.08-1.76C105.62,1.08,104.88,2.68,103.71,4.22Z"/><path class="cls-14" d="M93,4.57a2.94,2.94,0,0,1-1.12.5s-.92,5.54,0,5.59A3.52,3.52,0,0,0,93,10.57Z"/><rect class="cls-48" x="90.87" y="4.04" width="1.28" height="7.45"/><rect class="cls-37" x="90.87" y="4.04" width="1.28" height="7.45"/><path class="cls-37" d="M92.15,5.5V4H90.87V5.56A2.1,2.1,0,0,0,92.15,5.5Z"/><path class="cls-37" d="M90.87,10v1.45h1.28V9.92A3.74,3.74,0,0,1,90.87,10Z"/><path class="cls-48" d="M93.22,3.69a1.62,1.62,0,0,1-3.21,0,1.62,1.62,0,0,1,3.21,0Z"/><path class="cls-37" d="M93.15,3.28a1.25,1.25,0,0,1-.05.32,1.35,1.35,0,0,1-.69.78,1.87,1.87,0,0,1-1.14.17,1.36,1.36,0,0,1-.59-.29,1.12,1.12,0,0,1-.33-.48.92.92,0,0,1,0-.69,1.07,1.07,0,0,1,.16-.32l.11-.12a.43.43,0,0,1,0-.07A1.33,1.33,0,0,0,90,3.69a1.62,1.62,0,0,0,3.21,0A1.35,1.35,0,0,0,93.15,3.28Z"/><path class="cls-49" d="M92.72,2.89a.79.79,0,0,0-.62-.42.73.73,0,0,0-.78.24c-.18.28.11.61.41.7a.77.77,0,0,0,.33,0,1,1,0,0,0,.5-.06A.38.38,0,0,0,92.72,2.89Z"/><path class="cls-49" d="M90.82,2.66c-.32.06-.45.71,0,.59.24-.07.43-.62.06-.59Z"/><polygon class="cls-48" points="88.68 12.39 89.05 10.55 94.39 10.55 94.82 12.44 88.68 12.39"/><path class="cls-37" d="M94.53,11.17a1,1,0,0,1-1,.5H90.07A1,1,0,0,1,89,10.88l-.31,1.51,6.14,0Z"/><polygon class="cls-48" points="87.6 12.02 95.56 12.02 96.12 14.41 86.99 14.3 87.6 12.02"/><path class="cls-37" d="M95.58,12.1a1.08,1.08,0,0,1-.94.45H88.53a1.1,1.1,0,0,1-1-.45L87,14.3l9.13.11Z"/><path class="cls-50" d="M94,10.68a36.05,36.05,0,0,0-4.65,0c-.06,0-.07,0,0,.06a36.07,36.07,0,0,0,4.65,0C94.1,10.8,94.12,10.68,94,10.68Z"/><path class="cls-50" d="M95.23,12.09c-2.37-.06-5-.11-7.39,0-.09,0-.11.05,0,.06,2.34.13,5,.09,7.37,0C95.42,12.21,95.45,12.09,95.23,12.09Z"/><polygon class="cls-36" points="150.61 102.02 150.68 104.52 189.55 104.47 189.92 101.96 150.61 102.02"/><path class="cls-37" d="M188.63,103.64H151.35a1.34,1.34,0,0,1-.7-.18l0,1.06,38.88-.06.23-1.53A1.15,1.15,0,0,1,188.63,103.64Z"/><polygon class="cls-36" points="12.5 100.1 37.35 100.1 37.76 102.8 12.95 102.76 12.5 100.1"/><path class="cls-37" d="M36.57,101.78h-23a1.32,1.32,0,0,1-.81-.25l.21,1.23,24.81,0-.22-1.43A1.21,1.21,0,0,1,36.57,101.78Z"/><polygon class="cls-36" points="150.32 93.65 189.82 93.65 188.34 91.09 152.13 91.09 150.32 93.65"/><path class="cls-37" d="M188.63,92.68h-36a1.17,1.17,0,0,1-1.13-.64l-1.14,1.61h39.5l-.62-1.08A1.41,1.41,0,0,1,188.63,92.68Z"/><polygon class="cls-51" points="224.09 231.93 221.62 233.03 92.03 20.14 94.5 19.03 224.09 231.93"/><path class="cls-37" d="M221.57,227.77a.92.92,0,0,1-1.4-.08c-1-1.51-56.48-92.23-56.17-91.67.2.35-14.09-23.08-15.86-26-.44-.74-24.19-39.91-25.3-41.61s-12.46-20.86-12.59-21.6c0-.26.28-.43.73-.54L101,29.72a4.19,4.19,0,0,1-2-.38s-2.47-4.37-3-5c-.24-.3.3-.79.92-1.2L94.49,19,92,20.14,221.62,233l2.47-1.11Z"/><path class="cls-52" d="M220.36,226.67c-1-2-95-156.17-96.21-158.13l-4-6.7c-2.67-4.45-5.29-8.93-8.12-13.31-.07-.12-.26,0-.2.1,2.45,4.4,5.11,8.72,7.71,13L123.3,68c1.32,2.19,31.27,52.28,32.77,54.38C156.18,122.55,220.45,226.85,220.36,226.67Z"/><polygon class="cls-51" points="-40.53 230.98 -38.07 232.1 92.69 21.31 90.24 20.18 -40.53 230.98"/><path class="cls-37" d="M-38,226.84a.92.92,0,0,0,1.4-.07c1-1.5,58.76-94.32,58.44-93.77-.2.35,12-19.35,13.75-22.28C36.07,110,60.24,71,61.37,69.32s12.68-20.76,12.82-21.5c0-.26-.28-.43-.72-.54L83.65,30.82c1.63-.09,1.95-.36,1.95-.36s2.52-4.35,3-5c.24-.31-.29-.79-.91-1.21l2.53-4.08,2.45,1.12L-38.07,232.11-40.53,231Z"/><path class="cls-52" d="M-36.75,225.75c1-2,95.61-154.34,96.81-156.29q2-3.34,4.1-6.67c2.72-4.43,5.38-8.89,8.26-13.24.08-.12.26,0,.2.1-2.5,4.38-5.2,8.67-7.85,13q-1.92,3.15-3.86,6.29c-1.34,2.19-31.83,52-33.35,54.12C27.44,123.21-36.84,225.93-36.75,225.75Z"/><path class="cls-8" d="M83.12,31.68,74.24,46a26.38,26.38,0,0,1,3.57-.63L83,37.05,78.86,45.3c.85-.07,1.7-.11,2.54-.12l6.17-12.54C86.07,32.39,84.59,32.06,83.12,31.68Z"/><path class="cls-8" d="M99.76,32.91l7.76,12.81h-.9L99.38,33c-.78.11-1.55.18-2.32.23l7,12.53H98.51c2.22.18,4.43.44,6.61.83a32.37,32.37,0,0,0,6.51.79l-9-15C101.65,32.6,100.71,32.78,99.76,32.91Z"/><path class="cls-53" d="M113.15,44.1c1.29-.28,1.87-.61,1.91-1.38s-.3-3-.15-4.15c0,0-3.27-.27-3.11,2.2S113.15,44.1,113.15,44.1Z"/><path class="cls-54" d="M113.15,44.1c1.29-.28,1.87-.61,1.91-1.38s-.3-3-.15-4.15c0,0-3.27-.27-3.11,2.2S113.15,44.1,113.15,44.1Z"/><path class="cls-53" d="M71.12,46.19a8.32,8.32,0,0,1,0-1.5,8.09,8.09,0,0,1,.35-2s-2.59.52-2.78,1.85S71.12,46.19,71.12,46.19Z"/><path class="cls-54" d="M71.12,46.19a8.32,8.32,0,0,1,0-1.5,8.09,8.09,0,0,1,.35-2s-2.59.52-2.78,1.85S71.12,46.19,71.12,46.19Z"/><path class="cls-53" d="M67.05,47.21a6.48,6.48,0,0,0,3.58-.42c.31-.16.56-.91-.49-1s-1.6-1,1.17-2,10.18-1.17,19-.48,17.34,2.71,21.1,1.75,4.22-2.76,2.47-3.29c-1-.32-2.4-.8-1.17-1.55a7,7,0,0,1,3.27-.64,35.35,35.35,0,0,0-.31-4.63c-.31-1.86-.8-5.74-.25-7.23,0,0-2.77-.43-3.76,1.17v.64s-2.53,1.06-7.9,1.12A110.5,110.5,0,0,1,83.1,28.32c-7.47-1.49-12.34.64-14.38,3.73,0,0-.06,1-.12,1.7a2.92,2.92,0,0,1-1.86.75s.37,4.68.37,6.59S67.05,47.21,67.05,47.21Z"/><path class="cls-55" d="M89.61,42.27c-.31-4.35-1.31-8.69-1.51-13-1.66-.27-3.34-.57-5-.91-7.47-1.49-12.34.64-14.38,3.73,0,0-.06,1-.12,1.7a2.92,2.92,0,0,1-1.86.75s.37,4.68.37,6.59-.06,6.12-.06,6.12a6.48,6.48,0,0,0,3.58-.42c.31-.16.56-.91-.49-1s-1.6-1,1.17-2,9.86-1.17,18.37-.53C89.65,43,89.63,42.61,89.61,42.27Z"/><path class="cls-56" d="M112.66,40.24a7,7,0,0,1,3.27-.64,35.35,35.35,0,0,0-.31-4.63c-.31-1.86-.8-5.74-.25-7.23,0,0-2.77-.43-3.76,1.17v.64s-2.53,1.06-7.9,1.12A97.27,97.27,0,0,1,88.6,29.31c.18,4.68,1.27,9.39,1.62,14h0C99,44,107.6,46,111.36,45.08s4.22-2.76,2.47-3.29C112.78,41.47,111.43,41,112.66,40.24Z"/><path class="cls-53" d="M113.83,41.79c-.69-.22-1.52-.5-1.65-.88A1.7,1.7,0,0,1,112,40c0-1.22,0-2.45,0-3.67,0-1.37-.15-2.74-.24-4.11-.08-1.11,0-2.25-.16-3.36l0,0v.64s-2.53,1.06-7.9,1.12A110.5,110.5,0,0,1,83.1,28.32c-7.47-1.49-12.34.64-14.38,3.73,0,0,0,.15,0,.39,0,.73,0,1.47,0,2.18.09,1.46.22,2.91.34,4.37a16,16,0,0,1,0,3.72c-.12.84-.37,1.89.2,2.63-.14-.36.31-.92,2-1.53,2.78-1,10.18-1.17,19-.48s17.34,2.71,21.1,1.75S115.58,42.32,113.83,41.79Z"/><path class="cls-57" d="M85.21,28.73l-2.11-.41c-5-1-8.9-.36-11.5,1.12.18,2.94.63,5.86.86,8.81.14,1.73.18,3.46.24,5.19a64.46,64.46,0,0,1,13.59-.37A137.94,137.94,0,0,1,85.21,28.73Z"/><path d="M110.36,40.92a1,1,0,0,0,0-.14.49.49,0,0,0,.07-.19,1.86,1.86,0,0,1,.18-.43.63.63,0,0,0,.17-.42,13,13,0,0,0-.17-1.75.58.58,0,0,0-.19-.34.6.6,0,0,0,.1-.45l-.24-1.28a.68.68,0,0,0-.21-.34.66.66,0,0,0,0-.15.56.56,0,0,0,.16-.47L110,32.67a.61.61,0,0,0-.29-.43.78.78,0,0,0-.44-.13h-.13l-4.21.62a.76.76,0,0,0-.5.28.54.54,0,0,0-.07.13l-.13,0a.91.91,0,0,0-.17-.17.85.85,0,0,0-.47-.15h-.08s-1.17.11-2.81.11c-.71,0-1.41,0-2.08-.06h0a.82.82,0,0,0-.51.17.63.63,0,0,0-.21.33H97.4c-.08-.2-.15-.37-.22-.51a.76.76,0,0,0-.38-.32,8.22,8.22,0,0,0-2.66-.35h0a.72.72,0,0,0-.72.5H93a.72.72,0,0,0-.72.53c-.18.83-.39,1.86-.6,2.82l-.63-.75a1.71,1.71,0,0,0,.34-.67l0,0a1.34,1.34,0,0,0,.09-.26l0,0a2,2,0,0,0,.1-.21,1.67,1.67,0,0,0-.07-1.92A4,4,0,0,0,88,30.65a10.12,10.12,0,0,0-2.34.29.75.75,0,0,0-.36.1.77.77,0,0,0-.34.3l-.4.08a.94.94,0,0,0-.37.11l0,0A.68.68,0,0,0,83.5,31s-.52-.05-1.2-.05a7.42,7.42,0,0,0-3.22.54h0a3.83,3.83,0,0,0-2.8-1.05,6.19,6.19,0,0,0-1.7.25,9.13,9.13,0,0,0-1.46.61,11.28,11.28,0,0,0-2.7,1.5.59.59,0,0,0-.19.77h0a.88.88,0,0,0,0,.15,4.44,4.44,0,0,1,.24.49,12,12,0,0,1,.45,1.9l.09.45a25.62,25.62,0,0,1,.51,4.29.62.62,0,0,0,.09.26.56.56,0,0,0,.21.35,3.68,3.68,0,0,0,.6.57.9.9,0,0,0,.74,0l.07,0,0,0c.46-.22.88-.42,1.3-.59A9.4,9.4,0,0,1,76,40.9l.18-.08a.67.67,0,0,0,.47-.57l0,0a.64.64,0,0,1,0-.07l0-.09a.74.74,0,0,0,0-.14s0,0,0-.05l0-.07a.75.75,0,0,0,.1-.2.43.43,0,0,0,0-.05.58.58,0,0,0,.14-.24.69.69,0,0,0,0-.47c-.18-.54-.41-1.08-.64-1.6h0a5.4,5.4,0,0,0,2-1.31,3.69,3.69,0,0,0,.48-.66.54.54,0,0,0,.16.1.83.83,0,0,0,.21.06l.08,1.85h-.09a.7.7,0,0,0-.73.57l-.19,1.49a1.09,1.09,0,0,0,.25.66l0,0a.61.61,0,0,0,.12.16l0,0,.1.12.12.09s0,0,0,0a.79.79,0,0,0,.54.21h0L83,40.59a.84.84,0,0,0,.37-.1A.66.66,0,0,0,83.8,40a.58.58,0,0,0,0-.14.6.6,0,0,0,.06-.19.49.49,0,0,0,.06-.17.53.53,0,0,0,.13-.26.79.79,0,0,0,.14-.23.58.58,0,0,0,.2.31,5.67,5.67,0,0,0,.39.41.81.81,0,0,0,.56.25h.5a9,9,0,0,1,1.41.1h.15a.8.8,0,0,0,.38-.1.7.7,0,0,0,.45-.42s0,0,0-.06,0,0,0-.06,0,0,0,0a.08.08,0,0,0,0-.06.93.93,0,0,0,.05-.1.35.35,0,0,0,0-.06s0,0,0-.05l0-.07v0l.55.65a.49.49,0,0,0,.13.12l0,0a.55.55,0,0,0,.2.17.89.89,0,0,0,.69.3,1.12,1.12,0,0,0,.47-.11l.16-.08a.67.67,0,0,0,.12-.06l.13-.07L91,40l.08,0h0l.09,0,0,0,0,0a.62.62,0,0,0,.14.14v0a.61.61,0,0,0,.19.17.79.79,0,0,0,.49.26l2.07.24h.1a.76.76,0,0,0,.39-.1l.18-.08a.52.52,0,0,0,.18-.18l0,0a.73.73,0,0,0,.2.19.75.75,0,0,0,.5.25l1.69.18h.09a.87.87,0,0,0,.39-.1.74.74,0,0,0,.27-.16.56.56,0,0,0,.19-.36.5.5,0,0,0,0-.13.48.48,0,0,0,.07-.2s0,0,0-.05c0,.61,0,1.06,0,1.14a.6.6,0,0,0,.07.27.62.62,0,0,0,.22.35A.49.49,0,0,0,99,42a.61.61,0,0,0,.2.19.76.76,0,0,0,.59.26h2a.86.86,0,0,0,.39-.09.84.84,0,0,0,.26-.15.62.62,0,0,0,.2-.37.34.34,0,0,0,0-.14.44.44,0,0,0,.07-.19.49.49,0,0,0,.06-.17.57.57,0,0,0,.12-.26.58.58,0,0,0,.17-.41l-.08-2.85h.16a.87.87,0,0,0,.39-.1.77.77,0,0,0,.25-.14l0,0a18.25,18.25,0,0,1,.14,3,.6.6,0,0,0,.07.3.65.65,0,0,0,.21.33.63.63,0,0,0,.2.23,1.29,1.29,0,0,0,.16.17h0l.12.12a.86.86,0,0,0,.47.14h.18a17.28,17.28,0,0,1,3-.35,4.84,4.84,0,0,1,.84.06l.16,0a.76.76,0,0,0,.39-.1.54.54,0,0,0,.2-.1A.63.63,0,0,0,110.36,40.92ZM83.59,37l-.39,0-.06-2.16.1-.05a.64.64,0,0,0,.46-.51.35.35,0,0,0,.06-.14.6.6,0,0,0,.06-.19.58.58,0,0,0,.06-.17l0-.06A2.91,2.91,0,0,0,84,34c.05.45.11.87.12,1.29,0,.66,0,1.32,0,2A.76.76,0,0,0,83.59,37Z"/><path class="cls-58" d="M82.79,37.56l-.39,0-.09-3.25h.33a.69.69,0,0,0,.74-.64V32.21a.69.69,0,0,0-.67-.64s-.53,0-1.21,0a7.34,7.34,0,0,0-3.21.54l0,0a3.84,3.84,0,0,0-2.8-1,5.85,5.85,0,0,0-1.7.26,10.64,10.64,0,0,0-3,1.62.57.57,0,0,0-.19.76,8.34,8.34,0,0,1,.75,2.56l.09.44a25.85,25.85,0,0,1,.51,4.3.64.64,0,0,0,.38.54.9.9,0,0,0,.36.08.91.91,0,0,0,.37-.08,14.73,14.73,0,0,1,2.74-1.11.71.71,0,0,0,.5-.46.69.69,0,0,0,0-.47,17.4,17.4,0,0,0-.74-1.85c-.08-.19-.16-.38-.25-.57a5.75,5.75,0,0,0,2.81-1.58,3.78,3.78,0,0,0,.54-.76.61.61,0,0,0,.23.15.88.88,0,0,0,.32.07.72.72,0,0,0,.29-.06l.09,0,.11,2.56h-.09a.72.72,0,0,0-.74.57l-.18,1.49a.6.6,0,0,0,.19.5.82.82,0,0,0,.55.21h0l3.36-.08a.7.7,0,0,0,.72-.64V38.19A.68.68,0,0,0,82.79,37.56Zm-8-3.3c.18,0,.36.08.38.18a.76.76,0,0,1-.39.36.66.66,0,0,1-.3.09c0-.15-.09-.3-.14-.45a1.84,1.84,0,0,1,.31-.16A.32.32,0,0,1,74.8,34.26Z"/><path class="cls-58" d="M109.85,38.59a.58.58,0,0,0-.19-.34.58.58,0,0,0,.11-.45l-.25-1.28a.62.62,0,0,0-.26-.39.61.61,0,0,0,.27-.58l-.33-2.29a.64.64,0,0,0-.29-.43.87.87,0,0,0-.45-.13h-.12l-4.22.63a.73.73,0,0,0-.49.27.59.59,0,0,0-.12.35.64.64,0,0,0-.25-.36.78.78,0,0,0-.47-.15h-.09s-1.16.11-2.81.11c-.7,0-1.4,0-2.08-.06h0a.86.86,0,0,0-.52.18.62.62,0,0,0-.23.48l0,1.25a11.26,11.26,0,0,0-.68-1.92.69.69,0,0,0-.37-.32,7.89,7.89,0,0,0-2.66-.35h0a.72.72,0,0,0-.73.53c-.26,1.27-.63,3-.92,4.25L91,36.82a17.06,17.06,0,0,0-1.13-1.31,3.46,3.46,0,0,0,.56-.39,1.71,1.71,0,0,0,.32-2.36,4,4,0,0,0-3.58-1.52,10.68,10.68,0,0,0-2.33.29.94.94,0,0,0-.37.11.68.68,0,0,0-.41.58.69.69,0,0,0,0,.2,11,11,0,0,0,.13,1.64,12.17,12.17,0,0,1,.13,1.3c0,.8,0,1.61,0,2.41l0,1a.7.7,0,0,0,.72.63h.5a10.4,10.4,0,0,1,1.4.09l.15,0a.73.73,0,0,0,.71-.47s0,0,0-.06a3.14,3.14,0,0,0,.09-.85c.36.45.71.87,1.06,1.27a.91.91,0,0,0,.73.34,1,1,0,0,0,.51-.14.34.34,0,0,0,.12-.06,1.55,1.55,0,0,1,.34-.16l.09,0,.39-.19a.58.58,0,0,0,.1.46.74.74,0,0,0,.53.29l2.06.24h.1a.85.85,0,0,0,.45-.13.66.66,0,0,0,.29-.43l.06-.44c0,.16,0,.32,0,.48a.67.67,0,0,0,.65.62l1.68.18h.09a.85.85,0,0,0,.54-.19.59.59,0,0,0,.19-.55c0-.25-.28-1.42-.59-2.71a.86.86,0,0,0,.36.08h0l1-.05c0,1.29,0,4,0,4.2a.69.69,0,0,0,.74.64h2a.82.82,0,0,0,.53-.19.57.57,0,0,0,.21-.46l-.1-4,.69.06H103a.8.8,0,0,0,.52-.18.61.61,0,0,0,.22-.5l-.2-2.45a25.06,25.06,0,0,1,.8,6.48.61.61,0,0,0,.27.52.84.84,0,0,0,.47.14.5.5,0,0,0,.17,0,19.12,19.12,0,0,1,3.05-.34,4.71,4.71,0,0,1,.83.06l.17,0a.75.75,0,0,0,.46-.15.61.61,0,0,0,.28-.5A13.83,13.83,0,0,0,109.85,38.59Z"/><path class="cls-59" d="M77.7,32.46a3.72,3.72,0,0,0-3.68-.6,9.59,9.59,0,0,0-2.82,1.51,10.52,10.52,0,0,1,.9,3.17,27,27,0,0,1,.52,4.38,16,16,0,0,1,2.89-1.16v0a.12.12,0,0,0,0-.12c-.33-1-.82-2-1.21-2.94l0-.1A5.48,5.48,0,0,0,77.48,35,1.8,1.8,0,0,0,77.7,32.46Zm-2.52,2.89a2.41,2.41,0,0,1-1.25.19c-.14-.44-.28-.88-.41-1.32a2.92,2.92,0,0,1,.83-.52,1.18,1.18,0,0,1,1.56.64C76,34.77,75.56,35.15,75.18,35.35Z"/><path class="cls-59" d="M78.62,32.63l.53,1.63,1.08-.4L80.41,38l-.86,0-.18,1.49,3.36-.08V38.19l-1-.08-.12-4.47h1.08V32.21S79.89,32,78.62,32.63Z"/><path class="cls-59" d="M89.72,39.08a.17.17,0,0,0,.25,0l0,0a2.38,2.38,0,0,1,.51-.24c.31-.15.62-.3.93-.43a0,0,0,0,0,0,0,32.9,32.9,0,0,0-2.76-3,3.46,3.46,0,0,0,1.24-.64,1.13,1.13,0,0,0,.21-1.61c-1-1.49-3.55-1.3-5.16-.9a.09.09,0,0,0-.09,0h0s0,.06,0,.07c0,1,.23,2,.25,3.08s.05,2.29.07,3.44a13.67,13.67,0,0,1,2,.12v0a13.61,13.61,0,0,0-.06-3C88,37,88.84,38.05,89.72,39.08Zm-2.81-4.93L86.7,33a1.87,1.87,0,0,1,1.53.37c.28.32-.11.74-.4.92a1.22,1.22,0,0,1-.85.15A2.11,2.11,0,0,1,86.91,34.15Z"/><path class="cls-59" d="M95.65,39.66l1.68.18a39.86,39.86,0,0,0-1.62-6.09,7.55,7.55,0,0,0-2.37-.29s-1,5.08-1.32,5.85l2.06.24.35-2.31,1,.11A16,16,0,0,1,95.65,39.66Zm-.87-4.76s.17.54.36,1.32a5,5,0,0,0-.55,0Z"/><path class="cls-59" d="M97.77,34.14l.06,2.33,1.75-.09s0,4.61,0,4.87h2l-.12-4.75,1.52.12-.2-2.53A37,37,0,0,1,97.77,34.14Z"/><path class="cls-59" d="M104.25,34a25.67,25.67,0,0,1,.82,6.67,14.9,14.9,0,0,1,4.22-.28,14.84,14.84,0,0,0-.17-1.67l-2.18.29-.1-.84s1.38-.19,2.2-.23l-.25-1.28-2.22.2-.21-1.21a7.68,7.68,0,0,1,2.43,0l-.33-2.29Z"/><g class="cls-21"><path class="cls-60" d="M72.22,37.24c.68-.24,1.37-.46,2.07-.67h0c.46-.13.93-.26,1.4-.37A4.78,4.78,0,0,0,77.48,35a1.8,1.8,0,0,0,.22-2.58,3.72,3.72,0,0,0-3.68-.6,9.59,9.59,0,0,0-2.82,1.51,10.52,10.52,0,0,1,.9,3.17Zm2.13-3.54a1.18,1.18,0,0,1,1.56.64c.07.43-.35.81-.73,1a2.41,2.41,0,0,1-1.25.19c-.14-.44-.28-.88-.41-1.32A2.92,2.92,0,0,1,74.35,33.7Z"/><path class="cls-60" d="M80.23,33.86l.07,1.52c.43-.05.86-.09,1.3-.12l0-1.62h1.08V32.21s-2.75-.24-4,.42l.53,1.63Z"/><path class="cls-60" d="M84.88,32.27a28,28,0,0,0,.24,2.88c1.22,0,2.44.1,3.65.24l-.08-.07a3.46,3.46,0,0,0,1.24-.64,1.13,1.13,0,0,0,.21-1.61c-1-1.49-3.55-1.3-5.16-.9a.09.09,0,0,0-.09,0h0S84.84,32.26,84.88,32.27Zm3.35,1.11c.28.32-.11.74-.4.92a1.22,1.22,0,0,1-.85.15,2.11,2.11,0,0,1-.07-.3L86.7,33A1.87,1.87,0,0,1,88.23,33.38Z"/><path class="cls-60" d="M96.67,36.84a17.76,17.76,0,0,0-1-3.09,7.55,7.55,0,0,0-2.37-.29s-.25,1.25-.55,2.6C94.08,36.33,95.37,36.62,96.67,36.84ZM94.78,34.9s.17.54.36,1.32a5,5,0,0,0-.55,0Z"/><path class="cls-60" d="M99.58,36.38v.83c.63,0,1.27.06,1.91.06l0-.77,1.52.12-.2-2.53a37,37,0,0,1-5,0l.06,2.33Z"/><path class="cls-60" d="M106.81,36.8l-.24,0-.21-1.21a7.68,7.68,0,0,1,2.43,0l-.33-2.29-4.21.62a30,30,0,0,1,.61,3.13C105.52,37,106.17,36.92,106.81,36.8Z"/></g><path class="cls-61" d="M110.15,30.09a36,36,0,0,1-6.38.75c-2.31,0-4.61-.13-6.91-.29-2-.14-4-.32-6-.62-2.19-.32-4.32-.89-6.47-1.35-5.41-1.16-12-1.13-15.45,3.31-.05.06,0,.13.1.07,4-4.76,11.9-3.45,17.52-2.19a70.06,70.06,0,0,0,12.11,1.47c3.81.17,8,.27,11.57-1C110.28,30.18,110.24,30.07,110.15,30.09Z"/><ellipse class="cls-48" cx="91.7" cy="18.2" rx="6.54" ry="5.64"/><path class="cls-62" d="M91.74,13.48a6.78,6.78,0,0,1,6.47,4.19c-.31-2.87-3.11-5.11-6.51-5.11S85.27,15,85.16,18A6.69,6.69,0,0,1,91.74,13.48Z"/><path class="cls-63" d="M98.21,17.66a.4.4,0,0,1-.37.11,8.21,8.21,0,0,1-1.36-.5c-.25-.08-.57-.16-.67-.4s0-.72.22-1.06a10.26,10.26,0,0,0,.59-1.32,5.47,5.47,0,0,0-.51-.45c-.48.18-1,.38-1.46.55-.34.12-1,.47-1.36.38s-.55-.38-.73-.68a10,10,0,0,1-.84-1.71v0h-.43c-.21.58-.42,1.16-.68,1.73-.19.4-.29.78-.83.88s-1-.31-1.41-.43a4.63,4.63,0,0,1-1.29-.54l-.18.16c.14.37.3.72.46,1.08s.44.75.4,1.09c-.08.63-.76.57-1.26.81-.35.16-1,.38-1.26,0a4.8,4.8,0,0,0-.07.85,5.07,5.07,0,0,0,0,.68c.68.24,1.37.44,2,.67.26.08.59.25.61.53a2.22,2.22,0,0,1-.39,1.11c-.15.31-.32.61-.48.92a7.08,7.08,0,0,0,4.71,1.73A7,7,0,0,0,96.5,22a10.17,10.17,0,0,1-.76-1.25c-.17-.24-.42-.51-.28-.8s1-.5,1.4-.63l1.33-.46a5.06,5.06,0,0,0,0-.68A4.63,4.63,0,0,0,98.21,17.66ZM90.66,23.2c0,.2-.19.29-.41.27-.43,0-1.18-.13-1.39-.52s.36-.73.74-1l.13-.05a.37.37,0,0,1,.5.06A2.12,2.12,0,0,1,90.66,23.2ZM94.41,23a2.21,2.21,0,0,1-1.63.36.28.28,0,0,1-.22-.35,3.19,3.19,0,0,1,.63-1,.35.35,0,0,1,.33-.12.33.33,0,0,1,.25,0,3.14,3.14,0,0,1,.62.44A.41.41,0,0,1,94.41,23Z"/><path class="cls-64" d="M87.07,22.18v0c.17-.35,2-4.14,3.22-5.17s6-2.78,6-2.78-2.11,4.29-3.23,5.19A25.25,25.25,0,0,1,87.07,22.18Z"/><path class="cls-65" d="M94.58,16.67a1.76,1.76,0,0,1-.85-.37,1.27,1.27,0,0,1-.32-.94A16,16,0,0,0,90.3,17a11.71,11.71,0,0,0-2,2.88,1.3,1.3,0,0,1,.78,0,1,1,0,0,1,.58.59,2.88,2.88,0,0,1,.2.71,21.69,21.69,0,0,0,3.26-1.73A12,12,0,0,0,95,16.64C94.88,16.58,94.74,16.69,94.58,16.67Z"/><path class="cls-64" d="M87.07,14.21v0c.17.36,2,4.15,3.22,5.17s6,2.78,6,2.78S94.21,17.9,93.09,17A25.74,25.74,0,0,0,87.07,14.21Z"/><path class="cls-65" d="M94.58,19.72a1.86,1.86,0,0,0-.85.37,1.27,1.27,0,0,0-.32.94A15.51,15.51,0,0,1,90.3,19.4a11.63,11.63,0,0,1-2-2.87,1.38,1.38,0,0,0,.78,0,1,1,0,0,0,.58-.58,3,3,0,0,0,.2-.71A21.21,21.21,0,0,1,93.09,17,11.83,11.83,0,0,1,95,19.76C94.88,19.81,94.74,19.7,94.58,19.72Z"/><path class="cls-66" d="M91.7,23.84l0,0c-.17-.35-2-4.13-2-5.61s2-5.64,2-5.64,2,4.32,2,5.64A18.87,18.87,0,0,1,91.7,23.84Z"/><path class="cls-67" d="M92.72,20.91a2.47,2.47,0,0,1,.11.36,14.73,14.73,0,0,0,.84-3.07,9.76,9.76,0,0,0-.84-3c-.06,1.18-2.18,1.18-2.27,0a11.31,11.31,0,0,0-.84,3A9,9,0,0,0,90.45,21C90.59,20.13,92.29,19.89,92.72,20.91Z"/><path class="cls-66" d="M85.16,18.2h0c.4-.15,4.79-1.73,6.51-1.7s6.54,1.71,6.54,1.71-5,1.74-6.54,1.7A27.42,27.42,0,0,1,85.16,18.2Z"/><path class="cls-68" d="M89.47,18a4.32,4.32,0,0,1,1-1.36,45.52,45.52,0,0,0-5.31,1.55C86.48,18.35,88.93,18.92,89.47,18Z"/><path class="cls-68" d="M92.88,16.75c.54.39.74,1.05,1.52,1.2a17.81,17.81,0,0,0,3.75.22,45.61,45.61,0,0,0-5.52-1.57A1.28,1.28,0,0,1,92.88,16.75Z"/><path class="cls-48" d="M93.67,18.2a2,2,0,0,1-4,0,2,2,0,0,1,4,0Z"/><path class="cls-63" d="M89.72,18.17v0a2,2,0,0,0,4,0A5.23,5.23,0,0,1,89.72,18.17Z"/><path class="cls-50" d="M92.55,16.83a1.18,1.18,0,0,0-.49-.12c.08,0,0,0,0,0a.65.65,0,0,0-.2,0,.69.69,0,0,0-.19.1.58.58,0,0,0-.18.11.72.72,0,0,0-.13.84,1.29,1.29,0,0,0,1.13.6.79.79,0,0,0,.85-.59C93.38,17.35,92.94,17,92.55,16.83Z"/><path class="cls-50" d="M91,17.32a.23.23,0,0,0-.25-.18.6.6,0,0,0-.46.24c-.13.15-.19.43.06.52a.26.26,0,0,0,.23,0,.61.61,0,0,0,.31-.13A.45.45,0,0,0,91,17.32Z"/><path class="cls-51" d="M110.5,47A1.43,1.43,0,0,1,109,48.28H75.76A1.43,1.43,0,0,1,74.21,47h0a1.44,1.44,0,0,1,1.55-1.28H109A1.43,1.43,0,0,1,110.5,47Z"/><path class="cls-37" d="M109.53,45.81a.85.85,0,0,1-.43,1.58l-33.9-.07a.83.83,0,0,1-.87-.81,1,1,0,0,0-.12.49,1.43,1.43,0,0,0,1.55,1.28H109A1.43,1.43,0,0,0,110.5,47,1.31,1.31,0,0,0,109.53,45.81Z"/><path class="cls-50" d="M109.11,46.2c-2.55-.16-5.16,0-7.73,0H92.63c-5.81,0-11.63,0-17.44.1-.15,0-.13.2,0,.2,5.66.15,11.32.1,17,.1h8.26c2.86,0,5.79.15,8.65,0A.17.17,0,0,0,109.11,46.2Z"/><path class="cls-69" d="M61.31,129c0,3.58-3.53,6.49-7.88,6.49s-7.89-2.91-7.89-6.49,3.53-6.48,7.89-6.48S61.31,125.4,61.31,129Z"/><ellipse class="cls-36" cx="53.39" cy="128.9" rx="7.49" ry="6.03"/><path class="cls-30" d="M59.32,128.9c0,2.64-2.65,4.78-5.93,4.78s-5.92-2.14-5.92-4.78,2.65-4.77,5.92-4.77S59.32,126.27,59.32,128.9Z"/><polygon class="cls-36" points="53.2 125.5 54.56 127.7 57.61 128.06 55.4 129.77 55.91 132.19 53.19 131.04 50.47 132.18 50.99 129.76 48.79 128.04 51.84 127.7 53.2 125.5"/><path class="cls-70" d="M60.28,126.53a7.7,7.7,0,0,0-6.89-3.66c-3.25,0-6,1.68-7,4C49.94,129.86,56.85,129.6,60.28,126.53Z"/><path class="cls-37" d="M45.94,129.41c.31,3.09,3.53,5.53,7.45,5.53,4.11,0,7.43-2.66,7.49-5.95A15.44,15.44,0,0,1,45.94,129.41Z"/><path class="cls-71" d="M55.41,125a5.84,5.84,0,0,0-6.8,2.16s.06.1.1.06c1.71-1.8,4-2.11,6.58-1.89C55.51,125.3,55.63,125,55.41,125Z"/><path class="cls-71" d="M56.54,125.31a.54.54,0,0,0-.23-.1.32.32,0,0,0-.37.22.3.3,0,0,0,.34.32.48.48,0,0,0,.25-.09A.21.21,0,0,0,56.54,125.31Z"/><path class="cls-72" d="M58.15,125a7.36,7.36,0,0,0-10.57.8s0,.08.07,0a8.76,8.76,0,0,1,5-2,10.36,10.36,0,0,1,2.78.08,8.75,8.75,0,0,1,2.68,1.19C58.13,125.12,58.18,125.06,58.15,125Z"/><path class="cls-69" d="M54.74,122a.63.63,0,0,1-1.25,0,.63.63,0,0,1,1.25,0Z"/><path class="cls-36" d="M54.59,121.88a.42.42,0,1,1-.42-.36A.39.39,0,0,1,54.59,121.88Z"/><path class="cls-69" d="M53.18,136a.63.63,0,0,1-1.25,0,.63.63,0,0,1,1.25,0Z"/><path class="cls-36" d="M53,135.94a.39.39,0,0,1-.42.36.36.36,0,1,1,0-.72A.39.39,0,0,1,53,135.94Z"/><path class="cls-69" d="M47.85,134.05a.63.63,0,1,1-.63-.55A.6.6,0,0,1,47.85,134.05Z"/><path class="cls-36" d="M47.69,134a.39.39,0,0,1-.42.36.36.36,0,1,1,0-.72A.39.39,0,0,1,47.69,134Z"/><path class="cls-69" d="M45.43,128.33a.63.63,0,0,1-1.25,0,.63.63,0,0,1,1.25,0Z"/><path class="cls-36" d="M45.28,128.25a.42.42,0,1,1-.42-.36A.39.39,0,0,1,45.28,128.25Z"/><path class="cls-69" d="M48.67,123.33a.63.63,0,0,1-1.25,0,.63.63,0,0,1,1.25,0Z"/><path class="cls-36" d="M48.52,123.25a.42.42,0,1,1-.42-.36A.39.39,0,0,1,48.52,123.25Z"/><path class="cls-69" d="M61,124.76a.63.63,0,1,1-.62-.54A.58.58,0,0,1,61,124.76Z"/><path class="cls-36" d="M60.86,124.68a.39.39,0,0,1-.42.36.38.38,0,0,1-.41-.36.39.39,0,0,1,.41-.36A.4.4,0,0,1,60.86,124.68Z"/><path class="cls-69" d="M62.53,130.35a.63.63,0,1,1-.63-.55A.6.6,0,0,1,62.53,130.35Z"/><path class="cls-36" d="M62.37,130.27a.39.39,0,0,1-.42.36.36.36,0,1,1,0-.72A.39.39,0,0,1,62.37,130.27Z"/><path class="cls-69" d="M59.32,134.63a.63.63,0,0,1-1.25,0,.63.63,0,0,1,1.25,0Z"/><path class="cls-36" d="M59.16,134.55a.38.38,0,0,1-.41.36.39.39,0,0,1-.42-.36.4.4,0,0,1,.42-.36A.39.39,0,0,1,59.16,134.55Z"/><ellipse class="cls-69" cx="135.38" cy="128.56" rx="7.89" ry="6.48"/><path class="cls-36" d="M142.84,128.48c0,3.33-3.36,6-7.49,6s-7.49-2.7-7.49-6,3.35-6,7.49-6S142.84,125.15,142.84,128.48Z"/><path class="cls-30" d="M141.27,128.48c0,2.63-2.65,4.77-5.92,4.77s-5.92-2.14-5.92-4.77,2.65-4.77,5.92-4.77S141.27,125.84,141.27,128.48Z"/><polygon class="cls-36" points="135.16 125.07 136.52 127.28 139.56 127.63 137.35 129.34 137.87 131.76 135.15 130.62 132.42 131.75 132.95 129.34 130.75 127.62 133.79 127.27 135.16 125.07"/><path class="cls-70" d="M142.24,126.11a7.72,7.72,0,0,0-6.89-3.66c-3.26,0-6,1.67-7.06,4C131.9,129.43,138.81,129.18,142.24,126.11Z"/><path class="cls-37" d="M127.89,129c.32,3.1,3.53,5.53,7.46,5.53,4.1,0,7.43-2.66,7.48-5.95A15.44,15.44,0,0,1,127.89,129Z"/><path class="cls-71" d="M137.37,124.53a5.84,5.84,0,0,0-6.81,2.15c0,.06.06.11.11.06,1.7-1.79,4.05-2.1,6.58-1.89C137.47,124.87,137.58,124.61,137.37,124.53Z"/><path class="cls-71" d="M138.5,124.88a.5.5,0,0,0-.24-.09.31.31,0,0,0-.36.22.29.29,0,0,0,.33.32.5.5,0,0,0,.25-.09A.22.22,0,0,0,138.5,124.88Z"/><path class="cls-72" d="M140.1,124.6a7.34,7.34,0,0,0-10.56.81s0,.08.06,0a8.88,8.88,0,0,1,5-2,10.34,10.34,0,0,1,2.78.09,9,9,0,0,1,2.69,1.18S140.14,124.64,140.1,124.6Z"/><path class="cls-69" d="M136.7,121.53a.63.63,0,0,1-1.25,0,.63.63,0,0,1,1.25,0Z"/><path class="cls-36" d="M136.54,121.45a.38.38,0,0,1-.41.36.36.36,0,1,1,0-.72A.38.38,0,0,1,136.54,121.45Z"/><path class="cls-69" d="M135.14,135.59a.63.63,0,0,1-1.25,0,.63.63,0,0,1,1.25,0Z"/><path class="cls-36" d="M135,135.51a.38.38,0,0,1-.41.36.36.36,0,1,1,0-.72A.38.38,0,0,1,135,135.51Z"/><path class="cls-69" d="M129.8,133.62a.63.63,0,1,1-.62-.54A.58.58,0,0,1,129.8,133.62Z"/><path class="cls-36" d="M129.65,133.54a.43.43,0,1,1-.42-.36A.39.39,0,0,1,129.65,133.54Z"/><path class="cls-69" d="M127.39,127.9a.63.63,0,0,1-1.25,0,.63.63,0,0,1,1.25,0Z"/><path class="cls-36" d="M127.23,127.82a.39.39,0,0,1-.42.36.36.36,0,1,1,0-.72A.39.39,0,0,1,127.23,127.82Z"/><path class="cls-69" d="M130.63,122.9a.63.63,0,0,1-1.25,0,.63.63,0,0,1,1.25,0Z"/><path class="cls-36" d="M130.47,122.82a.39.39,0,0,1-.42.36.36.36,0,1,1,0-.72A.39.39,0,0,1,130.47,122.82Z"/><path class="cls-69" d="M143,124.34a.63.63,0,1,1-.63-.55A.6.6,0,0,1,143,124.34Z"/><path class="cls-36" d="M142.81,124.26a.38.38,0,0,1-.41.36.36.36,0,1,1,0-.72A.38.38,0,0,1,142.81,124.26Z"/><path class="cls-69" d="M144.48,129.92a.63.63,0,1,1-.62-.54A.59.59,0,0,1,144.48,129.92Z"/><path class="cls-36" d="M144.33,129.84a.43.43,0,1,1-.42-.35A.39.39,0,0,1,144.33,129.84Z"/><path class="cls-69" d="M141.27,134.21a.63.63,0,0,1-1.25,0,.63.63,0,0,1,1.25,0Z"/><path class="cls-36" d="M141.12,134.13a.42.42,0,1,1-.42-.36A.39.39,0,0,1,141.12,134.13Z"/><path class="cls-69" d="M99.28,131.54c0,2.81-2.78,5.1-6.21,5.1s-6.21-2.29-6.21-5.1,2.78-5.1,6.21-5.1S99.28,128.72,99.28,131.54Z"/><path class="cls-36" d="M98.94,131.48c0,2.61-2.64,4.74-5.89,4.74s-5.89-2.13-5.89-4.74,2.63-4.75,5.89-4.75S98.94,128.86,98.94,131.48Z"/><path class="cls-30" d="M97.71,131.48c0,2.07-2.09,3.75-4.66,3.75s-4.66-1.68-4.66-3.75,2.08-3.76,4.66-3.76S97.71,129.4,97.71,131.48Z"/><polygon class="cls-36" points="92.9 128.8 93.96 130.53 96.36 130.81 94.62 132.16 95.03 134.06 92.89 133.16 90.74 134.05 91.16 132.15 89.43 130.8 91.82 130.53 92.9 128.8"/><path class="cls-70" d="M98.46,129.61a6.06,6.06,0,0,0-5.41-2.88,6,6,0,0,0-5.56,3.16C90.33,132.22,95.76,132,98.46,129.61Z"/><path class="cls-37" d="M87.18,131.87c.25,2.44,2.78,4.35,5.87,4.35s5.84-2.09,5.88-4.68A12.15,12.15,0,0,1,87.18,131.87Z"/><path class="cls-71" d="M94.63,128.37a4.6,4.6,0,0,0-5.35,1.69c0,.05,0,.09.08.05,1.35-1.41,3.19-1.65,5.18-1.48C94.71,128.64,94.8,128.43,94.63,128.37Z"/><path class="cls-71" d="M95.52,128.65a.3.3,0,0,0-.18-.08.25.25,0,0,0-.29.18.24.24,0,0,0,.27.25.44.44,0,0,0,.19-.07A.16.16,0,0,0,95.52,128.65Z"/><path class="cls-72" d="M96.78,128.43a5.78,5.78,0,0,0-8.31.63s0,.06,0,0a7,7,0,0,1,3.92-1.61,8,8,0,0,1,2.18.07,7.09,7.09,0,0,1,2.12.93S96.81,128.45,96.78,128.43Z"/><path class="cls-69" d="M94.11,126a.5.5,0,1,1-.5-.43A.46.46,0,0,1,94.11,126Z"/><path class="cls-36" d="M94,126a.3.3,0,0,1-.32.28.31.31,0,0,1-.33-.28.31.31,0,0,1,.33-.28A.3.3,0,0,1,94,126Z"/><path class="cls-69" d="M92.88,137.07a.49.49,0,1,1-.49-.43A.46.46,0,0,1,92.88,137.07Z"/><path class="cls-36" d="M92.76,137a.33.33,0,0,1-.66,0,.33.33,0,0,1,.66,0Z"/><path class="cls-69" d="M88.68,135.52a.49.49,0,1,1-.49-.43A.46.46,0,0,1,88.68,135.52Z"/><path class="cls-36" d="M88.56,135.46a.33.33,0,1,1-.33-.28A.31.31,0,0,1,88.56,135.46Z"/><path class="cls-69" d="M86.78,131a.49.49,0,0,1-1,0,.49.49,0,0,1,1,0Z"/><path class="cls-36" d="M86.66,131a.33.33,0,1,1-.33-.28A.31.31,0,0,1,86.66,131Z"/><path class="cls-69" d="M89.33,127.09a.49.49,0,0,1-1,0,.49.49,0,0,1,1,0Z"/><path class="cls-36" d="M89.21,127a.33.33,0,1,1-.33-.29A.31.31,0,0,1,89.21,127Z"/><path class="cls-69" d="M99,128.22a.49.49,0,1,1-.49-.43A.46.46,0,0,1,99,128.22Z"/><path class="cls-36" d="M98.92,128.16a.33.33,0,1,1-.33-.29A.31.31,0,0,1,98.92,128.16Z"/><path class="cls-69" d="M100.23,132.61a.49.49,0,0,1-1,0,.49.49,0,0,1,1,0Z"/><path class="cls-36" d="M100.11,132.55a.33.33,0,0,1-.66,0,.33.33,0,0,1,.66,0Z"/><path class="cls-69" d="M97.7,136a.46.46,0,0,1-.49.43.46.46,0,0,1-.49-.43.47.47,0,0,1,.49-.43A.46.46,0,0,1,97.7,136Z"/><path class="cls-36" d="M97.58,135.92a.3.3,0,0,1-.32.28.31.31,0,0,1-.33-.28.3.3,0,0,1,.33-.28A.3.3,0,0,1,97.58,135.92Z"/><rect class="cls-1" x="-33.21" y="-13.27" width="256.82" height="166.24"/></g></g></g></svg>