<?xml version="1.0" encoding="utf-8"?>
<!-- Generator: Adobe Illustrator 23.0.0, SVG Export Plug-In . SVG Version: 6.00 Build 0)  -->
<svg version="1.1" id="圖層_1" xmlns="http://www.w3.org/2000/svg" xmlns:xlink="http://www.w3.org/1999/xlink" x="0px" y="0px"
	 viewBox="0 0 106.2 155.9" style="enable-background:new 0 0 106.2 155.9;" xml:space="preserve">
<style type="text/css">
	.st0{fill:#F91C1C;}
	.st1{fill:#9E0B0B;}
	.st2{fill:#D31A1A;}
</style>
<title>設施介紹-資產 1</title>
<g id="objects">
	<path class="st0" d="M53.1,0C23.8,0,0,23.7,0,53.1C0,76.6,15.4,97.3,38,104l13.7,47.3l1.3,4.6l16.7-52.4c27.8-9.2,43-39.2,33.8-67
		C96.3,14.7,76,0,53.1,0z M53.1,80c-0.5,0-1,0-1.4,0c-14.9-1.2-26-14.2-24.8-29.1c1.1-13.2,11.6-23.7,24.8-24.8l0,0
		c0.5,0,0.9,0,1.4,0c14.9-0.9,27.7,10.4,28.6,25.3c0.9,14.9-10.4,27.7-25.3,28.6C55.2,80.1,54.1,80.1,53.1,80L53.1,80z M53.1,39.9
		c-7.3,0-13.2,5.9-13.2,13.1s5.9,13.2,13.1,13.2c7.3,0,13.1-5.9,13.2-13.1C66.2,45.8,60.3,39.9,53.1,39.9
		C53.1,39.9,53.1,39.9,53.1,39.9L53.1,39.9z"/>
	<path class="st1" d="M106.2,53.1c0,22.9-14.7,43.2-36.4,50.4L53,155.9l-1.3-4.7V80c0.5,0,0.9,0,1.4,0C68,80,80,67.9,80,53.1
		s-12.1-27-26.9-27c0,0,0,0,0,0c-0.5,0-0.9,0-1.4,0l0,0V0c0.5,0,0.9,0,1.4,0C82.4,0,106.2,23.8,106.2,53.1z"/>
	<path class="st2" d="M53.1,19.6c-0.5,0-1,0-1.4,0c-18.5,0.8-32.8,16.4-32,34.8c0.7,17.4,14.6,31.3,32,32c0.5,0,0.9,0,1.4,0
		c18.5,0,33.4-15,33.4-33.5C86.5,34.5,71.5,19.6,53.1,19.6L53.1,19.6z M53.1,80c-0.5,0-1,0-1.4,0c-14.9-1.2-26-14.2-24.8-29.1
		c1.1-13.2,11.6-23.7,24.8-24.8l0,0c0.5,0,0.9,0,1.4,0c14.9-0.9,27.7,10.4,28.6,25.3c0.9,14.9-10.4,27.7-25.3,28.6
		C55.2,80.2,54.1,80.2,53.1,80L53.1,80z"/>
</g>
</svg>
