<svg xmlns="http://www.w3.org/2000/svg" xmlns:xlink="http://www.w3.org/1999/xlink" viewBox="0 0 99 59"><defs><style>.cls-1{fill:none;}.cls-2{isolation:isolate;}.cls-3{clip-path:url(#clip-path);}.cls-4{clip-path:url(#clip-path-2);}.cls-5{fill:#252d76;}.cls-6{fill:#ff0d07;}.cls-25,.cls-7{fill:#ffc502;}.cls-7{mix-blend-mode:screen;}.cls-12,.cls-17,.cls-21,.cls-23,.cls-31,.cls-33,.cls-35,.cls-8{mix-blend-mode:multiply;}.cls-9{fill:#aa9e2d;}.cls-10,.cls-12{fill:#ebe9f4;}.cls-11{fill:#b48294;}.cls-13{fill:red;}.cls-14{fill:#ff5;}.cls-15{fill:#ffb70d;}.cls-16,.cls-19,.cls-20{fill:#fff;}.cls-16,.cls-18,.cls-21,.cls-31,.cls-33,.cls-35{opacity:0.5;}.cls-17{fill:#ffd703;opacity:0.6;}.cls-19{opacity:0.2;}.cls-21{fill:#ae3c22;}.cls-22{fill:#efe863;}.cls-23,.cls-26{fill:#d3c94c;}.cls-24{fill:#d37b04;}.cls-27{fill:url(#radial-gradient);}.cls-28{fill:#ffbfbd;opacity:0.7;}.cls-29,.cls-35{fill:#8b1000;}.cls-30,.cls-31{fill:#590600;}.cls-32{fill:url(#radial-gradient-2);}.cls-34{fill:url(#linear-gradient);}.cls-36{fill:url(#linear-gradient-2);}.cls-37{fill:url(#linear-gradient-3);}.cls-38{fill:url(#linear-gradient-4);}.cls-39{fill:url(#linear-gradient-5);}.cls-40{fill:url(#linear-gradient-6);}.cls-41{fill:url(#linear-gradient-7);}.cls-42{fill:url(#radial-gradient-3);}</style><clipPath id="clip-path"><rect class="cls-1" y="-0.5" width="98.5" height="60"/></clipPath><clipPath id="clip-path-2"><rect class="cls-1" x="-21.52" y="-16.54" width="137.02" height="75.2"/></clipPath><radialGradient id="radial-gradient" cx="34.56" cy="18.25" r="94.39" gradientUnits="userSpaceOnUse"><stop offset="0" stop-color="#ae160b"/><stop offset="0.43" stop-color="#d91e00"/><stop offset="1" stop-color="#640800"/></radialGradient><radialGradient id="radial-gradient-2" cx="36.6" cy="114.87" r="100.6" gradientUnits="userSpaceOnUse"><stop offset="0.9" stop-color="#ae160b"/><stop offset="0.96" stop-color="#d91e00"/><stop offset="1" stop-color="#640800"/></radialGradient><linearGradient id="linear-gradient" x1="37.6" y1="65.11" x2="37.6" y2="13.29" gradientUnits="userSpaceOnUse"><stop offset="0" stop-color="#ae160b"/><stop offset="0.43" stop-color="#d91e00"/><stop offset="0.6" stop-color="#d71e00"/><stop offset="0.66" stop-color="#d01c00"/><stop offset="0.71" stop-color="#c41a00"/><stop offset="0.75" stop-color="#b31700"/><stop offset="0.79" stop-color="#9c1300"/><stop offset="0.82" stop-color="#810d00"/><stop offset="0.84" stop-color="#640800"/></linearGradient><linearGradient id="linear-gradient-2" x1="23.96" y1="65.11" x2="23.96" y2="14.27" xlink:href="#linear-gradient"/><linearGradient id="linear-gradient-3" x1="10.31" y1="65.11" x2="10.31" y2="17.97" xlink:href="#linear-gradient"/><linearGradient id="linear-gradient-4" x1="92.18" y1="65.11" x2="92.18" y2="30.53" xlink:href="#linear-gradient"/><linearGradient id="linear-gradient-5" x1="78.54" y1="65.11" x2="78.54" y2="24.16" xlink:href="#linear-gradient"/><linearGradient id="linear-gradient-6" x1="64.89" y1="65.11" x2="64.89" y2="18.07" xlink:href="#linear-gradient"/><linearGradient id="linear-gradient-7" x1="51.25" y1="65.11" x2="51.25" y2="14.5" xlink:href="#linear-gradient"/><radialGradient id="radial-gradient-3" cx="38.28" cy="7.37" r="87.01" xlink:href="#radial-gradient"/></defs><title>設施介紹-工作區域 11</title><g class="cls-2"><g id="Layer_1" data-name="Layer 1"><g class="cls-3"><g class="cls-4"><path d="M12.16,14.53A2.23,2.23,0,1,1,9.42,13,2.23,2.23,0,0,1,12.16,14.53Z"/><path class="cls-5" d="M11.68,14.67a1.73,1.73,0,1,1-2.13-1.21A1.73,1.73,0,0,1,11.68,14.67Z"/><path class="cls-6" d="M11.36,14.76a1.39,1.39,0,1,1-1.72-1A1.4,1.4,0,0,1,11.36,14.76Z"/><polygon class="cls-7" points="10.35 15.3 10.39 16.47 9.87 15.43 9.3 16.29 9.55 15.34 8.67 15.5 9.51 15.19 8.8 14.51 9.74 14.95 9.65 13.78 10.21 14.82 10.76 13.97 10.51 14.91 11.39 14.75 10.55 15.06 11.26 15.74 10.35 15.3"/><g class="cls-8"><path class="cls-9" d="M9.42,13A2.23,2.23,0,0,0,7.8,15.43a23.62,23.62,0,0,1,4.37.26,2.18,2.18,0,0,0,0-1.16A2.22,2.22,0,0,0,9.42,13Z"/></g><path d="M19,12.63a2.23,2.23,0,1,0,1.56-2.75A2.24,2.24,0,0,0,19,12.63Z"/><path class="cls-5" d="M19.51,12.5a1.73,1.73,0,1,0,1.2-2.13A1.73,1.73,0,0,0,19.51,12.5Z"/><path class="cls-6" d="M19.83,12.41a1.4,1.4,0,1,0,1-1.72A1.39,1.39,0,0,0,19.83,12.41Z"/><polygon class="cls-7" points="20.97 12.35 21.54 13.38 21.45 12.22 22.38 12.66 21.68 11.98 22.52 11.66 21.64 11.83 21.89 10.88 21.32 11.74 20.79 10.7 20.84 11.87 19.93 11.42 20.63 12.11 19.79 12.42 20.67 12.26 20.42 13.2 20.97 12.35"/><g class="cls-8"><path class="cls-9" d="M20.58,9.88a2.23,2.23,0,0,1,2.64,1.27,24.11,24.11,0,0,0-3.61,2.48,2.3,2.3,0,0,1-.59-1A2.24,2.24,0,0,1,20.58,9.88Z"/></g><rect class="cls-10" x="9.32" y="10.53" width="5.5" height="1.51" transform="translate(-2.58 3.63) rotate(-15.5)"/><path class="cls-11" d="M15.19,11.3l-5.8,1.61-.45-1.64,5.79-1.61ZM9.84,12.59l4.81-1.34L14.3,10,9.49,11.32Z"/><rect class="cls-10" x="9.72" y="11.98" width="5.5" height="1.48" transform="translate(-2.95 3.8) rotate(-15.51)"/><path class="cls-11" d="M15.58,12.73l-5.79,1.6-.45-1.6,5.8-1.61ZM10.23,14l4.82-1.34-.35-1.25L9.89,12.77Z"/><path class="cls-10" d="M14.29,9c-2.8.76-5.38.35-6-.93l.88,3.2,5.3-1.47Z"/><path class="cls-11" d="M14.78,9.85,9,11.45l-.91-3.3L8.57,8c.56,1.23,3.07,1.64,5.7.91l.24-.06ZM9.43,11.13,14.25,9.8l-.18-.63A7.46,7.46,0,0,1,8.83,9Z"/><path class="cls-10" d="M19.88,8.33,19,5.13c.16,1.4-1.85,3.1-4.67,3.88h0l.22.8Z"/><path class="cls-11" d="M20.15,8.36,14.3,10,14,9l.24-.07h0c2.67-.74,4.63-2.37,4.47-3.73l.5-.13Zm-5.42,1.3L19.6,8.31,19,6.11c-.6,1.14-2.3,2.29-4.43,2.93Z"/><polygon class="cls-10" points="15.31 12.71 15.34 12.7 20.68 11.22 20.29 9.79 14.92 11.28 15.31 12.71"/><path class="cls-11" d="M21,11.24l-5.82,1.62-.06-.09-.42-1.52,5.86-1.62Zm-5.42,1.31L20.4,11.2,20.06,10,15.19,11.3Z"/><rect class="cls-10" x="14.61" y="9.05" width="5.57" height="1.51" transform="translate(-1.99 5.01) rotate(-15.52)"/><path class="cls-11" d="M20.56,9.81,14.7,11.43,14.25,9.8,20.1,8.17Zm-5.42,1.31L20,9.77,19.66,8.5,14.78,9.85Z"/><path class="cls-12" d="M14.51,9.82l-5.3,1.47.41,1.46,5.3-1.47Zm-.32,1.32-4.07,1.13-.26-1,4.07-1.12Z"/><path class="cls-12" d="M9.62,12.75,10,14.17l5.3-1.47-.39-1.42Zm5-.17-4.07,1.13-.26-1,4.06-1.13Z"/><path class="cls-12" d="M14.29,9c-2.8.76-5.38.35-6-.93l.88,3.2,5.3-1.47Zm-.49.7L9.74,10.85,9.33,9.43a9.21,9.21,0,0,0,4.37-.08Z"/><path class="cls-12" d="M14.32,9h0l.22.8,5.37-1.49L19,5.13C19.15,6.53,17.14,8.23,14.32,9Zm4.83-.77L15.09,9.37,15,9a9.21,9.21,0,0,0,3.78-2.19Z"/><path class="cls-12" d="M15.31,12.7h0l5.34-1.48-.39-1.43-5.37,1.49Zm.31-1.44,4.07-1.13.27,1-4.08,1.13Z"/><path class="cls-12" d="M14.92,11.28l5.37-1.49-.41-1.46L14.51,9.82Zm.3-1.45L19.29,8.7l.27,1-4.08,1.13Z"/><path class="cls-12" d="M19.88,8.33l-.06-.21L14.89,9.49l-.17-.6-.4.12h0l-.45.1.17.61L9.15,11.08l.06.21,4.86-1.35.34,1.23L9.55,12.52l.07.23,4.85-1.35.34,1.21L10,14l.06.22,4.86-1.34.44-.13h0l.41-.12,4.93-1.36L20.62,11l-4.93,1.37-.34-1.2,4.94-1.37-.07-.23-4.93,1.37L15,9.7Z"/><polygon class="cls-13" points="6.69 15.32 9.92 14.43 8.23 8.34 8.11 7.92 1.9 9.64 6.69 15.32"/><polygon class="cls-13" points="19.03 4.89 19.15 5.31 20.84 11.4 24.06 10.51 25.24 3.17 19.03 4.89"/><polygon class="cls-14" points="5.47 9.46 5.99 10.04 6.76 9.94 6.37 10.62 6.71 11.32 5.94 11.16 5.37 11.7 5.29 10.92 4.61 10.54 5.32 10.23 5.47 9.46"/><path class="cls-15" d="M6.83,11.42,6,11.24l-.65.6L5.22,11l-.77-.43.81-.35.16-.88L6,10l.88-.12-.45.77Zm-2.06-.87.59.32.07.67.49-.46.66.15-.29-.62L6.63,10,6,10.12l-.45-.51-.12.67Z"/><polygon class="cls-16" points="5.59 9.9 5.9 10.25 6.37 10.19 6.13 10.6 6.33 11.02 5.87 10.92 5.53 11.24 5.49 10.78 5.07 10.55 5.5 10.36 5.59 9.9"/><path class="cls-17" d="M6.77,9.93,6,10l-.52-.59-.15.77-.72.31.69.38.08.78L6,11.15l.76.17-.33-.71ZM5.9,11l-.42.4-.05-.58-.51-.27.53-.24.1-.56.39.43.57-.07-.29.49.25.53Z"/><g class="cls-18"><polygon class="cls-19" points="5.58 9.85 5.48 10.35 5.48 10.36 5.48 10.36 5.79 10.61 5.79 10.61 5.78 10.6 5.58 9.85"/><polygon class="cls-20" points="5.58 9.85 5.78 10.6 5.79 10.61 5.91 10.23 5.58 9.85"/><polygon class="cls-19" points="6.42 10.17 5.91 10.23 5.79 10.61 5.79 10.61 6.41 10.17 6.42 10.17"/><polygon class="cls-20" points="6.41 10.17 5.79 10.61 6.17 10.61 6.42 10.17 6.42 10.17 6.41 10.17"/><polygon class="cls-20" points="5.88 10.96 6.38 11.07 5.79 10.61 5.88 10.96"/><polygon class="cls-19" points="5.79 10.61 6.38 11.07 6.17 10.61 5.79 10.61"/><polygon class="cls-19" points="5.88 10.96 5.79 10.61 5.79 10.62 5.51 11.31 5.88 10.96"/><polygon class="cls-20" points="5.51 11.31 5.79 10.62 5.46 10.8 5.51 11.31"/><polygon class="cls-20" points="5.79 10.62 5.79 10.61 5.48 10.36 5.48 10.36 5.02 10.56 5.79 10.62 5.79 10.62"/><polygon class="cls-19" points="5.79 10.62 5.02 10.56 5.46 10.8 5.79 10.62 5.79 10.62"/></g><polygon class="cls-14" points="22.12 4.84 22.64 5.42 23.42 5.32 23.02 6 23.36 6.71 22.59 6.54 22.02 7.08 21.95 6.3 21.26 5.92 21.97 5.61 22.12 4.84"/><path class="cls-15" d="M23.48,6.81l-.87-.19L22,7.23l-.09-.89-.78-.42.81-.36.17-.88.59.67.88-.11L23.11,6Zm-2.06-.88.59.32.07.68.49-.47.66.15L22.94,6l.34-.58-.67.09L22.16,5,22,5.66Z"/><polygon class="cls-16" points="22.24 5.29 22.56 5.63 23.02 5.58 22.78 5.98 22.98 6.4 22.53 6.3 22.18 6.62 22.14 6.16 21.73 5.93 22.16 5.74 22.24 5.29"/><path class="cls-17" d="M23.43,5.32l-.78.1-.52-.59L22,5.6l-.71.32.68.37.08.78.57-.54.76.17L23,6Zm-.87,1.07-.42.39-.06-.57-.51-.28.53-.24.11-.56.38.43.58-.07-.3.5.25.52Z"/><g class="cls-18"><polygon class="cls-19" points="22.23 5.23 22.13 5.73 22.13 5.74 22.14 5.74 22.44 6 22.44 5.99 22.43 5.98 22.23 5.23"/><polygon class="cls-20" points="22.23 5.23 22.43 5.98 22.44 5.99 22.57 5.61 22.23 5.23"/><polygon class="cls-19" points="23.07 5.55 22.57 5.61 22.44 6 22.45 6 23.06 5.56 23.07 5.55"/><polygon class="cls-20" points="23.06 5.56 22.45 6 22.82 5.99 23.07 5.55 23.07 5.55 23.06 5.56"/><polygon class="cls-20" points="22.54 6.34 23.04 6.45 22.44 6 22.54 6.34"/><polygon class="cls-19" points="22.44 6 23.04 6.45 22.82 5.99 22.44 6"/><polygon class="cls-19" points="22.54 6.34 22.44 6 22.44 6 22.17 6.69 22.54 6.34"/><polygon class="cls-20" points="22.17 6.69 22.44 6 22.11 6.18 22.17 6.69"/><polygon class="cls-20" points="22.44 6 22.44 6 22.14 5.74 22.13 5.74 21.67 5.94 22.44 6 22.44 6"/><polygon class="cls-19" points="22.44 6 21.67 5.94 22.11 6.18 22.44 6 22.44 6"/></g><path class="cls-21" d="M22.58,8.87c-1.72.58-2,.31-2.45-1.22-.59-2.14-.58-2.7,2.35-3.72L19,4.89l.12.42,1.69,6.09,3.22-.89,1.18-7.34h0a2.47,2.47,0,0,0-.16.46C24.75,4.67,24.22,8.32,22.58,8.87Z"/><path class="cls-21" d="M22.18,10.32c-1.23.34-1.61.15-1.88-.87a2.76,2.76,0,0,0-.08-.27l.62,2.22,3.22-.89.37-2.29C24,9.91,23.36,10,22.18,10.32Z"/><path class="cls-21" d="M7.1,13.16c1.77-.39,1.89-.78,1.47-2.3-.59-2.14-.89-2.62-3.93-2l3.45-1,.12.42L9.9,14.43l-3.22.9L1.88,9.65l.05,0a4.68,4.68,0,0,1,.37.31C3.08,10.68,5.41,13.53,7.1,13.16Z"/><path class="cls-21" d="M8.19,14.2c1.23-.34,1.46-.7,1.16-1.71,0-.1,0-.19-.07-.28l.62,2.22-3.22.9-1.5-1.78C6.39,14.8,7,14.52,8.19,14.2Z"/><path class="cls-22" d="M24.28,9.31l-.21,1.18a14.41,14.41,0,0,0-4.52,2.63,12.37,12.37,0,0,1-3.57,2l-.11,0a12.63,12.63,0,0,1-3.95.15,14.39,14.39,0,0,0-5.24.07l-.8-.89Z"/><path class="cls-23" d="M7.32,14.34a.26.26,0,0,0-.18.32.27.27,0,0,0,.32.19.26.26,0,1,0-.14-.51Z"/><path class="cls-23" d="M8.75,14a.26.26,0,1,0,.32.18A.25.25,0,0,0,8.75,14Z"/><path class="cls-23" d="M10.18,13.55a.26.26,0,0,0-.18.32.27.27,0,0,0,.32.19.27.27,0,0,0,.18-.33A.26.26,0,0,0,10.18,13.55Z"/><path class="cls-23" d="M11.61,13.15a.28.28,0,0,0-.19.33.27.27,0,0,0,.33.18.26.26,0,0,0,.18-.32A.27.27,0,0,0,11.61,13.15Z"/><path class="cls-23" d="M13,12.76a.26.26,0,0,0,.14.5.26.26,0,1,0-.14-.5Z"/><path class="cls-23" d="M14.46,12.36a.27.27,0,0,0-.18.33.26.26,0,0,0,.32.18.26.26,0,0,0-.14-.51Z"/><path class="cls-23" d="M15.89,12a.27.27,0,0,0-.19.32.27.27,0,0,0,.33.18.26.26,0,0,0-.14-.5Z"/><path class="cls-23" d="M17.31,11.57a.26.26,0,0,0-.18.32.27.27,0,0,0,.32.19.26.26,0,1,0-.14-.51Z"/><path class="cls-23" d="M18.74,11.18a.26.26,0,1,0,.32.18A.25.25,0,0,0,18.74,11.18Z"/><path class="cls-23" d="M20.17,10.78a.26.26,0,0,0-.18.32.26.26,0,1,0,.5-.14A.26.26,0,0,0,20.17,10.78Z"/><path class="cls-23" d="M21.6,10.38a.27.27,0,0,0-.19.33.27.27,0,0,0,.33.18.26.26,0,0,0,.18-.32A.27.27,0,0,0,21.6,10.38Z"/><path class="cls-23" d="M23,10a.26.26,0,0,0,.14.5A.26.26,0,1,0,23,10Z"/><path class="cls-24" d="M7.61,14.4a.26.26,0,1,1-.32-.18A.26.26,0,0,1,7.61,14.4Z"/><path class="cls-25" d="M7.53,14.38a.2.2,0,0,1-.14.25.21.21,0,0,1-.26-.14.22.22,0,0,1,.15-.26A.2.2,0,0,1,7.53,14.38Z"/><path class="cls-7" d="M7.4,14.34a.12.12,0,0,1-.08.14.12.12,0,0,1-.15-.08.13.13,0,0,1,.09-.15A.12.12,0,0,1,7.4,14.34Z"/><path class="cls-7" d="M7.3,14.53a0,0,0,0,1,0,.05.05.05,0,0,1,0,0s0,0,0-.05S7.3,14.51,7.3,14.53Z"/><path class="cls-24" d="M9,14a.26.26,0,0,1-.5.14.27.27,0,0,1,.18-.33A.26.26,0,0,1,9,14Z"/><path class="cls-25" d="M9,14a.21.21,0,1,1-.4.11.21.21,0,0,1,.15-.25A.19.19,0,0,1,9,14Z"/><path class="cls-7" d="M8.82,13.94a.11.11,0,0,1-.08.14.11.11,0,1,1-.06-.22A.11.11,0,0,1,8.82,13.94Z"/><path class="cls-7" d="M8.73,14.13s0,0,0,0,0,0,0,0,0-.05,0-.05S8.73,14.11,8.73,14.13Z"/><path class="cls-24" d="M10.47,13.61a.26.26,0,0,1-.51.14.26.26,0,0,1,.18-.32A.27.27,0,0,1,10.47,13.61Z"/><path class="cls-25" d="M10.39,13.58a.22.22,0,0,1-.15.26A.2.2,0,0,1,10,13.7a.21.21,0,0,1,.14-.26A.21.21,0,0,1,10.39,13.58Z"/><path class="cls-7" d="M10.25,13.54a.12.12,0,0,1-.08.15.12.12,0,0,1-.14-.08.12.12,0,0,1,.08-.15A.12.12,0,0,1,10.25,13.54Z"/><path class="cls-7" d="M10.16,13.74a0,0,0,1,1-.05,0A.05.05,0,0,1,10.16,13.74Z"/><path class="cls-24" d="M11.89,13.21a.27.27,0,0,1-.18.33.26.26,0,0,1-.32-.19.26.26,0,0,1,.18-.32A.25.25,0,0,1,11.89,13.21Z"/><path class="cls-25" d="M11.82,13.19a.21.21,0,0,1-.15.25.2.2,0,0,1-.25-.14.2.2,0,0,1,.14-.26A.22.22,0,0,1,11.82,13.19Z"/><path class="cls-7" d="M11.68,13.15a.11.11,0,0,1-.08.14.11.11,0,0,1-.14-.08.1.1,0,0,1,.08-.14A.11.11,0,0,1,11.68,13.15Z"/><path class="cls-7" d="M11.59,13.34s0,.05,0,.05,0,0-.05,0,0,0,0,0A0,0,0,0,1,11.59,13.34Z"/><path class="cls-24" d="M13.32,12.82a.26.26,0,1,1-.5.14.25.25,0,0,1,.18-.32A.26.26,0,0,1,13.32,12.82Z"/><path class="cls-25" d="M13.24,12.79a.21.21,0,0,1-.14.26.22.22,0,0,1-.26-.15.21.21,0,0,1,.15-.25A.2.2,0,0,1,13.24,12.79Z"/><path class="cls-7" d="M13.11,12.75a.13.13,0,0,1-.09.15.12.12,0,0,1-.14-.09.12.12,0,0,1,.08-.14A.12.12,0,0,1,13.11,12.75Z"/><path class="cls-7" d="M13,13A0,0,0,0,1,13,13s-.05,0-.05,0,0,0,0-.05S13,12.93,13,13Z"/><path class="cls-24" d="M14.75,12.42a.25.25,0,0,1-.18.32.27.27,0,0,1-.33-.18.27.27,0,0,1,.19-.32A.26.26,0,0,1,14.75,12.42Z"/><path class="cls-25" d="M14.67,12.4a.21.21,0,0,1-.4.11.21.21,0,0,1,.14-.26A.22.22,0,0,1,14.67,12.4Z"/><path class="cls-7" d="M14.53,12.36a.11.11,0,0,1-.22.06.11.11,0,0,1,.08-.14A.1.1,0,0,1,14.53,12.36Z"/><path class="cls-7" d="M14.44,12.55s0,0,0,0,0,0,0,0a0,0,0,0,1,0-.05A.05.05,0,0,1,14.44,12.55Z"/><path class="cls-24" d="M16.18,12a.27.27,0,0,1-.19.32.26.26,0,0,1-.32-.18.27.27,0,0,1,.18-.33A.28.28,0,0,1,16.18,12Z"/><path class="cls-25" d="M16.1,12a.22.22,0,0,1-.15.26.21.21,0,0,1-.25-.15.2.2,0,0,1,.14-.25A.21.21,0,0,1,16.1,12Z"/><path class="cls-7" d="M16,12a.11.11,0,0,1-.22.06A.11.11,0,1,1,16,12Z"/><path class="cls-7" d="M15.87,12.16s0,0,0,0a0,0,0,0,1-.05,0s0,0,0,0S15.86,12.14,15.87,12.16Z"/><path class="cls-24" d="M17.6,11.63a.26.26,0,1,1-.32-.18A.25.25,0,0,1,17.6,11.63Z"/><path class="cls-25" d="M17.52,11.61a.2.2,0,0,1-.14.25.21.21,0,0,1-.26-.14.22.22,0,0,1,.15-.26A.2.2,0,0,1,17.52,11.61Z"/><path class="cls-7" d="M17.39,11.56a.13.13,0,0,1-.08.15.12.12,0,0,1-.15-.08.13.13,0,0,1,.08-.15A.13.13,0,0,1,17.39,11.56Z"/><path class="cls-7" d="M17.29,11.76a0,0,0,0,1,0,.05,0,0,0,1,1,0-.08S17.29,11.74,17.29,11.76Z"/><path class="cls-24" d="M19,11.24a.26.26,0,0,1-.18.32.26.26,0,0,1-.32-.19.26.26,0,1,1,.5-.13Z"/><path class="cls-25" d="M19,11.21a.2.2,0,0,1-.14.25.2.2,0,0,1-.26-.14.21.21,0,0,1,.15-.26A.21.21,0,0,1,19,11.21Z"/><path class="cls-7" d="M18.81,11.17a.1.1,0,0,1-.08.14.11.11,0,1,1-.06-.22A.11.11,0,0,1,18.81,11.17Z"/><path class="cls-7" d="M18.72,11.36s0,.05,0,.05-.05,0-.05,0,0,0,0,0S18.72,11.34,18.72,11.36Z"/><path class="cls-24" d="M20.46,10.84A.26.26,0,0,1,20,11a.26.26,0,0,1,.18-.32A.27.27,0,0,1,20.46,10.84Z"/><path class="cls-25" d="M20.38,10.81a.22.22,0,0,1-.15.26.21.21,0,0,1-.25-.15.2.2,0,0,1,.14-.25A.21.21,0,0,1,20.38,10.81Z"/><path class="cls-7" d="M20.24,10.77a.12.12,0,0,1-.08.15.12.12,0,0,1-.14-.08.12.12,0,0,1,.08-.15A.12.12,0,0,1,20.24,10.77Z"/><path class="cls-7" d="M20.15,11a0,0,0,0,1-.08,0,.05.05,0,0,1,.08,0A.05.05,0,0,1,20.15,11Z"/><path class="cls-24" d="M21.88,10.44a.27.27,0,0,1-.18.33.27.27,0,0,1-.32-.19.26.26,0,0,1,.18-.32A.25.25,0,0,1,21.88,10.44Z"/><path class="cls-25" d="M21.81,10.42a.21.21,0,0,1-.15.25.21.21,0,1,1-.11-.4A.22.22,0,0,1,21.81,10.42Z"/><path class="cls-7" d="M21.67,10.38a.11.11,0,0,1-.08.14.11.11,0,0,1-.14-.08.1.1,0,0,1,.08-.14A.11.11,0,0,1,21.67,10.38Z"/><path class="cls-7" d="M21.58,10.57a.05.05,0,0,1,0,0s0,0-.05,0,0,0,0,0A0,0,0,0,1,21.58,10.57Z"/><path class="cls-24" d="M23.31,10.05a.26.26,0,1,1-.5.14A.27.27,0,0,1,23,9.86.27.27,0,0,1,23.31,10.05Z"/><path class="cls-25" d="M23.23,10a.21.21,0,0,1-.14.26.22.22,0,0,1-.26-.15A.21.21,0,0,1,23,9.88.2.2,0,0,1,23.23,10Z"/><path class="cls-7" d="M23.1,10a.12.12,0,0,1-.08.14.11.11,0,0,1-.15-.08A.12.12,0,0,1,23,9.9.12.12,0,0,1,23.1,10Z"/><path class="cls-7" d="M23,10.18s0,0,0,0-.05,0-.05,0a0,0,0,0,1,0,0A0,0,0,0,1,23,10.18Z"/><g class="cls-8"><path class="cls-26" d="M15,13.29c-.46,0-.87.39-1.5,1-.8.72-1.41.81-1.88.62s-.4-.65-.11-.78.54.12.49.24a.14.14,0,0,1-.21.08.07.07,0,0,0,0-.1c0-.06-.15-.06-.17,0a.2.2,0,0,0,.26.21c.31-.1.18-.66-.36-.54a.48.48,0,0,0,0,.92,1.68,1.68,0,0,0,1.67-.29,7.67,7.67,0,0,1,1.58-1.16.68.68,0,0,1,.87.81c-.13.39-.64.49-.77.16s.18-.43.27-.35a.12.12,0,0,1,.05.1H15.1a.11.11,0,0,0-.07.13.11.11,0,0,0,.13.07.09.09,0,0,0,.07-.06A.23.23,0,0,0,15,14a.32.32,0,0,0-.21.44c.12.43.94.33,1-.19A.81.81,0,0,0,15,13.29Z"/><path class="cls-26" d="M16.3,12.93c.4-.23.94-.12,1.77,0,1.06.2,1.62,0,1.93-.44s0-.76-.3-.73-.41.39-.3.47a.15.15,0,0,0,.22,0,.07.07,0,0,1-.07-.08c0-.06.09-.12.14-.07a.19.19,0,0,1-.11.31c-.32.07-.5-.48,0-.64s.77.37.52.76a1.75,1.75,0,0,1-1.59.61,7.42,7.42,0,0,0-1.95-.18.69.69,0,0,0-.33,1.14c.31.26.8.09.75-.26s-.38-.28-.42-.16a.19.19,0,0,0,0,.11l0,0a.11.11,0,0,1,.13.07.1.1,0,0,1-.07.13.12.12,0,0,1-.1,0,.23.23,0,0,1,.05-.4.32.32,0,0,1,.41.27c.12.44-.63.76-.95.36A.81.81,0,0,1,16.3,12.93Z"/><path class="cls-26" d="M15.49,12.65a.75.75,0,0,0,.24.78A.85.85,0,0,0,15.49,12.65Z"/><path class="cls-26" d="M14.92,12.9a.58.58,0,0,0,.52.35A.64.64,0,0,0,14.92,12.9Z"/><path class="cls-26" d="M16.09,12.58a.57.57,0,0,1-.27.56A.64.64,0,0,1,16.09,12.58Z"/></g><path class="cls-24" d="M15,13.24c-.47,0-.87.38-1.51.95-.8.72-1.4.81-1.87.61s-.41-.64-.12-.78.55.13.49.25a.13.13,0,0,1-.2.08.07.07,0,0,0,0-.1.09.09,0,0,0-.16,0,.19.19,0,0,0,.26.21c.3-.11.18-.67-.36-.54a.48.48,0,0,0,0,.92,1.72,1.72,0,0,0,1.67-.29,7.32,7.32,0,0,1,1.58-1.16.69.69,0,0,1,.87.81c-.13.38-.64.48-.77.16s.18-.43.27-.35a.16.16,0,0,1,.05.1h-.06a.09.09,0,0,0-.07.13.11.11,0,0,0,.13.07.12.12,0,0,0,.07-.07.24.24,0,0,0-.26-.32.35.35,0,0,0-.21.45c.13.43.94.32,1-.19A.81.81,0,0,0,15,13.24Z"/><path class="cls-24" d="M16.28,12.88c.41-.23.95-.12,1.78,0,1.06.2,1.62,0,1.92-.44s0-.76-.3-.73-.41.39-.29.46a.13.13,0,0,0,.21,0,.07.07,0,0,1-.07-.07.09.09,0,0,1,.15-.07.19.19,0,0,1-.12.31c-.31.07-.49-.48,0-.65a.48.48,0,0,1,.52.76,1.71,1.71,0,0,1-1.58.62,7.47,7.47,0,0,0-2-.19A.69.69,0,0,0,16.25,14c.31.26.8.08.74-.26s-.37-.28-.41-.16a.11.11,0,0,0,0,.11l.05,0a.11.11,0,0,1,.13.07.11.11,0,0,1-.08.13.1.1,0,0,1-.09,0,.23.23,0,0,1,0-.4c.2-.06.35.07.41.27.11.43-.64.76-1,.35A.81.81,0,0,1,16.28,12.88Z"/><path class="cls-24" d="M15.48,12.6a.75.75,0,0,0,.23.78A.83.83,0,0,0,15.48,12.6Z"/><path class="cls-24" d="M14.91,12.85a.56.56,0,0,0,.52.34A.63.63,0,0,0,14.91,12.85Z"/><path class="cls-24" d="M16.08,12.53a.57.57,0,0,1-.27.56A.64.64,0,0,1,16.08,12.53Z"/><path class="cls-25" d="M14.33,13.53s.72-.51,1.18.05C15.44,13.39,15,13,14.33,13.53Z"/><path class="cls-25" d="M17,12.79s-.88-.06-1,.65C16,13.25,16.16,12.69,17,12.79Z"/><path class="cls-25" d="M11.67,14a.38.38,0,0,1,.33.22A.27.27,0,0,0,11.67,14Z"/><path class="cls-25" d="M19.49,11.78a.4.4,0,0,0-.17.36A.27.27,0,0,1,19.49,11.78Z"/><g class="cls-8"><path class="cls-26" d="M5.88,14.42l0,.17,13.48-3.74.25.9s-1.32,3.83-8.19,3.44l.45.05a12.63,12.63,0,0,0,3.95-.15l.11,0a12.37,12.37,0,0,0,3.57-2,14.41,14.41,0,0,1,4.52-2.63l.21-1.18Z"/></g><g class="cls-8"><path class="cls-26" d="M16.43,11.49,22.36,10l.2.71s-1.36,1-3.74,2.72a9.58,9.58,0,0,1-3.3,1.7l.35-.07.11,0a12.37,12.37,0,0,0,3.57-2,14.41,14.41,0,0,1,4.52-2.63l.21-1.18Z"/></g><path class="cls-25" d="M15.5,12.67a.73.73,0,0,0,.13.56A.54.54,0,0,1,15.5,12.67Z"/><path class="cls-25" d="M15,12.89a.51.51,0,0,0,.4.27A.39.39,0,0,1,15,12.89Z"/><path class="cls-25" d="M16.07,12.58a.51.51,0,0,0-.21.43A.38.38,0,0,1,16.07,12.58Z"/><path class="cls-20" d="M6.86,15.11A17,17,0,0,1,11.12,15,8,8,0,0,0,6.86,15.11Z"/><path d="M34.34,10.56a2.24,2.24,0,1,1-2.19-2.27A2.22,2.22,0,0,1,34.34,10.56Z"/><path class="cls-5" d="M33.84,10.55a1.73,1.73,0,1,1-1.7-1.76A1.73,1.73,0,0,1,33.84,10.55Z"/><path class="cls-6" d="M33.5,10.55a1.4,1.4,0,0,1-1.42,1.37,1.4,1.4,0,0,1,.06-2.8A1.4,1.4,0,0,1,33.5,10.55Z"/><polygon class="cls-7" points="32.38 10.78 32.09 11.92 31.88 10.77 31.09 11.43 31.6 10.59 30.71 10.49 31.61 10.44 31.13 9.58 31.89 10.27 32.14 9.13 32.39 10.28 33.16 9.62 32.65 10.46 33.54 10.55 32.65 10.61 33.12 11.46 32.38 10.78"/><g class="cls-8"><path class="cls-9" d="M32.15,8.29a2.24,2.24,0,0,0-2.25,1.89A22.57,22.57,0,0,1,34,11.68a2.35,2.35,0,0,0,.32-1.12A2.23,2.23,0,0,0,32.15,8.29Z"/></g><path d="M41.45,10.7a2.24,2.24,0,1,0,2.28-2.19A2.25,2.25,0,0,0,41.45,10.7Z"/><path class="cls-5" d="M42,10.71A1.73,1.73,0,1,0,43.72,9,1.72,1.72,0,0,0,42,10.71Z"/><path class="cls-6" d="M42.29,10.72a1.4,1.4,0,1,0,1.42-1.37A1.39,1.39,0,0,0,42.29,10.72Z"/><polygon class="cls-7" points="43.41 10.99 43.65 12.14 43.9 11 44.67 11.69 44.19 10.83 45.08 10.77 44.19 10.68 44.7 9.85 43.91 10.5 43.71 9.35 43.41 10.49 42.67 9.81 43.15 10.66 42.25 10.72 43.15 10.81 42.63 11.65 43.41 10.99"/><g class="cls-8"><path class="cls-9" d="M43.73,8.51a2.22,2.22,0,0,1,2.17,2,23,23,0,0,0-4.17,1.34,2.39,2.39,0,0,1-.28-1.13A2.25,2.25,0,0,1,43.73,8.51Z"/></g><rect class="cls-10" x="34.42" y="4.67" width="1.51" height="5.5" transform="translate(27.07 42.45) rotate(-88.89)"/><path class="cls-11" d="M38.16,8.33l-6-.12,0-1.69,6,.11ZM32.67,8l5,.09,0-1.32-5-.09Z"/><rect class="cls-10" x="34.4" y="6.17" width="1.48" height="5.5" transform="translate(25.58 43.89) rotate(-88.94)"/><path class="cls-11" d="M38.13,9.81l-6-.11,0-1.67,6,.11Zm-5.49-.29,5,.09,0-1.29-5-.1Z"/><path class="cls-10" d="M38,5.88c-2.9-.06-5.25-1.2-5.45-2.59l-.06,3.33,5.5.1Z"/><path class="cls-11" d="M38.19,6.82l-6-.11.07-3.43h.51c.18,1.34,2.48,2.44,5.2,2.5h.25ZM32.7,6.53l5,.09V6c-2.23-.09-4.1-.77-5-1.72Z"/><path class="cls-10" d="M43.51,6.83l.06-3.33C43.32,4.89,40.91,5.94,38,5.89h0v.84Z"/><path class="cls-11" d="M43.76,6.93l-6.07-.12,0-1H38c2.77,0,5.11-1,5.35-2.3l.52,0Zm-5.57-.3,5.06.1,0-2.28A7.61,7.61,0,0,1,38.21,6Z"/><polygon class="cls-10" points="37.88 9.71 37.91 9.71 43.45 9.82 43.48 8.34 37.91 8.23 37.88 9.71"/><path class="cls-11" d="M43.7,9.92l-6-.12,0-.09,0-1.58,6.07.12Zm-5.56-.3,5,.1,0-1.29-5.06-.1Z"/><rect class="cls-10" x="39.95" y="4.74" width="1.51" height="5.57" transform="translate(32.37 48.08) rotate(-88.86)"/><path class="cls-11" d="M43.73,8.44l-6.07-.12,0-1.7,6.07.12Zm-5.57-.3,5.06.1,0-1.32-5.05-.1Z"/><path class="cls-12" d="M37.94,6.72l-5.5-.1,0,1.5,5.5.11Zm-.69,1.17L33,7.81l0-1,4.22.08Z"/><path class="cls-12" d="M32.41,8.12l0,1.49,5.5.1,0-1.48Zm4.81,1.27L33,9.3l0-1,4.22.08Z"/><path class="cls-12" d="M38,5.88c-2.9-.06-5.25-1.2-5.45-2.59l-.06,3.33,5.5.1Zm-.67.54-4.21-.08,0-1.48A9.18,9.18,0,0,0,37.29,6Z"/><path class="cls-12" d="M38,5.89h0v.84l5.57.11.06-3.33C43.32,4.89,40.91,5.94,38,5.89Zm4.85.64-4.22-.08V6.07a9.14,9.14,0,0,0,4.24-1Z"/><path class="cls-12" d="M37.88,9.71h0l5.54.11,0-1.48-5.57-.11Zm.7-1.29,4.23.08,0,1-4.23-.08Z"/><path class="cls-12" d="M37.91,8.23l5.57.11,0-1.51-5.57-.11Zm.7-1.3L42.84,7l0,1-4.23-.08Z"/><path class="cls-12" d="M43.51,6.83V6.61l-5.12-.1V5.88H38l-.45,0,0,.63-5-.1v.23l5,.09,0,1.28-5-.1v.23l5,.1,0,1.25-5-.09v.23l5,.09h.91l5.12.1V9.59l-5.13-.1,0-1.25,5.12.1V8.1L38.36,8l0-1.27Z"/><polygon class="cls-13" points="28.87 9.76 32.21 9.82 32.34 3.5 32.35 3.07 25.9 2.94 28.87 9.76"/><polygon class="cls-13" points="43.68 3.29 43.67 3.73 43.55 10.04 46.89 10.11 50.12 3.41 43.68 3.29"/><polygon class="cls-14" points="29.37 3.79 29.71 4.49 30.48 4.62 29.91 5.16 30.02 5.93 29.34 5.55 28.64 5.9 28.79 5.13 28.24 4.58 29.01 4.48 29.37 3.79"/><path class="cls-15" d="M30.12,6.06l-.78-.43-.8.4.17-.87-.62-.63L29,4.42l.41-.79.37.8.88.14L30,5.18ZM28.39,4.63l.47.48-.12.66.6-.3.59.33-.1-.67.49-.46-.66-.11L29.37,4l-.31.6Z"/><polygon class="cls-16" points="29.36 4.25 29.57 4.67 30.02 4.75 29.68 5.07 29.75 5.53 29.34 5.3 28.93 5.51 29.01 5.06 28.68 4.72 29.15 4.66 29.36 4.25"/><path class="cls-17" d="M30.49,4.62l-.77-.13-.34-.71-.36.7-.77.09.55.56-.15.77.7-.35.68.37-.11-.77Zm-1.14.77-.52.26.11-.57-.4-.41.57-.07.27-.51.24.52.57.1-.42.39.09.57Z"/><g class="cls-18"><polygon class="cls-19" points="29.36 4.2 29.13 4.64 29.12 4.65 29.13 4.65 29.35 4.99 29.35 4.98 29.35 4.97 29.36 4.2"/><polygon class="cls-20" points="29.36 4.2 29.35 4.97 29.35 4.98 29.58 4.65 29.36 4.2"/><polygon class="cls-19" points="30.08 4.74 29.58 4.65 29.35 4.99 29.36 4.99 30.07 4.74 30.08 4.74"/><polygon class="cls-20" points="30.07 4.74 29.36 4.99 29.71 5.09 30.08 4.74 30.08 4.74 30.07 4.74"/><polygon class="cls-20" points="29.34 5.34 29.79 5.59 29.35 4.99 29.34 5.34"/><polygon class="cls-19" points="29.35 4.99 29.79 5.59 29.71 5.09 29.35 4.99"/><polygon class="cls-19" points="29.34 5.34 29.35 4.99 29.35 4.99 28.89 5.57 29.34 5.34"/><polygon class="cls-20" points="28.89 5.57 29.35 4.99 28.98 5.07 28.89 5.57"/><polygon class="cls-20" points="29.35 4.99 29.35 4.99 29.13 4.65 29.12 4.65 28.63 4.71 29.35 4.99 29.35 4.99"/><polygon class="cls-19" points="29.35 4.99 28.63 4.71 28.98 5.07 29.35 4.99 29.35 4.99"/></g><polygon class="cls-14" points="46.65 4.12 46.98 4.83 47.76 4.96 47.18 5.49 47.3 6.26 46.62 5.89 45.92 6.24 46.07 5.47 45.51 4.91 46.29 4.82 46.65 4.12"/><path class="cls-15" d="M47.39,6.4,46.62,6l-.8.39L46,5.49l-.63-.63.89-.11L46.66,4l.37.81.88.14-.65.61ZM45.67,5l.47.47L46,6.11l.61-.3.59.32-.1-.67L47.6,5l-.66-.11-.29-.61-.31.6Z"/><polygon class="cls-16" points="46.64 4.58 46.84 5 47.31 5.08 46.96 5.4 47.03 5.87 46.62 5.64 46.2 5.85 46.29 5.39 45.96 5.06 46.43 5 46.64 4.58"/><path class="cls-17" d="M47.77,5,47,4.83l-.34-.71-.36.69-.77.1.55.56-.15.76.7-.35.68.38-.11-.77Zm-1.14.78L46.11,6l.11-.57L45.81,5l.58-.07.26-.52L46.9,5l.57.09-.42.4.09.57Z"/><g class="cls-18"><polygon class="cls-19" points="46.64 4.53 46.41 4.98 46.4 4.98 46.41 4.99 46.63 5.32 46.63 5.32 46.63 5.3 46.64 4.53"/><polygon class="cls-20" points="46.64 4.53 46.63 5.3 46.63 5.32 46.86 4.99 46.64 4.53"/><polygon class="cls-19" points="47.36 5.07 46.86 4.99 46.63 5.32 46.63 5.32 47.35 5.08 47.36 5.07"/><polygon class="cls-20" points="47.35 5.08 46.63 5.32 46.99 5.42 47.36 5.07 47.36 5.07 47.35 5.08"/><polygon class="cls-20" points="46.62 5.68 47.07 5.93 46.63 5.32 46.62 5.68"/><polygon class="cls-19" points="46.63 5.32 47.07 5.93 46.99 5.42 46.63 5.32"/><polygon class="cls-19" points="46.62 5.68 46.63 5.32 46.62 5.32 46.17 5.91 46.62 5.68"/><polygon class="cls-20" points="46.17 5.91 46.62 5.32 46.26 5.41 46.17 5.91"/><polygon class="cls-20" points="46.62 5.32 46.63 5.32 46.41 4.99 46.4 4.98 45.91 5.04 46.62 5.32 46.62 5.32"/><polygon class="cls-19" points="46.62 5.32 45.91 5.04 46.26 5.41 46.62 5.32 46.62 5.32"/></g><path class="cls-21" d="M45.94,8.11c-1.81.06-2-.28-2-1.87C44,4,44.15,3.49,47.26,3.36l-3.58-.07v.43L43.55,10l3.34.07,3.23-6.7h0a2.77,2.77,0,0,0-.28.4C49.22,4.71,47.67,8.06,45.94,8.11Z"/><path class="cls-21" d="M45.14,9.39c-1.27,0-1.58-.32-1.55-1.37a2.61,2.61,0,0,0,0-.28l0,2.3,3.34.07L47.9,8C47,9.52,46.37,9.41,45.14,9.39Z"/><path class="cls-21" d="M29.88,7.8c1.81.13,2-.2,2.07-1.79,0-2.22-.11-2.75-3.2-3l3.58.07V3.5L32.2,9.82l-3.35-.06-3-6.82h0a3.65,3.65,0,0,1,.27.41C26.74,4.27,28.15,7.68,29.88,7.8Z"/><path class="cls-21" d="M30.63,9.11c1.27,0,1.59-.26,1.6-1.31a2.53,2.53,0,0,1,0-.28l0,2.3-3.35-.06-.92-2.13C28.73,9.17,29.4,9.08,30.63,9.11Z"/><path class="cls-22" d="M47.44,9l-.53,1.07a14.33,14.33,0,0,0-5.09,1.22,12.39,12.39,0,0,1-4,.85h-.11a13,13,0,0,1-3.83-1,14.37,14.37,0,0,0-5-1.42l-.51-1.09Z"/><path class="cls-23" d="M29.76,9a.25.25,0,0,0-.27.25.26.26,0,0,0,.26.27A.26.26,0,0,0,30,9.27.25.25,0,0,0,29.76,9Z"/><path class="cls-23" d="M31.24,9a.25.25,0,0,0-.27.25.26.26,0,1,0,.52,0A.25.25,0,0,0,31.24,9Z"/><path class="cls-23" d="M32.72,9.06a.25.25,0,0,0-.27.25.26.26,0,1,0,.52,0A.25.25,0,0,0,32.72,9.06Z"/><path class="cls-23" d="M34.2,9.08a.27.27,0,0,0,0,.53.27.27,0,0,0,.27-.26A.28.28,0,0,0,34.2,9.08Z"/><path class="cls-23" d="M35.68,9.11a.27.27,0,0,0-.27.26.27.27,0,0,0,.26.27.28.28,0,0,0,.27-.26A.27.27,0,0,0,35.68,9.11Z"/><path class="cls-23" d="M37.16,9.14a.27.27,0,0,0-.27.26.27.27,0,1,0,.53,0A.26.26,0,0,0,37.16,9.14Z"/><path class="cls-23" d="M38.64,9.17a.27.27,0,0,0-.27.26.26.26,0,0,0,.26.26.26.26,0,1,0,0-.52Z"/><path class="cls-23" d="M40.12,9.2a.27.27,0,0,0-.27.26.26.26,0,0,0,.26.26.25.25,0,0,0,.27-.25A.26.26,0,0,0,40.12,9.2Z"/><path class="cls-23" d="M41.6,9.23a.26.26,0,1,0,0,.52.26.26,0,1,0,0-.52Z"/><path class="cls-23" d="M43.08,9.26a.25.25,0,0,0-.26.25.25.25,0,0,0,.25.27.26.26,0,1,0,0-.52Z"/><path class="cls-23" d="M44.56,9.29a.25.25,0,0,0-.26.25.25.25,0,0,0,.25.27.26.26,0,1,0,0-.52Z"/><path class="cls-23" d="M46,9.31a.26.26,0,0,0-.26.26.25.25,0,0,0,.25.27.26.26,0,0,0,.27-.26A.27.27,0,0,0,46,9.31Z"/><path class="cls-24" d="M30,9.14a.26.26,0,0,1-.27.25.26.26,0,1,1,0-.52A.27.27,0,0,1,30,9.14Z"/><path class="cls-25" d="M30,9.09a.21.21,0,0,1-.21.2.21.21,0,0,1-.21-.21.21.21,0,0,1,.21-.2A.21.21,0,0,1,30,9.09Z"/><path class="cls-7" d="M29.83,9a.12.12,0,0,1-.12.12c-.07,0-.12-.06-.11-.12a.11.11,0,0,1,.11-.12A.13.13,0,0,1,29.83,9Z"/><path class="cls-7" d="M29.68,9.17a0,0,0,0,1-.08,0s0,0,0,0S29.68,9.15,29.68,9.17Z"/><path class="cls-24" d="M31.5,9.16a.27.27,0,0,1-.27.26A.26.26,0,0,1,31,9.16a.27.27,0,0,1,.53,0Z"/><path class="cls-25" d="M31.43,9.12a.21.21,0,1,1-.21-.21A.21.21,0,0,1,31.43,9.12Z"/><path class="cls-7" d="M31.31,9a.11.11,0,0,1-.12.11A.11.11,0,0,1,31.08,9a.11.11,0,0,1,.11-.12A.12.12,0,0,1,31.31,9Z"/><path class="cls-7" d="M31.16,9.2a0,0,0,0,1,0,0s0,0,0,0a0,0,0,0,1,0,0S31.16,9.18,31.16,9.2Z"/><path class="cls-24" d="M33,9.19a.27.27,0,1,1-.26-.26A.26.26,0,0,1,33,9.19Z"/><path class="cls-25" d="M32.91,9.15a.21.21,0,0,1-.42,0,.21.21,0,0,1,.22-.2A.2.2,0,0,1,32.91,9.15Z"/><path class="cls-7" d="M32.79,9.07a.11.11,0,0,1-.12.11.11.11,0,0,1-.11-.11A.12.12,0,0,1,32.68,9,.12.12,0,0,1,32.79,9.07Z"/><path class="cls-7" d="M32.64,9.23s0,0,0,0a0,0,0,0,1,0,0,0,0,0,0,1,0,0S32.65,9.21,32.64,9.23Z"/><path class="cls-24" d="M34.46,9.22A.27.27,0,1,1,34.2,9,.26.26,0,0,1,34.46,9.22Z"/><path class="cls-25" d="M34.39,9.18a.21.21,0,0,1-.42,0,.21.21,0,1,1,.42,0Z"/><path class="cls-7" d="M34.27,9.1A.12.12,0,1,1,34.16,9,.11.11,0,0,1,34.27,9.1Z"/><path class="cls-7" d="M34.13,9.26s0,0,0,0a0,0,0,1,1,0-.08A0,0,0,0,1,34.09,9.3Z"/><path class="cls-24" d="M35.94,9.25a.26.26,0,0,1-.27.26.25.25,0,0,1-.25-.27A.26.26,0,0,1,35.68,9,.27.27,0,0,1,35.94,9.25Z"/><path class="cls-25" d="M35.87,9.2a.21.21,0,1,1-.42,0A.22.22,0,0,1,35.67,9,.22.22,0,0,1,35.87,9.2Z"/><path class="cls-7" d="M35.75,9.13A.12.12,0,1,1,35.64,9,.11.11,0,0,1,35.75,9.13Z"/><path class="cls-7" d="M35.61,9.29a0,0,0,0,1-.08,0,0,0,0,0,1,.08,0A0,0,0,0,1,35.61,9.29Z"/><path class="cls-24" d="M37.42,9.28a.26.26,0,0,1-.27.26.27.27,0,0,1,0-.53A.27.27,0,0,1,37.42,9.28Z"/><path class="cls-25" d="M37.35,9.23a.21.21,0,0,1-.21.21.21.21,0,0,1-.2-.22.2.2,0,0,1,.21-.2A.21.21,0,0,1,37.35,9.23Z"/><path class="cls-7" d="M37.23,9.16a.11.11,0,0,1-.12.11A.12.12,0,0,1,37,9.15a.12.12,0,1,1,.23,0Z"/><path class="cls-7" d="M37.09,9.32s0,0,0,0a0,0,0,0,1,0,0s0,0,0,0A0,0,0,0,1,37.09,9.32Z"/><path class="cls-24" d="M38.9,9.31a.26.26,0,1,1-.52,0,.26.26,0,1,1,.52,0Z"/><path class="cls-25" d="M38.83,9.26a.21.21,0,1,1-.41,0,.2.2,0,0,1,.21-.2A.21.21,0,0,1,38.83,9.26Z"/><path class="cls-7" d="M38.71,9.18a.12.12,0,0,1-.12.12.12.12,0,0,1-.11-.12.11.11,0,0,1,.12-.11A.11.11,0,0,1,38.71,9.18Z"/><path class="cls-7" d="M38.57,9.34a0,0,0,1,1-.08,0s0,0,0,0S38.57,9.32,38.57,9.34Z"/><path class="cls-24" d="M40.38,9.34a.25.25,0,0,1-.27.25.25.25,0,0,1-.25-.26.26.26,0,1,1,.52,0Z"/><path class="cls-25" d="M40.31,9.29a.19.19,0,0,1-.21.2.21.21,0,1,1,.21-.2Z"/><path class="cls-7" d="M40.19,9.21a.11.11,0,0,1-.11.12A.12.12,0,0,1,40,9.21a.11.11,0,0,1,.12-.11A.11.11,0,0,1,40.19,9.21Z"/><path class="cls-7" d="M40.05,9.37a0,0,0,0,1-.08,0,0,0,0,0,1,.08,0S40.05,9.35,40.05,9.37Z"/><path class="cls-24" d="M41.86,9.37a.25.25,0,0,1-.26.25.26.26,0,1,1,.26-.25Z"/><path class="cls-25" d="M41.79,9.32a.2.2,0,0,1-.21.2.21.21,0,0,1,0-.41A.2.2,0,0,1,41.79,9.32Z"/><path class="cls-7" d="M41.67,9.24a.11.11,0,0,1-.11.12.13.13,0,0,1-.12-.12.12.12,0,0,1,.12-.12A.13.13,0,0,1,41.67,9.24Z"/><path class="cls-7" d="M41.53,9.4a0,0,0,0,1-.08,0,0,0,0,0,1,.08,0A0,0,0,0,1,41.53,9.4Z"/><path class="cls-24" d="M43.34,9.39a.25.25,0,0,1-.27.26.26.26,0,1,1,0-.52A.25.25,0,0,1,43.34,9.39Z"/><path class="cls-25" d="M43.27,9.35a.2.2,0,0,1-.21.2.21.21,0,0,1-.2-.21.2.2,0,0,1,.21-.2A.19.19,0,0,1,43.27,9.35Z"/><path class="cls-7" d="M43.16,9.27c0,.06-.06.12-.12.11a.11.11,0,0,1-.12-.11.12.12,0,1,1,.24,0Z"/><path class="cls-7" d="M43,9.43a0,0,0,1,1-.08,0,0,0,0,0,1,.08,0A0,0,0,0,1,43,9.43Z"/><path class="cls-24" d="M44.82,9.42a.26.26,0,1,1-.52,0,.25.25,0,0,1,.27-.25A.25.25,0,0,1,44.82,9.42Z"/><path class="cls-25" d="M44.76,9.38a.22.22,0,0,1-.22.2.21.21,0,0,1,0-.42A.22.22,0,0,1,44.76,9.38Z"/><path class="cls-7" d="M44.63,9.3a.11.11,0,0,1-.11.11.11.11,0,0,1-.12-.11.13.13,0,0,1,.12-.12A.11.11,0,0,1,44.63,9.3Z"/><path class="cls-7" d="M44.49,9.46a0,0,0,1,1-.08,0,0,0,0,0,1,.08,0A0,0,0,0,1,44.49,9.46Z"/><path class="cls-24" d="M46.3,9.45a.26.26,0,1,1-.52,0,.26.26,0,1,1,.52,0Z"/><path class="cls-25" d="M46.24,9.41a.22.22,0,0,1-.22.2.21.21,0,0,1,0-.42A.22.22,0,0,1,46.24,9.41Z"/><path class="cls-7" d="M46.12,9.33a.13.13,0,0,1-.12.11.1.1,0,0,1-.11-.12A.11.11,0,0,1,46,9.21.12.12,0,0,1,46.12,9.33Z"/><path class="cls-7" d="M46,9.49a0,0,0,0,1-.08,0s0,0,0,0A0,0,0,0,1,46,9.49Z"/><g class="cls-8"><path class="cls-26" d="M37.4,10.18c-.45-.12-.94.12-1.71.48-1,.46-1.57.38-2,.06s-.21-.74.11-.78.49.27.4.37a.14.14,0,0,1-.22,0,.07.07,0,0,0,.05-.09.09.09,0,0,0-.16,0c-.07.11.05.28.19.27.33,0,.36-.59-.19-.62a.47.47,0,0,0-.31.86,1.69,1.69,0,0,0,1.69.2,7.6,7.6,0,0,1,1.84-.66.69.69,0,0,1,.6,1c-.23.33-.75.28-.78-.07s.29-.36.36-.26a.25.25,0,0,1,0,.12l-.06,0a.11.11,0,0,0-.11.1.11.11,0,0,0,.11.11.1.1,0,0,0,.08,0,.22.22,0,0,0-.15-.37c-.2,0-.32.15-.33.36,0,.45.81.58,1,.11A.82.82,0,0,0,37.4,10.18Z"/><path class="cls-26" d="M38.76,10.21c.45-.1.94.16,1.69.55.95.49,1.56.43,2,.13s.23-.73-.08-.79-.5.25-.42.36a.14.14,0,0,0,.22,0,.09.09,0,0,1,0-.1c0-.06.13-.09.16,0a.19.19,0,0,1-.2.26c-.32,0-.33-.6.22-.61a.48.48,0,0,1,.28.88,1.68,1.68,0,0,1-1.69.13A8.05,8.05,0,0,0,39,10.3a.68.68,0,0,0-.64,1c.22.34.74.31.78,0s-.28-.37-.35-.27a.17.17,0,0,0,0,.12l.06,0a.11.11,0,0,1,0,.21.09.09,0,0,1-.08-.05.23.23,0,0,1,.16-.37c.21,0,.32.17.32.38,0,.45-.83.55-1,.06A.8.8,0,0,1,38.76,10.21Z"/><path class="cls-26" d="M38.07,9.72a.72.72,0,0,0,0,.8A.83.83,0,0,0,38.07,9.72Z"/><path class="cls-26" d="M37.45,9.79a.57.57,0,0,0,.4.48A.64.64,0,0,0,37.45,9.79Z"/><path class="cls-26" d="M38.66,9.82a.55.55,0,0,1-.42.46A.64.64,0,0,1,38.66,9.82Z"/></g><path class="cls-24" d="M37.4,10.13c-.45-.12-.94.12-1.71.48-1,.46-1.57.37-2,.05s-.21-.73.11-.78.49.27.4.38a.14.14,0,0,1-.22,0,.07.07,0,0,0,.06-.09c0-.06-.13-.1-.17,0a.19.19,0,0,0,.19.27c.33,0,.36-.58-.19-.62a.48.48,0,0,0-.31.87,1.72,1.72,0,0,0,1.69.2,7.6,7.6,0,0,1,1.84-.66.68.68,0,0,1,.6,1c-.23.33-.75.29-.78-.07s.29-.35.36-.25a.23.23,0,0,1,0,.11l-.06,0a.1.1,0,0,0-.1.11.09.09,0,0,0,.1.1.1.1,0,0,0,.08,0,.23.23,0,0,0-.15-.38.32.32,0,0,0-.32.36c0,.46.8.59,1,.11A.81.81,0,0,0,37.4,10.13Z"/><path class="cls-24" d="M38.76,10.15c.45-.1.94.16,1.69.55.95.5,1.56.43,2,.13s.23-.73-.08-.78-.5.25-.42.36a.14.14,0,0,0,.22,0,.08.08,0,0,1,0-.09.1.1,0,0,1,.17,0,.2.2,0,0,1-.21.27c-.32,0-.33-.6.22-.61a.48.48,0,0,1,.28.87,1.69,1.69,0,0,1-1.69.14A7.22,7.22,0,0,0,39,10.25a.68.68,0,0,0-.64,1c.22.34.74.31.79,0s-.29-.37-.36-.27a.15.15,0,0,0,0,.11l.06,0a.12.12,0,0,1,.1.11.1.1,0,0,1-.11.1.12.12,0,0,1-.08,0,.23.23,0,0,1,.16-.37c.21,0,.32.16.32.37,0,.45-.83.55-1,.07A.82.82,0,0,1,38.76,10.15Z"/><path class="cls-24" d="M38.07,9.66a.74.74,0,0,0,0,.81A.82.82,0,0,0,38.07,9.66Z"/><path class="cls-24" d="M37.45,9.74a.55.55,0,0,0,.4.47A.62.62,0,0,0,37.45,9.74Z"/><path class="cls-24" d="M38.66,9.76a.57.57,0,0,1-.42.47A.66.66,0,0,1,38.66,9.76Z"/><path class="cls-25" d="M36.7,10.22s.84-.28,1.12.38C37.81,10.4,37.46,9.92,36.7,10.22Z"/><path class="cls-25" d="M39.44,10.27s-.82-.31-1.13.34C38.33,10.41,38.69,9.94,39.44,10.27Z"/><path class="cls-25" d="M34,9.87a.38.38,0,0,1,.25.3A.26.26,0,0,0,34,9.87Z"/><path class="cls-25" d="M42.15,10a.4.4,0,0,0-.27.3A.28.28,0,0,1,42.15,10Z"/><g class="cls-8"><path class="cls-26" d="M28.35,8.66v.18l14,.27,0,.94S40,13.33,33.49,11l.41.18a13,13,0,0,0,3.83,1h.11a12.39,12.39,0,0,0,4-.85,14.33,14.33,0,0,1,5.09-1.22L47.44,9Z"/></g><g class="cls-8"><path class="cls-26" d="M39.29,8.87l6.11.29,0,.74s-1.59.59-4.36,1.54a9.59,9.59,0,0,1-3.64.69l.35,0h.11a12.39,12.39,0,0,0,4-.85,14.33,14.33,0,0,1,5.09-1.22L47.44,9Z"/></g><path class="cls-25" d="M38.07,9.73a.77.77,0,0,0,0,.58A.57.57,0,0,1,38.07,9.73Z"/><path class="cls-25" d="M37.5,9.79a.5.5,0,0,0,.31.37A.38.38,0,0,1,37.5,9.79Z"/><path class="cls-25" d="M38.64,9.81a.51.51,0,0,0-.33.35A.38.38,0,0,1,38.64,9.81Z"/><path class="cls-20" d="M29.09,9.6a17.05,17.05,0,0,1,4.11,1.14A8,8,0,0,0,29.09,9.6Z"/><path d="M57.85,13.09a2.23,2.23,0,1,1-1.5-2.78A2.24,2.24,0,0,1,57.85,13.09Z"/><path class="cls-5" d="M57.37,12.94a1.73,1.73,0,1,1-1.16-2.15A1.73,1.73,0,0,1,57.37,12.94Z"/><path class="cls-6" d="M57.05,12.85a1.4,1.4,0,1,1-.94-1.74A1.39,1.39,0,0,1,57.05,12.85Z"/><polygon class="cls-7" points="55.9 12.77 55.32 13.79 55.43 12.63 54.49 13.05 55.21 12.38 54.37 12.04 55.25 12.23 55.02 11.28 55.57 12.15 56.12 11.12 56.05 12.29 56.97 11.86 56.25 12.53 57.08 12.86 56.21 12.68 56.44 13.63 55.9 12.77"/><g class="cls-8"><path class="cls-9" d="M56.35,10.31a2.22,2.22,0,0,0-2.67,1.21,23.66,23.66,0,0,1,3.56,2.55,2.21,2.21,0,0,0,.61-1A2.24,2.24,0,0,0,56.35,10.31Z"/></g><path d="M64.67,15.13a2.23,2.23,0,1,0,2.78-1.5A2.23,2.23,0,0,0,64.67,15.13Z"/><path class="cls-5" d="M65.15,15.27a1.73,1.73,0,1,0,2.15-1.16A1.74,1.74,0,0,0,65.15,15.27Z"/><path class="cls-6" d="M65.47,15.37a1.39,1.39,0,1,0,1.74-.94A1.4,1.4,0,0,0,65.47,15.37Z"/><polygon class="cls-7" points="66.47 15.93 66.4 17.11 66.94 16.07 67.5 16.94 67.27 15.99 68.14 16.17 67.31 15.84 68.03 15.17 67.08 15.59 67.2 14.43 66.61 15.45 66.08 14.59 66.31 15.54 65.43 15.36 66.27 15.69 65.55 16.36 66.47 15.93"/><g class="cls-8"><path class="cls-9" d="M67.45,13.63A2.23,2.23,0,0,1,69,16.11a23.41,23.41,0,0,0-4.38.18,2.19,2.19,0,0,1,0-1.16A2.24,2.24,0,0,1,67.45,13.63Z"/></g><rect class="cls-10" x="58.74" y="7.53" width="1.51" height="5.5" transform="translate(32.57 64.33) rotate(-73.33)"/><path class="cls-11" d="M62.13,12l-5.76-1.73.49-1.62,5.76,1.72ZM56.92,10.2l4.78,1.44.38-1.27L57.29,8.94Z"/><rect class="cls-10" x="58.33" y="8.97" width="1.48" height="5.5" transform="translate(30.94 64.96) rotate(-73.37)"/><path class="cls-11" d="M61.7,13.38,56,11.66l.48-1.6,5.75,1.72Zm-5.21-1.76,4.79,1.43.37-1.24-4.79-1.43Z"/><path class="cls-10" d="M62.59,9.55C59.81,8.71,57.85,7,58,5.59l-1,3.18,5.27,1.58Z"/><path class="cls-11" d="M62.56,10.52,56.8,8.79l1-3.28.49.14C58.1,7,60,8.67,62.62,9.46l.24.07ZM57.35,8.75l4.78,1.44.19-.63a7.42,7.42,0,0,1-4.32-3Z"/><path class="cls-10" d="M67.69,12l1-3.19c-.62,1.27-3.22,1.64-6,.8h0l-.24.8Z"/><path class="cls-11" d="M67.9,12.12l-5.82-1.75.3-1,.23.07h0c2.65.79,5.18.45,5.77-.78l.49.15Zm-5.28-1.79,4.84,1.45.66-2.19a7.58,7.58,0,0,1-5.32.12Z"/><polygon class="cls-10" points="61.49 13.22 61.52 13.22 66.83 14.81 67.25 13.39 61.91 11.8 61.49 13.22"/><path class="cls-11" d="M67,15l-5.79-1.74v-.1l.45-1.5,5.82,1.74ZM61.76,13.2l4.84,1.45L67,13.41,62.13,12Z"/><rect class="cls-10" x="64.05" y="9.09" width="1.51" height="5.57" transform="translate(34.87 70.56) rotate(-73.37)"/><path class="cls-11" d="M67.47,13.56l-5.82-1.75.48-1.62L68,11.93Zm-5.29-1.78L67,13.23,67.41,12l-4.85-1.45Z"/><path class="cls-12" d="M62.35,10.35,57.08,8.77l-.43,1.45,5.26,1.58Zm-1,1-4-1.22.28-.95,4,1.22Z"/><path class="cls-12" d="M56.65,10.22l-.43,1.42,5.27,1.58.42-1.42Zm4.29,2.51-4-1.22.28-.95,4,1.21Z"/><path class="cls-12" d="M62.59,9.55C59.81,8.71,57.85,7,58,5.59l-1,3.18,5.27,1.58Zm-.79.34-4-1.21.41-1.42a9.24,9.24,0,0,0,3.74,2.26Z"/><path class="cls-12" d="M62.62,9.56h0l-.24.8L67.69,12l1-3.19C68,10,65.42,10.4,62.62,9.56Zm4.5,1.92-4-1.21.11-.37a9.2,9.2,0,0,0,4.36.17Z"/><path class="cls-12" d="M61.49,13.22h0l5.31,1.59.42-1.43L61.91,11.8Zm1-1.06,4.05,1.21-.28,1-4.05-1.21Z"/><path class="cls-12" d="M61.91,11.8l5.34,1.59L67.69,12l-5.34-1.6Zm1-1.07,4,1.21-.28,1-4-1.21Z"/><path class="cls-12" d="M67.69,12l.06-.21-4.91-1.47.18-.6-.4-.11h0l-.44-.15L62,10,57.14,8.56l-.06.21,4.83,1.45-.37,1.22L56.71,10l-.06.23,4.82,1.44-.36,1.2-4.82-1.44-.07.22,4.83,1.44.44.14h0l.4.12,4.91,1.47.06-.23L62,13.12l.35-1.2,4.91,1.47.07-.22L62.41,11.7l.37-1.22Z"/><polygon class="cls-13" points="52.8 10.84 56 11.8 57.81 5.75 57.94 5.33 51.77 3.48 52.8 10.84"/><polygon class="cls-13" points="68.8 8.58 68.67 9 66.86 15.05 70.06 16.01 74.97 10.43 68.8 8.58"/><polygon class="cls-14" points="54.88 5.23 55.02 6 55.72 6.33 55.03 6.69 54.94 7.46 54.38 6.92 53.61 7.07 53.96 6.37 53.58 5.68 54.35 5.8 54.88 5.23"/><path class="cls-15" d="M55,7.61,54.35,7l-.87.17.4-.79-.43-.78.88.13.6-.65.15.88.8.37-.78.41ZM53.71,5.78l.33.58-.3.61.66-.13.48.47L55,6.64l.6-.31L55,6.05l-.11-.67-.46.49Z"/><polygon class="cls-16" points="54.75 5.67 54.83 6.13 55.25 6.33 54.84 6.54 54.78 7.01 54.45 6.68 53.99 6.77 54.2 6.35 53.97 5.94 54.43 6.01 54.75 5.67"/><path class="cls-17" d="M55.74,6.32,55,6l-.12-.78-.54.58-.77-.12.38.69-.35.69.77-.14.56.54L55,6.69Zm-1.31.45-.57.11.26-.52-.28-.5.57.08.39-.42.1.57.52.24-.51.27-.07.57Z"/><g class="cls-18"><polygon class="cls-19" points="54.77 5.62 54.42 5.99 54.41 5.99 54.42 6 54.54 6.38 54.54 6.37 54.54 6.36 54.77 5.62"/><polygon class="cls-20" points="54.77 5.62 54.54 6.36 54.54 6.37 54.85 6.12 54.77 5.62"/><polygon class="cls-19" points="55.31 6.33 54.85 6.12 54.54 6.38 54.54 6.38 55.3 6.33 55.31 6.33"/><polygon class="cls-20" points="55.3 6.33 54.54 6.38 54.87 6.57 55.31 6.33 55.31 6.33 55.3 6.33"/><polygon class="cls-20" points="54.44 6.72 54.8 7.08 54.54 6.38 54.44 6.72"/><polygon class="cls-19" points="54.54 6.38 54.8 7.08 54.87 6.57 54.54 6.38"/><polygon class="cls-19" points="54.44 6.72 54.54 6.38 54.54 6.37 53.94 6.82 54.44 6.72"/><polygon class="cls-20" points="53.94 6.82 54.54 6.37 54.16 6.36 53.94 6.82"/><polygon class="cls-20" points="54.54 6.37 54.54 6.38 54.42 6 54.41 5.99 53.92 5.92 54.54 6.37 54.54 6.37"/><polygon class="cls-19" points="54.54 6.37 53.92 5.92 54.16 6.36 54.54 6.37 54.54 6.37"/></g><polygon class="cls-14" points="71.44 10.18 71.57 10.95 72.28 11.28 71.58 11.65 71.49 12.42 70.93 11.88 70.17 12.03 70.51 11.33 70.13 10.64 70.91 10.76 71.44 10.18"/><path class="cls-15" d="M71.55,12.57,70.91,12l-.87.17.39-.79L70,10.55l.88.13.61-.65.14.88.81.37-.79.41Zm-1.29-1.84.33.59-.3.61L71,11.8l.48.47.08-.67.6-.31L71.51,11l-.12-.66-.46.49Z"/><polygon class="cls-16" points="71.31 10.63 71.39 11.09 71.81 11.29 71.39 11.5 71.34 11.96 71 11.64 70.54 11.73 70.75 11.31 70.52 10.9 70.99 10.97 71.31 10.63"/><path class="cls-17" d="M72.29,11.28,71.58,11l-.13-.77-.53.57-.78-.11.38.68-.34.7.76-.15.56.55.1-.77ZM71,11.72l-.56.12.25-.52-.28-.51.57.09.4-.43.1.57.52.25-.51.26-.07.58Z"/><g class="cls-18"><polygon class="cls-19" points="71.32 10.58 70.98 10.95 70.97 10.95 70.97 10.95 71.09 11.33 71.1 11.33 71.1 11.31 71.32 10.58"/><polygon class="cls-20" points="71.32 10.58 71.1 11.31 71.1 11.33 71.41 11.07 71.32 10.58"/><polygon class="cls-19" points="71.87 11.29 71.41 11.07 71.09 11.33 71.1 11.33 71.86 11.29 71.87 11.29"/><polygon class="cls-20" points="71.86 11.29 71.1 11.33 71.42 11.53 71.87 11.29 71.87 11.29 71.86 11.29"/><polygon class="cls-20" points="70.99 11.68 71.36 12.03 71.09 11.33 70.99 11.68"/><polygon class="cls-19" points="71.09 11.33 71.36 12.03 71.42 11.53 71.09 11.33"/><polygon class="cls-19" points="70.99 11.68 71.09 11.33 71.09 11.33 70.49 11.78 70.99 11.68"/><polygon class="cls-20" points="70.49 11.78 71.09 11.33 70.72 11.32 70.49 11.78"/><polygon class="cls-20" points="71.09 11.33 71.09 11.33 70.97 10.95 70.97 10.95 70.47 10.87 71.09 11.33 71.09 11.33"/><polygon class="cls-19" points="71.09 11.33 70.47 10.87 70.72 11.32 71.09 11.33 71.09 11.33"/></g><path class="cls-21" d="M69.68,13.84c-1.76-.43-1.88-.82-1.42-2.34.64-2.12.94-2.59,4-1.89l-3.43-1L68.67,9l-1.81,6.05,3.2,1L75,10.43h0l-.38.3C73.75,11.44,71.37,14.25,69.68,13.84Z"/><path class="cls-21" d="M68.57,14.85c-1.22-.37-1.44-.73-1.12-1.73,0-.09,0-.19.07-.27l-.66,2.2,3.2,1,1.53-1.74C70.36,15.49,69.75,15.2,68.57,14.85Z"/><path class="cls-21" d="M54.3,9.23c1.7.61,2,.35,2.47-1.17.63-2.13.63-2.68-2.28-3.76l3.43,1-.12.41L56,11.8l-3.2-1-1-7.36h0A3.5,3.5,0,0,1,52,4C52.21,5,52.67,8.65,54.3,9.23Z"/><path class="cls-21" d="M54.66,10.69c1.23.36,1.61.18,1.9-.83a1.07,1.07,0,0,1,.09-.27L56,11.8l-3.2-1-.32-2.3C52.82,10.24,53.49,10.33,54.66,10.69Z"/><path class="cls-22" d="M70.88,15.12l-.8.89a14.29,14.29,0,0,0-5.23-.19,12.33,12.33,0,0,1-4.06-.25l-.1,0a12.81,12.81,0,0,1-3.42-2,14.31,14.31,0,0,0-4.48-2.72l-.2-1.19Z"/><path class="cls-23" d="M53.85,10.35a.26.26,0,0,0-.32.17.26.26,0,1,0,.5.16A.27.27,0,0,0,53.85,10.35Z"/><path class="cls-23" d="M55.27,10.77A.26.26,0,0,0,55,11a.27.27,0,0,0,.17.33.27.27,0,0,0,.15-.51Z"/><path class="cls-23" d="M56.69,11.2a.26.26,0,0,0-.32.17.25.25,0,0,0,.17.33.27.27,0,0,0,.33-.18A.26.26,0,0,0,56.69,11.2Z"/><path class="cls-23" d="M58.11,11.62a.26.26,0,0,0-.32.18.24.24,0,0,0,.17.32.25.25,0,0,0,.33-.17A.27.27,0,0,0,58.11,11.62Z"/><path class="cls-23" d="M59.53,12.05a.27.27,0,0,0-.33.17.27.27,0,1,0,.51.15A.26.26,0,0,0,59.53,12.05Z"/><path class="cls-23" d="M61,12.47a.27.27,0,0,0-.33.18.26.26,0,0,0,.18.32.24.24,0,0,0,.32-.17A.26.26,0,0,0,61,12.47Z"/><path class="cls-23" d="M62.37,12.9a.27.27,0,0,0-.33.17.27.27,0,0,0,.18.33.26.26,0,0,0,.32-.18A.25.25,0,0,0,62.37,12.9Z"/><path class="cls-23" d="M63.79,13.32a.27.27,0,0,0-.33.18.27.27,0,0,0,.18.33.27.27,0,0,0,.15-.51Z"/><path class="cls-23" d="M65.2,13.75a.26.26,0,0,0-.32.17.27.27,0,0,0,.17.33.27.27,0,0,0,.33-.18A.26.26,0,0,0,65.2,13.75Z"/><path class="cls-23" d="M66.62,14.17a.26.26,0,0,0-.15.5.25.25,0,0,0,.33-.17A.27.27,0,0,0,66.62,14.17Z"/><path class="cls-23" d="M68,14.6a.26.26,0,0,0-.15.5.27.27,0,0,0,.33-.18A.26.26,0,0,0,68,14.6Z"/><path class="cls-23" d="M69.46,15a.26.26,0,0,0-.32.18.24.24,0,0,0,.17.32.25.25,0,0,0,.33-.17A.27.27,0,0,0,69.46,15Z"/><path class="cls-24" d="M54.07,10.55a.27.27,0,0,1-.33.18.25.25,0,0,1-.17-.33.24.24,0,0,1,.32-.17A.26.26,0,0,1,54.07,10.55Z"/><path class="cls-25" d="M54,10.49a.2.2,0,0,1-.25.14.21.21,0,0,1-.14-.26.2.2,0,1,1,.39.12Z"/><path class="cls-7" d="M53.92,10.38a.11.11,0,0,1-.14.08.11.11,0,0,1,.06-.22A.11.11,0,0,1,53.92,10.38Z"/><path class="cls-7" d="M53.74,10.5a0,0,0,0,1-.05,0s0,0,0,0,0,0,.05,0A.05.05,0,0,1,53.74,10.5Z"/><path class="cls-24" d="M55.49,11a.27.27,0,0,1-.33.17.26.26,0,0,1-.18-.32.27.27,0,0,1,.33-.18A.27.27,0,0,1,55.49,11Z"/><path class="cls-25" d="M55.43,10.91a.2.2,0,0,1-.26.14.21.21,0,0,1-.13-.26.2.2,0,0,1,.25-.14A.21.21,0,0,1,55.43,10.91Z"/><path class="cls-7" d="M55.34,10.81a.12.12,0,0,1-.15.07.1.1,0,0,1-.07-.14.11.11,0,0,1,.14-.08A.12.12,0,0,1,55.34,10.81Z"/><path class="cls-7" d="M55.16,10.92a0,0,0,1,1,0-.05A.05.05,0,0,1,55.16,10.92Z"/><path class="cls-24" d="M56.91,11.4a.27.27,0,0,1-.33.18.27.27,0,1,1,.15-.51A.27.27,0,0,1,56.91,11.4Z"/><path class="cls-25" d="M56.85,11.34a.21.21,0,0,1-.26.14.21.21,0,0,1,.12-.4A.2.2,0,0,1,56.85,11.34Z"/><path class="cls-7" d="M56.76,11.23a.12.12,0,0,1-.15.08.11.11,0,0,1-.07-.14.1.1,0,0,1,.14-.08A.12.12,0,0,1,56.76,11.23Z"/><path class="cls-7" d="M56.58,11.35a0,0,0,0,1,0,0s0,0,0,0a0,0,0,0,1,0,0A.05.05,0,0,1,56.58,11.35Z"/><path class="cls-24" d="M58.32,11.83A.25.25,0,0,1,58,12a.26.26,0,0,1-.18-.32.27.27,0,0,1,.33-.18A.25.25,0,0,1,58.32,11.83Z"/><path class="cls-25" d="M58.27,11.76a.2.2,0,0,1-.26.14.21.21,0,0,1-.14-.26.21.21,0,0,1,.4.12Z"/><path class="cls-7" d="M58.18,11.66a.12.12,0,0,1-.15.07.12.12,0,0,1-.08-.14.12.12,0,0,1,.15-.08A.13.13,0,0,1,58.18,11.66Z"/><path class="cls-7" d="M58,11.77s0,0,0,0,0,0,0-.05a.05.05,0,0,1,0,0A0,0,0,0,1,58,11.77Z"/><path class="cls-24" d="M59.74,12.25a.26.26,0,0,1-.32.18.27.27,0,1,1,.32-.18Z"/><path class="cls-25" d="M59.69,12.19a.21.21,0,0,1-.26.14.22.22,0,0,1-.14-.26.21.21,0,1,1,.4.12Z"/><path class="cls-7" d="M59.59,12.08a.11.11,0,0,1-.14.08.11.11,0,0,1-.08-.14.12.12,0,0,1,.15-.08A.11.11,0,0,1,59.59,12.08Z"/><path class="cls-7" d="M59.41,12.2s0,0,0,0,0,0,0-.05,0,0,0,0S59.42,12.18,59.41,12.2Z"/><path class="cls-24" d="M61.16,12.68a.26.26,0,0,1-.32.17.26.26,0,0,1-.18-.32.27.27,0,0,1,.33-.18A.27.27,0,0,1,61.16,12.68Z"/><path class="cls-25" d="M61.11,12.61a.22.22,0,0,1-.26.14.21.21,0,0,1,.12-.4A.22.22,0,0,1,61.11,12.61Z"/><path class="cls-7" d="M61,12.51a.1.1,0,0,1-.14.07.11.11,0,0,1-.08-.14.12.12,0,0,1,.15-.08A.12.12,0,0,1,61,12.51Z"/><path class="cls-7" d="M60.83,12.62s0,0,0,0a0,0,0,0,1,0-.05s0,0,.05,0A0,0,0,0,1,60.83,12.62Z"/><path class="cls-24" d="M62.58,13.1a.27.27,0,0,1-.33.18.27.27,0,0,1-.17-.33.25.25,0,0,1,.32-.17A.26.26,0,0,1,62.58,13.1Z"/><path class="cls-25" d="M62.53,13a.21.21,0,0,1-.4-.12.21.21,0,1,1,.4.12Z"/><path class="cls-7" d="M62.43,12.93a.11.11,0,0,1-.14.08.11.11,0,0,1-.08-.14.11.11,0,1,1,.22.06Z"/><path class="cls-7" d="M62.25,13.05a0,0,0,0,1,0,0s0,0,0,0,0,0,0,0S62.26,13,62.25,13.05Z"/><path class="cls-24" d="M64,13.53a.26.26,0,0,1-.33.17.25.25,0,0,1-.17-.32.26.26,0,0,1,.32-.18A.27.27,0,0,1,64,13.53Z"/><path class="cls-25" d="M64,13.46a.22.22,0,0,1-.26.14.2.2,0,0,1-.14-.26.21.21,0,0,1,.26-.14A.22.22,0,0,1,64,13.46Z"/><path class="cls-7" d="M63.85,13.36a.11.11,0,0,1-.14.07.11.11,0,0,1-.08-.14.11.11,0,0,1,.14-.08A.12.12,0,0,1,63.85,13.36Z"/><path class="cls-7" d="M63.67,13.47a.05.05,0,0,1-.05,0,0,0,0,0,1,0-.05s0,0,0,0S63.68,13.45,63.67,13.47Z"/><path class="cls-24" d="M65.42,14a.27.27,0,0,1-.33.18.25.25,0,0,1-.17-.33.24.24,0,0,1,.32-.17A.26.26,0,0,1,65.42,14Z"/><path class="cls-25" d="M65.36,13.89a.21.21,0,0,1-.26.14.21.21,0,0,1-.13-.26.2.2,0,0,1,.25-.14A.2.2,0,0,1,65.36,13.89Z"/><path class="cls-7" d="M65.27,13.78a.12.12,0,1,1-.22-.07.11.11,0,0,1,.14-.07A.11.11,0,0,1,65.27,13.78Z"/><path class="cls-7" d="M65.09,13.9a0,0,0,0,1,0,0s0,0,0-.05a0,0,0,0,1,0,0S65.09,13.88,65.09,13.9Z"/><path class="cls-24" d="M66.84,14.38a.27.27,0,0,1-.33.17.26.26,0,0,1-.18-.32.27.27,0,0,1,.33-.18A.27.27,0,0,1,66.84,14.38Z"/><path class="cls-25" d="M66.78,14.31a.2.2,0,1,1-.39-.12.2.2,0,0,1,.25-.14A.21.21,0,0,1,66.78,14.31Z"/><path class="cls-7" d="M66.69,14.21a.11.11,0,0,1-.15.07.1.1,0,0,1-.07-.14.11.11,0,0,1,.14-.08A.12.12,0,0,1,66.69,14.21Z"/><path class="cls-7" d="M66.51,14.32a0,0,0,1,1,0-.05A.05.05,0,0,1,66.51,14.32Z"/><path class="cls-24" d="M68.25,14.8a.26.26,0,0,1-.32.18.27.27,0,1,1,.15-.51A.26.26,0,0,1,68.25,14.8Z"/><path class="cls-25" d="M68.2,14.74a.21.21,0,0,1-.26.14.21.21,0,0,1,.12-.4A.21.21,0,0,1,68.2,14.74Z"/><path class="cls-7" d="M68.11,14.63a.12.12,0,0,1-.15.08.13.13,0,0,1-.08-.15.12.12,0,0,1,.15-.07A.11.11,0,0,1,68.11,14.63Z"/><path class="cls-7" d="M67.93,14.75a0,0,0,0,1-.05,0,0,0,0,0,1,0,0,0,0,0,0,1,.05,0S67.93,14.73,67.93,14.75Z"/><path class="cls-24" d="M69.67,15.23a.26.26,0,0,1-.5-.15.27.27,0,0,1,.33-.18A.25.25,0,0,1,69.67,15.23Z"/><path class="cls-25" d="M69.62,15.16a.2.2,0,0,1-.26.14.21.21,0,0,1-.14-.26.21.21,0,1,1,.4.12Z"/><path class="cls-7" d="M69.53,15.06a.12.12,0,0,1-.15.07.11.11,0,0,1-.07-.14.11.11,0,0,1,.14-.08A.13.13,0,0,1,69.53,15.06Z"/><path class="cls-7" d="M69.34,15.17s0,0,0,0a0,0,0,1,1,0-.08A0,0,0,0,1,69.34,15.17Z"/><g class="cls-8"><path class="cls-26" d="M60.9,13.54c-.4-.23-.94-.14-1.77,0-1.06.18-1.62-.07-1.92-.48s0-.77.32-.73.4.4.28.47a.14.14,0,0,1-.22,0s.08,0,.08-.07a.1.1,0,0,0-.15-.08.2.2,0,0,0,.11.32c.32.07.51-.47,0-.65a.48.48,0,0,0-.54.75,1.7,1.7,0,0,0,1.58.64,7.84,7.84,0,0,1,2-.14.69.69,0,0,1,.31,1.15c-.32.26-.81.07-.74-.27s.38-.27.41-.16a.12.12,0,0,1,0,.12.09.09,0,0,0,0,0,.1.1,0,0,0-.13.07.11.11,0,0,0,.07.13.12.12,0,0,0,.1,0,.24.24,0,0,0,0-.41.33.33,0,0,0-.41.27c-.13.43.62.77,1,.37A.81.81,0,0,0,60.9,13.54Z"/><path class="cls-26" d="M62.2,13.93c.46,0,.86.4,1.48,1,.79.73,1.39.84,1.87.65s.42-.63.13-.77-.55.11-.5.23a.14.14,0,0,0,.21.08.07.07,0,0,1,0-.1.1.1,0,0,1,.17,0,.2.2,0,0,1-.27.2c-.3-.11-.16-.67.37-.53a.48.48,0,0,1,0,.92A1.73,1.73,0,0,1,64,15.29a7.64,7.64,0,0,0-1.55-1.2.69.69,0,0,0-.89.8c.12.38.63.5.77.17s-.17-.43-.27-.35a.14.14,0,0,0-.05.1h.06a.09.09,0,0,1,.07.13A.11.11,0,0,1,62,15a.1.1,0,0,1-.07-.07.23.23,0,0,1,.26-.31.32.32,0,0,1,.2.44c-.13.43-.94.31-1-.21A.82.82,0,0,1,62.2,13.93Z"/><path class="cls-26" d="M61.67,13.27a.76.76,0,0,0-.22.78A.84.84,0,0,0,61.67,13.27Z"/><path class="cls-26" d="M61.05,13.18a.58.58,0,0,0,.26.56A.62.62,0,0,0,61.05,13.18Z"/><path class="cls-26" d="M62.21,13.53a.56.56,0,0,1-.52.33A.63.63,0,0,1,62.21,13.53Z"/></g><path class="cls-24" d="M60.92,13.49c-.4-.24-.94-.14-1.78,0-1.06.18-1.62-.06-1.91-.48s0-.76.31-.72.4.4.29.47a.14.14,0,0,1-.22,0,.08.08,0,0,0,.08-.07.1.1,0,0,0-.15-.08.2.2,0,0,0,.11.32c.31.07.5-.47,0-.65s-.78.36-.53.75a1.69,1.69,0,0,0,1.57.64,7.91,7.91,0,0,1,1.95-.14.69.69,0,0,1,.31,1.15c-.32.26-.8.07-.74-.28s.38-.26.42-.15a.23.23,0,0,1,0,.12l-.05,0a.11.11,0,0,0-.13.07.11.11,0,0,0,.16.12.24.24,0,0,0,0-.41.34.34,0,0,0-.42.26c-.12.44.62.78,1,.38A.82.82,0,0,0,60.92,13.49Z"/><path class="cls-24" d="M62.22,13.88c.46,0,.86.4,1.48,1,.79.73,1.39.83,1.86.65s.42-.63.14-.78-.55.11-.5.24a.13.13,0,0,0,.2.08.08.08,0,0,1,0-.1c0-.06.15-.06.16,0s-.13.25-.26.2c-.3-.11-.17-.67.37-.53a.48.48,0,0,1,0,.92A1.69,1.69,0,0,1,64,15.23c-.46-.32-1-1-1.56-1.19a.69.69,0,0,0-.89.79c.13.39.64.5.77.18s-.17-.43-.26-.36a.12.12,0,0,0,0,.1h.06a.13.13,0,0,1,.07.14.12.12,0,0,1-.21,0,.24.24,0,0,1,.26-.32.33.33,0,0,1,.21.45c-.14.43-1,.31-1-.21A.8.8,0,0,1,62.22,13.88Z"/><path class="cls-24" d="M61.69,13.22a.73.73,0,0,0-.22.78A.84.84,0,0,0,61.69,13.22Z"/><path class="cls-24" d="M61.07,13.12a.57.57,0,0,0,.26.57A.64.64,0,0,0,61.07,13.12Z"/><path class="cls-24" d="M62.23,13.47a.57.57,0,0,1-.53.34A.64.64,0,0,1,62.23,13.47Z"/><path class="cls-25" d="M60.22,13.39s.88,0,1,.67C61.24,13.86,61,13.3,60.22,13.39Z"/><path class="cls-25" d="M62.85,14.18s-.72-.52-1.19,0C61.74,14,62.21,13.66,62.85,14.18Z"/><path class="cls-25" d="M57.74,12.33a.39.39,0,0,1,.16.37A.27.27,0,0,0,57.74,12.33Z"/><path class="cls-25" d="M65.52,14.66a.38.38,0,0,0-.34.22A.27.27,0,0,1,65.52,14.66Z"/><g class="cls-8"><path class="cls-26" d="M52.59,9.64l-.05.18,13.41,4-.27.9s-3.16,2.53-8.77-1.46l.36.28a12.81,12.81,0,0,0,3.42,2l.1,0a12.33,12.33,0,0,0,4.06.25,14.29,14.29,0,0,1,5.23.19l.8-.89Z"/></g><g class="cls-8"><path class="cls-26" d="M63.08,12.78l5.8,1.92-.21.71s-1.69.14-4.62.31a9.5,9.5,0,0,1-3.69-.31l.33.13.1,0a12.33,12.33,0,0,0,4.06.25,14.29,14.29,0,0,1,5.23.19l.8-.89Z"/></g><path class="cls-25" d="M61.66,13.29a.74.74,0,0,0-.18.54A.55.55,0,0,1,61.66,13.29Z"/><path class="cls-25" d="M61.1,13.19a.49.49,0,0,0,.2.44A.4.4,0,0,1,61.1,13.19Z"/><path class="cls-25" d="M62.19,13.51a.51.51,0,0,0-.4.25A.39.39,0,0,1,62.19,13.51Z"/><path class="cls-20" d="M53.05,10.75A17.05,17.05,0,0,1,56.7,13,7.94,7.94,0,0,0,53.05,10.75Z"/><path d="M81.4,22.45a2.23,2.23,0,1,1-1-3A2.25,2.25,0,0,1,81.4,22.45Z"/><path class="cls-5" d="M81,22.22a1.73,1.73,0,1,1-.78-2.31A1.73,1.73,0,0,1,81,22.22Z"/><path class="cls-6" d="M80.65,22.08A1.4,1.4,0,1,1,80,20.2,1.41,1.41,0,0,1,80.65,22.08Z"/><polygon class="cls-7" points="79.53 21.81 78.78 22.71 79.09 21.59 78.09 21.84 78.91 21.3 78.14 20.83 78.98 21.16 78.91 20.19 79.31 21.14 80.02 20.21 79.75 21.36 80.73 21.09 79.91 21.63 80.68 22.09 79.84 21.77 79.91 22.74 79.53 21.81"/><g class="cls-8"><path class="cls-9" d="M80.39,19.46a2.23,2.23,0,0,0-2.84.74,23.94,23.94,0,0,1,3.08,3.12,2.32,2.32,0,0,0,.77-.87A2.24,2.24,0,0,0,80.39,19.46Z"/></g><path d="M87.77,25.62a2.23,2.23,0,1,0,3-1A2.23,2.23,0,0,0,87.77,25.62Z"/><path class="cls-5" d="M88.22,25.84a1.73,1.73,0,1,0,2.32-.78A1.72,1.72,0,0,0,88.22,25.84Z"/><path class="cls-6" d="M88.52,26A1.4,1.4,0,0,0,91,27.23,1.4,1.4,0,1,0,88.52,26Z"/><polygon class="cls-7" points="89.41 26.72 89.14 27.86 89.85 26.93 90.25 27.88 90.18 26.91 91.02 27.23 90.25 26.77 91.07 26.23 90.07 26.49 90.38 25.36 89.63 26.27 89.25 25.33 89.32 26.3 88.48 25.97 89.25 26.44 88.43 26.98 89.41 26.72"/><g class="cls-8"><path class="cls-9" d="M90.76,24.61a2.25,2.25,0,0,1,1.12,2.72,23.3,23.3,0,0,0-4.34-.58,2.15,2.15,0,0,1,.23-1.13A2.23,2.23,0,0,1,90.76,24.61Z"/></g><rect class="cls-10" x="82.74" y="17.22" width="1.51" height="5.5" transform="translate(28.45 85.84) rotate(-63.57)"/><path class="cls-11" d="M85.81,22.06l-5.39-2.67.76-1.52,5.38,2.67ZM81,19.45l4.48,2.22L86,20.49l-4.47-2.22Z"/><rect class="cls-10" x="82.09" y="18.56" width="1.48" height="5.5" transform="translate(26.97 86.07) rotate(-63.65)"/><path class="cls-11" d="M85.14,23.39l-5.38-2.67.75-1.5,5.38,2.68ZM80.3,20.78,84.78,23l.57-1.16-4.47-2.22Z"/><path class="cls-10" d="M86.66,19.77c-2.59-1.31-4.23-3.34-3.81-4.68l-1.48,3,4.92,2.45Z"/><path class="cls-11" d="M86.48,20.72,81.09,18,82.62,15l.46.23c-.41,1.29,1.19,3.26,3.63,4.48l.22.11ZM81.64,18.1l4.47,2.22.29-.59a7.41,7.41,0,0,1-3.75-3.67Z"/><path class="cls-10" d="M91.28,23l1.48-3c-.82,1.14-3.45,1.06-6.07-.24h0l-.37.75Z"/><path class="cls-11" d="M91.47,23.2,86,20.49l.46-.92.23.11h0c2.48,1.24,5,1.33,5.82.22l.46.23Zm-4.91-2.66,4.53,2.25,1-2A7.54,7.54,0,0,1,86.85,20Z"/><polygon class="cls-10" points="84.96 23.2 84.99 23.21 89.95 25.68 90.61 24.35 85.62 21.87 84.96 23.2"/><path class="cls-11" d="M90.13,25.87l-5.41-2.69,0-.1.7-1.41,5.44,2.71Zm-4.9-2.65,4.53,2.26.57-1.16-4.52-2.26Z"/><rect class="cls-10" x="87.7" y="19.65" width="1.51" height="5.57" transform="translate(29.01 91.66) rotate(-63.58)"/><path class="cls-11" d="M90.79,24.54l-5.44-2.7.76-1.52L91.55,23Zm-4.9-2.64,4.53,2.25L91,23l-4.52-2.25Z"/><path class="cls-12" d="M86.29,20.52l-4.92-2.45-.68,1.35,4.93,2.45Zm-1.12.76L81.39,19.4l.44-.89,3.78,1.88Z"/><path class="cls-12" d="M80.69,19.42,80,20.75,85,23.19l.66-1.32Zm3.82,3.2-3.79-1.88.45-.89L85,21.73Z"/><path class="cls-12" d="M86.66,19.77c-2.59-1.31-4.23-3.34-3.81-4.68l-1.48,3,4.92,2.45Zm-.83.2-3.78-1.88.65-1.33A9.21,9.21,0,0,0,86,19.62Z"/><path class="cls-12" d="M86.69,19.78h0l-.37.75,5,2.48,1.48-3C91.94,21.16,89.31,21.08,86.69,19.78Zm4.11,2.66L87,20.56l.17-.34a9.22,9.22,0,0,0,4.26.9Z"/><path class="cls-12" d="M85,23.19l0,0,5,2.47.66-1.33-5-2.48Zm1.19-.86,3.78,1.88-.44.89-3.78-1.88Z"/><path class="cls-12" d="M85.62,21.87l5,2.48L91.28,23l-5-2.48ZM86.81,21l3.79,1.88-.44.89-3.79-1.88Z"/><path class="cls-12" d="M91.28,23l.1-.2-4.59-2.28.28-.56-.38-.18h0l-.4-.22-.28.56-4.51-2.24-.1.2,4.51,2.24-.57,1.14L80.8,19.21l-.11.21,4.52,2.24-.56,1.12-4.51-2.24-.1.21L84.55,23l.41.2,0,0,.37.18L90,25.68l.1-.21-4.59-2.28L86,22.07l4.59,2.28.1-.21-4.58-2.28.56-1.14Z"/><polygon class="cls-13" points="76.8 19.38 79.79 20.87 82.6 15.21 82.8 14.82 77.03 11.95 76.8 19.38"/><polygon class="cls-13" points="92.95 19.87 92.75 20.26 89.94 25.92 92.93 27.4 98.72 22.74 92.95 19.87"/><polygon class="cls-14" points="79.81 14.2 79.8 14.98 80.45 15.43 79.7 15.67 79.48 16.41 79.02 15.78 78.24 15.8 78.7 15.17 78.44 14.43 79.18 14.67 79.81 14.2"/><path class="cls-15" d="M79.5,16.57,79,15.85l-.88,0,.52-.71-.29-.84.84.28.71-.54v.88l.74.51-.85.27Zm-.94-2,.22.64-.4.54h.68l.39.55.19-.65.65-.21L79.73,15v-.68l-.53.41Z"/><polygon class="cls-16" points="79.6 14.61 79.6 15.08 79.98 15.35 79.54 15.49 79.4 15.94 79.13 15.56 78.66 15.57 78.94 15.19 78.78 14.75 79.23 14.9 79.6 14.61"/><path class="cls-17" d="M80.46,15.43,79.81,15V14.2l-.63.47-.74-.24.26.74-.46.63.78,0,.46.63.22-.74Zm-1.36.21h-.58l.34-.46-.19-.55.55.18.46-.35v.58l.47.33-.55.18-.17.55Z"/><g class="cls-18"><polygon class="cls-19" points="79.62 14.57 79.22 14.87 79.21 14.87 79.22 14.88 79.27 15.27 79.28 15.27 79.28 15.26 79.62 14.57"/><polygon class="cls-20" points="79.62 14.57 79.28 15.26 79.28 15.27 79.62 15.07 79.62 14.57"/><polygon class="cls-19" points="80.04 15.36 79.62 15.07 79.27 15.27 79.28 15.28 80.03 15.36 80.04 15.36"/><polygon class="cls-20" points="80.03 15.36 79.28 15.28 79.56 15.52 80.04 15.36 80.04 15.36 80.03 15.36"/><polygon class="cls-20" points="79.11 15.59 79.41 16.01 79.27 15.27 79.11 15.59"/><polygon class="cls-19" points="79.27 15.27 79.41 16.01 79.56 15.52 79.27 15.27"/><polygon class="cls-19" points="79.11 15.59 79.27 15.27 79.27 15.27 78.6 15.61 79.11 15.59"/><polygon class="cls-20" points="78.6 15.61 79.27 15.27 78.9 15.2 78.6 15.61"/><polygon class="cls-20" points="79.27 15.27 79.27 15.27 79.22 14.88 79.21 14.87 78.74 14.71 79.27 15.27 79.27 15.27"/><polygon class="cls-19" points="79.27 15.27 78.74 14.71 78.9 15.2 79.27 15.27 79.27 15.27"/></g><polygon class="cls-14" points="95.28 21.89 95.28 22.67 95.92 23.12 95.17 23.36 94.95 24.11 94.49 23.48 93.71 23.49 94.17 22.86 93.91 22.12 94.66 22.36 95.28 21.89"/><path class="cls-15" d="M95,24.27l-.52-.72-.89,0,.52-.72L93.8,22l.84.28.71-.54v.89l.73.5-.85.28Zm-1-2,.22.63-.4.55.68,0,.4.55.19-.65.64-.2-.55-.39V22l-.54.41Z"/><polygon class="cls-16" points="95.08 22.31 95.08 22.77 95.46 23.04 95.01 23.18 94.88 23.63 94.6 23.25 94.14 23.26 94.41 22.89 94.26 22.44 94.7 22.59 95.08 22.31"/><path class="cls-17" d="M95.93,23.12l-.64-.44v-.79l-.62.48-.74-.25.25.74-.46.63h.79l.45.63.23-.75Zm-1.36.21-.58,0,.34-.47-.19-.54.55.17.46-.35v.58l.47.33-.54.18-.17.55Z"/><g class="cls-18"><polygon class="cls-19" points="95.1 22.26 94.69 22.57 94.69 22.57 94.69 22.57 94.74 22.97 94.75 22.96 94.75 22.95 95.1 22.26"/><polygon class="cls-20" points="95.1 22.26 94.75 22.95 94.75 22.96 95.1 22.77 95.1 22.26"/><polygon class="cls-19" points="95.51 23.06 95.1 22.77 94.74 22.97 94.75 22.97 95.5 23.05 95.51 23.06"/><polygon class="cls-20" points="95.5 23.05 94.75 22.97 95.03 23.21 95.52 23.06 95.51 23.06 95.5 23.05"/><polygon class="cls-20" points="94.59 23.29 94.88 23.7 94.74 22.97 94.59 23.29"/><polygon class="cls-19" points="94.74 22.97 94.88 23.7 95.03 23.21 94.74 22.97"/><polygon class="cls-19" points="94.59 23.29 94.74 22.97 94.74 22.97 94.08 23.3 94.59 23.29"/><polygon class="cls-20" points="94.08 23.3 94.74 22.97 94.38 22.89 94.08 23.3"/><polygon class="cls-20" points="94.74 22.97 94.74 22.97 94.69 22.57 94.69 22.57 94.21 22.41 94.74 22.97 94.74 22.97"/><polygon class="cls-19" points="94.74 22.97 94.21 22.41 94.38 22.89 94.74 22.97 94.74 22.97"/></g><path class="cls-21" d="M92.93,25.2c-1.67-.72-1.71-1.12-1-2.55,1-2,1.37-2.39,4.23-1.19L93,19.87l-.2.39-2.81,5.66,3,1.48,5.79-4.66,0,0a2.6,2.6,0,0,0-.43.23C97.35,23.52,94.52,25.89,92.93,25.2Z"/><path class="cls-21" d="M91.66,26c-1.14-.57-1.29-1-.81-1.9l.12-.26-1,2.07,3,1.48L94.74,26C93.31,26.94,92.76,26.55,91.66,26Z"/><path class="cls-21" d="M78.55,18.05c1.57.89,1.92.68,2.63-.74,1-2,1.08-2.53-1.61-4.09l3.21,1.59-.19.4-2.81,5.65-3-1.49L77,12l0,0a3,3,0,0,1,.08.48C77.21,13.51,77,17.2,78.55,18.05Z"/><path class="cls-21" d="M78.66,19.54c1.14.57,1.55.46,2-.49,0-.09.09-.17.13-.25l-1,2.06-3-1.49.07-2.31C76.93,18.79,77.56,19,78.66,19.54Z"/><path class="cls-22" d="M93.89,26.66,93,27.4a14.36,14.36,0,0,0-5.12-1.07,12.37,12.37,0,0,1-4-.93l-.1-.06a12.9,12.9,0,0,1-3-2.53,14.41,14.41,0,0,0-3.94-3.44V18.16Z"/><path class="cls-23" d="M77.92,19.07a.26.26,0,0,0-.23.47.26.26,0,0,0,.35-.11A.28.28,0,0,0,77.92,19.07Z"/><path class="cls-23" d="M79.25,19.73a.26.26,0,0,0-.35.12.25.25,0,0,0,.12.35.26.26,0,0,0,.35-.12A.27.27,0,0,0,79.25,19.73Z"/><path class="cls-23" d="M80.58,20.39a.28.28,0,0,0-.36.12.26.26,0,0,0,.12.35.26.26,0,0,0,.35-.12A.26.26,0,0,0,80.58,20.39Z"/><path class="cls-23" d="M81.9,21.05a.26.26,0,0,0-.23.47A.26.26,0,0,0,82,21.4.27.27,0,0,0,81.9,21.05Z"/><path class="cls-23" d="M83.23,21.71a.26.26,0,0,0-.35.12.25.25,0,0,0,.11.35.26.26,0,0,0,.35-.12A.25.25,0,0,0,83.23,21.71Z"/><path class="cls-23" d="M84.55,22.37a.27.27,0,0,0-.35.12.26.26,0,1,0,.47.23A.26.26,0,0,0,84.55,22.37Z"/><path class="cls-23" d="M85.88,23a.26.26,0,1,0-.23.47.27.27,0,0,0,.35-.12A.26.26,0,0,0,85.88,23Z"/><path class="cls-23" d="M87.21,23.69a.26.26,0,1,0-.24.47.26.26,0,0,0,.35-.12A.25.25,0,0,0,87.21,23.69Z"/><path class="cls-23" d="M88.53,24.35a.26.26,0,0,0-.35.12.26.26,0,1,0,.47.23A.26.26,0,0,0,88.53,24.35Z"/><path class="cls-23" d="M89.86,25a.26.26,0,0,0-.24.47.28.28,0,0,0,.36-.12A.26.26,0,0,0,89.86,25Z"/><path class="cls-23" d="M91.18,25.67a.26.26,0,0,0-.35.12.27.27,0,0,0,.12.35A.26.26,0,0,0,91.3,26,.26.26,0,0,0,91.18,25.67Z"/><path class="cls-23" d="M92.51,26.33a.25.25,0,0,0-.35.11.28.28,0,0,0,.12.36.27.27,0,0,0,.35-.12A.26.26,0,0,0,92.51,26.33Z"/><path class="cls-24" d="M78.1,19.31a.27.27,0,0,1-.35.12.26.26,0,0,1-.12-.35A.26.26,0,0,1,78,19,.26.26,0,0,1,78.1,19.31Z"/><path class="cls-25" d="M78.06,19.24a.21.21,0,0,1-.28.09.2.2,0,0,1-.1-.28.21.21,0,0,1,.38.19Z"/><path class="cls-7" d="M78,19.12a.11.11,0,0,1-.15.05.13.13,0,0,1-.06-.16.13.13,0,0,1,.16-.05A.12.12,0,0,1,78,19.12Z"/><path class="cls-7" d="M77.78,19.2a0,0,0,1,1-.07,0s0,0,.05,0A0,0,0,0,1,77.78,19.2Z"/><path class="cls-24" d="M79.42,20a.26.26,0,0,1-.35.12.26.26,0,1,1,.24-.47A.25.25,0,0,1,79.42,20Z"/><path class="cls-25" d="M79.38,19.9a.21.21,0,1,1-.37-.19.21.21,0,1,1,.37.19Z"/><path class="cls-7" d="M79.31,19.78a.13.13,0,0,1-.16,0,.12.12,0,0,1,.1-.21A.12.12,0,0,1,79.31,19.78Z"/><path class="cls-7" d="M79.11,19.86a0,0,0,0,1,0,0,0,0,0,0,1,0-.06,0,0,0,0,1,0,0A0,0,0,0,1,79.11,19.86Z"/><path class="cls-24" d="M80.75,20.63a.26.26,0,0,1-.35.12.27.27,0,0,1-.12-.35.26.26,0,0,1,.35-.12A.26.26,0,0,1,80.75,20.63Z"/><path class="cls-25" d="M80.71,20.56a.21.21,0,0,1-.28.09.21.21,0,1,1,.28-.09Z"/><path class="cls-7" d="M80.63,20.44a.11.11,0,0,1-.15,0,.12.12,0,0,1,0-.16.11.11,0,0,1,.15,0A.12.12,0,0,1,80.63,20.44Z"/><path class="cls-7" d="M80.43,20.52a0,0,0,0,1-.05,0s0,0,0-.06a.06.06,0,0,1,.06,0S80.44,20.5,80.43,20.52Z"/><path class="cls-24" d="M82.08,21.29a.28.28,0,0,1-.36.12.27.27,0,0,1-.11-.36.26.26,0,0,1,.35-.11A.26.26,0,0,1,82.08,21.29Z"/><path class="cls-25" d="M82,21.22a.2.2,0,0,1-.27.09.21.21,0,0,1-.1-.28.21.21,0,0,1,.28-.09A.2.2,0,0,1,82,21.22Z"/><path class="cls-7" d="M82,21.1a.12.12,0,1,1,0-.16A.13.13,0,0,1,82,21.1Z"/><path class="cls-7" d="M81.76,21.18a0,0,0,0,1-.05,0,0,0,0,0,1,0-.06,0,0,0,0,1,0,0A0,0,0,0,1,81.76,21.18Z"/><path class="cls-24" d="M83.4,22a.26.26,0,0,1-.35.12.28.28,0,0,1-.12-.36.26.26,0,0,1,.36-.11A.26.26,0,0,1,83.4,22Z"/><path class="cls-25" d="M83.36,21.88a.21.21,0,1,1-.37-.19.21.21,0,1,1,.37.19Z"/><path class="cls-7" d="M83.29,21.76a.14.14,0,0,1-.16,0,.12.12,0,0,1,0-.16.11.11,0,0,1,.15,0A.13.13,0,0,1,83.29,21.76Z"/><path class="cls-7" d="M83.09,21.84a0,0,0,0,1-.06,0,.06.06,0,0,1,0-.06s0,0,0,0A0,0,0,0,1,83.09,21.84Z"/><path class="cls-24" d="M84.73,22.61a.27.27,0,0,1-.35.12.28.28,0,0,1-.12-.36.25.25,0,0,1,.35-.11A.26.26,0,0,1,84.73,22.61Z"/><path class="cls-25" d="M84.69,22.54a.21.21,0,0,1-.28.09.21.21,0,1,1,.18-.37A.2.2,0,0,1,84.69,22.54Z"/><path class="cls-7" d="M84.61,22.41a.12.12,0,0,1-.15.06.13.13,0,0,1-.06-.16.12.12,0,0,1,.16,0A.11.11,0,0,1,84.61,22.41Z"/><path class="cls-7" d="M84.41,22.5s0,0,0,0a0,0,0,0,1,0-.05,0,0,0,0,1,0,0A0,0,0,0,1,84.41,22.5Z"/><path class="cls-24" d="M86.06,23.27a.27.27,0,0,1-.48-.24.27.27,0,1,1,.48.24Z"/><path class="cls-25" d="M86,23.19a.2.2,0,0,1-.28.1.21.21,0,0,1,.19-.37A.19.19,0,0,1,86,23.19Z"/><path class="cls-7" d="M85.94,23.07a.13.13,0,0,1-.16.06.13.13,0,0,1,0-.16.12.12,0,0,1,.21.1Z"/><path class="cls-7" d="M85.74,23.16s0,0,0,0a0,0,0,0,1,0-.05s0,0,0,0S85.75,23.14,85.74,23.16Z"/><path class="cls-24" d="M87.38,23.93A.25.25,0,0,1,87,24a.26.26,0,0,1-.12-.35.27.27,0,0,1,.35-.12A.28.28,0,0,1,87.38,23.93Z"/><path class="cls-25" d="M87.34,23.85a.21.21,0,0,1-.28.1.21.21,0,0,1-.09-.28.21.21,0,0,1,.37.18Z"/><path class="cls-7" d="M87.26,23.73a.11.11,0,1,1-.05-.15A.11.11,0,0,1,87.26,23.73Z"/><path class="cls-7" d="M87.06,23.82a0,0,0,0,1,0,0s0,0,0,0a0,0,0,0,1,0,0S87.07,23.8,87.06,23.82Z"/><path class="cls-24" d="M88.71,24.58a.26.26,0,0,1-.35.12.26.26,0,0,1-.12-.35.26.26,0,0,1,.35-.12A.27.27,0,0,1,88.71,24.58Z"/><path class="cls-25" d="M88.66,24.51a.2.2,0,0,1-.27.1.21.21,0,0,1-.1-.28.22.22,0,0,1,.28-.1A.21.21,0,0,1,88.66,24.51Z"/><path class="cls-7" d="M88.59,24.39a.11.11,0,0,1-.15.05.11.11,0,0,1-.06-.15.12.12,0,0,1,.21.1Z"/><path class="cls-7" d="M88.39,24.47a0,0,0,1,1-.07,0,0,0,0,0,1,.07,0S88.4,24.46,88.39,24.47Z"/><path class="cls-24" d="M90,25.24a.26.26,0,0,1-.35.12.26.26,0,0,1-.12-.35.27.27,0,0,1,.35-.12A.25.25,0,0,1,90,25.24Z"/><path class="cls-25" d="M90,25.17a.2.2,0,0,1-.28.1.21.21,0,0,1-.09-.28.22.22,0,0,1,.28-.1A.21.21,0,0,1,90,25.17Z"/><path class="cls-7" d="M89.92,25.05a.12.12,0,0,1-.16.05.1.1,0,0,1-.05-.15.11.11,0,0,1,.15-.05A.11.11,0,0,1,89.92,25.05Z"/><path class="cls-7" d="M89.72,25.13a0,0,0,1,1,0-.05S89.73,25.12,89.72,25.13Z"/><path class="cls-24" d="M91.36,25.9A.26.26,0,0,1,91,26a.26.26,0,0,1,.23-.47A.27.27,0,0,1,91.36,25.9Z"/><path class="cls-25" d="M91.32,25.83a.22.22,0,0,1-.28.1.2.2,0,0,1-.09-.28.2.2,0,0,1,.27-.1A.21.21,0,0,1,91.32,25.83Z"/><path class="cls-7" d="M91.24,25.71a.11.11,0,0,1-.15.05.12.12,0,0,1-.06-.15.12.12,0,0,1,.16-.05A.1.1,0,0,1,91.24,25.71Z"/><path class="cls-7" d="M91,25.79a0,0,0,1,1-.07,0,0,0,0,0,1,.06,0A0,0,0,0,1,91,25.79Z"/><path class="cls-24" d="M92.68,26.56a.26.26,0,0,1-.35.12.25.25,0,0,1-.11-.35.26.26,0,0,1,.35-.12A.25.25,0,0,1,92.68,26.56Z"/><path class="cls-25" d="M92.64,26.49a.2.2,0,0,1-.27.1.21.21,0,0,1-.1-.28.21.21,0,0,1,.28-.1A.2.2,0,0,1,92.64,26.49Z"/><path class="cls-7" d="M92.57,26.37a.12.12,0,1,1,0-.15A.11.11,0,0,1,92.57,26.37Z"/><path class="cls-7" d="M92.37,26.45a0,0,0,1,1,0-.05A0,0,0,0,1,92.37,26.45Z"/><g class="cls-8"><path class="cls-26" d="M84.33,23.42c-.36-.3-.91-.3-1.75-.3-1.08,0-1.59-.34-1.81-.8s.13-.75.43-.66.33.46.2.51a.13.13,0,0,1-.2-.07.08.08,0,0,0,.09-.06.1.1,0,0,0-.14-.1.2.2,0,0,0,.06.33c.3.12.57-.38.09-.64s-.83.22-.65.64a1.71,1.71,0,0,0,1.44.91,7.68,7.68,0,0,1,2,.19.68.68,0,0,1,.1,1.18c-.35.2-.8-.06-.68-.4s.42-.19.44-.07a.2.2,0,0,1,0,.11l0,0a.1.1,0,0,0-.1.18.09.09,0,0,0,.1,0,.22.22,0,0,0,0-.4.32.32,0,0,0-.45.18c-.2.41.48.88.87.53A.8.8,0,0,0,84.33,23.42Z"/><path class="cls-26" d="M85.54,24c.45.1.78.54,1.29,1.22.66.85,1.23,1.06,1.73,1s.52-.56.26-.75-.56,0-.53.15a.14.14,0,0,0,.19.12.08.08,0,0,1,0-.11.09.09,0,0,1,.15.05.19.19,0,0,1-.29.15c-.28-.16,0-.68.45-.46a.48.48,0,0,1-.12.91,1.7,1.7,0,0,1-1.59-.6c-.39-.4-.79-1.14-1.32-1.44a.7.7,0,0,0-1,.63c.06.41.54.6.73.3s-.09-.45-.2-.39a.15.15,0,0,0-.07.09h.06a.11.11,0,0,1-.09.19.16.16,0,0,1-.06-.08.24.24,0,0,1,.31-.27.32.32,0,0,1,.12.48c-.2.4-1,.14-1-.38A.82.82,0,0,1,85.54,24Z"/><path class="cls-26" d="M85.13,23.28a.75.75,0,0,0-.35.73A.84.84,0,0,0,85.13,23.28Z"/><path class="cls-26" d="M84.54,23.08a.58.58,0,0,0,.16.61A.65.65,0,0,0,84.54,23.08Z"/><path class="cls-26" d="M85.62,23.62a.56.56,0,0,1-.57.24A.63.63,0,0,1,85.62,23.62Z"/></g><path class="cls-24" d="M84.35,23.37c-.35-.3-.9-.3-1.75-.3-1.08,0-1.58-.34-1.81-.8s.13-.75.44-.66.32.46.2.52a.14.14,0,0,1-.21-.08.08.08,0,0,0,.09-.06.09.09,0,0,0-.13-.1.2.2,0,0,0,0,.33c.3.12.58-.38.1-.64s-.83.22-.66.64a1.72,1.72,0,0,0,1.44.91,7.59,7.59,0,0,1,2,.19.69.69,0,0,1,.11,1.18c-.36.2-.81-.06-.68-.4s.42-.19.43-.07a.14.14,0,0,1,0,.11.08.08,0,0,0,0,0,.1.1,0,1,0-.09.18.07.07,0,0,0,.09,0,.23.23,0,0,0,0-.4.33.33,0,0,0-.46.18c-.19.41.48.88.88.54A.81.81,0,0,0,84.35,23.37Z"/><path class="cls-24" d="M85.57,24c.45.1.77.54,1.29,1.22.65.85,1.23,1.06,1.72,1s.53-.56.27-.75-.56,0-.53.15a.14.14,0,0,0,.19.12.09.09,0,0,1,0-.11.1.1,0,0,1,.16.05.19.19,0,0,1-.3.15c-.27-.16,0-.68.46-.46a.48.48,0,0,1-.12.91,1.7,1.7,0,0,1-1.59-.6c-.39-.4-.8-1.14-1.33-1.44a.69.69,0,0,0-1,.63c.06.41.54.6.73.31s-.1-.46-.2-.4a.18.18,0,0,0-.07.09h.06a.1.1,0,0,1,0,.14.11.11,0,0,1-.14.05.1.1,0,0,1,0-.08.22.22,0,0,1,.3-.26.32.32,0,0,1,.13.47c-.21.4-1,.14-.95-.38A.81.81,0,0,1,85.57,24Z"/><path class="cls-24" d="M85.15,23.23a.73.73,0,0,0-.34.73A.81.81,0,0,0,85.15,23.23Z"/><path class="cls-24" d="M84.56,23a.58.58,0,0,0,.16.61A.66.66,0,0,0,84.56,23Z"/><path class="cls-24" d="M85.65,23.57a.57.57,0,0,1-.58.24A.63.63,0,0,1,85.65,23.57Z"/><path class="cls-25" d="M83.68,23.15s.87.11.85.82C84.6,23.79,84.5,23.2,83.68,23.15Z"/><path class="cls-25" d="M86.13,24.37s-.61-.63-1.16-.18C85.07,24,85.6,23.75,86.13,24.37Z"/><path class="cls-25" d="M81.42,21.69a.37.37,0,0,1,.09.39A.27.27,0,0,0,81.42,21.69Z"/><path class="cls-25" d="M88.68,25.3a.38.38,0,0,0-.36.16A.26.26,0,0,1,88.68,25.3Z"/><g class="cls-8"><path class="cls-26" d="M76.8,18.16l-.08.17,12.53,6.23-.42.84s-3.54,2-8.39-2.93l.3.34a12.9,12.9,0,0,0,3,2.53l.1.06a12.37,12.37,0,0,0,4,.93A14.36,14.36,0,0,1,93,27.4l.94-.74Z"/></g><g class="cls-8"><path class="cls-26" d="M86.6,23,92,25.91l-.33.66s-1.69-.15-4.6-.47a9.55,9.55,0,0,1-3.59-.94c.14.08.24.15.31.18l.1.06a12.37,12.37,0,0,0,4,.93A14.36,14.36,0,0,1,93,27.4l.94-.74Z"/></g><path class="cls-25" d="M85.12,23.29a.78.78,0,0,0-.28.51A.57.57,0,0,1,85.12,23.29Z"/><path class="cls-25" d="M84.58,23.11a.49.49,0,0,0,.12.46A.39.39,0,0,1,84.58,23.11Z"/><path class="cls-25" d="M85.61,23.6a.52.52,0,0,0-.45.19A.41.41,0,0,1,85.61,23.6Z"/><path class="cls-20" d="M77.07,19.34a17,17,0,0,1,3.22,2.78A8.07,8.07,0,0,0,77.07,19.34Z"/><path class="cls-27" d="M-44.53,65.11C-41,61.61-3.43,38.65,1.71,35.84A76.18,76.18,0,0,1,37.6,26.6a74.81,74.81,0,0,1,35.67,9.54c5,2.77,41,25.62,44.48,29h2C116.05,61.28,79.57,38,74,34.88A76.24,76.24,0,0,0,37.6,25.16,77.57,77.57,0,0,0,1,34.58C-4.73,37.72-42.8,61.12-46.53,65.11Z"/><path class="cls-28" d="M1.14,35a78.4,78.4,0,0,1,36.4-9.51,77,77,0,0,1,36.32,9.81c-11.09-5.85-23.21-9.45-35.81-9.57A78.86,78.86,0,0,0,1.14,35Z"/><path class="cls-29" d="M-46.2,65.11C-42.51,61.2-4.51,37.88,1.14,34.79A77.31,77.31,0,0,1,37.6,25.4a76,76,0,0,1,36.26,9.69c5.49,3,41.9,26.27,45.59,30h.67c-3.77-3.91-40.33-27.27-46-30.44A76.51,76.51,0,0,0,37.6,24.92,77.77,77.77,0,0,0,.91,34.37C-4.94,37.56-43.1,61-46.86,65.11Z"/><path class="cls-30" d="M-44.2,65.11c3.45-3.42,41-26.3,46-29.06A75.92,75.92,0,0,1,37.6,26.84a74.62,74.62,0,0,1,35.56,9.51C78,39.06,114,61.84,117.4,65.11h.69c-3.51-3.43-39.61-26.35-44.7-29.18A75.08,75.08,0,0,0,37.6,26.36a76.38,76.38,0,0,0-36,9.27c-5.25,2.87-42.94,25.9-46.47,29.48Z"/><path class="cls-31" d="M11.8,31.55c0-.68,0-1.36,0-2-.9.32-1.79.66-2.68,1,0,.69,0,1.4,0,2.09C10,32.24,10.88,31.89,11.8,31.55Z"/><path class="cls-31" d="M22.68,28.43c.79-.17,1.58-.32,2.37-.46a1.29,1.29,0,0,1,.25-.34c.65-.67,1.31-1.32,2-2q-2.91.41-5.79,1l.59.23a1.31,1.31,0,0,1,.6,1.48Z"/><path class="cls-31" d="M50.72,28.16l1.12.23a17.46,17.46,0,0,1,2.3-1.46c-1.94-.46-3.89-.85-5.84-1.15a16.26,16.26,0,0,1,1.25,1.09C50,27.27,50.33,27.72,50.72,28.16Z"/><path class="cls-31" d="M80.07,38.39q-2-1.39-4.21-2.7a14.84,14.84,0,0,1,1,1.62c.33.64.68,1.26,1,1.88.76.51,1.5,1,2.22,1.55C80.06,40,80.07,39.18,80.07,38.39Z"/><path class="cls-31" d="M66.21,30.87c-.84-.35-1.68-.68-2.53-1,0,.67,0,1.35,0,2,.86.34,1.73.69,2.58,1.06Z"/><path class="cls-31" d="M39.24,24.94l-1.64,0-1.6,0c0,.64.06,1.28.08,1.92.51,0,1,0,1.52,0l1.75,0C39.31,26.22,39.27,25.58,39.24,24.94Z"/><polygon class="cls-32" points="-30.54 46.64 -41.91 38.11 -41.33 37.34 -30.64 45.37 -17.03 31.4 -3.63 36.79 10.08 18.63 23.81 26.34 37.56 13.44 51.3 26.33 65.05 18.26 78.76 37.02 92.39 31.28 105.75 45.24 115.96 37 116.57 37.74 105.67 46.54 92.15 32.42 78.43 38.2 64.78 19.53 51.17 27.53 37.56 14.75 23.96 27.52 10.34 19.88 -3.31 37.95 -16.79 32.53 -30.54 46.64"/><path class="cls-30" d="M-30.52,46.8l-11.56-8.66.72-1,10.71,8,13.59-13.95,13.39,5.38L10,18.47l.1.05L23.8,26.19,37.56,13.27,51.32,26.19,65.08,18.1,78.8,36.87l13.62-5.73,13.34,13.93L116,36.83l.76.93L105.66,46.7,92.12,32.56,78.39,38.34,64.75,19.68l-13.59,8-.07-.06L37.56,14.92,24,27.67l-.07,0L10.37,20-3.27,38.1l-13.49-5.42Zm-11.22-8.71,11.19,8.39,13.73-14.09,13.47,5.42L10.3,19.72l13.64,7.65L37.56,14.59,51.19,27.38l13.63-8L78.47,38.05l13.71-5.77,13.5,14.09,10.72-8.65-.45-.56L105.74,45.4l-13.38-14L78.72,37.17,65,18.42,51.29,26.48l-.07-.06L37.56,13.6,23.83,26.49l-.08,0L10.11,18.78-3.59,36.93-17,31.55l-13.62,14-10.69-8Z"/><g class="cls-33"><path class="cls-30" d="M12.3,19.74l-2.16-1.22-.1-.05L8.32,20.76c.67-.45,1-.61,1,.71L10.37,20l1.32.74C11.73,20.38,10.69,19.49,12.3,19.74Z"/></g><g class="cls-33"><path class="cls-30" d="M67,20.67,65.08,18.1l-2,1.21c.33.21.93-.34.63,1l1.09-.65,1.35,1.84C65.72,19.81,66.36,20.29,67,20.67Z"/></g><g class="cls-33"><path class="cls-30" d="M80.23,36.27l-1.43.6-1.42-1.93c.33,1.79-.49.67-.89.81l1.9,2.59,2.26-1C80.36,37.13,79.43,37.37,80.23,36.27Z"/></g><g class="cls-33"><path class="cls-30" d="M94.89,33.72l-2.47-2.58-2,.86c.28.29.94-.27.39,1.13l1.36-.57,1.74,1.81C93.11,32.69,94.48,33.73,94.89,33.72Z"/></g><g class="cls-33"><path class="cls-30" d="M52.93,25.24l-1.61,1-1.63-1.54c.79,1.44-.21.9-.56,1.13l2,1.83.07.06,2.45-1.44C53.26,26,51.88,26.57,52.93,25.24Z"/></g><g class="cls-33"><path class="cls-30" d="M39.56,15.15l-2-1.88-2.13,2c1.25-.7,1,.14.89.81l1.24-1.16,1.25,1.17C38.85,15.64,38.08,14.49,39.56,15.15Z"/></g><g class="cls-33"><path class="cls-30" d="M25.43,24.65,23.8,26.19l-1.58-.88c1,1.22-.34.78-.7,1l2.38,1.34.07,0,2.41-2.26C26,25.36,24.52,26.33,25.43,24.65Z"/></g><rect class="cls-34" x="36.88" y="13.29" width="1.44" height="51.82"/><path class="cls-35" d="M38.32,65.11V13.29H36.88V65.11Zm-1.13-51.5H38V65h-.82Z"/><path class="cls-36" d="M24.68,65.11V14.27c-.47.1-.95.19-1.44.26V65.11Z"/><path class="cls-35" d="M24.68,65.11V14.27l-.32.06V65h-.81V14.48l-.31,0V65.11Z"/><path class="cls-37" d="M11,65.11V18L10.9,18a13.76,13.76,0,0,1-1.31.58v46.5Z"/><path class="cls-35" d="M11,65.11V18L10.9,18l-.18.09V65H9.9V18.49l-.31.12v46.5Z"/><path class="cls-38" d="M92.9,65.11V31.35l-.38-.21c-.36-.19-.71-.4-1.06-.61V65.11Z"/><path class="cls-35" d="M92.9,65.11V31.35l-.31-.17V65h-.82V30.72l-.31-.19V65.11Z"/><path class="cls-39" d="M79.26,65.11V24.76c-.48-.2-1-.39-1.44-.6v41Z"/><path class="cls-35" d="M79.26,65.11V24.76L79,24.63V65h-.82V24.3l-.31-.14v41Z"/><path class="cls-40" d="M65.61,65.11V18.53a12,12,0,0,0-1.15-.4l-.29-.06v47Z"/><path class="cls-35" d="M65.61,65.11V18.53l-.31-.12V65h-.82V18.13h0l-.29-.06v47Z"/><path class="cls-41" d="M52,65.11V14.77l-.88-.14a5.07,5.07,0,0,1-.56-.13V65.11Z"/><path class="cls-35" d="M52,65.11V14.77l-.32,0V65h-.81V14.58l-.31-.08V65.11Z"/><path class="cls-42" d="M122.55,36.81c-11,.26-18.29.42-38.3-10.39C66.87,17,54,13,40.08,12.75v0H36.56c-14.42,0-27.63,4-45.61,13.69-20,10.81-27.28,10.65-38.3,10.39-1.84,0-3.73-.08-5.83-.08v1.44c2.08,0,4,0,5.8.08,1.62,0,3.17.08,4.68.08,9,0,16.93-1.24,34.33-10.65C9.39,18.09,22.4,14.17,36.56,14.17h2.08c14.16,0,27.18,3.92,44.93,13.51,17.4,9.41,25.35,10.65,34.33,10.65,1.51,0,3.06,0,4.69-.08,1.82,0,3.71-.08,5.79-.08V36.73C126.29,36.73,124.39,36.77,122.55,36.81Z"/><path class="cls-29" d="M122.55,36.84c-1.81,0-3.62.09-5.43.07s-3.63-.09-5.44-.3c-.9-.08-1.79-.24-2.69-.37-.45-.07-.89-.17-1.34-.26s-.89-.16-1.33-.28c-.88-.22-1.77-.42-2.63-.7l-1.31-.39c-.43-.13-.86-.28-1.29-.43l-1.28-.44-1.28-.49-1.26-.48c-.43-.17-.84-.36-1.26-.53-1.68-.69-3.32-1.47-5-2.23s-3.26-1.59-4.86-2.45L81.37,25l-2.43-1.23-1.22-.6-1.22-.59c-1.63-.79-3.29-1.52-4.94-2.25l-2.51-1.06-2.53-1c-.84-.32-1.7-.61-2.55-.92-.42-.16-.85-.3-1.28-.44l-1.29-.42c-1.73-.54-3.47-1-5.22-1.46s-3.53-.8-5.32-1.1c-.44-.09-.89-.15-1.33-.22l-1.35-.19c-.89-.13-1.79-.2-2.69-.31s-1.8-.13-2.7-.2L40.08,13h-.21v-.22l.21.21H37c-1,0-2,0-3.05,0s-2,.09-3,.17l-1.52.13-.76.07-.75.09c-1,.13-2,.24-3,.42l-1.51.25-1.49.29-1.5.31-1.48.36c-1,.22-2,.51-2.95.78-1.95.56-3.89,1.19-5.8,1.88S6.34,19.17,4.46,20c-.94.38-1.86.82-2.79,1.23S-.18,22-1.1,22.48l-1.38.65-1.37.69c-.9.46-1.82.9-2.72,1.39L-12,28.06l-.67.35-.69.34-1.37.68-1.37.68-1.39.64-1.38.65c-.47.21-.94.4-1.41.6l-1.4.61c-.47.2-.95.37-1.43.56l-1.42.55-1.45.51-.72.25-.36.12-.37.11-1.46.44c-.49.16-1,.27-1.48.4s-1,.26-1.49.36l-1.5.3c-.5.11-1,.16-1.51.25a49.83,49.83,0,0,1-6.1.5c-2,0-4.08,0-6.12,0l-6.11-.08.12-.12v1.44l-.12-.12,6,.07,3,0,1.49,0h1.48a47,47,0,0,0,11.74-1.6l.72-.19c.24-.06.48-.14.71-.21l1.42-.43,1.41-.49.7-.24.69-.26,1.39-.53,1.38-.57,1.37-.58,1.35-.61c3.62-1.63,7.13-3.47,10.63-5.35s7.07-3.66,10.7-5.29a104.9,104.9,0,0,1,11.13-4.31,77,77,0,0,1,11.62-2.77,74.13,74.13,0,0,1,11.91-.82,74.42,74.42,0,0,1,11.92.83,76,76,0,0,1,11.61,2.77,104.9,104.9,0,0,1,11.13,4.31q5.44,2.46,10.68,5.31c3.5,1.89,7,3.74,10.63,5.38l1.35.61,1.37.58c.46.19.91.39,1.37.57l1.39.53.7.27.7.24,1.41.49,1.42.43.71.22.72.19a47.09,47.09,0,0,0,11.76,1.61H118l1.48,0,3,0,6-.08,0,0V36.73l0,0Zm0-.05,5.83-.09h0v1.5h0l-5.95.1-3,.05-1.49,0h-1.49a47.53,47.53,0,0,1-11.81-1.53l-.72-.19-.72-.21L101.79,36l-1.41-.47-.71-.24L99,35l-1.39-.53c-.47-.17-.92-.37-1.39-.56s-.92-.37-1.37-.57l-1.37-.6c-3.63-1.62-7.17-3.44-10.68-5.3s-7.06-3.63-10.68-5.24A108.92,108.92,0,0,0,61,18a77.87,77.87,0,0,0-11.55-2.74,74.33,74.33,0,0,0-11.84-.81,74.42,74.42,0,0,0-11.84.82A77.45,77.45,0,0,0,14.22,18a105.77,105.77,0,0,0-11.1,4.26Q-2.31,24.67-7.55,27.5c-3.5,1.87-7,3.7-10.68,5.32l-1.36.61c-.46.2-.92.38-1.38.57l-1.38.57-1.4.52-.7.27-.7.23-1.42.49L-28,36.5l-.72.22-.72.18a47.64,47.64,0,0,1-11.82,1.56h-1.5l-1.48,0-3,0-6-.1h-.12V36.61h.12l6.12.1c2,0,4.07.09,6.1,0a45.72,45.72,0,0,0,6.08-.49c.5-.08,1-.13,1.51-.24l1.49-.29c.5-.1,1-.24,1.49-.36s1-.23,1.47-.39l1.46-.43.37-.11.36-.12.72-.25,1.45-.5,1.42-.55c.48-.18.95-.36,1.42-.56l1.4-.6,1.4-.61,1.39-.65,1.38-.65,1.37-.68,1.37-.68.68-.34.67-.36L-6.65,25c.89-.48,1.81-.93,2.72-1.4L-2.57,23l1.38-.66c.92-.45,1.83-.9,2.76-1.31s1.85-.86,2.8-1.24c1.87-.81,3.77-1.57,5.68-2.28s3.85-1.34,5.82-1.91c1-.28,2-.57,3-.8l1.49-.37c.5-.12,1-.21,1.5-.32l1.5-.31,1.51-.26c1-.18,2-.3,3-.43l.76-.1.77-.07,1.52-.14c1-.07,2-.12,3.06-.17s2-.05,3.06-.05h3.27v.22l-.2-.21,2.72.1c.91.07,1.81.12,2.72.2s1.81.18,2.71.3l1.35.2c.45.06.9.12,1.35.21q2.69.46,5.33,1.13c1.77.43,3.52.94,5.25,1.49l1.29.42c.43.15.87.28,1.29.44l2.56.94,2.53,1,2.51,1.07c1.65.74,3.31,1.49,4.93,2.3l1.23.59,1.21.62c.81.41,1.62.82,2.42,1.24l4.8,2.56c1.59.87,3.22,1.66,4.84,2.48s3.27,1.56,4.94,2.26c.41.18.83.37,1.25.54l1.26.49,1.27.5,1.28.45,1.28.44,1.3.39c.87.28,1.75.48,2.63.7.44.12.88.2,1.33.29l1.33.26c.9.13,1.79.3,2.69.37a51.71,51.71,0,0,0,5.43.32C118.93,36.87,120.74,36.82,122.55,36.79Z"/><path class="cls-28" d="M40.48,12.89A87.67,87.67,0,0,0,19.8,15.07a109.87,109.87,0,0,0-23.33,9C-10.88,27.85-18,31.88-25.87,34.55c-6.94,2.28-13.77,2.64-21,2.43h-.07c7.23.1,14.09-.34,21-2.67C-18.16,31.57-11,27.53-3.7,23.79a107.92,107.92,0,0,1,23.44-9A85,85,0,0,1,40.48,12.89Z"/><path class="cls-28" d="M122.55,37.13c-7.2.2-14.17-.06-21-2.42a102.31,102.31,0,0,1-15.33-6.8A168.42,168.42,0,0,0,64.85,18a80.21,80.21,0,0,0-15.3-4c-3.15-.48-6.35-.53-9.47-.89,0,0,0,0,0,0A82.54,82.54,0,0,1,70,19.67c4.13,1.75,8.19,3.66,12.16,5.76a148.63,148.63,0,0,0,15.26,7.49A67,67,0,0,0,105,35.54c5.79,1.51,11.57,1.67,17.51,1.59C120.74,37.18,120.74,37.16,122.55,37.13Z"/></g></g></g></g></svg>