<svg xmlns="http://www.w3.org/2000/svg" viewBox="0 0 45.79 63.19"><defs><style>.cls-1{fill:#f73d3d;}.cls-2{isolation:isolate;}.cls-3{fill:#022f45;}.cls-4{fill:#025074;}.cls-5{fill:#db3636;}.cls-6{fill:#ba2e2e;}.cls-7{fill:#fdbf2b;}.cls-8{fill:#fdb813;}.cls-9{fill:#fff;}.cls-10{fill:#f3b910;}.cls-11{fill:#c4c1ac;}.cls-12{fill:#fffbe0;}.cls-13{fill:#f0c39a;}.cls-14{fill:#edd6bc;}.cls-15{fill:#fa7564;}.cls-16{fill:#20b8f3;}.cls-17{fill:#ffca00;}.cls-18{fill:#efd0b4;}.cls-19,.cls-20{fill:#d6bb7b;}.cls-20,.cls-21{opacity:0.2;}.cls-21{fill:#fafbfd;}.cls-22{fill:#dcdcdc;}.cls-23{fill:#b32c31;}.cls-24{fill:#ff9800;}.cls-25{fill:#fca232;}.cls-26{fill:#d6a67f;}.cls-27{fill:#915533;}</style></defs><title>設施介紹-資產 11</title><g id="圖層_2" data-name="圖層 2"><g id="Layer_1" data-name="Layer 1"><polygon class="cls-1" points="42.6 34.26 42.62 48.42 41.05 49.15 41.02 34.98 42.6 34.26"/><g class="cls-2"><g class="cls-2"><path class="cls-3" d="M10.91,49.1l-.73-.42A15.08,15.08,0,0,0,12,45.57l.72.42a14.36,14.36,0,0,1-1.79,3.11Z"/></g><g class="cls-2"><path class="cls-3" d="M8,51.86l-.72-.42a11.32,11.32,0,0,0,2.46-2.17l.72.42A10.63,10.63,0,0,1,8,51.86Z"/></g><g class="cls-2"><path class="cls-3" d="M13,45.28l-.73-.42a11,11,0,0,0,.65-3.2l.72.42a10.58,10.58,0,0,1-.64,3.2Z"/></g><g class="cls-2"><path class="cls-3" d="M5,52.85l-.73-.42a5.29,5.29,0,0,0,2.47-.67l.72.42A5.13,5.13,0,0,1,5,52.85Z"/></g><g class="cls-2"><path class="cls-3" d="M13.62,41.44,12.9,41a5.14,5.14,0,0,0-.67-2.45L13,39a5.06,5.06,0,0,1,.66,2.45Z"/></g><polygon class="cls-3" points="10.43 49.69 9.71 49.27 7.35 45.95 8.07 46.38 10.43 49.69"/><polygon class="cls-3" points="8.91 44.93 8.18 44.51 12.25 44.86 12.98 45.28 8.91 44.93"/><polygon class="cls-3" points="7.42 52.18 6.7 51.76 6.68 46.38 7.41 46.8 7.42 52.18"/><polygon class="cls-3" points="8.94 44.15 8.21 43.72 12.9 41.02 13.62 41.44 8.94 44.15"/><polygon class="cls-3" points="4.48 52.81 3.75 52.38 6.09 46.37 6.81 46.79 4.48 52.81"/><polygon class="cls-3" points="8.63 43.64 7.9 43.22 11.96 38.18 12.68 38.6 8.63 43.64"/><g class="cls-2"><path class="cls-3" d="M3.46,52.45,2.74,52a2.88,2.88,0,0,0,1,.36l.72.42a3,3,0,0,1-1-.36Z"/></g><g class="cls-2"><path class="cls-3" d="M12.68,38.61,12,38.18a2.92,2.92,0,0,0-.78-.67l.72.42a3,3,0,0,1,.79.68Z"/></g><g class="cls-2"><path class="cls-3" d="M6.77,46.77,6,46.34l0,0,.73.42,0,0Z"/></g><g class="cls-2"><path class="cls-3" d="M8.54,43.59l-.72-.42,0,0,.72.43,0,0Z"/></g><g class="cls-2"><path class="cls-3" d="M6.45,46.35l-.72-.42a.49.49,0,0,1,0-.11l.73.42,0,.11Z"/></g><g class="cls-2"><path class="cls-3" d="M8,43.58l-.73-.42.12,0,.72.43-.11,0Z"/></g><g class="cls-2"><path class="cls-3" d="M6.42,45.6l-.73-.42,0-.15.73.42a.8.8,0,0,0,0,.15Z"/></g><g class="cls-2"><path class="cls-3" d="M7.28,44l-.72-.43.11-.1.73.42L7.28,44Z"/></g><g class="cls-2"><path class="cls-3" d="M6.72,44.74,6,44.32a.64.64,0,0,1,.08-.14l.73.42-.09.14Z"/></g><polygon class="cls-3" points="2.4 51.39 1.67 50.97 5.73 45.93 6.45 46.35 2.4 51.39"/><polygon class="cls-3" points="8.06 43.56 7.34 43.13 9.67 37.11 10.4 37.53 8.06 43.56"/><polygon class="cls-3" points="1.73 48.31 1.01 47.88 5.69 45.18 6.42 45.6 1.73 48.31"/><polygon class="cls-3" points="7.4 43.9 6.67 43.48 6.66 38.1 7.38 38.52 7.4 43.9"/><g class="cls-2"><path class="cls-3" d="M7.66,37.2l-.73-.42c1.93-1.12,3.68-1.22,5-.48l.72.42c-1.26-.74-3-.63-4.94.48Z"/></g><polygon class="cls-3" points="2.65 44.39 1.93 43.97 6 44.32 6.72 44.74 2.65 44.39"/><polygon class="cls-3" points="6.81 44.6 6.08 44.18 3.72 40.87 4.45 41.29 6.81 44.6"/><path class="cls-4" d="M7.66,37.2c3.84-2.21,7-.43,7,4a15.27,15.27,0,0,1-6.93,12c-3.84,2.22-7,.44-7-4A15.26,15.26,0,0,1,7.66,37.2ZM4.45,41.29a14.53,14.53,0,0,0-1.79,3.1l4.06.35.09-.14L4.45,41.29Zm6.46,7.81A14.36,14.36,0,0,0,12.7,46l-4.07-.35a.64.64,0,0,1-.08.14l2.36,3.32Zm1.77-10.49a2.84,2.84,0,0,0-1.81-1l-2.33,6,.09,0,4-5Zm-10,13.17a2.9,2.9,0,0,0,1.8,1l2.33-6-.08,0-4.05,5Zm4.74.4V46.8l-.12,0L5,52.85a5.13,5.13,0,0,0,2.46-.67ZM8,51.86a10.63,10.63,0,0,0,2.46-2.17L8.07,46.38l-.11.1v5.38Zm5.65-10.42A5.06,5.06,0,0,0,13,39L8.9,44a.36.36,0,0,1,0,.11l4.68-2.71ZM2.38,45.1a11,11,0,0,0-.65,3.21L6.42,45.6a.8.8,0,0,1,0-.15L2.38,45.1Zm5-1.2,0-5.38a11,11,0,0,0-2.45,2.17L7.28,44l.12-.11Zm.54-5.7v5.38l.11,0,2.34-6a5.22,5.22,0,0,0-2.46.67Zm5,7.08a10.58,10.58,0,0,0,.64-3.2l-4.68,2.7,0,.15,4.07.35ZM1.74,48.94a5,5,0,0,0,.66,2.45l4.05-5,0-.11-4.68,2.7Z"/><g class="cls-2"><path class="cls-3" d="M2.75,53.67,2,53.24C.78,52.52,0,51,0,48.78a15.28,15.28,0,0,1,6.93-12l.73.42a15.26,15.26,0,0,0-6.93,12c0,2.19.78,3.73,2,4.46Z"/></g></g><g class="cls-2"><polygon class="cls-5" points="15.4 58.46 2.27 50.83 2.24 37.44 15.37 45.07 15.4 58.46"/><polygon class="cls-6" points="15.37 45.07 2.24 37.44 31.49 20.99 44.62 28.62 15.37 45.07"/><polygon class="cls-7" points="2.97 37.45 31.49 21.4 43.89 28.61 15.38 44.65 2.97 37.45"/><polygon class="cls-1" points="44.62 28.62 44.65 42.01 15.4 58.46 15.37 45.07 44.62 28.62"/><polygon class="cls-8" points="15.37 45.07 15.37 45.08 15.4 58.46 18.63 56.65 18.63 43.24 15.37 45.07"/><polygon class="cls-9" points="15.37 45.07 15.37 45.08 15.37 45.07 15.37 45.07"/><polygon class="cls-8" points="21.88 41.41 21.88 54.81 25.13 52.99 25.13 39.58 21.88 41.41"/><polygon class="cls-8" points="28.38 37.75 28.38 51.16 31.64 49.33 31.64 35.92 28.38 37.75"/><polygon class="cls-8" points="44.62 28.62 41.4 30.43 41.4 43.84 44.65 42.01 44.62 28.62"/><polygon class="cls-10" points="34.89 34.09 34.89 47.5 38.14 45.67 38.14 32.26 34.89 34.09"/></g><polygon class="cls-11" points="36.04 27.46 29.22 31.4 31.28 22.82 38.1 18.88 36.04 27.46"/><polygon class="cls-12" points="39.93 28.31 33.11 32.25 31.28 22.82 38.1 18.88 39.93 28.31"/><path class="cls-13" d="M37.77,22.94a8.18,8.18,0,0,1-1.94,1.34,5.57,5.57,0,0,1-1.94.9h0L34.48,27l.23-.13,1,3,.1-.06,1.07-4.22.22-.12Z"/><path class="cls-14" d="M37.77,22.94c0-.13-.87.27-1.94.89a7.76,7.76,0,0,0-1.94,1.35,5.57,5.57,0,0,0,1.94-.9A8.18,8.18,0,0,0,37.77,22.94Z"/><path class="cls-15" d="M36.87,21.88c0-.74-.54-1-1.19-.64a2.59,2.59,0,0,0-1.15,2.05c0,.74.55,1,1.19.63A2.56,2.56,0,0,0,36.87,21.88Z"/><path class="cls-16" d="M37.76,22.48c0-.74-.52-1-1.17-.67a2.59,2.59,0,0,0-1.16,2c0,.74.52,1,1.16.67A2.55,2.55,0,0,0,37.76,22.48Z"/><path class="cls-17" d="M36,23.32c0-.7-.49-1-1.1-.63a2.42,2.42,0,0,0-1.1,1.9c0,.7.49,1,1.1.63A2.42,2.42,0,0,0,36,23.32Z"/><path class="cls-15" d="M35,22.88a.25.25,0,0,1-.11.19c-.06,0-.11,0-.11-.07a.25.25,0,0,1,.11-.19C34.92,22.78,35,22.81,35,22.88Z"/><path class="cls-15" d="M34.79,23.65a.24.24,0,0,1-.11.19c-.06,0-.11,0-.11-.06a.24.24,0,0,1,.11-.19C34.74,23.55,34.79,23.58,34.79,23.65Z"/><path class="cls-12" d="M37,21.92a.23.23,0,0,1-.11.19c-.06,0-.11,0-.11-.07a.25.25,0,0,1,.11-.19C36.94,21.82,37,21.85,37,21.92Z"/><path class="cls-18" d="M36.44,21.37a.14.14,0,0,1-.07.12s-.06,0-.06,0a.15.15,0,0,1,.06-.11S36.44,21.33,36.44,21.37Z"/><path class="cls-18" d="M35.77,22.23a.14.14,0,0,1-.07.11s-.06,0-.06,0a.13.13,0,0,1,.06-.11S35.77,22.18,35.77,22.23Z"/><path class="cls-18" d="M35,22.26a.14.14,0,0,1-.07.11s-.07,0-.07,0a.14.14,0,0,1,.07-.12S35,22.22,35,22.26Z"/><path class="cls-12" d="M37.72,22.67a.24.24,0,0,1-.11.19c-.06,0-.11,0-.11-.06a.25.25,0,0,1,.11-.19C37.67,22.58,37.72,22.6,37.72,22.67Z"/><path class="cls-12" d="M37,22.74a.23.23,0,0,1-.11.19c-.06,0-.11,0-.11-.07a.25.25,0,0,1,.11-.19C36.94,22.64,37,22.67,37,22.74Z"/><path class="cls-12" d="M36.12,22.85A.24.24,0,0,1,36,23c-.06,0-.11,0-.11-.06a.24.24,0,0,1,.11-.19C36.07,22.75,36.12,22.78,36.12,22.85Z"/><path class="cls-12" d="M36.48,23.52a.25.25,0,0,1-.11.19c-.06,0-.11,0-.11-.07a.25.25,0,0,1,.11-.19C36.43,23.42,36.48,23.45,36.48,23.52Z"/><path class="cls-15" d="M35.54,23.22a.24.24,0,0,1-.11.19c-.06,0-.11,0-.11-.06a.24.24,0,0,1,.11-.19C35.49,23.12,35.54,23.15,35.54,23.22Z"/><path class="cls-15" d="M34.13,24.27a.22.22,0,0,1-.1.17c-.05,0-.1,0-.1-.05a.23.23,0,0,1,.1-.17S34.13,24.21,34.13,24.27Z"/><path class="cls-15" d="M34.31,23.5a.11.11,0,0,1-.05.09s0,0,0,0a.09.09,0,0,1,0-.08S34.31,23.47,34.31,23.5Z"/><path class="cls-15" d="M35.48,24a.09.09,0,0,1,0,.08s0,0,0,0a.09.09,0,0,1,0-.08S35.48,24,35.48,24Z"/><path class="cls-15" d="M34.16,24.83a.13.13,0,0,1-.06.09s-.05,0-.05,0a.13.13,0,0,1,.05-.09S34.16,24.79,34.16,24.83Z"/><path class="cls-15" d="M34.88,24.3a.2.2,0,0,1-.09.16s-.09,0-.09-.05a.2.2,0,0,1,.09-.16C34.84,24.22,34.88,24.24,34.88,24.3Z"/><polygon class="cls-19" points="37.59 22.8 37.59 22.8 37.59 22.8 37.59 22.8"/><path class="cls-13" d="M37.77,22.94a8.18,8.18,0,0,1-1.94,1.34,5.57,5.57,0,0,1-1.94.9h0L34.48,27l.23-.13,2.2-1.28.22-.12Z"/><polygon class="cls-20" points="35.45 28.99 35.53 29.24 35.84 29.41 35.68 29.68 35.73 29.8 35.92 29.46 35.92 29.46 36.01 29.11 35.92 29.27 35.45 28.99"/><path class="cls-21" d="M36.58,24.3l.44-.76-.18.12-.34.59-.32-.18-.16.1.4.23-.5.86L35.43,25l.4-.69a1,1,0,0,0-.17.1l-.32.54L35,24.73l-.18.09.43.25-.5.85-.49-.28.43-.75-.15.07-.37.63L34,25.47l.08.24.05,0,0,0,0,.12.06-.11.5.28-.32.55,0,.12.35-.62.5.29-.44.76,0,.12.48-.84.5.29-.5.86-.47-.27.09.24.3.17-.15.26,0,.13.19-.34.5.29-.45.76,0,.12.48-.83.3.17,0-.17L36,28l.49-.86h0l.1-.41-.12.21L36,26.64l.49-.85.31.18,0-.17-.28-.16.5-.86.19.11,0-.17-.15-.08.31-.54.09-.35-.48.84ZM34.85,26l.49-.85.5.28-.5.86Zm1.57,1.1-.5.86-.49-.28.49-.86Zm-.5-.48-.49-.28.49-.86.5.29Zm.58-1L36,25.31l.49-.86.49.28Z"/><g class="cls-2"><g class="cls-2"><path class="cls-3" d="M27,58.15l-.72-.42a14.36,14.36,0,0,0,1.79-3.11l.73.42A14.82,14.82,0,0,1,27,58.15Z"/></g><g class="cls-2"><path class="cls-3" d="M24.06,60.92l-.73-.43a10.63,10.63,0,0,0,2.46-2.17l.73.42a11.37,11.37,0,0,1-2.46,2.18Z"/></g><g class="cls-2"><path class="cls-3" d="M29.06,54.33l-.72-.42a10.58,10.58,0,0,0,.64-3.2l.73.42a10.92,10.92,0,0,1-.65,3.2Z"/></g><g class="cls-2"><path class="cls-3" d="M21,61.9l-.72-.42a5.13,5.13,0,0,0,2.46-.67l.73.42A5.06,5.06,0,0,1,21,61.9Z"/></g><g class="cls-2"><path class="cls-3" d="M29.71,50.49,29,50.07a5.17,5.17,0,0,0-.66-2.45l.72.43a5.09,5.09,0,0,1,.67,2.44Z"/></g><polygon class="cls-3" points="26.52 58.74 25.79 58.32 23.43 55.01 24.16 55.43 26.52 58.74"/><polygon class="cls-3" points="24.99 53.98 24.27 53.56 28.34 53.91 29.06 54.33 24.99 53.98"/><polygon class="cls-3" points="23.51 61.23 22.78 60.81 22.77 55.43 23.49 55.85 23.51 61.23"/><polygon class="cls-3" points="25.02 53.2 24.3 52.78 28.98 50.07 29.71 50.49 25.02 53.2"/><polygon class="cls-3" points="20.57 61.86 19.84 61.44 22.17 55.42 22.9 55.84 20.57 61.86"/><polygon class="cls-3" points="24.71 52.7 23.99 52.27 28.04 47.24 28.77 47.66 24.71 52.7"/><g class="cls-2"><path class="cls-3" d="M19.55,61.5l-.73-.42a3,3,0,0,0,1,.36l.73.42a2.88,2.88,0,0,1-1-.36Z"/></g><g class="cls-2"><path class="cls-3" d="M28.76,47.66,28,47.24a2.79,2.79,0,0,0-.79-.67L28,47a2.75,2.75,0,0,1,.78.67Z"/></g><g class="cls-2"><path class="cls-3" d="M22.85,55.82l-.72-.42,0,0,.72.42,0,0Z"/></g><g class="cls-2"><path class="cls-3" d="M24.63,52.65l-.73-.43,0,0,.73.42,0,0Z"/></g><g class="cls-2"><path class="cls-3" d="M22.54,55.4,21.81,55a.45.45,0,0,1,0-.11l.72.42a.49.49,0,0,0,0,.11Z"/></g><g class="cls-2"><path class="cls-3" d="M24,52.63l-.72-.42.11,0,.73.42-.12,0Z"/></g><g class="cls-2"><path class="cls-3" d="M22.5,54.66l-.73-.43s0-.1,0-.15l.72.42,0,.16Z"/></g><g class="cls-2"><path class="cls-3" d="M23.37,53.06l-.73-.42.12-.11.72.42a1.14,1.14,0,0,0-.11.11Z"/></g><g class="cls-2"><path class="cls-3" d="M22.81,53.8l-.73-.43a.64.64,0,0,0,.08-.14l.73.42a1.09,1.09,0,0,0-.08.15Z"/></g><polygon class="cls-3" points="18.48 60.44 17.76 60.02 21.81 54.98 22.54 55.4 18.48 60.44"/><polygon class="cls-3" points="24.15 52.61 23.42 52.19 25.75 46.16 26.48 46.59 24.15 52.61"/><polygon class="cls-3" points="17.82 57.36 17.09 56.94 21.77 54.23 22.5 54.66 17.82 57.36"/><polygon class="cls-3" points="23.48 52.95 22.76 52.53 22.74 47.15 23.47 47.57 23.48 52.95"/><g class="cls-2"><path class="cls-3" d="M23.74,46.25,23,45.83C25,44.72,26.7,44.61,28,45.35l.73.42c-1.27-.73-3-.63-5,.48Z"/></g><polygon class="cls-3" points="18.74 53.45 18.01 53.02 22.08 53.37 22.81 53.8 18.74 53.45"/><polygon class="cls-3" points="22.89 53.65 22.16 53.23 19.81 49.92 20.53 50.34 22.89 53.65"/><path class="cls-4" d="M23.74,46.25c3.84-2.21,7-.43,7,4a15.25,15.25,0,0,1-6.94,12c-3.83,2.22-7,.44-7-4A15.3,15.3,0,0,1,23.74,46.25Zm-3.21,4.09a14.36,14.36,0,0,0-1.79,3.11l4.07.35a1.09,1.09,0,0,1,.08-.15l-2.36-3.31ZM27,58.15A14.82,14.82,0,0,0,28.79,55l-4.07-.35-.09.15L27,58.15Zm1.77-10.49a2.86,2.86,0,0,0-1.8-1l-2.33,6,.08.05,4.05-5Zm-10,13.17a2.92,2.92,0,0,0,1.81,1l2.33-6-.09-.05-4,5Zm4.75.4,0-5.38-.11,0L21,61.9a5.06,5.06,0,0,0,2.47-.67Zm.55-.31a11.37,11.37,0,0,0,2.46-2.18l-2.36-3.31-.12.11,0,5.38Zm5.65-10.43A5.09,5.09,0,0,0,29,48.05l-4.05,5a.35.35,0,0,1,0,.11l4.69-2.71ZM18.46,54.15a11,11,0,0,0-.64,3.21l4.68-2.7,0-.16-4.07-.35Zm5-1.2V47.57A10.87,10.87,0,0,0,21,49.74l2.36,3.32a1.14,1.14,0,0,1,.11-.11Zm.54-5.7v5.38l.12,0,2.33-6a5.11,5.11,0,0,0-2.46.66Zm5,7.08a10.92,10.92,0,0,0,.65-3.2L25,53.83c0,.05,0,.1,0,.15l4.07.35ZM17.82,58a5.1,5.1,0,0,0,.66,2.45l4.06-5a.49.49,0,0,1,0-.11L17.82,58Z"/><g class="cls-2"><path class="cls-3" d="M18.84,62.72l-.73-.42c-1.25-.73-2-2.27-2-4.46a15.28,15.28,0,0,1,6.93-12l.73.42a15.3,15.3,0,0,0-6.93,12c0,2.19.78,3.73,2,4.46Z"/></g></g><g class="cls-2"><g class="cls-2"><path class="cls-3" d="M43.77,49.75l-.4-.23a7.68,7.68,0,0,0,1-1.69l.39.23a7.65,7.65,0,0,1-1,1.69Z"/></g><g class="cls-2"><path class="cls-3" d="M42.17,51.26l-.4-.23a5.71,5.71,0,0,0,1.34-1.18l.4.23a6.14,6.14,0,0,1-1.34,1.18Z"/></g><g class="cls-2"><path class="cls-3" d="M44.89,47.68l-.39-.23a5.85,5.85,0,0,0,.35-1.75l.4.23a5.87,5.87,0,0,1-.36,1.75Z"/></g><g class="cls-2"><path class="cls-3" d="M40.53,51.8l-.4-.23a2.7,2.7,0,0,0,1.34-.37l.4.23a2.72,2.72,0,0,1-1.34.37Z"/></g><g class="cls-2"><path class="cls-3" d="M45.25,45.58l-.4-.22A2.75,2.75,0,0,0,44.49,44l.39.23a2.86,2.86,0,0,1,.37,1.33Z"/></g><polygon class="cls-3" points="43.51 50.08 43.11 49.85 41.83 48.04 42.22 48.27 43.51 50.08"/><polygon class="cls-3" points="42.68 47.48 42.28 47.26 44.5 47.45 44.89 47.68 42.68 47.48"/><polygon class="cls-3" points="41.87 51.43 41.47 51.2 41.47 48.27 41.86 48.5 41.87 51.43"/><polygon class="cls-3" points="42.7 47.06 42.3 46.83 44.85 45.35 45.24 45.59 42.7 47.06"/><polygon class="cls-3" points="40.27 51.77 39.87 51.55 41.14 48.27 41.54 48.5 40.27 51.77"/><polygon class="cls-3" points="42.52 46.78 42.13 46.55 44.34 43.81 44.73 44.04 42.52 46.78"/><g class="cls-2"><path class="cls-3" d="M39.71,51.58l-.39-.23a1.64,1.64,0,0,0,.55.2l.4.22a1.55,1.55,0,0,1-.56-.19Z"/></g><g class="cls-2"><path class="cls-3" d="M44.73,44l-.39-.23a1.88,1.88,0,0,0-.43-.37l.39.23a1.69,1.69,0,0,1,.43.37Z"/></g><g class="cls-2"><path class="cls-3" d="M41.51,48.48l-.39-.23h0l.39.23Z"/></g><g class="cls-2"><path class="cls-3" d="M42.48,46.76l-.4-.23h0l.39.23Z"/></g><g class="cls-2"><path class="cls-3" d="M41.34,48.26,41,48a.14.14,0,0,1,0-.06l.39.23s0,0,0,.06Z"/></g><g class="cls-2"><path class="cls-3" d="M42.16,46.75l-.4-.23h.06l.4.23Z"/></g><g class="cls-2"><path class="cls-3" d="M41.32,47.85l-.4-.23a.24.24,0,0,0,0-.08l.4.23a.24.24,0,0,0,0,.08Z"/></g><g class="cls-2"><path class="cls-3" d="M41.79,47l-.39-.23.06-.06.4.23-.07.06Z"/></g><g class="cls-2"><path class="cls-3" d="M41.49,47.38l-.4-.23a.56.56,0,0,0,0-.08l.39.23a.59.59,0,0,1,0,.08Z"/></g><polygon class="cls-3" points="39.13 51 38.74 50.77 40.95 48.03 41.34 48.26 39.13 51"/><polygon class="cls-3" points="42.22 46.74 41.82 46.51 43.09 43.23 43.49 43.46 42.22 46.74"/><polygon class="cls-3" points="38.77 49.32 38.38 49.09 40.92 47.62 41.32 47.85 38.77 49.32"/><polygon class="cls-3" points="41.85 46.92 41.46 46.69 41.45 43.76 41.85 43.99 41.85 46.92"/><g class="cls-2"><path class="cls-3" d="M42,43.28l-.4-.23a2.66,2.66,0,0,1,2.69-.27l.4.23a2.66,2.66,0,0,0-2.69.27Z"/></g><polygon class="cls-3" points="39.27 47.19 38.88 46.96 41.09 47.15 41.49 47.38 39.27 47.19"/><polygon class="cls-3" points="41.53 47.3 41.14 47.07 39.85 45.27 40.25 45.5 41.53 47.3"/><path class="cls-4" d="M42,43.28c2.09-1.21,3.79-.24,3.79,2.16A8.32,8.32,0,0,1,42,52c-2.09,1.21-3.79.24-3.8-2.17A8.27,8.27,0,0,1,42,43.28ZM40.25,45.5a7.92,7.92,0,0,0-1,1.69l2.22.19a.59.59,0,0,0,0-.08l-1.28-1.8Zm3.52,4.25a7.65,7.65,0,0,0,1-1.69l-2.21-.19-.05.08,1.29,1.8Zm1-5.71a1.54,1.54,0,0,0-1-.56l-1.27,3.28.05,0L44.73,44Zm-5.45,7.17a1.56,1.56,0,0,0,1,.56l1.27-3.27,0,0-2.21,2.74Zm2.59.22V48.5l-.06,0L40.53,51.8a2.72,2.72,0,0,0,1.34-.37Zm.3-.17a6.14,6.14,0,0,0,1.34-1.18l-1.29-1.81-.06.06v2.93Zm3.08-5.68a2.86,2.86,0,0,0-.37-1.33L42.68,47a.14.14,0,0,0,0,.06l2.55-1.48Zm-6.13,2a5.79,5.79,0,0,0-.35,1.74l2.55-1.47a.24.24,0,0,1,0-.08l-2.22-.19Zm2.74-.66V44a6,6,0,0,0-1.34,1.19L41.79,47l.07-.06Zm.29-3.1v2.93h.06l1.27-3.28a2.78,2.78,0,0,0-1.34.36Zm2.74,3.86a5.87,5.87,0,0,0,.36-1.75L42.7,47.4a.31.31,0,0,0,0,.08l2.21.2Zm-6.12,2A2.71,2.71,0,0,0,39.13,51l2.21-2.74s0,0,0-.06l-2.55,1.47Z"/><g class="cls-2"><path class="cls-3" d="M39.33,52.24l-.4-.23a2.63,2.63,0,0,1-1.1-2.43,8.29,8.29,0,0,1,3.77-6.53l.4.23a8.27,8.27,0,0,0-3.78,6.53,2.63,2.63,0,0,0,1.11,2.43Z"/></g></g><path class="cls-12" d="M42.9,36c0-3.11-2.18-4.37-4.87-2.82a10.78,10.78,0,0,0-4.87,8.44c0,3.11,2.18,4.37,4.87,2.81A10.76,10.76,0,0,0,42.9,36Z"/><g id="ice_cream" data-name="ice cream"><path class="cls-1" d="M35.94,40.56c.85.29,3.87.79,4.32.88s.59-.23.42-.65-2.07-4.55-2.07-4.55Z"/><path class="cls-9" d="M37.61,39.63l.21-.15s-.08,0-.13,0l-.29.21a.25.25,0,0,0-.11.22l0,.31c0,.07.07.09.14,0l.09-.06a.05.05,0,0,1,0,0l0-.31A.28.28,0,0,1,37.61,39.63Z"/><path class="cls-9" d="M38.44,39l.2-.15s-.07,0-.12,0l-.29.21a.25.25,0,0,0-.11.22l0,.31c0,.07.07.09.14,0l.08-.06s0,0,0,0l0-.31A.26.26,0,0,1,38.44,39Z"/><path class="cls-9" d="M38.39,40.48l.09-.07a0,0,0,0,1,0,0l0-.32a.26.26,0,0,1,.11-.22l.2-.15s-.07,0-.13,0l-.29.21a.28.28,0,0,0-.1.22l0,.31C38.26,40.51,38.32,40.53,38.39,40.48Z"/><path class="cls-9" d="M37.78,40.29l-.28.21a.27.27,0,0,0-.11.18l.22,0v-.07a.26.26,0,0,1,.11-.22l.2-.15S37.84,40.25,37.78,40.29Z"/><path class="cls-9" d="M39.63,40.71l-.29.21a.44.44,0,0,0-.08.11l.19,0a.24.24,0,0,1,.11-.2l.2-.15S39.69,40.67,39.63,40.71Z"/><path class="cls-9" d="M40.17,40.32a.27.27,0,0,0-.11.23l0,.31c0,.07.07.09.14,0l.09-.06,0,0,0-.31a.14.14,0,0,1,0-.09l0-.12Z"/><path class="cls-9" d="M39,38.25l.08-.06s0,0,0,0l0-.31a.18.18,0,0,1,0-.1l0-.11-.07,0a.27.27,0,0,0-.11.23l0,.31C38.9,38.28,39,38.3,39,38.25Z"/><path class="cls-9" d="M40,39.73l0,.32c0,.07.07.09.14,0h0c0-.12-.12-.25-.18-.39Z"/><path class="cls-9" d="M36.79,40.23l.2-.15s-.07,0-.13,0l-.29.21a.25.25,0,0,0-.1.17l.22.06v-.07A.26.26,0,0,1,36.79,40.23Z"/><path class="cls-9" d="M37.37,39.45l.09-.06s0,0,0,0l0-.31a.26.26,0,0,1,.11-.22l.2-.15s-.07,0-.13,0l-.17.13-.22.36,0,.26C37.24,39.48,37.3,39.5,37.37,39.45Z"/><path class="cls-9" d="M38.63,40.65l.2-.14s-.07,0-.12,0l-.29.21a.29.29,0,0,0-.1.15l.21,0v0A.26.26,0,0,1,38.63,40.65Z"/><path class="cls-9" d="M39,38.71,39,39c0,.07.08.09.14,0l.09-.06s0,0,0,0l0-.31a.26.26,0,0,1,.11-.22l.09-.07,0-.07-.28.2A.27.27,0,0,0,39,38.71Z"/><path class="cls-9" d="M38.45,37.26a0,0,0,0,0-.06,0l-.09.14Z"/><path class="cls-9" d="M39.46,40.05l.2-.14s-.07,0-.12,0l-.29.21a.26.26,0,0,0-.11.22l0,.32c0,.07.07.09.13,0l.09-.06s0,0,0,0l0-.31A.27.27,0,0,1,39.46,40.05Z"/><path class="cls-9" d="M38,38c0,.07.07.09.13,0l.09-.06s0,0,0,0l0-.31h0l-.18.29Z"/><path class="cls-9" d="M38.42,38.06l-.29.21a.3.3,0,0,0-.11.23l0,.31c0,.07.07.09.14,0l.09-.06s0,0,0,0l0-.31a.28.28,0,0,1,.1-.22l.21-.15A.09.09,0,0,0,38.42,38.06Z"/><path class="cls-9" d="M38.76,37.08l0,.32c0,.07.07.09.14,0h0c-.07-.16-.13-.3-.18-.4S38.75,37.07,38.76,37.08Z"/><path class="cls-9" d="M39.22,39.88l.09-.07,0,0,0-.32a.28.28,0,0,1,.1-.22l.21-.14c0-.05-.08-.05-.13,0l-.29.21a.29.29,0,0,0-.11.22l0,.31C39.09,39.91,39.15,39.93,39.22,39.88Z"/><path class="cls-1" d="M38.61,35.28c-.36-.29-.94-.13-1.45.36-.48-.25-1.24.15-1.77,1a2.31,2.31,0,0,0-.38,2c-.57.93-.63,2-.13,2.39a.86.86,0,0,0,.87.09c0,.14,0,.17.26,0a2.07,2.07,0,0,0,.58-1c.08-.25,0-.41.36-.55a.84.84,0,0,0,.57-.87c-.1-.31.34-.59.47-.69s.41-.11.43-.58.07-.38.26-.5.52-.31.5-.56-.16-.12-.27-.11A1.11,1.11,0,0,0,38.61,35.28Z"/><path class="cls-9" d="M35.86,40.84a.31.31,0,0,0,0-.08l0,0,0,0a.73.73,0,0,1-.75-.08c-.43-.35-.38-1.27.11-2.08l0-.08,0-.05a2,2,0,0,1,.34-1.73,2.19,2.19,0,0,1,.72-.73.83.83,0,0,1,.79-.09l0,0,.05,0a2.93,2.93,0,0,1,.36-.28.78.78,0,0,1,.89,0,.94.94,0,0,1,.25.82v.08h.11c.1,0,.15,0,.15.06a.11.11,0,0,1,0,.06,1.19,1.19,0,0,1-.34.27l0,0-.06,0,0,0c-.19.11-.2.32-.21.55s-.07.26-.13.3l-.07,0-.07,0,0,0,0,0a1.33,1.33,0,0,0-.46.5.51.51,0,0,0,0,.31.32.32,0,0,1,0,.25.77.77,0,0,1-.3.32l-.1,0-.13.06a.56.56,0,0,0-.27.44l0,.13a1.92,1.92,0,0,1-.46.82l-.1.06Z"/><path class="cls-1" d="M38.66,36c0-.12-.08-.18-.16-.13a.41.41,0,0,0-.12.32c0,.12.08.18.16.13A.38.38,0,0,0,38.66,36Z"/><path class="cls-1" d="M38.2,36.7a.15.15,0,0,0-.23,0A.22.22,0,0,0,38,37a.16.16,0,0,0,.24-.05A.22.22,0,0,0,38.2,36.7Z"/><path class="cls-1" d="M37.44,37.78c-.1.11-.15.25-.12.31s.14,0,.24-.09.16-.26.13-.32S37.54,37.66,37.44,37.78Z"/><path class="cls-1" d="M36.56,39.1c-.13.17-.2.34-.16.4s.18,0,.31-.21.19-.34.15-.39S36.69,38.94,36.56,39.1Z"/><path class="cls-1" d="M36,37.26c-.15.09-.27.22-.27.29s.13,0,.28,0,.27-.22.27-.29S36.16,37.16,36,37.26Z"/><path class="cls-1" d="M36.45,36.54c0,.12-.05.21,0,.22s.1-.1.14-.22,0-.22,0-.22S36.49,36.42,36.45,36.54Z"/><path class="cls-1" d="M36.1,40.21c-.06.11-.06.21,0,.22s.13,0,.19-.16.06-.21,0-.23S36.15,40.1,36.1,40.21Z"/></g><g class="cls-2"><polygon class="cls-22" points="22.69 34.79 21.72 34.38 21.62 9.26 22.59 9.67 22.69 34.79"/><polygon class="cls-23" points="22.59 9.67 21.62 9.26 22.65 8.83 23.62 9.24 22.59 9.67"/><polygon class="cls-12" points="23.62 9.24 23.72 34.36 22.69 34.79 22.59 9.67 23.62 9.24"/></g><path class="cls-1" d="M3.42,17.81l18.7-16.3L13.25,22.67a26.55,26.55,0,0,1-6.5-2.45,15.88,15.88,0,0,1-3.33-2.41Z"/><path class="cls-1" d="M13.25,22.67,22.12,1.51l-2.39,22.1a36.93,36.93,0,0,1-6.48-.94Z"/><path class="cls-10" d="M19.73,23.61l2.39-22.1,2.4,22.1a38.28,38.28,0,0,1-4.79,0Z"/><path class="cls-10" d="M24.52,23.61l-2.4-22.1,12,20.22a34.66,34.66,0,0,1-9.57,1.88Z"/><path class="cls-1" d="M34.09,21.73l-12-20.22L39.76,18.72a17.63,17.63,0,0,1-2.83,1.78,24.3,24.3,0,0,1-2.84,1.23Z"/><path class="cls-1" d="M39.76,18.72,22.12,1.51l21.19,9.24c.7,2.75-.49,5.6-3.55,8Z"/><path class="cls-10" d="M43.31,10.75,22.12,1.51,37.56,4.45c3.25,1.79,5.16,4,5.75,6.3Z"/><path class="cls-10" d="M3.42,17.81l18.7-16.3L5.59,5.2C.07,8.82-.69,13.83,3.42,17.81Z"/><path class="cls-9" d="M22.12,1.51l2.44-.46C23.63,1,22.68,1,21.74,1Z"/><path class="cls-1" d="M22.12,1.51,37.56,4.45c-.3-.17-.61-.33-.92-.49h0A32.46,32.46,0,0,0,24.56,1.05Z"/><path class="cls-1" d="M21,1A32.51,32.51,0,0,0,7.38,4.17a18.74,18.74,0,0,0-1.79,1L22.12,1.51Z"/><path class="cls-9" d="M22.12,1.51,21.74,1,21,1l1.15.5Z"/><g class="cls-2"><path class="cls-24" d="M25.41,2a1.62,1.62,0,0,1-.9,1l0,0a4,4,0,0,1-.73.3,5.74,5.74,0,0,1-2.08.2A4.83,4.83,0,0,1,19.79,3a1.51,1.51,0,0,1-1-1.25v.46a1.51,1.51,0,0,0,1,1.25,4.74,4.74,0,0,0,1.87.5,6,6,0,0,0,2.08-.2,4.3,4.3,0,0,0,.73-.3l0,0a1.66,1.66,0,0,0,.89-1,.75.75,0,0,0,0-.2V1.77A1.36,1.36,0,0,1,25.41,2Z"/><path class="cls-25" d="M24.45.52c1.3.68,1.3,1.8,0,2.48a5.55,5.55,0,0,1-4.68,0c-1.3-.68-1.31-1.8,0-2.48A5.55,5.55,0,0,1,24.45.52Z"/></g><polygon class="cls-11" points="18.02 37.64 11.2 41.58 13.27 33 20.09 29.07 18.02 37.64"/><polygon class="cls-12" points="21.92 38.49 15.1 42.43 13.27 33 20.09 29.07 21.92 38.49"/><path class="cls-26" d="M17.21,39.21c.12.45,0,.58-.19.72s-.3.27-.42-.18l-.48-1.82c-.12-.45,0-.59.18-.74s.31-.25.43.2Z"/><path class="cls-17" d="M17.63,36.81l-.71-2.71c-.17-.64-.83-.71-1.48-.14a2.52,2.52,0,0,0-.86,2.2l.72,2.71Z"/><polygon class="cls-27" points="15.19 38.44 15.3 38.87 17.64 36.81 17.52 36.38 15.19 38.44"/><path class="cls-27" d="M14.89,36.92c.31.12.34-.4.47-.58s.28-.26.39-.15.1.32.23.31a.39.39,0,0,0,.31-.54l0-.13a.3.3,0,0,1,0-.13c0-.1,0-.26.16-.28a.62.62,0,0,1,.19,0c.22,0,.15-.5.15-.6a.68.68,0,0,1,.21-.44l-.07-.27c-.17-.64-.83-.71-1.48-.14a2.52,2.52,0,0,0-.86,2.2l.19.69Z"/><path class="cls-15" d="M15.14,34.6a.16.16,0,0,1-.05.14h0s-.08,0-.09,0h0a.14.14,0,0,1,.05-.13h0s.08,0,.09,0Z"/><path class="cls-15" d="M16,34.08a.14.14,0,0,1,0,.13h0s-.08,0-.09,0h0a.14.14,0,0,1,0-.13h0s.08,0,.09,0Z"/><path class="cls-18" d="M15.55,34.78a.18.18,0,0,1-.06.14h0s-.08,0-.09,0h0a.18.18,0,0,1,.06-.14h0s.08,0,.09,0Z"/><path class="cls-18" d="M16.34,34.44a.16.16,0,0,1-.05.14h0s-.08,0-.09,0h0a.14.14,0,0,1,.05-.13h0s.08,0,.09,0Z"/><path class="cls-18" d="M16.1,36.11a.17.17,0,0,1-.05.13h0s-.08,0-.1,0h0A.15.15,0,0,1,16,36.1h0s.08,0,.09,0Z"/><path class="cls-18" d="M15.06,36.48s0,.1-.05.13h0s-.08,0-.09,0h0a.17.17,0,0,1,.05-.13h0s.08,0,.09,0Z"/><path class="cls-15" d="M16.64,33.9a.16.16,0,0,1-.05.14h0s-.08,0-.09,0h0a.14.14,0,0,1,.05-.13h0s.08,0,.09,0Z"/><path class="cls-15" d="M15,35.75a.16.16,0,0,1-.05.14h0s-.08,0-.09,0h0a.16.16,0,0,1,0-.14h0s.08,0,.09,0Z"/><path class="cls-15" d="M15.76,35.27a.16.16,0,0,1,0,.14h0s-.08,0-.09,0h0a.16.16,0,0,1,.05-.14h0s.08,0,.09,0Z"/><path class="cls-15" d="M16.56,35a.14.14,0,0,1,0,.13h0s-.08,0-.09,0h0a.14.14,0,0,1,0-.13h0s.08,0,.09,0Z"/><path class="cls-13" d="M17.57,39.41c-.15.57-.28.59-.44.61s-.28,0-.12-.53l.63-2.3c.15-.56.29-.61.44-.63s.27,0,.12.55Z"/><path class="cls-8" d="M17.81,34.73c.17,0,.25-.31.42-.33s.09.26.26.24.25-.32.42-.34.09.26.26.24.25-.31.42-.34.09.26.25.24L20.25,33a1.88,1.88,0,0,0,.06-.31.28.28,0,0,1-.13.09c-.16,0-.09-.27-.25-.25s-.24.32-.4.34-.08-.27-.24-.24-.24.31-.4.33-.08-.26-.24-.24-.24.31-.4.33-.09-.26-.25-.24h0a3.6,3.6,0,0,0-.22.54l-.33,1.24a.21.21,0,0,1,.1-.06C17.72,34.47,17.65,34.76,17.81,34.73Z"/><path class="cls-15" d="M18.25,33c.16,0,.24-.31.4-.33s.08.26.24.24.24-.31.4-.33.08.26.24.24.24-.31.4-.34.09.27.25.25a.28.28,0,0,0,.13-.09,1.55,1.55,0,0,0,0-.43.35.35,0,0,1-.4,0,.62.62,0,0,1-.14-.52v-.07h-.22l-.22,0A2.08,2.08,0,0,0,18,32.77h0C18.16,32.75,18.08,33,18.25,33Z"/><path class="cls-8" d="M19,35.94c-.18,0-.26.32-.44.34s-.1-.26-.29-.23-.26.31-.44.34-.1-.26-.28-.24-.26.32-.44.34-.12,0-.14-.1c-.05.64.26,1.06.77,1l.22,0a2.08,2.08,0,0,0,1.33-1.16h0C19.11,36.2,19.19,35.92,19,35.94Z"/><path class="cls-15" d="M19.84,34.44c-.16,0-.09-.26-.25-.24s-.25.31-.42.34-.09-.27-.26-.24-.25.31-.42.34-.09-.27-.26-.24-.25.31-.42.33-.09-.26-.26-.24a.21.21,0,0,0-.1.06L17.05,36a2.11,2.11,0,0,0-.07.4c0,.06.05.11.14.1s.26-.31.44-.34.1.26.28.24.26-.32.44-.34.11.26.29.23.26-.31.44-.34.1.26.28.24h0a3.6,3.6,0,0,0,.22-.54Z"/><polygon class="cls-10" points="7.28 40.39 4.72 38.9 4.72 52.31 7.28 53.79 7.28 40.39"/><polygon class="cls-10" points="12.6 43.43 10.05 41.94 10.05 55.34 12.6 56.83 12.6 43.43"/></g></g></svg>