<svg xmlns="http://www.w3.org/2000/svg" viewBox="0 0 60.53 93.68"><defs><style>.cls-1{isolation:isolate;}.cls-2{fill:#571983;}.cls-3{fill:#8a4ead;}.cls-33,.cls-4{opacity:0.5;}.cls-26,.cls-27,.cls-29,.cls-31,.cls-32,.cls-4{mix-blend-mode:multiply;}.cls-5{fill:#d68c5b;}.cls-6{fill:#54d2dc;}.cls-7{fill:#ff93d0;}.cls-8{fill:#dd54a9;}.cls-9{fill:#8025c1;}.cls-10{fill:#cb73ff;}.cls-11{fill:#b52d88;}.cls-12{fill:#515149;}.cls-13,.cls-29,.cls-37{fill:#ffa402;}.cls-14,.cls-32,.cls-33{fill:#ffc502;}.cls-15,.cls-30{fill:#ffec02;}.cls-16,.cls-26{fill:#3c979e;}.cls-17{fill:#b86a96;}.cls-18{fill:none;}.cls-19{fill:#bf6202;}.cls-20{fill:#939393;}.cls-21{fill:#ffe902;}.cls-22{fill:#d37b04;}.cls-23{fill:#ffff02;}.cls-23,.cls-30,.cls-33,.cls-37,.cls-38{mix-blend-mode:screen;}.cls-24{fill:#9253b8;}.cls-25{fill:#b8aa01;}.cls-28{fill:#ffcc02;}.cls-31{fill:#ffc302;}.cls-34{fill:#fff;}.cls-35,.cls-38{fill:#ff8502;}.cls-36{fill:#d36c05;}.cls-39{fill:red;}.cls-40{fill:#bf2c02;}.cls-41{fill:#934703;}</style></defs><title>設施介紹-資產 1</title><g class="cls-1"><g id="圖層_2" data-name="圖層 2"><g id="Layer_1" data-name="Layer 1"><path class="cls-2" d="M14.83,43.89a.19.19,0,0,0,.21-.11l6.27-16.09a.15.15,0,0,0-.12-.2.19.19,0,0,0-.24.1L14.69,43.68a.15.15,0,0,0,.11.2Z"/><path class="cls-3" d="M21.53,26a.86.86,0,1,0,1,.84A.93.93,0,0,0,21.53,26Zm0,1.32a.48.48,0,1,1,.56-.48A.52.52,0,0,1,21.53,27.33Z"/><g class="cls-4"><path class="cls-5" d="M18.66,45.41l-.47-.1v.27s.33-.06.36.16,0,.39.06,1c0,.2,0,.44.07.73v0l.28,0V47C19,45.83,19,45.49,18.66,45.41Z"/></g><path class="cls-6" d="M17.18,45.85l.29.06a3.85,3.85,0,0,0,.11-.81c0-.61-.14-1-.48-1a17.65,17.65,0,0,0-2.47-.16v.26a18.1,18.1,0,0,1,2.4.15C17.35,44.4,17.31,45.28,17.18,45.85Z"/><path class="cls-7" d="M14.25,45.42a.18.18,0,0,0,.18.18h0a.19.19,0,0,0,.21-.15l.23-2.24A.18.18,0,0,0,14.7,43h0a.2.2,0,0,0-.22.15Z"/><path class="cls-8" d="M14.51,45.41c-.14,0-.25.05-.26.14h0c0,.09.08.18.22.19L17.7,46c.13,0,.25-.05.26-.14h0c0-.09-.09-.17-.22-.19Z"/><path class="cls-3" d="M16.18,44a.19.19,0,0,0,.17-.12l5.19-16.35a.16.16,0,0,0-.14-.19.2.2,0,0,0-.23.11L16,43.84a.16.16,0,0,0,.13.2Z"/><path class="cls-9" d="M53.05,44.25a.2.2,0,0,1-.23-.09L43.31,27.5a.15.15,0,0,1,.09-.21.21.21,0,0,1,.26.07L53.16,44a.14.14,0,0,1-.09.21Z"/><path class="cls-10" d="M57.13,42a.23.23,0,0,1-.21,0L43.45,27.36a.14.14,0,0,1,0-.22.21.21,0,0,1,.27,0L57.22,41.73a.15.15,0,0,1,0,.23Z"/><path class="cls-10" d="M43,26a.86.86,0,1,0,1,.84A.93.93,0,0,0,43,26Zm0,1.32a.48.48,0,1,1,.56-.48A.52.52,0,0,1,43,27.33Z"/><path class="cls-7" d="M53.72,45.06a.16.16,0,0,1-.13-.06l-.67-1a.1.1,0,0,1,0-.09.11.11,0,0,1,.07-.08l4.45-2a.16.16,0,0,1,.2,0,.12.12,0,0,1-.06.16l.53,1.13-4.25,1.76a.11.11,0,0,1-.06.16Z"/><polygon class="cls-8" points="58.21 42.9 53.65 44.76 53.29 45.86 58.64 43.8 58.21 42.9"/><polygon class="cls-11" points="58.64 43.8 53.29 45.86 53.48 46.19 58.81 44.16 58.64 43.8"/><path d="M53.78,44.69a.2.2,0,0,1-.13,0,.12.12,0,0,1,0-.18A6.47,6.47,0,0,1,57.9,42.8c.09,0,.16.05.16.12s-.06.11-.14.13a13.44,13.44,0,0,0-4.05,1.6A.18.18,0,0,1,53.78,44.69Z"/><path class="cls-12" d="M53.9,44.48a8,8,0,0,1,3.86-1.54A5.58,5.58,0,0,0,53.9,44.48Z"/><path class="cls-6" d="M53.29,46a.16.16,0,0,1-.13-.06s-.47-.76-.66-1.11.6-1.24.77-1.4a.17.17,0,0,1,.2,0,.11.11,0,0,1,0,.17c-.43.42-.83,1-.74,1.15.19.34.66,1.09.67,1.1a.12.12,0,0,1-.07.16Z"/><path class="cls-6" d="M58.64,43.92a.14.14,0,0,1-.13-.06l-1.07-1.94a.12.12,0,0,1,.07-.16.15.15,0,0,1,.19.06l1.07,1.93a.12.12,0,0,1-.07.16Z"/><path class="cls-2" d="M41.47,46a.18.18,0,0,1-.18-.14L38,27.57a.17.17,0,0,1,.16-.18.2.2,0,0,1,.22.13l3.26,18.29a.16.16,0,0,1-.16.18Z"/><path class="cls-3" d="M45.49,45.12a.19.19,0,0,1-.18-.11l-6.9-17.53a.16.16,0,0,1,.12-.2.2.2,0,0,1,.24.1l6.9,17.53a.16.16,0,0,1-.12.2Z"/><path class="cls-7" d="M42,46.45l-.29-.73a15.62,15.62,0,0,1,3.79-.85,3,3,0,0,1,.65.81Z"/><polygon class="cls-11" points="45.69 46.75 41.4 47.49 41.47 47.71 45.83 46.93 46.34 45.98 46.23 45.81 45.69 46.75"/><polygon class="cls-8" points="46.23 45.81 46.14 45.68 41.99 46.45 41.4 47.49 45.69 46.75 46.23 45.81"/><path class="cls-6" d="M41.42,47.6a.14.14,0,0,1-.12-.06c-.12-.17-.72-1-.39-1.36a2.74,2.74,0,0,1,1.32-.73.14.14,0,0,1,.18.07.11.11,0,0,1-.08.15,2.45,2.45,0,0,0-1.2.66c-.15.16.16.74.41,1.09a.11.11,0,0,1,0,.16Z"/><path class="cls-12" d="M42,46.61A8,8,0,0,1,46,45.87,5.54,5.54,0,0,0,42,46.61Z"/><path class="cls-6" d="M45.65,46.81a.16.16,0,0,1-.12-.06c-.83-1.23-.8-1.39-.3-1.77l.06,0a.38.38,0,0,1,.31-.07c.39.07.72.8.78.94a.12.12,0,0,1-.08.16.16.16,0,0,1-.19-.07c-.15-.36-.42-.77-.58-.8s0,0,0,0l-.07,0c-.36.28-.42.32.36,1.48a.12.12,0,0,1-.06.17Z"/><path class="cls-3" d="M38.21,26a.86.86,0,1,0,1,.84A.93.93,0,0,0,38.21,26Zm0,1.32a.48.48,0,1,1,0-.95.48.48,0,1,1,0,.95Z"/><path class="cls-6" d="M1.58,46.07l-.07,0a.1.1,0,0,1-.05-.16s.54-.75.82-1.1.27-.34.43-.33a.34.34,0,0,1,.25.21l.29.47a.1.1,0,0,1-.06.16.14.14,0,0,1-.18,0s-.18-.28-.3-.48l0,0a1.56,1.56,0,0,0-.17.2c-.27.34-.8,1.08-.81,1.08A.13.13,0,0,1,1.58,46.07Z"/><path class="cls-7" d="M5.62,48.75a.19.19,0,0,1-.15-.06.15.15,0,0,1,0-.23h0a3.11,3.11,0,0,0,.56-.68c.4-.6.33-.64,0-.81l0,0c-.41-.25-.91-.56-1.89-1.1l-.36-.2a2.52,2.52,0,0,0-.54-.27s-.12.09-.21.18c-.35.39-.87,1.1-.88,1.11a.2.2,0,0,1-.26,0,.14.14,0,0,1-.06-.22s.54-.73.9-1.13.62-.35,1.26,0l.36.21c1,.54,1.5.85,1.91,1.1l0,0c.56.34.45.63.06,1.22a3.1,3.1,0,0,1-.64.78A.28.28,0,0,1,5.62,48.75Z"/><path class="cls-8" d="M5.72,48.73a.16.16,0,0,1-.1,0l-4-2.08a.19.19,0,0,1-.08-.1L1.4,46c0-.09,0-.17.14-.19a.2.2,0,0,1,.23.11l.12.45,3.93,2a.14.14,0,0,1,.06.22A.2.2,0,0,1,5.72,48.73Z"/><path class="cls-9" d="M6.51,47a.15.15,0,0,1-.06-.2L17.68,27.57a.21.21,0,0,1,.26-.08.15.15,0,0,1,.08.22L6.79,47a.21.21,0,0,1-.25.07Z"/><path class="cls-10" d="M3.23,45.17a.14.14,0,0,1,0-.19L17.37,27.36a.2.2,0,0,1,.26-.05.15.15,0,0,1,.05.23L3.53,45.16a.21.21,0,0,1-.26,0Z"/><path class="cls-10" d="M18.1,26a.86.86,0,1,0,1,.84A.93.93,0,0,0,18.1,26Zm0,1.32a.48.48,0,1,1,0-.95.48.48,0,1,1,0,.95Z"/><rect class="cls-13" x="24.75" y="26.41" width="11.08" height="57.54"/><rect class="cls-14" x="26.66" y="26.54" width="7.25" height="57.41"/><rect class="cls-15" x="28.33" y="26.54" width="3.92" height="57.31"/><polygon class="cls-7" points="29.95 34.88 29.96 34.88 29.95 34.88 29.95 34.88"/><polygon class="cls-7" points="29.95 31.23 29.95 31.23 29.96 31.23 29.95 31.23"/><polygon class="cls-7" points="26.02 33.08 27.3 34.85 28.62 33.04 27.35 31.27 26.02 33.08"/><polygon class="cls-6" points="32.62 31.27 32.59 31.23 29.96 31.23 31.29 33.08 32.62 31.27"/><polygon class="cls-6" points="28.62 33.04 29.95 31.23 27.38 31.23 27.35 31.27 28.62 33.04"/><polygon class="cls-7" points="27.38 31.23 27.32 31.23 27.35 31.27 27.38 31.23"/><polygon class="cls-7" points="35.22 31.23 35.19 31.23 35.2 31.25 35.22 31.23"/><polygon class="cls-16" points="35.83 32.12 35.83 31.23 35.22 31.23 35.2 31.25 35.83 32.12"/><polygon class="cls-7" points="32.65 31.23 32.59 31.23 32.62 31.27 32.65 31.23"/><polygon class="cls-7" points="31.29 33.08 32.56 34.85 33.89 33.04 32.62 31.27 31.29 33.08"/><polygon class="cls-17" points="24.7 31.23 24.7 34.88 26.02 33.08 24.7 31.23"/><polygon class="cls-7" points="35.17 34.88 35.21 34.88 35.19 34.86 35.17 34.88"/><polygon class="cls-16" points="35.21 34.88 35.83 34.88 35.83 34 35.19 34.86 35.21 34.88"/><polygon class="cls-17" points="35.2 31.25 33.89 33.04 35.19 34.86 35.83 34 35.83 32.12 35.2 31.25"/><polygon class="cls-7" points="32.54 34.88 32.59 34.88 32.56 34.85 32.54 34.88"/><polygon class="cls-7" points="27.27 34.88 27.32 34.88 27.3 34.85 27.27 34.88"/><polygon class="cls-7" points="29.96 31.23 29.95 31.23 28.62 33.04 29.95 34.88 29.96 34.88 31.29 33.08 29.96 31.23"/><polygon class="cls-6" points="31.29 33.08 29.96 34.88 32.54 34.88 32.56 34.85 31.29 33.08"/><polygon class="cls-6" points="27.3 34.85 27.32 34.88 29.95 34.88 28.62 33.04 27.3 34.85"/><polygon class="cls-6" points="30.29 68.56 30.87 69.57 32.19 69.72 31.23 70.5 31.46 71.61 30.29 71.08 29.11 71.61 29.34 70.5 28.39 69.72 29.7 69.57 30.29 68.56"/><polygon class="cls-6" points="27.29 69.72 25.98 69.57 25.39 68.56 24.8 69.57 24.77 69.57 24.77 71.36 25.39 71.08 26.56 71.61 26.34 70.5 27.29 69.72"/><polygon class="cls-6" points="33.3 69.72 34.62 69.57 35.2 68.56 35.79 69.57 35.83 69.57 35.83 71.36 35.2 71.08 34.03 71.61 34.25 70.5 33.3 69.72"/><polygon class="cls-17" points="26.66 32.21 26.02 33.08 26.66 33.97 26.66 32.21"/><polygon class="cls-6" points="27.35 31.27 27.32 31.23 26.66 31.23 26.66 32.21 27.35 31.27"/><polygon class="cls-16" points="26.66 31.23 24.7 31.23 26.02 33.08 26.66 32.21 26.66 31.23"/><polygon class="cls-16" points="26.02 33.08 24.7 34.88 26.66 34.88 26.66 33.97 26.02 33.08"/><polygon class="cls-6" points="26.66 34.88 27.27 34.88 27.3 34.85 26.66 33.97 26.66 34.88"/><polygon class="cls-18" points="33.91 33.01 33.89 33.04 33.91 33.07 33.91 33.01"/><polygon class="cls-16" points="35.2 31.25 35.19 31.23 33.91 31.23 33.91 33.01 35.2 31.25"/><polygon class="cls-6" points="33.91 31.23 32.65 31.23 32.62 31.27 33.89 33.04 33.91 33.01 33.91 31.23"/><polygon class="cls-6" points="33.89 33.04 32.56 34.85 32.59 34.88 33.91 34.88 33.91 33.07 33.89 33.04"/><polygon class="cls-16" points="33.91 34.88 35.17 34.88 35.19 34.86 33.91 33.07 33.91 34.88"/><rect class="cls-19" x="22.81" y="83.6" width="14.9" height="3.49"/><rect class="cls-13" x="22.81" y="84.69" width="14.9" height="0.66"/><rect class="cls-13" x="22.81" y="86.44" width="14.9" height="0.66"/><g class="cls-4"><rect class="cls-20" x="22.81" y="83.6" width="2.52" height="3.49"/><rect class="cls-20" x="35.26" y="83.6" width="2.45" height="3.49"/></g><path class="cls-21" d="M22.05,88.06a.52.52,0,0,1-.56.48.48.48,0,1,1,0-1A.52.52,0,0,1,22.05,88.06Z"/><path class="cls-22" d="M21.62,87.6a.46.46,0,0,1,.15.32.53.53,0,0,1-.57.48l-.13,0a.59.59,0,0,0,.42.16.52.52,0,0,0,.56-.48A.5.5,0,0,0,21.62,87.6Z"/><path class="cls-23" d="M21.32,87.88c-.09.09-.21.13-.26.08s0-.14.06-.23.22-.12.27-.08S21.42,87.8,21.32,87.88Z"/><path class="cls-23" d="M21.06,88.07s0,.07-.06.06,0,0,0-.07S21,88,21,88,21.06,88,21.06,88.07Z"/><path class="cls-21" d="M38.45,88.06a.57.57,0,1,0,.57-.47A.52.52,0,0,0,38.45,88.06Z"/><path class="cls-22" d="M38.88,87.6a.45.45,0,0,0-.14.32.53.53,0,0,0,.56.48l.14,0a.63.63,0,0,1-.42.16.52.52,0,0,1-.57-.48A.51.51,0,0,1,38.88,87.6Z"/><path class="cls-23" d="M39.18,87.88c.09.09.21.13.27.08s0-.14-.07-.23-.21-.12-.26-.08S39.09,87.8,39.18,87.88Z"/><path class="cls-23" d="M39.45,88.07s0,.07,0,.06,0,0,0-.07,0-.07-.06-.07A.07.07,0,0,0,39.45,88.07Z"/><polygon class="cls-6" points="27.29 87.1 22.81 87.1 20.4 89.76 29.64 89.76 30.88 89.76 40.13 89.76 37.72 87.1 33.24 87.1 27.29 87.1"/><path class="cls-7" d="M27.8,92.22c-2,0-2.47,1.33-2.47,1.33h4.89S29.84,92.22,27.8,92.22Z"/><polygon class="cls-6" points="30.22 93.59 30.23 93.63 30.31 93.55 30.23 93.55 30.22 93.59"/><polygon class="cls-6" points="35.2 93.55 35.2 93.58 35.24 93.55 35.2 93.55"/><polygon class="cls-6" points="35.2 93.58 35.23 93.68 35.26 93.55 35.24 93.55 35.2 93.58"/><polygon class="cls-6" points="30.21 93.55 30.22 93.59 30.23 93.55 30.21 93.55"/><polygon class="cls-6" points="30.21 93.65 30.23 93.63 30.22 93.59 30.21 93.65"/><polygon class="cls-6" points="25.31 93.64 25.33 93.55 25.3 93.58 25.31 93.64"/><polygon class="cls-6" points="25.3 93.58 25.33 93.55 25.29 93.55 25.3 93.58"/><path class="cls-10" d="M30.24,90.9a4.06,4.06,0,0,1,2.54-.85,3.57,3.57,0,0,1,2.48,1V89.76h-5V90.9Z"/><path class="cls-10" d="M27.82,90.05a3.35,3.35,0,0,1,2.41.85V89.76h-4.9v1.1A3.85,3.85,0,0,1,27.82,90.05Z"/><path class="cls-7" d="M32.78,90.05a4.06,4.06,0,0,0-2.54.85h0v1.19h0a4,4,0,0,1,2.54-.86,3.55,3.55,0,0,1,2.48,1V91A3.57,3.57,0,0,0,32.78,90.05Z"/><path class="cls-24" d="M37.81,90.05c2,0,2.32,1,2.32,1V89.76H35.26V91S35.84,90.05,37.81,90.05Z"/><path class="cls-24" d="M22.76,90.05a4.2,4.2,0,0,1,2.55.82h0v-1.1H20.4v1.16A3.26,3.26,0,0,1,22.76,90.05Z"/><path class="cls-17" d="M37.81,90.05c-2,0-2.55,1-2.55,1v1.19s.58-1,2.55-1,2.32,1,2.32,1V91S39.78,90.05,37.81,90.05Z"/><path class="cls-7" d="M27.82,90.05a3.85,3.85,0,0,0-2.49.81V92a3.91,3.91,0,0,1,2.49-.81,3.33,3.33,0,0,1,2.41.86V90.9A3.35,3.35,0,0,0,27.82,90.05Z"/><path class="cls-10" d="M30.23,92.09a3.33,3.33,0,0,0-2.41-.86,3.91,3.91,0,0,0-2.49.81v1.51s.43-1.33,2.47-1.33,2.42,1.33,2.42,1.33h0Z"/><path class="cls-17" d="M37.71,92.22a2.4,2.4,0,0,0-2.45,1.29v0h4.86S39.75,92.22,37.71,92.22Z"/><path class="cls-10" d="M35.26,93.51V92.22a3.55,3.55,0,0,0-2.48-1,4,4,0,0,0-2.54.86h0v1.46h.08a2.38,2.38,0,0,1,2.47-1.33c2,0,2.42,1.33,2.42,1.33h0Z"/><path class="cls-6" d="M35.24,93.55h0v0Z"/><path class="cls-24" d="M40.13,92.22s-.35-1-2.32-1-2.55,1-2.55,1v1.29a2.4,2.4,0,0,1,2.45-1.29c2,0,2.41,1.33,2.41,1.33h0Z"/><path class="cls-7" d="M32.78,92.22a2.38,2.38,0,0,0-2.47,1.33H35.2S34.82,92.22,32.78,92.22Z"/><path class="cls-17" d="M22.88,92.22c-2,0-2.47,1.33-2.47,1.33h4.88S24.91,92.22,22.88,92.22Z"/><path class="cls-25" d="M22.86,92.75a1.42,1.42,0,0,0-1.48.8h2.93S24.09,92.75,22.86,92.75Z"/><path class="cls-15" d="M27.86,92.75a1.42,1.42,0,0,0-1.48.8h2.94S29.09,92.75,27.86,92.75Z"/><path class="cls-15" d="M32.79,92.75a1.42,1.42,0,0,0-1.48.8h2.93S34,92.75,32.79,92.75Z"/><path class="cls-25" d="M37.83,92.75c-1.23,0-1.49.8-1.49.8h2.94S39.05,92.75,37.83,92.75Z"/><path class="cls-24" d="M25.31,92.06a4.17,4.17,0,0,0-2.55-.83,3.24,3.24,0,0,0-2.36.88v1.44h0s.43-1.33,2.47-1.33,2.41,1.33,2.41,1.33h0V92Z"/><path class="cls-17" d="M22.76,91.23a4.17,4.17,0,0,1,2.55.83l0,0V90.86h0a4.2,4.2,0,0,0-2.55-.82,3.26,3.26,0,0,0-2.36.87v1.19A3.24,3.24,0,0,1,22.76,91.23Z"/><polygon class="cls-16" points="37.72 87.1 35.26 87.1 35.26 89.76 40.13 89.76 37.72 87.1"/><polygon class="cls-16" points="22.81 87.1 20.4 89.76 25.33 89.76 25.33 87.1 22.81 87.1"/><path class="cls-26" d="M23.08,88.1a.48.48,0,1,0,.56.48A.52.52,0,0,0,23.08,88.1Z"/><path class="cls-26" d="M25.46,88.1a.48.48,0,1,0,.57.48A.52.52,0,0,0,25.46,88.1Z"/><path class="cls-26" d="M27.85,88.1a.48.48,0,1,0,0,1,.48.48,0,1,0,0-1Z"/><path class="cls-26" d="M30.24,88.1a.48.48,0,1,0,.56.48A.52.52,0,0,0,30.24,88.1Z"/><path class="cls-26" d="M32.62,88.1a.48.48,0,1,0,.56.48A.52.52,0,0,0,32.62,88.1Z"/><path class="cls-26" d="M35,88.1a.48.48,0,1,0,.56.48A.52.52,0,0,0,35,88.1Z"/><path class="cls-26" d="M37.39,88.1a.48.48,0,1,0,.57.48A.52.52,0,0,0,37.39,88.1Z"/><path class="cls-22" d="M23.64,88.28a.57.57,0,1,1-.56-.47A.52.52,0,0,1,23.64,88.28Z"/><path class="cls-21" d="M23.49,88.2a.45.45,0,1,1-.45-.38A.42.42,0,0,1,23.49,88.2Z"/><path class="cls-23" d="M23.23,88.06a.25.25,0,0,1-.5,0,.25.25,0,0,1,.5,0Z"/><path class="cls-23" d="M22.93,88.36a.08.08,0,0,1-.09.07.07.07,0,1,1,0-.14A.08.08,0,0,1,22.93,88.36Z"/><path class="cls-22" d="M26,88.28a.57.57,0,1,1-.57-.47A.52.52,0,0,1,26,88.28Z"/><path class="cls-21" d="M25.88,88.2a.46.46,0,1,1-.45-.38A.42.42,0,0,1,25.88,88.2Z"/><path class="cls-23" d="M25.62,88.06a.25.25,0,0,1-.5,0,.25.25,0,0,1,.5,0Z"/><path class="cls-23" d="M25.31,88.36a.08.08,0,0,1-.08.07.07.07,0,1,1,0-.14A.08.08,0,0,1,25.31,88.36Z"/><path class="cls-22" d="M28.41,88.28a.52.52,0,0,1-.56.48.48.48,0,1,1,0-1A.52.52,0,0,1,28.41,88.28Z"/><path class="cls-21" d="M28.26,88.2a.45.45,0,1,1-.44-.38A.42.42,0,0,1,28.26,88.2Z"/><path class="cls-23" d="M28,88.06a.23.23,0,0,1-.25.21.23.23,0,0,1-.25-.21.24.24,0,0,1,.25-.21A.24.24,0,0,1,28,88.06Z"/><path class="cls-23" d="M27.7,88.36a.08.08,0,0,1-.09.07.07.07,0,1,1,0-.14A.08.08,0,0,1,27.7,88.36Z"/><path class="cls-22" d="M30.8,88.28a.57.57,0,1,1-.56-.47A.52.52,0,0,1,30.8,88.28Z"/><path class="cls-21" d="M30.65,88.2a.45.45,0,1,1-.45-.38A.42.42,0,0,1,30.65,88.2Z"/><path class="cls-23" d="M30.39,88.06a.25.25,0,0,1-.5,0,.25.25,0,0,1,.5,0Z"/><path class="cls-23" d="M30.08,88.36a.07.07,0,0,1-.08.07.07.07,0,1,1,0-.14A.07.07,0,0,1,30.08,88.36Z"/><path class="cls-22" d="M33.18,88.28a.57.57,0,1,1-.56-.47A.52.52,0,0,1,33.18,88.28Z"/><path class="cls-21" d="M33,88.2a.46.46,0,1,1-.45-.38A.42.42,0,0,1,33,88.2Z"/><path class="cls-23" d="M32.78,88.06a.25.25,0,0,1-.5,0,.25.25,0,0,1,.5,0Z"/><path class="cls-23" d="M32.47,88.36a.08.08,0,0,1-.08.07.07.07,0,1,1,0-.14A.08.08,0,0,1,32.47,88.36Z"/><path class="cls-22" d="M35.57,88.28a.57.57,0,1,1-.56-.47A.52.52,0,0,1,35.57,88.28Z"/><path class="cls-21" d="M35.42,88.2a.45.45,0,1,1-.45-.38A.42.42,0,0,1,35.42,88.2Z"/><path class="cls-23" d="M35.16,88.06a.25.25,0,0,1-.5,0,.25.25,0,0,1,.5,0Z"/><path class="cls-23" d="M34.86,88.36a.08.08,0,0,1-.09.07.07.07,0,1,1,0-.14A.08.08,0,0,1,34.86,88.36Z"/><path class="cls-22" d="M38,88.28a.57.57,0,1,1-.57-.47A.52.52,0,0,1,38,88.28Z"/><path class="cls-21" d="M37.81,88.2a.42.42,0,0,1-.45.38.38.38,0,1,1,0-.76A.42.42,0,0,1,37.81,88.2Z"/><path class="cls-23" d="M37.55,88.06a.25.25,0,0,1-.5,0,.25.25,0,0,1,.5,0Z"/><path class="cls-23" d="M37.24,88.36a.08.08,0,0,1-.08.07.07.07,0,1,1,0-.14A.08.08,0,0,1,37.24,88.36Z"/><path class="cls-9" d="M29.48,51.47h0c-.11,0-.19-.13-.19-.28l.53-23.58c0-.15.09-.27.2-.26s.18.13.18.28l-.53,23.58C29.67,51.35,29.58,51.47,29.48,51.47Z"/><path class="cls-10" d="M30.32,26a.86.86,0,1,0,1,.84A.93.93,0,0,0,30.32,26Zm0,1.32a.48.48,0,1,1,.56-.48A.52.52,0,0,1,30.32,27.33Z"/><path class="cls-10" d="M31,51.85a.18.18,0,0,1-.19-.15l-.38-24.27a.18.18,0,0,1,.19-.16h0a.17.17,0,0,1,.19.16l.38,24.26a.17.17,0,0,1-.19.16Z"/><path class="cls-6" d="M27.36,53,27,53a6,6,0,0,1,.33-1c.32-.69.7-1,1.13-1a20,20,0,0,1,2.91.81l-.15.29a20.21,20.21,0,0,0-2.81-.79C28,51.29,27.53,52.31,27.36,53Z"/><path class="cls-7" d="M30.94,53.69a.25.25,0,0,1-.3.14h0a.2.2,0,0,1-.16-.26l1-2.64a.25.25,0,0,1,.3-.14h0a.2.2,0,0,1,.16.26Z"/><path class="cls-8" d="M30.65,53.58c.16,0,.26.16.22.27h0a.31.31,0,0,1-.36.12l-3.84-1c-.16,0-.26-.16-.22-.27h0a.29.29,0,0,1,.36-.12Z"/><path class="cls-15" d="M29.27,1.38S29.92,0,30.22,0s.93,1.35.93,1.35,2.37.32,2.37.61-1.7.91-1.7.91.61,1.7.41,1.88S30.3,3.22,30.3,3.22s-1.52,1.63-1.89,1.56.28-1.8.28-1.8S27,2.24,27,2A9.94,9.94,0,0,1,29.27,1.38Z"/><path class="cls-14" d="M30.22,0c0,.18,0,.36,0,.54s0,.37,0,.55,0,.36,0,.54v.55h0l-.45.66-.46.65-.46.64-.24.32-.24.32.21-.33.22-.33.44-.66.45-.65.45-.65V1.63c0-.18,0-.36,0-.54s0-.37,0-.55Z"/><path class="cls-14" d="M27,2h.8l.81,0,1.6.06h0l.5.65.5.64.48.65.49.66-.53-.64-.51-.63-.5-.64-.51-.64h0l-1.61-.07-.8-.05Z"/><path class="cls-14" d="M30.22,2.18l.14,0,.38,0,.52-.05.61,0,.6,0L33,2h.52l-.14,0L33,2l-.53,0-.61,0-.6,0-.53,0h-.52Z"/><g class="cls-27"><path class="cls-28" d="M31.64,3.88c-.5.11-1.38-.94-1.38-.94S29.28,4,29,3.88s.37-1.32.37-1.32A6.65,6.65,0,0,1,27,2a.05.05,0,0,0,0,0c0,.2,1.68.94,1.68.94s-.65,1.73-.28,1.8S30.3,3.22,30.3,3.22,32,4.92,32.23,4.75s-.41-1.88-.41-1.88,1.7-.62,1.7-.91c0,0,0,0,0,0a13.23,13.23,0,0,1-2.37.58S32.14,3.77,31.64,3.88Z"/></g><path class="cls-14" d="M30.34,4.07A2.41,2.41,0,0,1,32.4,5c.83-.47,3.13-.16,3.33.94a3.9,3.9,0,0,0-2.88,1.62H27.68A3.91,3.91,0,0,0,24.79,6C25,4.86,27.3,4.55,28.13,5a2.41,2.41,0,0,1,2.06-.95Z"/><path class="cls-13" d="M24.79,6a3.91,3.91,0,0,1,2.89,1.62h1C27.5,4.19,24.79,6,24.79,6Z"/><path class="cls-29" d="M26.19,6.3a3.58,3.58,0,0,1,1.65,1.58l.38-.2C27.38,5.16,26.19,6.3,26.19,6.3Z"/><path class="cls-13" d="M30.33,4.85h-.11c-1.56,0-1.34,2.08-1.24,2.73h2.59C31.67,6.93,31.89,4.85,30.33,4.85Z"/><path class="cls-29" d="M30.31,5.52h-.07c-1.18,0-1,1.57-.94,2.06h1.95C31.33,7.09,31.5,5.52,30.31,5.52Z"/><path class="cls-13" d="M31.89,7.58h1A3.9,3.9,0,0,1,35.73,6h0C35.56,5.85,33,4.3,31.89,7.58Z"/><path class="cls-29" d="M34.32,6.3a3.65,3.65,0,0,0-1.65,1.58l-.38-.2C33.14,5.16,34.32,6.3,34.32,6.3Z"/><path class="cls-15" d="M33.92,8.45c0,1-1.64,1.72-3.66,1.72s-3.65-.77-3.65-1.72S28.24,7,30.26,7,33.92,7.5,33.92,8.45Z"/><path class="cls-30" d="M28.66,7.13c-1.22.2-2.05.64-2.05,1.32s.83,1.27,2.05,1.55Z"/><path class="cls-31" d="M31.78,7.12V10c1.26-.27,2.14-.87,2.14-1.57S33,7.3,31.78,7.12Z"/><path class="cls-14" d="M34.89,9.35c-.24-1.06-2.22-1.61-4.63-1.61s-4.38.55-4.62,1.61Z"/><path class="cls-32" d="M34.89,9.35c-.15-.67-1-1.13-2.18-1.39V9.35Z"/><path class="cls-33" d="M27.86,9.35V8c-1.22.26-2.07.72-2.22,1.4Z"/><g class="cls-27"><path class="cls-14" d="M34.89,9.35a1.34,1.34,0,0,0-.57-.76,21.06,21.06,0,0,0-8.12,0,1.28,1.28,0,0,0-.56.76Z"/></g><path class="cls-34" d="M28.42,5.06a2.34,2.34,0,0,1,2.12-.84A1.79,1.79,0,0,0,28.42,5.06Z"/><path class="cls-34" d="M25.08,5.64a3,3,0,0,1,2.78-.49A2.23,2.23,0,0,0,25.08,5.64Z"/><polygon class="cls-7" points="28.23 8.6 28.23 8.6 28.23 8.6 28.23 8.6"/><path class="cls-6" d="M30.81,8.5h-.46a31.22,31.22,0,0,0,.31,5.91c1.36,0,2.64-.06,3.84-.14A16.53,16.53,0,0,0,30.86,8.5Z"/><path class="cls-7" d="M28.23,8.6c-8.38.63-13.16,4.13-13.16,4.13.8.19,1.59.35,2.38.5C18.41,12.14,21.28,9.68,28.23,8.6Z"/><path class="cls-7" d="M32.44,8.54c3,1,6.78,2.51,9.26,4.83.79-.15,1.45-.29,2-.42C41.2,11,36.6,9.51,32.87,8.56Z"/><path class="cls-6" d="M32.87,8.56C36.6,9.51,41.2,11,43.69,13a9.93,9.93,0,0,1,1.77-.26S41.41,9.06,32.87,8.56Z"/><path class="cls-7" d="M31,8.5h-.11a16.53,16.53,0,0,1,3.64,5.78c1.65-.11,3.14-.28,4.45-.46C36.92,10.85,33.37,9.27,31,8.5Z"/><path class="cls-6" d="M32.44,8.54,31,8.5c2.4.77,6,2.35,8,5.32,1-.14,1.95-.3,2.75-.45C39.22,11.05,35.45,9.49,32.44,8.54Z"/><path class="cls-7" d="M29.27,8.54c-.35,0-.7,0-1,.06-4.93,1.46-7.17,3.75-8.1,5.09.91.13,1.81.24,2.68.34A12.58,12.58,0,0,1,29.27,8.54Z"/><path class="cls-6" d="M28.23,8.6h0c-6.95,1.08-9.82,3.54-10.78,4.63.91.18,1.8.33,2.68.46C21.06,12.35,23.3,10.06,28.23,8.6Z"/><path class="cls-6" d="M29.27,8.54A12.58,12.58,0,0,0,22.81,14c1.37.15,2.69.25,4,.31a8.94,8.94,0,0,1,3.1-5.82Z"/><path class="cls-7" d="M30.35,8.51h-.47a8.94,8.94,0,0,0-3.1,5.82c1.35.07,2.64.09,3.88.08A31.22,31.22,0,0,1,30.35,8.51Z"/><g class="cls-4"><path class="cls-20" d="M38.48,9.43c.24.28,1,1.71-8.14,1.71-8.67,0-8.28-1.21-8-1.55a23.48,23.48,0,0,0-7.28,3.14c.8.19,1.59.35,2.38.5s1.8.33,2.68.46,1.81.24,2.68.34c1.37.15,2.69.25,4,.31s2.64.09,3.88.08,2.64-.06,3.84-.14c1.65-.11,3.14-.28,4.45-.46,1-.14,1.95-.3,2.75-.45s1.45-.29,2-.42a9.93,9.93,0,0,1,1.77-.26A17.78,17.78,0,0,0,38.48,9.43Z"/></g><path class="cls-22" d="M60.46,14.31c-.88,1.76-3.4,7.81-3.4,7.81H46l3-8.55C52.92,11.29,61.34,12.56,60.46,14.31Z"/><path class="cls-22" d="M.06,14.31c.89,1.76,3.41,7.81,3.41,7.81h11l-3-8.55C7.6,11.29-.82,12.56.06,14.31Z"/><path class="cls-22" d="M17.9,12c-4.73,0-6.43,1.59-6.43,1.59l3,8.55H24.74l-1.43-8.76S22.62,12,17.9,12Z"/><path class="cls-22" d="M49.05,13.56h0S47.32,12,42.59,12c-4.23,0-5.23,1.11-5.39,1.34v0l-1.42,8.76H46l3-8.55Z"/><path class="cls-22" d="M37.2,13.32a.06.06,0,0,0,0,0s-1.29-2-6.71-2H30c-5.42,0-6.71,2-6.71,2l1.43,8.76h11l1.42-8.76Z"/><path class="cls-13" d="M60.46,14.75c-.88,1.75-3.4,7.8-3.4,7.8H46l3-8.55C52.92,11.73,61.34,13,60.46,14.75Z"/><path class="cls-13" d="M.06,14.75c.89,1.75,3.41,7.8,3.41,7.8h11l-3-8.55C7.6,11.73-.82,13,.06,14.75Z"/><path class="cls-14" d="M17.9,12.41c-4.73,0-6.43,1.59-6.43,1.59l3,8.55H24.74l-1.43-8.76S22.62,12.41,17.9,12.41Z"/><path class="cls-14" d="M49.05,14h0s-1.7-1.59-6.43-1.59c-4.23,0-5.23,1.11-5.39,1.34v0l-1.42,8.76H46L49,14Z"/><path class="cls-15" d="M37.2,13.75a.06.06,0,0,0,0,0s-1.29-2-6.71-2H30c-5.42,0-6.71,2-6.71,2l1.43,8.76h11l1.42-8.76Z"/><path class="cls-35" d="M4.54,21.57H13L10.6,15.3A10.81,10.81,0,0,0,1.46,15Z"/><path class="cls-13" d="M23.43,21.57h-8L13,14.7a11.29,11.29,0,0,1,9.18,0Z"/><path class="cls-35" d="M56.09,21.57H47.67L50,15.3A10.78,10.78,0,0,1,59.16,15Z"/><path class="cls-13" d="M37.2,21.57h8l2.5-6.87a11.3,11.3,0,0,0-9.18,0Z"/><path class="cls-14" d="M25.83,21.57h8.91L36,14.47a12.16,12.16,0,0,0-11.36,0Z"/><path class="cls-22" d="M27.93,16.35a.18.18,0,0,1-.27.11c-.22-.09-.13-.48.41-.48s.8,1-.25,1.14a1,1,0,0,1-.93-1.77,2.13,2.13,0,0,1,3.13.17c.62,1-.55,2-1.76,2.71s-1.09,1.7-.21,2.05,1.44-.3,1.07-.66c0,.31-.94.23-.81-.42s1.46-.61,1.68.08-.42,2-2,1.47c-1.18-.37-1.57-1.81.08-2.72s2.08-1.36,2-2.13-1.69-1.3-2.75-.49a.71.71,0,0,0,.2,1.3C27.94,16.77,28.1,16.51,27.93,16.35Z"/><path class="cls-22" d="M32.42,16.35s0,.2.28.11.12-.48-.41-.48-.81,1,.25,1.14a1,1,0,0,0,.93-1.77,2.14,2.14,0,0,0-3.14.17c-.61,1,.55,2,1.77,2.71,1.07.66,1.08,1.7.2,2.05s-1.43-.3-1.07-.66c.05.31.95.23.82-.42s-1.46-.61-1.69.08.43,2,2,1.47c1.18-.37,1.58-1.81-.08-2.72s-2.08-1.36-2-2.13,1.69-1.3,2.76-.49a.72.72,0,0,1-.21,1.3C32.41,16.77,32.25,16.51,32.42,16.35Z"/><path class="cls-22" d="M15.83,16.35s0,.2-.24.11-.22-.48.31-.48a.57.57,0,1,1,0,1.14,1.19,1.19,0,0,1-1.28-1.77,2.18,2.18,0,0,1,3.17.17c.81,1-.15,2-1.23,2.71a1.1,1.1,0,0,0,.21,2.05c1,.36,1.37-.3.94-.66,0,.31-.9.23-.91-.42s1.35-.61,1.7.08,0,2-1.72,1.47c-1.25-.37-1.93-1.81-.46-2.72s1.81-1.36,1.58-2.13A2,2,0,0,0,15,15.41c-.55.49,0,1.25.46,1.3S16,16.51,15.83,16.35Z"/><path class="cls-22" d="M20.33,16.35a.21.21,0,0,0,.29.11c.2-.09,0-.48-.5-.48s-.61,1,.48,1.14,1.51-.93.57-1.77-2.68-.8-3.1.17.95,2,2.3,2.71,1.43,1.7.62,2.05-1.5-.3-1.21-.66c.11.31,1,.23.74-.42s-1.59-.61-1.67.08a1.67,1.67,0,0,0,2.31,1.47c1.11-.37,1.22-1.81-.62-2.72s-2.35-1.36-2.42-2.13,1.43-1.3,2.66-.49c.74.49.48,1.25,0,1.3S20.19,16.51,20.33,16.35Z"/><path class="cls-22" d="M4.06,16.35s0,.2-.22.11S3.52,16,4.05,16s1.21,1,.22,1.14-2.08-.93-1.66-1.77,2.19-.8,3.21.17.26,2-.66,2.71-.38,1.7.65,2.05,1.3-.3.79-.66c.08.31-.85.23-1-.42s1.21-.61,1.72.08.39,2-1.41,1.47c-1.34-.37-2.32-1.81-1-2.72S6.4,16.67,6,15.9s-2.23-1.3-3-.49c-.45.49.27,1.25.74,1.3S4.31,16.51,4.06,16.35Z"/><path class="cls-22" d="M8.56,16.35s.14.2.32.11S8.81,16,8.27,16s-.4,1,.72,1.14,1.32-.93.2-1.77-2.85-.8-3.06.17,1.37,2,2.87,2.71c1.35.66,1.79,1.7,1.05,2.05s-1.56-.3-1.34-.66c.17.31,1,.23.64-.42s-1.71-.61-1.65.08a2.08,2.08,0,0,0,2.62,1.47c1-.37.84-1.81-1.2-2.72S6.49,16.67,6.26,15.9s1.16-1.3,2.55-.49c.85.49.75,1.25.33,1.3S8.46,16.51,8.56,16.35Z"/><path class="cls-22" d="M44.93,16.35s0,.2.24.11.22-.48-.31-.48a.57.57,0,1,0,0,1.14,1.19,1.19,0,0,0,1.28-1.77c-.6-.86-2.36-.8-3.16.17s.15,2,1.22,2.71a1.1,1.1,0,0,1-.2,2.05c-1,.36-1.37-.3-.94-.66,0,.31.9.23.9-.42s-1.34-.61-1.7.08,0,2,1.73,1.47c1.25-.37,1.93-1.81.46-2.72s-1.81-1.36-1.58-2.13a2,2,0,0,1,2.85-.49c.55.49,0,1.25-.46,1.3S44.72,16.51,44.93,16.35Z"/><path class="cls-22" d="M40.43,16.35a.21.21,0,0,1-.29.11c-.21-.09,0-.48.5-.48s.61,1-.48,1.14-1.52-.93-.57-1.77,2.67-.8,3.1.17-.95,2-2.31,2.71c-1.2.66-1.42,1.7-.61,2.05s1.5-.3,1.21-.66c-.11.31-1,.23-.74-.42s1.59-.61,1.67.08a1.67,1.67,0,0,1-2.31,1.47c-1.1-.37-1.21-1.81.62-2.72s2.35-1.36,2.42-2.13S41.2,14.6,40,15.41c-.74.49-.48,1.25,0,1.3S40.57,16.51,40.43,16.35Z"/><path class="cls-22" d="M56.69,16.35s0,.2.23.11.32-.48-.22-.48-1.2,1-.21,1.14,2.08-.93,1.66-1.77-2.2-.8-3.21.17-.26,2,.65,2.71.39,1.7-.64,2.05-1.3-.3-.79-.66c-.08.31.85.23,1-.42s-1.22-.61-1.72.08-.39,2,1.41,1.47c1.34-.37,2.32-1.81,1-2.72s-1.52-1.36-1.13-2.13,2.23-1.3,3-.49c.44.49-.28,1.25-.74,1.3S56.46,16.51,56.69,16.35Z"/><path class="cls-22" d="M52.19,16.35s-.13.2-.31.11S52,16,52.49,16s.4,1-.72,1.14-1.32-.93-.2-1.77,2.84-.8,3.06.17-1.37,2-2.87,2.71-1.79,1.7-1,2.05,1.55-.3,1.34-.66c-.17.31-1,.23-.64-.42s1.71-.61,1.65.08a2.08,2.08,0,0,1-2.62,1.47c-1-.37-.84-1.81,1.19-2.72s2.64-1.36,2.87-2.13-1.16-1.3-2.55-.49c-.85.49-.75,1.25-.33,1.3S52.3,16.51,52.19,16.35Z"/><g class="cls-4"><path class="cls-14" d="M30.25,20.86c-2.87,0-4.68-3.87-5.56-6.42l-.06,0,1.2,7.1h8.91L36,14.47h0C35,17.3,33.05,20.86,30.25,20.86Z"/></g><g class="cls-4"><path class="cls-13" d="M22.15,14.79c-.26,3-1.16,6.34-3.7,6.3C15.25,21,13,14.7,13,14.7l2.49,6.87h8Z"/></g><g class="cls-4"><path class="cls-13" d="M38.49,14.79c.26,3,1.16,6.34,3.7,6.3,3.2-.06,5.49-6.39,5.49-6.39l-2.49,6.87h-8Z"/></g><g class="cls-4"><path class="cls-36" d="M13,21.57,10.6,15.3a9.53,9.53,0,0,0-1.9-.75C9,17,9,20.43,7.33,20.78s-4.1-3-5.75-5.57l3,6.36Z"/></g><g class="cls-4"><path class="cls-36" d="M47.71,21.57l2.36-6.27a9.53,9.53,0,0,1,1.9-.75c-.29,2.49-.34,5.88,1.37,6.23s4.1-3,5.75-5.57l-3,6.36Z"/></g><path class="cls-34" d="M25.71,14.32a12.69,12.69,0,0,1,7.45-.45C31.81,13,28.34,12.77,25.71,14.32Z"/><path class="cls-37" d="M13.59,15a10.47,10.47,0,0,1,5.3-.73C18,13.76,14.71,13.91,13.59,15Z"/><path class="cls-37" d="M47.18,15a10.47,10.47,0,0,0-5.3-.73C42.74,13.76,46.06,13.91,47.18,15Z"/><path class="cls-38" d="M2.1,15.12s1.51-1,4.66-.53A5.22,5.22,0,0,0,2.1,15.12Z"/><path class="cls-38" d="M58.79,15.12s-1.51-1-4.66-.53A5.22,5.22,0,0,1,58.79,15.12Z"/><polygon class="cls-15" points="30.3 26.44 30.32 26.41 30.3 26.41 30.3 26.44"/><polygon class="cls-39" points="17.45 26.41 24.79 26.41 14.51 22.55 17.45 26.41"/><polygon class="cls-39" points="24.79 26.41 30.3 26.41 24.74 22.55 24.79 26.41"/><polygon class="cls-39" points="35.82 26.41 42.97 26.41 46.1 22.55 35.82 26.41"/><polygon class="cls-39" points="30.32 26.41 30.54 26.41 31.83 26.41 35.82 26.41 35.87 22.55 30.32 26.41"/><polygon class="cls-40" points="24.74 22.55 30.3 26.41 30.32 26.41 30.32 22.55 24.74 22.55"/><polygon class="cls-19" points="30.32 22.55 30.32 26.41 35.87 22.55 30.32 22.55"/><polygon class="cls-19" points="9.13 22.55 17.44 26.4 14.51 22.55 9.13 22.55"/><polygon class="cls-40" points="3.47 22.55 17.45 26.41 17.44 26.4 9.13 22.55 3.47 22.55"/><polygon class="cls-40" points="46.1 22.55 42.97 26.41 51.29 22.55 46.1 22.55"/><polygon class="cls-19" points="51.29 22.55 42.97 26.41 56.95 22.55 51.29 22.55"/><polygon class="cls-40" points="14.51 22.55 24.79 26.41 19.65 22.55 14.51 22.55"/><polygon class="cls-19" points="19.65 22.55 24.79 26.41 24.74 22.55 19.65 22.55"/><polygon class="cls-40" points="35.87 22.55 35.82 26.41 35.93 26.37 41.02 22.55 35.87 22.55"/><polygon class="cls-19" points="41.02 22.55 35.93 26.37 46.1 22.55 41.02 22.55"/><rect class="cls-19" x="24.63" y="26.81" width="11.24" height="0.4"/><rect class="cls-41" x="17.45" y="26.41" width="25.53" height="0.4"/></g></g></g></svg>