<svg xmlns="http://www.w3.org/2000/svg" viewBox="0 0 54.42 72.59"><defs><style>.cls-1{isolation:isolate;}.cls-2{fill:#a20000;}.cls-14,.cls-3{fill:#760000;}.cls-4{fill:#ff6700;}.cls-5{fill:#9c5a39;}.cls-39,.cls-5{opacity:0.6;}.cls-11,.cls-14,.cls-16,.cls-19,.cls-20,.cls-21,.cls-22,.cls-25,.cls-26,.cls-38,.cls-40,.cls-5,.cls-52{mix-blend-mode:multiply;}.cls-6{fill:#2e0000;}.cls-7{fill:#fea30e;}.cls-27,.cls-8{fill:#d31616;}.cls-9{fill:#e56d00;}.cls-10{fill:#ffd016;}.cls-11{fill:#6e3939;}.cls-11,.cls-20,.cls-22{opacity:0.4;}.cls-12{fill:#740000;}.cls-13{fill:#480000;}.cls-15{fill:#fecd06;}.cls-16{fill:#debb06;}.cls-17{fill:#e9f7f9;}.cls-18{fill:#f5000f;}.cls-19{fill:#4f4946;}.cls-19,.cls-25{opacity:0.9;}.cls-21,.cls-22,.cls-25{fill:gray;}.cls-23,.cls-26{fill:#ab0000;}.cls-24{fill:#d6a500;}.cls-26,.cls-38{opacity:0.7;}.cls-27,.cls-39,.cls-49{mix-blend-mode:color-dodge;}.cls-28{fill:#d35a16;}.cls-29{fill:#00af8b;}.cls-30{fill:#0078a9;}.cls-31{fill:none;}.cls-32{fill:#88e9ff;}.cls-33{fill:#daff92;}.cls-34{fill:#fef23e;}.cls-35{fill:#22c2f2;}.cls-36{fill:#92c63e;}.cls-37{fill:#6e9839;}.cls-38{fill:#fea806;}.cls-39,.cls-45{fill:#fff;}.cls-41{fill:#578b03;}.cls-42{fill:#c39200;}.cls-43{fill:#0087b7;}.cls-44{fill:#335d00;}.cls-46{fill:#75b506;}.cls-47{fill:#b54400;}.cls-48{fill:#755d06;}.cls-49{fill:#ffad99;opacity:0.3;}.cls-50{fill:#ff934a;}.cls-51,.cls-52,.cls-55{fill:#ffc502;}.cls-53{fill:#ffe102;}.cls-54{fill:#af8308;}.cls-55{mix-blend-mode:screen;}.cls-56{fill:#939393;}.cls-57{fill:#ab1113;}.cls-58{fill:#fb0f0f;}.cls-59{fill:#eef9fb;}.cls-60{fill:#b3afae;}</style></defs><title>設施介紹-資產 7</title><g class="cls-1"><g id="圖層_2" data-name="圖層 2"><g id="Layer_1" data-name="Layer 1"><rect class="cls-2" x="27.99" y="21.7" width="0.29" height="48.51"/><rect class="cls-3" x="27.7" y="21.7" width="0.29" height="48.51"/><rect class="cls-2" x="22.44" y="28.74" width="0.29" height="41.47"/><rect class="cls-3" x="22.15" y="28.74" width="0.29" height="41.47"/><path class="cls-4" d="M30.7,30.07a10.27,10.27,0,0,0-2.65.9v3.57a6.58,6.58,0,0,1,4-2.68Z"/><path class="cls-5" d="M30.7,30.07a10.27,10.27,0,0,0-2.65.9v3.57a6.58,6.58,0,0,1,4-2.68Z"/><path class="cls-6" d="M49.43,22.54A9.25,9.25,0,0,1,47,23.67a9.67,9.67,0,0,1-2.7.59,12.1,12.1,0,0,1-2.82-.13,7.15,7.15,0,0,1-1.91-.55s0,0,0,0a7.85,7.85,0,0,0,1.75.59,14.68,14.68,0,0,0,2.81.16A9.42,9.42,0,0,0,47,23.78a8.88,8.88,0,0,0,2.51-1.18S49.48,22.51,49.43,22.54Z"/><rect class="cls-7" x="43.72" y="35.29" width="4.82" height="33.36"/><rect class="cls-8" x="43.72" y="35.29" width="4.82" height="5.15"/><rect class="cls-3" x="43.72" y="40.58" width="4.82" height="0.19"/><path class="cls-3" d="M44.41,40.18a.2.2,0,0,1-.19.2.2.2,0,1,1,0-.4A.2.2,0,0,1,44.41,40.18Z"/><path class="cls-9" d="M44.35,40.16a.16.16,0,0,1-.15.16.16.16,0,0,1-.16-.16A.16.16,0,0,1,44.2,40,.15.15,0,0,1,44.35,40.16Z"/><path class="cls-10" d="M44.25,40.14a.07.07,0,1,1-.07-.07A.07.07,0,0,1,44.25,40.14Z"/><path class="cls-3" d="M45.63,40.18a.19.19,0,0,1-.19.2.2.2,0,1,1,0-.4A.19.19,0,0,1,45.63,40.18Z"/><path class="cls-9" d="M45.58,40.16a.16.16,0,1,1-.32,0,.16.16,0,0,1,.32,0Z"/><path class="cls-10" d="M45.47,40.14a.07.07,0,1,1-.07-.07A.07.07,0,0,1,45.47,40.14Z"/><path class="cls-3" d="M47,40.18a.2.2,0,1,1-.2-.2A.2.2,0,0,1,47,40.18Z"/><path class="cls-9" d="M46.89,40.16a.16.16,0,0,1-.16.16.16.16,0,0,1-.15-.16.15.15,0,0,1,.15-.15A.16.16,0,0,1,46.89,40.16Z"/><path class="cls-10" d="M46.78,40.14a.07.07,0,0,1-.06.07.07.07,0,0,1,0-.14A.07.07,0,0,1,46.78,40.14Z"/><path class="cls-3" d="M48.21,40.18a.2.2,0,0,1-.2.2.2.2,0,0,1,0-.4A.2.2,0,0,1,48.21,40.18Z"/><path class="cls-9" d="M48.15,40.16a.16.16,0,0,1-.15.16.16.16,0,0,1-.16-.16A.16.16,0,0,1,48,40,.15.15,0,0,1,48.15,40.16Z"/><path class="cls-10" d="M48.05,40.14a.07.07,0,1,1-.07-.07A.07.07,0,0,1,48.05,40.14Z"/><rect class="cls-2" x="43.64" y="40.45" width="4.98" height="0.17"/><rect class="cls-8" x="43.72" y="45.35" width="4.82" height="8.17"/><rect class="cls-3" x="43.72" y="53.66" width="4.82" height="0.19"/><path class="cls-3" d="M44.41,53.26a.2.2,0,0,1-.19.2.2.2,0,1,1,0-.4A.2.2,0,0,1,44.41,53.26Z"/><path class="cls-9" d="M44.35,53.24a.16.16,0,0,1-.15.16.16.16,0,0,1-.16-.16.16.16,0,1,1,.31,0Z"/><path class="cls-10" d="M44.25,53.22a.07.07,0,1,1-.07-.07A.07.07,0,0,1,44.25,53.22Z"/><path class="cls-3" d="M45.63,53.26a.19.19,0,0,1-.19.2.2.2,0,1,1,0-.4A.19.19,0,0,1,45.63,53.26Z"/><path class="cls-9" d="M45.58,53.24a.16.16,0,1,1-.32,0,.16.16,0,1,1,.32,0Z"/><path class="cls-10" d="M45.47,53.22a.07.07,0,1,1-.07-.07A.07.07,0,0,1,45.47,53.22Z"/><path class="cls-3" d="M47,53.26a.2.2,0,1,1-.2-.2A.2.2,0,0,1,47,53.26Z"/><path class="cls-9" d="M46.89,53.24a.16.16,0,0,1-.16.16.16.16,0,0,1-.15-.16.16.16,0,1,1,.31,0Z"/><path class="cls-10" d="M46.78,53.22a.07.07,0,0,1-.06.07.07.07,0,0,1,0-.14A.07.07,0,0,1,46.78,53.22Z"/><path class="cls-3" d="M48.21,53.26a.2.2,0,0,1-.2.2.2.2,0,0,1,0-.4A.2.2,0,0,1,48.21,53.26Z"/><path class="cls-9" d="M48.15,53.24a.16.16,0,0,1-.15.16.16.16,0,0,1-.16-.16.16.16,0,1,1,.31,0Z"/><path class="cls-10" d="M48.05,53.22a.07.07,0,1,1-.07-.07A.07.07,0,0,1,48.05,53.22Z"/><rect class="cls-2" x="43.64" y="53.52" width="4.98" height="0.17"/><rect class="cls-3" x="43.72" y="45.37" width="4.82" height="0.18"/><rect class="cls-2" x="43.64" y="45.24" width="4.98" height="0.17"/><rect class="cls-8" x="43.72" y="56.98" width="4.82" height="4.85"/><rect class="cls-3" x="43.72" y="61.96" width="4.82" height="0.18"/><path class="cls-3" d="M44.41,61.56a.2.2,0,0,1-.19.2.19.19,0,0,1-.2-.2.19.19,0,0,1,.2-.19A.19.19,0,0,1,44.41,61.56Z"/><path class="cls-9" d="M44.35,61.55a.15.15,0,0,1-.15.15.16.16,0,0,1-.16-.15.16.16,0,0,1,.16-.16A.16.16,0,0,1,44.35,61.55Z"/><path class="cls-10" d="M44.25,61.52a.07.07,0,1,1-.07-.07A.07.07,0,0,1,44.25,61.52Z"/><path class="cls-3" d="M45.63,61.56a.19.19,0,0,1-.19.2.2.2,0,0,1-.2-.2.19.19,0,0,1,.2-.19A.18.18,0,0,1,45.63,61.56Z"/><path class="cls-9" d="M45.58,61.55a.16.16,0,0,1-.32,0,.16.16,0,1,1,.32,0Z"/><path class="cls-10" d="M45.47,61.52a.07.07,0,1,1-.07-.07A.07.07,0,0,1,45.47,61.52Z"/><path class="cls-3" d="M47,61.56a.2.2,0,1,1-.4,0,.2.2,0,0,1,.4,0Z"/><path class="cls-9" d="M46.89,61.55a.16.16,0,0,1-.16.15.15.15,0,0,1-.15-.15.16.16,0,0,1,.15-.16A.16.16,0,0,1,46.89,61.55Z"/><path class="cls-10" d="M46.78,61.52a.07.07,0,0,1-.06.07.07.07,0,0,1,0-.14A.07.07,0,0,1,46.78,61.52Z"/><path class="cls-3" d="M48.21,61.56a.2.2,0,0,1-.2.2.19.19,0,0,1-.19-.2.18.18,0,0,1,.19-.19A.19.19,0,0,1,48.21,61.56Z"/><path class="cls-9" d="M48.15,61.55a.15.15,0,0,1-.15.15.16.16,0,0,1-.16-.15.16.16,0,0,1,.16-.16A.16.16,0,0,1,48.15,61.55Z"/><path class="cls-10" d="M48.05,61.52a.07.07,0,1,1-.07-.07A.07.07,0,0,1,48.05,61.52Z"/><path class="cls-3" d="M44.41,57.63a.2.2,0,0,1-.19.2.2.2,0,0,1,0-.4A.2.2,0,0,1,44.41,57.63Z"/><path class="cls-9" d="M44.35,57.62a.15.15,0,0,1-.15.15.16.16,0,0,1-.16-.15.16.16,0,0,1,.16-.16A.16.16,0,0,1,44.35,57.62Z"/><path class="cls-10" d="M44.25,57.59a.07.07,0,1,1-.07-.07A.07.07,0,0,1,44.25,57.59Z"/><path class="cls-3" d="M45.63,57.63a.19.19,0,0,1-.19.2.2.2,0,0,1,0-.4A.19.19,0,0,1,45.63,57.63Z"/><path class="cls-9" d="M45.58,57.62a.16.16,0,0,1-.32,0,.16.16,0,0,1,.32,0Z"/><path class="cls-10" d="M45.47,57.59a.07.07,0,1,1-.07-.07A.07.07,0,0,1,45.47,57.59Z"/><path class="cls-3" d="M47,57.63a.2.2,0,1,1-.2-.2A.2.2,0,0,1,47,57.63Z"/><path class="cls-9" d="M46.89,57.62a.16.16,0,0,1-.16.15.15.15,0,0,1-.15-.15.16.16,0,0,1,.15-.16A.16.16,0,0,1,46.89,57.62Z"/><path class="cls-10" d="M46.78,57.59a.07.07,0,0,1-.06.07.07.07,0,0,1,0-.14A.07.07,0,0,1,46.78,57.59Z"/><path class="cls-3" d="M48.21,57.63a.2.2,0,0,1-.2.2.2.2,0,0,1,0-.4A.2.2,0,0,1,48.21,57.63Z"/><path class="cls-9" d="M48.15,57.62a.15.15,0,0,1-.15.15.16.16,0,0,1-.16-.15.16.16,0,0,1,.16-.16A.16.16,0,0,1,48.15,57.62Z"/><path class="cls-10" d="M48.05,57.59a.07.07,0,1,1-.07-.07A.07.07,0,0,1,48.05,57.59Z"/><rect class="cls-2" x="43.64" y="61.83" width="4.98" height="0.17"/><rect class="cls-3" x="43.72" y="57" width="4.82" height="0.19"/><rect class="cls-2" x="43.64" y="56.86" width="4.98" height="0.17"/><polygon class="cls-11" points="48.54 40.62 48.63 40.62 48.63 40.45 48.54 40.45 48.54 35.29 47.32 35.29 47.32 68.66 48.54 68.66 48.54 61.99 48.63 61.99 48.63 61.83 48.54 61.83 48.54 57.03 48.63 57.03 48.63 56.86 48.54 56.86 48.54 53.69 48.63 53.69 48.63 53.52 48.54 53.52 48.54 45.41 48.63 45.41 48.63 45.24 48.54 45.24 48.54 40.62"/><polygon class="cls-11" points="43.72 68.66 44.34 68.66 44.34 35.29 43.72 35.29 43.72 40.45 43.64 40.45 43.64 40.62 43.72 40.62 43.72 45.24 43.64 45.24 43.64 45.41 43.72 45.41 43.72 53.52 43.64 53.52 43.64 53.69 43.72 53.69 43.72 56.86 43.64 56.86 43.64 57.03 43.72 57.03 43.72 61.83 43.64 61.83 43.64 61.99 43.72 61.99 43.72 68.66"/><rect class="cls-12" x="42.06" y="29.7" width="0.26" height="2.62"/><rect class="cls-13" x="41.79" y="29.7" width="0.26" height="2.62"/><rect class="cls-12" x="43.74" y="29.7" width="0.26" height="2.62"/><rect class="cls-13" x="43.47" y="29.7" width="0.27" height="2.62"/><rect class="cls-12" x="45.41" y="29.7" width="0.27" height="2.62"/><rect class="cls-13" x="45.15" y="29.7" width="0.26" height="2.62"/><rect class="cls-12" x="47.09" y="29.7" width="0.26" height="2.62"/><rect class="cls-13" x="46.83" y="29.7" width="0.26" height="2.62"/><rect class="cls-12" x="48.77" y="29.7" width="0.27" height="2.62"/><rect class="cls-13" x="48.51" y="29.7" width="0.26" height="2.62"/><rect class="cls-2" x="40.91" y="29.55" width="8.49" height="0.26"/><rect class="cls-3" x="40.91" y="29.81" width="8.49" height="0.26"/><polygon class="cls-3" points="28.06 35.66 30.2 32.5 30.36 32.59 28.22 35.74 28.06 35.66"/><polygon class="cls-2" points="27.9 35.57 30.04 32.41 30.2 32.5 28.06 35.66 27.9 35.57"/><polygon class="cls-14" points="28.24 35.07 27.9 35.57 28.22 35.74 28.67 35.07 28.24 35.07"/><polygon class="cls-14" points="30.06 33.03 30.36 32.59 30.04 32.41 29.63 33.03 30.06 33.03"/><polygon class="cls-3" points="30.51 35.66 28.38 32.5 28.22 32.59 30.35 35.74 30.51 35.66"/><polygon class="cls-2" points="30.67 35.57 28.53 32.41 28.38 32.5 30.51 35.66 30.67 35.57"/><polygon class="cls-14" points="30.33 35.07 30.67 35.57 30.35 35.74 29.9 35.07 30.33 35.07"/><polygon class="cls-14" points="28.51 33.03 28.22 32.59 28.53 32.41 28.95 33.03 28.51 33.03"/><polygon class="cls-3" points="30.42 35.66 32.56 32.5 32.72 32.59 30.58 35.74 30.42 35.66"/><polygon class="cls-2" points="30.27 35.57 32.4 32.41 32.56 32.5 30.42 35.66 30.27 35.57"/><polygon class="cls-14" points="30.6 35.07 30.27 35.57 30.58 35.74 31.04 35.07 30.6 35.07"/><polygon class="cls-14" points="32.42 33.03 32.72 32.59 32.4 32.41 31.99 33.03 32.42 33.03"/><polygon class="cls-3" points="32.87 35.66 30.74 32.5 30.58 32.59 32.72 35.74 32.87 35.66"/><polygon class="cls-2" points="33.03 35.57 30.89 32.41 30.74 32.5 32.87 35.66 33.03 35.57"/><polygon class="cls-14" points="32.7 35.07 33.03 35.57 32.72 35.74 32.26 35.07 32.7 35.07"/><polygon class="cls-14" points="30.88 33.03 30.58 32.59 30.89 32.41 31.31 33.03 30.88 33.03"/><polygon class="cls-3" points="32.85 35.66 34.98 32.5 35.14 32.59 33.01 35.74 32.85 35.66"/><polygon class="cls-2" points="32.69 35.57 34.83 32.41 34.98 32.5 32.85 35.66 32.69 35.57"/><polygon class="cls-14" points="33.03 35.07 32.69 35.57 33.01 35.74 33.46 35.07 33.03 35.07"/><polygon class="cls-14" points="34.84 33.03 35.14 32.59 34.83 32.41 34.41 33.03 34.84 33.03"/><polygon class="cls-3" points="35.3 35.66 33.16 32.5 33 32.59 35.14 35.74 35.3 35.66"/><polygon class="cls-2" points="35.46 35.57 33.32 32.41 33.16 32.5 35.3 35.66 35.46 35.57"/><polygon class="cls-14" points="35.12 35.07 35.46 35.57 35.14 35.74 34.69 35.07 35.12 35.07"/><polygon class="cls-14" points="33.3 33.03 33 32.59 33.32 32.41 33.73 33.03 33.3 33.03"/><rect class="cls-2" x="30.47" y="32.52" width="0.17" height="3.01"/><rect class="cls-3" x="30.31" y="32.52" width="0.17" height="3.01"/><rect class="cls-14" x="30.31" y="34.68" width="0.33" height="0.84"/><rect class="cls-14" x="30.31" y="32.52" width="0.33" height="0.55"/><rect class="cls-2" x="32.86" y="32.52" width="0.16" height="3.01"/><rect class="cls-3" x="32.7" y="32.52" width="0.16" height="3.01"/><rect class="cls-14" x="32.7" y="34.68" width="0.33" height="0.84"/><rect class="cls-14" x="32.7" y="32.52" width="0.33" height="0.55"/><polygon class="cls-3" points="35.24 35.66 37.38 32.5 37.54 32.59 35.4 35.74 35.24 35.66"/><polygon class="cls-2" points="35.08 35.57 37.22 32.41 37.38 32.5 35.24 35.66 35.08 35.57"/><polygon class="cls-14" points="35.42 35.07 35.08 35.57 35.4 35.74 35.85 35.07 35.42 35.07"/><polygon class="cls-14" points="37.24 33.03 37.54 32.59 37.22 32.41 36.81 33.03 37.24 33.03"/><polygon class="cls-3" points="37.69 35.66 35.56 32.5 35.4 32.59 37.53 35.74 37.69 35.66"/><polygon class="cls-2" points="37.85 35.57 35.71 32.41 35.56 32.5 37.69 35.66 37.85 35.57"/><polygon class="cls-14" points="37.51 35.07 37.85 35.57 37.53 35.74 37.08 35.07 37.51 35.07"/><polygon class="cls-14" points="35.7 33.03 35.4 32.59 35.71 32.41 36.13 33.03 35.7 33.03"/><polygon class="cls-3" points="37.66 35.66 39.8 32.5 39.96 32.59 37.82 35.74 37.66 35.66"/><polygon class="cls-2" points="37.51 35.57 39.64 32.41 39.8 32.5 37.66 35.66 37.51 35.57"/><polygon class="cls-14" points="37.84 35.07 37.51 35.57 37.82 35.74 38.28 35.07 37.84 35.07"/><polygon class="cls-14" points="39.66 33.03 39.96 32.59 39.64 32.41 39.23 33.03 39.66 33.03"/><polygon class="cls-3" points="40.12 35.66 37.98 32.5 37.82 32.59 39.96 35.74 40.12 35.66"/><polygon class="cls-2" points="40.27 35.57 38.14 32.41 37.98 32.5 40.12 35.66 40.27 35.57"/><polygon class="cls-14" points="39.94 35.07 40.27 35.57 39.96 35.74 39.5 35.07 39.94 35.07"/><polygon class="cls-14" points="38.12 33.03 37.82 32.59 38.14 32.41 38.55 33.03 38.12 33.03"/><rect class="cls-2" x="35.29" y="32.52" width="0.16" height="3.01"/><rect class="cls-3" x="35.13" y="32.52" width="0.17" height="3.01"/><rect class="cls-14" x="35.13" y="34.68" width="0.33" height="0.84"/><rect class="cls-14" x="35.13" y="32.52" width="0.33" height="0.55"/><rect class="cls-2" x="37.68" y="32.52" width="0.17" height="3.01"/><rect class="cls-3" x="37.52" y="32.52" width="0.16" height="3.01"/><rect class="cls-14" x="37.52" y="34.68" width="0.33" height="0.84"/><rect class="cls-14" x="37.52" y="32.52" width="0.33" height="0.55"/><polygon class="cls-3" points="40.05 35.66 42.18 32.5 42.34 32.59 40.2 35.74 40.05 35.66"/><polygon class="cls-2" points="39.89 35.57 42.03 32.41 42.18 32.5 40.05 35.66 39.89 35.57"/><polygon class="cls-14" points="40.23 35.07 39.89 35.57 40.2 35.74 40.66 35.07 40.23 35.07"/><polygon class="cls-14" points="42.05 33.03 42.34 32.59 42.03 32.41 41.62 33.03 42.05 33.03"/><polygon class="cls-3" points="42.5 35.66 40.36 32.5 40.2 32.59 42.34 35.74 42.5 35.66"/><polygon class="cls-2" points="42.66 35.57 40.52 32.41 40.36 32.5 42.5 35.66 42.66 35.57"/><polygon class="cls-14" points="42.32 35.07 42.66 35.57 42.34 35.74 41.89 35.07 42.32 35.07"/><polygon class="cls-14" points="40.5 33.03 40.2 32.59 40.52 32.41 40.93 33.03 40.5 33.03"/><polygon class="cls-3" points="42.47 35.66 44.61 32.5 44.77 32.59 42.63 35.74 42.47 35.66"/><polygon class="cls-2" points="42.31 35.57 44.45 32.41 44.61 32.5 42.47 35.66 42.31 35.57"/><polygon class="cls-14" points="42.65 35.07 42.31 35.57 42.63 35.74 43.08 35.07 42.65 35.07"/><polygon class="cls-14" points="44.47 33.03 44.77 32.59 44.45 32.41 44.04 33.03 44.47 33.03"/><polygon class="cls-3" points="44.92 35.66 42.79 32.5 42.63 32.59 44.76 35.74 44.92 35.66"/><polygon class="cls-2" points="45.08 35.57 42.94 32.41 42.79 32.5 44.92 35.66 45.08 35.57"/><polygon class="cls-14" points="44.74 35.07 45.08 35.57 44.76 35.74 44.31 35.07 44.74 35.07"/><polygon class="cls-14" points="42.92 33.03 42.63 32.59 42.94 32.41 43.35 33.03 42.92 33.03"/><rect class="cls-2" x="40.1" y="32.52" width="0.16" height="3.01"/><rect class="cls-3" x="39.93" y="32.52" width="0.17" height="3.01"/><rect class="cls-14" x="39.93" y="34.68" width="0.33" height="0.84"/><rect class="cls-14" x="39.93" y="32.52" width="0.33" height="0.55"/><rect class="cls-2" x="42.49" y="32.52" width="0.17" height="3.01"/><rect class="cls-3" x="42.32" y="32.52" width="0.16" height="3.01"/><rect class="cls-14" x="42.32" y="34.68" width="0.33" height="0.84"/><rect class="cls-14" x="42.32" y="32.52" width="0.33" height="0.55"/><polygon class="cls-3" points="44.86 35.66 47 32.5 47.16 32.59 45.02 35.74 44.86 35.66"/><polygon class="cls-2" points="44.71 35.57 46.84 32.41 47 32.5 44.86 35.66 44.71 35.57"/><polygon class="cls-14" points="45.05 35.07 44.71 35.57 45.02 35.74 45.48 35.07 45.05 35.07"/><polygon class="cls-14" points="46.87 33.03 47.16 32.59 46.84 32.41 46.43 33.03 46.87 33.03"/><polygon class="cls-3" points="47.32 35.66 45.18 32.5 45.02 32.59 47.16 35.74 47.32 35.66"/><polygon class="cls-2" points="47.48 35.57 45.34 32.41 45.18 32.5 47.32 35.66 47.48 35.57"/><polygon class="cls-14" points="47.14 35.07 47.48 35.57 47.16 35.74 46.7 35.07 47.14 35.07"/><polygon class="cls-14" points="45.32 33.03 45.02 32.59 45.34 32.41 45.75 33.03 45.32 33.03"/><polygon class="cls-3" points="47.29 35.66 49.43 32.5 49.59 32.59 47.45 35.74 47.29 35.66"/><polygon class="cls-2" points="47.13 35.57 49.27 32.41 49.43 32.5 47.29 35.66 47.13 35.57"/><polygon class="cls-14" points="47.47 35.07 47.13 35.57 47.45 35.74 47.9 35.07 47.47 35.07"/><polygon class="cls-14" points="49.29 33.03 49.59 32.59 49.27 32.41 48.86 33.03 49.29 33.03"/><polygon class="cls-3" points="49.74 35.66 47.6 32.5 47.45 32.59 49.58 35.74 49.74 35.66"/><polygon class="cls-2" points="49.9 35.57 47.76 32.41 47.6 32.5 49.74 35.66 49.9 35.57"/><polygon class="cls-14" points="49.56 35.07 49.9 35.57 49.58 35.74 49.13 35.07 49.56 35.07"/><polygon class="cls-14" points="47.74 33.03 47.45 32.59 47.76 32.41 48.17 33.03 47.74 33.03"/><rect class="cls-2" x="44.92" y="32.52" width="0.16" height="3.01"/><rect class="cls-3" x="44.75" y="32.52" width="0.16" height="3.01"/><rect class="cls-14" x="44.75" y="34.68" width="0.33" height="0.84"/><rect class="cls-14" x="44.75" y="32.52" width="0.33" height="0.55"/><rect class="cls-2" x="47.31" y="32.52" width="0.17" height="3.01"/><rect class="cls-3" x="47.14" y="32.52" width="0.16" height="3.01"/><rect class="cls-14" x="47.14" y="34.68" width="0.33" height="0.84"/><rect class="cls-14" x="47.14" y="32.52" width="0.33" height="0.55"/><rect class="cls-2" x="27.93" y="35.36" width="21.8" height="0.26"/><rect class="cls-3" x="27.93" y="35.62" width="21.8" height="0.26"/><rect class="cls-2" x="27.93" y="32.12" width="21.8" height="0.26"/><rect class="cls-3" x="27.93" y="32.39" width="21.8" height="0.27"/><polygon class="cls-3" points="28.11 44.93 30.91 42.3 31.12 42.37 28.32 45 28.11 44.93"/><polygon class="cls-2" points="27.9 44.85 30.7 42.23 30.91 42.3 28.11 44.93 27.9 44.85"/><polygon class="cls-14" points="28.35 44.44 27.9 44.85 28.32 45 28.91 44.44 28.35 44.44"/><polygon class="cls-14" points="30.73 42.74 31.12 42.37 30.7 42.23 30.16 42.74 30.73 42.74"/><polygon class="cls-3" points="31.32 44.93 28.52 42.3 28.32 42.37 31.12 45 31.32 44.93"/><polygon class="cls-2" points="31.53 44.85 28.73 42.23 28.52 42.3 31.32 44.93 31.53 44.85"/><polygon class="cls-14" points="31.09 44.44 31.53 44.85 31.12 45 30.52 44.44 31.09 44.44"/><polygon class="cls-14" points="28.7 42.74 28.32 42.37 28.73 42.23 29.27 42.74 28.7 42.74"/><polygon class="cls-3" points="31.21 44.93 34.01 42.3 34.22 42.37 31.41 45 31.21 44.93"/><polygon class="cls-2" points="31 44.85 33.8 42.23 34.01 42.3 31.21 44.93 31 44.85"/><polygon class="cls-14" points="31.44 44.44 31 44.85 31.41 45 32.01 44.44 31.44 44.44"/><polygon class="cls-14" points="33.83 42.74 34.22 42.37 33.8 42.23 33.26 42.74 33.83 42.74"/><polygon class="cls-3" points="34.42 44.93 31.62 42.3 31.41 42.37 34.21 45 34.42 44.93"/><polygon class="cls-2" points="34.63 44.85 31.82 42.23 31.62 42.3 34.42 44.93 34.63 44.85"/><polygon class="cls-14" points="34.19 44.44 34.63 44.85 34.21 45 33.62 44.44 34.19 44.44"/><polygon class="cls-14" points="31.8 42.74 31.41 42.37 31.82 42.23 32.36 42.74 31.8 42.74"/><polygon class="cls-3" points="34.38 44.93 37.19 42.3 37.39 42.37 34.59 45 34.38 44.93"/><polygon class="cls-2" points="34.18 44.85 36.98 42.23 37.19 42.3 34.38 44.93 34.18 44.85"/><polygon class="cls-14" points="34.62 44.44 34.18 44.85 34.59 45 35.19 44.44 34.62 44.44"/><polygon class="cls-14" points="37 42.74 37.39 42.37 36.98 42.23 36.44 42.74 37 42.74"/><polygon class="cls-3" points="37.6 44.93 34.8 42.3 34.59 42.37 37.39 45 37.6 44.93"/><polygon class="cls-2" points="37.8 44.85 35 42.23 34.8 42.3 37.6 44.93 37.8 44.85"/><polygon class="cls-14" points="37.36 44.44 37.8 44.85 37.39 45 36.79 44.44 37.36 44.44"/><polygon class="cls-14" points="34.98 42.74 34.59 42.37 35 42.23 35.54 42.74 34.98 42.74"/><rect class="cls-2" x="31.27" y="42.31" width="0.22" height="2.51"/><rect class="cls-3" x="31.06" y="42.31" width="0.22" height="2.51"/><rect class="cls-14" x="31.06" y="44.12" width="0.43" height="0.7"/><rect class="cls-14" x="31.06" y="42.31" width="0.43" height="0.45"/><rect class="cls-2" x="34.41" y="42.31" width="0.22" height="2.51"/><rect class="cls-3" x="34.19" y="42.31" width="0.22" height="2.51"/><rect class="cls-14" x="34.19" y="44.12" width="0.43" height="0.7"/><rect class="cls-14" x="34.19" y="42.31" width="0.43" height="0.45"/><polygon class="cls-3" points="37.52 44.93 40.32 42.3 40.53 42.37 37.73 45 37.52 44.93"/><polygon class="cls-2" points="37.31 44.85 40.12 42.23 40.32 42.3 37.52 44.93 37.31 44.85"/><polygon class="cls-14" points="37.76 44.44 37.31 44.85 37.73 45 38.33 44.44 37.76 44.44"/><polygon class="cls-14" points="40.14 42.74 40.53 42.37 40.12 42.23 39.58 42.74 40.14 42.74"/><polygon class="cls-3" points="40.74 44.93 37.93 42.3 37.73 42.37 40.53 45 40.74 44.93"/><polygon class="cls-2" points="40.95 44.85 38.14 42.23 37.93 42.3 40.74 44.93 40.95 44.85"/><polygon class="cls-14" points="40.5 44.44 40.95 44.85 40.53 45 39.93 44.44 40.5 44.44"/><polygon class="cls-14" points="38.12 42.74 37.73 42.37 38.14 42.23 38.68 42.74 38.12 42.74"/><polygon class="cls-3" points="40.7 44.93 43.5 42.3 43.71 42.37 40.91 45 40.7 44.93"/><polygon class="cls-2" points="40.49 44.85 43.29 42.23 43.5 42.3 40.7 44.93 40.49 44.85"/><polygon class="cls-14" points="40.94 44.44 40.49 44.85 40.91 45 41.5 44.44 40.94 44.44"/><polygon class="cls-14" points="43.32 42.74 43.71 42.37 43.29 42.23 42.75 42.74 43.32 42.74"/><polygon class="cls-3" points="43.91 44.93 41.11 42.3 40.9 42.37 43.7 45 43.91 44.93"/><polygon class="cls-2" points="44.12 44.85 41.32 42.23 41.11 42.3 43.91 44.93 44.12 44.85"/><polygon class="cls-14" points="43.68 44.44 44.12 44.85 43.7 45 43.11 44.44 43.68 44.44"/><polygon class="cls-14" points="41.29 42.74 40.9 42.37 41.32 42.23 41.86 42.74 41.29 42.74"/><rect class="cls-2" x="37.59" y="42.31" width="0.22" height="2.51"/><rect class="cls-3" x="37.37" y="42.31" width="0.22" height="2.51"/><rect class="cls-14" x="37.37" y="44.12" width="0.43" height="0.7"/><rect class="cls-14" x="37.37" y="42.31" width="0.43" height="0.45"/><rect class="cls-2" x="40.72" y="42.31" width="0.22" height="2.51"/><rect class="cls-3" x="40.5" y="42.31" width="0.22" height="2.51"/><rect class="cls-14" x="40.5" y="44.12" width="0.43" height="0.7"/><rect class="cls-14" x="40.5" y="42.31" width="0.43" height="0.45"/><polygon class="cls-3" points="43.82 44.93 46.63 42.3 46.83 42.37 44.03 45 43.82 44.93"/><polygon class="cls-2" points="43.62 44.85 46.42 42.23 46.63 42.3 43.82 44.93 43.62 44.85"/><polygon class="cls-14" points="44.06 44.44 43.62 44.85 44.03 45 44.63 44.44 44.06 44.44"/><polygon class="cls-14" points="46.44 42.74 46.83 42.37 46.42 42.23 45.88 42.74 46.44 42.74"/><polygon class="cls-3" points="47.04 44.93 44.23 42.3 44.03 42.37 46.83 45 47.04 44.93"/><polygon class="cls-2" points="47.24 44.85 44.44 42.23 44.23 42.3 47.04 44.93 47.24 44.85"/><polygon class="cls-14" points="46.8 44.44 47.24 44.85 46.83 45 46.23 44.44 46.8 44.44"/><polygon class="cls-14" points="44.42 42.74 44.03 42.37 44.44 42.23 44.98 42.74 44.42 42.74"/><polygon class="cls-3" points="49.73 42.36 47 44.93 47.21 45 49.73 42.63 49.73 42.36"/><polygon class="cls-2" points="49.73 42.27 49.59 42.23 46.79 44.85 47 44.93 49.73 42.36 49.73 42.27"/><polygon class="cls-14" points="47.23 44.44 46.79 44.85 47.21 45 47.8 44.44 47.23 44.44"/><polygon class="cls-14" points="49.73 42.27 49.59 42.23 49.05 42.74 49.62 42.74 49.73 42.63 49.73 42.27"/><polygon class="cls-3" points="49.73 44.47 47.41 42.3 47.2 42.37 49.73 44.74 49.73 44.47"/><polygon class="cls-2" points="49.73 44.21 47.62 42.23 47.41 42.3 49.73 44.47 49.73 44.21"/><polygon class="cls-14" points="49.73 44.44 49.41 44.44 49.73 44.74 49.73 44.44"/><polygon class="cls-14" points="47.59 42.74 47.2 42.37 47.62 42.23 48.16 42.74 47.59 42.74"/><rect class="cls-2" x="43.89" y="42.31" width="0.22" height="2.51"/><rect class="cls-3" x="43.67" y="42.31" width="0.21" height="2.51"/><rect class="cls-14" x="43.67" y="44.12" width="0.43" height="0.7"/><rect class="cls-14" x="43.67" y="42.31" width="0.43" height="0.45"/><rect class="cls-2" x="47.02" y="42.31" width="0.22" height="2.51"/><rect class="cls-3" x="46.81" y="42.31" width="0.22" height="2.51"/><rect class="cls-14" x="46.81" y="44.12" width="0.43" height="0.7"/><rect class="cls-14" x="46.81" y="42.31" width="0.43" height="0.45"/><rect class="cls-2" x="27.94" y="44.68" width="21.79" height="0.22"/><rect class="cls-3" x="27.94" y="44.9" width="21.79" height="0.22"/><rect class="cls-2" x="27.94" y="41.98" width="21.79" height="0.22"/><rect class="cls-3" x="27.94" y="42.2" width="21.79" height="0.22"/><polygon class="cls-3" points="28.11 60.73 30.91 58.1 31.12 58.17 28.32 60.8 28.11 60.73"/><polygon class="cls-2" points="27.9 60.66 30.7 58.03 30.91 58.1 28.11 60.73 27.9 60.66"/><polygon class="cls-14" points="28.35 60.25 27.9 60.66 28.32 60.8 28.91 60.25 28.35 60.25"/><polygon class="cls-14" points="30.73 58.55 31.12 58.17 30.7 58.03 30.16 58.55 30.73 58.55"/><polygon class="cls-3" points="31.32 60.73 28.52 58.1 28.32 58.17 31.12 60.8 31.32 60.73"/><polygon class="cls-2" points="31.53 60.66 28.73 58.03 28.52 58.1 31.32 60.73 31.53 60.66"/><polygon class="cls-14" points="31.09 60.25 31.53 60.66 31.12 60.8 30.52 60.25 31.09 60.25"/><polygon class="cls-14" points="28.7 58.55 28.32 58.17 28.73 58.03 29.27 58.55 28.7 58.55"/><polygon class="cls-3" points="31.21 60.73 34.01 58.1 34.22 58.17 31.41 60.8 31.21 60.73"/><polygon class="cls-2" points="31 60.66 33.8 58.03 34.01 58.1 31.21 60.73 31 60.66"/><polygon class="cls-14" points="31.44 60.25 31 60.66 31.41 60.8 32.01 60.25 31.44 60.25"/><polygon class="cls-14" points="33.83 58.55 34.22 58.17 33.8 58.03 33.26 58.55 33.83 58.55"/><polygon class="cls-3" points="34.42 60.73 31.62 58.1 31.41 58.17 34.21 60.8 34.42 60.73"/><polygon class="cls-2" points="34.63 60.66 31.82 58.03 31.62 58.1 34.42 60.73 34.63 60.66"/><polygon class="cls-14" points="34.19 60.25 34.63 60.66 34.21 60.8 33.62 60.25 34.19 60.25"/><polygon class="cls-14" points="31.8 58.55 31.41 58.17 31.82 58.03 32.36 58.55 31.8 58.55"/><polygon class="cls-3" points="34.38 60.73 37.19 58.1 37.39 58.17 34.59 60.8 34.38 60.73"/><polygon class="cls-2" points="34.18 60.66 36.98 58.03 37.19 58.1 34.38 60.73 34.18 60.66"/><polygon class="cls-14" points="34.62 60.25 34.18 60.66 34.59 60.8 35.19 60.25 34.62 60.25"/><polygon class="cls-14" points="37 58.55 37.39 58.17 36.98 58.03 36.44 58.55 37 58.55"/><polygon class="cls-3" points="37.6 60.73 34.8 58.1 34.59 58.17 37.39 60.8 37.6 60.73"/><polygon class="cls-2" points="37.8 60.66 35 58.03 34.8 58.1 37.6 60.73 37.8 60.66"/><polygon class="cls-14" points="37.36 60.25 37.8 60.66 37.39 60.8 36.79 60.25 37.36 60.25"/><polygon class="cls-14" points="34.98 58.55 34.59 58.17 35 58.03 35.54 58.55 34.98 58.55"/><rect class="cls-2" x="31.27" y="58.12" width="0.22" height="2.5"/><rect class="cls-3" x="31.06" y="58.12" width="0.22" height="2.5"/><rect class="cls-14" x="31.06" y="59.92" width="0.43" height="0.7"/><rect class="cls-14" x="31.06" y="58.12" width="0.43" height="0.45"/><rect class="cls-2" x="34.41" y="58.12" width="0.22" height="2.5"/><rect class="cls-3" x="34.19" y="58.12" width="0.22" height="2.5"/><rect class="cls-14" x="34.19" y="59.92" width="0.43" height="0.7"/><rect class="cls-14" x="34.19" y="58.12" width="0.43" height="0.45"/><polygon class="cls-3" points="37.52 60.73 40.32 58.1 40.53 58.17 37.73 60.8 37.52 60.73"/><polygon class="cls-2" points="37.31 60.66 40.12 58.03 40.32 58.1 37.52 60.73 37.31 60.66"/><polygon class="cls-14" points="37.76 60.25 37.31 60.66 37.73 60.8 38.33 60.25 37.76 60.25"/><polygon class="cls-14" points="40.14 58.55 40.53 58.17 40.12 58.03 39.58 58.55 40.14 58.55"/><polygon class="cls-3" points="40.74 60.73 37.93 58.1 37.73 58.17 40.53 60.8 40.74 60.73"/><polygon class="cls-2" points="40.95 60.66 38.14 58.03 37.93 58.1 40.74 60.73 40.95 60.66"/><polygon class="cls-14" points="40.5 60.25 40.95 60.66 40.53 60.8 39.93 60.25 40.5 60.25"/><polygon class="cls-14" points="38.12 58.55 37.73 58.17 38.14 58.03 38.68 58.55 38.12 58.55"/><polygon class="cls-3" points="40.7 60.73 43.5 58.1 43.71 58.17 40.91 60.8 40.7 60.73"/><polygon class="cls-2" points="40.49 60.66 43.29 58.03 43.5 58.1 40.7 60.73 40.49 60.66"/><polygon class="cls-14" points="40.94 60.25 40.49 60.66 40.91 60.8 41.5 60.25 40.94 60.25"/><polygon class="cls-14" points="43.32 58.55 43.71 58.17 43.29 58.03 42.75 58.55 43.32 58.55"/><polygon class="cls-3" points="43.91 60.73 41.11 58.1 40.9 58.17 43.7 60.8 43.91 60.73"/><polygon class="cls-2" points="44.12 60.66 41.32 58.03 41.11 58.1 43.91 60.73 44.12 60.66"/><polygon class="cls-14" points="43.68 60.25 44.12 60.66 43.7 60.8 43.11 60.25 43.68 60.25"/><polygon class="cls-14" points="41.29 58.55 40.9 58.17 41.32 58.03 41.86 58.55 41.29 58.55"/><rect class="cls-2" x="37.59" y="58.12" width="0.22" height="2.5"/><rect class="cls-3" x="37.37" y="58.12" width="0.22" height="2.5"/><rect class="cls-14" x="37.37" y="59.92" width="0.43" height="0.7"/><rect class="cls-14" x="37.37" y="58.12" width="0.43" height="0.45"/><rect class="cls-2" x="40.72" y="58.12" width="0.22" height="2.5"/><rect class="cls-3" x="40.5" y="58.12" width="0.22" height="2.5"/><rect class="cls-14" x="40.5" y="59.92" width="0.43" height="0.7"/><rect class="cls-14" x="40.5" y="58.12" width="0.43" height="0.45"/><polygon class="cls-3" points="43.82 60.73 46.63 58.1 46.83 58.17 44.03 60.8 43.82 60.73"/><polygon class="cls-2" points="43.62 60.66 46.42 58.03 46.63 58.1 43.82 60.73 43.62 60.66"/><polygon class="cls-14" points="44.06 60.25 43.62 60.66 44.03 60.8 44.63 60.25 44.06 60.25"/><polygon class="cls-14" points="46.44 58.55 46.83 58.17 46.42 58.03 45.88 58.55 46.44 58.55"/><polygon class="cls-3" points="47.04 60.73 44.23 58.1 44.03 58.17 46.83 60.8 47.04 60.73"/><polygon class="cls-2" points="47.24 60.66 44.44 58.03 44.23 58.1 47.04 60.73 47.24 60.66"/><polygon class="cls-14" points="46.8 60.25 47.24 60.66 46.83 60.8 46.23 60.25 46.8 60.25"/><polygon class="cls-14" points="44.42 58.55 44.03 58.17 44.44 58.03 44.98 58.55 44.42 58.55"/><polygon class="cls-3" points="49.73 58.17 47 60.73 47.21 60.8 49.73 58.43 49.73 58.17"/><polygon class="cls-2" points="49.73 58.08 49.59 58.03 46.79 60.66 47 60.73 49.73 58.17 49.73 58.08"/><polygon class="cls-14" points="47.23 60.25 46.79 60.66 47.21 60.8 47.8 60.25 47.23 60.25"/><polygon class="cls-14" points="49.73 58.08 49.59 58.03 49.05 58.55 49.62 58.55 49.73 58.44 49.73 58.08"/><polygon class="cls-3" points="49.73 60.28 47.41 58.1 47.2 58.17 49.73 60.55 49.73 60.28"/><polygon class="cls-2" points="49.73 60.01 47.62 58.03 47.41 58.1 49.73 60.28 49.73 60.01"/><polygon class="cls-14" points="49.73 60.25 49.41 60.25 49.73 60.55 49.73 60.25"/><polygon class="cls-14" points="47.59 58.55 47.2 58.17 47.62 58.03 48.16 58.55 47.59 58.55"/><rect class="cls-2" x="43.89" y="58.12" width="0.22" height="2.5"/><rect class="cls-3" x="43.67" y="58.12" width="0.21" height="2.5"/><rect class="cls-14" x="43.67" y="59.92" width="0.43" height="0.7"/><rect class="cls-14" x="43.67" y="58.12" width="0.43" height="0.45"/><rect class="cls-2" x="47.02" y="58.12" width="0.22" height="2.5"/><rect class="cls-3" x="46.81" y="58.12" width="0.22" height="2.5"/><rect class="cls-14" x="46.81" y="59.92" width="0.43" height="0.7"/><rect class="cls-14" x="46.81" y="58.12" width="0.43" height="0.45"/><rect class="cls-2" x="27.94" y="60.49" width="21.79" height="0.22"/><rect class="cls-3" x="27.94" y="60.71" width="21.79" height="0.22"/><rect class="cls-2" x="27.94" y="57.79" width="21.79" height="0.22"/><rect class="cls-3" x="27.94" y="58.01" width="21.79" height="0.22"/><rect class="cls-2" x="49.59" y="21.7" width="0.29" height="48.51"/><rect class="cls-3" x="49.3" y="21.7" width="0.29" height="48.51"/><polygon class="cls-15" points="26.94 22.25 50.82 22.25 49.68 17.39 28.47 17.39 26.94 22.25"/><polygon class="cls-8" points="49.77 17.77 49.68 17.39 28.47 17.39 28.35 17.77 49.77 17.77"/><path class="cls-16" d="M39.2,21.69a19.73,19.73,0,0,1-7.12-1.1,9.92,9.92,0,0,1-3.82-2.52l-1.32,4.18H50.82L50,18.72C47,21.12,43,21.76,39.2,21.69Z"/><rect class="cls-17" x="27.84" y="26.98" width="6.84" height="5.22"/><rect class="cls-18" x="27.84" y="26.98" width="0.71" height="5.22"/><rect class="cls-18" x="29.36" y="26.98" width="0.79" height="5.22"/><rect class="cls-18" x="30.96" y="26.98" width="0.78" height="5.22"/><rect class="cls-18" x="32.55" y="26.98" width="0.78" height="5.22"/><rect class="cls-18" x="34.15" y="26.98" width="0.53" height="5.22"/><rect class="cls-19" x="27.84" y="26.98" width="6.84" height="5.22"/><rect class="cls-17" x="33.9" y="26.98" width="6.84" height="5.22"/><rect class="cls-18" x="33.9" y="26.98" width="0.7" height="5.22"/><rect class="cls-18" x="35.42" y="26.98" width="0.78" height="5.22"/><rect class="cls-18" x="37.02" y="26.98" width="0.78" height="5.22"/><rect class="cls-18" x="38.61" y="26.98" width="0.78" height="5.22"/><rect class="cls-18" x="40.21" y="26.98" width="0.53" height="5.22"/><g class="cls-20"><rect class="cls-21" x="33.9" y="26.98" width="6.84" height="0.41"/></g><path class="cls-22" d="M40.6,28.93a9,9,0,0,1-.33,1.12,2.67,2.67,0,0,1-.56,1,3,3,0,0,1-.93.57,4,4,0,0,1-2.18.27,3.07,3.07,0,0,1-1-.33,3.14,3.14,0,0,1-.87-.74,4.18,4.18,0,0,1-.85-1.91V32.2h6.84V28.14C40.7,28.4,40.66,28.67,40.6,28.93Z"/><rect class="cls-7" x="40.59" y="26.48" width="0.42" height="5.92"/><rect class="cls-7" x="33.8" y="26.48" width="0.42" height="5.92"/><path class="cls-23" d="M33.39,24a4.92,4.92,0,0,0-2.21-.55l-.86,0a3.82,3.82,0,0,0-1.91,1.24,4.4,4.4,0,0,0-.77,2.31h6.57a6.63,6.63,0,0,1,.29-1.7A2.42,2.42,0,0,0,33.39,24Z"/><path class="cls-23" d="M33.39,24l-.08,0a3.73,3.73,0,0,0-1.14,3.07h2a6.63,6.63,0,0,1,.29-1.7A2.42,2.42,0,0,0,33.39,24Z"/><path class="cls-24" d="M33.31,24a4.44,4.44,0,0,0-1.45-.45c-2,.74-2,3.06-2,3.52h2.27A3.73,3.73,0,0,1,33.31,24Z"/><path class="cls-23" d="M31.86,23.53c-.23,0-.45-.05-.68-.06l-1,0h-.31c-2.09.72-2,3.07-2,3.54h2C29.87,26.59,29.82,24.27,31.86,23.53Z"/><path class="cls-25" d="M33.39,24l-.08,0-.08,0a1.21,1.21,0,0,0-.2-.09l-.1-.05-.13,0-.11,0-.2-.06-.11,0-.12,0-.15,0-.17,0h-.11l-.27,0H31.5l-.32,0h0l-.86,0h-.44a2.78,2.78,0,0,0-1.7,1.59,4.74,4.74,0,0,0-.54,1.95h6.57a6.63,6.63,0,0,1,.29-1.7A2.42,2.42,0,0,0,33.39,24Z"/><path class="cls-26" d="M29.25,25.63a3,3,0,0,1,3-1.11,3.11,3.11,0,0,1,2.09,1.55,5.05,5.05,0,0,1,.18-.72A2.42,2.42,0,0,0,33.39,24l-.08,0-.08,0a1.21,1.21,0,0,0-.2-.09l-.1-.05-.13,0-.11,0-.2-.06-.11,0-.12,0-.15,0-.17,0h-.11l-.27,0H31.5l-.32,0h0l-.86,0h-.44a2.78,2.78,0,0,0-1.7,1.59,4.74,4.74,0,0,0-.54,1.95h1.11A2.73,2.73,0,0,1,29.25,25.63Z"/><path class="cls-8" d="M31.12,23.3l8.29.23a2.37,2.37,0,0,1,2,2.22,8.84,8.84,0,0,1,0,1.3H34.2a4.71,4.71,0,0,0-.85-2.69A5.13,5.13,0,0,0,31.12,23.3Z"/><path class="cls-15" d="M36.3,23.45l-2.58-.07c2.61.48,2.56,3.17,2.52,3.67h2.27C38.54,26.57,38.59,24.08,36.3,23.45Z"/><path class="cls-8" d="M38.53,23.51l-2.23-.06c2.29.63,2.24,3.12,2.21,3.6h2C40.57,26.58,40.62,24.23,38.53,23.51Z"/><path class="cls-15" d="M41.39,25.75a2.37,2.37,0,0,0-2-2.22l-.88,0c2.09.72,2,3.07,2,3.54h.88A8.84,8.84,0,0,0,41.39,25.75Z"/><path class="cls-27" d="M32.59,23.76c.38.16.62.49,1,.67a6.65,6.65,0,0,0,1.27.52,7.82,7.82,0,0,0,2.5.28,10.06,10.06,0,0,0,3.55-.82,2.31,2.31,0,0,0-1.47-.88l-8.29-.23a6.7,6.7,0,0,1,1.3.44A.35.35,0,0,1,32.59,23.76Z"/><path class="cls-2" d="M33.76,27.13h.61s.43-3.74-3.25-3.83-3.62,3.12-3.67,3.79H28s-.18-3.47,3.09-3.34C34.07,23.86,33.76,27.13,33.76,27.13Z"/><path class="cls-28" d="M45.92,24.09a2.93,2.93,0,0,0,.77.83c0-.25,0-.53,0-.79a2.74,2.74,0,0,1,0-.28.29.29,0,0,0,0-.09,9,9,0,0,1-.89.25Z"/><path class="cls-29" d="M47.23,23.68q.23.22.42.45a1.72,1.72,0,0,0,.3.35,6.54,6.54,0,0,1,.17-.86,2.52,2.52,0,0,1,.06-.29s0-.07,0-.11c-.34.15-.68.28-1,.4Z"/><path class="cls-28" d="M48.38,23.14a.56.56,0,0,1,0,.08,2.37,2.37,0,0,0,.61.68c0-.38.13-.73.17-1.1v-.11A6,6,0,0,1,48.38,23.14Z"/><path class="cls-30" d="M41.43,24.12s0,.05,0,.07A6.8,6.8,0,0,0,42,25.3a3.87,3.87,0,0,0,.27-1,.14.14,0,0,1,0-.06c-.27,0-.54-.06-.8-.11Z"/><path class="cls-29" d="M44.22,24.26a.25.25,0,0,0,0,.07c.19.34.46.67.68,1a6,6,0,0,1,.27-1.09.19.19,0,0,0,0-.08c-.3.05-.6.09-.9.11Z"/><path class="cls-8" d="M42.83,24.27s0,0,0,.06c.13.37.42.67.58,1a4.23,4.23,0,0,1,.22-1,.64.64,0,0,1,0-.07C43.39,24.29,43.11,24.28,42.83,24.27Z"/><path class="cls-15" d="M33.76,27.13s0-.15,0-.39c-3.29.15-9.17.79-13.5,3.27-6.35,3.63-9.38,8.52-4.63,16.18.42.68.82,1.33,1.2,2-.33-.71-.65-1.36-.94-1.9-1.51-2.84-1.45-8.79,3.24-11.69A27.19,27.19,0,0,1,33.8,29.85V27.13Z"/><path class="cls-15" d="M.25,38.8C-.54,45.4,5,47.19,4.74,57,4.6,62.16,3.07,64.7.41,66l0,0c-.4.33-.76.86.43,2.61a9.63,9.63,0,0,0,6.87,3.86,10.59,10.59,0,0,0,8.72-2.94c.46-.4,1.29-.88,1.62-1.19l.33-.59c4.22-8,2.44-13-1.51-19.64-.38-.64-.78-1.29-1.2-2C10.89,38.53,13.92,33.64,20.27,30c4.33-2.48,10.21-3.12,13.5-3.27a.38.38,0,0,0,0-.1C9.39,26.2,1,32.4.25,38.8Z"/><path class="cls-31" d="M18.24,68l-.22.39A1.36,1.36,0,0,0,18.24,68Z"/><path class="cls-32" d="M19.26,27.52c3.47-.5,6.79-.74,9.09-.87h.8A87.67,87.67,0,0,0,19,27.36a.35.35,0,0,1,.18.1Z"/><path class="cls-33" d="M9.17,30a42.85,42.85,0,0,1,10-2.5.57.57,0,0,0-.26-.16,42.59,42.59,0,0,0-10,2.48l.2.08Z"/><path class="cls-33" d="M17,49.47a.83.83,0,0,0-.26.35,15.15,15.15,0,0,1,2.75,8.5c0,.34,0,.66,0,1a1.08,1.08,0,0,1,.59-.51,1,1,0,0,1,.74.17c-.07-3.16-1.25-6.07-3.06-9.3C17.52,49.43,17.27,49.25,17,49.47Z"/><path class="cls-34" d="M19.7,59.14a3.07,3.07,0,0,0-.27.36c-.23,6.07-2.25,7.79-2.25,7.79-1.27.71-2.68,4.18-8.06,4.4S2,68.2,1.69,67.27A1.77,1.77,0,0,0,1.54,67a10.54,10.54,0,0,0,3.52-5.45v0c-.26-.33-.61-.23-.94,0A7,7,0,0,1,.41,66l0,0c-.4.33-.76.86.43,2.61a9.63,9.63,0,0,0,6.87,3.86,10.59,10.59,0,0,0,8.72-2.94c.46-.4,1.29-.88,1.62-1.19l.33-.59a17.87,17.87,0,0,0,2.43-8.7,1.25,1.25,0,0,0-.53-.15A.58.58,0,0,0,19.7,59.14Z"/><path class="cls-32" d="M4.35,51a.73.73,0,0,1,.47-.09,29.44,29.44,0,0,0-2-5,15.07,15.07,0,0,1-1.73-5.89C1,39.82.9,39.5.63,39.48a.55.55,0,0,0-.45.18C0,44.11,2.81,46.38,4.11,51.22A1.12,1.12,0,0,1,4.35,51Z"/><path class="cls-32" d="M12.65,42.11c0,.18.11.36.17.55.87,2.75,2.43,4.84,3.82,7a.69.69,0,0,1,.43-.42.57.57,0,0,1,.43,0c-.21-.38-.43-.75-.66-1.14-.38-.64-.78-1.29-1.2-2a16.17,16.17,0,0,1-2-4.34C13.41,41.73,13,41.89,12.65,42.11Z"/><path class="cls-33" d="M5.11,61.34c.09-.36.17-.74.23-1.14a20.67,20.67,0,0,0-.49-9.14.53.53,0,0,0-.41,0,1,1,0,0,0-.3.23A20.32,20.32,0,0,1,4.74,57a17.65,17.65,0,0,1-.59,4.31,1,1,0,0,1,.55-.18A.58.58,0,0,1,5.11,61.34Z"/><path class="cls-34" d="M1.08,39.72c0-3.61,2-6.81,7.23-9.3.24-.11.49-.23.75-.33a.67.67,0,0,0-.36-.17C3.08,32.23.65,35.49.25,38.8c0,.25,0,.49-.07.73a.73.73,0,0,1,.26-.14A.56.56,0,0,1,1.08,39.72Z"/><path class="cls-15" d="M10.39,36.09a4.55,4.55,0,0,1-.85-2.5,11.73,11.73,0,0,1-.11-1.33c0-.37,0-.74,0-1.11a1.86,1.86,0,0,0-.28-1,.6.6,0,0,0-.08-.08c-.26.1-.51.22-.75.33-5.24,2.49-7.26,5.69-7.23,9.3a1.09,1.09,0,0,1,.08.15,7.66,7.66,0,0,0,.7,1.51A5,5,0,0,0,3,42.61c2.23,1.73,5.45,1.6,7.92.49.63-.28,1.13-.77,1.73-1.11a9.33,9.33,0,0,1-.06-4.94A2.64,2.64,0,0,1,10.39,36.09Z"/><path class="cls-35" d="M9,43.86a8.09,8.09,0,0,1-3.85-.07,5.92,5.92,0,0,1-3.11-2,7.19,7.19,0,0,1-.91-1.59,1.31,1.31,0,0,0,0-.15A15.07,15.07,0,0,0,2.82,46a29.44,29.44,0,0,1,2,5,1.27,1.27,0,0,1,.45.2c.41.27.78.6,1.19.87a9.9,9.9,0,0,0,1.63.81c2.06.81,4.58,1.13,6.57-.07a4.43,4.43,0,0,0,1.17-1,4.6,4.6,0,0,0,.46-.74,3.1,3.1,0,0,0,.18-.68,2.7,2.7,0,0,1,.17-.6c-1.39-2.2-3-4.29-3.82-7-.06-.19-.12-.37-.17-.55a8.08,8.08,0,0,0-.84.59A7.28,7.28,0,0,1,9,43.86Z"/><path class="cls-36" d="M16.37,51.1a4.4,4.4,0,0,1-.48.76,5.91,5.91,0,0,1-5.49,1.69A10.77,10.77,0,0,1,6.79,52.3a10.2,10.2,0,0,1-.9-.54c-.2-.15-.38-.31-.58-.45a1.86,1.86,0,0,0-.46-.25,20.67,20.67,0,0,1,.49,9.14c-.06.4-.14.78-.23,1.14l.12.17a5.42,5.42,0,0,0,.5.78A5.28,5.28,0,0,0,9.51,64a18.6,18.6,0,0,0,2,.06,15.43,15.43,0,0,0,2.15-.15,8,8,0,0,0,3.63-1.61,5.53,5.53,0,0,0,1.26-1.34c.29-.43.49-.91.75-1.35l.17-.28c0-.32,0-.64,0-1a15.15,15.15,0,0,0-2.75-8.5,3.07,3.07,0,0,0-.13.5A3.11,3.11,0,0,1,16.37,51.1Z"/><path class="cls-35" d="M33.4,26.63H30.78l-1.6,0h-.83c-2.3.13-5.62.37-9.09.87a.69.69,0,0,1,.08.45c0,.6-.2,1.43.25,1.92l.81-.41a28.14,28.14,0,0,1,10.81-2.55c.95-.1,1.8-.15,2.54-.19h0a.38.38,0,0,0,0-.1Z"/><path class="cls-36" d="M19.19,28.7a6.85,6.85,0,0,0,0-.91.44.44,0,0,0-.11-.25,42.85,42.85,0,0,0-10,2.5,1.18,1.18,0,0,1,.29.58,16.73,16.73,0,0,1,.11,2.12,7,7,0,0,0,.59,2.8,2.68,2.68,0,0,0,1,1,2.64,2.64,0,0,0,1.41.37c.83-2.75,3.16-5,6.91-7A1.77,1.77,0,0,1,19.19,28.7Z"/><path class="cls-15" d="M17.06,62.6A8.3,8.3,0,0,1,13.55,64a17.73,17.73,0,0,1-4,.09A6,6,0,0,1,6.14,63a4.35,4.35,0,0,1-.69-.79c-.14-.21-.24-.46-.39-.66A10.54,10.54,0,0,1,1.54,67a1.77,1.77,0,0,1,.15.31c.35.93,2.06,4.65,7.43,4.42s6.79-3.69,8.06-4.4c0,0,2-1.72,2.25-7.79a7.29,7.29,0,0,0-.37.74A5.66,5.66,0,0,1,17.06,62.6Z"/><path class="cls-11" d="M20,58.79a1.08,1.08,0,0,0-.59.51,1.27,1.27,0,0,1,0,.2,3.07,3.07,0,0,1,.27-.36.58.58,0,0,1,.55-.19,1.25,1.25,0,0,1,.53.15.66.66,0,0,0,0-.14A1,1,0,0,0,20,58.79Z"/><path class="cls-37" d="M20,58.79a1.08,1.08,0,0,0-.59.51,1.27,1.27,0,0,1,0,.2,3.07,3.07,0,0,1,.27-.36.58.58,0,0,1,.55-.19,1.25,1.25,0,0,1,.53.15.66.66,0,0,0,0-.14A1,1,0,0,0,20,58.79Z"/><path class="cls-11" d="M5.05,61.49v0s0-.11.05-.17a.58.58,0,0,0-.41-.18,1,1,0,0,0-.55.18l0,.12C4.44,61.26,4.79,61.16,5.05,61.49Z"/><path class="cls-37" d="M5.05,61.49v0s0-.11.05-.17a.58.58,0,0,0-.41-.18,1,1,0,0,0-.55.18l0,.12C4.44,61.26,4.79,61.16,5.05,61.49Z"/><path class="cls-11" d="M18.52,60.93a5.53,5.53,0,0,1-1.26,1.34,8,8,0,0,1-3.63,1.61,15.43,15.43,0,0,1-2.15.15,18.6,18.6,0,0,1-2-.06,5.28,5.28,0,0,1-3.78-1.68,5.42,5.42,0,0,1-.5-.78l-.12-.17c0,.06,0,.12-.05.17.15.2.25.45.39.66a4.35,4.35,0,0,0,.69.79,6,6,0,0,0,3.42,1.15,17.73,17.73,0,0,0,4-.09,8.3,8.3,0,0,0,3.51-1.42,5.66,5.66,0,0,0,2-2.36,7.29,7.29,0,0,1,.37-.74,1.27,1.27,0,0,0,0-.2l-.17.28C19,60,18.81,60.5,18.52,60.93Z"/><path class="cls-37" d="M18.52,60.93a5.53,5.53,0,0,1-1.26,1.34,8,8,0,0,1-3.63,1.61,15.43,15.43,0,0,1-2.15.15,18.6,18.6,0,0,1-2-.06,5.28,5.28,0,0,1-3.78-1.68,5.42,5.42,0,0,1-.5-.78l-.12-.17c0,.06,0,.12-.05.17.15.2.25.45.39.66a4.35,4.35,0,0,0,.69.79,6,6,0,0,0,3.42,1.15,17.73,17.73,0,0,0,4-.09,8.3,8.3,0,0,0,3.51-1.42,5.66,5.66,0,0,0,2-2.36,7.29,7.29,0,0,1,.37-.74,1.27,1.27,0,0,0,0-.2l-.17.28C19,60,18.81,60.5,18.52,60.93Z"/><path class="cls-37" d="M4.44,51.08a.53.53,0,0,1,.41,0l0-.12a.73.73,0,0,0-.47.09,1.12,1.12,0,0,0-.24.19l0,.09A1,1,0,0,1,4.44,51.08Z"/><path class="cls-37" d="M17.07,49.28a.69.69,0,0,0-.43.42.75.75,0,0,0,.07.12.83.83,0,0,1,.26-.35c.3-.22.55,0,.74.19l-.21-.36A.57.57,0,0,0,17.07,49.28Z"/><path class="cls-37" d="M16.29,51a4.6,4.6,0,0,1-.46.74,4.43,4.43,0,0,1-1.17,1c-2,1.2-4.51.88-6.57.07A9.9,9.9,0,0,1,6.46,52c-.41-.27-.78-.6-1.19-.87a1.27,1.27,0,0,0-.45-.2l0,.12a1.86,1.86,0,0,1,.46.25c.2.14.38.3.58.45a10.2,10.2,0,0,0,.9.54,10.77,10.77,0,0,0,3.61,1.25,5.91,5.91,0,0,0,5.49-1.69,4.4,4.4,0,0,0,.48-.76,3.11,3.11,0,0,0,.21-.78,3.07,3.07,0,0,1,.13-.5.75.75,0,0,1-.07-.12,2.7,2.7,0,0,0-.17.6A3.1,3.1,0,0,1,16.29,51Z"/><path class="cls-37" d="M.63,39.48c.27,0,.38.34.46.58,0-.11,0-.23,0-.34a.56.56,0,0,0-.64-.33.73.73,0,0,0-.26.14v.13A.55.55,0,0,1,.63,39.48Z"/><path class="cls-37" d="M12.77,41.9l-.15.09,0,.12c.37-.22.76-.38,1-.26,0-.05,0-.1,0-.15A1.33,1.33,0,0,0,12.77,41.9Z"/><path class="cls-37" d="M3,42.61a5,5,0,0,1-1.11-1.23,7.66,7.66,0,0,1-.7-1.51,1.09,1.09,0,0,0-.08-.15c0,.11,0,.23,0,.34a1.31,1.31,0,0,1,0,.15,7.19,7.19,0,0,0,.91,1.59,5.92,5.92,0,0,0,3.11,2A8.09,8.09,0,0,0,9,43.86a7.28,7.28,0,0,0,2.8-1.16,8.08,8.08,0,0,1,.84-.59l0-.12c-.6.34-1.1.83-1.73,1.11C8.42,44.21,5.2,44.34,3,42.61Z"/><path class="cls-37" d="M9.17,30,9,29.94l-.2-.08-.14.06a.67.67,0,0,1,.36.17Z"/><path class="cls-32" d="M27.08,27.57a39.5,39.5,0,0,1,4.13-.64,33.34,33.34,0,0,0-4.3.48h0A.61.61,0,0,1,27.08,27.57Z"/><path class="cls-37" d="M26.92,27.41h0l-.21,0a.38.38,0,0,1,.29.14l.09,0A.61.61,0,0,0,26.92,27.41Z"/><path class="cls-37" d="M11.18,36.58a2.68,2.68,0,0,1-1-1,7,7,0,0,1-.59-2.8,16.73,16.73,0,0,0-.11-2.12A1.18,1.18,0,0,0,9.17,30l-.11.05a.6.6,0,0,1,.08.08,1.86,1.86,0,0,1,.28,1c0,.37,0,.74,0,1.11a11.73,11.73,0,0,0,.11,1.33,4.55,4.55,0,0,0,.85,2.5,2.64,2.64,0,0,0,2.17,1,.29.29,0,0,0,0-.1A2.64,2.64,0,0,1,11.18,36.58Z"/><path class="cls-37" d="M19.13,27.54l.13,0-.05-.06a.35.35,0,0,0-.18-.1l-.16,0A.57.57,0,0,1,19.13,27.54Z"/><path class="cls-37" d="M17.13,31.36l-.12.08a4.6,4.6,0,0,1,.63.31.27.27,0,0,1,.08-.07A1.88,1.88,0,0,0,17.13,31.36Z"/><path class="cls-34" d="M12.59,37a.29.29,0,0,1,0,.1A9.33,9.33,0,0,0,12.62,42l.15-.09a1.33,1.33,0,0,1,.86-.2c-1.07-4.18.66-7.37,4-10a4.6,4.6,0,0,0-.63-.31A10.7,10.7,0,0,0,12.59,37Z"/><path class="cls-33" d="M26.7,27.45a25.33,25.33,0,0,0-6.3,2l-.81.41-.09.05a21.83,21.83,0,0,0-2.37,1.42,1.88,1.88,0,0,1,.59.32A22.48,22.48,0,0,1,20.27,30,23.5,23.5,0,0,1,27,27.59.38.38,0,0,0,26.7,27.45Z"/><path class="cls-37" d="M19.34,28a.69.69,0,0,0-.08-.45l-.13,0a.44.44,0,0,1,.11.25,6.85,6.85,0,0,1,0,.91,1.77,1.77,0,0,0,.31,1.24l.09-.05C19.14,29.4,19.34,28.57,19.34,28Z"/><path class="cls-38" d="M17.18,67.29c-1.27.71-2.68,4.18-8.06,4.4S2,68.2,1.69,67.27A1.77,1.77,0,0,0,1.54,67C1.11,66.27.27,66,0,66.55c-.1.39,0,1,.78,2.11a9.63,9.63,0,0,0,6.87,3.86,10.59,10.59,0,0,0,8.72-2.94c.46-.4,1.29-.88,1.62-1.19l.22-.39C18.46,67.39,18.2,66.7,17.18,67.29Z"/><path class="cls-39" d="M15.25,28C4.88,30.12.77,34.41.25,38.8-.54,45.4,5,47.19,4.74,57,4.6,62.16,3.07,64.7.41,66l0,0a1,1,0,0,0-.27.3H.16c.29-.28.85-.06,1.23.4A10.6,10.6,0,0,0,4.84,60.3c.6-4.1.53-8.14-2.51-14.25S-.3,34.38,7.81,30.52a34.35,34.35,0,0,1,7.8-2.37,82.58,82.58,0,0,1,9.94-1.31A69.59,69.59,0,0,0,15.25,28Z"/><path class="cls-39" d="M13.26,42.66c-1.83-5.75.85-9.91,7.58-13.18A27.64,27.64,0,0,1,30.68,27l.53-.06A28.14,28.14,0,0,0,20.4,29.48c-6.74,3.27-9.42,7.43-7.58,13.18s6.64,8.62,6.64,15.66-2.28,9-2.28,9a1.45,1.45,0,0,1,.65-.23c.56-.67,2.07-3,2.07-8.74C19.9,51.28,15.1,48.41,13.26,42.66Z"/><path class="cls-36" d="M27.1,28.28a1.17,1.17,0,0,0-.1-.67v0A23.5,23.5,0,0,0,20.27,30a23,23,0,0,0-2.58,1.69,3,3,0,0,1,.21,1.63,13.51,13.51,0,0,1-.31,2.09c0,.17-.09.35-.14.52a8.57,8.57,0,0,1,1.69-1.37,30.83,30.83,0,0,1,7.28-3.52,2.86,2.86,0,0,0,.51-1.2A7.55,7.55,0,0,0,27.1,28.28Z"/><path class="cls-15" d="M17.75,33.62a3.73,3.73,0,0,0-.11-1.73.37.37,0,0,0-.05-.11c-3.32,2.58-5,5.77-3.95,9.95l.1.05a1.3,1.3,0,0,1,.41.43q.24.34.45.69l.53.9a9.47,9.47,0,0,1,2.11-7.63c.07-.23.14-.46.2-.71A14.13,14.13,0,0,0,17.75,33.62Z"/><path class="cls-35" d="M14,42.13a1.18,1.18,0,0,0-.3-.29,16.22,16.22,0,0,0,2,4.35c.42.68.82,1.33,1.2,2-.33-.71-.65-1.36-.94-1.9a7.68,7.68,0,0,1-.72-2.2c-.13-.21-.26-.42-.38-.63A12.47,12.47,0,0,0,14,42.13Z"/><path class="cls-35" d="M33.76,27.13s0-.15,0-.39a42.41,42.41,0,0,0-6.69.83.64.64,0,0,1,.1.24,5.4,5.4,0,0,1-.06,1.7A3.79,3.79,0,0,1,26.65,31a29.84,29.84,0,0,1,7.15-1.13V27.13Z"/><path class="cls-37" d="M17.9,33.33a3,3,0,0,0-.21-1.63l-.1.08a.37.37,0,0,1,.05.11,3.73,3.73,0,0,1,.11,1.73,14.13,14.13,0,0,1-.31,1.84c-.06.25-.13.48-.2.71a2.29,2.29,0,0,1,.21-.23c.05-.17.1-.35.14-.52A13.51,13.51,0,0,0,17.9,33.33Z"/><path class="cls-37" d="M27.18,27.81a.64.64,0,0,0-.1-.24l-.09,0v0a1.17,1.17,0,0,1,.1.67,7.55,7.55,0,0,1-.17,1.57,2.86,2.86,0,0,1-.51,1.2l.23-.07a3.79,3.79,0,0,0,.47-1.47A5.4,5.4,0,0,0,27.18,27.81Z"/><path class="cls-37" d="M14.15,42.21a1.3,1.3,0,0,0-.41-.43l-.1-.05,0,.11a1.18,1.18,0,0,1,.3.29,12.47,12.47,0,0,1,.83,1.3c.12.21.25.42.38.63,0-.09,0-.17,0-.26l-.53-.9Q14.39,42.56,14.15,42.21Z"/><g class="cls-40"><path class="cls-41" d="M27.1,28.28a1.17,1.17,0,0,0-.1-.67v0A23.5,23.5,0,0,0,20.27,30a23,23,0,0,0-2.58,1.69,3,3,0,0,1,.21,1.63,13.51,13.51,0,0,1-.31,2.09c0,.17-.09.35-.14.52a8.57,8.57,0,0,1,1.69-1.37,30.83,30.83,0,0,1,7.28-3.52,2.86,2.86,0,0,0,.51-1.2A7.55,7.55,0,0,0,27.1,28.28Z"/><path class="cls-42" d="M17.75,33.62a3.73,3.73,0,0,0-.11-1.73.37.37,0,0,0-.05-.11c-3.32,2.58-5,5.77-3.95,9.95l.1.05a1.3,1.3,0,0,1,.41.43q.24.34.45.69l.53.9a9.47,9.47,0,0,1,2.11-7.63c.07-.23.14-.46.2-.71A14.13,14.13,0,0,0,17.75,33.62Z"/><path class="cls-43" d="M14,42.13a1.18,1.18,0,0,0-.3-.29,16.22,16.22,0,0,0,2,4.35c.42.68.82,1.33,1.2,2-.33-.71-.65-1.36-.94-1.9a7.68,7.68,0,0,1-.72-2.2c-.13-.21-.26-.42-.38-.63A12.47,12.47,0,0,0,14,42.13Z"/><path class="cls-43" d="M33.76,27.13s0-.15,0-.39a42.41,42.41,0,0,0-6.69.83.64.64,0,0,1,.1.24,5.4,5.4,0,0,1-.06,1.7A3.79,3.79,0,0,1,26.65,31a29.84,29.84,0,0,1,7.15-1.13V27.13Z"/><path class="cls-44" d="M17.9,33.33a3,3,0,0,0-.21-1.63l-.1.08a.37.37,0,0,1,.05.11,3.73,3.73,0,0,1,.11,1.73,14.13,14.13,0,0,1-.31,1.84c-.06.25-.13.48-.2.71a2.29,2.29,0,0,1,.21-.23c.05-.17.1-.35.14-.52A13.51,13.51,0,0,0,17.9,33.33Z"/><path class="cls-44" d="M27.18,27.81a.64.64,0,0,0-.1-.24l-.09,0v0a1.17,1.17,0,0,1,.1.67,7.55,7.55,0,0,1-.17,1.57,2.86,2.86,0,0,1-.51,1.2l.23-.07a3.79,3.79,0,0,0,.47-1.47A5.4,5.4,0,0,0,27.18,27.81Z"/><path class="cls-44" d="M14.15,42.21a1.3,1.3,0,0,0-.41-.43l-.1-.05,0,.11a1.18,1.18,0,0,1,.3.29,12.47,12.47,0,0,1,.83,1.3c.12.21.25.42.38.63,0-.09,0-.17,0-.26l-.53-.9Q14.39,42.56,14.15,42.21Z"/></g><g class="cls-40"><path class="cls-41" d="M25.91,30.62a24,24,0,0,0-4.71,2.59l-.82.61a28,28,0,0,1,6-2.77,2.56,2.56,0,0,0,.4-.79C26.51,30.38,26.21,30.49,25.91,30.62Z"/><path class="cls-43" d="M33.76,27.13s0-.15,0-.39l-.49,0A2.19,2.19,0,0,1,31.41,29c-1.49.37-3,.74-4.43,1.25a2.64,2.64,0,0,1-.33.77,29.84,29.84,0,0,1,7.15-1.13V27.13Z"/><path class="cls-44" d="M26.82,30.26a2.56,2.56,0,0,1-.4.79l.23-.07a2.64,2.64,0,0,0,.33-.77Z"/></g><path class="cls-45" d="M17.18,67.29s0,0-.05,0a.61.61,0,0,0-.12.09,3,3,0,0,0-.43.41l-.61.7c-.24.26-.5.57-.83.87a9.54,9.54,0,0,1-1.1.92,7.91,7.91,0,0,1-1.41.78,8.62,8.62,0,0,1-1.63.52,11.62,11.62,0,0,1-1.76.23,10.45,10.45,0,0,1-1.77-.07,7.62,7.62,0,0,1-1.68-.39c-.13,0-.25-.1-.38-.15L5,71.06a6.35,6.35,0,0,1-.68-.39,6.43,6.43,0,0,1-1.11-.91A6.8,6.8,0,0,1,2,68c-.11-.23-.19-.42-.24-.55s-.07-.2-.07-.2l.09.2c.06.12.15.3.27.52a6.75,6.75,0,0,0,.51.77,7.78,7.78,0,0,0,.8.88,6.09,6.09,0,0,0,1.11.84,6.77,6.77,0,0,0,1.41.66,8.47,8.47,0,0,0,1.62.35,10,10,0,0,0,1.73.05,10.94,10.94,0,0,0,1.71-.21,10.12,10.12,0,0,0,1.59-.48,8.55,8.55,0,0,0,1.38-.73A9.37,9.37,0,0,0,15,69.27c.32-.29.61-.57.86-.83s.46-.48.65-.66A2.5,2.5,0,0,1,17,67.4a.61.61,0,0,1,.13-.09Z"/><g class="cls-40"><path class="cls-15" d="M10.19,43.38c0-.09,0-.18,0-.27a10.57,10.57,0,0,1,1-6.38,3.12,3.12,0,0,1-.79-.64,4.55,4.55,0,0,1-.85-2.5,11.73,11.73,0,0,1-.11-1.33c0-.37,0-.74,0-1.11a1.86,1.86,0,0,0-.28-1,.6.6,0,0,0-.08-.08c-.26.1-.51.22-.75.33-5.24,2.49-7.26,5.69-7.23,9.3a1.09,1.09,0,0,1,.08.15,7.66,7.66,0,0,0,.7,1.51A5,5,0,0,0,3,42.61,7.68,7.68,0,0,0,10.19,43.38Z"/><path class="cls-35" d="M5.27,51.14c.41.27.78.6,1.19.87a9.9,9.9,0,0,0,1.63.81,8.16,8.16,0,0,0,5.77.32,22.35,22.35,0,0,0-1.11-3,30.9,30.9,0,0,1-2.53-6.64A10.37,10.37,0,0,1,9,43.86a8.09,8.09,0,0,1-3.85-.07,5.92,5.92,0,0,1-3.11-2,7.19,7.19,0,0,1-.91-1.59,1.31,1.31,0,0,0,0-.15A15.07,15.07,0,0,0,2.82,46a29.44,29.44,0,0,1,2,5A1.27,1.27,0,0,1,5.27,51.14Z"/><path class="cls-36" d="M5.34,60.2c-.06.4-.14.78-.23,1.14l.12.17a5.42,5.42,0,0,0,.5.78A5.28,5.28,0,0,0,9.51,64a18.6,18.6,0,0,0,2,.06,16,16,0,0,0,2.08-.14,20,20,0,0,0,1-6.42,16.39,16.39,0,0,0-.66-4.22,7.27,7.27,0,0,1-3.49.3A10.77,10.77,0,0,1,6.79,52.3a10.2,10.2,0,0,1-.9-.54c-.2-.15-.38-.31-.58-.45a1.86,1.86,0,0,0-.46-.25A20.67,20.67,0,0,1,5.34,60.2Z"/><path class="cls-35" d="M33.4,26.63H30.78l-1.6,0h-.83c-2.3.13-5.62.37-9.09.87a.69.69,0,0,1,.08.45c0,.6-.2,1.43.25,1.92l.81-.41a28.14,28.14,0,0,1,10.81-2.55c.95-.1,1.8-.15,2.54-.19h0a.38.38,0,0,0,0-.1Z"/><path class="cls-36" d="M9.57,32.74a7,7,0,0,0,.59,2.8,2.68,2.68,0,0,0,1,1l.07,0a9.61,9.61,0,0,1,.69-1.14,12.68,12.68,0,0,1,4.86-3.88,21.47,21.47,0,0,1,2.7-1.65,1.77,1.77,0,0,1-.31-1.24,6.85,6.85,0,0,0,0-.91.44.44,0,0,0-.11-.25,42.85,42.85,0,0,0-10,2.5,1.18,1.18,0,0,1,.29.58A16.73,16.73,0,0,1,9.57,32.74Z"/><path class="cls-15" d="M9.12,71.69c.2,0,.38,0,.56,0a28.24,28.24,0,0,0,3.58-6.89c.09-.25.17-.49.25-.75a17.39,17.39,0,0,1-3.95.09A6,6,0,0,1,6.14,63a4.35,4.35,0,0,1-.69-.79c-.14-.21-.24-.46-.39-.66A10.54,10.54,0,0,1,1.54,67a1.77,1.77,0,0,1,.15.31C2,68.2,3.75,71.92,9.12,71.69Z"/><path class="cls-11" d="M6.14,63a6,6,0,0,0,3.42,1.15A17.39,17.39,0,0,0,13.51,64s0-.09.05-.13a16,16,0,0,1-2.08.14,18.6,18.6,0,0,1-2-.06,5.28,5.28,0,0,1-3.78-1.68,5.42,5.42,0,0,1-.5-.78l-.12-.17c0,.06,0,.12-.05.17.15.2.25.45.39.66A4.35,4.35,0,0,0,6.14,63Z"/><path class="cls-37" d="M6.14,63a6,6,0,0,0,3.42,1.15A17.39,17.39,0,0,0,13.51,64s0-.09.05-.13a16,16,0,0,1-2.08.14,18.6,18.6,0,0,1-2-.06,5.28,5.28,0,0,1-3.78-1.68,5.42,5.42,0,0,1-.5-.78l-.12-.17c0,.06,0,.12-.05.17.15.2.25.45.39.66A4.35,4.35,0,0,0,6.14,63Z"/><path class="cls-37" d="M5.31,51.31c.2.14.38.3.58.45a10.2,10.2,0,0,0,.9.54,10.77,10.77,0,0,0,3.61,1.25,7.27,7.27,0,0,0,3.49-.3l0-.11a8.16,8.16,0,0,1-5.77-.32A9.9,9.9,0,0,1,6.46,52c-.41-.27-.78-.6-1.19-.87a1.27,1.27,0,0,0-.45-.2l0,.12A1.86,1.86,0,0,1,5.31,51.31Z"/><path class="cls-37" d="M9,43.86a10.37,10.37,0,0,0,1.21-.34l0-.14A7.68,7.68,0,0,1,3,42.61a5,5,0,0,1-1.11-1.23,7.66,7.66,0,0,1-.7-1.51,1.09,1.09,0,0,0-.08-.15c0,.11,0,.23,0,.34a1.31,1.31,0,0,1,0,.15,7.19,7.19,0,0,0,.91,1.59,5.92,5.92,0,0,0,3.11,2A8.09,8.09,0,0,0,9,43.86Z"/><path class="cls-37" d="M9.14,30.17a1.86,1.86,0,0,1,.28,1c0,.37,0,.74,0,1.11a11.73,11.73,0,0,0,.11,1.33,4.55,4.55,0,0,0,.85,2.5,3.12,3.12,0,0,0,.79.64.75.75,0,0,1,.07-.12l-.07,0a2.68,2.68,0,0,1-1-1,7,7,0,0,1-.59-2.8,16.73,16.73,0,0,0-.11-2.12A1.18,1.18,0,0,0,9.17,30l-.11.05A.6.6,0,0,1,9.14,30.17Z"/><path class="cls-37" d="M19.34,28a.69.69,0,0,0-.08-.45l-.13,0a.44.44,0,0,1,.11.25,6.85,6.85,0,0,1,0,.91,1.77,1.77,0,0,0,.31,1.24l.09-.05C19.14,29.4,19.34,28.57,19.34,28Z"/></g><path class="cls-4" d="M27.64,52.93a5.68,5.68,0,0,0,1.88,4.13,4.62,4.62,0,0,1,.76-.63c3-1.91,10.31-4.09,18.17-4.16l-3.57-5.48s-10,.68-16,3.49A3.19,3.19,0,0,0,27.64,52.93Z"/><path class="cls-5" d="M27.64,52.93a5.68,5.68,0,0,0,1.88,4.13,4.62,4.62,0,0,1,.76-.63c3-1.91,10.31-4.09,18.17-4.16l-3.57-5.48s-10,.68-16,3.49A3.19,3.19,0,0,0,27.64,52.93Z"/><path class="cls-5" d="M44.14,50.43c-2.17.24-4.34.47-6.49.92a28.19,28.19,0,0,0-6,1.87,7.64,7.64,0,0,0-3.18,2.53,7.23,7.23,0,0,0,1.07,1.31,4.62,4.62,0,0,1,.76-.63c3-1.91,10.31-4.09,18.17-4.16l-1.37-2.11C46.09,50.22,45.11,50.33,44.14,50.43Z"/><path class="cls-46" d="M38,53.54a4.91,4.91,0,0,0,0-3.28,2.75,2.75,0,0,0-2.34-2.13l-.62.13a3,3,0,0,1,1,.37,3.48,3.48,0,0,1,1.24,1.59,4.78,4.78,0,0,1,0,3.49Z"/><path class="cls-46" d="M31.25,55.88,32,55.5a4.62,4.62,0,0,0,.26-3.69A3,3,0,0,0,31,50.26a2.94,2.94,0,0,0-1.71-.18l-.45.2a2.61,2.61,0,0,1,.79,0,2.45,2.45,0,0,1,1.94,1.38,4.43,4.43,0,0,1,.24,2.47A5.15,5.15,0,0,1,31.25,55.88Z"/><g class="cls-40"><path class="cls-47" d="M44.51,50.64l-.73.09-.83.1L41.88,51l-.62.08-.66.1c-.45.08-.92.14-1.41.24l-.74.15-.38.07-.38.08-.77.18-.38.1-.39.1-.38.1-.38.11L35,52.4l-.37.12-.37.12-.36.13-.36.12L33.2,53c-.23.09-.46.17-.67.27l-.33.14-.16.07-.15.08-.31.14-.28.15c-.19.1-.36.21-.53.31l-.24.16-.23.16c-.15.1-.28.21-.41.31s-.44.4-.6.57-.26.32-.35.41l-.11.15h0l.11-.16a4.19,4.19,0,0,1,.32-.43l.12-.14.13-.15.33-.33.39-.33c.15-.11.3-.23.47-.34s.34-.23.53-.33l.29-.16.3-.16c.21-.11.43-.19.65-.29s.44-.19.68-.28l.35-.14.36-.12.37-.13.37-.11.38-.12.38-.1.39-.11.38-.09.39-.1.39-.09.77-.17.38-.08.38-.07.75-.13c.49-.1,1-.15,1.42-.22l.66-.09.62-.07L43,50.78l.83-.08.73-.08Z"/></g><path class="cls-5" d="M31.77,49.9a2.69,2.69,0,0,1,1.78,2.16,4.79,4.79,0,0,1-1.27,3.33,44.38,44.38,0,0,1,16.17-3.12l-3.57-5.48s-8.47.57-14.5,2.84A3.38,3.38,0,0,1,31.77,49.9Z"/><path class="cls-4" d="M50.13,46.06c-2.71,0-22.57-.39-22.86-9.11a3.88,3.88,0,0,1,.42-1.8v-4a8,8,0,0,0-4.32,6.05c-.89,6.15,4.46,12.49,15.76,14.37s12.58,1,14-.83S52.84,46.06,50.13,46.06Z"/><g class="cls-40"><path class="cls-48" d="M48.17,52.64h.61a12.14,12.14,0,0,0,.35-3.22A8.37,8.37,0,0,0,48.64,46l-.56,0a9.11,9.11,0,0,1,.45,3.89A11.49,11.49,0,0,1,48.17,52.64Z"/><path class="cls-48" d="M27.69,33.43a2,2,0,0,0-.2-.21A1.92,1.92,0,0,0,25.35,33a7.8,7.8,0,0,0-.63.75,2.12,2.12,0,0,1,2.07-.38,1.72,1.72,0,0,1,.9.71Z"/><path class="cls-48" d="M26.53,38.34a2.58,2.58,0,0,0-1.64.59,2.9,2.9,0,0,0-1.17,2.42c.08.24.17.55.27.78a3,3,0,0,1,1.2-2.67,2.66,2.66,0,0,1,2.29-.61c-.06-.14-.07-.18-.12-.32A1.94,1.94,0,0,0,26.53,38.34Z"/><path class="cls-48" d="M29.9,42.57a3.39,3.39,0,0,0-1.56,1,3.46,3.46,0,0,0-.89,1.91,4.65,4.65,0,0,0,.17,1.39c.22.18.43.36.68.53a4,4,0,0,1,.56-3.3,3.33,3.33,0,0,1,2.89-1.34c-.22-.11-.4-.22-.61-.34A3.84,3.84,0,0,0,29.9,42.57Z"/><path class="cls-48" d="M36.17,44.93a3.61,3.61,0,0,0-1.49,1.33A5,5,0,0,0,34,48.37a6.92,6.92,0,0,0,.21,2l.93.3a4,4,0,0,1,.26-4,4.34,4.34,0,0,1,1.7-1.51,3.25,3.25,0,0,1,1.23-.28l-1-.22A3,3,0,0,0,36.17,44.93Z"/><path class="cls-48" d="M43.93,45.72l-.88-.09a5.44,5.44,0,0,0-1.73,3.12A6.78,6.78,0,0,0,41.2,51a3.79,3.79,0,0,0,.27,1l.82.12a6.72,6.72,0,0,1-.1-3.8A4.31,4.31,0,0,1,43.93,45.72Z"/></g><path class="cls-46" d="M48.37,52.64H49a12.14,12.14,0,0,0,.35-3.22A8.55,8.55,0,0,0,48.84,46l-.56,0a9.11,9.11,0,0,1,.45,3.89A12,12,0,0,1,48.37,52.64Z"/><path class="cls-46" d="M27.69,33.21l-.11-.12a1.93,1.93,0,0,0-2.14-.23,7.8,7.8,0,0,0-.63.75,2.09,2.09,0,0,1,2.07-.38,1.84,1.84,0,0,1,.81.58Z"/><path class="cls-46" d="M26.73,38.34a2.58,2.58,0,0,0-1.64.59,3.48,3.48,0,0,0-1.28,2.68c.08.24.18.48.28.71a3.4,3.4,0,0,1,1.3-2.86A2.69,2.69,0,0,1,27.72,39c-.06-.14-.11-.28-.16-.42A1.94,1.94,0,0,0,26.73,38.34Z"/><path class="cls-46" d="M30.12,42.57a3.36,3.36,0,0,0-1.55,1,3.62,3.62,0,0,0-.88,2A5.49,5.49,0,0,0,27.83,47c.23.18.46.36.7.53a4.33,4.33,0,0,1,.56-3.41A3.14,3.14,0,0,1,31.9,42.8l-.65-.35A3.12,3.12,0,0,0,30.12,42.57Z"/><path class="cls-46" d="M36.42,45a3.62,3.62,0,0,0-1.52,1.33,4.87,4.87,0,0,0-.75,2.11,6.61,6.61,0,0,0,.21,2l1,.29a4,4,0,0,1,.28-4,4.4,4.4,0,0,1,1.73-1.5,3.73,3.73,0,0,1,1.27-.29c-.34-.06-.68-.14-1-.21A3.12,3.12,0,0,0,36.42,45Z"/><path class="cls-46" d="M44.12,45.75l-.88-.09a5.48,5.48,0,0,0-1.72,3.13A7,7,0,0,0,41.39,51a4.24,4.24,0,0,0,.28,1l.82.12a6.63,6.63,0,0,1-.1-3.8A4.37,4.37,0,0,1,44.12,45.75Z"/><path class="cls-5" d="M50.12,50.82c-2.5,0-5-.2-7.45-.4a29,29,0,0,1-8-1.61A22.72,22.72,0,0,1,28,44.93a10.49,10.49,0,0,1-4-6.2,8.54,8.54,0,0,1,.23-4.11,1.34,1.34,0,0,0,.07-.18,8.29,8.29,0,0,0-.91,2.77c-.89,6.15,4.46,12.49,15.76,14.37s12.58,1,14-.83a2.52,2.52,0,0,0,.29-.46A7,7,0,0,1,50.12,50.82Z"/><path class="cls-49" d="M26.64,37.75s.13,3.27,5.86,5.83,15.5,2.8,17.33,2.75S52.65,47,53,47.57s-4.56.64-9,.19S27.24,45.68,26.64,37.75Z"/><g class="cls-40"><path class="cls-47" d="M53.16,50.61l-.09.06-.29.15a4.7,4.7,0,0,1-1.19.3l-.88.08-1,0-1.16,0h-.63l-.67,0-.69,0-.72,0-1.5-.09L42.72,51l-.41,0-.41,0-.83-.08-.86-.1-.85-.13-.87-.15-.87-.18a24.86,24.86,0,0,1-3.45-1l-.84-.34-.83-.37c-.26-.14-.53-.27-.8-.4l-.79-.43a22,22,0,0,1-2.87-2,13.19,13.19,0,0,1-1.25-1.09,14.72,14.72,0,0,1-1.09-1.16q-.48-.62-.87-1.23A11.39,11.39,0,0,1,24.19,41c-.08-.21-.16-.42-.22-.62s-.12-.41-.17-.61,0-.2-.06-.3l-.06-.29c0-.19-.05-.38-.07-.56a9.78,9.78,0,0,1,0-1.88c0-.13,0-.25.05-.37a3,3,0,0,1,.06-.32l.06-.28a1.41,1.41,0,0,1,.06-.22l.12-.41h0l-.12.41c0,.07,0,.14-.05.23l-.06.27c0,.1,0,.21-.05.32s0,.24,0,.37a9.06,9.06,0,0,0,0,1.86c0,.18.05.36.08.56s0,.18.06.28,0,.19.06.29.11.4.18.6.15.4.23.61A9.67,9.67,0,0,0,25,42.14a10.4,10.4,0,0,0,.88,1.19,14.25,14.25,0,0,0,1.08,1.13,16.33,16.33,0,0,0,1.25,1.07,21.63,21.63,0,0,0,2.87,1.9l.78.41.8.38c.27.13.54.24.82.36s.55.22.83.33a24.56,24.56,0,0,0,3.42,1c.29,0,.57.12.86.16l.86.15.85.11c.28,0,.56.06.84.09,1.11.13,2.2.2,3.23.3l1.49.13.72,0,.68,0,.66,0,.63,0,1.17,0c.73,0,1.37,0,1.88,0a4,4,0,0,0,1.18-.23l.3-.12.1-.05Z"/></g><path class="cls-5" d="M23.78,38.15c.43-1,1.49-1.93,2.62-1.61a2.78,2.78,0,0,1,.87.41h0a3.88,3.88,0,0,1,.42-1.8v-4a8,8,0,0,0-4.32,6.05,9.4,9.4,0,0,0,0,2.9A5.07,5.07,0,0,1,23.78,38.15Z"/><path class="cls-4" d="M50.76,63s-15.73-.58-21.24-6a5.68,5.68,0,0,1-1.88-4.13,3.19,3.19,0,0,1,1.21-2.65,9.61,9.61,0,0,0-3.52,2.52c-3.9,5-1.72,15.92,27.22,18Z"/><g class="cls-40"><path class="cls-48" d="M46.66,66.41a5.1,5.1,0,0,0,.22,2.71,8.87,8.87,0,0,0,.69,1.24l1,.1a5.57,5.57,0,0,1-1-3.09,5.64,5.64,0,0,1,.58-3,3.17,3.17,0,0,1,1.28-1.31l.25-.1-.87-.06C47.5,63.45,46.84,65.09,46.66,66.41Z"/><path class="cls-48" d="M25.8,54.16a2.72,2.72,0,0,0-1.89,1.77,6.81,6.81,0,0,0,.05,2,4.65,4.65,0,0,1,.09-1.06,2.8,2.8,0,0,1,.12-.5,2.74,2.74,0,0,1,1.42-1.65,2.85,2.85,0,0,1,1.94-.26c.19.07.32.29.48.4l-.12-.31A2.29,2.29,0,0,0,25.8,54.16Z"/><path class="cls-48" d="M29.24,58.63a4.23,4.23,0,0,0-1.55,1.45,3.79,3.79,0,0,0-.49,3.34c.29.24.6.51.93.75a4.72,4.72,0,0,1-.05-3.56A2.87,2.87,0,0,1,29.57,59a2.63,2.63,0,0,1,2.26-.24c-.28-.15-.46-.28-.72-.44A3,3,0,0,0,29.24,58.63Z"/><path class="cls-48" d="M33.6,63.53a5.71,5.71,0,0,0,.32,3.72c.37.14.76.27,1.15.4a3.76,3.76,0,0,1-.83-1.81,5.27,5.27,0,0,1,.32-2.78A3.92,3.92,0,0,1,37.5,61c-.32-.08-.64-.18-1-.27A4.08,4.08,0,0,0,33.6,63.53Z"/><path class="cls-48" d="M43.16,62.24a4.25,4.25,0,0,0-1.86,1.07,3.83,3.83,0,0,0-1,2.34,5.56,5.56,0,0,0,.24,2.43,6.53,6.53,0,0,0,.67,1.25l1.1.22a4.08,4.08,0,0,1-.92-1.32,5,5,0,0,1-.32-2.78,3.55,3.55,0,0,1,1.37-2.3,3.74,3.74,0,0,1,1.42-.68,2.32,2.32,0,0,1,.45-.06Z"/></g><path class="cls-46" d="M46.94,66.45a5.16,5.16,0,0,0,.23,2.7,7.82,7.82,0,0,0,.68,1.24l.95.11a6.4,6.4,0,0,1-.38-6.1,3.09,3.09,0,0,1,1.28-1.3L50,63l-.87-.06C47.79,63.49,47.12,65.13,46.94,66.45Z"/><path class="cls-46" d="M25.79,54.32a2.8,2.8,0,0,0-1.88,1.86,6.75,6.75,0,0,0,.05,2,4.65,4.65,0,0,1,.09-1.06,2.8,2.8,0,0,1,.12-.5A2.76,2.76,0,0,1,25.59,55a2.85,2.85,0,0,1,1.94-.26,2.13,2.13,0,0,1,.52.27c0-.1-.08-.21-.11-.31A2.41,2.41,0,0,0,25.79,54.32Z"/><path class="cls-46" d="M29.54,58.75A4.31,4.31,0,0,0,28,60.25a3.92,3.92,0,0,0-.48,3.42c.3.24.61.49.94.72a4.77,4.77,0,0,1-.07-3.6,2.92,2.92,0,0,1,1.5-1.66,2.59,2.59,0,0,1,2.28-.19l-.82-.48A2.6,2.6,0,0,0,29.54,58.75Z"/><path class="cls-46" d="M33.91,63.63a5.8,5.8,0,0,0,.33,3.73c.37.14.75.28,1.14.41A3.87,3.87,0,0,1,34.56,66a5.31,5.31,0,0,1,.31-2.79,3.94,3.94,0,0,1,2.94-2.06c-.32-.08-.63-.18-1-.27A4.09,4.09,0,0,0,33.91,63.63Z"/><path class="cls-46" d="M43.48,62.29a4.25,4.25,0,0,0-1.87,1.08,3.81,3.81,0,0,0-1,2.34,5.56,5.56,0,0,0,.24,2.43,8,8,0,0,0,.67,1.26l1.11.21a4,4,0,0,1-.93-1.32,5.09,5.09,0,0,1-.31-2.78,3.54,3.54,0,0,1,1.37-2.31,3.74,3.74,0,0,1,1.42-.68,2.32,2.32,0,0,1,.45-.06Z"/><path class="cls-5" d="M50.63,69.05a29.4,29.4,0,0,1-6.42-.39,41.75,41.75,0,0,1-8.54-2.15,31.48,31.48,0,0,1-6.38-3,12.52,12.52,0,0,1-4.35-4.36A7.17,7.17,0,0,1,24.16,55c-1.72,5.46,3.19,14,28.39,15.85l-.48-2.1A10.27,10.27,0,0,1,50.63,69.05Z"/><g class="cls-40"><path class="cls-47" d="M50.66,69.5l-.37,0-.45,0-.6,0h-.75l-.88,0-1,0-1.1-.1-.59-.07-.62-.08L43,69.09l-1.35-.24-.7-.14-.7-.16c-.47-.1-1-.24-1.43-.36L38.12,68l-.37-.1-.36-.12-.73-.25-.72-.26-.37-.14L35.21,67l-.72-.28c-1-.38-1.91-.78-2.83-1.22A23.39,23.39,0,0,1,29.06,64a17.64,17.64,0,0,1-2.2-1.72,11.14,11.14,0,0,1-1.62-1.9l-.15-.25C25,60,25,60,25,59.87s-.09-.17-.13-.25l-.12-.24-.11-.23c0-.08-.06-.16-.1-.24s-.12-.31-.16-.46-.09-.3-.12-.44l-.09-.41q0-.21-.06-.39c0-.06,0-.12,0-.18s0-.12,0-.17,0-.22,0-.32v-.29c0-.08,0-.16,0-.24s0-.14,0-.2c0-.24,0-.37,0-.37h0s0,.13,0,.37a1.15,1.15,0,0,0,0,.19v.53c0,.09,0,.2,0,.31a1,1,0,0,0,0,.17l0,.18a2.71,2.71,0,0,0,.06.38c0,.13.06.27.1.41a4.14,4.14,0,0,0,.13.43,4,4,0,0,0,.16.45,1.6,1.6,0,0,1,.1.23l.12.23a2.56,2.56,0,0,0,.11.24l.14.23c0,.08.09.16.14.24s.1.16.16.24A10.21,10.21,0,0,0,27,62.12a16.7,16.7,0,0,0,2.2,1.67,22.92,22.92,0,0,0,2.59,1.42c.91.43,1.87.81,2.83,1.18l.72.26.36.14.37.12.72.25.72.23.36.11.36.1.72.21c.48.11,1,.24,1.42.34.94.23,1.85.39,2.72.56s1.69.3,2.45.4l1.1.15,1,.1.88.07.74,0h1.41Z"/></g><path class="cls-50" d="M50.74,63c-1.88-.09-2.79,2.53-2,4.64a5,5,0,0,0,3.86,3.15,1.53,1.53,0,0,0,1.77-1.93c-.37-1.11-1.07-1.74-1.47-3.49S51.8,63.1,50.74,63Z"/><path class="cls-4" d="M50.82,63.29c-1.62-.09-2.45,2.22-1.79,4.19a4.65,4.65,0,0,0,3.75,3.07,1.35,1.35,0,0,0,1.27-1.79c-.4-1-1.1-1.5-1.46-3.13S51.73,63.34,50.82,63.29Z"/><path class="cls-46" d="M51.58,66.06a5.91,5.91,0,0,1-.81,3.71c.15.11.31.21.46.3A5.83,5.83,0,0,0,52.11,67c0-1.15.08-2.67-.74-3.58a1.64,1.64,0,0,0-.55-.13h-.29C51.38,63.75,51.52,65.16,51.58,66.06Z"/><path class="cls-5" d="M54.08,68.88l0-.12c-.4-1-1.1-1.5-1.46-3.13s-.86-2.29-1.77-2.34c-1.49-.08-2.3,1.85-1.92,3.69A24,24,0,0,1,54.08,68.88Z"/><path class="cls-5" d="M52.49,65.21c-.34-1.33-.84-1.87-1.67-1.92a1.71,1.71,0,0,0-1.53.88A10.09,10.09,0,0,1,52.49,65.21Z"/><path class="cls-45" d="M50.82,63.29h-.14a1.47,1.47,0,0,0-.4.08,1.63,1.63,0,0,0-.54.32,2.33,2.33,0,0,0-.48.64,3.61,3.61,0,0,0-.31.91,4.72,4.72,0,0,0-.05,1.07,4,4,0,0,0,.22,1.12,4.32,4.32,0,0,0,.53,1A5.26,5.26,0,0,0,51.36,70a3.7,3.7,0,0,0,1,.39l.24,0H53l.11,0,.21-.07a1.23,1.23,0,0,0,.62-.48,1.27,1.27,0,0,0,.22-.58,1.66,1.66,0,0,0,0-.41,1.31,1.31,0,0,1,0-.14l.05.14a1.15,1.15,0,0,1,0,.41,1.26,1.26,0,0,1-.19.62,1.38,1.38,0,0,1-.63.55l-.23.08-.12,0h-.39l-.26,0a3.88,3.88,0,0,1-1-.39,5.22,5.22,0,0,1-1-.68,5.49,5.49,0,0,1-.82-.91,4.72,4.72,0,0,1-.55-1.1,4.8,4.8,0,0,1-.21-1.17,4.46,4.46,0,0,1,.09-1.11,3.66,3.66,0,0,1,.35-.93,3.41,3.41,0,0,1,.25-.37,1.92,1.92,0,0,1,.29-.28,1.5,1.5,0,0,1,.57-.3,1.36,1.36,0,0,1,.41-.05Z"/><path class="cls-49" d="M26.69,52.64S26,57.74,34,60.4A57.44,57.44,0,0,0,49.7,63.1a3.35,3.35,0,0,0-1.32,2.11S37,64.75,30,59.92C25.13,56.5,26.69,52.64,26.69,52.64Z"/><path class="cls-2" d="M28,54.72c.08.23.18.45.28.68V49H28v5.71Z"/><path class="cls-3" d="M28,54.7V49H27.7v4.87C27.82,54.14,27.89,54.43,28,54.7Z"/><path class="cls-51" d="M39.35,1.07s2.12.4,2.94-.46a1.45,1.45,0,0,1,2-.39,3.37,3.37,0,0,0,1.32.19,3.12,3.12,0,0,1-1.25.92,2.16,2.16,0,0,0,1.36.18,1.25,1.25,0,0,1-1.75.73c-.59-.23-.94,0-1.42.45-.74.69-1.72.75-3.17.44Z"/><path class="cls-52" d="M39.35,1.07l0,2.06.5.1V1.14C39.54,1.11,39.35,1.07,39.35,1.07Z"/><path class="cls-53" d="M44.31,1.33A3.12,3.12,0,0,0,45.56.41,3.37,3.37,0,0,1,44.24.22a1.45,1.45,0,0,0-2,.39,1.28,1.28,0,0,1-.35.26v2.2a2.06,2.06,0,0,0,.56-.38c.48-.43.83-.68,1.42-.45a1.25,1.25,0,0,0,1.75-.73A2.16,2.16,0,0,1,44.31,1.33Z"/><rect class="cls-54" x="39.29" y="1.15" width="0.09" height="2.27"/><path class="cls-51" d="M39.74.8a.41.41,0,0,1-.41.41A.42.42,0,0,1,38.92.8a.41.41,0,0,1,.41-.41A.41.41,0,0,1,39.74.8Z"/><path class="cls-52" d="M39.33.39h0a.34.34,0,0,1,0,.67.33.33,0,0,1-.33-.31s0,0,0,.05a.42.42,0,0,0,.41.41A.41.41,0,0,0,39.74.8.41.41,0,0,0,39.33.39Z"/><path class="cls-55" d="M39.25.63a.11.11,0,0,1-.14.08A.1.1,0,0,1,39,.58a.11.11,0,0,1,.13-.09A.13.13,0,0,1,39.25.63Z"/><path class="cls-55" d="M39.07.75s0,0,0,0,0,0,0,0,0,0,0,0S39.08.73,39.07.75Z"/><g class="cls-40"><path class="cls-56" d="M25.59,16.24v1.27a2.38,2.38,0,0,0,2.21-.2,2.56,2.56,0,0,0,3.23.23,3.26,3.26,0,0,0,3.8.07,2.66,2.66,0,0,0,3.18.08,3.35,3.35,0,0,0,3.77-.11,2.13,2.13,0,0,0,2.81-.12,1.94,1.94,0,0,0,2.84-.15,1.68,1.68,0,0,0,2.5-.07,1.82,1.82,0,0,0,2.24,0V16.05A187.83,187.83,0,0,1,25.59,16.24Z"/></g><g class="cls-40"><path class="cls-56" d="M25.59,16v1.18A2.59,2.59,0,0,0,27.8,17a2.74,2.74,0,0,0,3.23.2,3.47,3.47,0,0,0,3.8.07,2.84,2.84,0,0,0,3.18.07,3.57,3.57,0,0,0,3.77-.1,2.26,2.26,0,0,0,2.81-.11A2.06,2.06,0,0,0,47.43,17a1.78,1.78,0,0,0,2.5-.07,2,2,0,0,0,2.24,0V15.81A203,203,0,0,1,25.59,16Z"/></g><path class="cls-57" d="M25.27,16v.48c0,.21.34.58,1.23.7.49,0,1.34-.2,1.34-.34v-.63Z"/><path class="cls-31" d="M39.32,3.3h0Z"/><path class="cls-58" d="M39.32,3.29c-1,9.58-4.23,13-4.48,13.23l3.2,0A91,91,0,0,0,39.32,3.61Z"/><path class="cls-59" d="M31,16.38c1.15.06,2.43.1,3.83.14.25-.26,3.43-3.65,4.48-13.23C38.1,11.23,31.43,16.09,31,16.38Z"/><path class="cls-58" d="M39.32,3.29h0c-1.38,8.41-11.49,12.89-11.49,12.89h0c.88.07,1.95.13,3.19.19C31.43,16.09,38.1,11.23,39.32,3.29Z"/><path class="cls-59" d="M39.32,3.3c-.06.3-1.63,8.65-14,12.68,0,0,.92.1,2.55.21h0S37.94,11.71,39.32,3.3Z"/><path class="cls-59" d="M39.32,3.29C41.45,11.5,49.61,16,49.91,16.11c.82-.07,1.64-.14,2.47-.23A19.74,19.74,0,0,1,39.32,3.29Z"/><path class="cls-59" d="M39.32,3.61a91,91,0,0,1-1.28,13c1.18,0,2.4,0,3.67,0v0A45,45,0,0,1,39.32,3.61Z"/><path class="cls-58" d="M39.32,3.29c1.08,7.68,7.84,12.78,8.13,13l2.46-.18C49.61,16,41.45,11.5,39.32,3.29Z"/><path class="cls-58" d="M39.32,3.61A45,45,0,0,0,41.71,16.5v0l2.85-.09c-.36-.39-4.06-4.6-5.24-13.14Z"/><path class="cls-59" d="M39.32,3.29C40.5,11.83,44.2,16,44.56,16.43c.95,0,1.91-.08,2.89-.14C47.16,16.07,40.4,11,39.32,3.29Z"/><path class="cls-60" d="M31,16.38v.41a1.78,1.78,0,0,1-1.71.6c-1-.09-1.46-.58-1.46-.67v-.53Z"/><path class="cls-57" d="M31,16.38l3.83.14v.42c0,.24-1,.72-2.21.59-.82-.08-1.62-.59-1.62-.83Z"/><path class="cls-60" d="M34.84,16.52l3.2,0V17c0,.19-.71.6-1.8.52s-1.4-.53-1.4-.68Z"/><path class="cls-57" d="M38,16.56l3.67,0v.42c0,.26-.54.63-1.83.63S38,17.16,38,17Z"/><path class="cls-60" d="M41.71,16.52l2.85-.09v.37a1.33,1.33,0,0,1-1.31.67c-.83,0-1.54-.41-1.54-.59Z"/><path class="cls-57" d="M44.56,16.43l2.89-.14v.35a1.52,1.52,0,0,1-1.36.83c-.82,0-1.53-.48-1.53-.67Z"/><path class="cls-60" d="M47.45,16.29l2.46-.18v.41a1.15,1.15,0,0,1-1.1.72c-.71,0-1.36-.39-1.36-.6Z"/><path class="cls-57" d="M49.91,16.11l2.47-.23v.53c0,.19-.41.56-1.15.63s-1.32-.37-1.32-.58Z"/></g></g></g></svg>