<svg xmlns="http://www.w3.org/2000/svg" xmlns:xlink="http://www.w3.org/1999/xlink" viewBox="0 0 2529.42 700.44"><defs><style>.cls-1{isolation:isolate;}.cls-2{fill:url(#未命名漸層_30);}.cls-3{fill:#e5f4f5;}.cls-4{fill:#fbbb5f;}.cls-5{fill:#fbc96d;}.cls-6{fill:url(#未命名漸層_60);}.cls-7{fill:#fbc166;}.cls-8{fill:#f9d57a;}.cls-9{fill:#f9d180;}.cls-10{fill:#dc9c55;}.cls-11{fill:#f5d283;}.cls-12{fill:#8cc63f;}.cls-13{fill:#fff;}.cls-14{fill:#5c9a51;}.cls-15{fill:#fbb03b;}.cls-16,.cls-89{opacity:0.4;}.cls-16,.cls-18,.cls-89{mix-blend-mode:multiply;}.cls-16{fill:url(#radial-gradient);}.cls-17{fill:url(#未命名漸層_39);}.cls-18{opacity:0.3;}.cls-19{fill:url(#未命名漸層_39-2);}.cls-20{mix-blend-mode:screen;}.cls-21{fill:url(#未命名漸層_39-3);}.cls-22{fill:url(#未命名漸層_39-4);}.cls-23{fill:url(#未命名漸層_39-5);}.cls-24{fill:url(#未命名漸層_39-6);}.cls-25{fill:url(#未命名漸層_39-7);}.cls-26{fill:url(#未命名漸層_39-8);}.cls-27{fill:url(#未命名漸層_39-10);}.cls-28{fill:url(#未命名漸層_39-11);}.cls-29{fill:url(#未命名漸層_39-12);}.cls-30{fill:url(#未命名漸層_39-13);}.cls-31{fill:url(#未命名漸層_39-14);}.cls-32{fill:url(#未命名漸層_39-15);}.cls-33{fill:url(#未命名漸層_39-16);}.cls-34{fill:url(#未命名漸層_39-17);}.cls-35{fill:url(#未命名漸層_39-18);}.cls-36{fill:url(#未命名漸層_39-19);}.cls-37{fill:url(#未命名漸層_39-20);}.cls-38{fill:url(#未命名漸層_39-21);}.cls-39{fill:url(#未命名漸層_39-22);}.cls-40{fill:url(#未命名漸層_39-23);}.cls-41{fill:url(#未命名漸層_39-24);}.cls-42{fill:url(#未命名漸層_39-25);}.cls-43{fill:url(#未命名漸層_39-26);}.cls-44{fill:url(#未命名漸層_39-27);}.cls-45{fill:url(#未命名漸層_39-28);}.cls-46{fill:url(#未命名漸層_39-29);}.cls-47{fill:url(#未命名漸層_39-30);}.cls-48{fill:url(#未命名漸層_39-31);}.cls-49{fill:url(#未命名漸層_39-32);}.cls-50{fill:url(#未命名漸層_39-33);}.cls-51{fill:url(#未命名漸層_39-34);}.cls-52{fill:url(#未命名漸層_39-35);}.cls-53{fill:url(#未命名漸層_39-36);}.cls-54{fill:url(#未命名漸層_39-37);}.cls-55{fill:url(#未命名漸層_39-38);}.cls-56{fill:url(#未命名漸層_39-39);}.cls-57{fill:url(#未命名漸層_39-41);}.cls-58{fill:url(#未命名漸層_39-42);}.cls-59{fill:url(#未命名漸層_39-44);}.cls-60{fill:url(#未命名漸層_39-45);}.cls-61{fill:url(#未命名漸層_39-46);}.cls-62{fill:url(#未命名漸層_39-47);}.cls-63{fill:url(#未命名漸層_39-48);}.cls-64{fill:url(#未命名漸層_39-49);}.cls-65{fill:url(#未命名漸層_39-50);}.cls-66{fill:url(#未命名漸層_39-51);}.cls-67{fill:url(#未命名漸層_39-52);}.cls-68{fill:url(#未命名漸層_39-53);}.cls-69{fill:url(#未命名漸層_39-54);}.cls-70{fill:url(#未命名漸層_39-55);}.cls-71{fill:url(#未命名漸層_39-56);}.cls-72{fill:url(#未命名漸層_39-57);}.cls-73{fill:url(#未命名漸層_39-58);}.cls-74{fill:url(#未命名漸層_39-59);}.cls-75{fill:url(#未命名漸層_39-60);}.cls-76{fill:url(#未命名漸層_39-61);}.cls-77{fill:url(#未命名漸層_39-62);}.cls-78{fill:url(#未命名漸層_39-63);}.cls-79{fill:url(#未命名漸層_39-64);}.cls-80{fill:url(#未命名漸層_39-65);}.cls-81{fill:url(#未命名漸層_39-66);}.cls-82{fill:url(#未命名漸層_39-67);}.cls-83{fill:url(#未命名漸層_39-68);}.cls-84{fill:url(#未命名漸層_39-69);}.cls-85{fill:url(#未命名漸層_45);}.cls-86{fill:url(#未命名漸層_39-70);}.cls-87{fill:url(#linear-gradient);}.cls-88{fill:url(#linear-gradient-2);}.cls-89{fill:url(#radial-gradient-2);}.cls-90{fill:#634e37;}.cls-91{fill:#8e785e;}.cls-92{fill:#ad9573;}.cls-93{fill:#c1ac8a;}.cls-94{fill:#e2d89c;}.cls-95{fill:#efe5b4;}</style><linearGradient id="未命名漸層_30" x1="1492.05" y1="529.28" x2="1492.05" y2="609.3" gradientUnits="userSpaceOnUse"><stop offset="0" stop-color="#fff"/><stop offset="1" stop-color="#a5daf6"/></linearGradient><linearGradient id="未命名漸層_60" x1="1818.01" y1="298.28" x2="1818.01" y2="462.28" gradientUnits="userSpaceOnUse"><stop offset="0" stop-color="#fbc166"/><stop offset="1" stop-color="#fbb150"/></linearGradient><radialGradient id="radial-gradient" cx="1695.23" cy="369.65" r="77.12" gradientUnits="userSpaceOnUse"><stop offset="0" stop-color="#b7b7b8"/><stop offset="0.37" stop-color="#a9a082"/><stop offset="0.53" stop-color="#a69d7f"/><stop offset="0.64" stop-color="#9e9477"/><stop offset="0.74" stop-color="#908469"/><stop offset="0.84" stop-color="#7c6d56"/><stop offset="0.93" stop-color="#62503d"/><stop offset="1" stop-color="#473223"/></radialGradient><radialGradient id="未命名漸層_39" cx="429.44" cy="-41.24" r="11.86" gradientTransform="matrix(-1.15, -0.39, -0.54, 2.13, 2244.04, 573.73)" gradientUnits="userSpaceOnUse"><stop offset="0" stop-color="#a1b23b"/><stop offset="1" stop-color="#4f8c42"/></radialGradient><radialGradient id="未命名漸層_39-2" cx="429.44" cy="-41.25" r="11.85" xlink:href="#未命名漸層_39"/><radialGradient id="未命名漸層_39-3" cx="1760.56" cy="352.54" r="9.04" gradientTransform="matrix(0.99, 0.12, -0.22, 1.79, 98.53, -530.04)" xlink:href="#未命名漸層_39"/><radialGradient id="未命名漸層_39-4" cx="253.15" cy="45.62" r="8.05" gradientTransform="matrix(-1.17, -0.21, -0.42, 1.92, 2084.13, 294.36)" xlink:href="#未命名漸層_39"/><radialGradient id="未命名漸層_39-5" cx="253.13" cy="45.62" r="8.08" gradientTransform="matrix(-1.17, -0.21, -0.42, 1.92, 2084.13, 294.36)" xlink:href="#未命名漸層_39"/><radialGradient id="未命名漸層_39-6" cx="253.15" cy="45.61" r="8.05" gradientTransform="matrix(-1.17, -0.21, -0.42, 1.92, 2084.13, 294.36)" xlink:href="#未命名漸層_39"/><radialGradient id="未命名漸層_39-7" cx="1758.18" cy="343.78" r="5.43" gradientTransform="matrix(0.99, 0.12, -0.2, 1.64, 89.41, -451.86)" xlink:href="#未命名漸層_39"/><radialGradient id="未命名漸層_39-8" cx="1725.05" cy="584.18" r="17.56" gradientTransform="matrix(0.8, -0.38, 0.3, 1.02, 228.91, 357.24)" xlink:href="#未命名漸層_39"/><radialGradient id="未命名漸層_39-10" cx="1793.33" cy="330.25" r="8.25" gradientTransform="translate(0 -100.98) scale(1 1.2)" xlink:href="#未命名漸層_39"/><radialGradient id="未命名漸層_39-11" cx="383.28" cy="-123.75" r="15.88" gradientTransform="matrix(-1.23, -0.7, -0.64, 2.29, 2182.1, 853.04)" xlink:href="#未命名漸層_39"/><radialGradient id="未命名漸層_39-12" cx="383.28" cy="-123.75" r="15.88" gradientTransform="matrix(-1.23, -0.7, -0.64, 2.29, 2182.1, 853.04)" xlink:href="#未命名漸層_39"/><radialGradient id="未命名漸層_39-13" cx="1719.87" cy="444.81" r="12.11" gradientTransform="matrix(1.07, -0.16, 0.24, 1.82, -161.94, -240.36)" xlink:href="#未命名漸層_39"/><radialGradient id="未命名漸層_39-14" cx="378.18" cy="-128.79" r="15.08" gradientTransform="matrix(-1.1, -0.62, -0.7, 2.02, 2112.81, 804.8)" xlink:href="#未命名漸層_39"/><radialGradient id="未命名漸層_39-15" cx="378.18" cy="-128.79" r="15.07" gradientTransform="matrix(-1.1, -0.62, -0.7, 2.02, 2112.81, 804.8)" xlink:href="#未命名漸層_39"/><radialGradient id="未命名漸層_39-16" cx="1779.32" cy="391.25" r="11.53" gradientTransform="translate(0 -351.58) scale(1 1.69)" xlink:href="#未命名漸層_39"/><radialGradient id="未命名漸層_39-17" cx="393.93" cy="-76.56" r="11.85" gradientTransform="matrix(-1.16, -0.41, -0.56, 2.55, 2194.56, 669.26)" xlink:href="#未命名漸層_39"/><radialGradient id="未命名漸層_39-18" cx="393.92" cy="-76.56" r="11.85" gradientTransform="matrix(-1.16, -0.41, -0.56, 2.55, 2194.56, 669.26)" xlink:href="#未命名漸層_39"/><radialGradient id="未命名漸層_39-19" cx="1775.51" cy="415.82" r="10.74" gradientTransform="translate(0 -568.98) scale(1 2.12)" xlink:href="#未命名漸層_39"/><radialGradient id="未命名漸層_39-20" cx="427.64" cy="-68.93" r="14.42" gradientTransform="matrix(-1.15, -0.39, -0.63, 2.55, 2227.22, 647.55)" xlink:href="#未命名漸層_39"/><radialGradient id="未命名漸層_39-21" cx="427.64" cy="-68.93" r="14.42" gradientTransform="matrix(-1.15, -0.39, -0.63, 2.55, 2227.22, 647.55)" xlink:href="#未命名漸層_39"/><radialGradient id="未命名漸層_39-22" cx="1765.03" cy="377.94" r="13.06" gradientTransform="matrix(0.99, 0.11, -0.23, 2.15, 104.09, -695.1)" xlink:href="#未命名漸層_39"/><radialGradient id="未命名漸層_39-23" cx="1763.04" cy="48.15" r="16.83" gradientTransform="matrix(0.87, 0.01, -0.01, 2.21, 247.69, 179.09)" xlink:href="#未命名漸層_39"/><radialGradient id="未命名漸層_39-24" cx="1763.04" cy="48.15" r="16.84" gradientTransform="matrix(0.87, 0.01, -0.01, 2.21, 247.69, 179.09)" xlink:href="#未命名漸層_39"/><radialGradient id="未命名漸層_39-25" cx="2088.68" cy="398.04" r="12.76" gradientTransform="translate(278.07 -423.38) scale(0.72 1.83)" xlink:href="#未命名漸層_39"/><radialGradient id="未命名漸層_39-26" cx="1515.74" cy="65.64" r="14.05" gradientTransform="matrix(1.2, -0.03, 0.06, 2.21, -46.79, 216.11)" xlink:href="#未命名漸層_39"/><radialGradient id="未命名漸層_39-27" cx="1515.74" cy="65.64" r="14.06" gradientTransform="matrix(1.2, -0.03, 0.06, 2.21, -46.79, 216.11)" xlink:href="#未命名漸層_39"/><radialGradient id="未命名漸層_39-28" cx="1789.32" cy="417.2" r="10.65" gradientTransform="matrix(1, -0.03, 0.06, 1.83, -25.35, -386.85)" xlink:href="#未命名漸層_39"/><radialGradient id="未命名漸層_39-29" cx="1436.28" cy="132.76" r="9.74" gradientTransform="matrix(1.19, -0.07, 0.18, 1.96, 40.48, 163.31)" xlink:href="#未命名漸層_39"/><radialGradient id="未命名漸層_39-30" cx="1436.31" cy="132.76" r="9.71" gradientTransform="matrix(1.19, -0.07, 0.18, 1.96, 40.48, 163.31)" xlink:href="#未命名漸層_39"/><radialGradient id="未命名漸層_39-31" cx="1436.27" cy="132.76" r="9.76" gradientTransform="matrix(1.19, -0.07, 0.18, 1.96, 40.48, 163.31)" xlink:href="#未命名漸層_39"/><radialGradient id="未命名漸層_39-32" cx="1779.27" cy="398.22" r="6.56" gradientTransform="translate(0 -331.93) scale(1 1.65)" xlink:href="#未命名漸層_39"/><radialGradient id="未命名漸層_39-33" cx="440.88" cy="-3.95" r="18.42" gradientTransform="matrix(-1.19, -0.24, -0.28, 2.18, 2263.97, 420.36)" xlink:href="#未命名漸層_39"/><radialGradient id="未命名漸層_39-34" cx="440.88" cy="-3.95" r="18.43" gradientTransform="matrix(-1.19, -0.24, -0.28, 2.18, 2263.97, 420.36)" xlink:href="#未命名漸層_39"/><radialGradient id="未命名漸層_39-35" cx="1732.95" cy="396.16" r="14.07" gradientTransform="translate(0 -411.36) scale(1 1.81)" xlink:href="#未命名漸層_39"/><radialGradient id="未命名漸層_39-36" cx="268.3" cy="88.43" r="12.54" gradientTransform="matrix(-1.19, -0.07, -0.18, 1.96, 2071.11, 163.31)" xlink:href="#未命名漸層_39"/><radialGradient id="未命名漸層_39-37" cx="268.3" cy="88.43" r="12.54" gradientTransform="matrix(-1.19, -0.07, -0.18, 1.96, 2071.11, 163.31)" xlink:href="#未命名漸層_39"/><radialGradient id="未命名漸層_39-38" cx="1730.18" cy="394.21" r="8.44" gradientTransform="translate(0 -331.93) scale(1 1.65)" xlink:href="#未命名漸層_39"/><radialGradient id="未命名漸層_39-39" cx="1895.58" cy="436.85" r="26.99" gradientTransform="matrix(0.84, -0.18, 0.23, 1.07, 85.63, 148.78)" xlink:href="#未命名漸層_39"/><radialGradient id="未命名漸層_39-41" cx="1770.59" cy="454.16" r="11.8" gradientTransform="matrix(0.98, -0.21, 0.26, 1.25, -73.34, 82.33)" xlink:href="#未命名漸層_39"/><radialGradient id="未命名漸層_39-42" cx="1709.85" cy="549.55" r="26.99" gradientTransform="matrix(0.8, -0.38, 0.3, 1.02, 228.91, 357.24)" xlink:href="#未命名漸層_39"/><radialGradient id="未命名漸層_39-44" cx="1771.06" cy="306.38" r="12.82" gradientTransform="translate(0 -100.98) scale(1 1.2)" xlink:href="#未命名漸層_39"/><radialGradient id="未命名漸層_39-45" cx="404.31" cy="-128.03" r="24.71" gradientTransform="matrix(-1.23, -0.7, -0.64, 2.29, 2182.1, 853.04)" xlink:href="#未命名漸層_39"/><radialGradient id="未命名漸層_39-46" cx="404.31" cy="-128.04" r="24.71" gradientTransform="matrix(-1.23, -0.7, -0.64, 2.29, 2182.1, 853.04)" xlink:href="#未命名漸層_39"/><radialGradient id="未命名漸層_39-47" cx="1698.21" cy="428.89" r="18.83" gradientTransform="matrix(1.07, -0.16, 0.24, 1.82, -161.94, -240.36)" xlink:href="#未命名漸層_39"/><radialGradient id="未命名漸層_39-48" cx="403.29" cy="-130.24" r="23.44" gradientTransform="matrix(-1.1, -0.62, -0.7, 2.02, 2112.81, 804.8)" xlink:href="#未命名漸層_39"/><radialGradient id="未命名漸層_39-49" cx="403.29" cy="-130.24" r="23.44" gradientTransform="matrix(-1.1, -0.62, -0.7, 2.02, 2112.81, 804.8)" xlink:href="#未命名漸層_39"/><radialGradient id="未命名漸層_39-50" cx="1749.25" cy="379.87" r="17.93" gradientTransform="translate(0 -351.58) scale(1 1.69)" xlink:href="#未命名漸層_39"/><radialGradient id="未命名漸層_39-51" cx="420.94" cy="-79.77" r="18.42" gradientTransform="matrix(-1.16, -0.41, -0.56, 2.55, 2194.56, 669.26)" xlink:href="#未命名漸層_39"/><radialGradient id="未命名漸層_39-52" cx="420.94" cy="-79.77" r="18.42" gradientTransform="matrix(-1.16, -0.41, -0.56, 2.55, 2194.56, 669.26)" xlink:href="#未命名漸層_39"/><radialGradient id="未命名漸層_39-53" cx="1743.33" cy="406.65" r="16.71" gradientTransform="translate(0 -568.98) scale(1 2.12)" xlink:href="#未命名漸層_39"/><radialGradient id="未命名漸層_39-54" cx="438.82" cy="-41" r="22.43" gradientTransform="matrix(-1.19, -0.24, -0.31, 2.61, 2256.76, 495.98)" xlink:href="#未命名漸層_39"/><radialGradient id="未命名漸層_39-55" cx="438.82" cy="-41.01" r="22.44" gradientTransform="matrix(-1.19, -0.24, -0.31, 2.61, 2256.76, 495.98)" xlink:href="#未命名漸層_39"/><radialGradient id="未命名漸層_39-56" cx="1737.94" cy="410.16" r="20.3" gradientTransform="matrix(1, -0.02, 0.04, 2.16, -14.85, -575.05)" xlink:href="#未命名漸層_39"/><radialGradient id="未命名漸層_39-57" cx="1729.31" cy="37.57" r="26.21" gradientTransform="matrix(0.87, 0.01, -0.01, 2.21, 247.69, 179.09)" xlink:href="#未命名漸層_39"/><radialGradient id="未命名漸層_39-58" cx="1729.31" cy="37.56" r="26.21" gradientTransform="matrix(0.87, 0.01, -0.01, 2.21, 247.69, 179.09)" xlink:href="#未命名漸層_39"/><radialGradient id="未命名漸層_39-59" cx="2051.9" cy="385.7" r="19.86" gradientTransform="translate(278.07 -423.38) scale(0.72 1.83)" xlink:href="#未命名漸層_39"/><radialGradient id="未命名漸層_39-60" cx="1489.35" cy="45.48" r="21.87" gradientTransform="matrix(1.21, 0.01, -0.01, 2.21, -42.07, 179.09)" xlink:href="#未命名漸層_39"/><radialGradient id="未命名漸層_39-61" cx="1489.35" cy="45.48" r="21.87" gradientTransform="matrix(1.21, 0.01, -0.01, 2.21, -42.07, 179.09)" xlink:href="#未命名漸層_39"/><radialGradient id="未命名漸層_39-62" cx="1761.01" cy="393.62" r="16.57" gradientTransform="translate(0 -423.38) scale(1 1.83)" xlink:href="#未命名漸層_39"/><radialGradient id="未命名漸層_39-63" cx="1410.22" cy="125.99" r="15.15" gradientTransform="matrix(1.19, -0.07, 0.18, 1.96, 40.48, 163.31)" xlink:href="#未命名漸層_39"/><radialGradient id="未命名漸層_39-64" cx="1410.22" cy="125.99" r="15.15" gradientTransform="matrix(1.19, -0.07, 0.18, 1.96, 40.48, 163.31)" xlink:href="#未命名漸層_39"/><radialGradient id="未命名漸層_39-65" cx="1749.19" cy="391.52" r="10.19" gradientTransform="translate(0 -331.93) scale(1 1.65)" xlink:href="#未命名漸層_39"/><radialGradient id="未命名漸層_39-66" cx="1446.51" cy="88.43" r="20.68" gradientTransform="matrix(1.19, 0.04, 0.07, 1.97, 25.95, 69.41)" xlink:href="#未命名漸層_39"/><radialGradient id="未命名漸層_39-67" cx="1446.51" cy="88.43" r="20.68" gradientTransform="matrix(1.19, 0.04, 0.07, 1.97, 25.95, 69.41)" xlink:href="#未命名漸層_39"/><radialGradient id="未命名漸層_39-68" cx="1764.66" cy="385.03" r="13.86" gradientTransform="translate(0 -334.66) scale(1 1.66)" xlink:href="#未命名漸層_39"/><radialGradient id="未命名漸層_39-69" cx="1476.21" cy="-17.47" r="18.02" gradientTransform="matrix(1.14, 0.38, -0.37, 1.94, 74.24, -227.76)" xlink:href="#未命名漸層_39"/><radialGradient id="未命名漸層_45" cx="1476.21" cy="-17.47" r="18.01" gradientTransform="matrix(1.14, 0.38, -0.37, 1.94, 74.24, -227.76)" gradientUnits="userSpaceOnUse"><stop offset="0" stop-color="#a0ba4f"/><stop offset="1" stop-color="#323a19"/></radialGradient><radialGradient id="未命名漸層_39-70" cx="1759.73" cy="333" r="11.93" gradientTransform="matrix(0.99, 0.12, -0.2, 1.63, 86.06, -443.08)" xlink:href="#未命名漸層_39"/><linearGradient id="linear-gradient" x1="1768.17" y1="334.08" x2="1768.52" y2="339.53" gradientUnits="userSpaceOnUse"><stop offset="0" stop-color="#6b5240"/><stop offset="0.13" stop-color="#81644f"/><stop offset="0.27" stop-color="#91725a"/><stop offset="0.44" stop-color="#9a7a61"/><stop offset="0.66" stop-color="#9d7c63"/></linearGradient><linearGradient id="linear-gradient-2" x1="1762.2" y1="332.49" x2="1762.03" y2="346.35" gradientUnits="userSpaceOnUse"><stop offset="0" stop-color="#503226"/><stop offset="0.1" stop-color="#6b4c3b"/><stop offset="0.21" stop-color="#81614d"/><stop offset="0.33" stop-color="#917059"/><stop offset="0.47" stop-color="#9a7961"/><stop offset="0.66" stop-color="#9d7c63"/></linearGradient><radialGradient id="radial-gradient-2" cx="857.02" cy="258.72" r="140.92" gradientTransform="translate(-1.09 357.02) rotate(-13.68) scale(1 0.42)" xlink:href="#radial-gradient"/></defs><title>設施介紹-資產 7</title><g class="cls-1"><g id="圖層_2" data-name="圖層 2"><g id="圖層_1-2" data-name="圖層 1"><path class="cls-2" d="M1612.28,565.08c-5.61-.14-10.33-4.12-16.06-3.72-10.39-3-20.79-6-31.15-9.06a5.33,5.33,0,0,1-.56,0c-5.59-.71-11.21-1.35-16.49-3.45a12.33,12.33,0,0,1-1.24.2c-4.33.42-8.83-.54-9.08-5.16-.45-8.41-6.43-8.76-12.06-9.57-3.27-.48-4.6-1.57-4.93-4.9-.42-4.32-4.15-8.24-7.26-8.21-7.43.08-12.76-4.82-19.37-6.58-10.88-2.91-20.42-.7-29.84,3.14-5.84,2.39-11,7-11.27,14.23-.2,5.69-2.36,6.27-7.45,5-9.86-2.36-14.06,1-14.89,11.08-.31,3.7-2,6-5.73,5.78-16.91-1.06-32.49,6-48.93,7.86-1.33.14-3.32.26-4.16,2.69,4.51.63,8.83,1.64,13.17,1.79,16.83.58,33.66.9,50.5,1.31a40.84,40.84,0,0,1,5.54.15c14.58,2.39,29.19,4.72,44,3.45a19.88,19.88,0,0,1,10,1.45,53.83,53.83,0,0,1,7.39-1.34,4.18,4.18,0,0,1,.94-1.64c1.3-1.46,2.84-2.77,4.77-1.41,1.24.87,2.63,1.55,3.8,2.54,1.92,0,3.85,0,5.78.06a2.09,2.09,0,0,1-.08-.51c0-1.68,1.74-1.27,2.82-1.65,4.25-1.49,8.45.38,12.75.11,8.19-.52,16.44,0,24.67,0l6.17,0h48.2Z"/><path class="cls-3" d="M1295.2,566.42c-1.06,4.66-1.58,9.47-6.87,10.86-3.22.85-4.88,6.29-9.11,5.13-6.09-1.66-11.77-.85-17.63,2-3.65,1.79-6.49-2.09-9-5a27.14,27.14,0,0,0-12.89,4.26c-4.43,2.64-7.57,8.4-13.36,7.9a1.49,1.49,0,0,0-1.45,1.54c.05,1.37,1.13,1.32,1.94,1.24,8.4-.87,16.61,1.38,24.92,2.07,3.85,1.72,8.13-.11,11.94,2,2.07-.32,4,.42,6,1,7.42,0,14.83.12,22.25,0,12.41-.22,24.83-1,37.21.12,11.17,1,22.34.79,33.51.92a266,266,0,0,1,29.74-1.05,9.3,9.3,0,0,0,2.9-.62c1.06-.35,2.45-.38,2.81-1.89.42-1.72-1-2-1.89-2.86-5.92-5.79-10.23-13.3-15.24-20s-11.5-9.42-18.51-6.3c-4.2,1.88-6.32.6-7.77-5s-3.28-10.43-7.4-14c-6.16-5.27-13-4.48-18.14,2.18-3.13,4.06-6.21,8.2-10.15,11.32-2,1.58-4.26,1.86-6.06.77C1306.14,558.94,1300.21,559,1295.2,566.42Z"/><path class="cls-4" d="M616.17,365.29c34.94-6.73,70.3-11.59,105.1-19,28.3-6,57.19-10,84.9-19.28a344.9,344.9,0,0,0,91.65-46.83c22-15.82,69.57-46.53,59-79.5-5.34-16.72-26.35-21-41.16-24.8-29.2-7.56-58.42-21.3-81.62-40.79-8.45-7.11-13.9-18.82-14.64-30.4-72.8-12.16-140.07-15.5-201-6.19C438.83,125.91,167,367.84,167,375.33L4.84,495.05v33.68c129.56-60.46,269.07-95.84,408.75-124.39C481,390.58,548.64,378.29,616.17,365.29Z"/><path class="cls-5" d="M1083.84,292.28s232.65-80,317.42-120.47c75.37-36,165.21-106,338-52,75.3,23.53,155,74,472.15,221.14s181.63,289.33,181.63,289.33H1246.35Z"/><path class="cls-6" d="M2211.43,341c-317.18-147.16-396.85-197.61-472.15-221.14a417.51,417.51,0,0,0-45.91-11.64c28.47,21.67,12.49,17.11,45.1,38.69,15,9.94,31.79,17.58,45.93,28.55,25.73,20,33,47.56,16.44,74.87,0,0,.21.44.2.45-19.41,31.9-59.51,47.42-97.4,58.47-95.18,27.75-190.58,38-286.89,44.3-70.58,4.59-113.64,47-185.47,52.57l-17.11,1.38,32.18,222.83H2393.06S2528.6,488.11,2211.43,341Z"/><path class="cls-7" d="M2038.12,657.57s968.22-2.29,186.22-201.29-478.62-107.22-748-202c-178-62.62-514.68-167.93-656.41-191.62.74,11.58,6.19,23.29,14.64,30.4,23.2,19.49,52.42,33.23,81.62,40.79,14.81,3.83,35.82,8.08,41.16,24.8,10.54,33-37,63.68-59,79.5A344.9,344.9,0,0,1,806.67,285c-27.71,9.25-56.6,13.24-84.9,19.28-34.8,7.44-70.16,12.3-105.1,19-67.53,13-135.2,25.29-202.58,39C274.41,390.89,134.9,426.27,5.34,486.73V605.19C-98.34,790.67,1333,646,2038.12,657.57Z"/><path class="cls-5" d="M623.67,324.29c34.94-6.73,70.3-11.59,105.1-19,28.3-6,57.19-10,84.9-19.28a344.9,344.9,0,0,0,91.65-46.83c22-15.82,69.57-46.53,59-79.5-5.34-16.72-26.35-21-41.16-24.8-29.2-7.56-58.42-21.3-81.62-40.79-8.45-7.11-13.9-18.82-14.64-30.4-72.8-12.16-140.07-15.5-201-6.19C446.33,84.91,174.47,326.84,174.47,334.33L12.34,454.05v33.68c129.56-60.46,269.07-95.84,408.75-124.39C488.47,349.58,556.14,337.29,623.67,324.29Z"/><path class="cls-8" d="M749.83,214.45c-11.08-7-22.32-14.22-31.51-24.18-8.21-8.89-12.75-19.89-19.37-29.66-18.9-27.91-45.51-34-74.71-19.26-22.78,11.47-43.06,27-64.82,40.06-44.3,26.59-90,50.84-136.27,73.73-32.21,15.93-63.36,33.71-94.69,51.18-5.56,3.1-14.36,5.94-12.93,14,1.29,7.35,9.37,10.21,15.91,13.23a5.11,5.11,0,0,0,1,.31c21.33,4.65,42.83,8.93,64.57,10,25,1.24,50.15.31,75.23.32-.06-.82-.09-1.62-.09-2.42l204.08-41.41c10.82-2.2,21.68-4.4,32.19-7.64.39.59.77,1.19,1.15,1.79,12.14-.93,20.77-10.61,32.35-12.93,5.7-.8,8.72-5.62,12.94-8.65q1.05-7.57,8.64-8.63l2.16-4.31C771.09,241.1,767.79,225.86,749.83,214.45Z"/><path class="cls-9" d="M1703.47,174.56c-3.86-4.28-8-8.59-14.27-12.12-16.51-9.31-36.22-17-52.26-26.62-11.09-6.63-30.16-6.64-47.34-1-15,4.89-28.15,11-41.5,17-33.13,14.74-67.72,28.13-107.46,37.41a101.79,101.79,0,0,0-26.51,9.92c-6.89,3.87-6.88,6.87.4,9.62,10.9,4.12,25.08,4.71,38.39,5.83,16.11,1.37,31.68,4.1,49.46,2.63a4.79,4.79,0,0,1,.48-1.26q16.47.33,33.11.11c0,.17,0,.33,0,.49,2.93-.16,6.07-.64,8.74-.43,19.66,1.56,39.85-.75,60-3.2,9.16-1.11,17.92-3.52,27.28-4.26,19.82-1.56,37.28-7.32,54.21-13C1704.27,189.63,1710.06,181.89,1703.47,174.56Z"/><path class="cls-10" d="M1541.37,245.58a15.53,15.53,0,0,0-3.42-5.13,2.49,2.49,0,0,0-1.19-.62c-.24-.21-.48-.4-.75-.6a4.3,4.3,0,0,0-4.83-.22c-1.66.84-3.3,1.69-5,2.54l-.64,0-1,1c-1,1.15-2,2.29-3,3.45-1.58,1.91-.66,3.3,2.48,3.87a60.39,60.39,0,0,0,14,.39,2.83,2.83,0,0,0,2.28,0C1543,249.17,1542.11,247.26,1541.37,245.58Z"/><path class="cls-11" d="M1525.61,242.71l.69-.73.44,0,3.42-1.84a2.87,2.87,0,0,1,3.34.16c2.72,2.11,3.28,4.67,3.23,7.37,0,.42-.38.57-.93.6a43.11,43.11,0,0,1-10.53-.23c-2.17-.41-2.81-1.42-1.72-2.8C1524.22,244.36,1524.93,243.54,1525.61,242.71Z"/><path class="cls-10" d="M1538.15,241.22s13.55-10.6,21.79-11.77,15.31,4.12,15.31,6.47-6.47,9.43-6.47,9.43l-18.3,1.64s-12.2,1.95-12.26-1.91Z"/><path class="cls-11" d="M1550.4,242.39c-1.63.68-3.19.15-4.7,0-2.44-.33-3-1.88-1.2-3.61a27.48,27.48,0,0,1,8.68-5.3c2.56-1.11,4.94-2.81,7.93-2.81,2.11,0,3,.62,2.55,3-1.1,6.42-3.13,8.11-11.28,8.78C1551.7,242.44,1551,242.39,1550.4,242.39Z"/><path class="cls-10" d="M725.21,373.52a19.06,19.06,0,0,1,4.17-6.26,3.18,3.18,0,0,1,1.46-.77c.29-.24.59-.48.91-.72a5.26,5.26,0,0,1,5.91-.27c2,1,4,2.07,6.05,3.1l.77,0c.4.42.8.83,1.21,1.24,1.21,1.4,2.47,2.79,3.64,4.21,1.93,2.34.8,4-3,4.73-5.67,1-11.4.8-17.13.48a3.45,3.45,0,0,1-2.78,0C723.23,377.91,724.3,375.57,725.21,373.52Z"/><path class="cls-11" d="M744.45,370c-.28-.29-.55-.59-.83-.89l-.54,0c-1.39-.75-2.77-1.51-4.18-2.24a3.47,3.47,0,0,0-4.07.19c-3.33,2.57-4,5.7-4,9,0,.52.46.7,1.14.74,4.3.26,8.6.52,12.86-.29,2.65-.5,3.42-1.73,2.09-3.41C746.16,372,745.29,371,744.45,370Z"/><path class="cls-10" d="M729.14,368.2s-16.55-12.95-26.62-14.38-18.7,5-18.7,7.91,7.92,11.51,7.92,11.51l22.34,2s14.9,2.39,15-2.32Z"/><path class="cls-11" d="M714.18,369.63c2,.83,3.9.18,5.74-.07,3-.4,3.6-2.3,1.46-4.4-3-3-6.79-4.83-10.6-6.48-3.12-1.35-6-3.43-9.68-3.43-2.58,0-3.61.76-3.12,3.66,1.35,7.83,3.82,9.9,13.79,10.71C712.6,369.69,713.44,369.63,714.18,369.63Z"/><path class="cls-12" d="M1818,122.81c-3.22-4.32-8.81-3.73-12.93-1.25-3.85,2.32-7,6-9.65,9.55a40.86,40.86,0,0,0-4.44,7.09,32,32,0,0,0-4.09-7.74,14.29,14.29,0,0,0-4.72-4.35,1.33,1.33,0,0,0,.31-.48c3.08-8.41,6.67-17,7-26.07.13-4.18-1-8.37-4.86-10.56a9.18,9.18,0,0,0-1.69-.76,3.29,3.29,0,0,0-2.39-.56,13,13,0,0,0-6.57.89,63.07,63.07,0,0,0-.51-6.76,82.61,82.61,0,0,0-2.49-13.33c-1-3.58-2.32-7.47-5.25-10-3.18-2.7-7.13-1.34-9.69,1.36-5.29,5.6-4.12,13.86-1,20.26,2.62,5.45,7.77,11.26,14,12.8-2.68,4.28-2.93,10.1-2.7,14.93.29,6,1.51,12.8,4.64,18a2.93,2.93,0,0,0,1.75,1.29s0,0,0,0a24.52,24.52,0,0,0-9.85,10.08c-1.76,3.32-2.42,7.1-2.9,10.79a50.69,50.69,0,0,0-.12,11.68c.76,7.53,3.41,14.6,6.79,21.31,3.06,6.1,6.65,12,12.89,15.19,1,.54,2.93.5,3.46-.62a10.63,10.63,0,0,0,5.26-.55,3.54,3.54,0,0,0,1,.61,3,3,0,0,0,2.82-.07,1.3,1.3,0,0,0,0-2.06s0-.18-.09-.31a1.25,1.25,0,0,0,.7-1.11c.09-1.95.1-3.9.08-5.86,0-.11,0-.23.08-.35.76-3.4,1.84-6.75,2.42-10.19a55.73,55.73,0,0,0,.32-7.2c.08-2.91.11-5.83,0-8.74a81.5,81.5,0,0,0-1.24-13.6,36.66,36.66,0,0,0,13.21-2.11c4.53-1.48,9.43-3.86,12.22-7.89C1822.85,131.7,1821,126.82,1818,122.81Zm-8.37,7.79-.22-.16.19-.08h.07C1809.67,130.44,1809.65,130.52,1809.64,130.6Z"/><path class="cls-13" d="M1757.26,71a4.44,4.44,0,0,1-.42-1.72c0-.5-1.13-.65-1.11-.07a4.45,4.45,0,0,0,.49,1.93C1756.43,71.56,1757.53,71.57,1757.26,71Z"/><path class="cls-13" d="M1763,67.67a4.83,4.83,0,0,0-1.22-2.5.78.78,0,0,0-.81-.2.33.33,0,0,0-.14.55,4.81,4.81,0,0,1,1.07,2.08C1762,68,1763.13,68.23,1763,67.67Z"/><path class="cls-13" d="M1765.68,62.26a.66.66,0,0,0-.77.1c-.18.24.08.47.28.58a1.41,1.41,0,0,1,.59,1c0,.5,1.14.65,1.14.07A2.26,2.26,0,0,0,1765.68,62.26Z"/><path class="cls-13" d="M1763.84,78.67a3.08,3.08,0,0,1-.61-.82.77.77,0,0,0-.74-.33c-.23,0-.47.23-.34.48a4,4,0,0,0,.77,1,.76.76,0,0,0,.78.2A.32.32,0,0,0,1763.84,78.67Z"/><path class="cls-13" d="M1768.21,73.17c-.31-.43-1.4-.25-1,.36a5.25,5.25,0,0,1,.83,2.76c0,.51,1.12.65,1.13.07A5.21,5.21,0,0,0,1768.21,73.17Z"/><path class="cls-13" d="M1763.72,73.61c-.21-.65-.49-1.28-.71-1.93-.16-.48-1.31-.48-1.1.14s.48,1.22.7,1.83C1762.76,74.06,1763.88,74.11,1763.72,73.61Z"/><path class="cls-13" d="M1767.5,88.28c-.45-.47-.91-.92-1.36-1.38a.81.81,0,0,0-.81-.2.33.33,0,0,0-.14.55c.46.46.91.92,1.38,1.37a.79.79,0,0,0,.8.2A.32.32,0,0,0,1767.5,88.28Z"/><path class="cls-13" d="M1769.9,82.08c-.12-.5-1.28-.63-1.15-.07a14.76,14.76,0,0,1,.23,3c0,.51,1.13.66,1.14.07A11.35,11.35,0,0,0,1769.9,82.08Z"/><path class="cls-13" d="M1773.75,98.67a7.92,7.92,0,0,1-.88-2.18c-.13-.49-1.29-.62-1.15-.07a7.3,7.3,0,0,0,1,2.39.76.76,0,0,0,.74.34C1773.63,99.12,1773.9,98.91,1773.75,98.67Z"/><path class="cls-13" d="M1777,95.34a9.88,9.88,0,0,0-.47-1.93c-.21-.46-1.35-.45-1.09.14s.25,1.24.48,1.83C1776,95.76,1777.09,95.87,1777,95.34Z"/><path class="cls-13" d="M1770.52,103.7a6.71,6.71,0,0,1-.65-2.64c0-.48-1.1-.63-1.1-.06a6.4,6.4,0,0,0,.73,2.84C1769.71,104.26,1770.78,104.27,1770.52,103.7Z"/><path class="cls-13" d="M1772.41,114.79a23.22,23.22,0,0,1-.25-3.44c0-.48-1.08-.62-1.1-.06a15.74,15.74,0,0,0,.21,3.43C1771.36,115.22,1772.52,115.35,1772.41,114.79Z"/><path class="cls-13" d="M1776.73,110c0-.48-1.07-.62-1.09-.06a4,4,0,0,1-.24,1.49c-.12.25.28.48.46.52a.53.53,0,0,0,.66-.24A4,4,0,0,0,1776.73,110Z"/><path class="cls-13" d="M1777.43,102.43c0-.49-1.1-.64-1.12-.06s0,1.37,0,2.06c0,.5,1.14.65,1.14.06S1777.45,103.12,1777.43,102.43Z"/><path class="cls-13" d="M1782.05,106.84a3.22,3.22,0,0,1-1.5,1.65c-.53.35.47.91.88.63a3.48,3.48,0,0,0,1.7-2C1783.25,106.61,1782.2,106.35,1782.05,106.84Z"/><path class="cls-13" d="M1783.25,98.06a3.42,3.42,0,0,0-.53,1.56c0,.27.41.42.61.43s.49-.09.5-.36a3.82,3.82,0,0,1,.43-1.27C1784.45,98,1783.45,97.69,1783.25,98.06Z"/><path class="cls-13" d="M1781.94,94.09c-.36.33-.37.79-.57,1.21-.28.58.86.93,1.11.38a3.52,3.52,0,0,0,.22-.62,1.37,1.37,0,0,1,.16-.44C1783.17,94.19,1782.24,93.82,1781.94,94.09Z"/><path class="cls-13" d="M1780.21,120.21a3.64,3.64,0,0,1-.64,1.86c-.31.48.74.88,1,.46a4.13,4.13,0,0,0,.73-2.25C1781.31,119.8,1780.23,119.65,1780.21,120.21Z"/><path class="cls-13" d="M1784.12,111.65a3.55,3.55,0,0,1-1.49,1.88c-.51.35.45.88.84.61a3.93,3.93,0,0,0,1.71-2.23C1785.29,111.42,1784.27,111.17,1784.12,111.65Z"/><path class="cls-13" d="M1776.75,117.3c0-.5-1.14-.65-1.14-.06,0,.76,0,1.52,0,2.28,0,.49,1.07.63,1.09.07C1776.77,118.83,1776.75,118.06,1776.75,117.3Z"/><path class="cls-13" d="M1773.44,122.82a4.73,4.73,0,0,1-1.28-2.09c-.13-.47-1.24-.59-1.1-.06a5.43,5.43,0,0,0,1.47,2.48.74.74,0,0,0,.77.2A.32.32,0,0,0,1773.44,122.82Z"/><path class="cls-13" d="M1785.18,133.44a7,7,0,0,0-1.76-2,.75.75,0,0,0-.81-.06.34.34,0,0,0,.07.58,6,6,0,0,1,1.44,1.64.75.75,0,0,0,.73.33C1785.06,133.88,1785.34,133.68,1785.18,133.44Z"/><path class="cls-13" d="M1781.5,136.87a15.12,15.12,0,0,1-.87-2.64c-.12-.48-1.25-.6-1.11-.07a13.44,13.44,0,0,0,1,2.85C1780.68,137.43,1781.77,137.44,1781.5,136.87Z"/><path class="cls-13" d="M1771.51,135.89c-.21.9-.25,1.84-.45,2.74-.11.51,1,.78,1.1.28.22-.91.26-1.84.47-2.74C1772.75,135.65,1771.63,135.37,1771.51,135.89Z"/><path class="cls-13" d="M1778.58,131.71c-.23-.72-.47-1.44-.71-2.16-.16-.48-1.29-.48-1.09.15s.46,1.37.7,2.05C1777.62,132.17,1778.74,132.21,1778.58,131.71Z"/><path class="cls-13" d="M1766,140.46a15,15,0,0,1-.9,2.75c-.19.42.84.75,1,.36a12.79,12.79,0,0,0,1-2.83C1767.26,140.23,1766.15,140,1766,140.46Z"/><path class="cls-13" d="M1768.65,134.32c-.19-.09-.64-.16-.77.09a3.56,3.56,0,0,0-.49,1.58c0,.44,1.08.65,1.12.17a3.46,3.46,0,0,1,.42-1.27C1769.06,134.64,1768.89,134.43,1768.65,134.32Z"/><path class="cls-13" d="M1770.8,148.87a9.24,9.24,0,0,1-.2-2.52c0-.51-1.18-.67-1.18-.07a8.31,8.31,0,0,0,.29,2.63C1769.85,149.31,1770.94,149.37,1770.8,148.87Z"/><path class="cls-13" d="M1765.3,153.44c-.2-.75-.21-1.54-.44-2.28a.66.66,0,0,0-.63-.45c-.18,0-.6.1-.51.38.24.78.24,1.61.51,2.39C1764.37,153.87,1765.43,153.94,1765.3,153.44Z"/><path class="cls-13" d="M1769.84,163.63a30.26,30.26,0,0,0-1.11-3.2c-.22-.46-1.38-.45-1.1.14.49,1,.72,2.16,1.17,3.2C1769,164.21,1770.05,164.23,1769.84,163.63Z"/><path class="cls-13" d="M1764.86,162.14c-.12-.5-1.26-.62-1.14-.07a13.3,13.3,0,0,1,.24,2.74c0,.5,1.12.65,1.12.07A11,11,0,0,0,1764.86,162.14Z"/><path class="cls-13" d="M1775.34,157.23a11.12,11.12,0,0,1-1.14-2.29c-.16-.47-1.28-.47-1.07.14a10.24,10.24,0,0,0,1.15,2.29.75.75,0,0,0,.73.33C1775.22,157.67,1775.5,157.47,1775.34,157.23Z"/><path class="cls-13" d="M1779.49,149.1a6.52,6.52,0,0,1-.44-1.83c0-.51-1.17-.67-1.16-.07a6.26,6.26,0,0,0,.51,1.94C1778.55,149.53,1779.65,149.59,1779.49,149.1Z"/><path class="cls-13" d="M1775.84,141.25c0,.92,0,1.83,0,2.75,0,.5,1.13.65,1.13.06,0-.91,0-1.82,0-2.74C1777,140.82,1775.84,140.66,1775.84,141.25Z"/><path class="cls-13" d="M1785.44,149.55a7.6,7.6,0,0,1-.45-2.05c0-.51-1.16-.66-1.15-.07a7,7,0,0,0,.51,2.16C1784.49,150,1785.59,150,1785.44,149.55Z"/><path class="cls-13" d="M1787,143.27a6.85,6.85,0,0,1-.41-2c0-.51-1.17-.66-1.16-.07a7.37,7.37,0,0,0,.5,2.17C1786.1,143.89,1787.22,143.89,1787,143.27Z"/><path class="cls-13" d="M1790.7,156.65a12.82,12.82,0,0,1-.44-2.75c0-.5-1.17-.66-1.15-.07a11.24,11.24,0,0,0,.47,2.75C1789.7,157.06,1790.83,157.19,1790.7,156.65Z"/><path class="cls-13" d="M1784.76,159.39c-.2-1.14-.24-2.29-.45-3.43-.09-.51-1.26-.64-1.15-.07.21,1.14.24,2.3.46,3.43C1783.72,159.82,1784.86,160,1784.76,159.39Z"/><path class="cls-13" d="M1778.81,158.93c-.22-.74-.22-1.54-.45-2.28a.68.68,0,0,0-.63-.45c-.19,0-.6.1-.51.38.22.75.22,1.54.46,2.29a.65.65,0,0,0,.62.43C1778.48,159.31,1778.89,159.21,1778.81,158.93Z"/><path class="cls-13" d="M1776.48,167.52a4.14,4.14,0,0,1-.41-1.72c0-.5-1.15-.66-1.14-.07a4.51,4.51,0,0,0,.51,1.93C1775.65,168.08,1776.74,168.09,1776.48,167.52Z"/><path class="cls-13" d="M1771.84,172.69a4.87,4.87,0,0,1-1-2.32c-.12-.48-1.24-.59-1.1-.07a5.7,5.7,0,0,0,1.24,2.72.74.74,0,0,0,.77.19A.31.31,0,0,0,1771.84,172.69Z"/><path class="cls-13" d="M1778,180c-.26-.28-.42-.64-.68-.92a.79.79,0,0,0-.8-.2.33.33,0,0,0-.14.55c.27.28.43.64.7.91a.76.76,0,0,0,.78.2A.32.32,0,0,0,1778,180Z"/><path class="cls-13" d="M1784.2,175a20.66,20.66,0,0,1-1.75-2.42c-.23-.44-1.39-.43-1.09.15a16.17,16.17,0,0,0,1.91,2.61C1783.59,175.7,1784.61,175.56,1784.2,175Z"/><path class="cls-13" d="M1785.41,165.46c-.2-.44-.25-.93-.45-1.37s-1.35-.44-1.08.14.26.93.47,1.38S1785.67,166.05,1785.41,165.46Z"/><path class="cls-13" d="M1790,170.07c0,.69,0,1.38,0,2.06,0,.5,1.08.63,1.11.07s0-1.37,0-2.06C1791.17,169.64,1790,169.48,1790,170.07Z"/><path class="cls-13" d="M1771.67,181.93a11.09,11.09,0,0,1-.9-2.06c-.15-.47-1.27-.47-1.07.15a7.83,7.83,0,0,0,1,2.15C1770.94,182.49,1772,182.44,1771.67,181.93Z"/><path class="cls-13" d="M1779.85,189.92a10.49,10.49,0,0,1-2.28-1.68.77.77,0,0,0-.8-.2.32.32,0,0,0-.14.54,10.76,10.76,0,0,0,2.75,2C1779.94,190.83,1780.5,190.27,1779.85,189.92Z"/><path class="cls-13" d="M1788.54,187.09c-.4-.44-.71-1-1.13-1.37a.79.79,0,0,0-.81-.21.33.33,0,0,0-.14.56c.42.43.72,1,1.16,1.36a.77.77,0,0,0,.79.2A.32.32,0,0,0,1788.54,187.09Z"/><path class="cls-13" d="M1791.86,178.77a4.41,4.41,0,0,1-.39,2.09c-.28.49.73.86,1,.46a4.29,4.29,0,0,0,.52-2.49C1793,178.33,1791.86,178.18,1791.86,178.77Z"/><path class="cls-13" d="M1783.12,181.93a4.53,4.53,0,0,1-.18-1.72c0-.51-1.15-.66-1.15-.07a4.2,4.2,0,0,0,.27,1.93C1782.27,182.5,1783.37,182.53,1783.12,181.93Z"/><path class="cls-13" d="M1777.79,171.61c-.18-.08-.62-.15-.74.1a2.82,2.82,0,0,0-.24.63,3.37,3.37,0,0,0,0,.71c0,.48,1,.61,1.08.06a2.32,2.32,0,0,1,.19-.94C1778.18,171.93,1778,171.72,1777.79,171.61Z"/><path class="cls-13" d="M1791.62,164.42c-.21-.73-.47-1.44-.71-2.16-.16-.48-1.29-.48-1.09.14s.44,1.39.7,2.06C1790.68,164.85,1791.76,164.94,1791.62,164.42Z"/><path class="cls-13" d="M1792.33,142c0-.52-1.18-.68-1.18-.07,0,1,0,2,0,3,0,.52,1.14.66,1.16.07C1792.35,144,1792.33,143,1792.33,142Z"/><path class="cls-13" d="M1801.34,140.89a.76.76,0,0,0-.77-.19c-.26.11-.75.38-1,.25a.65.65,0,0,0-.76.1c-.17.23.07.48.27.57a2.54,2.54,0,0,0,2.27-.26A.31.31,0,0,0,1801.34,140.89Z"/><path class="cls-13" d="M1799.53,135.62a.77.77,0,0,0-.8-.19l-1.38.67c-.66.33.21,1,.68.76l1.47-.75C1799.69,136,1799.64,135.76,1799.53,135.62Z"/><path class="cls-13" d="M1804.05,125.73a17.69,17.69,0,0,1-1.41,1.82c-.2.21.11.5.29.58a.68.68,0,0,0,.78-.09,9.39,9.39,0,0,0,1.34-1.85C1805.34,125.7,1804.34,125.35,1804.05,125.73Z"/><path class="cls-13" d="M1810.67,122.81a3.51,3.51,0,0,0-1.67.24c-.68.32.21,1,.7.79a3.23,3.23,0,0,1,1.23-.22c.18,0,.39-.16.36-.37S1810.91,122.83,1810.67,122.81Z"/><path class="cls-13" d="M1808.84,131.72a4.77,4.77,0,0,0-2.13.48c-.69.33.22,1,.71.79a4.23,4.23,0,0,1,1.68-.44c.19,0,.4-.17.37-.38S1809.09,131.73,1808.84,131.72Z"/><path class="cls-13" d="M1809.84,136.86a2.35,2.35,0,0,1-1.76.37c-.23,0-.61,0-.69.25s.26.49.49.55a3.37,3.37,0,0,0,2.82-.55C1811.23,137.09,1810.22,136.64,1809.84,136.86Z"/><path class="cls-13" d="M1816.7,133.66a12.63,12.63,0,0,0-1.68,1.9c-.32.48.74.88,1,.47a14.59,14.59,0,0,1,1.59-1.83C1818,133.82,1817,133.38,1816.7,133.66Z"/><path class="cls-13" d="M1815.78,128.62a6.08,6.08,0,0,1-1.29.84c-.68.33.22,1,.7.78a5,5,0,0,0,1.54-1.07C1817.1,128.77,1816.09,128.35,1815.78,128.62Z"/><path class="cls-13" d="M1812.56,126.94a.75.75,0,0,0-.79-.2,4.26,4.26,0,0,1-1.33.17c-.23,0-.58.09-.53.39s.39.46.65.46a3.69,3.69,0,0,0,2-.34A.31.31,0,0,0,1812.56,126.94Z"/><path class="cls-13" d="M1799.3,130.66c-.2-.09-.62-.14-.76.1a1.27,1.27,0,0,1-.13.19s-.11.09,0,.06h-.29c-.22,0-.56.08-.52.38a.66.66,0,0,0,.64.45c.57,0,1.11-.07,1.38-.64A.43.43,0,0,0,1799.3,130.66Z"/><path class="cls-13" d="M1793,156.35c0,.61,0,1.22,0,1.83s1.13.65,1.14.07,0-1.22,0-1.83S1793,155.75,1793,156.35Z"/><path class="cls-14" d="M803.42,51.28c.11-9.07-.24-19.54,3.08-28.15a7.42,7.42,0,0,1,9.12-4.47c4,1.17,4.5,6.92,4.85,10.27,1.6,15.4-3.47,34.79,6.08,47.72-1.56-15-3-30-1.19-45.06,1-8.4,3.07-17.91,7.87-25,3.61-5.36,10.65-8.69,16.67-5,6.39,3.91,8.41,12.16,9.71,19,1.85,9.79,2,19.88,1.92,29.82q-.1,12.66-.24,25.35l.11,0a2.58,2.58,0,0,0,1.85-1.37,16.63,16.63,0,0,0,2.16-6c1.07-5.38.93-11,.73-16.47-.18-5.17-.61-10.33-.7-15.51-.06-3.69.23-8.52,3-11.29,1.94-1.95,5.49-2.89,7.91-1.23,1.62,1.11,2.31,3.14,2.9,4.92a59.51,59.51,0,0,1,2.52,12.9c.92,9.41,2.44,18.8,2,28.29a24.4,24.4,0,0,1-7.44,17.14,9.06,9.06,0,0,1-3.92,3.14A60,60,0,0,1,861,95.68c-.25,18-.6,35.93-1.16,53.88-.08,2.8-5.6,3.87-6.92,1.54-4,3.91-11.14,5.78-15.08,1.53a7,7,0,0,1-.85-1.19c-1.84,3.11-9.3,3.61-8.62-.46,3.07-18.47,1.78-37,0-55.5-5.77,0-11.59-.55-16.63-3.58-4.85-2.91-7.08-8.78-7.67-14.14C803.16,69,803.32,60.05,803.42,51.28Z"/><path class="cls-15" d="M875,34.18a5.53,5.53,0,0,0,.71-3.25c-.1-.6,1.19-.91,1.28-.32a6.14,6.14,0,0,1-.79,3.74C876,34.83,874.71,34.84,875,34.18Z"/><path class="cls-15" d="M878.78,42.91c.48-.75,1-1.49,1.49-2.24a.84.84,0,0,1,.81-.37c.23,0,.54.26.37.53l-1.58,2.35C879.6,43.56,878.43,43.45,878.78,42.91Z"/><path class="cls-15" d="M870.25,35.86c.53,1.19,1.25,2.28,1.74,3.49.22.52-1,.84-1.22.3-.51-1.2-1.27-2.27-1.75-3.49C868.81,35.63,870,35.32,870.25,35.86Z"/><path class="cls-15" d="M868.38,47.29a.85.85,0,0,1,.87-.21,5,5,0,0,1,2,1.38c.23.23-.12.55-.31.64a.74.74,0,0,1-.85-.11,4.33,4.33,0,0,0-1.52-1.1A.36.36,0,0,1,868.38,47.29Z"/><path class="cls-15" d="M878.24,55.5a4.48,4.48,0,0,1,2-2.56.78.78,0,0,1,.85-.06c.25.17.13.47-.07.61a3.61,3.61,0,0,0-1.51,1.93C879.34,56,878.07,56.09,878.24,55.5Z"/><path class="cls-15" d="M879.6,66.74a4.81,4.81,0,0,0,1.12-2.27c.14-.54,1.43-.68,1.27-.07a5.59,5.59,0,0,1-1.37,2.72.85.85,0,0,1-.87.22A.35.35,0,0,1,879.6,66.74Z"/><path class="cls-15" d="M876.11,79l1.5-1.49a.84.84,0,0,1,.86-.22.35.35,0,0,1,.15.59l-1.49,1.5a.87.87,0,0,1-.87.21A.35.35,0,0,1,876.11,79Z"/><path class="cls-15" d="M870.37,68.81a.73.73,0,0,1,.83.11,13.63,13.63,0,0,0,1.91,1.65c.58.4-.52,1-1,.7a13.5,13.5,0,0,1-2.08-1.84C869.85,69.21,870.18,68.9,870.37,68.81Z"/><path class="cls-15" d="M870.36,56.34a.74.74,0,0,1,.85.1A8.67,8.67,0,0,1,873,58.68c.3.6-.92,1-1.18.54A9.23,9.23,0,0,0,870.05,57C869.83,56.74,870.17,56.42,870.36,56.34Z"/><path class="cls-15" d="M874,50.76a13.82,13.82,0,0,1,1.28-2.86c.25-.48,1.5-.47,1.18.16a14.9,14.9,0,0,0-1.21,2.63C875.1,51.21,873.84,51.36,874,50.76Z"/><path class="cls-15" d="M875.79,64.86c.21-.44.51-.82.74-1.25a.81.81,0,0,1,.81-.37c.26,0,.51.25.37.53s-.53.81-.76,1.24a.79.79,0,0,1-.8.36C875.89,65.34,875.65,65.13,875.79,64.86Z"/><path class="cls-15" d="M864.64,81a14,14,0,0,1,2.9-1.06c.77-.2,1,.66.21.85a14,14,0,0,0-2.59.93C864.54,82.05,863.89,81.41,864.64,81Z"/><path class="cls-15" d="M864.46,87.44h3c.83,0,.57.89-.13.89-1,0-2,0-3,0C863.53,88.3,863.78,87.45,864.46,87.44Z"/><path class="cls-15" d="M851.8,12.86a4.84,4.84,0,0,1,1.1-2,.86.86,0,0,1,.9-.22.36.36,0,0,1,.16.61A4.3,4.3,0,0,0,853,12.9C852.86,13.35,851.63,13.41,851.8,12.86Z"/><path class="cls-15" d="M853.6,24.21a8.48,8.48,0,0,0,.93-2.37c.14-.56,1.44-.69,1.29-.08a8.15,8.15,0,0,1-1.06,2.61.84.84,0,0,1-.8.36C853.72,24.7,853.44,24.48,853.6,24.21Z"/><path class="cls-15" d="M845.56,13.86c.24-1.5.49-3,.74-4.49.1-.57,1.39-.72,1.29-.08-.25,1.5-.49,3-.76,4.49C846.73,14.33,845.47,14.49,845.56,13.86Z"/><path class="cls-15" d="M844.77,22.78a11.56,11.56,0,0,1,1.31,3.85c.12.59-1.15.89-1.26.31a13.26,13.26,0,0,0-1.18-3.64C843.33,22.74,844.48,22.31,844.77,22.78Z"/><path class="cls-15" d="M836.44,11.24a8,8,0,0,1,1.9,2.92c.22.53-1,.86-1.24.31a8.92,8.92,0,0,0-1.68-2.64C835,11.4,836.11,10.93,836.44,11.24Z"/><path class="cls-15" d="M833.31,22.78c.72.86,1.47,1.69,2.26,2.48.24.24-.12.57-.31.66a.75.75,0,0,1-.88-.11,18.13,18.13,0,0,1-2.22-2.5C831.78,22.77,833,22.36,833.31,22.78Z"/><path class="cls-15" d="M855.33,37.68c.48-1,1-2,1.48-3,.25-.5,1.54-.48,1.21.17-.49,1-1,2-1.51,3C856.26,38.3,855,38.33,855.33,37.68Z"/><path class="cls-15" d="M847.85,33.44a30.3,30.3,0,0,0,1.73-3.75c.21-.52,1.49-.51,1.22.17A24.58,24.58,0,0,1,849,33.6C848.76,34.05,847.5,34.06,847.85,33.44Z"/><path class="cls-15" d="M850.1,54.63a4.51,4.51,0,0,0,.94-2.37c0-.57,1.3-.74,1.28-.08a5,5,0,0,1-1.13,2.72C850.93,55.28,849.76,55.17,850.1,54.63Z"/><path class="cls-15" d="M857.07,50.39a3.52,3.52,0,0,0,.45-1.37c0-.57,1.32-.75,1.29-.08a3.73,3.73,0,0,1-.55,1.61.83.83,0,0,1-.82.37C857.18,50.88,856.94,50.67,857.07,50.39Z"/><path class="cls-15" d="M851.83,42.91c.46-.69,1-1.31,1.48-2a.87.87,0,0,1,.85-.38c.23,0,.57.27.38.54-.5.73-1.08,1.38-1.59,2.11C852.68,43.58,851.47,43.46,851.83,42.91Z"/><path class="cls-15" d="M841.37,45.41a13,13,0,0,0,1.43-4.12c.11-.58,1.42-.72,1.3-.08a12.47,12.47,0,0,1-1.56,4.35C842.27,46,841,46,841.37,45.41Z"/><path class="cls-15" d="M832.86,39.79c.21-1.17.49-2.33.72-3.49.11-.57,1.43-.71,1.3-.08-.24,1.17-.52,2.33-.78,3.49C834,40.25,832.74,40.41,832.86,39.79Z"/><path class="cls-15" d="M832.59,57.24a26.82,26.82,0,0,1,1.27-4.36c.18-.54,1.48-.54,1.24.17a33,33,0,0,0-1.23,4.12C833.76,57.72,832.49,57.89,832.59,57.24Z"/><path class="cls-15" d="M839.86,61.61a6.69,6.69,0,0,0,.45-2.87c0-.57,1.3-.75,1.3-.08a6.88,6.88,0,0,1-.55,3.11C840.82,62.27,839.57,62.28,839.86,61.61Z"/><path class="cls-15" d="M854.07,63a6.34,6.34,0,0,1,0,3.12c-.14.5-1.36.7-1.24.07a6.77,6.77,0,0,0,0-2.87C852.65,62.75,853.94,62.44,854.07,63Z"/><path class="cls-15" d="M856.08,72.34a11.49,11.49,0,0,0,.92-3.62c0-.59,1.36-.77,1.34-.08a10.72,10.72,0,0,1-1.08,3.86C857,73,855.84,73,856.08,72.34Z"/><path class="cls-15" d="M852.1,88.05a20.73,20.73,0,0,1,2-4.25c.29-.48,1.6-.45,1.23.17a25.68,25.68,0,0,0-2,4.23C853.08,88.71,851.88,88.72,852.1,88.05Z"/><path class="cls-15" d="M855.83,97.77A25.55,25.55,0,0,0,857,94.15c.12-.57,1.44-.71,1.3-.08A21.94,21.94,0,0,1,857,97.93C856.8,98.42,855.58,98.44,855.83,97.77Z"/><path class="cls-15" d="M843,71.65a7.65,7.65,0,0,1,1.08,3.22c0,.58-1.31.77-1.33.08a7.67,7.67,0,0,0-1-2.88C841.6,71.59,842.8,71.21,843,71.65Z"/><path class="cls-15" d="M834.8,76.4c.81,1.52,1.28,3.19,2.5,4.48.43.45-.77.94-1.16.53a15.52,15.52,0,0,1-2.53-4.6C833.4,76.33,834.56,76,834.8,76.4Z"/><path class="cls-15" d="M836.2,90.75a.75.75,0,0,1,.85.1,5.7,5.7,0,0,1,1.3,2.11c.19.55-1.06.88-1.26.31a5.41,5.41,0,0,0-1.19-1.89C835.68,91.15,836,90.84,836.2,90.75Z"/><path class="cls-15" d="M846.31,86.23c.3,1.32.55,2.65.78,4,.1.6-1.18.91-1.28.32-.22-1.34-.5-2.66-.72-4C845,86,846.18,85.66,846.31,86.23Z"/><path class="cls-15" d="M844.32,101.93a27.37,27.37,0,0,1,.27,4.61c0,.56-1.27.73-1.27.08a30.55,30.55,0,0,0-.24-4.38C843,101.66,844.23,101.36,844.32,101.93Z"/><path class="cls-15" d="M851.05,109.11a15.36,15.36,0,0,0,.27-3.24c0-.54,1.21-.7,1.22-.08a12.55,12.55,0,0,1-.23,3.24C852.19,109.58,850.91,109.72,851.05,109.11Z"/><path class="cls-15" d="M849.11,122.21a19.86,19.86,0,0,0,1.46-4.62c.11-.53,1.32-.71,1.23-.08a16.52,16.52,0,0,1-1.53,4.85C850,122.84,848.81,122.83,849.11,122.21Z"/><path class="cls-15" d="M837.83,115.4a31.94,31.94,0,0,0,1.71,3.88c.33.56-.87,1-1.15.53a27,27,0,0,1-1.78-4.1C836.41,115.17,837.61,114.87,837.83,115.4Z"/><path class="cls-15" d="M833.79,98.09c.55,1,1,2,1.53,3,.3.6-.93,1.05-1.18.54-.52-1-1-2.06-1.52-3.11C832.41,98,833.55,97.67,833.79,98.09Z"/><path class="cls-15" d="M855.08,116a7.26,7.26,0,0,0,1.2-3.62c0-.56,1.29-.74,1.28-.08a7.63,7.63,0,0,1-1.29,3.86C856,116.59,854.73,116.58,855.08,116Z"/><path class="cls-15" d="M852.91,128.83a4.86,4.86,0,0,0,1.12-2.27c.14-.56,1.45-.69,1.29-.07a5.64,5.64,0,0,1-1.37,2.72.89.89,0,0,1-.89.22A.35.35,0,0,1,852.91,128.83Z"/><path class="cls-15" d="M842.2,133.32a13.63,13.63,0,0,1,2.09-1.85.84.84,0,0,1,.9-.06c.25.18.14.49-.08.64a15.64,15.64,0,0,0-1.9,1.64.84.84,0,0,1-.86.22A.35.35,0,0,1,842.2,133.32Z"/><path class="cls-15" d="M833.73,124.6a.8.8,0,0,1,.85-.21,14.91,14.91,0,0,1,1.88,1.29c.26.17.13.49-.08.64a.84.84,0,0,1-.89.06c-.59-.4-1.11-.92-1.73-1.27C833.56,125,833.61,124.74,833.73,124.6Z"/><path class="cls-15" d="M854,142.19a5.14,5.14,0,0,0,1.5-3.91c0-.57,1.33-.75,1.32-.07a6,6,0,0,1-2,4.57C854.36,143.18,853.37,142.75,854,142.19Z"/><path class="cls-15" d="M843.19,145.54A6.3,6.3,0,0,0,844.8,143c.16-.55,1.46-.68,1.29-.07a6.81,6.81,0,0,1-1.87,3,.87.87,0,0,1-.88.22A.35.35,0,0,1,843.19,145.54Z"/><path class="cls-15" d="M836.71,138.64a1.75,1.75,0,0,0,1.65.67c.24-.08.67,0,.75.27s-.29.52-.53.6a2.88,2.88,0,0,1-2.93-.92C835.23,138.84,836.36,138.32,836.71,138.64Z"/><path class="cls-15" d="M841.36,124c.52-1,1.21-2,1.75-3,.25-.48,1.52-.48,1.19.16-.52,1-1.21,2-1.74,3C842.31,124.6,841,124.59,841.36,124Z"/><path class="cls-15" d="M826.58,80.88a7,7,0,0,1,.82,3.22c0,.57-1.3.75-1.31.07a7.37,7.37,0,0,0-.72-2.87C825.15,80.81,826.34,80.43,826.58,80.88Z"/><path class="cls-15" d="M817.51,81.78a.73.73,0,0,1,.83.1c.76.75,1.26,1.72,2,2.49.43.44-.76.94-1.15.53-.75-.77-1.27-1.71-2-2.5C817,82.17,817.31,81.87,817.51,81.78Z"/><path class="cls-15" d="M812.44,70.59A3.13,3.13,0,0,1,814,68.8a.74.74,0,0,1,.87.1c.2.27-.09.54-.31.65a2.26,2.26,0,0,0-.93,1.2C813.44,71.27,812.21,71.28,812.44,70.59Z"/><path class="cls-15" d="M814.68,59.62a7.58,7.58,0,0,0,.94-2.87c0-.58,1.33-.76,1.31-.08a7.25,7.25,0,0,1-1.06,3.11C815.62,60.25,814.37,60.28,814.68,59.62Z"/><path class="cls-15" d="M820.41,72.34a8.55,8.55,0,0,0,1.18-2.88c.14-.58,1.51-.71,1.34-.08a8.78,8.78,0,0,1-1.39,3.23C821.25,73,820,72.88,820.41,72.34Z"/><path class="cls-15" d="M811.14,49c.23-1.44.73-2.81,1-4.24.1-.58,1.43-.73,1.31-.08-.26,1.43-.72,2.81-1,4.24C812.32,49.49,811,49.66,811.14,49Z"/><path class="cls-15" d="M816.43,42.66a12.23,12.23,0,0,0,1.22-2.49c.19-.54,1.48-.54,1.23.16a10.09,10.09,0,0,1-1.27,2.49.83.83,0,0,1-.81.37C816.57,43.15,816.27,42.93,816.43,42.66Z"/><path class="cls-15" d="M813.92,31.94a9.58,9.58,0,0,0,1.44-2.62c.16-.57,1.5-.7,1.33-.08a10.25,10.25,0,0,1-1.63,3C814.78,32.61,813.57,32.5,813.92,31.94Z"/><path class="cls-15" d="M810.92,23.58c.22-.72.52-1.4.76-2.11.18-.53,1.45-.53,1.21.16s-.52,1.32-.77,2C812,24.06,810.75,24.13,810.92,23.58Z"/><path class="cls-15" d="M808,33.58a.85.85,0,0,1,.88-.22,6.41,6.41,0,0,1,1.88,1c.54.51-.59,1.11-1,.72a7.4,7.4,0,0,0-1.72-1A.34.34,0,0,1,808,33.58Z"/><path class="cls-15" d="M805.4,53.18a.83.83,0,0,1,.88-.06,15.82,15.82,0,0,0,2.12,1.44.35.35,0,0,1,.15.59.81.81,0,0,1-.86.21,8.82,8.82,0,0,1-2.37-1.55C805.08,53.62,805.18,53.34,805.4,53.18Z"/><path class="cls-15" d="M806.28,65.82a4.15,4.15,0,0,0,.54-.46,2.92,2.92,0,0,1,.95-.55c.27-.1.67-.17.87.11s-.08.56-.32.64c-.58.21-1,.71-1.5,1a.71.71,0,0,1-.84-.11C805.79,66.18,806.08,65.93,806.28,65.82Z"/><path class="cls-15" d="M808,82.7c.49-.51,1-1,1.49-1.5a.89.89,0,0,1,.91-.23.36.36,0,0,1,.15.62c-.5.5-1,1-1.5,1.49a.88.88,0,0,1-.9.22A.36.36,0,0,1,808,82.7Z"/><path class="cls-15" d="M821.42,90.79a2.4,2.4,0,0,0,.45-2c-.16-.57,1.1-.89,1.27-.31A2.93,2.93,0,0,1,822.6,91a.82.82,0,0,1-.81.36C821.55,91.28,821.25,91.06,821.42,90.79Z"/><path class="cls-16" d="M1778.18,364.25h0c-4.36-1.83-8.18-5.33-7.93-9.92-.53.57-1.07,1.12-1.55,1.66v0c-2.3,2.49-4.25,4.64-5.49,6.06a30.36,30.36,0,0,1,3.15-5.79v0a.15.15,0,0,1,0-.07l.31-.44c.11-.17.23-.33.36-.52a3.56,3.56,0,0,0,.34-.47l.36-.48.37-.49a.56.56,0,0,0,.12-.16h0c-1,.88-2.07,1.75-3.16,2.66-.09.09-.2.16-.3.25-.31.23-.61.47-.92.73l-.4.31c-.3.23-.6.45-.89.7l-.42.33a107.78,107.78,0,0,1-9.34,6.48,41.77,41.77,0,0,0,11,5.38c-7.73-1.53-15.83-5-19.6-9.93l-1.31.78,1.14-1a9.92,9.92,0,0,1-1.3-2.55c-1.79,1.82-3.31,3.41-4.35,4.56a17.41,17.41,0,0,1,2.79-6.94.12.12,0,0,0,.07-.1c.17-.26.36-.53.55-.8l.09-.14c.18-.27.38-.52.57-.78a1,1,0,0,1,0-.17c0-.1,0-.2.09-.3a5.68,5.68,0,0,1,.16-.62,3.26,3.26,0,0,0-.41.42c-2,2-4,4.08-5.78,6h0c-2.37,2.52-4.42,4.78-5.9,6.48,0,4.46,2.74,9.18,10.28,13.68-.57-.2-1.12-.42-1.67-.65h0c-7.17-3.09-13.25-8.64-12.54-15.54l-2.66,2.41h0c-3.9,3.63-7.24,6.81-9.34,8.94a40.39,40.39,0,0,1,5.53-8.66h0l0,0,1-1.23,0,0c.73-.86,1.48-1.69,2.25-2.54a198.61,198.61,0,0,1-28.09,17.53c2.7-2.22,6.65-5.55,11.13-9.38h0c3.75-3.15,7.9-6.63,12-10.07l-.29.2s-.09.06-.16.12a135.47,135.47,0,0,1-14,8.81c2-1.85,5-4.61,8.31-7.77h0c3.45-3.2,7.39-6.81,11.2-10.25-.43.27-.9.56-1.36.88,0,0,0,0,0,0l-1.5,1-.11.05c-2,1.33-4.17,2.68-6.37,4a.56.56,0,0,1-.16.12c-.49.3-1,.6-1.47.87a1.51,1.51,0,0,1-.36.22c-.48.31-1,.6-1.48.89a3.14,3.14,0,0,1-.31.18c-4.67,2.76-9.58,5.41-14.56,7.72,2.43-1.66,6-4.2,10-7.09h0c3-2.14,6.36-4.51,9.7-6.87-5.83,3.15-12.22,6.43-18.87,9.58l0,0-2.49,1.16h0c-6.09,2.8-12.36,5.45-18.57,7.78,3.7-2,9.18-5,15.4-8.4.45-.26.94-.52,1.4-.77s.73-.41,1.08-.61.45-.25.69-.38c8.33-4.64,17.64-9.86,25.78-14.45-.23.11-.46.23-.68.36l-.09,0c-.51.26-1,.51-1.57.76,0,.05-.08.05-.13.08q-3.22,1.57-6.71,3.2a.66.66,0,0,0-.21.08l-1.54.71-.4.19-1.51.66c-.14.08-.27.12-.39.18-5,2.16-10.11,4.23-15.25,6,2.64-1.31,6.52-3.33,11-5.62h0c5.31-2.78,11.37-6,17-9l-2.19.91a1.61,1.61,0,0,1-.35.16c-.28.13-.55.24-.83.34l-.47.2-.79.31c-.18.08-.34.13-.53.22s-.52.2-.78.3h0c-2.92,1.13-5.85,2.19-8.82,3.11,7.21-3.27,28.39-13.69,30.47-14.72h0l.13-.08.85.25c.41-.2.74-.39,1-.56l1.28-.68s.06,0,.07-.05a.14.14,0,0,0,.07,0l2.6.6h0l.3.09.29.07,0,0,3,1a0,0,0,0,1,0,0l2,.1-.05.05,0,0-.09.1a.9.9,0,0,1-.1.09l-.14.13a.87.87,0,0,0-.15.13,1.33,1.33,0,0,0-.17.16c-.25.25-.6.56-1,.91l-.13.12c-.12.1-.25.25-.4.37l-.19.16c-.14.14-.28.29-.44.43a1.45,1.45,0,0,0-.18.16l-1.28,1.18c.16-.13.32-.25.47-.35l.12-.09a3.39,3.39,0,0,0,.53-.38.77.77,0,0,0,.21-.14l.48-.35c.09,0,.14-.1.21-.13l.47-.34.13-.08c.37-.26.7-.5,1-.72l0,0a2.55,2.55,0,0,0,.38-.26.88.88,0,0,0,.19-.12c.11-.08.23-.14.33-.22l.18-.11a1.53,1.53,0,0,1,.3-.19l.19-.14c.15-.11.33-.21.47-.3l.09-.08a.35.35,0,0,0,.13-.1,1.06,1.06,0,0,0,.19-.11,1.34,1.34,0,0,0,.12-.06s.09-.06.12-.09.07,0,.07-.05l.08-.05.05,0,0,0,4.87-.73,0,0a1.9,1.9,0,0,1-.25.19l-.11.07-.13.1c-.91.65-3,2.12-5.55,4l1.07.07,2.61-1.94,1.51-.35a.05.05,0,0,1,0,0c.39-.34.72-.6,1-.84l.19-.14a.48.48,0,0,1,.16-.13.75.75,0,0,1,.14-.12.48.48,0,0,1,.12-.1.31.31,0,0,1,.13-.09l0,0a.17.17,0,0,1,.07,0l7.13-1.36v0a.44.44,0,0,0-.11.09l-.2.16c-.34.3-.91.83-1.71,1.53l1.42-.36s-.07.16-.22.44l5.76-1-.25.24c-1,.84-4.55,4-8.87,7.9a.22.22,0,0,0,0,.11c3.28-2.4,7.2-5.3,9.08-6.69l.06,0a4.57,4.57,0,0,1,.42-.29,3.59,3.59,0,0,0,.37-.3l.25-.17,0,0,.67.15.31-.25.2-.2.4-.32.23-.17,2,.31h0l.22,0,.23,0v0l2.46.56-.08.07-.08.08s0,0-.06,0l-.13.14-.09.08c-.09.06-.15.15-.24.22a.09.09,0,0,1,0,.05,3.53,3.53,0,0,0-.35.33l-.18.15c-.09.09-.17.16-.25.25s-.14.12-.2.18a3.58,3.58,0,0,1-.29.27l-.23.22c-.1.1-.22.2-.34.3s-.16.15-.25.25a6,6,0,0,0-.45.43l-.36.3c-.15.15-.31.31-.48.46l-.3.26a4.15,4.15,0,0,1-.43.4c-.13.11-.23.21-.36.31a5.76,5.76,0,0,1-.44.41c-.11.11-.25.21-.38.35s-.32.29-.49.44a3.92,3.92,0,0,1-.36.33c-.27.24-.55.49-.85.74a4.73,4.73,0,0,1-.4.34c-.19.18-.36.34-.55.5s-.29.25-.45.38-.36.32-.54.48a4.6,4.6,0,0,1-.47.41c-.19.18-.4.35-.6.53l-.45.38c-.29.25-.61.51-.91.78s-.32.28-.52.43-.46.39-.71.6a4.57,4.57,0,0,1-.51.42c-.19.18-.41.35-.64.53s-.35.28-.53.44-.44.36-.65.51-.35.31-.54.47a7.85,7.85,0,0,1-.73.56l-.69.57-1,.77-.57.45-.69.52c-.22.16-.43.33-.63.49l-.31.22c-.21.72-.39,1.42-.54,2.06,1.19-1,2.64-2.28,4.18-3.61.17-.15.34-.3.52-.44s.41-.35.61-.53l.4-.35c.16-.15.31-.28.47-.41s.33-.3.5-.45l.32-.28c5.28-4.51,11.06-9.49,14-12.05.08-.08.14-.11.19-.17.41-.36.77-.64,1-.89a.09.09,0,0,0,.06-.06,3.71,3.71,0,0,0,.4-.33.15.15,0,0,0,.1-.06.83.83,0,0,0,.17-.15.5.5,0,0,0,.08-.08l.36.08.05,0,3.69.24,0,0h0a.3.3,0,0,1,0,.07,1.63,1.63,0,0,1-.15.19l-.06.06-.13.16s-.05,0-.07.07a2.35,2.35,0,0,1-.16.21,3.51,3.51,0,0,0-.26.32l-.07.06c-.07.09-.16.19-.22.28a.26.26,0,0,0-.12.11l-.24.29a.63.63,0,0,1-.11.13c-.26.32-.58.66-.89,1l1.19-1.05.07-.08c.25-.21.48-.4.69-.59,0,0,0,0,0,0,.23-.16.43-.35.62-.51l0,0,.53-.44s.06,0,.06-.06c.18-.11.32-.24.45-.33v0c.14-.1.24-.2.33-.27h0c.09-.09.14-.12.18-.17l.06,0,0,0,3.05-.52a.19.19,0,0,1-.07.07s0,0,0,0-.06,0-.09.08c-.45.4-1.71,1.47-3.3,2.87l.69,0a1.25,1.25,0,0,0,.17-.16,1.66,1.66,0,0,0,.19-.18l.35-.31a.71.71,0,0,0,.15-.15c.06,0,.1-.07.15-.11l.11-.12a.73.73,0,0,0,.13-.1l.08-.08.1-.09h0a.12.12,0,0,1,0,0l4.3-1.12-.11.13-.08.06-.16.18c-.72.69-2.46,2.38-4.71,4.61l1.51-.52a48.06,48.06,0,0,0-4,3l-5.56,5.65c-3.53,4.79-4.84,10.78,3.66,15.86-.33-.12-.68-.25-1-.4Zm-27.46-10a6.1,6.1,0,0,1,.46-.41,3.11,3.11,0,0,1-.08-.44h0s0,0,0,0,0-.25,0-.35a3.56,3.56,0,0,1-.06-.44c0-.14,0-.28,0-.41a1.75,1.75,0,0,1,0-.39c0-.13,0-.25,0-.37-.78.45-1.57.87-2.39,1.29.68-.51,1.48-1.17,2.39-1.95a1.93,1.93,0,0,0,0-.25v0c0-.27,0-.53.06-.8l-.22.21-.11.11c-1,1-2,1.92-3,2.84a9.94,9.94,0,0,0-.41,4.56c.69-.62,1.44-1.32,2.21-2h0C1749.9,355,1750.3,354.59,1750.72,354.22Zm9.86-11.65h0c-.34.22-.69.44-1.06.65a.55.55,0,0,1-.14.09c-.37.23-.74.44-1.13.65h0c-.25.14-.48.27-.73.43-.18.45-.36.9-.55,1.33,1.41-1.16,2.86-2.39,4.26-3.54ZM1762,344c-.2.13-.36.29-.55.42s-.22.16-.32.23-.38.28-.57.41-.2.16-.28.24l-1.1.78c-.1.07-.21.14-.32.23l-.53.36c-.15.11-.3.21-.43.32s-.34.22-.52.33l-.5.35-.46.31-.43.28c-.22.58-.42,1.16-.6,1.73l7.05-6.34a1,1,0,0,1-.17.14Zm-9.59,13.07-.85.48.76-.63a7.19,7.19,0,0,1-.62-1.35c-1.35,1-2.75,1.94-4.15,2.85a13.08,13.08,0,0,0,5.07,6.5l5.58-5.55h0c2.24-2.27,4.76-4.77,7.22-7.23l-.75.65-.13.1a76.68,76.68,0,0,1-8.2,6.12c1.16-1.26,2.84-3.16,4.73-5.34h0c.79-.91,1.63-1.83,2.46-2.8l.41-.46.3-.32c1-1.16,2-2.31,3.07-3.45l-.28.23a1,1,0,0,0-.16.13c-.26.19-.52.39-.77.6l-.21.16-.77.6s-.07.07-.11.08l-2.49,1.89-.4.29c-.22.16-.45.34-.66.47s-.31.23-.47.35l-.63.45c-.17.12-.35.24-.52.38a7,7,0,0,1-.6.4l0,0a0,0,0,0,1,0,0c-1.88,1.31-3.78,2.55-5.73,3.72-.16.68-.28,1.28-.37,1.78A8.59,8.59,0,0,1,1752.39,357.08Z"/><path class="cls-17" d="M1767.52,336c.8-9.15,1.5-22.65-.14-32.75-.4,6.59-1.86,22.45-2.89,33.21C1765.49,336.29,1766.49,336.12,1767.52,336Z"/><g class="cls-18"><path class="cls-19" d="M1766.61,313.2c-.64,7.32-1.46,16.31-2.12,23.22,1-.13,2-.3,3-.46a193.31,193.31,0,0,0,.78-22.78c-.06,6.2-.34,15.07-1.2,19.66-1.37,7.51-1.95.42-1.08-8.26C1766.39,320.92,1766.55,316.77,1766.61,313.2Z"/></g><g class="cls-20"><path class="cls-21" d="M1767.52,306.23s.21,1.58.37,4c.1,1.2.19,2.6.25,4.09s0,3.09.1,4.7c0,.79,0,1.6-.08,2.39s0,1.55-.06,2.3c-.1,1.51-.24,2.9-.33,4.1s-.39,2.16-.48,2.86l-.19,1.06s.13-1.59.35-4c0-1.2.07-2.58.16-4.07s0-3.09,0-4.68,0-3.2,0-4.68,0-2.91-.06-4.09C1767.55,307.82,1767.52,306.23,1767.52,306.23Z"/></g><path class="cls-22" d="M1764.17,336.46c.38,0,.71-.1,1.07-.16.13-5.37,0-12.34-1.36-17.61,0,3.54-.37,11.58-.64,17.87Z"/><g class="cls-18"><path class="cls-23" d="M1763.79,336.49a35.55,35.55,0,0,1-.06-5c.12-2.21.06-4.69,0-6.84-.12,3.68-.3,8.1-.46,11.87Z"/><path class="cls-24" d="M1764.8,336.37c.14,0,.3-.06.44-.07a101,101,0,0,0-.37-11.74,82.11,82.11,0,0,1-.07,11.81Z"/></g><g class="cls-20"><path class="cls-25" d="M1764.07,320.46s.18,1,.39,2.37c.12.71.22,1.53.32,2.42s.15,1.85.23,2.81.08,1.91.09,2.8,0,1.73-.07,2.45c-.16,1.44-.29,2.38-.29,2.38s0-1,.08-2.39c0-.71,0-1.55,0-2.44s-.09-1.84-.14-2.78-.1-1.91-.2-2.8-.12-1.71-.19-2.42C1764.14,321.43,1764.07,320.46,1764.07,320.46Z"/></g><path class="cls-26" d="M1784.39,334.82s-3.27-34.54,20.48-54.32c-9.32,5.14-24.44,28-23.46,54.8Z"/><g class="cls-18"><path class="cls-26" d="M1789.37,301.17c-4.43,11.89-5.71,6.49,1.31-5.77h0c-5.33,8.77-9.8,25.39-9.27,39.91l3-.48s-3.27-34.54,20.48-54.32c-.38.21-.79.44-1.18.7A54.39,54.39,0,0,0,1789.37,301.17Z"/></g><g class="cls-20"><path class="cls-27" d="M1793.17,291.84c.42-.58.85-1.15,1.27-1.67a14.6,14.6,0,0,1,1.28-1.5c.41-.47.83-.92,1.21-1.28s.75-.75,1.08-1,.64-.52.87-.74l.77-.63-.73.71c-.2.21-.49.47-.8.78s-.63.69-1,1.08-.76.87-1.14,1.35-.81,1-1.22,1.51-.83,1.09-1.22,1.67-.82,1.18-1.2,1.81c-.79,1.2-1.5,2.45-2.16,3.64-.3.6-.61,1.18-.89,1.72s-.54,1.1-.75,1.62c-.93,1.95-1.45,3.32-1.45,3.32s.1-.35.33-1,.47-1.46.88-2.45a37.2,37.2,0,0,1,1.55-3.42"/></g><path class="cls-28" d="M1781.87,335.08c1.5-10.61,5.08-39.72,2.46-60.87-1.09,12.61-5.21,47.65-6.77,60.64A29.28,29.28,0,0,1,1781.87,335.08Z"/><g class="cls-18"><path class="cls-29" d="M1782.83,289.13c-1.71,15.61-4.13,36.37-5.27,45.72a29.28,29.28,0,0,1,4.31.23c1.16-8.19,3.56-27.39,3.4-45.43-.36,9.38-1.07,22.79-2.47,29.51-2.26,11-2.84,0-1.26-12.87C1782.2,300.83,1782.6,294.56,1782.83,289.13Z"/></g><g class="cls-20"><path class="cls-30" d="M1784.39,278.81s.25,2.42.42,6.05c.08,1.83.16,3.93.19,6.2s0,4.7-.06,7.1c0,1.22-.11,2.44-.16,3.64s-.14,2.36-.21,3.49c-.19,2.26-.45,4.37-.65,6.17s-.6,3.29-.77,4.32-.32,1.64-.32,1.64.05-.6.16-1.66.26-2.55.46-4.35.22-3.91.41-6.18c0-1.13.09-2.28.13-3.47s.13-2.4.13-3.61c.05-2.4.15-4.83.15-7.09s.11-4.37.06-6.2C1784.38,281.23,1784.39,278.81,1784.39,278.81Z"/></g><path class="cls-31" d="M1777.31,334.85c2-11.19,4.81-30.49,3.65-45.17-1.27,9.12-5.29,32.33-7.58,45.45C1774.68,335,1776,334.9,1777.31,334.85Z"/><g class="cls-18"><path class="cls-32" d="M1779,302.16c-1.76,10.63-4.11,24.11-5.64,33,1.3-.13,2.61-.23,3.93-.28a255.16,255.16,0,0,0,3.8-32.27c-.7,7.85-1.88,19.06-3.4,24.69-2.46,9.19-2.52,0-.56-10.77C1778,312,1778.58,306.71,1779,302.16Z"/></g><g class="cls-20"><path class="cls-33" d="M1780.81,293.52s.13,2,.12,5.07c0,1.56,0,3.32-.12,5.23s-.21,3.93-.34,6c-.07,1-.22,2-.29,3s-.21,2-.33,2.93c-.27,1.88-.58,3.65-.83,5.16s-.67,2.72-.86,3.58l-.36,1.35s.09-.51.22-1.39.35-2.13.61-3.62.35-3.28.6-5.16c.11-.94.18-1.92.25-2.9s.21-2,.27-3c.15-2,.35-4,.43-5.94s.27-3.68.33-5.19C1780.7,295.55,1780.81,293.52,1780.81,293.52Z"/></g><path class="cls-34" d="M1775.13,335c1-10.67,2.14-29.23.38-42.62-.49,8.58-2.35,30.35-3.43,42.94C1773.11,335.16,1774.12,335.05,1775.13,335Z"/><g class="cls-18"><path class="cls-35" d="M1774.66,304.24c-.77,10-1.85,22.6-2.58,31.06,1-.14,2-.25,3.05-.32a278.68,278.68,0,0,0,1.23-30.82c-.11,7.33-.41,17.88-1.3,23.37-1.44,9-2,.58-1.07-9.72C1774.39,313.42,1774.58,308.5,1774.66,304.24Z"/></g><g class="cls-20"><path class="cls-36" d="M1775.62,295.94s.21,1.86.37,4.72c.09,1.41.18,3.07.23,4.84s0,3.67.06,5.55c0,1,0,1.92-.06,2.85s-.08,1.86-.11,2.73c-.12,1.79-.27,3.44-.37,4.86s-.39,2.59-.49,3.4-.2,1.29-.2,1.29.11-1.9.32-4.72c.07-1.41.12-3.08.18-4.86s.1-3.64.1-5.55,0-3.77,0-5.54,0-3.43,0-4.85C1775.62,297.81,1775.62,295.94,1775.62,295.94Z"/></g><path class="cls-37" d="M1770.73,335.47c1.54-12.79,3.77-36.1,2-52.7-.92,10.65-4,38.15-5.73,53.27Z"/><g class="cls-18"><path class="cls-38" d="M1771.3,297.21c-1.3,12.55-3.11,28.54-4.29,38.83l3.72-.57a340.75,340.75,0,0,0,2.66-38.39c-.37,8.93-1.12,21.74-2.39,28.42-2,10.92-2.44.75-.94-11.8C1770.67,308.38,1771.06,302.38,1771.3,297.21Z"/></g><g class="cls-20"><path class="cls-39" d="M1772.74,287.09s.21,2.31.31,5.76c.08,1.74.11,3.74.11,5.9s-.05,4.47-.11,6.77c0,1.16-.11,2.31-.18,3.45s-.13,2.23-.2,3.34c-.19,2.14-.44,4.15-.62,5.86s-.53,3.14-.71,4.12-.28,1.58-.28,1.58.21-2.32.54-5.73c.14-1.73.22-3.75.4-5.88.06-1.09.09-2.21.16-3.31s.11-2.28.14-3.45c.07-2.29.18-4.57.2-6.75s.12-4.16.12-5.88C1772.71,289.41,1772.74,287.09,1772.74,287.09Z"/></g><path class="cls-40" d="M1782.84,335.22a4.46,4.46,0,0,0,.55.11c1.69-14.62,4.82-41.17,6.23-51.39-5,15.4-8,38.93-9.27,51C1781.17,335,1782,335.07,1782.84,335.22Z"/><g class="cls-18"><path class="cls-41" d="M1786.2,297a374.05,374.05,0,0,0-5.85,37.88c.82.07,1.66.16,2.49.31a4.46,4.46,0,0,0,.55.11c1.17-9.93,3-25.41,4.45-37.48-.85,4.87-1.75,10.57-2.33,15.71-1.36,12.14-3.77,21.47-3.21,10.66C1782.64,317.59,1784.67,305.46,1786.2,297Z"/></g><g class="cls-20"><path class="cls-42" d="M1788.75,288s-.45,2.16-1.09,5.37c-.18.82-.37,1.7-.54,2.61s-.36,1.92-.58,2.92c-.42,2-.79,4.19-1.21,6.34-.22,1.09-.39,2.17-.59,3.23s-.36,2.12-.57,3.15c-.29,2-.6,4-.87,5.59-.39,3.3-.68,5.5-.68,5.5s0-.55.08-1.53.14-2.37.27-4.07.42-3.59.7-5.64c.18-1,.35-2.08.53-3.17s.36-2.16.56-3.26c.45-2.15.85-4.32,1.3-6.31s.89-3.89,1.28-5.48C1788.13,290,1788.75,288,1788.75,288Z"/></g><path class="cls-43" d="M1788,336.36c1.58-12.62,4-31.92,5.3-39.74-4.71,11.5-7.41,28.22-8.78,38.93C1785.65,335.8,1786.81,336.08,1788,336.36Z"/><g class="cls-18"><path class="cls-44" d="M1789.67,307.66a225.49,225.49,0,0,0-5.17,27.89c1.16.25,2.31.53,3.48.81,1-8.21,2.45-19.22,3.64-28.09-.87,4.11-1.74,8.9-2.26,13.2-1.22,10.18-3.72,18.07-3.38,9C1786.19,325,1788.17,314.75,1789.67,307.66Z"/></g><g class="cls-20"><path class="cls-45" d="M1792.36,300l-1.08,4.54c-.38,1.38-.71,3-1.14,4.67s-.81,3.5-1.24,5.32c-.21.9-.38,1.81-.58,2.72s-.36,1.79-.54,2.64c-.3,1.71-.61,3.33-.84,4.7-.36,2.77-.66,4.62-.66,4.62s0-.48,0-1.3.11-2,.21-3.38.4-3,.64-4.75c.19-.86.35-1.75.52-2.67s.34-1.79.54-2.72c.45-1.81.86-3.65,1.32-5.34s.93-3.25,1.34-4.6C1791.72,301.76,1792.36,300,1792.36,300Z"/></g><path class="cls-46" d="M1779.53,334.88c.6-7.32,1.33-16.06,1.77-20-2.24,5.84-3.49,13.71-4.15,20C1777.94,334.84,1778.74,334.84,1779.53,334.88Z"/><g class="cls-18"><path class="cls-47" d="M1779.53,334.88c.35-4.2.72-8.84,1.07-12.81-.42,2.57-.85,5.55-1,8.22-.12,1.68-.3,3.27-.51,4.57Z"/><path class="cls-48" d="M1777.58,334.84a116.35,116.35,0,0,1,1.69-13.09,107.65,107.65,0,0,0-2.12,13.11Z"/></g><g class="cls-20"><path class="cls-49" d="M1777.78,334.84c0-.43.14-1.37.22-2.59.14-.86.3-1.84.43-2.91s.34-2.2.56-3.34.4-2.26.64-3.32.39-2,.59-2.89c.34-1.69.59-2.83.59-2.83s-.38,1.09-.82,2.77c-.24.84-.49,1.8-.73,2.86s-.46,2.19-.71,3.33-.37,2.29-.53,3.36-.19,2.08-.28,2.94c0,1.25,0,2.19,0,2.62Z"/></g><path class="cls-50" d="M1736.64,336.81c-.27-13.81-1.53-38.83-6.59-56.35.66,11.42,1.54,40.79,2,57.14A40.62,40.62,0,0,1,1736.64,336.81Z"/><g class="cls-18"><path class="cls-51" d="M1736.64,336.81a312.12,312.12,0,0,0-3.32-41.13c1.08,9.58,2.36,23.33,2,30.57-.7,11.83-3,1-3.29-12.52-.14-5.74-.67-12.16-1.29-17.71.53,13.39,1,30.48,1.35,41.58A40.62,40.62,0,0,1,1736.64,336.81Z"/></g><g class="cls-20"><path class="cls-52" d="M1730.79,285.07s.64,2.42,1.37,6.06c.35,1.84.76,4,1.14,6.27s.67,4.77,1,7.24c.14,1.24.23,2.48.36,3.69s.21,2.4.31,3.57c.14,2.34.18,4.51.27,6.37s-.13,3.43-.16,4.51-.1,1.71-.1,1.71-.15-2.48-.25-6.2c-.15-1.85-.38-4-.52-6.32s-.52-4.77-.8-7.24-.58-4.93-1-7.23-.57-4.44-.85-6.27C1731.15,287.54,1730.79,285.07,1730.79,285.07Z"/></g><path class="cls-53" d="M1731.69,337.69a18.64,18.64,0,0,1,1.83-.41c-.64-8.46-2.21-22.57-6-32.27.74,6.47,2,22.7,2.81,32.71C1730.81,337.7,1731.24,337.69,1731.69,337.69Z"/><g class="cls-18"><path class="cls-54" d="M1731.69,337.69a18.64,18.64,0,0,1,1.83-.41,169.55,169.55,0,0,0-3.31-23.38c1,5.68,2.23,13.83,2.14,18.22-.13,7.22-1.95.87-2.54-7.24-.25-3.44-.8-7.29-1.35-10.57.66,7.44,1.43,16.78,1.94,23.41Q1731,337.69,1731.69,337.69Z"/></g><g class="cls-20"><path class="cls-55" d="M1728.19,307.73s.51,1.41,1.08,3.56c.31,1.08.63,2.33.94,3.69s.59,2.83.91,4.27.47,2.95.66,4.33.25,2.69.35,3.8c0,2.24,0,3.71,0,3.71s-.16-1.46-.34-3.69c-.16-1.09-.33-2.37-.51-3.74l-.76-4.31c-.28-1.44-.53-2.91-.81-4.26s-.53-2.64-.76-3.73C1728.5,309.2,1728.19,307.73,1728.19,307.73Z"/></g><path class="cls-56" d="M1759.66,336.84c.6-12.41,5.15-53.16,38.52-70.81-15.26,4.25-40.51,26.27-42.18,67.23l1.8,3.62Z"/><g class="cls-18"><path class="cls-56" d="M1759.66,336.84c.6-12.41,5.15-53.16,38.52-70.81-.61.18-1.25.4-1.92.63a65.43,65.43,0,0,0-24.86,24.78c-8.37,16.33-9.75,7.64,2.74-8.21v0c-9.4,11.27-17.24,27.87-18.14,50.06l1.8,3.62Z"/></g><g class="cls-20"><path class="cls-57" d="M1767.47,295.14a35.89,35.89,0,0,1,2.27-4.71c.37-.67.8-1.38,1.26-2.16s1-1.55,1.55-2.37c1.16-1.59,2.41-3.26,3.81-4.83a28.86,28.86,0,0,1,2.15-2.28c.7-.74,1.46-1.43,2.19-2.07a21.16,21.16,0,0,1,2.16-1.78c.74-.56,1.41-1.08,2.08-1.5l1.78-1.17,1.46-.77c.78-.43,1.27-.66,1.27-.66s-.46.28-1.22.78c-.36.25-.83.53-1.37.89s-1.07.79-1.7,1.25-1.28,1-2,1.57-1.39,1.17-2.09,1.84a29.58,29.58,0,0,0-2.14,2.07c-.72.71-1.41,1.48-2.09,2.29-1.38,1.53-2.66,3.15-3.82,4.72-.55.81-1.13,1.54-1.62,2.28s-1,1.45-1.36,2.1C1768.4,293.26,1767.47,295.14,1767.47,295.14Z"/></g><path class="cls-58" d="M1757.14,328.62s-5.08-53.71,31.85-84.48c-14.52,8-37.38,36.36-35.86,78.06Z"/><g class="cls-18"><path class="cls-58" d="M1764.9,276.28c-6.89,18.5-8.91,10.1,2-9h0c-8.28,13.63-14.62,32.31-13.8,54.89l4,6.42s-5.08-53.71,31.85-84.48c-.59.33-1.2.7-1.82,1.09A83.84,83.84,0,0,0,1764.9,276.28Z"/></g><g class="cls-20"><path class="cls-59" d="M1761.35,281s.15-.54.46-1.48.75-2.3,1.4-3.85,1.45-3.37,2.4-5.28,2.08-3.87,3.29-5.77c.62-.95,1.25-1.9,1.93-2.79a30.62,30.62,0,0,1,1.94-2.62c.65-.85,1.34-1.61,2-2.34s1.25-1.41,1.89-2,1.14-1.15,1.65-1.61,1-.84,1.38-1.15l1.18-1-1.1,1.06c-.35.36-.78.77-1.28,1.25s-1,1.06-1.56,1.69-1.16,1.33-1.8,2.06-1.24,1.53-1.87,2.36-1.31,1.71-1.93,2.62-1.24,1.86-1.83,2.8c-1.24,1.89-2.35,3.82-3.36,5.67-.46,1-1,1.83-1.4,2.71s-.83,1.69-1.19,2.46C1762.12,278.83,1761.35,281,1761.35,281Z"/></g><path class="cls-60" d="M1757.71,235.28c-2,23-10.47,94-11.38,101.39a6.8,6.8,0,0,1,1.1,0,1.24,1.24,0,0,1,.54.19h1.31c.1,0,.13,0,.21,0l3.44-.45S1762.75,276.26,1757.71,235.28Z"/><g class="cls-18"><path class="cls-61" d="M1759.16,259.3c-.54,14.6-1.66,35.46-3.83,45.9-3.56,17.1-4.45,0-2-20,1-8.51,1.64-18.24,2-26.69-3.29,30.12-8.35,72.53-9,78.16a6.8,6.8,0,0,1,1.1,0,1.24,1.24,0,0,1,.54.19h1.31c.1,0,.13,0,.21,0l3.44-.45S1759.48,296.31,1759.16,259.3Z"/></g><g class="cls-20"><path class="cls-62" d="M1757.8,242.46s.39,3.74.64,9.38c.13,2.82.25,6.13.28,9.67s-.06,7.31-.06,11.07c0,1.88-.19,3.75-.26,5.62s-.21,3.69-.32,5.44c-.32,3.53-.72,6.79-1,9.61s-.92,5.09-1.18,6.71-.5,2.55-.5,2.55.09-.93.22-2.59.46-4,.76-6.76.35-6.1.63-9.6c0-1.76.11-3.56.19-5.42s.16-3.71.19-5.62c.07-3.75.25-7.48.25-11s.12-6.82.09-9.64C1757.75,246.22,1757.8,242.46,1757.8,242.46Z"/></g><path class="cls-63" d="M1744.81,336.53c3-15.2,9.07-50.95,7-77.23-2.26,15.92-9.8,59.3-13,77.34C1740.84,336.52,1742.82,336.49,1744.81,336.53Z"/><g class="cls-18"><path class="cls-64" d="M1748.77,278.73c-3.21,19.48-7.65,45.09-9.92,57.91,2-.12,4-.15,6-.11,2.27-11.57,6.32-35,7.24-57.17-1.09,12.26-3,29.68-5.29,38.45-3.85,14.28-3.92,0-.88-16.75C1747.16,294,1748.11,285.79,1748.77,278.73Z"/></g><g class="cls-20"><path class="cls-65" d="M1751.59,265.29s.18,3.18.17,7.9c0,2.39,0,5.15-.18,8.12s-.35,6.13-.53,9.27c-.12,1.59-.33,3.15-.49,4.71s-.33,3-.48,4.54c-.43,2.94-.95,5.67-1.31,8s-1,4.24-1.34,5.57-.54,2.11-.54,2.11.14-.79.34-2.15.55-3.32.91-5.64.56-5.09.95-8c.13-1.47.29-3,.42-4.52s.31-3.12.41-4.69c.22-3.14.55-6.28.69-9.24s.39-5.71.5-8.08C1751.39,268.47,1751.59,265.29,1751.59,265.29Z"/></g><path class="cls-66" d="M1742,336.52c1.43-13.5,4.62-49.36,1.37-73.94-.9,15.21-4.5,57.26-6,74.16C1738.9,336.61,1740.46,336.53,1742,336.52Z"/><g class="cls-18"><path class="cls-67" d="M1742,281.06c-1.46,18.77-3.6,43.62-4.65,55.68,1.52-.13,3.08-.21,4.59-.22,1.1-10.41,3.23-34,2.68-55.59-.19,11.45-.66,27.83-2,36.36-2.22,13.93-3.12.88-1.64-15.15C1741.59,295.35,1741.89,287.67,1742,281.06Z"/></g><g class="cls-20"><path class="cls-68" d="M1743.49,268.14s.34,2.92.59,7.33c.13,2.21.27,4.79.35,7.55s.06,5.73.09,8.67c0,1.47-.06,2.94-.12,4.38s-.08,2.89-.12,4.28c-.2,2.77-.42,5.35-.6,7.53s-.58,4-.75,5.32l-.33,2s.19-2.95.53-7.32c.1-2.22.16-4.8.29-7.55s.12-5.68.16-8.64,0-5.87,0-8.64,0-5.34,0-7.54C1743.49,271.07,1743.49,268.14,1743.49,268.14Z"/></g><path class="cls-69" d="M1741.37,336.53c.13-17.3-.32-60.08-7-88.64.67,18.07,1.18,67.34,1.4,89A49.51,49.51,0,0,1,1741.37,336.53Z"/><g class="cls-18"><path class="cls-70" d="M1741.37,336.53c.09-13.23-.15-41.38-3.25-66.7,1.12,13.88,2.45,33.78,1.78,44.33-1.07,17.23-3.64,1.62-3.76-18-.05-8.32-.59-17.66-1.2-25.67.4,22.12.72,51.16.85,66.47A49.51,49.51,0,0,1,1741.37,336.53Z"/></g><g class="cls-20"><path class="cls-71" d="M1735.22,254.56s.76,3.5,1.58,8.83c.42,2.64.88,5.75,1.29,9.09s.75,6.91,1.15,10.47c.14,1.79.24,3.59.36,5.34s.21,3.49.32,5.18c.1,3.36.14,6.49.17,9.19s-.23,4.94-.3,6.51-.14,2.46-.14,2.46-.14-3.6-.22-9c-.17-2.68-.38-5.81-.55-9.15-.13-1.66-.26-3.39-.39-5.15s-.28-3.54-.44-5.31c-.34-3.56-.59-7.14-1-10.47s-.61-6.45-.92-9.12C1735.57,258.13,1735.22,254.56,1735.22,254.56Z"/></g><path class="cls-72" d="M1754.74,336.87c2.26-19.66,8.06-69.56,10.57-87.38-9.12,28.1-14,73.5-15.27,87.22C1751.59,336.77,1753.18,336.83,1754.74,336.87Z"/><g class="cls-18"><path class="cls-73" d="M1759.94,269.84c-5.68,26.07-8.89,56.15-9.9,66.87,1.55.06,3.14.12,4.7.16,1.62-14.06,5-43.56,7.79-65.77-1.34,7.59-2.75,16.47-3.65,24.47-2.12,18.88-5.87,33.4-5,16.56C1754.43,301.84,1757.58,283,1759.94,269.84Z"/></g><g class="cls-20"><path class="cls-74" d="M1763.92,255.75l-1.7,8.39c-.26,1.24-.54,2.6-.82,4.05s-.58,3-.9,4.52c-.65,3.12-1.25,6.52-1.9,9.87-.32,1.68-.61,3.37-.93,5s-.58,3.3-.84,4.89c-.47,3.19-1,6.13-1.37,8.7-.62,5.14-1.1,8.55-1.1,8.55s.06-.86.15-2.38.22-3.69.44-6.29.64-5.58,1.11-8.82c.26-1.6.51-3.23.8-4.91s.54-3.4.85-5.07c.7-3.36,1.32-6.73,2-9.85s1.38-6,2-8.49C1763,259,1763.92,255.75,1763.92,255.75Z"/></g><path class="cls-75" d="M1756.8,336.88c3-18.8,8.73-54,11.34-67.4-9.19,20.5-14.66,52-16.88,67.26C1753.1,336.83,1755,336.88,1756.8,336.88Z"/><g class="cls-18"><path class="cls-76" d="M1761.94,286.47c-5.52,18.24-9,38.84-10.68,50.27,1.84.09,3.69.14,5.54.14,2.08-12.85,5.39-33.38,8.13-49.36-1.56,6.32-3.2,13.74-4.23,20.42-2.45,15.74-6.78,27.86-5.75,13.81C1755.59,313.17,1759.22,297.43,1761.94,286.47Z"/></g><g class="cls-20"><path class="cls-77" d="M1766.55,274.71l-2,7c-.64,2.09-1.26,4.56-2,7.18s-1.45,5.43-2.2,8.22c-.37,1.4-.72,2.81-1,4.21s-.68,2.74-1,4c-.54,2.68-1.13,5.14-1.58,7.29-.7,4.26-1.26,7.14-1.26,7.14s.06-.73.17-2,.23-3.06.48-5.22.77-4.67,1.28-7.38l.94-4.08c.32-1.41.64-2.84,1-4.24.78-2.8,1.51-5.61,2.34-8.22s1.58-5,2.29-7.08C1765.43,277.39,1766.55,274.71,1766.55,274.71Z"/></g><path class="cls-78" d="M1749,336.68c1-12.16,2.49-31.39,3.4-39.11-4.54,11.7-6.44,28.75-7.19,39C1746.45,336.58,1747.71,336.62,1749,336.68Z"/><g class="cls-18"><path class="cls-79" d="M1745.18,336.55c1.27,0,2.53.07,3.79.13.63-8,1.5-19,2.29-27.86-.65,4-1.33,8.6-1.64,12.76-.69,9.81-2.9,17.48-3.07,8.77-.1-5.32,1.41-15.17,2.6-22A194.88,194.88,0,0,0,1745.18,336.55Z"/></g><g class="cls-20"><path class="cls-80" d="M1751.58,300.87s-.38,1.74-.92,4.37c-.32,1.33-.58,2.86-.94,4.5s-.66,3.41-1,5.16-.61,3.55-.88,5.19-.45,3.21-.63,4.55c-.21,2.66-.4,4.46-.4,4.46s0-1.79,0-4.5c.13-1.34.23-2.91.41-4.59s.5-3.47.81-5.23.69-3.54,1.08-5.17.79-3.15,1.15-4.46C1751,302.56,1751.58,300.87,1751.58,300.87Z"/></g><path class="cls-81" d="M1762.19,336.68c2.13-15.85,6.18-45.5,8.12-56.79-8,17.33-11.87,44.33-13.36,57C1758.69,336.88,1760.45,336.81,1762.19,336.68Z"/><g class="cls-18"><path class="cls-82" d="M1765.15,294.12c-4.57,15.54-7.1,33.21-8.2,42.76,1.74,0,3.5-.07,5.24-.2,1.45-10.84,3.82-28.14,5.77-41.61-1.2,5.32-2.47,11.56-3.19,17.18-1.71,13.26-5.31,23.42-4.87,11.57C1760.17,316.54,1763,303.32,1765.15,294.12Z"/></g><g class="cls-20"><path class="cls-83" d="M1769,284.29s-.63,2.33-1.59,5.85c-.51,1.75-1,3.82-1.61,6s-1.15,4.58-1.76,6.91-1.1,4.74-1.61,6.95-.86,4.31-1.19,6.1c-.48,3.61-.9,6-.9,6s.09-2.41.36-6.08c.28-1.81.57-3.93,1-6.18.23-1.12.47-2.28.7-3.44s.49-2.39.78-3.58c.65-2.35,1.21-4.72,1.88-6.91s1.29-4.22,1.9-6C1768.07,286.53,1769,284.29,1769,284.29Z"/></g><path class="cls-84" d="M1759.66,336.84c4.9-12.92,14-36.69,17.82-45.72-10.38,13-19.14,35.85-22.69,45.75C1756.42,336.88,1758.05,336.88,1759.66,336.84Z"/><g class="cls-18"><path class="cls-85" d="M1770.35,301.85c-7.14,12.48-12.87,27.49-15.56,35,1.63,0,3.26,0,4.87,0,3.35-8.82,8.64-22.68,12.87-33.47-2,4.2-4.29,9.13-6,13.71-4,10.81-9,18.46-6.32,8.55C1761.81,319.57,1766.76,309.08,1770.35,301.85Z"/></g><g class="cls-20"><path class="cls-86" d="M1775.54,294.5s-1,1.82-2.51,4.56c-.79,1.36-1.6,3-2.55,4.7s-1.85,3.58-2.8,5.41-1.87,3.72-2.72,5.48-1.56,3.42-2.18,4.85c-1.1,2.9-1.92,4.83-1.92,4.83s.57-2,1.47-5c.61-1.46,1.22-3.17,2-5s1.7-3.66,2.62-5.54,1.94-3.69,2.91-5.37,1.94-3.26,2.77-4.59C1774.28,296.18,1775.54,294.5,1775.54,294.5Z"/></g><path class="cls-87" d="M1766.91,338.18c.26,0,6.25,1,.77.1Z"/><path class="cls-88" d="M1798.18,339.76s-11.23-10.2-44.56-3.21h0c-19.63-1.59-27.6,1.72-27.6,1.72,18-2.59,37.15-.66,40.85-.1-2.94-.49-3.3-.58-5.89-.87C1766.14,336.64,1784.69,334.08,1798.18,339.76Z"/><path class="cls-89" d="M957.84,220.28s1,19-9,22-37,16-37,16l-10,12s49-17,56-12,29,20,39,33,32.22,17,38.61,18,13.39,1,16.39-2-14-32-14-32Z"/><path class="cls-90" d="M807.54,168.26a16.09,16.09,0,0,1,2.22,4.26,44.75,44.75,0,0,1,3.54,4.69h0c1.42.17,1-3-2.61-8.62a9.76,9.76,0,0,1-3.7-1.12C807.2,167.73,807.37,168,807.54,168.26Z"/><path class="cls-90" d="M773.16,150.53c-.85,4.1,6.93,8.86,11,7.25C780.33,153,776,150.67,773.16,150.53Z"/><path class="cls-91" d="M779.66,160.45h0a19.83,19.83,0,0,0,6.9.89,31.35,31.35,0,0,0-2.44-3.57c-4,1.61-11.83-3.15-11-7.25a3,3,0,0,0-2.58.87,5.94,5.94,0,0,0,.21,1.57C771.67,156.31,775.3,159.08,779.66,160.45Z"/><path class="cls-91" d="M792.94,125.63a28.78,28.78,0,0,1,5.75,5.77c10.37-2.92,13.83-15.06,9.28-21C808,110.41,806.21,123.41,792.94,125.63Z"/><path class="cls-91" d="M763.69,139.2a39.79,39.79,0,0,1-7,2.29c-9,2.13-18.61,1.69-21.88-.5,0,0,7.1,14.66,31.66,6.81-.51-1.43-.71-3.22-1.51-6.35a14.59,14.59,0,0,1-.4-2.64C764.3,139,764,139.08,763.69,139.2Z"/><path class="cls-92" d="M779.68,160.46a252.62,252.62,0,0,0,21.69,19.25c-.61-.6-10.4-10.55-13.2-17.26l-1.59-1.1A19.83,19.83,0,0,1,779.68,160.46Z"/><path class="cls-93" d="M813.32,177.21c1.68,2.57,3.3,5.72,3.11,8.12,2.87.18,3.37-6.57-4.7-17.93,0,.78-.33,1.16-1,1.19C814.34,174.18,814.74,177.38,813.32,177.21Z"/><rect class="cls-90" x="803.69" y="165.53" width="5.7" height="18.5" transform="translate(78.45 563.29) rotate(-40.31)"/><path class="cls-93" d="M801.4,179.75c7.3,5.64,13.46,9.32,14.63,7.06a3.37,3.37,0,0,0,.4-1.48c.19-2.4-1.43-5.55-3.11-8.12h0a44.75,44.75,0,0,0-3.54-4.69c.36,1.43-.18,2-1.11,2.07,7.71,10.74.85,8.15-8.7-4-3.5-2.4-9.07-6.26-11.78-8.13,2.8,6.71,12.59,16.66,13.2,17.26Z"/><path class="cls-94" d="M792,148.17a230.51,230.51,0,0,1,15,19.3,9.76,9.76,0,0,0,3.7,1.12c.69,0,1-.41,1-1.19,0-1.51-1.16-4.46-3.32-9.29-2.58-5.79-3.12-7.46-3.24-9.08,0,0-4.55-2.7-13.2-.88Z"/><path class="cls-94" d="M792,148.17c-4.34,8-5.39,13.18-5.39,13.18l1.59,1.1c2.71,1.87,8.28,5.73,11.78,8.13,1.17.8,2.11,1.44,2.63,1.78,1.35.9,4.36,2.37,6.07,2.23.93-.07,1.47-.64,1.11-2.07a16.09,16.09,0,0,0-2.22-4.26c-.17-.26-.34-.53-.53-.79A230.51,230.51,0,0,0,792,148.17Z"/><path class="cls-95" d="M792,148.15c8.65-1.82,13.2.88,13.2.88-.1-1.23.05-2.44-.29-5.41-.37-3.15-3-8.1-6.19-12.22a28.78,28.78,0,0,0-5.75-5.77c-2.09-1.49-4-2.06-5.43-1.06-4.82,3.48-6.45,4.93-10.88,5.26-8.27.59-12.19,3.8-12,9a14.59,14.59,0,0,0,.4,2.64c.8,3.13,1,4.92,1.51,6.35.58,1.63,1.57,2.84,4.29,5.17a5.94,5.94,0,0,1-.21-1.57,3,3,0,0,1,2.58-.87c2.85.14,7.17,2.49,11,7.25a31.35,31.35,0,0,1,2.44,3.57s1-5.23,5.39-13.18Z"/></g></g></g></svg>