<svg xmlns="http://www.w3.org/2000/svg" viewBox="0 0 2441 599.17"><defs><style>.cls-1{fill:#fbc166;}.cls-2{fill:#fbbb5f;}.cls-3{fill:#fbc96d;}.cls-4{fill:#dc9c55;}.cls-5{fill:#f5d283;}.cls-6{fill:#5c9a51;}.cls-7{fill:#fbb03b;}</style></defs><title>設施介紹-資產 9</title><g id="圖層_2" data-name="圖層 2"><g id="圖層_1-2" data-name="圖層 1"><path class="cls-1" d="M5,0H2441l-6,320s-245,421-801,229S709-82,390,155,0,447,0,447,3.6-1.4,5,0Z"/><path class="cls-2" d="M1649.73,276.62c33.83,1.65,67.78,1.39,101.58,3.76,27.49,1.92,55.23,1.73,82.65,6.9a322.18,322.18,0,0,1,93.14,33.16c23.09,12.48,72.36,36,67.43,70.12-2.5,17.29-21.59,24.49-34.93,30.4-26.29,11.65-51.66,29.41-70.52,52-6.87,8.23-10.22,20.58-9.18,32.13-66.55,22.44-129.23,35.37-187.88,34.9-172.82-1.41-464.63-201.59-465.76-209L1055.94,235.9l-5.07-33.28c130.8,41.2,267.18,56.2,402.68,64.41C1518.92,271,1584.33,273.44,1649.73,276.62Z"/><path class="cls-3" d="M1717.69,300c33.83,1.65,67.78,1.39,101.59,3.76,27.49,1.93,55.22,1.73,82.65,6.91a321.69,321.69,0,0,1,93.14,33.16c23.09,12.48,72.35,36,67.42,70.11-2.5,17.29-21.59,24.49-34.93,30.4-26.29,11.66-51.66,29.41-70.52,52-6.87,8.23-10.22,20.59-9.17,32.13C1881.32,551,1818.63,563.88,1760,563.4c-172.82-1.41-464.63-201.58-465.76-209l-170.31-95.11L1118.83,226c130.8,41.2,267.18,56.2,402.68,64.41C1586.88,294.4,1652.3,296.85,1717.69,300Z"/><path class="cls-4" d="M2105.39,342.14a31.2,31.2,0,0,0-4.48-7.82,2.41,2.41,0,0,0-1.27-.84c-.27-.29-.55-.58-.85-.85-1.73-1.63-3.21-1.28-4.59.34s-2.69,3.2-4,4.81l-.58.15-.69,1.78c-.65,2-1.33,4-2,6-1,3.32.2,5.44,3.29,5.91,4.57.69,8.93-.28,13.27-1.37a1.7,1.7,0,0,0,2.14-.37C2107.8,347.72,2106.5,344.75,2105.39,342.14Z"/><path class="cls-5" d="M2089.88,339.74c.16-.42.31-.85.46-1.28l.41-.1c.92-1.16,1.83-2.32,2.76-3.47s2-1.4,3.17-.22c3.08,3,4.24,7.09,4.85,11.46a.88.88,0,0,1-.72,1.12c-3.26.84-6.51,1.69-9.95,1.12-2.14-.35-3-1.89-2.3-4.29C2089,342.63,2089.44,341.19,2089.88,339.74Z"/><path class="cls-4" d="M2101.29,335.54s10.11-19.1,17.56-22.18,15.4,4.48,16,8.29-3.76,16.18-3.76,16.18l-16.77,5.28s-11,4.91-12-1.33Z"/><path class="cls-5" d="M2113.09,335.68c-1.37,1.34-3,.7-4.44.59-2.37-.18-3.23-2.63-2-5.67a28.68,28.68,0,0,1,6.85-9.82c2.13-2.16,3.94-5.26,6.75-5.69,2-.31,2.93.59,3.13,4.48.55,10.54-.93,13.57-8.43,15.82A11.59,11.59,0,0,1,2113.09,335.68Z"/><path class="cls-4" d="M2093.4,36.4a31.2,31.2,0,0,0-4.48-7.82,2.41,2.41,0,0,0-1.27-.84l-.85-.85c-1.73-1.62-3.22-1.28-4.6.34s-2.68,3.21-4,4.81l-.59.15c-.23.59-.45,1.19-.68,1.78-.65,2-1.33,4-1.95,6-1,3.32.2,5.44,3.28,5.91,4.57.69,8.93-.27,13.28-1.37a1.69,1.69,0,0,0,2.13-.37C2095.8,42,2094.51,39,2093.4,36.4Z"/><path class="cls-5" d="M2077.89,34c.15-.43.3-.86.46-1.29l.4-.1c.92-1.16,1.83-2.32,2.76-3.46s2-1.41,3.18-.23c3.07,3,4.23,7.09,4.85,11.46a.88.88,0,0,1-.72,1.12c-3.26.84-6.52,1.69-10,1.12-2.14-.35-3-1.89-2.3-4.29C2077,36.89,2077.45,35.45,2077.89,34Z"/><path class="cls-4" d="M2089.3,29.81s10.11-19.1,17.56-22.19,15.4,4.48,16,8.29-3.76,16.19-3.76,16.19l-16.78,5.27s-11,4.92-12-1.32Z"/><path class="cls-5" d="M2101.09,30c-1.36,1.33-3,.69-4.43.58-2.37-.18-3.23-2.62-2-5.67a28.8,28.8,0,0,1,6.84-9.82c2.14-2.16,4-5.26,6.75-5.69,2-.31,2.94.59,3.14,4.48.55,10.55-.94,13.57-8.43,15.82A13.27,13.27,0,0,1,2101.09,30Z"/><path class="cls-4" d="M1148.43,257.09a29.12,29.12,0,0,1,2.62-9.13,2.82,2.82,0,0,1,1.21-1.25c.22-.37.45-.75.71-1.12,1.48-2.16,3.33-2.32,5.49-1.21s4.21,2.24,6.32,3.36l.74-.05,1.39,1.51c1.43,1.73,2.9,3.45,4.29,5.22,2.3,2.9,1.6,5.37-1.86,6.86-5.12,2.21-10.54,2.73-16,3.11a2.38,2.38,0,0,1-2.62.36C1147.48,263.35,1148,260,1148.43,257.09Z"/><path class="cls-5" d="M1165.78,249.56l-1-1.1-.51,0c-1.46-.82-2.92-1.65-4.39-2.45s-2.78-.72-3.79.84c-2.59,4-2.58,8.34-1.84,12.82.11.7.57.89,1.22.84,4.09-.26,8.19-.53,12-2.23,2.38-1.06,2.86-2.85,1.25-5C1167.8,252.07,1166.78,250.82,1165.78,249.56Z"/><path class="cls-4" d="M1151,249.28s-18.22-15.27-28-15.78S1106.51,243,1107.11,247s9.82,14.54,9.82,14.54l21.4-.47s14.5,1.12,13.59-5.31Z"/><path class="cls-5" d="M1137.26,253.37c2,.84,3.7-.32,5.38-.92,2.71-1,2.9-3.64.46-6.21a32.75,32.75,0,0,0-11.3-7.3c-3.22-1.39-6.38-3.81-9.81-3.29-2.43.36-3.24,1.55-2.17,5.43,2.89,10.48,5.65,12.94,15.17,12.62A21.33,21.33,0,0,0,1137.26,253.37Z"/><path class="cls-6" d="M1464.72,219.35c.22-8.61,0-18.57,3.29-26.7a7.05,7.05,0,0,1,8.72-4.13c3.75,1.17,4.19,6.63,4.48,9.82,1.33,14.66-3.75,33,5.16,45.42-1.29-14.26-2.45-28.55-.55-42.83,1.06-8,3.15-17,7.8-23.68,3.5-5,10.24-8.11,15.9-4.53,6,3.8,7.84,11.66,9,18.17,1.63,9.32,1.65,18.91,1.44,28.35q-.27,12-.55,24.08l.1,0a2.43,2.43,0,0,0,1.78-1.27,16,16,0,0,0,2.13-5.68c1.08-5.09,1-10.45.9-15.63-.1-4.92-.45-9.83-.46-14.75,0-3.5.33-8.09,3-10.68,1.86-1.83,5.25-2.68,7.53-1.07,1.52,1.07,2.15,3,2.69,4.71a56.23,56.23,0,0,1,2.22,12.29c.76,8.95,2.08,17.89,1.55,26.9a23.24,23.24,0,0,1-7.29,16.19,8.73,8.73,0,0,1-3.77,2.94,56.61,56.61,0,0,1-10.86,5c-.47,17.07-1,34.13-1.8,51.18-.12,2.66-5.38,3.6-6.6,1.37-3.81,3.67-10.66,5.36-14.34,1.26a5.87,5.87,0,0,1-.8-1.14c-1.79,2.93-8.88,3.31-8.19-.55,3.16-17.51,2.17-35.13.74-52.73-5.48-.07-11-.67-15.75-3.61-4.58-2.83-6.61-8.43-7.11-13.54C1464.25,236.22,1464.51,227.68,1464.72,219.35Z"/><path class="cls-7" d="M1533,204a5.15,5.15,0,0,0,.71-3.08c-.08-.58,1.14-.85,1.23-.29a5.8,5.8,0,0,1-.8,3.54C1533.87,204.67,1532.67,204.65,1533,204Z"/><path class="cls-7" d="M1536.43,212.38c.47-.71,1-1.41,1.44-2.11a.81.81,0,0,1,.78-.34c.21,0,.51.26.34.5-.51.74-1,1.49-1.53,2.22C1537.2,213,1536.09,212.89,1536.43,212.38Z"/><path class="cls-7" d="M1528.42,205.57c.48,1.14,1.16,2.18,1.61,3.34.19.5-1,.78-1.17.27-.47-1.15-1.18-2.18-1.62-3.34C1527.05,205.33,1528.2,205.06,1528.42,205.57Z"/><path class="cls-7" d="M1526.49,216.41a.8.8,0,0,1,.83-.2,5,5,0,0,1,1.85,1.34c.21.22-.13.53-.3.61a.71.71,0,0,1-.81-.12,4.24,4.24,0,0,0-1.44-1.07A.33.33,0,0,1,1526.49,216.41Z"/><path class="cls-7" d="M1535.75,224.33a4.27,4.27,0,0,1,1.92-2.4.74.74,0,0,1,.81-.05c.23.17.12.45-.08.58a3.45,3.45,0,0,0-1.46,1.82C1536.79,224.78,1535.59,224.89,1535.75,224.33Z"/><path class="cls-7" d="M1536.9,235a4.56,4.56,0,0,0,1.09-2.14c.14-.52,1.37-.63,1.21,0a5.33,5.33,0,0,1-1.34,2.56.8.8,0,0,1-.83.2A.34.34,0,0,1,1536.9,235Z"/><path class="cls-7" d="M1533.43,246.59l1.44-1.4a.8.8,0,0,1,.82-.19.33.33,0,0,1,.14.56l-1.44,1.4a.8.8,0,0,1-.83.2A.33.33,0,0,1,1533.43,246.59Z"/><path class="cls-7" d="M1528.1,236.88a.7.7,0,0,1,.79.11,15,15,0,0,0,1.79,1.6c.55.38-.5.94-.92.64a12.58,12.58,0,0,1-2-1.77C1527.6,237.25,1527.93,237,1528.1,236.88Z"/><path class="cls-7" d="M1528.26,225a.7.7,0,0,1,.8.12,7.82,7.82,0,0,1,1.64,2.15c.28.56-.88,1-1.12.49a8.74,8.74,0,0,0-1.62-2.15C1527.75,225.4,1528.08,225.1,1528.26,225Z"/><path class="cls-7" d="M1531.78,219.77a13.8,13.8,0,0,1,1.26-2.7c.24-.45,1.43-.43,1.12.17a14.44,14.44,0,0,0-1.18,2.48C1532.83,220.22,1531.63,220.35,1531.78,219.77Z"/><path class="cls-7" d="M1533.3,233.19c.21-.41.5-.77.72-1.18a.78.78,0,0,1,.78-.33c.24,0,.48.24.34.5s-.51.77-.73,1.18a.8.8,0,0,1-.77.33C1533.4,233.65,1533.17,233.45,1533.3,233.19Z"/><path class="cls-7" d="M1522.5,248.41a13.38,13.38,0,0,1,2.77-1c.73-.17.92.64.19.81a13.38,13.38,0,0,0-2.47.86C1522.4,249.38,1521.79,248.76,1522.5,248.41Z"/><path class="cls-7" d="M1522.25,254.5c1,0,1.9,0,2.84,0s.54.86-.13.85l-2.84-.06C1521.35,255.3,1521.6,254.5,1522.25,254.5Z"/><path class="cls-7" d="M1511.18,183.48a4.51,4.51,0,0,1,1.08-1.87.84.84,0,0,1,.86-.2.35.35,0,0,1,.13.59,4,4,0,0,0-.9,1.53C1512.19,184,1511,184,1511.18,183.48Z"/><path class="cls-7" d="M1512.74,194.29a8,8,0,0,0,.92-2.25c.15-.52,1.38-.63,1.22,0a7.33,7.33,0,0,1-1,2.46.76.76,0,0,1-.76.33C1512.86,194.75,1512.59,194.54,1512.74,194.29Z"/><path class="cls-7" d="M1505.25,184.34c.24-1.42.5-2.83.76-4.25.1-.53,1.32-.66,1.22-.06-.26,1.42-.51,2.84-.78,4.26C1506.35,184.81,1505.14,184.94,1505.25,184.34Z"/><path class="cls-7" d="M1504.38,192.82a10.93,10.93,0,0,1,1.19,3.66c.11.57-1.1.84-1.2.29a12,12,0,0,0-1.08-3.47C1503,192.76,1504.11,192.37,1504.38,192.82Z"/><path class="cls-7" d="M1496.61,181.74a7.62,7.62,0,0,1,1.77,2.8c.2.5-1,.81-1.19.28a8.33,8.33,0,0,0-1.55-2.53C1495.28,181.88,1496.3,181.44,1496.61,181.74Z"/><path class="cls-7" d="M1493.49,192.66a30.15,30.15,0,0,0,2.12,2.39c.22.23-.13.54-.31.62a.72.72,0,0,1-.83-.11,17.71,17.71,0,0,1-2.09-2.41C1492,192.63,1493.16,192.26,1493.49,192.66Z"/><path class="cls-7" d="M1514.22,207.1c.46-.95,1-1.88,1.44-2.82.25-.48,1.47-.44,1.15.17-.48.94-1,1.89-1.47,2.82C1515.09,207.71,1513.92,207.71,1514.22,207.1Z"/><path class="cls-7" d="M1507.16,203a29.42,29.42,0,0,0,1.69-3.54c.21-.49,1.43-.47,1.16.18a22.92,22.92,0,0,1-1.72,3.52C1508,203.57,1506.82,203.56,1507.16,203Z"/><path class="cls-7" d="M1509,223.15a4.52,4.52,0,0,0,.93-2.25c0-.54,1.24-.68,1.21-.06a4.73,4.73,0,0,1-1.11,2.57C1509.81,223.77,1508.7,223.65,1509,223.15Z"/><path class="cls-7" d="M1515.71,219.21a3.39,3.39,0,0,0,.44-1.31c0-.54,1.26-.68,1.23-.05a3.61,3.61,0,0,1-.54,1.52.77.77,0,0,1-.79.34C1515.8,219.68,1515.58,219.47,1515.71,219.21Z"/><path class="cls-7" d="M1510.82,212c.45-.65,1-1.23,1.44-1.88a.85.85,0,0,1,.81-.35c.22,0,.54.27.35.53-.48.68-1,1.3-1.53,2C1511.62,212.68,1510.47,212.54,1510.82,212Z"/><path class="cls-7" d="M1500.86,214.27a12.58,12.58,0,0,0,1.41-3.9c.1-.54,1.35-.67,1.24-.06a11.89,11.89,0,0,1-1.55,4.12C1501.7,214.85,1500.53,214.85,1500.86,214.27Z"/><path class="cls-7" d="M1492.84,208.82c.22-1.11.49-2.21.73-3.31.12-.54,1.36-.65,1.23,0-.24,1.1-.51,2.2-.78,3.3C1493.9,209.27,1492.72,209.41,1492.84,208.82Z"/><path class="cls-7" d="M1492.36,225.4a25.9,25.9,0,0,1,1.26-4.13c.18-.51,1.41-.5,1.17.18a30.74,30.74,0,0,0-1.21,3.89C1493.47,225.87,1492.25,226,1492.36,225.4Z"/><path class="cls-7" d="M1499.21,229.64a6.48,6.48,0,0,0,.47-2.72c0-.54,1.24-.69,1.23-.06a6.47,6.47,0,0,1-.56,2.95C1500.12,230.28,1498.92,230.27,1499.21,229.64Z"/><path class="cls-7" d="M1512.69,231.17a5.93,5.93,0,0,1-.06,3c-.14.48-1.3.66-1.18.06a6.61,6.61,0,0,0,0-2.73C1511.34,230.89,1512.57,230.61,1512.69,231.17Z"/><path class="cls-7" d="M1514.48,240a10.52,10.52,0,0,0,.92-3.43c0-.56,1.3-.71,1.27-.05a10,10,0,0,1-1.07,3.65C1515.39,240.67,1514.24,240.68,1514.48,240Z"/><path class="cls-7" d="M1510.49,254.92a20.25,20.25,0,0,1,1.92-4c.28-.46,1.53-.41,1.17.17a24,24,0,0,0-2,4C1511.42,255.56,1510.28,255.55,1510.49,254.92Z"/><path class="cls-7" d="M1513.92,264.2a24.19,24.19,0,0,0,1.17-3.42c.12-.54,1.38-.66,1.24-.06a19.83,19.83,0,0,1-1.3,3.65C1514.82,264.84,1513.67,264.84,1513.92,264.2Z"/><path class="cls-7" d="M1502.1,239.22a7.06,7.06,0,0,1,1,3.07c0,.55-1.25.72-1.26.06a7.28,7.28,0,0,0-.88-2.74C1500.74,239.15,1501.88,238.8,1502.1,239.22Z"/><path class="cls-7" d="M1494.21,243.62c.75,1.47,1.18,3.06,2.32,4.29.4.44-.74.89-1.11.49a14.66,14.66,0,0,1-2.34-4.4C1492.88,243.54,1494,243.21,1494.21,243.62Z"/><path class="cls-7" d="M1495.36,257.28a.69.69,0,0,1,.8.11,5.31,5.31,0,0,1,1.21,2c.17.53-1,.83-1.2.28a5.21,5.21,0,0,0-1.11-1.81C1494.85,257.65,1495.17,257.36,1495.36,257.28Z"/><path class="cls-7" d="M1505,253.11c.27,1.26.48,2.53.68,3.8.09.57-1.13.84-1.21.28-.2-1.27-.44-2.53-.63-3.8C1503.77,252.85,1504.9,252.58,1505,253.11Z"/><path class="cls-7" d="M1502.93,268a26.72,26.72,0,0,1,.19,4.38c0,.53-1.22.68-1.21.05a30.26,30.26,0,0,0-.16-4.15C1501.67,267.73,1502.85,267.46,1502.93,268Z"/><path class="cls-7" d="M1509.23,274.91a15,15,0,0,0,.3-3.07c0-.52,1.15-.65,1.16-.06a12.75,12.75,0,0,1-.26,3.08C1510.3,275.38,1509.09,275.49,1509.23,274.91Z"/><path class="cls-7" d="M1507.21,287.33a18.54,18.54,0,0,0,1.45-4.37c.11-.5,1.27-.65,1.17,0a15.59,15.59,0,0,1-1.52,4.59C1508.08,288,1506.92,287.92,1507.21,287.33Z"/><path class="cls-7" d="M1496.59,280.72a31,31,0,0,0,1.57,3.71c.3.54-.84.94-1.1.48a24.57,24.57,0,0,1-1.64-3.92C1495.24,280.48,1496.38,280.21,1496.59,280.72Z"/><path class="cls-7" d="M1493,264.22c.51.94,1,1.9,1.41,2.85.28.58-.89,1-1.13.5-.47-1-1-2-1.39-3C1491.66,264.14,1492.75,263.82,1493,264.22Z"/><path class="cls-7" d="M1513,281.49a7,7,0,0,0,1.18-3.43c0-.53,1.24-.68,1.22-.05a7.26,7.26,0,0,1-1.28,3.64C1513.82,282.08,1512.62,282.06,1513,281.49Z"/><path class="cls-7" d="M1510.74,293.67a4.62,4.62,0,0,0,1.09-2.13c.14-.54,1.39-.64,1.23-.06a5.36,5.36,0,0,1-1.34,2.57.84.84,0,0,1-.85.2A.35.35,0,0,1,1510.74,293.67Z"/><path class="cls-7" d="M1500.5,297.8a12.82,12.82,0,0,1,2-1.73.79.79,0,0,1,.85,0c.24.17.12.47-.08.6a15.86,15.86,0,0,0-1.83,1.54.8.8,0,0,1-.82.19A.33.33,0,0,1,1500.5,297.8Z"/><path class="cls-7" d="M1492.57,289.41a.75.75,0,0,1,.81-.19,14.5,14.5,0,0,1,1.77,1.25c.24.17.12.46-.08.6a.78.78,0,0,1-.85.05c-.55-.39-1-.89-1.62-1.22A.32.32,0,0,1,1492.57,289.41Z"/><path class="cls-7" d="M1511.61,306.38a4.9,4.9,0,0,0,1.48-3.69c0-.55,1.27-.7,1.25-.06a5.66,5.66,0,0,1-1.95,4.32C1511.93,307.33,1511,306.91,1511.61,306.38Z"/><path class="cls-7" d="M1501.28,309.42a5.8,5.8,0,0,0,1.57-2.37c.16-.52,1.4-.63,1.23-.05a6.4,6.4,0,0,1-1.82,2.79.82.82,0,0,1-.84.2A.34.34,0,0,1,1501.28,309.42Z"/><path class="cls-7" d="M1495.22,302.79c.44.41.93.83,1.56.65.23-.07.64,0,.71.27s-.28.49-.52.56a2.74,2.74,0,0,1-2.77-.91C1493.82,303,1494.89,302.47,1495.22,302.79Z"/><path class="cls-7" d="M1499.83,288.89c.5-1,1.17-1.86,1.7-2.82.24-.46,1.45-.43,1.13.17-.51,1-1.18,1.85-1.69,2.82C1500.72,289.52,1499.51,289.5,1499.83,288.89Z"/><path class="cls-7" d="M1486.34,247.77a6.59,6.59,0,0,1,.74,3.07c0,.55-1.24.7-1.24.06a7.07,7.07,0,0,0-.66-2.74C1485,247.69,1486.12,247.35,1486.34,247.77Z"/><path class="cls-7" d="M1477.71,248.51a.7.7,0,0,1,.79.11c.72.72,1.18,1.65,1.87,2.39.41.43-.74.88-1.1.49-.7-.74-1.18-1.64-1.85-2.4C1477.22,248.88,1477.53,248.59,1477.71,248.51Z"/><path class="cls-7" d="M1473,237.82a3,3,0,0,1,1.51-1.69.69.69,0,0,1,.82.12c.19.26-.09.51-.3.61a2.13,2.13,0,0,0-.9,1.13C1474,238.47,1472.81,238.47,1473,237.82Z"/><path class="cls-7" d="M1475.31,227.42a7.17,7.17,0,0,0,.93-2.71c0-.55,1.28-.7,1.25-.06a6.85,6.85,0,0,1-1,2.94C1476.2,228,1475,228.05,1475.31,227.42Z"/><path class="cls-7" d="M1480.59,239.58a8.15,8.15,0,0,0,1.16-2.71c.14-.56,1.44-.67,1.28-.06a8.29,8.29,0,0,1-1.37,3C1481.38,240.21,1480.23,240.09,1480.59,239.58Z"/><path class="cls-7" d="M1472.09,217.3c.23-1.36.72-2.66,1-4,.1-.55,1.37-.67,1.25-.06-.27,1.36-.73,2.67-1,4C1473.2,217.77,1472,217.92,1472.09,217.3Z"/><path class="cls-7" d="M1477.2,211.34a12.14,12.14,0,0,0,1.19-2.36c.18-.51,1.41-.49,1.17.17a9.81,9.81,0,0,1-1.25,2.35.79.79,0,0,1-.77.34C1477.32,211.8,1477,211.59,1477.2,211.34Z"/><path class="cls-7" d="M1475,201.12a9.37,9.37,0,0,0,1.4-2.48c.16-.53,1.43-.64,1.26,0a9.39,9.39,0,0,1-1.59,2.8C1475.76,201.76,1474.6,201.64,1475,201.12Z"/><path class="cls-7" d="M1472.2,193.13c.22-.67.52-1.32.76-2,.17-.5,1.38-.49,1.14.17s-.51,1.25-.76,1.88C1473.18,193.6,1472,193.65,1472.2,193.13Z"/><path class="cls-7" d="M1469.34,202.6a.77.77,0,0,1,.83-.2,5.8,5.8,0,0,1,1.77,1c.51.49-.58,1-1,.67a7.25,7.25,0,0,0-1.62-1A.31.31,0,0,1,1469.34,202.6Z"/><path class="cls-7" d="M1466.58,221.19a.78.78,0,0,1,.84-.05,14.63,14.63,0,0,0,2,1.4.34.34,0,0,1,.13.56.82.82,0,0,1-.83.19,8.36,8.36,0,0,1-2.23-1.51C1466.27,221.6,1466.37,221.33,1466.58,221.19Z"/><path class="cls-7" d="M1467.26,233.2a4.14,4.14,0,0,0,.51-.42,2.84,2.84,0,0,1,.91-.52c.26-.08.64-.14.82.12s-.08.53-.31.61c-.55.19-.92.66-1.44.91a.65.65,0,0,1-.79-.11C1466.78,233.54,1467.06,233.31,1467.26,233.2Z"/><path class="cls-7" d="M1468.69,249.26l1.43-1.4a.85.85,0,0,1,.87-.21.35.35,0,0,1,.14.59c-.48.47-1,.94-1.46,1.4a.83.83,0,0,1-.85.2A.34.34,0,0,1,1468.69,249.26Z"/><path class="cls-7" d="M1481.31,257.12a2.26,2.26,0,0,0,.46-1.9c-.15-.54,1.06-.83,1.21-.28a2.78,2.78,0,0,1-.55,2.35.81.81,0,0,1-.78.34C1481.43,257.6,1481.15,257.38,1481.31,257.12Z"/></g></g></svg>