<svg xmlns="http://www.w3.org/2000/svg" viewBox="0 0 1194.65 654"><defs><style>.cls-1{fill:#edc080;}</style></defs><title>設施介紹-資產 5</title><g id="圖層_2" data-name="圖層 2"><g id="圖層_1-2" data-name="圖層 1"><path class="cls-1" d="M1191.93,397.63c-7.09-.37-7-.42-7.12-7.56-.45-19.4-1-38.79-1.53-58.18a11.22,11.22,0,0,1-.33-1.13,20.37,20.37,0,0,1-.73-6.75,17.13,17.13,0,0,1,.17-2.39,20.18,20.18,0,0,1,.45-2.84,1.6,1.6,0,0,1,.05-.21c0-.22,0-.43,0-.67.09-4.33.28-8.67-.48-13-.32-1.86.11-3.27,2.4-3.68s2.84-1.85,1.63-3.94c-3-5.12-5.83-10.32-8.9-15.39a4.78,4.78,0,0,1-.69-1.65,139.33,139.33,0,0,1-8.63-11.52,14.32,14.32,0,0,1-1.42-2.63,18.29,18.29,0,0,1-2.29-3.34,146.11,146.11,0,0,1-22.88-7.6,3.87,3.87,0,0,1-2.71-4.13,42.79,42.79,0,0,0-.53-9.18c-.45-2.46.37-3.93,3-4.58,4.21-1,4.47-1.75,2.46-5.38-7.18-13-14.58-25.83-23.28-37.88-.68-.94-1.43-1.84-2.18-2.73-3.31-3.93-4.6-3.95-8-.08a229.89,229.89,0,0,0-15,19.78,6.12,6.12,0,0,1-2.38,2.65c0-3.34-.07-6.45,0-9.55.06-1.78,1.63-2,3-2.38,6.69-1.75,6.89-2,3.63-7.85-10-18-20.23-35.78-32.48-52.35-1.51-2-2.71-4.31-4-6.48-.82-1.34-.74-2.6,1-3,5.49-1.12,10.08-5.16,16-4.81,1.68.09,1.38-.93.62-1.81a6.29,6.29,0,0,0-4.07-2.29c-1.62-.19-1.71-.9-1-2.11a10.17,10.17,0,0,1,4.09-3.9c.64-.32,1.59-.55,1.47-1.43s-1.2-1.14-2-1.31a11.3,11.3,0,0,0-5,.33c-3,.69-5.82,2.07-9,2-1.35,0-2.29-.1-1.78-1.92a2.24,2.24,0,0,0-1.2-2.95,2.43,2.43,0,0,0-2.93.52,2.62,2.62,0,0,0-.19,3.25c1.81,3.18.43,6.67,1,10,1.08,6.5-2,11.23-5.94,16a364.93,364.93,0,0,0-35.94,52.34c-.62,1.1-1.12,2.28-1.64,3.43-1,2.19-.11,3.49,2.07,4a24,24,0,0,0,5.33.84c3.43,0,3.64,2,3.6,4.61-.06,3.22-2.28,2.88-4.26,2.66a209.79,209.79,0,0,0-21.27-1.22c-29.46-.37-57.1,7-83.76,19-16.68,7.48-32.4,16.84-49,24.44-12.78,5.85-25.81,10.92-39.89,12.66-27.85,3.45-54.87,1.11-80.4-11.57-3.09-1.53-6.24-2.95-10.39-4.89a88,88,0,0,0,17.8-12.07c3.34-2.81,3.4-3.08-.41-5-2-1-4-1.92-6-3a8.72,8.72,0,0,0-8-.76c-6.58,2.41-17.56-4-19.44-10.76-.33-1.18-.67-2.3-1.78-2.87q-5.53-2.82-11.12-5.52c-1.3-.62-2,0-2.09,1.36-.39,4.75-1.21,9.53-.53,14.25.39,2.62,1.65,5.09.26,7.91q-10-4.35-20.06-8.73c-.59-.26-1.26-.76-.43-1.38,1.25-.93,1.64-3.07,2.75-3.36,4.19-1.1,5.52-5.06,8.31-7.51,1.43-1.25,2.46-2.92,3.8-4.27,1.86-1.87,1.18-2.84-1-3.46-1.74-.49-3.44-1.09-5.19-1.52-2.32-.56-4.06-1.68-4.87-4.05-1-2.77-3.91-3.66-5.62-5.86-15.36-19.88-30.91-39.61-46.4-59.39a16.5,16.5,0,0,1-1.48-2.06c-1.71-3-.79-5.4,2.51-6.48,14.72-4.82,29.44-9.67,44.2-14.4a6.28,6.28,0,0,0,4.55-4.25C692.21,94.05,696.19,83.56,700,73c1.57-4.28.54-6.79-3.5-8.9A28,28,0,0,0,685.24,61c-9.35-.57-18.75-.84-27.34,4a3.17,3.17,0,0,1-3.8-.37,19.24,19.24,0,0,0-7.47-3.46c-5.21-1-9.64-3.45-14.08-6.24A75,75,0,0,0,602.4,44.42c-3.89-.53-4.79-3.81-7-5.92-.54-.52.25-1.13.66-1.58a12.21,12.21,0,0,1,6.6-4.21c2.9-.57,2.29-2,.95-3.49-1.91-2.08-4.44-2.7-7.22-2.74-1.89,0-4.33,1.07-4.87-2.34-1-6.27-2.1-5.67,2.1-7.79,1.09-.54,2.61-1.11,2.35-2.65s-1.81-1.68-3-1.89c-3.49-.6-6.36-1.72-7.67-5.55-.75-2.18-2.82-2.27-3.63,0-1.47,4.1-4.67,5.41-8.4,6.28-.92.21-2,.51-2.16,1.6s.89,1.58,1.66,2.13c3.73,2.68,4.3,4.65,2.83,9.08-.47,1.44-1.52,1.24-2.55,1.22-2.77-.05-5.54-.18-8,1.39-1.2.76-2.4,1.62-2.45,3.12-.07,1.88,1.78,1.49,2.83,1.93,2.71,1.13,6.47,3,5.91,5.32a9.06,9.06,0,0,1-6.83,6.79,101.22,101.22,0,0,0-18.9,5.57c-1.57.65-3.19,1.2-4.69,2a172.7,172.7,0,0,1-21.77,9.27c-6,2.21-10.67,2.58-16.77.58-9.39-3.09-19.3-2.59-28.85.39-7,2.18-8.24,5.22-5.7,12,3.68,9.82,7.32,19.65,10.79,29.54a6.88,6.88,0,0,0,5,4.72c15,4.77,29.89,9.66,44.83,14.52,4.78,1.56,5.74,4.5,2.84,8.79-4.5,6.68-9,13.34-13.56,20-2.74,4-5.54,8-8.2,12.11-1.16,1.77-2.05,2-3.66.43a79.53,79.53,0,0,1-18.87-28.37c-1-2.41-.31-2.94,2.21-2.57a11.37,11.37,0,0,0,9.77-2.79,5.55,5.55,0,0,1,5.34-1.25,6,6,0,0,0,3.75.06c1.31-.52,2.78-1.12,2.8-2.71,0-1.77-2-.57-2.72-1.54,0-.16-.1-.4,0-.56.6-1.16,2.74-1.59,2.09-3.17-.52-1.27-2.36-.54-3.47-1-4-1.76-7.19-1-10.48,1.86-2.82,2.47-6.5,2-9.29-.49a1.94,1.94,0,0,0-2.6-.33,2,2,0,0,0-.61,2.53A21.39,21.39,0,0,1,483,139.5c-6.56,16.32-18.77,27.42-33.75,35.88A109,109,0,0,1,431,183.51c-1.46.5-3.65.87-2.93,3s.7,5.37,4.23,5.55a15.48,15.48,0,0,0,4.74-.32c2.67-.68,3.39.07,2.6,2.7-1.26,4.15-2.64,8.27-3.94,12.41-.49,1.58-1.33,3.29,1.28,4,.76.21,1,1.1.95,1.88,0,4.22.38,8.45-.57,12.65A3,3,0,0,1,434,228a252.14,252.14,0,0,0-56.63,7.36,7.15,7.15,0,0,1-4.07-.18c-4.64-1.51-9.27-3.09-14-4.44-2.36-.68-2.6-1.9-2-4a135.32,135.32,0,0,0,5.76-35.91c.06-4.66.64-5.06,5.2-5.07,6.58,0,13.16,0,19.93.58L365.55,196c-.16.32-.31.65-.47,1,6-.68,5.81,3.79,6.94,7,2.09,6,4.14,12,5.92,18.11.84,2.89,2.38,3.77,5.28,3.71,8-.16,15.94-.2,23.9,0,3.29.09,4.71-1.21,5.59-4.2,1.92-6.49,4.15-12.89,6.23-19.34.91-2.83,1.3-6.12,5.71-5.19-.36-1.92-1.72-2-2.69-2.39-5.47-2.34-11-4.57-16.44-6.93-2.64-1.14-5.4-1.88-7-4.89-1.13-2.08-3.54-3.06-5.88-.8a6,6,0,0,1-4.43,1.41c-7,0-14-.09-21,0-2.54,0-3.88-.93-3.91-3.41a141.67,141.67,0,0,0-5.77-37.19c-.22-.76-.54-1.8.61-2.15a2.33,2.33,0,0,1,2.86.79,12.06,12.06,0,0,1,1.11,2.61c2.38,7.24,4.82,14.46,7.07,21.75.74,2.42,2,3.36,4.55,3.32q12.75-.18,25.5,0c2.41,0,3.65-.85,4.37-3.15,2.24-7.17,4.68-14.28,7-21.43.78-2.4,1.34-4.94,5.05-4-.45-1.85-1.77-1.94-2.73-2.35-6.44-2.75-12.9-5.45-19.36-8.16a5.56,5.56,0,0,1-3.2-2.76c-1.79-3.52-6.09-3.46-8,.07a4.39,4.39,0,0,1-2.69,2.36c-6.87,2.2-13.76,4.36-20.59,6.68-2.31.78-3.47.28-4.32-2.06-1.47-4.07-3.15-8.09-4.93-12-.94-2.1-.6-2.85,1.78-2.83,7.12.08,14.24-.08,21.35.07,2.82.06,4.16-1,5-3.66,2-6.69,4.29-13.29,6.44-19.93.93-2.87,1.5-6,5.94-5.07-.37-1.89-1.68-2-2.64-2.41-6.54-2.79-13.1-5.53-19.66-8.28a6,6,0,0,1-3.24-2.77c-2.17-3.79-6.05-3.74-8.12.07a5.53,5.53,0,0,1-3,2.56c-7.33,3.1-14.68,6.15-22,9.33a2.37,2.37,0,0,1-3.28-.71c-1.75-2.12-3.69-4.09-5.45-6.21-.63-.75-2-1.39-1.43-2.55.45-.9,1.74-.46,2.66-.48,3,0,6-.14,8.92,0,2.59.13,3.82-1,4.55-3.39,1.87-6.07,3.87-12.1,5.92-18.11,1.16-3.39,1-7.95,6.77-7.42-.89-1.77-2.26-1.91-3.36-2.38-6.35-2.72-12.71-5.37-19.07-8.06a6.07,6.07,0,0,1-3.27-2.73c-2.19-3.81-6-3.79-8.13,0a6.58,6.58,0,0,1-3.63,2.83c-6.06,2.58-12.14,5.09-18.2,7.67a9,9,0,0,0-4,2.38c7.07.4,5.69,6.25,7,10.57L286.8,54.46c-1-.63-.91-1.47-.57-2.48,2.69-8.15,5.46-16.26,7.92-24.47.82-2.73,3.1-2.37,5.11-3.11-.73-1.46-2.05-1.7-3.14-2.17-5.36-2.3-10.77-4.51-16.13-6.81-2.64-1.14-5.32-1.87-7-4.86s-5.55-2.5-7.13.63a6.68,6.68,0,0,1-4,3.25l-19.08,8c-.95.4-1.86.89-2.78,1.33.18.43.26.77.33.77,3.74-.08,4.95,2.35,5.72,5.45A71.17,71.17,0,0,0,248.35,37c.69,1.9.45,2.75-1.87,2.27-3.74-.77-7.51-1.37-11.27-2-1.79-.31-2.64-1.09-2-3.05,1.75-5.22,3.55-10.42,5.08-15.71.77-2.68,3-2.22,4.9-2.63-.62-1.42-1.9-1.53-2.9-2-4.29-1.86-8.6-3.66-12.91-5.44C222.68,6.45,217.64,5,215,0h-2.55c-3.74,5.86-10.2,7.35-16,9.9-4.06,1.78-8.16,3.44-12.51,5.64,5.16-.33,5.26,3.54,6.27,6.59,1.29,3.92,2.46,7.89,3.84,11.77.72,2,.19,3-1.88,3.33-3.77.63-7.53,1.25-11.27,2-2.15.43-2.4-.33-1.77-2.13.81-2.29,1.5-4.63,2.26-6.94.95-2.91,1.32-6.42,6.17-5.21-.58-2.07-2-2.21-3-2.66-6.44-2.76-12.9-5.46-19.36-8.18a6.23,6.23,0,0,1-3.25-2.75c-2.2-3.79-6-3.73-8.12.1a6.53,6.53,0,0,1-3.66,2.79c-6.15,2.62-12.33,5.19-18.49,7.79-1.14.48-2.26,1.05-3.35,1.56.16.47.22.82.29.82,3.71.08,4.69,2.62,5.6,5.65,2.11,7,4.42,13.92,6.83,20.81.73,2.07.54,3.25-1.51,4.35-3.44,1.86-6.73,4-10.39,6.22,0-2.74,1.53-4.88,1.87-7.26.47-3.22,3.12-3.17,5.44-3.66-.46-1.6-1.79-1.68-2.77-2.1-6.35-2.71-12.71-5.37-19.08-8a7,7,0,0,1-3.77-3.08c-2.09-3.6-6-3.53-8,.1a6.44,6.44,0,0,1-3.59,2.85C93,42.94,86.7,45.54,80.44,48.19a6.81,6.81,0,0,0-3.62,2.4c5.6-.3,5.7,3.9,6.81,7.26,2,5.94,4,11.83,5.76,17.83.87,3,2.48,4.08,5.51,3.89s6.37,0,9.56,0c.6,0,1.39-.15,1.68.57s-.32,1.17-.72,1.63c-2.18,2.45-4.4,4.88-6.57,7.35a2,2,0,0,1-2.76.53c-7.5-3.26-15-6.42-22.56-9.6a5.29,5.29,0,0,1-2.69-2.47c-2.07-3.6-5.92-3.74-8-.19a7,7,0,0,1-3.74,3.11q-9.69,4.06-19.35,8.19c-.91.39-2.12.44-2.57,2.12,4.87-.59,5.22,3.13,6.24,6.29,2,6.25,4.2,12.44,6,18.73.83,2.81,2.18,3.93,5.17,3.85,7-.18,14,0,21-.08,2.35,0,3.09.51,2,2.92-1.83,4-3.44,8.2-5,12.34-.7,1.81-1.68,2.47-3.65,1.81-6.95-2.31-13.94-4.51-20.9-6.76a4.93,4.93,0,0,1-2.79-2.35c-2.39-3.76-6-3.69-8.18.15A5.81,5.81,0,0,1,34,130.21q-9.67,4.08-19.35,8.18a6.19,6.19,0,0,0-3.23,2.16c4.72-.78,5,2.48,5.91,5.23,2.19,6.75,4.47,13.46,6.57,20.24.7,2.26,1.85,3.24,4.31,3.21q12.9-.15,25.81,0c2.43,0,3.61-.89,4.32-3.18,2.21-7.18,4.62-14.3,6.95-21.44.26-.81.52-1.62.83-2.4a2.37,2.37,0,0,1,3.13-1.45c1.55.47.84,1.75.57,2.67a146.41,146.41,0,0,0-4.5,21.72,81.3,81.3,0,0,0-1,14.86c.14,2.64-1,3.54-3.57,3.51-7.23-.11-14.45-.06-21.68,0a7.31,7.31,0,0,1-4.43-1.44c-2.57-1.81-4.89-1.5-6.27,1.29a6.82,6.82,0,0,1-4,3.29c-6.16,2.6-12.33,5.17-18.49,7.78a7.77,7.77,0,0,0-3.71,2.38c5.49-.33,5.63,3.73,6.7,7,2,6,4.05,12,5.84,18.13.87,3,2.45,4,5.5,3.89q11.94-.27,23.9,0c2.92.06,4.42-.89,5.27-3.74,2-6.59,4.23-13.09,6.31-19.65,1-3,1.51-6.23,6.26-5.27L62,196l-22.72-9.63,0-.61H50.76c3.5,0,7,0,10.52,0,1.89,0,3.07.65,3,2.73-.16,13.24,2.26,26.09,5.88,38.75.51,1.81.06,2.78-1.74,3.35q-11.07,3.52-22.12,7.14a3.47,3.47,0,0,1-3.34-.27c-2.77-2.09-4.89-.35-6.15,1.63a9,9,0,0,1-4.6,3.56q-9.55,4-19.07,8a3.21,3.21,0,0,0-2,1.46c2.74.12,4.7,1,5.27,3.89.45,2.27,1.41,4.43,1.95,6.69a1,1,0,0,1-.84,1.37,18.68,18.68,0,0,1,2.55,5.3,2.9,2.9,0,0,1,1.05,1.53c.82,2.5,1.66,5,2.49,7.49l0,0a17,17,0,0,1,2.35,5.07c0,.17,0,.35.07.52,3-.38,5.89-1.18,8.87-1.69,3.23-1.76,7-1.56,10.93-1.28,2.44,0,4.88,0,7.31,0,1.35,0,3-.26,3.36,1.58.33,1.65.48,3.41-1.1,4.67-.42.33-.87.61-1.31.89l-7.85,4.93a1.91,1.91,0,0,1-.24,1.22,31.15,31.15,0,0,0-3.81,11.46c.61,2,1.25,4.05,2,6s0,2.72-1.77,3.26c-2.93.91-5.81,2-8.76,2.89-1.5.46-1.71,1.07-1.61,2.71.16,2.85.74,5.75.08,8.61-.38,1.68.36,2.46,1.93,2.47s2.47.2,2.3,2.09.8,2.74,2.76,2c1.44-.57,2.29-.2,2.27,1.47,0,1.38.56,2.25,2.06,2.21,4.76-.15,6.78,1.83,6.79,6.71,0,8.67,0,17.35,0,26,0,5.22-1.14,6.39-6.25,5.55-2.72-.45-5.66-.52-8.07-2.36a3.68,3.68,0,0,0-1.19-.59,1.85,1.85,0,0,1-1,.34,16.16,16.16,0,0,0-2.12.25c-1.32.87-2,.93-2.35.55a20,20,0,0,1-4.46.78v8.73c.57,1,1.15,2,1.79,3a1.8,1.8,0,0,1,.33,1.17,2,2,0,0,1,.39,1.15v1.77a2,2,0,0,1-2,2,1.81,1.81,0,0,1-.52-.06v.54c0,4.35,0,4.46-4.46,4.44-2.86,0-3.66.71-3.45,3.9.46,7,.28,14.06.28,21.1H15v4.21c-.15,0-.29,0-.44,0-2.23,0-4.46.05-6.69,0a9.84,9.84,0,0,0-4.63,1C1.36,430.7-.08,432,0,434.37a4.78,4.78,0,0,0,3.2,4.35c.86.39,1.78.68,2.67,1H15V654H1188.47V430.62c1.26,0,2.64-.36,3.85-.43,2.06-.12,1.81-2.09,1.8-3.49-.06-6.67-.22-13.34-.34-20a17,17,0,0,1,.6-6C1195.19,398.46,1194.13,397.74,1191.93,397.63Zm-227,26.88c0-.22,0-.44,0-.65,0-5.08,0-10.16,0-15.24,0-.81,0-1.94,1.16-1.88s1,1.18,1.05,2c0,2.54,0,5.08,0,7.62s0,4.87,0,7.3c0,.27,0,.57,0,.86Zm-6.3,0a6,6,0,0,1-.08-1.07v-7.3c0-2.43,0-4.87,0-7.3,0-1.63.63-2.63,2.44-2.59,1.64,0,2.24,1,2.25,2.45,0,5,0,9.95,0,14.92a4.09,4.09,0,0,1-.08.89Zm-6.37,0a4,4,0,0,1-.09-.87q0-7.44,0-14.86c0-1.66.72-2.57,2.48-2.53s2.26.94,2.27,2.42c0,2.43,0,4.85,0,7.27h0v7.59a5,5,0,0,1-.09,1Zm-13.39,0c0-.12,0-.23,0-.35q0-7.79,0-15.57c0-1.31.51-2.3,2-2.27s2,1.05,2,2.36c0,2.64,0,5.29,0,7.94h0c0,2.43,0,4.87,0,7.3,0,.2,0,.39,0,.59Zm-6.49,0c0-2.73,0-5.46,0-8.2h-.06c0-2.52,0-5.05,0-7.57,0-.82,0-1.89,1.06-2s1.25,1,1.26,1.78c0,5.33,0,10.66,0,16Zm-6.33,0v0c0-2.63,0-5.26,0-7.89s0-5.26,0-7.89c0-1.48.58-2.43,2.24-2.41a2.17,2.17,0,0,1,2.38,2.37c.06,5.26.06,10.53.07,15.79v.06Zm-5.75,0a1.77,1.77,0,0,1,0-.23q0-7.72,0-15.47c0-1.42.45-2.53,2.14-2.49s2,1.28,2,2.64c0,2.53,0,5.06,0,7.58h0c0,2.53,0,5,0,7.58,0,.13,0,.26,0,.39Zm-6.33,0c0-.12,0-.25,0-.38,0-5.07,0-10.14,0-15.21,0-1.6.55-2.65,2.38-2.65s2.36,1.07,2.35,2.66c0,2.54,0,5.08,0,7.61s0,5.08,0,7.61c0,.13,0,.24,0,.36Zm-5.77,0c0-.12,0-.24,0-.37q0-7.58,0-15.16c0-1.36.25-2.61,2-2.65,1.93-.05,2.16,1.32,2.17,2.79,0,2.53,0,5.05,0,7.58h.05q0,3.63,0,7.26c0,.19,0,.37,0,.55Zm-12.11,0s0,0,0-.07c0-2.63,0-5.26,0-7.9s0-5.26,0-7.9c0-1.32.53-2.26,2-2.3s2.11.86,2.12,2.19q.06,8,0,16Zm-5.81,0q-.07-7.87-.07-15.75c0-1.46.66-2.45,2.28-2.39s1.92,1.08,1.93,2.37c0,2.63,0,5.26,0,7.89s0,5.25,0,7.88Zm-6.31,0c0-.08,0-.14,0-.22,0-5.06,0-10.11,0-15.17,0-1.57.55-2.74,2.35-2.67s1.89,1.43,1.91,2.74c0,2.53,0,5.05,0,7.58h.39v7.58a.92.92,0,0,1,0,.16Zm-5.76,0c0-5.07-.05-10.14,0-15.21,0-1.42.51-2.54,2.19-2.48,1.51.06,1.92,1.14,1.93,2.42,0,2.64,0,5.29,0,7.93h0c0,2.43,0,4.86,0,7.3v0Zm-3.79,0q0-7.71,0-15.41c0-.73,0-1.7.94-1.75,1.21-.07,1.15,1.06,1.16,1.86,0,2.64,0,5.29,0,7.93h0c0,2.43,0,4.87,0,7.3v.07Zm96.93-160.59c0-6.11,0-11.32,0-16.54,0-1.47,1.17-1.81,2.4-2A71.48,71.48,0,0,1,985,244C980.49,250.6,976.19,256.84,971.33,263.92Zm.24,61.73V278h1.17C973.13,293.91,971.84,309.78,971.57,325.65Zm52.33-4.47c-.09.73,0,1.48-.12,2.22s-.45,1.5-1.33,1.52-1.3-.65-1.37-1.46c-.08-1.06-.11-2.12-.12-3.18,0-1.31-.48-2.32-1.91-2.49-2-.24-2.61-1.49-2.52-3.32.39-8.26-1.08-16.48-.68-24.74,0-3,.11-5.93,0-8.89-.11-2.24.54-3.68,2.87-4.15,2.84-.56,3-2.12,1.72-4.39-4.71-8.53-9.64-16.93-14.89-25.14-.66-1-2-2.08-1.25-3.39.8-1.47,2.5-.87,3.8-.78,4.75.35,9.49.87,14.25,1.28,2.88.25,4.27,1.41,4.13,4.63-.72,16.79-1.22,33.6-1.85,50.4C1024.32,306.59,1024.86,313.91,1023.9,321.18Zm116.46-20.65c1.61.67,2.89,1.14,4.12,1.72a3.92,3.92,0,0,1,2.31,4.38c-.46,5.14-.79,10.29-1.13,15.44-.1,1.57-.18,3-2.28,3.08-2.28.07-2.46-1.4-2.56-3.13A171.7,171.7,0,0,1,1140.36,300.53Zm-.41-40.82c6.3,2.45,12.64,4.76,19.15,6.58,1.87.52,2.07,1.72,1.09,3.12-1.33,1.89-2.83,3.67-4.23,5.52-.62.82-1.36,1.14-2.12.36-4.85-4.94-9.66-9.92-14.48-14.89Zm11.4,18.47c1.05,1,.84,2,.1,3.11q-3.87,5.81-7.64,11.67c-1.27,2-2.42,1.25-3.44-.13a6,6,0,0,1-.79-3.66c-.11-7.48.23-15-.3-22.13C1143.28,270.73,1147.32,274.45,1151.35,278.18Zm-129.63-63.57c5.55.46,5.48.78,5.38,6.28-.07,3.9,0,7.8,0,11.7l-.87.39-20.37-19C1011.72,213.17,1016.74,214.2,1021.72,214.61Zm-18,5.39c0-1.25.28-2.4,1.75-1q9.91,9.19,19.74,18.47c.38.35.79.8.47,1.37s-.87.51-1.4.42c-6.08-1-12.23-1.22-18.35-1.75a2.21,2.21,0,0,1-2.2-2.55c0-2.54,0-5.07,0-7.61h0C1003.75,224.87,1003.73,222.44,1003.76,220Zm-4.18-2.11c0,5.89.06,11.77,0,17.65,0,1.88-1.17,1.49-2,.53-2.09-2.34-4-2-5.83.24-1.47,1.79-3.44,1.74-5.48,1.89a56.48,56.48,0,0,1-9.9.4l22.4-21Zm-28.3,11.56c-.07-2.76,0-5.51,0-8.26,0-5.14,0-5.32,5-6,5.46-.7,11-1.08,16.46-1.51a5.14,5.14,0,0,1,3.87.68l-24.9,23.3C971,234.64,971.34,232,971.28,229.45Zm-21.18-8.53c4.58-1.29,9.25-2.3,13.85-3.51,2.2-.59,3.19,0,3.17,2.36-.07,5.6,0,11.21,0,16.81,0,1.46-.19,2.76-2.14,1.67-8-4.47-16.07-9-24.72-13.8A41.66,41.66,0,0,1,950.1,220.92Zm-8.55,8.56c6.9,3.92,13.84,7.77,21.65,12.14-4.11,1.1-7.36,1.94-10.6,2.84q-3.52,1-7,2.08c-6.8,2.19-6.8,2.2-6.8-4.78,0-3.49,0-7,0-10.47C938.77,229.19,939.27,228.19,941.55,229.48Zm1.56,23.57c6.88-2.17,13.78-4.24,20.82-5.87,2.31-.53,3.18.11,3.17,2.4,0,6.78,0,13.56-.06,20.33a8.92,8.92,0,0,1-.78,3c-.51,1.32-1,2.53.19,3.8.89.92.64,2.19.64,3.34q0,60,.06,120.08c0,2.92-1,4-3.9,3.85s-5.52,0-8.29,0c-1.74,0-3-.42-2.45-2.59.1-.39.18-1,0-1.23-2.26-2.35-5.16-.87-7.76-1.16-1.72-.19-2.54.8-2.4,2.53.1,1.2.27,2.47-1.56,2.41-1.55-.05-1.9-1.12-1.94-2.39,0-1.06,0-2.12,0-3.18V329.1c0-23.29.07-46.59-.07-69.89C938.69,255.75,939.83,254.08,943.11,253.05Zm-8.44-16.84c.06,3.81,0,7.62,0,11.43,0,1.3-.06,2.65-1.46,3.28-7.11,3.19-14.29,6.25-21.44,9.69L934,231.34C935.07,233.13,934.64,234.73,934.67,236.21ZM906.91,240a2.48,2.48,0,0,1,1.41-2.32,137.16,137.16,0,0,1,23.35-9.63q-12,15.81-23.9,31.61l-.87-.38C906.9,252.86,906.89,246.44,906.91,240Zm-.1,33.68a5.09,5.09,0,0,1,2.9-4.82,187.21,187.21,0,0,1,21.48-11.1c3.2-1.39,3.49-1.2,3.49,2.48q0,35.1,0,70.2v68.93c0,4.49-.12,4.6-4.67,4.63-6.48.05-13,0-19.44.1-2.7.06-3.78-.9-3.78-3.68Q906.89,337.06,906.81,273.69ZM886,249.09c4.71-2.44,9.41-4.89,14.09-7.39,1.95-1,2.65-.54,2.63,1.63-.06,6.24,0,12.48,0,18.73,0,1.62-.42,2.47-2.26,1.73-7.76-3.13-15.53-6.22-24.32-9.73C880,252.11,883,250.63,886,249.09Zm-9.47,9.21c7.76,3.08,15.52,6.18,24.06,9.59-8.6,5.26-16.45,10.05-24.31,14.84-1.48.91-1.91.13-1.91-1.22,0-7.19,0-14.38,0-21.58C874.37,258.39,875,257.7,876.54,258.3Zm-2.22,35a5,5,0,0,1,2.82-4.83c7.4-4.38,14.71-8.9,22.07-13.34,3.17-1.91,3.49-1.74,3.49,2q0,31,0,61.93v60.35c0,4.47-.26,4.71-4.58,4.79-6.69.14-13.37.23-20,.47-2.72.1-3.77-.85-3.76-3.65Q874.41,347.16,874.32,293.32Zm-32.4-24.43a2.28,2.28,0,0,1,1.78-2.35c7.14-2,14.09-4.55,21.21-7l-22.24,22.85-.76-.28C841.91,277.73,841.89,273.31,841.92,268.89Zm-.06,31.32c-.09-11.53-.11-11.56,8-19.84,5.92-6.07,11.9-12.06,17.88-18.07.56-.57,1-1.42,2.22-1.28.6,3.09.21,6.24.26,9.36.07,4.44,0,8.88,0,13.32a4.38,4.38,0,0,1-2.23,4.2q-11.75,7.28-23.4,14.73c-2,1.28-2.88,1-2.72-1.46C841.88,300.85,841.86,300.53,841.86,300.21Zm3.15,8.14c7.39-4.39,14.62-9,21.94-13.54,2.87-1.77,3.23-1.59,3.23,1.62q0,49.71.06,99.41c0,3.05-1.23,3.8-4,3.75-4.67-.1-4.22,0-4,4.52.37,6.78.24,13.59.21,20.4H841.85q0-14.62,0-29.26,0-13,0-26c0-18.32,0-36.63-.06-54.95C841.79,311.51,842.58,309.79,845,308.35ZM763.47,424.51a7.82,7.82,0,0,1,.95-4.75c.59-1,1.49-.25,2.13.32a16.16,16.16,0,0,1,3.54,4.43Zm-49.68,0a12.36,12.36,0,0,1-.1-1.55c0-5.2,0-5.25,3.9-5.3,4.13-.05,4.12-.05,3.8,4.25a9,9,0,0,0,.2,2.6Zm-64.64,0v-.23q0-43.35,0-86.7,0-43,0-86.07c0-4.72.07-4.74,4.6-3.66,6.83,1.62,13.47,3.83,20.09,6.1,2.37.82,3.25,2.16,3.25,4.69q-.09,82.94,0,165.87Zm-381.06,0c0-.1,0-.18,0-.28,0-5,0-9.92,0-14.88,0-1.86,1-2.66,2.77-2.63s2.6,1.07,2.59,2.83c0,2.43,0,4.86,0,7.28s0,4.86,0,7.28c0,.14,0,.27,0,.4Zm-13.37,0v-.2c0-2.54,0-5.08,0-7.62s0-4.87,0-7.31c0-1.42.44-2.55,2.15-2.5,1.48,0,2,1,2.05,2.33q.06,7.62,0,15.24s0,0,0,.06Zm-6.37,0q0-7.77,0-15.55c0-.73.08-1.62,1.08-1.63s1.1.89,1.11,1.62c0,2.63,0,5.26,0,7.89s0,5.11,0,7.67Zm-5.83,0q0-7.72,0-15.44a1.93,1.93,0,0,1,2.15-2.18c1.51,0,2,1.05,2,2.35,0,2.53,0,5.07,0,7.61s0,5.07,0,7.6v.06Zm-6.3,0c0-.13,0-.25,0-.38,0-2.53,0-5.06,0-7.58,0-2.32,0-4.64,0-6.95,0-1.54.42-2.72,2.26-2.76s2.45.94,2.45,2.56c0,5,0,9.9,0,14.85,0,.09,0,.17,0,.26Zm-5.77,0c0-5.17,0-10.34,0-15.5a1.89,1.89,0,0,1,2.2-2.11,1.85,1.85,0,0,1,1.87,2.1c0,2.54,0,5.07,0,7.61h0c0,2.63,0,5.26,0,7.9Zm-6.34,0c0-.12,0-.24,0-.37,0-4.84,0-9.68,0-14.53,0-1.54.41-2.71,2.26-2.76,2-.06,2.49,1.17,2.48,2.86,0,2.42,0,4.84,0,7.27s0,4.84,0,7.26a2.28,2.28,0,0,1,0,.27ZM215,135.21c0-7.09,0-14.18,0-21.27,0-2.25.83-3.44,3.22-3.13A116.79,116.79,0,0,1,233,113.26c2,.54,2.48,1.4,1.81,3.41-4.58,13.75-9.05,27.53-13.55,41.3-.49,1.48-1,2.76-3.07,2.35s-3.17-1.23-3.15-3.53C215.1,149.6,215,142.4,215,135.21ZM277.4,90.75c1.69,1.11,2.05,2,.75,3.75Q269,106.86,260,119.37c-1.18,1.65-2.24,1.9-3.93.76a71.93,71.93,0,0,0-15-7.6c-1.18-.45-2.17-1-1.75-2.54.16-.5.32-1,.49-1.51,3-9.24,6.11-18.46,9-27.75.83-2.64,2-3.31,4.61-2.29A127.64,127.64,0,0,1,277.4,90.75ZM256,75.67c4.43-.84,8.85-1.66,13.28-2.51a2.06,2.06,0,0,1,2.54,1.31c1.74,3.82,3.52,7.63,5.28,11.44l-.6.61C269.9,82.54,263.07,79.07,256,75.67Zm51.63,45.06a108.26,108.26,0,0,1,13.24,26c.07.2.11.4.17.61.11,1.2-.65,1.68-1.63,2l-30.25,9.87c-1.51.5-2.36,0-2.9-1.51a70.33,70.33,0,0,0-7.94-15.51c-1-1.4-.65-2.27.6-3.17q12.9-9.32,25.77-18.65C305.8,119.49,306.72,119.46,307.6,120.73Zm2.48-24.07,17.32,2c.51.06,1.16,0,1.36.57.27.79-.45,1.09-.93,1.44-5.82,4.24-11.66,8.44-17.46,12.69-1.62,1.2-2.31.46-2.51-1.12q-.83-6.58-1.52-13.18C306,95.85,308.15,96.44,310.08,96.66ZM325.71,391.4c-4-3.52-7-12.69-6-17.57.39-1.81,1.63-2,3.08-2,3.5,0,7-.1,10.5,0,2.4.06,3.64-.92,4.34-3.22,2-6.36,4.1-12.67,6.17-19,.19-.57.43-1.12.65-1.68-.38,11-.69,22-7.85,31.3a22.08,22.08,0,0,1-7.19,6.12C326.93,386.65,325.34,388.3,325.71,391.4ZM300,338.09c-1.74.77-2.69.37-3.54-1.3-2.71-5.39-5.61-10.68-8.31-16.07-1.91-3.81-1.26-5.67,2.29-7.86,2.71-1.67,5.41-3.36,8-5.15,1.61-1.11,2.81-1.12,4,.56,4,5.59,8.1,11.13,12.15,16.69a5.41,5.41,0,0,1,.94,3.72c.27,1.84-.53,3.08-2.38,3.83Q306.5,335.21,300,338.09ZM299.33,397A8.91,8.91,0,0,0,292,400c-.89,1-2.09.77-3.24.32a2.39,2.39,0,0,1-1.53-2.52,17.54,17.54,0,0,1,.05-3.48c1.26-6.08,3.67-11.79,5.38-17.73l.84,0c2.47,6.13,5,12.25,7.41,18.39C301.43,396.37,300.66,397,299.33,397ZM277.7,358.41c-4.09-2.14-7.7-5.24-9.29-9.88-2.2-6.41-4.18-12.89-6.39-19.29-.74-2.13-.42-3.2,1.87-4,7.54-2.74,7.5-2.82,10.52,4.56,2.36,5.78,4.67,11.58,7.1,17.34,1.09,2.58,1.84,5.18,1.52,7.53C283,360.79,282.86,361.12,277.7,358.41Zm-2.59,63.26c0-4.55,0-8.82,0-13.08a1.54,1.54,0,0,1,1.6-1.62,2.22,2.22,0,0,1,2.25,1.42C280.58,412,278.78,418.62,275.11,421.67Zm-16.48-19a1.41,1.41,0,0,1-1,1.77,2,2,0,0,1-2.11-.24c-1.47-1.5-.83-3.39-.71-5.12.11-1.48,1.37-1.7,2.62-1.7l7,0h2.88c-1.59,2.12-3.51,2.25-5.5,2.21S257.83,399.65,258.63,402.64Zm-32.12-33.47c-2.83-1.08-3.88-2.6-3.82-5.63.19-8.67.15-17.35,0-26-.05-3,1.07-4.25,4-4.36a118,118,0,0,0,19.78-2.9c3.9-.83,4.09-.74,4.1,3.06,0,8.77-.08,17.55,0,26.33.05,2.77-.94,4.29-3.55,5.17a38.93,38.93,0,0,0-7.15,3.44c5.24-.45,5.2,3.53,6.39,6.51a58.18,58.18,0,0,1,4.34,26c-.2,2.83-1,4-3.94,3.87-4.45-.17-8.91-.11-13.37,0-2.45,0-2.93-1-2.21-3.14,2.33-7,4.8-14,6.81-21.12.87-3.08,3.39-2.58,5.46-4.14C237.8,373.86,232.23,371.33,226.51,369.17ZM283,289.94c0,2.11,0,4.21,0,6.31.06,1.88-.55,2.61-2.62,2.34-5.1-.66-6-2.14-3.84-6.77,1.43-3.05,2.82-6.12,4.27-9.15.28-.61.45-1.6,1.44-1.3.69.21.7,1,.7,1.63,0,2.32,0,4.63,0,6.94Zm-18.19-13.86c-2.78-5.23-5.49-10.5-8.21-15.76-.37-.71-1.05-1.38-.33-2.82,5.71,3.17,12.57,4.24,16.58,10.27,1.7,2.55,3.57,5,5.41,7.44,1,1.3.84,2.32-.53,3.18-.18.11-.35.24-.52.36C269.36,284.5,269.34,284.52,264.83,276.08Zm4.87,42.08c.05,1.94-1.17,2.14-2.11,2.46-1.25.43-2.4,1.43-3.86.93-.17-.06-.34-.59-.27-.82a30.15,30.15,0,0,1,3.15-6.88.68.68,0,0,1,1.26.12C268.59,315.48,269.22,317,269.7,318.16Zm-6.91-84.11c-1.19-1.61-2.36-3.22-3.51-4.86a5.65,5.65,0,0,1-.35-1.33c3.74.92,6.71,2.54,9.81,3.82,1.13.47,1.16,1.22.43,2.25C266.56,237.59,265.44,237.65,262.79,234.05Zm16.13,28.41c-7.89-2.87-13.56-7.4-17.44-14.15-1-1.79-.42-2.67,1-3.61,1-.68,2-2,3.16-.37C270,250.21,274.28,256.13,278.92,262.46Zm-17.41-23.75c1.61,2.1-.38,2.69-1.42,3.72-1.24,1.21-2.09.76-3.16-.37-3.2-3.4-2.16-7.42-1.41-11.51C257.51,233.28,259.46,236,261.51,238.71Zm20.71,21.86-13.66-18.63a2.07,2.07,0,0,1,.17-2.83c4-5.18,8.53-5.6,13.31-1.13a2.62,2.62,0,0,1,.92,1.94q0,10.25,0,20.49Zm-10.18-35c-11.53-8.5-23.16-16.85-34.77-25.24-1.15-.83-2.4-1.58-1.37-3.29.73-1.21,1-2.92,2.92-2.9.85.23,1.68.42,2.48.68,13,4.22,26,8.5,39.08,12.63,2.75.88,3.56,2,2.31,4.81a109.46,109.46,0,0,1-6.45,12.39C275.07,226.55,274.12,227.1,272,225.57Zm9.45-20c-13.48-4.48-27-8.82-40.52-13.2-1.47-.48-3-.91-2.27-3.09-.35-2.74,1.06-3.58,3.74-3.56q21,.12,42,0c3.07,0,3.7,1,3.31,4-.57,4.51-1.13,9-2.12,13.44C285.1,205.66,284.11,206.42,281.49,205.54ZM285,183.47c-7.22,0-14.43,0-21.65,0-7,0-14,0-21,0-2.27,0-3.43-.59-3.87-3s1.11-2.89,2.73-3.42c13.5-4.39,27-8.72,40.51-13.18,2.25-.74,3.25-.26,3.85,2a98,98,0,0,1,2.37,15.32C288.15,183.48,286.51,183.47,285,183.47Zm-4-21.7q-20.58,6.61-41.12,13.33c-.5.16-1,.24-1.62.38-1.83-.17-2-1.92-2.71-3.11-.85-1.4.23-2.14,1.18-2.83l19.8-14.38c5.15-3.73,10.34-7.4,15.43-11.2,1.91-1.42,3.07-1.17,4.3.86a101,101,0,0,1,6.65,13C283.84,160,283.18,161.07,281,161.77ZM270.78,142q-17.67,12.71-35.26,25.53c-1.59,1.16-2.75,1-4.11-.41s-1.73-2.4-.48-4.09q13-17.64,25.83-35.37c.5-.68,1-1.44,2.24-1.31a15.65,15.65,0,0,1,1.65,1.08,74.32,74.32,0,0,1,10.59,10.47C272.67,139.64,272.62,140.72,270.78,142Zm-25.2,116.74c5.64,9.79,5.42,20.45,5,31.17a6.6,6.6,0,0,1-.32,1.23c-1.08-.66-1.12-1.67-1.4-2.52-3-9.25-6-18.54-9.12-27.76-.77-2.28-.43-3.36,1.94-4.27C244.21,255.67,244.6,257.08,245.58,258.78Zm-1.78-27.5c1.26-.77,2-.32,3,.64,4.36,4.29,4.22,9.58,3,15.32q-3.47-6.69-7-13.38C242.21,232.63,242.76,231.93,243.8,231.28Zm6.8,76.8c0,3.1,0,5.31,0,7.53,0,1.59-.47,2.55-2.27,1.55-3.41-1.91-6.81-3.84-10.24-5.72-1.46-.8-1.32-1.63-.32-2.72q5-5.34,9.84-10.75c1.33-1.49,1.65-.39,2.07.67C251,302,250.51,305.5,250.6,308.08Zm-27.17-5.19c-1.14-.95-.15-2,1.08-2.19,5.72-1,11.5-1.62,17.15-3,.85-.21,1.72.37,1,1.24-2.71,3.08-5.58,6-8.42,9-.25.27-.75.3-1.23.47C229.69,306.75,226.26,305.26,223.43,302.89Zm3.56,13c-1.1,1.2-2,2.64-4.17,3.52,0-3.89,0-7.5,0-11.11,0-1.18.78-1.36,1.76-.92l.57.27C231.59,310.47,231.68,310.82,227,315.9Zm5.91-76.12c-.4-1.8.51-2.53,1.81-3.14,1.62-.75,2,.53,2.43,1.59.91,2.21,1.78,4.43,2.83,7.05C234.67,244.53,233.78,243.67,232.9,239.78Zm.49,16.17c-2.67.63-5.33,1.29-8,1.77-1.68.3-2.57-.63-2.58-2.34,0-1,0-2.1,0-3.15,0-5.57,0-5.51,5.61-4.17,3.07.73,6,1.38,6.49,5.28C235.07,254.76,234.77,255.62,233.39,256Zm-.77-22.51c-1.94.78-2.05-.84-2.42-2-1.26-3.79-2.48-7.6-3.68-11.4-.31-1-.82-2.13.85-2.27a3.19,3.19,0,0,1,2.3,2.12c1.4,3.41,2.79,6.81,4.21,10.2C234.53,231.67,234.21,232.8,232.62,233.44Zm-4.32-.17c.63,2-2.23,5.16-4.35,4.95-1.24-.12-1.16-1.09-1.16-1.9,0-6,0-12,0-18.06l.64,0C225.05,223.23,226.73,228.23,228.3,233.27Zm-2.4,27.55c2.71-.47,5.42-1,8.08-1.65,1.82-.47,2.82,0,3.39,1.78q4.86,14.91,9.78,29.81c.48,1.49,0,2.35-1.62,2.79a107.06,107.06,0,0,1-20.25,3.84c-2.17.17-2.54-.82-2.52-2.57,0-5.07,0-10.14,0-15.22s.08-9.93,0-14.9C222.67,262.33,223.65,261.21,225.9,260.82Zm-2.2,63.1c3-3.42,6.13-6.74,9.22-10.08,1-1.11,2.11-.66,3.18-.06q6.24,3.51,12.5,7a3.52,3.52,0,0,1,2,3.65c-.12,1.85-1.55,2.16-2.86,2.47a165.69,165.69,0,0,1-20.58,3.41c-1.51-.21-3.38.54-4.06-1.24A5,5,0,0,1,223.7,323.92ZM238.76,215c-3.82-1.12-4.74-5.19-7.16-7.74-1.63-1.72-1.5-3.12.25-4.82,1.49-1.46,2.58-1.36,4.09-.26q15.39,11.22,30.83,22.36C257.46,221.15,248.22,217.78,238.76,215Zm15.91,84.34c.16-1.33.05-2.66,2-2.41a7.37,7.37,0,0,1,6.17,3.92c4,6.52,1.15,11.84-1.77,17.37-.36.68-.43,1.9-1.56,1.68-.74-.15-.83-1.12-1.06-1.82C256.44,312,253.87,306,254.67,299.36Zm0,31.58c0-1.84.61-3.06,2.51-3.45,2.25-.46,2.32,1.39,2.75,2.69q3.39,10.23,6.67,20.5a5.93,5.93,0,0,1-3.15,7.21c-8.77,4.2-8.77,4.2-8.77-5.38v-7.93h0C254.7,340,254.73,335.49,254.68,330.94Zm25.92-99.55c-3.62-1.88-3.62-1.94-1.45-5.35A70,70,0,0,0,286,212.45c.72-2,1.77-2.59,3.84-1.9,9.66,3.19,19.36,6.28,29,9.42,1.12.36,2.29.71,2.13,2.3-.19.59-.35,1.21-.58,1.8a127.94,127.94,0,0,1-9.51,19.69c-1.2,2-2.32,2.19-4.34,1.12C298,240.3,289.26,235.89,280.6,231.39Zm47-42.87c-.76,8.86-1.74,17.66-4.11,26.28-.79,2.88-1.76,3.79-4.81,2.74-9.13-3.16-18.33-6.11-27.56-8.94-2.69-.82-3.21-2-2.44-4.61A57.65,57.65,0,0,0,291,189c0-2.51,1.08-3.34,3.48-3.29,5,.09,10,0,15,0s10.19,0,15.29,0C326.67,185.71,327.75,186.37,327.56,188.52Zm2.72,3.31.85-.14c2.19,3.91,4.39,7.81,6.56,11.74a1.38,1.38,0,0,1-.24,1.75q-4.93,4.55-9.89,9.06C328.55,206.59,329.69,199.25,330.28,191.83Zm-5.72-8.35H309.28c-5.1,0-10.19,0-15.29,0-1.94,0-2.93-.71-3-2.77a66.18,66.18,0,0,0-2.53-15.93c-.57-2.06,0-3.1,2.06-3.75q14.55-4.62,29.05-9.41c1.92-.64,2.91-.26,3.51,1.75,2.7,9.08,3.77,18.4,4.44,27.79C327.69,183.33,326.16,183.48,324.56,183.48Zm-9,83.29c0,5.22-2.11,7-7.31,6.24-1.74-.25-2-1.4-1.87-2.75.18-2.31.4-4.62.73-6.91.35-2.45,3.51-5.11,5.89-4.75,2.94.45,2.49,2.93,2.56,5,0,.74,0,1.48,0,2.22Zm-7.66,30-2,1.59c-.64.51-1.22,1.51-2.09,1.18-1.16-.44-.42-1.68-.7-2.4.43-3.16.91-6.18,1.22-9.22.19-1.77.71-2.17,2.41-1.32C314.41,290.45,314.55,291.5,307.88,296.78Zm5.72-.9c.76-.63,1.87-1.3,1.88.51.06,8.21,0,16.41,0,24.61l-.78.24q-5.57-7.65-11.13-15.29c-.63-.87-.35-1.54.42-2.18C307.22,301.15,310.39,298.48,313.6,295.88ZM287.19,243c0-1.75.58-2.36,2.3-1.47,5.12,2.64,9.44,6.42,14.11,9.7,1.14.8.75,1.75.15,2.77-3.31,5.53-8.6,8.23-14.46,10.13-1.64.53-2.09-.38-2.09-1.79q0-5.08,0-10.15C287.2,249.16,287.21,246.09,287.19,243Zm6.07,27.08c2.62-2.42,4.6-5.59,8.15-6.92,2.33-.87,2.76-.55,2.54,2-.18,1.57-.39,3.14-.53,4.72A4.47,4.47,0,0,1,297.2,274a19.84,19.84,0,0,1-3.57-2C292.87,271.49,292.56,270.76,293.26,270.11ZM288,279a4.63,4.63,0,0,1,5.64-.46c2.11,1.21,4.15,2.54,6.2,3.85a2.76,2.76,0,0,1,1.56,2.26c0,5-1,9.94-1.56,14.9l-.91.11c-3.65-5-7.37-10-10.93-15.11C286.8,282.78,286.46,280.48,288,279Zm-.83,28.23c0-4,.25-4.13,4.72-3.27,1.31.25,3.34.08,3.63,1.29.33,1.4-1.75,1.77-2.78,2.58a12.54,12.54,0,0,1-2.15,1.35c-.9.47-1.76,1.67-2.79,1.13C286.59,309.63,287.42,308.16,287.19,307.2Zm1.35-7.13a1.91,1.91,0,0,1-1.28-2c0-3.14,0-6.27,0-9.41l.73-.15,9.37,12.9C293.89,301.72,291.23,300.71,288.54,300.07ZM315,284.71c-1.49.89-2.7-1.07-4-1.78-1.58-.84-3-1.9-4.53-2.87a2,2,0,0,1-.76-2.51,2,2,0,0,1,1.8-1.51c.84-.09,1.69-.09,2.52-.2,5.49-.71,5.49-.72,5.49,4.88C315.34,282,316.25,284,315,284.71Zm-1.81-37.06-.76-.67a123.84,123.84,0,0,0,10.32-20.85,123.22,123.22,0,0,1,3,14.52,1.78,1.78,0,0,1-1.3,1.94Zm5.21.95c.57-.27,1.16-.52,1.74-.78,6.89-3.06,8-2.31,8.21,5.5.35,1.47-.36,1.7-1.53,1.19q-4.23-1.86-8.41-3.81C317.07,250.05,316.9,249.31,318.44,248.6Zm1.24,28.69c0-1.85,1-2.63,2.64-2.92,1.32-.24,3-.94,3.84.27a3.91,3.91,0,0,1-.48,4.42c-1.61,2.05-3.45,3.92-5.18,5.86l-.81-.19C319.69,282.25,319.73,279.77,319.68,277.29Zm6.9-6.56a20.88,20.88,0,0,1-3.35.54c-1.48-.13-3.07.73-3.36-.94a10.87,10.87,0,0,1,.27-6.21c.05-.14.85-.18,1.12,0,2,1.37,4.05,2.73,5.94,4.26C328.43,269.38,327.81,270.36,326.58,270.73Zm-7,49.5c.5-3.19.08-6.53.08-9.81h0c0-4.22,0-8.45,0-12.67,0-2.08.69-2.36,2.48-1.35,5.72,3.22,10.46,7.1,13.16,13.51,3.58,8.48,7.4,16.81,8.49,26.07.09.81.73,1.72,0,2.38s-1.81,0-2.65-.36c-4.6-1.9-9.66-3.17-13.63-6S318.56,326.73,319.58,320.23Zm22.5-68.74a57.63,57.63,0,0,0-5.47,4.8c-2,1.81-4,1.32-4.7-1.31-.75-3-1.3-6-1.87-9-.25-1.32-.07-2.58,1.34-3.23q9.67-4.4,19.36-8.75c.15-.06.39.09,1.11.26C348.86,240.26,348.24,247.29,342.08,251.49Zm-10.7-12.09c-1.67.76-2.57.27-2.92-1.54q-1.31-6.69-2.74-13.34c-.37-1.7.26-2.25,1.81-1.75,7.54,2.42,15.07,4.88,23.53,7.63Zm19-11.65-22.6-7.34c-1.54-.51-1-1.3-.21-2.06l10.57-9.64c.91-.83,1.86-1.25,2.61.07,3.44,6,6.84,12.11,10.26,18.17Zm-11-27.56q-3.48-6.24-7-12.43c-.75-1.31-.49-2,1.08-2h23.75c.13.31.25.62.37.93l-15.42,14.08C341,201.84,340.14,201.48,339.41,200.19Zm17.69-16.72H334.23c-1.77,0-2.39-.74-1.47-2.37q3.39-6.1,6.83-12.18c.56-1,1.32-1.42,2.31-.51l15.6,14.3ZM337.19,167c-1.75,3.13-3.5,6.27-5.28,9.38-.24.42-.67,1-1.07,1-.61.09-.82-.58-.83-1.1-.15-7.06-1.76-13.91-3.27-21.38,4.24,2.84,7.19,6.13,10.34,9.18C338,165,337.75,166.05,337.19,167Zm-11.51-22c1-4.66,1.95-9.32,2.88-14,.28-1.38,1-1.83,2.27-1.26q9.51,4.35,19,8.74c0,.32,0,.64,0,1-7.45,2.38-14.9,4.78-22.36,7.14C326.06,147.08,325.37,146.54,325.68,145Zm0-15.18c-.78,4.12-1.63,8.24-2.45,12.35-3.54-6.77-6.94-13.39-10.54-20.15a56.27,56.27,0,0,1,12.45,5.45C325.91,128,325.82,129,325.66,129.86Zm-22.73-11.14c-8.4,6.1-16.82,12.17-25.21,18.29-1.58,1.16-2.62.74-3.73-.66a71,71,0,0,0-11.67-11.64c-1.56-1.22-1.77-2.29-.54-4,6.18-8.33,12.27-16.72,18.35-25.12.9-1.25,1.65-1.75,3.05-.65a118.51,118.51,0,0,1,20.44,20.34,9,9,0,0,1,.69,1.26A2.45,2.45,0,0,1,302.93,118.72Zm-62-2.83a81,81,0,0,1,13,6.7c.77.51,1.77.86,1.82,2.27-.33.54-.72,1.29-1.21,2-8.42,11.56-16.87,23.1-25.25,34.69-1.18,1.64-2.21,2.21-4.19,1.16s-2.36-2-1.69-4q6.77-20.32,13.33-40.72C237.48,115.55,238.58,114.89,240.92,115.89ZM215.09,252c0-1.47,0-3,0-4.42,0-.91.36-1.75,1.39-1.83a1.69,1.69,0,0,1,2,1.62c.11,3.16.1,6.32,0,9.48a1.49,1.49,0,0,1-1.7,1.5,1.58,1.58,0,0,1-1.63-1.61c-.09-1.57,0-3.16,0-4.74Zm0-18.79q-.08-7.46,0-14.92c0-1.19.14-2.5,1.78-2.44,1.33,0,1.73,1.09,1.74,2.24,0,6.33,0,12.66,0,19.46C216.21,236.48,215.11,235.17,215.09,233.17Zm0,71.31c0-.61-.05-1.36.7-1.62s1.43.28,2,.76a2.14,2.14,0,0,1,.76,1.33c.05,6.45.12,12.9,0,19.34,0,1.48-1.34,2.54-3.39,3.48C215.05,319.67,215,312.08,215.06,304.48Zm1.85-6.8c-1.8.05-1.85-1.45-1.85-2.73q0-15.06,0-30.11c0-1.29.1-2.78,1.9-2.69s1.65,1.65,1.66,2.89c0,5.07,0,10.14,0,15.21,0,4.86,0,9.72,0,14.58C218.61,296.09,218.73,297.63,216.91,297.68ZM450,282.24c-1.63.77-3.36-2.06-5.16-3.12-2.73-1.6-4.59-3.63-4-7.17a2.81,2.81,0,0,1,2.25-2.66,4.71,4.71,0,0,1,.62-.16c6.88-.72,7.36-2.78,7.18,7.31C450.43,278.2,452,281.27,450,282.24Zm-9.14,106.91c0-1.9,0-3.79,0-5.69s.78-2.16,2.26-1.12a8.8,8.8,0,0,0,2.14,1.34c5.81,1.88,6.16,6.36,5.63,11.36-.17,1.56-.69,2.28-2.39,2.08a11.23,11.23,0,0,0-4.09,0c-3.16.87-3.7-.7-3.56-3.28C440.9,392.31,440.84,390.73,440.84,389.15Zm0-67.78c.12-2.92,2.55-3.56,4.35-4.64s3.2.49,4.52,1.39c1.16.8.52,1.65-.53,2.1-2.22,1-4.44,1.93-6.71,2.78C440.64,323.68,441,322.18,440.83,321.37Zm23.69-55.58h7.22c-4.06,4.3-7.35,7.95-10.84,11.41-1.59,1.57-3,4.75-5,4.06-1.51-.52-.55-4-.57-6.22C455.24,265.79,455.28,265.79,464.52,265.79Zm4.58,87.37h0c-3.29,0-6.58,0-9.87,0-1.55,0-3.56.32-3.76-1.9s-1.25-5.22,1.6-6.57A112.23,112.23,0,0,1,481.22,337c1.36-.3,2,.35,2,1.71,0,4,0,8,0,12,0,2-1.25,2.47-2.95,2.46C476.52,353.15,472.81,353.16,469.1,353.16Zm2,42.2c-3.57,1.38-6.2,3.57-9.48,4.47-4.27,1.17-6.31-.3-6.31-4.58,0-5.94-.68-6.57,5.61-3.79C464.06,392.86,467.36,394,471.08,395.36Zm25.16-129.57a2.74,2.74,0,0,1,.64,0c2,.54,5-1.43,6,1.89,1.17,4,0,6.8-3.34,8.86-3.07,1.9-6.13,3.78-9.23,5.62-2.65,1.58-2.86,1.45-2.91-1.72,0-1.91,0-3.81,0-5.71C487.53,264.36,485.93,265.94,496.24,265.79Zm4.29,101.06c1.48,0,2.55.54,2.31,2.24-.2,1.42-.53,2.56-2.61,2.05-3.17-.78-6.45-1.09-9.65-1.78-1-.22-2.86,0-2.58-1.61.24-1.45,1.93-.82,3-.9,1.37-.1,2.75,0,4.12,0v0C496.93,366.85,498.73,366.84,500.53,366.85Zm2.24-15.94c.08,1.78-.82,2.23-2.28,2.24-3.49,0-7,0-10.47,0-1.88,0-2.65-.95-2.64-2.75,0-4.11,0-8.23,0-12.34a2.65,2.65,0,0,1,2.57-3q5.32-.75,10.63-1.64c1.48-.25,2.27.19,2.28,1.73,0,2.2,0,4.39,0,6.59h-.15C502.73,344.81,502.63,347.86,502.77,350.91ZM498,289.6h-8.17l-.24-.76c3.86-2.32,7.71-4.65,11.58-6.95.55-.33,1.17-.55,1.58.3C504.66,286.1,502.43,289.59,498,289.6Zm26.34-21.08c1.46,0,.84,1.67.88,2.6.09,2.52,0,5.05,0,7.58h0c0,2.74,0,5.48,0,8.22,0,.87.23,2.19-1.17,2.15-1.12,0-1-1.2-1-2,0-5.25,0-10.51,0-15.77C523.12,270.21,522.83,268.5,524.38,268.52Zm10.9-57.78c0-.18.18-.36.43-.81a9.71,9.71,0,0,1,2.35,5.65,28.77,28.77,0,0,0,.22,3.48c.11.75,0,2,1.2,1.86.94-.09.59-1.18.76-1.86.31-1.18-.79-3,1.29-3.41,1.78-.38,2.24,1.16,3,2.26a32.84,32.84,0,0,0,2.5,2.72c-5.71,2.42-11.14,4.74-16.59,7-1.42.6-1.67-.4-1.67-1.46q0-4.75,0-9.52c0-1.77,1-2.36,2.71-2.21C535.56,214.8,535.56,214.76,535.28,210.74ZM545,227.81q-7.66,10.13-15.34,20.23l-.81-.2c0-4,0-8,0-12a2.81,2.81,0,0,1,2-2.64A113.18,113.18,0,0,1,545,227.81Zm-16.08,28.26a3.52,3.52,0,0,1,.59-1.44q8.64-11.53,17.33-23l.91.33c0,5.57,0,11.14,0,16.72,0,1.47-1.06,2.2-2.28,2.76q-7.09,3.22-14.17,6.48c-.65.3-1.35.9-2,.29S528.77,256.78,528.89,256.07Zm2.89,7.72c4.34-2,8.61-4.1,12.89-6.21,2.42-1.19,3.19-.39,3.18,2.15-.06,11.74,0,23.48,0,35.22,0,11.43,0,22.85,0,34.27,0,3.91-.32,4.26-4.13,4.21a31.37,31.37,0,0,0-12.06,2.5c-.84.33-2,1.47-2.67-.12a2.17,2.17,0,0,1,1.58-3c.6-.2,1.23-.29,1.84-.46a16.26,16.26,0,0,0,8.23-5.15c5.1-6,4.3-13.19-2-18a15.7,15.7,0,0,0-4.77-2.47c-5.08-1.61-5.08-1.61-5.08-6.91,0-10.36.06-20.73,0-31.1A4.68,4.68,0,0,1,531.78,263.79Zm29.89,11.13q0,9.84,0,19.7,0,19.69,0,39.39c0,3.67,0,3.67-3.56,2.31-5.88-2.29-5.88-2.29-5.88-8.74q0-34.15,0-68.31a7.63,7.63,0,0,1,8.12-7.41c1.85.21,1.28,1.7,1.29,2.72C561.7,261.36,561.67,268.14,561.67,274.92Zm51-7.69V381c0,4.24-.58,4.69-4.84,4.13-1.69-.22-2.46-1-2.45-2.69,0-.63,0-1.27,0-1.9V247.71c0-4.24.5-4.72,4-4.82,2.49-.08,3.4.93,3.37,3.37C612.57,253.25,612.63,260.24,612.63,267.23Zm9.26,157.28c0-2.51-.06-5,0-7.52.08-2.31-.26-4.43-1.89-6.18-.15-.16-.4-.37-.37-.5,1-4.09-2.8-7-2.81-10.67q-.12-76.36-.09-152.72c0-2.69.54-4.34,3.68-4,7.16.77,14.37,1.06,21.46,2.45,1.94.37,2.79,1.29,2.8,3.16,0,1.16,0,2.33,0,3.49V424.51Zm20.94-205.25c1.56-.36,1.89.35,1.88,1.62v7h0c0,2.43,0,4.86,0,7.29,0,1.66-.84,2.21-2.16,1-4.27-3.94-8.5-7.94-12.72-11.94-1.15-1.09-1.26-1.91.62-2.29C634.57,221.06,638.71,220.2,642.83,219.26ZM638,202.55c1.75,1,2,3.21,2.09,5,.15,2.2-2.15,1.38-3.11,2.08-1.35-.44-3,.07-3.25-1.62S637,201.94,638,202.55Zm-4.58,30.14c2.14,2,4.25,4.05,6.38,6.08-7.22-.36-14.17-.8-21.11-1.36-1.67-.14-1.88-1.45-1.88-2.8,0-4.76,0-9.51,0-14.27,0-.69-.29-1.67.63-1.93s1.33.54,1.86,1Q626.37,226,633.41,232.69ZM677,246.63c0,1.37,0,2.71-2.09,2-6.85-2.51-13.87-4.49-20.92-6.37a9.39,9.39,0,0,1-1.3-.68c6.13-3.6,11.69-7,17.38-10.17,2-1.14,4.23-3.91,6.27-2.71,1.75,1,.56,4.31.63,6.58C677.13,239,677,242.83,677,246.63Zm-25.39-8.87c-1.58.92-2.45.41-2.46-1.37q0-8.55,0-17.09c0-1.28.43-2.39,2.06-2.07a152.89,152.89,0,0,1,24,6.74C666.76,228.92,659.21,233.35,651.65,237.76Zm87.1,186.75c1.14-5.33,0-6.88-5.71-10.52-1.56-1-1.61-1.93,0-2.76,2-1,4-1.89,6-2.83,1.64-.76,2.41-.16,2.48,1.56,0,.21,0,.42,0,.63v7.62h0c0,2.1,0,4.2,0,6.3Zm7.33,0c0-5,0-10.06,0-15.09,0-2.61,1.88-3.67,3.82-3.91,1.61-.21,3.32-.31,5.36-.67-1.33,2.35-.14,4.27-.17,6.12-.08,4.79,1.22,9.18,2.69,13.55Zm34.85,0c.23-.66.17-1.25-.77-1.48-2.45-.6-2.06-2.29-2.07-3.93,0-2.75,0-5.51,0-8.26,0-4.26.83-4.77,4.61-2.92a5.94,5.94,0,0,0,1.75.7A2.46,2.46,0,0,0,787,407c.58-1.09.14-1.79-.57-2.78-1.59-2.2-3.18-3.92-6.21-3.95-1.64,0-2-1.52-2.1-3.05a20,20,0,0,1,1-7.43c1.2-3.41-1-6.53-1-9.85q0-30.18,0-60.36c0-1-.5-2.35.67-2.89s2,.61,2.79,1.18c6.65,4.56,13.3,9.12,19.9,13.75,3.26,2.28,6.37,1.79,9.51-.63,4.95-3.81,10.25-7.18,15.43-10.69q4.08-2.76,8.29-5.35c2.56-1.58,3-1.32,3.06,1.69,0,9,0,18,0,27V371q0,26.52,0,53.05v.45Zm54.82-156.15c1.33-.19,2,.45,2,1.79,0,3.6,0,7.2,0,10.79,0,1.25-.42,2.3-1.9,1.21-5-3.67-10-7.39-15.6-11.58C826,269.74,830.87,269,835.75,268.36Zm-57.59,1.25c0-1.17.72-1.66,1.92-1.48,4.47.64,8.94,1.24,14.25,2l-16.19,13.11C778.14,278,778.12,273.81,778.16,269.61Zm8.15,11.72A136.61,136.61,0,0,0,798,272.06a9,9,0,0,1,5.23-1.88c6.9-.73,12.78.89,18.07,5.69,4.37,4,9.39,7.26,14.2,10.75a5,5,0,0,1,2.27,4.56c-.08,4.23-.11,8.47,0,12.7.07,2.31-.92,3.65-2.8,4.89-8.16,5.35-16.22,10.85-24.33,16.29-.44.3-1,.51-1.28.93-2.36,3.82-4.55,2.06-7.19.14q-10.17-7.39-20.68-14.31c-2.47-1.63-3.79-3.43-3.49-6.47.22-2.2,0-4.44,0-6.66C775.84,290.55,780,285.56,786.31,281.33Zm-33.42-21.64c2.93,1.09,5.83,2.25,8.79,3.26,3.21,1.09,6.47,2,9.7,3.06,1.1.36,2.43.66,2.45,2.12.06,4.5,0,9,0,14.49l-21.41-22.27Zm-6.75.42c2.13.82,3,2.19,4.1,3.3C757.5,271,764.7,278.58,772,286.15a6,6,0,0,1,2,4.45c-.07,4.34-.05,8.67,0,13,0,1.93-.24,2.94-2.42,1.5-7.78-5.14-15.61-10.2-23.42-15.3-1-.65-2-1.38-2-2.7C746.13,278.26,746.14,269.4,746.14,260.11Zm-.09,43.41c0-1.9,0-3.81,0-5.71s.6-2.62,2.46-1.4q11.75,7.63,23.53,15.19a4,4,0,0,1,1.9,3.74q0,30.81,0,61.61c0,1.5.14,2.72-2.27,1.77s-4.7.81-7.15.64c-.72-.05-1.5.38-2.18.24-1.69-.35-3.07,0-3.57,1.71s-1.69,3.64.36,5.21a1.94,1.94,0,0,1,.73,2.74,2.43,2.43,0,0,0,.35,2.69c2,2.71.62,3.91-1.84,5.2-3.23,1.7-6.67,2-10.15,2.13a3.25,3.25,0,0,0-2.17,1Zm-4.43-43.12c0,3.69,0,7.39,0,11.08s0,7.39,0,11.09c0,1.95-.83,2.51-2.57,1.41q-11-6.93-22-13.85c-1.71-1.07-1.45-1.78.25-2.49,7.23-3,14.45-6,21.65-9.12C741,257.64,741.62,258.44,741.62,260.4ZM713.7,242.91c0-1.57.52-2.22,2.12-1.39,7.79,4,15.59,8.06,24.17,12.5-8.53,3.56-16.24,6.79-24,10-1.69.7-2.34-.06-2.33-1.74Q713.72,252.59,713.7,242.91Zm.49,32.81c1.28-.85,2.34.54,3.36,1.17,7.12,4.42,14.18,8.94,21.32,13.33a5.19,5.19,0,0,1,2.78,4.9q-.06,48,0,95.92c0,1.6,0,3.06-2.38,2.45a7.51,7.51,0,0,0-2.5.35c-3.21.43-4,1.43-3.49,4.66.14.94.44,1.86.57,2.8s1,2.17-.57,2.27c-1.25.07-1.08-1.36-1.08-2.27,0-6.45-.2-12.91.63-19.33a4.06,4.06,0,0,1,.51-1.79c2.51-3.4,1.19-7-3-8-.21-.05-.55,0-.61-.11-1.84-3.43-6.2-2.61-8.64-5.17-2.25-2.35-4.76-1.58-7,.48-.72-1.16-.44-2.24-.44-3.26q0-42.56,0-85.11C713.71,277.89,713.17,276.39,714.19,275.72Zm-4.64,88.77c0,3.59-.81,6.48-4.52,8.11-2.21,1-2.79,5.47-1.4,7.5a4.06,4.06,0,0,1,.73,2c.31,6.54.5,13.1.85,19.65.14,2.62-1.49,2.3-3.12,2.18-1.42-.11-3-.29-3.17,1.65s1.32,2.38,3.24,2c-.41,1.24-.64,1.95-.88,2.65-.76,2.17-.3,3.64,2.31,3.47,2.15-.13,2.81.85,2.77,2.82-.07,2.63-.05,5.27,0,7.91H681.2c0-.48,0-.95,0-1.43V262c0-.63.05-1.27,0-1.9-.19-2.48.76-3,3-2,6.23,3,12.27,6.33,18.44,9.39,5.5,2.73,7.16,6.37,7.09,12.45C709.34,308.15,709.53,336.32,709.55,364.49Zm-27.66-134L705,262c-7.35-3.44-14.38-7.1-21.73-10.13a2.74,2.74,0,0,1-2-2.54A184.75,184.75,0,0,1,681.89,230.53Zm3.26-2.95c2.09.83,4.22,1.57,6.27,2.49,5.23,2.32,10.43,4.72,15.64,7.08,1.45.66,2.47,1.53,2.47,3.32,0,6.65,0,13.3,0,20l-.73.35-24-32.64Zm-21-59.4c6.6,8.42,13.14,16.88,19.8,25.24,1.51,1.9,1.56,3-.8,4-1.75.75-3.38,1.77-5.07,2.66a6.83,6.83,0,0,1-9.66-3q-14.07-29-28-58a11.6,11.6,0,0,1-.25-1.52C648.49,148.21,656.33,158.19,664.15,168.18Zm-44.69-40.59c2.08-1.28,8.09-.15,9.33,1.55.57.79,1.18,1.75,2.13,1.77,3.23.07,4.08,2.5,5.19,4.79q12.71,26.33,25.43,52.65c.32.65.54,1.34,1.13,2.82-4.35-1.24-8-2.23-11.62-3.32-2.33-.7-3.43-.4-2.94,2.45.7,4.06,1,8.18,1.61,12.25.38,2.51,2.82,4.32,2.38,7.26-.18,1.25.07,2-1.58,1.71-6.61-1.12-6.38-1.16-8.59-6.28-2.38-5.48-1.6-10.05,1.33-14.89,1.83-3,1.31-3.58-2.21-3.68-5.23-.15-5.23-.15-6.84-5q-7.94-23.81-15.87-47.61C617.53,131.66,616.79,129.23,619.46,127.59Zm-2.87,8.66c2.09,6.29,4.16,12.59,6.26,18.87,3.1,9.33,6.18,18.67,9.36,28,.77,2.27.75,3.73-2.22,3.65a3.53,3.53,0,0,0-2.68,1.5c-.61.68-1.15,1.86-2.2,1.5S624.06,188,623.9,187c-.89-5.63-1.71-11.27-2.55-16.91q-2.52-16.87-5-33.76Zm-11.27,22.68c0-9.09,0-18.18,0-27.27,0-1.63-.3-3.56,1.87-4.24,2-.64,2.56,1.18,3.76,2.12,3.34,2.62,2.89,6.44,3.42,9.84,2.57,16.36,4.86,32.76,7.44,49.12.43,2.71-.69,3.53-2.85,3.75a29.52,29.52,0,0,1-5.4.05c-7-.59-8.26-2-8.26-9Zm.14,66.1c.51-3.67,4.32-4.86,6.37-7.43l.77.38c0,5.69,0,11.39,0,17.08,0,2.5-1.84,2.44-3.59,2.45s-3.61.18-3.65-2.35C605.32,231.78,605,228.35,605.46,225Zm-43.78,14.26c0,6.71-.28,7-6.69,8.49-1.83.43-2.7-.08-2.71-1.89q0-7.62,0-15.24c0-1.73.92-2,2.29-1.18,1.85,1,3.75,2,5.53,3.15C562.86,234.41,561.15,237.3,561.68,239.29Zm-8-15c1.92-1.4,4-1.71,6-2.3,1.34-.39,2,.31,2,1.65,0,1.05,0,2.1,0,3.15,0,1.41-.52,2-1.92,1.2C557.78,226.85,555.6,226,553.7,224.31ZM558,127.23c2.75-.14,3.78.92,3.76,3.67-.1,10.79,0,21.59,0,32.38s-.07,21.37.05,32.05c0,2.85-1,4.25-3.8,4.78-4.09.76-8,1.09-11.48-1.78-1.11-.92-2.34-.74-3.62-.36-3,.87-5.92,1.66-8.87,2.5-1.65.47-2.56.11-1.92-1.78,1-3,.85-6.44,4.64-8.11,2.11-.92,2.31-5,.71-6.85a3.09,3.09,0,0,1-.45-3.23q6.24-23.28,12.48-46.56C550.26,130.79,555,127.37,558,127.23Zm-22.11,6.07c1.28-2.56,4.12-3.76,6.15-5.69,1.65-1.57,4.8.93,4.8,3.78-.18.65-.37,1.47-.63,2.27-4.83,14.65-9.72,29.28-14.45,44-.9,2.79-2.05,3.7-4.73,2.12-2.83-1.67-5.71-3.24-8.6-4.79-1.69-.92-2.2-2-1.27-3.86C523.38,158.51,529.53,145.86,535.84,133.3Zm-25.2,33.75q9.11-13.52,18.28-27l.57.32c-1.81,3.77-3.6,7.55-5.45,11.3q-4.41,9-8.9,17.9c-.56,1.11-1.3,2.19-2.66,1.08C511.38,169.78,509.2,169.18,510.64,167.05Zm-15.37,48.33c1.28-3.94,2.45-4.86,6.58-4.87h7.62v0H519c1,0,2,.12,2.27,1.29s-.54,1.93-1.56,2.41c-7.3,3.45-15,4-22.94,3.5C495.24,217.64,494.78,216.9,495.27,215.38Zm-.19,5.91c.86,1.37,1.65,1.32,2.12-.17.94-3,2-2,3.17-.19,1,1.52,1.65,2.23,2.53-.19.7-1.92,2.08-1.44,3.14-.11,1.2,1.51,2.14,2.51,3.09-.26.81-2.36,2.34-2.5,4.06-.71,1.32,1.37,2.22,1.59,2.54-.76.25-1.92,1.28-2.32,2.8-1,1,.85,1.9,1.66,2.55-.29.27-.8.07-2.43,1.45-1.81,1,.44,2.68.7,2.71,2.28,0,3.59,0,7.18-.11,10.77,0,1.35-1.31,1.82-2.35,2.35-4.73,2.38-9.4,4.91-14.21,7.11-4.63,2.12-9.6.8-14.43.9a1.57,1.57,0,0,1-1.56-1.71c.13-2.64-.7-5.26,1.16-7.89,1.66-2.35.46-5.32-.15-8-.13-.59-.56-1.17,0-2C494.6,219.85,494.71,220.7,495.08,221.29Zm-2.46-10.74c1.48,0,1.71.8,1.29,2.12-1.22,3.87-2.48,4.36-5.84,2.12-1.67-1.11-3.32-2.25-5-3.4-.13-.09-.14-.35-.32-.85C486.14,210.54,489.38,210.51,492.62,210.55ZM481.83,266c1.9.52,1.35,2.41,1.37,3.81.06,4.34,0,8.67,0,13,0,4.12-2.38,6.55-6.65,6.71-3.07.11-6.15,0-9.23,0s-6.36,0-9.55,0c-2,0-2.65-1-1.15-2.52q9.83-10.17,19.77-20.22C477.93,265.28,480,265.54,481.83,266ZM441,212.24c.14-1.29,1.14-1.7,2.3-1.7h14v0c4.24,0,8.48-.07,12.71,0,1.06,0,3-.83,3,1.18a2.94,2.94,0,0,1-2.95,2.81,50.76,50.76,0,0,1-7.29-.18c-5.17-.49-10.36-.85-15.51.2-1.13.23-2.19.74-3.31,1.08-.94.28-1.92,1.84-2.69.9C440.28,215.43,440.8,213.69,441,212.24Zm-3,101.15c-.17,1.09-.29,2.09-1.27,2.76l-17.78,12.23V276.23c1.13.11,1.14.68,1.15,1.19.17,11.86,5.72,21.15,13.95,29.2C435.93,308.49,438.45,310,438,313.39Zm-18.27-61.71a63.33,63.33,0,0,1,17.55-6c-6.92,4.58-12.44,10.1-15.31,17.92-.33.92-.87,1.83-2,1.66s-1.35-1.21-1.35-2.2c0-3,0-5.93,0-8.9A2.44,2.44,0,0,1,419.69,251.68Zm2.07,80.65c4.57-2.37,8.57-5.82,12.86-8.74.86-.58,2-2.1,2.94-.88s.24,2.8-1.21,3.72a29.32,29.32,0,0,0-9.09,8.29c-6.83,10.18-6.7,20.58-.78,31.09a43.24,43.24,0,0,0,9.37,11.11,5.58,5.58,0,0,1,2.13,4.66q-.17,6.66,0,13.33c.07,2.68-1.05,3.83-3.64,3.18-4.64-1.18-9.26-2.24-14.11-1.74-2.08.21-1.66-1.48-1.67-2.66q0-14.43,0-28.86h0c0-9,.07-18,0-27C418.45,335.21,419,333.74,421.76,332.33Zm-9.88-76.64c2.54-1.39,3.1-1.09,3.22,1.75,0,.84,0,1.69,0,2.53,0,5.32-1.18,6.4-6,5.46-.64-.12-1.22-.18-1.41-1C407.35,262.89,410.33,256.53,411.88,255.69Zm-6.51,15.78c.65-1.59,8.14-1.92,9.15-.48a3,3,0,0,1-.72,4.25c-3.24,2.72-6.57,5.34-9.86,8-.41.33-.85.75-1.41.46s-.49-1.08-.6-2.37C402.92,278.42,404,274.88,405.37,271.47Zm-3.47,43.19c.27-7.29.11-14.6,0-21.9a5.47,5.47,0,0,1,2.26-4.91c2.78-2.11,5.44-4.39,8.19-6.54.64-.5,1.3-1.5,2.12-1.14,1.05.46.59,1.69.6,2.58q0,17,0,34c0,5.6.26,11.2,0,16.79q0,25.54,0,51.09c0,1.07,0,2.26-1.2,2.72-4.19,1.65-6.15,5.32-8.32,8.84-.53.86-.87,2.13-2.29,1.7-1.26-.38-1.26-1.55-1.31-2.62a9.83,9.83,0,0,1,.87-4.94,70,70,0,0,0,7.83-28.85A50.72,50.72,0,0,0,406,337.37C402.48,330,401.61,322.58,401.9,314.66Zm-14-30.1c.58-2.42,1.06-2.7,3.26-1.32,5,3.14,7.42,7,6.88,13.29-.63,7.35-.15,14.79-.15,22.19a43.19,43.19,0,0,1-7.61-13.29C387.81,298.76,386.13,291.84,387.86,284.56Zm-30.74-52.1c4.4,1.34,8.78,2.75,13.14,4.49-6.47,2.7-12.92,5-19.68,8.75,1.7-4.46,3.08-8.1,4.49-11.73C355.42,233.06,355.89,232.09,357.12,232.46Zm-2.82-5.89c-4.14-7.34-7.82-13.84-11.47-20.35a1.72,1.72,0,0,1,.39-2.29c5.43-5,10.85-9.92,16.95-15.49C360.2,201.74,358,213.77,354.3,226.57Zm5.92-45.73c-2.05-1.73-3.43-2.81-4.71-4-3.83-3.51-7.59-7.09-11.45-10.56-1.39-1.26-1.74-2.36-.72-4.1,3.58-6.12,7-12.32,11-19.32A137.14,137.14,0,0,1,360.22,180.84ZM341.11,160.1c-.91,1.64-1.94,1.74-3.27.51q-5-4.65-10-9.29c-1.08-1-1.5-1.87.35-2.46,7.56-2.42,15.11-4.86,23.58-7.58C347.87,148.14,344.47,154.11,341.11,160.1ZM334,103.69c.07-.36.43-.66.78-1.18a58.66,58.66,0,0,1,6.28,9.7,150.45,150.45,0,0,1,9.82,20.63c.28.76,1,1.69.25,2.34s-1.6-.09-2.34-.43c-5.6-2.55-11.18-5.15-16.79-7.68-1.59-.71-2.37-1.78-2-3.49Q332,113.64,334,103.69Zm-3.55-2,.8.37c-1.38,6.78-2.78,13.56-4.13,20.35-.37,1.85-1.42,1.84-2.79,1.2-4.23-1.94-8.44-3.93-12.69-5.83-1.72-.76-1.44-1.47-.18-2.38ZM305.32,80c.82-1.2,9.75-.73,11.05.48A106.68,106.68,0,0,1,329.48,95l-.39.81L315,94.3c-1.68-.19-3.37-.34-5.05-.55-.73-.1-1.44-.38-2.17-.45-2-.19-2.52-1.75-2.47-3.16C305.41,86.75,303.07,83.28,305.32,80ZM303,97.36c.59,4.42,1.11,8.85,1.66,13.28-5.62-5.5-11-10.76-16.42-16.51,4.45.54,8.91,1.05,13.35,1.64A1.81,1.81,0,0,1,303,97.36Zm-5.13-26.1c.37-.5.73-1.18,1.48-1s.74.93.81,1.56c.66,5.87,1.33,11.73,1.89,16.72.16,2.47.52,4.3-2.09,4-4.51-.55-9-1.18-13.52-1.72-1.82-.22-2.22-.86-1.08-2.41C289.59,82.72,293.74,77,297.91,71.26Zm-.77-2.88q-7,9.56-13.94,19.1c-.82,1.12-1.63.93-2.16-.2-2.1-4.48-4.14-9-6.23-13.49-.74-1.58.37-1.84,1.44-2.06,6.79-1.38,13.6-2.73,20.4-4.1ZM268.68,53.45a27,27,0,0,1,18.63,4.75c2.86,2,5.9,3.71,8.86,5.55l0,.89c-5,1-10.08,2.12-15.14,3.1-8.27,1.62-8.27,1.59-11.75-6-.79-1.73-1.57-3.47-2.45-5.16C265.68,54.39,266.16,53.69,268.68,53.45Zm-5.91,1.69c2.18,4.22,4.07,8.59,6,12.92.44,1,.48,1.94-.86,2.22-4.87,1-9.75,2-14.26,2.88-1.71.18-2.15-.43-1.76-1.65,1.75-5.43,3.41-10.89,5.34-16.26A3,3,0,0,1,262.77,55.14Zm-8,0c-1.14,3.55-2.27,7.3-3.54,11-.68,2-.69,5.23-2.33,5.58-2,.42-3.25-2.52-4.76-4.07-2-2.06-3.84-4.26-5.9-6.24-1.63-1.57-1.81-2.61.41-3.77,3.67-1.91,7.23-4,10.86-6C251.89,50.31,254.74,52.13,254.74,55.14ZM244,72.36c-8.16-2.17-15.66-3-23.36-4.55l11.49-6.39a1.91,1.91,0,0,1,2.54.52A113.48,113.48,0,0,1,244,72.36ZM226.89,44.67c1.94,0,3.29-.56,3.77-2.59s1.58-2.31,3.55-2c4.73.64,9.4,1.59,14,2.63a3.28,3.28,0,0,1,2.74,2.7c.36,1.57-.68,2.31-1.83,3-4.25,2.39-8.52,4.76-12.75,7.19-1.5.86-2.75.83-4-.51-2.92-3.2-5.9-6.35-9-9.72A4.68,4.68,0,0,1,226.89,44.67Zm-11.81,2.67c.13-2.68,2.15-3.7,4.06-1.86,3.89,3.75,7.48,7.79,11.17,11.74.85.9.27,1.53-.57,2q-6.26,3.49-12.5,7c-1.56.86-2.17.12-2.18-1.4,0-3,0-5.93,0-8.9S215,50.2,215.08,47.34Zm3.69,24c8.88.81,17.7,1.91,26.31,4.4,1.94.56,2.58,1.34,1.9,3.39q-4.84,14.44-9.44,29c-.65,2.06-1.67,2.71-3.73,2.15a61.08,61.08,0,0,0-16-2.42c-2.35,0-2.79-1.39-2.78-3.32,0-5,0-10,0-14.93s.08-9.74,0-14.61C214.93,72.25,216,71.1,218.77,71.35ZM215,352.88q0-8.08,0-16.17c0-1.28.05-2.75,1.85-2.74,1.61,0,1.7,1.34,1.7,2.53q0,14.1,0,28.23C214,361.65,215.05,357.12,215,352.88Zm-.51,54c1.66.07,2.18,1.08,2.18,2.53V424.3c0,.07,0,.14,0,.21h-4.63c0-.06,0-.12,0-.19,0-2.43,0-4.86,0-7.29s0-5.08,0-7.62C212.06,407.8,212.72,406.78,214.52,406.85Zm-8.27,17.66c0-.1,0-.19,0-.29,0-5,0-10,0-14.92,0-1.29.41-2.33,1.94-2.39s2.25,1,2.28,2.42c0,2.54,0,5.08,0,7.62s0,4.86,0,7.3a2.28,2.28,0,0,1,0,.26Zm-5.86,0v0q0-7.62,0-15.23c0-1.29.52-2.3,2-2.34,1.71-.06,2.17,1,2.18,2.47,0,2.54,0,5.08,0,7.62s0,4.86,0,7.29c0,.07,0,.14,0,.21Zm-6.25,0c0-.08,0-.15,0-.23v-7.62c0-2.43,0-4.87,0-7.3,0-1.47.56-2.45,2.2-2.5,1.81-.05,2.46,1,2.46,2.58q0,7.46,0,14.92v.15Zm-20.35,0v-.07c0-2.53,0-5.05,0-7.58h0c0-2.52,0-5.05,0-7.57,0-1.48.66-2.39,2.28-2.41s2.4.73,2.4,2.27c0,5.12,0,10.24,0,15.36Zm-5.79,0c0-.13,0-.25,0-.38q0-3.64,0-7.29h0c0-2.54,0-5.08,0-7.61,0-1.33.54-2.28,2-2.29s2.11.88,2.12,2.21q.06,7.62,0,15.23s0,.08,0,.13Zm-5.89,0v0q-.06-7.62,0-15.25c0-1.3.59-2.27,2.07-2.3,1.71,0,2.16,1.05,2.17,2.49v7.62c0,2.44,0,4.88,0,7.31a.76.76,0,0,1,0,.15Zm-4.29,0c0-5.13,0-10.26,0-15.39,0-1,.18-2.13,1.47-2s1,1.37,1,2.29v7h-.18c0,2.71,0,5.41,0,8.11Zm-7.75,0a1.48,1.48,0,0,1,0-.21c0-2.54,0-5.08,0-7.62s0-4.86,0-7.3c0-1.24.32-2.43,1.91-2.35,1.38.06,1.68,1.16,1.68,2.28q0,7.59,0,15.2ZM39.27,408.7A1.75,1.75,0,0,1,41.13,407c1.25-.05,2.11.53,2.16,1.78.09,2.41.07,4.82,0,7.23a2,2,0,0,1-4,0c-.06-1.26,0-2.52,0-3.78h0C39.25,411,39.19,409.85,39.27,408.7Zm10.37,7.09a2,2,0,0,1-2.22,2.13c-1.56,0-2.41-.67-2.44-2.24,0-2.11,0-4.22,0-6.33,0-1.49.62-2.4,2.25-2.44s2.47.89,2.46,2.55c0,1.05,0,2.11,0,3.16h0C49.64,413.68,49.67,414.73,49.64,415.79Zm69.88-294.6c1.2-1.78,2.2-1.71,3.83-.5,8.18,6,16.45,11.94,24.67,17.91.74.54,1.67,1,1.8,2.25-.24.44-.52,1-.85,1.53A79.35,79.35,0,0,0,141.46,157c-.75,1.95-1.82,2.57-3.9,1.88q-14.48-4.78-29-9.39c-2-.63-2.4-1.68-1.72-3.55A114.74,114.74,0,0,1,119.52,121.19Zm-1.76-7.45c-6.53-4.62-13-9.33-19.47-14l.24-.75c3.82-.51,7.64-1,11.47-1.52,2.94-.35,5.91-.49,8.83-1,1.67-.28,2.49,0,2.29,1.79-.51,4.72-1,9.45-1.56,14.16C119.45,113.29,119.09,114.68,117.76,113.74ZM175,78.16c1.9-.68,2.79,0,3.34,1.72q4.83,14.78,9.65,29.55c.09.3.13.62.19.93.22,1.23-.59,1.7-1.53,2a82.39,82.39,0,0,0-15.85,8.07c-1.24.8-2.13.49-3-.65q-9.24-12.72-18.54-25.4c-1.18-1.61-.68-2.67.8-3.65A115.21,115.21,0,0,1,175,78.16Zm-24.6,7.76c1.76-3.82,3.53-7.63,5.27-11.46a2,2,0,0,1,2.51-1.34c4.42.87,8.85,1.71,14.17,2.74A145.89,145.89,0,0,0,151,86.58Zm62.06,49.36c0,7,0,14,0,21,0,2.41-.75,3.68-3.31,4s-2.68-1.54-3.18-3c-4.33-13.16-8.55-26.37-13-39.5-1-3-.24-4.17,2.75-4.83,4.36-1,8.78-1.44,13.18-2.09,2.45-.36,3.53.72,3.51,3.19C212.42,121.1,212.45,128.19,212.45,135.28ZM204.13,159c.69,2.12-.43,2.83-1.95,3.65s-2.63.81-3.77-.77q-12.75-17.65-25.66-35.2c-1.3-1.77-1.28-2.83.68-4a82.09,82.09,0,0,1,13.63-6.87l1.17-.44c1.69-.23,1.9.85,2.18,1.72C195,131,199.51,145,204.13,159ZM193,372.41c-2.37,1-2.76,0-2.75-2,0-5.93,0-11.86,0-17.79,0-5.62.1-11.23,0-16.84-.07-2.57.56-3.67,3.38-3.29a123.15,123.15,0,0,0,16.16,1.35c1.91,0,2.65,1.06,2.65,2.81,0,7.52.17,15.05-.08,22.56-.1,3.17-2.4,5.71-5,7.07C202.75,368.65,197.78,370.31,193,372.41Zm3,31.79c-1.3.82-2.89.53-4.32.22-1.28-.27-1.42-1.41-1.43-2.51V385.49l.56-.05c1.76,5.28,3.54,10.57,5.24,15.87C196.4,402.24,197.2,403.46,196.05,404.2Zm-9.89-8.87c.23,3.13-.85,4.54-4.13,4.25-2.3-.21-4.7-.3-3.85,3.41.31,1.35-1.1,1.59-2.21,1.6-2.66,0-5.31,0-8,0s-5.1,0-7.65,0c-2.74,0-2.54-2-2.57-3.8s.13-3.47,2.59-3.45c2.66,0,5.32,0,8,0,5.6,0,5.61,0,7.3-5.17q3.2-9.81,6.38-19.62a21.9,21.9,0,0,1,1-2.66,1.53,1.53,0,0,1,1.84-.91,1.5,1.5,0,0,1,1.12,1.38c.07.53-.13,1.2.13,1.56,1.68,2.32-3.71,3.74-.5,6.83,1.71,1.64.39,5.49.46,8.34S186,392.59,186.16,395.33Zm-55.85,9.26c-1.14,0-2.35-.34-2.35-1.61,0-4.61-1.08-9.32.92-13.77.8-1.76,1.56-3.74,4.07-1.41,1.34,1.25,3.26-.68,5.09.39-2.52,2.8-1.51,6.16,1.92,7.89,3.12,1.57,6.37,1.19,9.62,1.25,3.74.06,5.26,2.3,3.95,5.78A2.32,2.32,0,0,1,151,404.6Zm18.14,19.2c-.87-.5-1.28-.59-1.38-.82-2.12-4.5-4.26-9-3.27-14.23a2.1,2.1,0,0,1,2.5-1.84,2,2,0,0,1,2.14,2.19C148.47,413.82,148.45,418.54,148.45,423.79Zm-6.39-7.66a1.75,1.75,0,0,1-1.86,1.74c-1.26.05-2.09-.55-2.13-1.79-.08-2.41-.08-4.83,0-7.24a1.81,1.81,0,0,1,2-1.9,1.84,1.84,0,0,1,2,2c.06,1.25,0,2.51,0,3.77h0C142.08,413.83,142.15,415,142.06,416.13ZM131.69,409a2,2,0,0,1,2.22-2.12c1.55,0,2.42.66,2.44,2.23,0,2.22,0,4.44,0,6.66a2,2,0,0,1-2.22,2.13c-1.56,0-2.4-.68-2.43-2.25,0-1.16,0-2.32,0-3.48S131.65,410.07,131.69,409Zm-28.8-26.39c.27,2.74.49,6-.48,8.79a30.83,30.83,0,0,1-4.73,8.5c-1.84-2.61-1.34-5.51-1.51-8-.39-5.56-1.13-11.11-.92-16.71.09-2.41.93-3.5,3.38-3.41,2.19.09,4.38,0,7.44,0C102.48,375.25,102.5,378.63,102.89,382.63Zm-6.27-90.49c-3.51-4.51-3.37-4.62-3.19-10.36a4.3,4.3,0,0,1,0-.95c.43-1.77-1.17-4.47.82-5.17,1.52-.53,2.47,2.23,3.57,3.56a131.42,131.42,0,0,0,20.76,20.55c2.72,2.11,3.46,4.58,3.13,7.73-.2,1.88-1.06,2.53-2.75,1.66C110.53,304.79,102.55,299.75,96.62,292.14Zm-7.4-31.64a58.78,58.78,0,0,1-8-13,2.18,2.18,0,0,1,1.18-3.34c2.08-1,4.24-3.53,6.1-2.65s.66,4,.72,6.15C89.31,251.91,89.22,256.2,89.22,260.5ZM73.61,412.06h-.15c0,1.16,0,2.31,0,3.46-.07,1.44-.7,2.41-2.32,2.35s-1.94-1.05-1.95-2.34c0-2.09,0-4.18,0-6.28,0-1.72.94-2.43,2.62-2.35s1.89,1.29,1.82,2.65C73.58,410.39,73.61,411.23,73.61,412.06Zm-9.71-7.4c-2.15,0-3.09-.93-3-3.07.07-2.64-.07-5.29.05-7.93s1.07-3.12,3.92-2c-.3,1-1.17.74-1.85.89s-1.25.25-1.54.94c-1.12,2.64,1.34,4,2.37,5.71.85,1.36,2.72.09,3.73-1.05,2.33-2.64,3.15-6,3.88-9.27.37-1.68-2.4-4.67-4.25-4.56-3.05.17-3.9-1.59-4.11-4A29,29,0,0,1,63,375c.16-1.57,1-2.41,2.52-1,.61.59,1.25,1.15,1.88,1.71,1.12,1,2.47,1.67,3.66.45s2.1-2.5.81-4.2a10.74,10.74,0,0,1-2-8.64c.37-2.23-3.48-4.93-6.33-4.24-2.57.62-2.62-.51-2.61-2.35,0-4.75,0-9.51,0-14.72,1.4,1.21,2.56,1.49,3.52.1,1.15-1.68,2.18-2,3.76-.34,1.3,1.39,2.75,1.09,3.4-.81.74-2.17,1.84-1.95,3.2-.68,1.88,1.75,2.74.66,3.4-1.14.1.14.35.39.31.43-1.82,2.45.91,4,1.12,6.07,1.38,13.33,2.68,26.65,1.5,40.11-.47,5.35-.75,10.72-1.4,16.06-.24,2-1.13,2.81-3,2.8C72.39,404.62,68.15,404.61,63.9,404.66Zm3.62,10.88c0,1.29-.46,2.29-2,2.33a1.92,1.92,0,0,1-2.16-2.14q-.06-3.3,0-6.6c0-1.35.67-2.2,2.12-2.18s2,1,2,2.29,0,2.31,0,3.47C67.52,413.65,67.54,414.6,67.52,415.54ZM60.8,335.32c-.14-3,1.5-3,3.59-2.82.42,0,.85,0,1.27,0,3.17.23,6.33.47,9.5.68a2.19,2.19,0,0,1,2.21,1.9c.3,1.41-.72,1.85-1.79,2.14a52.64,52.64,0,0,1-11.24,2C61.36,339.35,60.93,337.84,60.8,335.32Zm11.64-43.74c-1.49-1-1.48-2-.16-3,3.56-2.65,7.11-5.32,10.8-7.79,2-1.36,4.64-.36,4.68,1.91a25,25,0,0,1-1.28,2.47,42,42,0,0,1-3.59,5.19C79.24,294.49,77,294.65,72.44,291.58Zm16-56.56a2.51,2.51,0,0,1-1.83,0c-3.18-1.36-6.32-2.82-10.29-4.62l15.59-5a52.25,52.25,0,0,1,5.16-1.62c1.51-.32,3.71-2.3,4.43-.43a5.2,5.2,0,0,1-1.94,6.21C96,231.59,92.23,233.26,88.49,235Zm11.53-47c-.11-2.29,1.29-2.32,2.86-2.32h15.3c5,0,10,0,15,0,2,0,3.19.54,3.25,2.84A69.8,69.8,0,0,0,139,204.8c.53,1.93.13,2.91-1.85,3.54q-14.58,4.6-29.08,9.42c-2.32.78-3.23,0-3.83-2.18A122.66,122.66,0,0,1,100,188.05Zm.58,25.62-.81.49c-3.17-2.91-6.35-5.8-9.5-8.74a1.8,1.8,0,0,1-.27-2.34c2.13-3.85,4.29-7.69,6.85-11.45A167.31,167.31,0,0,0,100.6,213.67Zm-.36-34.34a110.78,110.78,0,0,1,3.93-25.27c.66-2.57,1.76-3.1,4.29-2.23q13.85,4.69,27.81,9c2.63.8,3.34,2,2.57,4.56a63.81,63.81,0,0,0-2.4,15c-.11,2.31-1,3.19-3.28,3.15-5.08-.08-10.17,0-15.26,0q-6.84,0-13.68,0C100,183.47,100.15,183.47,100.24,179.33ZM119.59,276a2.13,2.13,0,0,1,2.09,2.33c0,5.92.12,11.85,0,17.77-.06,2.93-1.72,1-2.37.43-4.77-4.19-9.7-8.24-13.78-13.15-2.55-3.07-5.57-5.75-8-9.92Zm-21.93-5.59c6.56-5.33,12.76-9.82,20.08-12.56,1-.39,1.88-.45,2,1,.43,3.77.9,7.54,1.28,11.31.17,1.69-.35,3.06-2.41,2.82C111.87,272.2,105.1,271.34,97.66,270.43Zm24-22c0,1.29-.93,1.45-1.61.41-1.75-2.64-3.39-5.35-5-8.06a1.79,1.79,0,0,1,.13-2.09c1.91-2.6,3.85-5.18,5.78-7.76l.78.24C121.68,237,121.72,242.71,121.64,248.46Zm-5,3.72-17.3,8.5-.5-.55c2.8-3.66,5.58-7.32,8.39-11a1.78,1.78,0,0,1,2.33-.33C111.63,249.8,113.71,250.81,116.61,252.18Zm-11.07-8.66c-2,0-3.88-1.66-3.88-3.32,0-4.15,2.24-7.84,4.62-7.68,1,.07,3.57,4.48,3.56,6S106.88,243.52,105.54,243.52Zm-10.92-1.23c1.42.12,3.07.62,2.89,2.66a27.61,27.61,0,0,1-.68,4.05c-.91,3.64-1,7.48-2.63,10.93l-.82-.12c0-5.05,0-10.1,0-15.15C93.42,243.73,93,242.15,94.62,242.29Zm24.72-21c-3.06,1.18-6.13,2.37-9.13,3.69-1.78.79-2.76.39-3.38-1.42-.55-1.59-.71-2.87,1.3-3.51q15.14-4.83,30.26-9.71l.69-.17c1.53-.24,1.91,1,2.27,2.07.53,1.58-.59,2-1.8,2.35Q129.27,217.48,119.34,221.33Zm93.12,73.33c0,2.26-1,3.22-3.26,3.22a107,107,0,0,1-15.78-1.64c-2.34-.35-3.22-1.48-3.17-3.82.12-5.08,0-10.16,0-15.24s0-9.94,0-14.91c0-3.26.65-3.73,3.87-2.86,5,1.36,10.21,1.82,15.36,2.42,2.15.25,2.93,1.29,2.92,3.32Q212.42,279.91,212.46,294.66Zm-.61,32.7c-.7.25-1.13-.43-1.54-.87-4.23-4.59-8.42-9.22-12.69-13.77-1.35-1.43-.68-2.11.66-2.85,3.89-2.15,7.77-4.32,11.63-6.55,1.78-1,2.54-.52,2.54,1.45v10.46c0,3.49,0,7,0,10.46C212.44,326.3,212.57,327.09,211.85,327.36Zm-2.33,2.76-.24.76a167.78,167.78,0,0,1-16.87-1.65,2.27,2.27,0,0,1-2.08-2.4c0-3.59,0-7.17,0-10.76a2.8,2.8,0,0,1,1.87-2.68c1.21-.56,2,.07,2.78.88Q202.25,322.18,209.52,330.12Zm-17.67-95.68q1.67-4.29,3.5-8.52c.37-.87.43-2.42,2-1.91,1.23.41,1.62,1.58,1.34,3.34-.88,2.57-1.87,5.59-2.94,8.58-.6,1.67-2.08,1.82-3.44,1.4C190.48,236.77,191.47,235.43,191.85,234.44Zm.35-66.75c-12-8.6-23.88-17.27-35.82-25.89-1.43-1-1.55-2.12-.46-3.45a73,73,0,0,1,11.25-11.18c1.32-1,2.39-1,3.46.43q13,17.86,26,35.7a9,9,0,0,1,.76,1.45C197.22,167.13,193.92,168.93,192.2,167.69Zm-37-23.91q17.61,12.81,35.27,25.56c.74.53,1.66,1,1.56,2.18a3.61,3.61,0,0,1-5,3.39c-13.41-4.34-26.8-8.74-40.24-13-2.49-.79-3.19-1.85-2.13-4.36a94.46,94.46,0,0,1,6.7-12.95C152.45,142.83,153.52,142.55,155.21,143.78Zm-9.68,20q20.55,6.81,41.18,13.38c2,.64,2.26,1.72,2,3.57-.23,2-1.19,2.75-3.1,2.74-7.22,0-14.45,0-21.67,0h0c-7.12,0-14.24,0-21.36,0-2.19,0-2.94-.65-2.87-2.95a75.17,75.17,0,0,1,2.18-14.71C142.4,163.82,143.3,163.05,145.53,163.79Zm-2.88,21.9c7,.1,14,0,21,0s14,0,21,0c1.93,0,3.58.12,3.94,2.62s-.38,3.51-2.85,4.28q-19.76,6.16-39.37,12.76c-3,1-4.11.29-4.74-2.71a94.37,94.37,0,0,1-2-13.8C139.58,186.47,140.25,185.65,142.65,185.69Zm11,35a12.12,12.12,0,0,1,0,1.51c-.41,1.08.88,3.2-.91,3.65-1.37.35-1.69-1.85-2.54-2.87a5.05,5.05,0,0,1-.81-1.36c-.45-1.11-1.9-2.14-.91-3.4s2.58-1.19,3.84-1C154.26,217.61,153.51,219.45,153.69,220.71Zm-1.06,17.91c-.85.16-5.92-3.15-5.63-3.62,1-1.66,2.62-3.2,4.44-3.14,2.37.07,2.09,2.45,2.28,4.21C153.44,237,154.25,238.32,152.63,238.62Zm-9.52,115.63c3.26-8.11,6.57-16.21,9.86-24.31l.66.15c0,8.23,0,16.45,0,24.67,0,1.9-5.66,5.57-7.55,5.11C144.93,359.59,142.65,355.41,143.11,354.25Zm-1.4-42.19c-3.06-1.88-6.14-3.73-9.17-5.67-1.44-.92-1.13-1.6.47-1.92l14-2.84c.94-.19,1.75-.15,1.55,1.62-1.46,2.68-3.07,5.77-4.82,8.77C143.28,312.76,142.39,312.47,141.71,312.06ZM152.34,280a3.44,3.44,0,0,1-2.57-5.59c.95-1.36,2-2.68,3.44-4.7.79,3.56.42,6.27.43,9C153.65,279.45,153.42,280.11,152.34,280Zm-.51,14c.79,1.77.24,3.36-1.6,3.79-6.53,1.51-13.12,2.8-19.68,4.17l-.36-.71q7.08-9.67,14.16-19.36c.86-1.17,1.53-.84,2.06.31C148.22,286.12,150.05,290,151.83,294ZM142,281.09c-4.47,6.16-9,12.3-13.7,18.73-1.77-2-1.08-4.2-1.4-6.1a84.22,84.22,0,0,1-1.14-13.56c0-2.58.85-3.36,3.38-3,4,.58,8,.94,12,1.35C143.41,278.75,142.87,279.92,142,281.09Zm-13.41-7c-1.42-.18-2.71-.79-2.72-2.56,0-3,0-6.07,0-9.11l.78-.26c3.94,4.73,8.63,8.67,13.71,13.19C136,274.94,132.31,274.6,128.61,274.13Zm-2.78-29.81c0-2.22,0-4.44,0-6.65h0c0-2.33,0-4.65,0-7,0-1.68.77-2.07,2.21-1.27l10.53,5.88c1.42.79,1.08,1.56,0,2.36q-5.4,3.9-10.79,7.83C126.18,246.68,125.82,245.84,125.83,244.32Zm15.77-5.88c1.3-.92,2.43-.08,3.54.52,1.38.76,2.74,1.57,4.63,2.65l-18.91,5.23-.28-.5C134.25,243.7,137.91,241.05,141.6,238.44Zm8-8.87c-1.41,2.72-6.18,4.12-8.9,2.6Q135,229,129.36,225.8c-.61-.35-1.53-.62-1.44-1.49s1-1,1.71-1.17l12.63-3.85C144.64,219.34,150.3,228.17,149.58,229.57Zm-23.37,78c.31-1.07,1.39-.69,2.15-.22q6,3.69,11.89,7.4c.64.41,1.29.9.88,1.79s-1.06.53-2.12.41a71.64,71.64,0,0,1-11.6-4C125.07,311.75,125.65,309.47,126.21,307.56Zm21-33.62c-1,1.37-2,1.32-3.21.37a111.42,111.42,0,0,1-17.16-16.4c-1.56-1.88-1.14-3.27,1.12-4.12a173.51,173.51,0,0,1,23.14-6.72c1.95-.44,2.49.6,2.52,2.22,0,2.43,0,4.86,0,8.44C155.92,264,151,268.72,147.26,273.94Zm1.47-61.57-1.87.4c-2,.33-2.33-1.13-2.71-2.46-.51-1.81.93-2.12,2.13-2.51q14.37-4.7,28.75-9.35c4-1.31,8.12-2.47,12.11-3.92,2.44-.89,3.13.59,4.09,2.23s.44,2.75-1.1,3.6a1.18,1.18,0,0,0-.25.19,32.5,32.5,0,0,1-23.27,9C160.57,209.55,154.64,211.09,148.73,212.37Zm11.43,3.29c3.09-.51,6.21-.87,9.32-1.29l.41.66-10.15,7.33c-.52.37-1.06.76-1.66.13C156.68,221,158.15,216,160.16,215.66Zm.85,8.54a91.58,91.58,0,0,0,10.8-7.79c3.25-2.66,6.79-3.12,11-2.49-.58,1.86-1.94,2.61-3,3.6-5.83,5.52-11.68,11-17.61,16.47-2.11,1.93-4,1.21-4.36-1.6C157.45,229.17,157.58,226.25,161,224.2Zm21.41,91.21c-3.23,1.57-6.29,3.5-9.44,5.23-.6.33-1.27,1.06-2,.45s-.08-1.19.1-1.76q3.25-10.09,6.54-20.19c.61-1.87,1.62-2.26,2.8-.55,2.23,3.25,6.91,5.19,5.56,10.24C186.77,312.15,185.27,314,182.42,315.41Zm3.7,34.1c0,4.76-.06,9.51,0,14.27,0,2.31-.51,3.13-2.92,2.08-6.21-2.72-12.49-5.27-18.72-7.95a6.12,6.12,0,0,1-3.54-7.67c2.2-6.84,4.5-13.65,6.63-20.51.65-2.06,1.6-2.61,3.73-2,3.85,1.13,7.78,2.05,11.71,2.91,2.24.49,3.17,1.62,3.12,4C186,339.57,186.12,344.54,186.12,349.51Zm-22.36-29.66c.67,1.58.16,2.1-1.6,1.68-4.9-1.18-5.27-2.53-1.76-9C161.68,315.3,162.79,317.54,163.76,319.85Zm-.23-16c1.08-6.16,5.71-7.06,10.73-7.57,1.18-.12,2,0,1.46,1.45q-3.78,11.37-7.53,22.76l-.8,0c-1.62-3.54-3.26-7.06-4.84-10.61C161.56,307.65,163.17,305.83,163.53,303.81Zm-5.42,20.33c2.36-.91,4.12,1,6.21,1.42a1.66,1.66,0,0,1,1.45,2.33q-3.66,11.36-7.35,22.71l-.62-.1q0-12.6,0-25.2C157.82,324.9,157.89,324.22,158.11,324.14Zm28-1.53c0,5.79,0,5.8-5.79,4.44-2-.46-3.91-.95-5.85-1.5-.47-.13-1.1-.45-1.24-.84-.29-.76.52-1.06,1-1.35,3-1.73,6.14-3.36,9.13-5.17,2.07-1.25,2.87-.83,2.72,1.57C186.07,320.7,186.12,321.66,186.12,322.61Zm-5.66-32.1c1.61-5.23,3.37-10.41,5.06-15.6h.6q0,8.37,0,16.73c0,1.42,0,3-2.14,2.43C182.16,293.58,179.5,293.64,180.46,290.51Zm3.9-19.4c-2,6-4.07,12-5.88,18.11-.87,2.93-2.49,2.6-4.56,1.69s-4.78-1-3.24-4.65c3.85-9.06,7.45-18.22,11.22-27.31.47-1.14.45-3.07,2.5-2.64s1.65,2.17,1.71,3.62c0,.64,0,1.27,0,2.3C186.5,265.11,185.36,268.09,184.36,271.11Zm-1-35c-1.3,2.09-3.62,1.39-5.49,1.82-.91.2-.95-.68-.53-1.27,2.68-3.74,5.4-7.45,8.35-11.49C186.92,229.65,185.36,232.94,183.37,236.11Zm1.39-13.59c-3.3,4.52-6.67,9-9.88,13.56-1.89,2.69-4.72,2.54-7.4,2.64-1.26.05-3,1.45-3.7-.13-.53-1.28,1.38-2.15,2.33-3.05,6.39-6,12.84-11.9,19.53-18.09C186.58,219.67,185.77,221.12,184.76,222.52ZM166.08,248c-2.45,3.42-4.93,6.81-7.4,10.22l-.84-.21c0-3.44-.05-6.89,0-10.34,0-2.46,2.19-2.24,3.73-2.6s3.41-.65,4.71.88C166.88,246.64,166.52,247.4,166.08,248ZM158,263.77a2.44,2.44,0,0,1,.49-1.16c3.14-4.37,6.31-8.73,9.47-13.09a1.94,1.94,0,0,1,3.24-.27c1.24,1.18,4.5,1.34,3.26,3.85-5,10.09-10.29,20-15.48,30l-1.06-.23C157.72,276.52,157.62,270.15,158,263.77Zm26.62-55.57-.36-.64,7.32-5.34c1-.7,2-1.48,3.05-.25.9,1.06,2.77,1.67,2.28,3.47a3.36,3.36,0,0,1-3.13,2.73C190.72,208.26,187.66,208.2,184.61,208.2Zm6.09,91.63c.87-1.79,2.69-.45,4-.32,4.16.39,8.29,1,13.1,1.6-4.44,2.47-8.34,4.71-12.3,6.82-2.53,1.35-3.35-1-4.4-2.39A5.46,5.46,0,0,1,190.7,299.83Zm14.16-41.74c-3.23-.57-6.45-1.18-9.68-1.76-2.36-.42-3.37-1.57-2.32-4,.38-.87.6-1.81.91-2.71,2.72-7.76.71-6,8.89-6a22.62,22.62,0,0,1,3.14.45c6.67,1,6.67,1,6.67,7.67C212.47,258.94,212,259.34,204.86,258.09Zm7-19.5c-.38.7-1.06.54-2.44.29-2.6-.22-5.95-.52-9.31-.78-1.61-.12-2.33-.83-1.79-2.48.72-2.19,1.42-4.39,2.14-6.59.5-1.54,1.3-1.38,2.29-.42,2.81,2.7,5.63,5.38,8.43,8.08C211.73,237.19,212.35,237.75,211.89,238.59ZM165.36,120.38c.49.67.88,1.42,1.24,2,0,1.31-.9,1.84-1.62,2.42a71.9,71.9,0,0,0-11.43,11.44c-1.35,1.73-2.48,1.78-4.22.5q-12.15-9-24.47-17.7c-2-1.41-2-2.58-.58-4.35a129.27,129.27,0,0,1,19.33-19.24c1.66-1.34,2.67-1.36,4,.53C153.45,104.16,159.44,112.25,165.36,120.38Zm-61.07,22.05c-.85-4.28-1.73-8.56-2.55-12.85a2.28,2.28,0,0,1,1.27-2.66c3.81-1.77,7.63-3.49,11.44-5.24.18.26.37.51.55.76C111.15,128.86,107.72,135.49,104.29,142.43Zm-2.53,2.63c.3,1.5-.46,2-1.82,1.57-7.44-2.36-14.88-4.76-22.32-7.15l0-1c6.34-2.89,12.67-5.8,19-8.68,1.25-.56,2-.12,2.28,1.25C99.82,135.75,100.82,140.4,101.76,145.06Zm-3.85,25.65c-.14,1.78-.28,3.56-.43,5.33-.06.61,0,1.37-.78,1.52-.64.12-.86-.53-1.1-1q-2.73-4.82-5.42-9.64c-.49-.89-.74-1.84,0-2.64A68.84,68.84,0,0,1,100.69,155C99.63,160.63,98.32,165.6,97.91,170.71ZM94.57,181c.65,1.16,1,2.42-.95,2.44-7.8.06-15.61,0-23.42,0l-.17-.78c5-4.65,10.11-9.29,15.13-14,1.16-1.08,2-1,2.75.39C90.12,173.05,92.37,177,94.57,181Zm-24.35,4.77H94c1.65,0,1.71.9,1,2.09q-3.51,6.22-7,12.44c-.62,1.08-1.43,1.64-2.54.63q-7.86-7.12-15.7-14.28ZM92.59,211.6c2.39,2.09,4.67,4.31,7,6.46,1,.92,1.79,1.79-.21,2.44L76.32,228c1.07-3.47,2.79-5.66,4.06-8.06s2.69-4.8,4.07-7.18C88,206.62,86.74,206.5,92.59,211.6Zm-13,39.28c2,4,4.19,7.95,6.63,12.56-6.82-2.75-13.06-5.24-19.27-7.79-1.48-.6-1.49-2.53-.45-2.58,3.21-.16,4.15-3.23,6.6-4.32C77.54,246.79,77.41,246.63,79.59,250.88Zm-12.83,8.75q9.13,3.74,18.32,7.35c1.71.68,1.7,1.29.18,2.21q-11,6.69-22,13.42c-1.52.92-2.38.71-2.36-1.26s0-4,0-6.72c-.64-4.2.84-8.72,2.35-13.27C63.9,259.39,64.83,258.84,66.76,259.63ZM190.34,424.51q0-7.89,0-15.78c0-.64.2-1.37,1-1.38,1,0,1.1.86,1.11,1.6,0,2.65,0,5.29,0,7.94s0,5.08,0,7.62Zm22.15-205.1c-.14,1.46,0,3,0,4.43h0c0,2.11,0,4.23,0,6.34,0,1.38-.66,1.72-1.77.71-2.33-2.14-4.66-4.3-7-6.43a2.45,2.45,0,0,1-.67-2.87c.42-1.2.83-2.4,1.15-3.62.63-2.34,1.45-4,4.56-3.48S212.78,216.5,212.49,219.41Zm0-129.65h0c0,5,0,9.93,0,14.9,0,2.26-1,3.23-3.26,3.22a57.74,57.74,0,0,0-15.33,2.33c-2.16.58-3.27.11-4-2.14q-4.57-14.5-9.42-28.92c-.69-2-.09-2.83,1.86-3.39,8.59-2.47,17.39-3.58,26.25-4.41,2.95-.27,4,1,3.92,3.83C212.37,80,212.46,84.9,212.46,89.76ZM183.54,72.34a104.55,104.55,0,0,1,9.54-10.63,1.91,1.91,0,0,1,2.6-.13l11,6.15-.1.82A147.82,147.82,0,0,0,183.54,72.34ZM211,44.86c1.57.53,1.39,2,1.41,3.2.05,2.63,0,5.26,0,7.9h0c0,2.84,0,5.69,0,8.53,0,1.82-.63,2.65-2.51,1.58-4-2.28-8.09-4.56-12.16-6.8-1.3-.71-1.3-1.46-.34-2.47,3.41-3.59,6.8-7.21,10.2-10.82A3.11,3.11,0,0,1,211,44.86Zm-34.59.79c.28-1.28.79-2.43,2.24-2.81a114.42,114.42,0,0,1,15.59-2.9c.81-.09,1.72.05,1.85.83.75,4.45,4.21,4,8.17,3.9a118.1,118.1,0,0,1-9.84,10.85c-1,1-2.12.71-3.2.11L178,48.15C177,47.6,176.16,46.91,176.44,45.65ZM176,50.72a11.11,11.11,0,0,1,1.31.57c4,2.21,8,4.46,12,6.65,1.52.84,1.64,1.68.42,2.94q-4.72,4.93-9.34,10c-1.22,1.33-2.09,1.73-2.76-.43-1.51-4.85-3.13-9.67-4.62-14.52C172.42,54.09,174.34,50.77,176,50.72Zm-11.46,4.5a3,3,0,0,1,3.1-1.73,2.71,2.71,0,0,1,2.75,2.16q2.46,7.7,5,15.38c.55,1.68.16,2.48-1.76,2.11-4.57-.92-9.13-1.88-13.7-2.75-1.67-.31-1.82-1.18-1.22-2.49Q161.62,61.56,164.55,55.22Zm-6.14-1.84c3.15.42,3.44.49,2.15,3.29-1.58,3.45-3.22,6.88-4.81,10.33-.64,1.39-1.54,2.28-3.19,2q-10.09-2-20.18-4.11a11.17,11.17,0,0,1-1.59-.72C139.66,58.84,147.27,51.87,158.41,53.38ZM130.78,67.6q10.22,2,20.42,4.07c1.75.35,1.92,1.19,1.19,2.7-1.95,4.09-3.79,8.24-5.71,12.36-.5,1.09-1.14,2.44-2.41.73-4.7-6.34-9.32-12.74-14-19.11Zm-5.54,22.47c.56-4.8,1-9.62,1.71-14.41.27-1.91-.22-4,1.19-6.23,2.79,3.79,5.4,7.32,8,10.86,1.93,2.64,3.82,5.31,5.78,7.92,1.12,1.48,1.22,2.38-1,2.64-4.51.52-9,1.14-13.5,1.72C125.48,92.81,125.05,91.72,125.24,90.07Zm1,5.57c4.29-.52,8.57-1,12.86-1.49l.3.76c-5.63,5-11,10.3-16.61,15.73.54-4.34,1-8.69,1.64-13A2.13,2.13,0,0,1,126.2,95.64ZM111.46,80.27c1.28-1.14,3-.63,4.61-.75,2.47-.18,5.08.62,7.45-1.16-.42,4-.79,7.85-1.27,11.69-.15,1.24-.35,2.76-1.85,3-7.33,1.36-14.75,2-23,2.82A95.13,95.13,0,0,1,111.46,80.27ZM96.85,101.59c5,3.57,9.9,7.12,14.83,10.71,6.11,4.45,6.11,4.47-.65,7.64-2.69,1.26-5.38,2.49-8.09,3.69-1,.45-2.17.84-2.51-.75-1.46-7-2.86-13.94-4.28-20.9ZM76.36,133.3a149.55,149.55,0,0,1,15.56-30,3.13,3.13,0,0,1,.68-.56c1.21.65,1,1.83,1.17,2.81,1.17,5.67,2.29,11.36,3.5,17,.45,2.1.15,3.64-2.07,4.63-5.71,2.52-11.35,5.19-17,7.75-.61.28-1.44.94-2,.13C75.92,134.7,76.14,133.86,76.36,133.3Zm11.21,11.8c3.62,1.16,7.23,2.39,10.87,3.47,2,.61,2.86,1.28.89,3.05-3.3,3-6.53,6-9.77,9-1.13,1.06-2.15,1.38-3-.21-3.46-6.13-6.92-12.26-10.8-19.15Zm-14.43-2.2c4,7.13,7.64,13.55,11.27,20a1.88,1.88,0,0,1-.25,2.58c-5.34,5-10.68,9.91-16.46,14.67C67.34,167.58,69.49,155.53,73.14,142.9Zm-5.91,45.53,10.16,9.24c2,1.85,4.06,3.72,6.11,5.54,1,.9,1.84,1.79,1,3.25q-5.44,9.63-10.86,19.27A113,113,0,0,1,67.23,188.43ZM45.77,241.18l.06-.92L70,232.52c.2-.06.47-.19.61-.11,3.06,1.59,2.5,5.08,3.94,7.54a1.94,1.94,0,0,1-.94,2.93q-4.8,2.49-9.62,4.94a2.46,2.46,0,0,1-2.15.06Zm7.08,99.45c3.94,2.47,3.74,6.11,4,9.92.65,8.37-1.83,16.1-4,24.67Zm-.19,52.45c.06-1.87,1.65-2.56,3.1-2.52s.9,1.64,1,2.58c.1,1.36,0,2.74,0,4.11h-.08c0,1.8.05,3.59,0,5.38a2,2,0,0,1-4-.05C52.6,399.41,52.56,396.24,52.66,393.08Zm-2.48-56.64c-1,1.95-2.39.65-3.52.25a22.88,22.88,0,0,1-11.92-9c5.11,1.07,9.52,1.92,13.89,3C50.17,331,51.09,334.59,50.18,336.44Zm-9.49,60a4,4,0,0,0,2.67-2.1c.85-2.39,2.15-2.81,4.6-2.12s2.29,2.37,2.36,4.13c0,.74,0,1.48,0,2.22,0,6,0,6.05-6.3,6.06-2.38,0-4.91.6-5.7-2.91C37.74,399.18,38,397.42,40.69,396.46Zm-3.14,19c0,1.28-.42,2.3-1.93,2.37s-2.13-.9-2.37-2.33c-.61-3.53.72-6,4.3-7.88C37.55,410.49,37.56,413,37.55,415.5Zm-2.49-24.63c1.39-1.12,1.5.61,1.68,1.34.31,1.25-.89,1.87-1.61,2.52-2,1.87-3.21,3.73-1.52,6.51.46.74,1.06,2.05,0,2.91a3.51,3.51,0,0,1-3.34.27C29,404,29,402.89,28.94,401.81c0-.63,0-1.26,0-2.07C28.07,395,32.14,393.24,35.06,390.87ZM29,409.13c0-.74.08-1.58,1-1.77a1,1,0,0,1,1.26,1.1c.13,5.05.59,10.12-.28,15.15a2.56,2.56,0,0,1-.34.9H29C29,419.2,29,414.16,29,409.13Z"/></g></g></svg>