<?xml version="1.0" encoding="utf-8"?>
<!-- Generator: Adobe Illustrator 23.0.3, SVG Export Plug-In . SVG Version: 6.00 Build 0)  -->
<svg version="1.1" id="圖層_1" xmlns="http://www.w3.org/2000/svg" xmlns:xlink="http://www.w3.org/1999/xlink" x="0px" y="0px"
	 viewBox="0 0 181.4 45.97" style="enable-background:new 0 0 181.4 45.97;" xml:space="preserve">
<style type="text/css">
	.st0{clip-path:url(#SVGID_2_);}
	.st1{fill:#A37728;}
	.st2{fill:#9B7225;}
	.st3{fill:#906425;}
	.st4{opacity:0.84;fill:#79643D;}
	.st5{fill:#AD955A;}
	.st6{fill:#715725;}
	.st7{fill:#A67223;}
	.st8{opacity:0.6;}
	.st9{fill:#F49D00;}
</style>
<g>
	<g>
		<g>
			<g>
				<g>
					<defs>
						<rect id="SVGID_1_" x="0.73" y="0" width="179.94" height="45.97"/>
					</defs>
					<clipPath id="SVGID_2_">
						<use xlink:href="#SVGID_1_"  style="overflow:visible;"/>
					</clipPath>
					<g class="st0">
						<rect x="0.73" y="-40.31" class="st1" width="179.94" height="89.13"/>
						<rect x="0.73" y="43.88" class="st2" width="179.94" height="6.37"/>
						<rect x="0.73" y="18.41" class="st2" width="179.94" height="6.37"/>
						<rect x="0.73" y="5.68" class="st2" width="179.94" height="6.36"/>
						<rect x="0.73" y="-7.04" class="st2" width="179.94" height="6.36"/>
						<rect x="0.73" y="31.17" class="st2" width="179.94" height="6.35"/>
						<g>
							<rect x="0.73" y="35.55" class="st3" width="179.94" height="1.96"/>
							<rect x="0.73" y="-9.01" class="st3" width="179.94" height="1.97"/>
							<rect x="0.73" y="-2.64" class="st3" width="179.94" height="1.96"/>
							<rect x="0.73" y="3.73" class="st3" width="179.94" height="1.96"/>
							<rect x="0.73" y="10.1" class="st3" width="179.94" height="1.95"/>
							<rect x="0.73" y="16.46" class="st3" width="179.94" height="1.95"/>
							<rect x="0.73" y="22.82" class="st3" width="179.94" height="1.97"/>
							<rect x="0.73" y="29.17" class="st3" width="179.94" height="1.97"/>
							<rect x="0.73" y="41.91" class="st3" width="179.94" height="1.97"/>
							<rect x="0.73" y="48.28" class="st3" width="179.94" height="1.98"/>
						</g>
					</g>
				</g>
				<path class="st4" d="M125.35,0.79H56.07H1.13v43.15h179.54V0.79H125.35z M177.78,40.42H4.23L4.31,4.76h173.36L177.78,40.42z"/>
				<path class="st5" d="M125.59,0H55.43H-0.01v45.84h181.4V0H125.59z M179.94,43.19H1.68V1.99h178.15L179.94,43.19z"/>
			</g>
		</g>
	</g>
	<g>
		<g>
			<path class="st6" d="M33.21,11.49l-1.85,0.95l0.35-2.01l-1.5-1.42l2.07-0.29l0.92-1.83l0.92,1.83l2.07,0.29l-1.5,1.42l0.35,2.01
				L33.21,11.49z M39.08,11.43l-1.21,0.62l0.23-1.31l-0.98-0.93l1.35-0.19l0.6-1.2l0.6,1.2l1.35,0.19l-0.98,0.93l0.23,1.31
				L39.08,11.43z M27.34,11.43l-1.21,0.62l0.23-1.31l-0.98-0.93l1.35-0.19l0.6-1.2l0.6,1.2l1.35,0.19l-0.98,0.93l0.23,1.31
				L27.34,11.43z"/>
			<path class="st7" d="M33.21,7.53l0.73,1.44l1.63,0.23l-1.18,1.12l0.28,1.59l-1.46-0.75l-1.46,0.75l0.28-1.59l-1.18-1.12
				l1.63-0.23L33.21,7.53z M26.93,9.88l-0.92,0.13l0.66,0.63l-0.16,0.89l0.82-0.42l0.82,0.42l-0.16-0.89l0.66-0.63l-0.92-0.13
				l-0.41-0.81L26.93,9.88z M38.67,9.88l-0.92,0.13l0.66,0.63l-0.16,0.89l0.82-0.42l0.82,0.42l-0.16-0.89l0.66-0.63l-0.92-0.13
				l-0.41-0.81L38.67,9.88z"/>
			<g class="st8">
				<path class="st9" d="M39.75,10.64l0.66-0.63l-0.92-0.13l-0.41-0.81l-0.41,0.81l-0.32,0.05c0.29,0.51,0.82,0.88,1.44,0.97
					L39.75,10.64z"/>
				<path class="st9" d="M28.01,10.64l0.66-0.63l-0.92-0.13l-0.41-0.81l-0.41,0.81l-0.22,0.03c0.27,0.49,0.76,0.85,1.33,0.96
					L28.01,10.64z"/>
				<path class="st9" d="M33.94,8.98l-0.73-1.44l-0.73,1.44l-0.71,0.1c0.22,1.05,1.17,1.84,2.31,1.84c0.14,0,0.27-0.01,0.41-0.04
					l-0.1-0.55l1.18-1.12L33.94,8.98z"/>
			</g>
		</g>
		<g>
			<path class="st6" d="M148.18,11.49l-1.85,0.95l0.35-2.01l-1.5-1.42l2.07-0.29l0.92-1.83l0.92,1.83l2.07,0.29l-1.5,1.42l0.35,2.01
				L148.18,11.49z M154.05,11.43l-1.21,0.62l0.23-1.31l-0.98-0.93l1.35-0.19l0.6-1.2l0.6,1.2l1.35,0.19l-0.98,0.93l0.23,1.31
				L154.05,11.43z M142.31,11.43l-1.21,0.62l0.23-1.31l-0.98-0.93l1.35-0.19l0.6-1.2l0.6,1.2l1.35,0.19l-0.98,0.93l0.23,1.31
				L142.31,11.43z"/>
			<path class="st7" d="M148.18,7.53l0.73,1.44l1.63,0.23l-1.18,1.12l0.28,1.59l-1.46-0.75l-1.46,0.75l0.28-1.59l-1.18-1.12
				l1.63-0.23L148.18,7.53z M141.9,9.88l-0.92,0.13l0.66,0.63l-0.16,0.89l0.82-0.42l0.82,0.42l-0.16-0.89l0.66-0.63l-0.92-0.13
				l-0.41-0.81L141.9,9.88z M153.64,9.88l-0.92,0.13l0.66,0.63l-0.16,0.89l0.82-0.42l0.82,0.42l-0.16-0.89l0.66-0.63l-0.92-0.13
				l-0.41-0.81L153.64,9.88z"/>
			<g class="st8">
				<path class="st9" d="M154.71,10.64l0.66-0.63l-0.92-0.13l-0.41-0.81l-0.41,0.81l-0.32,0.05c0.29,0.51,0.82,0.88,1.44,0.97
					L154.71,10.64z"/>
				<path class="st9" d="M142.97,10.64l0.66-0.63l-0.92-0.13l-0.41-0.81l-0.41,0.81l-0.22,0.03c0.27,0.49,0.76,0.85,1.33,0.96
					L142.97,10.64z"/>
				<path class="st9" d="M148.91,8.98l-0.73-1.44l-0.73,1.44l-0.71,0.1c0.22,1.05,1.17,1.84,2.31,1.84c0.14,0,0.27-0.01,0.41-0.04
					l-0.1-0.55l1.18-1.12L148.91,8.98z"/>
			</g>
		</g>
	</g>
</g>
</svg>
