<?xml version="1.0" encoding="utf-8"?>
<!-- Generator: Adobe Illustrator 23.0.3, SVG Export Plug-In . SVG Version: 6.00 Build 0)  -->
<svg version="1.1" id="圖層_1" xmlns="http://www.w3.org/2000/svg" xmlns:xlink="http://www.w3.org/1999/xlink" x="0px" y="0px"
	 viewBox="0 0 496.46 151.82" style="enable-background:new 0 0 496.46 151.82;" xml:space="preserve">
<style type="text/css">
	.st0{clip-path:url(#SVGID_2_);}
	.st1{fill:#A37728;}
	.st2{fill:#9B7225;}
	.st3{fill:#906425;}
	.st4{opacity:0.84;fill:#79643D;enable-background:new    ;}
	.st5{fill:#AD955A;}
	.st6{fill:#715725;}
	.st7{fill:#A67223;}
	.st8{opacity:0.6;}
	.st9{fill:#F49D00;}
</style>
<g>
	<g>
		<g>
			<g>
				<g>
					<defs>
						<rect id="SVGID_1_" x="2.4" y="1" width="491.67" height="150.49"/>
					</defs>
					<clipPath id="SVGID_2_">
						<use xlink:href="#SVGID_1_"  style="overflow:visible;"/>
					</clipPath>
					<g class="st0">
						<rect x="2.4" y="-130.97" class="st1" width="491.67" height="291.8"/>
						<rect x="2.4" y="144.65" class="st2" width="491.67" height="20.87"/>
						<rect x="2.4" y="61.28" class="st2" width="491.67" height="20.87"/>
						<rect x="2.4" y="19.61" class="st2" width="491.67" height="20.83"/>
						<rect x="2.4" y="-22.06" class="st2" width="491.67" height="20.83"/>
						<rect x="2.4" y="103.04" class="st2" width="491.67" height="20.78"/>
						<g>
							<rect x="2.4" y="117.4" class="st3" width="491.67" height="6.42"/>
							<rect x="2.4" y="-28.5" class="st3" width="491.67" height="6.44"/>
							<rect x="2.4" y="-7.65" class="st3" width="491.67" height="6.42"/>
							<rect x="2.4" y="13.21" class="st3" width="491.67" height="6.41"/>
							<rect x="2.4" y="34.06" class="st3" width="491.67" height="6.39"/>
							<rect x="2.4" y="54.89" class="st3" width="491.67" height="6.39"/>
							<rect x="2.4" y="75.71" class="st3" width="491.67" height="6.44"/>
							<rect x="2.4" y="96.51" class="st3" width="491.67" height="6.44"/>
							<rect x="2.4" y="138.21" class="st3" width="491.67" height="6.44"/>
							<rect x="2.4" y="159.05" class="st3" width="491.67" height="6.47"/>
						</g>
					</g>
				</g>
			</g>
			<path class="st4" d="M342.92,3.59h-189.3H3.49v141.26h490.58V3.59H342.92z M486.18,132.06H11.98l0.21-114.22h473.68
				L486.18,132.06z"/>
			<path class="st5" d="M343.59,1H151.86H0.4v150.07h495.67V1H343.59z M492.09,142.4H4.99V7.52h486.79L492.09,142.4z"/>
		</g>
	</g>
</g>
<g>
	<g>
		<path class="st6" d="M39.73,34.56L33.03,38l1.28-7.29l-5.42-5.16l7.5-1.06l3.35-6.63l3.35,6.63l7.5,1.06l-5.42,5.16L46.44,38
			L39.73,34.56z M61.02,34.35l-4.39,2.25l0.84-4.77l-3.55-3.38l4.9-0.7l2.19-4.34l2.19,4.34l4.9,0.7l-3.55,3.38l0.84,4.77
			L61.02,34.35z M18.44,34.35l-4.39,2.25l0.84-4.77l-3.55-3.38l4.9-0.7l2.19-4.34l2.19,4.34l4.9,0.7l-3.55,3.38l0.84,4.77
			L18.44,34.35z"/>
		<path class="st7" d="M39.73,20.21l2.65,5.23l5.92,0.84l-4.28,4.07l1.01,5.75l-5.29-2.72l-5.29,2.72l1.01-5.75l-4.28-4.07
			l5.92-0.84L39.73,20.21z M16.95,28.71l-3.32,0.47l2.4,2.29l-0.57,3.23l2.97-1.53l2.97,1.53l-0.57-3.23l2.4-2.29l-3.32-0.47
			l-1.49-2.94L16.95,28.71z M59.54,28.71l-3.32,0.47l2.4,2.29l-0.57,3.23l2.97-1.53l2.97,1.53l-0.57-3.23l2.4-2.29l-3.32-0.47
			l-1.48-2.94L59.54,28.71z"/>
		<g class="st8">
			<path class="st9" d="M63.43,31.47l2.4-2.29l-3.32-0.47l-1.48-2.94l-1.49,2.94l-1.16,0.16c1.06,1.86,2.97,3.19,5.21,3.51
				L63.43,31.47z"/>
			<path class="st9" d="M20.84,31.47l2.4-2.29l-3.32-0.47l-1.49-2.94l-1.49,2.94l-0.79,0.11c0.99,1.77,2.75,3.08,4.83,3.5
				L20.84,31.47z"/>
			<path class="st9" d="M42.38,25.44l-2.65-5.23l-2.65,5.23l-2.58,0.37c0.8,3.8,4.25,6.66,8.38,6.66c0.5,0,0.99-0.05,1.47-0.13
				L44,30.36l4.28-4.07L42.38,25.44z"/>
		</g>
	</g>
	<g>
		<path class="st6" d="M456.73,34.56l-6.7,3.44l1.28-7.29l-5.42-5.16l7.5-1.06l3.35-6.63l3.35,6.63l7.5,1.06l-5.42,5.16l1.28,7.29
			L456.73,34.56z M478.02,34.35l-4.39,2.25l0.84-4.77l-3.55-3.38l4.9-0.7l2.19-4.34l2.19,4.34l4.9,0.7l-3.55,3.38l0.84,4.77
			L478.02,34.35z M435.44,34.35l-4.39,2.25l0.84-4.77l-3.55-3.38l4.9-0.7l2.19-4.34l2.19,4.34l4.9,0.7l-3.55,3.38l0.84,4.77
			L435.44,34.35z"/>
		<path class="st7" d="M456.73,20.21l2.65,5.23l5.92,0.84l-4.28,4.07l1.01,5.75l-5.29-2.72l-5.29,2.72l1.01-5.75l-4.28-4.07
			l5.92-0.84L456.73,20.21z M433.95,28.71l-3.32,0.47l2.4,2.29l-0.57,3.23l2.97-1.53l2.97,1.53l-0.57-3.23l2.4-2.29l-3.32-0.47
			l-1.49-2.94L433.95,28.71z M476.54,28.71l-3.32,0.47l2.4,2.29l-0.57,3.23l2.97-1.53l2.97,1.53l-0.57-3.23l2.4-2.29l-3.32-0.47
			l-1.48-2.94L476.54,28.71z"/>
		<g class="st8">
			<path class="st9" d="M480.43,31.47l2.4-2.29l-3.32-0.47l-1.48-2.94l-1.49,2.94l-1.16,0.16c1.06,1.86,2.97,3.19,5.21,3.51
				L480.43,31.47z"/>
			<path class="st9" d="M437.84,31.47l2.4-2.29l-3.32-0.47l-1.49-2.94l-1.49,2.94l-0.79,0.11c0.99,1.77,2.75,3.08,4.83,3.5
				L437.84,31.47z"/>
			<path class="st9" d="M459.38,25.44l-2.65-5.23l-2.65,5.23l-2.58,0.37c0.8,3.8,4.25,6.66,8.38,6.66c0.5,0,0.99-0.05,1.47-0.13
				L461,30.36l4.28-4.07L459.38,25.44z"/>
		</g>
	</g>
</g>
</svg>
