<?xml version="1.0" encoding="utf-8"?>
<!-- Generator: Adobe Illustrator 23.0.3, SVG Export Plug-In . SVG Version: 6.00 Build 0)  -->
<svg version="1.1" id="圖層_1" xmlns="http://www.w3.org/2000/svg" xmlns:xlink="http://www.w3.org/1999/xlink" x="0px" y="0px"
	 viewBox="0 0 131.82 37.11" style="enable-background:new 0 0 131.82 37.11;" xml:space="preserve">
<style type="text/css">
	.st0{fill:url(#SVGID_1_);}
	.st1{fill:#A26935;}
	.st2{fill:#6A2919;}
</style>
<g>
	<g>
		<linearGradient id="SVGID_1_" gradientUnits="userSpaceOnUse" x1="5.5403" y1="-10.1618" x2="125.324" y2="46.7151">
			<stop  offset="0.1108" style="stop-color:#FCD170"/>
			<stop  offset="0.2664" style="stop-color:#F8D018"/>
			<stop  offset="0.573" style="stop-color:#FCD170"/>
			<stop  offset="0.6892" style="stop-color:#F8D018"/>
			<stop  offset="1" style="stop-color:#FCD170"/>
		</linearGradient>
		<path class="st0" d="M131.02,16.84l-5.36-4.21V8.29c0-0.83-0.49-1.59-1.24-1.94c-2.27-1.04-4.11-2.85-5.18-5.1
			c-0.35-0.74-1.1-1.21-1.92-1.21H14.56c-0.82,0-1.57,0.47-1.92,1.21c-1.07,2.25-2.92,4.06-5.18,5.1C6.69,6.7,6.21,7.46,6.21,8.29
			v4.33l-5.36,4.21c-0.51,0.4-0.81,1.02-0.81,1.68c0,0.65,0.3,1.27,0.81,1.68l5.36,4.21v4.33c0,0.83,0.49,1.59,1.24,1.94
			c2.27,1.04,4.11,2.85,5.18,5.1c0.35,0.74,1.1,1.21,1.92,1.21h102.75c0.82,0,1.57-0.47,1.92-1.21c1.07-2.25,2.92-4.06,5.18-5.1
			c0.76-0.35,1.24-1.1,1.24-1.94v-4.33l5.36-4.21c0.51-0.4,0.81-1.02,0.81-1.68C131.83,17.86,131.53,17.24,131.02,16.84z"/>
		<g>
			<path class="st1" d="M117.64,35.39H14.22l-0.15-0.3c-1.24-2.59-3.35-4.67-5.96-5.87L7.8,29.08v-5.45l-6.5-5.11l6.5-5.11V7.95
				L8.12,7.8c2.61-1.2,4.72-3.28,5.96-5.87l0.15-0.3h103.43l0.15,0.3c1.24,2.59,3.35,4.67,5.96,5.87l0.31,0.14v5.45l6.5,5.11
				l-6.5,5.11v5.45l-0.31,0.14c-2.61,1.2-4.72,3.28-5.96,5.87L117.64,35.39z M14.89,34.33h102.09c1.31-2.57,3.43-4.65,6.02-5.92
				v-5.29l5.85-4.6l-5.85-4.6V8.63c-2.59-1.27-4.71-3.36-6.02-5.92H14.89c-1.31,2.57-3.43,4.65-6.02,5.92v5.29l-5.85,4.6l5.85,4.6
				v5.29C11.46,29.67,13.58,31.76,14.89,34.33z"/>
		</g>
		<g>
			<g>
				<path class="st2" d="M117.13,17.85c0.11,0.75,0,1.4-0.84,1.67c-0.44,0.14-0.83-0.04-1.08-0.36c-0.31-0.4-0.34-0.9-0.04-1.3
					C115.8,17.03,116.48,17.4,117.13,17.85L117.13,17.85z"/>
			</g>
			<g>
				<path class="st2" d="M16.87,17.85c0.11,0.75,0,1.4-0.84,1.67c-0.44,0.14-0.83-0.04-1.08-0.36c-0.31-0.4-0.34-0.9-0.04-1.3
					C15.54,17.03,16.22,17.4,16.87,17.85L16.87,17.85z"/>
			</g>
		</g>
	</g>
</g>
</svg>
