<?xml version="1.0" encoding="utf-8"?>
<!-- Generator: Adobe Illustrator 23.0.3, SVG Export Plug-In . SVG Version: 6.00 Build 0)  -->
<svg version="1.1" id="圖層_1" xmlns="http://www.w3.org/2000/svg" xmlns:xlink="http://www.w3.org/1999/xlink" x="0px" y="0px"
	 viewBox="0 0 279.19 54.45" style="enable-background:new 0 0 279.19 54.45;" xml:space="preserve">
<style type="text/css">
	.st0{fill:url(#SVGID_1_);}
	.st1{fill:#A26935;}
	.st2{fill:#6A2919;}
</style>
<g>
	<g>
		<linearGradient id="SVGID_1_" gradientUnits="userSpaceOnUse" x1="12.1899" y1="-32.8402" x2="264.1273" y2="86.7873">
			<stop  offset="0.1108" style="stop-color:#FCD170"/>
			<stop  offset="0.2664" style="stop-color:#F8D018"/>
			<stop  offset="0.573" style="stop-color:#FCD170"/>
			<stop  offset="0.6892" style="stop-color:#F8D018"/>
			<stop  offset="1" style="stop-color:#FCD170"/>
		</linearGradient>
		<path class="st0" d="M276.79,25.05l-7.76-6.1v-6.27c0-1.21-0.7-2.3-1.8-2.8c-3.28-1.51-5.95-4.13-7.5-7.38
			c-0.51-1.07-1.59-1.75-2.78-1.75H21.47c-1.19,0-2.27,0.68-2.78,1.75c-1.55,3.25-4.22,5.88-7.5,7.38c-1.1,0.5-1.8,1.6-1.8,2.8v6.27
			l-7.76,6.1c-0.74,0.58-1.18,1.48-1.18,2.43s0.43,1.84,1.18,2.43L9.39,36v6.27c0,1.21,0.7,2.3,1.8,2.8
			c3.28,1.51,5.95,4.13,7.5,7.38c0.51,1.07,1.59,1.75,2.78,1.75h235.49c1.19,0,2.27-0.68,2.78-1.75c1.55-3.25,4.22-5.88,7.5-7.38
			c1.1-0.5,1.8-1.6,1.8-2.8V36l7.76-6.1c0.74-0.58,1.18-1.48,1.18-2.43S277.54,25.63,276.79,25.05z"/>
		<g>
			<path class="st1" d="M257.44,51.9H20.98l-0.21-0.44c-1.79-3.74-4.85-6.75-8.62-8.49l-0.45-0.21v-7.89l-9.41-7.4l9.41-7.4v-7.89
				l0.45-0.21c3.77-1.73,6.84-4.75,8.62-8.49l0.21-0.44h236.46l0.21,0.44c1.79,3.74,4.85,6.75,8.62,8.49l0.45,0.21v7.89l9.41,7.4
				l-9.41,7.4v7.89l-0.45,0.21c-3.77,1.73-6.84,4.75-8.62,8.49L257.44,51.9z M21.95,50.35h234.53c1.89-3.71,4.96-6.73,8.71-8.57
				v-7.66l8.46-6.65l-8.46-6.65v-7.66c-3.75-1.84-6.81-4.86-8.71-8.57H21.95c-1.89,3.71-4.96,6.73-8.71,8.57v7.66l-8.46,6.65
				l8.46,6.65v7.66C16.99,43.62,20.05,46.64,21.95,50.35z"/>
		</g>
		<g>
			<g>
				<path class="st2" d="M256.7,26.51c0.16,1.09,0,2.03-1.22,2.41c-0.64,0.2-1.2-0.05-1.57-0.53c-0.45-0.57-0.49-1.3-0.05-1.88
					C254.77,25.32,255.76,25.86,256.7,26.51L256.7,26.51z"/>
			</g>
			<g>
				<path class="st2" d="M24.82,26.51c0.16,1.09,0,2.03-1.22,2.41c-0.64,0.2-1.2-0.05-1.57-0.53c-0.45-0.57-0.49-1.3-0.05-1.88
					C22.89,25.32,23.87,25.86,24.82,26.51L24.82,26.51z"/>
			</g>
		</g>
	</g>
</g>
</svg>
