<svg xmlns="http://www.w3.org/2000/svg" viewBox="0 0 244.57 46.61"><defs><style>.cls-1{isolation:isolate;}.cls-2,.cls-3{fill:#f9dc69;}.cls-3,.cls-7{mix-blend-mode:screen;}.cls-4{fill:#eea23a;}.cls-5{fill:#c07e2d;}.cls-11,.cls-6{fill:#daad5e;}.cls-10,.cls-6{mix-blend-mode:multiply;}.cls-7{fill:#b04622;}.cls-8{fill:#fae899;}.cls-9{fill:#fff;}</style></defs><title>資產 4</title><g class="cls-1"><g id="圖層_2" data-name="圖層 2"><g id="圖層_13" data-name="圖層 13"><path class="cls-2" d="M20.21,3.52h.21l.14,0,.17,0,.19-.08a1,1,0,0,0,.21-.11l5.55,8.87L37,12.48s0,.09,0,.15a2.11,2.11,0,0,0,0,.25c0,.08,0,.16.05.25l.09.23a1.13,1.13,0,0,0,.12.21,1.66,1.66,0,0,0,.73.63h0l-4.84,9.11,4.78,9a.82.82,0,0,0-.2.12h0a1.88,1.88,0,0,0-.44.45.21.21,0,0,1,0,.06.56.56,0,0,0-.09.17,1.68,1.68,0,0,0-.17.74,2,2,0,0,0,0,.25s0,0,0,.05l-10.3.36-5.54,8.86a1.6,1.6,0,0,0-.68-.25l-.25,0a1.47,1.47,0,0,0-.48.07l-.2.06s0,0,0,0l-.2.11-5.53-8.85L3.52,34.13a1.49,1.49,0,0,0,0-.21,1.15,1.15,0,0,0,0-.26,1.5,1.5,0,0,0-.15-.51L3.25,33a0,0,0,0,1,0,0l-.14-.17-.18-.18h0l-.18-.13h0a1.13,1.13,0,0,0-.21-.12l4.8-9L2.48,14.23l.22-.12a1.76,1.76,0,0,0,.54-.51l.13-.23.09-.23a1,1,0,0,0,0-.25,1.15,1.15,0,0,0,0-.26.71.71,0,0,0,0-.15l10.24-.35L19.3,3.26l.2.12s0,0,0,0l.2.07A1.8,1.8,0,0,0,20.21,3.52Zm0,38.11,5.51-8.8,10.38-.36-4.89-9.16,4.89-9.17-10.38-.36L20.21,5l-5.49,8.81-10.38.36,4.88,9.17L4.34,32.47l10.38.36Z"/><path class="cls-2" d="M2.73,32.45l.18.13h0l.18.18c0,.06.09.12.14.17a0,0,0,0,0,0,0l.11.19a1.5,1.5,0,0,1,.15.51,1.15,1.15,0,0,1,0,.26,1.49,1.49,0,0,1,0,.21,1.73,1.73,0,1,1-1.72-2,1.67,1.67,0,0,1,.71.15l.21.12Z"/><path class="cls-2" d="M21.13,43.35h0A1.72,1.72,0,0,1,22,44.82a1.74,1.74,0,1,1-2.65-1.48l.2-.11s0,0,0,0l.2-.06a1.47,1.47,0,0,1,.48-.07l.25,0A1.86,1.86,0,0,1,21.13,43.35Z"/><path class="cls-2" d="M38.69,32.1a1.74,1.74,0,1,1-1.71,2,2,2,0,0,1,0-.25,1.68,1.68,0,0,1,.17-.74l.09-.17a.21.21,0,0,0,0-.06,2.08,2.08,0,0,1,.44-.45h0l.2-.12h0A1.73,1.73,0,0,1,38.69,32.1Z"/><path class="cls-2" d="M40.43,12.63a1.74,1.74,0,0,1-1.74,1.73A1.69,1.69,0,0,1,38,14.2h0a1.79,1.79,0,0,1-.73-.63l-.12-.21L37,13.13c0-.09,0-.17-.05-.25a2,2,0,0,1,0-.25c0-.06,0-.1,0-.15a1.73,1.73,0,0,1,1.72-1.6A1.74,1.74,0,0,1,40.43,12.63Z"/><path class="cls-2" d="M20.21.05a1.74,1.74,0,0,1,.92,3.21,1,1,0,0,1-.21.11l-.19.08-.17,0-.14,0h-.21a1.8,1.8,0,0,1-.48-.06l-.2-.07s0,0,0,0l-.2-.12a1.72,1.72,0,0,1-.83-1.47A1.74,1.74,0,0,1,20.21.05Z"/><path class="cls-2" d="M3.52,12.48a.68.68,0,0,1,0,.15,1.09,1.09,0,0,1,0,.26,1,1,0,0,1,0,.25l-.09.23a1.71,1.71,0,0,1-.13.23,1.76,1.76,0,0,1-.54.51l-.22.12a1.72,1.72,0,0,1-.68.13,1.74,1.74,0,1,1,1.73-1.88Z"/><path class="cls-2" d="M25.68,13.84a10.94,10.94,0,1,1-10.92,0,10.65,10.65,0,0,1,5.45-1.48A10.81,10.81,0,0,1,25.68,13.84Z"/><path class="cls-3" d="M28.49,16.16a11,11,0,0,0-2.81-2.32,9.54,9.54,0,0,0-1.4-.68A87.24,87.24,0,0,0,10.12,27.49a10.91,10.91,0,0,0,3.6,4.59C18.05,26.18,23.34,21.24,28.49,16.16Z"/><path class="cls-3" d="M29.85,18.16a143.65,143.65,0,0,0-13,15.54c.42.13.86.24,1.3.33A92.9,92.9,0,0,1,30.39,19.32,11.16,11.16,0,0,0,29.85,18.16Z"/><path class="cls-4" d="M9.29,23.31a10.92,10.92,0,0,0,5.47,9.46l0,.06L4.34,32.47l4.88-9.16Z"/><path class="cls-4" d="M25.68,32.77l0,.06-5.51,8.8-5.49-8.8,0-.06a10.94,10.94,0,0,0,10.92,0Z"/><path class="cls-4" d="M31.21,23.31l4.89,9.16-10.38.36,0-.06a10.92,10.92,0,0,0,5.47-9.46Z"/><path class="cls-4" d="M36.1,14.14l-4.89,9.17h-.06a10.91,10.91,0,0,0-5.47-9.47l0-.06Z"/><path class="cls-4" d="M20.21,5l5.51,8.81,0,.06a10.81,10.81,0,0,0-5.47-1.47,10.65,10.65,0,0,0-5.45,1.48l0-.07Z"/><path class="cls-4" d="M4.34,14.14l10.38-.36,0,.07a10.89,10.89,0,0,0-5.47,9.46H9.22Z"/><path class="cls-5" d="M14.69,32.87,9.51,32.8l-5.19-.1H4l.17-.33c1.57-3.08,3.19-6.14,4.8-9.2v.29c-1.65-3-3.26-6.1-4.87-9.16l-.24-.45h.5l10.38-.22-.14.08,2.79-4.38c.92-1.46,1.85-2.93,2.75-4.4l.11-.17.1.17q2.76,4.39,5.57,8.76l-.16-.09,10.38.25h.5l-.24.45-4.82,9.19v-.35c1.65,3,3.27,6.1,4.89,9.16l.29.55-.62,0c-3.46.11-6.92.23-10.38.3L26,33l-5.6,8.74L20.2,42,20,41.75c-.9-1.48-1.81-3-2.7-4.44Zm0-.07,2.85,4.36c1,1.44,1.87,2.91,2.81,4.37H20l5.4-8.87.09-.15h.18c3.45-.17,6.91-.29,10.37-.41l-.32.56q-2.46-4.57-4.87-9.17l-.1-.18.1-.17L35.81,14l.26.46L25.7,14h-.11l-.06-.09Q22.85,9.45,20.1,5h.21q-1.39,2.19-2.74,4.41l-2.72,4.42,0,.08h-.1l-10.37.5L4.6,14c1.64,3,3.29,6.1,4.89,9.17l.07.15-.07.14c-1.65,3.05-3.28,6.1-5,9.13l-.19-.34,5.18.26Z"/><path class="cls-5" d="M20.21,34.61a11.31,11.31,0,1,1,11.3-11.3A11.31,11.31,0,0,1,20.21,34.61Zm0-21.86A10.56,10.56,0,1,0,30.76,23.31,10.58,10.58,0,0,0,20.21,12.75Z"/><path class="cls-4" d="M21.24,43.87l-.32-.2a1.36,1.36,0,0,0-1.44,0l-.31.2-5.63-9L3.09,34.49l.05-.4c0-.1,0-.13,0-.17a1.36,1.36,0,0,0-.82-1.24L2,32.52l4.9-9.21L2,14l.37-.16a1.36,1.36,0,0,0,.84-1.26l0-.5,10.42-.36,5.63-9,.32.2a1.34,1.34,0,0,0,1.43,0l.32-.2,5.63,9,10.49.36,0,.47a1.37,1.37,0,0,0,.8,1.27l.36.17-4.94,9.28,4.87,9.15-.34.17a1.36,1.36,0,0,0-.75,1.21,1.79,1.79,0,0,0,0,.23l.07.42-10.54.36Zm-1-1.16a2.13,2.13,0,0,1,.79.15l5.46-8.74,10.12-.35a2.1,2.1,0,0,1,.84-1.6l-4.72-8.86,4.77-9a2.13,2.13,0,0,1-.88-1.49l-10.13-.36L21,3.75a2.13,2.13,0,0,1-1.57,0L14,12.49l-10.08.35A2.09,2.09,0,0,1,3,14.38l4.75,8.93L3,32.19a2.12,2.12,0,0,1,.9,1.58L14,34.12l5.46,8.74A2,2,0,0,1,20.2,42.71Z"/><path class="cls-6" d="M20.2,15.19a1.22,1.22,0,1,0,1.21,1.22A1.22,1.22,0,0,0,20.2,15.19Z"/><path class="cls-6" d="M20.2,28.84a1.22,1.22,0,1,0,0,2.43,1.22,1.22,0,0,0,0-2.43Z"/><path class="cls-7" d="M20.37,15.26a1.22,1.22,0,1,0,0,2.43,1.22,1.22,0,0,0,0-2.43Z"/><path class="cls-7" d="M20.37,28.91a1.22,1.22,0,1,0,0,2.43,1.22,1.22,0,0,0,0-2.43Z"/><path class="cls-4" d="M18.79,2.75A2.17,2.17,0,0,0,20,3a1.46,1.46,0,0,0,.47-.13,1.17,1.17,0,0,0,.38-.24,1.69,1.69,0,0,0,.52-.76,2.22,2.22,0,0,0,0-1.26l.05,0A1.76,1.76,0,0,1,22,1.88a1.86,1.86,0,0,1-.63,1.31,1.79,1.79,0,0,1-2.62-.39Z"/><path class="cls-8" d="M21.4.59a2.4,2.4,0,0,0-1.14,0l-.06,0s0,0-.05,0a.33.33,0,0,0-.13,0l-.17.08a1.46,1.46,0,0,0-.33.22,1.87,1.87,0,0,0-.51.65,2.4,2.4,0,0,0-.21,1.13l-.07,0a1.77,1.77,0,0,1-.3-1.25A1.77,1.77,0,0,1,19,.4a1.78,1.78,0,0,1,2.41.14Z"/><path class="cls-4" d="M18.91,45.93a2.22,2.22,0,0,0,1.22.09l.06,0s0,0,.06,0,.12,0,.13,0a1.07,1.07,0,0,0,.19-.09,1.48,1.48,0,0,0,.35-.25,1.61,1.61,0,0,0,.48-.76,2.17,2.17,0,0,0,0-1.22l.05,0A1.72,1.72,0,0,1,22,44.85,1.77,1.77,0,0,1,18.86,46Z"/><path class="cls-8" d="M21.4,43.62a2.22,2.22,0,0,0-1.18,0,1.3,1.3,0,0,0-.41.18,1,1,0,0,0-.33.24,1.82,1.82,0,0,0-.48.71,2.3,2.3,0,0,0-.09,1.18l-.05,0A1.79,1.79,0,0,1,19,43.49a1.8,1.8,0,0,1,2.48.07Z"/><path class="cls-4" d="M.49,13.71a2.13,2.13,0,0,0,1.26.12,1.77,1.77,0,0,0,.46-.19,1.17,1.17,0,0,0,.35-.28A1.61,1.61,0,0,0,3,12.52a2.11,2.11,0,0,0-.17-1.25l.05-.06a1.8,1.8,0,0,1,.23,2.67,1.8,1.8,0,0,1-1.37.53,1.74,1.74,0,0,1-1.3-.65Z"/><path class="cls-8" d="M2.82,11.27a2.55,2.55,0,0,0-1.14.16,2.11,2.11,0,0,0-.66.46,1.84,1.84,0,0,0-.43.69,2.45,2.45,0,0,0-.1,1.13l-.06,0A1.79,1.79,0,0,1,0,12.56a1.83,1.83,0,0,1,.48-1.19,1.82,1.82,0,0,1,2.39-.16Z"/><path class="cls-4" d="M.57,35.11a2.37,2.37,0,0,0,1.21,0,1.73,1.73,0,0,0,.76-.45A1.77,1.77,0,0,0,3,33.93a2.25,2.25,0,0,0,0-1.21l.06,0a1.77,1.77,0,0,1,0,2.54,1.81,1.81,0,0,1-1.28.51,1.8,1.8,0,0,1-1.26-.56Z"/><path class="cls-8" d="M3,32.72a2.29,2.29,0,0,0-1.2,0,1.7,1.7,0,0,0-.76.45,1.72,1.72,0,0,0-.45.74,2.28,2.28,0,0,0,0,1.2l-.06,0A1.77,1.77,0,0,1,0,33.91a1.82,1.82,0,0,1,.52-1.28,1.8,1.8,0,0,1,1.28-.5,1.77,1.77,0,0,1,1.25.54Z"/><path class="cls-4" d="M37.33,13.66a2.2,2.2,0,0,0,1.23.16s.11,0,.1,0l.17,0,.19-.09a1.11,1.11,0,0,0,.36-.25,1.63,1.63,0,0,0,.51-.76,2.26,2.26,0,0,0,0-1.24l.06-.05a1.76,1.76,0,0,1,.53,1.31,1.77,1.77,0,0,1-3.19,1Z"/><path class="cls-8" d="M39.89,11.42a2.4,2.4,0,0,0-1.17,0s-.23.06-.23.08l-.18.09a1.55,1.55,0,0,0-.33.24,1.77,1.77,0,0,0-.5.68,1.86,1.86,0,0,0-.08.25,1.22,1.22,0,0,0,0,.25,2.72,2.72,0,0,0,0,.65l-.06.05a1.77,1.77,0,0,1,1.47-2.88,1.81,1.81,0,0,1,1.2.54Z"/><path class="cls-4" d="M37.44,35a2.33,2.33,0,0,0,1.19,0s.23,0,.24-.07l.18-.1a1.56,1.56,0,0,0,.34-.23,1.77,1.77,0,0,0,.49-.71s0-.09,0-.1a.53.53,0,0,1,0-.16.87.87,0,0,0,0-.25,2.53,2.53,0,0,0,0-.67l0,0A1.8,1.8,0,0,1,40.47,34a1.74,1.74,0,0,1-1.87,1.66,1.79,1.79,0,0,1-1.21-.58Z"/><path class="cls-8" d="M40,32.75a2.25,2.25,0,0,0-1.22-.11l-.1,0c-.05,0-.14,0-.15,0l-.19.09A1.21,1.21,0,0,0,38,33a1.8,1.8,0,0,0-.5.74,2.31,2.31,0,0,0,0,1.22l0,0a1.79,1.79,0,0,1-.5-1.3,1.85,1.85,0,0,1,.59-1.27,1.87,1.87,0,0,1,1.34-.43A1.8,1.8,0,0,1,40,32.7Z"/><circle class="cls-9" cx="1.18" cy="12.24" r="0.63"/><circle class="cls-9" cx="19.61" cy="1.19" r="0.63"/><circle class="cls-9" cx="37.97" cy="12.02" r="0.63"/><circle class="cls-9" cx="37.97" cy="33.32" r="0.63"/><circle class="cls-9" cx="19.51" cy="44.22" r="0.63"/><circle class="cls-9" cx="1.18" cy="33.32" r="0.63"/><g class="cls-10"><path class="cls-11" d="M13,21.81l.62-.43-.72,1.38,0-.72a1.67,1.67,0,0,0-.73-.23c-.43,0-.58.2-.58.4,0,.41.32.53,1,.75a1,1,0,0,1-.34,1.88,1.67,1.67,0,0,1-1.09-.41l-.62.43.7-1.24a1,1,0,0,0,.84.89.55.55,0,0,0,.61-.5c0-.73-1.79-.56-1.79-1.68,0-.43.33-.87,1.1-.87A1.62,1.62,0,0,1,13,21.81Z"/><path class="cls-11" d="M15.18,21.38l-.47.25-.06,1.2,1.24,0,0-1-.44-.26,1.42-.09-.54.44.09,2.42.5.33H15.24l.6-.4,0-1.13-1.25,0-.05,1,.35.36H13.76l.41-.34L14,21.67l-.52-.32Z"/><path class="cls-11" d="M19.56,24.63l-2.71.11.6-.61.17-2.22-.72-.36,2.58-.18,0,1.13-.45-.8-1.1.17L18,23l.25,0,.5-.66,0,1.52-.43-.63-.35.05,0,1,1.08.1.41-1Z"/><path class="cls-11" d="M22.18,24.87c-.28,0-1.15-.83-1.43-1.11l0,.6.51.28-1.53.11.51-.47.09-2.43-.62-.3c1.25-.07,1.7-.06,1.83-.06.41,0,1.09.21,1.09.84,0,.19-.11,1.07-1.8,1.1a3.12,3.12,0,0,0,1.41.76.65.65,0,0,0,.62-.42C22.71,24.65,22.3,24.87,22.18,24.87Zm-1.32-3h-.15l0,1.29c.6,0,1.22-.26,1.22-.67S21.86,21.83,20.86,21.83Z"/><path class="cls-11" d="M23.92,22.11,24,24.28l.5.35-1.71.15.59-.49L23.52,22l-.5-.39,1.46.09Z"/><path class="cls-11" d="M27.1,22.5l-.38-.83-1.23.24,0,.89h.37l.4-.59v1.47L25.88,23l-.33,0,.06,1.21.71.3-1.84.19L25,24.3l.13-2.3-.66-.58,2.62-.1Z"/><path class="cls-11" d="M29.7,22.5l-.38-.83-1.23.24,0,.89h.37l.4-.59v1.47L28.48,23l-.33,0,.06,1.21.71.3-1.84.19.53-.47.12-2.3-.65-.58,2.62-.1Z"/></g><path class="cls-5" d="M218.78,32.87l-5.17-.07-5.19-.1h-.36l.16-.33c1.58-3.08,3.2-6.14,4.81-9.2v.29c-1.66-3-3.27-6.1-4.88-9.16l-.23-.45h.5l10.38-.22-.14.08,2.78-4.38c.93-1.46,1.86-2.93,2.76-4.4l.1-.17.11.17c1.83,2.93,3.7,5.85,5.57,8.76l-.17-.09,10.38.25h.51l-.24.45-4.82,9.19v-.35c1.65,3,3.26,6.1,4.88,9.16l.29.55-.61,0c-3.46.11-6.92.23-10.38.3l.26-.15-5.6,8.74-.18.29-.18-.29c-.89-1.48-1.81-3-2.69-4.44Zm.05-.07,2.85,4.36c.95,1.44,1.87,2.91,2.8,4.37h-.36l5.41-8.87.08-.15h.18c3.46-.17,6.92-.29,10.38-.41l-.33.56q-2.44-4.57-4.87-9.17l-.09-.18.09-.17L239.9,14l.27.46L229.8,14h-.11l-.06-.09c-1.8-3-3.6-5.91-5.43-8.85h.21c-.93,1.46-1.84,2.93-2.75,4.41L219,13.87l0,.08h-.09l-10.37.5.26-.46c1.64,3,3.28,6.1,4.88,9.17l.08.15-.08.14c-1.64,3.05-3.27,6.1-5,9.13l-.19-.34,5.18.26Z"/><path class="cls-5" d="M224.3,34.61a11.31,11.31,0,1,1,11.31-11.3A11.31,11.31,0,0,1,224.3,34.61Zm0-21.86a10.56,10.56,0,1,0,10.56,10.56A10.57,10.57,0,0,0,224.3,12.75Z"/><path class="cls-4" d="M225.34,43.87l-.32-.2a1.36,1.36,0,0,0-1.44,0l-.32.2-5.62-9-10.45-.36,0-.4a.71.71,0,0,0,0-.17,1.37,1.37,0,0,0-.81-1.24l-.37-.16,4.9-9.21L206,14l.38-.16a1.35,1.35,0,0,0,.83-1.26l0-.5,10.42-.36,5.63-9,.31.2a1.36,1.36,0,0,0,1.44,0l.32-.2,5.63,9,10.48.36,0,.47a1.38,1.38,0,0,0,.79,1.27l.36.17-4.93,9.28,4.87,9.15-.34.17a1.34,1.34,0,0,0-.75,1.21,1.79,1.79,0,0,0,0,.23l.06.42L231,34.85Zm-1-1.16a2.08,2.08,0,0,1,.78.15l5.47-8.74,10.12-.35a2.09,2.09,0,0,1,.83-1.6l-4.71-8.86,4.77-9a2.1,2.1,0,0,1-.88-1.49l-10.13-.36-5.47-8.74a2.1,2.1,0,0,1-1.56,0l-5.46,8.74L208,12.84a2.16,2.16,0,0,1-.92,1.54l4.75,8.93-4.73,8.88a2.09,2.09,0,0,1,.9,1.58l10.07.35,5.46,8.74A2.08,2.08,0,0,1,224.3,42.71Z"/><path class="cls-6" d="M224.3,15.19a1.22,1.22,0,1,0,1.21,1.22A1.22,1.22,0,0,0,224.3,15.19Z"/><path class="cls-6" d="M224.3,28.84a1.22,1.22,0,1,0,0,2.43,1.22,1.22,0,0,0,0-2.43Z"/><path class="cls-7" d="M224.46,15.26a1.22,1.22,0,1,0,1.22,1.22A1.22,1.22,0,0,0,224.46,15.26Z"/><path class="cls-4" d="M222.89,2.75a2.16,2.16,0,0,0,1.24.23,1.53,1.53,0,0,0,.47-.13,1,1,0,0,0,.37-.24,1.63,1.63,0,0,0,.53-.76,2.22,2.22,0,0,0,0-1.26l.05,0a1.76,1.76,0,0,1,.53,1.34,1.79,1.79,0,0,1-.63,1.31,1.82,1.82,0,0,1-1.4.38,1.84,1.84,0,0,1-1.22-.77Z"/><path class="cls-8" d="M225.5.59a2.45,2.45,0,0,0-1.15,0l0,0s0,0-.05,0-.12,0-.13,0L224,.75a1.27,1.27,0,0,0-.33.22,1.89,1.89,0,0,0-.52.65,2.53,2.53,0,0,0-.21,1.13l-.06,0A1.78,1.78,0,0,1,223.14.4a1.8,1.8,0,0,1,1.24-.4,1.83,1.83,0,0,1,1.17.54Z"/><path class="cls-4" d="M223,45.93a2.21,2.21,0,0,0,1.22.09l.06,0s0,0,.06,0a.28.28,0,0,0,.13,0,1.54,1.54,0,0,0,.19-.09,1.48,1.48,0,0,0,.35-.25,1.69,1.69,0,0,0,.48-.76,2.27,2.27,0,0,0,0-1.22l.05,0a1.78,1.78,0,0,1,0,2.57,1.83,1.83,0,0,1-1.33.47A1.79,1.79,0,0,1,223,46Z"/><path class="cls-8" d="M225.5,43.62a2.22,2.22,0,0,0-1.18,0,1.36,1.36,0,0,0-.42.18,1.27,1.27,0,0,0-.33.24,1.82,1.82,0,0,0-.48.71,2.43,2.43,0,0,0-.08,1.18L223,46A1.76,1.76,0,0,1,224.33,43a1.78,1.78,0,0,1,1.22.53Z"/><path class="cls-4" d="M204.58,13.71a2.17,2.17,0,0,0,1.27.12,1.56,1.56,0,0,0,.45-.19,1.09,1.09,0,0,0,.36-.28,1.61,1.61,0,0,0,.43-.84,2.19,2.19,0,0,0-.17-1.25l0-.06a1.77,1.77,0,0,1-1.13,3.2,1.74,1.74,0,0,1-1.3-.65Z"/><path class="cls-8" d="M206.92,11.27a2.55,2.55,0,0,0-1.14.16,2.11,2.11,0,0,0-.66.46,1.84,1.84,0,0,0-.43.69,2.44,2.44,0,0,0-.11,1.13l-.05,0a1.8,1.8,0,0,1,.05-2.39,1.84,1.84,0,0,1,1.17-.53,1.8,1.8,0,0,1,1.21.37Z"/><path class="cls-4" d="M204.67,35.11a2.37,2.37,0,0,0,1.21,0,1.79,1.79,0,0,0,.76-.45,1.66,1.66,0,0,0,.45-.75,2.23,2.23,0,0,0,0-1.21l0,0a1.76,1.76,0,0,1,.54,1.26,1.77,1.77,0,0,1-.52,1.28,1.83,1.83,0,0,1-1.29.51,1.79,1.79,0,0,1-1.25-.56Z"/><path class="cls-8" d="M207.09,32.72a2.3,2.3,0,0,0-1.2,0,1.66,1.66,0,0,0-.75.45,1.73,1.73,0,0,0-.46.74,2.39,2.39,0,0,0,0,1.2l0,0a1.8,1.8,0,0,1,0-2.53,1.79,1.79,0,0,1,2.52,0Z"/><path class="cls-4" d="M241.43,13.66a2.18,2.18,0,0,0,1.23.16s.11,0,.1,0l.17,0,.18-.09a1.05,1.05,0,0,0,.37-.25,1.54,1.54,0,0,0,.5-.76,2.15,2.15,0,0,0,0-1.24l.05-.05A1.78,1.78,0,0,1,244,14a1.77,1.77,0,0,1-1.37.43,1.82,1.82,0,0,1-1.23-.7Z"/><path class="cls-8" d="M244,11.42a2.36,2.36,0,0,0-1.16,0s-.23.06-.23.08l-.18.09a1.33,1.33,0,0,0-.33.24,1.77,1.77,0,0,0-.5.68,1.86,1.86,0,0,0-.08.25,1.22,1.22,0,0,0-.05.25,2.28,2.28,0,0,0,0,.65l-.06.05a1.84,1.84,0,0,1-.37-1.26,1.79,1.79,0,0,1,.59-1.19,1.83,1.83,0,0,1,1.25-.43,1.76,1.76,0,0,1,1.19.54Z"/><path class="cls-4" d="M241.54,35a2.29,2.29,0,0,0,1.18,0S243,35,243,35a.81.81,0,0,0,.18-.1,1.2,1.2,0,0,0,.34-.23,1.79,1.79,0,0,0,.5-.71.51.51,0,0,1,0-.1,1.57,1.57,0,0,1,0-.16.85.85,0,0,0,0-.25,2.57,2.57,0,0,0,0-.67l.06,0a1.8,1.8,0,0,1,.43,1.27A1.87,1.87,0,0,1,244,35.2a1.84,1.84,0,0,1-1.29.43,1.78,1.78,0,0,1-1.2-.58Z"/><path class="cls-8" d="M244.09,32.75a2.25,2.25,0,0,0-1.22-.11s-.1,0-.1,0-.14,0-.16,0l-.18.09a1.21,1.21,0,0,0-.35.24,1.63,1.63,0,0,0-.5.74,2.31,2.31,0,0,0,0,1.22l-.06,0a1.8,1.8,0,0,1,.1-2.57,1.79,1.79,0,0,1,2.56.22Z"/><circle class="cls-9" cx="205.27" cy="12.24" r="0.63"/><circle class="cls-9" cx="223.71" cy="1.19" r="0.63"/><circle class="cls-9" cx="242.07" cy="12.02" r="0.63"/><circle class="cls-9" cx="242.07" cy="33.32" r="0.63"/><circle class="cls-9" cx="223.61" cy="44.22" r="0.63"/><circle class="cls-9" cx="205.27" cy="33.32" r="0.63"/><path class="cls-5" d="M167.76,32.87l-5.17-.07-5.19-.1H157l.17-.33c1.58-3.08,3.19-6.14,4.8-9.2v.29c-1.65-3-3.26-6.1-4.87-9.16l-.23-.45h.49l10.38-.22-.13.08,2.78-4.38q1.4-2.19,2.76-4.4l.1-.17.1.17q2.76,4.39,5.57,8.76l-.16-.09,10.38.25h.5l-.23.45-4.83,9.19v-.35c1.65,3,3.27,6.1,4.89,9.16l.29.55-.62,0c-3.46.11-6.92.23-10.38.3l.27-.15-5.6,8.74-.19.29-.17-.29c-.9-1.48-1.81-3-2.69-4.44Zm0-.07,2.85,4.36c.95,1.44,1.87,2.91,2.81,4.37h-.36l5.4-8.87.09-.15h.18c3.46-.17,6.92-.29,10.38-.41l-.33.56q-2.46-4.57-4.87-9.17l-.1-.18.1-.17L188.88,14l.27.46L178.77,14h-.11l0-.09c-1.8-3-3.6-5.91-5.43-8.85h.2c-.93,1.46-1.83,2.93-2.74,4.41l-2.71,4.42-.05.08h-.09l-10.38.5.27-.46c1.64,3,3.28,6.1,4.88,9.17l.08.15-.08.14c-1.64,3.05-3.28,6.1-4.95,9.13l-.2-.34,5.19.26Z"/><path class="cls-5" d="M173.28,34.61a11.31,11.31,0,1,1,11.3-11.3A11.31,11.31,0,0,1,173.28,34.61Zm0-21.86a10.56,10.56,0,1,0,10.55,10.56A10.57,10.57,0,0,0,173.28,12.75Z"/><path class="cls-4" d="M174.31,43.87l-.32-.2a1.34,1.34,0,0,0-1.43,0l-.32.2-5.62-9-10.46-.36.05-.4c0-.1,0-.13,0-.17a1.37,1.37,0,0,0-.81-1.24l-.37-.16,4.9-9.21L155,14l.37-.16a1.36,1.36,0,0,0,.84-1.26l0-.5,10.43-.36,5.62-9,.32.2a1.36,1.36,0,0,0,1.44,0l.31-.2,5.64,9,10.48.36,0,.47a1.36,1.36,0,0,0,.79,1.27l.36.17-4.94,9.28,4.87,9.15-.34.17a1.36,1.36,0,0,0-.75,1.21.91.91,0,0,0,0,.23l.06.42L180,34.85Zm-1-1.16a2.13,2.13,0,0,1,.79.15l5.46-8.74,10.13-.35a2.09,2.09,0,0,1,.83-1.6l-4.71-8.86,4.76-9a2.09,2.09,0,0,1-.87-1.49l-10.14-.36-5.46-8.74a2.1,2.1,0,0,1-1.56,0L167,12.49,157,12.84a2.09,2.09,0,0,1-.92,1.54l4.76,8.93-4.73,8.88a2.12,2.12,0,0,1,.9,1.58l10.07.35,5.46,8.74A2.07,2.07,0,0,1,173.27,42.71Z"/><path class="cls-6" d="M173.27,15.19a1.22,1.22,0,1,0,1.22,1.22A1.22,1.22,0,0,0,173.27,15.19Z"/><path class="cls-6" d="M173.27,28.84a1.22,1.22,0,1,0,1.22,1.22A1.22,1.22,0,0,0,173.27,28.84Z"/><path class="cls-7" d="M173.44,15.26a1.22,1.22,0,1,0,1.22,1.22A1.22,1.22,0,0,0,173.44,15.26Z"/><path class="cls-4" d="M171.87,2.75A2.14,2.14,0,0,0,173.1,3a1.46,1.46,0,0,0,.47-.13,1.17,1.17,0,0,0,.38-.24,1.55,1.55,0,0,0,.52-.76,2.06,2.06,0,0,0,0-1.26l.06,0a1.79,1.79,0,0,1,.53,1.34,1.82,1.82,0,0,1-.63,1.31,1.79,1.79,0,0,1-2.62-.39Z"/><path class="cls-8" d="M174.47.59a2.41,2.41,0,0,0-1.14,0l-.06,0s0,0-.05,0-.11,0-.12,0l-.18.08a1.46,1.46,0,0,0-.33.22,1.87,1.87,0,0,0-.51.65,2.4,2.4,0,0,0-.21,1.13l-.06,0a1.73,1.73,0,0,1-.31-1.25A1.74,1.74,0,0,1,172.12.4a1.8,1.8,0,0,1,1.24-.4,1.85,1.85,0,0,1,1.17.54Z"/><path class="cls-4" d="M172,45.93a2.21,2.21,0,0,0,1.22.09l.06,0s0,0,0,0a.29.29,0,0,0,.14,0,1,1,0,0,0,.18-.09,1.36,1.36,0,0,0,.36-.25,1.77,1.77,0,0,0,.48-.76,2.19,2.19,0,0,0,0-1.22l.06,0a1.79,1.79,0,0,1,0,2.57,1.78,1.78,0,0,1-2.57-.16Z"/><path class="cls-8" d="M174.47,43.62a2.22,2.22,0,0,0-1.18,0,1.3,1.3,0,0,0-.41.18,1.12,1.12,0,0,0-.33.24,1.82,1.82,0,0,0-.48.71,2.31,2.31,0,0,0-.08,1.18l-.06,0a1.79,1.79,0,0,1,.11-2.49A1.79,1.79,0,0,1,173.3,43a1.82,1.82,0,0,1,1.23.53Z"/><path class="cls-4" d="M153.56,13.71a2.13,2.13,0,0,0,1.26.12,1.63,1.63,0,0,0,.46-.19,1.06,1.06,0,0,0,.35-.28,1.54,1.54,0,0,0,.43-.84,2,2,0,0,0-.17-1.25l.05-.06a1.79,1.79,0,0,1,.71,1.27,1.75,1.75,0,0,1-1.85,1.93,1.74,1.74,0,0,1-1.3-.65Z"/><path class="cls-8" d="M155.89,11.27a2.57,2.57,0,0,0-1.14.16,2,2,0,0,0-.65.46,1.86,1.86,0,0,0-.44.69,2.45,2.45,0,0,0-.1,1.13l-.06,0a1.78,1.78,0,0,1,.06-2.39,1.8,1.8,0,0,1,2.38-.16Z"/><path class="cls-4" d="M153.65,35.11a2.33,2.33,0,0,0,1.2,0,1.73,1.73,0,0,0,.76-.45,1.68,1.68,0,0,0,.46-.75,2.34,2.34,0,0,0,0-1.21l.05,0a1.8,1.8,0,0,1,.54,1.26,1.76,1.76,0,0,1-1.81,1.79,1.77,1.77,0,0,1-1.25-.56Z"/><path class="cls-8" d="M156.07,32.72a2.29,2.29,0,0,0-1.2,0,1.61,1.61,0,0,0-.75.45,1.64,1.64,0,0,0-.46.74,2.28,2.28,0,0,0,0,1.2l-.05,0a1.78,1.78,0,0,1-.53-1.25,1.86,1.86,0,0,1,.52-1.28,1.8,1.8,0,0,1,1.28-.5,1.77,1.77,0,0,1,1.25.54Z"/><path class="cls-4" d="M190.41,13.66a2.18,2.18,0,0,0,1.23.16s.11,0,.09,0l.18,0,.18-.09a1,1,0,0,0,.36-.25,1.56,1.56,0,0,0,.51-.76,2.24,2.24,0,0,0,0-1.24l0-.05A1.78,1.78,0,0,1,193,14a1.77,1.77,0,0,1-1.37.43,1.8,1.8,0,0,1-1.23-.7Z"/><path class="cls-8" d="M193,11.42a2.4,2.4,0,0,0-1.17,0s-.22.06-.23.08l-.17.09a1.39,1.39,0,0,0-.34.24,1.86,1.86,0,0,0-.49.68.73.73,0,0,0-.08.25.76.76,0,0,0-.06.25,2.76,2.76,0,0,0,0,.65l-.06.05a1.8,1.8,0,0,1-.38-1.26,1.74,1.74,0,0,1,1.84-1.62,1.81,1.81,0,0,1,1.2.54Z"/><path class="cls-4" d="M190.51,35a2.33,2.33,0,0,0,1.19,0s.23,0,.24-.07l.18-.1a1.56,1.56,0,0,0,.34-.23,1.89,1.89,0,0,0,.5-.71.51.51,0,0,1,0-.1.57.57,0,0,1,0-.16,1.37,1.37,0,0,0,.05-.25,3.1,3.1,0,0,0,0-.67l.06,0a1.84,1.84,0,0,1,.42,1.27,1.74,1.74,0,0,1-1.87,1.66,1.79,1.79,0,0,1-1.21-.58Z"/><path class="cls-8" d="M193.06,32.75a2.22,2.22,0,0,0-1.21-.11l-.11,0c-.05,0-.13,0-.15,0l-.18.09a1.13,1.13,0,0,0-.36.24,1.8,1.8,0,0,0-.5.74,2.31,2.31,0,0,0,0,1.22l0,0a1.78,1.78,0,0,1-.49-1.3,1.81,1.81,0,0,1,.59-1.27,1.79,1.79,0,0,1,2.56.22Z"/><circle class="cls-9" cx="154.25" cy="12.24" r="0.63"/><circle class="cls-9" cx="172.68" cy="1.19" r="0.63"/><circle class="cls-9" cx="191.04" cy="12.02" r="0.63"/><circle class="cls-9" cx="191.04" cy="33.32" r="0.63"/><circle class="cls-9" cx="172.58" cy="44.22" r="0.63"/><circle class="cls-9" cx="154.25" cy="33.32" r="0.63"/><path class="cls-5" d="M116.74,32.87l-5.18-.07-5.19-.1H106l.17-.33c1.57-3.08,3.19-6.14,4.8-9.2v.29c-1.66-3-3.26-6.1-4.87-9.16l-.24-.45h.5l10.38-.22-.14.08,2.79-4.38c.92-1.46,1.85-2.93,2.75-4.4l.1-.17.11.17q2.76,4.39,5.57,8.76l-.17-.09,10.39.25h.5l-.24.45-4.82,9.19v-.35q2.47,4.56,4.88,9.16l.29.55-.61,0c-3.46.11-6.92.23-10.38.3L128,33l-5.59,8.74-.19.29-.18-.29c-.89-1.48-1.81-3-2.69-4.44Zm0-.07,2.85,4.36c1,1.44,1.87,2.91,2.81,4.37h-.37l5.41-8.87.09-.15h.18c3.45-.17,6.91-.29,10.37-.41l-.33.56q-2.44-4.57-4.87-9.17l-.09-.18.09-.17L137.86,14l.26.46L127.75,14h-.11l-.06-.09Q124.9,9.45,122.15,5h.21Q121,7.23,119.62,9.45l-2.72,4.42,0,.08h-.1l-10.37.5.26-.46c1.64,3,3.29,6.1,4.88,9.17l.08.15-.08.14c-1.64,3.05-3.27,6.1-5,9.13l-.19-.34,5.18.26Z"/><path class="cls-5" d="M122.26,34.61a11.31,11.31,0,1,1,11.3-11.3A11.32,11.32,0,0,1,122.26,34.61Zm0-21.86a10.56,10.56,0,1,0,10.55,10.56A10.58,10.58,0,0,0,122.26,12.75Z"/><path class="cls-4" d="M123.29,43.87l-.32-.2a1.36,1.36,0,0,0-1.44,0l-.31.2-5.63-9-10.45-.36,0-.4a1.39,1.39,0,0,0,0-.17,1.35,1.35,0,0,0-.81-1.24l-.37-.16,4.9-9.21L104,14l.38-.16a1.35,1.35,0,0,0,.83-1.26l0-.5,10.42-.36,5.63-9,.31.2a1.36,1.36,0,0,0,1.44,0l.32-.2,5.63,9,10.48.36,0,.47a1.37,1.37,0,0,0,.8,1.27l.36.17-4.94,9.28,4.87,9.15-.34.17a1.36,1.36,0,0,0-.75,1.21,1.79,1.79,0,0,0,0,.23l.07.42-10.54.36Zm-1-1.16a2.13,2.13,0,0,1,.79.15l5.46-8.74,10.12-.35a2.07,2.07,0,0,1,.84-1.6l-4.72-8.86,4.77-9a2.13,2.13,0,0,1-.88-1.49l-10.13-.36L123,3.75a2.13,2.13,0,0,1-1.57,0L116,12.49l-10.07.35a2.09,2.09,0,0,1-.92,1.54l4.75,8.93L105,32.19a2.13,2.13,0,0,1,.91,1.58l10.06.35,5.46,8.74A2.08,2.08,0,0,1,122.25,42.71Z"/><path class="cls-6" d="M122.25,15.19a1.22,1.22,0,1,0,1.21,1.22A1.22,1.22,0,0,0,122.25,15.19Z"/><path class="cls-6" d="M122.25,28.84a1.22,1.22,0,1,0,0,2.43,1.22,1.22,0,0,0,0-2.43Z"/><path class="cls-7" d="M122.42,15.26a1.22,1.22,0,1,0,1.21,1.22A1.22,1.22,0,0,0,122.42,15.26Z"/><path class="cls-4" d="M120.84,2.75a2.16,2.16,0,0,0,1.24.23,1.46,1.46,0,0,0,.47-.13,1.17,1.17,0,0,0,.38-.24,1.69,1.69,0,0,0,.52-.76,2.22,2.22,0,0,0,0-1.26l0,0A1.76,1.76,0,0,1,124,1.88a1.83,1.83,0,0,1-.64,1.31,1.81,1.81,0,0,1-1.4.38,1.88,1.88,0,0,1-1.22-.77Z"/><path class="cls-8" d="M123.45.59a2.45,2.45,0,0,0-1.15,0l0,0s0,0,0,0-.12,0-.13,0l-.17.08a1.27,1.27,0,0,0-.33.22,1.87,1.87,0,0,0-.51.65,2.39,2.39,0,0,0-.22,1.13l-.06,0a1.77,1.77,0,0,1-.31-1.25A1.83,1.83,0,0,1,121.09.4a1.78,1.78,0,0,1,2.41.14Z"/><path class="cls-4" d="M121,45.93a2.22,2.22,0,0,0,1.22.09l.06,0s0,0,.06,0,.12,0,.13,0a1.07,1.07,0,0,0,.19-.09,1.48,1.48,0,0,0,.35-.25,1.69,1.69,0,0,0,.48-.76,2.27,2.27,0,0,0,0-1.22l0,0a1.78,1.78,0,0,1,0,2.57,1.82,1.82,0,0,1-1.33.47,1.79,1.79,0,0,1-1.24-.63Z"/><path class="cls-8" d="M123.45,43.62a2.22,2.22,0,0,0-1.18,0,1.3,1.3,0,0,0-.41.18,1.16,1.16,0,0,0-.34.24,1.8,1.8,0,0,0-.47.71,2.3,2.3,0,0,0-.09,1.18l0,0a1.77,1.77,0,0,1-.45-1.26,1.81,1.81,0,0,1,.56-1.23,1.8,1.8,0,0,1,2.48.07Z"/><path class="cls-4" d="M102.53,13.71a2.17,2.17,0,0,0,1.27.12,1.56,1.56,0,0,0,.45-.19,1.09,1.09,0,0,0,.36-.28,1.61,1.61,0,0,0,.43-.84,2.19,2.19,0,0,0-.17-1.25l0-.06a1.77,1.77,0,0,1-1.13,3.2,1.74,1.74,0,0,1-1.3-.65Z"/><path class="cls-8" d="M104.87,11.27a2.55,2.55,0,0,0-1.14.16,2.11,2.11,0,0,0-.66.46,1.84,1.84,0,0,0-.43.69,2.45,2.45,0,0,0-.1,1.13l-.06,0a1.8,1.8,0,0,1,0-2.39,1.84,1.84,0,0,1,1.17-.53,1.8,1.8,0,0,1,1.21.37Z"/><path class="cls-4" d="M102.62,35.11a2.37,2.37,0,0,0,1.21,0,1.79,1.79,0,0,0,.76-.45,1.77,1.77,0,0,0,.46-.75,2.35,2.35,0,0,0,0-1.21l0,0a1.76,1.76,0,0,1,.54,1.26,1.77,1.77,0,0,1-.52,1.28,1.83,1.83,0,0,1-1.29.51,1.79,1.79,0,0,1-1.25-.56Z"/><path class="cls-8" d="M105,32.72a2.3,2.3,0,0,0-1.2,0,1.82,1.82,0,0,0-1.2,1.19,2.37,2.37,0,0,0,0,1.2l-.05,0a1.8,1.8,0,0,1,0-2.53,1.8,1.8,0,0,1,1.28-.5,1.77,1.77,0,0,1,1.24.54Z"/><path class="cls-4" d="M139.38,13.66a2.19,2.19,0,0,0,1.23.16s.11,0,.1,0l.17,0,.19-.09a1.11,1.11,0,0,0,.36-.25,1.54,1.54,0,0,0,.5-.76,2.15,2.15,0,0,0,0-1.24l.06-.05a1.84,1.84,0,0,1,.53,1.31,1.79,1.79,0,0,1-.6,1.3,1.76,1.76,0,0,1-1.36.43,1.82,1.82,0,0,1-1.24-.7Z"/><path class="cls-8" d="M141.93,11.42a2.37,2.37,0,0,0-1.16,0s-.23.06-.23.08l-.18.09a1.33,1.33,0,0,0-.33.24,1.77,1.77,0,0,0-.5.68,1.86,1.86,0,0,0-.08.25,1.22,1.22,0,0,0,0,.25,2.72,2.72,0,0,0,0,.65l-.06.05a1.84,1.84,0,0,1-.37-1.26,1.79,1.79,0,0,1,.59-1.19,1.83,1.83,0,0,1,1.25-.43,1.76,1.76,0,0,1,1.19.54Z"/><path class="cls-4" d="M139.49,35a2.29,2.29,0,0,0,1.18,0s.23,0,.24-.07a.81.81,0,0,0,.18-.1,1.2,1.2,0,0,0,.34-.23,1.69,1.69,0,0,0,.5-.71.51.51,0,0,1,0-.1,1.57,1.57,0,0,1,0-.16.62.62,0,0,0,.05-.25,2.53,2.53,0,0,0,0-.67l.05,0a1.8,1.8,0,0,1,.43,1.27,1.87,1.87,0,0,1-.59,1.23,1.83,1.83,0,0,1-1.28.43,1.79,1.79,0,0,1-1.21-.58Z"/><path class="cls-8" d="M142,32.75a2.25,2.25,0,0,0-1.22-.11l-.1,0c-.05,0-.14,0-.15,0l-.19.09A1.21,1.21,0,0,0,140,33a1.8,1.8,0,0,0-.5.74,2.31,2.31,0,0,0,0,1.22l-.05,0a1.79,1.79,0,0,1-.5-1.3,1.85,1.85,0,0,1,.59-1.27,1.87,1.87,0,0,1,1.34-.43,1.8,1.8,0,0,1,1.22.65Z"/><circle class="cls-9" cx="103.22" cy="12.24" r="0.63"/><circle class="cls-9" cx="121.66" cy="1.19" r="0.63"/><circle class="cls-9" cx="140.02" cy="12.02" r="0.63"/><circle class="cls-9" cx="140.02" cy="33.32" r="0.63"/><circle class="cls-9" cx="121.56" cy="44.22" r="0.63"/><circle class="cls-9" cx="103.22" cy="33.32" r="0.63"/><path class="cls-5" d="M65.71,32.87l-5.17-.07-5.19-.1H55l.17-.33c1.58-3.08,3.2-6.14,4.8-9.2v.29c-1.65-3-3.26-6.1-4.87-9.16l-.23-.45h.49l10.39-.22-.14.08,2.78-4.38q1.39-2.19,2.76-4.4l.1-.17.1.17c1.84,2.93,3.71,5.85,5.58,8.76l-.17-.09,10.38.25h.5l-.23.45-4.82,9.19v-.35q2.46,4.56,4.88,9.16l.29.55-.62,0c-3.46.11-6.92.23-10.38.3L77,33l-5.6,8.74-.18.29-.18-.29c-.9-1.48-1.81-3-2.69-4.44Zm0-.07,2.85,4.36c1,1.44,1.88,2.91,2.81,4.37h-.36l5.4-8.87.09-.15h.18c3.46-.17,6.92-.29,10.38-.41l-.33.56c-1.63-3-3.27-6.1-4.87-9.17l-.09-.18.09-.17L86.83,14l.27.46L76.73,14h-.12l0-.09C74.76,10.93,73,8,71.13,5h.2q-1.38,2.19-2.74,4.41l-2.71,4.42,0,.08h-.09l-10.37.5.26-.46c1.64,3,3.28,6.1,4.88,9.17l.08.15-.08.14c-1.64,3.05-3.28,6.1-4.95,9.13l-.2-.34,5.19.26Z"/><path class="cls-5" d="M71.23,34.61a11.31,11.31,0,1,1,11.3-11.3A11.31,11.31,0,0,1,71.23,34.61Zm0-21.86A10.56,10.56,0,1,0,81.79,23.31,10.57,10.57,0,0,0,71.23,12.75Z"/><path class="cls-4" d="M72.26,43.87l-.31-.2a1.36,1.36,0,0,0-1.44,0l-.32.2-5.62-9-10.46-.36,0-.4c0-.1,0-.13,0-.17a1.37,1.37,0,0,0-.81-1.24L53,32.52l4.9-9.21L53,14l.38-.16a1.37,1.37,0,0,0,.83-1.26l0-.5,10.43-.36,5.62-9,.32.2a1.36,1.36,0,0,0,1.44,0l.31-.2,5.64,9,10.48.36,0,.47a1.36,1.36,0,0,0,.79,1.27l.36.17-4.94,9.28,4.87,9.15-.34.17a1.36,1.36,0,0,0-.75,1.21,1.81,1.81,0,0,0,0,.23l.06.42-10.53.36Zm-1-1.16a2.13,2.13,0,0,1,.79.15l5.46-8.74,10.13-.35a2.09,2.09,0,0,1,.83-1.6l-4.71-8.86,4.77-9a2.1,2.1,0,0,1-.88-1.49l-10.14-.36L72,3.75a2.1,2.1,0,0,1-1.56,0L65,12.49l-10.07.35A2.16,2.16,0,0,1,54,14.38l4.75,8.93L54,32.19a2.12,2.12,0,0,1,.9,1.58L65,34.12l5.46,8.74A2.07,2.07,0,0,1,71.22,42.71Z"/><path class="cls-6" d="M71.22,15.19a1.22,1.22,0,1,0,1.22,1.22A1.22,1.22,0,0,0,71.22,15.19Z"/><path class="cls-6" d="M71.22,28.84a1.22,1.22,0,1,0,1.22,1.22A1.22,1.22,0,0,0,71.22,28.84Z"/><path class="cls-7" d="M71.39,15.26a1.22,1.22,0,1,0,1.22,1.22A1.22,1.22,0,0,0,71.39,15.26Z"/><path class="cls-4" d="M69.82,2.75A2.16,2.16,0,0,0,71.06,3a1.47,1.47,0,0,0,.46-.13,1.17,1.17,0,0,0,.38-.24,1.63,1.63,0,0,0,.53-.76,2.22,2.22,0,0,0,0-1.26l0,0A1.79,1.79,0,0,1,73,1.88a1.82,1.82,0,0,1-.63,1.31,1.79,1.79,0,0,1-2.62-.39Z"/><path class="cls-8" d="M72.43.59a2.45,2.45,0,0,0-1.15,0l-.06,0s0,0,0,0-.11,0-.12,0l-.17.08a1.33,1.33,0,0,0-.34.22,1.87,1.87,0,0,0-.51.65,2.53,2.53,0,0,0-.21,1.13l-.06,0A1.78,1.78,0,0,1,70.07.4,1.8,1.8,0,0,1,71.31,0a1.83,1.83,0,0,1,1.17.54Z"/><path class="cls-4" d="M69.94,45.93a2.21,2.21,0,0,0,1.22.09l.06,0s0,0,0,0a.29.29,0,0,0,.14,0,1.54,1.54,0,0,0,.19-.09A1.48,1.48,0,0,0,72,45.6a1.77,1.77,0,0,0,.48-.76,2.27,2.27,0,0,0,0-1.22l0,0a1.8,1.8,0,0,1,0,2.57A1.79,1.79,0,0,1,69.88,46Z"/><path class="cls-8" d="M72.43,43.62a2.22,2.22,0,0,0-1.18,0,1.36,1.36,0,0,0-.42.18,1.12,1.12,0,0,0-.33.24,1.82,1.82,0,0,0-.48.71,2.43,2.43,0,0,0-.08,1.18l-.06,0A1.82,1.82,0,0,1,70,43.49,1.8,1.8,0,0,1,71.26,43a1.82,1.82,0,0,1,1.22.53Z"/><path class="cls-4" d="M51.51,13.71a2.17,2.17,0,0,0,1.27.12,1.56,1.56,0,0,0,.45-.19,1,1,0,0,0,.35-.28,1.54,1.54,0,0,0,.43-.84,2.09,2.09,0,0,0-.16-1.25l0-.06a1.79,1.79,0,0,1,.71,1.27,1.82,1.82,0,0,1-.48,1.4,1.78,1.78,0,0,1-1.36.53,1.72,1.72,0,0,1-1.3-.65Z"/><path class="cls-8" d="M53.85,11.27a2.53,2.53,0,0,0-1.14.16,2.11,2.11,0,0,0-.66.46,1.86,1.86,0,0,0-.44.69,2.6,2.6,0,0,0-.1,1.13l-.06,0a1.81,1.81,0,0,1,.06-2.39,1.84,1.84,0,0,1,1.17-.53,1.81,1.81,0,0,1,1.21.37Z"/><path class="cls-4" d="M51.6,35.11a2.37,2.37,0,0,0,1.21,0,1.75,1.75,0,0,0,.75-.45,1.68,1.68,0,0,0,.46-.75,2.34,2.34,0,0,0,0-1.21l0,0a1.76,1.76,0,0,1,.54,1.26,1.77,1.77,0,0,1-.52,1.28,1.83,1.83,0,0,1-1.29.51,1.79,1.79,0,0,1-1.25-.56Z"/><path class="cls-8" d="M54,32.72a2.29,2.29,0,0,0-1.2,0,1.66,1.66,0,0,0-.75.45,1.73,1.73,0,0,0-.46.74,2.28,2.28,0,0,0,0,1.2l-.05,0A1.78,1.78,0,0,1,51,33.91a1.86,1.86,0,0,1,.52-1.28,1.8,1.8,0,0,1,1.28-.5,1.77,1.77,0,0,1,1.25.54Z"/><path class="cls-4" d="M88.36,13.66a2.18,2.18,0,0,0,1.23.16s.11,0,.09,0l.18,0,.18-.09a1.15,1.15,0,0,0,.37-.25,1.61,1.61,0,0,0,.5-.76,2.15,2.15,0,0,0,0-1.24l0-.05A1.78,1.78,0,0,1,90.9,14a1.77,1.77,0,0,1-1.37.43,1.82,1.82,0,0,1-1.23-.7Z"/><path class="cls-8" d="M90.91,11.42a2.36,2.36,0,0,0-1.16,0s-.23.06-.23.08l-.18.09a1.33,1.33,0,0,0-.33.24,1.77,1.77,0,0,0-.5.68,1.86,1.86,0,0,0-.08.25.76.76,0,0,0-.06.25,2.76,2.76,0,0,0,0,.65l-.06.05a1.8,1.8,0,0,1-.38-1.26,1.84,1.84,0,0,1,.59-1.19,1.88,1.88,0,0,1,1.26-.43,1.8,1.8,0,0,1,1.19.54Z"/><path class="cls-4" d="M88.47,35a2.29,2.29,0,0,0,1.18,0s.23,0,.24-.07l.18-.1a1.36,1.36,0,0,0,.34-.23,1.89,1.89,0,0,0,.5-.71.51.51,0,0,1,0-.1,1.57,1.57,0,0,1,0-.16.85.85,0,0,0,0-.25,2.57,2.57,0,0,0,0-.67l.06,0a1.82,1.82,0,0,1-.16,2.5,1.84,1.84,0,0,1-1.29.43,1.81,1.81,0,0,1-1.21-.58Z"/><path class="cls-8" d="M91,32.75a2.21,2.21,0,0,0-1.21-.11l-.11,0s-.13,0-.15,0l-.18.09A1.26,1.26,0,0,0,89,33a1.69,1.69,0,0,0-.49.74,2.12,2.12,0,0,0,0,1.22l-.06,0a1.78,1.78,0,0,1-.49-1.3,1.81,1.81,0,0,1,.59-1.27,1.79,1.79,0,0,1,2.56.22Z"/><circle class="cls-9" cx="52.2" cy="12.24" r="0.63"/><circle class="cls-9" cx="70.63" cy="1.19" r="0.63"/><circle class="cls-9" cx="88.99" cy="12.02" r="0.63"/><circle class="cls-9" cx="88.99" cy="33.32" r="0.63"/><circle class="cls-9" cx="70.54" cy="44.22" r="0.63"/><circle class="cls-9" cx="52.2" cy="33.32" r="0.63"/></g></g></g></svg>