<svg xmlns="http://www.w3.org/2000/svg" viewBox="0 0 253.67 46.61"><defs><style>.cls-1{isolation:isolate;}.cls-2,.cls-3{fill:#f9dc69;}.cls-3,.cls-7{mix-blend-mode:screen;}.cls-4{fill:#eea23a;}.cls-5{fill:#c07e2d;}.cls-11,.cls-6{fill:#daad5e;}.cls-10,.cls-6{mix-blend-mode:multiply;}.cls-7{fill:#b04622;}.cls-8{fill:#fae899;}.cls-9{fill:#fff;}</style></defs><title>資產 2</title><g class="cls-1"><g id="圖層_2" data-name="圖層 2"><g id="圖層_13" data-name="圖層 13"><path class="cls-2" d="M180.1,3.52h.21l.14,0,.18,0,.19-.08.21-.11,5.54,8.87,10.29.35s0,.09,0,.15a1.07,1.07,0,0,0,0,.25,1.23,1.23,0,0,0,.05.25,1.09,1.09,0,0,0,.09.23,1.13,1.13,0,0,0,.12.21,1.63,1.63,0,0,0,.72.63h0L193,23.31l4.78,9-.2.12h0a1.88,1.88,0,0,0-.44.45l0,.06a.89.89,0,0,0-.08.17,1.56,1.56,0,0,0-.18.74,1,1,0,0,0,0,.25s0,0,0,.05l-10.31.36L181,43.35a1.7,1.7,0,0,0-.68-.25l-.26,0a1.51,1.51,0,0,0-.48.07l-.19.06,0,0-.2.11-5.54-8.85-10.24-.36c0-.07,0-.14,0-.21a2.28,2.28,0,0,0,0-.26,1.32,1.32,0,0,0-.16-.51,1.3,1.3,0,0,0-.11-.19,0,0,0,0,1,0,0,1.77,1.77,0,0,0-.14-.17l-.17-.18h0l-.18-.13h0a.94.94,0,0,0-.22-.12l4.8-9-4.83-9.08.22-.12a1.65,1.65,0,0,0,.54-.51,1.34,1.34,0,0,0,.13-.23,1.6,1.6,0,0,0,.1-.23,1.84,1.84,0,0,0,0-.25,2.28,2.28,0,0,0,0-.26.71.71,0,0,0,0-.15l10.24-.35,5.54-8.87a.82.82,0,0,0,.2.12h0l.19.07A1.86,1.86,0,0,0,180.1,3.52Zm0,38.11,5.5-8.8L196,32.47l-4.88-9.16L196,14.14l-10.38-.36L180.11,5l-5.5,8.81-10.38.36,4.89,9.17-4.89,9.16,10.38.36Z"/><path class="cls-2" d="M162.62,32.45l.18.13h0l.17.18.14.17a0,0,0,0,0,0,0,.93.93,0,0,1,.11.19,1.32,1.32,0,0,1,.16.51,2.28,2.28,0,0,1,0,.26c0,.07,0,.14,0,.21a1.74,1.74,0,1,1-1.72-2,1.66,1.66,0,0,1,.7.15l.22.12Z"/><path class="cls-2" d="M181,43.35h0a1.74,1.74,0,1,1-1.84,0l.2-.11,0,0,.19-.06a1.51,1.51,0,0,1,.48-.07l.26,0A1.93,1.93,0,0,1,181,43.35Z"/><path class="cls-2" d="M198.59,32.1a1.74,1.74,0,1,1-1.71,2,1,1,0,0,1,0-.25,1.56,1.56,0,0,1,.18-.74l.08-.17,0-.06a2.08,2.08,0,0,1,.44-.45h0l.2-.12h0A1.74,1.74,0,0,1,198.59,32.1Z"/><path class="cls-2" d="M200.32,12.63a1.73,1.73,0,0,1-1.73,1.73,1.77,1.77,0,0,1-.73-.16h0a1.76,1.76,0,0,1-.72-.63,2.25,2.25,0,0,1-.12-.21,1.36,1.36,0,0,1-.09-.23,1.23,1.23,0,0,1-.05-.25,1,1,0,0,1,0-.25c0-.06,0-.1,0-.15a1.73,1.73,0,0,1,3.46.15Z"/><path class="cls-2" d="M180.1.05A1.74,1.74,0,0,1,181,3.26l-.21.11-.19.08-.18,0-.14,0h-.21a1.86,1.86,0,0,1-.48-.06l-.19-.07h0a1.32,1.32,0,0,1-.2-.12,1.7,1.7,0,0,1-.83-1.47A1.73,1.73,0,0,1,180.1.05Z"/><path class="cls-2" d="M163.42,12.48s0,.09,0,.15a2.11,2.11,0,0,1,0,.26,1.84,1.84,0,0,1,0,.25,1.6,1.6,0,0,1-.1.23,1,1,0,0,1-.13.23,1.65,1.65,0,0,1-.54.51,1.14,1.14,0,0,1-.22.12,1.67,1.67,0,0,1-.67.13,1.74,1.74,0,1,1,1.72-1.88Z"/><path class="cls-2" d="M185.58,13.84a10.94,10.94,0,1,1-10.93,0,10.68,10.68,0,0,1,5.46-1.48A10.81,10.81,0,0,1,185.58,13.84Z"/><path class="cls-3" d="M188.38,16.16a11,11,0,0,0-2.8-2.32,10.63,10.63,0,0,0-1.4-.68A86.45,86.45,0,0,0,170,27.49a10.91,10.91,0,0,0,3.6,4.59C177.94,26.18,183.23,21.24,188.38,16.16Z"/><path class="cls-3" d="M189.74,18.16a143.65,143.65,0,0,0-13,15.54c.43.13.86.24,1.31.33a93.38,93.38,0,0,1,12.23-14.71A11.16,11.16,0,0,0,189.74,18.16Z"/><path class="cls-4" d="M169.18,23.31a10.92,10.92,0,0,0,5.47,9.46l0,.06-10.38-.36,4.89-9.16Z"/><path class="cls-4" d="M185.58,32.77l0,.06-5.5,8.8-5.5-8.8,0-.06a11,11,0,0,0,10.93,0Z"/><path class="cls-4" d="M191.11,23.31,196,32.47l-10.38.36,0-.06A10.93,10.93,0,0,0,191,23.31Z"/><path class="cls-4" d="M196,14.14l-4.88,9.17H191a10.92,10.92,0,0,0-5.46-9.47l0-.06Z"/><path class="cls-4" d="M180.11,5l5.5,8.81,0,.06a10.81,10.81,0,0,0-5.47-1.47,10.68,10.68,0,0,0-5.46,1.48l0-.07Z"/><path class="cls-4" d="M164.23,14.14l10.38-.36,0,.07a10.89,10.89,0,0,0-5.47,9.46h-.06Z"/><path class="cls-5" d="M174.58,32.87l-5.17-.07-5.19-.1h-.37l.17-.33c1.58-3.08,3.2-6.14,4.81-9.2v.29c-1.66-3-3.27-6.1-4.88-9.16l-.23-.45h.5l10.38-.22-.14.08,2.78-4.38q1.39-2.19,2.76-4.4l.1-.17.1.17c1.84,2.93,3.71,5.85,5.58,8.76l-.17-.09,10.38.25h.5l-.23.45-4.82,9.19v-.35c1.65,3,3.26,6.1,4.88,9.16l.29.55-.62,0c-3.46.11-6.91.23-10.38.3l.27-.15-5.6,8.74-.18.29-.18-.29c-.89-1.48-1.81-3-2.69-4.44Zm0-.07,2.86,4.36c1,1.44,1.87,2.91,2.8,4.37h-.36l5.4-8.87.09-.15h.18c3.46-.17,6.92-.29,10.38-.41l-.33.56c-1.63-3-3.27-6.1-4.87-9.17l-.09-.18.09-.17L195.7,14l.27.46L185.6,14h-.12l0-.09c-1.8-3-3.6-5.91-5.43-8.85h.2q-1.38,2.19-2.74,4.41l-2.71,4.42-.05.08h-.09l-10.37.5.26-.46c1.64,3,3.28,6.1,4.88,9.17l.08.15-.08.14c-1.64,3.05-3.28,6.1-4.95,9.13l-.2-.34,5.19.26Z"/><path class="cls-5" d="M180.1,34.61a11.31,11.31,0,1,1,11.3-11.3A11.31,11.31,0,0,1,180.1,34.61Zm0-21.86a10.56,10.56,0,1,0,10.56,10.56A10.57,10.57,0,0,0,180.1,12.75Z"/><path class="cls-4" d="M181.13,43.87l-.31-.2a1.36,1.36,0,0,0-1.44,0l-.32.2-5.62-9L163,34.49l0-.4a.71.71,0,0,0,0-.17,1.37,1.37,0,0,0-.81-1.24l-.37-.16,4.9-9.21L161.84,14l.38-.16a1.37,1.37,0,0,0,.83-1.26l0-.5,10.43-.36,5.62-9,.32.2a1.36,1.36,0,0,0,1.44,0l.32-.2,5.63,9,10.48.36,0,.47a1.36,1.36,0,0,0,.79,1.27l.36.17-4.94,9.28,4.87,9.15-.34.17a1.36,1.36,0,0,0-.75,1.21,1.81,1.81,0,0,0,0,.23l.06.42-10.53.36Zm-1-1.16a2.09,2.09,0,0,1,.79.15l5.47-8.74,10.12-.35a2.09,2.09,0,0,1,.83-1.6l-4.71-8.86,4.77-9a2.1,2.1,0,0,1-.88-1.49l-10.13-.36-5.47-8.74a2.1,2.1,0,0,1-1.56,0l-5.46,8.74-10.07.35a2.16,2.16,0,0,1-.92,1.54l4.75,8.93-4.73,8.88a2.09,2.09,0,0,1,.9,1.58l10.07.35,5.46,8.74A2.07,2.07,0,0,1,180.09,42.71Z"/><path class="cls-6" d="M180.09,15.19a1.22,1.22,0,1,0,1.22,1.22A1.22,1.22,0,0,0,180.09,15.19Z"/><path class="cls-6" d="M180.09,28.84a1.22,1.22,0,1,0,1.22,1.22A1.22,1.22,0,0,0,180.09,28.84Z"/><path class="cls-7" d="M180.26,15.26a1.22,1.22,0,1,0,1.22,1.22A1.22,1.22,0,0,0,180.26,15.26Z"/><path class="cls-7" d="M180.26,28.91a1.22,1.22,0,1,0,1.22,1.22A1.22,1.22,0,0,0,180.26,28.91Z"/><path class="cls-4" d="M178.69,2.75a2.16,2.16,0,0,0,1.24.23,1.47,1.47,0,0,0,.46-.13,1.07,1.07,0,0,0,.38-.24,1.63,1.63,0,0,0,.53-.76,2.22,2.22,0,0,0,0-1.26l0,0a1.79,1.79,0,0,1,.53,1.34,1.82,1.82,0,0,1-.63,1.31,1.8,1.8,0,0,1-2.62-.39Z"/><path class="cls-8" d="M181.3.59a2.45,2.45,0,0,0-1.15,0l-.05,0-.06,0s-.11,0-.12,0l-.17.08a1.27,1.27,0,0,0-.33.22,1.78,1.78,0,0,0-.52.65,2.53,2.53,0,0,0-.21,1.13l-.06,0A1.78,1.78,0,0,1,178.94.4a1.8,1.8,0,0,1,1.24-.4,1.83,1.83,0,0,1,1.17.54Z"/><path class="cls-4" d="M178.81,45.93A2.21,2.21,0,0,0,180,46l.06,0s0,0,.06,0a.28.28,0,0,0,.13,0,1.54,1.54,0,0,0,.19-.09,1.48,1.48,0,0,0,.35-.25,1.69,1.69,0,0,0,.48-.76,2.27,2.27,0,0,0,0-1.22l0,0a1.78,1.78,0,0,1,0,2.57,1.79,1.79,0,0,1-2.58-.16Z"/><path class="cls-8" d="M181.3,43.62a2.22,2.22,0,0,0-1.18,0,1.36,1.36,0,0,0-.42.18,1.12,1.12,0,0,0-.33.24,1.82,1.82,0,0,0-.48.71,2.43,2.43,0,0,0-.08,1.18l-.06,0a1.76,1.76,0,0,1-.44-1.26A1.73,1.73,0,0,1,180.13,43a1.78,1.78,0,0,1,1.22.53Z"/><path class="cls-4" d="M160.38,13.71a2.17,2.17,0,0,0,1.27.12,1.56,1.56,0,0,0,.45-.19,1.09,1.09,0,0,0,.36-.28,1.68,1.68,0,0,0,.43-.84,2.19,2.19,0,0,0-.17-1.25l0-.06a1.79,1.79,0,0,1,.71,1.27,1.85,1.85,0,0,1-.47,1.4,1.81,1.81,0,0,1-1.37.53,1.72,1.72,0,0,1-1.3-.65Z"/><path class="cls-8" d="M162.72,11.27a2.53,2.53,0,0,0-1.14.16,2.11,2.11,0,0,0-.66.46,1.86,1.86,0,0,0-.44.69,2.6,2.6,0,0,0-.1,1.13l0,0a1.74,1.74,0,0,1-.43-1.2,1.78,1.78,0,0,1,.48-1.19,1.84,1.84,0,0,1,1.17-.53,1.81,1.81,0,0,1,1.21.37Z"/><path class="cls-4" d="M160.47,35.11a2.37,2.37,0,0,0,1.21,0,1.75,1.75,0,0,0,.75-.45,1.68,1.68,0,0,0,.46-.75,2.23,2.23,0,0,0,0-1.21l.05,0a1.76,1.76,0,0,1,.54,1.26,1.77,1.77,0,0,1-.52,1.28,1.83,1.83,0,0,1-1.29.51,1.79,1.79,0,0,1-1.25-.56Z"/><path class="cls-8" d="M162.89,32.72a2.3,2.3,0,0,0-1.2,0,1.66,1.66,0,0,0-.75.45,1.73,1.73,0,0,0-.46.74,2.28,2.28,0,0,0,0,1.2l-.05,0a1.77,1.77,0,0,1-.52-1.25,1.73,1.73,0,0,1,1.79-1.78,1.77,1.77,0,0,1,1.25.54Z"/><path class="cls-4" d="M197.23,13.66a2.18,2.18,0,0,0,1.23.16s.11,0,.1,0l.17,0,.18-.09a1.05,1.05,0,0,0,.37-.25,1.61,1.61,0,0,0,.5-.76,2.15,2.15,0,0,0,0-1.24l.05-.05a1.78,1.78,0,0,1-.06,2.61,1.77,1.77,0,0,1-1.37.43,1.82,1.82,0,0,1-1.23-.7Z"/><path class="cls-8" d="M199.78,11.42a2.36,2.36,0,0,0-1.16,0s-.23.06-.23.08l-.18.09a1.33,1.33,0,0,0-.33.24,1.77,1.77,0,0,0-.5.68,1.86,1.86,0,0,0-.08.25.76.76,0,0,0-.06.25,2.76,2.76,0,0,0,0,.65l-.06.05a1.85,1.85,0,0,1-.38-1.26,1.75,1.75,0,0,1,1.85-1.62,1.78,1.78,0,0,1,1.19.54Z"/><path class="cls-4" d="M197.34,35a2.29,2.29,0,0,0,1.18,0s.23,0,.24-.07l.18-.1a1.36,1.36,0,0,0,.34-.23,1.79,1.79,0,0,0,.5-.71.51.51,0,0,1,0-.1,1.57,1.57,0,0,1,0-.16.85.85,0,0,0,.05-.25,2.57,2.57,0,0,0,0-.67l.06,0a1.75,1.75,0,0,1,.42,1.27,1.81,1.81,0,0,1-.58,1.23,1.84,1.84,0,0,1-1.29.43,1.81,1.81,0,0,1-1.21-.58Z"/><path class="cls-8" d="M199.88,32.75a2.21,2.21,0,0,0-1.21-.11l-.11,0s-.13,0-.15,0l-.18.09a1.26,1.26,0,0,0-.36.24,1.69,1.69,0,0,0-.49.74,2.12,2.12,0,0,0,0,1.22l-.06,0a1.78,1.78,0,0,1-.49-1.3,1.81,1.81,0,0,1,.59-1.27,1.79,1.79,0,0,1,2.56.22Z"/><circle class="cls-9" cx="161.07" cy="12.24" r="0.63"/><circle class="cls-9" cx="179.51" cy="1.19" r="0.63"/><circle class="cls-9" cx="197.86" cy="12.02" r="0.63"/><circle class="cls-9" cx="197.86" cy="33.32" r="0.63"/><circle class="cls-9" cx="179.41" cy="44.22" r="0.63"/><circle class="cls-9" cx="161.07" cy="33.32" r="0.63"/><g class="cls-10"><path class="cls-11" d="M172.93,21.81l.63-.43-.72,1.38-.06-.72a1.63,1.63,0,0,0-.73-.23c-.43,0-.58.2-.58.4,0,.41.33.53,1,.75a1,1,0,0,1,.79.9,1,1,0,0,1-1.13,1,1.64,1.64,0,0,1-1.08-.41l-.63.43.7-1.24a1,1,0,0,0,.85.89.54.54,0,0,0,.6-.5c0-.73-1.78-.56-1.78-1.68,0-.43.33-.87,1.09-.87A1.59,1.59,0,0,1,172.93,21.81Z"/><path class="cls-11" d="M175.08,21.38l-.47.25-.06,1.2,1.24,0,0-1-.45-.26,1.43-.09-.54.44.08,2.42.5.33h-1.71l.61-.4,0-1.13-1.25,0-.06,1,.36.36h-1.18l.42-.34-.15-2.49-.52-.32Z"/><path class="cls-11" d="M179.46,24.63l-2.71.11.6-.61.17-2.22-.73-.36,2.58-.18,0,1.13-.45-.8-1.1.17,0,1.14.25,0,.5-.66,0,1.52-.44-.63-.34.05,0,1,1.08.1.4-1Z"/><path class="cls-11" d="M182.08,24.87c-.29,0-1.15-.83-1.43-1.11l0,.6.51.28-1.53.11.51-.47.09-2.43-.63-.3c1.25-.07,1.71-.06,1.84-.06.41,0,1.09.21,1.09.84,0,.19-.11,1.07-1.81,1.1a3.1,3.1,0,0,0,1.42.76.66.66,0,0,0,.62-.42C182.6,24.65,182.2,24.87,182.08,24.87Zm-1.32-3h-.15l0,1.29c.61,0,1.22-.26,1.22-.67S181.75,21.83,180.76,21.83Z"/><path class="cls-11" d="M183.82,22.11l.07,2.17.5.35-1.71.15.59-.49.14-2.33-.5-.39,1.47.09Z"/><path class="cls-11" d="M187,22.5l-.39-.83-1.22.24,0,.89h.36l.4-.59v1.47l-.41-.65-.34,0,.07,1.21.71.3-1.84.19.52-.47L185,22l-.65-.58,2.62-.1Z"/><path class="cls-11" d="M189.6,22.5l-.39-.83-1.23.24.05.89h.36l.4-.59v1.47l-.42-.65-.33,0,.07,1.21.71.3-1.84.19.52-.47.13-2.3-.66-.58,2.63-.1Z"/></g><path class="cls-2" d="M126.8,3.52H127l.14,0,.18,0,.19-.08a1.39,1.39,0,0,0,.21-.11l5.54,8.87,10.29.35v.15a1.06,1.06,0,0,0,0,.25c0,.08,0,.16,0,.25a1.09,1.09,0,0,0,.09.23,1.13,1.13,0,0,0,.12.21,1.69,1.69,0,0,0,.72.63h0l-4.83,9.11,4.77,9-.2.12h0a1.75,1.75,0,0,0-.45.45s0,0,0,.06a.56.56,0,0,0-.09.17,1.68,1.68,0,0,0-.17.74,1,1,0,0,0,0,.25s0,0,0,.05l-10.31.36-5.53,8.86a1.65,1.65,0,0,0-.68-.25l-.26,0a1.51,1.51,0,0,0-.48.07l-.19.06s0,0,0,0l-.2.11-5.54-8.85-10.24-.36a1.48,1.48,0,0,0,0-.21,1.14,1.14,0,0,0,0-.26,1.32,1.32,0,0,0-.16-.51,1.3,1.3,0,0,0-.11-.19v0l-.15-.17-.17-.18a0,0,0,0,1,0,0l-.18-.13h0a.94.94,0,0,0-.22-.12l4.8-9-4.83-9.08.23-.12a1.88,1.88,0,0,0,.54-.51,2.53,2.53,0,0,0,.12-.23,1.6,1.6,0,0,0,.1-.23,1.84,1.84,0,0,0,0-.25,1.14,1.14,0,0,0,0-.26v-.15l10.23-.35,5.54-8.87a1.06,1.06,0,0,0,.2.12h0l.19.07A1.86,1.86,0,0,0,126.8,3.52Zm0,38.11,5.5-8.8,10.38-.36-4.88-9.16,4.88-9.17-10.38-.36L126.81,5l-5.5,8.81-10.38.36,4.89,9.17-4.89,9.16,10.38.36Z"/><path class="cls-2" d="M109.33,32.45l.18.13a0,0,0,0,0,0,0l.17.18.15.17v0a.93.93,0,0,1,.11.19,1.32,1.32,0,0,1,.16.51,1.14,1.14,0,0,1,0,.26,1.48,1.48,0,0,1,0,.21,1.74,1.74,0,1,1-1.72-2,1.63,1.63,0,0,1,.7.15l.22.12Z"/><path class="cls-2" d="M127.73,43.35h0a1.74,1.74,0,1,1-1.84,0l.2-.11s0,0,0,0l.19-.06a1.51,1.51,0,0,1,.48-.07l.26,0A1.93,1.93,0,0,1,127.73,43.35Z"/><path class="cls-2" d="M145.29,32.1a1.74,1.74,0,1,1-1.71,2,1,1,0,0,1,0-.25,1.68,1.68,0,0,1,.17-.74l.09-.17s0,0,0-.06a1.92,1.92,0,0,1,.45-.45h0l.2-.12h0A1.77,1.77,0,0,1,145.29,32.1Z"/><path class="cls-2" d="M147,12.63a1.73,1.73,0,0,1-1.73,1.73,1.77,1.77,0,0,1-.73-.16h0a1.82,1.82,0,0,1-.72-.63,2.25,2.25,0,0,1-.12-.21,1.36,1.36,0,0,1-.09-.23c0-.09,0-.17,0-.25a1,1,0,0,1,0-.25v-.15a1.73,1.73,0,0,1,3.46.15Z"/><path class="cls-2" d="M126.8.05a1.74,1.74,0,0,1,.93,3.21,1.39,1.39,0,0,1-.21.11l-.19.08-.18,0-.14,0h-.21a1.86,1.86,0,0,1-.48-.06l-.19-.07h0l-.2-.12a1.73,1.73,0,0,1,.9-3.21Z"/><path class="cls-2" d="M110.12,12.48a.71.71,0,0,1,0,.15,1.1,1.1,0,0,1,0,.26,1.84,1.84,0,0,1,0,.25,1.6,1.6,0,0,1-.1.23,1.67,1.67,0,0,1-.12.23,1.88,1.88,0,0,1-.54.51,1.64,1.64,0,0,1-.9.25,1.74,1.74,0,1,1,1.73-1.88Z"/><path class="cls-2" d="M132.28,13.84a10.94,10.94,0,1,1-10.93,0,10.68,10.68,0,0,1,5.46-1.48A10.81,10.81,0,0,1,132.28,13.84Z"/><path class="cls-3" d="M135.08,16.16a10.8,10.8,0,0,0-2.8-2.32,10.63,10.63,0,0,0-1.4-.68,86.84,86.84,0,0,0-14.16,14.33,10.91,10.91,0,0,0,3.6,4.59C124.65,26.18,129.94,21.24,135.08,16.16Z"/><path class="cls-3" d="M136.44,18.16a144.82,144.82,0,0,0-13,15.54c.43.13.86.24,1.31.33A93.38,93.38,0,0,1,137,19.32,11.16,11.16,0,0,0,136.44,18.16Z"/><path class="cls-4" d="M115.88,23.31a10.92,10.92,0,0,0,5.47,9.46l0,.06-10.38-.36,4.89-9.16Z"/><path class="cls-4" d="M132.28,32.77l0,.06-5.5,8.8-5.5-8.8,0-.06a11,11,0,0,0,10.93,0Z"/><path class="cls-4" d="M137.81,23.31l4.88,9.16-10.38.36,0-.06a10.91,10.91,0,0,0,5.46-9.46Z"/><path class="cls-4" d="M142.69,14.14l-4.88,9.17h-.07a10.9,10.9,0,0,0-5.46-9.47l0-.06Z"/><path class="cls-4" d="M126.81,5l5.5,8.81,0,.06a10.81,10.81,0,0,0-5.47-1.47,10.68,10.68,0,0,0-5.46,1.48l0-.07Z"/><path class="cls-4" d="M110.93,14.14l10.38-.36,0,.07a10.89,10.89,0,0,0-5.47,9.46h-.06Z"/><path class="cls-5" d="M121.28,32.87l-5.17-.07-5.19-.1h-.36l.16-.33c1.58-3.08,3.2-6.14,4.81-9.2v.29c-1.66-3-3.27-6.1-4.88-9.16l-.23-.45h.5l10.38-.22-.14.08,2.78-4.38c.93-1.46,1.86-2.93,2.76-4.4l.1-.17.11.17c1.83,2.93,3.7,5.85,5.57,8.76l-.17-.09,10.38.25h.51l-.24.45-4.82,9.19v-.35c1.65,3,3.26,6.1,4.88,9.16l.29.55-.61,0c-3.46.11-6.92.23-10.38.3l.26-.15L127,41.75l-.18.29-.18-.29c-.89-1.48-1.81-3-2.69-4.44Zm0-.07,2.85,4.36c.95,1.44,1.87,2.91,2.8,4.37h-.36L132,32.66l.08-.15h.18c3.46-.17,6.92-.29,10.38-.41l-.33.56q-2.44-4.57-4.87-9.17l-.09-.18.09-.17L142.4,14l.27.46L132.3,14h-.11l-.06-.09c-1.8-3-3.6-5.91-5.43-8.85h.21C126,6.5,125.07,8,124.16,9.45l-2.71,4.42,0,.08h-.09l-10.37.5.26-.46c1.64,3,3.28,6.1,4.88,9.17l.08.15-.08.14c-1.64,3.05-3.27,6.1-5,9.13l-.19-.34,5.18.26Z"/><path class="cls-5" d="M126.8,34.61a11.31,11.31,0,1,1,11.31-11.3A11.31,11.31,0,0,1,126.8,34.61Zm0-21.86a10.56,10.56,0,1,0,10.56,10.56A10.57,10.57,0,0,0,126.8,12.75Z"/><path class="cls-4" d="M127.84,43.87l-.32-.2a1.36,1.36,0,0,0-1.44,0l-.32.2-5.62-9-10.45-.36,0-.4a.71.71,0,0,0,0-.17,1.37,1.37,0,0,0-.81-1.24l-.37-.16,4.9-9.21L108.54,14l.38-.16a1.35,1.35,0,0,0,.83-1.26l0-.5,10.42-.36,5.63-9,.31.2a1.36,1.36,0,0,0,1.44,0l.32-.2,5.63,9,10.48.36,0,.47a1.38,1.38,0,0,0,.79,1.27l.36.17-4.93,9.28L145,32.46l-.34.17a1.34,1.34,0,0,0-.75,1.21,1.79,1.79,0,0,0,0,.23l.06.42-10.53.36Zm-1-1.16a2.08,2.08,0,0,1,.78.15l5.47-8.74,10.12-.35a2.09,2.09,0,0,1,.83-1.6l-4.71-8.86,4.77-9a2.1,2.1,0,0,1-.88-1.49l-10.13-.36-5.47-8.74a2.1,2.1,0,0,1-1.56,0l-5.46,8.74-10.07.35a2.16,2.16,0,0,1-.92,1.54l4.75,8.93-4.73,8.88a2.09,2.09,0,0,1,.9,1.58l10.07.35L126,42.86A2.08,2.08,0,0,1,126.8,42.71Z"/><path class="cls-6" d="M126.8,15.19A1.22,1.22,0,1,0,128,16.41,1.22,1.22,0,0,0,126.8,15.19Z"/><path class="cls-6" d="M126.8,28.84a1.22,1.22,0,1,0,0,2.43,1.22,1.22,0,0,0,0-2.43Z"/><path class="cls-7" d="M127,15.26a1.22,1.22,0,1,0,1.22,1.22A1.22,1.22,0,0,0,127,15.26Z"/><path class="cls-7" d="M127,28.91a1.22,1.22,0,1,0,1.22,1.22A1.22,1.22,0,0,0,127,28.91Z"/><path class="cls-4" d="M125.39,2.75a2.16,2.16,0,0,0,1.24.23,1.53,1.53,0,0,0,.47-.13,1,1,0,0,0,.37-.24,1.63,1.63,0,0,0,.53-.76,2.22,2.22,0,0,0,0-1.26l.05,0a1.76,1.76,0,0,1,.53,1.34A1.79,1.79,0,0,1,128,3.19a1.82,1.82,0,0,1-1.4.38,1.84,1.84,0,0,1-1.22-.77Z"/><path class="cls-8" d="M128,.59a2.45,2.45,0,0,0-1.15,0l0,0s0,0,0,0-.12,0-.13,0l-.17.08a1.27,1.27,0,0,0-.33.22,1.89,1.89,0,0,0-.52.65,2.53,2.53,0,0,0-.21,1.13l-.06,0A1.78,1.78,0,0,1,125.64.4a1.8,1.8,0,0,1,1.24-.4,1.83,1.83,0,0,1,1.17.54Z"/><path class="cls-4" d="M125.51,45.93a2.21,2.21,0,0,0,1.22.09l.06,0s0,0,.06,0a.28.28,0,0,0,.13,0,1.54,1.54,0,0,0,.19-.09,1.48,1.48,0,0,0,.35-.25,1.69,1.69,0,0,0,.48-.76,2.27,2.27,0,0,0,0-1.22l.05,0a1.78,1.78,0,0,1,0,2.57,1.83,1.83,0,0,1-1.33.47,1.79,1.79,0,0,1-1.24-.63Z"/><path class="cls-8" d="M128,43.62a2.22,2.22,0,0,0-1.18,0,1.36,1.36,0,0,0-.42.18,1.27,1.27,0,0,0-.33.24,1.82,1.82,0,0,0-.48.71,2.43,2.43,0,0,0-.08,1.18l-.06,0A1.76,1.76,0,0,1,126.83,43a1.78,1.78,0,0,1,1.22.53Z"/><path class="cls-4" d="M107.08,13.71a2.17,2.17,0,0,0,1.27.12,1.56,1.56,0,0,0,.45-.19,1.09,1.09,0,0,0,.36-.28,1.61,1.61,0,0,0,.43-.84,2.19,2.19,0,0,0-.17-1.25l0-.06a1.77,1.77,0,0,1-1.13,3.2,1.74,1.74,0,0,1-1.3-.65Z"/><path class="cls-8" d="M109.42,11.27a2.55,2.55,0,0,0-1.14.16,2.11,2.11,0,0,0-.66.46,1.84,1.84,0,0,0-.43.69,2.44,2.44,0,0,0-.11,1.13l0,0a1.8,1.8,0,0,1,0-2.39,1.84,1.84,0,0,1,1.17-.53,1.8,1.8,0,0,1,1.21.37Z"/><path class="cls-4" d="M107.17,35.11a2.37,2.37,0,0,0,1.21,0,1.79,1.79,0,0,0,.76-.45,1.66,1.66,0,0,0,.45-.75,2.23,2.23,0,0,0,0-1.21l0,0a1.76,1.76,0,0,1,.54,1.26,1.77,1.77,0,0,1-.52,1.28,1.83,1.83,0,0,1-1.29.51,1.79,1.79,0,0,1-1.25-.56Z"/><path class="cls-8" d="M109.59,32.72a2.3,2.3,0,0,0-1.2,0,1.66,1.66,0,0,0-.75.45,1.73,1.73,0,0,0-.46.74,2.39,2.39,0,0,0,0,1.2l0,0a1.8,1.8,0,0,1,0-2.53,1.79,1.79,0,0,1,2.52,0Z"/><path class="cls-4" d="M143.93,13.66a2.18,2.18,0,0,0,1.23.16s.11,0,.1,0l.17,0,.18-.09a1.05,1.05,0,0,0,.37-.25,1.54,1.54,0,0,0,.5-.76,2.15,2.15,0,0,0,0-1.24l.05-.05a1.78,1.78,0,0,1-.06,2.61,1.77,1.77,0,0,1-1.37.43,1.82,1.82,0,0,1-1.23-.7Z"/><path class="cls-8" d="M146.48,11.42a2.36,2.36,0,0,0-1.16,0s-.23.06-.23.08l-.18.09a1.33,1.33,0,0,0-.33.24,1.77,1.77,0,0,0-.5.68,1.86,1.86,0,0,0-.08.25A1.22,1.22,0,0,0,144,13a2.28,2.28,0,0,0,0,.65l-.06.05a1.84,1.84,0,0,1-.37-1.26,1.79,1.79,0,0,1,.59-1.19,1.83,1.83,0,0,1,1.25-.43,1.76,1.76,0,0,1,1.19.54Z"/><path class="cls-4" d="M144,35a2.29,2.29,0,0,0,1.18,0s.23,0,.24-.07a.81.81,0,0,0,.18-.1,1.2,1.2,0,0,0,.34-.23,1.79,1.79,0,0,0,.5-.71.51.51,0,0,1,0-.1,1.57,1.57,0,0,1,0-.16.85.85,0,0,0,0-.25,2.57,2.57,0,0,0,0-.67l.06,0a1.8,1.8,0,0,1,.43,1.27,1.87,1.87,0,0,1-.59,1.23,1.84,1.84,0,0,1-1.29.43,1.78,1.78,0,0,1-1.2-.58Z"/><path class="cls-8" d="M146.59,32.75a2.25,2.25,0,0,0-1.22-.11s-.1,0-.1,0-.14,0-.16,0l-.18.09a1.21,1.21,0,0,0-.35.24,1.63,1.63,0,0,0-.5.74A2.31,2.31,0,0,0,144,35l-.06,0a1.8,1.8,0,0,1,.1-2.57,1.79,1.79,0,0,1,2.56.22Z"/><circle class="cls-9" cx="107.77" cy="12.24" r="0.63"/><circle class="cls-9" cx="126.21" cy="1.19" r="0.63"/><circle class="cls-9" cx="144.57" cy="12.02" r="0.63"/><circle class="cls-9" cx="144.57" cy="33.32" r="0.63"/><circle class="cls-9" cx="126.11" cy="44.22" r="0.63"/><circle class="cls-9" cx="107.77" cy="33.32" r="0.63"/><g class="cls-10"><path class="cls-11" d="M119.63,21.81l.63-.43-.72,1.38-.05-.72a1.7,1.7,0,0,0-.73-.23c-.44,0-.59.2-.59.4,0,.41.33.53,1,.75a1,1,0,0,1,.79.9,1,1,0,0,1-1.13,1,1.66,1.66,0,0,1-1.08-.41l-.63.43.7-1.24a1,1,0,0,0,.85.89.54.54,0,0,0,.6-.5c0-.73-1.78-.56-1.78-1.68,0-.43.33-.87,1.09-.87A1.59,1.59,0,0,1,119.63,21.81Z"/><path class="cls-11" d="M121.78,21.38l-.47.25-.06,1.2,1.24,0,0-1-.45-.26,1.43-.09L123,22l.09,2.42.49.33h-1.71l.61-.4,0-1.13-1.25,0-.06,1,.36.36h-1.18l.42-.34-.14-2.49-.53-.32Z"/><path class="cls-11" d="M126.16,24.63l-2.71.11.6-.61.17-2.22-.73-.36,2.58-.18.05,1.13-.45-.8-1.1.17,0,1.14.26,0,.49-.66,0,1.52-.44-.63-.34.05,0,1,1.08.1.4-1Z"/><path class="cls-11" d="M128.78,24.87c-.29,0-1.15-.83-1.43-1.11l0,.6.51.28-1.53.11.51-.47.09-2.43-.63-.3c1.26-.07,1.71-.06,1.84-.06.41,0,1.09.21,1.09.84,0,.19-.11,1.07-1.81,1.1a3.1,3.1,0,0,0,1.42.76.65.65,0,0,0,.62-.42C129.3,24.65,128.9,24.87,128.78,24.87Zm-1.32-3h-.15l0,1.29c.61,0,1.22-.26,1.22-.67S128.45,21.83,127.46,21.83Z"/><path class="cls-11" d="M130.52,22.11l.07,2.17.5.35-1.71.15.59-.49.15-2.33-.51-.39,1.47.09Z"/><path class="cls-11" d="M133.7,22.5l-.39-.83-1.22.24,0,.89h.37l.4-.59v1.47l-.42-.65-.33,0,.06,1.21.71.3-1.84.19.52-.47.13-2.3-.65-.58,2.62-.1Z"/><path class="cls-11" d="M136.3,22.5l-.39-.83-1.22.24,0,.89h.36l.4-.59v1.47l-.41-.65-.34,0,.07,1.21.71.3-1.84.19.52-.47.13-2.3-.65-.58,2.62-.1Z"/></g><path class="cls-2" d="M73.51,3.52h.2l.15,0,.17,0,.19-.08a1,1,0,0,0,.21-.11L80,12.13l10.29.35v.15a1.06,1.06,0,0,0,0,.25c0,.08,0,.16,0,.25a1.09,1.09,0,0,0,.09.23,1.13,1.13,0,0,0,.12.21,1.66,1.66,0,0,0,.73.63h0l-4.84,9.11,4.78,9-.21.12h0a1.71,1.71,0,0,0-.44.45l0,.06a.56.56,0,0,0-.09.17,1.68,1.68,0,0,0-.17.74,1,1,0,0,0,0,.25s0,0,0,.05L80,34.49l-5.53,8.86a1.6,1.6,0,0,0-.68-.25l-.25,0a1.47,1.47,0,0,0-.48.07l-.2.06s0,0,0,0l-.2.11-5.53-8.85-10.25-.36a1.49,1.49,0,0,0,0-.21,1.15,1.15,0,0,0,0-.26,1.5,1.5,0,0,0-.15-.51,1.45,1.45,0,0,0-.12-.19v0l-.15-.17-.17-.18h0L56,32.45h0a.94.94,0,0,0-.22-.12l4.8-9-4.83-9.08.23-.12a1.76,1.76,0,0,0,.54-.51,1.27,1.27,0,0,0,.12-.23,1.6,1.6,0,0,0,.1-.23,1,1,0,0,0,.05-.25,1.15,1.15,0,0,0,0-.26.71.71,0,0,0,0-.15l10.24-.35L72.6,3.26a1.06,1.06,0,0,0,.2.12h0l.2.07A1.8,1.8,0,0,0,73.51,3.52Zm0,38.11L79,32.83l10.38-.36-4.89-9.16,4.89-9.17L79,13.78,73.51,5,68,13.78l-10.38.36,4.88,9.17-4.88,9.16L68,32.83Z"/><path class="cls-2" d="M56,32.45l.18.13h0l.17.18.15.17v0a1,1,0,0,1,.12.19,1.5,1.5,0,0,1,.15.51,1.15,1.15,0,0,1,0,.26,1.49,1.49,0,0,1,0,.21,1.73,1.73,0,1,1-1.72-2,1.6,1.6,0,0,1,.7.15l.22.12Z"/><path class="cls-2" d="M74.43,43.35h0a1.72,1.72,0,0,1,.81,1.47,1.74,1.74,0,1,1-2.65-1.48l.2-.11s0,0,0,0l.2-.06a1.47,1.47,0,0,1,.48-.07l.25,0A1.86,1.86,0,0,1,74.43,43.35Z"/><path class="cls-2" d="M92,32.1a1.74,1.74,0,1,1-1.71,2,1,1,0,0,1,0-.25,1.68,1.68,0,0,1,.17-.74l.09-.17,0-.06a1.88,1.88,0,0,1,.44-.45h0l.21-.12h0A1.73,1.73,0,0,1,92,32.1Z"/><path class="cls-2" d="M93.73,12.63A1.74,1.74,0,0,1,92,14.36a1.69,1.69,0,0,1-.72-.16h0a1.79,1.79,0,0,1-.73-.63l-.12-.21a1.36,1.36,0,0,1-.09-.23c0-.09,0-.17,0-.25a1,1,0,0,1,0-.25v-.15a1.74,1.74,0,0,1,3.47.15Z"/><path class="cls-2" d="M73.51.05a1.74,1.74,0,0,1,.92,3.21,1,1,0,0,1-.21.11L74,3.45l-.17,0-.15,0h-.2A1.8,1.8,0,0,1,73,3.46l-.2-.07h0l-.2-.12a1.72,1.72,0,0,1-.83-1.47A1.74,1.74,0,0,1,73.51.05Z"/><path class="cls-2" d="M56.82,12.48a.68.68,0,0,1,0,.15,1.09,1.09,0,0,1,0,.26,1,1,0,0,1-.05.25,1.6,1.6,0,0,1-.1.23,1,1,0,0,1-.12.23,1.76,1.76,0,0,1-.54.51,1.64,1.64,0,0,1-.9.25,1.74,1.74,0,1,1,1.73-1.88Z"/><path class="cls-2" d="M79,13.84a10.93,10.93,0,1,1-10.93,0,10.68,10.68,0,0,1,5.46-1.48A10.81,10.81,0,0,1,79,13.84Z"/><path class="cls-3" d="M81.79,16.16A11,11,0,0,0,79,13.84a10.05,10.05,0,0,0-1.4-.68A86.84,86.84,0,0,0,63.42,27.49,10.91,10.91,0,0,0,67,32.08C71.35,26.18,76.64,21.24,81.79,16.16Z"/><path class="cls-3" d="M83.15,18.16a142.51,142.51,0,0,0-13,15.54c.42.13.86.24,1.3.33A93.38,93.38,0,0,1,83.68,19.32,9.37,9.37,0,0,0,83.15,18.16Z"/><path class="cls-4" d="M62.59,23.31a10.93,10.93,0,0,0,5.46,9.46l0,.06-10.38-.36,4.88-9.16Z"/><path class="cls-4" d="M79,32.77l0,.06-5.51,8.8L68,32.83l0-.06a11,11,0,0,0,10.93,0Z"/><path class="cls-4" d="M84.51,23.31l4.89,9.16L79,32.83l0-.06a10.92,10.92,0,0,0,5.47-9.46Z"/><path class="cls-4" d="M89.4,14.14l-4.89,9.17h-.06A10.91,10.91,0,0,0,79,13.84l0-.06Z"/><path class="cls-4" d="M73.51,5,79,13.78l0,.06a10.81,10.81,0,0,0-5.47-1.47,10.68,10.68,0,0,0-5.46,1.48l0-.07Z"/><path class="cls-4" d="M57.64,14.14,68,13.78l0,.07a10.91,10.91,0,0,0-5.46,9.46h-.07Z"/><path class="cls-5" d="M68,32.87l-5.18-.07-5.19-.1h-.36l.17-.33c1.57-3.08,3.19-6.14,4.8-9.2v.29c-1.66-3-3.26-6.1-4.87-9.16l-.24-.45h.5L68,13.61l-.14.08,2.79-4.38c.92-1.46,1.85-2.93,2.75-4.4l.1-.17.11.17q2.76,4.39,5.57,8.76L79,13.58l10.39.25h.5l-.24.45-4.82,9.19v-.35q2.47,4.56,4.88,9.16l.29.55-.61,0c-3.46.11-6.92.23-10.38.3l.26-.15-5.59,8.74L73.5,42l-.18-.29c-.89-1.48-1.81-3-2.69-4.44Zm0-.07,2.85,4.36c1,1.44,1.87,2.91,2.81,4.37h-.37l5.41-8.87.09-.15H79c3.45-.17,6.91-.29,10.37-.41l-.33.56q-2.45-4.57-4.87-9.17l-.09-.18.09-.17L89.11,14l.26.46L79,14h-.11l-.06-.09Q76.15,9.45,73.4,5h.21q-1.39,2.19-2.74,4.41l-2.72,4.42,0,.08H68l-10.37.5L57.9,14c1.64,3,3.29,6.1,4.88,9.17l.08.15-.08.14c-1.64,3.05-3.27,6.1-5,9.13l-.19-.34,5.18.26Z"/><path class="cls-5" d="M73.51,34.61a11.31,11.31,0,1,1,11.3-11.3A11.32,11.32,0,0,1,73.51,34.61Zm0-21.86A10.56,10.56,0,1,0,84.06,23.31,10.58,10.58,0,0,0,73.51,12.75Z"/><path class="cls-4" d="M74.54,43.87l-.32-.2a1.36,1.36,0,0,0-1.44,0l-.31.2-5.63-9-10.45-.36,0-.4a1.39,1.39,0,0,0,0-.17,1.35,1.35,0,0,0-.81-1.24l-.37-.16,4.9-9.21L55.24,14l.38-.16a1.35,1.35,0,0,0,.83-1.26l0-.5,10.42-.36,5.63-9,.31.2a1.36,1.36,0,0,0,1.44,0l.32-.2,5.63,9,10.48.36,0,.47a1.37,1.37,0,0,0,.8,1.27l.36.17-4.94,9.28,4.87,9.15-.34.17a1.36,1.36,0,0,0-.75,1.21,1.79,1.79,0,0,0,0,.23l.07.42-10.54.36Zm-1-1.16a2.13,2.13,0,0,1,.79.15l5.46-8.74,10.12-.35a2.07,2.07,0,0,1,.84-1.6L86,23.31l4.77-9a2.13,2.13,0,0,1-.88-1.49l-10.13-.36L74.29,3.75a2.13,2.13,0,0,1-1.57,0l-5.46,8.74-10.07.35a2.09,2.09,0,0,1-.92,1.54L61,23.31l-4.73,8.88a2.13,2.13,0,0,1,.91,1.58l10.06.35,5.46,8.74A2.08,2.08,0,0,1,73.5,42.71Z"/><path class="cls-6" d="M73.5,15.19a1.22,1.22,0,1,0,1.21,1.22A1.22,1.22,0,0,0,73.5,15.19Z"/><path class="cls-6" d="M73.5,28.84a1.22,1.22,0,1,0,0,2.43,1.22,1.22,0,0,0,0-2.43Z"/><path class="cls-7" d="M73.67,15.26a1.22,1.22,0,1,0,1.21,1.22A1.22,1.22,0,0,0,73.67,15.26Z"/><path class="cls-7" d="M73.67,28.91a1.22,1.22,0,1,0,1.21,1.22A1.22,1.22,0,0,0,73.67,28.91Z"/><path class="cls-4" d="M72.09,2.75A2.16,2.16,0,0,0,73.33,3a1.46,1.46,0,0,0,.47-.13,1.17,1.17,0,0,0,.38-.24,1.69,1.69,0,0,0,.52-.76,2.22,2.22,0,0,0,0-1.26l0,0a1.76,1.76,0,0,1,.54,1.34,1.83,1.83,0,0,1-.64,1.31,1.81,1.81,0,0,1-1.4.38A1.88,1.88,0,0,1,72,2.8Z"/><path class="cls-8" d="M74.7.59a2.45,2.45,0,0,0-1.15,0l0,0s0,0,0,0-.12,0-.13,0l-.17.08a1.27,1.27,0,0,0-.33.22,1.87,1.87,0,0,0-.51.65,2.39,2.39,0,0,0-.22,1.13l-.06,0a1.77,1.77,0,0,1-.31-1.25A1.83,1.83,0,0,1,72.34.4a1.78,1.78,0,0,1,2.41.14Z"/><path class="cls-4" d="M72.21,45.93a2.22,2.22,0,0,0,1.22.09l.06,0s0,0,.06,0,.12,0,.13,0a1.07,1.07,0,0,0,.19-.09,1.48,1.48,0,0,0,.35-.25,1.69,1.69,0,0,0,.48-.76,2.27,2.27,0,0,0,0-1.22l0,0a1.78,1.78,0,0,1,0,2.57,1.82,1.82,0,0,1-1.33.47A1.79,1.79,0,0,1,72.16,46Z"/><path class="cls-8" d="M74.7,43.62a2.22,2.22,0,0,0-1.18,0,1.3,1.3,0,0,0-.41.18,1.16,1.16,0,0,0-.34.24,1.8,1.8,0,0,0-.47.71,2.3,2.3,0,0,0-.09,1.18l0,0a1.77,1.77,0,0,1-.45-1.26,1.81,1.81,0,0,1,.56-1.23,1.8,1.8,0,0,1,2.48.07Z"/><path class="cls-4" d="M53.78,13.71a2.17,2.17,0,0,0,1.27.12,1.56,1.56,0,0,0,.45-.19,1.09,1.09,0,0,0,.36-.28,1.61,1.61,0,0,0,.43-.84,2.19,2.19,0,0,0-.17-1.25l0-.06A1.77,1.77,0,0,1,55,14.41a1.74,1.74,0,0,1-1.3-.65Z"/><path class="cls-8" d="M56.12,11.27a2.55,2.55,0,0,0-1.14.16,2.11,2.11,0,0,0-.66.46,1.84,1.84,0,0,0-.43.69,2.45,2.45,0,0,0-.1,1.13l-.06,0a1.8,1.8,0,0,1,.05-2.39A1.84,1.84,0,0,1,55,10.84a1.8,1.8,0,0,1,1.21.37Z"/><path class="cls-4" d="M53.87,35.11a2.37,2.37,0,0,0,1.21,0,1.79,1.79,0,0,0,.76-.45,1.77,1.77,0,0,0,.46-.75,2.35,2.35,0,0,0,0-1.21l.05,0a1.76,1.76,0,0,1,.54,1.26,1.77,1.77,0,0,1-.52,1.28,1.83,1.83,0,0,1-1.29.51,1.79,1.79,0,0,1-1.25-.56Z"/><path class="cls-8" d="M56.29,32.72a2.3,2.3,0,0,0-1.2,0,1.82,1.82,0,0,0-1.2,1.19,2.37,2.37,0,0,0,0,1.2l0,0a1.8,1.8,0,0,1,0-2.53,1.8,1.8,0,0,1,1.28-.5,1.77,1.77,0,0,1,1.24.54Z"/><path class="cls-4" d="M90.63,13.66a2.19,2.19,0,0,0,1.23.16s.11,0,.1,0l.17,0,.19-.09a1.11,1.11,0,0,0,.36-.25,1.54,1.54,0,0,0,.5-.76,2.15,2.15,0,0,0,0-1.24l.06-.05a1.84,1.84,0,0,1,.53,1.31,1.79,1.79,0,0,1-.6,1.3,1.76,1.76,0,0,1-1.36.43,1.82,1.82,0,0,1-1.24-.7Z"/><path class="cls-8" d="M93.18,11.42a2.37,2.37,0,0,0-1.16,0s-.23.06-.23.08l-.18.09a1.33,1.33,0,0,0-.33.24,1.77,1.77,0,0,0-.5.68,1.86,1.86,0,0,0-.08.25,1.22,1.22,0,0,0,0,.25,2.72,2.72,0,0,0,0,.65l-.06.05a1.84,1.84,0,0,1-.37-1.26,1.79,1.79,0,0,1,.59-1.19A1.83,1.83,0,0,1,92,10.83a1.76,1.76,0,0,1,1.19.54Z"/><path class="cls-4" d="M90.74,35a2.29,2.29,0,0,0,1.18,0s.23,0,.24-.07a.81.81,0,0,0,.18-.1,1.2,1.2,0,0,0,.34-.23,1.69,1.69,0,0,0,.5-.71.51.51,0,0,1,0-.1,1.57,1.57,0,0,1,0-.16.62.62,0,0,0,0-.25,2.53,2.53,0,0,0,0-.67l0,0A1.8,1.8,0,0,1,93.77,34a1.87,1.87,0,0,1-.59,1.23,1.83,1.83,0,0,1-1.28.43,1.79,1.79,0,0,1-1.21-.58Z"/><path class="cls-8" d="M93.29,32.75a2.25,2.25,0,0,0-1.22-.11l-.1,0s-.14,0-.15,0l-.19.09a1.21,1.21,0,0,0-.35.24,1.8,1.8,0,0,0-.5.74,2.31,2.31,0,0,0,0,1.22l0,0a1.79,1.79,0,0,1-.5-1.3,1.85,1.85,0,0,1,.59-1.27,1.87,1.87,0,0,1,1.34-.43,1.8,1.8,0,0,1,1.22.65Z"/><circle class="cls-9" cx="54.47" cy="12.24" r="0.63"/><circle class="cls-9" cx="72.91" cy="1.19" r="0.63"/><circle class="cls-9" cx="91.27" cy="12.02" r="0.63"/><circle class="cls-9" cx="91.27" cy="33.32" r="0.63"/><circle class="cls-9" cx="72.81" cy="44.22" r="0.63"/><circle class="cls-9" cx="54.47" cy="33.32" r="0.63"/><g class="cls-10"><path class="cls-11" d="M66.34,21.81l.62-.43-.72,1.38,0-.72a1.67,1.67,0,0,0-.73-.23c-.44,0-.58.2-.58.4,0,.41.32.53,1,.75a1,1,0,0,1-.34,1.88,1.67,1.67,0,0,1-1.09-.41l-.62.43.7-1.24a1,1,0,0,0,.84.89A.55.55,0,0,0,66,24c0-.73-1.79-.56-1.79-1.68,0-.43.33-.87,1.09-.87A1.65,1.65,0,0,1,66.34,21.81Z"/><path class="cls-11" d="M68.48,21.38l-.47.25L68,22.83l1.24,0,0-1-.44-.26,1.42-.09-.54.44.09,2.42.5.33H68.53l.61-.4,0-1.13-1.25,0-.06,1,.36.36H67.06l.41-.34-.14-2.49-.53-.32Z"/><path class="cls-11" d="M72.86,24.63l-2.71.11.6-.61.17-2.22-.72-.36,2.57-.18,0,1.13-.45-.8-1.1.17,0,1.14.25,0,.49-.66,0,1.52-.43-.63-.35.05,0,1,1.08.1.4-1Z"/><path class="cls-11" d="M75.48,24.87c-.29,0-1.15-.83-1.43-1.11l0,.6.51.28-1.53.11.51-.47.09-2.43-.62-.3c1.25-.07,1.7-.06,1.83-.06.41,0,1.09.21,1.09.84,0,.19-.11,1.07-1.81,1.1a3.15,3.15,0,0,0,1.42.76.65.65,0,0,0,.62-.42C76,24.65,75.6,24.87,75.48,24.87Zm-1.32-3H74l0,1.29c.6,0,1.21-.26,1.21-.67S75.15,21.83,74.16,21.83Z"/><path class="cls-11" d="M77.22,22.11l.07,2.17.5.35-1.71.15.59-.49L76.82,22l-.51-.39,1.47.09Z"/><path class="cls-11" d="M80.4,22.5,80,21.67l-1.23.24,0,.89h.37l.4-.59v1.47L79.18,23l-.33,0,.06,1.21.71.3-1.84.19.53-.47.12-2.3-.65-.58,2.62-.1Z"/><path class="cls-11" d="M83,22.5l-.39-.83-1.22.24,0,.89h.37l.4-.59v1.47L81.78,23l-.33,0,.06,1.21.71.3-1.84.19.52-.47L81,22l-.65-.58,2.62-.1Z"/></g><path class="cls-2" d="M20.21,3.52h.21l.14,0,.17,0,.19-.08a1,1,0,0,0,.21-.11l5.55,8.87L37,12.48s0,.09,0,.15a2.11,2.11,0,0,0,0,.25c0,.08,0,.16.05.25l.09.23a1.13,1.13,0,0,0,.12.21,1.66,1.66,0,0,0,.73.63h0l-4.84,9.11,4.78,9a.82.82,0,0,0-.2.12h0a1.88,1.88,0,0,0-.44.45.21.21,0,0,1,0,.06.56.56,0,0,0-.09.17,1.68,1.68,0,0,0-.17.74,2,2,0,0,0,0,.25s0,0,0,.05l-10.3.36-5.54,8.86a1.6,1.6,0,0,0-.68-.25l-.25,0a1.47,1.47,0,0,0-.48.07l-.2.06s0,0,0,0l-.2.11-5.53-8.85L3.52,34.13a1.49,1.49,0,0,0,0-.21,1.15,1.15,0,0,0,0-.26,1.5,1.5,0,0,0-.15-.51L3.25,33a0,0,0,0,1,0,0l-.14-.17-.18-.18h0l-.18-.13h0a1.13,1.13,0,0,0-.21-.12l4.8-9L2.48,14.23l.22-.12a1.76,1.76,0,0,0,.54-.51l.13-.23.09-.23a1,1,0,0,0,0-.25,1.15,1.15,0,0,0,0-.26.71.71,0,0,0,0-.15l10.24-.35L19.3,3.26l.2.12s0,0,0,0l.2.07A1.8,1.8,0,0,0,20.21,3.52Zm0,38.11,5.51-8.8,10.38-.36-4.89-9.16,4.89-9.17-10.38-.36L20.21,5l-5.49,8.81-10.38.36,4.88,9.17L4.34,32.47l10.38.36Z"/><path class="cls-2" d="M2.73,32.45l.18.13h0l.18.18c0,.06.09.12.14.17a0,0,0,0,0,0,0l.11.19a1.5,1.5,0,0,1,.15.51,1.15,1.15,0,0,1,0,.26,1.49,1.49,0,0,1,0,.21,1.73,1.73,0,1,1-1.72-2,1.67,1.67,0,0,1,.71.15l.21.12Z"/><path class="cls-2" d="M21.13,43.35h0A1.72,1.72,0,0,1,22,44.82a1.74,1.74,0,1,1-2.65-1.48l.2-.11s0,0,0,0l.2-.06a1.47,1.47,0,0,1,.48-.07l.25,0A1.86,1.86,0,0,1,21.13,43.35Z"/><path class="cls-2" d="M38.69,32.1a1.74,1.74,0,1,1-1.71,2,2,2,0,0,1,0-.25,1.68,1.68,0,0,1,.17-.74l.09-.17a.21.21,0,0,0,0-.06,2.08,2.08,0,0,1,.44-.45h0l.2-.12h0A1.73,1.73,0,0,1,38.69,32.1Z"/><path class="cls-2" d="M40.43,12.63a1.74,1.74,0,0,1-1.74,1.73A1.69,1.69,0,0,1,38,14.2h0a1.79,1.79,0,0,1-.73-.63l-.12-.21L37,13.13c0-.09,0-.17-.05-.25a2,2,0,0,1,0-.25c0-.06,0-.1,0-.15a1.73,1.73,0,0,1,1.72-1.6A1.74,1.74,0,0,1,40.43,12.63Z"/><path class="cls-2" d="M20.21.05a1.74,1.74,0,0,1,.92,3.21,1,1,0,0,1-.21.11l-.19.08-.17,0-.14,0h-.21a1.8,1.8,0,0,1-.48-.06l-.2-.07s0,0,0,0l-.2-.12a1.72,1.72,0,0,1-.83-1.47A1.74,1.74,0,0,1,20.21.05Z"/><path class="cls-2" d="M3.52,12.48a.68.68,0,0,1,0,.15,1.09,1.09,0,0,1,0,.26,1,1,0,0,1,0,.25l-.09.23a1.71,1.71,0,0,1-.13.23,1.76,1.76,0,0,1-.54.51l-.22.12a1.72,1.72,0,0,1-.68.13,1.74,1.74,0,1,1,1.73-1.88Z"/><path class="cls-2" d="M25.68,13.84a10.94,10.94,0,1,1-10.92,0,10.65,10.65,0,0,1,5.45-1.48A10.81,10.81,0,0,1,25.68,13.84Z"/><path class="cls-3" d="M28.49,16.16a11,11,0,0,0-2.81-2.32,9.54,9.54,0,0,0-1.4-.68A87.24,87.24,0,0,0,10.12,27.49a10.91,10.91,0,0,0,3.6,4.59C18.05,26.18,23.34,21.24,28.49,16.16Z"/><path class="cls-3" d="M29.85,18.16a143.65,143.65,0,0,0-13,15.54c.42.13.86.24,1.3.33A92.9,92.9,0,0,1,30.39,19.32,11.16,11.16,0,0,0,29.85,18.16Z"/><path class="cls-4" d="M9.29,23.31a10.92,10.92,0,0,0,5.47,9.46l0,.06L4.34,32.47l4.88-9.16Z"/><path class="cls-4" d="M25.68,32.77l0,.06-5.51,8.8-5.49-8.8,0-.06a10.94,10.94,0,0,0,10.92,0Z"/><path class="cls-4" d="M31.21,23.31l4.89,9.16-10.38.36,0-.06a10.92,10.92,0,0,0,5.47-9.46Z"/><path class="cls-4" d="M36.1,14.14l-4.89,9.17h-.06a10.91,10.91,0,0,0-5.47-9.47l0-.06Z"/><path class="cls-4" d="M20.21,5l5.51,8.81,0,.06a10.81,10.81,0,0,0-5.47-1.47,10.65,10.65,0,0,0-5.45,1.48l0-.07Z"/><path class="cls-4" d="M4.34,14.14l10.38-.36,0,.07a10.89,10.89,0,0,0-5.47,9.46H9.22Z"/><path class="cls-5" d="M14.69,32.87,9.51,32.8l-5.19-.1H4l.17-.33c1.57-3.08,3.19-6.14,4.8-9.2v.29c-1.65-3-3.26-6.1-4.87-9.16l-.24-.45h.5l10.38-.22-.14.08,2.79-4.38c.92-1.46,1.85-2.93,2.75-4.4l.11-.17.1.17q2.76,4.39,5.57,8.76l-.16-.09,10.38.25h.5l-.24.45-4.82,9.19v-.35c1.65,3,3.27,6.1,4.89,9.16l.29.55-.62,0c-3.46.11-6.92.23-10.38.3L26,33l-5.6,8.74L20.2,42,20,41.75c-.9-1.48-1.81-3-2.7-4.44Zm0-.07,2.85,4.36c1,1.44,1.87,2.91,2.81,4.37H20l5.4-8.87.09-.15h.18c3.45-.17,6.91-.29,10.37-.41l-.32.56q-2.46-4.57-4.87-9.17l-.1-.18.1-.17L35.81,14l.26.46L25.7,14h-.11l-.06-.09Q22.85,9.45,20.1,5h.21q-1.39,2.19-2.74,4.41l-2.72,4.42,0,.08h-.1l-10.37.5L4.6,14c1.64,3,3.29,6.1,4.89,9.17l.07.15-.07.14c-1.65,3.05-3.28,6.1-5,9.13l-.19-.34,5.18.26Z"/><path class="cls-5" d="M20.21,34.61a11.31,11.31,0,1,1,11.3-11.3A11.31,11.31,0,0,1,20.21,34.61Zm0-21.86A10.56,10.56,0,1,0,30.76,23.31,10.58,10.58,0,0,0,20.21,12.75Z"/><path class="cls-4" d="M21.24,43.87l-.32-.2a1.36,1.36,0,0,0-1.44,0l-.31.2-5.63-9L3.09,34.49l.05-.4c0-.1,0-.13,0-.17a1.36,1.36,0,0,0-.82-1.24L2,32.52l4.9-9.21L2,14l.37-.16a1.36,1.36,0,0,0,.84-1.26l0-.5,10.42-.36,5.63-9,.32.2a1.34,1.34,0,0,0,1.43,0l.32-.2,5.63,9,10.49.36,0,.47a1.37,1.37,0,0,0,.8,1.27l.36.17-4.94,9.28,4.87,9.15-.34.17a1.36,1.36,0,0,0-.75,1.21,1.79,1.79,0,0,0,0,.23l.07.42-10.54.36Zm-1-1.16a2.13,2.13,0,0,1,.79.15l5.46-8.74,10.12-.35a2.1,2.1,0,0,1,.84-1.6l-4.72-8.86,4.77-9a2.13,2.13,0,0,1-.88-1.49l-10.13-.36L21,3.75a2.13,2.13,0,0,1-1.57,0L14,12.49l-10.08.35A2.09,2.09,0,0,1,3,14.38l4.75,8.93L3,32.19a2.12,2.12,0,0,1,.9,1.58L14,34.12l5.46,8.74A2,2,0,0,1,20.2,42.71Z"/><path class="cls-6" d="M20.2,15.19a1.22,1.22,0,1,0,1.21,1.22A1.22,1.22,0,0,0,20.2,15.19Z"/><path class="cls-6" d="M20.2,28.84a1.22,1.22,0,1,0,0,2.43,1.22,1.22,0,0,0,0-2.43Z"/><path class="cls-7" d="M20.37,15.26a1.22,1.22,0,1,0,0,2.43,1.22,1.22,0,0,0,0-2.43Z"/><path class="cls-7" d="M20.37,28.91a1.22,1.22,0,1,0,0,2.43,1.22,1.22,0,0,0,0-2.43Z"/><path class="cls-4" d="M18.79,2.75A2.17,2.17,0,0,0,20,3a1.46,1.46,0,0,0,.47-.13,1.17,1.17,0,0,0,.38-.24,1.69,1.69,0,0,0,.52-.76,2.22,2.22,0,0,0,0-1.26l.05,0A1.76,1.76,0,0,1,22,1.88a1.86,1.86,0,0,1-.63,1.31,1.79,1.79,0,0,1-2.62-.39Z"/><path class="cls-8" d="M21.4.59a2.4,2.4,0,0,0-1.14,0l-.06,0s0,0-.05,0a.33.33,0,0,0-.13,0l-.17.08a1.46,1.46,0,0,0-.33.22,1.87,1.87,0,0,0-.51.65,2.4,2.4,0,0,0-.21,1.13l-.07,0a1.77,1.77,0,0,1-.3-1.25A1.77,1.77,0,0,1,19,.4a1.78,1.78,0,0,1,2.41.14Z"/><path class="cls-4" d="M18.91,45.93a2.22,2.22,0,0,0,1.22.09l.06,0s0,0,.06,0,.12,0,.13,0a1.07,1.07,0,0,0,.19-.09,1.48,1.48,0,0,0,.35-.25,1.61,1.61,0,0,0,.48-.76,2.17,2.17,0,0,0,0-1.22l.05,0A1.72,1.72,0,0,1,22,44.85,1.77,1.77,0,0,1,18.86,46Z"/><path class="cls-8" d="M21.4,43.62a2.22,2.22,0,0,0-1.18,0,1.3,1.3,0,0,0-.41.18,1,1,0,0,0-.33.24,1.82,1.82,0,0,0-.48.71,2.3,2.3,0,0,0-.09,1.18l-.05,0A1.79,1.79,0,0,1,19,43.49a1.8,1.8,0,0,1,2.48.07Z"/><path class="cls-4" d="M.49,13.71a2.13,2.13,0,0,0,1.26.12,1.77,1.77,0,0,0,.46-.19,1.17,1.17,0,0,0,.35-.28A1.61,1.61,0,0,0,3,12.52a2.11,2.11,0,0,0-.17-1.25l.05-.06a1.8,1.8,0,0,1,.23,2.67,1.8,1.8,0,0,1-1.37.53,1.74,1.74,0,0,1-1.3-.65Z"/><path class="cls-8" d="M2.82,11.27a2.55,2.55,0,0,0-1.14.16,2.11,2.11,0,0,0-.66.46,1.84,1.84,0,0,0-.43.69,2.45,2.45,0,0,0-.1,1.13l-.06,0A1.79,1.79,0,0,1,0,12.56a1.83,1.83,0,0,1,.48-1.19,1.82,1.82,0,0,1,2.39-.16Z"/><path class="cls-4" d="M.57,35.11a2.37,2.37,0,0,0,1.21,0,1.73,1.73,0,0,0,.76-.45A1.77,1.77,0,0,0,3,33.93a2.25,2.25,0,0,0,0-1.21l.06,0a1.77,1.77,0,0,1,0,2.54,1.81,1.81,0,0,1-1.28.51,1.8,1.8,0,0,1-1.26-.56Z"/><path class="cls-8" d="M3,32.72a2.29,2.29,0,0,0-1.2,0,1.7,1.7,0,0,0-.76.45,1.72,1.72,0,0,0-.45.74,2.28,2.28,0,0,0,0,1.2l-.06,0A1.77,1.77,0,0,1,0,33.91a1.82,1.82,0,0,1,.52-1.28,1.8,1.8,0,0,1,1.28-.5,1.77,1.77,0,0,1,1.25.54Z"/><path class="cls-4" d="M37.33,13.66a2.2,2.2,0,0,0,1.23.16s.11,0,.1,0l.17,0,.19-.09a1.11,1.11,0,0,0,.36-.25,1.63,1.63,0,0,0,.51-.76,2.26,2.26,0,0,0,0-1.24l.06-.05a1.76,1.76,0,0,1,.53,1.31,1.77,1.77,0,0,1-3.19,1Z"/><path class="cls-8" d="M39.89,11.42a2.4,2.4,0,0,0-1.17,0s-.23.06-.23.08l-.18.09a1.55,1.55,0,0,0-.33.24,1.77,1.77,0,0,0-.5.68,1.86,1.86,0,0,0-.08.25,1.22,1.22,0,0,0,0,.25,2.72,2.72,0,0,0,0,.65l-.06.05a1.77,1.77,0,0,1,1.47-2.88,1.81,1.81,0,0,1,1.2.54Z"/><path class="cls-4" d="M37.44,35a2.33,2.33,0,0,0,1.19,0s.23,0,.24-.07l.18-.1a1.56,1.56,0,0,0,.34-.23,1.77,1.77,0,0,0,.49-.71s0-.09,0-.1a.53.53,0,0,1,0-.16.87.87,0,0,0,0-.25,2.53,2.53,0,0,0,0-.67l0,0A1.8,1.8,0,0,1,40.47,34a1.74,1.74,0,0,1-1.87,1.66,1.79,1.79,0,0,1-1.21-.58Z"/><path class="cls-8" d="M40,32.75a2.25,2.25,0,0,0-1.22-.11l-.1,0c-.05,0-.14,0-.15,0l-.19.09A1.21,1.21,0,0,0,38,33a1.8,1.8,0,0,0-.5.74,2.31,2.31,0,0,0,0,1.22l0,0a1.79,1.79,0,0,1-.5-1.3,1.85,1.85,0,0,1,.59-1.27,1.87,1.87,0,0,1,1.34-.43A1.8,1.8,0,0,1,40,32.7Z"/><circle class="cls-9" cx="1.18" cy="12.24" r="0.63"/><circle class="cls-9" cx="19.61" cy="1.19" r="0.63"/><circle class="cls-9" cx="37.97" cy="12.02" r="0.63"/><circle class="cls-9" cx="37.97" cy="33.32" r="0.63"/><circle class="cls-9" cx="19.51" cy="44.22" r="0.63"/><circle class="cls-9" cx="1.18" cy="33.32" r="0.63"/><g class="cls-10"><path class="cls-11" d="M13,21.81l.62-.43-.72,1.38,0-.72a1.67,1.67,0,0,0-.73-.23c-.43,0-.58.2-.58.4,0,.41.32.53,1,.75a1,1,0,0,1-.34,1.88,1.67,1.67,0,0,1-1.09-.41l-.62.43.7-1.24a1,1,0,0,0,.84.89.55.55,0,0,0,.61-.5c0-.73-1.79-.56-1.79-1.68,0-.43.33-.87,1.1-.87A1.62,1.62,0,0,1,13,21.81Z"/><path class="cls-11" d="M15.18,21.38l-.47.25-.06,1.2,1.24,0,0-1-.44-.26,1.42-.09-.54.44.09,2.42.5.33H15.24l.6-.4,0-1.13-1.25,0-.05,1,.35.36H13.76l.41-.34L14,21.67l-.52-.32Z"/><path class="cls-11" d="M19.56,24.63l-2.71.11.6-.61.17-2.22-.72-.36,2.58-.18,0,1.13-.45-.8-1.1.17L18,23l.25,0,.5-.66,0,1.52-.43-.63-.35.05,0,1,1.08.1.41-1Z"/><path class="cls-11" d="M22.18,24.87c-.28,0-1.15-.83-1.43-1.11l0,.6.51.28-1.53.11.51-.47.09-2.43-.62-.3c1.25-.07,1.7-.06,1.83-.06.41,0,1.09.21,1.09.84,0,.19-.11,1.07-1.8,1.1a3.12,3.12,0,0,0,1.41.76.65.65,0,0,0,.62-.42C22.71,24.65,22.3,24.87,22.18,24.87Zm-1.32-3h-.15l0,1.29c.6,0,1.22-.26,1.22-.67S21.86,21.83,20.86,21.83Z"/><path class="cls-11" d="M23.92,22.11,24,24.28l.5.35-1.71.15.59-.49L23.52,22l-.5-.39,1.46.09Z"/><path class="cls-11" d="M27.1,22.5l-.38-.83-1.23.24,0,.89h.37l.4-.59v1.47L25.88,23l-.33,0,.06,1.21.71.3-1.84.19L25,24.3l.13-2.3-.66-.58,2.62-.1Z"/><path class="cls-11" d="M29.7,22.5l-.38-.83-1.23.24,0,.89h.37l.4-.59v1.47L28.48,23l-.33,0,.06,1.21.71.3-1.84.19.53-.47.12-2.3-.65-.58,2.62-.1Z"/></g><path class="cls-5" d="M227.88,32.87l-5.17-.07-5.19-.1h-.37l.17-.33c1.58-3.08,3.19-6.14,4.8-9.2v.29c-1.65-3-3.26-6.1-4.87-9.16l-.23-.45h.49l10.39-.22-.14.08,2.78-4.38q1.4-2.19,2.76-4.4l.1-.17.1.17q2.76,4.39,5.57,8.76l-.16-.09,10.38.25h.5l-.23.45-4.82,9.19v-.35q2.46,4.56,4.88,9.16l.29.55-.62,0c-3.46.11-6.92.23-10.38.3l.27-.15-5.6,8.74-.18.29-.18-.29c-.9-1.48-1.81-3-2.69-4.44Zm0-.07,2.85,4.36c1,1.44,1.87,2.91,2.81,4.37h-.36l5.4-8.87.09-.15h.18c3.46-.17,6.92-.29,10.38-.41l-.33.56c-1.63-3-3.27-6.1-4.87-9.17L244,23.3l.09-.17L249,14l.27.46L238.89,14h-.11l-.05-.09c-1.8-3-3.6-5.91-5.43-8.85h.2c-.93,1.46-1.83,2.93-2.74,4.41l-2.71,4.42L228,14h-.09l-10.38.5.27-.46c1.64,3,3.28,6.1,4.88,9.17l.08.15-.08.14c-1.64,3.05-3.28,6.1-5,9.13l-.2-.34,5.19.26Z"/><path class="cls-5" d="M233.4,34.61a11.31,11.31,0,1,1,11.3-11.3A11.31,11.31,0,0,1,233.4,34.61Zm0-21.86A10.56,10.56,0,1,0,244,23.31,10.57,10.57,0,0,0,233.4,12.75Z"/><path class="cls-4" d="M234.43,43.87l-.32-.2a1.34,1.34,0,0,0-1.43,0l-.32.2-5.62-9-10.46-.36.05-.4c0-.1,0-.13,0-.17a1.37,1.37,0,0,0-.81-1.24l-.37-.16,4.9-9.21L215.14,14l.38-.16a1.37,1.37,0,0,0,.83-1.26l0-.5,10.43-.36,5.62-9,.32.2a1.36,1.36,0,0,0,1.44,0l.31-.2,5.64,9,10.48.36,0,.47a1.36,1.36,0,0,0,.79,1.27l.36.17-4.94,9.28,4.87,9.15-.34.17a1.36,1.36,0,0,0-.75,1.21,1.81,1.81,0,0,0,0,.23l.06.42-10.53.36Zm-1-1.16a2.13,2.13,0,0,1,.79.15l5.46-8.74,10.13-.35a2.09,2.09,0,0,1,.83-1.6l-4.71-8.86,4.77-9a2.1,2.1,0,0,1-.88-1.49l-10.14-.36-5.46-8.74a2.1,2.1,0,0,1-1.56,0l-5.46,8.74-10.07.35a2.16,2.16,0,0,1-.92,1.54l4.75,8.93-4.73,8.88a2.12,2.12,0,0,1,.9,1.58l10.07.35,5.46,8.74A2.07,2.07,0,0,1,233.39,42.71Z"/><path class="cls-6" d="M233.39,15.19a1.22,1.22,0,1,0,1.22,1.22A1.22,1.22,0,0,0,233.39,15.19Z"/><path class="cls-6" d="M233.39,28.84a1.22,1.22,0,1,0,1.22,1.22A1.22,1.22,0,0,0,233.39,28.84Z"/><path class="cls-7" d="M233.56,15.26a1.22,1.22,0,1,0,1.22,1.22A1.22,1.22,0,0,0,233.56,15.26Z"/><path class="cls-4" d="M232,2.75a2.16,2.16,0,0,0,1.24.23,1.47,1.47,0,0,0,.46-.13,1.17,1.17,0,0,0,.38-.24,1.55,1.55,0,0,0,.52-.76,2.06,2.06,0,0,0,0-1.26l.06,0a1.79,1.79,0,0,1,.53,1.34,1.82,1.82,0,0,1-.63,1.31,1.79,1.79,0,0,1-2.62-.39Z"/><path class="cls-8" d="M234.6.59a2.45,2.45,0,0,0-1.15,0l-.06,0s0,0,0,0-.11,0-.12,0L233,.75a1.46,1.46,0,0,0-.33.22,1.87,1.87,0,0,0-.51.65A2.53,2.53,0,0,0,232,2.75l-.06,0a1.73,1.73,0,0,1-.31-1.25A1.78,1.78,0,0,1,232.24.4a1.8,1.8,0,0,1,1.24-.4,1.85,1.85,0,0,1,1.17.54Z"/><path class="cls-4" d="M232.11,45.93a2.21,2.21,0,0,0,1.22.09l.06,0s0,0,.05,0a.29.29,0,0,0,.14,0,1.54,1.54,0,0,0,.19-.09,1.48,1.48,0,0,0,.35-.25,1.77,1.77,0,0,0,.48-.76,2.19,2.19,0,0,0,0-1.22l.06,0a1.8,1.8,0,0,1,0,2.57,1.79,1.79,0,0,1-2.58-.16Z"/><path class="cls-8" d="M234.6,43.62a2.26,2.26,0,0,0-1.19,0,1.41,1.41,0,0,0-.41.18,1.12,1.12,0,0,0-.33.24,1.82,1.82,0,0,0-.48.71,2.43,2.43,0,0,0-.08,1.18l-.06,0a1.78,1.78,0,0,1,2.6-2.42Z"/><path class="cls-4" d="M213.68,13.71a2.13,2.13,0,0,0,1.26.12,1.52,1.52,0,0,0,.46-.19,1.06,1.06,0,0,0,.35-.28,1.54,1.54,0,0,0,.43-.84,2,2,0,0,0-.17-1.25l.05-.06a1.79,1.79,0,0,1,.71,1.27,1.82,1.82,0,0,1-.48,1.4,1.78,1.78,0,0,1-1.36.53,1.74,1.74,0,0,1-1.31-.65Z"/><path class="cls-8" d="M216,11.27a2.53,2.53,0,0,0-1.14.16,2.11,2.11,0,0,0-.66.46,1.86,1.86,0,0,0-.44.69,2.45,2.45,0,0,0-.1,1.13l-.06,0a1.73,1.73,0,0,1-.42-1.2,1.78,1.78,0,0,1,.48-1.19,1.84,1.84,0,0,1,1.17-.53,1.81,1.81,0,0,1,1.21.37Z"/><path class="cls-4" d="M213.77,35.11a2.33,2.33,0,0,0,1.2,0,1.73,1.73,0,0,0,.76-.45,1.68,1.68,0,0,0,.46-.75,2.34,2.34,0,0,0,0-1.21l.05,0a1.76,1.76,0,0,1,.54,1.26,1.77,1.77,0,0,1-.52,1.28,1.83,1.83,0,0,1-1.29.51,1.77,1.77,0,0,1-1.25-.56Z"/><path class="cls-8" d="M216.19,32.72a2.29,2.29,0,0,0-1.2,0,1.66,1.66,0,0,0-.75.45,1.64,1.64,0,0,0-.46.74,2.28,2.28,0,0,0,0,1.2l-.05,0a1.78,1.78,0,0,1-.53-1.25,1.86,1.86,0,0,1,.52-1.28,1.8,1.8,0,0,1,1.28-.5,1.77,1.77,0,0,1,1.25.54Z"/><path class="cls-4" d="M250.53,13.66a2.18,2.18,0,0,0,1.23.16s.11,0,.09,0l.18,0,.18-.09a1.15,1.15,0,0,0,.37-.25,1.61,1.61,0,0,0,.5-.76,2.15,2.15,0,0,0,0-1.24l0-.05a1.78,1.78,0,0,1-.06,2.61,1.77,1.77,0,0,1-1.37.43,1.82,1.82,0,0,1-1.23-.7Z"/><path class="cls-8" d="M253.08,11.42a2.36,2.36,0,0,0-1.16,0s-.23.06-.24.08l-.17.09a1.17,1.17,0,0,0-.33.24,1.77,1.77,0,0,0-.5.68,1.05,1.05,0,0,0-.08.25.76.76,0,0,0-.06.25,2.76,2.76,0,0,0,0,.65l-.06.05a1.8,1.8,0,0,1-.38-1.26,1.74,1.74,0,0,1,1.84-1.62,1.81,1.81,0,0,1,1.2.54Z"/><path class="cls-4" d="M250.63,35a2.33,2.33,0,0,0,1.19,0s.23,0,.24-.07l.18-.1a1.36,1.36,0,0,0,.34-.23,1.89,1.89,0,0,0,.5-.71.51.51,0,0,1,0-.1,1.57,1.57,0,0,1,0-.16.85.85,0,0,0,0-.25,2.57,2.57,0,0,0,0-.67l.06,0a1.84,1.84,0,0,1,.42,1.27,1.74,1.74,0,0,1-1.87,1.66,1.81,1.81,0,0,1-1.21-.58Z"/><path class="cls-8" d="M253.18,32.75a2.21,2.21,0,0,0-1.21-.11l-.11,0c-.05,0-.13,0-.15,0l-.18.09a1.13,1.13,0,0,0-.36.24,1.8,1.8,0,0,0-.5.74,2.23,2.23,0,0,0,0,1.22l-.06,0a1.78,1.78,0,0,1-.49-1.3,1.81,1.81,0,0,1,.59-1.27,1.79,1.79,0,0,1,2.56.22Z"/><circle class="cls-9" cx="214.37" cy="12.24" r="0.63"/><circle class="cls-9" cx="232.8" cy="1.19" r="0.63"/><circle class="cls-9" cx="251.16" cy="12.02" r="0.63"/><circle class="cls-9" cx="251.16" cy="33.32" r="0.63"/><circle class="cls-9" cx="232.71" cy="44.22" r="0.63"/><circle class="cls-9" cx="214.37" cy="33.32" r="0.63"/></g></g></g></svg>