<svg xmlns="http://www.w3.org/2000/svg" viewBox="0 0 250.47 46.61"><defs><style>.cls-1{isolation:isolate;}.cls-2,.cls-3{fill:#f9dc69;}.cls-3,.cls-7{mix-blend-mode:screen;}.cls-4{fill:#eea23a;}.cls-5{fill:#c07e2d;}.cls-11,.cls-6{fill:#daad5e;}.cls-10,.cls-6{mix-blend-mode:multiply;}.cls-7{fill:#b04622;}.cls-8{fill:#fae899;}.cls-9{fill:#fff;}</style></defs><title>資產 6</title><g class="cls-1"><g id="圖層_2" data-name="圖層 2"><g id="圖層_13" data-name="圖層 13"><path class="cls-2" d="M20.21,3.52h.21l.14,0,.17,0,.19-.08a1,1,0,0,0,.21-.11l5.55,8.87L37,12.48s0,.09,0,.15a2.11,2.11,0,0,0,0,.25c0,.08,0,.16.05.25l.09.23a1.13,1.13,0,0,0,.12.21,1.66,1.66,0,0,0,.73.63h0l-4.84,9.11,4.78,9a.82.82,0,0,0-.2.12h0a1.88,1.88,0,0,0-.44.45.21.21,0,0,1,0,.06.56.56,0,0,0-.09.17,1.68,1.68,0,0,0-.17.74,2,2,0,0,0,0,.25s0,0,0,.05l-10.3.36-5.54,8.86a1.6,1.6,0,0,0-.68-.25l-.25,0a1.47,1.47,0,0,0-.48.07l-.2.06s0,0,0,0l-.2.11-5.53-8.85L3.52,34.13a1.49,1.49,0,0,0,0-.21,1.15,1.15,0,0,0,0-.26,1.5,1.5,0,0,0-.15-.51L3.25,33a0,0,0,0,1,0,0l-.14-.17-.18-.18h0l-.18-.13h0a1.13,1.13,0,0,0-.21-.12l4.8-9L2.48,14.23l.22-.12a1.76,1.76,0,0,0,.54-.51l.13-.23.09-.23a1,1,0,0,0,0-.25,1.15,1.15,0,0,0,0-.26.71.71,0,0,0,0-.15l10.24-.35L19.3,3.26l.2.12s0,0,0,0l.2.07A1.8,1.8,0,0,0,20.21,3.52Zm0,38.11,5.51-8.8,10.38-.36-4.89-9.16,4.89-9.17-10.38-.36L20.21,5l-5.49,8.81-10.38.36,4.88,9.17L4.34,32.47l10.38.36Z"/><path class="cls-2" d="M2.73,32.45l.18.13h0l.18.18c0,.06.09.12.14.17a0,0,0,0,0,0,0l.11.19a1.5,1.5,0,0,1,.15.51,1.15,1.15,0,0,1,0,.26,1.49,1.49,0,0,1,0,.21,1.73,1.73,0,1,1-1.72-2,1.67,1.67,0,0,1,.71.15l.21.12Z"/><path class="cls-2" d="M21.13,43.35h0A1.72,1.72,0,0,1,22,44.82a1.74,1.74,0,1,1-2.65-1.48l.2-.11s0,0,0,0l.2-.06a1.47,1.47,0,0,1,.48-.07l.25,0A1.86,1.86,0,0,1,21.13,43.35Z"/><path class="cls-2" d="M38.69,32.1a1.74,1.74,0,1,1-1.71,2,2,2,0,0,1,0-.25,1.68,1.68,0,0,1,.17-.74l.09-.17a.21.21,0,0,0,0-.06,2.08,2.08,0,0,1,.44-.45h0l.2-.12h0A1.73,1.73,0,0,1,38.69,32.1Z"/><path class="cls-2" d="M40.43,12.63a1.74,1.74,0,0,1-1.74,1.73A1.69,1.69,0,0,1,38,14.2h0a1.79,1.79,0,0,1-.73-.63l-.12-.21L37,13.13c0-.09,0-.17-.05-.25a2,2,0,0,1,0-.25c0-.06,0-.1,0-.15a1.73,1.73,0,0,1,1.72-1.6A1.74,1.74,0,0,1,40.43,12.63Z"/><path class="cls-2" d="M20.21.05a1.74,1.74,0,0,1,.92,3.21,1,1,0,0,1-.21.11l-.19.08-.17,0-.14,0h-.21a1.8,1.8,0,0,1-.48-.06l-.2-.07s0,0,0,0l-.2-.12a1.72,1.72,0,0,1-.83-1.47A1.74,1.74,0,0,1,20.21.05Z"/><path class="cls-2" d="M3.52,12.48a.68.68,0,0,1,0,.15,1.09,1.09,0,0,1,0,.26,1,1,0,0,1,0,.25l-.09.23a1.71,1.71,0,0,1-.13.23,1.76,1.76,0,0,1-.54.51l-.22.12a1.72,1.72,0,0,1-.68.13,1.74,1.74,0,1,1,1.73-1.88Z"/><path class="cls-2" d="M25.68,13.84a10.94,10.94,0,1,1-10.92,0,10.65,10.65,0,0,1,5.45-1.48A10.81,10.81,0,0,1,25.68,13.84Z"/><path class="cls-3" d="M28.49,16.16a11,11,0,0,0-2.81-2.32,9.54,9.54,0,0,0-1.4-.68A87.24,87.24,0,0,0,10.12,27.49a10.91,10.91,0,0,0,3.6,4.59C18.05,26.18,23.34,21.24,28.49,16.16Z"/><path class="cls-3" d="M29.85,18.16a143.65,143.65,0,0,0-13,15.54c.42.13.86.24,1.3.33A92.9,92.9,0,0,1,30.39,19.32,11.16,11.16,0,0,0,29.85,18.16Z"/><path class="cls-4" d="M9.29,23.31a10.92,10.92,0,0,0,5.47,9.46l0,.06L4.34,32.47l4.88-9.16Z"/><path class="cls-4" d="M25.68,32.77l0,.06-5.51,8.8-5.49-8.8,0-.06a10.94,10.94,0,0,0,10.92,0Z"/><path class="cls-4" d="M31.21,23.31l4.89,9.16-10.38.36,0-.06a10.92,10.92,0,0,0,5.47-9.46Z"/><path class="cls-4" d="M36.1,14.14l-4.89,9.17h-.06a10.91,10.91,0,0,0-5.47-9.47l0-.06Z"/><path class="cls-4" d="M20.21,5l5.51,8.81,0,.06a10.81,10.81,0,0,0-5.47-1.47,10.65,10.65,0,0,0-5.45,1.48l0-.07Z"/><path class="cls-4" d="M4.34,14.14l10.38-.36,0,.07a10.89,10.89,0,0,0-5.47,9.46H9.22Z"/><path class="cls-5" d="M14.69,32.87,9.51,32.8l-5.19-.1H4l.17-.33c1.57-3.08,3.19-6.14,4.8-9.2v.29c-1.65-3-3.26-6.1-4.87-9.16l-.24-.45h.5l10.38-.22-.14.08,2.79-4.38c.92-1.46,1.85-2.93,2.75-4.4l.11-.17.1.17q2.76,4.39,5.57,8.76l-.16-.09,10.38.25h.5l-.24.45-4.82,9.19v-.35c1.65,3,3.27,6.1,4.89,9.16l.29.55-.62,0c-3.46.11-6.92.23-10.38.3L26,33l-5.6,8.74L20.2,42,20,41.75c-.9-1.48-1.81-3-2.7-4.44Zm0-.07,2.85,4.36c1,1.44,1.87,2.91,2.81,4.37H20l5.4-8.87.09-.15h.18c3.45-.17,6.91-.29,10.37-.41l-.32.56q-2.46-4.57-4.87-9.17l-.1-.18.1-.17L35.81,14l.26.46L25.7,14h-.11l-.06-.09Q22.85,9.45,20.1,5h.21q-1.39,2.19-2.74,4.41l-2.72,4.42,0,.08h-.1l-10.37.5L4.6,14c1.64,3,3.29,6.1,4.89,9.17l.07.15-.07.14c-1.65,3.05-3.28,6.1-5,9.13l-.19-.34,5.18.26Z"/><path class="cls-5" d="M20.21,34.61a11.31,11.31,0,1,1,11.3-11.3A11.31,11.31,0,0,1,20.21,34.61Zm0-21.86A10.56,10.56,0,1,0,30.76,23.31,10.58,10.58,0,0,0,20.21,12.75Z"/><path class="cls-4" d="M21.24,43.87l-.32-.2a1.36,1.36,0,0,0-1.44,0l-.31.2-5.63-9L3.09,34.49l.05-.4c0-.1,0-.13,0-.17a1.36,1.36,0,0,0-.82-1.24L2,32.52l4.9-9.21L2,14l.37-.16a1.36,1.36,0,0,0,.84-1.26l0-.5,10.42-.36,5.63-9,.32.2a1.34,1.34,0,0,0,1.43,0l.32-.2,5.63,9,10.49.36,0,.47a1.37,1.37,0,0,0,.8,1.27l.36.17-4.94,9.28,4.87,9.15-.34.17a1.36,1.36,0,0,0-.75,1.21,1.79,1.79,0,0,0,0,.23l.07.42-10.54.36Zm-1-1.16a2.13,2.13,0,0,1,.79.15l5.46-8.74,10.12-.35a2.1,2.1,0,0,1,.84-1.6l-4.72-8.86,4.77-9a2.13,2.13,0,0,1-.88-1.49l-10.13-.36L21,3.75a2.13,2.13,0,0,1-1.57,0L14,12.49l-10.08.35A2.09,2.09,0,0,1,3,14.38l4.75,8.93L3,32.19a2.12,2.12,0,0,1,.9,1.58L14,34.12l5.46,8.74A2,2,0,0,1,20.2,42.71Z"/><path class="cls-6" d="M20.2,15.19a1.22,1.22,0,1,0,1.21,1.22A1.22,1.22,0,0,0,20.2,15.19Z"/><path class="cls-6" d="M20.2,28.84a1.22,1.22,0,1,0,0,2.43,1.22,1.22,0,0,0,0-2.43Z"/><path class="cls-7" d="M20.37,15.26a1.22,1.22,0,1,0,0,2.43,1.22,1.22,0,0,0,0-2.43Z"/><path class="cls-7" d="M20.37,28.91a1.22,1.22,0,1,0,0,2.43,1.22,1.22,0,0,0,0-2.43Z"/><path class="cls-4" d="M18.79,2.75A2.17,2.17,0,0,0,20,3a1.46,1.46,0,0,0,.47-.13,1.17,1.17,0,0,0,.38-.24,1.69,1.69,0,0,0,.52-.76,2.22,2.22,0,0,0,0-1.26l.05,0A1.76,1.76,0,0,1,22,1.88a1.86,1.86,0,0,1-.63,1.31,1.79,1.79,0,0,1-2.62-.39Z"/><path class="cls-8" d="M21.4.59a2.4,2.4,0,0,0-1.14,0l-.06,0s0,0-.05,0a.33.33,0,0,0-.13,0l-.17.08a1.46,1.46,0,0,0-.33.22,1.87,1.87,0,0,0-.51.65,2.4,2.4,0,0,0-.21,1.13l-.07,0a1.77,1.77,0,0,1-.3-1.25A1.77,1.77,0,0,1,19,.4a1.78,1.78,0,0,1,2.41.14Z"/><path class="cls-4" d="M18.91,45.93a2.22,2.22,0,0,0,1.22.09l.06,0s0,0,.06,0,.12,0,.13,0a1.07,1.07,0,0,0,.19-.09,1.48,1.48,0,0,0,.35-.25,1.61,1.61,0,0,0,.48-.76,2.17,2.17,0,0,0,0-1.22l.05,0A1.72,1.72,0,0,1,22,44.85,1.77,1.77,0,0,1,18.86,46Z"/><path class="cls-8" d="M21.4,43.62a2.22,2.22,0,0,0-1.18,0,1.3,1.3,0,0,0-.41.18,1,1,0,0,0-.33.24,1.82,1.82,0,0,0-.48.71,2.3,2.3,0,0,0-.09,1.18l-.05,0A1.79,1.79,0,0,1,19,43.49a1.8,1.8,0,0,1,2.48.07Z"/><path class="cls-4" d="M.49,13.71a2.13,2.13,0,0,0,1.26.12,1.77,1.77,0,0,0,.46-.19,1.17,1.17,0,0,0,.35-.28A1.61,1.61,0,0,0,3,12.52a2.11,2.11,0,0,0-.17-1.25l.05-.06a1.8,1.8,0,0,1,.23,2.67,1.8,1.8,0,0,1-1.37.53,1.74,1.74,0,0,1-1.3-.65Z"/><path class="cls-8" d="M2.82,11.27a2.55,2.55,0,0,0-1.14.16,2.11,2.11,0,0,0-.66.46,1.84,1.84,0,0,0-.43.69,2.45,2.45,0,0,0-.1,1.13l-.06,0A1.79,1.79,0,0,1,0,12.56a1.83,1.83,0,0,1,.48-1.19,1.82,1.82,0,0,1,2.39-.16Z"/><path class="cls-4" d="M.57,35.11a2.37,2.37,0,0,0,1.21,0,1.73,1.73,0,0,0,.76-.45A1.77,1.77,0,0,0,3,33.93a2.25,2.25,0,0,0,0-1.21l.06,0a1.77,1.77,0,0,1,0,2.54,1.81,1.81,0,0,1-1.28.51,1.8,1.8,0,0,1-1.26-.56Z"/><path class="cls-8" d="M3,32.72a2.29,2.29,0,0,0-1.2,0,1.7,1.7,0,0,0-.76.45,1.72,1.72,0,0,0-.45.74,2.28,2.28,0,0,0,0,1.2l-.06,0A1.77,1.77,0,0,1,0,33.91a1.82,1.82,0,0,1,.52-1.28,1.8,1.8,0,0,1,1.28-.5,1.77,1.77,0,0,1,1.25.54Z"/><path class="cls-4" d="M37.33,13.66a2.2,2.2,0,0,0,1.23.16s.11,0,.1,0l.17,0,.19-.09a1.11,1.11,0,0,0,.36-.25,1.63,1.63,0,0,0,.51-.76,2.26,2.26,0,0,0,0-1.24l.06-.05a1.76,1.76,0,0,1,.53,1.31,1.77,1.77,0,0,1-3.19,1Z"/><path class="cls-8" d="M39.89,11.42a2.4,2.4,0,0,0-1.17,0s-.23.06-.23.08l-.18.09a1.55,1.55,0,0,0-.33.24,1.77,1.77,0,0,0-.5.68,1.86,1.86,0,0,0-.08.25,1.22,1.22,0,0,0,0,.25,2.72,2.72,0,0,0,0,.65l-.06.05a1.77,1.77,0,0,1,1.47-2.88,1.81,1.81,0,0,1,1.2.54Z"/><path class="cls-4" d="M37.44,35a2.33,2.33,0,0,0,1.19,0s.23,0,.24-.07l.18-.1a1.56,1.56,0,0,0,.34-.23,1.77,1.77,0,0,0,.49-.71s0-.09,0-.1a.53.53,0,0,1,0-.16.87.87,0,0,0,0-.25,2.53,2.53,0,0,0,0-.67l0,0A1.8,1.8,0,0,1,40.47,34a1.74,1.74,0,0,1-1.87,1.66,1.79,1.79,0,0,1-1.21-.58Z"/><path class="cls-8" d="M40,32.75a2.25,2.25,0,0,0-1.22-.11l-.1,0c-.05,0-.14,0-.15,0l-.19.09A1.21,1.21,0,0,0,38,33a1.8,1.8,0,0,0-.5.74,2.31,2.31,0,0,0,0,1.22l0,0a1.79,1.79,0,0,1-.5-1.3,1.85,1.85,0,0,1,.59-1.27,1.87,1.87,0,0,1,1.34-.43A1.8,1.8,0,0,1,40,32.7Z"/><circle class="cls-9" cx="1.18" cy="12.24" r="0.63"/><circle class="cls-9" cx="19.61" cy="1.19" r="0.63"/><circle class="cls-9" cx="37.97" cy="12.02" r="0.63"/><circle class="cls-9" cx="37.97" cy="33.32" r="0.63"/><circle class="cls-9" cx="19.51" cy="44.22" r="0.63"/><circle class="cls-9" cx="1.18" cy="33.32" r="0.63"/><g class="cls-10"><path class="cls-11" d="M13,21.81l.62-.43-.72,1.38,0-.72a1.67,1.67,0,0,0-.73-.23c-.43,0-.58.2-.58.4,0,.41.32.53,1,.75a1,1,0,0,1-.34,1.88,1.67,1.67,0,0,1-1.09-.41l-.62.43.7-1.24a1,1,0,0,0,.84.89.55.55,0,0,0,.61-.5c0-.73-1.79-.56-1.79-1.68,0-.43.33-.87,1.1-.87A1.62,1.62,0,0,1,13,21.81Z"/><path class="cls-11" d="M15.18,21.38l-.47.25-.06,1.2,1.24,0,0-1-.44-.26,1.42-.09-.54.44.09,2.42.5.33H15.24l.6-.4,0-1.13-1.25,0-.05,1,.35.36H13.76l.41-.34L14,21.67l-.52-.32Z"/><path class="cls-11" d="M19.56,24.63l-2.71.11.6-.61.17-2.22-.72-.36,2.58-.18,0,1.13-.45-.8-1.1.17L18,23l.25,0,.5-.66,0,1.52-.43-.63-.35.05,0,1,1.08.1.41-1Z"/><path class="cls-11" d="M22.18,24.87c-.28,0-1.15-.83-1.43-1.11l0,.6.51.28-1.53.11.51-.47.09-2.43-.62-.3c1.25-.07,1.7-.06,1.83-.06.41,0,1.09.21,1.09.84,0,.19-.11,1.07-1.8,1.1a3.12,3.12,0,0,0,1.41.76.65.65,0,0,0,.62-.42C22.71,24.65,22.3,24.87,22.18,24.87Zm-1.32-3h-.15l0,1.29c.6,0,1.22-.26,1.22-.67S21.86,21.83,20.86,21.83Z"/><path class="cls-11" d="M23.92,22.11,24,24.28l.5.35-1.71.15.59-.49L23.52,22l-.5-.39,1.46.09Z"/><path class="cls-11" d="M27.1,22.5l-.38-.83-1.23.24,0,.89h.37l.4-.59v1.47L25.88,23l-.33,0,.06,1.21.71.3-1.84.19L25,24.3l.13-2.3-.66-.58,2.62-.1Z"/><path class="cls-11" d="M29.7,22.5l-.38-.83-1.23.24,0,.89h.37l.4-.59v1.47L28.48,23l-.33,0,.06,1.21.71.3-1.84.19.53-.47.12-2.3-.65-.58,2.62-.1Z"/></g><path class="cls-2" d="M72.71,3.52h.21l.14,0,.17,0,.19-.08a1,1,0,0,0,.21-.11l5.55,8.87,10.29.35s0,.09,0,.15a2.11,2.11,0,0,0,0,.25c0,.08,0,.16,0,.25l.09.23a1.13,1.13,0,0,0,.12.21,1.66,1.66,0,0,0,.73.63h0l-4.84,9.11,4.78,9a.82.82,0,0,0-.2.12h0a1.88,1.88,0,0,0-.44.45l0,.06a.56.56,0,0,0-.09.17,1.68,1.68,0,0,0-.17.74,2,2,0,0,0,0,.25s0,0,0,.05l-10.3.36-5.54,8.86A1.6,1.6,0,0,0,73,43.1l-.25,0a1.47,1.47,0,0,0-.48.07l-.2.06s0,0,0,0l-.2.11-5.53-8.85L56,34.13a1.49,1.49,0,0,0,0-.21,1.15,1.15,0,0,0,0-.26,1.5,1.5,0,0,0-.15-.51L55.75,33a0,0,0,0,1,0,0l-.14-.17-.18-.18h0l-.18-.13h0a1.13,1.13,0,0,0-.21-.12l4.8-9L55,14.23l.22-.12a1.76,1.76,0,0,0,.54-.51l.13-.23.09-.23a1,1,0,0,0,0-.25,1.15,1.15,0,0,0,0-.26.71.71,0,0,0,0-.15l10.24-.35L71.8,3.26l.2.12s0,0,0,0l.2.07A1.8,1.8,0,0,0,72.71,3.52Zm0,38.11,5.51-8.8,10.38-.36-4.89-9.16,4.89-9.17-10.38-.36L72.71,5l-5.49,8.81-10.38.36,4.88,9.17-4.88,9.16,10.38.36Z"/><path class="cls-2" d="M55.23,32.45l.18.13h0l.18.18c0,.06.09.12.14.17a0,0,0,0,0,0,0l.11.19a1.5,1.5,0,0,1,.15.51,1.15,1.15,0,0,1,0,.26,1.49,1.49,0,0,1,0,.21,1.73,1.73,0,1,1-1.72-2,1.67,1.67,0,0,1,.71.15l.21.12Z"/><path class="cls-2" d="M73.63,43.35h0a1.72,1.72,0,0,1,.81,1.47,1.74,1.74,0,1,1-2.65-1.48l.2-.11s0,0,0,0l.2-.06a1.47,1.47,0,0,1,.48-.07l.25,0A1.86,1.86,0,0,1,73.63,43.35Z"/><path class="cls-2" d="M91.19,32.1a1.74,1.74,0,1,1-1.71,2,2,2,0,0,1,0-.25,1.68,1.68,0,0,1,.17-.74l.09-.17,0-.06a2.08,2.08,0,0,1,.44-.45h0l.2-.12h0A1.73,1.73,0,0,1,91.19,32.1Z"/><path class="cls-2" d="M92.93,12.63a1.74,1.74,0,0,1-1.74,1.73,1.69,1.69,0,0,1-.72-.16h0a1.79,1.79,0,0,1-.73-.63l-.12-.21-.09-.23c0-.09,0-.17,0-.25a2,2,0,0,1,0-.25c0-.06,0-.1,0-.15a1.73,1.73,0,0,1,1.72-1.6A1.74,1.74,0,0,1,92.93,12.63Z"/><path class="cls-2" d="M72.71.05a1.74,1.74,0,0,1,.92,3.21,1,1,0,0,1-.21.11l-.19.08-.17,0-.14,0h-.21a1.8,1.8,0,0,1-.48-.06L72,3.39s0,0,0,0l-.2-.12A1.72,1.72,0,0,1,71,1.79,1.74,1.74,0,0,1,72.71.05Z"/><path class="cls-2" d="M56,12.48a.68.68,0,0,1,0,.15,1.09,1.09,0,0,1,0,.26,1,1,0,0,1,0,.25l-.09.23a1.71,1.71,0,0,1-.13.23,1.76,1.76,0,0,1-.54.51l-.22.12a1.72,1.72,0,0,1-.68.13A1.74,1.74,0,1,1,56,12.48Z"/><path class="cls-2" d="M78.18,13.84a10.94,10.94,0,1,1-10.92,0,10.65,10.65,0,0,1,5.45-1.48A10.81,10.81,0,0,1,78.18,13.84Z"/><path class="cls-3" d="M81,16.16a11,11,0,0,0-2.81-2.32,9.54,9.54,0,0,0-1.4-.68A87.24,87.24,0,0,0,62.62,27.49a10.91,10.91,0,0,0,3.6,4.59C70.55,26.18,75.84,21.24,81,16.16Z"/><path class="cls-3" d="M82.35,18.16a143.65,143.65,0,0,0-13,15.54c.42.13.86.24,1.3.33A92.9,92.9,0,0,1,82.89,19.32,11.16,11.16,0,0,0,82.35,18.16Z"/><path class="cls-4" d="M61.79,23.31a10.92,10.92,0,0,0,5.47,9.46l0,.06-10.38-.36,4.88-9.16Z"/><path class="cls-4" d="M78.18,32.77l0,.06-5.51,8.8-5.49-8.8,0-.06a10.94,10.94,0,0,0,10.92,0Z"/><path class="cls-4" d="M83.71,23.31l4.89,9.16-10.38.36,0-.06a10.92,10.92,0,0,0,5.47-9.46Z"/><path class="cls-4" d="M88.6,14.14l-4.89,9.17h-.06a10.91,10.91,0,0,0-5.47-9.47l0-.06Z"/><path class="cls-4" d="M72.71,5l5.51,8.81,0,.06a10.81,10.81,0,0,0-5.47-1.47,10.65,10.65,0,0,0-5.45,1.48l0-.07Z"/><path class="cls-4" d="M56.84,14.14l10.38-.36,0,.07a10.89,10.89,0,0,0-5.47,9.46h-.07Z"/><path class="cls-5" d="M67.19,32.87,62,32.8l-5.19-.1h-.36l.17-.33c1.57-3.08,3.19-6.14,4.8-9.2v.29c-1.65-3-3.26-6.1-4.87-9.16l-.24-.45h.5l10.38-.22-.14.08,2.79-4.38c.92-1.46,1.85-2.93,2.75-4.4l.11-.17.1.17q2.76,4.39,5.57,8.76l-.16-.09,10.38.25h.5l-.24.45L84,23.48v-.35c1.65,3,3.27,6.1,4.89,9.16l.29.55-.62,0c-3.46.11-6.92.23-10.38.3l.27-.15-5.6,8.74L72.7,42l-.17-.29c-.9-1.48-1.81-3-2.7-4.44Zm0-.07,2.85,4.36c1,1.44,1.87,2.91,2.81,4.37h-.36l5.4-8.87.09-.15h.18c3.45-.17,6.91-.29,10.37-.41l-.32.56q-2.46-4.57-4.87-9.17l-.1-.18.1-.17L88.31,14l.26.46L78.2,14h-.11L78,13.89Q75.35,9.45,72.6,5h.21q-1.4,2.19-2.74,4.41l-2.72,4.42,0,.08h-.1l-10.37.5L57.1,14c1.64,3,3.29,6.1,4.89,9.17l.07.15-.07.14c-1.65,3.05-3.28,6.1-5,9.13l-.19-.34L62,32.5Z"/><path class="cls-5" d="M72.71,34.61A11.31,11.31,0,1,1,84,23.31,11.31,11.31,0,0,1,72.71,34.61Zm0-21.86A10.56,10.56,0,1,0,83.26,23.31,10.58,10.58,0,0,0,72.71,12.75Z"/><path class="cls-4" d="M73.74,43.87l-.32-.2a1.36,1.36,0,0,0-1.44,0l-.31.2-5.63-9-10.45-.36,0-.4c0-.1,0-.13,0-.17a1.36,1.36,0,0,0-.82-1.24l-.36-.16,4.9-9.21L54.45,14l.37-.16a1.36,1.36,0,0,0,.84-1.26l0-.5L66,11.76l5.63-9L72,3a1.34,1.34,0,0,0,1.43,0l.32-.2,5.63,9,10.49.36,0,.47a1.37,1.37,0,0,0,.8,1.27L91,14,86,23.31l4.87,9.15-.34.17a1.36,1.36,0,0,0-.75,1.21,1.79,1.79,0,0,0,0,.23l.07.42-10.54.36Zm-1-1.16a2.13,2.13,0,0,1,.79.15L79,34.12l10.12-.35a2.1,2.1,0,0,1,.84-1.6l-4.72-8.86,4.77-9a2.13,2.13,0,0,1-.88-1.49L79,12.49,73.49,3.75a2.13,2.13,0,0,1-1.57,0l-5.45,8.74-10.08.35a2.09,2.09,0,0,1-.92,1.54l4.75,8.93L55.5,32.19a2.12,2.12,0,0,1,.9,1.58l10.07.35,5.46,8.74A2,2,0,0,1,72.7,42.71Z"/><path class="cls-6" d="M72.7,15.19a1.22,1.22,0,1,0,1.21,1.22A1.22,1.22,0,0,0,72.7,15.19Z"/><path class="cls-6" d="M72.7,28.84a1.22,1.22,0,1,0,0,2.43,1.22,1.22,0,0,0,0-2.43Z"/><path class="cls-7" d="M72.87,15.26a1.22,1.22,0,1,0,0,2.43,1.22,1.22,0,0,0,0-2.43Z"/><path class="cls-7" d="M72.87,28.91a1.22,1.22,0,1,0,0,2.43,1.22,1.22,0,0,0,0-2.43Z"/><path class="cls-4" d="M71.29,2.75A2.17,2.17,0,0,0,72.53,3,1.46,1.46,0,0,0,73,2.85a1.17,1.17,0,0,0,.38-.24,1.69,1.69,0,0,0,.52-.76,2.22,2.22,0,0,0,0-1.26l0,0a1.76,1.76,0,0,1,.54,1.34,1.86,1.86,0,0,1-.63,1.31,1.79,1.79,0,0,1-2.62-.39Z"/><path class="cls-8" d="M73.9.59a2.4,2.4,0,0,0-1.14,0l-.06,0s0,0,0,0a.33.33,0,0,0-.13,0l-.17.08A1.46,1.46,0,0,0,72,1a1.87,1.87,0,0,0-.51.65,2.4,2.4,0,0,0-.21,1.13l-.07,0a1.77,1.77,0,0,1-.3-1.25A1.77,1.77,0,0,1,71.54.4,1.78,1.78,0,0,1,74,.54Z"/><path class="cls-4" d="M71.41,45.93a2.22,2.22,0,0,0,1.22.09l.06,0s0,0,.06,0,.12,0,.13,0a1.07,1.07,0,0,0,.19-.09,1.48,1.48,0,0,0,.35-.25,1.61,1.61,0,0,0,.48-.76,2.17,2.17,0,0,0,0-1.22l0,0a1.72,1.72,0,0,1,.54,1.28A1.77,1.77,0,0,1,71.36,46Z"/><path class="cls-8" d="M73.9,43.62a2.22,2.22,0,0,0-1.18,0,1.3,1.3,0,0,0-.41.18A1,1,0,0,0,72,44a1.82,1.82,0,0,0-.48.71,2.3,2.3,0,0,0-.09,1.18l0,0a1.79,1.79,0,0,1,.11-2.49,1.8,1.8,0,0,1,2.48.07Z"/><path class="cls-4" d="M53,13.71a2.13,2.13,0,0,0,1.26.12,1.77,1.77,0,0,0,.46-.19,1.17,1.17,0,0,0,.35-.28,1.61,1.61,0,0,0,.43-.84,2.11,2.11,0,0,0-.17-1.25l0-.06a1.8,1.8,0,0,1,.23,2.67,1.8,1.8,0,0,1-1.37.53,1.74,1.74,0,0,1-1.3-.65Z"/><path class="cls-8" d="M55.32,11.27a2.55,2.55,0,0,0-1.14.16,2.11,2.11,0,0,0-.66.46,1.84,1.84,0,0,0-.43.69,2.45,2.45,0,0,0-.1,1.13l-.06,0a1.79,1.79,0,0,1-.43-1.2,1.78,1.78,0,0,1,2.87-1.35Z"/><path class="cls-4" d="M53.07,35.11a2.37,2.37,0,0,0,1.21,0,1.73,1.73,0,0,0,.76-.45,1.77,1.77,0,0,0,.46-.75,2.25,2.25,0,0,0,0-1.21l.06,0a1.77,1.77,0,0,1,0,2.54A1.78,1.78,0,0,1,53,35.16Z"/><path class="cls-8" d="M55.5,32.72a2.29,2.29,0,0,0-1.2,0,1.7,1.7,0,0,0-.76.45,1.72,1.72,0,0,0-.45.74,2.28,2.28,0,0,0,0,1.2l-.06,0a1.77,1.77,0,0,1-.52-1.25A1.82,1.82,0,0,1,53,32.63a1.8,1.8,0,0,1,1.28-.5,1.77,1.77,0,0,1,1.25.54Z"/><path class="cls-4" d="M89.83,13.66a2.2,2.2,0,0,0,1.23.16s.11,0,.1,0l.17,0,.19-.09a1.11,1.11,0,0,0,.36-.25,1.63,1.63,0,0,0,.51-.76,2.26,2.26,0,0,0,0-1.24l.06-.05A1.76,1.76,0,0,1,93,12.68a1.77,1.77,0,0,1-3.19,1Z"/><path class="cls-8" d="M92.39,11.42a2.4,2.4,0,0,0-1.17,0s-.23.06-.23.08l-.18.09a1.55,1.55,0,0,0-.33.24,1.77,1.77,0,0,0-.5.68,1.86,1.86,0,0,0-.08.25,1.22,1.22,0,0,0-.05.25,2.72,2.72,0,0,0,0,.65l-.06.05a1.77,1.77,0,0,1,1.47-2.88,1.81,1.81,0,0,1,1.2.54Z"/><path class="cls-4" d="M89.94,35a2.33,2.33,0,0,0,1.19,0s.23,0,.24-.07l.18-.1a1.56,1.56,0,0,0,.34-.23,1.77,1.77,0,0,0,.49-.71s0-.09,0-.1a.53.53,0,0,1,0-.16.87.87,0,0,0,0-.25,2.53,2.53,0,0,0,0-.67l.05,0A1.8,1.8,0,0,1,93,34a1.74,1.74,0,0,1-1.87,1.66,1.79,1.79,0,0,1-1.21-.58Z"/><path class="cls-8" d="M92.49,32.75a2.25,2.25,0,0,0-1.22-.11l-.1,0s-.14,0-.15,0l-.19.09a1.21,1.21,0,0,0-.35.24,1.8,1.8,0,0,0-.5.74,2.31,2.31,0,0,0,0,1.22l0,0a1.79,1.79,0,0,1-.5-1.3A1.85,1.85,0,0,1,90,32.48a1.87,1.87,0,0,1,1.34-.43,1.8,1.8,0,0,1,1.22.65Z"/><circle class="cls-9" cx="53.68" cy="12.24" r="0.63"/><circle class="cls-9" cx="72.11" cy="1.19" r="0.63"/><circle class="cls-9" cx="90.47" cy="12.02" r="0.63"/><circle class="cls-9" cx="90.47" cy="33.32" r="0.63"/><circle class="cls-9" cx="72.01" cy="44.22" r="0.63"/><circle class="cls-9" cx="53.68" cy="33.32" r="0.63"/><g class="cls-10"><path class="cls-11" d="M65.54,21.81l.62-.43-.72,1.38,0-.72a1.67,1.67,0,0,0-.73-.23c-.43,0-.58.2-.58.4,0,.41.32.53,1,.75a1,1,0,0,1-.34,1.88,1.67,1.67,0,0,1-1.09-.41l-.62.43.7-1.24a1,1,0,0,0,.84.89.55.55,0,0,0,.61-.5c0-.73-1.79-.56-1.79-1.68,0-.43.33-.87,1.1-.87A1.62,1.62,0,0,1,65.54,21.81Z"/><path class="cls-11" d="M67.68,21.38l-.47.25-.06,1.2,1.24,0,0-1L68,21.6l1.42-.09-.54.44L69,24.37l.5.33H67.74l.6-.4,0-1.13-1.25,0,0,1,.35.36H66.26l.41-.34-.14-2.49L66,21.35Z"/><path class="cls-11" d="M72.06,24.63l-2.71.11.6-.61.17-2.22-.72-.36L72,21.37l0,1.13-.45-.8-1.1.17,0,1.14.25,0,.5-.66,0,1.52-.43-.63-.35.05,0,1,1.08.1.41-1Z"/><path class="cls-11" d="M74.68,24.87c-.28,0-1.15-.83-1.43-1.11l0,.6.51.28-1.53.11.51-.47.09-2.43-.62-.3c1.25-.07,1.7-.06,1.83-.06.41,0,1.09.21,1.09.84,0,.19-.11,1.07-1.8,1.1a3.12,3.12,0,0,0,1.41.76.65.65,0,0,0,.62-.42C75.21,24.65,74.8,24.87,74.68,24.87Zm-1.32-3h-.15l0,1.29c.6,0,1.22-.26,1.22-.67S74.36,21.83,73.36,21.83Z"/><path class="cls-11" d="M76.42,22.11l.07,2.17.5.35-1.71.15.59-.49L76,22l-.5-.39,1.46.09Z"/><path class="cls-11" d="M79.6,22.5l-.38-.83L78,21.91l0,.89h.37l.4-.59v1.47L78.38,23l-.33,0,.06,1.21.71.3L77,24.77l.53-.47.13-2.3L77,21.42l2.62-.1Z"/><path class="cls-11" d="M82.2,22.5l-.38-.83-1.23.24,0,.89H81l.4-.59v1.47L81,23l-.33,0,.06,1.21.71.3-1.84.19.53-.47.12-2.3-.65-.58,2.62-.1Z"/></g><path class="cls-2" d="M125.21,3.52h.21l.14,0,.17,0,.19-.08a1,1,0,0,0,.21-.11l5.55,8.87,10.29.35s0,.09,0,.15a2.11,2.11,0,0,0,0,.25c0,.08,0,.16.05.25l.09.23a1.13,1.13,0,0,0,.12.21,1.66,1.66,0,0,0,.73.63h0l-4.84,9.11,4.78,9a.82.82,0,0,0-.2.12h0a1.88,1.88,0,0,0-.44.45.21.21,0,0,1,0,.06.56.56,0,0,0-.09.17,1.68,1.68,0,0,0-.17.74,2,2,0,0,0,0,.25s0,0,0,.05l-10.3.36-5.54,8.86a1.6,1.6,0,0,0-.68-.25l-.25,0a1.47,1.47,0,0,0-.48.07l-.2.06s0,0,0,0l-.2.11-5.53-8.85-10.25-.36a1.49,1.49,0,0,0,0-.21,1.15,1.15,0,0,0,0-.26,1.5,1.5,0,0,0-.15-.51l-.11-.19a0,0,0,0,1,0,0l-.14-.17-.18-.18h0l-.18-.13h0a1.13,1.13,0,0,0-.21-.12l4.8-9-4.83-9.08.22-.12a1.76,1.76,0,0,0,.54-.51l.13-.23.09-.23a1,1,0,0,0,.05-.25,1.15,1.15,0,0,0,0-.26.71.71,0,0,0,0-.15l10.24-.35,5.53-8.87.2.12s0,0,0,0l.2.07A1.8,1.8,0,0,0,125.21,3.52Zm0,38.11,5.51-8.8,10.38-.36-4.89-9.16,4.89-9.17-10.38-.36L125.21,5l-5.49,8.81-10.38.36,4.88,9.17-4.88,9.16,10.38.36Z"/><path class="cls-2" d="M107.73,32.45l.18.13h0l.18.18c.05.06.09.12.14.17a0,0,0,0,0,0,0l.11.19a1.5,1.5,0,0,1,.15.51,1.15,1.15,0,0,1,0,.26,1.49,1.49,0,0,1,0,.21,1.73,1.73,0,1,1-1.72-2,1.67,1.67,0,0,1,.71.15l.21.12Z"/><path class="cls-2" d="M126.13,43.35h0a1.72,1.72,0,0,1,.81,1.47,1.74,1.74,0,1,1-2.65-1.48l.2-.11s0,0,0,0l.2-.06a1.47,1.47,0,0,1,.48-.07l.25,0A1.86,1.86,0,0,1,126.13,43.35Z"/><path class="cls-2" d="M143.69,32.1a1.74,1.74,0,1,1-1.71,2,2,2,0,0,1,0-.25,1.68,1.68,0,0,1,.17-.74l.09-.17a.21.21,0,0,0,0-.06,2.08,2.08,0,0,1,.44-.45h0l.2-.12h0A1.73,1.73,0,0,1,143.69,32.1Z"/><path class="cls-2" d="M145.43,12.63a1.74,1.74,0,0,1-1.74,1.73,1.69,1.69,0,0,1-.72-.16h0a1.79,1.79,0,0,1-.73-.63l-.12-.21-.09-.23c0-.09,0-.17-.05-.25a2,2,0,0,1,0-.25c0-.06,0-.1,0-.15a1.73,1.73,0,0,1,1.72-1.6A1.74,1.74,0,0,1,145.43,12.63Z"/><path class="cls-2" d="M125.21.05a1.74,1.74,0,0,1,.92,3.21,1,1,0,0,1-.21.11l-.19.08-.17,0-.14,0h-.21a1.8,1.8,0,0,1-.48-.06l-.2-.07s0,0,0,0l-.2-.12a1.72,1.72,0,0,1-.83-1.47A1.74,1.74,0,0,1,125.21.05Z"/><path class="cls-2" d="M108.52,12.48a.68.68,0,0,1,0,.15,1.09,1.09,0,0,1,0,.26,1,1,0,0,1-.05.25l-.09.23a1.71,1.71,0,0,1-.13.23,1.76,1.76,0,0,1-.54.51l-.22.12a1.72,1.72,0,0,1-.68.13,1.74,1.74,0,1,1,1.73-1.88Z"/><path class="cls-2" d="M130.68,13.84a10.94,10.94,0,1,1-10.92,0,10.65,10.65,0,0,1,5.45-1.48A10.81,10.81,0,0,1,130.68,13.84Z"/><path class="cls-3" d="M133.49,16.16a11,11,0,0,0-2.81-2.32,9.54,9.54,0,0,0-1.4-.68,87.24,87.24,0,0,0-14.16,14.33,10.91,10.91,0,0,0,3.6,4.59C123.05,26.18,128.34,21.24,133.49,16.16Z"/><path class="cls-3" d="M134.85,18.16a143.65,143.65,0,0,0-13,15.54c.42.13.86.24,1.3.33a92.9,92.9,0,0,1,12.24-14.71A11.16,11.16,0,0,0,134.85,18.16Z"/><path class="cls-4" d="M114.29,23.31a10.92,10.92,0,0,0,5.47,9.46l0,.06-10.38-.36,4.88-9.16Z"/><path class="cls-4" d="M130.68,32.77l0,.06-5.51,8.8-5.49-8.8,0-.06a10.94,10.94,0,0,0,10.92,0Z"/><path class="cls-4" d="M136.21,23.31l4.89,9.16-10.38.36,0-.06a10.92,10.92,0,0,0,5.47-9.46Z"/><path class="cls-4" d="M141.1,14.14l-4.89,9.17h-.06a10.91,10.91,0,0,0-5.47-9.47l0-.06Z"/><path class="cls-4" d="M125.21,5l5.51,8.81,0,.06a10.81,10.81,0,0,0-5.47-1.47,10.65,10.65,0,0,0-5.45,1.48l0-.07Z"/><path class="cls-4" d="M109.34,14.14l10.38-.36,0,.07a10.89,10.89,0,0,0-5.47,9.46h-.07Z"/><path class="cls-5" d="M119.69,32.87l-5.18-.07-5.19-.1H109l.17-.33c1.57-3.08,3.19-6.14,4.8-9.2v.29c-1.65-3-3.26-6.1-4.87-9.16l-.24-.45h.5l10.38-.22-.14.08,2.79-4.38c.92-1.46,1.85-2.93,2.75-4.4l.11-.17.1.17q2.76,4.39,5.57,8.76l-.16-.09,10.38.25h.5l-.24.45-4.82,9.19v-.35c1.65,3,3.27,6.1,4.89,9.16l.29.55-.62,0c-3.46.11-6.92.23-10.38.3L131,33l-5.6,8.74-.19.29-.17-.29c-.9-1.48-1.81-3-2.7-4.44Zm0-.07,2.85,4.36c1,1.44,1.87,2.91,2.81,4.37H125l5.4-8.87.09-.15h.18c3.45-.17,6.91-.29,10.37-.41l-.32.56q-2.46-4.57-4.87-9.17l-.1-.18.1-.17L140.81,14l.26.46L130.7,14h-.11l-.06-.09Q127.85,9.45,125.1,5h.21q-1.4,2.19-2.74,4.41l-2.72,4.42,0,.08h-.1l-10.37.5.26-.46c1.64,3,3.29,6.1,4.89,9.17l.07.15-.07.14c-1.65,3.05-3.28,6.1-5,9.13l-.19-.34,5.18.26Z"/><path class="cls-5" d="M125.21,34.61a11.31,11.31,0,1,1,11.3-11.3A11.31,11.31,0,0,1,125.21,34.61Zm0-21.86a10.56,10.56,0,1,0,10.55,10.56A10.58,10.58,0,0,0,125.21,12.75Z"/><path class="cls-4" d="M126.24,43.87l-.32-.2a1.36,1.36,0,0,0-1.44,0l-.31.2-5.63-9-10.45-.36,0-.4c0-.1,0-.13,0-.17a1.36,1.36,0,0,0-.82-1.24l-.36-.16,4.9-9.21L107,14l.37-.16a1.36,1.36,0,0,0,.84-1.26l0-.5,10.42-.36,5.63-9,.32.2a1.34,1.34,0,0,0,1.43,0l.32-.2,5.63,9,10.49.36,0,.47a1.37,1.37,0,0,0,.8,1.27l.36.17-4.94,9.28,4.87,9.15-.34.17a1.36,1.36,0,0,0-.75,1.21,1.79,1.79,0,0,0,0,.23l.07.42-10.54.36Zm-1-1.16a2.13,2.13,0,0,1,.79.15l5.46-8.74,10.12-.35a2.1,2.1,0,0,1,.84-1.6l-4.72-8.86,4.77-9a2.13,2.13,0,0,1-.88-1.49l-10.13-.36L126,3.75a2.13,2.13,0,0,1-1.57,0L119,12.49l-10.08.35a2.09,2.09,0,0,1-.92,1.54l4.75,8.93L108,32.19a2.12,2.12,0,0,1,.9,1.58l10.07.35,5.46,8.74A2,2,0,0,1,125.2,42.71Z"/><path class="cls-6" d="M125.2,15.19a1.22,1.22,0,1,0,1.21,1.22A1.22,1.22,0,0,0,125.2,15.19Z"/><path class="cls-6" d="M125.2,28.84a1.22,1.22,0,1,0,0,2.43,1.22,1.22,0,0,0,0-2.43Z"/><path class="cls-7" d="M125.37,15.26a1.22,1.22,0,1,0,0,2.43,1.22,1.22,0,0,0,0-2.43Z"/><path class="cls-7" d="M125.37,28.91a1.22,1.22,0,1,0,0,2.43,1.22,1.22,0,0,0,0-2.43Z"/><path class="cls-4" d="M123.79,2.75A2.17,2.17,0,0,0,125,3a1.46,1.46,0,0,0,.47-.13,1.17,1.17,0,0,0,.38-.24,1.69,1.69,0,0,0,.52-.76,2.22,2.22,0,0,0,0-1.26l0,0A1.76,1.76,0,0,1,127,1.88a1.86,1.86,0,0,1-.63,1.31,1.79,1.79,0,0,1-2.62-.39Z"/><path class="cls-8" d="M126.4.59a2.4,2.4,0,0,0-1.14,0l-.06,0s0,0,0,0a.33.33,0,0,0-.13,0l-.17.08a1.46,1.46,0,0,0-.33.22,1.87,1.87,0,0,0-.51.65,2.4,2.4,0,0,0-.21,1.13l-.07,0a1.77,1.77,0,0,1-.3-1.25A1.77,1.77,0,0,1,124,.4a1.78,1.78,0,0,1,2.41.14Z"/><path class="cls-4" d="M123.91,45.93a2.22,2.22,0,0,0,1.22.09l.06,0s0,0,.06,0,.12,0,.13,0a1.07,1.07,0,0,0,.19-.09,1.48,1.48,0,0,0,.35-.25,1.61,1.61,0,0,0,.48-.76,2.17,2.17,0,0,0,0-1.22l0,0a1.72,1.72,0,0,1,.54,1.28A1.77,1.77,0,0,1,123.86,46Z"/><path class="cls-8" d="M126.4,43.62a2.22,2.22,0,0,0-1.18,0,1.3,1.3,0,0,0-.41.18,1,1,0,0,0-.33.24,1.82,1.82,0,0,0-.48.71,2.3,2.3,0,0,0-.09,1.18l0,0a1.79,1.79,0,0,1,.11-2.49,1.8,1.8,0,0,1,2.48.07Z"/><path class="cls-4" d="M105.49,13.71a2.13,2.13,0,0,0,1.26.12,1.77,1.77,0,0,0,.46-.19,1.17,1.17,0,0,0,.35-.28,1.61,1.61,0,0,0,.43-.84,2.11,2.11,0,0,0-.17-1.25l.05-.06a1.8,1.8,0,0,1,.23,2.67,1.8,1.8,0,0,1-1.37.53,1.74,1.74,0,0,1-1.3-.65Z"/><path class="cls-8" d="M107.82,11.27a2.55,2.55,0,0,0-1.14.16,2.11,2.11,0,0,0-.66.46,1.84,1.84,0,0,0-.43.69,2.45,2.45,0,0,0-.1,1.13l-.06,0a1.79,1.79,0,0,1-.43-1.2,1.78,1.78,0,0,1,2.87-1.35Z"/><path class="cls-4" d="M105.57,35.11a2.37,2.37,0,0,0,1.21,0,1.73,1.73,0,0,0,.76-.45,1.77,1.77,0,0,0,.46-.75,2.25,2.25,0,0,0,0-1.21l.06,0a1.77,1.77,0,0,1,0,2.54,1.78,1.78,0,0,1-2.54-.05Z"/><path class="cls-8" d="M108,32.72a2.29,2.29,0,0,0-1.2,0,1.7,1.7,0,0,0-.76.45,1.72,1.72,0,0,0-.45.74,2.28,2.28,0,0,0,0,1.2l-.06,0a1.77,1.77,0,0,1-.52-1.25,1.82,1.82,0,0,1,.52-1.28,1.8,1.8,0,0,1,1.28-.5,1.77,1.77,0,0,1,1.25.54Z"/><path class="cls-4" d="M142.33,13.66a2.2,2.2,0,0,0,1.23.16s.11,0,.1,0l.17,0,.19-.09a1.11,1.11,0,0,0,.36-.25,1.63,1.63,0,0,0,.51-.76,2.26,2.26,0,0,0,0-1.24l.06-.05a1.76,1.76,0,0,1,.53,1.31,1.77,1.77,0,0,1-3.19,1Z"/><path class="cls-8" d="M144.89,11.42a2.4,2.4,0,0,0-1.17,0s-.23.06-.23.08l-.18.09a1.55,1.55,0,0,0-.33.24,1.77,1.77,0,0,0-.5.68,1.86,1.86,0,0,0-.08.25,1.22,1.22,0,0,0-.05.25,2.72,2.72,0,0,0,0,.65l-.06.05a1.77,1.77,0,0,1,1.47-2.88,1.81,1.81,0,0,1,1.2.54Z"/><path class="cls-4" d="M142.44,35a2.33,2.33,0,0,0,1.19,0s.23,0,.24-.07l.18-.1a1.56,1.56,0,0,0,.34-.23,1.77,1.77,0,0,0,.49-.71s0-.09,0-.1a.53.53,0,0,1,0-.16.87.87,0,0,0,0-.25,2.53,2.53,0,0,0,0-.67l0,0a1.8,1.8,0,0,1,.43,1.27,1.74,1.74,0,0,1-1.87,1.66,1.79,1.79,0,0,1-1.21-.58Z"/><path class="cls-8" d="M145,32.75a2.25,2.25,0,0,0-1.22-.11l-.1,0s-.14,0-.15,0l-.19.09A1.21,1.21,0,0,0,143,33a1.8,1.8,0,0,0-.5.74,2.31,2.31,0,0,0,0,1.22l-.05,0a1.79,1.79,0,0,1-.5-1.3,1.85,1.85,0,0,1,.59-1.27,1.87,1.87,0,0,1,1.34-.43,1.8,1.8,0,0,1,1.22.65Z"/><circle class="cls-9" cx="106.18" cy="12.24" r="0.63"/><circle class="cls-9" cx="124.61" cy="1.19" r="0.63"/><circle class="cls-9" cx="142.97" cy="12.02" r="0.63"/><circle class="cls-9" cx="142.97" cy="33.32" r="0.63"/><circle class="cls-9" cx="124.51" cy="44.22" r="0.63"/><circle class="cls-9" cx="106.18" cy="33.32" r="0.63"/><g class="cls-10"><path class="cls-11" d="M118,21.81l.62-.43-.72,1.38,0-.72a1.67,1.67,0,0,0-.73-.23c-.43,0-.58.2-.58.4,0,.41.32.53,1,.75a1,1,0,0,1-.34,1.88,1.67,1.67,0,0,1-1.09-.41l-.62.43.7-1.24a1,1,0,0,0,.84.89.55.55,0,0,0,.61-.5c0-.73-1.79-.56-1.79-1.68,0-.43.33-.87,1.1-.87A1.62,1.62,0,0,1,118,21.81Z"/><path class="cls-11" d="M120.18,21.38l-.47.25-.06,1.2,1.24,0,0-1-.44-.26,1.42-.09-.54.44.09,2.42.5.33h-1.71l.6-.4,0-1.13-1.25,0,0,1,.35.36h-1.17l.41-.34L119,21.67l-.52-.32Z"/><path class="cls-11" d="M124.56,24.63l-2.71.11.6-.61.17-2.22-.72-.36,2.58-.18,0,1.13-.45-.8-1.1.17L123,23l.25,0,.5-.66,0,1.52-.43-.63-.35.05,0,1,1.08.1.41-1Z"/><path class="cls-11" d="M127.18,24.87c-.28,0-1.15-.83-1.43-1.11l0,.6.51.28-1.53.11.51-.47.09-2.43-.62-.3c1.25-.07,1.7-.06,1.83-.06.41,0,1.09.21,1.09.84,0,.19-.11,1.07-1.8,1.1a3.12,3.12,0,0,0,1.41.76.65.65,0,0,0,.62-.42C127.71,24.65,127.3,24.87,127.18,24.87Zm-1.32-3h-.15l0,1.29c.6,0,1.22-.26,1.22-.67S126.86,21.83,125.86,21.83Z"/><path class="cls-11" d="M128.92,22.11l.07,2.17.5.35-1.71.15.59-.49.15-2.33-.5-.39,1.46.09Z"/><path class="cls-11" d="M132.1,22.5l-.38-.83-1.23.24,0,.89h.37l.4-.59v1.47l-.42-.65-.33,0,.06,1.21.71.3-1.84.19.53-.47.13-2.3-.66-.58,2.62-.1Z"/><path class="cls-11" d="M134.7,22.5l-.38-.83-1.23.24,0,.89h.37l.4-.59v1.47l-.42-.65-.33,0,.06,1.21.71.3-1.84.19.53-.47.12-2.3-.65-.58,2.62-.1Z"/></g><path class="cls-2" d="M177.71,3.52h.21l.14,0,.17,0,.19-.08a1,1,0,0,0,.21-.11l5.55,8.87,10.29.35s0,.09,0,.15a2.11,2.11,0,0,0,0,.25c0,.08,0,.16.05.25l.09.23a1.13,1.13,0,0,0,.12.21,1.66,1.66,0,0,0,.73.63h0l-4.84,9.11,4.78,9a.82.82,0,0,0-.2.12h0a1.88,1.88,0,0,0-.44.45.21.21,0,0,1,0,.06.56.56,0,0,0-.09.17,1.68,1.68,0,0,0-.17.74,2,2,0,0,0,0,.25s0,0,0,.05l-10.3.36-5.54,8.86a1.6,1.6,0,0,0-.68-.25l-.25,0a1.47,1.47,0,0,0-.48.07l-.2.06s0,0,0,0l-.2.11-5.53-8.85L161,34.13a1.49,1.49,0,0,0,0-.21,1.15,1.15,0,0,0,0-.26,1.5,1.5,0,0,0-.15-.51l-.11-.19a0,0,0,0,1,0,0l-.14-.17-.18-.18h0l-.18-.13h0a1.13,1.13,0,0,0-.21-.12l4.8-9L160,14.23l.22-.12a1.76,1.76,0,0,0,.54-.51l.13-.23.09-.23a1,1,0,0,0,0-.25,1.15,1.15,0,0,0,0-.26.71.71,0,0,0,0-.15l10.24-.35,5.53-8.87.2.12s0,0,0,0l.2.07A1.8,1.8,0,0,0,177.71,3.52Zm0,38.11,5.51-8.8,10.38-.36-4.89-9.16,4.89-9.17-10.38-.36L177.71,5l-5.49,8.81-10.38.36,4.88,9.17-4.88,9.16,10.38.36Z"/><path class="cls-2" d="M160.23,32.45l.18.13h0l.18.18c.05.06.09.12.14.17a0,0,0,0,0,0,0l.11.19a1.5,1.5,0,0,1,.15.51,1.15,1.15,0,0,1,0,.26,1.49,1.49,0,0,1,0,.21,1.73,1.73,0,1,1-1.72-2,1.67,1.67,0,0,1,.71.15l.21.12Z"/><path class="cls-2" d="M178.63,43.35h0a1.72,1.72,0,0,1,.81,1.47,1.74,1.74,0,1,1-2.65-1.48l.2-.11s0,0,0,0l.2-.06a1.47,1.47,0,0,1,.48-.07l.25,0A1.86,1.86,0,0,1,178.63,43.35Z"/><path class="cls-2" d="M196.19,32.1a1.74,1.74,0,1,1-1.71,2,2,2,0,0,1,0-.25,1.68,1.68,0,0,1,.17-.74l.09-.17a.21.21,0,0,0,0-.06,2.08,2.08,0,0,1,.44-.45h0l.2-.12h0A1.73,1.73,0,0,1,196.19,32.1Z"/><path class="cls-2" d="M197.93,12.63a1.74,1.74,0,0,1-1.74,1.73,1.69,1.69,0,0,1-.72-.16h0a1.79,1.79,0,0,1-.73-.63l-.12-.21-.09-.23c0-.09,0-.17-.05-.25a2,2,0,0,1,0-.25c0-.06,0-.1,0-.15a1.73,1.73,0,0,1,1.72-1.6A1.74,1.74,0,0,1,197.93,12.63Z"/><path class="cls-2" d="M177.71.05a1.74,1.74,0,0,1,.92,3.21,1,1,0,0,1-.21.11l-.19.08-.17,0-.14,0h-.21a1.8,1.8,0,0,1-.48-.06l-.2-.07s0,0,0,0l-.2-.12A1.72,1.72,0,0,1,176,1.79,1.74,1.74,0,0,1,177.71.05Z"/><path class="cls-2" d="M161,12.48a.68.68,0,0,1,0,.15,1.09,1.09,0,0,1,0,.26,1,1,0,0,1,0,.25l-.09.23a1.71,1.71,0,0,1-.13.23,1.76,1.76,0,0,1-.54.51l-.22.12a1.72,1.72,0,0,1-.68.13A1.74,1.74,0,1,1,161,12.48Z"/><path class="cls-2" d="M183.18,13.84a10.94,10.94,0,1,1-10.92,0,10.65,10.65,0,0,1,5.45-1.48A10.81,10.81,0,0,1,183.18,13.84Z"/><path class="cls-3" d="M186,16.16a11,11,0,0,0-2.81-2.32,9.54,9.54,0,0,0-1.4-.68,87.24,87.24,0,0,0-14.16,14.33,10.91,10.91,0,0,0,3.6,4.59C175.55,26.18,180.84,21.24,186,16.16Z"/><path class="cls-3" d="M187.35,18.16a143.65,143.65,0,0,0-13,15.54c.42.13.86.24,1.3.33a92.9,92.9,0,0,1,12.24-14.71A11.16,11.16,0,0,0,187.35,18.16Z"/><path class="cls-4" d="M166.79,23.31a10.92,10.92,0,0,0,5.47,9.46l0,.06-10.38-.36,4.88-9.16Z"/><path class="cls-4" d="M183.18,32.77l0,.06-5.51,8.8-5.49-8.8,0-.06a10.94,10.94,0,0,0,10.92,0Z"/><path class="cls-4" d="M188.71,23.31l4.89,9.16-10.38.36,0-.06a10.92,10.92,0,0,0,5.47-9.46Z"/><path class="cls-4" d="M193.6,14.14l-4.89,9.17h-.06a10.91,10.91,0,0,0-5.47-9.47l0-.06Z"/><path class="cls-4" d="M177.71,5l5.51,8.81,0,.06a10.81,10.81,0,0,0-5.47-1.47,10.65,10.65,0,0,0-5.45,1.48l0-.07Z"/><path class="cls-4" d="M161.84,14.14l10.38-.36,0,.07a10.89,10.89,0,0,0-5.47,9.46h-.07Z"/><path class="cls-5" d="M172.19,32.87,167,32.8l-5.19-.1h-.36l.17-.33c1.57-3.08,3.19-6.14,4.8-9.2v.29c-1.65-3-3.26-6.1-4.87-9.16l-.24-.45h.5l10.38-.22-.14.08,2.79-4.38c.92-1.46,1.85-2.93,2.75-4.4l.11-.17.1.17q2.76,4.39,5.57,8.76l-.16-.09,10.38.25h.5l-.24.45L189,23.48v-.35c1.65,3,3.27,6.1,4.89,9.16l.29.55-.62,0c-3.46.11-6.92.23-10.38.3l.27-.15-5.6,8.74-.19.29-.17-.29c-.9-1.48-1.81-3-2.7-4.44Zm0-.07,2.85,4.36c.95,1.44,1.87,2.91,2.81,4.37h-.36l5.4-8.87.09-.15h.18c3.45-.17,6.91-.29,10.37-.41l-.32.56q-2.46-4.57-4.87-9.17l-.1-.18.1-.17L193.31,14l.26.46L183.2,14h-.11l-.06-.09Q180.35,9.45,177.6,5h.21q-1.4,2.19-2.74,4.41l-2.72,4.42,0,.08h-.1l-10.37.5.26-.46c1.64,3,3.29,6.1,4.89,9.17l.07.15-.07.14c-1.65,3.05-3.28,6.1-5,9.13l-.19-.34,5.18.26Z"/><path class="cls-5" d="M177.71,34.61A11.31,11.31,0,1,1,189,23.31,11.31,11.31,0,0,1,177.71,34.61Zm0-21.86a10.56,10.56,0,1,0,10.55,10.56A10.58,10.58,0,0,0,177.71,12.75Z"/><path class="cls-4" d="M178.74,43.87l-.32-.2a1.36,1.36,0,0,0-1.44,0l-.31.2-5.63-9-10.45-.36,0-.4c0-.1,0-.13,0-.17a1.36,1.36,0,0,0-.82-1.24l-.36-.16,4.9-9.21L159.45,14l.37-.16a1.36,1.36,0,0,0,.84-1.26l0-.5L171,11.76l5.63-9L177,3a1.34,1.34,0,0,0,1.43,0l.32-.2,5.63,9,10.49.36,0,.47a1.37,1.37,0,0,0,.8,1.27L196,14,191,23.31l4.87,9.15-.34.17a1.36,1.36,0,0,0-.75,1.21,1.79,1.79,0,0,0,0,.23l.07.42-10.54.36Zm-1-1.16a2.13,2.13,0,0,1,.79.15L184,34.12l10.12-.35a2.1,2.1,0,0,1,.84-1.6l-4.72-8.86,4.77-9a2.13,2.13,0,0,1-.88-1.49L184,12.49l-5.46-8.74a2.13,2.13,0,0,1-1.57,0l-5.45,8.74-10.08.35a2.09,2.09,0,0,1-.92,1.54l4.75,8.93-4.72,8.88a2.12,2.12,0,0,1,.9,1.58l10.07.35,5.46,8.74A2,2,0,0,1,177.7,42.71Z"/><path class="cls-6" d="M177.7,15.19a1.22,1.22,0,1,0,1.21,1.22A1.22,1.22,0,0,0,177.7,15.19Z"/><path class="cls-6" d="M177.7,28.84a1.22,1.22,0,1,0,0,2.43,1.22,1.22,0,0,0,0-2.43Z"/><path class="cls-7" d="M177.87,15.26a1.22,1.22,0,1,0,0,2.43,1.22,1.22,0,0,0,0-2.43Z"/><path class="cls-7" d="M177.87,28.91a1.22,1.22,0,1,0,0,2.43,1.22,1.22,0,0,0,0-2.43Z"/><path class="cls-4" d="M176.29,2.75a2.17,2.17,0,0,0,1.24.23,1.46,1.46,0,0,0,.47-.13,1.17,1.17,0,0,0,.38-.24,1.69,1.69,0,0,0,.52-.76,2.22,2.22,0,0,0,0-1.26l0,0a1.76,1.76,0,0,1,.54,1.34,1.86,1.86,0,0,1-.63,1.31,1.79,1.79,0,0,1-2.62-.39Z"/><path class="cls-8" d="M178.9.59a2.4,2.4,0,0,0-1.14,0l-.06,0s0,0,0,0a.33.33,0,0,0-.13,0l-.17.08A1.46,1.46,0,0,0,177,1a1.87,1.87,0,0,0-.51.65,2.4,2.4,0,0,0-.21,1.13l-.07,0a1.77,1.77,0,0,1-.3-1.25A1.77,1.77,0,0,1,176.54.4,1.78,1.78,0,0,1,179,.54Z"/><path class="cls-4" d="M176.41,45.93a2.22,2.22,0,0,0,1.22.09l.06,0s.05,0,.06,0,.12,0,.13,0a1.07,1.07,0,0,0,.19-.09,1.48,1.48,0,0,0,.35-.25,1.61,1.61,0,0,0,.48-.76,2.17,2.17,0,0,0,0-1.22l0,0a1.72,1.72,0,0,1,.54,1.28A1.77,1.77,0,0,1,176.36,46Z"/><path class="cls-8" d="M178.9,43.62a2.22,2.22,0,0,0-1.18,0,1.3,1.3,0,0,0-.41.18A1,1,0,0,0,177,44a1.82,1.82,0,0,0-.48.71,2.3,2.3,0,0,0-.09,1.18l0,0a1.79,1.79,0,0,1,.11-2.49,1.8,1.8,0,0,1,2.48.07Z"/><path class="cls-4" d="M158,13.71a2.13,2.13,0,0,0,1.26.12,1.77,1.77,0,0,0,.46-.19,1.17,1.17,0,0,0,.35-.28,1.61,1.61,0,0,0,.43-.84,2.11,2.11,0,0,0-.17-1.25l.05-.06a1.8,1.8,0,0,1,.23,2.67,1.8,1.8,0,0,1-1.37.53,1.74,1.74,0,0,1-1.3-.65Z"/><path class="cls-8" d="M160.32,11.27a2.55,2.55,0,0,0-1.14.16,2.11,2.11,0,0,0-.66.46,1.84,1.84,0,0,0-.43.69,2.45,2.45,0,0,0-.1,1.13l-.06,0a1.79,1.79,0,0,1-.43-1.2,1.78,1.78,0,0,1,2.87-1.35Z"/><path class="cls-4" d="M158.07,35.11a2.37,2.37,0,0,0,1.21,0,1.73,1.73,0,0,0,.76-.45,1.77,1.77,0,0,0,.46-.75,2.25,2.25,0,0,0,0-1.21l.06,0a1.77,1.77,0,0,1,0,2.54,1.78,1.78,0,0,1-2.54-.05Z"/><path class="cls-8" d="M160.5,32.72a2.29,2.29,0,0,0-1.2,0,1.7,1.7,0,0,0-.76.45,1.72,1.72,0,0,0-.45.74,2.28,2.28,0,0,0,0,1.2l-.06,0a1.77,1.77,0,0,1-.52-1.25,1.82,1.82,0,0,1,.52-1.28,1.8,1.8,0,0,1,1.28-.5,1.77,1.77,0,0,1,1.25.54Z"/><path class="cls-4" d="M194.83,13.66a2.2,2.2,0,0,0,1.23.16s.11,0,.1,0l.17,0,.19-.09a1.11,1.11,0,0,0,.36-.25,1.63,1.63,0,0,0,.51-.76,2.26,2.26,0,0,0,0-1.24l.06-.05a1.76,1.76,0,0,1,.53,1.31,1.77,1.77,0,0,1-3.19,1Z"/><path class="cls-8" d="M197.39,11.42a2.4,2.4,0,0,0-1.17,0s-.23.06-.23.08l-.18.09a1.55,1.55,0,0,0-.33.24,1.77,1.77,0,0,0-.5.68,1.86,1.86,0,0,0-.08.25,1.22,1.22,0,0,0-.05.25,2.72,2.72,0,0,0,0,.65l-.06.05a1.77,1.77,0,0,1,1.47-2.88,1.81,1.81,0,0,1,1.2.54Z"/><path class="cls-4" d="M194.94,35a2.33,2.33,0,0,0,1.19,0s.23,0,.24-.07l.18-.1a1.56,1.56,0,0,0,.34-.23,1.77,1.77,0,0,0,.49-.71s0-.09,0-.1a.53.53,0,0,1,0-.16.87.87,0,0,0,0-.25,2.53,2.53,0,0,0,0-.67l0,0A1.8,1.8,0,0,1,198,34a1.74,1.74,0,0,1-1.87,1.66,1.79,1.79,0,0,1-1.21-.58Z"/><path class="cls-8" d="M197.49,32.75a2.25,2.25,0,0,0-1.22-.11l-.1,0s-.14,0-.15,0l-.19.09a1.21,1.21,0,0,0-.35.24,1.8,1.8,0,0,0-.5.74,2.31,2.31,0,0,0,0,1.22l-.05,0a1.79,1.79,0,0,1-.5-1.3,1.85,1.85,0,0,1,.59-1.27,1.87,1.87,0,0,1,1.34-.43,1.8,1.8,0,0,1,1.22.65Z"/><circle class="cls-9" cx="158.68" cy="12.24" r="0.63"/><circle class="cls-9" cx="177.11" cy="1.19" r="0.63"/><circle class="cls-9" cx="195.47" cy="12.02" r="0.63"/><circle class="cls-9" cx="195.47" cy="33.32" r="0.63"/><circle class="cls-9" cx="177.01" cy="44.22" r="0.63"/><circle class="cls-9" cx="158.68" cy="33.32" r="0.63"/><g class="cls-10"><path class="cls-11" d="M170.54,21.81l.62-.43-.72,1.38-.05-.72a1.67,1.67,0,0,0-.73-.23c-.43,0-.58.2-.58.4,0,.41.32.53,1,.75a1,1,0,0,1-.34,1.88,1.67,1.67,0,0,1-1.09-.41l-.62.43.7-1.24a1,1,0,0,0,.84.89.55.55,0,0,0,.61-.5c0-.73-1.79-.56-1.79-1.68,0-.43.33-.87,1.1-.87A1.62,1.62,0,0,1,170.54,21.81Z"/><path class="cls-11" d="M172.68,21.38l-.47.25-.06,1.2,1.24,0,0-1L173,21.6l1.42-.09-.54.44.09,2.42.5.33h-1.71l.6-.4,0-1.13-1.25,0,0,1,.35.36h-1.17l.41-.34-.14-2.49-.52-.32Z"/><path class="cls-11" d="M177.06,24.63l-2.71.11.6-.61.17-2.22-.72-.36,2.58-.18,0,1.13-.45-.8-1.1.17,0,1.14.25,0,.5-.66,0,1.52-.43-.63-.35.05,0,1,1.08.1.41-1Z"/><path class="cls-11" d="M179.68,24.87c-.28,0-1.15-.83-1.43-1.11l0,.6.51.28-1.53.11.51-.47.09-2.43-.62-.3c1.25-.07,1.7-.06,1.83-.06.41,0,1.09.21,1.09.84,0,.19-.11,1.07-1.8,1.1a3.12,3.12,0,0,0,1.41.76.65.65,0,0,0,.62-.42C180.21,24.65,179.8,24.87,179.68,24.87Zm-1.32-3h-.15l0,1.29c.6,0,1.22-.26,1.22-.67S179.36,21.83,178.36,21.83Z"/><path class="cls-11" d="M181.42,22.11l.07,2.17.5.35-1.71.15.59-.49L181,22l-.5-.39,1.46.09Z"/><path class="cls-11" d="M184.6,22.5l-.38-.83-1.23.24,0,.89h.37l.4-.59v1.47l-.42-.65-.33,0,.06,1.21.71.3-1.84.19.53-.47.13-2.3-.66-.58,2.62-.1Z"/><path class="cls-11" d="M187.2,22.5l-.38-.83-1.23.24,0,.89H186l.4-.59v1.47L186,23l-.33,0,.06,1.21.71.3-1.84.19.53-.47.12-2.3-.65-.58,2.62-.1Z"/></g><path class="cls-2" d="M230.21,3.52h.21l.14,0,.17,0,.19-.08a1,1,0,0,0,.21-.11l5.55,8.87,10.29.35s0,.09,0,.15a2.11,2.11,0,0,0,0,.25c0,.08,0,.16.05.25l.09.23a1.13,1.13,0,0,0,.12.21,1.66,1.66,0,0,0,.73.63h0l-4.84,9.11,4.78,9a.82.82,0,0,0-.2.12h0a1.88,1.88,0,0,0-.44.45.21.21,0,0,1,0,.06.56.56,0,0,0-.09.17,1.68,1.68,0,0,0-.17.74,2,2,0,0,0,0,.25s0,0,0,.05l-10.3.36-5.54,8.86a1.6,1.6,0,0,0-.68-.25l-.25,0a1.47,1.47,0,0,0-.48.07l-.2.06s0,0,0,0l-.2.11-5.53-8.85-10.25-.36a1.49,1.49,0,0,0,0-.21,1.15,1.15,0,0,0,0-.26,1.5,1.5,0,0,0-.15-.51l-.11-.19a0,0,0,0,1,0,0l-.14-.17-.18-.18h0l-.18-.13h0a1.13,1.13,0,0,0-.21-.12l4.8-9-4.83-9.08.22-.12a1.76,1.76,0,0,0,.54-.51l.13-.23.09-.23a1,1,0,0,0,0-.25,1.15,1.15,0,0,0,0-.26.71.71,0,0,0,0-.15l10.24-.35,5.53-8.87.2.12s0,0,0,0l.2.07A1.8,1.8,0,0,0,230.21,3.52Zm0,38.11,5.51-8.8,10.38-.36-4.89-9.16,4.89-9.17-10.38-.36L230.21,5l-5.49,8.81-10.38.36,4.88,9.17-4.88,9.16,10.38.36Z"/><path class="cls-2" d="M212.73,32.45l.18.13h0l.18.18c.05.06.09.12.14.17a0,0,0,0,0,0,0l.11.19a1.5,1.5,0,0,1,.15.51,1.15,1.15,0,0,1,0,.26,1.49,1.49,0,0,1,0,.21,1.73,1.73,0,1,1-1.72-2,1.67,1.67,0,0,1,.71.15l.21.12Z"/><path class="cls-2" d="M231.13,43.35h0a1.72,1.72,0,0,1,.81,1.47,1.74,1.74,0,1,1-2.65-1.48l.2-.11s0,0,0,0l.2-.06a1.47,1.47,0,0,1,.48-.07l.25,0A1.86,1.86,0,0,1,231.13,43.35Z"/><path class="cls-2" d="M248.69,32.1a1.74,1.74,0,1,1-1.71,2,2,2,0,0,1,0-.25,1.68,1.68,0,0,1,.17-.74l.09-.17a.21.21,0,0,0,0-.06,2.08,2.08,0,0,1,.44-.45h0l.2-.12h0A1.73,1.73,0,0,1,248.69,32.1Z"/><path class="cls-2" d="M250.43,12.63a1.74,1.74,0,0,1-1.74,1.73,1.69,1.69,0,0,1-.72-.16h0a1.79,1.79,0,0,1-.73-.63l-.12-.21-.09-.23c0-.09,0-.17-.05-.25a2,2,0,0,1,0-.25c0-.06,0-.1,0-.15a1.73,1.73,0,0,1,1.72-1.6A1.74,1.74,0,0,1,250.43,12.63Z"/><path class="cls-2" d="M230.21.05a1.74,1.74,0,0,1,.92,3.21,1,1,0,0,1-.21.11l-.19.08-.17,0-.14,0h-.21a1.8,1.8,0,0,1-.48-.06l-.2-.07s0,0,0,0l-.2-.12a1.72,1.72,0,0,1-.83-1.47A1.74,1.74,0,0,1,230.21.05Z"/><path class="cls-2" d="M213.52,12.48a.68.68,0,0,1,0,.15,1.09,1.09,0,0,1,0,.26,1,1,0,0,1,0,.25l-.09.23a1.71,1.71,0,0,1-.13.23,1.76,1.76,0,0,1-.54.51l-.22.12a1.72,1.72,0,0,1-.68.13,1.74,1.74,0,1,1,1.73-1.88Z"/><path class="cls-2" d="M235.68,13.84a10.94,10.94,0,1,1-10.92,0,10.65,10.65,0,0,1,5.45-1.48A10.81,10.81,0,0,1,235.68,13.84Z"/><path class="cls-3" d="M238.49,16.16a11,11,0,0,0-2.81-2.32,9.54,9.54,0,0,0-1.4-.68,87.24,87.24,0,0,0-14.16,14.33,10.91,10.91,0,0,0,3.6,4.59C228.05,26.18,233.34,21.24,238.49,16.16Z"/><path class="cls-3" d="M239.85,18.16a143.65,143.65,0,0,0-13,15.54c.42.13.86.24,1.3.33a92.9,92.9,0,0,1,12.24-14.71A11.16,11.16,0,0,0,239.85,18.16Z"/><path class="cls-4" d="M219.29,23.31a10.92,10.92,0,0,0,5.47,9.46l0,.06-10.38-.36,4.88-9.16Z"/><path class="cls-4" d="M235.68,32.77l0,.06-5.51,8.8-5.49-8.8,0-.06a10.94,10.94,0,0,0,10.92,0Z"/><path class="cls-4" d="M241.21,23.31l4.89,9.16-10.38.36,0-.06a10.92,10.92,0,0,0,5.47-9.46Z"/><path class="cls-4" d="M246.1,14.14l-4.89,9.17h-.06a10.91,10.91,0,0,0-5.47-9.47l0-.06Z"/><path class="cls-4" d="M230.21,5l5.51,8.81,0,.06a10.81,10.81,0,0,0-5.47-1.47,10.65,10.65,0,0,0-5.45,1.48l0-.07Z"/><path class="cls-4" d="M214.34,14.14l10.38-.36,0,.07a10.89,10.89,0,0,0-5.47,9.46h-.07Z"/><path class="cls-5" d="M224.69,32.87l-5.18-.07-5.19-.1H214l.17-.33c1.57-3.08,3.19-6.14,4.8-9.2v.29c-1.65-3-3.26-6.1-4.87-9.16l-.24-.45h.5l10.38-.22-.14.08,2.79-4.38c.92-1.46,1.85-2.93,2.75-4.4l.11-.17.1.17q2.76,4.39,5.57,8.76l-.16-.09,10.38.25h.5l-.24.45-4.82,9.19v-.35c1.65,3,3.27,6.1,4.89,9.16l.29.55-.62,0c-3.46.11-6.92.23-10.38.3L236,33l-5.6,8.74-.19.29-.17-.29c-.9-1.48-1.81-3-2.7-4.44Zm0-.07,2.85,4.36c.95,1.44,1.87,2.91,2.81,4.37H230l5.4-8.87.09-.15h.18c3.45-.17,6.91-.29,10.37-.41l-.32.56q-2.46-4.57-4.87-9.17l-.1-.18.1-.17L245.81,14l.26.46L235.7,14h-.11l-.06-.09Q232.85,9.45,230.1,5h.21q-1.4,2.19-2.74,4.41l-2.72,4.42,0,.08h-.1l-10.37.5.26-.46c1.64,3,3.29,6.1,4.89,9.17l.07.15-.07.14c-1.65,3.05-3.28,6.1-5,9.13l-.19-.34,5.18.26Z"/><path class="cls-5" d="M230.21,34.61a11.31,11.31,0,1,1,11.3-11.3A11.31,11.31,0,0,1,230.21,34.61Zm0-21.86a10.56,10.56,0,1,0,10.55,10.56A10.58,10.58,0,0,0,230.21,12.75Z"/><path class="cls-4" d="M231.24,43.87l-.32-.2a1.36,1.36,0,0,0-1.44,0l-.31.2-5.63-9-10.45-.36,0-.4c0-.1,0-.13,0-.17a1.36,1.36,0,0,0-.82-1.24l-.36-.16,4.9-9.21L212,14l.37-.16a1.36,1.36,0,0,0,.84-1.26l0-.5,10.42-.36,5.63-9,.32.2a1.34,1.34,0,0,0,1.43,0l.32-.2,5.63,9,10.49.36,0,.47a1.37,1.37,0,0,0,.8,1.27l.36.17-4.94,9.28,4.87,9.15-.34.17a1.36,1.36,0,0,0-.75,1.21,1.79,1.79,0,0,0,0,.23l.07.42-10.54.36Zm-1-1.16a2.13,2.13,0,0,1,.79.15l5.46-8.74,10.12-.35a2.1,2.1,0,0,1,.84-1.6l-4.72-8.86,4.77-9a2.13,2.13,0,0,1-.88-1.49l-10.13-.36L231,3.75a2.13,2.13,0,0,1-1.57,0L224,12.49l-10.08.35a2.09,2.09,0,0,1-.92,1.54l4.75,8.93L213,32.19a2.12,2.12,0,0,1,.9,1.58l10.07.35,5.46,8.74A2,2,0,0,1,230.2,42.71Z"/><path class="cls-6" d="M230.2,15.19a1.22,1.22,0,1,0,1.21,1.22A1.22,1.22,0,0,0,230.2,15.19Z"/><path class="cls-6" d="M230.2,28.84a1.22,1.22,0,1,0,0,2.43,1.22,1.22,0,0,0,0-2.43Z"/><path class="cls-7" d="M230.37,15.26a1.22,1.22,0,1,0,0,2.43,1.22,1.22,0,0,0,0-2.43Z"/><path class="cls-7" d="M230.37,28.91a1.22,1.22,0,1,0,0,2.43,1.22,1.22,0,0,0,0-2.43Z"/><path class="cls-4" d="M228.79,2.75A2.17,2.17,0,0,0,230,3a1.46,1.46,0,0,0,.47-.13,1.17,1.17,0,0,0,.38-.24,1.69,1.69,0,0,0,.52-.76,2.22,2.22,0,0,0,0-1.26l0,0A1.76,1.76,0,0,1,232,1.88a1.86,1.86,0,0,1-.63,1.31,1.79,1.79,0,0,1-2.62-.39Z"/><path class="cls-8" d="M231.4.59a2.4,2.4,0,0,0-1.14,0l-.06,0s0,0,0,0a.33.33,0,0,0-.13,0l-.17.08a1.46,1.46,0,0,0-.33.22,1.87,1.87,0,0,0-.51.65,2.4,2.4,0,0,0-.21,1.13l-.07,0a1.77,1.77,0,0,1-.3-1.25A1.77,1.77,0,0,1,229,.4a1.78,1.78,0,0,1,2.41.14Z"/><path class="cls-4" d="M228.91,45.93a2.22,2.22,0,0,0,1.22.09l.06,0s.05,0,.06,0,.12,0,.13,0a1.07,1.07,0,0,0,.19-.09,1.48,1.48,0,0,0,.35-.25,1.61,1.61,0,0,0,.48-.76,2.17,2.17,0,0,0,0-1.22l0,0a1.72,1.72,0,0,1,.54,1.28A1.77,1.77,0,0,1,228.86,46Z"/><path class="cls-8" d="M231.4,43.62a2.22,2.22,0,0,0-1.18,0,1.3,1.3,0,0,0-.41.18,1,1,0,0,0-.33.24,1.82,1.82,0,0,0-.48.71,2.3,2.3,0,0,0-.09,1.18l0,0a1.79,1.79,0,0,1,.11-2.49,1.8,1.8,0,0,1,2.48.07Z"/><path class="cls-4" d="M210.49,13.71a2.13,2.13,0,0,0,1.26.12,1.77,1.77,0,0,0,.46-.19,1.17,1.17,0,0,0,.35-.28,1.61,1.61,0,0,0,.43-.84,2.11,2.11,0,0,0-.17-1.25l.05-.06a1.8,1.8,0,0,1,.23,2.67,1.8,1.8,0,0,1-1.37.53,1.74,1.74,0,0,1-1.3-.65Z"/><path class="cls-8" d="M212.82,11.27a2.55,2.55,0,0,0-1.14.16,2.11,2.11,0,0,0-.66.46,1.84,1.84,0,0,0-.43.69,2.45,2.45,0,0,0-.1,1.13l-.06,0a1.79,1.79,0,0,1-.43-1.2,1.78,1.78,0,0,1,2.87-1.35Z"/><path class="cls-4" d="M210.57,35.11a2.37,2.37,0,0,0,1.21,0,1.73,1.73,0,0,0,.76-.45,1.77,1.77,0,0,0,.46-.75,2.25,2.25,0,0,0,0-1.21l.06,0a1.77,1.77,0,0,1,0,2.54,1.78,1.78,0,0,1-2.54-.05Z"/><path class="cls-8" d="M213,32.72a2.29,2.29,0,0,0-1.2,0,1.7,1.7,0,0,0-.76.45,1.72,1.72,0,0,0-.45.74,2.28,2.28,0,0,0,0,1.2l-.06,0a1.77,1.77,0,0,1-.52-1.25,1.82,1.82,0,0,1,.52-1.28,1.8,1.8,0,0,1,1.28-.5,1.77,1.77,0,0,1,1.25.54Z"/><path class="cls-4" d="M247.33,13.66a2.2,2.2,0,0,0,1.23.16s.11,0,.1,0l.17,0,.19-.09a1.11,1.11,0,0,0,.36-.25,1.63,1.63,0,0,0,.51-.76,2.26,2.26,0,0,0,0-1.24l.06-.05a1.76,1.76,0,0,1,.53,1.31,1.77,1.77,0,0,1-3.19,1Z"/><path class="cls-8" d="M249.89,11.42a2.4,2.4,0,0,0-1.17,0s-.23.06-.23.08l-.18.09a1.55,1.55,0,0,0-.33.24,1.77,1.77,0,0,0-.5.68,1.86,1.86,0,0,0-.08.25,1.22,1.22,0,0,0-.05.25,2.72,2.72,0,0,0,0,.65l-.06.05a1.77,1.77,0,0,1,1.47-2.88,1.81,1.81,0,0,1,1.2.54Z"/><path class="cls-4" d="M247.44,35a2.33,2.33,0,0,0,1.19,0s.23,0,.24-.07l.18-.1a1.56,1.56,0,0,0,.34-.23,1.77,1.77,0,0,0,.49-.71s0-.09,0-.1a.53.53,0,0,1,0-.16.87.87,0,0,0,0-.25,2.53,2.53,0,0,0,0-.67l0,0a1.8,1.8,0,0,1,.43,1.27,1.74,1.74,0,0,1-1.87,1.66,1.79,1.79,0,0,1-1.21-.58Z"/><path class="cls-8" d="M250,32.75a2.25,2.25,0,0,0-1.22-.11l-.1,0s-.14,0-.15,0l-.19.09A1.21,1.21,0,0,0,248,33a1.8,1.8,0,0,0-.5.74,2.31,2.31,0,0,0,0,1.22l-.05,0a1.79,1.79,0,0,1-.5-1.3,1.85,1.85,0,0,1,.59-1.27,1.87,1.87,0,0,1,1.34-.43,1.8,1.8,0,0,1,1.22.65Z"/><circle class="cls-9" cx="211.18" cy="12.24" r="0.63"/><circle class="cls-9" cx="229.61" cy="1.19" r="0.63"/><circle class="cls-9" cx="247.97" cy="12.02" r="0.63"/><circle class="cls-9" cx="247.97" cy="33.32" r="0.63"/><circle class="cls-9" cx="229.51" cy="44.22" r="0.63"/><circle class="cls-9" cx="211.18" cy="33.32" r="0.63"/><g class="cls-10"><path class="cls-11" d="M223,21.81l.62-.43-.72,1.38-.05-.72a1.67,1.67,0,0,0-.73-.23c-.43,0-.58.2-.58.4,0,.41.32.53,1,.75a1,1,0,0,1-.34,1.88,1.67,1.67,0,0,1-1.09-.41l-.62.43.7-1.24a1,1,0,0,0,.84.89.55.55,0,0,0,.61-.5c0-.73-1.79-.56-1.79-1.68,0-.43.33-.87,1.1-.87A1.62,1.62,0,0,1,223,21.81Z"/><path class="cls-11" d="M225.18,21.38l-.47.25-.06,1.2,1.24,0,0-1-.44-.26,1.42-.09-.54.44.09,2.42.5.33h-1.71l.6-.4,0-1.13-1.25,0,0,1,.35.36h-1.17l.41-.34L224,21.67l-.52-.32Z"/><path class="cls-11" d="M229.56,24.63l-2.71.11.6-.61.17-2.22-.72-.36,2.58-.18,0,1.13-.45-.8-1.1.17L228,23l.25,0,.5-.66,0,1.52-.43-.63-.35.05,0,1,1.08.1.41-1Z"/><path class="cls-11" d="M232.18,24.87c-.28,0-1.15-.83-1.43-1.11l0,.6.51.28-1.53.11.51-.47.09-2.43-.62-.3c1.25-.07,1.7-.06,1.83-.06.41,0,1.09.21,1.09.84,0,.19-.11,1.07-1.8,1.1a3.12,3.12,0,0,0,1.41.76.65.65,0,0,0,.62-.42C232.71,24.65,232.3,24.87,232.18,24.87Zm-1.32-3h-.15l0,1.29c.6,0,1.22-.26,1.22-.67S231.86,21.83,230.86,21.83Z"/><path class="cls-11" d="M233.92,22.11l.07,2.17.5.35-1.71.15.59-.49.15-2.33-.5-.39,1.46.09Z"/><path class="cls-11" d="M237.1,22.5l-.38-.83-1.23.24,0,.89h.37l.4-.59v1.47l-.42-.65-.33,0,.06,1.21.71.3-1.84.19.53-.47.13-2.3-.66-.58,2.62-.1Z"/><path class="cls-11" d="M239.7,22.5l-.38-.83-1.23.24,0,.89h.37l.4-.59v1.47l-.42-.65-.33,0,.06,1.21.71.3-1.84.19.53-.47.12-2.3-.65-.58,2.62-.1Z"/></g></g></g></g></svg>