<svg xmlns="http://www.w3.org/2000/svg" viewBox="0 0 86.8 117.36"><defs><style>.cls-1{fill:#517f93;}.cls-2{fill:#ff7070;}.cls-3{fill:#ff4a4a;}.cls-4{fill:#fff;}.cls-5{fill:#19ffdf;}.cls-6{fill:#1bf2cd;}.cls-7{fill:#ffc759;}.cls-8{fill:#ffb93d;}.cls-9{fill:#ffa766;}.cls-10{fill:#ff8c40;}.cls-11{fill:#6ed7ff;}.cls-12{fill:#3bc8f4;}.cls-13{fill:#ffbf1f;}.cls-14{fill:#ffcd40;}</style></defs><title>設施介紹-資產 5</title><g id="圖層_2" data-name="圖層 2"><g id="圖層_1-2" data-name="圖層 1"><rect class="cls-1" x="28.13" y="57.96" width="1.24" height="61.1" transform="translate(-41.15 27.07) rotate(-30.69)"/><rect class="cls-1" x="38.94" y="56.5" width="1.24" height="58.68" transform="matrix(0.99, -0.16, 0.16, 0.99, -13.46, 7.59)"/><rect class="cls-1" x="22.66" y="87.79" width="53.77" height="1.24" transform="translate(-46.75 120) rotate(-78.89)"/><rect class="cls-1" x="26.97" y="85.12" width="65.96" height="1.23" transform="translate(-43.94 98.03) rotate(-61.79)"/><rect class="cls-1" x="32.66" y="47.05" width="1.24" height="69.54" transform="translate(-24.3 14.84) rotate(-18.55)"/><polygon class="cls-1" points="43.72 114.79 43.63 28.88 44.87 28.88 44.96 114.79 43.72 114.79"/><rect class="cls-1" x="19.67" y="78.94" width="74.98" height="1.24" transform="translate(-37.12 106.14) rotate(-70.04)"/><path class="cls-2" d="M43.48,0A12.24,12.24,0,0,0,31.25,12.23v.23a16.85,16.85,0,0,0,8.81,14.8l2,.52-1,2.08h2.58V0Z"/><path class="cls-3" d="M43.73,0A12.23,12.23,0,0,1,56,12.23v.23a16.85,16.85,0,0,1-8.81,14.8l-2,.52,1,2.08H43.61V0Z"/><path class="cls-4" d="M39.53,8.75A2.58,2.58,0,1,1,37,6.18,2.58,2.58,0,0,1,39.53,8.75Z"/><path class="cls-5" d="M20.14,9.34A12.24,12.24,0,0,0,7.9,21.58v.22a16.83,16.83,0,0,0,8.82,14.8l2,.52-1,2.08h2.58V9.34Z"/><path class="cls-6" d="M20.38,9.34A12.23,12.23,0,0,1,32.61,21.58v.22A16.82,16.82,0,0,1,23.8,36.6l-2,.52,1,2.08H20.26V9.34Z"/><path class="cls-4" d="M16.18,18.1a2.58,2.58,0,1,1-2.57-2.58A2.57,2.57,0,0,1,16.18,18.1Z"/><path class="cls-7" d="M66.42,11.51A12.22,12.22,0,0,0,54.19,23.74V24A16.82,16.82,0,0,0,63,38.76l2,.53-1,2.08h2.57V11.51Z"/><path class="cls-8" d="M66.67,11.51A12.23,12.23,0,0,1,78.9,23.74V24a16.81,16.81,0,0,1-8.82,14.8l-2,.53,1,2.08H66.54V11.51Z"/><path class="cls-4" d="M62.47,20.26a2.58,2.58,0,1,1-2.58-2.58A2.58,2.58,0,0,1,62.47,20.26Z"/><path class="cls-2" d="M74.32,27.49A12.24,12.24,0,0,0,62.09,39.72V40a16.82,16.82,0,0,0,8.81,14.8l2,.52-1,2.08h2.58V27.49Z"/><path class="cls-3" d="M74.57,27.49A12.24,12.24,0,0,1,86.8,39.72V40A16.82,16.82,0,0,1,78,54.75l-2,.52,1,2.08H74.45V27.49Z"/><path class="cls-4" d="M70.37,36.24a2.58,2.58,0,1,1-2.58-2.57A2.57,2.57,0,0,1,70.37,36.24Z"/><path class="cls-9" d="M32.93,28.42A12.23,12.23,0,0,0,20.7,40.65v.23a16.82,16.82,0,0,0,8.81,14.79l2,.53-1,2.08h2.57V28.42Z"/><path class="cls-10" d="M33.18,28.42A12.24,12.24,0,0,1,45.41,40.65v.23a16.81,16.81,0,0,1-8.82,14.79l-2,.53,1,2.08H33.05V28.42Z"/><path class="cls-4" d="M29,37.17A2.58,2.58,0,1,1,26.4,34.6,2.59,2.59,0,0,1,29,37.17Z"/><path class="cls-11" d="M53.63,33.36A12.24,12.24,0,0,0,41.39,45.59v.23a16.86,16.86,0,0,0,8.82,14.8l2,.52-1,2.08h2.58V33.36Z"/><path class="cls-12" d="M53.87,33.36A12.23,12.23,0,0,1,66.1,45.59v.23a16.85,16.85,0,0,1-8.81,14.8l-2,.52,1,2.08H53.75V33.36Z"/><path class="cls-4" d="M49.67,42.11a2.58,2.58,0,1,1-2.57-2.57A2.58,2.58,0,0,1,49.67,42.11Z"/><path class="cls-11" d="M12.23,33.67A12.24,12.24,0,0,0,0,45.9v.23a16.85,16.85,0,0,0,8.81,14.8l2,.52-1,2.08h2.58V33.67Z"/><path class="cls-12" d="M12.48,33.67A12.23,12.23,0,0,1,24.71,45.9v.23a16.85,16.85,0,0,1-8.81,14.8l-2,.52,1,2.08H12.36V33.67Z"/><path class="cls-4" d="M8.28,42.42a2.58,2.58,0,1,1-2.57-2.57A2.58,2.58,0,0,1,8.28,42.42Z"/><path class="cls-13" d="M44.35,105.7h.12a11.18,11.18,0,0,1,11.18,11.18v.48H44.35Z"/><path class="cls-14" d="M44.35,105.7h-.11a11.18,11.18,0,0,0-11.19,11.18v.48h11.3Z"/></g></g></svg>