<svg xmlns="http://www.w3.org/2000/svg" viewBox="0 0 232.6 39.05"><defs><style>.cls-1{fill:#ffbf1f;}.cls-2{fill:#f42f2f;}.cls-3{fill:#a4e1f4;}.cls-4{fill:#224456;}.cls-5{fill:#2ee5ca;}</style></defs><title>設施介紹-資產 1</title><g id="圖層_2" data-name="圖層 2"><g id="圖層_1-2" data-name="圖層 1"><path class="cls-1" d="M52.72,18.85h8.44v-17A1.89,1.89,0,0,0,59.27,0h0a1.88,1.88,0,0,0-1.82,1.4Z"/><path class="cls-1" d="M26.25,18.85h8.37V2A1.88,1.88,0,0,0,32.74.16h0A1.87,1.87,0,0,0,30.9,1.55Z"/><path class="cls-2" d="M0,18.08l10.39-4.62V6.15S0,14,0,18Z"/><path class="cls-2" d="M14.81,30.77H46.35c8.18,0,14.81-2,14.81-10.19V11.92L6.8,13.72,0,16.54v4C0,28.76,6.63,30.77,14.81,30.77Z"/><circle class="cls-3" cx="45.22" cy="31.56" r="5.99"/><path class="cls-4" d="M45.22,39.05a7.49,7.49,0,1,1,7.48-7.49A7.5,7.5,0,0,1,45.22,39.05Zm0-12a4.49,4.49,0,1,0,4.49,4.48A4.49,4.49,0,0,0,45.22,27.08Z"/><path class="cls-3" d="M10.67,31.56a6,6,0,1,0,6-6A6,6,0,0,0,10.67,31.56Z"/><path class="cls-4" d="M16.66,39.05a7.49,7.49,0,1,1,7.48-7.49A7.5,7.5,0,0,1,16.66,39.05Zm0-12a4.49,4.49,0,1,0,4.49,4.48A4.49,4.49,0,0,0,16.66,27.08Z"/><rect class="cls-5" x="7.64" y="11.44" width="54.96" height="3.89" rx="1.93"/><path class="cls-1" d="M222.72,18.85h8.44v-17A1.89,1.89,0,0,0,229.27,0h0a1.88,1.88,0,0,0-1.82,1.4Z"/><path class="cls-1" d="M196.25,18.85h8.37V2A1.88,1.88,0,0,0,202.74.16h0a1.87,1.87,0,0,0-1.81,1.39Z"/><path class="cls-2" d="M170,18.08l10.39-4.62V6.15S170,14,170,18Z"/><path class="cls-2" d="M184.81,30.77h31.54c8.18,0,14.81-2,14.81-10.19V11.92l-54.36,1.8L170,16.54v4C170,28.76,176.63,30.77,184.81,30.77Z"/><circle class="cls-3" cx="215.22" cy="31.56" r="5.99"/><path class="cls-4" d="M215.22,39.05a7.49,7.49,0,1,1,7.48-7.49A7.5,7.5,0,0,1,215.22,39.05Zm0-12a4.49,4.49,0,1,0,4.49,4.48A4.49,4.49,0,0,0,215.22,27.08Z"/><path class="cls-3" d="M180.67,31.56a6,6,0,1,0,6-6A6,6,0,0,0,180.67,31.56Z"/><path class="cls-4" d="M186.66,39.05a7.49,7.49,0,1,1,7.48-7.49A7.5,7.5,0,0,1,186.66,39.05Zm0-12a4.49,4.49,0,1,0,4.49,4.48A4.49,4.49,0,0,0,186.66,27.08Z"/><rect class="cls-5" x="177.64" y="11.44" width="54.96" height="3.89" rx="1.93"/><path class="cls-1" d="M137.72,18.85h8.44v-17A1.89,1.89,0,0,0,144.27,0h0a1.88,1.88,0,0,0-1.82,1.4Z"/><path class="cls-1" d="M111.25,18.85h8.37V2A1.88,1.88,0,0,0,117.74.16h0a1.87,1.87,0,0,0-1.81,1.39Z"/><path class="cls-2" d="M85,18.08l10.39-4.62V6.15S85,14,85,18Z"/><path class="cls-2" d="M99.81,30.77h31.54c8.18,0,14.81-2,14.81-10.19V11.92L91.8,13.72,85,16.54v4C85,28.76,91.63,30.77,99.81,30.77Z"/><circle class="cls-3" cx="130.22" cy="31.56" r="5.99"/><path class="cls-4" d="M130.22,39.05a7.49,7.49,0,1,1,7.48-7.49A7.5,7.5,0,0,1,130.22,39.05Zm0-12a4.49,4.49,0,1,0,4.49,4.48A4.49,4.49,0,0,0,130.22,27.08Z"/><path class="cls-3" d="M95.67,31.56a6,6,0,1,0,6-6A6,6,0,0,0,95.67,31.56Z"/><path class="cls-4" d="M101.66,39.05a7.49,7.49,0,1,1,7.48-7.49A7.5,7.5,0,0,1,101.66,39.05Zm0-12a4.49,4.49,0,1,0,4.49,4.48A4.49,4.49,0,0,0,101.66,27.08Z"/><rect class="cls-5" x="92.64" y="11.44" width="54.96" height="3.89" rx="1.93"/></g></g></svg>