<svg xmlns="http://www.w3.org/2000/svg" viewBox="0 0 202.49 202.9"><defs><style>.cls-1{isolation:isolate;}.cls-2{fill:#73577f;}.cls-3{fill:#8e6d9c;}.cls-4{fill:#fca000;}.cls-5{fill:#7b5e87;}.cls-6{fill:#70557c;}.cls-7{fill:#c4a2a4;}.cls-8{fill:#625b66;}.cls-9{fill:#716874;}.cls-10{fill:#512600;}.cls-11{fill:#9b5311;}.cls-12,.cls-28{mix-blend-mode:multiply;}.cls-13{fill:#b5b5b5;}.cls-14{fill:#bd6600;}.cls-15{fill:#603816;}.cls-16{fill:#d7b2b4;}.cls-17{fill:#f2f2f2;}.cls-18{fill:#1a1a1a;}.cls-19{fill:#ccc;}.cls-20{fill:#9b5b07;}.cls-21{fill:#90500f;}.cls-22{fill:#a96a31;}.cls-23{fill:#682f05;}.cls-24{fill:#894500;}.cls-25,.cls-26{fill:#ffdd50;}.cls-26,.cls-29,.cls-33{mix-blend-mode:screen;}.cls-27{fill:#cc7b06;}.cls-28,.cls-32{fill:#e3ad4d;}.cls-29,.cls-34{fill:#bf3d0d;}.cls-30{fill:#ffe98e;}.cls-31,.cls-36{fill:#fff;}.cls-35{fill:#3c3c3b;}.cls-36{opacity:0.15;}.cls-37,.cls-40{fill:#1d1d1b;}.cls-38{fill:#7d4e24;}.cls-39{fill:#575756;}.cls-40{opacity:0.2;}</style></defs><title>設施介紹-資產 3</title><g class="cls-1"><g id="圖層_2" data-name="圖層 2"><g id="圖層_1-2" data-name="圖層 1"><path class="cls-2" d="M168.85,154.3l.06,0h0Z"/><polygon class="cls-2" points="178.33 158.91 178.33 158.91 178.33 158.91 178.33 158.91"/><path class="cls-3" d="M49.09,135.94h0"/><polyline class="cls-3" points="49.08 135.98 49.08 135.98 49.08 135.98 49.08 135.98"/><polyline class="cls-3" points="47.97 136.36 47.97 136.36 47.97 136.36"/><polyline class="cls-3" points="47.97 136.37 47.97 136.36 47.97 136.37"/><polyline class="cls-4" points="60.97 82.46 111.9 72.03 85.76 95.65 60.97 84.87"/><path class="cls-5" d="M136.91,120.89c-3.45,1.6-6.93,3.12-10.41,4.57C130,123.88,133.45,122.37,136.91,120.89Z"/><path class="cls-2" d="M131.4,123.27c1.81-.8,3.62-1.57,5.43-2.34-1.8.84-3.62,1.65-5.43,2.44A.33.33,0,0,1,131.4,123.27Z"/><path class="cls-5" d="M75.37,202.86a3.41,3.41,0,0,1-.8-.22c-.21-.08-.41-.17-.6-.26l-.19-.08h0l-.53-.24-.52-.31a5.52,5.52,0,0,1-.82-.62,6.06,6.06,0,0,1-.56-.6l-.23-.28a3.09,3.09,0,0,1-.33-.39c.14.17.28.33.42.47l.17.18.25.2.05,0,.15.14.06.06.11.09.19.15.15.12.09.08.29.23a3.7,3.7,0,0,0,.47.29l.13.07.05,0,.52.25a11.66,11.66,0,0,0,1.48.49,2.74,2.74,0,0,0,.41.1l.13,0,.09,0a5.9,5.9,0,0,1-.63,0"/><path class="cls-6" d="M76.48,185.05l-.38.19-.15.07-.44.2-.18.09-.73.32-.61.23-.39.15-.18.07-.3.12-.47.16c-.31.1-.62.18-.92.26a6.61,6.61,0,0,0-.64.2,9.71,9.71,0,0,1-1.36.35,6.78,6.78,0,0,1-.76,0,2.44,2.44,0,0,1-.53-.07l-.07,0a8.56,8.56,0,0,1-.84-.21c-.25-.09-.5-.16-.75-.23l-.45-.07a6.63,6.63,0,0,1-.67-.13,2.7,2.7,0,0,1-.66-.32,4.58,4.58,0,0,1-.66-.48l-.33-.27-.32-.27-.46-.4-.15-.14-.58-.54.12-.05a4.25,4.25,0,0,0,.64-.38l.56-.39c.26-.19.49-.38.7-.56l.3-.29.12-.12.06-.06.06-.06.07-.07c.12-.12.24-.25.35-.38a3.49,3.49,0,0,0,.36-.42,3.59,3.59,0,0,0,.28-.44c.08-.14.15-.28.22-.43a1.54,1.54,0,0,0,.07-.48,2.8,2.8,0,0,0,0-.41.76.76,0,0,0-.11-.4l-.06-.08a.14.14,0,0,0-.09,0l-.09-.1,0,0a.8.8,0,0,0-.31-.12,2.45,2.45,0,0,0-.38,0H64.9a2.7,2.7,0,0,0-.66,0l-.12,0h0a2.64,2.64,0,0,1,.21-.29l.19-.24,0-.06a5.07,5.07,0,0,0,.35-.46,4.07,4.07,0,0,0,.46-.88,2.34,2.34,0,0,0,.09-.33,1.63,1.63,0,0,0,0-.31,1.12,1.12,0,0,0,0-.22.66.66,0,0,0-.08-.21l-.09-.1a.47.47,0,0,0-.23-.12l-.29,0a3,3,0,0,0-.52,0,1.51,1.51,0,0,0-.41.1,3.59,3.59,0,0,0-.35.12l-.37.13a1.73,1.73,0,0,0-.32.11l-.27.13-.36.15-.1,0-.25.1a3,3,0,0,0-.36.18,11.06,11.06,0,0,1,1.47-1.11l.66-.42.58-.36.26-.17,1.08-.65.49-.29.38-.23.43-.27c.32-.18.63-.35.94-.5h0c.19-.09.37-.18.56-.25l.46-.19.11-.05a1.93,1.93,0,0,1,.53-.17h.12l0,0,.29.27a.75.75,0,0,0,.07.12,1.48,1.48,0,0,0,.24.26l.23.2a55.91,55.91,0,0,0,6.46,11.7C76.73,184.9,76.61,185,76.48,185.05Z"/><path class="cls-6" d="M71,173.5l.33.3.11.1a6.4,6.4,0,0,0,.49.42l.31.22.3.22.31.24.31.23.31.23.32.23.34.26a9.06,9.06,0,0,0,1,.7l-.07,0,.06,0,.32.2a.3.3,0,0,0,.1.24h0l.11.08.15.12.2.14.13.09a3.66,3.66,0,0,0,.42.26l.23.14.08.05.26.17.12.07.17.08.6.34.08.05a1.46,1.46,0,0,0,.3.17.64.64,0,0,0,.49,0l0,0a.21.21,0,0,1,.05.19,4.35,4.35,0,0,0-.11.46c0,.33,0,.63-.08.93l0,.28c0,.18,0,.36-.07.54s-.06.34-.08.5,0,.28-.07.42-.08.47-.13.7a2.07,2.07,0,0,1-.23.64,3.37,3.37,0,0,1-.68.8,4.24,4.24,0,0,1-.4.31l-.1.07-.1.06a55.91,55.91,0,0,1-6.46-11.7l0,0A6.3,6.3,0,0,0,71,173.5Z"/><path class="cls-7" d="M62.54,165.36l-.21-.37-.12,0a.47.47,0,0,1-.36-.08.32.32,0,0,1-.08-.34.65.65,0,0,1,.25-.38,2.27,2.27,0,0,1,.52-.32l.11,0h0l.14-.09.06-.05.13-.1.53-.37c.25-.15.52-.28.77-.4l.12,0c.17-.09.34-.18.5-.28l.11-.07.56-.35c.13-.09.27-.17.41-.25l.33-.21c.28-.18.57-.37.84-.57l.42-.33.34-.27c0,.61,0,1.21.06,1.81-1.56,1.38-3.12,2.77-4.68,4.14l-.29-.33C62.82,165.84,62.68,165.6,62.54,165.36Z"/><path class="cls-7" d="M70.34,173l-.15-.13-.06-.06-.57-.53-.29-.26-.29-.26-.55-.5-.28-.24-.27-.25-.27-.24c-.27-.25-.53-.51-.77-.78l-.24-.23c-.2-.18-.41-.35-.62-.52l-.26-.2c-.13-.11-.26-.2-.39-.3l-.2-.15a2.69,2.69,0,0,1-.32-.27,2.39,2.39,0,0,1-.23-.22l-.27-.25a3.07,3.07,0,0,1-.26-.25,4.22,4.22,0,0,1-.38-.46,3.79,3.79,0,0,0-.32-.38l-.06-.08c1.56-1.37,3.12-2.76,4.68-4.14A35.1,35.1,0,0,0,70.34,173Z"/><path class="cls-7" d="M73.45,158l.18.27c.11.17.22.34.32.51l.24.4c.27.45.56.92.86,1.36l.43.56c.08.09.15.19.23.29l.24.31a4.52,4.52,0,0,0,.48.5l.21.2.2.17.19.18.4.4c.23.23.45.46.69.68l.08.07.08.07.4.36.14.12.28.27.12.12.16.16.33.32.13.14.4.39.07.07.18.16.27.23.13.13.23.22.18.15.08.07.36.32.1.09.1.09.17.17.18.16.32.24.23.18.35.29.09.08a.27.27,0,0,1,.09,0,.25.25,0,0,1,.15.06.26.26,0,0,1,0,.34l-.14.23-.1.16a2.68,2.68,0,0,0-.18.33l-.06.11-.21.38-.2.39-.11.2c-.21.4-.43.81-.61,1.21-.07.19-.16.37-.25.56l-.06.13-.19.43c0,.11-.09.22-.14.33-.2.46-.41.91-.62,1.37-.14.31-.27.63-.4.95s-.21.6-.31.9l-.13.4-.18.53,0,.1c0,.11-.07.21-.09.31s-.1.33-.16.49a.9.9,0,0,1-.51.48.65.65,0,0,1-.51,0,1.46,1.46,0,0,1-.3-.17l-.08-.05-.6-.34-.17-.08-.12-.07-.26-.17-.08-.05-.23-.13c-.14-.09-.29-.17-.42-.27l-.13-.09-.2-.14-.15-.12-.11-.08h0a.29.29,0,0,1-.11-.24l-.32-.21-.06,0,.07,0a8.11,8.11,0,0,1-1-.7l-.35-.26-.31-.23-.32-.23L72.8,175l-.31-.24-.3-.22-.3-.22a4,4,0,0,1-.49-.42l-.12-.11-.38-.32-.18-.17-.22-.19-.16-.13A35.1,35.1,0,0,1,68,162.28l5.22-4.65A3.32,3.32,0,0,1,73.45,158Z"/><path class="cls-7" d="M68.06,160.35c.19-.14.37-.27.57-.39l.43-.29.21-.16.21-.16.38-.28.3-.21.21-.15.44-.31.16-.11.39-.27.49-.38.25-.2a.5.5,0,0,1,.44-.13.44.44,0,0,1,.41.05h0l.15.17.06.08h0L68,162.28c0-.6-.06-1.2-.06-1.81Z"/><path class="cls-8" d="M61.8,176.69l.26-.1.1,0a2.17,2.17,0,0,0,.35-.15l.28-.13a1.73,1.73,0,0,1,.32-.11l.37-.13a3.59,3.59,0,0,1,.35-.12,1.51,1.51,0,0,1,.41-.1,3,3,0,0,1,.52,0l.29,0a.57.57,0,0,1,.23.12l.09.1a.66.66,0,0,1,.08.21,1.12,1.12,0,0,1,0,.22,1.63,1.63,0,0,1,0,.31,2.34,2.34,0,0,1-.09.33,4.07,4.07,0,0,1-.46.88,5.07,5.07,0,0,1-.35.46l0,.06-.19.24-.22.3a.25.25,0,0,1,.13-.05,2.7,2.7,0,0,1,.66,0h.42a2.45,2.45,0,0,1,.38,0,.8.8,0,0,1,.31.12l0,0,.09.1a.2.2,0,0,1,.09,0,.83.83,0,0,1,.17.48,2.8,2.8,0,0,1,0,.41,1.33,1.33,0,0,1-.08.48,2.93,2.93,0,0,1-.21.44,4.06,4.06,0,0,1-.64.85c-.11.13-.23.26-.35.38l-.07.07-.06.06-.06.06-.12.12-.3.29a8.57,8.57,0,0,1-.7.56c-.19.14-.37.27-.56.39a5.3,5.3,0,0,1-.64.38.84.84,0,0,1-.2.08.82.82,0,0,1-.48,0,1,1,0,0,1-.33-.14,2.07,2.07,0,0,1-.32-.23l-.12-.12-.06-.06,0-.06-.06-.07q-.21-.22-.39-.45a2.9,2.9,0,0,1-.29-.51l0-.1-.13-.25,0-.1,0-.06c0-.05,0-.1-.07-.14a3.94,3.94,0,0,1-.26-.75,2.25,2.25,0,0,1-.14-.75,6.74,6.74,0,0,1,0-.77,4.36,4.36,0,0,1,.23-1,3.93,3.93,0,0,1,.28-.58,3.47,3.47,0,0,1,.44-.61l.06-.06a1.58,1.58,0,0,1,.19-.22l.2-.17A3.6,3.6,0,0,1,61.8,176.69Z"/><path class="cls-2" d="M113.68,109a.87.87,0,0,1,.13-.33c.08-.38.18-.77.29-1.16,0-.12.07-.24.11-.36l.15-.67a11.14,11.14,0,0,1,.31-1.16c1.76-.69,3.52-1.38,5.25-2.09a1.43,1.43,0,0,0,0,.22l0,.12a1.1,1.1,0,0,0,0,.18c0,.2,0,.4,0,.6v.1l0,.62,0,.18a2,2,0,0,1,0,.34,2.08,2.08,0,0,1,0,.35l-1.68.88C116.71,107.54,115.2,108.26,113.68,109Z"/><path class="cls-2" d="M119.9,106l-1.68.79,1.68-.88h0Z"/><path class="cls-2" d="M118.22,106.82l1.68-.79c0,.06,0,.12,0,.18s0,.31,0,.47V107c0,.14,0,.28,0,.41a10.13,10.13,0,0,0,.31,1.29,7.64,7.64,0,0,0,.56,1.29h0s0,0,0,0h0s0,0,0,0l.11.17.1.17,0,.11,0,.08c.13.23.25.47.37.7l.25.51c.08.13.16.26.25.39a2.77,2.77,0,0,0,.22.29l.12.16c.24.31.48.62.7.94.08.13.16.26.23.4l.07.11.23.4.06.11a54.06,54.06,0,0,0-4.54,3q-2.36,2-4.7,4l-.09-.36c-.12-.58-.22-1.13-.3-1.68s-.15-1.1-.22-1.64l0-.41c-.06-.44-.12-.88-.15-1.34s0-.86-.08-1.3l0-.43v-.08a5.72,5.72,0,0,1,0-.72c0-.17,0-.34,0-.52v-.19l0-.66c0-.32,0-.65,0-1,0-.6.12-1.2.2-1.7l0-.22a.41.41,0,0,1,0-.11Q116,108,118.22,106.82Z"/><path class="cls-2" d="M74.65,155.13l-.4.33-.82.65-.17.13-.61.47-.32.23-1,.75-.54.37-.07.06h0a.23.23,0,0,1,.06.21.51.51,0,0,1-.18.29l-.15.12-.08.06c-.6.48-1.2.93-1.87,1.4l-.58.4c0-.56,0-1.13,0-1.7l2.49-1.53,1.57-1,.41-.27.32-.2.58-.39.14-.1c.26-.17.51-.35.76-.53s.44-.32.67-.47l1-.64.37-.25c.1-.06.22-.07.27,0l0,0a.19.19,0,0,1,0,.15.34.34,0,0,1-.13.14c-.38.26-.79.55-1.25.91Z"/><path class="cls-2" d="M74.83,156.16l-.06.05,0,0Z"/><path class="cls-2" d="M74.4,156.59,74,157l-.38.34-.18.15a.79.79,0,0,1-.18.14h0l1.5-1.33Z"/><path class="cls-2" d="M73,157.63a.15.15,0,0,1-.08-.18.79.79,0,0,1,.23-.33l.22-.21c-.08-.09,0-.25.09-.37s.49-.41.72-.62.54-.49.79-.74.48-.46.7-.69.24-.24.36-.36l.12-.1a.55.55,0,0,1,.18-.13.32.32,0,0,1,.17,0c.07-.06.13-.13.2-.2a.24.24,0,0,1,.22-.06l0,0a.09.09,0,0,1,0,.07.21.21,0,0,1,0,.12l-.11.12v0c-.27.28-.51.57-.76.86s-.56.63-.85.94h0l-.42.43-.09.1-1.5,1.33A.28.28,0,0,1,73,157.63ZM76.42,154l0,0Z"/><path class="cls-2" d="M74.93,155.59h0l0,0Z"/><path class="cls-2" d="M75.63,155.53c-.35.39-.71.78-1.1,1.14l-.47.43a3.62,3.62,0,0,1-.42.36.29.29,0,0,1-.14.08.25.25,0,0,1-.19,0h0l2.61-2.33Z"/><path class="cls-2" d="M73.22,157.43a.27.27,0,0,1,.07-.18c.2-.22.42-.42.63-.64l.77-.77h0l.23-.24h0l0,0,0-.05,0,0c.32-.34.65-.68.94-1,.12-.15.23-.31.34-.46a3.79,3.79,0,0,0,.25-.35l0,.06,0-.06h0l.13-.21a.46.46,0,0,1,.15-.16.31.31,0,0,1,.2,0,.15.15,0,0,1,.11,0,.16.16,0,0,1,0,.21c-.09.15-.18.3-.28.45l-.27.41c-.19.27-.41.54-.63.8l-2.61,2.33A.15.15,0,0,1,73.22,157.43Z"/><path class="cls-2" d="M76.49,153.72l0,.06,0-.06Z"/><path class="cls-2" d="M83.23,168.27l-.14-.18a2.14,2.14,0,0,1-.19-.26.37.37,0,0,1,0-.18.49.49,0,0,1,0-.2.37.37,0,0,1,.07-.12l.12-.17c.09-.14.19-.27.29-.41a15,15,0,0,1,1-1.13L85,165c.21-.2.43-.39.65-.58s.47-.39.71-.58l.75-.6.71-.58.75-.58c.08-.07.19-.1.25,0s0,.15,0,.22c-.29.23-.57.46-.84.7l-.21.18a.23.23,0,0,1,.11.36,1.6,1.6,0,0,1-.23.3c-.14.16-.29.32-.44.47l.06-.07-.78.84-.8.92c-.25.3-.48.6-.71.9s-.44.6-.65.9-.31.52-.6.62A.37.37,0,0,1,83.23,168.27Zm.54-.86,0,0,0,0,0,0Z"/><path class="cls-2" d="M83,167.55c-.12,0-.16-.17-.1-.31a.36.36,0,0,1,0-.09l.1-.15a2.73,2.73,0,0,1,.23-.25c.23-.26.47-.51.71-.75.46-.47.93-.93,1.4-1.38q.38-.37.78-.72l.82-.67.84-.67.41-.32.43-.36a.25.25,0,0,1,.31,0c.06.06,0,.18-.06.27l-.78.65-.74.64c-.5.46-1,.92-1.46,1.39l-.29.31.07-.08c-.21.22-.42.45-.62.68s-.44.46-.65.7l-.61.65-.19.21a1.74,1.74,0,0,1-.29.25A.41.41,0,0,1,83,167.55Zm-.08-.34Z"/><polygon class="cls-3" points="77.75 183.94 77.75 183.94 77.75 183.94 77.75 183.94"/><path class="cls-3" d="M71.19,193.53Z"/><path class="cls-3" d="M77.75,184h0v0Z"/><path class="cls-3" d="M72.49,192.05l.05-.05,0,0Z"/><polygon class="cls-3" points="77.75 183.94 77.75 183.94 77.75 183.94 77.75 183.94 77.75 183.94"/><path class="cls-3" d="M88.41,163.25v0l0,0Z"/><polygon class="cls-3" points="77.75 183.94 77.75 183.94 77.75 183.94 77.75 183.94"/><polygon class="cls-3" points="77.75 183.94 77.75 183.94 77.75 183.94 77.75 183.94 77.75 183.94"/><polygon class="cls-3" points="77.75 183.95 77.75 183.95 77.75 183.94 77.75 183.94 77.75 183.95"/><polygon class="cls-3" points="77.76 183.94 77.76 183.93 77.75 183.94 77.75 183.94 77.76 183.94"/><polygon class="cls-3" points="77.75 183.94 77.75 183.94 77.75 183.94 77.75 183.94 77.75 183.94"/><polygon class="cls-3" points="77.75 183.94 77.76 183.94 77.75 183.95 77.75 183.94 77.75 183.94"/><path class="cls-5" d="M91.56,195.64c-.19.34-.42.67-.64,1a5.44,5.44,0,0,1-.36.48,4.76,4.76,0,0,1-.53.56,7.9,7.9,0,0,1-.78.65c-.38.29-.74.53-1,.72l-.59.38-.66.34-.5.22-.17.07-.12,0a2,2,0,0,1-.51.44l-.09.06,0,0a1.4,1.4,0,0,0,.35-.66,10,10,0,0,0,.21-1.09l0-.14a6.81,6.81,0,0,0,.09-1.38,5.39,5.39,0,0,0-.29-1.52,3.94,3.94,0,0,0-.36-.71,1.56,1.56,0,0,0-.17-.25.28.28,0,0,0,0-.09.62.62,0,0,0-.32-.48,1.84,1.84,0,0,0-1-.07,2.66,2.66,0,0,0-.84.21,4.56,4.56,0,0,0-.7.41,5.89,5.89,0,0,0-.51.45,2.68,2.68,0,0,0-.28.3l-.12.17,0,.1,0,0a3.66,3.66,0,0,0-.05-.8,2.44,2.44,0,0,0-.37-.92,4.37,4.37,0,0,0-.46-.56,2.08,2.08,0,0,0-.51-.42.9.9,0,0,0-.33-.09,1.7,1.7,0,0,0-1.1.28l-.24.16-.08.07-.08.07a3.72,3.72,0,0,1-.47.34,3.86,3.86,0,0,0-.69.58l-.15.14c0-.11,0-.22,0-.34,0-.33.06-.67.08-1a10.14,10.14,0,0,0,0-1.08,2.32,2.32,0,0,0-.22-.85,2.2,2.2,0,0,0-.18-.28.82.82,0,0,0-.16-.14l-.17-.1a1.59,1.59,0,0,0-.39-.07,3.15,3.15,0,0,0-.69,0,3.08,3.08,0,0,0-.68.17,5,5,0,0,0-.46.24,5.11,5.11,0,0,0-.71.51,8.23,8.23,0,0,0-.73.72c-.19.23-.38.46-.55.7l-.18.28-.23.34a10.42,10.42,0,0,0-.6.92,2.46,2.46,0,0,0-.24.56c0,.16-.07.32-.1.48l0,.11a2.33,2.33,0,0,0,0,.59l0-.06v0a1.1,1.1,0,0,0,0-.18c0-.14,0-.28-.05-.42s0-.28-.09-.42a3.06,3.06,0,0,0-.1-.41h0c0-.13,0-.27,0-.41a4.68,4.68,0,0,1,.32-1l.09-.22c.13-.34.29-.67.46-1s.32-.62.5-.92l.3-.51c.09-.17.19-.34.29-.51.27-.45.52-.92.77-1.39s.41-.8.6-1.27a6.47,6.47,0,0,0,.27-.88c.06-.29.11-.58.15-.86v0a.43.43,0,0,0,0-.05v0l0-.42,0-.21,0-.33,0-.27c0-.39.07-.68.08-1v-.47a1.5,1.5,0,0,1,0-.29c5.59,4.22,11.65,8,17.43,11.66C91.91,195,91.74,195.3,91.56,195.64Z"/><path class="cls-5" d="M93.39,191.51l0-.1v0Z"/><path class="cls-5" d="M92.27,101.8a48.06,48.06,0,0,1,3.45-4l.87.73.89.69.51.39.76.58c.25.19.5.37.75.57l.24.18,1.19.93.12.1c.2.16.41.32.6.49l.13.11.52.46c1,1,1.79,1.82,2.52,2.66.38.43.76.86,1.12,1.3.15.19.31.37.47.56s.49.58.73.88c.37.47.72,1,1.07,1.44l.1.13c.28.4.58.78.87,1.17l.21.28c.43.54.86,1.09,1.28,1.65l.28.39.28.39c.11.14.2.29.3.43s.17.25.25.37l.48.67c.59.83,1.2,1.69,1.77,2.57l0,0,1,1.61c.19.29.37.59.55.89l.45.74c.19.3.37.61.54.92.1.16.19.33.28.5l.2.37.44.79.53,1c.33.62.6,1.15.83,1.7l.39.89.38.9.07.16.07.16.1.22.06.11a7.33,7.33,0,0,1,.29.7l.09.23c.25.63.48,1.26.7,1.9a9.89,9.89,0,0,1,.28,1l0,.13.05.2c.06.26.13.51.19.76s.13.46.2.69l.09.3,0,.1c.08.31.17.62.22.94a4.62,4.62,0,0,1,.07.79,4.21,4.21,0,0,1-.15.85,8,8,0,0,0,.86.49l.1,0a4.94,4.94,0,0,0,.57.26l.72.25c.43.13.87.24,1.31.35l.34.09a14.74,14.74,0,0,0,1.7.29l.4,0,.5.05.11,0a6.82,6.82,0,0,0,.79.09c.3,0,.61,0,.91,0h.94a17.15,17.15,0,0,0,2.22-.21l1.31-.22c.43-.08.87-.2,1.29-.3h0s0,0-.05,0l.9-.3.24-.08.24-.07a1.06,1.06,0,0,1,.33-.19c.28-.09.56-.2.83-.31l.42-.16.4-.14.62-.23,1-.46.6-.28.19-.08c.21-.1.42-.19.63-.31l.61-.33.18-.1c.55-.31,1-.59,1.49-.88s1-.68,1.56-1l.57-.41,1.4-1,.62-.41.37-.24.26-.17.57-.38c.57-.41,1.14-.86,1.74-1.37s1.12-1,1.69-1.54,1-.93,1.51-1.39.83-.76,1.24-1.14l.37-.34c.53-.5,1.08-1,1.63-1.49l1.31-1.23.15-.14c.18-.18.37-.35.56-.52s.64-.59.95-.9l1.07-1,.52-.51c1.19-1.18,2.26-2.2,3.25-3.14l.82-.75.85-.76.82-.78.54-.48.3-.26.81-.72.82-.73.68-.59.92-.8.27-.24.46-.41.56-.46.28-.23.5-.41.5-.4.86-.72c.57-.47,1.14-.93,1.73-1.38l.58-.44,1.17-.9.21-.16c.55-.43,1.11-.88,1.69-1.27s1.24-.84,1.83-1.21l1.12-.73.77-.51c.6-.39,1.21-.74,1.89-1.12l.26-.14.69-.38.45-.24.45-.23.07,0c.32-.17.64-.34,1-.49l.29-.14.58-.28.84-.38c.2-.11.41-.21.62-.3a12,12,0,0,1,1.7-.64l.32-.1.57-.16.62-.18.4-.13.11,0,.42-.12.33-.08.19,0,.21-.06.4-.1.31-.08c.37-.09.74-.18,1.11-.25l.2,0a7.24,7.24,0,0,1,.92-.12,4,4,0,0,1,.6,0,2.22,2.22,0,0,1,.45,0,1.16,1.16,0,0,1,.31.08l.07,0h.17a1.47,1.47,0,0,1,.51.08l.07,0,.1,0a.24.24,0,0,1,.11.26.47.47,0,0,1-.12.2.32.32,0,0,1-.21.09H202a.83.83,0,0,1-.22,0h-.1l-.16,0-.37.1a8.28,8.28,0,0,0-1,.34c-.31.13-.63.27-.94.42l-.86.47-.5.3c-.36.21-.73.43-1.11.63l-.38.21-.58.31-.53.29-.38.22-1,.58c-.32.19-.64.38-1,.59s-.41.27-.6.41l-.32.23c-.12.09-.23.19-.34.29l-.1.08c-.25.23-.5.46-.74.7-.6.57-1.16,1.06-1.63,1.48l-.17.15c-.2.17-.4.34-.59.52l-.41.37-.41.38-.28.25c-.47.42-.94.84-1.4,1.28-.61.57-1.16,1.11-1.65,1.64l-.06.06-.08.09h0c-.13.14-.26.29-.4.43l-.81.89-.7.77c-.62.67-1.15,1.27-1.62,1.83s-1,1.22-1.53,1.85-.89,1.15-1.32,1.73l-.22.29c-.5.67-1,1.31-1.47,2l-.34.46c-.4.53-.8,1.06-1.18,1.6-.23.34-.48.67-.72,1s-.47.65-.69,1l-.19.25-.54.78L172,124l-.23.33c-.64.92-1.25,1.86-1.86,2.8l-.79,1.2-.46.71-.18.29-.22.36c-.16.24-.31.48-.46.72l-.54.86-.81,1.3-.48.77,0,0,0,0h0l.07-.15c-.27.47-.54,1-.82,1.42-.38.65-.77,1.3-1.16,1.95l-.23.39-.73,1.19c-.28.43-.58.86-.88,1.29l-.16.31-.48.88c-.1.18-.2.36-.31.54l-.27.47c-.2.37-.41.74-.64,1.09-.46.74-.93,1.42-1.4,2.05-.35.48-.67.93-1,1.37s-.61.88-.92,1.3l-.12.17-1.09,1.44-.53.65-.46.56-.31.4-.33.45c-.34.44-.69.91-1.06,1.34-.23.28-.48.54-.73.8s-.36.39-.54.59l-.11.12c-.65.73-1.32,1.41-2,2.05h0a.16.16,0,0,1,.07.07.36.36,0,0,1,0,.25.43.43,0,0,1-.16.19,7.79,7.79,0,0,0-.79.53c-.33.29-.66.59-1,.9l-.56.51q-.75.69-1.53,1.35c-.27.23-.58.49-.9.74l-.9.66-1.12.85-.69.53c-.53.39-1.06.77-1.6,1.14l-.39.27-.28.2c-.24.17-.48.34-.73.5l-.69.41-.2.1-.31.15-.91.44-1,.45c-.61.27-1.28.55-2.09.86l-1,.39c-.34.12-.69.24-1,.38l-.26.1-.76.23-.37.11c-.62.18-1.23.36-1.84.52l-.08,0h-.08l-.18.05-.11,0h-.05c-.36.09-.67.17-1,.23l-.53.11-.53.11-.46.1-.61.13-.51.1-.51.1-.65.13-.33.07c-.3.07-.6.11-.9.15h-.1c-.72.11-1.37.2-2,.32s-1.08.15-1.6.21h-.09c-.65.07-1.3.12-2,.17l-.62,0c-.4,0-.8.07-1.19.08-.57,0-1.11,0-1.57,0h-1.47l-1.33,0h-3.68l-.17,0h-.07l-.17,0h-.08a1,1,0,0,0-.29,0h-.09a1.66,1.66,0,0,1-.5-.12l-.12,0c-.18.14-.36.3-.54.46s-.45.57-.68.84c-.48.56-1,1.11-1.45,1.66l-.16.18-.7.78c-.34.4-.69.78-1,1.18-.2.22-.4.45-.59.68l-.24.28-.31.36-.24.31a3.81,3.81,0,0,0-.23.4c-.25.44-.49.88-.73,1.33l-.06.09a3,3,0,0,0-.29.57,1.89,1.89,0,0,0-.09.21c-.19.4-.38.8-.56,1.2s-.47,1.06-.73,1.71l-.23.61-.06.15-.11.27-.1.28c0,.07-.06.15-.1.23l-.06.15a.92.92,0,0,1-.23.29l-.13.11c-.13.37-.24.67-.34,1s-.27.77-.4,1.16c-.06.18-.11.35-.17.52s-.1.34-.16.51-.19.53-.29.8l-.06.19c-.09.24-.16.47-.23.71l-.08.25c-.11.35-.23.69-.36,1-.24.63-.52,1.26-.78,1.87l-.17.38-.1.24c-.1.23-.21.47-.32.7-5.78-3.64-11.84-7.44-17.43-11.66a.45.45,0,0,1,0-.11,1.36,1.36,0,0,1,.13-.37.62.62,0,0,1,.15-.22l0-.35,0-.19c0-.09,0-.18,0-.27a3.6,3.6,0,0,0,.16-.5,2,2,0,0,0,0-.73c0-.26-.09-.51-.14-.76s-.06-.31-.1-.46-.08-.36-.11-.54-.1-.4-.15-.59l-.08-.3c-.08-.33-.17-.65-.28-1A4.34,4.34,0,0,1,74,176a.26.26,0,0,0-.07-.15.57.57,0,0,0,0-.13.8.8,0,0,0,.28-.56c0-.18,0-.34,0-.55s0-.23,0-.34v-.12l0-.6v-.45c0-.34,0-.68,0-1s0-.73,0-1.09c0-.53.08-1.06.11-1.58,0-.13,0-.26,0-.39l0-.5v-.15c0-.21,0-.43,0-.64,0-.47.09-1,.16-1.41l0-.24.06-.46.06-.45,0-.13c0-.13,0-.26.07-.39l0-.19.06-.28a.3.3,0,0,0-.16-.34.37.37,0,0,0-.18,0l-.1,0-.14-.07a4.31,4.31,0,0,0-.49-.22l-.32-.13-.44-.19-.25-.11-.26-.14-.14-.08-.15-.07-.52-.25-.11-.05-.16-.08-.11-.06-.08,0h0l-.23-.12-.2-.1-.37-.18-.27-.13-.1,0-.59-.32-.19-.11c-.16-.09-.32-.18-.49-.26l-.24-.13-.18-.1-.41-.22-.19-.09-.59-.28-.11-.06-.11-.06c-.35-.17-.68-.36-1-.54l-.61-.34-.28-.13L64.8,159l-.32-.16c-.16-.08-.32-.16-.48-.26l0,0c-.28-.18-.53-.36-.78-.55l-.13-.1-.61-.45-.4-.27-.16-.11c-.36-.29-.71-.59-1-.88l-.42-.37-.55-.46-.31-.24a3.32,3.32,0,0,0-.42-.32C70,137,80.78,119.13,92.27,101.8Z"/><path class="cls-7" d="M111.46,180.93c-.76.16-1.43.29-2.07.38-.31.05-.62.08-.93.11s-.48,0-.71,0h-.21l-.75,0-.19,0-.75,0h-.29c-.48,0-1,0-1.43,0l-.81,0-.27,0-.54-.05-.26,0-.33-.05c-.23,0-.46,0-.69,0l-.6-.06c-.23,0-.45-.06-.69-.07h-.49l-.22,0h-.46a3.14,3.14,0,0,1-.53,0A.73.73,0,0,1,98,181a.52.52,0,0,1-.27-.51,1.73,1.73,0,0,1,.15-.49,3,3,0,0,1,.3-.57,4,4,0,0,1,.24-.33l.11-.13.06-.07,0-.05c.09-.14.2-.28.31-.42l.19-.24.08-.1.08-.11.06-.07h0c.22-.28.46-.55.7-.82l.39-.46c.16-.2.32-.38.48-.55s.41-.42.57-.62l.09-.11.08-.13.4-.51c.24-.27.47-.55.7-.84s.39-.5.6-.74.47-.55.7-.78a9.13,9.13,0,0,1,.94-.84l.32-.24.12-.08a1.22,1.22,0,0,1,.4-.15,1,1,0,0,1,.29,0h.32l.26,0,.25,0,.27,0,.71.09.08,0,.39.05c.17,0,.33,0,.5,0l1,0H111c.22,0,.45,0,.67-.06l.33,0c.36,0,.71,0,1.07-.06l1.5,0c.88,0,1.78,0,2.68-.1l.9,0a8.84,8.84,0,0,0,1-.08l.46-.06a15.91,15.91,0,0,0,1.61-.27l.35-.08.61-.14.34-.06.61-.13.52-.13.52-.13.61-.12.43-.09.88-.19,1.39-.29c.76-.15,1.5-.32,2.21-.5l.07,0,.17,0c.75-.21,1.49-.49,2.13-.73.34-.14.69-.26,1-.39l1-.38c.81-.32,1.47-.59,2.09-.86l1-.46.91-.43.32-.15L139,165l.92-.44.69-.43.34-.23c.34-.22.68-.44,1-.68s.68-.48,1-.74l.31-.24a4.34,4.34,0,0,1,.54-.42c.22-.23.44-.46.65-.7a.34.34,0,0,1,.39-.1l.06,0a.35.35,0,0,1,0,.46l-.54.59a.35.35,0,0,1-.12.22l-.16.15-.27.24-.07.08-.12.12c-.15.16-.3.32-.46.47l-.62.54-.65.6-.12.12-.66.58-.29.24-.31.28c-.34.3-.68.61-1,.89l-.39.31c-.32.26-.64.52-.95.79l-.77.66-.15.12-.54.44-.22.2-.06.05-.17.15-.68.58c-.28.21-.57.42-.86.61-.61.43-1.23.83-1.84,1.2L131,172.89l-1.15.7c-.22.13-.44.26-.65.4l-.08,0c-1.14.7-2.32,1.42-3.5,2.07-.37.2-.73.39-1.1.57l-.2.1c-.25.12-.49.24-.74.34s-.7.3-1,.44l-.55.24-.42.19c-.7.31-1.41.59-2.13.88-.56.23-1.14.4-1.7.57l-.21.06c-.7.21-1.39.41-2.09.56l-2,.46c-.37.09-.75.16-1.13.24Z"/><path class="cls-8" d="M85.12,194.26a.6.6,0,0,1,.32.48.28.28,0,0,1,0,.09,1.56,1.56,0,0,1,.17.25,3.94,3.94,0,0,1,.36.71,5.39,5.39,0,0,1,.29,1.52,6.67,6.67,0,0,1-.09,1.37l0,.15a10,10,0,0,1-.21,1.09,1.4,1.4,0,0,1-.35.66A2.45,2.45,0,0,1,85,201a3.39,3.39,0,0,1-1,.28l-.16,0-.15,0a8.61,8.61,0,0,1-1.17.16l-.4.05-.24,0-.38,0h-.09l-.35.05a5.47,5.47,0,0,1-.7,0h-.63a17.5,17.5,0,0,1-1.79-.17l-.66-.15h-.07l-.17,0a6.4,6.4,0,0,1-.62-.2A3.65,3.65,0,0,1,76,201l-.13-.05-.2-.09-.27-.12-.15-.06-.1-.06-.21-.1-.08,0-.35-.16-.26-.15a12.07,12.07,0,0,1-1.52-1c-.3-.24-.6-.48-.88-.75a3.85,3.85,0,0,1-.64-.76,2.39,2.39,0,0,1-.12-.22l0-.09a2.3,2.3,0,0,1-.18-.49,2.34,2.34,0,0,1,0-.91l0-.12a3.56,3.56,0,0,1,.1-.47,2.46,2.46,0,0,1,.24-.56c.18-.32.4-.64.6-.93l.23-.33.18-.28c.17-.25.36-.47.55-.7a8.23,8.23,0,0,1,.73-.72,5.4,5.4,0,0,1,.71-.52,3.94,3.94,0,0,1,.46-.23,3.08,3.08,0,0,1,.68-.17,3.15,3.15,0,0,1,.69,0,1.51,1.51,0,0,1,.39.07h0l.17.1a.82.82,0,0,1,.16.14,2.2,2.2,0,0,1,.18.28,2.27,2.27,0,0,1,.22.85,10.08,10.08,0,0,1,0,1.08c0,.33,0,.67-.08,1,0,.12,0,.24,0,.36a3.9,3.9,0,0,1,.84-.74,5.09,5.09,0,0,0,.47-.34l.08-.07.08-.07.24-.16a1.7,1.7,0,0,1,1.1-.28.9.9,0,0,1,.33.09,2.08,2.08,0,0,1,.51.42,4.37,4.37,0,0,1,.46.56,2.44,2.44,0,0,1,.37.92,3.88,3.88,0,0,1,.05.82l.08-.16.12-.17a2.68,2.68,0,0,1,.28-.3,4.57,4.57,0,0,1,.51-.45,3.36,3.36,0,0,1,.7-.41,2.66,2.66,0,0,1,.84-.21,1.84,1.84,0,0,1,1,.07"/><path class="cls-2" d="M91.32,196.36a15.6,15.6,0,0,1-1.48,1.74,9.07,9.07,0,0,1-1,.93l-.73.52-.17.12-.19.14-.51.35a.93.93,0,0,1-.91.12.54.54,0,0,1-.21-.19,1.19,1.19,0,0,1-.12-.54,2.48,2.48,0,0,1,0-.48c0-.06,0-.13,0-.19v-.14l0-.15,0-.35V198c0-.21,0-.41,0-.62a1.31,1.31,0,0,1,.36-.66l.16-.2.16-.23.13-.17.28-.42a32.58,32.58,0,0,0,1.64-3.09l3.44,2.17A15.83,15.83,0,0,1,91.32,196.36Z"/><path class="cls-2" d="M89.61,190.92c.19-.44.39-.87.56-1.32s.35-.91.53-1.36l.31-.79c.17-.46.3-.86.44-1.26s.21-.63.32-.94c.3-.85.6-1.61.92-2.33s.64-1.36,1-2.09c.19-.37.39-.73.6-1.09l.14-.25c.15-.26.29-.52.45-.78l.17-.27.16-.26c.13-.22.27-.43.41-.64a22.47,22.47,0,0,1,1.42-1.92c.25-.3.49-.59.75-.88s.62-.66.94-1a18.57,18.57,0,0,1,1.68-1.48l.15-.13.55-.43c.28-.22.59-.42.88-.62l.45-.3.18-.13-.09.06c.59-.4,1.11-.76,1.65-1.1l.49-.3.93-.59a22.5,22.5,0,0,0,3.11-2.48,5.77,5.77,0,0,0,.7-.84c.11-.2.21-.4.31-.6a.51.51,0,0,1,.55-.31l0,0a.35.35,0,0,1,.1.48c-.17.32-.33.64-.53.94a7.15,7.15,0,0,1-.55.72,16,16,0,0,1-1.45,1.58c-.46.42-1,.85-1.5,1.3l-.1.08a.53.53,0,0,1,.16.37,1.34,1.34,0,0,1-.52.93,3.71,3.71,0,0,1-.55.43l-.1.07a10.14,10.14,0,0,0-.93.75l-.1.09-.45.38c-.26.22-.52.44-.77.67s-.68.66-1,1l-.17.16-.27.28-.14.13-.31.38-.52.62-.36.42-.67.8-.26.34a21.89,21.89,0,0,0-1.51,3c-.08.2-.16.39-.25.58s-.29.67-.42,1-.17.46-.26.69-.21.53-.31.8c-.19.53-.45,1.23-.74,1.92l-.06.14c-.23.55-.47,1.1-.68,1.66-.13.38-.25.76-.37,1.14s-.23.7-.35,1-.23.7-.34,1.05l-.06.2c-.13.4-.27.79-.41,1.19h0a18.23,18.23,0,0,1-1,2.28c-.11.22-.22.42-.33.61l-3.44-2.17c.14-.31.29-.62.42-.93S89.49,191.16,89.61,190.92Z"/><path class="cls-2" d="M116.62,170.71l-.6,0h0c-.32.06-.64.09-1,.12l-1.18.1c-.73.06-1.47.14-2.21.23-.36,0-.73.08-1.09.1s-.71,0-1,0a17.22,17.22,0,0,1-2-.13,6.63,6.63,0,0,1-.76-.11l-.18,0a.62.62,0,0,1-.28-.17.5.5,0,0,1-.09-.42,1.06,1.06,0,0,1,.14-.33c.1-.12.2-.2.3-.31s.19-.21.28-.31l0,0,.11-.12.23-.31.37-.44.44-.54.08-.1a.51.51,0,0,1,.09-.22.65.65,0,0,1,.15-.18c.08-.14.17-.27.26-.41a4.92,4.92,0,0,0,.28-.45c.17-.29.36-.57.53-.86l.25-.47a1.09,1.09,0,0,1,.79-.58,1,1,0,0,1,.53.17l.41.25c.31.16.61.33.92.48s.35.19.52.29.36.21.54.29l.49.19c.22.09.45.16.68.23a13.4,13.4,0,0,0,1.52.48,13.87,13.87,0,0,0,1.59.26c.51.06,1,.13,1.54.18a28.23,28.23,0,0,0,3.32,0c.58,0,1.18-.1,1.77-.16s1.12-.13,1.68-.23c.71-.15,1.43-.31,2.14-.48s1.44-.33,2.16-.52,1.42-.37,2.12-.58l1.15-.34,1.07-.37c.55-.2,1.1-.39,1.64-.6s1.12-.46,1.68-.7l-.08,0,.1,0h0c.68-.31,1.36-.64,2-1l1.12-.61,1.06-.61c.71-.42,1.42-.87,2.13-1.31.36-.21.72-.44,1.07-.66l1.09-.7c.42-.29.83-.61,1.24-.92h0c.41-.31.81-.62,1.23-.89a.18.18,0,0,1,.17,0,.13.13,0,0,1,.06.07.24.24,0,0,1-.11.26c-.23.14-.45.3-.67.46h0c-.66.52-1.33,1-2,1.5l-.46.31a.21.21,0,0,1,0,.31c-.54.44-1.08.88-1.65,1.27s-1.28.81-1.93,1.2l0,0a.35.35,0,0,1-.17.24c-.64.44-1.3.82-2,1.2l-.19.12a.4.4,0,0,1-.16.18,3.42,3.42,0,0,1-.42.23l-.43.22-.75.36-.5.25c-.31.16-.64.3-1,.44l-.51.23-.22.1-.19.08a.17.17,0,0,1-.14,0h0l-1.36.55-.07,0c-.44.2-.89.37-1.34.55l-.73.31c-.2.08-.4.17-.6.24l-.12.06c-.39.12-.79.2-1.18.29l-1.05.24-.74.16-1.06.26a.5.5,0,0,1-.27.21c-.73.21-1.46.37-2.19.54l-1.21.25c-.33.07-.66.12-1,.18l-.12,0-.26.05c-.42.09-.83.15-1.25.23s-.77.12-1.15.18c-.7.11-1.4.21-2.1.27Zm-6.08-4.88h0Zm-.19.36h.05l0,0Zm0,0,0,0h0Zm37.94-8.41,0,0Z"/><path class="cls-3" d="M74.7,181.82v0c0-.11,0-.22,0-.32v-.06h0v0a.62.62,0,0,0,0-.13.62.62,0,0,1,0,.13v-.33c0-.18,0-.35,0-.53h0a.55.55,0,0,1-.45-.51,4,4,0,0,1,0-.6c0-.21,0-.42,0-.63l0-1.13c0-.41,0-.82,0-1.23s0-.66,0-1c0-.61,0-1.22,0-1.83,0-.05,0-.1,0-.14,0-.78-.07-1.56-.06-2.35s.06-1.56.13-2.35c0-.41.07-.82.11-1.23s.09-.78.14-1.17.1-.91.18-1.36c0-.25.09-.49.14-.74a9.36,9.36,0,0,1,.38-1.32,2.23,2.23,0,0,1,.38-.67c0-.32.06-.64.09-1a.51.51,0,0,1,.33-.4l.08,0c0-.23.08-.45.13-.68s.13-.56.21-.84.11-.36.16-.54v0c.27-1,.72-2,1.07-3a.51.51,0,0,1,.5-.32l.07,0a.34.34,0,0,1,.12.43c-.14.39-.28.78-.4,1.18v0c-.09.32-.18.63-.25,1s-.12.63-.16.94-.09.6-.14.9-.07.65-.11,1c-.07.66-.15,1.32-.22,2s-.08,1.31-.11,2,0,1.44,0,2.15.08,1.44.15,2.15c0,.33.07.66.11,1s.07.71.12,1.06.09.71.14,1.06.06.66.1,1c.09.7.17,1.4.25,2.1s.16,1.36.19,2,.11,1.42.12,2.14,0,1.48,0,2.23c0,.43-.07.87-.12,1.3,0,.21,0,.42-.08.63s-.06.41-.1.62-.1.49-.15.74c-1-.7-2-1.42-2.91-2.14,0-.27,0-.54.05-.8Z"/><path class="cls-9" d="M80.55,193.57a.38.38,0,0,1,0,.25.5.5,0,0,1-.21.17l-.12.06a3.62,3.62,0,0,0-.41.27,8.46,8.46,0,0,0-.8.89c-.28.38-.57.75-.83,1.14s-.49.77-.73,1.16l-.71,1.15a12.74,12.74,0,0,0-.67,1.12h0a2.79,2.79,0,0,1-.18.34c-.07.12-.14.26-.22.37a.85.85,0,0,1-.16.17.49.49,0,0,1-.3.08h0a.28.28,0,0,1-.24-.25l-.11,0a.4.4,0,0,1-.45-.22,1.06,1.06,0,0,1,.1-.8l.12-.29a.53.53,0,0,1,0-.33l.21-.42c.06-.11.12-.22.19-.33s.29-.48.44-.71.35-.52.53-.77.36-.51.56-.75a8,8,0,0,1,.51-.64c.16-.18.31-.36.47-.53l.42-.49a4.9,4.9,0,0,1,.72-.72.67.67,0,0,1,.45-.16.25.25,0,0,1,.2.17l.13-.07a.53.53,0,0,1,.25-.1.26.26,0,0,1,.28.14l0,.05.25-.13a.22.22,0,0,1,.22,0,.24.24,0,0,1,.12.17m-1.08-.15,0,0,0,0M79,195.16l0,0,0,0m-.38.05h0l0,0s0,0,0,0m-2.55,4.46a.17.17,0,0,1,0,.05.17.17,0,0,0,0-.05m-1.53,0h0v0"/><path class="cls-9" d="M60.73,181.15l.32-.2c.26-.16.54-.3.81-.44l.89-.44,1-.4a10,10,0,0,1,1-.38,3.7,3.7,0,0,1,.55-.09,3,3,0,0,1,.42,0c.2,0,.45,0,.46.24a.34.34,0,0,1-.09.24l.39,0a.2.2,0,0,1,.17,0,.13.13,0,0,1,0,.15.43.43,0,0,1-.32.29c-.25,0-.49,0-.73.08a5.32,5.32,0,0,0-.78.14,4.61,4.61,0,0,0-.76.27l-.91.49-.52.26-.45.24c-.29.17-.58.36-.87.54l-.33.19a1,1,0,0,1-.54.18.26.26,0,0,1-.24-.33.37.37,0,0,1,.05-.11.25.25,0,0,1-.14-.23.37.37,0,0,1,0-.22.72.72,0,0,1,.29-.31A2.07,2.07,0,0,0,60.73,181.15Z"/><path class="cls-9" d="M64,180.78l0,0h0Z"/><path class="cls-9" d="M60.88,181.92c.16-.09.31-.21.47-.3s.44-.26.67-.38.42-.21.63-.31l.64-.31.6-.26a4.32,4.32,0,0,1,.66-.23c.45-.13.9-.22,1.35-.33h0l.67-.16a.12.12,0,0,1,.13,0,.11.11,0,0,1,0,.12.36.36,0,0,1-.26.23l-.48.11-.42.12,0,0-.31.09h0l-.7.22a6.44,6.44,0,0,0-.61.24h0l0,0h0l-.69.37-.82.43c-.26.14-.52.3-.78.46l-.35.22a1.14,1.14,0,0,1-.47.2c-.15,0-.26,0-.27-.17a.47.47,0,0,1,.31-.39Zm0,0,0,0Z"/><path class="cls-9" d="M60.18,178.55h0l0,0Z"/><path class="cls-9" d="M61.26,177a8.31,8.31,0,0,1,.85-.51,6.14,6.14,0,0,1,1-.39l.48-.14a3.13,3.13,0,0,1,.59-.09,3.57,3.57,0,0,1,.46,0,3.39,3.39,0,0,1,.46,0,.54.54,0,0,1,.19.07h0a.22.22,0,0,1,0,.29.5.5,0,0,1-.11.1l.35,0c.16,0,.27.07.24.22a.46.46,0,0,1-.37.32,6.5,6.5,0,0,0-.69.14,11.7,11.7,0,0,0-1.7.63c-.28.13-.55.28-.82.43s-.52.32-.78.49l-.75.49-.21.12a.79.79,0,0,1-.42.13c-.12,0-.21-.09-.21-.2a.42.42,0,0,1,.17-.35,4.66,4.66,0,0,1,.49-.39.28.28,0,0,1-.15-.08c-.15-.14-.08-.4.14-.6s.25-.23.39-.34S61.11,177.1,61.26,177Zm3.59-.6ZM63,177.62l-.07,0Zm-2.53,1.43,0,0Zm-.25-.5,0,0,0,0Z"/><path class="cls-9" d="M63.4,177.3h0l0,0Z"/><path class="cls-9" d="M60.06,178.9c.18-.13.35-.27.53-.39l.72-.47c.24-.15.48-.28.73-.42l.7-.34-.05,0a12.17,12.17,0,0,1,1.12-.48c.22-.08.45-.15.67-.21l.7-.18a.14.14,0,0,1,.11,0,.11.11,0,0,1,0,.11.26.26,0,0,1-.21.18l-.41.1h0l-.64.2c-.23.08-.45.17-.67.27h0l0,0,0,0c-.45.22-.89.45-1.33.7-.24.14-.48.28-.71.44l-.37.25-.35.24-.18.14a1.53,1.53,0,0,1-.3.19.24.24,0,0,1-.18,0,.13.13,0,0,1-.12-.07.28.28,0,0,1,.15-.31Z"/><path class="cls-10" d="M49.82,104.42s-8.49,12.65-10.4,23v0c-.61,3.22-.56,6.21.57,8.55,3.68,7.68,22.73,12.34,31.09,14,2.42.49,3.94.74,3.94.74l1.31-3.31c-48.13-9.49-29.22-23.16-18.95-46v0C54.82,102.44,52.28,103.4,49.82,104.42Z"/><path class="cls-11" d="M57.38,101.55c-10.27,22.8-29.18,36.47,18.95,46l10.09-25.33a76.9,76.9,0,0,1,3.15-13.12c2.37-7,6.32-15,12.58-18.48-10.94,1.77-28.49,5.21-44.78,11Z"/><g class="cls-12"><path class="cls-13" d="M75.08,150.69a121.4,121.4,0,0,1-21.72-5.78,40.49,40.49,0,0,1-9.25-4.78,13.25,13.25,0,0,1-3.19-3.2,8.75,8.75,0,0,1-1.31-3.66,20.18,20.18,0,0,1,.57-7.49,47.89,47.89,0,0,1,2.44-7.28,92.89,92.89,0,0,1,7.42-14l-.38-.13a54,54,0,0,0-10.21,13.41c-2.52,4.8-4.56,9.79-4,15.56a10.73,10.73,0,0,0,1.76,4.53,15.92,15.92,0,0,0,4,3.93,41.9,41.9,0,0,0,10.61,5A89.29,89.29,0,0,0,75,151Z"/></g><path class="cls-14" d="M86.24,122.15a29.37,29.37,0,0,0-5.53,6.57c-.8,1.12-1.33,2.31-2,3.46s-1.07,2.35-1.61,3.54-.87,2.4-1.23,3.62A36,36,0,0,0,75,143a21.79,21.79,0,0,0-.17,7.74l.4.09,5.9-14.27,5.49-14.36Z"/><path class="cls-15" d="M75.07,150.76c-3.69-.9-7.35-1.82-10.88-2.93a99.15,99.15,0,0,1-10.31-3.58,42.48,42.48,0,0,1-8.8-4.7,11.71,11.71,0,0,1-2.87-3,7.86,7.86,0,0,1-1.14-3.36c-.72-4.78,1-9.71,2.66-14.49.84-2.41,1.85-4.79,2.94-7.16s2.16-4.75,3.28-7.13l-.19-.07a93.09,93.09,0,0,0-7.6,14,49.37,49.37,0,0,0-2.52,7.31,20.19,20.19,0,0,0-.65,7.58,9,9,0,0,0,1.4,3.78,13.87,13.87,0,0,0,3.32,3.3,41.26,41.26,0,0,0,9.44,4.82A123.71,123.71,0,0,0,75,150.9Z"/><path class="cls-5" d="M121.62,132.55c-.16-.27-.34-.53-.51-.8l-.33-.51c-.25-.39-.52-.79-.79-1.18-.52-.76-1.12-1.57-1.85-2.47a5.34,5.34,0,0,0-.39-.44l-.09-.11-.47-.48-.09-.1-.93-.93-.19-.18-.59-.58-.59-.57-.41-.4-.69-.69c-.61-.62-1.22-1.3-2-2.17l-.17-.2c-.24-.29-.49-.59-.75-.87s-.67-.77-.92-1.09-.56-.77-.89-1.27l-.16-.23c-.19-.29-.39-.59-.57-.89a9.39,9.39,0,0,1-.61-1.23.43.43,0,0,0,.07-.14.88.88,0,0,0,.11-.36l0-.27a2.51,2.51,0,0,1,0-.27,6.58,6.58,0,0,1,0-.89,5,5,0,0,1,.06-.54c0-.11,0-.21,0-.32l0-.22a4.1,4.1,0,0,1,.1-.69q.09-.43.21-.87a7.7,7.7,0,0,1,.35-1,11.62,11.62,0,0,1,.56-1.12l.25-.45.36-.66c.18-.31.36-.62.56-.92l.11-.17.11-.17c.4-.59.74-1.07,1.08-1.51l.17-.22c-10.16-4.28-20.4-8.46-30.87-12.3l-.12.14c-.2.23-.43.45-.65.67l-.34.31a3.83,3.83,0,0,0-.29.28l-.15.14-.55.52-.28.25-.41.38-1.35,1.15-.31.24-.44.38-.68.55-.27.21-.52.42-.4.31-.4.3-.75.59-.76.59-.22.18-1.34,1.05.08-.07c-.41.31-.84.61-1.27.91s-.87.64-1.29,1l.07-.07-.15.11-.15.13.07-.07c-.13.1-.27.2-.39.31l.07-.07q-.58.44-1.2.84l-.48.33a12.34,12.34,0,0,1-1.63,1l-.29.13-.15.08a.33.33,0,0,0-.16.11.56.56,0,0,0-.19.09.48.48,0,0,0-.28.33.17.17,0,0,0,0,.07l0,0,0,0h0a3.16,3.16,0,0,1,.55.13l.33.16a4.92,4.92,0,0,1,.58.35l0,0,.07,0,.17.12.11.08.14.08c.12.07.25.14.36.22l.09.07a5,5,0,0,1,.42.36l.17.15c.19.16.37.34.55.52a5.8,5.8,0,0,1,.48.52,5.73,5.73,0,0,1,.75,1.23,7.44,7.44,0,0,1,.55,1.36l.05.14c0,.16.09.33.13.48a5,5,0,0,1,.13.65c.06.38.11.76.14,1.14a13.42,13.42,0,0,1,0,1.52,8.47,8.47,0,0,1-.17,1.34c0,.19-.08.38-.13.56s-.09.35-.14.52l-.06.18a8.38,8.38,0,0,1-.61,1.49l-.13.27c-.21.42-.41.84-.64,1.25a9.9,9.9,0,0,1-.63,1l-.2.29L66,123c-.11.15-.22.29-.34.43l-.21.27-.2.32-.14.23a4.94,4.94,0,0,0-.27.42l-.44.71c-.2.33-.43.65-.66,1l-.25.35c-.14.21-.29.4-.45.6s-.37.49-.54.74l-.06.08-.07.12-.19.33c-.15.25-.28.5-.42.75l-.22.46-.15.32c-.13.24-.24.49-.36.74s-.33.74-.48,1.11-.23.57-.34.85-.1.39-.14.59l-.06.23a1,1,0,0,0,0,.17.67.67,0,0,1-.09.36.77.77,0,0,1-.63.35.67.67,0,0,1-.26-.05l-.72.45-.44.26-.84.54a152.64,152.64,0,0,1,7.46,21.55l.54-.33.16-.1.43-.28.42-.27c.46-.29.93-.6,1.37-.92l.26.27a.55.55,0,0,1,.29.09h0a1.39,1.39,0,0,1,.19.15l.08.07a3.51,3.51,0,0,1,.34.33l.24.24.42.45.32.36c.27.28.53.58.81.86l.13.11.32.29.48.45.1.1c.2.19.4.38.62.57l0,0c.13.1.26.2.4.29l.26.18.23.16.23.16.5.37c.28.21.55.41.84.61l.09.07.1.07c.16.11.32.22.49.32l.15.11.35.25.14.11.2.14.41.3.15.12.12.09a401.33,401.33,0,0,0,45.64-29.28C122.1,133.37,121.87,133,121.62,132.55Z"/><path class="cls-7" d="M91.63,162.81l-.17-.34c-.14-.29-.29-.58-.44-.87l-.23-.43-.16-.32c-.12-.24-.24-.49-.38-.73a3.37,3.37,0,0,0-.19-.32c-.21-.33-.4-.66-.58-1l-.11-.19-.11-.2c-.33-.6-.63-1.2-.92-1.8l-.55-1.08-.26-.48-.28-.48L87,154a8.24,8.24,0,0,1-.62-1.31c-.09-.25-.18-.5-.26-.75s-.16-.49-.25-.73c-.16-.45-.3-.91-.44-1.36-.3-1-.51-2.14-.72-3.18l-.17-.92-.27-1.19-.15-.65a7.54,7.54,0,0,0-.27-.89l-.07-.18a2.44,2.44,0,0,0-.19-.44l0,0a1.15,1.15,0,0,0-.86-.46,1.54,1.54,0,0,0-1.1-.14l-.71.13-1.42.26-1.11.14-.45.06-1.24.17-.61.09-.83.12-1.09.16-.61.1-.6.11-1.21.13c-.54,0-1.06.12-1.59.21s-1,.17-1.43.26l-1.22.23c-.79.11-1.58.21-2.37.29l-.91.07-1.13.1-1.54.15-.3,0c-.44,0-.91,0-1.37,0h-.29c-.67,0-1.37,0-2.05,0-.5.05-1,.12-1.5.2l-.38.07-.18,0L55,145h0l-.27,0a6.19,6.19,0,0,0-1.44.1,1.67,1.67,0,0,0-.89.46.57.57,0,0,0-.1.69,1.13,1.13,0,0,0,.7.46,1.92,1.92,0,0,0,.3,0c.06.28.1.57.14.85a14.91,14.91,0,0,0,.38,1.69,10.36,10.36,0,0,0,.41,1.05c.14.32.27.63.38,1a6,6,0,0,0,.42,1.14l.37.68c.12.22.25.45.36.67s.2.4.31.59a9.09,9.09,0,0,0,.48.78l.31.43q.31.44.6.87l.39.59c.32.49.65,1,.92,1.47a5.12,5.12,0,0,1,.31.62c.32.69.65,1.38,1,2.06.12.22.25.44.38.66s.27.45.39.67l.39.68c.27.45.53.91.78,1.36l.42.72.42.72.2.37q14.42-1.59,28.64-3.33Z"/><path class="cls-7" d="M86,156.49l-.1-.36-.3-.91-.15-.46-.1-.34c-.08-.26-.16-.52-.25-.78,0-.11-.09-.22-.14-.34-.15-.35-.27-.71-.4-1.06l-.08-.21-.07-.21c-.22-.63-.42-1.27-.61-1.9l-.36-1.14-.17-.51-.19-.51-.21-.58a7.46,7.46,0,0,1-.39-1.38c-.06-.26-.1-.52-.14-.77s-.08-.51-.13-.76c-.09-.47-.15-.94-.22-1.41-.13-1.07-.17-2.17-.21-3.23l0-.93c0-.4,0-.81-.08-1.21l0-.66a6.86,6.86,0,0,0-.12-.91l0-.2a3.69,3.69,0,0,0-.11-.45l0,0a1.09,1.09,0,0,0-.75-.57,1.35,1.35,0,0,0-1-.29l-.69,0-1.37,0H71.78l-.58,0c-.38,0-.77,0-1.16,0s-1,0-1.53,0-.93,0-1.39.06l-1.18.05c-.76,0-1.52,0-2.28,0l-.87-.05q-.54,0-1.08-.06l-1.47-.08H60c-.42,0-.87-.08-1.29-.14l-.28,0c-.63-.1-1.29-.2-1.94-.24-.48,0-1,0-1.44,0l-.37,0h-.18l-.37,0h0l-.26-.06a5.26,5.26,0,0,0-1.36-.1,1.48,1.48,0,0,0-.91.33.59.59,0,0,0-.2.66,1.06,1.06,0,0,0,.6.55l.28.09c0,.29,0,.57,0,.86a14.83,14.83,0,0,0,.11,1.71,10.26,10.26,0,0,0,.24,1.1,8.45,8.45,0,0,1,.21,1,6.86,6.86,0,0,0,.24,1.18c.07.24.16.48.24.72s.17.48.25.71.13.42.21.63.21.55.33.83l.23.47c.16.31.31.63.45.94l.28.64c.23.53.46,1,.65,1.57a5.53,5.53,0,0,1,.2.66c.2.73.41,1.45.67,2.17.08.24.17.48.27.71l.27.72q.12.36.27.72c.18.48.36,1,.53,1.45l.29.77c.1.26.2.51.29.77s.09.26.14.4q13.82.44,27.49.71Z"/><path class="cls-7" d="M65.81,107.15l.09.07a5,5,0,0,1,.42.37l.17.15c.19.16.37.34.54.51s.34.35.49.52a7,7,0,0,1,.75,1.23,7.84,7.84,0,0,1,.55,1.37l0,.14c0,.16.09.32.14.48a4.67,4.67,0,0,1,.13.65c.06.38.11.76.14,1.14,0,.56,0,1.06,0,1.52a8.77,8.77,0,0,1-.17,1.34c0,.19-.08.37-.13.56s-.09.34-.14.52l-.06.17a8.15,8.15,0,0,1-.61,1.5l-.13.27c-.21.42-.41.83-.64,1.25a11.3,11.3,0,0,1-.63,1l-.2.29L66,123l-.34.43-.27.35-.47.58-.56.72c-.28.4-.53.8-.79,1.21l-.1.16-.25.39c-.21.34-.43.68-.62,1l-.23.38-.19.33c-.15.25-.28.5-.42.75s-.15.3-.22.45l-.15.33c-.13.24-.24.49-.36.74s-.33.73-.48,1.1-.28.69-.41,1a2.94,2.94,0,0,0-.12.54,2.46,2.46,0,0,0,0,.26.7.7,0,0,1-.09.37.76.76,0,0,1-.64.34.57.57,0,0,1-.26,0l-.71.45-.44.26c-.38.23-.74.47-1.11.71l-.65.42-.68.44-.13.08c-.51.34-1,.67-1.48,1l-.14.1-.06.05h0l-.18.17-.31.27-.5.38c-.33.24-.66.49-1,.75l-.07,0h0a4.53,4.53,0,0,1-.39.34l-.32.27c-.23.19-.45.39-.67.59s-.46.42-.71.62l-.14.13-.3.25.09-.08-.33.29-.5.43-.23.18-.46.38-.1.08-.09.08-.37.3-.14.11c-.37.32-.76.67-1.19,1.08l-.61.59-.61.58-.24.22a5.92,5.92,0,0,0-.56.56.71.71,0,0,1-.43.27.59.59,0,0,1-.48-.08.5.5,0,0,1-.14-.15.31.31,0,0,1-.06-.13l0,0a1,1,0,0,1-.07-.15l-.05-.1a1.19,1.19,0,0,1-.08-.2,3.57,3.57,0,0,0-.19-.39,1.37,1.37,0,0,0-.13-.2L42,145.3a3.57,3.57,0,0,1-.29-.67l-.09-.26a2.53,2.53,0,0,1-.19-.55l-.1-.39-.06-.25,0-.18-.06-.26,0-.16c0-.14-.08-.29-.11-.44a5.67,5.67,0,0,0-.15-.69c-.06-.21-.12-.42-.16-.64l0-.26c0-.15,0-.3-.07-.45l-.06-.33c0-.14,0-.27-.07-.41a12.44,12.44,0,0,1,0-3c0-.22,0-.44,0-.66l.06-.77c0-.41.09-.81.14-1.22l0-.19a7.25,7.25,0,0,1,.16-.81c0-.21.1-.41.14-.61a4.5,4.5,0,0,1,.15-.69c.07-.22.15-.42.23-.63l.08-.2c.06-.14.11-.29.17-.43l.11-.29c.07-.19.16-.38.24-.57l.08-.17c.07-.16.13-.32.19-.47l.12-.3.1-.26.21-.51c.1-.25.22-.49.34-.74s.14-.27.2-.41.2-.42.31-.63a5.09,5.09,0,0,1,.3-.5l.11-.22.1-.22c.17-.35.36-.71.55-1.06l.2-.37c.27-.51.52-1,.81-1.42l.06-.11.36-.56.52-.72-.07.12c.3-.44.66-.91,1.15-1.51l.67-.81.42-.52c.35-.43.71-.84,1.09-1.26s.76-.83,1.22-1.29.7-.67,1.07-1l.22-.2.91-.86.37-.34c.16-.15.32-.3.49-.44l.19-.17c.22-.19.44-.37.68-.55l.6-.46.08-.06.56-.42.14-.1.54-.39c.26-.19.52-.38.77-.58l.74-.56.73-.56.27-.21,1.2-.9.16-.11.59-.41.51-.33.34-.21.48-.33.22-.2a.48.48,0,0,1,.52-.1l0,0h0a2.42,2.42,0,0,1,.56.13l.32.15a5.68,5.68,0,0,1,.59.36l0,0,.07,0,.17.12.11.08.14.08.36.21"/><path class="cls-2" d="M71.5,152.85a.12.12,0,0,1,0,.11l-.09.09h0c-.23.22-.44.45-.65.68s-.47.51-.72.75h0l-.39.38,0,0-.37.33-.35.29-.35.27-.15.12a.62.62,0,0,1-.17.11.42.42,0,0,1-.27,0,.17.17,0,0,1-.12-.17c0-.09.1-.18.18-.26l.19-.17c-.09-.07-.08-.21,0-.3l.64-.49.7-.58.61-.54.31-.28.1-.09a.56.56,0,0,1,.17-.09.35.35,0,0,1,.18,0l.17-.16a.25.25,0,0,1,.22,0l0,0a.1.1,0,0,1,0,0M71,153a0,0,0,0,0,0,0ZM70,154.46l0,0,0,0"/><path class="cls-2" d="M71.6,152.71c-.08.12-.14.25-.22.37l-.21.33a7.78,7.78,0,0,1-.75.9,11.59,11.59,0,0,1-1,.9l-.41.34c-.13.1-.25.19-.39.28a.23.23,0,0,1-.12.06.34.34,0,0,1-.2,0,.19.19,0,0,1-.12-.11.17.17,0,0,1,0-.15c.17-.17.37-.33.55-.5l.67-.62h0l.2-.19h0l0,0h0a10.28,10.28,0,0,0,.8-.82c.1-.12.19-.24.28-.37l.2-.28,0,.05.12-.22a.4.4,0,0,1,.13-.13.39.39,0,0,1,.21,0,.21.21,0,0,1,.11,0,.14.14,0,0,1,.06.18m-1.9,1.61h0l0,0,0,0"/><path class="cls-2" d="M65,131.23c0,.1-.1.2-.24.23l-.5.1c-.31.1-.62.22-.93.35s-.58.25-.87.38l-.51.28a5.28,5.28,0,0,0-.56.35l-.62.39a1.65,1.65,0,0,1-.32.18.51.51,0,0,1-.34.06.21.21,0,0,1-.13-.07.14.14,0,0,1-.05-.1v-.06h0v0h0a.21.21,0,0,1,.08-.11l.11-.09.25-.16,0,0c0-.1,0-.23.15-.32l.61-.39c.23-.14.49-.26.74-.38l.68-.28c.25-.1.51-.18.77-.26a6.17,6.17,0,0,1,.82-.21l.24,0a.72.72,0,0,1,.21,0,.19.19,0,0,1,.11.05.27.27,0,0,1,.18,0,.13.13,0,0,1,.06.1m-2.51,1.05h0m0,0h0"/><path class="cls-2" d="M65,131.18a.3.3,0,0,1-.15.17.41.41,0,0,1-.25.07h-.13a3.94,3.94,0,0,0-.47.1q-.36.1-.72.24c-.25.09-.48.2-.72.31a10.89,10.89,0,0,0-1.16.66.48.48,0,0,1-.43,0,.24.24,0,0,1-.13-.17.26.26,0,0,1,.09-.19,5.19,5.19,0,0,1,.77-.52,6.78,6.78,0,0,1,.86-.41c.31-.12.62-.24.94-.33L64,131l.37-.07.36,0a.35.35,0,0,1,.18.05.2.2,0,0,1,.09.21m-.93.32,0,0,0,0"/><path class="cls-3" d="M80.51,92.33l0,0,0,0"/><polyline class="cls-3" points="80.46 92.39 80.45 92.39 80.46 92.38 80.46 92.39"/><polyline class="cls-3" points="81.39 93.87 81.39 93.87 81.39 93.87"/><path class="cls-3" d="M81.38,93.88h0"/><path class="cls-16" d="M64.27,106l0,0a3.44,3.44,0,0,1,.47.4l.35.4.13.16.25.33a4.06,4.06,0,0,1,.38.69c.1.24.21.47.29.72a4.84,4.84,0,0,1,.18.89c0,.22,0,.45,0,.67a5,5,0,0,1,0,.67l0,.39,0,.27a10.11,10.11,0,0,1-.18,1.35h0a12.22,12.22,0,0,1-.3,1.4c-.12.45-.27.89-.39,1.22a18.17,18.17,0,0,1-1.2,2.48l0,0-.06.11,0,0,0,.07c-.3.53-.59,1-.88,1.45-.16.25-.33.48-.51.72l-.2.25a4.59,4.59,0,0,1-.33.44l-.19.24a14.47,14.47,0,0,1-1,1.22l-.53.54-.24.24c-.23.22-.46.45-.7.66l-.47.44c-.31.3-.62.6-1,.88l-.44.36-.33.27-.15.12c-.19.17-.38.33-.59.49l-.24.17-.1.07c-.17.12-.34.23-.53.34a8.38,8.38,0,0,1-1,.47,2.83,2.83,0,0,1-1,.21,1.92,1.92,0,0,1-1-.15l-.13-.08a.76.76,0,0,1-.32-.47,2,2,0,0,1,0-.47c0-.13,0-.25,0-.38l-.09.13c-.09.13-.19.25-.29.37s-.22.28-.33.42l-.26.32c-.19.26-.39.51-.57.77l-.18.26-.37.53-.18.25-.25.35c-.15.22-.27.39-.4.56l-.81,1.12c-.25.36-.5.72-.72,1.09s-.43.73-.63,1.1l-.11.19a19.59,19.59,0,0,0-1.4,2.95c-.17.48-.37,1-.51,1.54-.07.23-.13.46-.2.7s-.15.55-.23.82c-.13.48-.25,1-.34,1.44v.05h0a15.12,15.12,0,0,0-.14,2.2,10.6,10.6,0,0,0,.1,1.4c0,.25,0,.49.07.74a.17.17,0,0,1-.07.15.41.41,0,0,1-.24.11c-.27.28-.47.55-.72.8a.56.56,0,0,1-.3.14.45.45,0,0,1-.31,0h0a.88.88,0,0,1-.19-.2,4.25,4.25,0,0,1-.32-.54,8.59,8.59,0,0,1-.59-1.32c-.08-.22-.14-.39-.19-.57l-.06-.22-.13-.44c-.08-.29-.15-.59-.21-.93v.06c0-.24-.08-.46-.11-.68a5.35,5.35,0,0,0-.07-.56l-.06-.29h0a10.81,10.81,0,0,1-.19-1.38c0-.47,0-1,0-1.43s0-1,0-1.55,0-1,.05-1.44v-.12l0-.27c0-.2,0-.4.05-.6s.09-.59.14-.89l0-.09.15-.76c0-.24.09-.48.14-.72.1-.52.19-1,.33-1.56s.28-1,.45-1.47c.11-.28.22-.57.34-.86l.24-.58c.14-.38.3-.74.47-1.11s.37-.73.57-1.09l0-.07h0c.09-.15.16-.3.24-.45.19-.35.38-.71.61-1.06l.24-.38c.24-.37.48-.74.75-1.11l.28-.38.21-.31.27-.35c.09-.12.18-.23.26-.35l.3-.42L47,120c.16-.22.33-.44.51-.65l.45-.56.66-.83c.18-.21.38-.42.57-.62l.3-.33.3-.33c.41-.45.91-1,1.44-1.47.3-.28.61-.56.93-.83l.55-.49.71-.6.18-.14.52-.43.13-.1c.18-.14.36-.28.52-.42s.36-.29.54-.44l.2-.15.21-.17c.4-.32.82-.65,1.25-1l.35-.24.35-.25.9-.62,0,0,.71-.52.65-.48,1.31-.92c.26-.19.51-.39.76-.59l.26-.21.4-.33a.44.44,0,0,1,.07-.42.92.92,0,0,1,.94-.29l.42.16.21.13"/><path class="cls-5" d="M76.05,29.49c4.23,2.06-3.76-4.12,10.34,5.84s16.44,21.29,18.32,28.16,9.87,37.78,8.93,39.16-12.22,12-18.8,13.39-7-8.93-18.79-3.78-27.25,1.38-23,0,7-36.75,4.23-31.6-21.62,7.9-28.2,6.19-8-4.47-17.38-5.5S6,71.39,7,64.87s18.33-9.28,24.9-18.21S57.26,29.49,57.26,29.49"/><path class="cls-17" d="M64.05,36.88,31.71,57.78s15.85,6.69,22.81,2.29S70.32,41.27,64.05,36.88Z"/><ellipse class="cls-18" cx="47.31" cy="53.97" rx="4.39" ry="3.21"/><ellipse class="cls-17" cx="45.94" cy="52.97" rx="3.02" ry="2.21"/><path class="cls-19" d="M15.91,82.4s13.57,6.71,16.37,5,24.62-10.73,26.86-15-11.19,4.72-28,6-16.78,3-16.78,3"/><path class="cls-17" d="M23.9,79.45l8,7.43,5.28-2.45S24.64,80,23.9,79.45Z"/><path class="cls-17" d="M34.09,78.1l4,6,3.55-1.54S34.47,78.59,34.09,78.1Z"/><path class="cls-17" d="M48.21,75.45,51.6,78l1.81-1.08S48.52,75.65,48.21,75.45Z"/><path class="cls-17" d="M38,77.65l4.47,4.8,2.67-1.7S38.39,78,38,77.65Z"/><path class="cls-17" d="M42.88,76.11l2.8,4.78,2.56-1.27S43.15,76.5,42.88,76.11Z"/><path class="cls-17" d="M45.28,76.32l3.26,3.35,2-1.19S45.58,76.59,45.28,76.32Z"/><path class="cls-20" d="M62.56,24.6a1.62,1.62,0,0,1,1.23.63,4.25,4.25,0,0,1,.62,1.12c.32.79.56,1.59.8,2.38l1.41,4.8c.87,3.22,1.73,6.44,2.53,9.67l-.18,0a23.59,23.59,0,0,1-2.45-4.54c-.36-.77-.61-1.56-.91-2.35s-.5-1.59-.75-2.38-.42-1.61-.6-2.42-.35-1.63-.44-2.46l-.32-2.43a6.23,6.23,0,0,0-.22-1.11,1.17,1.17,0,0,0-.75-.79Z"/><path class="cls-10" d="M54.84,7.19c10.33-1,14.81-2.84,17.33-2.72C55.52,20.73,48,11.59,38.2,9.88h0C40.83,8,45.93,8.07,54.84,7.19Z"/><path class="cls-21" d="M38.17,9.88c3.38.38,6.36,1.6,9.37,2.48a19.45,19.45,0,0,0,9.36.84,24,24,0,0,0,8.43-3.63c1.26-.81,2.45-1.67,3.6-2.57s2.29-1.81,3.43-2.73a35.59,35.59,0,0,1-6.21,5.86,22,22,0,0,1-8.92,4.1,17.2,17.2,0,0,1-5.4.12A23.75,23.75,0,0,1,47,13.1c-1.49-.54-2.91-1.14-4.35-1.7A32.46,32.46,0,0,0,38.17,9.88Z"/><path class="cls-20" d="M36.55,29.09c-.4-3.23-.8-6.46-1-9.72a28.73,28.73,0,0,1,.14-4.9,6.37,6.37,0,0,1,2.4-4.65l.16.11a4.59,4.59,0,0,0-.75,2.29,15.92,15.92,0,0,0,0,2.29l.36,4.73.06,2.41c-.05.81,0,1.62-.11,2.44a18.06,18.06,0,0,1-1,5Z"/><path class="cls-22" d="M1.69,24.68a3.63,3.63,0,0,0,.68,2.79,12.26,12.26,0,0,0,2,2.41A28.11,28.11,0,0,0,10,33.76a59.79,59.79,0,0,0,13.55,5.3,88.52,88.52,0,0,0,15,2.54,106.5,106.5,0,0,0,15.58.18A131.47,131.47,0,0,0,69.77,40,109.65,109.65,0,0,0,84.86,36.3a78.51,78.51,0,0,0,13.87-6,45.34,45.34,0,0,0,11.46-8.6l.28.09a39.69,39.69,0,0,1-10.72,9.43,70.48,70.48,0,0,1-13.92,6.7A115.61,115.61,0,0,1,54.24,44.1a93.28,93.28,0,0,1-31.69-3.33A55.26,55.26,0,0,1,8.89,34.72a27,27,0,0,1-5.36-4.39,11.42,11.42,0,0,1-1.84-2.66,3.82,3.82,0,0,1-.3-3Z"/><path class="cls-14" d="M111.14,11.63a5.64,5.64,0,0,1,2,2.58,8.58,8.58,0,0,1,.65,3,9,9,0,0,1-2.39,6,23.1,23.1,0,0,1-6.07,4.73,50.06,50.06,0,0,1-7.61,3.43,82.89,82.89,0,0,1-17,4,96.76,96.76,0,0,1-17.68.77,77,77,0,0,1-16.9-3c-5.31-1.51-10.41-3.27-15.38-5.13a140.42,140.42,0,0,0-15.23-5,20.77,20.77,0,0,0-8.16-.64,7.76,7.76,0,0,0-3.51,1.55,8,8,0,0,0-2.08,2.63l-.15,0a7.9,7.9,0,0,1,2-2.73A7.93,7.93,0,0,1,7.33,22a21.68,21.68,0,0,1,8.55.41,137.86,137.86,0,0,1,15.55,4.77c5,1.75,10.11,3.52,15.38,5A75.28,75.28,0,0,0,63.33,35a94.34,94.34,0,0,0,17.28-.66,86.16,86.16,0,0,0,16.66-3.74c5.23-1.81,10.3-4.25,13.49-7.7a8.88,8.88,0,0,0,2.59-5.67,8.18,8.18,0,0,0-.47-2.93A5.31,5.31,0,0,0,111,11.71Z"/><path class="cls-10" d="M114.5,17c-.09,3-1.77,5.59-4.6,7.84a0,0,0,0,1,0,0s0,0,0,0c-9.68,7.67-32.51,11-51.18,8.51,14.15,0,21.23-5,21.23-5s-.15-1.21-.54-3.69c-.06-.54-.15-1.13-.27-1.79h0C88.62,15.55,115,2.72,114.5,17Z"/><path class="cls-23" d="M81.94,23.29a53,53,0,0,1,6.09-5,70.35,70.35,0,0,1,7-4.41,42.47,42.47,0,0,1,8.09-3.38,17.83,17.83,0,0,1,4.58-.74,7,7,0,0,1,4.2,1.16l-.23.15a7.86,7.86,0,0,0-4-.18A20.35,20.35,0,0,0,104,12c-1.19.53-2.41,1-3.57,1.65S98,14.88,96.85,15.54s-2.36,1.27-3.54,1.93-2.34,1.33-3.58,2c-2.4,1.33-4.83,2.64-7.54,4Z"/><path class="cls-23" d="M38.75,9.13a10,10,0,0,1,3.93-1.46c1.43-.27,2.88-.43,4.33-.57,2.89-.28,5.77-.51,8.64-.82s5.74-.65,8.57-1.15c1.41-.25,2.81-.54,4.22-.83a21.83,21.83,0,0,1,4.33-.61l0,.21c-1.38.39-2.57,1-3.9,1.48s-2.69,1-4.11,1.37-2.88.7-4.34,1-3,.45-4.43.64-3,.23-4.42.3-2.91.11-4.34.07-2.82,0-4.17,0A13.43,13.43,0,0,0,39,9.28Z"/><path class="cls-4" d="M37,25.92l-.28,11.66s48.15-1.1,48.77-7A19.31,19.31,0,0,0,83,19.71Z"/><path class="cls-11" d="M64.31,46.29c-.53.1-1.08.17-1.63.26-1.75.25-3.47.45-5.15.61a85.48,85.48,0,0,1-27-1.6C9.82,40.84-1.35,28.91.13,23.52,3.69,10.61,19.27,19.13,37,26.73c2.46,1.06,5,2.09,7.48,3a79.29,79.29,0,0,0,15.38,4.4,55.35,55.35,0,0,0,6.52.68c18.8,1,40.16-6,47.63-16.89-.42.85-5.1,9.85-18.55,17.75-1.61,1-3.35,1.88-5.21,2.79A92.52,92.52,0,0,1,64.31,46.29Z"/><path class="cls-24" d="M84,21.45c.22.65.42,1.23.57,1.77,0,0-14.48,7.79-40.22,6.14-2.45-.77-4.88-1.61-7.26-2.47-1.44-13.33-1.69-18.66,1.55-21h0C49,7.75,56.87,17.78,74.33,0c2.41.12,3.09,2.06,5.18,8.13,2,5.8,3.49,10.23,4.51,13.31Z"/><path class="cls-25" d="M88.32,19.56l.15,0h.39l.17,0L91.09,25l7.16,1.75a.21.21,0,0,1,0,.07.74.74,0,0,0,0,.14.57.57,0,0,0,0,.13.66.66,0,0,0,0,.14.56.56,0,0,0,0,.12.92.92,0,0,0,.38.43h0l-5.3,3.95,1.5,5.34-.17,0h0a1.4,1.4,0,0,0-.4.16l0,0-.1.07a.86.86,0,0,0-.27.36.5.5,0,0,0,0,.13s0,0,0,0l-7.33-1.38L80.69,40.2a1.32,1.32,0,0,0-.42-.24l-.18-.05a2.07,2.07,0,0,0-.35,0h-.17l-.17,0-2.05-5.4-7.14-1.74a.47.47,0,0,0,.05-.1.37.37,0,0,0,0-.14.66.66,0,0,0,0-.28.56.56,0,0,0,0-.12h0a.41.41,0,0,0-.07-.11.83.83,0,0,0-.08-.12,0,0,0,0,1,0,0l-.1-.09h0l-.13-.1,5.26-3.91-1.52-5.41.19,0a1.36,1.36,0,0,0,.48-.17l.14-.1.11-.11a.27.27,0,0,0,.09-.12.33.33,0,0,0,.07-.13.26.26,0,0,0,0-.08L82,23l5.74-3.72.12.09h0l.12.07A1.5,1.5,0,0,0,88.32,19.56ZM80.4,39.17l5.7-3.69,7.39,1.39L92,31.41l5.34-4-7.23-1.76-2-5.37L82.32,24l-7.38-1.39,1.53,5.46-5.34,4,7.23,1.77Z"/><path class="cls-25" d="M70,31.79l.1.09a0,0,0,0,0,0,0,.83.83,0,0,1,.08.12.41.41,0,0,1,.07.11h0a.56.56,0,0,1,0,.12.66.66,0,0,1,0,.28.37.37,0,0,1,0,.14.47.47,0,0,1-.05.1,1.45,1.45,0,0,1-1.53.53c-.67-.15-1.06-.67-.86-1.16a1.39,1.39,0,0,1,1.58-.63,1.54,1.54,0,0,1,.47.18l.13.1Z"/><path class="cls-25" d="M80.69,40.2h0a.75.75,0,0,1,.27.88,1.4,1.4,0,0,1-1.59.62c-.67-.14-1.06-.66-.86-1.15a1.16,1.16,0,0,1,.89-.64l.17,0h.17a2.07,2.07,0,0,1,.35,0l.18.05A1.44,1.44,0,0,1,80.69,40.2Z"/><path class="cls-25" d="M95.39,37.08c.67.14,1.06.66.86,1.15a1.4,1.4,0,0,1-1.58.64c-.62-.14-1-.59-.9-1a.5.5,0,0,1,0-.13.86.86,0,0,1,.27-.36l.1-.07,0,0a1.76,1.76,0,0,1,.4-.16h0l.17,0h0A1.69,1.69,0,0,1,95.39,37.08Z"/><path class="cls-25" d="M100.66,27.32a1.39,1.39,0,0,1-1.58.63,1.6,1.6,0,0,1-.48-.19h0a.92.92,0,0,1-.38-.43.56.56,0,0,0,0-.12.71.71,0,0,1,0-.14.57.57,0,0,1,0-.13.74.74,0,0,1,0-.14.21.21,0,0,0,0-.07,1.43,1.43,0,0,1,1.55-.56C100.48,26.31,100.86,26.82,100.66,27.32Z"/><path class="cls-25" d="M89,17.78c.68.14,1.07.66.87,1.16a1.18,1.18,0,0,1-.88.63l-.17,0h-.39l-.15,0a1.5,1.5,0,0,1-.32-.1l-.12-.07h0l-.12-.09a.74.74,0,0,1-.28-.88A1.38,1.38,0,0,1,89,17.78Z"/><path class="cls-25" d="M74.72,21.63a.26.26,0,0,1,0,.08.33.33,0,0,1-.07.13.27.27,0,0,1-.09.12l-.11.11-.14.1a1.36,1.36,0,0,1-.48.17.63.63,0,0,1-.19,0,1.42,1.42,0,0,1-.5,0c-.67-.15-1.06-.66-.86-1.16a1.4,1.4,0,0,1,1.59-.63c.63.14,1,.61.88,1.08Z"/><path class="cls-25" d="M90,25.7a4.81,4.81,0,0,1,1.88,5.7c-.84,2.09-3.13,3.57-5.82,4a10.57,10.57,0,0,1-4.15-.08,8.86,8.86,0,0,1-3.54-1.58,4.81,4.81,0,0,1-1.88-5.7c.84-2.08,3.12-3.56,5.82-4a10.57,10.57,0,0,1,4.15.08A8.86,8.86,0,0,1,90,25.7Z"/><path class="cls-26" d="M91.52,27.32A6.29,6.29,0,0,0,90,25.7a7.21,7.21,0,0,0-.84-.56,73.3,73.3,0,0,0-13,5.22,5.09,5.09,0,0,0,1.58,2.91A111.47,111.47,0,0,1,91.52,27.32Z"/><path class="cls-26" d="M92.06,28.56a115.46,115.46,0,0,0-12.38,6c.27.13.55.25.85.36a73.83,73.83,0,0,1,11.67-5.7A3.91,3.91,0,0,0,92.06,28.56Z"/><path class="cls-4" d="M76.52,28.08a4.81,4.81,0,0,0,1.88,5.7l0,0L71.13,32l5.34-4Z"/><path class="cls-4" d="M86.09,35.44v0l-5.7,3.69-2-5.36,0,0a8.86,8.86,0,0,0,3.54,1.58A10.57,10.57,0,0,0,86.09,35.44Z"/><path class="cls-4" d="M92,31.41l1.53,5.46L86.1,35.48v0c2.69-.47,5-1.95,5.82-4Z"/><path class="cls-4" d="M97.3,27.44l-5.34,4h0A4.81,4.81,0,0,0,90,25.7l0,0Z"/><path class="cls-4" d="M88,20.31l2,5.37,0,0a8.86,8.86,0,0,0-3.54-1.58A10.57,10.57,0,0,0,82.34,24l0,0Z"/><path class="cls-4" d="M74.94,22.61,82.32,24l0,0c-2.7.48-5,2-5.82,4h0Z"/><path class="cls-27" d="M78.33,33.82,74.7,33l-3.63-.84-.25-.06L71,32c1.75-1.35,3.53-2.68,5.3-4l-.06.15c-.53-1.81-1-3.64-1.52-5.46l-.08-.26.36.07,7.35,1.46-.12,0,2.88-1.83c1-.61,1.91-1.22,2.85-1.84l.11-.07,0,.1c.68,1.79,1.38,3.57,2.1,5.36l-.1-.08,7.25,1.71.36.08-.26.2-5.31,4,.07-.19c.53,1.82,1,3.64,1.53,5.46l.09.33-.43-.09q-3.69-.69-7.37-1.42l.22,0L80.5,39.26l-.2.12-.06-.18c-.32-.89-.66-1.79-1-2.69Zm0,0,1.1,2.68c.36.89.71,1.78,1.06,2.67l-.25,0,5.65-3.74.09-.06.13,0c2.47.44,4.93.9,7.39,1.36l-.35.24q-.78-2.71-1.52-5.46l0-.1.1-.08,5.38-3.95.09.28L90,25.78l-.07,0,0-.05c-.65-1.8-1.31-3.59-2-5.39l.14,0c-1,.61-1.9,1.23-2.85,1.85L82.4,24.07l-.05,0h-.06l-7.41-1.32.28-.19c.52,1.81,1,3.63,1.53,5.45l0,.09-.08.07c-1.79,1.31-3.58,2.64-5.39,3.94l-.06-.2,3.59.92Z"/><path class="cls-27" d="M81.85,35.56c-4.38-1-6.89-4.33-5.6-7.54s5.92-5,10.31-4.09,6.9,4.32,5.6,7.53S86.24,36.5,81.85,35.56ZM86.4,24.31c-4.09-.89-8.41.83-9.62,3.83s1.13,6.15,5.23,7,8.42-.83,9.63-3.82S90.5,25.2,86.4,24.31Z"/><path class="cls-4" d="M80.65,40.48l-.18-.15a1.2,1.2,0,0,0-1-.22l-.26,0-2.09-5.49-7.28-1.78.12-.2s0-.06,0-.08a.6.6,0,0,0-.31-.76l-.22-.14,5.36-4L73.28,22.2l.3,0a1,1,0,0,0,.85-.52l.08-.26,7.41,1.4L87.75,19l.18.15a1.27,1.27,0,0,0,1,.21l.26-.05,2.09,5.49,7.3,1.79-.12.23a.62.62,0,0,0,.3.77l.22.14-5.41,4,1.53,5.45-.28,0a1,1,0,0,0-.78.51.5.5,0,0,0,0,.13l0,.22L86.5,36.7Zm-.49-.76a1.77,1.77,0,0,1,.53.2l5.66-3.67,7.2,1.36a1.37,1.37,0,0,1,.92-.69L93,31.64l5.22-3.89a.92.92,0,0,1-.31-.9l-7.06-1.72-2-5.33a2,2,0,0,1-1.11-.24l-5.66,3.67L74.9,21.88a1.47,1.47,0,0,1-1,.64l1.49,5.32L70.24,31.7a.9.9,0,0,1,.31.94l7,1.71,2,5.33A2.16,2.16,0,0,1,80.16,39.72Z"/><polygon class="cls-4" points="91.16 29.77 78.49 27.04 78.64 26.65 91.31 29.39 91.16 29.77"/><polygon class="cls-4" points="90 32.64 77.33 29.91 77.48 29.52 90.15 32.26 90 32.64"/><path class="cls-28" d="M85.89,25.57a1,1,0,0,0-1.11.44c-.14.34.13.7.6.81a1,1,0,0,0,1.11-.44C86.63,26,86.36,25.67,85.89,25.57Z"/><path class="cls-28" d="M83.05,32.59a1,1,0,0,0-1.11.44c-.14.34.13.71.6.81a1,1,0,0,0,1.11-.44C83.79,33.05,83.52,32.69,83.05,32.59Z"/><path class="cls-29" d="M86,25.63a1,1,0,0,0-1.11.44c-.14.34.13.71.61.81a1,1,0,0,0,1.11-.44C86.74,26.09,86.47,25.73,86,25.63Z"/><path class="cls-29" d="M83.15,32.65a1,1,0,0,0-1.11.44c-.14.35.14.71.61.81a1,1,0,0,0,1.11-.44C83.9,33.11,83.63,32.75,83.15,32.65Z"/><path class="cls-4" d="M87.49,19a2,2,0,0,0,.82.31,2.15,2.15,0,0,0,.36,0,1,1,0,0,0,.31-.07,1.1,1.1,0,0,0,.53-.31.93.93,0,0,0,.26-.65h0a.72.72,0,0,1,.1.77,1.15,1.15,0,0,1-.72.57,1.78,1.78,0,0,1-1.07,0,1.18,1.18,0,0,1-.69-.59Z"/><path class="cls-30" d="M89.77,18.24a2.3,2.3,0,0,0-.8-.18h0s0,0,0,0h-.09l-.14,0a.89.89,0,0,0-.28.07,1.47,1.47,0,0,0-.5.25,1.22,1.22,0,0,0-.38.55h0a.71.71,0,0,1,0-.69,1.15,1.15,0,0,1,.67-.49,1.74,1.74,0,0,1,1,0,1.33,1.33,0,0,1,.71.45Z"/><path class="cls-4" d="M78.59,41.18a2,2,0,0,0,.84.24h0s0,0,0,0h.1l.15,0a1.32,1.32,0,0,0,.3-.08,1.11,1.11,0,0,0,.5-.32,1,1,0,0,0,.25-.63l.05,0a.76.76,0,0,1,.11.75,1.13,1.13,0,0,1-.66.58,1.73,1.73,0,0,1-1,0,1.16,1.16,0,0,1-.75-.51Z"/><path class="cls-30" d="M80.82,40.37a2.4,2.4,0,0,0-.83-.18l-.33,0a1.15,1.15,0,0,0-.28.08,1.36,1.36,0,0,0-.49.29,1.14,1.14,0,0,0-.3.6h0a.72.72,0,0,1-.05-.71,1.08,1.08,0,0,1,.64-.55,1.76,1.76,0,0,1,1,0,1.32,1.32,0,0,1,.75.46Z"/><path class="cls-4" d="M72.32,21.8a2,2,0,0,0,.87.26,1.34,1.34,0,0,0,.36,0,1.32,1.32,0,0,0,.3-.09,1,1,0,0,0,.48-.37.87.87,0,0,0,.14-.67l0,0a.75.75,0,0,1,.23.76,1,1,0,0,1-.62.65,1.81,1.81,0,0,1-1.08.07,1.24,1.24,0,0,1-.78-.54Z"/><path class="cls-30" d="M74.47,20.91a2.37,2.37,0,0,0-.83-.1,2.3,2.3,0,0,0-.56.14,1.2,1.2,0,0,0-.45.29,1.15,1.15,0,0,0-.31.57h0a.72.72,0,0,1,0-.68,1.09,1.09,0,0,1,.59-.54,1.83,1.83,0,0,1,.93-.1,1.44,1.44,0,0,1,.78.38Z"/><path class="cls-4" d="M67.93,32.83a2.13,2.13,0,0,0,.85.19,1.64,1.64,0,0,0,.62-.11,1.23,1.23,0,0,0,.48-.32,1,1,0,0,0,.25-.62l.05,0a.75.75,0,0,1,.12.73,1.12,1.12,0,0,1-.64.58,1.74,1.74,0,0,1-1,.06,1.29,1.29,0,0,1-.77-.47Z"/><path class="cls-30" d="M70.13,32a2.31,2.31,0,0,0-.84-.19,1.85,1.85,0,0,0-.62.12,1.28,1.28,0,0,0-.48.31,1.11,1.11,0,0,0-.26.62l-.05,0a.74.74,0,0,1-.1-.73,1.06,1.06,0,0,1,.63-.57,1.79,1.79,0,0,1,1-.07,1.29,1.29,0,0,1,.77.47Z"/><path class="cls-4" d="M98.27,27.38a1.91,1.91,0,0,0,.83.27s.08,0,.08,0h.12l.15,0a1,1,0,0,0,.31-.07,1.12,1.12,0,0,0,.51-.31,1,1,0,0,0,.26-.64l0,0a.75.75,0,0,1,.1.76,1.13,1.13,0,0,1-.69.58,1.79,1.79,0,0,1-1,0,1.22,1.22,0,0,1-.72-.55Z"/><path class="cls-30" d="M100.53,26.62a2.39,2.39,0,0,0-.82-.18h-.18l-.14,0a.82.82,0,0,0-.28.07,1.29,1.29,0,0,0-.5.27s-.06.06-.1.12a.38.38,0,0,0-.09.12,1,1,0,0,0-.15.33l0,0a.74.74,0,0,1,0-.71,1.25,1.25,0,0,1,.67-.52,1.78,1.78,0,0,1,1,0,1.3,1.3,0,0,1,.73.46Z"/><path class="cls-4" d="M93.9,38.38a2.11,2.11,0,0,0,.83.2s.17,0,.18,0l.15,0,.29-.07a1.4,1.4,0,0,0,.5-.29l.05-.05,0-.07A.73.73,0,0,0,96,38a1,1,0,0,0,.12-.34l.06,0a.74.74,0,0,1,0,.72,1.2,1.2,0,0,1-.67.54,1.85,1.85,0,0,1-1,0,1.21,1.21,0,0,1-.73-.48Z"/><path class="cls-30" d="M96.17,37.61a2,2,0,0,0-.84-.24h-.19l-.15,0-.3.07a1.24,1.24,0,0,0-.5.31.92.92,0,0,0-.28.62l0,0a.74.74,0,0,1-.08-.74,1.13,1.13,0,0,1,.68-.57,1.81,1.81,0,0,1,1,0,1.25,1.25,0,0,1,.72.52Z"/><ellipse class="cls-31" cx="73.11" cy="21.15" rx="0.46" ry="0.34"/><ellipse class="cls-31" cx="88.39" cy="18.27" rx="0.46" ry="0.34"/><ellipse class="cls-31" cx="99.06" cy="26.64" rx="0.46" ry="0.34"/><ellipse class="cls-31" cx="94.63" cy="37.6" rx="0.46" ry="0.34"/><ellipse class="cls-31" cx="79.37" cy="40.4" rx="0.46" ry="0.34"/><ellipse class="cls-31" cx="68.73" cy="32" rx="0.46" ry="0.34"/><g class="cls-12"><path class="cls-32" d="M79.47,27.88l.53-.12-.79.6.11-.39a1.39,1.39,0,0,0-.46-.22c-.31-.07-.46,0-.5.12s.12.32.58.54c.27.14.45.36.36.58-.15.38-.69.4-1,.34a1.22,1.22,0,0,1-.68-.38l-.53.12.75-.53a.51.51,0,0,0,.41.59.48.48,0,0,0,.53-.16c.15-.38-1.14-.56-.91-1.14.09-.22.41-.4,1-.28A1.22,1.22,0,0,1,79.47,27.88Z"/><path class="cls-32" d="M81.07,28l-.38.06-.3.61.87.21.23-.51-.26-.21,1,.17-.47.15-.44,1.26.28.24-1.21-.25.52-.12.26-.57-.88-.21-.24.5.17.24-.82-.18.36-.11L80.2,28l-.3-.24Z"/><path class="cls-32" d="M83.48,30.33,81.55,30l.55-.23.58-1.11-.44-.29,1.85.29-.2.59-.15-.48-.81-.08-.21.6.18,0,.49-.27-.29.79-.18-.39-.25,0-.19.51.74.22.5-.46Z"/><path class="cls-32" d="M85.27,30.84c-.2,0-.63-.59-.77-.78l-.11.31.29.22-1.09-.18.46-.16L84.61,29l-.38-.25c.9.15,1.22.22,1.31.24.29.07.72.28.59.6,0,.1-.3.54-1.5.29a2.21,2.21,0,0,0,.84.61.57.57,0,0,0,.52-.13C85.69,30.81,85.36,30.86,85.27,30.84ZM85,29.08l-.1,0-.25.67c.43.08.91.05,1-.17S85.67,29.23,85,29.08Z"/><path class="cls-32" d="M87.07,29.69l-.4,1.13.28.26-1.24-.19.52-.16.59-1.18-.27-.28,1,.27Z"/><path class="cls-32" d="M89.23,30.37l-.1-.48-.91-.06-.16.46.26.05.4-.23-.3.75-.16-.4-.24,0-.21.63.44.26-1.34-.17.47-.17L88,29.82l-.34-.4,1.86.35Z"/><path class="cls-32" d="M91.06,30.77l-.1-.48L90,30.22l-.15.46.26.06.4-.24-.3.75-.16-.39-.25,0-.2.63.44.26-1.34-.18.47-.16.57-1.17-.34-.4,1.86.35Z"/></g><g class="cls-33"><path class="cls-34" d="M79.59,27.92l.53-.13-.8.6.11-.38a1.4,1.4,0,0,0-.46-.23c-.31-.06-.45,0-.5.13s.12.32.58.54c.28.14.46.36.37.58-.16.38-.69.4-1,.33a1.25,1.25,0,0,1-.68-.37l-.53.12.75-.53a.51.51,0,0,0,.41.59c.25,0,.48,0,.53-.17.15-.37-1.14-.56-.9-1.13.08-.22.41-.4,1-.28A1.23,1.23,0,0,1,79.59,27.92Z"/><path class="cls-34" d="M81.19,28l-.39.06-.29.61.87.21.22-.51-.25-.21,1,.17-.47.15-.45,1.26.29.24-1.21-.25.51-.12.26-.58-.87-.2-.25.5.18.24-.83-.18.36-.11.42-1.3-.3-.25Z"/><path class="cls-34" d="M83.59,30.37,81.66,30l.55-.23.58-1.11-.43-.3,1.85.3-.2.59-.15-.48-.81-.08-.22.59.19,0,.49-.26-.3.79L83,29.45l-.26,0-.18.52.74.22.49-.46Z"/><path class="cls-34" d="M85.39,30.88c-.2,0-.64-.6-.78-.78l-.11.31.3.22-1.1-.18.46-.16.57-1.23-.38-.25c.89.15,1.21.22,1.3.24.29.06.73.28.59.6,0,.1-.29.53-1.49.29a2,2,0,0,0,.83.6.55.55,0,0,0,.53-.12C85.8,30.85,85.47,30.9,85.39,30.88Zm-.3-1.76-.11,0-.25.67c.43.08.92.05,1-.17S85.79,29.27,85.09,29.12Z"/><path class="cls-34" d="M87.19,29.73l-.41,1.13.28.25-1.23-.18.51-.16.59-1.18-.27-.28,1,.27Z"/><path class="cls-34" d="M89.34,30.41l-.1-.48-.91-.06-.15.46.25.05.41-.24-.31.76-.16-.4-.24,0-.2.63.43.26L87,31.18l.46-.16.57-1.16-.34-.4,1.87.35Z"/><path class="cls-34" d="M91.17,30.81l-.1-.49-.91-.06-.15.46.25.06.41-.24-.31.75-.16-.39-.24,0-.21.63.44.26-1.33-.18.46-.16.57-1.17-.34-.4,1.87.35Z"/></g><path class="cls-10" d="M145.61,156.68l1.06,3.21c-.4,1.14-.27,1.83.6,1.72-23.84,11.3-74.17,11-85.94-5.5v0c.75-15.87-9.25-36-9.25-36s2.11-2,5.78-5.32C61,162.2,86,171.79,145.61,156.68Z"/><path class="cls-11" d="M133.4,120.3l12.21,36.38C86,171.79,61,162.2,57.85,114.78v0c10.23-9.21,32.39-28.39,54.05-41.85-.47,11.24,4.46,22.61,9.69,31.38A105.69,105.69,0,0,0,133.4,120.3Z"/><g class="cls-12"><path class="cls-13" d="M61.61,156c2.93,4.08,8.63,7.31,15.5,9.39A91.92,91.92,0,0,0,100,168.87a129.53,129.53,0,0,0,24.47-1.21c8.05-1.18,16-3.15,22.52-6.19l.47.3c-5.05,4.24-13.35,7.24-21.9,9a106.53,106.53,0,0,1-13.27,1.92,127,127,0,0,1-13.51.28,107.62,107.62,0,0,1-13.13-1.43,63.21,63.21,0,0,1-11.82-3.31c-7.19-2.79-12.55-7.25-12.92-12.08Z"/></g><path class="cls-19" d="M64.33,48.36s-6.49,11-12.87,10.83-20.27-1.38-20.27-1.38,12,4.39,16,4.13,10.55-1.3,11.26-3.36S64.33,48.36,64.33,48.36Z"/><path class="cls-5" d="M23.59,127.23l0,0,0,0"/><path class="cls-35" d="M149.65,36.58,148,37.79l-2.35-3.31a.71.71,0,0,1,.14-1h0a1,1,0,0,1,1.23.18Z"/><polygon class="cls-35" points="100.34 69.09 104.28 73.52 156.9 35.64 152.95 31.21 100.34 69.09"/><polygon class="cls-36" points="101.94 70.89 102.89 71.95 155.15 34.37 154.2 33.31 101.94 70.89"/><path class="cls-35" d="M77.86,88.92l-9.44,6.79-1.64-1.85c-.6-.66-.65-1.5-.13-1.88l7.56-5.44a1.61,1.61,0,0,1,2,.52Z"/><path class="cls-37" d="M65.77,110l2.17,2.44c1.85,2.08,4.58,2.88,6.09,1.8l3.91-2.8c1.5-1.08,1.23-3.65-.62-5.73l-2.18-2.44ZM76.83,106c1.54,1.73,1.79,3.86.55,4.75l-3.91,2.81c-1.23.88-3.49.2-5-1.53l-1.61-1.82,2.62-1.88a8.4,8.4,0,0,0,6.08,2.5l.81-.59a7.7,7.7,0,0,1-5.56-2.87l4.44-3.18Z"/><path class="cls-38" d="M116.9,64l1,1.09c2.27,4.17,2.25,8.33-.41,10.25L68,110.85l-.87.63c-.16.67-.3,1.35-.43,2a45.41,45.41,0,0,0-.28,12.7c.33,2.91-.72,5.16-2.94,6L61,133.1a5.3,5.3,0,0,0-2.41,1.73L35.31,165.42c-.31.42-1.16.13-1.66-.54A143.47,143.47,0,0,0,13.2,143c-.63-.55-.85-1.34-.45-1.67L41.27,117.4l8.34-.22a4.52,4.52,0,0,0,4-2.14l1.62-7.33a11,11,0,0,1,1.26-3.21,9.28,9.28,0,0,1,2.62-2.89l7.68-5.52.14,0,10.72-7.7,1.23,1.38,1-.73.82.92Z"/><polygon class="cls-35" points="56.16 100.93 55.77 101.22 54.38 99.65 54.77 99.37 56.16 100.93"/><polygon class="cls-35" points="57.75 102.42 55.73 103.88 53.36 101.22 55.38 99.76 57.75 102.42"/><path class="cls-39" d="M54.7,100.47c.6.67.66,1.53.13,1.91a1.65,1.65,0,0,1-2-.53c-.61-.68-.67-1.54-.13-1.92A1.66,1.66,0,0,1,54.7,100.47Z"/><path class="cls-37" d="M54.35,100.72c.38.43.41,1,.08,1.21a1.06,1.06,0,0,1-1.3-.33c-.38-.43-.42-1-.08-1.22A1.06,1.06,0,0,1,54.35,100.72Z"/><polygon class="cls-37" points="75.14 91.66 58.21 103.83 55.59 100.89 72.52 88.72 75.14 91.66"/><path class="cls-39" d="M68.85,94.6,62.78,99l-.57-.63c-.49-.56-.54-1.26-.1-1.57L67.39,93Z"/><path class="cls-37" d="M80.4,90l29.87-21.48-3.08-2.32c-1.77-1.32-3.48-1.8-4.4-1.22l-30,18.93,3.9,4.38C78,89.8,79.66,90.56,80.4,90Z"/><path class="cls-35" d="M66.69,109.32l0,.08-.87.64c-.21.61-.39,1.24-.57,1.87l-9.58-8.28.65-1.94,1.79-1.29Z"/><path class="cls-37" d="M64.16,108.17c.3.33.32.75.06.94a.8.8,0,0,1-1-.26c-.3-.33-.32-.75-.06-.94A.82.82,0,0,1,64.16,108.17Z"/><polygon class="cls-39" points="58.58 104.28 56.37 105.88 54.87 104.2 57.08 102.6 58.58 104.28"/><polygon class="cls-37" points="157.5 35.72 152.25 39.49 148.82 35.65 154.07 31.88 157.5 35.72"/><path class="cls-37" d="M87.38,102.1,83,109c-.58.9-2.13.7-3.12-.41l-4.76-5.35,9.07-6.53,2.72,3A2,2,0,0,1,87.38,102.1Z"/><path class="cls-39" d="M81.55,107.12c.3.33.33.75.07.93a.82.82,0,0,1-1-.26c-.29-.33-.32-.75-.06-.93A.8.8,0,0,1,81.55,107.12Z"/><ellipse class="cls-39" cx="85.98" cy="100.81" rx="0.57" ry="0.81" transform="translate(-46.47 97.19) rotate(-47.97)"/><path class="cls-40" d="M118.46,68.13c.62,2.76.09,5.13-1.68,6.4l-49.5,35.55-.88.63c-.13.7-.25,1.41-.35,2.13a48.18,48.18,0,0,0,.28,13.32c.46,3.07-.51,5.39-2.77,6.16l-2.53.87a4.84,4.84,0,0,0-2.41,1.73L36,166.2c-.3.43-1.19.1-1.74-.62-2.41-3.2-5-6.35-7.76-9.44,6.52-6.78,27.74-27.2,27.74-27.2l6-3.06.37-9.32c.19-4.59,1.93-8.22,5-10.45Z"/><path class="cls-5" d="M67.62,108.37s8.59,5.09,6.39,6.32,1.21,5.7-.52,8.29-8,5.51-14.49,4.2S43.72,114,47.48,110.59s14.84-5,17.49-3.59Z"/><path class="cls-7" d="M50.66,116.45c.2-1.34,1-7.69,13.71-9.53-9.3,3-12.34,8-11.08,11.35-.29-2.1,1.64-6.08,10-8.5-9.49,4.14-9.94,7.42-8.14,11.83-.86-2.26.53-3.51,1.79-4.21-1.76,1.65-1.92,5.48,1.31,7.81,1.88,1.37.87,1.84-.87.61A17.08,17.08,0,0,1,50.66,116.45Z"/></g></g></g></svg>