<svg xmlns="http://www.w3.org/2000/svg" viewBox="0 0 324.8 85.96"><defs><style>.cls-1{fill:#a9d4ff;}.cls-2{fill:#03d8be;}.cls-3{fill:#ffcd40;}.cls-4{fill:#364451;}.cls-5{fill:#e02b2b;}.cls-6{fill:#021d30;}.cls-7{fill:#fff;}.cls-8{fill:#b3eaff;}.cls-9{fill:#ffeac0;}</style></defs><title>設施介紹-資產 3</title><g id="圖層_2" data-name="圖層 2"><g id="圖層_1-2" data-name="圖層 1"><rect class="cls-1" y="25.6" width="324.8" height="60.36" rx="29.88"/><path class="cls-2" d="M187.28,53.63h-4.73V39.28a1.14,1.14,0,0,1,1.14-1.14h0a1.13,1.13,0,0,1,1.12,1Z"/><path class="cls-2" d="M206.27,53.63h-4.72V39.28a1.13,1.13,0,0,1,1.13-1.14h0a1.13,1.13,0,0,1,1.12,1Z"/><path class="cls-3" d="M239.36,13.53H228.62a6.7,6.7,0,0,1-6.7-6.7V6.7a6.7,6.7,0,0,1,6.7-6.7h3.49a7.25,7.25,0,0,1,7.25,7.25Z"/><path class="cls-3" d="M229,7.5h-.13l-.33,0a9.57,9.57,0,0,0-1.46.41A5.61,5.61,0,0,0,225.31,9,3.79,3.79,0,0,0,224.14,11a2.73,2.73,0,0,0-.13.69,3.31,3.31,0,0,0-.07.8,2.36,2.36,0,0,0,.13,1.23,6.64,6.64,0,0,0,2.31,2.61c1.28,1,3,2,4.69,3.23a34.3,34.3,0,0,1,5.36,4.38,16.47,16.47,0,0,1,4.09,6.82,16.19,16.19,0,0,1,.6,4c0,.36,0,.58,0,.83v.74c0,.49,0,1,0,1.47,0,1.94-.05,3.81-.07,5.59s0,3.46-.11,5-.13,3-.18,4.24-.16,2.36-.21,3.27c-.12,1.81-.24,2.84-.24,2.84h-6.19s-.17-1-.34-2.84c-.07-.91-.23-2-.29-3.27s-.16-2.68-.26-4.24-.12-3.23-.2-5,0-3.65-.05-5.59c0-.94,0-1.9,0-2.87a8.1,8.1,0,0,0-.25-1.93,8.42,8.42,0,0,0-2.11-3.55A27.18,27.18,0,0,0,226.56,26c-1.59-1.15-3.28-2.33-5-3.8A18.34,18.34,0,0,1,219,19.57a11.08,11.08,0,0,1-1.94-3.65,9.6,9.6,0,0,1-.35-4A8.77,8.77,0,0,1,217,10.3a9.1,9.1,0,0,1,.47-1.62,10.75,10.75,0,0,1,3.7-4.93,12.13,12.13,0,0,1,4-1.94,16,16,0,0,1,2.65-.46c.32,0,.56,0,.78,0h.25Z"/><path class="cls-3" d="M237.9,48.74V32.6h-3.75L229,39.75a21.63,21.63,0,0,1-17.56,9H173.51l11.73,15.48h55.1V48.74Z"/><rect class="cls-2" x="182.15" y="62.27" width="60.15" height="8.15" rx="4.03"/><path class="cls-4" d="M240.86,7.35l-3.45,3.25c1,.54,9.48,1.75,9.29,2.91v0H235.44a5.66,5.66,0,0,1-5.65-5.36v-.1a3.31,3.31,0,0,1,3.76-3.45l6.54.53A1.28,1.28,0,0,1,240.86,7.35Z"/><path class="cls-5" d="M239.36,8l9.51,2.68a2.7,2.7,0,0,1,1.42,2.84v0H233.66V11.47A3.41,3.41,0,0,1,237,8.06Z"/><path class="cls-6" d="M232.68,6.68a2.12,2.12,0,1,1-2.12-2.12A2.12,2.12,0,0,1,232.68,6.68Z"/><path class="cls-7" d="M230.72,6a.82.82,0,0,1-.81.82.82.82,0,0,1-.82-.82.82.82,0,0,1,.82-.81A.81.81,0,0,1,230.72,6Z"/><path class="cls-1" d="M253.19,65.09V77.16h-81.8V65.09c5.11,0,5.11,4.83,10.23,4.83s5.11-4.83,10.21-4.83,5.11,4.83,10.23,4.83,5.11-4.83,10.21-4.83,5.12,4.83,10.23,4.83,5.12-4.83,10.23-4.83,5.12,4.83,10.23,4.83S248.07,65.09,253.19,65.09Z"/><path class="cls-8" d="M243,70.52a7.41,7.41,0,0,1-5.53-2.58c-1.23-1.15-2.38-2.25-4.7-2.25s-3.47,1.09-4.7,2.25a7.21,7.21,0,0,1-11.05,0c-1.23-1.15-2.39-2.25-4.71-2.25s-3.47,1.09-4.69,2.25a7.38,7.38,0,0,1-5.52,2.58c-2.8,0-4.25-1.37-5.54-2.58s-2.38-2.25-4.69-2.25-3.47,1.1-4.69,2.25a7.38,7.38,0,0,1-5.52,2.58c-2.8,0-4.25-1.37-5.54-2.58s-2.38-2.25-4.69-2.25V64.48a7.38,7.38,0,0,1,5.52,2.58c1.23,1.16,2.39,2.25,4.71,2.25s3.47-1.09,4.69-2.25a7.38,7.38,0,0,1,5.52-2.58c2.8,0,4.24,1.37,5.52,2.58s2.39,2.25,4.71,2.25,3.47-1.09,4.69-2.25a7.21,7.21,0,0,1,11.06,0c1.22,1.15,2.38,2.24,4.69,2.24s3.48-1.09,4.71-2.25a7.21,7.21,0,0,1,11,0c1.23,1.16,2.39,2.25,4.7,2.25s3.47-1.09,4.7-2.24,2.73-2.59,5.53-2.59v1.21c-2.32,0-3.48,1.1-4.7,2.25A7.39,7.39,0,0,1,243,70.52Z"/><path class="cls-8" d="M243,74.55A7.41,7.41,0,0,1,237.43,72c-1.23-1.16-2.38-2.25-4.7-2.25S229.26,70.81,228,72s-2.73,2.59-5.53,2.59A7.38,7.38,0,0,1,217,72c-1.23-1.16-2.39-2.25-4.71-2.25s-3.47,1.09-4.69,2.25a7.38,7.38,0,0,1-5.52,2.58c-2.8,0-4.25-1.38-5.54-2.59s-2.38-2.24-4.69-2.24-3.47,1.09-4.69,2.25a7.38,7.38,0,0,1-5.52,2.58c-2.8,0-4.25-1.38-5.54-2.59s-2.38-2.24-4.69-2.24V68.51a7.38,7.38,0,0,1,5.52,2.58c1.23,1.16,2.39,2.25,4.71,2.25s3.47-1.09,4.69-2.25a7.38,7.38,0,0,1,5.52-2.58c2.8,0,4.24,1.37,5.52,2.58s2.39,2.25,4.71,2.25,3.47-1.09,4.69-2.25a7.22,7.22,0,0,1,11.06,0c1.22,1.16,2.38,2.25,4.69,2.25s3.48-1.09,4.71-2.25a7.21,7.21,0,0,1,11,0c1.23,1.16,2.39,2.25,4.7,2.25s3.47-1.09,4.7-2.25a7.39,7.39,0,0,1,5.53-2.58v1.21c-2.32,0-3.48,1.09-4.7,2.25A7.39,7.39,0,0,1,243,74.55Z"/><polygon class="cls-9" points="220.79 55.53 182.56 55.53 178.94 51.91 220.79 51.91 220.79 55.53"/><path class="cls-3" d="M235,62h-.14V30.58H235a13.54,13.54,0,0,1,13.54,13.54v4.3A13.55,13.55,0,0,1,235,62Z"/><path class="cls-2" d="M59.67,47H55.86V35.43a.92.92,0,0,1,.92-.92h0a.92.92,0,0,1,.91.76Z"/><path class="cls-2" d="M75,47H71.18V35.43a.92.92,0,0,1,.92-.92h0a.92.92,0,0,1,.91.76Z"/><path class="cls-3" d="M101.69,14.65H93a5.4,5.4,0,0,1-5.4-5.4V9.14A5.4,5.4,0,0,1,93,3.74h2.82a5.85,5.85,0,0,1,5.85,5.85Z"/><path class="cls-3" d="M93.36,9.79h-.1l-.27,0a7.19,7.19,0,0,0-1.18.32,4.79,4.79,0,0,0-1.46.86,3.1,3.1,0,0,0-.94,1.56,2.32,2.32,0,0,0-.11.56,2.56,2.56,0,0,0,0,.64,1.89,1.89,0,0,0,.1,1,5.32,5.32,0,0,0,1.86,2.11c1,.82,2.38,1.64,3.79,2.61A27.37,27.37,0,0,1,99.32,23a12.53,12.53,0,0,1,3.79,8.7c0,.29,0,.47,0,.67v1.78c0,1.57,0,3.08,0,4.52s0,2.79-.09,4-.11,2.4-.15,3.42-.13,1.9-.17,2.63c-.09,1.46-.19,2.3-.19,2.3h-5s-.13-.84-.27-2.3c-.06-.73-.19-1.61-.23-2.63s-.14-2.17-.21-3.42-.1-2.61-.16-4,0-2.95,0-4.52c0-.75,0-1.53,0-2.31a6.51,6.51,0,0,0-.2-1.55,6.88,6.88,0,0,0-1.7-2.87,22.28,22.28,0,0,0-3.32-2.76c-1.28-.93-2.65-1.88-4-3.07a13.9,13.9,0,0,1-2-2.08,9,9,0,0,1-1.57-3,7.78,7.78,0,0,1-.28-3.19,7.75,7.75,0,0,1,.2-1.34A8.53,8.53,0,0,1,84,10.74a8.72,8.72,0,0,1,3-4A10.06,10.06,0,0,1,90.21,5.2a12.18,12.18,0,0,1,2.15-.37l.63,0h.2Z"/><path class="cls-3" d="M100.51,43.06V30h-3l-4.16,5.77a17.46,17.46,0,0,1-14.16,7.25H48.56L58,55.55h44.45V43.06Z"/><rect class="cls-2" x="55.53" y="53.97" width="48.52" height="6.58" rx="3.25"/><path class="cls-4" d="M102.9,9.66l-2.79,2.63c.84.43,7.66,1.42,7.5,2.35H98.52A4.56,4.56,0,0,1,94,10.33v-.08a2.67,2.67,0,0,1,3-2.78l5.28.42A1,1,0,0,1,102.9,9.66Z"/><path class="cls-5" d="M101.69,10.18l7.67,2.16a2.18,2.18,0,0,1,1.14,2.3H97.09V13a2.75,2.75,0,0,1,2.67-2.75Z"/><path class="cls-6" d="M96.3,9.13a1.71,1.71,0,1,1-1.71-1.71A1.72,1.72,0,0,1,96.3,9.13Z"/><path class="cls-7" d="M94.72,8.6A.66.66,0,1,1,94.06,8,.65.65,0,0,1,94.72,8.6Z"/><path class="cls-1" d="M112.85,56.25V66h-66V56.25c4.12,0,4.12,3.89,8.25,3.89s4.12-3.89,8.24-3.89,4.12,3.89,8.25,3.89,4.12-3.89,8.24-3.89,4.13,3.89,8.25,3.89,4.13-3.89,8.25-3.89,4.13,3.89,8.26,3.89S108.72,56.25,112.85,56.25Z"/><path class="cls-8" d="M104.6,60.63a6,6,0,0,1-4.47-2.08,4.86,4.86,0,0,0-7.58,0,5.82,5.82,0,0,1-8.92,0,4.86,4.86,0,0,0-7.58,0,5.82,5.82,0,0,1-8.92,0,4.85,4.85,0,0,0-7.57,0,5.82,5.82,0,0,1-8.92,0,5,5,0,0,0-3.78-1.82v-1a5.93,5.93,0,0,1,4.45,2.08,4.86,4.86,0,0,0,7.58,0,5.81,5.81,0,0,1,8.91,0,4.86,4.86,0,0,0,7.58,0,5.82,5.82,0,0,1,8.92,0,4.86,4.86,0,0,0,7.58,0,5.82,5.82,0,0,1,8.92,0,4.86,4.86,0,0,0,7.58,0,6,6,0,0,1,4.47-2.08v1a5,5,0,0,0-3.8,1.82A5.93,5.93,0,0,1,104.6,60.63Z"/><path class="cls-8" d="M104.6,63.88a6,6,0,0,1-4.47-2.08,4.86,4.86,0,0,0-7.58,0,5.81,5.81,0,0,1-8.92,0,4.86,4.86,0,0,0-7.58,0,5.81,5.81,0,0,1-8.92,0,4.85,4.85,0,0,0-7.57,0,5.81,5.81,0,0,1-8.92,0A5,5,0,0,0,46.86,60V59a5.93,5.93,0,0,1,4.45,2.08,4.87,4.87,0,0,0,7.58,0,5.81,5.81,0,0,1,8.91,0,4.87,4.87,0,0,0,7.58,0,5.82,5.82,0,0,1,8.92,0,4.87,4.87,0,0,0,7.58,0,5.82,5.82,0,0,1,8.92,0,4.87,4.87,0,0,0,7.58,0A6,6,0,0,1,112.85,59v1a5,5,0,0,0-3.8,1.82A6,6,0,0,1,104.6,63.88Z"/><polygon class="cls-9" points="86.71 48.54 55.87 48.54 52.94 45.61 86.71 45.61 86.71 48.54"/><path class="cls-3" d="M98.18,53.73h-.11V28.41h.11a10.92,10.92,0,0,1,10.93,10.92V42.8A10.93,10.93,0,0,1,98.18,53.73Z"/></g></g></svg>