<svg xmlns="http://www.w3.org/2000/svg" viewBox="0 0 22 25.34"><defs><style>.cls-1{isolation:isolate;}.cls-2,.cls-3{fill:#ffdd50;}.cls-3,.cls-7{mix-blend-mode:screen;}.cls-4{fill:#fca000;}.cls-5{fill:#cc7b06;}.cls-11,.cls-6{fill:#e3ad4d;}.cls-10,.cls-6{mix-blend-mode:multiply;}.cls-7{fill:#bf3d0d;}.cls-8{fill:#ffe98e;}.cls-9{fill:#fff;}</style></defs><title>設施-資產 1遊樂設施</title><g class="cls-1"><g id="圖層_2" data-name="圖層 2"><g id="圖層_1-2" data-name="圖層 1"><path class="cls-2" d="M11,1.92h.19l.1,0,.1,0,.12-.06,3,4.82,5.59.2v.07a.61.61,0,0,0,0,.14l0,.14a.61.61,0,0,0,.05.12l.06.12a1,1,0,0,0,.4.34h0l-2.63,5,2.6,4.88a.41.41,0,0,0-.11.07h0a1.09,1.09,0,0,0-.24.24s0,0,0,0a.36.36,0,0,0-.05.09.9.9,0,0,0-.09.4.66.66,0,0,0,0,.14v0l-5.6.2-3,4.81a.78.78,0,0,0-.37-.13H11a1.09,1.09,0,0,0-.26,0l-.1,0h0l-.11.06-3-4.81-5.57-.2a.41.41,0,0,0,0-.11.76.76,0,0,0,0-.15A.92.92,0,0,0,1.83,18a.61.61,0,0,0-.07-.1h0l-.08-.1-.09-.09h0l-.1-.07h0l-.12-.07L4,12.67,1.35,7.73l.12-.06a.86.86,0,0,0,.29-.28.75.75,0,0,0,.07-.12.5.5,0,0,0,0-.13.61.61,0,0,0,0-.13.76.76,0,0,0,0-.15V6.78l5.56-.19,3-4.82.11.06h0l.1,0A1.09,1.09,0,0,0,11,1.92Zm0,20.71,3-4.78,5.64-.2-2.65-5,2.65-5L14,7.49,11,2.7,8,7.49l-5.64.19,2.65,5-2.65,5,5.64.2Z"/><path class="cls-2" d="M1.48,17.64l.1.07h0l.09.09.08.1h0a.61.61,0,0,1,.07.1.92.92,0,0,1,.08.27.76.76,0,0,1,0,.15.41.41,0,0,1,0,.11A.94.94,0,0,1,0,18.44a1,1,0,0,1,.94-1,1,1,0,0,1,.38.08l.12.07Z"/><path class="cls-2" d="M11.49,23.57h0a.95.95,0,1,1-1.45.8.93.93,0,0,1,.45-.8l.11-.06h0l.1,0a1.09,1.09,0,0,1,.26,0h.14A.92.92,0,0,1,11.49,23.57Z"/><path class="cls-2" d="M21,17.45a.95.95,0,1,1-.93,1.08.66.66,0,0,1,0-.14.9.9,0,0,1,.09-.4l.05-.09s0,0,0,0a1.36,1.36,0,0,1,.24-.24h0a.41.41,0,0,1,.11-.07h0A1,1,0,0,1,21,17.45Z"/><path class="cls-2" d="M22,6.86a1,1,0,0,1-.95.95,1,1,0,0,1-.39-.09h0a1.1,1.1,0,0,1-.4-.34l-.06-.12a.61.61,0,0,1-.05-.12l0-.14a.61.61,0,0,1,0-.14V6.79A.95.95,0,0,1,22,6.86Z"/><path class="cls-2" d="M11,0a.94.94,0,0,1,.51,1.74l-.12.06-.1,0-.1,0H11a1.09,1.09,0,0,1-.26,0l-.1,0h0l-.11-.06A.93.93,0,0,1,10,1,.94.94,0,0,1,11,0Z"/><path class="cls-2" d="M1.91,6.78a.22.22,0,0,1,0,.08.76.76,0,0,1,0,.15.61.61,0,0,1,0,.13.5.5,0,0,1,0,.13.75.75,0,0,1-.07.12.86.86,0,0,1-.29.28l-.12.06A1,1,0,0,1,1,7.81.95.95,0,0,1,1,5.92a.94.94,0,0,1,.94.86Z"/><path class="cls-2" d="M14,7.52a5.94,5.94,0,0,1,0,10.29A5.94,5.94,0,1,1,8,7.53a5.77,5.77,0,0,1,3-.8A5.86,5.86,0,0,1,14,7.52Z"/><path class="cls-3" d="M15.48,8.78A5.78,5.78,0,0,0,14,7.52a6.67,6.67,0,0,0-.76-.37,47.67,47.67,0,0,0-7.7,7.79,6,6,0,0,0,2,2.5A74.8,74.8,0,0,1,15.48,8.78Z"/><path class="cls-3" d="M16.22,9.87a78.43,78.43,0,0,0-7.06,8.45c.23.07.47.13.71.18a50.54,50.54,0,0,1,6.65-8A6.09,6.09,0,0,0,16.22,9.87Z"/><path class="cls-4" d="M5.05,12.67a5.91,5.91,0,0,0,3,5.14l0,0-5.64-.2,2.65-5Z"/><path class="cls-4" d="M14,17.81l0,0-3,4.78L8,17.85l0,0a5.91,5.91,0,0,0,5.94,0Z"/><path class="cls-4" d="M17,12.67l2.65,5-5.64.2,0,0a5.91,5.91,0,0,0,3-5.14Z"/><path class="cls-4" d="M19.62,7.68l-2.65,5h0a5.94,5.94,0,0,0-3-5.15l0,0Z"/><path class="cls-4" d="M11,2.7l3,4.79,0,0a5.86,5.86,0,0,0-3-.79,5.77,5.77,0,0,0-3,.8l0,0Z"/><path class="cls-4" d="M2.36,7.68,8,7.49l0,0a5.91,5.91,0,0,0-3,5.14H5Z"/><path class="cls-5" d="M8,17.87l-2.81,0-2.82,0h-.2l.09-.18c.86-1.67,1.74-3.34,2.61-5v.16C4,11.1,3.08,9.43,2.21,7.77l-.13-.25h.27L8,7.4l-.07,0L9.43,5.06c.5-.8,1-1.59,1.5-2.39L11,2.58l.06.09q1.5,2.38,3,4.76l-.09,0,5.64.13h.27l-.12.25-2.62,5v-.19q1.34,2.49,2.65,5l.16.3h-.34c-1.88.06-3.76.13-5.64.16l.15-.08L11.08,22.7l-.1.15-.09-.15c-.49-.81-1-1.61-1.47-2.42Zm0,0L9.56,20.2c.51.78,1,1.58,1.52,2.37h-.19l2.93-4.82,0-.08H14c1.88-.09,3.76-.16,5.64-.23l-.18.31c-.89-1.66-1.78-3.32-2.65-5l-.05-.09.05-.1,2.68-5,.15.25L14,7.6h-.06l0,0q-1.47-2.41-3-4.81H11c-.5.79-1,1.59-1.49,2.39L8.07,7.54l0,0H8l-5.64.27.14-.24c.89,1.65,1.79,3.31,2.66,5l0,.08,0,.08c-.9,1.65-1.79,3.31-2.7,5l-.1-.18,2.82.14Z"/><path class="cls-5" d="M11,18.81a6.15,6.15,0,1,1,6.15-6.14A6.15,6.15,0,0,1,11,18.81ZM11,6.93a5.74,5.74,0,1,0,5.74,5.74A5.74,5.74,0,0,0,11,6.93Z"/><path class="cls-4" d="M11.55,23.85l-.18-.11a.73.73,0,0,0-.78,0l-.17.11-3.06-4.9-5.68-.19,0-.22a.78.78,0,0,1,0-.09.75.75,0,0,0-.45-.68l-.2-.09,2.67-5-2.68-5,.2-.08a.75.75,0,0,0,.46-.69l0-.27,5.66-.2L10.42,1.5l.17.1a.73.73,0,0,0,.78,0l.18-.11,3.06,4.9,5.7.2,0,.25a.75.75,0,0,0,.43.69l.2.09-2.69,5.05,2.65,5-.19.1a.72.72,0,0,0-.4.65.53.53,0,0,0,0,.13l0,.23-5.72.19ZM11,23.22a1.06,1.06,0,0,1,.43.08l3-4.76,5.5-.19a1.15,1.15,0,0,1,.45-.87l-2.56-4.81L20.36,7.8A1.16,1.16,0,0,1,19.89,7l-5.51-.19L11.41,2a1.14,1.14,0,0,1-.85,0l-3,4.75L2.12,7a1.14,1.14,0,0,1-.5.83L4.2,12.67,1.63,17.5a1.16,1.16,0,0,1,.49.86l5.47.18,3,4.76A1,1,0,0,1,11,23.22Z"/><path class="cls-6" d="M11,8.26a.66.66,0,1,0,.66.66A.67.67,0,0,0,11,8.26Z"/><path class="cls-6" d="M11,15.68a.66.66,0,1,0,.66.66A.66.66,0,0,0,11,15.68Z"/><path class="cls-7" d="M11.07,8.3a.66.66,0,1,0,.66.66A.66.66,0,0,0,11.07,8.3Z"/><path class="cls-7" d="M11.07,15.72a.66.66,0,1,0,.66.66A.66.66,0,0,0,11.07,15.72Z"/><path class="cls-4" d="M10.22,1.49a1.11,1.11,0,0,0,.67.13.82.82,0,0,0,.25-.07.57.57,0,0,0,.21-.13A.86.86,0,0,0,11.63,1a1.15,1.15,0,0,0,0-.69l0,0A1,1,0,0,1,12,1a1,1,0,0,1-.34.71,1,1,0,0,1-.77.21,1,1,0,0,1-.66-.42Z"/><path class="cls-8" d="M11.63.32a1.28,1.28,0,0,0-.62,0H11l-.07,0-.09,0a.57.57,0,0,0-.18.12,1.11,1.11,0,0,0-.28.35,1.32,1.32,0,0,0-.11.62l0,0A1,1,0,0,1,10,.84a.93.93,0,0,1,.33-.62A1,1,0,0,1,11,0a1,1,0,0,1,.63.29Z"/><path class="cls-4" d="M10.28,25a1.18,1.18,0,0,0,.66,0h0s0,0,0,0l.07,0,.1,0a.64.64,0,0,0,.19-.13.86.86,0,0,0,.26-.42,1.22,1.22,0,0,0,0-.66l0,0a.93.93,0,0,1,.29.7,1,1,0,0,1-.3.7,1,1,0,0,1-1.4-.09Z"/><path class="cls-8" d="M11.63,23.71a1.25,1.25,0,0,0-.64,0,.64.64,0,0,0-.22.1.46.46,0,0,0-.18.13.84.84,0,0,0-.26.39,1.28,1.28,0,0,0-.05.64l0,0a1,1,0,0,1-.24-.68,1,1,0,0,1,.3-.67,1,1,0,0,1,.69-.25.92.92,0,0,1,.66.29Z"/><path class="cls-4" d="M.26,7.45A1.07,1.07,0,0,0,1,7.51a.63.63,0,0,0,.25-.1.7.7,0,0,0,.19-.15.86.86,0,0,0,.24-.45,1.17,1.17,0,0,0-.1-.68l0,0a1,1,0,0,1,.38.7,1,1,0,0,1-.25.75,1,1,0,0,1-.75.3,1,1,0,0,1-.71-.36Z"/><path class="cls-8" d="M1.53,6.13a1.44,1.44,0,0,0-.62.08,1.3,1.3,0,0,0-.35.25.92.92,0,0,0-.24.38,1.28,1.28,0,0,0,0,.61l0,0A1,1,0,0,1,0,6.83a1,1,0,0,1,.26-.65A1,1,0,0,1,.9,5.89a1,1,0,0,1,.66.2Z"/><path class="cls-4" d="M.31,19.08a1.14,1.14,0,0,0,.66,0,.93.93,0,0,0,.41-.24,1,1,0,0,0,.25-.41,1.18,1.18,0,0,0,0-.65l0,0a1,1,0,0,1,.29.68,1,1,0,0,1-.28.7,1,1,0,0,1-.7.27,1,1,0,0,1-.69-.3Z"/><path class="cls-8" d="M1.63,17.79a1.18,1.18,0,0,0-.65,0A.88.88,0,0,0,.57,18a1,1,0,0,0-.25.4,1.27,1.27,0,0,0,0,.65l0,0a1,1,0,0,1,0-1.37,1,1,0,0,1,.7-.28,1,1,0,0,1,.68.3Z"/><path class="cls-4" d="M20.29,7.42a1.13,1.13,0,0,0,.67.09H21l.1,0,.1-.05a.86.86,0,0,0,.2-.13.9.9,0,0,0,.27-.42,1.25,1.25,0,0,0,0-.67l0,0a1,1,0,0,1,.29.71,1,1,0,0,1-.32.71,1,1,0,0,1-1.42-.15Z"/><path class="cls-8" d="M21.68,6.21a1.32,1.32,0,0,0-.63,0l-.13,0-.09,0a.83.83,0,0,0-.18.13,1,1,0,0,0-.28.37l0,.14a1.3,1.3,0,0,0,0,.13,1.39,1.39,0,0,0,0,.36l0,0a1,1,0,0,1-.2-.68,1,1,0,0,1,.32-.65,1,1,0,0,1,.68-.23,1,1,0,0,1,.65.29Z"/><path class="cls-4" d="M20.35,19a1.23,1.23,0,0,0,.65,0s.12,0,.13,0l.09-.05a.91.91,0,0,0,.19-.13,1,1,0,0,0,.27-.39.11.11,0,0,0,0-.05s0-.07,0-.09a.52.52,0,0,0,0-.14,1.44,1.44,0,0,0,0-.36l0,0a1,1,0,0,1-1.45,1.27Z"/><path class="cls-8" d="M21.74,17.8a1.33,1.33,0,0,0-.66-.06s-.06,0-.06,0l-.08,0-.1,0a.86.86,0,0,0-.2.13,1,1,0,0,0-.27.4,1.33,1.33,0,0,0,0,.67l0,0a1,1,0,0,1-.27-.7,1,1,0,0,1,.32-.69,1,1,0,0,1,1.4.12Z"/><circle class="cls-9" cx="0.64" cy="6.65" r="0.34"/><circle class="cls-9" cx="10.66" cy="0.65" r="0.34"/><circle class="cls-9" cx="20.64" cy="6.54" r="0.34"/><circle class="cls-9" cx="20.64" cy="18.11" r="0.34"/><circle class="cls-9" cx="10.61" cy="24.04" r="0.34"/><circle class="cls-9" cx="0.64" cy="18.11" r="0.34"/><g class="cls-10"><path class="cls-11" d="M7.09,11.86l.34-.24L7,12.37,7,12a1,1,0,0,0-.4-.13c-.24,0-.32.12-.32.22s.18.29.57.41a.55.55,0,0,1,.42.49.56.56,0,0,1-.61.53.9.9,0,0,1-.59-.22l-.34.23.38-.67c0,.25.22.48.46.48a.29.29,0,0,0,.33-.27c0-.4-1-.3-1-.91,0-.23.18-.47.6-.47A.84.84,0,0,1,7.09,11.86Z"/><path class="cls-11" d="M8.25,11.62,8,11.76l0,.65.68,0v-.55l-.24-.14.78-.05-.3.24,0,1.32.27.18H8.28l.33-.22,0-.61-.68,0,0,.54.2.2H7.48l.22-.19-.07-1.35-.29-.17Z"/><path class="cls-11" d="M10.63,13.39l-1.47.06.33-.34.09-1.2-.39-.19,1.4-.1,0,.61-.24-.44-.6.1,0,.62.13,0,.28-.36V13L10,12.62l-.19,0,0,.54.58.05.22-.55Z"/><path class="cls-11" d="M12.06,13.52c-.16,0-.63-.45-.78-.6v.32l.28.15-.83.06L11,13.2l0-1.32-.34-.16c.68,0,.93,0,1,0s.59.12.59.46c0,.1-.06.58-1,.6a1.76,1.76,0,0,0,.77.41.36.36,0,0,0,.34-.23C12.34,13.4,12.12,13.52,12.06,13.52Zm-.72-1.65h-.08v.7c.33,0,.66-.14.66-.37S11.88,11.87,11.34,11.87Z"/><path class="cls-11" d="M13,12l0,1.18.27.19-.93.08.32-.26.08-1.27-.27-.22.8,0Z"/><path class="cls-11" d="M14.73,12.23l-.21-.45-.66.13,0,.48h.2l.21-.32v.8l-.22-.35-.18,0,0,.66.39.16-1,.11.28-.26L13.66,12l-.35-.32,1.42-.05Z"/><path class="cls-11" d="M16.14,12.23l-.2-.45-.67.13,0,.48h.2l.22-.32v.8l-.23-.35-.18,0,0,.66.38.16-1,.11.29-.26L15.08,12l-.36-.32,1.42-.05Z"/></g></g></g></g></svg>