<svg xmlns="http://www.w3.org/2000/svg" viewBox="0 0 359.38 263.95"><defs><style>.cls-1{fill:#f42f2f;}.cls-2{fill:#224456;}.cls-3{fill:#fff0f0;}.cls-4{fill:#db0f0f;}.cls-5{fill:#ecdcdb;}.cls-6{fill:#071f2b;}.cls-7{fill:#ffcd40;}.cls-8{fill:#e2cdcc;}.cls-9{fill:#153447;}.cls-10{fill:#ffbf1f;}</style></defs><title>設施-資產 1遊樂設施</title><g id="圖層_2" data-name="圖層 2"><g id="圖層_1-2" data-name="圖層 1"><path class="cls-1" d="M224.67,14c-14.8,17.38-29.61-5.08-44.42,12.3V1.74C195.06-7.45,209.87,23.22,224.67,14Z"/><rect class="cls-2" x="177.89" y="0.2" width="3.68" height="86.97"/><path class="cls-1" d="M335,74c-14.8,17.38-29.61-5.08-44.42,12.3V61.73C305.34,52.55,320.15,83.21,335,74Z"/><rect class="cls-2" x="288.17" y="60.2" width="3.68" height="86.97"/><path class="cls-1" d="M114.39,78.31C99.59,95.69,84.78,73.23,70,90.61V66c14.81-9.18,29.62,21.48,44.42,12.3Z"/><rect class="cls-2" x="67.61" y="64.48" width="3.68" height="86.97"/><path class="cls-1" d="M180,49.83l-.12.19c-13.79,42.74-26.31,69.66-48.25,85H164c7.33-15.57,11.48-42.73,16.09-85A1.27,1.27,0,0,1,180,49.83Z"/><path class="cls-1" d="M66.79,135.06H99.2c36.11-14.87,57.06-41.14,79.8-83.72C147.11,95.15,117.28,120.76,66.79,135.06Z"/><path class="cls-3" d="M179,51.34c-22.74,42.58-43.69,68.85-79.8,83.72h32.4c21.94-15.38,34.46-42.3,48.25-85C179.57,50.47,179.28,50.9,179,51.34Z"/><path class="cls-3" d="M180.1,50c-4.61,42.31-8.76,69.47-16.09,85h32.41c-7.3-15.52-11.45-42.63-16-84.59Z"/><path class="cls-1" d="M182.61,53.85c22.34,40.66,43.16,66.59,78.63,81.21h32.41C243.86,121,214.11,95.73,182.61,53.85Z"/><path class="cls-1" d="M180.38,50.47c4.59,42,8.74,69.07,16,84.59h32.41c-21.74-15.23-34.21-42-47.88-83.72Z"/><path class="cls-3" d="M181,51.34c13.67,41.71,26.14,68.49,47.88,83.72h32.41C225.77,120.44,205,94.51,182.61,53.85Z"/><path class="cls-4" d="M99.42,134H66.49c-1.81,37.4-12,92.86-66.49,130H44.5C85.35,225.26,98.06,172.83,99.42,134Z"/><path class="cls-5" d="M99.42,134c-1.36,38.88-14.07,91.31-54.92,130H94.89c27.24-40.24,37.39-89.63,38.3-130Z"/><path class="cls-4" d="M133.19,134c-.91,40.37-11.06,89.76-38.3,130h48.29c13.62-41.79,21.22-88.15,21.67-130Z"/><path class="cls-5" d="M134.66,264h.42l-.22-.36Z"/><path class="cls-6" d="M135.08,264h44.61V176s-4,37.37-11.79,51.44C155.7,249.45,135.08,264,135.08,264Z"/><path class="cls-5" d="M164.85,134c-.28,26.24-3.64,56.52-11.4,84.34a89.83,89.83,0,0,0,9.4-9C173,198,179.69,176,179.69,176V134Z"/><path class="cls-7" d="M118.25,235.89l16.61,27.7c7.91-13.35,14-28.89,18.59-45.3C135.6,233.16,118.25,235.89,118.25,235.89Z"/><path class="cls-7" d="M153.45,218.29c-4.58,16.41-10.68,32-18.59,45.3l.22.36s20.62-14.5,32.82-36.47c7.82-14.07,11.79-51.44,11.79-51.44s-6.74,22-16.84,33.2A89.83,89.83,0,0,1,153.45,218.29Z"/><path class="cls-4" d="M260,134h32.93c1.81,37.4,12,92.86,66.49,130H314.87C274,225.26,261.32,172.83,260,134Z"/><path class="cls-8" d="M260,134c1.36,38.88,14.06,91.31,54.91,130H264.48c-27.23-40.24-37.39-89.63-38.29-130Z"/><path class="cls-4" d="M226.19,134c.9,40.37,11.06,89.76,38.29,130H216.19C202.58,222.16,195,175.8,194.52,134Z"/><path class="cls-5" d="M224.71,264h-.42l.22-.36Z"/><path class="cls-9" d="M224.29,264h-44.6V176s4,37.37,11.78,51.44C203.67,249.45,224.29,264,224.29,264Z"/><path class="cls-8" d="M194.52,134c.29,26.24,3.65,56.52,11.41,84.34a90.88,90.88,0,0,1-9.41-9C186.42,198,179.69,176,179.69,176V134Z"/><path class="cls-10" d="M241.13,235.89l-16.62,27.7c-7.9-13.35-14-28.89-18.58-45.3C223.78,233.16,241.13,235.89,241.13,235.89Z"/><path class="cls-10" d="M205.93,218.29c4.57,16.41,10.68,32,18.58,45.3l-.22.36s-20.62-14.5-32.82-36.47C183.66,213.41,179.69,176,179.69,176s6.73,22,16.83,33.2A90.88,90.88,0,0,0,205.93,218.29Z"/><path class="cls-10" d="M80.21,148.22c8.92,0,16.15-6.43,16.15-14.37H64.07C64.07,141.79,71.3,148.22,80.21,148.22Z"/><path class="cls-10" d="M113.13,148.22c8.92,0,16.15-6.43,16.15-14.37H97C97,141.79,104.22,148.22,113.13,148.22Z"/><path class="cls-10" d="M146.05,148.22c8.92,0,16.14-6.43,16.14-14.37H129.91C129.91,141.79,137.14,148.22,146.05,148.22Z"/><path class="cls-10" d="M179,148.22c8.91,0,16.14-6.43,16.14-14.37H162.83C162.83,141.79,170.05,148.22,179,148.22Z"/><path class="cls-10" d="M211.89,148.22c8.91,0,16.14-6.43,16.14-14.37H195.75C195.75,141.79,203,148.22,211.89,148.22Z"/><path class="cls-10" d="M244.81,148.22c8.91,0,16.14-6.43,16.14-14.37H228.66C228.66,141.79,235.89,148.22,244.81,148.22Z"/><path class="cls-10" d="M261.58,133.85c0,7.94,7.23,14.37,16.14,14.37s16.15-6.43,16.15-14.37Z"/><rect class="cls-7" x="64.07" y="133.05" width="229.8" height="2.84"/></g></g></svg>