<svg xmlns="http://www.w3.org/2000/svg" viewBox="0 0 382.75 91.26"><defs><style>.cls-1{fill:#224456;}.cls-2{fill:#f42f2f;}.cls-3{fill:#03d8be;}.cls-4{fill:#ffcd40;}.cls-5{fill:#153447;}.cls-6{fill:#fff0f0;}.cls-7{fill:#b3eaff;}.cls-8{fill:#fff;}.cls-9{fill:#ffd97b;}</style></defs><title>設施介紹-資產 4</title><g id="圖層_2" data-name="圖層 2"><g id="圖層_1-2" data-name="圖層 1"><rect class="cls-1" x="78.92" y="50.86" width="16.44" height="8.48"/><rect class="cls-2" x="0.92" y="27.18" width="80.9" height="41.98"/><polygon class="cls-3" points="12.33 46.3 12.33 46.3 6.76 34.64 17.89 34.64 12.33 46.3"/><polygon class="cls-3" points="35.17 46.3 35.17 46.3 29.61 34.64 40.74 34.64 35.17 46.3"/><polygon class="cls-3" points="58.02 46.3 58.02 46.3 52.45 34.64 63.59 34.64 58.02 46.3"/><polygon class="cls-4" points="69.54 34.64 69.54 34.64 75.11 46.3 63.97 46.3 69.54 34.64"/><polygon class="cls-4" points="46.69 34.64 46.69 34.64 52.26 46.3 41.12 46.3 46.69 34.64"/><polygon class="cls-4" points="23.84 34.64 23.84 34.64 29.41 46.3 18.28 46.3 23.84 34.64"/><path class="cls-5" d="M34.79,73.87a17.4,17.4,0,1,1-17.4-17.4A17.4,17.4,0,0,1,34.79,73.87Z"/><path class="cls-6" d="M26.62,64.64a13,13,0,0,0-9.23-3.82V73.87Z"/><path class="cls-2" d="M17.39,60.82a13,13,0,0,0-9.22,3.82l9.22,9.23Z"/><path class="cls-6" d="M8.17,64.64a13,13,0,0,0-3.82,9.23h13Z"/><path class="cls-2" d="M30.44,73.87a13,13,0,0,0-3.82-9.23l-9.23,9.23Z"/><path class="cls-2" d="M17.39,86.91a13,13,0,0,0,9.23-3.82l-9.23-9.22Z"/><path class="cls-6" d="M17.39,73.87l9.23,9.22a13,13,0,0,0,3.82-9.22Z"/><path class="cls-2" d="M4.35,73.87a13,13,0,0,0,3.82,9.22l9.22-9.22Z"/><path class="cls-6" d="M8.17,83.09a13,13,0,0,0,9.22,3.82v-13Z"/><path class="cls-5" d="M82.75,73.87a17.4,17.4,0,1,1-17.4-17.4A17.4,17.4,0,0,1,82.75,73.87Z"/><path class="cls-6" d="M74.58,64.64a13,13,0,0,0-9.23-3.82V73.87Z"/><path class="cls-2" d="M65.35,60.82a13,13,0,0,0-9.22,3.82l9.22,9.23Z"/><path class="cls-6" d="M56.13,64.64a13,13,0,0,0-3.82,9.23h13Z"/><path class="cls-2" d="M78.4,73.87a13,13,0,0,0-3.82-9.23l-9.23,9.23Z"/><path class="cls-2" d="M65.35,86.91a13,13,0,0,0,9.23-3.82l-9.23-9.22Z"/><path class="cls-6" d="M65.35,73.87l9.23,9.22a13,13,0,0,0,3.82-9.22Z"/><path class="cls-2" d="M52.31,73.87a13,13,0,0,0,3.82,9.22l9.22-9.22Z"/><path class="cls-6" d="M56.13,83.09a13,13,0,0,0,9.22,3.82v-13Z"/><rect class="cls-1" x="170.11" y="50.86" width="16.44" height="8.48"/><rect class="cls-2" x="92.11" y="27.18" width="80.9" height="41.98"/><polygon class="cls-3" points="103.52 46.3 103.52 46.3 97.95 34.64 109.08 34.64 103.52 46.3"/><polygon class="cls-3" points="126.36 46.3 126.36 46.3 120.8 34.64 131.93 34.64 126.36 46.3"/><polygon class="cls-3" points="149.21 46.3 149.21 46.3 143.64 34.64 154.78 34.64 149.21 46.3"/><polygon class="cls-4" points="160.73 34.64 160.73 34.64 166.3 46.3 155.16 46.3 160.73 34.64"/><polygon class="cls-4" points="137.88 34.64 137.88 34.64 143.45 46.3 132.31 46.3 137.88 34.64"/><polygon class="cls-4" points="115.03 34.64 115.03 34.64 120.6 46.3 109.47 46.3 115.03 34.64"/><path class="cls-5" d="M126,73.87a17.4,17.4,0,1,1-17.4-17.4A17.4,17.4,0,0,1,126,73.87Z"/><path class="cls-6" d="M117.81,64.64a13,13,0,0,0-9.23-3.82V73.87Z"/><path class="cls-2" d="M108.58,60.82a13,13,0,0,0-9.22,3.82l9.22,9.23Z"/><path class="cls-6" d="M99.36,64.64a13,13,0,0,0-3.82,9.23h13Z"/><path class="cls-2" d="M121.63,73.87a13,13,0,0,0-3.82-9.23l-9.23,9.23Z"/><path class="cls-2" d="M108.58,86.91a13,13,0,0,0,9.23-3.82l-9.23-9.22Z"/><path class="cls-6" d="M108.58,73.87l9.23,9.22a13,13,0,0,0,3.82-9.22Z"/><path class="cls-2" d="M95.54,73.87a13,13,0,0,0,3.82,9.22l9.22-9.22Z"/><path class="cls-6" d="M99.36,83.09a13,13,0,0,0,9.22,3.82v-13Z"/><path class="cls-5" d="M173.94,73.87a17.4,17.4,0,1,1-17.4-17.4A17.4,17.4,0,0,1,173.94,73.87Z"/><path class="cls-6" d="M165.77,64.64a13,13,0,0,0-9.23-3.82V73.87Z"/><path class="cls-2" d="M156.54,60.82a13,13,0,0,0-9.22,3.82l9.22,9.23Z"/><path class="cls-6" d="M147.32,64.64a13,13,0,0,0-3.82,9.23h13Z"/><path class="cls-2" d="M169.59,73.87a13,13,0,0,0-3.82-9.23l-9.23,9.23Z"/><path class="cls-2" d="M156.54,86.91a13,13,0,0,0,9.23-3.82l-9.23-9.22Z"/><path class="cls-6" d="M156.54,73.87l9.23,9.22a13,13,0,0,0,3.82-9.22Z"/><path class="cls-2" d="M143.5,73.87a13,13,0,0,0,3.82,9.22l9.22-9.22Z"/><path class="cls-6" d="M147.32,83.09a13,13,0,0,0,9.22,3.82v-13Z"/><rect class="cls-1" x="261.3" y="50.86" width="16.44" height="8.48"/><rect class="cls-2" x="183.3" y="27.18" width="80.9" height="41.98"/><polygon class="cls-3" points="194.71 46.3 194.71 46.3 189.14 34.64 200.27 34.64 194.71 46.3"/><polygon class="cls-3" points="217.55 46.3 217.55 46.3 211.99 34.64 223.12 34.64 217.55 46.3"/><polygon class="cls-3" points="240.4 46.3 240.4 46.3 234.83 34.64 245.97 34.64 240.4 46.3"/><polygon class="cls-4" points="251.92 34.64 251.92 34.64 257.49 46.3 246.35 46.3 251.92 34.64"/><polygon class="cls-4" points="229.07 34.64 229.07 34.64 234.64 46.3 223.5 46.3 229.07 34.64"/><polygon class="cls-4" points="206.22 34.64 206.22 34.64 211.79 46.3 200.66 46.3 206.22 34.64"/><path class="cls-5" d="M217.16,73.87a17.39,17.39,0,1,1-17.39-17.4A17.39,17.39,0,0,1,217.16,73.87Z"/><path class="cls-6" d="M209,64.64a13,13,0,0,0-9.23-3.82V73.87Z"/><path class="cls-2" d="M199.77,60.82a13,13,0,0,0-9.22,3.82l9.22,9.23Z"/><path class="cls-6" d="M190.55,64.64a13,13,0,0,0-3.82,9.23h13Z"/><path class="cls-2" d="M212.82,73.87A13,13,0,0,0,209,64.64l-9.23,9.23Z"/><path class="cls-2" d="M199.77,86.91A13,13,0,0,0,209,83.09l-9.23-9.22Z"/><path class="cls-6" d="M199.77,73.87,209,83.09a13,13,0,0,0,3.82-9.22Z"/><path class="cls-2" d="M186.73,73.87a13,13,0,0,0,3.82,9.22l9.22-9.22Z"/><path class="cls-6" d="M190.55,83.09a13,13,0,0,0,9.22,3.82v-13Z"/><path class="cls-5" d="M265.13,73.87a17.4,17.4,0,1,1-17.4-17.4A17.4,17.4,0,0,1,265.13,73.87Z"/><path class="cls-6" d="M257,64.64a13,13,0,0,0-9.23-3.82V73.87Z"/><path class="cls-2" d="M247.73,60.82a13,13,0,0,0-9.22,3.82l9.22,9.23Z"/><path class="cls-6" d="M238.51,64.64a13,13,0,0,0-3.82,9.23h13Z"/><path class="cls-2" d="M260.78,73.87A13,13,0,0,0,257,64.64l-9.23,9.23Z"/><path class="cls-2" d="M247.73,86.91A13,13,0,0,0,257,83.09l-9.23-9.22Z"/><path class="cls-6" d="M247.73,73.87,257,83.09a13,13,0,0,0,3.82-9.22Z"/><path class="cls-2" d="M234.69,73.87a13,13,0,0,0,3.82,9.22l9.22-9.22Z"/><path class="cls-6" d="M238.51,83.09a13,13,0,0,0,9.22,3.82v-13Z"/><rect class="cls-5" x="338.11" y="12.38" width="7.78" height="27.93"/><path class="cls-4" d="M363.92,69.69H330.34V35.13h33.58A17.11,17.11,0,0,1,381,52.24v.35A17.11,17.11,0,0,1,363.92,69.69Z"/><polygon class="cls-2" points="325.73 69.11 272.17 69.11 272.17 6.91 311.91 6.91 325.73 69.11"/><rect class="cls-7" x="280.23" y="16.7" width="21.89" height="17.85"/><rect class="cls-4" x="265.26" width="50.11" height="10.94" rx="5.42"/><rect class="cls-2" x="310.76" y="35.13" width="50.68" height="34.56"/><polygon class="cls-1" points="382.75 82.36 360.87 82.36 361.44 62.78 377.57 62.78 382.75 82.36"/><rect class="cls-5" x="363.94" y="67.58" width="2.69" height="9.79"/><polygon class="cls-5" points="372.77 77.37 370.08 77.37 368.93 67.58 371.62 67.58 372.77 77.37"/><polygon class="cls-5" points="378.91 77.37 376.22 77.37 373.92 67.58 376.61 67.58 378.91 77.37"/><path class="cls-5" d="M310.79,73.87a17.39,17.39,0,1,1-17.39-17.4A17.4,17.4,0,0,1,310.79,73.87Z"/><path class="cls-6" d="M302.62,64.64a13,13,0,0,0-9.22-3.82V73.87Z"/><path class="cls-2" d="M293.4,60.82a13,13,0,0,0-9.22,3.82l9.22,9.23Z"/><path class="cls-6" d="M284.18,64.64a13,13,0,0,0-3.83,9.23h13Z"/><path class="cls-2" d="M306.44,73.87a13,13,0,0,0-3.82-9.23l-9.22,9.23Z"/><path class="cls-2" d="M293.4,86.91a13,13,0,0,0,9.22-3.82l-9.22-9.22Z"/><path class="cls-6" d="M293.4,73.87l9.22,9.22a13,13,0,0,0,3.82-9.22Z"/><path class="cls-2" d="M280.35,73.87a13,13,0,0,0,3.83,9.22l9.22-9.22Z"/><path class="cls-6" d="M284.18,83.09a13,13,0,0,0,9.22,3.82v-13Z"/><path class="cls-5" d="M358.75,73.87a17.39,17.39,0,1,1-17.39-17.4A17.39,17.39,0,0,1,358.75,73.87Z"/><path class="cls-6" d="M350.58,64.64a13,13,0,0,0-9.22-3.82V73.87Z"/><path class="cls-2" d="M341.36,60.82a13,13,0,0,0-9.22,3.82l9.22,9.23Z"/><path class="cls-6" d="M332.14,64.64a13,13,0,0,0-3.82,9.23h13Z"/><path class="cls-2" d="M354.4,73.87a13,13,0,0,0-3.82-9.23l-9.22,9.23Z"/><path class="cls-2" d="M341.36,86.91a13,13,0,0,0,9.22-3.82l-9.22-9.22Z"/><path class="cls-6" d="M341.36,73.87l9.22,9.22a13,13,0,0,0,3.82-9.22Z"/><path class="cls-2" d="M328.32,73.87a13,13,0,0,0,3.82,9.22l9.22-9.22Z"/><path class="cls-6" d="M332.14,83.09a13,13,0,0,0,9.22,3.82v-13Z"/><polygon class="cls-3" points="291.94 50.88 291.94 50.88 286.37 41.28 297.51 41.28 291.94 50.88"/><polygon class="cls-3" points="314.79 50.88 314.79 50.88 309.22 41.28 320.36 41.28 314.79 50.88"/><polygon class="cls-3" points="337.63 50.88 337.63 50.88 332.07 41.28 343.2 41.28 337.63 50.88"/><polygon class="cls-4" points="349.15 41.28 349.15 41.28 354.72 50.88 343.59 50.88 349.15 41.28"/><polygon class="cls-4" points="326.31 41.28 326.31 41.28 331.88 50.88 320.74 50.88 326.31 41.28"/><polygon class="cls-4" points="303.46 41.28 303.46 41.28 309.03 50.88 297.89 50.88 303.46 41.28"/><rect class="cls-8" x="281.67" y="23.9" width="15.26" height="2.16" rx="1" transform="translate(67.07 211.88) rotate(-45)"/><rect class="cls-1" x="332.93" y="10.37" width="17.85" height="6.34"/><rect class="cls-9" x="269.57" y="3.46" width="33.12" height="3.46" rx="1.71"/></g></g></svg>