<svg xmlns="http://www.w3.org/2000/svg" xmlns:xlink="http://www.w3.org/1999/xlink" viewBox="0 0 46.93 83.11"><defs><style>.cls-1,.cls-10,.cls-13,.cls-18,.cls-8{fill:none;}.cls-2{isolation:isolate;}.cls-3{fill:#745236;}.cls-4{fill:#533724;}.cls-5{fill:#e2ad6f;}.cls-6{opacity:0.05;}.cls-7{fill:#91633d;}.cls-10,.cls-8{stroke:#f8dbb3;}.cls-10,.cls-13,.cls-8{stroke-linecap:round;}.cls-10,.cls-18,.cls-8{stroke-miterlimit:10;}.cls-8{stroke-width:2.6px;}.cls-9{fill:#f5c177;}.cls-10,.cls-13{stroke-width:3.75px;}.cls-11{fill:#e87471;}.cls-12{clip-path:url(#clip-path);}.cls-13{stroke:#f5c177;stroke-linejoin:round;}.cls-14{fill:#b5804e;}.cls-15{fill:#c9925a;}.cls-16{fill:#fae6c4;}.cls-17{fill:#8b6030;}.cls-18{stroke:#8b6030;stroke-width:0.66px;}.cls-19{fill:#e5e5e5;opacity:0.08;}.cls-20{fill:#4c2809;}.cls-21{fill:#eea23a;}.cls-22{fill:#804817;}.cls-23{fill:#915623;}.cls-24{fill:#613211;}.cls-25{fill:#915d21;}.cls-26{fill:#9f6c3c;}.cls-27{fill:#875321;}.cls-28{mix-blend-mode:multiply;}.cls-29{fill:#b4b4b4;}.cls-30{fill:#bc8049;}</style><clipPath id="clip-path"><path class="cls-1" d="M5.46,44.08s2.3,16,18.66,17.5S42,41.27,42,41.27,14.52,30.49,5.46,44.08Z"/></clipPath></defs><title>資產 1</title><g class="cls-2"><g id="圖層_2" data-name="圖層 2"><g id="HeaderFooter"><path class="cls-3" d="M38.06,70.59S37,80.19,37.63,83l-3.49-.17s-2.83-9-2.65-12.15S38.06,70.59,38.06,70.59Z"/><path class="cls-3" d="M16,73.62s.69,5.83.38,7.53L18.25,81s1.42-5.5,1.28-7.42S16,73.62,16,73.62Z"/><path class="cls-3" d="M32.72,73.55s-.59,5.84-.23,7.54L30.57,81S29,75.51,29.1,73.58,32.72,73.55,32.72,73.55Z"/><path class="cls-4" d="M11.89,70.71s.78,9.62.09,12.4l3.3-.09s2.91-8.91,2.81-12.08S11.89,70.71,11.89,70.71Z"/><path class="cls-4" d="M13.22,64.28A10.94,10.94,0,0,0,14,65.46c-.43,2.92.3,4.14.46,4.36-.17-.21-1-1.1-2.06.55a1.86,1.86,0,0,0,.6,2.8c-.26.49.49.84.86,1-.57-.09-.77.85-.77.85,1.26,2.7,3.94-.1,3.94-.1,3.5-3.48,3.34-8.64,3.34-8.64C23.84,68,25.2,67.5,25.2,67.5a4.42,4.42,0,0,0,2.9,3.73c-2.25,2,.58,2.37.49,2.46s-2.2,1.12.09,1.84,3.1-1.9,3.1-1.9c1.26-3.15,2-10.13,2-11.2C26.7,62.08,20.31,64,13.22,64.28Z"/><path class="cls-5" d="M38.08,60.64s6.84-.17,6.43-4.77c0,0,6.29-6.4-1.39-9.39,0,0-1.08-3.83-3.38-.1Z"/><path class="cls-6" d="M40.39,51.53a6.9,6.9,0,0,1,6.38.48c.49-1.91,0-4.1-3.65-5.53,0,0-1.08-3.83-3.38-.1L39,52.32A6.68,6.68,0,0,1,40.39,51.53Z"/><path class="cls-5" d="M9.85,45.29S3,44.76,3,49.37c0,0-6.92,5.72.41,9.49,0,0,.67,3.92,3.35.45Z"/><path class="cls-6" d="M6.6,54.12A6.9,6.9,0,0,1,.3,53c-.68,1.85-.42,4.08,3.06,5.87,0,0,.67,3.92,3.35.45L8,53.47A6.68,6.68,0,0,1,6.6,54.12Z"/><path class="cls-7" d="M21.15,41.14s-6.6.16-6.29,3.61c-6-2.36-6,3.14-6,3.14A3.87,3.87,0,0,0,7,53.08c-6.29.63-5.66,8.8-.31,8.64-.63.94-.63,5.5,4.09,3.46-1.41,1.26,1.57,4.4,6,1.41,1.57,1.73,2.2,2.2,5.66-.31A6.35,6.35,0,0,0,31.2,68c4.09,1.26,7.54-.16,8.17-3.61,1.89-.79,2.67-1.26,1.41-5,3.3-1.26-1.73-2.2-.94-7.54s-2.51-4.71-2.51-4.71,2-4.09-1.57-3.77c1.57-2.2-4.56-3.93-7.39-2.67C28.06,42.24,27,37.21,21.15,41.14Z"/><line class="cls-8" x1="11.57" y1="53.88" x2="10.14" y2="56.32"/><line class="cls-8" x1="10.07" y1="52.79" x2="7.91" y2="54.68"/><line class="cls-8" x1="9.07" y1="50.9" x2="6.58" y2="52.38"/><line class="cls-8" x1="7.63" y1="48.53" x2="5.23" y2="50.14"/><line class="cls-8" x1="6.2" y1="46.15" x2="3.81" y2="47.75"/><path class="cls-9" d="M24.09,60.56a.41.41,0,0,0,0-.81.41.41,0,0,0,0,.81Z"/><path class="cls-9" d="M36.8,54.13a.41.41,0,0,0,0-.81.41.41,0,0,0,0,.81Z"/><path class="cls-9" d="M38.95,48.13a.41.41,0,0,0,0-.81.41.41,0,0,0,0,.81Z"/><path class="cls-9" d="M40.41,42.68a.41.41,0,0,0,0-.81.41.41,0,0,0,0,.81Z"/><line class="cls-10" x1="39.78" y1="42.08" x2="44.02" y2="42.74"/><line class="cls-10" x1="39.34" y1="44.42" x2="43.42" y2="45.76"/><line class="cls-10" x1="38.86" y1="46.91" x2="42.88" y2="48.42"/><line class="cls-10" x1="37.9" y1="48.97" x2="41.74" y2="50.87"/><line class="cls-10" x1="37.03" y1="51.34" x2="40.78" y2="53.41"/><line class="cls-10" x1="35.57" y1="53.49" x2="38.93" y2="56.11"/><line class="cls-10" x1="34.19" y1="55.62" x2="37.42" y2="58.39"/><line class="cls-10" x1="32.22" y1="56.8" x2="34.77" y2="60.14"/><line class="cls-10" x1="30.29" y1="58.5" x2="32.67" y2="61.95"/><line class="cls-10" x1="28.74" y1="59.1" x2="29.91" y2="63.05"/><line class="cls-10" x1="26.32" y1="59.35" x2="26.74" y2="63.42"/><line class="cls-10" x1="23.91" y1="59.1" x2="23.42" y2="63.14"/><line class="cls-10" x1="20.89" y1="58.93" x2="20.73" y2="63"/><line class="cls-10" x1="19.24" y1="58.54" x2="17.78" y2="62.33"/><line class="cls-10" x1="17.09" y1="57.39" x2="14.92" y2="60.86"/><line class="cls-10" x1="15" y1="55.66" x2="12.6" y2="58.97"/><path class="cls-11" d="M5.46,44.08s2.3,16,18.66,17.5S42,41.27,42,41.27,14.52,30.49,5.46,44.08Z"/><path class="cls-9" d="M13.28,46.07c2.56,5.14,6.28,7.85,11.34,8.3,2.88.25,7.09-.39,10.35-8.92a41.77,41.77,0,0,0,1.73-5.9C30.11,37.7,18.78,35.5,11,39.3A28.1,28.1,0,0,0,13.28,46.07Z"/><path class="cls-11" d="M14.72,38.08c0,.28.05.62.08.8.06.5,1.68,8.39,9.32,9.08s9.4-8.67,9.62-9.18c-5.51-1.3-12.84-2.33-19-.8C14.72,38,14.71,38,14.72,38.08Z"/><g class="cls-12"><polyline class="cls-13" points="5.32 41.29 10.75 42.72 8.75 47.35 12.35 47.68 11.26 51.05 15.1 51.4 14.8 55.5 19.37 54.36 21 58.89 23.98 56.04 27.65 59.5 30.43 54.91 35.47 56.48 33.53 51.97 37.79 50.69 36.2 46.4 40.15 45.12 37.59 41.78 40.61 38.79"/></g><path class="cls-9" d="M13.51,50.05a.41.41,0,0,0,0-.81.41.41,0,0,0,0,.81Z"/><path class="cls-9" d="M16.61,53.52a.41.41,0,0,0,0-.81.41.41,0,0,0,0,.81Z"/><path class="cls-9" d="M17.68,57.88a.41.41,0,0,0,0-.81.41.41,0,0,0,0,.81Z"/><path class="cls-9" d="M22.14,56a.41.41,0,0,0,0-.81.41.41,0,0,0,0,.81Z"/><path class="cls-9" d="M27.41,56.45a.41.41,0,0,0,0-.81.41.41,0,0,0,0,.81Z"/><path class="cls-9" d="M31.6,58.31a.41.41,0,0,0,0-.81.41.41,0,0,0,0,.81Z"/><path class="cls-9" d="M32,54.08a.41.41,0,0,0,0-.81.41.41,0,0,0,0,.81Z"/><path class="cls-9" d="M35.08,49.71a.41.41,0,0,0,0-.81.41.41,0,0,0,0,.81Z"/><path class="cls-9" d="M37.43,44.27a.41.41,0,0,0,0-.81.41.41,0,0,0,0,.81Z"/><path class="cls-11" d="M14.57,45a.81.81,0,0,0,0-1.62.81.81,0,0,0,0,1.62Z"/><path class="cls-11" d="M16.43,47.8a.81.81,0,0,0,0-1.62.81.81,0,0,0,0,1.62Z"/><path class="cls-11" d="M19.59,50.51a.81.81,0,0,0,0-1.62.81.81,0,0,0,0,1.62Z"/><path class="cls-11" d="M23.06,51.93a.81.81,0,0,0,0-1.62.81.81,0,0,0,0,1.62Z"/><path class="cls-11" d="M27.29,51.34a.81.81,0,0,0,0-1.62.81.81,0,0,0,0,1.62Z"/><path class="cls-11" d="M30.54,49.1a.81.81,0,0,0,0-1.62.81.81,0,0,0,0,1.62Z"/><path class="cls-11" d="M32.66,46.29a.81.81,0,0,0,0-1.62.81.81,0,0,0,0,1.62Z"/><path class="cls-11" d="M34.09,42.71a.81.81,0,0,0,0-1.62.81.81,0,0,0,0,1.62Z"/><path class="cls-14" d="M20.25,24.65S21,42.3,18.41,47.88,11.7,59.75,18,61.48s12.37,3.91,14.11-5.86.65-25.4,0-30,2.61-6.95-2.17-9.12-8-2.34-8.87,1.22A28.76,28.76,0,0,0,20.25,24.65Z"/><path class="cls-6" d="M25.81,23.06s-2,5.43-1.74,8.9,4.56,7.82,1.74,11.29S18.65,50,20.6,53s3.26,8.9,6.08,6.3S32.11,38,30.37,32s-1.3-10.42-3-11.94S25.81,23.06,25.81,23.06Z"/><path class="cls-15" d="M17.14,20.14s-3.61,6.49-.85,5.53c0,0,.07,7.57,5.77,4.26s4.29-10.64,4.29-10.64Z"/><path class="cls-15" d="M35.72,20.14s3.61,6.49.85,5.53c0,0-.07,7.57-5.77,4.26s-4.29-10.64-4.29-10.64Z"/><path class="cls-15" d="M30.15,10.24S35.42-.9,36.38.06s-.06,6.55-.06,6.55S39,6.16,34.69,10.7,30.15,10.24,30.15,10.24Z"/><path class="cls-15" d="M22.55,10.24S17.29-.9,16.33.06,16,6.3,16,6.3s-2.22-.15,2,4.4S22.55,10.24,22.55,10.24Z"/><path class="cls-16" d="M27.26,33s-5.52-.44-5.23-3.78,1.74-6.53,4.21-6.68,4.94,3,4.36,6.53S28.25,33.17,27.26,33Z"/><path class="cls-5" d="M35.91,13.22c2.22-2.25-3.68-3.56-3.68-3.56,1.59-3.46-2.11-1.83-4-.81-.43-1.4-.57-3-1.85-2.86-1,.31-1,1.45-1.48,2.71-1.85-1.09-5.58-3-4.12.6,0,0-5.95,1.06-3.83,3.4,0,0-3.89,3.82-.46,4,0,0-2.09,5.74,2.58,3.83,0,0-.6,2.84,1.11,3.59,1.58.9,5.16-.87,6.16-1.4a18.57,18.57,0,0,0,2.76,1.3c5.3,2.42,4.38-3.07,4.38-3.07,4.59,2.11,2.74-3.71,2.74-3.71C39.64,17.2,35.91,13.22,35.91,13.22Z"/><path class="cls-6" d="M15.9,15.19a6.33,6.33,0,0,1-.81.28.91.91,0,0,0,.72,1.16A6,6,0,0,1,15.9,15.19Z"/><path class="cls-6" d="M35.91,13.22c1.26-1.28-.1-2.25-1.5-2.85.26.81.06,1.5-1.36,1.53,0,0,1.85,5.82-2.74,3.71,0,0,.92,5.49-4.38,3.07a18.57,18.57,0,0,1-2.76-1.3c-1,.53-4.58,2.3-6.16,1.4a1.76,1.76,0,0,1-.87-.83c-.32,1.57-.34,3.94,2.91,2.61,0,0-.6,2.84,1.11,3.59,1.58.9,5.16-.87,6.16-1.4a18.57,18.57,0,0,0,2.76,1.3c5.3,2.42,4.38-3.07,4.38-3.07,4.59,2.11,2.74-3.71,2.74-3.71C39.64,17.2,35.91,13.22,35.91,13.22Z"/><path class="cls-17" d="M24.37,25.88s1.66,2,2.35,1.6a9.34,9.34,0,0,0,1.91-1.81l-2.13,1Z"/><path class="cls-17" d="M23.2,28.32a4,4,0,0,0,.67.63,4.23,4.23,0,0,0,.78.47,3.87,3.87,0,0,0,1.75.36,4.61,4.61,0,0,0,1.76-.38,2.85,2.85,0,0,0,1.34-1.19,2.55,2.55,0,0,1-1.25,1.39,4.21,4.21,0,0,1-1.85.46,4,4,0,0,1-1-.1,3.64,3.64,0,0,1-.9-.35A3.52,3.52,0,0,1,23.2,28.32Z"/><line class="cls-18" x1="26.5" y1="27.17" x2="26.5" y2="29.93"/><polygon class="cls-19" points="22.37 18.75 37.54 15.52 32.84 21.53 22.37 18.75"/><g id="_群組_" data-name="&lt;群組&gt;"><path class="cls-20" d="M27.39,5c1.26-.61,1.82-1.09,2.25-.93a4.59,4.59,0,0,1-3.86,3.54A3.65,3.65,0,0,1,22.31,4.1h0a.29.29,0,0,1,.29,0C23.92,4.81,25.17,6.1,27.39,5Z"/><path class="cls-21" d="M25.71,12a17.19,17.19,0,0,0-5,1.37A1.32,1.32,0,0,1,20,13s.11-.79.3-1.91a16.42,16.42,0,0,0,5.46.75Z"/><path class="cls-21" d="M25.71,11.84a13.51,13.51,0,0,0,6-1.16h0C31.89,12,32,13,32,13a4,4,0,0,1-.88.21A41.24,41.24,0,0,0,25.92,12h-.21Z"/><path class="cls-22" d="M31.41,8.7c.13.69.23,1.37.31,2h0a13.51,13.51,0,0,1-6,1.16,16.42,16.42,0,0,1-5.46-.75c.09-.57.21-1.22.34-1.89.44-2.26,1.07-4.76,1.72-5.1a3.65,3.65,0,0,0,3.46,3.53A4.59,4.59,0,0,0,29.63,4.1c.32.13.58.62,1,1.71A16.56,16.56,0,0,1,31.41,8.7Z"/><path class="cls-20" d="M13.82,12.87c-2.42-3.39,2.67-6.4,6.77-3.67-.13.67-.25,1.32-.34,1.89C20.06,12.2,20,13,20,13a1.32,1.32,0,0,0,.76.36c-2.61.94-5.24,1.67-6.8-.36l-.09-.12Z"/><path class="cls-20" d="M31.41,8.7c4.89-2.22,7.64.51,6.77,2.81h0a10.29,10.29,0,0,1-.79,1.14h0l-.13.12c-1.49,1.25-3.87,1-6.17.43A4,4,0,0,0,32,13s-.07-1-.24-2.31C31.64,10.07,31.54,9.39,31.41,8.7Z"/><path class="cls-23" d="M26.24,14.3c-6.05-.27-9.65,2.61-12.42-1.42l.09.12c1.56,2,4.19,1.3,6.8.36a17.19,17.19,0,0,1,5-1.37h.21a41.24,41.24,0,0,1,5.16,1.21c2.3.54,4.68.82,6.17-.43l.13-.12C34.78,15.9,31.79,14.54,26.24,14.3Z"/></g><path class="cls-24" d="M38.15,9.78a3.42,3.42,0,0,0-1.4-1.11,4.27,4.27,0,0,0-.82-.26,4.71,4.71,0,0,0-.86-.11,6.15,6.15,0,0,0-.89,0c-.3,0-.6.06-.9.09-.61.09-1.22.22-1.86.33l0,0A10,10,0,0,1,33.19,8a6.65,6.65,0,0,1,1.9-.2,4.23,4.23,0,0,1,1.83.51,2.84,2.84,0,0,1,1.26,1.4Z"/><path class="cls-24" d="M20.58,9.22a10.71,10.71,0,0,0-2-.58,7.28,7.28,0,0,0-1-.1,5.53,5.53,0,0,0-1,0,5.06,5.06,0,0,0-1,.2,4.76,4.76,0,0,0-.91.37,3.31,3.31,0,0,0-1.42,1.41h0A2.9,2.9,0,0,1,14.5,8.87a4.7,4.7,0,0,1,2-.73,6.07,6.07,0,0,1,4.08,1Z"/><path class="cls-25" d="M29.62,4.07a.92.92,0,0,1,.43.4,4.5,4.5,0,0,1,.27.52c.16.36.31.72.45,1.09a16.85,16.85,0,0,1,.61,2.27A40.43,40.43,0,0,1,32,13h0c-.22-.77-.38-1.53-.54-2.29l-.46-2.27c-.07-.38-.15-.75-.23-1.13s-.17-.74-.27-1.11-.21-.74-.33-1.11a5.44,5.44,0,0,0-.19-.54.92.92,0,0,0-.31-.44Z"/><path class="cls-24" d="M22.28,4.05a.35.35,0,0,1,.28,0,1.93,1.93,0,0,1,.23.11l.43.25c.28.17.56.35.85.5a3.43,3.43,0,0,0,1.86.45,3.41,3.41,0,0,0,.94-.19,7.13,7.13,0,0,0,.89-.4l.88-.46a4,4,0,0,1,.46-.2.77.77,0,0,1,.52,0l0,.09a.5.5,0,0,0-.21.1l-.17.14-.34.34a7.48,7.48,0,0,1-.77.68c-.14.1-.28.21-.43.3a3.85,3.85,0,0,1-.51.27A3.53,3.53,0,0,1,26,6.25a3.62,3.62,0,0,1-.63,0,3.46,3.46,0,0,1-.6-.14,3.67,3.67,0,0,1-1-.55A5.45,5.45,0,0,1,23,4.81l-.33-.39-.08-.1,0-.05,0,0a.17.17,0,0,0-.17-.09Z"/><path class="cls-25" d="M19.93,13c.21-1.54.46-3.07.78-4.59.16-.76.34-1.51.56-2.26A11.59,11.59,0,0,1,21.65,5a4.43,4.43,0,0,1,.25-.53,1.16,1.16,0,0,1,.39-.44l0,0a.71.71,0,0,0-.16.22,1.89,1.89,0,0,0-.11.25,5.24,5.24,0,0,0-.17.54c-.1.36-.18.74-.26,1.11L21.15,8.5,20.9,9.62c-.09.37-.17.75-.27,1.13A22.83,22.83,0,0,1,20,13Z"/><path class="cls-26" d="M13.77,12.74A6.56,6.56,0,0,0,15,13.87a3.88,3.88,0,0,0,1.41.65,5.12,5.12,0,0,0,1.54.11,14.53,14.53,0,0,0,1.59-.2c1.07-.2,2.17-.41,3.29-.57a20.86,20.86,0,0,1,3.41-.18c1.13.06,2.24.16,3.35.29s2.19.28,3.25.33a5.62,5.62,0,0,0,3-.6,7.9,7.9,0,0,0,2.35-2.2l.06,0A7.4,7.4,0,0,1,36,14a4.88,4.88,0,0,1-1.54.65,7.52,7.52,0,0,1-1.66.18,32.34,32.34,0,0,1-3.32-.23c-1.1-.11-2.21-.21-3.31-.25a21.09,21.09,0,0,0-3.31.14c-1.1.12-2.19.32-3.29.46a13.29,13.29,0,0,1-1.66.13,5.43,5.43,0,0,1-1.65-.23A4.09,4.09,0,0,1,14.8,14a6.08,6.08,0,0,1-1.08-1.27Z"/><path class="cls-27" d="M22.3,4.1a4.51,4.51,0,0,0,1.21,2.35,3.62,3.62,0,0,0,2.35,1,2.83,2.83,0,0,0,1.2-.35,5.33,5.33,0,0,0,1.09-.74A4.9,4.9,0,0,0,29.63,4.1,4.14,4.14,0,0,1,28.4,6.57a5,5,0,0,1-1.13.86,3.15,3.15,0,0,1-1.41.43,4,4,0,0,1-1.42-.32,3.48,3.48,0,0,1-1.18-.84A3.89,3.89,0,0,1,22.3,4.1Z"/><g class="cls-28"><path class="cls-29" d="M13.32,10.58a2.57,2.57,0,0,0,.5,1.68,4.26,4.26,0,0,0,.57.65,2.66,2.66,0,0,0,.68.45,3,3,0,0,0,1.55.25,7.62,7.62,0,0,0,1.68-.34c.28-.09.57-.19.85-.29l.86-.32,1.76-.71c.6-.24,1.22-.46,1.88-.65A7.81,7.81,0,0,1,25.8,11h.29l.29,0,.53.09c.34.07.67.14,1,.23.64.17,1.25.35,1.85.54a31.62,31.62,0,0,0,3.55.93,8.75,8.75,0,0,0,1.73.15,3.71,3.71,0,0,0,1.59-.35,2.82,2.82,0,0,0,.35-.2l.17-.12.16-.13a2.84,2.84,0,0,0,.54-.64,2.33,2.33,0,0,0,.27-1.71l.11,0a2.48,2.48,0,0,1,0,1.9,3.29,3.29,0,0,1-1.26,1.45,4.28,4.28,0,0,1-1.83.61,8.53,8.53,0,0,1-1.92,0,25.59,25.59,0,0,1-3.73-.8c-.61-.17-1.22-.34-1.84-.49a9,9,0,0,0-1.85-.31,6.85,6.85,0,0,0-1.85.27c-.61.16-1.21.37-1.8.58a36.66,36.66,0,0,1-3.62,1.19,7.63,7.63,0,0,1-1.91.24,3.6,3.6,0,0,1-1.86-.51,3.7,3.7,0,0,1-1.28-1.44,2.67,2.67,0,0,1-.26-1.89Z"/></g><path class="cls-30" d="M13.27,10.57a2.6,2.6,0,0,0,.27,1.83,3.61,3.61,0,0,0,1.25,1.39,3.5,3.5,0,0,0,1.81.49A7.53,7.53,0,0,0,18.48,14a36.55,36.55,0,0,0,3.61-1.2c.6-.21,1.2-.42,1.81-.59A7,7,0,0,1,25.78,12a9.17,9.17,0,0,1,1.88.32c.62.15,1.23.33,1.84.49a25.46,25.46,0,0,0,3.71.8,8.42,8.42,0,0,0,1.89,0A4.19,4.19,0,0,0,36.89,13a3.2,3.2,0,0,0,1.23-1.4,2.4,2.4,0,0,0,0-1.84h0a2.45,2.45,0,0,1,0,1.88A3.3,3.3,0,0,1,37,13.12a4.3,4.3,0,0,1-1.83.63,8.58,8.58,0,0,1-1.93,0A23.83,23.83,0,0,1,29.45,13c-.61-.16-1.22-.33-1.84-.48a9,9,0,0,0-1.83-.3,6.77,6.77,0,0,0-1.82.27c-.6.16-1.2.36-1.8.57a33.14,33.14,0,0,1-3.64,1.18,7.7,7.7,0,0,1-1.92.22,3.62,3.62,0,0,1-1.87-.53,3.7,3.7,0,0,1-1.25-1.46,2.64,2.64,0,0,1-.23-1.87Z"/><path class="cls-7" d="M11.11,65.11a11.14,11.14,0,0,0,1.11,1.17c-.68,2.94.35,4.13.58,4.35-.24-.2-1.44-1.08-3,.6C8,73.12,10.61,74,10.61,74c-.39.49.69.83,1.23,1-.83-.08-1.14.87-1.14.87,1.77,2.68,5.73-.18,5.73-.18A11.09,11.09,0,0,0,21.48,67c5,1.6,7,1.11,7,1.11.7,3.1,4.14,3.67,4.14,3.67-3.32,2.09.8,2.36.66,2.46S30,75.37,33.35,76a4,4,0,0,0,4.55-2C39.8,70.9,41.06,63.89,41,62.82,30.76,62.62,21.42,64.73,11.11,65.11Z"/><path class="cls-14" d="M21.05,56.62c-2.44,0-3.56-.12-7,3.22s.47,4.61,1.75,4c-1.5,5,2.08,2.49,3.36,1.84,1.24,4.54,4.55,1.55,5.39-.49,1.42,1.21,3.92-2.32,3.35-4"/></g></g></g></svg>