<?xml version="1.0" encoding="utf-8"?>
<!-- Generator: Adobe Illustrator 23.0.3, SVG Export Plug-In . SVG Version: 6.00 Build 0)  -->
<svg version="1.1" id="圖層_1" xmlns="http://www.w3.org/2000/svg" xmlns:xlink="http://www.w3.org/1999/xlink" x="0px" y="0px"
	 viewBox="0 0 342.32 218.75" style="enable-background:new 0 0 342.32 218.75;" xml:space="preserve">
<style type="text/css">
	.st0{fill:#E7C8DF;}
	.st1{opacity:0.3;}
	.st2{fill:#FFFFFF;}
</style>
<g>
	<polygon class="st0" points="309.77,0 32.55,0 0,109.38 32.55,218.75 309.77,218.75 342.32,109.38 	"/>
</g>
<g class="st1">
	<path class="st2" d="M303.05,160.5c-0.08-0.3-0.17-0.6-0.27-0.88c-0.25-0.77-0.65-1.49-1.08-2.19c-0.36-0.58-0.89-0.92-1.49-1.18
		c-1.11-0.59-4.14-1.14-8.68-1.62l-3.76-4.19l0,0l-0.56-0.62l-7.66-0.01l-0.14-0.07l-0.1,0.07l-10.85-0.02l-0.08-0.05l-0.07,0.05
		l-10.91-0.02l-0.05-0.03l-0.04,0.03l-11.05-0.02l-0.02-0.01l-0.01,0.01l-2.92-0.01c0.01,0,0.02-0.01,0.02-0.01h44.5
		c0.42,0,0.76-0.52,0.76-1.17c0-0.64-0.34-1.17-0.76-1.17h-15.69c0.08-0.16,0.13-0.33,0.13-0.53c0-0.07-0.01-0.13-0.02-0.2
		c-0.01-0.04-0.02-0.07-0.03-0.11c0-0.02-0.01-0.03-0.01-0.05c0,0,0,0.01,0,0.01c-0.09-0.27-0.27-0.49-0.51-0.64v-24.23
		c0.06-0.02,0.12-0.05,0.17-0.07c0,0,0,0,0,0.01c0.05-0.02,0.1-0.04,0.15-0.07l0.09-1.69c0.67-0.17,1.33-0.38,1.96-0.65
		c0.49-0.21,0.9-0.56,1.35-0.84c0.13-0.08,0.27-0.12,0.41-0.16c0.07-0.02,0.15-0.05,0.23-0.07c0.03,0,0.15-0.02,0.11-0.04
		c0.01,0.01,0.02,0.01,0.02,0.01c0.2,0.36,0.35,0.74,0.47,1.12c0.11,0.35,0.23,0.79,0.57,0.98c0.4,0.22,0.89-0.15,1.23-0.33
		c0.59-0.32,1.32-0.32,1.96-0.36c0.72-0.05,1.44-0.06,2.16-0.15c0.69-0.09,1.34-0.32,2-0.52c0.24-0.08,0.49-0.14,0.74-0.2
		c-0.1,0.33-0.22,0.66-0.37,0.96c-0.2,0.42-0.51,0.79-0.78,1.16c-0.14,0.19-0.26,0.39-0.42,0.57c-0.25,0.27-0.51,0.2-0.82,0.11
		c-0.22-0.07-0.4-0.06-0.57,0.01c0,0,0,0,0-0.01c-0.02,0.01-0.04,0.02-0.07,0.04c-0.02,0.01-0.04,0.02-0.06,0.03
		c-0.06,0.04-0.12,0.08-0.18,0.13c-0.02-0.01-0.03-0.01-0.05-0.01c0,0-0.01-0.01-0.01-0.01c-0.05-0.01-0.11-0.02-0.17-0.03
		c-0.23,0-0.45-0.04-0.67-0.05c-0.14-0.01-0.27,0.03-0.41,0.06c0,0,0,0,0,0c-0.03,0.01-0.06,0.01-0.09,0.02
		c-0.01-0.01-0.03-0.01-0.03-0.01c-0.01,0.01-0.01,0.01-0.03,0.02c-0.02,0.01-0.03,0.02-0.03,0.03c-0.08,0.08-0.11,0.21-0.12,0.33
		c-0.01,0.06-0.01,0.12-0.02,0.18c0,0,0,0,0,0c-0.02,0.21-0.03,0.42-0.03,0.62c0,0.13,0,0.27,0,0.4c0,0,0,0,0,0
		c0,0.01,0,0.02,0,0.03c0,0.16,0.01,0.32,0.02,0.49c0,0.04,0.01,0.07,0.01,0.1c0.02,0.18,0.04,0.36,0.07,0.53
		c0.03,0.16,0.1,0.3,0.24,0.39c0.18,0.12,0.43,0.03,0.62-0.01c0.29-0.07,0.59-0.15,0.88-0.24c-0.03,0.05-0.05,0.1-0.06,0.15
		c0,0,0,0,0,0c-0.01,0.02-0.01,0.03-0.01,0.05c-0.07,0.32-0.07,0.66-0.08,0.98c0,0.15,0,0.31,0.01,0.46c0,0,0-0.01,0-0.01
		c0.01,0.14,0.03,0.28,0.05,0.42c0.03,0.24,0,0.54,0.13,0.74c0.04,0.05,0.1,0.03,0.11-0.02c0.31,0.06,0.67-0.03,0.96-0.06
		c0.18-0.03,0.35-0.07,0.53-0.1c0.08-0.01,0.16-0.03,0.24-0.07c0.02,0.01,0.05,0.01,0.07-0.01c0.01-0.01,0.01-0.03,0.02-0.04
		c0.01-0.01,0.03-0.02,0.04-0.02c0.03-0.02,0.02-0.04,0.01-0.06c0.33-0.17,0.69-0.29,0.93-0.6c0.14-0.19,0.2-0.4,0.35-0.58
		c0.14-0.18,0.29-0.35,0.42-0.54c0.8-1.07,1.42-2.5,1.84-3.76c0.21-0.63,0.28-1.31,0.45-1.95c0.07-0.32,0.21-0.61,0.38-0.89
		c0.13-0.21,0.37-0.38,0.4-0.64c0.04-0.28-0.08-0.65-0.18-0.91c-0.02-0.03-0.03-0.07-0.05-0.11c-0.01-0.02-0.02-0.04-0.02-0.05
		c-0.01-0.01-0.01-0.02-0.02-0.03c-0.01-0.01-0.02-0.03-0.03-0.04c-0.01-0.01-0.03-0.02-0.04-0.03c-0.01,0-0.01-0.01-0.02-0.01
		c0,0,0,0,0,0c-0.01,0-0.01-0.01-0.02-0.01c0-0.01,0-0.01-0.01-0.01c-0.16-0.13-0.32-0.14-0.52-0.1c-0.35,0.08-0.68,0.18-1.03,0.25
		c0-0.24,0.01-0.47,0.03-0.71c0.01-0.1,0.03-0.2,0.04-0.3c0.06-0.36,0.15-0.74,0.13-1.1c0-0.01,0-0.01,0-0.02c0,0,0,0.01,0,0.01
		c-0.01-0.13-0.02-0.25-0.06-0.37c-0.16-0.5-0.73-0.42-1.13-0.3c-0.36,0.1-0.7,0.19-1.08,0.22c-0.38,0.02-0.79-0.01-1.17-0.01
		c-0.47,0.01-0.96,0.09-1.44,0.1c-0.13,0-0.25-0.01-0.38-0.02c-0.02,0-0.03,0-0.05-0.01c-0.14-0.02-0.28-0.04-0.42-0.09v-0.01
		c-0.04-0.06-0.11-0.11-0.18-0.14c0-0.08,0.01-0.17,0.01-0.25c0.04,0.02,0.08,0.03,0.12,0.03c0.09,0,0.19-0.04,0.27-0.13
		c0.09-0.09,0.14-0.21,0.13-0.32c-0.02-0.28-0.12-0.5-0.26-0.68c-0.02-0.28-0.07-0.6-0.19-0.95c0.03-0.01,0.07-0.02,0.09-0.05
		l0.06-0.07l-0.01-0.06c-0.04-0.47-0.27-0.87-0.64-1.15c0.18-0.55,0.31-1.11,0.35-1.68c0.01-0.35,0-0.7-0.03-1.05
		c-0.02-0.38-0.01-0.76-0.02-1.14c-0.03-0.8-0.06-1.58,0.07-2.37c0.09-0.48,0.14-1.15,0.64-1.38c0.02,0,0.04,0,0.06,0.01
		c0,0.02,0,0.04,0,0.06c0.14,0.1,0.34,0.05,0.51,0.09c0.07,0.02,0.14,0.05,0.19,0.09c0-0.01,0-0.02,0.01-0.03
		c0.14,0.09,0.27,0.21,0.4,0.33c0.18,0.17,0.39,0.31,0.58,0.47c0.2,0.17,0.36,0.38,0.52,0.59c0.15,0.19,0.3,0.38,0.5,0.51
		c0.05,0.04,0.11,0.07,0.17,0.1c-0.01,0.02-0.02,0.04-0.02,0.04c0.12,0.08,0.68,0.43,0.68,0.43c0-0.01,0-0.02,0.01-0.02
		c0.24,0.24,0.37,0.56,0.6,0.81c0.13,0.15,0.3,0.22,0.49,0.26c0.26,0.05,0.54-0.06,0.8,0c0.03,0.04,0.06,0.07,0.11,0.11
		c0.25,0.19,0.55-0.07,0.75-0.19c0.17-0.1,0.35-0.05,0.5-0.19c0.06-0.07,0.09-0.16,0.1-0.26c0.03-0.13,0.05-0.26,0.05-0.4
		c-0.01-0.23,0.05-0.41,0.17-0.61c0.19-0.33,0.49-0.55,0.72-0.84c0.04-0.05,0.06-0.09,0.08-0.13c0-0.01,0.01-0.02,0.01-0.03
		c0.13-0.45-0.71-0.77-0.93-1.05c-0.06-0.08-0.11-0.17-0.17-0.26c0.05,0,0.07,0.01,0.07,0.01l-0.33-0.62
		c-0.05,0-0.09-0.01-0.14-0.01c-0.01-0.02-0.02-0.03-0.03-0.05c-0.24-0.35-0.45-0.72-0.66-1.09c-0.2-0.38-0.3-0.75-0.39-1.17
		c-0.05-0.23-0.09-0.44-0.11-0.68c-0.01-0.13-0.01-0.27-0.03-0.4c0,0,0,0,0,0c0-0.01,0-0.03-0.01-0.04c0.05-0.04,0.1-0.08,0.14-0.12
		c0.01-0.01,0.01-0.02,0.02-0.03c0.03-0.04,0.06-0.08,0.08-0.12c0-0.01,0-0.02,0.01-0.03c0.02-0.05,0.02-0.09,0.02-0.14
		c0-0.02-0.01-0.04-0.01-0.06c0-0.03,0-0.05-0.01-0.08c0,0-0.01,0.01-0.01,0.01c-0.01-0.03-0.01-0.05-0.02-0.07
		c-0.11-0.2-0.3-0.33-0.45-0.5c-0.14-0.15-0.25-0.32-0.36-0.49c0,0,0,0,0,0c-0.02-0.03-0.04-0.07-0.06-0.1
		c0.14-0.2,0.24-0.43,0.33-0.62c0.03-0.07,0.05-0.13,0.07-0.2L287,96.1c0.56-0.44,0.69-1.11,0.53-1.79
		c-0.14-0.59-0.53-1.17-1.19-1.17c0,0,0,0,0,0c0,0,0,0-0.01,0c0,0,0,0,0,0c0,0,0,0,0,0c-0.06-0.07-0.12-0.14-0.18-0.2
		c-0.02-0.02-0.05-0.04-0.07-0.06c-0.04-0.04-0.08-0.07-0.13-0.11c-0.04-0.03-0.07-0.05-0.11-0.07c-0.03-0.02-0.07-0.05-0.1-0.07
		c-0.04-0.03-0.09-0.05-0.13-0.07c-0.03-0.01-0.06-0.03-0.09-0.04c-0.05-0.02-0.1-0.04-0.14-0.05c-0.03-0.01-0.06-0.02-0.09-0.02
		c-0.05-0.01-0.1-0.02-0.15-0.02c-0.03,0-0.06,0-0.09,0c-0.05,0-0.1,0-0.15,0.01c-0.02,0-0.05,0.01-0.07,0.02c-0.01,0-0.01,0-0.02,0
		c0,0,0,0,0-0.01c-0.02,0.01-0.04,0.01-0.06,0.02c-0.03,0.01-0.07,0.02-0.1,0.03c0.02-0.1,0.03-0.2-0.01-0.31
		c-0.01-0.03-0.01-0.06-0.03-0.09c0-0.01-0.01-0.01-0.02-0.02c-0.01-0.01-0.01-0.02-0.03-0.03c0,0,0,0.01,0,0.01
		c-0.02-0.01-0.03-0.03-0.05-0.03c-0.08-0.02-0.18,0.02-0.27,0.07c-0.01-0.07-0.04-0.13-0.08-0.19c-0.01-0.01-0.01-0.02-0.02-0.03
		c-0.04-0.06-0.08-0.11-0.13-0.16c0,0,0,0,0,0c-0.21-0.2-0.53-0.32-0.78-0.35c-0.59-0.08-1.16,0.05-1.69,0.3
		c-0.56,0.27-1,0.74-1.55,1.05c-0.22,0.13-0.46,0.22-0.72,0.25c-0.22,0.01-0.37-0.1-0.44-0.3c-0.07-0.19-0.02-0.35,0.07-0.53
		c0.01-0.01-0.01-0.03-0.02-0.02c-0.05,0.05-0.09,0.1-0.11,0.16c-0.01,0-0.01,0-0.01,0c-0.02,0.03-0.04,0.06-0.06,0.09
		c0,0,0-0.01,0-0.01c-0.01,0.02-0.02,0.03-0.03,0.05c-0.01,0.01-0.01,0.02-0.02,0.03c-0.02,0.03-0.03,0.06-0.04,0.08
		c-0.01,0.03-0.02,0.05-0.03,0.08c0,0.01-0.01,0.02-0.01,0.03c-0.01,0.04-0.02,0.08-0.03,0.12c0,0,0,0,0,0
		c-0.03,0.22,0.04,0.44,0.24,0.63c0.01,0,0.01,0.01,0.02,0.02c-0.05-0.02-0.1-0.03-0.16-0.04c0,0,0.01,0,0.01,0.01
		c-0.9-0.19-1.9,0.08-2.43,0.87c-0.33,0.51-0.26,1.11-0.32,1.69c-0.03,0.34-0.08,0.61-0.4,0.78c-0.04,0.02-0.07,0.03-0.11,0.04
		c-0.06,0.02-0.13,0.03-0.19,0.02c-0.02,0-0.04,0-0.05,0c-0.06-0.01-0.12-0.02-0.17-0.05c-0.02-0.01-0.03-0.02-0.05-0.02
		c-0.06-0.03-0.11-0.06-0.16-0.1c-0.01-0.01-0.02-0.01-0.03-0.02c-0.06-0.05-0.11-0.09-0.15-0.15c-0.01-0.01-0.02,0-0.01,0.01
		c0.03,0.05,0.06,0.09,0.09,0.13c0,0.01,0,0.01,0,0.01c0.04,0.13,0.11,0.24,0.21,0.32c0,0-0.01,0-0.01,0
		c0.02,0.02,0.05,0.03,0.07,0.04c0.03,0.02,0.06,0.04,0.1,0.06c0.03,0.01,0.05,0.02,0.08,0.03c0.04,0.02,0.09,0.03,0.14,0.04
		c0.02,0,0.04,0.01,0.06,0.01c0.06,0.01,0.12,0.02,0.18,0.02c0.01,0,0.02,0,0.03,0c0.16,0,0.31-0.02,0.44-0.06
		c-0.28,0.17-0.54,0.36-0.75,0.61c-0.05,0.07-0.1,0.14-0.14,0.21c-0.02,0.04-0.04,0.09-0.06,0.13c-0.01,0.03-0.03,0.06-0.04,0.1
		c-0.02,0.05-0.04,0.11-0.06,0.17c0,0.02-0.01,0.03-0.01,0.05c-0.04,0.15-0.08,0.31-0.1,0.46c-0.05,0.52,0.09,1.04-0.06,1.55
		c-0.07,0.25-0.25,0.49-0.47,0.61c-0.23,0.12-0.38,0-0.5-0.17c0,0,0,0,0,0c-0.01-0.01-0.01-0.02-0.02-0.03
		c0-0.02-0.01-0.05-0.01-0.06c0-0.03-0.01-0.06-0.01-0.09c-0.01-0.04-0.01-0.08-0.02-0.11c0-0.02-0.03-0.02-0.03,0
		c-0.01,0.06-0.01,0.12-0.01,0.18c0,0,0,0.01,0,0.01c0,0,0,0,0,0c-0.01,0.01-0.01,0.02-0.01,0.03c0,0.03,0.01,0.06,0.02,0.09
		c0.01,0.23,0.06,0.44,0.27,0.64c0.19,0.19,0.51,0.25,0.75,0.16c0,0.01-0.01,0.01-0.02,0.01c-0.04,0.04-0.09,0.07-0.13,0.11
		c0.02-0.01,0.03-0.02,0.05-0.03c-0.24,0.2-0.44,0.44-0.6,0.71c-0.07,0.13-0.12,0.26-0.17,0.4c-0.01,0.03-0.02,0.06-0.03,0.1
		c0,0.01-0.01,0.02-0.01,0.03c0,0,0,0,0-0.01c-0.04,0.15-0.07,0.31-0.09,0.47c-0.03,0.29-0.03,0.63,0.05,0.93c0,0,0,0,0,0
		c0.02,0.06,0.04,0.11,0.05,0.16c-0.09,0.07-0.17,0.14-0.25,0.22c-0.01,0.01-0.01,0.01-0.02,0.02c0,0,0.01-0.01,0.01-0.01
		c-0.05,0.05-0.1,0.1-0.15,0.16c-0.23,0.3-0.35,0.7-0.44,1.07c-0.02,0.09-0.04,0.19-0.05,0.28c0,0,0,0,0,0c0,0,0,0,0,0
		c0,0.02-0.01,0.05-0.01,0.07c0,0.04,0,0.07-0.01,0.11c0,0,0-0.01,0.01-0.01c-0.01,0.11-0.01,0.22-0.02,0.34c0,0.02,0,0.03,0,0.05
		c-0.04,0.02-0.08,0.04-0.12,0.06c-0.01,0-0.01,0-0.02,0c-0.11,0-0.21,0.06-0.27,0.15c-0.02,0.05-0.02,0.1-0.01,0.15
		c-0.03,0.04-0.05,0.08-0.07,0.12c-0.04,0.03-0.09,0.05-0.14,0.08c0.21-0.32,0.02-0.8-0.34-0.5c0,0,0,0-0.01,0
		c0.08-0.08,0.13-0.17,0.14-0.27c0.03-0.39-0.13-0.54-0.32-0.42v-29.8c0.6-0.22,1.17-0.46,1.73-0.7c-0.25,0.23-0.42,0.56-0.42,0.93
		c0,0.69,0.56,1.26,1.26,1.26c0.7,0,1.26-0.56,1.26-1.26c0-0.69-0.57-1.26-1.26-1.26c-0.04,0-0.08,0.01-0.11,0.01
		c1.7-0.77,3.25-1.63,4.65-2.5c-0.03,0.05-0.06,0.11-0.09,0.17c-0.01,0.02-0.02,0.04-0.03,0.07c-0.02,0.06-0.04,0.11-0.05,0.17
		c-0.01,0.02-0.01,0.05-0.02,0.07c-0.01,0.08-0.03,0.16-0.03,0.25c0,0.75,0.61,1.36,1.36,1.36c0.76,0,1.36-0.61,1.36-1.36
		c0-0.08-0.01-0.17-0.03-0.25c-0.01-0.03-0.02-0.06-0.02-0.09c-0.01-0.03-0.01-0.06-0.02-0.09c0,0.01,0,0.01,0,0.02
		c-0.17-0.55-0.68-0.95-1.29-0.95c-0.06,0-0.12,0.01-0.18,0.02c3.1-2.05,5.34-4.14,6.68-5.53c0.01,0.75,0.62,1.35,1.36,1.35
		c0.74,0,1.36-0.61,1.36-1.36c0-0.08-0.01-0.16-0.02-0.23c-0.01-0.06-0.03-0.11-0.04-0.17c0-0.01,0-0.02-0.01-0.03c0,0,0,0,0,0.01
		c-0.18-0.54-0.69-0.94-1.29-0.94c-0.04,0-0.09,0.01-0.13,0.01c0.14-0.17,0.22-0.27,0.23-0.28l-0.1-0.08c0,0,0,0,0,0l-0.01-0.01
		c0.61-0.48,0.63-0.82,0.37-0.93c-0.02-0.01-0.05-0.02-0.07-0.02c0,0,0,0,0,0c-0.13-0.03-0.31-0.02-0.51,0.04v-4.25V59.6
		c1.4-0.96,0.64-1.63-0.21-1.35c-0.07,0.02-0.15,0.05-0.22,0.08c-1.72-0.4-3.4-0.83-5.01-1.29c-0.09-0.02-0.17-0.05-0.26-0.08
		c-0.8-0.23-1.59-0.46-2.36-0.7c-0.2-0.06-0.4-0.13-0.6-0.2c-0.64-0.2-1.29-0.41-1.91-0.62c-0.26-0.09-0.51-0.18-0.77-0.27
		c-0.55-0.19-1.11-0.38-1.65-0.58c-0.26-0.09-0.5-0.19-0.76-0.29c-0.53-0.2-1.06-0.4-1.57-0.6c-0.19-0.08-0.38-0.15-0.57-0.23
		c-0.57-0.23-1.13-0.46-1.68-0.69c-0.08-0.04-0.16-0.07-0.25-0.11c-0.65-0.28-1.29-0.56-1.91-0.84c0.01,0.01,0.02,0.01,0.04,0.02
		c-11.99-5.46-19.03-11.79-22.25-15.21c0,0,0,0,0,0c-0.66-0.7-1.15-1.27-1.51-1.69c0,0,0-0.01,0.01-0.01
		c0.01-0.01,0.02-0.02,0.03-0.04c0.03-0.05,0.06-0.09,0.08-0.14c0-0.01,0-0.01,0.01-0.02c0.01-0.04,0.03-0.08,0.03-0.12
		c0-0.02,0-0.04,0-0.06c0-0.02,0-0.05,0-0.07c0-0.02-0.01-0.05-0.01-0.07c0-0.02-0.01-0.03-0.01-0.05
		c-0.01-0.03-0.02-0.06-0.03-0.08c0,0,0,0,0,0c0,0,0,0,0,0c-0.14-0.28-0.51-0.47-0.95-0.4c-0.11-0.13-0.23-0.27-0.34-0.4
		c-0.04-0.05-0.08-0.09-0.11-0.14c-0.19-0.23-0.37-0.47-0.55-0.71c0,0,0,0,0,0c-1.19-1.58-2.16-3.19-2.88-4.56
		c-0.01-0.03-0.03-0.05-0.04-0.08c-0.04-0.08-0.09-0.16-0.13-0.25c-0.05-0.1-0.1-0.2-0.15-0.29c-0.01-0.01-0.01-0.03-0.02-0.04
		c-0.5-1-0.86-1.81-1.07-2.33c0.85-0.01,1.55-0.71,1.55-1.56c0-0.1-0.01-0.19-0.03-0.28c-0.01-0.03-0.02-0.07-0.02-0.1
		c-0.01-0.04-0.02-0.08-0.03-0.11c0,0.01,0,0.02,0,0.04c-0.07-0.23-0.19-0.43-0.35-0.6l2.4,1.13l-0.84-3.86l2.7-2.88l-3.94-0.39
		l-1.9-3.46l-1.59,3.62l-3.89,0.74l2.96,2.62l-0.49,3.93l2.13-1.25c0,0,0,0,0,0c-0.05,0.07-0.09,0.15-0.12,0.22
		c-0.01,0.02-0.02,0.05-0.03,0.07c-0.03,0.07-0.05,0.13-0.06,0.2c-0.01,0.03-0.01,0.05-0.02,0.08c-0.02,0.09-0.03,0.19-0.03,0.29
		c0,0.71,0.48,1.31,1.14,1.5c-1.61,3.94-4.43,7.56-5.27,8.59c-0.06-0.01-0.11-0.02-0.17-0.02c-0.01,0-0.02,0-0.03,0
		c-0.34-0.01-0.55,0.12-0.63,0.32c0,0,0,0.01,0,0.01c-0.01,0.04-0.02,0.07-0.03,0.11c0,0.01,0,0.01,0,0.02c0,0.04,0,0.08,0.01,0.12
		c0,0.01,0,0.01,0,0.02c0.01,0.04,0.02,0.08,0.04,0.12c0,0,0,0.01,0,0.01c0.02,0.04,0.04,0.09,0.07,0.13c0,0,0,0.01,0,0.01
		c0,0,0,0,0,0c-0.22,0.26-0.44,0.52-0.68,0.77c-0.03,0.03-0.05,0.06-0.08,0.08c-0.37,0.4-0.75,0.79-1.14,1.18
		c-6.73,6.71-16.64,11.98-25.15,15.65c0,0,0-0.01,0.01-0.01c-8.07,3.48-14.88,5.52-16.54,6c-0.2-0.07-0.38-0.11-0.53-0.12
		c-0.07,0-0.14,0-0.2,0.01c-0.02,0-0.04,0.01-0.06,0.01c-0.07,0.02-0.13,0.04-0.18,0.07c-0.01,0.01-0.02,0.02-0.03,0.03
		c-0.04,0.04-0.08,0.08-0.11,0.13c-0.01,0.01-0.01,0.02-0.02,0.03c-0.03,0.06-0.05,0.14-0.06,0.22c0,0.02,0,0.04-0.01,0.06
		c-0.01,0.09-0.01,0.2,0.01,0.32c0.02,0.18,0.21,0.45,0.72,0.78v3.67v0.11c-0.06-0.01-0.12-0.01-0.18,0c0,0,0,0,0-0.01
		c-0.01,0-0.02,0.01-0.04,0.01c-0.49,0.07-0.42,0.58-0.04,1.06c0,0.01,0.01,0.01,0.01,0.02c0.05,0.07,0.11,0.14,0.18,0.2
		c0.04,0.04,0.09,0.08,0.16,0.13c0,0,0,0,0,0c0,0,0,0,0,0c0.13,0.39,0.45,1.22,1.13,2.29c-0.08-0.01-0.16-0.02-0.24-0.02
		c-0.22,0-0.42,0.05-0.6,0.14c-0.04,0.02-0.09,0.04-0.13,0.07c-0.02,0.01-0.04,0.03-0.07,0.04c-0.05,0.04-0.1,0.07-0.14,0.12
		c-0.01,0.01-0.03,0.02-0.04,0.04c-0.06,0.06-0.11,0.12-0.15,0.19c0,0.01-0.01,0.02-0.01,0.02c-0.04,0.06-0.07,0.12-0.1,0.19
		c-0.01,0.02-0.02,0.05-0.03,0.07c-0.02,0.05-0.04,0.11-0.05,0.17c-0.01,0.02-0.01,0.05-0.02,0.07c-0.02,0.08-0.03,0.16-0.03,0.25
		c0,0.74,0.61,1.36,1.36,1.36c0.69,0,1.26-0.52,1.34-1.19c0.21,0.26,0.44,0.52,0.69,0.79c0.61,0.65,1.26,1.24,1.95,1.79
		c-0.12-0.04-0.25-0.06-0.38-0.06c-0.69,0-1.25,0.57-1.25,1.26c0,0.69,0.56,1.26,1.25,1.26c0.7,0,1.27-0.56,1.27-1.26
		c0-0.24-0.07-0.46-0.19-0.66c1.18,0.87,2.44,1.61,3.72,2.24c-0.16,0-0.32,0.04-0.47,0.09c0,0,0,0,0,0c0,0,0,0-0.01,0
		c-0.03,0.01-0.07,0.03-0.1,0.05c-0.04,0.02-0.07,0.04-0.11,0.06c-0.03,0.02-0.06,0.04-0.1,0.07c-0.03,0.02-0.06,0.05-0.09,0.08
		c-0.03,0.02-0.05,0.05-0.08,0.07c-0.05,0.05-0.1,0.11-0.14,0.17c-0.01,0.02-0.03,0.04-0.04,0.07c-0.03,0.05-0.05,0.09-0.08,0.14
		c-0.01,0.03-0.02,0.05-0.03,0.08c-0.02,0.05-0.04,0.1-0.05,0.16c-0.01,0.03-0.01,0.05-0.02,0.08c-0.01,0.08-0.02,0.16-0.02,0.25
		c0,0.75,0.6,1.36,1.36,1.36c0.75,0,1.36-0.6,1.36-1.36c0-0.08-0.01-0.16-0.02-0.24c-0.01-0.04-0.02-0.07-0.03-0.11
		c-0.01-0.02-0.01-0.05-0.02-0.07c0,0.01,0,0.01,0,0.02c-0.05-0.16-0.13-0.31-0.24-0.44c1.24,0.54,2.47,0.99,3.66,1.35
		c-0.57,0.12-0.99,0.63-0.99,1.23c0,0.69,0.56,1.26,1.26,1.26c0.7,0,1.26-0.56,1.26-1.26c0-0.35-0.15-0.67-0.38-0.9
		c0.23,0.06,0.45,0.12,0.67,0.18v33.18c-0.39-0.22-0.89,0.7-0.16,0.82c-0.53-0.05-0.56,0.51-0.4,0.77c0.04,0.06,0.14,0.08,0.28,0.07
		c-0.55,0.14-1.21,0.27-2.04,0.37c0,0,0,0,0,0c-0.15,0.02-0.31,0.04-0.47,0.05c0,0.01,0,0.01,0,0.02c0,0-0.01,0-0.01,0
		c0-0.01,0-0.01,0-0.02c-0.52,0.06-1.02,0.08-1.48,0.09c0,0,0,0,0,0c-0.07,0-0.15,0-0.23,0c0,0-0.01,0.01-0.01,0.02h0
		c0-0.01,0-0.01,0-0.02c-0.2,0-0.39,0-0.58-0.01c0,0,0,0,0,0c-0.8-0.04-1.48-0.13-2.04-0.24c0,0,0,0,0,0
		c-0.02,0-0.04-0.01-0.06-0.01c0,0,0,0-0.01,0c0,0,0,0,0,0c-0.01,0-0.02,0-0.04-0.01c0,0,0,0-0.01,0c-0.5-0.11-0.9-0.24-1.19-0.35
		c-0.11-0.04-0.21-0.08-0.3-0.12c-0.02-0.01-0.04-0.02-0.06-0.03c-0.23-0.1-0.43-0.17-0.59-0.23c-0.19-0.16-0.4-0.3-0.65-0.38
		c-0.16-0.05-0.41-0.09-0.56,0.03c-0.03,0.02-0.05,0.04-0.07,0.06c-0.01-0.01-0.02-0.01-0.03,0.01c-0.12,0.16-0.13,0.3-0.09,0.44
		c-0.01,0.01-0.01,0.03-0.01,0.04c0,0.01,0.01,0.02,0.02,0.01c0.01,0.04,0.03,0.08,0.05,0.11c-0.09,0.01-0.19,0.02-0.28,0.04
		c-0.27,0.06-0.54,0.16-0.8,0.28c-0.01-0.01-0.01-0.02-0.02-0.03c-0.02-0.16-0.06-0.31-0.11-0.46c-0.01-0.02-0.01-0.04-0.01-0.06
		c0,0,0,0.01,0,0.01c-0.25-0.77-0.83-1.43-1.59-1.73c-1.01-0.4-2.21-0.29-3.19,0.13c-1.07,0.47-1.92,1.29-2.52,2.28
		c-0.32,0.53-0.48,1.16-0.83,1.69c-0.14,0.22-0.35,0.38-0.57,0.53c-0.11,0.07-0.27,0.19-0.39,0.09c-0.07-0.05-0.09-0.1-0.17-0.13
		c-0.01,0-0.02,0.01-0.01,0.03c0.03,0.02,0.05,0.04,0.07,0.06c-0.01,0-0.01,0.01-0.01,0.01c0.02,0.05,0.05,0.1,0.08,0.15
		c-0.01,0-0.01-0.01-0.02-0.01c0.09,0.12,0.24,0.23,0.41,0.31c0,0,0.01,0,0.01,0.01c0.05,0.02,0.1,0.04,0.15,0.06
		c0.01,0,0.01,0,0.02,0.01c0.05,0.01,0.1,0.02,0.15,0.03c0.01,0,0.02,0,0.03,0c0.05,0,0.09,0,0.14,0c0.01,0,0.02,0,0.03,0
		c0.05-0.01,0.1-0.02,0.15-0.04c-0.07,0.14-0.12,0.29-0.16,0.44c-0.01,0.04-0.02,0.07-0.03,0.11c-0.03,0.11-0.05,0.22-0.07,0.33
		c-0.01,0.09-0.03,0.19-0.03,0.28c-0.01,0.07-0.01,0.13-0.02,0.2c0-0.01,0-0.01,0.01-0.02c-0.01,0.24-0.01,0.48,0,0.7
		c0.01,0.2,0.05,0.39,0.09,0.59c0,0.01,0,0.02,0,0.03c0,0,0-0.01,0-0.01c0.12,0.56,0.33,1.11,0.45,1.67c0.17,0.8,0.23,1.67-0.1,2.44
		c-0.14,0.32-0.36,0.61-0.65,0.81c-0.01,0.01-0.03,0.01-0.05,0.02c-0.07,0.04-0.14,0.08-0.21,0.11c-0.01,0-0.03,0.01-0.04,0.01
		c-0.23,0.07-0.47,0.07-0.72,0.06c-0.02-0.03-0.04-0.06-0.07-0.09c-0.01-0.01-0.03-0.01-0.03,0.01c0.04,0.13,0.11,0.23,0.2,0.32
		c-0.01,0-0.01,0-0.02,0c0.02,0.02,0.04,0.03,0.06,0.05c0.06,0.06,0.13,0.11,0.21,0.16c0.03,0.02,0.05,0.03,0.08,0.04
		c0.11,0.05,0.22,0.09,0.34,0.12c0.22,0.06,0.61,0.07,0.87-0.06c-0.25,0.5-0.28,1.13-0.18,1.67c0.02,0.11,0.05,0.22,0.08,0.33
		c0.01,0.04,0.03,0.09,0.05,0.13c0.02,0.06,0.04,0.13,0.07,0.19c0.02,0.06,0.05,0.12,0.08,0.17c0.02,0.04,0.04,0.08,0.06,0.12
		c0.07,0.14,0.15,0.29,0.23,0.43c0.26,0.4,0.57,0.85,0.93,1.18c0.02,0.01,0.03,0.03,0.05,0.05c0,0.01,0.01,0.01,0.03,0.01
		c0,0.01,0.01,0.02,0.02,0.03c0.03,0.03,0.08-0.02,0.05-0.05c-0.01-0.01-0.02-0.03-0.03-0.03c0,0,0-0.01-0.01-0.02
		c-0.44-0.59,0.29-1.26,0.71-1.6c0.47-0.39,0.9-0.82,1.29-1.28c0-0.01,0.01-0.01,0.01-0.01c-0.01,0.03,0.03,0.05,0.05,0.03
		c0.03-0.03,0.07-0.06,0.11-0.1c0.9-0.4,1.72-0.92,2.22-1.83c0.07-0.11,0.12-0.23,0.17-0.35c0,0.01-0.01,0.01-0.01,0.02
		c0.17-0.4,0.28-0.84,0.33-1.27c0-0.01,0-0.03,0-0.04c0.4,0.76,0.84,1.51,1.25,2.27c0.2,0.38,0.38,0.77,0.47,1.19
		c0.06,0.24,0.09,0.49,0.1,0.74c0,0.1-0.01,0.19-0.02,0.28c-0.01,0.09-0.03,0.18-0.05,0.27c0,0,0-0.01,0.01-0.01
		c0,0.02-0.01,0.04-0.01,0.06v0.01c-0.04,0.09-0.07,0.18-0.11,0.27c-0.01,0.01-0.03,0.03-0.04,0.04c-0.04,0.03-0.08,0.06-0.12,0.09
		c-0.07,0.05-0.13,0.1-0.21,0.14c-0.36,0.19-0.76,0.29-1.13,0.48c-0.3,0.15-0.48,0.43-0.43,0.77c0.03,0.17,0.1,0.34,0.16,0.5
		c0.01,0.03,0.02,0.06,0.04,0.09c-0.3,0.14-0.61,0.26-0.89,0.42c-0.23,0.13-0.48,0.2-0.74,0.27c-0.15,0.05-0.32,0.11-0.39,0.27
		c-0.09,0.17-0.08,0.37-0.11,0.56c-0.02,0.13-0.05,0.26-0.05,0.4c0,0.07,0,0.15,0.03,0.21c0.09,0.19,0.22,0.33,0.36,0.48
		c0.21,0.22,0.32,0.43,0.4,0.72c0.17,0.55,0.31,1.12,0.45,1.69c0.13,0.56,0.3,1.08,0.54,1.61c0.14,0.31,0.21,0.61,0.24,0.94
		c0.01,0.15,0.04,0.31,0.06,0.47c-0.04,0.03-0.08,0.07-0.12,0.09c0,0,0,0,0,0c-0.25,0.18-0.55,0.23-0.86,0.22
		c-0.09,0-0.17-0.02-0.26-0.03c-0.04-0.01-0.07-0.01-0.11-0.02c-0.09-0.02-0.17-0.04-0.26-0.06c-0.27-0.07-0.58-0.05-0.81,0.09
		c0,0,0,0,0-0.01c-0.05,0.03-0.11,0.07-0.15,0.11c-0.01,0.01-0.01,0.04,0.02,0.04c-0.03,0.05-0.05,0.1-0.07,0.16
		c0.01,0,0.01-0.01,0.02-0.01c-0.11,0.34-0.04,0.76-0.02,1.1c0,0.02,0,0.03,0,0.04c0,0,0-0.01,0-0.01c0,0.08,0.01,0.15,0.02,0.23
		c0,0.05,0.01,0.1,0.01,0.15c0,0.02,0.01,0.05,0.01,0.07c0.04,0.36,0.12,0.7,0.28,1.04c0.1,0.21,0.23,0.42,0.37,0.61
		c0.08,0.12,0.19,0.22,0.35,0.21c0.06-0.01,0.13-0.05,0.18-0.09c0.11-0.07,0.24-0.13,0.37-0.17c0.2-0.07,0.42-0.09,0.63-0.16
		c0,0.01,0,0.01,0.01,0.01c0.03,0,0.06,0,0.09,0c0,0,0,0,0,0c0.26,0.01,0.49-0.11,0.65-0.31c0.07-0.09,0.13-0.22,0.13-0.33
		c0.02-0.27,0.05-0.5,0.13-0.75c0.07-0.21,0.1-0.44,0.17-0.65c0-0.01,0-0.01,0.01-0.02c0.04,0.01,0.07,0.01,0.12,0
		c0.23-0.03,0.39-0.2,0.56-0.35c0.27-0.24,0.53-0.51,0.79-0.77c0.2-0.19,0.35-0.35,0.45-0.61c0.11-0.27,0.12-0.58,0.1-0.88
		c-0.03-0.64-0.3-1.24-0.52-1.83c-0.27-0.74-0.23-1.52-0.2-2.29c0.03-0.74,0.07-1.46,0.32-2.16c1.13-0.31,2.21-0.8,3.27-1.29
		c0.42-0.2,0.84-0.42,1.11-0.79c0.09-0.12,0.16-0.24,0.22-0.37c0.04-0.07,0.07-0.15,0.1-0.23c0.02-0.04,0.04-0.08,0.05-0.12
		c0.01-0.03,0.03-0.07,0.04-0.1c-0.01,0.01-0.01,0.02-0.02,0.02c0.07-0.22,0.12-0.44,0.16-0.67c0.08-0.43,0.14-0.87,0.2-1.31
		c0.02-0.01,0.04-0.01,0.06-0.02c0,0,0,0,0,0c0.36-0.12,0.75-0.16,1.13-0.17c0.01,0,0.02,0,0.03,0c0.12,0,0.24,0,0.36,0.01
		c0.01,0,0.02,0,0.04,0c0.51,0.04,1.02,0.13,1.49,0.23c0.19,0.04,0.38,0.08,0.58,0.11c0,0.02,0,0.03-0.01,0.05
		c-0.02,0.09,0.01,0.17,0.06,0.24c0.05,0.07,0.12,0.11,0.22,0.13h0.03c0.16,0,0.29-0.12,0.32-0.27c0.17,0.02,0.4,0.02,0.66-0.03
		c0.18-0.03,0.46-0.09,0.77-0.16l0.09,1.19c0,0,0.01,0.01,0.03,0.02c0,0,0.01,0,0.01,0.01c0.02,0.01,0.05,0.03,0.08,0.04
		c0.01,0,0.02,0.01,0.03,0.01c0.04,0.02,0.08,0.03,0.12,0.05c0.01,0,0.02,0.01,0.03,0.01c0.02,0.01,0.03,0.01,0.05,0.02v20.97
		c-0.06,0.03-0.11,0.06-0.16,0.1c-0.02,0.01-0.04,0.03-0.05,0.04c-0.07,0.06-0.14,0.13-0.19,0.2c-0.01,0.01-0.01,0.01-0.02,0.02
		c-0.06,0.08-0.1,0.17-0.13,0.27c-0.01,0.02-0.02,0.05-0.02,0.07c-0.03,0.1-0.05,0.2-0.05,0.31c0,0.19,0.05,0.36,0.13,0.51h-14.85
		c-0.42,0-0.75,0.52-0.75,1.17c0,0.65,0.34,1.17,0.75,1.17h0.03l-3.08,4.79c-5.16,0.51-8.61,1.1-9.8,1.73
		c-0.6,0.26-1.13,0.61-1.49,1.18c-0.44,0.7-0.82,1.42-1.08,2.19c-0.49,1.48-0.91,3.19-0.67,4.76c0.3,0.16,0.73,0.25,1.18,0.07
		c0.38-0.15,0.72-0.32,1.01-0.49c-0.1,0.38-0.13,0.78-0.14,1.21c-0.01,0.93-0.02,1.95,0.78,2.84c0.25,0.28,1.01,0.96,1.84,0.56
		c0.44-0.22,0.72-0.54,0.95-0.87c0.66,1.05,1.28,2.11,2.3,3.1c0.08,0.07,0.24,0.17,0.44,0.22c0.05,0.24,0.11,0.47,0.16,0.71
		c0.01,0.03,0.01,0.05,0.02,0.08c0.06,0.25,0.12,0.5,0.18,0.74c0,0.02,0.01,0.04,0.01,0.06c0.06,0.25,0.13,0.5,0.2,0.75
		c0,0.01,0.01,0.02,0.01,0.04c0.07,0.25,0.14,0.5,0.21,0.75c0,0.01,0.01,0.02,0.01,0.03c0.07,0.25,0.15,0.5,0.22,0.74
		c0,0.01,0,0.01,0.01,0.02c0.08,0.25,0.15,0.49,0.23,0.72c0,0,0,0.01,0,0.01c0.08,0.24,0.16,0.47,0.24,0.7c0,0,0,0.01,0,0.01
		c0.08,0.23,0.17,0.45,0.25,0.67c0,0,0,0.01,0,0.01c0.09,0.22,0.17,0.43,0.26,0.63c0,0.01,0,0.01,0.01,0.02
		c0.09,0.2,0.18,0.4,0.27,0.59c0,0.01,0.01,0.01,0.01,0.02c0.09,0.19,0.18,0.37,0.27,0.54c0,0.01,0.01,0.01,0.01,0.02c0,0,0,0,0,0
		c0.01,0.03,0.03,0.05,0.04,0.08c-0.07-0.03-0.14-0.07-0.2-0.1c0.02,0.03,0.03,0.05,0.05,0.09c0.07,0.05,0.15,0.1,0.22,0.16
		c0,0,0,0,0,0c0.04,0.03,0.08,0.05,0.11,0.08c0.31,0.23,0.63,0.45,0.97,0.67c0.03,0.02,0.07,0.04,0.1,0.06
		c0.36,0.23,0.72,0.45,1.1,0.67c0.01,0.01,0.03,0.02,0.04,0.02c2.46,1.41,5.41,2.63,8.71,3.71c2.77,0.69,5.85,1.35,8.87,1.93
		c-0.11,1.5,0.58,2.92,1.72,4.21c0.05,0.06,0.12,0.12,0.19,0.19c0.01,0.01,0.03,0.03,0.04,0.04c0.08,0.07,0.16,0.14,0.25,0.21
		c0.01,0.01,0.02,0.01,0.02,0.02c0.09,0.07,0.2,0.15,0.31,0.22c0.01,0.01,0.03,0.02,0.04,0.03c0.12,0.08,0.24,0.16,0.38,0.25
		c0.02,0.01,0.04,0.02,0.06,0.03c0.13,0.08,0.27,0.17,0.41,0.25c0.01,0.01,0.02,0.01,0.03,0.02c0.15,0.09,0.3,0.18,0.46,0.27
		c0.04,0.02,0.08,0.05,0.13,0.07c0.14,0.08,0.28,0.16,0.43,0.23c0.07,0.04,0.15,0.08,0.23,0.12c0.1,0.05,0.21,0.11,0.32,0.17
		c0.08,0.04,0.17,0.09,0.25,0.13c0,0,0,0,0,0c0.17,0.08,0.33,0.17,0.51,0.26c0.1,0.05,0.2,0.1,0.29,0.14
		c0.1,0.05,0.19,0.09,0.29,0.14c0.12,0.06,0.25,0.12,0.37,0.18c0.07,0.03,0.14,0.07,0.21,0.1c0.48,0.23,0.98,0.45,1.49,0.68
		c0.02,0.01,0.05,0.02,0.07,0.03c0.18,0.08,0.36,0.16,0.54,0.24c0.01,0.01,0.03,0.01,0.04,0.02c0.56,0.24,1.14,0.48,1.71,0.71
		c0.02,0.01,0.03,0.01,0.05,0.02c0.19,0.08,0.38,0.15,0.56,0.22c0.02,0.01,0.03,0.01,0.05,0.02c0.55,0.21,1.1,0.42,1.64,0.61
		c0.05,0.02,0.1,0.04,0.16,0.06c0.16,0.06,0.31,0.11,0.47,0.16c0.01,0,0.02,0.01,0.03,0.01c0.12,0.82,0.22,1.42,0.28,1.63
		c0.01,0.02,0.02,0.05,0.04,0.08c0.09,0.21,0.37,0.67,0.68,1.06c0.03,0.03,0.06,0.07,0.08,0.1c0.03,0.03,0.05,0.06,0.08,0.09
		c0.05,0.05,0.09,0.1,0.14,0.14c0.02,0.01,0.03,0.03,0.05,0.04c0.06,0.06,0.13,0.1,0.19,0.13c1.54,0.83,2.53,0.57,3.15,0.35
		c0.29-0.1,0.59-0.21,0.88-0.32c0.04-0.01,0.08-0.03,0.12-0.04c0,0,0,0,0,0c1.11-0.41,2.2-0.9,2.82-1.79
		c0.48-0.68,0.89-1.45,1.21-2.28c3.24-1.08,7.55-3.12,11.25-5.27c3.7,2.14,8.01,4.19,11.25,5.27c0.33,0.84,0.74,1.61,1.22,2.28
		c0.62,0.89,1.7,1.38,2.82,1.79c0,0,0,0,0,0c0.04,0.02,0.08,0.03,0.13,0.04c0.29,0.11,0.59,0.21,0.88,0.31
		c0.62,0.22,1.61,0.47,3.15-0.35c0.06-0.03,0.12-0.08,0.19-0.13c0.02-0.01,0.04-0.03,0.05-0.05c0.04-0.04,0.09-0.08,0.13-0.13
		c0.02-0.03,0.05-0.05,0.07-0.08c0,0,0,0,0,0c0.01-0.01,0.01-0.01,0.02-0.02c0.03-0.03,0.05-0.06,0.08-0.1
		c0.04-0.05,0.08-0.1,0.12-0.15c0,0,0,0,0,0h0c0.02-0.02,0.03-0.04,0.05-0.07c0.01-0.02,0.03-0.04,0.04-0.05
		c0.04-0.05,0.07-0.1,0.11-0.16c0.02-0.02,0.03-0.04,0.04-0.07c0.04-0.06,0.08-0.12,0.11-0.18c0.03-0.05,0.06-0.1,0.08-0.14
		c0.01-0.02,0.02-0.04,0.03-0.06c0.02-0.04,0.05-0.08,0.06-0.12c0.01-0.01,0.01-0.02,0.02-0.04c0.02-0.04,0.04-0.08,0.04-0.1
		c0.06-0.21,0.16-0.81,0.28-1.63c2.25-0.77,4.7-1.79,6.82-2.78c0.06-0.03,0.13-0.06,0.19-0.09c0.13-0.06,0.25-0.12,0.37-0.18
		c0.1-0.05,0.2-0.1,0.3-0.15c0.09-0.04,0.19-0.09,0.28-0.14c0.17-0.09,0.35-0.17,0.51-0.26c0,0,0,0,0,0
		c0.07-0.04,0.14-0.07,0.21-0.11c0.39-0.2,0.75-0.39,1.08-0.58c0,0,0.01,0,0.01-0.01c0.91-0.51,1.62-0.97,2.03-1.33
		c0.01-0.01,0.02-0.01,0.02-0.02c0.08-0.07,0.14-0.13,0.2-0.19c1.14-1.3,1.84-2.71,1.73-4.21c3.02-0.58,6.1-1.25,8.87-1.93
		c2.76-0.9,5.27-1.9,7.46-3.03c0,0,0.01-0.01,0.02-0.01c0.42-0.22,0.83-0.44,1.22-0.67c0.02-0.01,0.04-0.02,0.06-0.03
		c0.38-0.22,0.74-0.44,1.09-0.66c0.04-0.02,0.07-0.04,0.11-0.07c0.33-0.21,0.64-0.43,0.95-0.65c0.04-0.03,0.09-0.06,0.14-0.09
		c0,0,0,0,0,0c0.07-0.05,0.15-0.1,0.22-0.16c0.02-0.03,0.04-0.06,0.05-0.09c-0.07,0.04-0.14,0.07-0.2,0.1
		c0.01-0.03,0.03-0.05,0.04-0.08c0,0,0,0,0,0c0.01-0.02,0.02-0.04,0.03-0.07c0.08-0.15,0.16-0.31,0.23-0.47
		c0.02-0.03,0.03-0.07,0.05-0.1c0.08-0.16,0.15-0.33,0.23-0.51c0.01-0.03,0.03-0.07,0.04-0.1c0.08-0.18,0.15-0.36,0.22-0.54
		c0.01-0.03,0.03-0.07,0.04-0.11c0.07-0.19,0.15-0.38,0.22-0.58c0.01-0.03,0.02-0.07,0.04-0.1c0.07-0.2,0.14-0.4,0.21-0.61
		c0.01-0.04,0.02-0.07,0.04-0.11c0.07-0.21,0.14-0.41,0.2-0.63c0.01-0.04,0.02-0.08,0.04-0.12c0.06-0.21,0.13-0.42,0.19-0.64
		c0.01-0.04,0.03-0.09,0.04-0.13c0.06-0.21,0.12-0.43,0.18-0.64c0.01-0.05,0.03-0.1,0.04-0.15c0.06-0.21,0.11-0.42,0.17-0.64
		c0.02-0.06,0.03-0.12,0.05-0.18c0.05-0.2,0.1-0.41,0.15-0.62c0.02-0.07,0.03-0.15,0.05-0.22c0.05-0.19,0.09-0.39,0.13-0.58
		c0-0.01,0-0.01,0.01-0.02c0.2-0.05,0.36-0.14,0.44-0.22c1.02-0.99,1.65-2.05,2.3-3.1c0.23,0.33,0.51,0.65,0.95,0.87
		c0.83,0.41,1.59-0.28,1.84-0.56c0.8-0.89,0.8-1.91,0.78-2.84c-0.01-0.43-0.05-0.83-0.14-1.21c0.3,0.18,0.63,0.35,1.01,0.49
		c0.46,0.18,0.88,0.09,1.18-0.07C303.64,163.11,303.41,161.75,303.05,160.5z M189.67,130.41c-0.02-0.09-0.03-0.17-0.04-0.26
		c0.01-0.01,0.02-0.02,0.02-0.05c0.01-0.22,0.01-0.45,0.05-0.68c0.06-0.3,0.28-0.47,0.56-0.55c0.22,0.84,0.34,1.71,0.44,2.57
		c0.1,0.84,0.17,1.68,0.14,2.52c-0.16-0.4-0.3-0.8-0.44-1.21c-0.15-0.48-0.29-0.96-0.43-1.45c-0.07-0.21-0.17-0.42-0.23-0.65
		C189.71,130.57,189.69,130.49,189.67,130.41z M188.2,65.16c0.02,0.01,0.04,0.02,0.06,0.03c0.04,0.02,0.09,0.04,0.13,0.05
		c0.04,0.02,0.08,0.03,0.12,0.05c0,0,0,0,0,0c1.13,0.45,3.08,1.03,5.8,1.65c0.14,0.03,0.27,0.06,0.41,0.09c0,0,0,0,0,0
		c0.74,0.17,1.54,0.34,2.39,0.5c0,0,0,0,0,0c0.42,0.08,0.86,0.17,1.31,0.25c0.24,0.05,0.49,0.09,0.74,0.14
		c0.2,0.04,0.4,0.07,0.6,0.11c0.16,0.03,0.32,0.06,0.48,0.09c0.07,0.01,0.14,0.03,0.22,0.04c0,0,0,0,0,0
		c0.96,0.17,1.96,0.33,3.01,0.49v7.29c-4.03-1.03-9.07-3-12.59-6.75C189.3,67.5,188.54,65.98,188.2,65.16z M285.15,66.28
		c0.06-0.02,0.11-0.04,0.17-0.06c0.11-0.04,0.23-0.09,0.33-0.13c0.05-0.02,0.1-0.04,0.15-0.06c0.1-0.04,0.21-0.09,0.3-0.13
		c0.04-0.02,0.08-0.04,0.13-0.06c0.1-0.05,0.2-0.09,0.29-0.13c0.03-0.02,0.06-0.03,0.09-0.05c0.1-0.05,0.19-0.1,0.28-0.14
		c0.02-0.01,0.04-0.02,0.06-0.03c0.02-0.01,0.03-0.02,0.05-0.03c-1.68,1.9-6.93,7.24-15.29,10.41v-6.61
		c1.79-0.23,3.46-0.48,4.95-0.77c0.28-0.05,0.55-0.11,0.81-0.16c0,0,0,0,0,0c0.07-0.01,0.13-0.03,0.2-0.04
		c0.03-0.01,0.06-0.01,0.09-0.02c0.14-0.03,0.27-0.06,0.41-0.09c0.02,0,0.03-0.01,0.05-0.01c0.03-0.01,0.06-0.01,0.09-0.02
		c0.16-0.03,0.33-0.07,0.49-0.1c0.04-0.01,0.09-0.02,0.13-0.03c0.04-0.01,0.09-0.02,0.14-0.03c0,0,0,0,0,0
		c0.06-0.01,0.12-0.03,0.19-0.04c0.17-0.04,0.35-0.08,0.52-0.12c0.15-0.04,0.3-0.07,0.45-0.11c0.15-0.04,0.31-0.07,0.46-0.11
		c0.15-0.04,0.29-0.07,0.43-0.11c0.14-0.04,0.28-0.07,0.42-0.11c0.14-0.04,0.27-0.07,0.4-0.11c0.13-0.04,0.26-0.07,0.39-0.11
		c0.12-0.03,0.25-0.07,0.37-0.1c0.13-0.04,0.25-0.07,0.38-0.11c0.11-0.03,0.22-0.06,0.32-0.1c0.13-0.04,0.26-0.08,0.38-0.12
		c0.09-0.03,0.18-0.06,0.26-0.08c0.2-0.07,0.4-0.13,0.58-0.2c0.04-0.01,0.08-0.03,0.12-0.04C284.87,66.38,285.01,66.33,285.15,66.28
		z M283.88,124.69c-0.02-0.01-0.04-0.02-0.07-0.02c-0.01,0-0.01-0.01-0.02-0.01c-0.01,0-0.01,0-0.02-0.01
		c-0.04-0.01-0.09-0.02-0.13-0.03c-0.01,0-0.02-0.01-0.04-0.01c-0.06-0.01-0.12-0.02-0.18-0.03c-0.05-0.01-0.11-0.02-0.15-0.03
		c-0.18-0.04-0.39-0.17-0.59-0.22c0.08-0.03,0.15-0.08,0.19-0.15c0,0,0.01,0,0.01,0c0,0,0,0,0,0c0,0,0,0,0,0
		c0.33-0.01,0.56-0.36,0.7-0.73c0.5-0.46,0.94-0.99,1.38-1.49c0.45-0.52,0.86-1.07,1.21-1.66c0.01-0.02,0.02-0.04,0.03-0.06
		c-0.03,0.39-0.06,0.79-0.1,1.18c-0.08,0.94-0.32,1.84-0.76,2.67c-0.08,0.12-0.16,0.23-0.26,0.34c-0.16,0.17-0.26-0.21-0.41-0.26
		c-0.04-0.01-0.07-0.01-0.11-0.01c-0.29,0-0.45,0.39-0.63,0.58c-0.02-0.01-0.04-0.02-0.05-0.03
		C283.89,124.7,283.89,124.69,283.88,124.69z M285.74,116.84c-0.01,0.03-0.01,0.06-0.02,0.08c-0.32-0.03-0.64-0.08-0.95-0.16
		c-0.29-0.08-0.58-0.16-0.87-0.24c0.06-0.02,0.12-0.03,0.18-0.05c0.37-0.14,0.68-0.39,1.04-0.52c0.28-0.1,0.54,0,0.62,0.3
		C285.81,116.43,285.77,116.65,285.74,116.84z M282.56,94.39c0-0.02,0.01-0.03,0.01-0.04c0.01-0.03,0.02-0.06,0.03-0.09
		C282.59,94.3,282.58,94.34,282.56,94.39C282.56,94.39,282.56,94.39,282.56,94.39z M282.63,94.18c0.04-0.09,0.08-0.18,0.13-0.28
		C282.71,93.99,282.67,94.09,282.63,94.18z M245.92,75.51c0.06-0.29,0.11-0.57,0.17-0.85c0.01-0.05,0.02-0.1,0.03-0.16
		c0.05-0.24,0.1-0.48,0.15-0.71c0.02-0.11,0.05-0.22,0.07-0.33c0.03-0.16,0.07-0.32,0.1-0.47c0.06-0.26,0.12-0.51,0.17-0.75
		c0.01-0.04,0.02-0.07,0.02-0.1c0.05-0.21,0.1-0.41,0.14-0.59c0.01-0.04,0.02-0.07,0.03-0.1c0.05-0.18,0.09-0.36,0.13-0.52
		c0.01-0.02,0.01-0.05,0.02-0.07c1.6-0.04,3.25-0.09,4.93-0.16c0,0,0,0,0,0c0.23-0.01,0.45-0.02,0.68-0.03
		c0.14-0.01,0.27-0.01,0.41-0.02c0.28-0.01,0.56-0.02,0.84-0.03c0,0,0,0,0,0c1.58-0.07,3.17-0.15,4.76-0.24c0,0,0,0,0,0
		c0.02,0,0.04,0,0.07,0c0.9-0.05,1.8-0.11,2.69-0.17c0,0,0,0,0,0.01c0.48-0.03,0.95-0.07,1.43-0.1c0,0,0,0,0,0
		c1.06-0.08,2.1-0.16,3.12-0.25c0.01,0,0.01,0,0.02,0c0,0,0,0,0,0c0.8-0.07,1.58-0.14,2.35-0.22c0,0,0,0,0,0
		c0.02,0,0.04,0,0.06-0.01c0.78-0.08,1.54-0.16,2.28-0.25v6.88c-2.11,0.73-4.41,1.31-6.88,1.67c-7.1,1.02-13.24-0.48-17.8-2.38
		C245.92,75.54,245.92,75.53,245.92,75.51z M206.93,69.14c0.24,0.03,0.48,0.06,0.72,0.1c0,0,0,0,0.01-0.01
		c1.97,0.25,4.06,0.49,6.28,0.7c0.16,0.02,0.32,0.03,0.49,0.05c0.65,0.06,1.32,0.12,1.99,0.18c0.05,0,0.11,0.01,0.16,0.01
		c0,0,0,0,0,0c0.55,0.05,1.12,0.09,1.68,0.13c0,0,0,0,0,0c0.16,0.01,0.32,0.02,0.48,0.03c0.8,0.06,1.61,0.12,2.43,0.17c0,0,0,0,0,0
		c0.02,0,0.04,0,0.06,0c1.88,0.12,3.84,0.22,5.85,0.3c0.04,0,0.08,0,0.13,0.01c0.33,0.84,0.72,2.02,1.13,3.65
		c-1.01,0.34-2.08,0.67-3.21,0.98c-7.13,1.93-13.95,2.2-20.28,0.81c-0.09-0.02-0.18-0.04-0.27-0.06v-7.39
		C205.34,68.92,206.12,69.03,206.93,69.14z M256.8,127.28c-0.02-0.1-0.04-0.21-0.06-0.31c0.01,0,0.03-0.02,0.03-0.04
		c0.01-0.22,0.01-0.45,0.05-0.68c0.06-0.3,0.29-0.47,0.56-0.56c0.21,0.85,0.35,1.71,0.44,2.57c0.09,0.84,0.17,1.69,0.14,2.53
		c-0.15-0.4-0.3-0.81-0.43-1.22c-0.15-0.48-0.29-0.96-0.45-1.44c-0.07-0.22-0.16-0.43-0.23-0.65
		C256.83,127.41,256.82,127.35,256.8,127.28z M286,95.95c-0.01-0.01-0.01-0.02-0.02-0.03c0.01,0,0.01-0.01,0.02-0.01
		C286,95.92,286,95.94,286,95.95z M215.44,97.56c0-0.01,0-0.02,0.01-0.04c0-0.01,0.01-0.02,0.01-0.02
		C215.45,97.52,215.45,97.54,215.44,97.56C215.44,97.56,215.44,97.56,215.44,97.56z M215.53,97.32c0.03-0.08,0.07-0.15,0.11-0.23
		C215.59,97.16,215.56,97.24,215.53,97.32z M218.87,99.14c-0.01-0.01-0.01-0.02-0.02-0.03c0.01-0.01,0.01-0.01,0.02-0.02
		C218.87,99.1,218.87,99.12,218.87,99.14z M218.62,120.02c0,0.03-0.01,0.06-0.02,0.09c-0.32-0.03-0.64-0.08-0.95-0.17
		c-0.29-0.07-0.58-0.16-0.87-0.24c0.06-0.02,0.13-0.03,0.19-0.06c0.36-0.14,0.67-0.38,1.04-0.51c0.28-0.09,0.54,0,0.62,0.3
		C218.68,119.61,218.64,119.82,218.62,120.02z M215.74,127.37c0.35-0.01,0.57-0.36,0.72-0.74c0.49-0.46,0.94-0.98,1.38-1.49
		c0.45-0.51,0.87-1.06,1.21-1.65c0.01-0.02,0.02-0.05,0.03-0.07c-0.03,0.39-0.06,0.79-0.1,1.18c-0.08,0.95-0.32,1.84-0.76,2.68
		c-0.08,0.11-0.17,0.23-0.26,0.34c-0.16,0.17-0.26-0.22-0.41-0.27c-0.06-0.02-0.11-0.01-0.16-0.01c0,0-0.01,0-0.01,0c0,0,0,0,0,0
		c-0.24,0.05-0.38,0.37-0.54,0.54c0,0,0,0,0,0c-0.01,0.01-0.01,0.02-0.02,0.03c-0.02-0.01-0.05-0.02-0.07-0.03c0,0,0-0.01-0.01-0.01
		c-0.01-0.01-0.03-0.01-0.04-0.02c-0.01-0.01-0.02-0.01-0.04-0.02c-0.01,0-0.02-0.01-0.04-0.01c-0.03-0.01-0.07-0.02-0.1-0.03
		c-0.02,0-0.04-0.01-0.07-0.01c-0.04-0.01-0.08-0.01-0.12-0.02c-0.07-0.01-0.14-0.02-0.21-0.04c-0.18-0.05-0.39-0.17-0.59-0.22
		C215.64,127.48,215.71,127.43,215.74,127.37z M217.04,95.34c0.01-0.01,0.02-0.01,0.03-0.02c0,0,0,0,0,0
		C217.06,95.32,217.05,95.33,217.04,95.34z M247.36,147.39C247.36,147.38,247.36,147.38,247.36,147.39
		c0.01-0.02,0.02-0.02,0.03-0.03c0.02-0.02,0.03-0.03,0.03-0.03s0-0.01,0-0.02c0,0,0-0.01,0-0.01c0-0.01,0-0.02-0.01-0.02
		c0-0.01-0.01-0.02-0.01-0.04c0,0,0,0,0-0.01c-0.11-0.41-0.54-2.14-1.11-4.91c-0.01-0.07-0.03-0.14-0.04-0.21
		c-0.01-0.06-0.02-0.11-0.03-0.17c-0.43-2.15-0.92-4.88-1.39-8.08c0,0,0,0,0,0c-0.7-4.74-1.34-10.51-1.65-16.92c0,0,0,0,0,0
		c-0.21-4.4-0.27-9.11-0.07-14.01c0.09-2.22,0.2-4.31,0.32-6.29l0,0c0.02-0.28,0.04-0.54,0.05-0.82c0.12-1.74,0.25-3.39,0.38-4.95
		c0.01-0.16,0.03-0.32,0.04-0.47c0.57-6.2,1.28-10.93,1.94-14.38c0.51,0.21,1.05,0.42,1.62,0.63c-0.66,0.04-1.17,0.58-1.17,1.25
		c0,0.69,0.56,1.25,1.25,1.25c0.7,0,1.26-0.56,1.26-1.25c0-0.38-0.17-0.71-0.43-0.94c1.65,0.54,3.5,1.02,5.52,1.34
		c-0.05,0.02-0.11,0.05-0.16,0.07c-0.02,0.01-0.04,0.02-0.06,0.03c-0.04,0.02-0.08,0.05-0.12,0.08c-0.03,0.02-0.06,0.04-0.08,0.07
		c-0.03,0.03-0.06,0.05-0.08,0.08c-0.05,0.05-0.1,0.11-0.14,0.17c-0.01,0.02-0.02,0.03-0.03,0.05c-0.03,0.05-0.06,0.11-0.09,0.16
		c-0.01,0.02-0.02,0.05-0.03,0.07c-0.02,0.06-0.04,0.11-0.05,0.17c-0.01,0.02-0.01,0.05-0.02,0.07c-0.02,0.08-0.03,0.16-0.03,0.25
		c0,0.74,0.61,1.35,1.36,1.35c0.76,0,1.36-0.61,1.36-1.35c0-0.08-0.01-0.16-0.02-0.24c-0.01-0.04-0.02-0.09-0.03-0.13
		c-0.01-0.02-0.01-0.04-0.02-0.06c0,0,0,0.01,0,0.01c-0.09-0.28-0.26-0.52-0.49-0.68c1.26,0.15,2.57,0.24,3.93,0.24
		c0.61,0,1.23-0.02,1.86-0.06c-0.42,0.2-0.71,0.63-0.71,1.13c0,0.69,0.57,1.26,1.26,1.26c0.7,0,1.25-0.56,1.25-1.26
		c0-0.56-0.37-1.03-0.87-1.2c0.62-0.05,1.24-0.12,1.88-0.21c1.15-0.16,2.25-0.38,3.32-0.63c-0.08,0.09-0.15,0.19-0.21,0.29
		c-0.02,0.03-0.03,0.06-0.05,0.09c-0.02,0.03-0.03,0.07-0.04,0.1c-0.02,0.05-0.03,0.09-0.04,0.14c-0.01,0.03-0.01,0.06-0.02,0.09
		c-0.01,0.08-0.02,0.16-0.02,0.25c0,0.75,0.61,1.36,1.36,1.36c0.75,0,1.36-0.61,1.36-1.36c0-0.09-0.01-0.17-0.03-0.25
		c0-0.03-0.01-0.05-0.02-0.08c-0.01-0.03-0.01-0.07-0.02-0.1c0,0.01,0,0.02,0,0.03c-0.13-0.44-0.48-0.78-0.91-0.91
		c0.74-0.2,1.46-0.42,2.16-0.66v29.66c-0.38-0.23-0.89,0.7-0.16,0.82c-0.53-0.05-0.57,0.5-0.4,0.76c0.04,0.06,0.14,0.08,0.28,0.07
		c-0.54,0.14-1.19,0.26-2,0.36c-0.16,0.02-0.33,0.04-0.51,0.05c0,0.01,0,0.01,0,0.02c0,0,0,0,0,0c0-0.01,0-0.01,0-0.02
		c-0.52,0.05-1.02,0.08-1.48,0.09c-0.08,0-0.15,0-0.23,0c0,0-0.01,0.01-0.01,0.01c0,0,0-0.01,0-0.01c-0.16,0-0.31,0-0.46-0.01
		c-0.88-0.03-1.62-0.13-2.21-0.26c-0.02,0-0.04-0.01-0.06-0.02c0,0-0.01,0-0.01,0c-0.66-0.15-1.15-0.32-1.45-0.45
		c-0.27-0.11-0.5-0.2-0.68-0.27c-0.19-0.17-0.4-0.3-0.65-0.38c-0.16-0.05-0.42-0.08-0.57,0.03c-0.03,0.01-0.05,0.04-0.06,0.06
		c-0.01-0.01-0.02-0.01-0.04,0c-0.11,0.16-0.13,0.31-0.09,0.44c0,0.01,0,0.03,0,0.04c0,0.01,0.01,0.02,0.02,0.01
		c0.01,0.04,0.03,0.07,0.05,0.11c-0.09,0.01-0.19,0.02-0.28,0.04c-0.27,0.06-0.54,0.16-0.8,0.28c-0.01-0.01-0.01-0.02-0.02-0.03
		c-0.01-0.11-0.03-0.22-0.06-0.33c-0.01-0.04-0.02-0.07-0.03-0.11c-0.01-0.03-0.01-0.05-0.02-0.08c0,0,0,0,0,0
		c-0.25-0.77-0.83-1.42-1.59-1.73c-1-0.4-2.21-0.29-3.19,0.13c-1.07,0.47-1.92,1.29-2.52,2.27c-0.34,0.54-0.48,1.17-0.83,1.7
		c-0.15,0.22-0.36,0.38-0.57,0.53c-0.06,0.04-0.13,0.09-0.21,0.11c0,0,0,0-0.01,0c-0.03,0.01-0.06,0.02-0.09,0.02
		c-0.03,0-0.07-0.01-0.1-0.03c-0.07-0.06-0.08-0.11-0.17-0.13c-0.02-0.01-0.02,0.01-0.01,0.02c0.03,0.02,0.05,0.04,0.07,0.06
		c-0.01,0.01-0.01,0.01-0.01,0.02c0.04,0.1,0.13,0.2,0.25,0.29c0.02,0.02,0.04,0.03,0.06,0.05c0.02,0.01,0.04,0.02,0.06,0.04
		c0.03,0.02,0.07,0.04,0.1,0.06c0.02,0.01,0.03,0.02,0.05,0.02c0.04,0.02,0.08,0.03,0.12,0.04c0.02,0.01,0.03,0.01,0.05,0.02
		c0.04,0.01,0.08,0.02,0.12,0.02c0.02,0,0.04,0.01,0.05,0.01c0.04,0,0.07,0,0.11,0c0.02,0,0.03,0,0.05,0
		c0.05-0.01,0.1-0.02,0.14-0.04c-0.07,0.14-0.12,0.28-0.16,0.43c-0.01,0.04-0.02,0.08-0.03,0.13c-0.03,0.13-0.06,0.26-0.08,0.39
		c0,0.03-0.01,0.06-0.01,0.09c-0.01,0.11-0.02,0.23-0.03,0.34c0-0.01,0.01-0.02,0.01-0.04c-0.01,0.24-0.01,0.48,0,0.71
		c0.02,0.19,0.05,0.37,0.08,0.55c0,0.01,0,0.02,0.01,0.03c0,0.01,0,0.02,0.01,0.03c0,0,0,0,0-0.01c0.13,0.56,0.33,1.11,0.45,1.67
		c0.18,0.8,0.24,1.67-0.1,2.43c-0.14,0.33-0.36,0.62-0.65,0.81c-0.05,0.04-0.11,0.06-0.16,0.09c-0.03,0.01-0.06,0.03-0.09,0.04
		c-0.05,0.02-0.09,0.03-0.14,0.04c-0.04,0.01-0.07,0.02-0.11,0.03c-0.03,0-0.05,0-0.08,0.01c-0.14,0.01-0.28,0.01-0.43,0
		c-0.03-0.03-0.05-0.07-0.07-0.1c-0.01-0.01-0.03-0.01-0.03,0.01c0.04,0.13,0.11,0.23,0.19,0.32c0,0-0.01,0-0.01,0
		c0.04,0.05,0.1,0.1,0.15,0.14c0,0,0.01,0,0.01,0.01c0.07,0.05,0.15,0.09,0.23,0.12c0.01,0.01,0.03,0.01,0.04,0.02
		c0.08,0.03,0.17,0.06,0.26,0.08c0.23,0.05,0.61,0.07,0.87-0.06c-0.24,0.49-0.29,1.12-0.17,1.66c0.02,0.12,0.05,0.24,0.09,0.36
		c0,0.01,0.01,0.02,0.01,0.03c0.03,0.1,0.07,0.21,0.11,0.31c0.01,0.03,0.02,0.05,0.03,0.08c0.04,0.08,0.07,0.16,0.11,0.24
		c0.02,0.03,0.04,0.07,0.05,0.1c0.02,0.03,0.03,0.06,0.05,0.09c0,0,0-0.01,0-0.01c0.02,0.04,0.04,0.08,0.07,0.12c0,0,0,0,0,0
		c0.02,0.03,0.03,0.05,0.05,0.08c0.26,0.42,0.58,0.85,0.94,1.19c0.01,0.01,0.02,0.03,0.04,0.05c0.01,0.02,0.02,0.02,0.03,0.02
		c0.01,0.01,0.02,0.02,0.03,0.02c0.04,0.04,0.08-0.01,0.04-0.05c0-0.01-0.01-0.02-0.02-0.03c0,0,0-0.01-0.01-0.01
		c-0.44-0.59,0.28-1.26,0.71-1.61c0.46-0.38,0.9-0.82,1.29-1.28c0.01,0,0.01,0,0.01-0.01c-0.01,0.03,0.03,0.05,0.05,0.03
		c0.04-0.03,0.07-0.07,0.11-0.1c0.9-0.4,1.73-0.92,2.23-1.82c0.27-0.49,0.42-1.05,0.49-1.6c0-0.02,0-0.03,0-0.04
		c0.4,0.77,0.84,1.51,1.24,2.28c0.21,0.37,0.38,0.77,0.48,1.19c0.06,0.24,0.09,0.49,0.09,0.74c0,0.1-0.01,0.19-0.02,0.29
		c-0.01,0.09-0.03,0.17-0.04,0.26c0,0,0,0,0,0c0,0.02-0.01,0.03-0.01,0.05c-0.04,0.09-0.07,0.18-0.11,0.27
		c-0.02,0.02-0.04,0.04-0.06,0.06c-0.02,0.02-0.04,0.03-0.05,0.04c-0.08,0.06-0.16,0.12-0.25,0.17c-0.36,0.19-0.77,0.29-1.12,0.47
		c-0.31,0.15-0.48,0.43-0.44,0.77c0.03,0.17,0.1,0.34,0.17,0.5c0.01,0.03,0.02,0.06,0.03,0.09c-0.3,0.14-0.61,0.26-0.9,0.42
		c-0.23,0.13-0.48,0.2-0.73,0.28c-0.15,0.04-0.32,0.11-0.4,0.25c-0.09,0.18-0.08,0.37-0.11,0.57c-0.03,0.19-0.09,0.42-0.01,0.6
		c0.09,0.19,0.22,0.33,0.36,0.48c0.21,0.22,0.31,0.44,0.4,0.72c0.16,0.56,0.32,1.12,0.45,1.69c0.12,0.56,0.3,1.08,0.55,1.61
		c0.14,0.31,0.21,0.6,0.24,0.94c0.01,0.15,0.04,0.32,0.06,0.47c-0.26,0.25-0.61,0.32-0.96,0.31c-0.09,0-0.19-0.01-0.28-0.03
		c-0.04-0.01-0.07-0.01-0.11-0.02c-0.09-0.02-0.18-0.04-0.26-0.06c-0.27-0.07-0.58-0.06-0.81,0.09c0,0,0-0.01,0-0.01
		c-0.05,0.03-0.1,0.06-0.14,0.11c-0.01,0.02,0,0.03,0.02,0.03c-0.03,0.05-0.05,0.11-0.07,0.16c0,0,0.01-0.01,0.02-0.01
		c-0.11,0.35-0.04,0.76-0.02,1.1c0,0.01,0,0.03,0,0.04c0,0,0,0,0,0c0.03,0.52,0.09,1,0.32,1.48c0.1,0.22,0.23,0.42,0.37,0.62
		c0.09,0.13,0.19,0.22,0.35,0.21c0.07-0.01,0.13-0.05,0.18-0.09c0.12-0.07,0.24-0.13,0.37-0.18c0.21-0.07,0.42-0.09,0.62-0.15
		l0.01,0c0.03,0,0.06,0.01,0.09,0.01c0,0,0,0,0-0.01c0.26,0.01,0.49-0.1,0.66-0.31c0.07-0.09,0.12-0.22,0.13-0.33
		c0.02-0.26,0.04-0.49,0.12-0.75c0.07-0.21,0.1-0.44,0.17-0.65c0,0,0-0.01,0.01-0.01c0.04,0.01,0.07,0.01,0.12,0.01
		c0.23-0.04,0.4-0.2,0.56-0.35c0.27-0.24,0.52-0.52,0.78-0.76c0.2-0.2,0.36-0.36,0.45-0.62c0.11-0.27,0.12-0.58,0.11-0.87
		c-0.03-0.64-0.31-1.23-0.52-1.83c-0.28-0.74-0.24-1.52-0.21-2.29c0.03-0.74,0.07-1.46,0.32-2.16c1.13-0.31,2.22-0.81,3.27-1.29
		c0.42-0.19,0.84-0.41,1.12-0.79c0.09-0.12,0.16-0.25,0.23-0.38c0.01-0.03,0.02-0.06,0.04-0.09c0.14-0.32,0.23-0.66,0.28-1.01
		c0.07-0.44,0.14-0.87,0.2-1.31c0.04-0.01,0.07-0.02,0.11-0.03c0.1-0.03,0.21-0.06,0.31-0.08c0.01,0,0.01,0,0.02,0
		c0.87-0.16,1.82,0.01,2.67,0.18c0.19,0.04,0.38,0.08,0.57,0.11c0,0.02,0,0.03-0.01,0.05c-0.01,0.08,0.02,0.17,0.07,0.24
		c0.05,0.07,0.13,0.11,0.22,0.12l0.04,0.01c0.15,0,0.29-0.12,0.31-0.27c0.17,0.02,0.4,0.02,0.65-0.02c0.18-0.03,0.46-0.1,0.77-0.16
		l0.09,1.19c0,0,0.01,0.01,0.03,0.02c0.01,0.01,0.02,0.01,0.04,0.02c0.01,0.01,0.02,0.01,0.04,0.02c0.02,0.01,0.05,0.02,0.08,0.04
		c0.01,0.01,0.03,0.01,0.04,0.02c0.04,0.01,0.07,0.03,0.12,0.04c0,0,0,0,0.01,0v24.14c-0.03,0.02-0.06,0.03-0.09,0.05
		c-0.02,0.01-0.04,0.02-0.06,0.04c-0.04,0.03-0.08,0.06-0.11,0.09c-0.01,0.01-0.03,0.02-0.04,0.04c-0.05,0.05-0.09,0.1-0.13,0.15
		c-0.01,0.01-0.01,0.02-0.01,0.02c-0.03,0.05-0.06,0.1-0.08,0.15c-0.01,0.02-0.01,0.04-0.02,0.05c-0.02,0.05-0.03,0.1-0.05,0.15
		c0,0.02-0.01,0.04-0.01,0.06c-0.01,0.07-0.02,0.14-0.02,0.21c0,0.19,0.05,0.37,0.13,0.53H247.36z M205.14,146.87
		c0-0.07-0.01-0.14-0.02-0.21c0-0.02-0.01-0.05-0.02-0.07c-0.01-0.03-0.01-0.06-0.02-0.08c0,0.01,0,0.02,0,0.03
		c-0.08-0.28-0.27-0.51-0.52-0.65v-21.05c0.06-0.02,0.12-0.05,0.18-0.08c0,0,0,0.01,0,0.01c0.05-0.01,0.1-0.04,0.14-0.07l0.09-1.69
		c0.67-0.17,1.33-0.38,1.96-0.65c0.49-0.22,0.9-0.56,1.35-0.85c0.12-0.08,0.27-0.11,0.41-0.15c0.08-0.03,0.15-0.05,0.23-0.07
		c0.03-0.01,0.15-0.03,0.12-0.04c0,0.01,0.01,0.01,0.02,0.01c0.19,0.36,0.34,0.74,0.45,1.12c0.11,0.36,0.23,0.79,0.58,0.98
		c0.4,0.22,0.89-0.15,1.23-0.33c0.59-0.31,1.32-0.31,1.97-0.35c0.72-0.05,1.43-0.06,2.15-0.15c0.69-0.09,1.34-0.32,2.01-0.52
		c0.24-0.08,0.49-0.14,0.73-0.19c-0.1,0.33-0.22,0.66-0.37,0.96c-0.21,0.41-0.5,0.78-0.78,1.16c-0.14,0.19-0.27,0.39-0.43,0.57
		c-0.25,0.27-0.51,0.2-0.82,0.11c-0.22-0.07-0.4-0.06-0.57,0.01c0,0,0,0,0-0.01c-0.02,0.01-0.05,0.02-0.07,0.04
		c-0.03,0.01-0.05,0.02-0.08,0.04c-0.06,0.04-0.12,0.08-0.17,0.12c-0.01,0-0.03,0-0.04-0.01c0,0,0,0,0,0
		c-0.03-0.01-0.06-0.01-0.08-0.01c-0.03,0-0.05-0.01-0.08-0.01c0,0,0,0,0,0c-0.01,0-0.01,0-0.02,0c-0.23,0-0.45-0.04-0.67-0.05
		c-0.17-0.01-0.34,0.04-0.5,0.07c-0.01-0.01-0.02-0.01-0.03-0.01c-0.01,0.01-0.02,0.01-0.03,0.02c-0.01,0-0.03,0.01-0.03,0.03
		c-0.09,0.08-0.11,0.21-0.12,0.33c-0.01,0.06-0.01,0.13-0.01,0.19c0,0,0,0,0,0c-0.02,0.21-0.04,0.41-0.04,0.62c0,0.13,0,0.27,0,0.41
		c0,0,0,0,0,0c0,0.01,0,0.03,0,0.04c0,0.15,0.01,0.3,0.02,0.45c0,0.05,0.01,0.1,0.01,0.15c0.02,0.17,0.04,0.34,0.07,0.5
		c0.03,0.16,0.11,0.3,0.24,0.4c0.17,0.12,0.44,0.03,0.61-0.01c0.3-0.07,0.59-0.15,0.88-0.23c-0.02,0.05-0.04,0.09-0.05,0.15
		c0,0,0,0,0,0c0,0.02,0,0.04-0.01,0.05c-0.06,0.32-0.06,0.66-0.07,0.99c-0.01,0.29,0.02,0.58,0.06,0.87c0.03,0.24,0,0.53,0.13,0.74
		c0.03,0.05,0.1,0.03,0.12-0.02c0.3,0.06,0.67-0.02,0.97-0.06c0.18-0.03,0.35-0.07,0.53-0.1c0.08-0.01,0.16-0.03,0.24-0.07
		c0.02,0.01,0.05,0.01,0.06-0.01c0.01-0.01,0.02-0.02,0.02-0.04c0.01-0.01,0.02-0.02,0.03-0.02c0.03-0.02,0.02-0.04,0.01-0.06
		c0.34-0.17,0.69-0.29,0.93-0.59c0.13-0.19,0.21-0.4,0.35-0.59c0.14-0.18,0.28-0.35,0.42-0.53c0.8-1.07,1.42-2.5,1.83-3.76
		c0.21-0.64,0.29-1.32,0.44-1.96c0.08-0.31,0.22-0.6,0.38-0.88c0.13-0.22,0.38-0.38,0.4-0.65c0.03-0.29-0.08-0.64-0.19-0.9
		c-0.03-0.07-0.05-0.15-0.1-0.21c0,0-0.01-0.01-0.01-0.01c-0.01-0.01-0.03-0.02-0.04-0.03c-0.01-0.01-0.01-0.01-0.02-0.02
		c0,0,0,0,0,0c-0.01,0-0.01-0.01-0.02-0.01c-0.01,0-0.01-0.01-0.01-0.01c-0.16-0.13-0.32-0.14-0.52-0.09
		c-0.34,0.07-0.68,0.17-1.03,0.24c0-0.23,0.01-0.47,0.03-0.7c0.01-0.11,0.03-0.23,0.06-0.34c0.07-0.35,0.15-0.71,0.13-1.06
		c0-0.01,0-0.02,0-0.02c0,0,0,0.01,0,0.01c-0.01-0.13-0.03-0.25-0.07-0.38c-0.16-0.49-0.73-0.41-1.12-0.3
		c-0.36,0.11-0.7,0.2-1.08,0.22c-0.39,0.03-0.79-0.01-1.18-0.01c-0.47,0-0.94,0.09-1.41,0.1c-0.14,0-0.28,0-0.41-0.02
		c-0.02,0-0.03,0-0.05-0.01c-0.14-0.02-0.28-0.05-0.41-0.09c0,0,0-0.01,0-0.01c-0.04-0.06-0.11-0.1-0.18-0.14
		c0-0.09,0.01-0.17,0.01-0.26c0.03,0.02,0.07,0.03,0.11,0.03c0.1,0,0.2-0.05,0.28-0.13c0.09-0.09,0.13-0.21,0.13-0.32
		c-0.02-0.28-0.12-0.5-0.26-0.69c-0.02-0.28-0.07-0.6-0.18-0.95c0.04-0.01,0.07-0.02,0.1-0.05l0.04-0.07v-0.06
		c-0.05-0.47-0.27-0.87-0.64-1.15c0.19-0.55,0.32-1.11,0.35-1.68c0.02-0.35,0-0.7-0.02-1.05c-0.02-0.38-0.01-0.76-0.02-1.14
		c-0.03-0.79-0.07-1.58,0.08-2.37c0.09-0.49,0.13-1.15,0.64-1.39c0.02,0,0.04,0.01,0.05,0.01c0,0.02,0,0.04,0,0.06
		c0.15,0.1,0.35,0.05,0.51,0.1c0.08,0.01,0.14,0.05,0.2,0.08c0-0.01,0-0.02,0.01-0.03c0.14,0.09,0.27,0.21,0.4,0.33
		c0.18,0.17,0.39,0.31,0.58,0.47c0.2,0.18,0.36,0.38,0.52,0.59c0.14,0.19,0.3,0.38,0.49,0.51c0.06,0.04,0.12,0.07,0.18,0.1
		c-0.01,0.02-0.02,0.04-0.02,0.04c0.11,0.08,0.68,0.42,0.68,0.42c0-0.01,0-0.02,0.01-0.02c0.24,0.24,0.36,0.57,0.6,0.82
		c0.13,0.14,0.3,0.21,0.48,0.25c0.27,0.05,0.55-0.05,0.81,0c0.03,0.04,0.07,0.08,0.11,0.11c0.25,0.19,0.54-0.06,0.75-0.19
		c0.16-0.1,0.34-0.05,0.49-0.19c0.06-0.07,0.09-0.15,0.1-0.25c0.03-0.14,0.05-0.27,0.05-0.41c-0.01-0.23,0.05-0.41,0.17-0.61
		c0.19-0.33,0.49-0.55,0.73-0.84c0.03-0.04,0.06-0.09,0.07-0.13c0-0.01,0.01-0.02,0.01-0.03c0.01-0.04,0.02-0.08,0.01-0.12
		c0,0,0-0.01,0-0.01c-0.01-0.04-0.02-0.08-0.04-0.11c0-0.01-0.01-0.01-0.01-0.02c-0.17-0.32-0.72-0.57-0.89-0.79
		c-0.06-0.08-0.11-0.17-0.17-0.26c0.04,0,0.07,0.01,0.07,0.01l-0.32-0.61c-0.05-0.01-0.09-0.01-0.13-0.01
		c-0.01-0.02-0.02-0.03-0.03-0.05c-0.25-0.36-0.45-0.72-0.66-1.09c-0.21-0.38-0.31-0.76-0.39-1.17c-0.05-0.23-0.09-0.45-0.1-0.68
		c-0.01-0.14-0.01-0.27-0.03-0.4c0,0,0,0,0,0c-0.01-0.01-0.01-0.02-0.01-0.03c0.09-0.06,0.15-0.14,0.2-0.23
		c0.01-0.01,0.02-0.02,0.02-0.04c0.01-0.03,0.02-0.07,0.03-0.1c0.01-0.02,0.01-0.05,0.01-0.08c0-0.03-0.01-0.05-0.01-0.08
		c0-0.02,0-0.05-0.01-0.07c0,0-0.01,0.01-0.01,0.01c-0.01-0.03-0.01-0.05-0.02-0.08c-0.11-0.2-0.29-0.34-0.45-0.5
		c-0.14-0.15-0.25-0.32-0.35-0.49c0,0,0,0,0,0c-0.02-0.03-0.04-0.07-0.07-0.1c0.14-0.2,0.24-0.43,0.33-0.62
		c0.02-0.06,0.05-0.12,0.07-0.2c0,0,0.01,0,0.01-0.01c0.56-0.44,0.69-1.11,0.54-1.78c-0.14-0.59-0.53-1.17-1.19-1.17c0,0,0,0,0,0
		c0,0,0,0-0.01,0c-0.06-0.07-0.12-0.14-0.19-0.21c-0.01-0.01-0.02-0.02-0.03-0.03c-0.06-0.05-0.11-0.1-0.17-0.15
		c-0.02-0.02-0.04-0.03-0.06-0.04c-0.05-0.04-0.1-0.07-0.15-0.1c-0.03-0.02-0.06-0.03-0.09-0.05c-0.04-0.02-0.09-0.04-0.13-0.06
		c-0.04-0.02-0.08-0.03-0.12-0.04c-0.04-0.01-0.08-0.02-0.12-0.03c-0.04-0.01-0.08-0.02-0.13-0.02c-0.04,0-0.08,0-0.12,0
		c-0.04,0-0.08,0-0.12,0c-0.03,0-0.06,0.01-0.1,0.02c0,0,0,0,0,0c-0.03,0.01-0.07,0.02-0.1,0.03c-0.01,0-0.02,0-0.03,0.01
		c-0.01,0-0.02,0-0.03,0.01c0.02-0.1,0.03-0.19-0.01-0.3c0-0.03-0.01-0.06-0.03-0.09c0-0.01-0.01-0.01-0.02-0.02
		c-0.01-0.01-0.01-0.02-0.03-0.03c0,0,0,0.01,0,0.01c-0.02-0.01-0.03-0.03-0.06-0.03c-0.08-0.02-0.17,0.02-0.26,0.07
		c-0.01-0.03-0.02-0.05-0.03-0.08c-0.01-0.01-0.01-0.03-0.02-0.04c-0.01-0.02-0.02-0.03-0.03-0.05c-0.01-0.01-0.01-0.02-0.02-0.03
		c0,0,0,0,0,0c-0.01-0.01-0.01-0.02-0.02-0.03c-0.03-0.05-0.07-0.09-0.11-0.13c-0.01-0.01-0.02-0.02-0.03-0.03
		c-0.05-0.05-0.11-0.09-0.17-0.13c-0.01-0.01-0.02-0.01-0.03-0.02c-0.06-0.04-0.13-0.07-0.19-0.09c0,0,0,0,0,0c0,0,0,0,0,0
		c-0.13-0.05-0.26-0.09-0.37-0.1c-0.6-0.07-1.17,0.05-1.7,0.31c-0.57,0.27-1.01,0.73-1.55,1.04c-0.22,0.13-0.46,0.23-0.71,0.25
		c-0.22,0.02-0.37-0.1-0.44-0.29c-0.08-0.19-0.02-0.36,0.06-0.53c0.01-0.01-0.01-0.03-0.02-0.02c-0.05,0.05-0.08,0.1-0.12,0.17
		c-0.01,0-0.01,0-0.01,0c-0.03,0.03-0.05,0.06-0.07,0.1c0,0,0-0.01,0-0.01c-0.23,0.34-0.23,0.71,0.09,1.02
		c0.01,0.01,0.02,0.01,0.02,0.02c-0.05-0.02-0.11-0.03-0.17-0.03c0,0,0,0,0.01,0c-0.9-0.18-1.9,0.09-2.42,0.87
		c-0.35,0.51-0.27,1.11-0.32,1.69c-0.03,0.34-0.08,0.61-0.4,0.78c-0.03,0.02-0.06,0.03-0.1,0.04c0,0,0,0,0,0
		c-0.15,0.05-0.31,0.03-0.45-0.03c0,0,0,0-0.01,0c-0.07-0.03-0.13-0.07-0.19-0.12c-0.01-0.01-0.01-0.01-0.02-0.02
		c-0.06-0.05-0.11-0.1-0.15-0.15c-0.01-0.01-0.03,0.01-0.02,0.01c0.03,0.05,0.06,0.09,0.09,0.13c0,0-0.01,0.01,0,0.01
		c0.04,0.14,0.12,0.24,0.22,0.32c-0.01,0-0.01,0-0.02,0c0.03,0.03,0.08,0.05,0.12,0.07c0.02,0.01,0.03,0.02,0.05,0.03
		c0.03,0.01,0.06,0.02,0.09,0.03c0.05,0.02,0.09,0.03,0.14,0.04c0.02,0,0.03,0.01,0.05,0.01c0.06,0.01,0.13,0.02,0.19,0.02
		c0.01,0,0.02,0,0.03,0c0.16,0,0.31-0.02,0.44-0.07c-0.28,0.17-0.54,0.36-0.75,0.62c-0.06,0.07-0.11,0.15-0.15,0.23
		c-0.01,0.02-0.02,0.05-0.03,0.07c-0.03,0.07-0.06,0.13-0.09,0.2c-0.01,0.02-0.01,0.03-0.02,0.05c-0.03,0.1-0.06,0.2-0.08,0.3
		c0,0,0-0.01,0-0.01c-0.02,0.09-0.04,0.19-0.05,0.28c-0.07,0.52,0.08,1.04-0.07,1.55c-0.07,0.24-0.24,0.49-0.47,0.61
		c-0.23,0.13-0.4-0.01-0.52-0.2c-0.02-0.09-0.03-0.18-0.04-0.27c0-0.02-0.04-0.02-0.04,0c0,0.07,0,0.12,0,0.18
		c-0.01,0-0.01,0.01-0.01,0.02c0,0,0-0.01,0-0.01c-0.01,0.01-0.01,0.02-0.01,0.03c0.01,0.03,0.01,0.06,0.03,0.09
		c0,0.24,0.06,0.44,0.27,0.64c0.19,0.19,0.5,0.26,0.76,0.17c-0.01,0-0.02,0.01-0.03,0.02c-0.04,0.03-0.08,0.06-0.13,0.1
		c0.02-0.01,0.03-0.02,0.05-0.03c-0.24,0.2-0.44,0.44-0.6,0.71c-0.18,0.29-0.26,0.64-0.3,0.98c-0.03,0.29-0.03,0.64,0.06,0.94
		c0,0,0,0-0.01,0c0.02,0.06,0.04,0.11,0.06,0.17c-0.1,0.06-0.18,0.14-0.27,0.22c0,0-0.01,0-0.01,0.01c0,0,0,0,0.01,0
		c-0.05,0.05-0.09,0.09-0.14,0.15c-0.23,0.31-0.34,0.71-0.43,1.07c-0.02,0.09-0.03,0.18-0.04,0.28c0,0,0,0,0,0c0,0.01,0,0.02,0,0.03
		c0,0.03,0,0.06-0.01,0.09c0,0.07-0.01,0.14-0.01,0.21c0,0.08-0.01,0.15-0.01,0.23c-0.04,0.02-0.08,0.04-0.12,0.06
		c-0.01,0-0.01,0-0.02,0c-0.11,0-0.21,0.06-0.26,0.15c-0.03,0.05-0.03,0.1-0.02,0.15c-0.03,0.04-0.05,0.08-0.07,0.12
		c-0.04,0.03-0.09,0.05-0.14,0.08c0.21-0.32,0.01-0.79-0.35-0.5c0,0-0.01,0-0.01,0.01c0.07-0.08,0.12-0.17,0.13-0.27
		c0.04-0.4-0.12-0.55-0.31-0.41V76.64c0.06,0.01,0.12,0.03,0.18,0.04c0.88,0.19,1.76,0.34,2.62,0.47c0,0,0,0,0,0c0,0,0,0-0.01,0
		c-0.05,0.03-0.1,0.07-0.15,0.1c-0.01,0.01-0.02,0.02-0.03,0.02c-0.13,0.11-0.23,0.23-0.31,0.38c-0.02,0.03-0.04,0.07-0.05,0.1
		c-0.02,0.03-0.03,0.07-0.04,0.1c-0.02,0.05-0.03,0.09-0.04,0.14c-0.01,0.03-0.01,0.06-0.02,0.09c-0.01,0.08-0.02,0.16-0.02,0.25
		c0,0.75,0.61,1.36,1.35,1.36c0.76,0,1.36-0.61,1.36-1.36c0-0.09-0.01-0.17-0.03-0.26c0-0.02-0.01-0.04-0.01-0.06
		c-0.01-0.04-0.02-0.08-0.03-0.12c0,0.01,0,0.02,0,0.03c-0.07-0.22-0.19-0.42-0.35-0.58c1.58,0.16,3.12,0.22,4.64,0.2
		c-0.35,0.22-0.58,0.61-0.58,1.06c0,0.7,0.57,1.26,1.26,1.26c0.7,0,1.26-0.56,1.26-1.26c0-0.47-0.26-0.88-0.65-1.09
		c1.64-0.07,3.23-0.23,4.75-0.47c0,0,0,0,0,0c-0.03,0.02-0.05,0.04-0.07,0.06c-0.03,0.03-0.07,0.06-0.1,0.09
		c-0.03,0.03-0.06,0.07-0.08,0.1c-0.04,0.05-0.07,0.09-0.1,0.14c-0.02,0.04-0.05,0.08-0.07,0.12c-0.01,0.03-0.03,0.06-0.04,0.09
		c-0.02,0.05-0.03,0.1-0.05,0.15c-0.01,0.03-0.01,0.05-0.02,0.08c-0.01,0.08-0.02,0.16-0.02,0.25c0,0.75,0.61,1.36,1.37,1.36
		c0.75,0,1.36-0.61,1.36-1.36c0-0.08-0.01-0.16-0.02-0.23c-0.01-0.04-0.02-0.07-0.03-0.11c-0.01-0.03-0.01-0.06-0.02-0.08
		c0,0.01,0,0.02,0,0.03c-0.13-0.42-0.46-0.75-0.87-0.89c1.69-0.3,3.29-0.68,4.79-1.1c-0.4,0.21-0.68,0.63-0.68,1.11
		c0,0.7,0.56,1.26,1.25,1.26c0.7,0,1.26-0.56,1.26-1.26c0-0.69-0.56-1.26-1.26-1.26c-0.04,0-0.07,0.01-0.11,0.01
		c0.79-0.23,1.54-0.47,2.26-0.71c0.23,0.96,0.47,2.07,0.7,3.34c0,0,0,0,0,0c0.4,2.21,0.8,4.93,1.14,8.25c0,0,0,0,0,0
		c0.07,0.65,0.13,1.33,0.2,2.04c0.04,0.45,0.08,0.92,0.12,1.4c0.03,0.31,0.05,0.62,0.08,0.94c0.02,0.19,0.03,0.39,0.04,0.58
		c0.03,0.46,0.07,0.93,0.1,1.42c0,0.05,0.01,0.1,0.01,0.16c0.07,1.06,0.14,2.16,0.2,3.31c0.02,0.33,0.03,0.66,0.05,0.99
		c0.03,0.61,0.06,1.24,0.08,1.89c0.04,0.74,0.07,1.49,0.09,2.25c0.01,0.29,0.02,0.58,0.03,0.88c0,0,0,0,0,0
		c0,0.15,0.01,0.3,0.01,0.45c0.16,5.32,0.1,10.17-0.09,14.56c-0.02,0.42-0.04,0.83-0.06,1.24c-0.02,0.35-0.04,0.71-0.06,1.06
		c-0.03,0.52-0.06,1.02-0.09,1.52c-0.01,0.23-0.03,0.46-0.04,0.68c-0.32,4.64-0.79,8.67-1.3,12.07c0,0,0,0,0,0
		c-0.51,3.41-1.07,6.19-1.56,8.33c0,0,0,0,0,0c-0.05,0.22-0.1,0.42-0.15,0.63c0,0.01,0,0.01,0,0.01c-0.03,0.15-0.07,0.29-0.1,0.43
		c-0.02,0.1-0.05,0.21-0.07,0.31c-0.02,0.08-0.04,0.16-0.06,0.23c-0.06,0.25-0.13,0.49-0.19,0.71v0c-0.09,0.33-0.17,0.64-0.25,0.91
		v0.01c-0.11,0.41-0.22,0.76-0.3,1.06v0c-0.05,0.17-0.09,0.31-0.13,0.43c-0.03,0.09-0.06,0.18-0.08,0.25
		c-0.01,0.01-0.01,0.01-0.01,0.02c-0.01,0.05-0.02,0.09-0.04,0.13h-21.7C205.1,147.23,205.14,147.06,205.14,146.87z M284.64,92.55
		c0,0.02-0.01,0.03-0.01,0.05C284.63,92.58,284.64,92.57,284.64,92.55C284.64,92.55,284.64,92.55,284.64,92.55z M238,21.96
		c-0.04,0-0.09,0.01-0.13,0.01l0.1-0.06l0.12,0.05C238.06,21.97,238.03,21.96,238,21.96z"/>
</g>
</svg>
