<svg xmlns="http://www.w3.org/2000/svg" viewBox="0 0 326.32 218.75"><defs><style>.cls-1{fill:#c6d8e5;}.cls-2{opacity:0.3;}.cls-3{fill:#fff;}.cls-4{fill:none;stroke:#7a9ccc;stroke-miterlimit:10;stroke-width:5px;}</style></defs><title>做伙揪團＿0825_O</title><g id="HeaderFooter"><rect class="cls-1" width="326.32" height="218.75"/><g class="cls-2"><path class="cls-3" d="M296.47,159.62a10.19,10.19,0,0,0-1.08-2.19,3.14,3.14,0,0,0-1.49-1.18c-1-.54-3.64-1-7.55-1.49a16.59,16.59,0,0,1-1.58-4.18c-.86-3.71-2.27-4.93-4.5-5.06h0s-.68,0-1.88-.1V128.08c4-.46,5.47-1.9,7-3.86a5.43,5.43,0,0,0,.32-.46l0-.08q.12-.2.22-.4l0,0h0c1.87-3.9-1.78-9-7.11-9h-.52V91.76l0,0,0,0V74.56a5.54,5.54,0,0,1,.11-.54,5.88,5.88,0,0,1,.2-.57l.07-.18-.38,0V72.07h5.07a10.54,10.54,0,0,1-1.64.59c0,.06,0,.12.05.18a5.07,5.07,0,0,0,.84,1.69c.16-.78.49-1.47.69-2.23l.05-.22h0L281,53.35a5,5,0,0,0,2.32-.81V51.42a1,1,0,0,0,.46-.65V49.65l-.46-.12v0h-.1A42.33,42.33,0,0,1,255.9,23h0v-.6l.89.16h.08a7.66,7.66,0,0,0,4.5-.33h0l0,0a4.58,4.58,0,0,0,.58-.33l0,0a4.86,4.86,0,0,0,.54-.43c1-.93,1.77-1.47,3-1a2.66,2.66,0,0,0,3.74-1.56,4.6,4.6,0,0,1-2.9-.37,6.89,6.89,0,0,0,2.67-2,7.16,7.16,0,0,1-2.82-.4c-1.17-.51-2.42-1-4.17.84a3,3,0,0,1-.76.56h0a8.82,8.82,0,0,1-4.5.56h0l-.51-.06a.87.87,0,0,0,.32-.67.88.88,0,0,0-.88-.87h-.09a.87.87,0,0,0-.78.77h0s0,.07,0,.1a.87.87,0,0,0,.78.86V23h0c-.5,2.32-4.89,18.71-30,26.85v1c0,.24.22.58.7.88v1.38a6.61,6.61,0,0,0,3.18.29l-3.38,18.65H231v1.22l-.28,0,.07.18a5.88,5.88,0,0,1,.2.57l0,.07v4.7l-.58-.09-.72-.1-1.12-.15-.65-.08-1.63-.19-.35,0L224.58,78l-.56,0-1.19-.09-.44,0-1.56-.09h-.61l-2-.05h-.34c-.68,0-1.35,0-2,0h-.2l-1,0h0l-1,0h-.06l-.31,0-.24,0-1.36.1h0l-1.38.14-.16,0-.52.06h-.05l-.58.08-.21,0-1,.16-.14,0-1.34.26-.2,0-.08,0-.21,0-.72.17L205,79l-.59.15-.16,0-.23.06h0l-.13,0h0l-1,.31-.2.06-.28.09h0l-.63.22-.08,0-.9.34h0l-.07,0-.12.05-.83.35-.18.08-.28.13L199,81q-.71.32-1.37.67l-.07,0-.15.08-.7.39-.14.08-.26.16-.08.05-.45.28h0l-.7.47-.06,0-.13.09-.62.46-.09.07-.25.2-.08.06-.35.29-.09.08-.54.48,0,0-.1.09-.57.55,0,0-.24.24-.06.07-.27.29-.11.12L191,87l0,0,0,0-.07.08q-.37.45-.71.91l0,.06-.21.29-.11.16-.35.53-.08.13q-.21.33-.4.66l-.06.1-.14.24,0,0-.15.28-.09.18-.29.58,0,.1q-.16.34-.3.68l-.07.17-.1.25v0l-.1.27-.07.19c-.08.23-.17.46-.24.7s-.21.68-.3,1l-.07.24,0,.15-.07.25c0,.15-.07.3-.11.46l-.06.24q-.11.49-.2,1l0,.19q-.07.39-.12.78l0,.25c0,.3-.07.59-.1.89v0c0,.31,0,.62-.06.92,0,.07,0,.13,0,.2q0,.38,0,.76c0,.05,0,.1,0,.15q0,.46,0,.91v0c0,.29,0,.58,0,.87v.12c.21,3.26.92,6.39,1.34,10.07l0,.19q.11,1,.19,2.05l0,.4c0,.19,0,.38,0,.58s0,.34,0,.51,0,.57,0,.86,0,.4,0,.6,0,.36,0,.54,0,.5,0,.76,0,.34,0,.5,0,.51,0,.78,0,.37,0,.56,0,.52-.06.79,0,.39-.05.59-.06.54-.09.81,0,.41-.07.62-.08.57-.12.86-.06.42-.09.63-.1.62-.16.93-.07.41-.11.62-.14.71-.21,1.07c0,.18-.07.36-.11.54q-.18.83-.39,1.69c-.09.37-.18.74-.28,1.1l-.07.28-.23.84-.06.22q-.31,1.07-.63,2l0,.07q-.16.47-.33.92l0,0q-.35.95-.72,1.8l0,0-.33.73-.09.2-.06.12c-.12.25-.24.49-.36.72l-.08.14-.3.54-.1.17-.34.57,0,.06-.38.57-.13.19-.26.36-.16.21-.26.33-.14.18-.38.43-.19.2-.22.23-.21.21-.21.2-.22.2-.36.3-.26.2-.21.15-.25.17-.21.14-.25.16-.26.15-.37.21-.25.13-.23.11-.28.13-.2.09-.49.19-.05,0-.26.2h0a1.87,1.87,0,0,0-.46.63h0a2.31,2.31,0,0,0-.09.26l0,.13c0,.06,0,.12,0,.18s0,.11,0,.17,0,.13,0,.19,0,.13,0,.2,0,.15,0,.22,0,.27,0,.41,0,.17,0,.26,0,.2,0,.3,0,.18,0,.28l.06.32.07.35.07.32c.06.24.12.48.19.75a14.87,14.87,0,0,0,1.14,2.87c-3.86.45-6.46,1-7.46,1.48a3.14,3.14,0,0,0-1.49,1.18,10.24,10.24,0,0,0-1.08,2.19,10.73,10.73,0,0,0-.67,4.76,1.4,1.4,0,0,0,1.18.07,6.81,6.81,0,0,0,1-.49,5.43,5.43,0,0,0-.14,1.21,3.76,3.76,0,0,0,.78,2.84,1.63,1.63,0,0,0,1.84.56,2.53,2.53,0,0,0,.95-.87,15.26,15.26,0,0,0,2.3,3.1,1,1,0,0,0,.44.22l.16.71,0,.09.18.75v.05l.2.76v0l.21.75v0l.22.74h0l.23.73h0l.24.7h0l.25.67v0l.26.63v0l.26.59v0l.27.54v0h0l0,.08-.2-.1.05.09.22.16h0l.11.08c.31.23.64.45,1,.67l.1.06c.36.23.72.45,1.1.67l0,0a46.93,46.93,0,0,0,8.71,3.71c2.77.69,5.85,1.35,8.87,1.93a5.81,5.81,0,0,0,1.72,4.21l.19.19,0,0,.26.21,0,0,.31.22,0,0,.38.25.05,0,.41.25,0,0,.46.27.13.07.43.24.22.12.32.17.25.13h0l.51.26.29.14.29.14.37.18.2.1,1.5.68.07,0,.54.24,0,0,1.71.71,0,0,.57.22,0,0,1.64.61.16.06.47.16h0c.12.82.22,1.42.28,1.63l0,.08a6.06,6.06,0,0,0,.68,1.06l.08.1.08.09.14.14,0,0a1.07,1.07,0,0,0,.19.13,3.55,3.55,0,0,0,3.15.35l.88-.32.12,0h0a5.69,5.69,0,0,0,2.82-1.79,10.85,10.85,0,0,0,1.21-2.28,66.81,66.81,0,0,0,11.25-5.27,66.83,66.83,0,0,0,11.25,5.27,10.82,10.82,0,0,0,1.22,2.28,5.68,5.68,0,0,0,2.82,1.79h0l.13,0,.88.31a3.55,3.55,0,0,0,3.15-.35,1.06,1.06,0,0,0,.19-.13l.05,0,.13-.13.07-.08h0l0,0,.08-.09.12-.15h0l0-.07,0-.06.11-.16,0-.07.11-.18.08-.14,0-.06.06-.12,0,0,0-.1c.06-.21.16-.81.28-1.63a70.08,70.08,0,0,0,6.82-2.78l.19-.09.38-.18.3-.15.28-.14.51-.26h0l.21-.11,1.08-.58h0a12.72,12.72,0,0,0,2-1.33l0,0,.2-.19a5.8,5.8,0,0,0,1.73-4.21c3-.58,6.1-1.25,8.87-1.93a50.78,50.78,0,0,0,7.46-3h0c.42-.22.83-.44,1.22-.67l.06,0c.38-.22.74-.44,1.09-.66l.11-.07c.33-.21.64-.43,1-.65l.14-.09h0l.22-.16.05-.09-.2.1,0-.08h0l0-.07.23-.47,0-.1.23-.51,0-.1.22-.54,0-.11.22-.58,0-.1.21-.61,0-.11.2-.63,0-.12.19-.64,0-.13.18-.64,0-.15.17-.64,0-.18.15-.62.05-.22.13-.58v0a1,1,0,0,0,.44-.22,15.3,15.3,0,0,0,2.3-3.1,2.52,2.52,0,0,0,.95.87,1.63,1.63,0,0,0,1.84-.56,3.76,3.76,0,0,0,.78-2.84,5.43,5.43,0,0,0-.14-1.21,6.82,6.82,0,0,0,1,.49,1.4,1.4,0,0,0,1.18-.07,9.49,9.49,0,0,0-.41-3.89C296.65,160.19,296.56,159.9,296.47,159.62ZM232.19,73.4V72.07h7.25l-.67.25,0,.12c.14.36.26.75.4,1.11l-1.54,0a4.44,4.44,0,0,0,.16-.75,1.26,1.26,0,0,0,0-.13c-.49.15-1,.27-1.48.38l.06.12c.06.12.1.25.16.37a5.77,5.77,0,0,0-1.34.17c0-.1.07-.2.09-.3l0-.17-.19,0a13.45,13.45,0,0,1-1.64.17l.06.17a7.41,7.41,0,0,0,.32.71c-1.62,1.2-1.6,3.39-1.64,4h.49v.81h0l-.59-.1V74c0-.13.09-.25.12-.37s0-.12,0-.18Zm44.93.19,0,.08v5.2H250.4V78h-.47a10.2,10.2,0,0,0,0-1.41,3.85,3.85,0,0,0-.38-1.25c.09-.43.13-.89.24-1.31a5.88,5.88,0,0,1,.2-.57l.07-.18a15.61,15.61,0,0,1-1.68.15c0,.06,0,.11,0,.18a4.79,4.79,0,0,0,.26.71l0,0-.25-.16,0,0L248,74l-.05,0-.19-.07h0l-.18,0h0l-.11,0H247l.08-.19.06-.17a13.44,13.44,0,0,1-1.64-.17l-.19,0,0,.17c0,.12.07.24.11.36l-1.13,0H244c.08-.19.15-.37.24-.55l.06-.12c-.5-.11-1-.24-1.48-.38a1.26,1.26,0,0,0,0,.13,4.81,4.81,0,0,0,.2.9l-1.61,0c.15-.38.28-.79.43-1.17l0-.12-.67-.25h13.47a10.54,10.54,0,0,1-1.64.59c0,.06,0,.12.05.18a5.07,5.07,0,0,0,.84,1.69c.16-.78.49-1.47.69-2.23l.05-.22h0l.05.22c.2.76.53,1.45.69,2.23a5.07,5.07,0,0,0,.84-1.69c0-.06,0-.13.05-.18a10.54,10.54,0,0,1-1.64-.59h13.47l-.67.25,0,.12a8.2,8.2,0,0,0,.85,2,20.07,20.07,0,0,0,.56-2.36h.21a20.07,20.07,0,0,0,.56,2.36,8.2,8.2,0,0,0,.85-2l0-.12-.67-.25h7.16v1.33h-.07C277.09,73.47,277.1,73.52,277.12,73.59Zm-36.67-1.51a14.39,14.39,0,0,0,.33,1.52l-.57,0h-.29a14.27,14.27,0,0,0,.32-1.5Zm36.7,39.16h-1.63v-1.46h.18v-.34h-.18v-.2l.14-.13,1.49,1.4Zm0-4.67-1.49,1.4-.14-.13V106.4h1.63ZM265,132.81v.34h.16v6.11H246.06a45.48,45.48,0,0,1-5.61-2.54h0q-.91-.5-1.75-1h0l-.19-.12a22.75,22.75,0,0,1-3.67-2.87,8.75,8.75,0,0,1,1.64-1.34c.6-.39,1.29-.78,2.06-1.18h0c.53-.27,1.1-.55,1.7-.82h0l.51-.23h0l.71-.3.07,0,.71-.29.08,0c1-.39,2-.77,3.1-1.14l.32-.11.62-.2.41-.13.59-.19.51-.15.54-.16,1-.3.39-.11.75-.2.44-.12.56-.14h0l.67-.16c1,.22,2.07.42,3.15.6,2.39.4,4.57.74,6.56,1l.63.09h0l2.63.35v5.36Zm.16-33H265v.34h.16v5.33H236.9a17.56,17.56,0,0,1-4.7-4.4V92.43h33Zm-7.39-14.24.51.76h0l1.18,1.74-1.7,2.51v-5Zm10.3,0,.51.77h0l1.18,1.74-.93,1.37h-.77V85.55Zm2.63,3.88h-.93l.47-.69Zm-5.12,0h-.42V91.3h-1.77l.42-.61h0l1.31-1.94Zm-18.79.42v.85L245,88.05l1.18-1.74h0l.47-.71h.13v4.25Zm-16.18,8.23h0a11.45,11.45,0,0,1-.62-3.39,8,8,0,0,1,.69-3.35q.1-.24.22-.48V87.3h0V98.85C230.84,98.59,230.74,98.34,230.65,98.08Zm1.54-9.21a13,13,0,0,1,1.27-1.41l.41.61-1.69,2.49ZM234,86.93a14,14,0,0,1,1.13-.87l.08,0-.91,1.34Zm1.94-.62h0l.44-.66.08,0v5l-1.72-2.53Zm1.25,3.53v-4.3l.51.76h0l1.18,1.74-1.7,2.51Zm.89-4.34h2.53l-1.26,1.87Zm2.91.81h0l.3-.45h0v0l.16-.24h.12v5.08l-1.78-2.63Zm1.31,3.53V85.6h.11l.48.71h0l1.18,1.74-1.77,2.62Zm-2.62,17.23h0l.06.06-.74-.4v-.3Zm10.69,3.64h0l.3.28c-1.06-.26-2.11-.55-3.14-.85l1.12-1.05Zm2.15-.7v-3.58l.67.63h0l1.55,1.45-2.22,2.09Zm-.93-2.88v3.59l-2.35-2.2,1.55-1.45h0l.71-.67h.08Zm-5.83-.74.71.67h0l1.55,1.45-1.43,1.34-.9-.29V106.4Zm-1,.74v2.12q-1.13-.4-2.22-.84l1.43-1.34h0l.71-.67h.07Zm14.48-.74.71.67h0l1.55,1.45-2.32,2.18v-4.3Zm-1,.74v3.58L256,108.53l1.55-1.45h0l.71-.67h.06Zm6.78,0v2.29H265v.34h.06v.93l-2.31-2.17,1.55-1.45h0l.71-.67h0Zm-2.92.82-1.66-1.56h3.32Zm-6.79,0-1.66-1.56H257Zm-6.71,0L247,106.4h3.32Zm-6.8,0-1.66-1.56h3.32ZM233,90.68l1.32-1.94,1.32,1.94h0l.42.61h-3.46l.42-.61Zm5.05,0,1.32-1.94,1.32,1.94h0l.42.61h-3.46l.42-.61Zm5.18,0,1.32-1.94,1.32,1.94h0l.42.61h-3.46l.42-.61Zm2.52-5.08-1.2,1.77-1.2-1.77h2.4ZM232.19,117l.42.3.12.09h0c.34.24.68.48,1,.71l-.19.09-.16.07-1.21.6V117Zm0,35.72v-4.51l.65.46.16.12,1,.64.34.21.69.43.41.24.68.4.44.25.71.39.45.24.77.4.43.22.93.45.23.11Q236.19,152.67,232.19,152.67Zm20.36-12.43.67.63h0l1,.9-1.63-.43v-1.1Zm9.12,3.13.51-.48.74.69Zm-2.37-3.17.71.67h0l1.55,1.45-.92.86-1.4-.27V140.2Zm-1,.74v1.79l-2.23-.49,1.45-1.36h0l.71-.67h.06Zm-6.7,0v.14l-.77-.22.69-.66h.08Zm13.47,0v1.86H265v.34h.06v.81l-.71-.11-1.6-1.5,1.55-1.45h0l.71-.67h0Zm-2.92.82-1.66-1.56h3.31Zm-6.79,0-1.66-1.55H257Zm-5.46-1.17-1.2-.38h1.61Zm3.19-29.35.55-.51h0l1.73-1.62,1.73,1.62h0l.55.51Zm7.34-.51,1.72-1.62,1.72,1.62h0l.55.51h-4.53l.55-.51Zm.83-20h0l.42.61h-3.46l.42-.61h0L260,88.74Zm-5.1,0h0l.42.61h-3.46l.42-.61h0l1.32-1.94Zm-5.18,0h0l.42.61H248l.42-.61h0l1.32-1.94Zm-3.48-.12v-5h0l.48.71h0l1.18,1.74Zm25-1.14h-.86l-.93-1.37,1.18-1.74h0l.53-.81h.06v3.92Zm-5.11-3v3h-.87l-.93-1.37,1.18-1.74h0l.54-.81h.07ZM263,85.51l.54.81h0l1.18,1.74-1.77,2.61V85.51Zm-.75.88v4.3l-1.78-2.63,1.18-1.74h0l.54-.81h.05Zm-5.11,0v4.28l-1.77-2.61,1.18-1.74h0l.54-.81h0Zm-4.42-.88.54.81h0l1.18,1.74-1.77,2.61V85.51Zm-.75.88v4.3l-1.78-2.63,1.18-1.74h0l.54-.81h.05ZM220.6,90.47l.41-.18,1.18-.5.26-.11,1.29-.5-.12.21,0-.05-.11.2,0,.09c-.16.3-.31.61-.45.93h0c-.14.31-.27.64-.39,1l-.07.2c-.11.32-.22.64-.32,1l0,.05c-.1.34-.19.7-.27,1.06l-.06.27c-.08.37-.15.74-.2,1.13s-.1.76-.13,1.14v.17c0,.38,0,.76-.06,1.14,0,0,0,0,0,.07q0,.55,0,1.1s0,.08,0,.12q0,.56.09,1.11l0,.18c0,.37.09.74.16,1.11h0v0h0a20.18,20.18,0,0,0,.66,2.65v0c.18.51.36,1.16.57,1.66,0,0,0-.07,0-.11l.08.2a26.31,26.31,0,0,0,7.68,10h0l.17.14v3.49a17.47,17.47,0,0,0-5.08,4.12,14.82,14.82,0,0,0-2.49,4.7h0l-.07.23-.09.29-.07.29q-.09.36-.16.72l0,.16,0,.09-.11.24a14.47,14.47,0,0,0-.1,1.67c0,.09,0,.18,0,.28s0,.15,0,.22,0,.28,0,.43,0,.12,0,.18a14.45,14.45,0,0,0,.16,1.68v0c0,.16.05.32.08.48l0,.19c0,.15.06.3.1.45l.05.22.12.44.07.23.14.44.08.23.16.45.08.19a17.2,17.2,0,0,0,.73,1.59l.1.2.24.42.15.27.25.4.18.29.26.39.21.3.28.38.24.31.3.38.27.32.45.53.43.48.31.32.35.36.34.33.37.36.36.32.26.23h0l.08.07.06.05.37.32.45.37.1.09v5.47c-9.56,0-18.61.15-26.7.4l.3-.5.29-.49.4-.7.26-.45q.3-.54.57-1.07l.2-.39.37-.75.23-.5.29-.62.23-.51.25-.59.21-.51.24-.61.18-.48q.18-.51.35-1l.15-.49.18-.58.15-.54.14-.53.14-.55.12-.5.13-.56,0-.09c0-.1,0-.19.06-.28l0-.16q.08-.42.15-.84l.06-.34q.06-.4.12-.8l0-.37q0-.38.09-.76l0-.41q0-.37.06-.73t0-.44q0-.35,0-.7t0-.48q0-.33,0-.67t0-.51q0-.32,0-.64t0-.54q0-.31,0-.61t0-.58q0-.3,0-.59t0-.6q0-.29,0-.57t-.06-.63l-.06-.56q0-.32-.07-.65L210,126l-.09-.66-.08-.57-.1-.66-.1-.6-.11-.63-.11-.65-.11-.59-.14-.73-.05-.27-.06-.31q-.28-1.43-.61-2.91c-.19-1.49-.39-2.87-.6-4-.05-.3-.1-.62-.13-.94v-.12q0-.49-.07-1v-.09a21.31,21.31,0,0,1,.06-2.35c0-.13,0-.26,0-.4l0-.2q0-.4.1-.8v-.06c.08-.6.19-1.21.32-1.82l0-.07q.09-.41.19-.83l0-.15q.1-.39.21-.78l0-.14q.13-.44.28-.89h0c.21-.62.45-1.24.71-1.85l0-.06q.18-.41.37-.81l.06-.13q.19-.39.39-.76l.06-.11a20.22,20.22,0,0,1,1.6-2.51l.05-.07q.27-.35.55-.69l.09-.11q.28-.33.58-.65l.07-.08q.34-.35.7-.69l.25-.23.25-.22.51-.41.21-.16.54-.38.22-.15.58-.36.2-.12c.27-.15.54-.3.82-.43C218.74,91.32,219.67,90.88,220.6,90.47Zm44.6,22.93-1.44-.15h0c-2.42-.28-5-.63-7.54-1.1h9Zm5.08-26L269,85.51h2.53Zm-5.12,0-1.27-1.87h2.53Zm-5.18,0-1.27-1.87h2.53Zm-5.1,0-1.27-1.87h2.53Zm-5.18,0-1.2-1.77h1.35v.27h.56v-.36H251Zm26.57,55,.88-.83v1.66Zm.88-2-1.49,1.4-.14-.13V140.2h1.63Zm-.89-31.83.89-.83v1.66Zm.89-17.29v.06h-1.63V89.43H275l.46-.68,1.31,1.94h0Zm-3.08-1.81h-.84V85.51h0l.54.81h0L275,88.06Zm.12-3.92h2.53l-1.27,1.87Zm1.25-1.14H273V80h2.46Zm-3.59,0H269.4V80h2.46Zm-3.59,0h-2.46V80h2.46Zm-3.59,0h-2.46V80h2.46Zm-3.59,0h-2.83V80h2.83Zm-4,0h-2.64V80h2.64Zm-3.77,0h-2.64V80h2.64ZM275.52,145v-1.9h.18v-.19l1.45,1.36V145Zm0-39.57v-5.33h.18v-.34h-.18V92.43h1.63v13Zm1.06-21.09V80h.57v4.38Zm-26.73-5.73h-8.42v-.42h8.42Zm25.68,60.61v-6.11h.18v-.34h-.18v-4.57l.93,0h0l.7,0v11.08Zm.63-25.12h0l-.63,0v-2h1.63v2Zm-.22-26.08,1.18-1.74h0l0-.06v3.61Z"/></g><path class="cls-4" d="M314.33,210.71H12V8H314.33Z"/></g></svg>