<svg xmlns="http://www.w3.org/2000/svg" viewBox="0 0 89.66 26.28"><defs><style>.cls-1{fill:#956339;}.cls-2{fill:#d9d9d9;}.cls-3{fill:#835323;}.cls-4{fill:#be7c4d;}</style></defs><title>資產 1</title><g id="圖層_2" data-name="圖層 2"><g id="圖層_1-2" data-name="圖層 1"><path class="cls-1" d="M77.73,9.84a1.4,1.4,0,0,1,.41.05Zm.64.09,8.8,1.17L82.92,21.58l-2.4,2.3H6.94S5.14,16.76,3,14.44L6.94,12H1.8L0,1.66,1.8.06h29c.66.82,1.3,1.65,1.9,2.51,0,0,.87-1,2.36-2.51H82.63s2.11,6.6,0,8.49A5.89,5.89,0,0,1,78.37,9.93Z"/><path class="cls-2" d="M87.36,9.5l-4-.38.1-.09a2.81,2.81,0,0,0,.62-1,4.67,4.67,0,0,0,.27-1.76A16.23,16.23,0,0,0,82.6,0l-.38.06a18.09,18.09,0,0,1,.88,6.19,3,3,0,0,1-1.6,2.7,6,6,0,0,1-4,.67l-.12.32,9.24,1.24L82.44,21.42l-2.31,2.19c-18.39,0-18.24-.07-36.63,0L6.72,23.7V24c4.61.35,2.21,1.16,2.21,1.16l6.91.26q13.83.5,27.66.68c4.61.09,9.22.12,13.83.14s9.22.09,13.83,0l-4.71-.07,13.83-.22H81.9l.84-.84c.78-.78,1.57-1.56,2.33-2.35l.36-.38.09-.27c1.19-3.54,2.48-7.05,3.59-10.6l.55-1.75Z"/><path class="cls-3" d="M82.52,0a18.16,18.16,0,0,1,.93,6.26,4.65,4.65,0,0,1-.39,1.57,3.11,3.11,0,0,1-1.32,1.32,6.47,6.47,0,0,1-4.4.73l.09-.24L87,10.92h.21l-.06.15-4.2,10.48h0L80.5,23.86l-.07.07H43.5L6.72,23.86v-.21c4.61-.27,2.21-.88,2.21-.88l6.91-.17c9.22-.22,18.44-.49,27.66-.5s18.44-.2,27.66-.16l9.12.22-1.86.66c.82-.76,1.63-1.53,2.49-2.27l-.34.49,4.76-10.37,1.3,1.45c-3.15-.51-6.31-1-9.45-1.52l.63-1.73A4.78,4.78,0,0,0,81,8.48,4.15,4.15,0,0,0,81.66,8a1.7,1.7,0,0,0,.42-.49,4.17,4.17,0,0,0,.47-1.38,13,13,0,0,0,.09-3.06A23.35,23.35,0,0,0,82.27,0Z"/><path class="cls-4" d="M32.23,1.26c-6.44,0-12.88.08-19.32,0C3.08,1.19,11.8,1.19,2,1.07L3.07.69,1.21,2.24l.29-.7L3,11.9l-1-.62c1.71,0,3.43,0,5.14.09l2.3.07-1.71,1L3.66,14.79l.12-.59a9.79,9.79,0,0,1,1.35,2.39c.34.8.62,1.61.87,2.41.5,1.62.91,3.24,1.25,4.87H7.06c-.43-1.61-.93-3.22-1.53-4.81-.3-.79-.62-1.58-1-2.36a9.88,9.88,0,0,0-1.41-2.24V14.4h.07L7,11.9l.08.15H1.87V12L0,1.65H0L1.87.07H31.65Z"/><path class="cls-4" d="M35.19.49H83.28V.62c-9.83.25-1.11.61-10.94.71L57.6,1.56l-14.74.09H34.34Z"/></g></g></svg>