<?xml version="1.0" encoding="utf-8"?>
<!-- Generator: Adobe Illustrator 23.0.3, SVG Export Plug-In . SVG Version: 6.00 Build 0)  -->
<svg version="1.1" id="圖層_1" xmlns="http://www.w3.org/2000/svg" xmlns:xlink="http://www.w3.org/1999/xlink" x="0px" y="0px"
	 viewBox="0 0 468.94 656.68" style="enable-background:new 0 0 468.94 656.68;" xml:space="preserve">
<style type="text/css">
	.st0{clip-path:url(#SVGID_2_);}
	.st1{fill-rule:evenodd;clip-rule:evenodd;fill:#CFAF7A;}
	
		.st2{clip-path:url(#SVGID_2_);fill-rule:evenodd;clip-rule:evenodd;fill:none;stroke:#EFDAB4;stroke-width:3.6;stroke-linecap:round;stroke-linejoin:round;stroke-miterlimit:22.9256;}
	
		.st3{clip-path:url(#SVGID_2_);fill-rule:evenodd;clip-rule:evenodd;fill:none;stroke:#E6CA93;stroke-width:2.4001;stroke-linecap:round;stroke-linejoin:round;stroke-miterlimit:22.9256;}
	
		.st4{clip-path:url(#SVGID_2_);fill-rule:evenodd;clip-rule:evenodd;fill:#EFDAB4;stroke:#87685A;stroke-width:4;stroke-linecap:round;stroke-linejoin:round;stroke-miterlimit:10;}
	
		.st5{clip-path:url(#SVGID_2_);fill:none;stroke:#CFAF7A;stroke-width:2.4001;stroke-linecap:round;stroke-linejoin:round;stroke-miterlimit:22.9256;}
	.st6{fill:none;stroke:#CFAF7A;stroke-width:2.4001;stroke-linecap:round;stroke-linejoin:round;stroke-miterlimit:22.9256;}
	.st7{clip-path:url(#SVGID_2_);fill:#664232;}
</style>
<g>
	<g>
		<defs>
			
				<rect id="SVGID_1_" x="-93.32" y="94.64" transform="matrix(2.343663e-03 -1 1 2.343663e-03 -94.4167 562.0422)" width="655.59" height="467.41"/>
		</defs>
		<clipPath id="SVGID_2_">
			<use xlink:href="#SVGID_1_"  style="overflow:visible;"/>
		</clipPath>
		<g class="st0">
			
				<rect x="-93.32" y="94.64" transform="matrix(2.343663e-03 -1 1 2.343663e-03 -94.4167 562.0422)" class="st1" width="655.59" height="467.41"/>
		</g>
		<path class="st2" d="M56.4,24.7l357.56,0.84c-0.04,15.11,12.3,27.51,27.42,27.55l-1.29,551.47c-15.11-0.04-27.51,12.3-27.55,27.42
			l-357.56-0.84c0.04-15.11-12.3-27.51-27.42-27.55l1.29-551.47C43.97,52.16,56.37,39.82,56.4,24.7z"/>
		<path class="st3" d="M62.82,31.91c-2.87,13.33-13.45,23.86-26.79,26.67l-1.26,538.6c13.33,2.87,23.86,13.45,26.67,26.79
			l344.69,0.81c2.87-13.33,13.45-23.86,26.79-26.67l1.26-538.6c-13.33-2.87-23.86-13.45-26.67-26.79L62.82,31.91z"/>
		<path class="st4" d="M68.19,46.11c-4.26,11.51-13.46,20.66-24.99,24.87L41.97,598.8c11.51,4.26,20.66,13.46,24.87,24.99
			l333.91,0.78c4.26-11.51,13.46-20.66,24.99-24.87l1.24-527.82c-11.51-4.26-20.66-13.46-24.87-24.99L68.19,46.11z"/>
		<line class="st5" x1="248.72" y1="580.26" x2="391.26" y2="580.6"/>
		<g class="st0">
			<path class="st6" d="M221.93,586.71c-5.69,5.79,1.74,15.74,9.03,9.64c6.7-5.61,0.01-16.05-12.41-16.01
				c-20.07,0.07-38.98,27.21-55.1,9.87c-7.93-8.53,5.42-15.37,6.23-2.7c0.8,12.67-27.08,17.63-32.37,0.65"/>
			<path class="st6" d="M245.3,586.77c5.66,5.81-1.82,15.73-9.07,9.6c-6.68-5.64,0.07-16.05,12.49-15.95
				c20.07,0.16,38.85,27.4,55.06,10.13c7.97-8.5-5.35-15.39-6.21-2.73c-0.86,12.67,26.99,17.76,32.37,0.8"/>
		</g>
		<path class="st5" d="M260.07,582.98c7.29,3.86,13,10.86,13.37,17"/>
		<path class="st5" d="M207.45,582.85c-7.31,3.83-13.05,10.8-13.45,16.93"/>
		<path class="st5" d="M312.04,599.38c4.63,0.79,8.2-4.17,5.46-9.25c-2.59-4.82-7.85,0.46-2.61,2.71c2.1,0.9,8.09,1.41,10.38-5.76"
			/>
		<path class="st5" d="M155.87,599.01c-4.63,0.77-8.18-4.21-5.42-9.28c2.62-4.81,7.85,0.49,2.59,2.72
			c-2.11,0.89-8.1,1.37-10.36-5.81"/>
		<line class="st5" x1="76" y1="579.86" x2="218.54" y2="580.19"/>
		<path class="st7" d="M32.49,12.99c0,0.37,0.73,1.38,0.99,1.66c0.55,0.59,1.08,0.33,1.77,0.45c0.69,0.12,1.09,0.6,1.86,0.5
			c0.96-0.13,1.81-0.78,2.82-0.73c-0.78,0.4-2.49,1.29-2.31,2.37c0.09,0.55,0.73,0.49,1.14,0.76c0.47,0.31,0.74,0.54,0.76,1.12
			c0.01,0.36-0.16,1.05,0.04,1.36c0.17,0.27,0.65,0.42,0.93,0.52c0.69,0.25,1.09,0.3,1.55,0.94c0.44,0.62,0.43,0.89,1.19,0.98
			c0.17,0.73-0.01,0.89-0.67,1.08c-0.51,0.15-1.11,0.28-1.36,0.81c-0.1,0.2,0.02,0.42-0.1,0.61c-0.13,0.21-0.44,0.33-0.61,0.52
			c-0.34,0.38-0.42,0.88-0.58,1.36c-0.24,0.69,0.02,0.56,0.24,1.22c0.21,0.62-0.1,1.11-0.37,1.65c-0.55,1.11-1.8,1.6-1.42,3.05
			c0.15,0.57,0.18,1.03,0.18,1.65c0,0.23,0.05,1.53-0.42,1.39c-0.12-0.04-0.3-0.58-0.35-0.69c-0.19-0.4-0.26-0.55-0.64-0.77
			c-0.57-0.34-1-0.41-1.65-0.41c-0.93,0-2.36-0.32-3,0.52c-0.25,0.33-0.24,0.76-0.57,1.06c-0.43,0.39-1.27,0.39-1.8,0.26
			c-0.03-0.39-0.16-1.17-0.43-1.45c-0.35-0.35-1.24-0.17-1.71-0.17c-0.57,0-1.34-0.14-1.89,0.04c-0.59,0.2-1,0.88-1.6,1.04
			c-0.3-0.9,0.57-1.64,0.65-2.47c-0.38-0.1-0.77-0.01-1.15-0.03c-0.46-0.03-0.77-0.21-1.17-0.42c-0.43-0.22-0.73-0.24-1.17-0.35
			c-0.28-0.07-0.4-0.18-0.7-0.19c-0.22-0.01-0.45,0.07-0.66-0.04c-0.3-0.17-0.37-0.6-0.57-0.85c-0.23-0.29-0.56-0.42-0.88-0.58
			c-0.74-0.37-1.88-0.64-1.18-1.59c0.55-0.74,1.3-0.32,2.12-0.45c1.13-0.18,1.42-1.14,1.42-2.12c0-0.92,0.12-1.91,0.02-2.82
			c-0.06-0.56-0.2-1.15-0.3-1.72c-0.09-0.55-0.18-1.16-0.85-1.15c-0.07-0.28-0.18-0.96,0.19-1.11c0.21-0.08,0.9,0.21,1.19,0.21
			c0.48,0,0.74,0.06,1.01-0.41c0.19-0.34,0.15-0.69,0.45-1c0.27-0.28,0.57-0.47,0.84-0.77c0.28-0.3,0.7-0.41,0.96-0.69
			c0.19-0.2,0.26-0.86,0.28-1.13c0.03-0.47-0.35-0.98-0.21-1.39c0.25-0.04,0.72,0.24,0.92,0.38c0.4,0.29,0.37,0.51,0.93,0.54
			c0.76,0.04,1.46,0.04,2.11-0.24c0.57-0.25,1.22-0.1,1.83-0.28C31.13,14.88,32.62,13.63,32.49,12.99z"/>
		<path class="st7" d="M17.36,622.13c0.29,0.23,1.53,0.29,1.91,0.26c0.81-0.06,0.94-0.64,1.46-1.1c0.53-0.47,1.16-0.48,1.56-1.14
			c0.5-0.83,0.52-1.9,1.19-2.66c-0.17,0.86-0.54,2.75,0.41,3.28c0.49,0.27,0.84-0.27,1.31-0.42c0.53-0.17,0.89-0.24,1.35,0.1
			c0.29,0.22,0.72,0.78,1.09,0.82c0.32,0.03,0.74-0.25,0.99-0.4c0.62-0.39,0.91-0.66,1.71-0.62c0.76,0.04,0.96,0.22,1.51-0.32
			c0.68,0.32,0.69,0.56,0.42,1.2c-0.2,0.49-0.48,1.04-0.22,1.57c0.1,0.2,0.34,0.24,0.41,0.45c0.08,0.24-0.02,0.55,0.02,0.8
			c0.08,0.5,0.43,0.88,0.69,1.3c0.39,0.62,0.45,0.34,1.11,0.57c0.62,0.22,0.81,0.77,1.06,1.32c0.52,1.12,0.12,2.4,1.5,3.02
			c0.54,0.24,0.91,0.51,1.4,0.89c0.18,0.14,1.23,0.92,0.83,1.19c-0.1,0.07-0.64-0.13-0.76-0.16c-0.42-0.1-0.59-0.14-1,0.02
			c-0.62,0.24-0.95,0.52-1.35,1.03c-0.58,0.73-1.72,1.64-1.47,2.67c0.1,0.4,0.44,0.67,0.47,1.11c0.04,0.58-0.49,1.24-0.92,1.57
			c-0.32-0.22-1.02-0.6-1.4-0.56c-0.49,0.05-0.91,0.86-1.2,1.23c-0.36,0.45-0.95,0.96-1.14,1.5c-0.21,0.58,0.06,1.34-0.19,1.9
			c-0.9-0.33-0.92-1.47-1.52-2.04c-0.31,0.23-0.49,0.59-0.74,0.88c-0.31,0.34-0.64,0.47-1.06,0.66c-0.44,0.19-0.64,0.42-1.01,0.7
			c-0.23,0.17-0.39,0.2-0.59,0.43c-0.15,0.17-0.22,0.4-0.45,0.49c-0.32,0.13-0.7-0.08-1.02-0.08c-0.37,0-0.68,0.18-1,0.33
			c-0.75,0.35-1.67,1.07-1.98-0.07c-0.24-0.89,0.56-1.22,0.97-1.94c0.56-1-0.01-1.82-0.78-2.43c-0.72-0.57-1.41-1.29-2.19-1.77
			c-0.48-0.3-1.03-0.56-1.52-0.84c-0.49-0.27-1.02-0.59-1.43-0.06c-0.26-0.12-0.86-0.47-0.75-0.84c0.06-0.21,0.72-0.57,0.91-0.8
			c0.3-0.37,0.51-0.55,0.31-1.04c-0.14-0.36-0.44-0.55-0.5-0.97c-0.05-0.39-0.02-0.74-0.08-1.13c-0.06-0.41,0.12-0.81,0.06-1.18
			c-0.04-0.28-0.51-0.74-0.7-0.92c-0.35-0.32-0.98-0.34-1.21-0.7c0.13-0.22,0.64-0.42,0.88-0.48c0.48-0.13,0.63,0.03,1-0.39
			c0.51-0.57,0.94-1.11,1.13-1.8c0.16-0.61,0.68-1.01,0.93-1.61C17.99,624.38,17.95,622.43,17.36,622.13z"/>
		<path class="st7" d="M428.1,632.3c0.37-0.07,1.21-0.99,1.43-1.3c0.47-0.66,0.11-1.13,0.09-1.83c-0.02-0.7,0.37-1.19,0.12-1.93
			c-0.32-0.92-1.13-1.61-1.28-2.62c0.55,0.68,1.76,2.18,2.78,1.79c0.52-0.2,0.33-0.82,0.52-1.27c0.21-0.52,0.38-0.83,0.94-0.97
			c0.35-0.08,1.06-0.05,1.33-0.31c0.23-0.23,0.28-0.73,0.32-1.02c0.1-0.73,0.07-1.13,0.61-1.71c0.52-0.56,0.79-0.6,0.72-1.36
			c0.68-0.31,0.87-0.17,1.19,0.44c0.25,0.47,0.5,1.03,1.07,1.17c0.22,0.05,0.4-0.11,0.61-0.03c0.24,0.09,0.41,0.36,0.63,0.49
			c0.44,0.26,0.95,0.23,1.45,0.3c0.72,0.1,0.55-0.13,1.15-0.48c0.57-0.34,1.11-0.12,1.69,0.03c1.2,0.32,1.92,1.44,3.28,0.78
			c0.53-0.26,0.97-0.38,1.58-0.51c0.22-0.05,1.49-0.36,1.45,0.13c-0.01,0.13-0.51,0.41-0.6,0.48c-0.35,0.26-0.48,0.37-0.63,0.78
			c-0.22,0.63-0.2,1.06-0.07,1.7c0.19,0.91,0.16,2.37,1.11,2.84c0.37,0.18,0.79,0.09,1.16,0.35c0.47,0.34,0.64,1.17,0.61,1.71
			c-0.37,0.11-1.11,0.39-1.33,0.71c-0.28,0.41,0.08,1.25,0.18,1.71c0.11,0.56,0.13,1.34,0.42,1.84c0.31,0.54,1.07,0.81,1.34,1.36
			c-0.83,0.48-1.72-0.23-2.55-0.14c-0.02,0.39,0.14,0.75,0.2,1.13c0.06,0.45-0.05,0.79-0.18,1.23c-0.13,0.46-0.09,0.76-0.11,1.22
			c-0.01,0.29-0.09,0.43-0.05,0.73c0.03,0.22,0.16,0.43,0.09,0.65c-0.11,0.33-0.51,0.49-0.72,0.73c-0.24,0.28-0.3,0.63-0.39,0.98
			c-0.21,0.8-0.25,1.97-1.32,1.47c-0.84-0.39-0.58-1.21-0.87-1.99c-0.4-1.07-1.41-1.16-2.36-0.96c-0.9,0.19-1.89,0.26-2.76,0.55
			c-0.54,0.18-1.09,0.43-1.62,0.63c-0.52,0.2-1.11,0.41-0.96,1.06c-0.26,0.12-0.91,0.37-1.13,0.04c-0.12-0.18,0.03-0.92-0.03-1.21
			c-0.09-0.47-0.09-0.74-0.6-0.91c-0.37-0.12-0.7-0.01-1.07-0.24c-0.33-0.21-0.58-0.46-0.92-0.67c-0.35-0.21-0.54-0.61-0.86-0.8
			c-0.24-0.14-0.9-0.09-1.16-0.05c-0.47,0.06-0.89,0.54-1.32,0.48c-0.08-0.24,0.09-0.76,0.19-0.98c0.21-0.45,0.43-0.47,0.34-1.02
			c-0.11-0.75-0.25-1.44-0.66-2.02c-0.36-0.51-0.34-1.17-0.64-1.74C430.22,633.25,428.7,632.04,428.1,632.3z"/>
		<path class="st7" d="M429.51,28.1c0.37-0.07,1.21-0.99,1.43-1.3c0.47-0.66,0.11-1.13,0.09-1.83c-0.02-0.7,0.37-1.19,0.12-1.93
			c-0.32-0.92-1.13-1.61-1.28-2.62c0.55,0.68,1.76,2.18,2.78,1.79c0.52-0.2,0.33-0.82,0.52-1.27c0.21-0.52,0.38-0.83,0.94-0.97
			c0.35-0.08,1.06-0.05,1.33-0.31c0.23-0.23,0.28-0.73,0.32-1.02c0.1-0.73,0.07-1.13,0.61-1.71c0.52-0.56,0.79-0.6,0.72-1.36
			c0.68-0.31,0.87-0.17,1.19,0.44c0.25,0.47,0.5,1.03,1.07,1.17c0.22,0.05,0.4-0.11,0.61-0.03c0.24,0.09,0.41,0.36,0.63,0.49
			c0.44,0.26,0.95,0.23,1.45,0.3c0.72,0.1,0.55-0.13,1.15-0.48c0.57-0.34,1.11-0.12,1.69,0.03c1.2,0.32,1.92,1.44,3.28,0.78
			c0.53-0.26,0.97-0.38,1.58-0.51c0.22-0.05,1.49-0.36,1.45,0.13c-0.01,0.13-0.51,0.41-0.6,0.48c-0.35,0.26-0.48,0.37-0.63,0.78
			c-0.22,0.63-0.2,1.06-0.07,1.7c0.19,0.91,0.16,2.37,1.11,2.84c0.37,0.18,0.79,0.09,1.16,0.35c0.47,0.34,0.64,1.17,0.61,1.71
			c-0.37,0.11-1.11,0.39-1.33,0.71c-0.28,0.41,0.08,1.25,0.18,1.71c0.11,0.56,0.13,1.34,0.42,1.84c0.31,0.54,1.07,0.81,1.34,1.36
			c-0.83,0.48-1.72-0.23-2.55-0.14c-0.02,0.39,0.14,0.75,0.2,1.13c0.06,0.45-0.05,0.79-0.18,1.23c-0.13,0.46-0.09,0.76-0.11,1.22
			c-0.01,0.29-0.09,0.43-0.05,0.73c0.03,0.22,0.16,0.43,0.09,0.65c-0.11,0.33-0.51,0.49-0.72,0.73c-0.24,0.28-0.3,0.63-0.39,0.98
			c-0.21,0.8-0.25,1.97-1.32,1.47c-0.84-0.39-0.58-1.21-0.87-1.99c-0.4-1.07-1.41-1.16-2.36-0.96c-0.9,0.19-1.89,0.26-2.76,0.55
			c-0.54,0.18-1.09,0.43-1.62,0.63c-0.52,0.2-1.11,0.41-0.96,1.06c-0.26,0.12-0.91,0.37-1.13,0.04c-0.12-0.18,0.03-0.92-0.03-1.21
			c-0.09-0.47-0.09-0.74-0.6-0.91c-0.37-0.12-0.7-0.01-1.07-0.24c-0.33-0.21-0.58-0.46-0.92-0.67c-0.35-0.21-0.54-0.61-0.86-0.8
			c-0.24-0.14-0.9-0.09-1.16-0.05c-0.47,0.06-0.89,0.54-1.32,0.48c-0.08-0.24,0.09-0.76,0.19-0.98c0.21-0.45,0.43-0.47,0.34-1.02
			c-0.11-0.75-0.25-1.44-0.66-2.02c-0.36-0.51-0.34-1.17-0.64-1.74C431.64,29.06,430.11,27.84,429.51,28.1z"/>
	</g>
</g>
</svg>
