<?xml version="1.0" encoding="utf-8"?>
<!-- Generator: Adobe Illustrator 23.0.3, SVG Export Plug-In . SVG Version: 6.00 Build 0)  -->
<svg version="1.1" id="圖層_1" xmlns="http://www.w3.org/2000/svg" xmlns:xlink="http://www.w3.org/1999/xlink" x="0px" y="0px"
	 viewBox="0 0 102.12 48.25" style="enable-background:new 0 0 102.12 48.25;" xml:space="preserve">
<style type="text/css">
	.st0{fill:#2C2A2B;}
	.st1{opacity:0.6;fill:#3D3B3C;}
	.st2{fill:#8B3130;}
</style>
<g>
	<path class="st0" d="M13.6,21.16c17.3,3.67,25.11,11.86,35.06,11.68c16-0.28,27.97-1.55,36.37-6.55
		c11.44-6.82,22.51-1.43,14.22,7.65c-8.29,9.07-25.22,17.28-56.2,13.27C-1.1,41.49-11.98,15.73,13.6,21.16z"/>
	<path class="st1" d="M19.44,27.83c14.44,2.6,21.06,7.99,29.32,8.01c13.31,0.04,23.25-0.62,30.17-3.74
		c9.42-4.24,18.71-0.62,11.93,5.13c-6.77,5.74-20.75,10.81-46.58,7.81C7.49,40.75-1.91,23.98,19.44,27.83z"/>
	<path class="st0" d="M29.33,32.47C29.7,27.4,38.05-5.14,45.36,0.7c4.23,3.38,6.96,3.47,8.32,2.3c1.36-1.18,4.16-4.71,7.34-0.58
		c2.84,3.69,8.82,26.93,9.67,32.09C71.51,39.55,28.88,38.63,29.33,32.47z"/>
	<path class="st1" d="M33.07,24.86c0.23-3.14,6.42-23.23,12.27-19.52c3.38,2.15,5.54,2.24,6.6,1.53C53,6.16,55.17,4,57.74,6.6
		c2.29,2.32,7.3,16.82,8.03,20.03C66.47,29.77,32.79,28.68,33.07,24.86z"/>
	<path class="st2" d="M29.63,28.29c0,0,26.33,7.83,40.4,1.58l1.57,5.61c0,0-3.97,3.99-23.07,2.62c-19.1-1.37-19.82-5.16-19.82-5.16
		L29.63,28.29z"/>
</g>
</svg>
