<?xml version="1.0" encoding="utf-8"?>
<!-- Generator: Adobe Illustrator 23.0.3, SVG Export Plug-In . SVG Version: 6.00 Build 0)  -->
<svg version="1.1" id="圖層_1" xmlns="http://www.w3.org/2000/svg" xmlns:xlink="http://www.w3.org/1999/xlink" x="0px" y="0px"
	 viewBox="0 0 96.87 32.84" style="enable-background:new 0 0 96.87 32.84;" xml:space="preserve">
<style type="text/css">
	.st0{fill:#542612;}
	.st1{fill:#F39700;}
	.st2{fill:#8C4322;}
	.st3{fill:#9F5023;}
	.st4{fill:#6C2D19;}
	.st5{fill:#9E5923;}
	.st6{fill:#AE6523;}
	.st7{fill:#944D23;}
	.st8{fill:#B5B5B5;}
	.st9{fill:#CB772E;}
</style>
<g>
	<g>
		<g id="XMLID_308_">
			<g>
				<path class="st0" d="M54.65,3.01c4.84-1.81,6.97-3.24,8.61-2.74c-1.67,6.46-10.39,10.68-14.81,10.48
					c-4.41-0.22-12.02-2.23-13.28-10.47V0.27c0.37-0.16,0.74-0.16,1.12-0.01C41.35,2.37,46.15,6.19,54.65,3.01z"/>
				<path class="st1" d="M48.22,23.65c-5.47,0-12.3,2.17-19.15,4.06c-2.28-0.4-2.93-1.08-2.93-1.08s0.42-2.34,1.14-5.65
					c4.77,1.43,12.76,2.28,20.93,2.24L48.22,23.65z"/>
				<path class="st1" d="M48.21,23.22c8.67-0.03,17.56-1.06,23.04-3.42h0.01c0.66,3.9,0.92,6.84,0.92,6.84s-1.26,0.4-3.37,0.62
					c-7.63-1.4-15.02-3.39-19.79-3.59c-0.26-0.01-0.53-0.01-0.8-0.01L48.21,23.22z"/>
				<path class="st2" d="M70.06,13.91c0.49,2.04,0.88,4.07,1.2,5.88h-0.01c-5.48,2.36-14.37,3.39-23.04,3.42
					c-8.17,0.04-16.16-0.8-20.93-2.24c0.36-1.67,0.8-3.6,1.3-5.59c1.7-6.69,4.09-14.1,6.58-15.12c1.26,8.24,8.86,10.25,13.28,10.47
					c4.42,0.21,13.14-4.01,14.81-10.48c1.24,0.37,2.21,1.84,3.86,5.07C68.36,7.76,69.32,10.85,70.06,13.91z"/>
				<path class="st0" d="M2.64,26.27C-6.62,16.24,12.89,7.3,28.58,15.39c-0.5,1.99-0.94,3.91-1.3,5.59
					c-0.72,3.3-1.14,5.65-1.14,5.65s0.65,0.68,2.93,1.08c-10.02,2.78-20.1,4.96-26.09-1.08C2.87,26.51,2.76,26.39,2.64,26.27
					C2.64,26.27,2.64,26.27,2.64,26.27z"/>
				<path class="st0" d="M70.06,13.91c18.75-6.57,29.3,1.5,25.97,8.33c0,0.01-0.01,0.01-0.01,0.01c-1.01,1.28-2.01,2.4-3.03,3.38
					c-0.01,0.01-0.01,0.01-0.01,0.01c-0.17,0.11-0.33,0.23-0.51,0.34c-5.72,3.69-14.85,2.88-23.67,1.26
					c2.11-0.22,3.37-0.62,3.37-0.62s-0.26-2.94-0.92-6.84C70.95,17.97,70.55,15.95,70.06,13.91z"/>
				<path class="st3" d="M50.26,30.48c-23.21-0.79-37.01,7.73-47.62-4.21c0.11,0.11,0.23,0.24,0.34,0.35
					c5.99,6.04,16.06,3.86,26.09,1.08c6.85-1.89,13.68-4.06,19.15-4.06c0.27,0,0.54,0,0.8,0.01c4.76,0.2,12.16,2.19,19.79,3.59
					c8.82,1.61,17.94,2.43,23.67-1.26c0.17-0.12,0.34-0.23,0.51-0.34C82.97,35.22,71.51,31.21,50.26,30.48z"/>
			</g>
		</g>
	</g>
	<path class="st4" d="M95.89,17.1c-1.48-1.55-3.33-2.59-5.35-3.28c-1.02-0.32-2.06-0.61-3.15-0.77c-1.08-0.19-2.19-0.3-3.31-0.34
		c-1.12-0.07-2.26-0.05-3.4,0.01c-1.15,0.03-2.29,0.16-3.46,0.27c-2.33,0.25-4.67,0.64-7.14,0.98l-0.07-0.12
		c2.22-0.78,4.51-1.44,6.89-1.89c2.37-0.44,4.83-0.69,7.28-0.59c2.44,0.12,4.89,0.58,7.03,1.53c2.13,0.93,3.94,2.38,4.84,4.16
		L95.89,17.1z"/>
	<path class="st4" d="M28.53,15.46c-2.61-0.77-5.15-1.38-7.71-1.72c-1.29-0.14-2.56-0.28-3.84-0.29c-1.27-0.04-2.55,0-3.8,0.13
		c-1.26,0.1-2.49,0.31-3.7,0.59C8.26,14.43,7.12,14.83,6,15.28c-2.2,0.93-4.17,2.25-5.43,4.17l-0.17-0.03
		c0.64-2.1,2.55-3.85,4.84-5.02c2.3-1.19,4.99-1.88,7.72-2.15c5.5-0.51,11.13,0.72,15.66,3.1L28.53,15.46z"/>
	<path class="st5" d="M63.21,0.18c0.75,0.21,1.24,0.71,1.65,1.19c0.4,0.49,0.74,1.02,1.05,1.54c0.62,1.06,1.19,2.13,1.71,3.22
		c1.01,2.19,1.73,4.44,2.33,6.71c1.13,4.55,1.85,9.16,2.29,13.77l-0.17,0.01c-0.84-2.27-1.48-4.53-2.08-6.78l-1.75-6.73
		c-0.27-1.12-0.58-2.23-0.9-3.33c-0.29-1.11-0.67-2.2-1.02-3.29c-0.4-1.07-0.82-2.19-1.26-3.28c-0.21-0.55-0.44-1.08-0.72-1.59
		c-0.29-0.5-0.58-1.01-1.21-1.32L63.21,0.18z"/>
	<path class="st4" d="M35.08,0.14c0.28-0.12,0.71-0.19,1.05-0.09c0.36,0.1,0.59,0.22,0.89,0.34c0.56,0.24,1.11,0.48,1.66,0.73
		c1.09,0.51,2.16,1.02,3.27,1.47c2.2,0.91,4.65,1.49,7.12,1.35c1.23-0.05,2.45-0.25,3.62-0.57c1.17-0.31,2.3-0.75,3.43-1.19
		l3.36-1.37c0.57-0.22,1.15-0.44,1.77-0.6c0.61-0.16,1.32-0.28,1.99-0.09l-0.11,0.26c-0.33,0.06-0.58,0.15-0.81,0.28
		c-0.23,0.12-0.44,0.27-0.65,0.43c-0.42,0.32-0.86,0.65-1.3,1.01c-0.9,0.7-1.89,1.38-2.95,2c-0.53,0.31-1.08,0.61-1.65,0.88
		c-0.61,0.3-1.27,0.56-1.96,0.8c-1.38,0.47-2.92,0.77-4.52,0.86c-0.8,0.03-1.61,0.01-2.41-0.07c-0.8-0.1-1.58-0.23-2.32-0.43
		c-1.48-0.4-2.79-0.97-3.91-1.63c-1.12-0.66-2.08-1.38-2.95-2.14c-0.42-0.4-0.86-0.76-1.27-1.16l-0.31-0.3l-0.16-0.15l-0.07-0.1
		c-0.1-0.15-0.28-0.26-0.65-0.26L35.08,0.14z"/>
	<path class="st5" d="M26.04,26.62c0.82-4.55,1.78-9.09,2.97-13.59c0.63-2.25,1.32-4.48,2.17-6.69c0.43-1.1,0.89-2.2,1.46-3.26
		c0.29-0.53,0.6-1.06,0.98-1.56c0.38-0.49,0.8-1,1.49-1.31l0.08,0.12c-0.27,0.18-0.46,0.42-0.63,0.66
		c-0.17,0.24-0.31,0.49-0.43,0.76c-0.25,0.52-0.46,1.05-0.64,1.6c-0.38,1.08-0.68,2.19-1,3.29l-1.77,6.67l-0.94,3.34
		c-0.36,1.11-0.65,2.23-1.03,3.34c-0.72,2.23-1.5,4.45-2.53,6.65L26.04,26.62z"/>
	<path class="st6" d="M2.44,25.88c1.36,1.26,2.86,2.42,4.52,3.34c1.66,0.92,3.48,1.59,5.4,1.92c1.91,0.36,3.91,0.43,5.92,0.32
		c2.01-0.1,4.06-0.31,6.11-0.6c4.11-0.59,8.31-1.22,12.61-1.69c4.3-0.44,8.68-0.64,13.08-0.53c4.32,0.17,8.61,0.48,12.84,0.87
		c4.22,0.41,8.4,0.83,12.47,0.97c4.06,0.1,8.04-0.26,11.53-1.78c3.53-1.47,6.41-3.92,9.01-6.51l0.22,0.1
		c-2.19,2.8-4.86,5.5-8.48,7.31c-1.8,0.9-3.81,1.55-5.89,1.93c-2.09,0.39-4.23,0.53-6.36,0.55c-4.27,0.03-8.51-0.36-12.73-0.67
		c-4.23-0.32-8.46-0.61-12.7-0.74c-4.23-0.14-8.47,0.03-12.69,0.4c-4.22,0.36-8.4,0.94-12.62,1.38c-2.11,0.21-4.24,0.38-6.37,0.38
		c-2.13,0-4.29-0.17-6.34-0.67c-2.05-0.49-3.95-1.34-5.57-2.42c-1.62-1.08-2.98-2.38-4.15-3.76L2.44,25.88z"/>
	<path class="st7" d="M35.15,0.26c0.75,2.66,2.17,5.2,4.62,6.98c2.41,1.77,5.74,2.75,9,2.83c1.5,0,3.14-0.47,4.62-1.04
		c1.51-0.58,2.9-1.34,4.19-2.2c2.56-1.73,4.62-3.95,5.67-6.57c-0.33,2.74-2.18,5.35-4.73,7.33c-1.27,1.01-2.75,1.86-4.35,2.56
		c-1.63,0.67-3.37,1.22-5.41,1.26c-1.92-0.06-3.72-0.39-5.44-0.96c-1.7-0.59-3.28-1.42-4.51-2.49C36.26,5.84,35.19,2.98,35.15,0.26z
		"/>
	<g>
		<path class="st8" d="M0.7,19.47c-0.17,1.87,0.64,3.58,1.93,4.97c0.67,0.7,1.38,1.35,2.2,1.92c0.8,0.56,1.67,1.01,2.59,1.33
			c1.81,0.68,3.83,0.87,5.93,0.75c2.1-0.13,4.27-0.48,6.44-1.01c1.09-0.26,2.17-0.55,3.26-0.87c1.09-0.31,2.2-0.62,3.3-0.96
			l6.74-2.09c2.3-0.7,4.67-1.35,7.19-1.92c2.53-0.53,5.21-0.99,8.27-0.97l0.58,0.02l0.53,0.03c0.33,0.02,0.79,0.06,1.11,0.09
			c0.7,0.07,1.38,0.16,2.04,0.25c1.31,0.2,2.57,0.42,3.79,0.67c2.44,0.51,4.79,1.03,7.09,1.59c4.6,1.13,9.14,2.1,13.62,2.77
			c2.24,0.32,4.47,0.46,6.63,0.43c2.16-0.03,4.24-0.34,6.08-1.04c0.47-0.16,0.92-0.37,1.35-0.58c0.27-0.15,0.45-0.24,0.66-0.36
			c0.21-0.13,0.42-0.26,0.62-0.39c0.8-0.54,1.48-1.18,2.05-1.89c1.12-1.42,1.56-3.23,1.05-5.05l0.41-0.13
			c0.96,1.78,0.92,3.86-0.06,5.64c-0.98,1.79-2.73,3.26-4.81,4.31c-2.11,1.04-4.56,1.58-7.01,1.8c-2.45,0.22-4.93,0.15-7.36-0.06
			c-4.87-0.43-9.62-1.38-14.31-2.36c-2.35-0.49-4.69-1-7.04-1.44c-2.35-0.44-4.73-0.86-7.09-0.9c-2.37-0.03-4.75,0.34-7.07,0.81
			c-2.33,0.48-4.63,1.09-6.91,1.72c-4.57,1.25-9.12,2.64-13.89,3.53c-2.38,0.44-4.83,0.75-7.31,0.71c-2.46-0.03-5-0.47-7.12-1.51
			c-2.13-1.03-3.75-2.57-4.89-4.26c-1.15-1.69-1.64-3.72-1.01-5.59L0.7,19.47z"/>
	</g>
	<path class="st9" d="M0.53,19.44c-0.59,1.83-0.1,3.78,1.04,5.43c1.14,1.65,2.74,3.14,4.81,4.12c2.06,1,4.51,1.42,6.93,1.45
		c2.43,0.03,4.84-0.28,7.2-0.72c4.72-0.89,9.26-2.29,13.83-3.55c2.29-0.64,4.59-1.25,6.94-1.74c2.35-0.48,4.76-0.87,7.21-0.84
		c2.45,0.06,4.84,0.49,7.2,0.93c2.36,0.46,4.7,0.97,7.05,1.46c4.69,0.99,9.41,1.94,14.24,2.38c2.41,0.21,4.85,0.29,7.27,0.08
		c2.4-0.2,4.8-0.73,6.85-1.73c2.03-1,3.76-2.43,4.72-4.16c0.97-1.72,1.03-3.73,0.11-5.46l0.08-0.03c0.98,1.73,0.99,3.79,0.05,5.57
		c-0.93,1.79-2.65,3.29-4.73,4.37c-2.1,1.07-4.57,1.63-7.03,1.87c-2.47,0.24-4.96,0.19-7.41,0c-4.91-0.37-9.67-1.35-14.37-2.31
		c-2.35-0.49-4.69-0.99-7.04-1.43c-2.34-0.43-4.71-0.84-7.01-0.89c-2.31-0.03-4.67,0.32-6.98,0.79c-2.32,0.47-4.61,1.08-6.89,1.7
		c-4.58,1.23-9.12,2.65-13.94,3.49c-2.4,0.42-4.87,0.71-7.37,0.65c-2.49-0.06-5.04-0.52-7.16-1.58c-2.12-1.07-3.71-2.63-4.81-4.33
		c-1.11-1.7-1.54-3.71-0.88-5.54L0.53,19.44z"/>
</g>
</svg>
