<?xml version="1.0" encoding="utf-8"?>
<!-- Generator: Adobe Illustrator 23.0.3, SVG Export Plug-In . SVG Version: 6.00 Build 0)  -->
<svg version="1.1" id="圖層_1" xmlns="http://www.w3.org/2000/svg" xmlns:xlink="http://www.w3.org/1999/xlink" x="0px" y="0px"
	 viewBox="0 0 67.81 66.59" style="enable-background:new 0 0 67.81 66.59;" xml:space="preserve">
<style type="text/css">
	.st0{fill:#E9E0AD;}
	.st1{fill:#A04823;}
	.st2{fill:#7B261D;}
</style>
<g>
	<g>
		<path class="st0" d="M31.1,18.34c0,0-10.25-8.96-15.97-13.03c0.17,3.37,2.5,6.95,4.03,10.05c1.49,3.02,2.33,6.29,3.68,9.27
			c-3.27-1.01-7.95,2.48-10.68,4.26c-3.38,2.2-8.5,4.12-10.87,7.3c5.96,0.46,10.18,3.31,16.01,4.18c-2.11,9.35-3.73,17.54-9.7,25.38
			c5.97-2.99,15.3-11.94,21.65-16.27c2.58,4.56,4.13,9.94,7.09,14.29c2.64-4.55,4.2-10.52,5.67-15.52c3.79,2.07,8.96,3.63,13.3,3.64
			c0.36-4.01-3.85-7.82-4.37-11.83c4.86-0.99,11.2-1.74,15.5-4.24c-3.31-2.28-7.45-3.66-11.25-4.4c-0.16-0.23,2.12,0.55-0.75,0
			c2.71-1.35,6.63-4.72,8.02-7.09c-4.99-0.3-7.5-2.64-14.18-2.24C50.55,15.42,52,8.64,56.42,1.97c-6.29,3.68-11.1,12.16-17.11,16.37
			c-1.45-3.1-3.73-8.58-5.23-15.3C32.71,6.98,32.08,14.3,31.1,18.34z"/>
		<path class="st1" d="M31.05,18.4c-2.53-2.32-5.15-4.54-7.85-6.66s-5.48-4.13-8.29-6.1l0.62-0.34c0.1,1.66,0.72,3.27,1.45,4.82
			c0.73,1.55,1.61,3.05,2.42,4.61c0.82,1.56,1.48,3.22,2.08,4.85c0.61,1.63,1.17,3.27,1.88,4.82l0.53,1.15l-1.22-0.36
			c-0.85-0.25-1.82-0.16-2.75,0.11c-0.94,0.27-1.86,0.69-2.75,1.17c-1.8,0.96-3.45,2.17-5.25,3.32c-1.82,1.11-3.69,2.03-5.46,3.08
			c-1.76,1.04-3.47,2.2-4.63,3.73l-0.48-1.07c2.85,0.22,5.59,1.07,8.2,2c1.31,0.46,2.6,0.93,3.9,1.32c1.3,0.4,2.62,0.72,3.95,0.93
			l0.65,0.11l-0.15,0.62c-1.06,4.44-2.05,8.93-3.57,13.28c-0.76,2.17-1.66,4.3-2.74,6.34c-1.07,2.04-2.34,3.98-3.74,5.8l-0.36-0.44
			c1.99-1,3.84-2.31,5.65-3.64c1.81-1.34,3.57-2.75,5.33-4.17l5.26-4.28c1.76-1.42,3.53-2.83,5.4-4.12l0.22-0.15l0.13,0.24
			c1.33,2.34,2.36,4.81,3.43,7.23c1.07,2.43,2.22,4.83,3.72,6.99l-0.56,0.02c1.34-2.38,2.32-4.95,3.18-7.56
			c0.85-2.61,1.56-5.27,2.32-7.94l0.16-0.57l0.54,0.28c2.01,1.06,4.16,1.89,6.36,2.48c2.2,0.6,4.46,0.98,6.71,0.98l-0.6,0.55
			c0.08-0.94-0.14-1.91-0.5-2.85s-0.85-1.86-1.37-2.78c-0.51-0.92-1.06-1.85-1.54-2.84c-0.47-0.99-0.89-2.05-1.05-3.22l-0.09-0.62
			l0.62-0.13c2.66-0.55,5.31-0.97,7.9-1.57c2.58-0.6,5.14-1.36,7.36-2.65L66,36.41c-0.95-0.64-2.04-1.14-3.16-1.58
			c-1.12-0.44-2.28-0.81-3.45-1.15c-2.34-0.67-4.74-1.21-7.14-1.67l-0.35-0.07l-0.15-0.26c0.03,0.05,0.07,0.09,0.14,0.13
			c0.06,0.03,0.1,0.04,0.11,0.04h-0.09c-0.07,0-0.16,0-0.27-0.02l-2.67-0.3l2.42-1.19c1.92-0.95,3.82-1.85,5.65-2.87
			c0.91-0.51,1.81-1.04,2.65-1.62c0.82-0.57,1.66-1.24,2.09-1.92l0.62,1.17c-1.26-0.07-2.5-0.3-3.7-0.6
			c-1.2-0.3-2.34-0.67-3.48-0.97s-2.27-0.52-3.43-0.63c-1.15-0.12-2.32-0.12-3.48-0.06l-1.13,0.06l0.37-1.06
			c1.17-3.4,2.14-6.91,3.43-10.35c1.26-3.44,2.84-6.8,4.91-9.87l0.85,0.9c-1.65,0.96-3.14,2.21-4.55,3.56s-2.73,2.82-4.05,4.29
			s-2.64,2.96-4.04,4.38s-2.88,2.79-4.55,3.94l-0.42,0.29l-0.21-0.45c-2.25-4.94-4-10.11-5.12-15.42l0.53,0.03
			c-0.43,1.2-0.73,2.46-1.01,3.73c-0.27,1.27-0.5,2.55-0.72,3.83c-0.45,2.56-0.82,5.14-1.45,7.67L31,18.34
			c0.56-2.54,0.86-5.12,1.24-7.69c0.19-1.29,0.39-2.57,0.63-3.86c0.24-1.28,0.51-2.56,0.93-3.82l0.31-0.93L34.34,3
			c1.24,5.23,3.03,10.34,5.34,15.18L39.07,18c1.57-1.13,2.98-2.5,4.33-3.93c1.34-1.43,2.62-2.94,3.92-4.44s2.62-2.99,4.05-4.41
			c1.43-1.41,2.97-2.75,4.74-3.8L58.47,0l-1.52,2.32c-1.96,2.99-3.44,6.26-4.63,9.65c-1.19,3.39-2.16,6.88-3.34,10.35l-0.76-1
			c1.23-0.07,2.48-0.07,3.72,0.05c1.24,0.12,2.47,0.36,3.66,0.66c1.19,0.31,2.34,0.67,3.47,0.95c1.13,0.29,2.27,0.48,3.41,0.55
			l1.33,0.07l-0.7,1.1c-0.72,1.13-1.64,1.76-2.53,2.41c-0.91,0.63-1.84,1.19-2.78,1.71c-1.88,1.05-3.82,1.98-5.71,2.91l-0.25-1.49
			h0.08h0.11l0.16,0.01c0.13,0.02,0.29,0.05,0.45,0.14c0.17,0.1,0.3,0.23,0.4,0.37l-0.5-0.33c2.44,0.48,4.87,1.04,7.28,1.76
			c1.2,0.36,2.39,0.76,3.57,1.23c1.17,0.48,2.34,1.01,3.44,1.76l0.98,0.66l-1.02,0.58c-2.46,1.4-5.14,2.15-7.79,2.75
			c-2.66,0.6-5.33,1-7.94,1.52l0.54-0.75c0.12,0.95,0.47,1.9,0.9,2.83c0.43,0.93,0.95,1.85,1.46,2.79c0.51,0.94,1.02,1.91,1.4,2.96
			s0.64,2.21,0.53,3.39l-0.05,0.55l-0.55-0.01c-2.4-0.03-4.74-0.46-7.01-1.11c-2.26-0.67-4.46-1.55-6.53-2.7l0.7-0.29
			c-0.8,2.64-1.57,5.3-2.48,7.92c-0.91,2.62-1.95,5.22-3.37,7.63l-0.27,0.46l-0.29-0.44c-1.5-2.25-2.6-4.71-3.67-7.15
			c-1.07-2.44-2.08-4.9-3.37-7.21l0.36,0.08c-1.86,1.27-3.63,2.66-5.4,4.07c-1.77,1.41-3.49,2.86-5.24,4.3s-3.5,2.86-5.31,4.23
			c-1.81,1.36-3.66,2.69-5.71,3.74l-1.13,0.58l0.77-1.02c2.73-3.63,4.72-7.76,6.11-12.07c1.4-4.32,2.29-8.79,3.24-13.26l0.5,0.73
			c-2.82-0.38-5.49-1.34-8.09-2.24c-2.6-0.91-5.2-1.69-7.88-1.87L0,36.77l0.74-0.98c1.37-1.81,3.24-2.98,5.05-4.05
			c1.83-1.06,3.71-1.97,5.46-3.02c1.73-1.07,3.45-2.33,5.34-3.31c0.95-0.5,1.93-0.94,3-1.24c1.06-0.29,2.25-0.43,3.41-0.08
			l-0.69,0.79c-0.72-1.62-1.3-3.28-1.87-4.92c-0.58-1.64-1.16-3.24-1.94-4.78c-0.77-1.54-1.62-3.07-2.34-4.68
			c-0.71-1.61-1.34-3.32-1.43-5.15L14.7,4.52L15.35,5c2.79,2.02,5.52,4.13,8.16,6.34s5.21,4.51,7.64,6.95L31.05,18.4z"/>
	</g>
	<g>
		<path class="st2" d="M19.08,35.04c-0.04,0.01-0.22,0.1-0.54,0.26l-0.94-2.18c1.27-0.54,2.07-0.86,2.39-0.98s0.63-0.19,0.92-0.22
			c0.3-0.02,0.6,0.02,0.9,0.12c0.73,0.26,1.27,0.86,1.62,1.81c0.39,1.05,0.42,1.83,0.1,2.36c-0.08,0.13-0.15,0.25-0.2,0.34
			c1.12-0.09,1.97,0.63,2.53,2.14c0.5,1.34,0.35,2.35-0.44,3.05c-0.27,0.23-0.6,0.43-1.01,0.58l-2.82,1.05l-0.87-2.3l0.71-0.26
			c0.18-0.07,0.25-0.22,0.21-0.45c-0.01-0.06-0.02-0.12-0.04-0.16l-1.73-4.64C19.7,35.08,19.43,34.91,19.08,35.04z M21,36.97
			c0.04,0.1,0.08,0.16,0.12,0.18s0.11,0.02,0.22-0.02l1.16-0.43c0.48-0.18,0.73-0.54,0.77-1.08c0.02-0.21-0.02-0.44-0.11-0.68
			s-0.19-0.42-0.29-0.53c-0.11-0.11-0.22-0.19-0.35-0.25c-0.13-0.05-0.25-0.08-0.38-0.09s-0.25,0-0.36,0.01
			c-0.15,0.02-0.31,0.05-0.48,0.12l-0.74,0.28c-0.12,0.05-0.21,0.11-0.27,0.2c-0.06,0.08-0.06,0.22-0.01,0.39L21,36.97z M22.1,39.97
			c0.07,0.19,0.16,0.3,0.28,0.33c0.16,0.05,0.32,0.04,0.46-0.01l0.55-0.2c0.71-0.26,1.12-0.45,1.25-0.56s0.21-0.24,0.27-0.38
			c0.1-0.29,0.06-0.67-0.11-1.14c-0.15-0.41-0.4-0.7-0.76-0.87c-0.34-0.18-0.72-0.19-1.13-0.04l-1.35,0.5
			c-0.14,0.05-0.22,0.11-0.22,0.17c-0.01,0.08,0.01,0.18,0.06,0.32L22.1,39.97z"/>
		<path class="st2" d="M29.71,35.39c-0.17-0.45-0.76-0.49-1.78-0.11s-1.44,0.79-1.27,1.24l0.09,0.24l-0.47,0.21l-1.05-2.94
			l0.48-0.16l0.27,0.73c0.13-0.34,0.35-0.63,0.67-0.87c0.31-0.24,0.63-0.42,0.96-0.54c0.33-0.12,0.61-0.17,0.86-0.16
			c0.25,0.02,0.45,0.07,0.62,0.16c0.31,0.17,0.53,0.4,0.64,0.7l0.38,0.99l0.58,1.51L31,37.26c0.07,0.19,0.18,0.25,0.33,0.19
			l0.6-0.22l0.74,2.03l-1.51,0.58l-0.34-0.91c-0.02,0.26-0.11,0.5-0.28,0.73c-0.33,0.44-0.7,0.74-1.13,0.9
			c-1.21,0.45-2.05,0.03-2.52-1.25c-0.24-0.66-0.25-1.23-0.02-1.7c0.18-0.36,0.46-0.61,0.84-0.75l1.83-0.68
			c0.14-0.05,0.23-0.12,0.25-0.21c0.04-0.12,0.05-0.23,0.01-0.33L29.71,35.39z M28.91,38.53c1.15-0.43,1.59-1.02,1.31-1.78
			c-0.03-0.08-0.07-0.14-0.14-0.19c-0.06-0.05-0.13-0.06-0.19-0.04l-0.7,0.27l-1.26,0.48c-0.39,0.15-0.59,0.39-0.61,0.73
			c0,0.1,0.01,0.19,0.04,0.29C27.54,38.77,28.06,38.85,28.91,38.53z"/>
		<path class="st2" d="M32.78,34.2c-0.11-0.3-0.35-0.38-0.71-0.25l-0.66,0.25l-0.75-2.09l1.76-0.66l0.29,1.03
			c-0.05-0.12-0.02-0.29,0.07-0.51s0.18-0.39,0.27-0.5c0.22-0.28,0.52-0.49,0.89-0.62c0.37-0.14,0.69-0.18,0.96-0.14
			s0.5,0.13,0.7,0.25c0.33,0.21,0.57,0.5,0.72,0.85c0.08,0.19,0.18,0.45,0.29,0.79s0.21,0.62,0.28,0.84s0.14,0.43,0.2,0.62
			c0.12,0.39,0.2,0.63,0.24,0.74s0.08,0.18,0.12,0.22c0.04,0.04,0.09,0.06,0.13,0.08c0.08,0.02,0.16,0.02,0.25-0.02l0.64-0.24
			l0.72,2.02l-2.37,0.87l-0.82-2l0.64-0.24c0.22-0.08,0.28-0.23,0.2-0.45l-0.56-1.59c-0.17-0.46-0.52-0.68-1.05-0.66
			c-0.18,0-0.41,0.05-0.67,0.15c-0.26,0.1-0.48,0.21-0.65,0.33c-0.17,0.12-0.3,0.25-0.38,0.38c-0.15,0.22-0.19,0.46-0.1,0.72
			c0.06,0.21,0.14,0.46,0.23,0.73s0.17,0.48,0.22,0.62c0.05,0.15,0.09,0.25,0.11,0.32c0.1,0.27,0.26,0.36,0.5,0.27l0.6-0.22
			l0.77,1.99l-2.55,0.97l-0.77-2.02l0.74-0.28c0.24-0.09,0.32-0.23,0.25-0.42L32.78,34.2z"/>
		<path class="st2" d="M42.4,30.12c-0.11,0.04-0.14,0.12-0.1,0.25l2.37,6.36c0.3,0.82,0.06,1.48-0.74,2
			c-0.2,0.13-0.46,0.25-0.76,0.37c-0.99,0.37-1.74,0.27-2.24-0.28c-0.14-0.16-0.26-0.37-0.35-0.61l-0.47-1.25l0.46-0.17l0.11,0.3
			c0.16,0.44,0.55,0.59,1.15,0.45c0.19-0.04,0.42-0.12,0.68-0.22c0.27-0.1,0.5-0.21,0.69-0.34s0.34-0.26,0.43-0.4
			c0.17-0.26,0.18-0.58,0.04-0.98l-0.5-1.35c0.03,0.41-0.04,0.74-0.21,1c-0.2,0.28-0.52,0.5-0.96,0.67
			c-0.45,0.17-0.81,0.25-1.09,0.26s-0.53-0.03-0.75-0.13c-0.42-0.18-0.73-0.54-0.93-1.08l-1.35-3.63c-0.43-1.15,0-1.97,1.3-2.46
			c0.5-0.19,0.96-0.21,1.37-0.06c0.33,0.12,0.59,0.33,0.8,0.63l-0.43-1.16l1.29-0.48l0.8,2.07L42.4,30.12z M38.83,32.37l0.51,1.37
			c0.11,0.3,0.3,0.49,0.55,0.57c0.31,0.09,0.69,0.06,1.14-0.11c0.45-0.17,0.77-0.31,0.97-0.44c0.2-0.12,0.34-0.25,0.45-0.39
			c0.18-0.25,0.21-0.54,0.08-0.88l-0.49-1.32c-0.14-0.37-0.35-0.59-0.64-0.66c-0.34-0.08-0.73-0.04-1.2,0.14
			c-0.73,0.27-1.17,0.54-1.33,0.8C38.72,31.73,38.7,32.03,38.83,32.37z"/>
		<path class="st2" d="M43.74,26.26c-0.07-0.19-0.17-0.25-0.31-0.2l-0.77,0.29l-0.88-2.31l2.44-0.86l0.81,2.3l-0.68,0.25
			c-0.13,0.05-0.18,0.14-0.13,0.27l1.76,4.95l-0.53,0.18L43.74,26.26z M45.3,33.44c-0.04-0.12-0.07-0.24-0.09-0.38s0-0.27,0.05-0.42
			c0.11-0.33,0.38-0.57,0.82-0.74c0.37-0.14,0.71-0.13,1.02,0.03c0.26,0.14,0.43,0.31,0.5,0.5s0.11,0.35,0.11,0.5
			c0.01,0.15-0.02,0.29-0.07,0.42c-0.12,0.32-0.38,0.56-0.78,0.71c-0.4,0.15-0.75,0.14-1.04-0.01C45.58,33.92,45.4,33.72,45.3,33.44
			z"/>
	</g>
</g>
</svg>
