<?xml version="1.0" encoding="utf-8"?>
<!-- Generator: Adobe Illustrator 23.0.3, SVG Export Plug-In . SVG Version: 6.00 Build 0)  -->
<svg version="1.1" id="圖層_1" xmlns="http://www.w3.org/2000/svg" xmlns:xlink="http://www.w3.org/1999/xlink" x="0px" y="0px"
	 viewBox="0 0 99.24 46.84" style="enable-background:new 0 0 99.24 46.84;" xml:space="preserve">
<style type="text/css">
	.st0{fill:#562D15;}
	.st1{fill:#845524;}
	.st2{fill:#B7D0D0;}
	.st3{fill:#6EA5A5;}
	.st4{fill:#CBCBCB;}
	.st5{fill:#1A1A1A;}
</style>
<g>
	<g>
		<g>
			<g>
				<path class="st0" d="M33.75,30.46c-4.16-0.17-7.98-4.76-8.5-10.23c-0.52-5.47,2.44-9.77,6.6-9.59c4.16,0.17,7.98,4.76,8.5,10.23
					C40.88,26.33,37.91,30.64,33.75,30.46z M32.08,13.07c-3.14-0.13-5.38,3.11-4.98,7.24c0.4,4.12,3.27,7.59,6.42,7.72
					c3.14,0.13,5.38-3.11,4.98-7.24C38.1,16.67,35.22,13.2,32.08,13.07z"/>
			</g>
		</g>
		<g>
			<g>
				<path class="st0" d="M29.04,14.46c0.74,0.95,1.3,1.8,1.85,2.69c0.55,0.86,0.86,1.92,1.37,2.87c0.51,0.94,1.05,1.87,1.64,2.78
					c0.57,0.92,1.2,1.79,1.84,2.68l-0.1,0.18c-0.81-0.6-1.57-1.31-2.33-2.05c-0.75-0.75-1.47-1.58-2.14-2.49
					c-0.67-0.9-1.44-1.78-1.84-2.95c-0.4-1.14-0.69-2.41-0.48-3.67L29.04,14.46z"/>
			</g>
		</g>
		<g>
			<path class="st1" d="M33.49,0.06C16.81,0.47,9.16,18.65,6.3,28.09l0,0c-0.92,2.78-3.48,4.66-4.46,5.29
				c-0.14,0.07-0.27,0.15-0.39,0.24l0,0l0,0c-0.62,0.44-1.08,1.07-1.3,1.91c-0.8,3.01,1.68,7.39,5.54,9.79
				c3.86,2.4,7.63,1.9,8.43-1.11c0.14-0.51,0.17-1.07,0.13-1.64l0,0l0,0c-0.04-0.51-0.14-1.04-0.31-1.58
				c-0.66-4.27,0.63-6.91,0.96-7.5C19.51,26,26.46,18.16,36.02,16.82c6.35-0.89,60.22-5.63,60.22-5.63l-0.82-8.51
				C95.42,2.67,53.96-0.45,33.49,0.06z"/>
		</g>
		<g>
			<g>
				<path class="st2" d="M28.95,3.28c8.1-2.79,25.76-0.81,32.04-0.24c6.28,0.57,3.36,6.2-6.25,7c-9.61,0.8-25.19,1.96-32.38,8.77
					C15.18,25.62,14.66,8.21,28.95,3.28z"/>
			</g>
			<g>
				<path class="st3" d="M19.59,17.4c0.07-2.43,2.48-8.71,10.21-11.38c7.12-2.46,22.33-1.02,29.64-0.33l0.73,0.06
					c-1.26,0.61-3.17,1.22-5.91,1.45l-0.67,0.06c-10.05,0.84-25.24,2.1-32.69,9.16C20.35,16.97,19.91,17.25,19.59,17.4z"/>
			</g>
		</g>
		<g>
			<path class="st0" d="M96.4,6.95c0.23,2.35,0.15,4.25-0.16,4.23c-0.32-0.01-0.76-1.93-0.98-4.28c-0.23-2.35-0.15-4.25,0.16-4.23
				C95.74,2.69,96.17,4.6,96.4,6.95z"/>
		</g>
	</g>
	<g>
		
			<ellipse transform="matrix(0.3136 -0.9495 0.9495 0.3136 58.9419 94.6229)" class="st4" cx="94.92" cy="6.54" rx="4.8" ry="4.26"/>
		
			<ellipse transform="matrix(0.3136 -0.9495 0.9495 0.3136 58.8433 94.7885)" class="st5" cx="94.99" cy="6.69" rx="3.2" ry="2.84"/>
	</g>
</g>
</svg>
