<?xml version="1.0" encoding="utf-8"?>
<!-- Generator: Adobe Illustrator 23.0.3, SVG Export Plug-In . SVG Version: 6.00 Build 0)  -->
<svg version="1.1" id="圖層_1" xmlns="http://www.w3.org/2000/svg" xmlns:xlink="http://www.w3.org/1999/xlink" x="0px" y="0px"
	 viewBox="0 0 103.85 43.42" style="enable-background:new 0 0 103.85 43.42;" xml:space="preserve">
<style type="text/css">
	.st0{fill:#9E9D9D;}
	.st1{fill:#767676;}
	.st2{fill:#AEB2BA;}
	.st3{fill:#909091;}
	.st4{fill:#565452;}
	.st5{fill:#6A351A;}
	.st6{fill:#454342;}
	.st7{fill:#878788;}
	.st8{fill:#AEAEAE;}
	.st9{fill:#D8D8D8;}
	.st10{fill:#838384;}
	.st11{fill:#5B5A5B;}
	.st12{fill:#A7A7A6;}
	.st13{fill:#B5B4B4;}
	.st14{fill:#CBCBCB;}
	.st15{fill:#844922;}
	.st16{fill:#989898;}
	.st17{fill:#A7A7A7;}
	.st18{fill:#E0DDE0;}
	.st19{fill:#FFFFFF;}
</style>
<g>
	<g>
		<g id="XMLID_371_">
			<g>
				<polygon class="st0" points="63.54,11.15 68.73,18.46 70.34,17.67 70.28,17.58 65.14,10.36 				"/>
				<polygon class="st1" points="44.11,20.69 41.97,17.69 8.35,34.21 2.51,37.08 6.96,43.34 46.42,23.95 				"/>
				<path class="st0" d="M0.19,33.82l2.32,3.26l5.84-2.87l-5.17-2.03C2.69,31.99,1.94,32,1.5,32.22l-1,0.5
					C0.05,32.94-0.08,33.43,0.19,33.82z"/>
				<path class="st2" d="M51.18,30.64c0.56,0.78,1.73,1.06,2.61,0.62l-2.88-4.05l-1.6,0.79L51.18,30.64z"/>
				<polygon class="st0" points="50.91,27.21 53.79,31.26 68.05,24.26 69.67,23.47 71.61,22.51 68.73,18.46 				"/>
				<polygon class="st0" points="49.31,28.01 50.91,27.21 45.71,19.91 44.11,20.69 46.42,23.95 				"/>
				<polygon class="st3" points="45.71,19.91 50.91,27.21 68.73,18.46 63.54,11.15 				"/>
				<path class="st2" d="M41.97,17.69l2.14,2.99l1.6-0.78l-3.14-4.41C41.68,15.94,41.41,16.91,41.97,17.69z"/>
				<path class="st1" d="M82.74,23.64c1.8,2.23,3.22,4.67,4.22,6.62c1.06,2.08,3.77,3.41,6.19,2.64c1.39-0.45,2.93-1.02,4.34-1.72
					c1.74-0.85,3.15-1.69,4.25-2.43c2.01-1.34,2.59-4.45,1.28-6.42C96.26,12.11,82.54,5.26,68.63,9.15
					c-1.17,0.33-2.33,0.73-3.49,1.21l5.14,7.21c1.4-0.26,2.72-0.22,3.97,0.05c0.97,0.22,1.89,0.57,2.76,1.04
					c1.52,0.8,2.9,1.92,4.14,3.2C81.72,22.42,82.24,23.03,82.74,23.64z M91.68,29.87c-0.33,0.11-0.97-0.23-1.24-0.78
					C85.5,19.43,79.12,14.25,72.2,14.16l-1.52-2.12C82.68,9.05,94.1,15.3,99.73,23.81c0.41,0.6,0.17,1.97-0.42,2.36
					c-1.14,0.77-2.42,1.5-3.83,2.2C94.41,28.9,93.13,29.4,91.68,29.87z"/>
				<polygon class="st0" points="42.57,15.5 45.71,19.91 63.54,11.15 60.39,6.74 				"/>
				<path class="st4" d="M68.37,24.76c2.32,3.26,7.22,4.41,10.94,2.58c1.73-0.85,2.9-2.17,3.42-3.7c-0.49-0.61-1.02-1.22-1.58-1.78
					c-0.07,1.64-1.07,3.21-2.85,4.08c-2.83,1.39-6.57,0.5-8.33-1.97c-0.11-0.17-0.22-0.33-0.31-0.5l-1.62,0.79
					C68.14,24.42,68.25,24.59,68.37,24.76z"/>
				<path class="st5" d="M90.43,29.09c0.28,0.55,0.91,0.89,1.24,0.78c1.45-0.47,2.73-0.97,3.8-1.5c1.41-0.7,2.7-1.43,3.83-2.2
					c0.59-0.39,0.83-1.76,0.42-2.36C94.1,15.3,82.68,9.05,70.67,12.03l1.52,2.12C79.12,14.25,85.5,19.43,90.43,29.09z"/>
				<path class="st4" d="M74.25,17.64c1.62,4.92-0.31,7.18,0.44,7.29c0.76,0.1,3.61-3.1,2.33-6.26c-0.87-0.47-1.79-0.82-2.76-1.04
					L74.25,17.64z"/>
				<path class="st2" d="M68.73,18.46l2.88,4.05c0.89-0.44,1.16-1.43,0.62-2.2l-1.89-2.64L68.73,18.46z"/>
				<path class="st2" d="M60.39,6.74l3.14,4.41l1.6-0.79l-1.63-2.29L63,7.35C62.45,6.59,61.29,6.3,60.39,6.74z"/>
				<path class="st4" d="M63.51,8.07l1.63,2.29c1.16-0.48,2.32-0.88,3.49-1.21c6.54-4.95,5.43-11.26,3.94-8.38
					C71.08,3.63,68.32,7,63.51,8.07z"/>
			</g>
		</g>
	</g>
	<path class="st1" d="M73.58,17.75c0.26,0.6,0.46,1.15,0.63,1.75c0.17,0.59,0.29,1.19,0.36,1.8c0.07,0.61,0.08,1.21,0.04,1.83
		c-0.02,0.31-0.05,0.61-0.09,0.92c-0.02,0.15-0.04,0.31-0.04,0.47c0,0.14-0.01,0.38,0.22,0.4c-0.21-0.05-0.15-0.25-0.13-0.39
		c0.03-0.15,0.08-0.3,0.13-0.44c0.09-0.3,0.19-0.59,0.27-0.9c0.16-0.61,0.27-1.23,0.31-1.86c0.05-0.63,0.04-1.27-0.02-1.91
		c-0.05-0.63-0.17-1.31-0.31-1.91L73.58,17.75z"/>
	<path class="st6" d="M74.7,24.93c0.39-0.02,0.63-0.27,0.87-0.47c0.24-0.22,0.44-0.45,0.63-0.7c0.37-0.49,0.67-1.03,0.88-1.59
		c0.41-1.13,0.46-2.39-0.02-3.54l-0.07,0.02c-0.01,0.63-0.03,1.19-0.13,1.73c-0.11,0.54-0.21,1.08-0.45,1.58
		c-0.14,0.53-0.42,1.03-0.68,1.53c-0.12,0.26-0.27,0.51-0.44,0.74c-0.15,0.24-0.31,0.51-0.59,0.63L74.7,24.93z"/>
	<path class="st1" d="M68.02,24.26c0.24,0.66,0.67,1.28,1.17,1.86c0.53,0.56,1.17,1.05,1.88,1.46c1.43,0.82,3.17,1.19,4.87,1.16
		c1.69-0.11,3.33-0.63,4.57-1.56c1.24-0.92,2.07-2.19,2.28-3.54l-0.07-0.02c-0.45,1.26-1.34,2.4-2.56,3.19
		c-1.21,0.8-2.72,1.27-4.28,1.33c-1.56,0.07-3.16-0.27-4.54-0.96c-1.38-0.69-2.52-1.73-3.25-2.94L68.02,24.26z"/>
	<path class="st6" d="M69.64,23.46c0.17,0.57,0.52,1.11,0.95,1.61c0.45,0.48,1.01,0.9,1.64,1.24c1.26,0.67,2.81,0.9,4.26,0.74
		c1.43-0.24,2.77-0.87,3.64-1.84c0.86-0.96,1.27-2.19,1.07-3.36l-0.07-0.01c-0.06,1.13-0.56,2.22-1.42,3.05
		c-0.86,0.83-2.06,1.39-3.36,1.56c-1.29,0.18-2.68-0.01-3.87-0.56c-1.2-0.54-2.18-1.42-2.77-2.46L69.64,23.46z"/>
	<path class="st6" d="M73.12,0.11c0.29-0.09,0.29,0.15,0.33,0.34c0.01,0.2-0.02,0.42-0.06,0.63c-0.07,0.42-0.19,0.84-0.35,1.25
		c-0.31,0.81-0.67,1.62-1.15,2.37c-0.41,0.79-0.95,1.51-1.5,2.24c-0.55,0.73-1.16,1.43-1.76,2.19l0.05,0.05
		c1.56-1.18,2.9-2.58,3.85-4.18c0.46-0.81,0.84-1.65,1.06-2.54C73.68,2,73.75,1.55,73.76,1.1c0-0.23-0.02-0.46-0.08-0.69
		c-0.04-0.11-0.08-0.23-0.18-0.32c-0.09-0.11-0.32-0.1-0.41-0.03L73.12,0.11z"/>
	<path class="st1" d="M63.73,8.63c1.15-0.31,2.28-0.77,3.27-1.35C67.99,6.7,68.87,6,69.63,5.23c0.76-0.77,1.4-1.61,1.95-2.49
		c0.27-0.44,0.52-0.89,0.75-1.35c0.25-0.44,0.35-0.96,0.78-1.31c-0.47,0.31-0.64,0.83-0.94,1.24c-0.28,0.43-0.58,0.85-0.9,1.25
		c-0.64,0.81-1.36,1.57-2.17,2.23c-1.62,1.35-3.61,2.3-5.8,2.67L63.73,8.63z"/>
	<path class="st7" d="M70.31,17.6c-4.01,1.02-7.63,2.58-11.15,4.27c-1.74,0.88-3.47,1.77-5.11,2.79l-2.45,1.54
		c-0.77,0.58-1.59,1.1-2.32,1.73l0.08,0.11l10.56-5.12l10.48-5.22L70.31,17.6z"/>
	<path class="st8" d="M8.38,34.16l-4.6-1.86c-0.72-0.37-1.74-0.5-2.46-0.07c-0.35,0.19-0.71,0.33-1.04,0.56
		c-0.33,0.27-0.36,0.72-0.12,1.04l0.09-0.04c-0.04-0.37,0.2-0.65,0.4-0.63c0.02,0.01,0.22-0.09,0.22-0.06l0.3-0.08
		c0.2-0.05,0.39-0.12,0.59-0.18C2.01,32.75,2,32.8,2.15,32.78c0.12-0.01,0.26,0.01,0.38,0.03c0.18,0.02,0.41,0.12,0.83,0.31
		c1.55,0.59,3.15,1.07,4.97,1.13L8.38,34.16z"/>
	<path class="st9" d="M6.84,33.6c-1.52,1.05-2.99,2.16-4.39,3.36l0.15,0.21l5.99-2.9L6.84,33.6z"/>
	<path class="st0" d="M2.55,37.12c1.79-0.61,3.49-1.33,5.24-1.99l5.11-2.17c3.39-1.47,6.67-3.1,10.01-4.64
		c3.23-1.69,6.53-3.29,9.72-5.05l4.76-2.67c1.54-0.95,3.12-1.85,4.62-2.86l-0.07-0.11l-19.77,9.64L2.48,37.01L2.55,37.12z"/>
	<path class="st10" d="M46.35,23.83c-3.82,0.87-7.38,2.1-10.86,3.45c-1.76,0.64-3.43,1.42-5.14,2.13c-1.68,0.76-3.34,1.55-5,2.33
		c-1.62,0.84-3.26,1.66-4.86,2.52c-1.58,0.9-3.19,1.75-4.72,2.72c-3.1,1.88-6.11,3.88-8.88,6.23l0.15,0.21l19.8-9.59l19.66-9.8
		L46.35,23.83z"/>
	<path class="st11" d="M0.14,33.84l3.33,4.79l3.44,4.73l0.12-0.06c-0.14-1-0.49-1.9-0.9-2.77c-0.4-0.87-0.92-1.69-1.47-2.49
		c-0.58-0.78-1.19-1.56-1.92-2.27c-0.71-0.72-1.5-1.4-2.49-1.99L0.14,33.84z"/>
	<path class="st12" d="M72.15,20.33c0.14,0.48,0.01,0.9-0.22,1.19c-0.12,0.14-0.28,0.25-0.45,0.32c-0.08,0.03-0.17,0.06-0.26,0.07
		l-0.39,0.11c-1.05,0.33-2.09,0.68-3.1,1.07c-2.04,0.75-3.98,1.64-5.9,2.55c-1.89,0.96-3.76,1.95-5.54,3.07
		c-0.9,0.55-1.76,1.14-2.62,1.74c-0.42,0.34-0.59,0.51-1.06,0.56c-0.42,0.03-0.93-0.09-1.36-0.42l-0.16,0.08
		c0.31,0.44,0.85,0.76,1.44,0.85c0.59,0.11,1.2-0.09,1.65-0.35l2.87-1.39l5.74-2.77l5.69-2.84l2.85-1.42
		c0.48-0.2,0.99-0.55,1.16-1.03c0.19-0.47,0.11-1.02-0.2-1.45L72.15,20.33z"/>
	<g>
		<path class="st13" d="M62.95,7.38l4.55,6.5l4.67,6.44l0.12-0.06c-0.35-1.29-0.89-2.47-1.51-3.63c-0.6-1.16-1.33-2.26-2.08-3.35
			c-0.79-1.07-1.6-2.13-2.53-3.13c-0.92-1.01-1.91-1.97-3.1-2.84L62.95,7.38z"/>
	</g>
	<path class="st14" d="M42.04,17.65c-0.18-0.46-0.09-0.91,0.12-1.24c0.12-0.16,0.27-0.29,0.45-0.38c0.09-0.05,0.18-0.08,0.27-0.1
		l0.38-0.12c1.03-0.36,2.05-0.74,3.04-1.15c2.01-0.79,3.94-1.69,5.86-2.61c1.89-0.96,3.78-1.92,5.57-3.02l2.68-1.65
		c0.42-0.32,0.68-0.49,1.18-0.51c0.45,0,0.96,0.16,1.36,0.5l0.12-0.06c-0.3-0.43-0.84-0.75-1.42-0.84c-0.59-0.1-1.18,0.09-1.63,0.35
		l-2.87,1.39L51.42,11l-5.7,2.84l-2.85,1.42c-0.48,0.2-0.98,0.54-1.15,1.02c-0.19,0.46-0.11,1.01,0.2,1.44L42.04,17.65z"/>
	<path class="st13" d="M46.58,23.93l-4.55-6.28l-0.12,0.06c0.35,1.29,0.89,2.47,1.51,3.63c0.58,1.11,1.27,2.17,1.99,3.21
		L46.58,23.93z"/>
	<path class="st14" d="M51.21,30.62c-0.67-1.13-1.37-2.24-2.11-3.33c-0.73-1.1-1.5-2.18-2.25-3.27c-0.79-1.07-1.55-2.15-2.36-3.21
		c-0.8-1.06-1.64-2.11-2.5-3.14l-0.03,0.01l9.22,12.95L51.21,30.62z"/>
	<path class="st10" d="M101.67,28.64c-3.27,1.07-6.42,2.09-9.4,2.66c-0.09,0.01-0.26,0.05-0.27,0.03c-0.03-0.01-0.06-0.02-0.09-0.02
		c-0.07-0.01-0.21-0.02-0.3-0.04c-0.21-0.03-0.42-0.09-0.63-0.16c-0.41-0.17-0.81-0.42-1.11-0.76c-0.15-0.17-0.3-0.33-0.42-0.51
		c-0.13-0.18-0.18-0.32-0.39-0.74c-0.36-0.72-0.73-1.44-1.13-2.15c-1.71-2.77-3.79-5.53-6.84-7.67c-1.5-1.07-3.3-1.96-5.26-2.38
		c-1.96-0.4-4.02-0.23-5.57,0.55l0.07,0.23c1.64-0.31,3.41-0.18,4.99,0.39c1.59,0.56,3.01,1.47,4.24,2.52
		c2.46,2.12,4.29,4.71,5.85,7.36c0.4,0.66,0.77,1.33,1.13,2.01c0.33,0.68,0.8,1.41,1.47,1.95c1.27,1.12,3.28,1.71,5.01,1.21
		c3.24-0.98,6.18-2.5,8.83-4.28L101.67,28.64z"/>
	<path class="st0" d="M65.19,10.42c4.19-1.05,8.43-1.44,12.54-1.09c4.11,0.39,8.1,1.52,11.7,3.32c3.63,1.75,6.87,4.14,9.68,6.88
		c0.71,0.68,1.35,1.41,2.01,2.15c0.67,0.77,1.27,1.4,1.51,2.13c0.61,1.53,0.37,3.45-0.95,4.84l0.13,0.14
		c1.71-1.21,2.3-3.26,1.91-5.13c-0.18-0.97-0.83-1.8-1.4-2.6c-0.59-0.81-1.22-1.6-1.9-2.36c-2.71-3.05-6.11-5.69-10-7.61
		c-3.9-1.9-8.29-3.05-12.7-3.19c-4.41-0.15-8.77,0.73-12.64,2.35L65.19,10.42z"/>
	<path class="st15" d="M72.2,14.21c3.1,0.03,6.1,1.19,8.51,2.89c2.43,1.7,4.39,3.85,6.05,6.12c0.83,1.14,1.58,2.31,2.28,3.51
		c0.35,0.6,0.68,1.2,1,1.81c0.17,0.3,0.28,0.62,0.54,0.92c0.26,0.27,0.61,0.56,1.12,0.5c2.9-0.89,5.53-2.19,7.91-3.86
		c0.47-0.59,0.56-1.29,0.43-1.98c-0.09-0.37-0.35-0.64-0.54-0.93l-0.63-0.86c-0.86-1.13-1.82-2.21-2.88-3.22
		c-2.1-2.02-4.57-3.78-7.31-5.12c-2.73-1.35-5.75-2.28-8.84-2.63c-3.09-0.36-6.23-0.14-9.16,0.6l0.05,0.12
		c5.99-1.1,12.33-0.04,17.44,2.72c2.54,1.4,4.91,3.06,6.88,5.02c0.99,0.98,1.9,2.02,2.7,3.11l0.58,0.82l0.28,0.43l0.07,0.11
		c-0.01-0.02-0.01-0.01-0.02-0.02c0,0.01,0.01,0.02,0.01,0.05c0.03,0.12,0.03,0.37-0.02,0.58c-0.02,0.19-0.19,0.46-0.15,0.4
		c0.14-0.1-0.13,0.11-0.03,0.03l-0.21,0.14l-0.43,0.28l-0.88,0.55c-0.6,0.36-1.2,0.69-1.84,1.02c-0.62,0.32-1.24,0.61-1.9,0.87
		c-0.62,0.26-1.4,0.54-1.92,0.71c0.44-0.06,0.41,0.05,0.39,0.01c-0.01,0-0.09-0.06-0.1-0.07c-0.04-0.01-0.24-0.39-0.41-0.7
		c-0.33-0.62-0.68-1.23-1.05-1.84c-0.72-1.22-1.53-2.41-2.44-3.55c-1.8-2.28-3.91-4.45-6.52-6.14c-2.62-1.64-5.84-2.74-8.97-2.53
		L72.2,14.21z"/>
	<path class="st16" d="M65.13,10.32c-7.03,3.41-14.05,6.86-21.04,10.33l0.04,0.05l2.78-1.07l2.72-1.17
		c1.81-0.79,3.55-1.66,5.33-2.48c1.73-0.9,3.48-1.75,5.19-2.69l2.54-1.42l2.47-1.51L65.13,10.32z"/>
	<path class="st12" d="M65.13,10.32l-2.78,1.07l-2.72,1.17c-1.8,0.79-3.55,1.66-5.33,2.48c-1.73,0.9-3.48,1.75-5.18,2.69l-2.54,1.42
		l-2.48,1.51l0.04,0.05c7.03-3.41,14.05-6.86,21.04-10.33L65.13,10.32z"/>
	<path class="st17" d="M70.33,17.62c-7.03,3.41-14.05,6.86-21.04,10.33l0.04,0.05l2.78-1.07l2.72-1.17
		c1.81-0.79,3.55-1.65,5.33-2.48c1.73-0.9,3.48-1.75,5.19-2.69l2.54-1.42l2.47-1.51L70.33,17.62z"/>
	<path class="st1" d="M93.39,25.59c0.29,0.41,0.91,0.56,1.39,0.33c0.47-0.23,0.62-0.75,0.32-1.17c-0.3-0.41-0.92-0.56-1.39-0.33
		C93.24,24.65,93.09,25.18,93.39,25.59z"/>
	<g>
		<path class="st18" d="M42.55,15.5c3.71,5.27,7.45,10.52,11.22,15.76l0.06-0.03c-0.72-1.42-1.56-2.78-2.41-4.13
			c-0.85-1.35-1.79-2.66-2.69-4c-0.97-1.29-1.91-2.61-2.92-3.88c-1.02-1.27-2.05-2.54-3.2-3.75L42.55,15.5z"/>
	</g>
	<g>
		<path class="st18" d="M60.37,6.74l1.15,2.09l1.26,2.04c0.85,1.35,1.79,2.67,2.69,4c0.98,1.29,1.91,2.61,2.92,3.88l1.55,1.9
			l1.65,1.85l0.06-0.03c-3.71-5.27-7.45-10.53-11.22-15.77L60.37,6.74z"/>
	</g>
	<path class="st8" d="M42.57,15.49c0.84,1.36,1.71,2.71,2.61,4.04l2.75,3.97l2.86,3.91c0.97,1.3,1.97,2.58,3,3.84l0.03-0.01
		L42.6,15.47L42.57,15.49z"/>
	<polygon class="st8" points="60.38,6.74 71.6,22.5 71.64,22.49 70.36,20.45 69,18.46 66.28,14.48 63.39,10.58 61.94,8.63 
		60.42,6.72 	"/>
	<path class="st14" d="M63,7.35c0.67,1.13,1.37,2.24,2.11,3.33c0.73,1.1,1.5,2.18,2.25,3.26c0.79,1.07,1.55,2.15,2.36,3.21
		c0.8,1.06,1.64,2.11,2.5,3.14l0.03-0.01L63.03,7.34L63,7.35z"/>
	<path class="st19" d="M39.28,19.85L4.11,36.91l0.04,0.05l4.55-1.91l4.48-2.01c2.98-1.35,5.91-2.78,8.87-4.16
		c2.91-1.46,5.84-2.88,8.72-4.37l4.31-2.26l4.24-2.35L39.28,19.85z"/>
	<path class="st19" d="M43.49,15.75c1.52-0.5,2.97-1.09,4.41-1.71c1.44-0.61,2.82-1.3,4.24-1.95c1.36-0.72,2.75-1.4,4.09-2.15
		c1.34-0.76,2.66-1.52,3.92-2.39L60.11,7.5c-5.57,2.7-11.13,5.44-16.66,8.2L43.49,15.75z"/>
	<path class="st19" d="M72.75,9.19c2.65-0.34,5.38-0.07,8.01,0.5c2.63,0.58,5.18,1.47,7.59,2.56c2.42,1.09,4.73,2.38,6.84,3.88
		c2.09,1.5,4.09,3.2,5.34,5.28l0.06-0.02c-0.53-1.09-1.3-2.09-2.15-3.04c-0.89-0.92-1.88-1.77-2.91-2.57
		c-2.09-1.59-4.44-2.9-6.88-4.05c-2.48-1.07-5.08-1.98-7.79-2.49c-1.35-0.25-2.72-0.41-4.1-0.46c-1.37-0.01-2.74,0.09-4.04,0.35
		L72.75,9.19z"/>
</g>
</svg>
