<?xml version="1.0" encoding="utf-8"?>
<!-- Generator: Adobe Illustrator 23.0.3, SVG Export Plug-In . SVG Version: 6.00 Build 0)  -->
<svg version="1.1" id="圖層_1" xmlns="http://www.w3.org/2000/svg" xmlns:xlink="http://www.w3.org/1999/xlink" x="0px" y="0px"
	 viewBox="0 0 259.8 230" style="enable-background:new 0 0 259.8 230;" xml:space="preserve">
<style type="text/css">
	.st0{fill:#AD9090;}
	.st1{fill:#71567B;}
	.st2{fill:#886A95;}
	.st3{fill:#F19B17;}
	.st4{fill:#775C82;}
	.st5{fill:#6E5478;}
	.st6{fill:#C09FA0;}
	.st7{fill:#625A65;}
	.st8{fill:#706773;}
	.st9{fill:#502812;}
	.st10{fill:#955324;}
	.st11{fill:#B5B4B4;}
	.st12{fill:#B6661F;}
	.st13{fill:#60391A;}
	.st14{fill:#D2AEB1;}
	.st15{fill:#F1F1F1;}
	.st16{fill:#1A1A1A;}
	.st17{fill:#CBCBCB;}
	.st18{fill:#9E9D9D;}
	.st19{fill:#8B8E8C;}
	.st20{fill:#925824;}
</style>
<g>
	<path class="st0" d="M112.46,20.45c1.06,1.38,1.65,3.55,1.33,4.85c-0.32,1.3-1.44,1.24-2.5-0.14c-1.06-1.38-1.65-3.55-1.33-4.85
		C110.29,19.01,111.41,19.07,112.46,20.45"/>
	<g>
		<path class="st1" d="M177.39,156.42c0.03-0.01,0.05-0.03,0.08-0.05c0.01,0,0.02-0.01,0.02-0.01L177.39,156.42z"/>
		<polygon class="st1" points="191.18,163.14 191.18,163.14 191.17,163.14 		"/>
		<path class="st2" d="M3.13,129.72c0-0.01,0-0.01,0-0.02C3.13,129.7,3.13,129.71,3.13,129.72"/>
		<polyline class="st2" points="3.12,129.78 3.12,129.78 3.12,129.77 3.12,129.78 		"/>
		<polyline class="st2" points="1.5,130.33 1.5,130.32 1.5,130.33 		"/>
		<path class="st2" d="M1.5,130.34c0-0.01,0-0.01,0-0.02C1.5,130.33,1.5,130.34,1.5,130.34"/>
		<polyline class="st3" points="73.2,71.2 140.36,57.45 105.89,88.59 73.2,74.38 		"/>
		<path class="st4" d="M173.33,121.87c-4.55,2.11-9.13,4.1-13.73,6.03C164.17,125.81,168.77,123.81,173.33,121.87z"/>
		<path class="st1" d="M166.07,125.01c2.39-1.05,4.77-2.07,7.16-3.08c-2.38,1.1-4.77,2.17-7.16,3.22
			C166.07,125.09,166.06,125.05,166.07,125.01z"/>
		<path class="st4" d="M92.2,229.94c-0.37-0.04-0.68-0.15-1.05-0.29c-0.28-0.1-0.54-0.22-0.8-0.34l-0.25-0.11l0,0
			c-0.25-0.1-0.48-0.2-0.69-0.32c-0.24-0.13-0.47-0.27-0.7-0.41c-0.38-0.23-0.74-0.51-1.08-0.82c-0.29-0.27-0.51-0.53-0.73-0.79
			c-0.1-0.12-0.21-0.25-0.31-0.37c-0.15-0.17-0.3-0.33-0.42-0.52c0.18,0.23,0.36,0.43,0.55,0.62c0.08,0.08,0.15,0.16,0.23,0.23
			c0.1,0.09,0.2,0.17,0.32,0.28l0.07,0.06l0.19,0.18l0.09,0.09c0.04,0.04,0.09,0.08,0.14,0.11c0.08,0.07,0.17,0.14,0.26,0.2
			l0.19,0.15l0.12,0.1c0.13,0.1,0.25,0.21,0.38,0.31c0.19,0.14,0.4,0.27,0.61,0.38l0.17,0.09l0.08,0.04
			c0.23,0.12,0.45,0.23,0.69,0.33c0.62,0.27,1.27,0.46,1.94,0.65c0.16,0.05,0.33,0.09,0.55,0.13l0.17,0.03
			c0.04,0.01,0.08,0.02,0.12,0.03C92.72,229.99,92.45,229.97,92.2,229.94"/>
		<path class="st5" d="M93.65,206.46c-0.16,0.09-0.33,0.17-0.5,0.25l-0.2,0.1c-0.25,0.12-0.41,0.19-0.58,0.27l-0.24,0.11
			c-0.32,0.15-0.64,0.29-0.96,0.43c-0.27,0.11-0.54,0.21-0.81,0.31c-0.18,0.07-0.35,0.13-0.52,0.19l-0.23,0.09
			c-0.13,0.05-0.26,0.11-0.4,0.15c-0.21,0.07-0.42,0.14-0.62,0.21c-0.4,0.13-0.81,0.24-1.21,0.34c-0.26,0.08-0.55,0.17-0.84,0.26
			c-0.59,0.19-1.2,0.38-1.79,0.46c-0.35,0.05-0.71,0.05-1,0.04c-0.28,0-0.52-0.05-0.7-0.09l-0.09-0.02
			c-0.42-0.09-0.79-0.17-1.11-0.29c-0.32-0.11-0.65-0.21-0.99-0.3c-0.2-0.04-0.39-0.07-0.59-0.1c-0.3-0.05-0.61-0.09-0.89-0.17
			c-0.33-0.09-0.6-0.26-0.87-0.42c-0.29-0.18-0.57-0.38-0.87-0.64c-0.14-0.12-0.28-0.24-0.43-0.36c-0.14-0.11-0.29-0.23-0.43-0.35
			c-0.2-0.17-0.4-0.35-0.6-0.53l-0.2-0.18l-0.77-0.71c0.05-0.02,0.1-0.04,0.16-0.07c0.26-0.13,0.52-0.29,0.84-0.51
			c0.25-0.17,0.49-0.34,0.74-0.51c0.34-0.26,0.65-0.5,0.92-0.73c0.14-0.12,0.27-0.26,0.4-0.39l0.15-0.15l0.08-0.08l0.09-0.09
			l0.09-0.09c0.16-0.16,0.32-0.33,0.47-0.5c0.17-0.18,0.33-0.38,0.47-0.56c0.14-0.19,0.26-0.38,0.37-0.57
			c0.1-0.19,0.2-0.37,0.28-0.57c0.09-0.24,0.1-0.47,0.1-0.63c0.01-0.19,0-0.37-0.01-0.55c-0.01-0.16-0.03-0.35-0.13-0.52
			c-0.03-0.03-0.05-0.08-0.09-0.12c-0.03-0.03-0.08-0.05-0.12-0.07c-0.04-0.04-0.07-0.09-0.12-0.13c-0.02-0.02-0.04-0.04-0.07-0.06
			c-0.1-0.07-0.23-0.12-0.41-0.15c-0.16-0.03-0.32-0.06-0.5-0.06l-0.26-0.01c-0.1,0.01-0.2,0.01-0.3,0
			c-0.21-0.01-0.51-0.02-0.86,0.05c-0.06,0.01-0.12,0.03-0.16,0.06c0,0,0,0-0.01,0c0.08-0.13,0.17-0.26,0.28-0.39
			c0.07-0.09,0.15-0.18,0.26-0.31l0.06-0.08c0.16-0.2,0.32-0.4,0.46-0.61c0.22-0.32,0.48-0.75,0.61-1.16
			c0.05-0.15,0.09-0.3,0.12-0.44c0.02-0.13,0.02-0.27,0.02-0.4c0-0.09-0.01-0.17-0.04-0.3c-0.03-0.1-0.05-0.2-0.11-0.28
			c-0.04-0.04-0.08-0.09-0.12-0.13c-0.09-0.08-0.19-0.13-0.31-0.15c-0.12-0.02-0.25-0.04-0.38-0.05c-0.22-0.02-0.46,0-0.69,0.03
			c-0.16,0.02-0.32,0.06-0.54,0.13c-0.15,0.05-0.31,0.11-0.46,0.17c-0.12,0.05-0.24,0.09-0.48,0.17c-0.14,0.04-0.28,0.09-0.42,0.14
			c-0.09,0.04-0.19,0.08-0.36,0.17c-0.16,0.08-0.31,0.15-0.47,0.2l-0.14,0.05c-0.11,0.04-0.22,0.08-0.33,0.13
			c-0.17,0.07-0.32,0.16-0.47,0.25c0.56-0.52,1.19-1,1.93-1.47c0.29-0.19,0.58-0.37,0.88-0.55c0.26-0.15,0.51-0.32,0.76-0.48
			l0.34-0.22c0.47-0.3,0.95-0.58,1.42-0.86l0.65-0.39c0.17-0.1,0.33-0.2,0.5-0.31c0.19-0.12,0.38-0.24,0.57-0.35
			c0.41-0.24,0.83-0.46,1.24-0.66l0,0c0,0-0.01,0-0.01,0.01c0.25-0.12,0.49-0.23,0.74-0.32c0.2-0.08,0.41-0.17,0.61-0.26l0.14-0.06
			c0.21-0.1,0.47-0.19,0.7-0.22c0.06-0.01,0.11-0.01,0.16-0.01l0.06,0.06c0.13,0.12,0.25,0.23,0.38,0.35
			c0.03,0.06,0.06,0.11,0.09,0.16c0.09,0.12,0.2,0.24,0.32,0.35c0.1,0.09,0.2,0.17,0.3,0.25c2.11,5.42,5.09,10.55,8.52,15.44
			C93.98,206.26,93.82,206.36,93.65,206.46z"/>
		<path class="st5" d="M86.36,191.24c0.15,0.13,0.29,0.26,0.43,0.39l0.15,0.14c0.21,0.19,0.42,0.38,0.65,0.55
			c0.13,0.1,0.26,0.19,0.4,0.29c0.13,0.09,0.27,0.19,0.4,0.29l0.41,0.31l0.41,0.31c0.14,0.11,0.28,0.2,0.42,0.3
			c0.14,0.1,0.28,0.2,0.42,0.3l0.45,0.34c0.43,0.33,0.87,0.67,1.31,0.93l-0.09-0.04l0.08,0.06l0.43,0.27c0,0.13,0.04,0.23,0.13,0.32
			l0,0c0.05,0.04,0.1,0.07,0.14,0.11c0.07,0.06,0.13,0.11,0.2,0.16c0.09,0.06,0.18,0.12,0.26,0.18l0.17,0.12
			c0.18,0.13,0.37,0.24,0.56,0.35l0.3,0.18l0.11,0.07c0.11,0.08,0.23,0.15,0.34,0.22l0.16,0.09l0.23,0.12
			c0.26,0.14,0.52,0.28,0.79,0.44l0.1,0.07c0.13,0.08,0.25,0.16,0.39,0.23c0.2,0.08,0.44,0.09,0.65,0c0.02,0.01,0.04,0.02,0.05,0.04
			c0.06,0.06,0.08,0.15,0.06,0.24c-0.06,0.21-0.11,0.41-0.14,0.62c-0.03,0.42-0.07,0.82-0.11,1.22l-0.04,0.37
			c-0.02,0.24-0.05,0.47-0.09,0.71c-0.04,0.22-0.07,0.44-0.1,0.66c-0.03,0.18-0.06,0.37-0.09,0.55c-0.05,0.3-0.11,0.61-0.17,0.92
			c-0.05,0.25-0.13,0.55-0.3,0.84c-0.21,0.35-0.49,0.69-0.9,1.05c-0.16,0.15-0.35,0.28-0.53,0.41l-0.13,0.09
			c-0.04,0.03-0.09,0.06-0.14,0.09c-3.43-4.89-6.41-10.01-8.52-15.44c0.02,0.01,0.03,0.03,0.05,0.04
			C85.89,190.92,86.13,191.08,86.36,191.24z"/>
		<path class="st6" d="M75.28,180.5c-0.09-0.17-0.18-0.33-0.28-0.49c-0.04,0.02-0.1,0.03-0.16,0.05c-0.19,0.03-0.36-0.01-0.46-0.11
			c-0.12-0.11-0.16-0.27-0.12-0.45c0.04-0.15,0.15-0.37,0.33-0.5c0.23-0.17,0.42-0.3,0.69-0.41l0.14-0.05l0-0.01
			c0.06-0.03,0.13-0.07,0.19-0.11l0.08-0.07c0.06-0.05,0.12-0.09,0.17-0.14c0.23-0.17,0.46-0.34,0.7-0.49
			c0.33-0.2,0.68-0.37,1.01-0.53l0.15-0.07c0.23-0.11,0.46-0.23,0.67-0.36l0.15-0.09c0.24-0.15,0.49-0.31,0.73-0.46
			c0.18-0.12,0.36-0.23,0.54-0.34c0.15-0.09,0.29-0.18,0.44-0.27c0.38-0.24,0.75-0.49,1.11-0.76c0.19-0.14,0.37-0.29,0.55-0.44
			c0.15-0.12,0.3-0.23,0.44-0.35c0,0.8,0.03,1.6,0.07,2.39c-2.05,1.82-4.11,3.64-6.17,5.46c-0.13-0.15-0.26-0.29-0.38-0.45
			C75.65,181.13,75.46,180.82,75.28,180.5z"/>
		<path class="st6" d="M85.56,190.55c-0.07-0.06-0.13-0.11-0.2-0.17l-0.08-0.08c-0.25-0.24-0.5-0.47-0.75-0.71
			c-0.13-0.12-0.26-0.23-0.39-0.35c-0.13-0.11-0.26-0.23-0.39-0.34c-0.24-0.22-0.48-0.44-0.72-0.65c-0.12-0.11-0.24-0.21-0.36-0.32
			c-0.12-0.11-0.24-0.22-0.36-0.32c-0.12-0.1-0.24-0.21-0.36-0.32c-0.36-0.33-0.69-0.67-1.02-1.03c-0.1-0.11-0.2-0.21-0.31-0.31
			c-0.26-0.24-0.54-0.46-0.82-0.68l-0.34-0.27c-0.17-0.14-0.34-0.26-0.51-0.39l-0.26-0.2c-0.15-0.11-0.29-0.24-0.43-0.36
			c-0.1-0.09-0.2-0.19-0.3-0.29c-0.11-0.11-0.23-0.22-0.35-0.33c-0.12-0.11-0.24-0.22-0.35-0.33c-0.19-0.18-0.34-0.39-0.49-0.6
			c-0.13-0.18-0.27-0.34-0.43-0.5c-0.03-0.03-0.06-0.07-0.09-0.1c2.06-1.82,4.12-3.64,6.17-5.46
			C82.71,181.37,83.83,186.06,85.56,190.55z"/>
		<path class="st6" d="M89.66,170.78l0.23,0.36c0.14,0.22,0.29,0.45,0.43,0.67l0.31,0.52c0.36,0.6,0.73,1.22,1.14,1.79
			c0.18,0.25,0.36,0.5,0.56,0.74c0.1,0.13,0.2,0.26,0.31,0.39c0.1,0.14,0.21,0.27,0.31,0.4c0.19,0.24,0.41,0.45,0.63,0.66l0.29,0.26
			l0.26,0.23l0.25,0.23l0.54,0.54c0.3,0.3,0.59,0.6,0.9,0.89l0.1,0.1l0.1,0.1c0.17,0.16,0.35,0.32,0.54,0.47
			c0.06,0.05,0.12,0.1,0.17,0.15c0.13,0.12,0.25,0.24,0.37,0.36l0.16,0.16l0.22,0.21c0.15,0.14,0.29,0.28,0.44,0.43l0.17,0.17
			c0.17,0.17,0.34,0.35,0.52,0.52l0.1,0.09l0.24,0.21c0.12,0.1,0.23,0.2,0.35,0.3l0.18,0.17l0.31,0.29
			c0.08,0.07,0.15,0.14,0.23,0.21l0.1,0.09c0.16,0.14,0.33,0.28,0.48,0.42l0.13,0.12l0.13,0.12l0.24,0.22
			c0.07,0.07,0.15,0.14,0.23,0.2c0.14,0.11,0.28,0.22,0.42,0.32c0.1,0.08,0.2,0.15,0.3,0.23c0.16,0.12,0.31,0.25,0.46,0.39
			l0.12,0.11c0.03-0.01,0.08-0.01,0.12,0c0.08,0.01,0.15,0.04,0.2,0.09c0.12,0.11,0.13,0.28,0.03,0.44l-0.19,0.31l-0.13,0.21
			c-0.09,0.14-0.16,0.29-0.24,0.43l-0.08,0.14l-0.27,0.51l-0.27,0.51l-0.14,0.27c-0.28,0.52-0.57,1.06-0.8,1.6
			c-0.1,0.24-0.22,0.48-0.33,0.73l-0.08,0.17c-0.09,0.19-0.17,0.38-0.25,0.57c-0.06,0.15-0.13,0.3-0.19,0.44
			c-0.26,0.6-0.53,1.2-0.81,1.8c-0.19,0.42-0.37,0.84-0.53,1.26c-0.14,0.4-0.28,0.8-0.41,1.19l-0.17,0.52
			c-0.08,0.24-0.16,0.47-0.23,0.71l-0.04,0.13c-0.05,0.13-0.09,0.27-0.12,0.4c-0.07,0.25-0.12,0.44-0.2,0.65
			c-0.1,0.26-0.37,0.5-0.67,0.63c-0.23,0.09-0.47,0.1-0.68,0.01c-0.14-0.06-0.27-0.14-0.39-0.23l-0.1-0.06
			c-0.27-0.16-0.53-0.3-0.79-0.44l-0.22-0.12l-0.16-0.08c-0.12-0.07-0.23-0.15-0.34-0.22L94,197.1l-0.3-0.18
			c-0.19-0.11-0.38-0.22-0.56-0.35l-0.17-0.12c-0.08-0.06-0.17-0.12-0.26-0.18c-0.07-0.05-0.14-0.1-0.2-0.16
			c-0.05-0.04-0.09-0.08-0.14-0.11l0,0c-0.1-0.09-0.14-0.19-0.14-0.32l-0.43-0.27l-0.08-0.05l0.09,0.04
			c-0.44-0.26-0.88-0.6-1.31-0.92l-0.45-0.34c-0.14-0.1-0.28-0.2-0.42-0.3c-0.14-0.1-0.28-0.2-0.42-0.3l-0.41-0.31l-0.41-0.31
			c-0.13-0.1-0.26-0.19-0.4-0.29c-0.13-0.1-0.27-0.19-0.4-0.29c-0.23-0.17-0.44-0.36-0.65-0.55l-0.15-0.14
			c-0.16-0.15-0.33-0.29-0.49-0.43l-0.25-0.21l-0.29-0.25c-0.07-0.06-0.14-0.12-0.2-0.18c-1.73-4.48-2.85-9.17-3.13-14.11
			c2.3-2.04,4.6-4.09,6.89-6.13C89.44,170.46,89.56,170.61,89.66,170.78z"/>
		<path class="st6" d="M82.56,173.89c0.24-0.18,0.49-0.35,0.75-0.52c0.19-0.12,0.39-0.24,0.57-0.38l0.27-0.21l0.28-0.21
			c0.17-0.12,0.34-0.24,0.51-0.37l0.39-0.28l0.29-0.21c0.19-0.14,0.38-0.27,0.58-0.41l0.21-0.14c0.18-0.12,0.35-0.24,0.52-0.36
			c0.22-0.17,0.43-0.34,0.64-0.5l0.32-0.25c0.2-0.16,0.42-0.23,0.58-0.18c0.21-0.07,0.42-0.04,0.55,0.07l0.02,0.02
			c0.07,0.07,0.14,0.15,0.2,0.22l0.08,0.1c0,0.01,0.01,0.01,0.01,0.02c-2.29,2.05-4.59,4.09-6.89,6.13
			c-0.05-0.79-0.07-1.59-0.07-2.39C82.42,174,82.49,173.94,82.56,173.89z"/>
		<path class="st7" d="M74.31,195.43c0.11-0.05,0.22-0.09,0.33-0.13l0.14-0.05c0.16-0.06,0.31-0.13,0.46-0.2
			c0.18-0.09,0.27-0.13,0.36-0.17c0.14-0.06,0.28-0.1,0.42-0.14c0.24-0.08,0.36-0.12,0.48-0.17c0.16-0.06,0.31-0.12,0.46-0.17
			c0.22-0.07,0.38-0.11,0.54-0.13c0.22-0.03,0.46-0.05,0.69-0.03c0.13,0.01,0.26,0.03,0.38,0.05c0.11,0.02,0.22,0.07,0.3,0.15
			c0.04,0.04,0.08,0.09,0.12,0.13c0.06,0.08,0.08,0.18,0.11,0.28c0.03,0.13,0.04,0.21,0.04,0.3c0,0.13,0,0.26-0.02,0.4
			c-0.02,0.14-0.07,0.29-0.12,0.44c-0.14,0.41-0.4,0.83-0.61,1.16c-0.13,0.21-0.3,0.41-0.46,0.61c0,0-0.07,0.08-0.07,0.08
			c-0.11,0.13-0.18,0.22-0.26,0.31c-0.11,0.13-0.2,0.27-0.28,0.4c0.04-0.04,0.1-0.06,0.17-0.07c0.35-0.07,0.66-0.06,0.86-0.05
			c0.1,0,0.2,0,0.3,0l0.25,0.01c0.17,0,0.34,0.03,0.5,0.06c0.18,0.03,0.31,0.08,0.41,0.15c0.02,0.02,0.04,0.04,0.07,0.06
			c0.04,0.04,0.08,0.08,0.12,0.13c0.04,0.01,0.08,0.03,0.12,0.07c0.04,0.03,0.06,0.08,0.09,0.12c0.11,0.17,0.13,0.35,0.13,0.52
			c0.01,0.18,0.02,0.36,0.01,0.55c0,0.16-0.02,0.39-0.11,0.63c-0.08,0.19-0.18,0.38-0.28,0.57c-0.11,0.19-0.22,0.38-0.37,0.57
			c-0.14,0.19-0.3,0.38-0.47,0.56c-0.15,0.17-0.31,0.34-0.47,0.5L78.61,203l-0.09,0.09l-0.08,0.08l-0.15,0.15
			c-0.13,0.13-0.26,0.27-0.4,0.39c-0.27,0.24-0.58,0.48-0.92,0.74c-0.24,0.18-0.49,0.35-0.74,0.51c-0.32,0.22-0.58,0.37-0.84,0.51
			c-0.09,0.05-0.17,0.07-0.27,0.1c-0.3,0.1-0.49,0.06-0.63,0.03c-0.17-0.03-0.3-0.11-0.43-0.19c-0.19-0.11-0.31-0.2-0.42-0.3
			c-0.06-0.05-0.11-0.11-0.16-0.16l-0.08-0.08l-0.07-0.07l-0.08-0.09c-0.18-0.2-0.35-0.39-0.51-0.6c-0.16-0.21-0.27-0.45-0.38-0.68
			l-0.06-0.13l-0.17-0.32l-0.07-0.13L72,202.76c-0.03-0.06-0.06-0.12-0.09-0.18c-0.16-0.31-0.27-0.67-0.35-0.99
			c-0.11-0.35-0.19-0.65-0.19-0.98c0-0.33,0.02-0.68,0.06-1.02c0.06-0.49,0.16-0.93,0.31-1.35c0.12-0.31,0.23-0.54,0.36-0.77
			c0.16-0.27,0.35-0.54,0.58-0.8c0-0.01,0.08-0.08,0.08-0.08c0.11-0.13,0.17-0.21,0.26-0.29c0.08-0.08,0.17-0.15,0.26-0.22
			C73.56,195.87,73.89,195.62,74.31,195.43z"/>
		<path class="st1" d="M142.71,106.2c0.01-0.14,0.07-0.29,0.17-0.44c0.1-0.5,0.23-1.02,0.38-1.53c0.04-0.16,0.09-0.32,0.15-0.48
			l0.2-0.88c0.11-0.49,0.24-1.01,0.41-1.53c2.33-0.91,4.64-1.82,6.92-2.75c-0.02,0.1-0.04,0.19-0.05,0.29l-0.03,0.16
			c-0.01,0.08-0.02,0.16-0.02,0.24c-0.02,0.27-0.02,0.54-0.01,0.8l0,0.13c0,0.27,0.02,0.54,0.04,0.81l0.03,0.25
			c0.02,0.15,0.03,0.29,0.04,0.44c0.01,0.15,0,0.3-0.01,0.46c-0.74,0.39-1.48,0.78-2.22,1.17
			C146.7,104.27,144.7,105.22,142.71,106.2z"/>
		<path class="st1" d="M150.91,102.27c-0.74,0.35-1.48,0.7-2.21,1.05c0.74-0.39,1.48-0.78,2.22-1.17c0,0.01,0,0.01,0,0.02
			C150.91,102.2,150.91,102.24,150.91,102.27z"/>
		<path class="st1" d="M148.69,103.32c0.74-0.35,1.48-0.7,2.21-1.05c0,0.08-0.01,0.16-0.01,0.24c0,0.21,0,0.42,0.01,0.63l0.01,0.25
			l0,0.19c0,0.18,0,0.36,0.02,0.54c0.1,0.59,0.23,1.16,0.4,1.69c0.17,0.54,0.41,1.09,0.75,1.71c0,0,0.01,0.02,0.01,0.02l-0.02-0.01
			l0.01-0.01c0,0-0.02-0.02-0.03-0.03c0,0-0.01,0-0.01,0c0,0,0,0,0,0c-0.01-0.01-0.02-0.03-0.03-0.04l0.14,0.22l0.13,0.23l0.07,0.13
			l0.06,0.12c0.17,0.3,0.32,0.61,0.48,0.92c0.11,0.22,0.22,0.45,0.34,0.66c0.1,0.18,0.2,0.35,0.32,0.51
			c0.09,0.13,0.19,0.26,0.29,0.38l0.17,0.22c0.31,0.4,0.62,0.81,0.91,1.24c0.11,0.17,0.21,0.34,0.31,0.52l0.09,0.16
			c0.1,0.18,0.2,0.35,0.3,0.53l0.08,0.14c-1.99,1.15-3.98,2.47-5.99,3.92c-2.07,1.73-4.14,3.48-6.2,5.23
			c-0.04-0.16-0.07-0.31-0.11-0.47c-0.17-0.77-0.3-1.49-0.4-2.22c-0.1-0.72-0.19-1.44-0.29-2.17l-0.07-0.53
			c-0.08-0.58-0.15-1.17-0.19-1.76c-0.04-0.57-0.07-1.14-0.1-1.72l-0.03-0.57l-0.01-0.11c-0.02-0.31-0.03-0.62-0.02-0.94
			c0-0.23,0.01-0.46,0.03-0.69l0.01-0.26c0.02-0.29,0.03-0.58,0.04-0.86c0.01-0.43,0.03-0.85,0.06-1.28
			c0.05-0.79,0.16-1.57,0.25-2.24l0.05-0.29c-0.02-0.04-0.01-0.09-0.02-0.14C144.73,105.35,146.72,104.35,148.69,103.32z"/>
		<path class="st1" d="M91.24,167.01c-0.18,0.15-0.35,0.29-0.53,0.44c-0.35,0.29-0.72,0.57-1.08,0.85l-0.22,0.17
			c-0.27,0.21-0.54,0.41-0.81,0.61l-0.42,0.31c-0.47,0.35-0.9,0.67-1.35,0.99c-0.23,0.17-0.47,0.33-0.7,0.49l-0.1,0.07l0.01,0.01
			c0.07,0.06,0.1,0.16,0.07,0.28c-0.02,0.12-0.1,0.29-0.23,0.39c-0.07,0.05-0.14,0.11-0.2,0.16l-0.1,0.08
			c-0.79,0.63-1.59,1.22-2.47,1.85c-0.25,0.18-0.51,0.35-0.77,0.52c0-0.74,0.02-1.49,0.05-2.24c1.15-0.69,2.27-1.38,3.28-2.01
			c0.7-0.43,1.39-0.87,2.07-1.32c0.18-0.12,0.36-0.23,0.54-0.35l0.42-0.26c0.26-0.17,0.51-0.34,0.76-0.51l0.19-0.13
			c0.34-0.23,0.67-0.46,1-0.7c0.29-0.21,0.59-0.42,0.88-0.62c0.42-0.29,0.84-0.56,1.27-0.84l0.49-0.32
			c0.13-0.09,0.29-0.09,0.36-0.02c0,0,0.03,0.03,0.03,0.03c0.03,0.05,0.03,0.12,0,0.19c-0.03,0.07-0.09,0.14-0.17,0.19
			c-0.51,0.34-1.05,0.73-1.66,1.2C91.66,166.67,91.45,166.84,91.24,167.01z"/>
		<path class="st1" d="M91.48,168.37l-0.07,0.07c0.02-0.02,0.03-0.04,0.05-0.05C91.47,168.38,91.47,168.38,91.48,168.37z"/>
		<path class="st1" d="M90.92,168.94c-0.17,0.16-0.35,0.32-0.53,0.48c-0.17,0.15-0.34,0.3-0.51,0.45c-0.07,0.07-0.15,0.13-0.22,0.2
			c-0.07,0.06-0.16,0.14-0.24,0.18c-0.02,0.01-0.03,0.01-0.05,0.02c0.66-0.58,1.31-1.17,1.97-1.75
			C91.2,168.66,91.06,168.8,90.92,168.94z"/>
		<path class="st1" d="M89.06,170.31c-0.1-0.04-0.13-0.13-0.11-0.25c0.02-0.15,0.18-0.3,0.31-0.43c0.09-0.1,0.19-0.19,0.29-0.28
			c-0.1-0.11-0.05-0.33,0.12-0.48c0.32-0.27,0.64-0.54,0.95-0.82c0.35-0.32,0.7-0.65,1.05-0.97c0.31-0.3,0.62-0.61,0.92-0.91
			c0.16-0.16,0.31-0.32,0.47-0.47c0.05-0.05,0.1-0.09,0.15-0.14c0.07-0.06,0.16-0.14,0.25-0.16c0.09-0.03,0.16-0.03,0.22,0
			c0.08-0.09,0.17-0.18,0.25-0.27c0.08-0.08,0.22-0.11,0.3-0.08c0.02,0.01,0.03,0.02,0.04,0.03c0.02,0.02,0.04,0.05,0.04,0.09
			c0,0.05-0.02,0.12-0.06,0.16c-0.05,0.05-0.09,0.1-0.14,0.15c0-0.01,0.01-0.01,0.02-0.02c-0.35,0.37-0.68,0.75-1.01,1.13
			c-0.36,0.42-0.73,0.83-1.12,1.24c0,0,0.01-0.01,0.01-0.01c-0.18,0.19-0.36,0.38-0.54,0.57c-0.04,0.04-0.09,0.09-0.13,0.13
			c-0.66,0.58-1.31,1.17-1.97,1.75C89.25,170.32,89.15,170.35,89.06,170.31z M93.58,165.49c-0.01,0.01-0.02,0.03-0.04,0.04
			C93.56,165.52,93.57,165.51,93.58,165.49z"/>
		<path class="st1" d="M91.62,167.62c-0.01,0.01-0.01,0.01-0.02,0.02c0.02-0.02,0.04-0.04,0.06-0.06
			C91.64,167.59,91.63,167.6,91.62,167.62z"/>
		<path class="st1" d="M92.54,167.54c-0.46,0.52-0.93,1.03-1.45,1.51c-0.21,0.19-0.41,0.38-0.62,0.57
			c-0.18,0.16-0.36,0.33-0.56,0.47c-0.06,0.05-0.11,0.08-0.18,0.11c-0.09,0.03-0.18,0.04-0.25,0.01c-0.01,0-0.02-0.01-0.02-0.02
			c1.15-1.02,2.3-2.05,3.44-3.07C92.78,167.26,92.66,167.4,92.54,167.54z"/>
		<path class="st1" d="M89.36,170.04c-0.01-0.07,0.02-0.17,0.08-0.24c0.27-0.28,0.56-0.55,0.84-0.84c0.34-0.35,0.69-0.68,1.02-1.02
			c0,0,0,0.01-0.01,0.01c0.1-0.1,0.2-0.21,0.3-0.32c0,0,0,0.01-0.01,0.01c0.01-0.01,0.02-0.02,0.03-0.03
			c0.02-0.02,0.04-0.04,0.06-0.06c-0.01,0.01-0.01,0.01-0.02,0.02c0.42-0.45,0.86-0.89,1.24-1.36c0.16-0.2,0.31-0.4,0.46-0.6
			c0.11-0.15,0.23-0.31,0.32-0.46l-0.05,0.07c0.01-0.03,0.03-0.05,0.05-0.08c0,0,0,0,0,0l0.17-0.27c0.05-0.09,0.11-0.16,0.2-0.22
			c0.09-0.05,0.18-0.07,0.26-0.07c0.05,0,0.1,0.02,0.14,0.06c0.07,0.06,0.09,0.17,0.02,0.28c-0.12,0.2-0.23,0.4-0.37,0.59
			c-0.13,0.18-0.24,0.36-0.36,0.54c-0.24,0.36-0.53,0.71-0.83,1.06c-1.15,1.02-2.29,2.05-3.44,3.07
			C89.4,170.15,89.37,170.11,89.36,170.04z"/>
		<path class="st1" d="M93.67,165.15c-0.02,0.02-0.03,0.05-0.05,0.08L93.67,165.15C93.67,165.15,93.67,165.15,93.67,165.15z"/>
		<path class="st1" d="M102.56,184.34c-0.07-0.08-0.13-0.16-0.19-0.24c-0.09-0.11-0.18-0.22-0.25-0.35
			c-0.03-0.06-0.05-0.15-0.04-0.23c0.01-0.13,0.01-0.13,0.06-0.26c0.02-0.05,0.06-0.11,0.09-0.16c0.05-0.08,0.11-0.15,0.16-0.23
			c0.12-0.18,0.25-0.36,0.39-0.54c0.39-0.52,0.85-1.01,1.31-1.49c0.27-0.28,0.55-0.55,0.83-0.82c0.28-0.26,0.56-0.52,0.85-0.77
			c0.3-0.26,0.62-0.51,0.94-0.77c0.33-0.26,0.66-0.53,0.99-0.79c0.31-0.25,0.62-0.51,0.94-0.76c0.33-0.26,0.66-0.52,0.99-0.77
			c0.11-0.09,0.25-0.12,0.33-0.05c0.07,0.06,0.04,0.21-0.07,0.3c-0.38,0.3-0.75,0.6-1.11,0.92c-0.09,0.08-0.18,0.16-0.27,0.24
			c0.18,0.06,0.26,0.25,0.15,0.47c-0.07,0.15-0.18,0.27-0.3,0.4c-0.19,0.21-0.39,0.41-0.58,0.61c0.03-0.03,0.05-0.06,0.08-0.08
			c-0.35,0.37-0.69,0.73-1.03,1.11c-0.36,0.4-0.71,0.81-1.05,1.21c-0.33,0.39-0.64,0.79-0.95,1.19c-0.3,0.39-0.57,0.79-0.85,1.18
			c-0.21,0.29-0.41,0.68-0.8,0.82C102.88,184.6,102.69,184.49,102.56,184.34z M103.26,183.2c-0.02-0.02-0.03-0.05-0.03-0.07
			c-0.02,0.02-0.03,0.04-0.05,0.06c0.01,0.02,0.03,0.04,0.05,0.06C103.24,183.24,103.25,183.22,103.26,183.2z"/>
		<path class="st1" d="M102.29,183.39c-0.16-0.06-0.21-0.23-0.13-0.41c0.01-0.04,0.03-0.08,0.05-0.12c0.04-0.07,0.08-0.13,0.13-0.2
			c0.09-0.11,0.2-0.22,0.29-0.33c0.31-0.33,0.62-0.66,0.95-0.99c0.61-0.61,1.22-1.22,1.84-1.82c0.33-0.32,0.68-0.64,1.04-0.94
			c0.36-0.3,0.72-0.59,1.08-0.88c0.37-0.3,0.73-0.6,1.1-0.89c0.18-0.14,0.36-0.28,0.54-0.42c0.2-0.15,0.39-0.31,0.58-0.48
			c0.13-0.11,0.31-0.14,0.4-0.06c0.09,0.08,0.05,0.24-0.08,0.36c-0.34,0.29-0.68,0.58-1.03,0.86c-0.33,0.27-0.65,0.56-0.97,0.85
			c-0.65,0.6-1.31,1.2-1.92,1.83c-0.13,0.13-0.26,0.27-0.38,0.4c0.03-0.03,0.06-0.06,0.09-0.1c-0.28,0.29-0.55,0.59-0.82,0.89
			c-0.29,0.31-0.58,0.61-0.86,0.93c-0.27,0.29-0.53,0.58-0.8,0.86c-0.08,0.09-0.16,0.18-0.25,0.27c-0.13,0.14-0.22,0.23-0.38,0.33
			C102.6,183.42,102.41,183.44,102.29,183.39z M102.18,182.94C102.18,182.94,102.18,182.94,102.18,182.94
			C102.18,182.94,102.18,182.94,102.18,182.94z"/>
		<polygon class="st2" points="95.33,205 95.34,205 95.34,205 		"/>
		<path class="st2" d="M86.68,217.64C86.68,217.64,86.68,217.64,86.68,217.64c-0.01,0.01-0.01,0.01-0.02,0.02L86.68,217.64z"/>
		<path class="st2" d="M95.33,205.02C95.33,205.01,95.33,205.01,95.33,205.02c0,0,0,0.01-0.01,0.02
			C95.32,205.03,95.33,205.02,95.33,205.02z"/>
		<path class="st2" d="M88.4,215.69c0.02-0.02,0.04-0.04,0.06-0.06c-0.01,0.01-0.02,0.02-0.03,0.03
			C88.41,215.67,88.41,215.68,88.4,215.69z"/>
		<polygon class="st2" points="95.34,204.99 95.34,205 95.34,205 95.34,204.99 		"/>
		<path class="st2" d="M109.38,177.72c0,0.01-0.01,0.01-0.01,0.02c-0.01,0.01-0.02,0.02-0.02,0.03
			C109.36,177.76,109.37,177.74,109.38,177.72z"/>
		<polygon class="st2" points="95.34,204.99 95.34,204.99 95.34,204.99 		"/>
		<polygon class="st2" points="95.34,205 95.34,204.99 95.34,204.99 95.34,204.99 		"/>
		<path class="st2" d="M95.33,205C95.33,205.01,95.33,205.01,95.33,205C95.33,205.01,95.33,205,95.33,205c0-0.01,0-0.01,0-0.01
			C95.34,205,95.33,205,95.33,205z"/>
		<polygon class="st2" points="95.34,204.99 95.34,204.99 95.34,204.99 95.34,204.99 		"/>
		<polygon class="st2" points="95.34,204.99 95.34,204.99 95.34,204.99 95.34,204.99 		"/>
		<path class="st2" d="M95.34,204.99L95.34,204.99c0,0,0,0.01-0.01,0.01C95.33,205,95.34,205,95.34,204.99
			C95.34,204.99,95.34,204.99,95.34,204.99z"/>
		<g>
			<path class="st4" d="M113.54,220.42c-0.25,0.45-0.55,0.88-0.84,1.3c-0.18,0.26-0.33,0.45-0.48,0.64
				c-0.22,0.27-0.48,0.52-0.7,0.74c-0.32,0.31-0.68,0.58-1.03,0.85c-0.5,0.38-0.97,0.7-1.37,0.95c-0.31,0.2-0.55,0.35-0.78,0.49
				c-0.29,0.16-0.57,0.31-0.86,0.45c-0.22,0.11-0.44,0.2-0.67,0.29l-0.22,0.09l-0.15,0.07c-0.2,0.27-0.46,0.45-0.68,0.59
				c-0.04,0.02-0.08,0.05-0.11,0.07c0.01-0.01,0.02-0.02,0.03-0.03c0.22-0.23,0.37-0.5,0.46-0.87c0.13-0.47,0.2-0.95,0.27-1.44
				l0.03-0.19c0.09-0.54,0.16-1.18,0.13-1.81c-0.04-0.57-0.12-1.31-0.39-2c-0.13-0.34-0.28-0.65-0.46-0.94
				c-0.07-0.12-0.15-0.23-0.23-0.33c0-0.04,0-0.08-0.01-0.12c-0.05-0.3-0.19-0.51-0.43-0.63c-0.35-0.18-0.84-0.15-1.28-0.09
				c-0.43,0.04-0.78,0.13-1.11,0.27c-0.32,0.14-0.63,0.33-0.92,0.55c-0.22,0.15-0.42,0.33-0.68,0.59c-0.13,0.12-0.25,0.26-0.37,0.4
				l-0.16,0.21l-0.06,0.13l-0.04,0.06c0-0.32,0-0.7-0.07-1.05c-0.09-0.47-0.26-0.88-0.49-1.22c-0.16-0.25-0.36-0.47-0.61-0.73
				c-0.19-0.2-0.4-0.42-0.66-0.56c-0.14-0.07-0.28-0.11-0.43-0.12c-0.49-0.05-0.96,0.07-1.45,0.37c-0.11,0.07-0.22,0.13-0.32,0.22
				l-0.11,0.1l-0.1,0.09c-0.2,0.16-0.41,0.3-0.63,0.44c-0.31,0.19-0.59,0.43-0.91,0.76c-0.07,0.06-0.13,0.13-0.2,0.19
				c0.02-0.15,0.04-0.3,0.05-0.45c0.05-0.44,0.08-0.88,0.1-1.32c0.02-0.44,0.01-0.92-0.04-1.42c-0.05-0.42-0.1-0.8-0.28-1.12
				c-0.07-0.13-0.15-0.24-0.24-0.37c-0.05-0.06-0.09-0.11-0.21-0.18c-0.04-0.03-0.1-0.08-0.22-0.13c-0.17-0.05-0.33-0.08-0.52-0.09
				c-0.33-0.03-0.62-0.03-0.91,0.01c-0.3,0.03-0.62,0.13-0.89,0.23c-0.22,0.08-0.43,0.2-0.61,0.3c-0.34,0.2-0.65,0.42-0.94,0.68
				c-0.32,0.28-0.66,0.59-0.96,0.94c-0.25,0.31-0.5,0.6-0.72,0.93l-0.24,0.37l-0.3,0.44c-0.26,0.37-0.55,0.8-0.78,1.22
				c-0.16,0.29-0.26,0.53-0.32,0.73c-0.06,0.21-0.09,0.42-0.13,0.63l-0.02,0.15c-0.05,0.26-0.06,0.51-0.04,0.78
				c-0.01-0.03-0.03-0.05-0.04-0.08c0-0.01,0-0.02,0-0.02c-0.01-0.08-0.02-0.16-0.02-0.24c-0.02-0.19-0.04-0.37-0.08-0.55
				c-0.04-0.19-0.07-0.37-0.11-0.55c-0.04-0.18-0.07-0.37-0.14-0.54c0-0.01,0-0.01-0.01-0.02c0-0.18,0.03-0.36,0.06-0.54
				c0.08-0.46,0.25-0.88,0.42-1.3l0.12-0.29c0.18-0.45,0.39-0.89,0.61-1.34c0.2-0.41,0.42-0.81,0.65-1.21
				c0.13-0.22,0.26-0.45,0.39-0.67c0.13-0.22,0.25-0.44,0.39-0.67c0.35-0.6,0.69-1.22,1.01-1.84c0.24-0.45,0.54-1.05,0.8-1.67
				c0.17-0.45,0.28-0.82,0.35-1.17c0.08-0.38,0.14-0.76,0.2-1.14c0-0.02,0-0.03,0.01-0.05c0-0.01,0.01-0.06,0.02-0.06
				c0,0,0.01-0.05,0.01-0.04l0.06-0.56l0.04-0.28l0.06-0.43l0.05-0.36c0.06-0.51,0.09-0.9,0.1-1.26l0-0.31l0-0.31
				c0-0.12,0.02-0.25,0.04-0.38c7.38,5.57,15.36,10.57,22.99,15.37C114,219.51,113.78,219.97,113.54,220.42z"/>
			<path class="st4" d="M115.96,214.98c0.02-0.05,0.03-0.09,0.05-0.14c0-0.01,0.01-0.01,0.01-0.02L115.96,214.98z"/>
			<path class="st4" d="M114.48,96.7c1.48-1.87,2.98-3.61,4.55-5.21c0.39,0.34,0.78,0.66,1.15,0.96c0.39,0.31,0.78,0.61,1.17,0.91
				l0.68,0.52c0.33,0.26,0.66,0.51,1,0.75c0.33,0.25,0.66,0.5,0.99,0.75l0.32,0.24c0.53,0.41,1.05,0.81,1.57,1.22l0.15,0.12
				c0.27,0.22,0.54,0.43,0.8,0.65l0.17,0.15c0.23,0.2,0.46,0.4,0.68,0.61c1.28,1.25,2.37,2.39,3.33,3.5
				c0.5,0.57,0.99,1.13,1.47,1.72c0.2,0.25,0.41,0.5,0.62,0.74c0.32,0.38,0.65,0.77,0.97,1.16c0.49,0.62,0.95,1.26,1.41,1.9
				l0.13,0.17c0.37,0.52,0.76,1.03,1.14,1.54l0.28,0.36c0.58,0.72,1.14,1.44,1.68,2.18l0.38,0.52l0.37,0.51
				c0.13,0.18,0.26,0.37,0.39,0.56c0.11,0.17,0.22,0.33,0.33,0.49l0.63,0.89c0.78,1.09,1.58,2.23,2.33,3.38l0.05,0.07l1.36,2.12
				c0.25,0.39,0.48,0.78,0.72,1.17c0.19,0.33,0.39,0.66,0.6,0.98c0.25,0.4,0.49,0.8,0.71,1.2c0.13,0.22,0.25,0.44,0.37,0.67
				l0.26,0.48c0.19,0.35,0.39,0.69,0.58,1.04c0.24,0.42,0.47,0.84,0.7,1.27c0.44,0.82,0.8,1.51,1.1,2.24l0.51,1.17l0.51,1.18
				l0.09,0.21l0.09,0.21l0.14,0.28l0.07,0.15c0.14,0.3,0.26,0.62,0.39,0.93l0.11,0.3c0.33,0.83,0.63,1.66,0.93,2.51
				c0.14,0.41,0.26,0.85,0.37,1.28l0.05,0.18l0.07,0.26c0.08,0.34,0.17,0.67,0.26,1c0.08,0.3,0.17,0.6,0.26,0.9l0.12,0.4l0.04,0.14
				c0.11,0.4,0.23,0.81,0.3,1.23c0.06,0.38,0.09,0.72,0.08,1.05c-0.01,0.37-0.1,0.75-0.19,1.11c0.36,0.24,0.74,0.45,1.13,0.65
				l0.13,0.07c0.24,0.12,0.49,0.24,0.75,0.34c0.31,0.12,0.63,0.22,0.95,0.33c0.57,0.17,1.15,0.32,1.73,0.47l0.44,0.11
				c0.74,0.19,1.52,0.3,2.24,0.38c0.18,0.02,0.36,0.04,0.54,0.06c0.22,0.02,0.43,0.04,0.65,0.07l0.15,0.02
				c0.34,0.05,0.69,0.1,1.04,0.11c0.4,0.02,0.8,0.03,1.2,0.03l0.28,0.01c0.27,0,0.55,0.01,0.83,0c0.04,0,0.08,0,0.13,0
				c0.96-0.03,1.94-0.12,2.93-0.28c0.57-0.09,1.15-0.19,1.72-0.29c0.57-0.1,1.15-0.25,1.7-0.39c0,0-0.05,0.02-0.05,0.02
				c0,0.01-0.05,0.02-0.06,0.03c0.39-0.13,0.8-0.25,1.19-0.39l0.32-0.11l0.31-0.1c0.12-0.1,0.27-0.18,0.44-0.24
				c0.37-0.13,0.73-0.27,1.1-0.41l0.55-0.21l0.52-0.19c0.28-0.1,0.55-0.19,0.82-0.3c0.45-0.2,0.89-0.4,1.34-0.61l0.79-0.36
				l0.24-0.11c0.28-0.12,0.56-0.25,0.83-0.4c0.27-0.14,0.54-0.29,0.81-0.44l0.23-0.13c0.73-0.41,1.37-0.78,1.97-1.17
				c0.69-0.44,1.37-0.9,2.05-1.37l0.76-0.54c0.61-0.44,1.22-0.88,1.84-1.31c0.27-0.19,0.54-0.37,0.82-0.54l0.48-0.31l0.35-0.23
				c0.25-0.17,0.5-0.33,0.75-0.5c0.74-0.54,1.5-1.13,2.29-1.8c0.75-0.64,1.48-1.32,2.22-2.03c0.66-0.62,1.32-1.23,2-1.83
				c0.55-0.49,1.09-1,1.63-1.5l0.49-0.45c0.71-0.66,1.43-1.32,2.15-1.96c0.59-0.53,1.16-1.08,1.74-1.62l0.2-0.19
				c0.24-0.23,0.49-0.45,0.73-0.68c0.42-0.39,0.85-0.78,1.26-1.19c0.46-0.47,0.93-0.93,1.41-1.39l0.68-0.66
				c1.57-1.55,2.98-2.91,4.29-4.14c0.36-0.34,0.71-0.66,1.08-0.99c0.38-0.33,0.75-0.66,1.11-1.01c0.36-0.35,0.72-0.68,1.09-1.02
				c0.24-0.22,0.47-0.43,0.71-0.64l0.39-0.34c0.36-0.32,0.72-0.64,1.08-0.96c0.36-0.32,0.72-0.64,1.08-0.96l0.89-0.78
				c0.4-0.36,0.81-0.71,1.21-1.06l0.36-0.32c0.2-0.18,0.4-0.36,0.61-0.53c0.24-0.21,0.49-0.41,0.74-0.62l0.37-0.3
				c0.22-0.18,0.44-0.36,0.66-0.53c0.22-0.17,0.44-0.35,0.66-0.53c0.38-0.32,0.75-0.63,1.13-0.94c0.75-0.62,1.51-1.23,2.28-1.82
				l0.77-0.59c0.51-0.39,1.03-0.78,1.54-1.18l0.27-0.22c0.72-0.57,1.47-1.15,2.23-1.68c0.81-0.56,1.64-1.1,2.42-1.59
				c0.49-0.31,0.98-0.64,1.47-0.96l1.02-0.67c0.79-0.52,1.59-0.98,2.49-1.47l0.34-0.19c0.3-0.17,0.6-0.34,0.91-0.5l0.59-0.31
				l0.59-0.31l0.09-0.05c0.42-0.22,0.85-0.44,1.28-0.64l0.38-0.19c0.26-0.12,0.52-0.25,0.77-0.36c0.37-0.16,0.73-0.33,1.1-0.51
				c0.27-0.13,0.55-0.27,0.83-0.39c0.84-0.38,1.57-0.66,2.23-0.85l0.42-0.12l0.76-0.21c0.27-0.08,0.55-0.17,0.82-0.25l0.52-0.16
				l0.15-0.04c0.19-0.06,0.37-0.11,0.56-0.16c0.14-0.04,0.29-0.07,0.43-0.11l0.24-0.05l0.27-0.07c0.18-0.05,0.35-0.1,0.54-0.14
				l0.4-0.1c0.49-0.12,0.98-0.24,1.46-0.33l0.26-0.05c0.4-0.07,0.82-0.15,1.22-0.17c0.26-0.02,0.53-0.03,0.79-0.03
				c0.21,0.01,0.4,0.03,0.6,0.07c0.16,0.03,0.29,0.06,0.4,0.11c0.03,0.02,0.06,0.04,0.09,0.06l0.11,0l0.12,0
				c0.26,0.01,0.49,0.02,0.67,0.1c0.04,0.02,0.07,0.03,0.1,0.06c0.05,0,0.09,0.01,0.13,0.03c0.12,0.06,0.17,0.19,0.14,0.34
				c-0.02,0.1-0.08,0.19-0.16,0.26c-0.08,0.08-0.18,0.12-0.27,0.12c-0.07,0-0.13,0-0.2,0c-0.09,0.02-0.19,0.03-0.29,0.04l-0.14,0.01
				l-0.2,0.04c-0.16,0.04-0.33,0.08-0.49,0.13c-0.39,0.11-0.8,0.25-1.29,0.45c-0.41,0.17-0.83,0.35-1.24,0.56
				c-0.38,0.19-0.76,0.4-1.13,0.62l-0.66,0.39c-0.48,0.29-0.97,0.58-1.46,0.84l-0.51,0.27c-0.26,0.13-0.51,0.27-0.77,0.41
				c-0.23,0.13-0.46,0.26-0.69,0.39l-0.5,0.28c-0.44,0.24-0.87,0.5-1.3,0.76c-0.43,0.25-0.85,0.51-1.27,0.78
				c-0.27,0.18-0.53,0.36-0.8,0.54c-0.18,0.13-0.3,0.22-0.42,0.31c-0.16,0.12-0.31,0.25-0.45,0.38l-0.12,0.11
				c-0.33,0.3-0.66,0.61-0.98,0.92c-0.79,0.75-1.53,1.41-2.15,1.95l-0.23,0.2c-0.26,0.23-0.52,0.46-0.78,0.68l-0.54,0.5l-0.54,0.49
				l-0.36,0.33c-0.62,0.56-1.24,1.12-1.85,1.69c-0.81,0.76-1.52,1.46-2.17,2.16l-0.08,0.09l-0.1,0.11l0.01-0.01
				c-0.17,0.19-0.35,0.38-0.53,0.57c-0.36,0.39-0.71,0.78-1.07,1.18c-0.31,0.34-0.62,0.68-0.92,1.02c-0.82,0.88-1.52,1.67-2.14,2.4
				c-0.68,0.8-1.35,1.62-2.01,2.44c-0.6,0.75-1.17,1.52-1.75,2.28l-0.29,0.39c-0.66,0.88-1.3,1.73-1.93,2.58l-0.46,0.61
				c-0.52,0.7-1.04,1.4-1.55,2.11c-0.31,0.45-0.63,0.89-0.95,1.33c-0.31,0.42-0.61,0.85-0.91,1.29l-0.24,0.33
				c-0.24,0.34-0.49,0.68-0.72,1.02l-0.57,0.83l-0.3,0.44c-0.83,1.21-1.64,2.45-2.45,3.69l-1.04,1.59
				c-0.21,0.31-0.41,0.62-0.61,0.94l-0.24,0.38l-0.3,0.47c-0.2,0.32-0.4,0.63-0.6,0.95l-0.71,1.14c-0.35,0.57-0.71,1.14-1.07,1.71
				c-0.21,0.34-0.43,0.68-0.64,1.02l-0.04,0.06l0.03-0.06l0.01,0l0.1-0.19c-0.36,0.62-0.72,1.24-1.09,1.87
				c-0.5,0.86-1.01,1.72-1.53,2.57l-0.31,0.52c-0.31,0.52-0.63,1.04-0.96,1.56c-0.37,0.58-0.76,1.15-1.16,1.7l-0.22,0.41
				c-0.21,0.39-0.41,0.77-0.63,1.16c-0.13,0.24-0.27,0.47-0.41,0.71c-0.12,0.21-0.24,0.41-0.35,0.62c-0.27,0.49-0.55,0.97-0.85,1.44
				c-0.61,0.96-1.23,1.87-1.84,2.7c-0.47,0.63-0.88,1.22-1.26,1.81c-0.39,0.58-0.81,1.16-1.22,1.71l-0.16,0.23
				c-0.47,0.64-0.95,1.27-1.44,1.9c-0.23,0.29-0.46,0.58-0.7,0.86c-0.2,0.25-0.4,0.49-0.6,0.74l-0.41,0.53l-0.44,0.58
				c-0.44,0.59-0.9,1.2-1.39,1.78c-0.31,0.36-0.64,0.71-0.97,1.05c-0.24,0.25-0.47,0.51-0.7,0.77l-0.15,0.17
				c-0.85,0.95-1.74,1.86-2.65,2.7c0.01,0,0.01,0,0.02,0.01c0.04,0.02,0.07,0.05,0.09,0.1c0.04,0.09,0.04,0.21,0,0.32
				c-0.05,0.11-0.12,0.2-0.21,0.25c-0.33,0.2-0.69,0.42-1.04,0.7c-0.44,0.38-0.87,0.78-1.3,1.18c-0.24,0.23-0.49,0.45-0.73,0.68
				c-0.66,0.61-1.33,1.2-2.02,1.78c-0.36,0.3-0.77,0.64-1.19,0.96c-0.39,0.3-0.79,0.59-1.19,0.87c-0.5,0.37-0.99,0.74-1.48,1.12
				c-0.3,0.23-0.6,0.46-0.91,0.7c-0.69,0.52-1.39,1.02-2.1,1.51l-0.52,0.36l-0.37,0.26c-0.32,0.23-0.64,0.45-0.96,0.66
				c-0.3,0.19-0.6,0.37-0.91,0.54c-0.09,0.04-0.18,0.09-0.26,0.13l-0.42,0.2c-0.4,0.19-0.8,0.38-1.2,0.57
				c-0.43,0.21-0.85,0.41-1.27,0.6c-0.81,0.36-1.69,0.72-2.76,1.14c-0.46,0.18-0.91,0.34-1.36,0.51c-0.45,0.16-0.91,0.33-1.36,0.5
				c-0.11,0.04-0.22,0.09-0.34,0.13c-0.34,0.1-0.67,0.2-1.01,0.3l-0.49,0.15c-0.81,0.25-1.61,0.48-2.42,0.68l-0.11,0.03l-0.1,0.02
				l0,0.01l-0.24,0.06l-0.15,0.04c-0.02,0.01-0.04,0.01-0.06,0.02l0,0c-0.47,0.12-0.87,0.22-1.28,0.3c-0.24,0.05-0.47,0.09-0.7,0.14
				c-0.24,0.05-0.47,0.09-0.7,0.14l-0.61,0.13c-0.27,0.06-0.53,0.12-0.8,0.17c-0.23,0.04-0.45,0.08-0.68,0.13
				c-0.22,0.04-0.45,0.08-0.67,0.13c-0.29,0.06-0.57,0.12-0.86,0.18l-0.43,0.09c-0.4,0.08-0.8,0.14-1.19,0.2l-0.13,0.02
				c-0.95,0.14-1.81,0.26-2.67,0.42c-0.71,0.13-1.42,0.2-2.11,0.27l-0.12,0.01c-0.86,0.09-1.71,0.17-2.56,0.22l-0.82,0.06
				c-0.53,0.04-1.05,0.08-1.58,0.1c-0.75,0.04-1.46,0.03-2.06,0.02l-0.09-0.01l0,0.01l-0.11-0.01l-1.75,0.01
				c-0.58,0-1.17-0.01-1.75-0.03l-0.37-0.01c-0.46,0-0.93,0-1.4,0.01c-0.49,0-0.98,0.01-1.47,0c-0.35,0-0.7,0-1.06,0.01l-0.46,0.01
				c-0.04,0-0.06,0-0.1,0c-0.07-0.01-0.15-0.02-0.22-0.03l-0.09-0.01c-0.07-0.01-0.15-0.02-0.22-0.02l-0.11,0
				c-0.12-0.01-0.25-0.02-0.38,0.01c-0.03,0.01-0.06,0.01-0.09,0.02l-0.03,0c-0.24-0.01-0.46-0.09-0.67-0.16l-0.15-0.06
				c-0.25,0.2-0.48,0.41-0.72,0.62c-0.29,0.37-0.59,0.75-0.9,1.11c-0.63,0.73-1.27,1.46-1.91,2.18l-0.21,0.24l-0.92,1.04
				c-0.45,0.52-0.91,1.03-1.36,1.54c-0.26,0.3-0.52,0.6-0.78,0.91l-0.31,0.36c-0.14,0.16-0.27,0.32-0.41,0.47
				c-0.14,0.17-0.23,0.29-0.33,0.42c-0.14,0.22-0.22,0.37-0.3,0.52c-0.32,0.58-0.64,1.17-0.95,1.76c-0.03,0.04-0.06,0.08-0.09,0.12
				c-0.13,0.2-0.26,0.45-0.39,0.75c-0.04,0.09-0.08,0.19-0.11,0.28c-0.25,0.52-0.5,1.05-0.74,1.58c-0.31,0.69-0.62,1.41-0.96,2.26
				l-0.3,0.8l-0.08,0.2l-0.14,0.36l-0.14,0.36c-0.04,0.1-0.08,0.2-0.12,0.3c-0.03,0.07-0.05,0.13-0.09,0.2
				c-0.07,0.16-0.18,0.27-0.3,0.38c-0.1,0.1-0.14,0.12-0.17,0.14c-0.18,0.49-0.32,0.89-0.46,1.3c-0.18,0.51-0.36,1.02-0.52,1.53
				c-0.08,0.23-0.15,0.45-0.22,0.68c-0.07,0.23-0.14,0.45-0.22,0.67c-0.12,0.35-0.25,0.71-0.38,1.06l-0.09,0.25
				c-0.11,0.31-0.21,0.62-0.3,0.94l-0.1,0.33c-0.14,0.46-0.31,0.91-0.48,1.37c-0.32,0.83-0.68,1.66-1.03,2.46l-0.22,0.5l-0.14,0.31
				c-0.13,0.31-0.27,0.62-0.41,0.93c-7.63-4.81-15.61-9.81-22.99-15.37c0.01-0.05,0-0.1,0.01-0.14c0.03-0.16,0.1-0.33,0.17-0.49
				c0.05-0.11,0.11-0.21,0.2-0.3l-0.06-0.46l-0.03-0.25c-0.01-0.12-0.03-0.24-0.05-0.35c0.1-0.23,0.16-0.45,0.21-0.67
				c0.06-0.34,0.03-0.67-0.02-0.95c-0.05-0.34-0.12-0.68-0.19-1.01c-0.04-0.2-0.09-0.4-0.13-0.6c-0.05-0.24-0.11-0.47-0.15-0.72
				c-0.05-0.26-0.12-0.52-0.19-0.77l-0.1-0.4c-0.11-0.43-0.23-0.86-0.37-1.31c-0.05-0.22-0.08-0.45-0.1-0.68
				c-0.01-0.08-0.04-0.14-0.09-0.19c-0.01-0.06-0.01-0.12-0.01-0.18c0.22-0.2,0.36-0.48,0.36-0.73c0-0.24-0.02-0.46-0.05-0.73
				c-0.02-0.15-0.02-0.3-0.03-0.45l-0.01-0.15c-0.02-0.26-0.02-0.53-0.03-0.8l-0.02-0.59c-0.02-0.44-0.04-0.89-0.04-1.35
				c0.01-0.47,0.02-0.96,0.06-1.44c0.06-0.69,0.1-1.39,0.14-2.08c0.01-0.17,0.02-0.34,0.03-0.51c0.01-0.22,0.02-0.44,0.04-0.66
				l0.02-0.2c0.02-0.28,0.05-0.56,0.06-0.84c0.03-0.62,0.12-1.25,0.22-1.87l0.04-0.31l0.09-0.6l0.08-0.6l0.02-0.17
				c0.02-0.17,0.05-0.34,0.08-0.51l0.06-0.26l0.08-0.37c0.04-0.19-0.04-0.37-0.21-0.45c-0.08-0.04-0.17-0.05-0.25-0.04
				c-0.05,0.01-0.11,0.02-0.13,0.03l-0.17-0.09c-0.21-0.11-0.43-0.21-0.65-0.3c-0.14-0.06-0.28-0.11-0.42-0.17
				c-0.2-0.08-0.39-0.16-0.58-0.24c-0.11-0.05-0.22-0.1-0.33-0.16l-0.34-0.18l-0.19-0.1l-0.19-0.1c-0.23-0.11-0.46-0.22-0.69-0.33
				l-0.14-0.07c-0.07-0.03-0.14-0.07-0.22-0.1c-0.04-0.03-0.09-0.06-0.14-0.09l-0.12-0.04l-0.01-0.01l-0.3-0.16l-0.26-0.13
				c-0.16-0.08-0.33-0.16-0.5-0.24l-0.35-0.17l-0.14-0.08c-0.26-0.13-0.52-0.28-0.77-0.42l-0.25-0.15
				c-0.21-0.12-0.43-0.23-0.64-0.34l-0.32-0.17l-0.24-0.13c-0.18-0.1-0.36-0.2-0.54-0.29c-0.08-0.04-0.16-0.08-0.25-0.12
				c-0.26-0.12-0.52-0.24-0.77-0.36l-0.15-0.08l-0.15-0.08c-0.45-0.23-0.89-0.47-1.33-0.72l-0.8-0.44l-0.36-0.18l-0.36-0.18
				l-0.42-0.2c-0.22-0.11-0.43-0.22-0.63-0.35c-0.01-0.01-0.02-0.02-0.03-0.02c-0.36-0.25-0.7-0.48-1.03-0.73l-0.17-0.13
				c-0.26-0.2-0.53-0.4-0.79-0.59c-0.18-0.12-0.36-0.25-0.54-0.37c-0.07-0.05-0.14-0.09-0.21-0.14c-0.47-0.38-0.93-0.78-1.38-1.17
				l-0.55-0.48c-0.24-0.2-0.49-0.4-0.73-0.61l-0.4-0.33c-0.18-0.15-0.37-0.28-0.56-0.41C85.17,143.12,99.33,119.55,114.48,96.7z"/>
			<path class="st6" d="M139.78,201.02c-1,0.22-1.9,0.38-2.73,0.51c-0.41,0.06-0.82,0.11-1.23,0.15c-0.31,0.03-0.63,0.04-0.94,0.05
				l-0.27,0.01c-0.33,0.02-0.66,0.04-0.99,0.06l-0.25,0.02c-0.33,0.02-0.66,0.03-0.99,0.03l-0.18,0l-0.21,0.01
				c-0.63,0.02-1.26,0.04-1.88,0.02c-0.36-0.01-0.71-0.04-1.07-0.07l-0.35-0.03c-0.24-0.02-0.47-0.04-0.71-0.07l-0.34-0.05
				c-0.15-0.02-0.29-0.05-0.44-0.06c-0.3-0.04-0.6-0.05-0.91-0.07c-0.31-0.02-0.55-0.05-0.79-0.08c-0.3-0.04-0.59-0.07-0.9-0.08
				c-0.22,0-0.43,0-0.65-0.01l-0.29-0.02l-0.29-0.02l-0.31-0.01c-0.24,0-0.47-0.01-0.7-0.04c-0.1-0.01-0.19-0.04-0.28-0.08
				c-0.25-0.13-0.38-0.37-0.36-0.68c0.01-0.2,0.11-0.44,0.2-0.65c0.12-0.3,0.25-0.55,0.39-0.75c0.1-0.15,0.21-0.29,0.32-0.42
				l0.14-0.18c0,0,0.07-0.09,0.08-0.09c0,0,0.07-0.07,0.07-0.07c0.12-0.18,0.26-0.37,0.41-0.55l0.25-0.33l0.11-0.13l0.1-0.13
				l0.09-0.1l-0.01,0c0.29-0.37,0.61-0.73,0.92-1.09c0.18-0.2,0.35-0.4,0.52-0.61c0.21-0.25,0.41-0.49,0.63-0.72
				c0.31-0.31,0.54-0.55,0.75-0.81l0.11-0.16l0.12-0.16c0.16-0.24,0.34-0.45,0.52-0.67c0.31-0.36,0.62-0.74,0.91-1.11
				c0.26-0.33,0.52-0.65,0.8-0.97c0.33-0.39,0.62-0.73,0.93-1.04c0.39-0.41,0.81-0.78,1.24-1.1c0.14-0.11,0.28-0.21,0.42-0.31
				c0.07-0.05,0.11-0.08,0.16-0.1c0.21-0.12,0.31-0.16,0.53-0.21c0.13-0.03,0.26-0.02,0.38-0.02l0.11,0.01
				c0.07,0,0.15,0.01,0.22,0.02l0.09,0.01c0.12,0.01,0.23,0.03,0.35,0.04l0.32,0.04l0.36,0.04c0.32,0.04,0.63,0.07,0.94,0.12
				l0.1,0.02c0.17,0.03,0.35,0.06,0.52,0.08c0.21,0.02,0.43,0.03,0.65,0.03c0.43,0.01,0.86-0.01,1.3-0.03
				c0.25-0.01,0.51-0.01,0.76-0.02c0.21,0,0.43,0,0.64-0.01c0.29-0.01,0.59-0.04,0.89-0.07l0.43-0.04c0.47-0.04,0.95-0.07,1.41-0.08
				c0.66-0.02,1.32-0.04,1.98-0.05c1.16-0.03,2.35-0.05,3.54-0.13c0.4-0.03,0.79-0.04,1.19-0.05c0.48-0.02,0.87-0.05,1.28-0.11
				l0.6-0.08c0.69-0.09,1.41-0.19,2.12-0.35l0.47-0.11c0.27-0.06,0.54-0.13,0.81-0.18l0.45-0.09c0.27-0.05,0.53-0.1,0.8-0.17
				c0.23-0.05,0.46-0.11,0.69-0.17c0.23-0.06,0.46-0.12,0.69-0.17c0.27-0.06,0.54-0.11,0.81-0.17l0.56-0.11l1.17-0.25
				c0.61-0.13,1.22-0.26,1.83-0.39c1-0.2,1.97-0.42,2.91-0.66l0.1-0.02l0.22-0.06c0.99-0.28,1.98-0.65,2.81-0.97
				c0.46-0.18,0.91-0.34,1.37-0.51c0.45-0.17,0.91-0.33,1.36-0.51c1.07-0.41,1.95-0.78,2.76-1.14c0.43-0.19,0.85-0.39,1.27-0.6
				c0.4-0.19,0.8-0.38,1.2-0.57l0.42-0.2c0.27-0.13,0.54-0.26,0.82-0.39c0.41-0.19,0.81-0.37,1.21-0.58
				c0.31-0.18,0.61-0.38,0.91-0.57l0.45-0.29c0.45-0.29,0.9-0.59,1.34-0.9c0.45-0.32,0.9-0.64,1.33-0.97
				c0.14-0.1,0.27-0.22,0.4-0.32c0.23-0.19,0.47-0.39,0.72-0.55c0.29-0.3,0.58-0.61,0.86-0.92c0.14-0.16,0.36-0.22,0.51-0.14
				c0.03,0.02,0.05,0.03,0.07,0.06c0.14,0.14,0.11,0.41-0.07,0.61c-0.24,0.26-0.47,0.52-0.7,0.78c-0.02,0.11-0.07,0.21-0.16,0.29
				l-0.22,0.2l-0.35,0.32c-0.03,0.03-0.06,0.07-0.09,0.1l-0.15,0.16c-0.2,0.21-0.4,0.42-0.61,0.62c-0.27,0.24-0.54,0.48-0.81,0.72
				c-0.29,0.26-0.58,0.52-0.86,0.79l-0.17,0.16c-0.28,0.26-0.58,0.51-0.87,0.76l-0.38,0.32l-0.41,0.37c-0.45,0.4-0.89,0.8-1.36,1.18
				l-0.51,0.41c-0.42,0.34-0.85,0.68-1.26,1.04c-0.33,0.29-0.67,0.58-1.01,0.86l-0.2,0.17c-0.24,0.19-0.47,0.38-0.7,0.58l-0.29,0.25
				l-0.09,0.07l-0.22,0.2c-0.29,0.26-0.59,0.52-0.89,0.76c-0.37,0.29-0.74,0.55-1.13,0.81c-0.81,0.56-1.63,1.09-2.43,1.59
				c-0.81,0.51-1.62,1.02-2.42,1.54c-0.5,0.32-1.01,0.62-1.51,0.92c-0.29,0.17-0.58,0.34-0.86,0.52l-0.09,0.06
				c-1.51,0.92-3.06,1.87-4.62,2.72c-0.48,0.26-0.97,0.52-1.45,0.76l-0.26,0.13c-0.32,0.16-0.64,0.32-0.97,0.46
				c-0.46,0.2-0.93,0.39-1.39,0.58c-0.24,0.1-0.49,0.21-0.73,0.32c-0.18,0.08-0.37,0.17-0.55,0.24c-0.93,0.4-1.87,0.78-2.8,1.16
				c-0.74,0.3-1.51,0.53-2.25,0.75l-0.28,0.08c-0.93,0.27-1.83,0.54-2.75,0.74c-0.87,0.19-1.73,0.4-2.6,0.6
				c-0.5,0.12-1,0.22-1.5,0.32C140.53,200.87,140.16,200.94,139.78,201.02z"/>
			<path class="st7" d="M105.05,218.61c0.24,0.12,0.38,0.33,0.43,0.63c0.01,0.04,0.01,0.08,0.01,0.12c0.08,0.09,0.16,0.21,0.23,0.32
				c0.18,0.29,0.33,0.6,0.46,0.94c0.27,0.69,0.35,1.43,0.39,2c0.04,0.63-0.04,1.27-0.12,1.81l-0.03,0.19
				c-0.07,0.49-0.15,0.97-0.28,1.44c-0.1,0.37-0.24,0.63-0.46,0.87c-0.25,0.26-0.5,0.45-0.8,0.61c-0.41,0.22-0.85,0.3-1.27,0.38
				l-0.21,0.04l-0.19,0.04c-0.53,0.12-1.06,0.17-1.54,0.21l-0.53,0.06l-0.31,0.03c-0.16,0.02-0.33,0.03-0.5,0.06l-0.13,0.02
				c-0.15,0.03-0.31,0.05-0.46,0.07c-0.31,0.03-0.62,0.03-0.92,0.04l-0.19,0.01c-0.26,0-0.45,0-0.65-0.01
				c-0.8-0.04-1.58-0.09-2.36-0.23c-0.3-0.05-0.58-0.12-0.87-0.19l-0.1-0.02l-0.22-0.05c-0.28-0.07-0.55-0.15-0.82-0.26
				c-0.18-0.07-0.36-0.15-0.54-0.23l-0.18-0.08l-0.27-0.11c-0.12-0.05-0.24-0.1-0.36-0.15c-0.07-0.02-0.13-0.06-0.19-0.09
				l-0.13-0.07l-0.28-0.14l-0.11-0.05c-0.17-0.08-0.31-0.14-0.45-0.22c-0.12-0.06-0.23-0.12-0.34-0.19
				c-0.62-0.35-1.26-0.79-2.01-1.38c-0.39-0.32-0.79-0.64-1.16-0.99c-0.33-0.3-0.61-0.64-0.85-1c-0.06-0.09-0.11-0.19-0.16-0.29
				l-0.06-0.12c-0.08-0.17-0.18-0.4-0.24-0.65c-0.1-0.41-0.11-0.8-0.03-1.19l0.02-0.15c0.04-0.21,0.07-0.42,0.13-0.63
				c0.06-0.2,0.16-0.44,0.33-0.73c0.24-0.42,0.53-0.85,0.78-1.22l0.3-0.44l0.24-0.37c0.23-0.32,0.47-0.62,0.72-0.93
				c0.3-0.35,0.64-0.66,0.96-0.94c0.3-0.26,0.6-0.48,0.94-0.68c0.18-0.1,0.39-0.22,0.61-0.3c0.27-0.1,0.59-0.21,0.89-0.24
				c0.29-0.03,0.58-0.03,0.91-0.01c0.19,0.01,0.36,0.04,0.52,0.09l0,0c0.12,0.06,0.17,0.1,0.22,0.13c0.12,0.08,0.16,0.13,0.21,0.18
				c0.1,0.13,0.17,0.24,0.24,0.37c0.18,0.33,0.24,0.7,0.28,1.12c0.05,0.5,0.06,0.98,0.04,1.42c-0.02,0.44-0.05,0.88-0.1,1.32
				c-0.02,0.16-0.03,0.31-0.06,0.47c0.4-0.44,0.73-0.73,1.1-0.97c0.21-0.14,0.43-0.28,0.62-0.44l0.1-0.09l0.11-0.1
				c0.1-0.09,0.21-0.15,0.32-0.22c0.49-0.3,0.96-0.42,1.45-0.37c0.16,0.01,0.3,0.06,0.43,0.12c0.27,0.13,0.48,0.35,0.66,0.55
				c0.25,0.26,0.45,0.48,0.61,0.73c0.23,0.34,0.4,0.76,0.49,1.22c0.07,0.36,0.07,0.75,0.07,1.08l0.1-0.21l0.16-0.21
				c0.12-0.15,0.23-0.28,0.36-0.4c0.26-0.26,0.46-0.43,0.68-0.59c0.29-0.22,0.6-0.4,0.92-0.54c0.33-0.14,0.68-0.23,1.11-0.27
				C104.21,218.46,104.7,218.43,105.05,218.61"/>
			<path class="st1" d="M113.22,221.37c-0.58,0.83-1.28,1.59-1.95,2.3c-0.49,0.51-0.91,0.9-1.34,1.22
				c-0.32,0.24-0.64,0.46-0.96,0.69l-0.22,0.16l-0.26,0.18c-0.22,0.16-0.45,0.32-0.67,0.46c-0.4,0.26-0.87,0.33-1.19,0.16
				c-0.11-0.06-0.2-0.14-0.27-0.25c-0.13-0.2-0.15-0.46-0.16-0.72c-0.02-0.22,0.01-0.43,0.04-0.63c0.01-0.08,0.02-0.17,0.02-0.26
				l0.01-0.17l0.02-0.2c0.01-0.16,0.03-0.31,0.04-0.47l0.01-0.35c0.01-0.27,0.02-0.54,0.05-0.82c0.04-0.31,0.26-0.59,0.48-0.86
				c0.07-0.09,0.14-0.18,0.21-0.27c0.07-0.1,0.15-0.21,0.22-0.31l0.16-0.22c0.13-0.18,0.25-0.37,0.37-0.55
				c0.79-1.31,1.52-2.68,2.17-4.07c1.52,0.96,3.04,1.92,4.54,2.86C114.07,220.08,113.65,220.75,113.22,221.37z"/>
			<path class="st1" d="M110.96,214.2c0.26-0.58,0.52-1.15,0.75-1.73c0.23-0.6,0.46-1.2,0.7-1.8l0.4-1.03
				c0.22-0.61,0.4-1.14,0.58-1.67c0.14-0.41,0.28-0.82,0.43-1.24c0.4-1.12,0.79-2.13,1.22-3.07c0.4-0.9,0.84-1.8,1.34-2.76
				c0.25-0.48,0.51-0.96,0.78-1.43l0.19-0.34c0.19-0.34,0.38-0.69,0.59-1.02l0.23-0.36l0.21-0.34c0.17-0.28,0.36-0.57,0.54-0.85
				c0.54-0.83,1.17-1.68,1.87-2.53c0.32-0.39,0.64-0.78,0.98-1.16c0.4-0.45,0.82-0.87,1.24-1.29c0.63-0.64,1.36-1.28,2.21-1.96
				l0.21-0.17c0.24-0.19,0.48-0.38,0.72-0.57c0.38-0.29,0.77-0.56,1.16-0.82l0.59-0.4l0.25-0.17c0,0-0.12,0.08-0.12,0.08
				c0.77-0.53,1.47-1,2.17-1.45l0.65-0.4c0.41-0.25,0.82-0.51,1.22-0.77c1.27-0.89,2.82-1.97,4.1-3.27
				c0.36-0.37,0.67-0.74,0.92-1.11c0.15-0.26,0.28-0.52,0.42-0.79c0.17-0.33,0.48-0.49,0.72-0.41l0.06,0.02
				c0.21,0.1,0.27,0.39,0.14,0.63c-0.22,0.42-0.43,0.84-0.7,1.24c-0.22,0.35-0.49,0.68-0.72,0.95c-0.73,0.88-1.32,1.52-1.91,2.08
				c-0.6,0.56-1.25,1.12-1.98,1.72c-0.04,0.04-0.09,0.07-0.13,0.1c0.13,0.1,0.21,0.29,0.21,0.49c0.02,0.48-0.33,0.89-0.68,1.23
				c-0.22,0.22-0.48,0.4-0.73,0.56c0,0-0.13,0.09-0.13,0.09c-0.46,0.32-0.83,0.65-1.23,1l-0.13,0.11c-0.2,0.17-0.4,0.34-0.6,0.51
				c-0.34,0.29-0.68,0.58-1.02,0.88c-0.46,0.42-0.9,0.87-1.34,1.31l-0.22,0.22c-0.12,0.12-0.24,0.24-0.36,0.36l-0.18,0.18l-0.41,0.5
				c-0.23,0.27-0.45,0.54-0.68,0.81l-0.48,0.56c-0.3,0.35-0.59,0.69-0.88,1.05c-0.12,0.15-0.23,0.3-0.34,0.45
				c-0.71,1.16-1.36,2.45-1.99,3.95c-0.11,0.25-0.22,0.51-0.33,0.76c-0.19,0.44-0.39,0.88-0.56,1.32c-0.11,0.3-0.23,0.61-0.35,0.91
				c-0.14,0.35-0.27,0.7-0.4,1.05c-0.25,0.7-0.59,1.62-0.98,2.53l-0.08,0.19c-0.31,0.73-0.62,1.45-0.89,2.19
				c-0.17,0.5-0.33,1-0.49,1.5c-0.15,0.46-0.3,0.93-0.45,1.39c-0.16,0.46-0.31,0.93-0.45,1.39l-0.08,0.26
				c-0.17,0.52-0.35,1.04-0.54,1.56l0,0c-0.33,0.92-0.72,1.99-1.26,3.01c-0.15,0.29-0.29,0.55-0.43,0.81
				c-1.5-0.95-3.02-1.9-4.54-2.86c0.19-0.41,0.38-0.82,0.55-1.23C110.67,214.84,110.82,214.52,110.96,214.2z"/>
			<path class="st1" d="M146.58,187.55c-0.26,0.01-0.52,0.02-0.78,0.03c-0.01,0-0.03,0-0.04,0c-0.42,0.07-0.84,0.11-1.24,0.15
				c-0.52,0.05-1.04,0.09-1.56,0.14c-0.97,0.08-1.94,0.18-2.91,0.3c-0.48,0.06-0.97,0.11-1.44,0.14c-0.47,0.02-0.93,0.01-1.39,0
				c-0.91-0.01-1.81-0.06-2.69-0.17c-0.34-0.04-0.68-0.07-1.01-0.15c-0.08-0.02-0.16-0.04-0.23-0.06c-0.15-0.04-0.26-0.12-0.37-0.23
				c-0.11-0.11-0.17-0.36-0.12-0.55c0.04-0.15,0.09-0.29,0.19-0.43c0.12-0.16,0.26-0.27,0.4-0.42c0.13-0.13,0.25-0.27,0.37-0.41
				l-0.05,0.06l0.14-0.17c0.1-0.13,0.2-0.26,0.31-0.4c0.16-0.2,0.32-0.39,0.49-0.59c0.2-0.24,0.4-0.47,0.59-0.71
				c0.03-0.04,0.07-0.09,0.1-0.13c0.02-0.09,0.06-0.19,0.12-0.29c0.06-0.1,0.12-0.17,0.2-0.24c0.11-0.18,0.23-0.36,0.35-0.53
				c0.13-0.2,0.25-0.4,0.37-0.59c0.23-0.39,0.48-0.76,0.7-1.14c0.11-0.2,0.21-0.41,0.32-0.61c0.22-0.4,0.63-0.74,1.04-0.77
				c0.27-0.02,0.5,0.11,0.7,0.23c0.18,0.11,0.36,0.22,0.55,0.32c0.4,0.22,0.79,0.44,1.21,0.64c0.24,0.11,0.46,0.25,0.69,0.38
				c0.23,0.14,0.47,0.28,0.71,0.39c0.21,0.09,0.43,0.17,0.64,0.25c0.29,0.11,0.6,0.2,0.9,0.3c0.66,0.23,1.32,0.47,2.01,0.63
				c0.68,0.17,1.38,0.25,2.09,0.34c0.67,0.09,1.35,0.17,2.03,0.24c1.43,0.11,2.9,0.08,4.38,0.02c0.77-0.03,1.56-0.13,2.34-0.22
				c0.74-0.08,1.47-0.17,2.21-0.29c0.94-0.2,1.89-0.41,2.82-0.64c0.95-0.22,1.9-0.43,2.85-0.68c0.93-0.25,1.87-0.49,2.8-0.77
				c0.5-0.15,1.01-0.29,1.52-0.46c0.47-0.15,0.94-0.32,1.41-0.49c0.72-0.26,1.44-0.51,2.16-0.79c0.74-0.28,1.47-0.6,2.21-0.93
				c-0.03,0.02-0.07,0.03-0.1,0.05l0.13-0.06c-0.01,0-0.02,0.01-0.03,0.01c0.9-0.41,1.79-0.84,2.68-1.32
				c0.49-0.26,0.98-0.52,1.47-0.8c0.47-0.26,0.93-0.54,1.4-0.81c0.95-0.55,1.88-1.15,2.82-1.72c0.47-0.28,0.94-0.58,1.41-0.88
				c0.48-0.3,0.96-0.6,1.43-0.92c0.56-0.38,1.09-0.8,1.63-1.21c0,0,0,0,0,0c0.54-0.41,1.06-0.82,1.62-1.18
				c0.07-0.05,0.15-0.05,0.22-0.02c0.04,0.02,0.07,0.05,0.08,0.09c0.04,0.11-0.03,0.26-0.15,0.34c-0.3,0.19-0.59,0.39-0.88,0.61
				c0,0,0,0,0,0c0,0-0.01,0.01-0.01,0.01c0,0,0,0,0.01,0c-0.88,0.68-1.75,1.36-2.66,1.98c-0.2,0.14-0.4,0.27-0.61,0.41
				c0.09,0.09,0.11,0.28-0.04,0.4c-0.71,0.58-1.43,1.17-2.18,1.67c-0.83,0.57-1.68,1.08-2.54,1.59c-0.01,0.01-0.03,0.02-0.04,0.03
				c-0.03,0.13-0.12,0.24-0.24,0.32c-0.84,0.57-1.71,1.07-2.57,1.58c-0.08,0.05-0.17,0.1-0.25,0.15c-0.04,0.09-0.12,0.18-0.21,0.24
				c-0.18,0.12-0.37,0.21-0.56,0.31c-0.19,0.1-0.37,0.19-0.57,0.28c-0.33,0.16-0.66,0.32-0.99,0.48c-0.22,0.11-0.43,0.22-0.65,0.33
				c-0.42,0.21-0.85,0.39-1.27,0.58c-0.22,0.1-0.45,0.21-0.67,0.3c-0.1,0.05-0.2,0.09-0.3,0.13c-0.08,0.04-0.17,0.07-0.25,0.11
				c-0.06,0.03-0.13,0.02-0.19,0c-0.01,0-0.02-0.01-0.04-0.01c-0.6,0.25-1.2,0.48-1.8,0.72c-0.03,0.01-0.06,0.02-0.09,0.04
				c-0.59,0.25-1.18,0.48-1.77,0.73c-0.32,0.13-0.64,0.27-0.96,0.4c-0.26,0.11-0.53,0.22-0.79,0.32c-0.05,0.03-0.1,0.06-0.16,0.08
				c-0.52,0.17-1.04,0.27-1.56,0.39c-0.46,0.11-0.92,0.22-1.38,0.32c-0.33,0.07-0.65,0.14-0.98,0.21c-0.47,0.11-0.93,0.22-1.4,0.34
				c-0.08,0.13-0.21,0.24-0.35,0.28c-0.97,0.28-1.93,0.49-2.89,0.71c-0.53,0.12-1.06,0.22-1.59,0.33c-0.44,0.09-0.88,0.16-1.31,0.24
				l-0.17,0.03c-0.11,0.02-0.22,0.05-0.34,0.07c-0.55,0.12-1.09,0.2-1.64,0.3c-0.51,0.09-1.02,0.16-1.52,0.24
				c-0.92,0.14-1.85,0.27-2.76,0.35C147.57,187.48,147.07,187.52,146.58,187.55z M138.56,181.12c0.01-0.01,0.01-0.01,0.02-0.02
				C138.57,181.11,138.56,181.11,138.56,181.12z M138.31,181.6c0.02,0,0.05,0.01,0.07,0.01c-0.02-0.02-0.04-0.03-0.05-0.05
				C138.32,181.58,138.32,181.59,138.31,181.6z M138.33,181.56c0.02,0.02,0.03,0.03,0.05,0.05l0,0
				C138.37,181.59,138.35,181.58,138.33,181.56z M188.35,170.48c-0.01,0.01-0.02,0.02-0.04,0.03
				C188.32,170.5,188.33,170.49,188.35,170.48z"/>
			<path class="st2" d="M91.31,202.21c0-0.02,0-0.03,0-0.05c0-0.14,0.01-0.28,0.01-0.42c0,0.01,0,0.03,0,0.04c0-0.04,0-0.08,0-0.12
				c0-0.01,0-0.01,0-0.01l0,0c0,0,0,0,0-0.01c0,0,0,0,0,0c0,0,0,0,0,0l0,0c0,0,0,0,0-0.01c0-0.01,0-0.01,0-0.02
				c0-0.06,0-0.12,0-0.17c0,0.06,0,0.12,0,0.17c-0.01-0.14-0.01-0.29-0.01-0.43c0-0.23-0.01-0.47-0.01-0.7c-0.01,0-0.02,0-0.03,0
				c-0.33-0.07-0.55-0.32-0.6-0.68c-0.03-0.26-0.05-0.52-0.05-0.79c-0.01-0.27-0.01-0.55-0.01-0.82c-0.01-0.5-0.02-1-0.03-1.5
				c-0.01-0.54-0.04-1.08-0.05-1.62c-0.02-0.44-0.04-0.87-0.04-1.31c0-0.8,0-1.61,0.02-2.42c0-0.06-0.01-0.13-0.01-0.19
				c-0.05-1.03-0.09-2.05-0.08-3.09c0.01-1.02,0.08-2.06,0.18-3.1c0.05-0.54,0.09-1.08,0.14-1.61c0.04-0.51,0.11-1.03,0.18-1.55
				c0.08-0.6,0.14-1.19,0.24-1.79c0.06-0.33,0.12-0.65,0.18-0.97c0.11-0.59,0.29-1.17,0.51-1.75c0.11-0.31,0.27-0.62,0.49-0.88
				c0.05-0.43,0.08-0.85,0.12-1.27c0.02-0.23,0.23-0.45,0.43-0.53c0.03-0.01,0.07-0.02,0.1-0.02c0.05-0.3,0.11-0.6,0.18-0.89
				c0.09-0.37,0.16-0.74,0.27-1.11c0.07-0.24,0.15-0.48,0.22-0.72c0,0.02-0.01,0.04-0.01,0.06c0.36-1.33,0.95-2.64,1.41-3.95
				c0.1-0.28,0.42-0.46,0.65-0.42c0.04,0.01,0.07,0.02,0.1,0.03c0.18,0.09,0.24,0.32,0.15,0.56c-0.18,0.52-0.37,1.04-0.53,1.56
				c0-0.01,0-0.02,0.01-0.02c-0.01,0.02-0.01,0.04-0.02,0.06c0-0.01,0.01-0.03,0.01-0.04c-0.11,0.42-0.23,0.84-0.32,1.26
				c-0.1,0.41-0.16,0.83-0.22,1.24c-0.06,0.4-0.12,0.79-0.18,1.19c-0.06,0.43-0.1,0.86-0.14,1.29c-0.1,0.87-0.21,1.74-0.29,2.61
				c-0.08,0.87-0.11,1.72-0.15,2.58c-0.02,0.95-0.01,1.89,0.02,2.83c0.03,0.95,0.11,1.9,0.2,2.83c0.04,0.44,0.09,0.88,0.14,1.31
				c0.05,0.47,0.09,0.94,0.15,1.41c0.07,0.46,0.13,0.93,0.18,1.4c0.05,0.43,0.08,0.87,0.14,1.29c0.12,0.92,0.23,1.84,0.33,2.77
				c0.09,0.9,0.21,1.79,0.25,2.71c0.05,0.94,0.14,1.87,0.16,2.82c0.01,0.97-0.01,1.96-0.05,2.94c-0.02,0.57-0.09,1.14-0.17,1.71
				c-0.03,0.28-0.05,0.56-0.09,0.84c-0.04,0.27-0.09,0.54-0.14,0.81c-0.06,0.33-0.13,0.65-0.2,0.97c-1.3-0.92-2.58-1.86-3.84-2.82
				c0.02-0.35,0.04-0.71,0.07-1.06L91.31,202.21z"/>
			<path class="st8" d="M99.03,217.7c0.02,0.1-0.01,0.22-0.08,0.32c-0.07,0.11-0.16,0.17-0.27,0.23c-0.05,0.03-0.11,0.06-0.16,0.08
				c-0.19,0.1-0.36,0.21-0.54,0.35c-0.39,0.36-0.73,0.76-1.06,1.18c-0.38,0.49-0.75,0.99-1.1,1.5c-0.34,0.5-0.65,1.02-0.96,1.53
				c-0.31,0.51-0.62,1.01-0.94,1.51c-0.3,0.49-0.63,0.96-0.88,1.48c0-0.01,0.01-0.01,0.01-0.02c-0.08,0.15-0.16,0.31-0.24,0.46
				c-0.09,0.16-0.18,0.34-0.29,0.48c-0.06,0.09-0.13,0.16-0.21,0.22c-0.12,0.08-0.27,0.13-0.39,0.1l-0.01,0
				c-0.17-0.03-0.3-0.16-0.32-0.33c-0.04,0.01-0.09,0.03-0.14,0.04c-0.25,0.07-0.49-0.08-0.59-0.28c-0.15-0.3-0.01-0.71,0.13-1.06
				c0.05-0.13,0.11-0.26,0.16-0.39c-0.05-0.12-0.06-0.29,0-0.43c0.09-0.19,0.18-0.37,0.27-0.55c0.08-0.15,0.17-0.29,0.25-0.44
				c0.18-0.32,0.38-0.63,0.58-0.94c0.22-0.34,0.47-0.68,0.7-1.01c0.24-0.33,0.48-0.67,0.74-0.99c0.22-0.28,0.44-0.57,0.68-0.85
				c0.21-0.24,0.41-0.47,0.62-0.7c0.18-0.21,0.37-0.43,0.55-0.64c0.29-0.35,0.59-0.68,0.95-0.95c0.17-0.13,0.4-0.23,0.58-0.21
				c0.13,0.02,0.23,0.1,0.28,0.22c0.06-0.04,0.11-0.07,0.17-0.1c0.1-0.06,0.22-0.12,0.32-0.13c0.17-0.01,0.31,0.04,0.37,0.19
				c0.01,0.02,0.02,0.04,0.02,0.06c0.11-0.06,0.22-0.11,0.33-0.17c0.1-0.05,0.2-0.05,0.29-0.01
				C98.95,217.51,99.02,217.6,99.03,217.7 M97.6,217.5c-0.01,0.01-0.03,0.02-0.04,0.03C97.58,217.52,97.59,217.51,97.6,217.5
				 M96.98,219.79c-0.01,0.01-0.02,0.02-0.03,0.03C96.96,219.82,96.97,219.81,96.98,219.79 M96.47,219.85L96.47,219.85
				c-0.02,0.02-0.03,0.04-0.05,0.06C96.44,219.89,96.46,219.87,96.47,219.85 M93.12,225.73c-0.01,0.02-0.02,0.04-0.03,0.06
				C93.1,225.78,93.11,225.75,93.12,225.73 M91.1,225.7C91.1,225.7,91.1,225.7,91.1,225.7c-0.01,0.01-0.01,0.02-0.02,0.03
				C91.09,225.72,91.1,225.71,91.1,225.7"/>
		</g>
		<path class="st8" d="M72.88,201.32c0.14-0.09,0.29-0.18,0.43-0.26c0.35-0.21,0.7-0.4,1.06-0.58c0.39-0.2,0.78-0.4,1.18-0.58
			c0.42-0.19,0.83-0.36,1.25-0.53c0.45-0.19,0.92-0.37,1.37-0.5c0.24-0.07,0.49-0.1,0.73-0.12c0.19-0.02,0.38-0.03,0.56-0.02
			c0.27,0.01,0.58,0.04,0.61,0.31c0.01,0.11-0.04,0.22-0.12,0.31c0.17-0.01,0.34-0.03,0.51-0.05c0.1-0.01,0.18,0.01,0.23,0.06
			c0.05,0.05,0.07,0.11,0.05,0.2c-0.04,0.17-0.24,0.36-0.43,0.38c-0.32,0.03-0.64,0.06-0.95,0.11c-0.34,0.05-0.68,0.09-1.03,0.19
			c-0.34,0.1-0.66,0.21-1,0.37c-0.4,0.2-0.8,0.43-1.21,0.64c-0.23,0.12-0.45,0.23-0.68,0.35c-0.2,0.1-0.4,0.2-0.6,0.31
			c-0.39,0.23-0.76,0.48-1.14,0.71c-0.14,0.09-0.29,0.18-0.43,0.26c-0.23,0.13-0.49,0.26-0.71,0.23c-0.22-0.03-0.38-0.19-0.32-0.43
			c0.01-0.06,0.03-0.1,0.06-0.15c-0.11-0.06-0.18-0.16-0.18-0.29c-0.01-0.09,0.01-0.19,0.07-0.3c0.07-0.14,0.22-0.33,0.39-0.41
			C72.68,201.46,72.78,201.38,72.88,201.32z"/>
		<path class="st8" d="M77.16,200.84c-0.02,0.01-0.03,0.02-0.05,0.03c0.01,0,0.02-0.01,0.03-0.01S77.15,200.84,77.16,200.84z"/>
		<path class="st8" d="M73.09,202.33c0.21-0.12,0.41-0.27,0.63-0.4c0.29-0.18,0.58-0.34,0.88-0.5c0.27-0.14,0.55-0.27,0.83-0.41
			c0.28-0.14,0.56-0.27,0.85-0.41c0.26-0.12,0.52-0.24,0.78-0.35c0.29-0.12,0.58-0.21,0.87-0.3c0.59-0.17,1.19-0.29,1.78-0.44
			c-0.02,0-0.04,0.01-0.06,0.02c0.3-0.08,0.59-0.15,0.89-0.22c0.07-0.02,0.13,0,0.17,0.04c0.04,0.04,0.06,0.1,0.05,0.17
			c-0.04,0.14-0.18,0.26-0.34,0.29c-0.21,0.05-0.43,0.1-0.64,0.15c-0.19,0.05-0.37,0.1-0.56,0.15c0.02-0.01,0.05-0.01,0.08-0.02
			c-0.14,0.04-0.28,0.08-0.42,0.11c0.01,0,0.01,0,0.02,0c-0.31,0.08-0.62,0.18-0.94,0.28c-0.27,0.09-0.53,0.2-0.8,0.33
			c0.01,0,0.02-0.01,0.03-0.01c-0.02,0.01-0.03,0.02-0.05,0.03c-0.01,0.01-0.03,0.01-0.04,0.02c0.01,0,0.01,0,0.02-0.01
			c-0.31,0.15-0.61,0.31-0.91,0.48c-0.36,0.2-0.72,0.38-1.08,0.57c-0.35,0.19-0.69,0.39-1.03,0.6c-0.15,0.09-0.3,0.19-0.46,0.29
			c-0.2,0.13-0.42,0.24-0.63,0.26c-0.19,0.02-0.34-0.05-0.35-0.22c-0.01-0.19,0.18-0.44,0.41-0.52
			C73.07,202.33,73.08,202.33,73.09,202.33z M73.16,202.3c-0.02,0.01-0.03,0.02-0.05,0.02C73.12,202.31,73.14,202.31,73.16,202.3z"
			/>
		<path class="st8" d="M72.16,197.9C72.16,197.89,72.16,197.89,72.16,197.9c-0.01,0.01-0.02,0.02-0.04,0.03L72.16,197.9z"/>
		<path class="st8" d="M73.59,195.84c0.36-0.24,0.73-0.47,1.11-0.66c0.42-0.22,0.85-0.39,1.28-0.52c0.21-0.06,0.42-0.12,0.63-0.17
			c0.27-0.07,0.52-0.11,0.78-0.12c0.21-0.02,0.41-0.02,0.61-0.01c0.2,0.01,0.42,0,0.61,0.03c0.09,0.02,0.18,0.04,0.24,0.09
			c0,0,0.01,0.01,0.01,0.01c0.08,0.09,0.09,0.25-0.03,0.39c-0.05,0.05-0.09,0.09-0.14,0.13c0.15-0.03,0.3-0.05,0.46-0.07
			c0.22-0.03,0.36,0.1,0.32,0.29c-0.04,0.2-0.27,0.39-0.48,0.42c-0.3,0.05-0.6,0.1-0.91,0.18c-0.75,0.22-1.51,0.49-2.25,0.83
			c-0.36,0.18-0.72,0.36-1.08,0.57c-0.35,0.2-0.69,0.43-1.03,0.64c-0.33,0.21-0.66,0.43-0.99,0.64c-0.09,0.06-0.18,0.11-0.28,0.16
			c-0.18,0.09-0.38,0.2-0.55,0.17c-0.16-0.02-0.28-0.11-0.29-0.26c-0.01-0.15,0.08-0.32,0.23-0.46c0.2-0.18,0.43-0.35,0.65-0.52
			c-0.08-0.01-0.15-0.05-0.2-0.09c-0.2-0.19-0.1-0.54,0.18-0.8c0.17-0.16,0.33-0.3,0.52-0.45C73.2,196.11,73.4,195.97,73.59,195.84z
			 M78.33,195.06L78.33,195.06L78.33,195.06z M75.83,196.66c-0.03,0.01-0.06,0.03-0.09,0.04C75.77,196.69,75.8,196.68,75.83,196.66z
			 M72.5,198.55c0.01-0.01,0.02-0.02,0.04-0.04C72.52,198.52,72.51,198.54,72.5,198.55z M72.16,197.9l-0.04,0.03
			C72.14,197.91,72.15,197.9,72.16,197.9C72.16,197.89,72.16,197.89,72.16,197.9z"/>
		<path class="st8" d="M76.41,196.25c-0.01,0-0.02,0.01-0.02,0.01c-0.02,0.01-0.03,0.01-0.05,0.02
			C76.37,196.27,76.39,196.26,76.41,196.25z"/>
		<path class="st8" d="M72.01,198.35c0.23-0.17,0.46-0.35,0.7-0.51c0.31-0.21,0.63-0.42,0.95-0.62c0.32-0.2,0.64-0.38,0.96-0.55
			c0.31-0.16,0.61-0.31,0.92-0.45c-0.02,0.01-0.05,0.02-0.07,0.03c0.49-0.24,0.98-0.47,1.47-0.64c0.3-0.1,0.59-0.2,0.89-0.28
			c0.31-0.09,0.61-0.16,0.91-0.23c0.06-0.01,0.11,0,0.15,0.03c0.04,0.03,0.05,0.08,0.04,0.14c-0.03,0.12-0.15,0.21-0.28,0.24
			c-0.18,0.04-0.36,0.08-0.54,0.13c0.01,0,0.02,0,0.02-0.01c-0.01,0-0.03,0.01-0.05,0.01c0,0,0,0,0.01,0c0,0-0.01,0-0.01,0
			c-0.28,0.08-0.56,0.16-0.84,0.26c-0.29,0.1-0.58,0.22-0.87,0.36c0.01,0,0.02-0.01,0.02-0.01c-0.02,0.01-0.04,0.02-0.07,0.03
			c0.02-0.01,0.03-0.01,0.05-0.02c-0.59,0.29-1.18,0.59-1.76,0.92c-0.32,0.18-0.63,0.38-0.94,0.58c-0.16,0.11-0.33,0.22-0.49,0.33
			c-0.15,0.11-0.31,0.21-0.46,0.32c-0.08,0.06-0.15,0.12-0.23,0.18c-0.12,0.09-0.25,0.19-0.39,0.26c-0.09,0.04-0.16,0.07-0.24,0.06
			c-0.08-0.01-0.14-0.04-0.17-0.1c-0.05-0.12,0.04-0.31,0.21-0.4C71.95,198.39,71.98,198.37,72.01,198.35z"/>
		<g>
			<path class="st9" d="M58.5,100.15c0,0-11.19,16.69-13.71,30.4l-0.01,0.02c-0.8,4.25-0.73,8.19,0.75,11.28
				c4.85,10.12,29.98,16.27,41,18.5c3.19,0.65,5.19,0.98,5.19,0.98l1.73-4.36C30,144.45,54.93,126.43,68.48,96.37l-0.02-0.02
				C65.1,97.55,61.75,98.81,58.5,100.15z"/>
			<path class="st10" d="M68.48,96.37c-13.55,30.06-38.48,48.08,24.98,60.6l13.3-33.4c0,0,1.05-8.05,4.16-17.3
				c3.12-9.26,8.33-19.71,16.58-24.36c-14.43,2.33-37.56,6.87-59.04,14.43L68.48,96.37z"/>
			<g>
				<path class="st11" d="M91.82,161.16c-9.88-1.78-19.65-4.2-28.65-7.63c-4.46-1.73-8.75-3.76-12.2-6.31
					c-1.72-1.27-3.19-2.69-4.2-4.22c-1.02-1.53-1.49-3.18-1.73-4.82c-0.48-3.31-0.02-6.62,0.74-9.87c0.78-3.25,1.91-6.45,3.21-9.61
					c2.65-6.31,5.96-12.48,9.79-18.47l-0.51-0.17c-5.69,5.43-10.04,11.39-13.46,17.68c-3.31,6.32-6.01,12.91-5.26,20.52
					c0.31,1.91,0.93,3.95,2.32,5.97c1.37,1.98,3.22,3.72,5.33,5.18c4.28,2.88,9.04,4.99,13.99,6.58c9.86,3.21,20.16,4.99,30.51,5.52
					L91.82,161.16z"/>
			</g>
			<path class="st12" d="M106.52,123.53c-3.14,2.73-5.38,5.66-7.3,8.66c-1.05,1.48-1.75,3.04-2.63,4.55
				c-0.76,1.55-1.42,3.11-2.12,4.67c-0.54,1.59-1.15,3.17-1.63,4.77c-0.38,1.63-0.91,3.22-1.12,4.88
				c-0.58,3.29-0.85,6.65-0.23,10.21l0.53,0.12l7.78-18.82l7.25-18.94L106.52,123.53z"/>
			<path class="st13" d="M91.79,161.25c-4.86-1.19-9.68-2.4-14.34-3.87c-4.7-1.38-9.29-2.91-13.59-4.71
				c-4.24-1.84-8.42-3.76-11.6-6.19c-1.59-1.2-2.91-2.51-3.79-3.89c-0.88-1.36-1.3-2.88-1.5-4.43c-0.94-6.31,1.33-12.81,3.5-19.11
				c1.12-3.18,2.45-6.32,3.88-9.44c1.3-3.16,2.86-6.26,4.33-9.4l-0.25-0.08c-3.91,5.98-7.28,12.14-10.01,18.46
				c-1.34,3.16-2.51,6.37-3.33,9.63c-0.8,3.27-1.31,6.61-0.85,9.99c0.25,1.68,0.76,3.39,1.84,4.99c1.07,1.6,2.61,3.05,4.38,4.35
				c3.56,2.6,7.93,4.62,12.44,6.35c9.11,3.41,18.91,5.8,28.86,7.54L91.79,161.25z"/>
		</g>
		<path class="st4" d="M153.18,137.24c-0.22-0.35-0.45-0.7-0.68-1.05c-0.15-0.22-0.3-0.45-0.44-0.67c-0.34-0.53-0.69-1.04-1.04-1.56
			c-0.69-1.01-1.48-2.07-2.43-3.25c-0.16-0.2-0.34-0.4-0.52-0.59l-0.13-0.14c-0.2-0.22-0.41-0.43-0.62-0.64l-0.12-0.12
			c-0.4-0.41-0.81-0.82-1.22-1.22l-0.25-0.24c-0.26-0.25-0.52-0.51-0.78-0.76c-0.26-0.25-0.53-0.5-0.78-0.76l-0.53-0.52
			c-0.31-0.3-0.61-0.6-0.91-0.91c-0.8-0.81-1.61-1.72-2.57-2.85l-0.23-0.27c-0.32-0.39-0.64-0.78-0.98-1.15
			c-0.5-0.55-0.89-1.01-1.22-1.43c-0.37-0.48-0.74-1.01-1.18-1.68l-0.2-0.3c-0.26-0.39-0.52-0.77-0.76-1.17
			c-0.3-0.51-0.56-1.04-0.8-1.62c0.03-0.03,0.06-0.08,0.1-0.18c0.07-0.16,0.14-0.33,0.13-0.48c-0.01-0.12-0.02-0.24-0.04-0.36
			c-0.02-0.12-0.04-0.23-0.05-0.35c-0.02-0.4,0-0.8,0.02-1.17c0.01-0.24,0.05-0.48,0.08-0.72c0.02-0.14,0.04-0.28,0.06-0.42
			l0.03-0.3c0.02-0.29,0.05-0.6,0.12-0.9c0.09-0.39,0.18-0.77,0.29-1.15c0.14-0.49,0.29-0.9,0.45-1.28
			c0.19-0.43,0.43-0.91,0.75-1.48l0.32-0.58c0.16-0.29,0.32-0.59,0.48-0.88c0.23-0.41,0.48-0.81,0.74-1.21l0.14-0.22l0.15-0.22
			c0.52-0.78,0.97-1.42,1.42-2l0.22-0.29c-13.39-5.65-26.89-11.16-40.7-16.21l-0.16,0.18c-0.27,0.3-0.56,0.6-0.86,0.89
			c-0.14,0.14-0.29,0.28-0.44,0.41c-0.13,0.12-0.26,0.24-0.38,0.36l-0.19,0.18c-0.24,0.23-0.48,0.47-0.73,0.69l-0.37,0.33
			c-0.19,0.17-0.37,0.33-0.55,0.5c-0.59,0.51-1.18,1.02-1.78,1.52l-0.4,0.32c-0.2,0.17-0.4,0.33-0.59,0.49
			c-0.29,0.25-0.59,0.49-0.9,0.74l-0.35,0.27c-0.23,0.18-0.46,0.37-0.7,0.55c-0.17,0.14-0.35,0.27-0.52,0.41
			c-0.17,0.13-0.35,0.27-0.52,0.41c-0.33,0.26-0.66,0.52-1,0.77c-0.34,0.26-0.67,0.51-1,0.78l-0.3,0.23
			c-0.59,0.46-1.17,0.92-1.75,1.39l0.1-0.1c-0.55,0.41-1.11,0.81-1.68,1.21c-0.58,0.41-1.15,0.84-1.71,1.27l0.09-0.09l-0.2,0.15
			l-0.19,0.16l0.09-0.09c-0.17,0.13-0.35,0.26-0.51,0.4l0.09-0.09c-0.51,0.38-1.04,0.74-1.58,1.11l-0.64,0.44
			c-0.61,0.43-1.35,0.92-2.14,1.32c-0.13,0.06-0.26,0.12-0.38,0.17l-0.21,0.1c-0.09,0.04-0.16,0.09-0.21,0.15
			c-0.09,0.03-0.18,0.06-0.25,0.11c-0.19,0.1-0.32,0.26-0.37,0.44c-0.01,0.03-0.01,0.06-0.01,0.09c0.02,0.01,0.05,0.02,0.07,0.03
			l0.07,0.05l0-0.01c0.25,0.04,0.51,0.08,0.73,0.17c0.15,0.06,0.29,0.13,0.43,0.2c0.31,0.16,0.55,0.31,0.77,0.46l0.07,0.05
			l0.09,0.07l0.22,0.16l0.14,0.1l0.19,0.11c0.16,0.09,0.32,0.18,0.47,0.28c0.04,0.03,0.09,0.06,0.12,0.09
			c0.19,0.15,0.38,0.32,0.55,0.48l0.22,0.19c0.25,0.22,0.49,0.45,0.72,0.68c0.23,0.23,0.45,0.45,0.64,0.69
			c0.37,0.46,0.68,0.97,0.99,1.62c0.28,0.56,0.56,1.17,0.73,1.8l0.06,0.19c0.06,0.21,0.12,0.43,0.18,0.64
			c0.08,0.28,0.13,0.57,0.17,0.86c0.08,0.5,0.14,1,0.18,1.5c0.06,0.74,0.08,1.39,0.05,2.01c-0.02,0.54-0.09,1.12-0.22,1.76
			c-0.05,0.25-0.1,0.49-0.17,0.74c-0.06,0.23-0.12,0.45-0.19,0.68l-0.07,0.23c-0.17,0.58-0.42,1.18-0.81,1.97l-0.17,0.35
			c-0.27,0.55-0.54,1.1-0.84,1.64c-0.24,0.43-0.54,0.86-0.83,1.27l-0.26,0.38c-0.26,0.37-0.53,0.75-0.81,1.11
			c-0.14,0.19-0.29,0.38-0.44,0.57l-0.28,0.36l-0.26,0.41l-0.19,0.3c-0.12,0.18-0.24,0.37-0.35,0.56l-0.57,0.94
			c-0.27,0.43-0.57,0.85-0.87,1.28l-0.33,0.47c-0.19,0.27-0.39,0.53-0.59,0.79c-0.25,0.32-0.5,0.64-0.72,0.97
			c-0.03,0.04-0.05,0.08-0.08,0.12c-0.03,0.05-0.06,0.1-0.09,0.15l-0.26,0.43c-0.19,0.33-0.37,0.66-0.55,1
			c-0.1,0.2-0.2,0.4-0.29,0.6c-0.07,0.14-0.13,0.28-0.21,0.42c-0.16,0.33-0.32,0.65-0.47,0.98c-0.23,0.48-0.43,0.97-0.63,1.45
			c-0.16,0.37-0.31,0.75-0.45,1.13c-0.07,0.26-0.13,0.51-0.19,0.77l-0.07,0.31c-0.01,0.07-0.02,0.14-0.02,0.21
			c-0.01,0.18-0.01,0.33-0.12,0.48c-0.17,0.28-0.49,0.44-0.83,0.45c-0.13,0-0.24-0.02-0.34-0.05c-0.31,0.2-0.63,0.39-0.95,0.59
			l-0.57,0.35c-0.38,0.23-0.74,0.47-1.11,0.71c4.14,9.2,7.04,18.5,9.84,28.41c0.24-0.14,0.48-0.29,0.71-0.44l0.21-0.13l0.57-0.36
			l0.56-0.36c0.6-0.39,1.23-0.79,1.81-1.22c0.11,0.12,0.22,0.24,0.34,0.36c0.14,0,0.28,0.04,0.38,0.11l0.02,0.02
			c0.09,0.06,0.17,0.13,0.25,0.2l0.1,0.09c0.16,0.14,0.31,0.28,0.46,0.43l0.31,0.32c0.19,0.2,0.38,0.4,0.56,0.6l0.42,0.47
			c0.35,0.38,0.7,0.76,1.07,1.14c0.05,0.05,0.11,0.1,0.16,0.15c0.15,0.13,0.29,0.25,0.43,0.38c0.21,0.2,0.42,0.4,0.63,0.6l0.13,0.13
			c0.26,0.25,0.53,0.5,0.82,0.75c0.01,0.01,0.02,0.02,0.03,0.02c0.17,0.14,0.34,0.26,0.52,0.39l0.35,0.23l0.3,0.21l0.3,0.21
			l0.66,0.49c0.36,0.27,0.73,0.54,1.1,0.8l0.13,0.09l0.12,0.09c0.21,0.15,0.42,0.29,0.65,0.43c0.07,0.05,0.14,0.09,0.21,0.14
			c0.16,0.11,0.3,0.22,0.45,0.33l0.19,0.14l0.26,0.19c0.18,0.13,0.36,0.26,0.53,0.39l0.21,0.16c0.05,0.04,0.11,0.08,0.16,0.11
			c21.41-12,41.5-24.53,60.16-38.61C153.8,138.32,153.51,137.78,153.18,137.24z"/>
		<path class="st6" d="M113.63,177.14l-0.22-0.46c-0.19-0.38-0.39-0.76-0.59-1.14l-0.3-0.57l-0.21-0.42
			c-0.16-0.33-0.32-0.65-0.5-0.97c-0.08-0.14-0.16-0.28-0.25-0.42c-0.28-0.43-0.53-0.87-0.77-1.31l-0.15-0.26l-0.14-0.26
			c-0.43-0.78-0.83-1.58-1.22-2.37l-0.72-1.43l-0.34-0.63l-0.36-0.63l-0.41-0.71c-0.31-0.56-0.6-1.14-0.81-1.73
			c-0.12-0.33-0.23-0.66-0.34-0.99c-0.11-0.32-0.21-0.65-0.33-0.97c-0.22-0.6-0.41-1.19-0.59-1.8c-0.39-1.38-0.67-2.81-0.94-4.19
			l-0.24-1.21c-0.11-0.53-0.23-1.05-0.35-1.57l-0.19-0.85c-0.1-0.4-0.21-0.79-0.35-1.17l-0.1-0.25c-0.07-0.19-0.14-0.39-0.25-0.57
			l-0.03-0.05c-0.18-0.31-0.61-0.53-1.14-0.6c-0.32-0.23-0.87-0.3-1.45-0.19l-0.94,0.17c-0.62,0.11-1.23,0.23-1.87,0.34
			c-0.49,0.07-0.98,0.13-1.47,0.19l-0.59,0.07c-0.55,0.07-1.09,0.15-1.63,0.22l-0.81,0.12l-1.09,0.16
			c-0.48,0.07-0.96,0.14-1.44,0.21l-0.8,0.14l-0.79,0.14c-0.52,0.08-1.06,0.13-1.59,0.17c-0.71,0.07-1.41,0.16-2.11,0.28
			c-0.63,0.1-1.26,0.22-1.88,0.34c-0.53,0.1-1.07,0.21-1.61,0.3c-1.04,0.15-2.08,0.28-3.12,0.38c-0.41,0.04-0.81,0.07-1.21,0.1
			c-0.5,0.04-1,0.08-1.49,0.13c-0.68,0.07-1.35,0.13-2.02,0.19l-0.4,0.04c-0.59,0.05-1.2,0.07-1.8,0.07l-0.39,0
			c-0.88,0-1.8-0.01-2.7,0.06c-0.66,0.06-1.32,0.15-1.97,0.26c-0.17,0.02-0.34,0.06-0.5,0.09l-0.24,0.05
			c-0.17,0.02-0.34,0.03-0.51,0.03l0,0.01l-0.36-0.03c-0.71-0.04-1.23,0.03-1.89,0.13c-0.5,0.08-0.95,0.37-1.17,0.61
			c-0.25,0.28-0.31,0.61-0.14,0.91c0.15,0.27,0.49,0.49,0.93,0.6c0.15,0.03,0.29,0.06,0.4,0.06c0.07,0.37,0.13,0.75,0.18,1.12
			c0.12,0.72,0.26,1.44,0.49,2.22c0.16,0.47,0.34,0.93,0.54,1.39c0.19,0.42,0.36,0.84,0.5,1.27c0.15,0.51,0.31,1.02,0.56,1.5
			c0.15,0.3,0.32,0.6,0.48,0.89c0.16,0.29,0.33,0.59,0.48,0.89c0.13,0.26,0.27,0.52,0.41,0.78c0.19,0.35,0.4,0.68,0.63,1.02
			l0.41,0.58c0.27,0.38,0.55,0.76,0.79,1.14l0.52,0.78c0.42,0.64,0.85,1.28,1.21,1.93c0.15,0.27,0.29,0.54,0.41,0.82
			c0.41,0.92,0.85,1.82,1.35,2.72c0.16,0.29,0.33,0.59,0.51,0.88c0.18,0.29,0.35,0.59,0.51,0.89c0.17,0.3,0.34,0.59,0.52,0.89
			c0.35,0.6,0.7,1.2,1.03,1.79c0.18,0.32,0.36,0.64,0.55,0.95c0.19,0.32,0.37,0.63,0.55,0.95c0.09,0.16,0.18,0.33,0.27,0.49
			c12.67-1.4,25.26-2.86,37.77-4.39C113.75,177.37,113.69,177.26,113.63,177.14z"/>
		<path class="st6" d="M106.21,168.81l-0.14-0.48c-0.13-0.4-0.26-0.81-0.39-1.21l-0.2-0.6l-0.14-0.45c-0.1-0.34-0.21-0.69-0.33-1.03
			c-0.05-0.15-0.11-0.3-0.17-0.45c-0.2-0.46-0.37-0.93-0.53-1.4l-0.1-0.28l-0.1-0.28c-0.29-0.83-0.55-1.67-0.8-2.5l-0.47-1.51
			l-0.23-0.67l-0.25-0.67l-0.28-0.76c-0.21-0.6-0.4-1.21-0.52-1.82c-0.07-0.34-0.12-0.68-0.17-1.02c-0.05-0.33-0.11-0.67-0.17-1
			c-0.12-0.62-0.21-1.24-0.29-1.85c-0.17-1.42-0.22-2.86-0.28-4.26l-0.05-1.22c-0.03-0.54-0.06-1.07-0.1-1.6l-0.06-0.87
			c-0.03-0.41-0.08-0.8-0.16-1.21l-0.06-0.26c-0.04-0.2-0.08-0.4-0.15-0.6l-0.02-0.05c-0.13-0.33-0.5-0.61-0.99-0.75
			c-0.27-0.27-0.78-0.41-1.34-0.38l-0.91,0.04c-0.6,0.03-1.2,0.05-1.81,0.07c-0.47,0-0.94-0.01-1.42-0.02l-0.56-0.01
			c-0.53-0.01-1.05-0.01-1.57-0.01l-0.78,0l-1.06,0c-0.47,0-0.93,0-1.39,0.01l-0.77,0.02l-0.77,0.03c-0.51,0-1.02-0.02-1.53-0.05
			c-0.68-0.03-1.35-0.04-2.03-0.02c-0.61,0.01-1.22,0.04-1.82,0.08c-0.52,0.03-1.04,0.06-1.56,0.07c-1,0.01-2-0.01-3-0.06
			c-0.39-0.02-0.77-0.04-1.15-0.07c-0.48-0.03-0.95-0.06-1.42-0.08c-0.65-0.03-1.29-0.06-1.93-0.09l-0.38-0.02
			c-0.56-0.03-1.15-0.1-1.71-0.18l-0.37-0.06c-0.83-0.13-1.69-0.26-2.56-0.31c-0.63-0.04-1.27-0.04-1.9-0.02
			c-0.16,0-0.33,0.01-0.49,0.02l-0.24,0.01c-0.17-0.01-0.33-0.02-0.49-0.04l0,0.01l-0.33-0.08c-0.66-0.14-1.16-0.14-1.8-0.13
			c-0.48,0.01-0.95,0.23-1.19,0.44c-0.28,0.24-0.38,0.56-0.27,0.87c0.1,0.29,0.39,0.55,0.79,0.72c0.13,0.05,0.26,0.1,0.37,0.12
			c0.02,0.38,0.01,0.75,0.01,1.13c0.01,0.73,0.04,1.46,0.14,2.26c0.08,0.48,0.19,0.97,0.31,1.44c0.12,0.44,0.22,0.88,0.29,1.32
			c0.07,0.53,0.14,1.05,0.31,1.56c0.1,0.32,0.21,0.63,0.32,0.95c0.11,0.31,0.22,0.63,0.32,0.94c0.09,0.28,0.18,0.55,0.28,0.83
			c0.13,0.37,0.27,0.73,0.44,1.09l0.3,0.63c0.2,0.41,0.41,0.82,0.58,1.24l0.37,0.85c0.31,0.69,0.61,1.38,0.86,2.07
			c0.1,0.29,0.19,0.57,0.27,0.86c0.25,0.96,0.54,1.92,0.88,2.87c0.11,0.31,0.23,0.62,0.35,0.94c0.13,0.31,0.24,0.63,0.36,0.95
			c0.11,0.32,0.23,0.63,0.36,0.95c0.25,0.64,0.48,1.28,0.71,1.91c0.12,0.34,0.25,0.68,0.38,1.02c0.13,0.34,0.26,0.68,0.38,1.02
			c0.06,0.17,0.12,0.35,0.18,0.52c12.15,0.39,24.23,0.71,36.25,0.94C106.29,169.05,106.25,168.93,106.21,168.81z"/>
		<path class="st6" d="M79.58,103.76c0.04,0.03,0.09,0.06,0.13,0.09c0.19,0.15,0.38,0.32,0.56,0.48l0.22,0.2
			c0.25,0.22,0.48,0.45,0.72,0.68c0.23,0.23,0.45,0.45,0.64,0.68c0.36,0.46,0.68,0.98,0.99,1.62c0.27,0.56,0.56,1.17,0.73,1.8
			l0.05,0.19c0.06,0.21,0.12,0.42,0.18,0.63c0.08,0.28,0.13,0.57,0.17,0.85c0.08,0.5,0.14,1,0.18,1.5c0.06,0.74,0.08,1.39,0.05,2.01
			c-0.02,0.54-0.09,1.12-0.22,1.77c-0.05,0.25-0.1,0.49-0.16,0.74c-0.06,0.23-0.12,0.45-0.19,0.68l-0.07,0.23
			c-0.17,0.58-0.42,1.19-0.81,1.98l-0.17,0.35c-0.27,0.55-0.54,1.1-0.84,1.64c-0.24,0.43-0.54,0.86-0.83,1.27l-0.26,0.38
			c-0.26,0.37-0.53,0.75-0.81,1.11c-0.14,0.19-0.29,0.38-0.44,0.57l-0.36,0.46c-0.2,0.26-0.4,0.51-0.61,0.77
			c-0.25,0.32-0.51,0.63-0.75,0.95c-0.37,0.52-0.7,1.05-1.04,1.59l-0.13,0.21l-0.33,0.52c-0.29,0.45-0.57,0.89-0.83,1.34
			c-0.09,0.17-0.19,0.33-0.29,0.5c-0.09,0.14-0.17,0.29-0.26,0.43c-0.19,0.33-0.37,0.67-0.55,1c-0.1,0.2-0.2,0.4-0.29,0.59
			c-0.07,0.14-0.13,0.28-0.2,0.42c-0.16,0.33-0.32,0.65-0.47,0.98c-0.23,0.48-0.43,0.97-0.63,1.45c-0.19,0.45-0.37,0.91-0.54,1.37
			c-0.08,0.25-0.13,0.49-0.16,0.72c-0.01,0.11-0.03,0.23-0.03,0.34c-0.01,0.17-0.01,0.33-0.12,0.49c-0.17,0.28-0.48,0.44-0.83,0.45
			c-0.12,0-0.24-0.01-0.34-0.05c-0.31,0.2-0.63,0.39-0.95,0.58l-0.58,0.35c-0.5,0.3-0.98,0.62-1.46,0.94
			c-0.28,0.19-0.57,0.37-0.86,0.55c-0.31,0.19-0.6,0.38-0.9,0.58l-0.16,0.11c-0.67,0.45-1.33,0.89-1.95,1.35l-0.19,0.14
			c0,0-0.08,0.06-0.08,0.06c0,0,0,0-0.01,0l-0.24,0.22c-0.14,0.12-0.27,0.24-0.42,0.35c-0.21,0.17-0.43,0.34-0.66,0.5
			c-0.43,0.33-0.87,0.65-1.28,0.99l-0.09,0.06l-0.01,0c-0.14,0.14-0.32,0.3-0.5,0.44c-0.14,0.12-0.28,0.24-0.43,0.36
			c-0.3,0.25-0.59,0.52-0.88,0.78c-0.31,0.28-0.61,0.55-0.93,0.82l-0.19,0.17l-0.39,0.33l0.11-0.11l-0.43,0.39
			c-0.22,0.19-0.44,0.37-0.66,0.56l-0.3,0.24c-0.2,0.17-0.41,0.33-0.61,0.5l-0.13,0.11l-0.12,0.1c-0.15,0.12-0.32,0.26-0.49,0.4
			l-0.18,0.14c-0.49,0.42-1.01,0.89-1.57,1.43l-0.81,0.77l-0.81,0.77c-0.1,0.09-0.2,0.19-0.3,0.28c-0.26,0.24-0.53,0.48-0.74,0.74
			c-0.15,0.19-0.34,0.31-0.57,0.36c-0.3,0.06-0.51-0.02-0.63-0.11c-0.08-0.05-0.14-0.12-0.19-0.2c-0.03-0.05-0.06-0.11-0.08-0.17
			l-0.03-0.06c-0.03-0.07-0.06-0.13-0.09-0.2l-0.06-0.13c-0.04-0.09-0.07-0.18-0.11-0.27c-0.08-0.2-0.15-0.36-0.24-0.52
			c-0.05-0.09-0.11-0.18-0.17-0.26l-0.11-0.16c-0.18-0.28-0.29-0.59-0.39-0.89c-0.04-0.11-0.08-0.23-0.12-0.34
			c-0.09-0.21-0.19-0.45-0.25-0.72l-0.12-0.52l-0.08-0.33l-0.05-0.23c-0.02-0.11-0.05-0.23-0.08-0.34L47,150.47
			c-0.06-0.19-0.11-0.38-0.14-0.58c-0.05-0.3-0.11-0.61-0.2-0.91c-0.08-0.28-0.17-0.56-0.21-0.85l-0.05-0.34
			c-0.03-0.2-0.06-0.4-0.09-0.6l-0.08-0.44c-0.03-0.18-0.07-0.36-0.09-0.54c-0.17-1.1-0.17-2.34-0.03-3.89
			c0.03-0.29,0.05-0.58,0.07-0.87c0.02-0.34,0.05-0.68,0.08-1.01c0.05-0.54,0.12-1.07,0.18-1.61l0.03-0.26
			c0.04-0.36,0.13-0.72,0.22-1.07c0.06-0.27,0.13-0.54,0.18-0.8c0.05-0.29,0.1-0.6,0.21-0.91c0.09-0.28,0.2-0.55,0.31-0.83l0.1-0.26
			c0.07-0.19,0.15-0.38,0.22-0.57l0.14-0.38c0.1-0.25,0.21-0.5,0.33-0.76l0.1-0.22c0.09-0.21,0.17-0.42,0.25-0.63l0.15-0.39
			l0.14-0.34c0.09-0.23,0.18-0.45,0.27-0.67c0.13-0.33,0.29-0.65,0.45-0.97c0.09-0.18,0.18-0.36,0.27-0.55
			c0.13-0.28,0.26-0.56,0.41-0.83c0.12-0.22,0.25-0.44,0.4-0.66l0.14-0.29l0.14-0.29c0.22-0.47,0.47-0.93,0.72-1.4l0.26-0.49
			c0.36-0.67,0.68-1.28,1.06-1.88l0.09-0.14c0.16-0.25,0.31-0.49,0.48-0.73c0.22-0.32,0.45-0.64,0.68-0.95l-0.1,0.16
			c0.4-0.58,0.88-1.19,1.53-1.98c0.3-0.36,0.59-0.72,0.88-1.08l0.56-0.69c0.45-0.56,0.94-1.1,1.44-1.66c0.43-0.47,0.99-1.09,1.6-1.7
			c0.45-0.45,0.93-0.88,1.4-1.32l0.29-0.26c0.41-0.37,0.81-0.75,1.21-1.13l0.48-0.45c0.21-0.2,0.43-0.39,0.66-0.58l0.25-0.22
			c0.28-0.25,0.58-0.49,0.89-0.73c0.27-0.2,0.53-0.4,0.8-0.61l0.1-0.08c0.24-0.19,0.48-0.37,0.73-0.55l0.19-0.13
			c0.24-0.17,0.48-0.34,0.72-0.52c0.34-0.25,0.68-0.5,1.01-0.76l0.97-0.74l0.97-0.74l0.36-0.28c0.52-0.4,1.04-0.8,1.58-1.18
			l0.21-0.15c0.26-0.18,0.51-0.37,0.77-0.54c0.22-0.15,0.45-0.29,0.68-0.43c0.15-0.09,0.3-0.19,0.45-0.28
			c0.22-0.14,0.43-0.28,0.62-0.44c0.1-0.08,0.2-0.17,0.29-0.25c0.17-0.15,0.45-0.25,0.69-0.14l0.07,0.05l0-0.01
			c0.26,0.04,0.5,0.09,0.73,0.17c0.15,0.06,0.29,0.13,0.43,0.2c0.32,0.16,0.55,0.31,0.77,0.46l0.07,0.05l0.09,0.06l0.22,0.16
			l0.14,0.1l0.19,0.11C79.28,103.57,79.44,103.66,79.58,103.76"/>
		<path class="st1" d="M87.09,164.01c0.01,0.04,0,0.1-0.04,0.14c-0.04,0.04-0.08,0.08-0.12,0.12c0,0,0.01-0.01,0.01-0.01
			c-0.31,0.29-0.58,0.6-0.86,0.9c-0.3,0.34-0.62,0.66-0.95,0.99c0,0,0.01-0.01,0.01-0.01c-0.17,0.16-0.34,0.33-0.51,0.49l0.06-0.06
			c-0.16,0.15-0.31,0.3-0.48,0.45c-0.15,0.13-0.31,0.25-0.47,0.38c-0.15,0.12-0.3,0.24-0.45,0.36c-0.07,0.05-0.13,0.1-0.2,0.16
			c-0.06,0.05-0.14,0.11-0.22,0.14c-0.12,0.05-0.24,0.07-0.35,0.03c-0.11-0.04-0.16-0.12-0.16-0.22c0-0.13,0.14-0.24,0.24-0.35
			c0.08-0.08,0.16-0.15,0.25-0.22c-0.12-0.1-0.11-0.28,0.05-0.4c0.29-0.21,0.57-0.42,0.85-0.64c0.31-0.25,0.62-0.51,0.92-0.77
			c0.28-0.24,0.54-0.48,0.81-0.72c0.14-0.12,0.26-0.25,0.41-0.37c0.04-0.04,0.09-0.07,0.14-0.11c0.06-0.05,0.14-0.11,0.23-0.13
			c0.08-0.02,0.17-0.02,0.23,0.01c0.07-0.07,0.14-0.14,0.22-0.21c0.07-0.06,0.21-0.08,0.29-0.05c0.02,0.01,0.03,0.02,0.05,0.03
			C87.06,163.96,87.08,163.98,87.09,164.01 M86.39,164.25c-0.01,0.01-0.02,0.02-0.03,0.03L86.39,164.25z M85.15,166.13
			c0.01-0.01,0.03-0.03,0.04-0.04C85.18,166.11,85.17,166.12,85.15,166.13"/>
		<path class="st1" d="M87.22,163.82c-0.09,0.16-0.18,0.32-0.28,0.48c-0.1,0.15-0.19,0.29-0.29,0.44c-0.27,0.41-0.63,0.8-0.99,1.18
			c-0.39,0.41-0.79,0.82-1.25,1.2c-0.18,0.15-0.37,0.3-0.54,0.45c-0.16,0.13-0.32,0.26-0.5,0.37c-0.05,0.04-0.1,0.06-0.17,0.08
			c-0.09,0.02-0.18,0.02-0.26-0.01c-0.08-0.03-0.14-0.08-0.15-0.15c-0.02-0.06-0.01-0.14,0.05-0.2c0.23-0.23,0.49-0.44,0.73-0.66
			c0.29-0.27,0.6-0.53,0.88-0.81c0,0,0,0-0.01,0.01c0.09-0.08,0.17-0.17,0.26-0.25c0,0,0,0-0.01,0.01c0.01-0.01,0.02-0.01,0.02-0.02
			c0.02-0.02,0.03-0.03,0.05-0.05c-0.01,0.01-0.01,0.01-0.02,0.02c0.36-0.35,0.74-0.71,1.05-1.08c0.13-0.16,0.25-0.32,0.37-0.49
			c0.09-0.13,0.18-0.25,0.26-0.37c-0.01,0.02-0.03,0.04-0.04,0.06l0.16-0.28c0.04-0.07,0.08-0.13,0.18-0.17
			c0.08-0.04,0.18-0.05,0.26-0.04c0.06,0.01,0.11,0.03,0.15,0.06C87.23,163.64,87.27,163.73,87.22,163.82 M84.71,165.94
			c-0.01,0.01-0.01,0.01-0.02,0.02c0.02-0.02,0.03-0.03,0.05-0.05C84.73,165.92,84.72,165.93,84.71,165.94"/>
		<path class="st1" d="M78.48,135.5c0.02,0.14-0.13,0.27-0.32,0.31c-0.22,0.04-0.43,0.08-0.65,0.13c-0.42,0.13-0.83,0.3-1.24,0.46
			c-0.39,0.16-0.77,0.33-1.15,0.51c-0.23,0.12-0.45,0.23-0.67,0.36c-0.26,0.14-0.49,0.31-0.73,0.47c-0.27,0.18-0.54,0.35-0.82,0.52
			c-0.14,0.08-0.27,0.17-0.42,0.24c-0.14,0.07-0.31,0.12-0.45,0.08c-0.07-0.02-0.13-0.04-0.17-0.09c-0.04-0.04-0.06-0.08-0.07-0.14
			c0-0.03,0-0.05,0.01-0.08l0,0c0-0.01,0-0.01,0.01-0.02c0,0,0,0,0,0c0.02-0.06,0.05-0.11,0.11-0.15c0.05-0.04,0.1-0.08,0.15-0.11
			c0.11-0.07,0.22-0.15,0.33-0.22c0.02-0.01,0.04-0.03,0.06-0.04c-0.07-0.14,0.01-0.31,0.19-0.42c0.27-0.17,0.54-0.35,0.81-0.52
			c0.31-0.18,0.64-0.34,0.97-0.5c0.3-0.13,0.59-0.26,0.9-0.37c0.33-0.13,0.67-0.24,1.01-0.35c0.35-0.11,0.72-0.2,1.09-0.27
			c0.11-0.02,0.21-0.04,0.32-0.05c0.1-0.01,0.18-0.01,0.28,0.01c0.06,0.01,0.11,0.04,0.14,0.07c0.09-0.01,0.17,0.02,0.23,0.06
			C78.44,135.4,78.48,135.44,78.48,135.5 M75.17,136.88c-0.01,0-0.02,0.01-0.03,0.01C75.15,136.89,75.16,136.89,75.17,136.88
			 M75.12,136.91c-0.02,0.01-0.04,0.02-0.05,0.02C75.08,136.92,75.1,136.91,75.12,136.91"/>
		<path class="st1" d="M78.45,135.43c-0.02,0.09-0.09,0.18-0.19,0.23c-0.1,0.06-0.21,0.08-0.33,0.09c-0.06,0-0.12,0.01-0.17,0.01
			c-0.21,0.03-0.41,0.07-0.62,0.13c-0.33,0.1-0.64,0.2-0.96,0.32c-0.32,0.12-0.63,0.26-0.94,0.4c-0.54,0.26-1.06,0.55-1.54,0.88
			c-0.16,0.11-0.42,0.12-0.57,0.04c-0.09-0.05-0.15-0.12-0.16-0.21c-0.01-0.08,0.03-0.19,0.12-0.26c0.32-0.25,0.64-0.48,1.01-0.69
			c0.36-0.2,0.75-0.38,1.14-0.53c0.4-0.16,0.81-0.32,1.23-0.44c0.22-0.06,0.44-0.13,0.67-0.18c0.16-0.04,0.32-0.07,0.48-0.1
			c0.16-0.02,0.32-0.03,0.47-0.04c0.1-0.01,0.18,0.02,0.24,0.06C78.43,135.23,78.48,135.33,78.45,135.43 M77.23,135.86
			c-0.02,0.01-0.04,0.01-0.06,0.02C77.19,135.88,77.21,135.87,77.23,135.86"/>
		<path class="st2" d="M98.97,84.21c0.01-0.01,0.02-0.02,0.02-0.02C98.99,84.2,98.98,84.2,98.97,84.21"/>
		<path class="st2" d="M98.9,84.28L98.9,84.28c0,0,0-0.01,0.01-0.01C98.91,84.28,98.9,84.28,98.9,84.28"/>
		<polyline class="st2" points="100.13,86.24 100.14,86.24 100.13,86.24 		"/>
		<path class="st2" d="M100.11,86.26c0.01-0.01,0.01-0.01,0.02-0.02C100.13,86.25,100.12,86.25,100.11,86.26"/>
		<path class="st14" d="M77.56,102.19l0.03,0.02c0.21,0.15,0.42,0.33,0.61,0.53c0.16,0.17,0.32,0.34,0.46,0.53l0.17,0.21
			c0.11,0.14,0.23,0.28,0.33,0.43c0.23,0.32,0.39,0.66,0.5,0.92c0.14,0.31,0.28,0.62,0.38,0.95c0.14,0.41,0.2,0.84,0.23,1.17
			c0.03,0.3,0.06,0.59,0.07,0.89c0.01,0.29-0.01,0.58-0.04,0.88c-0.02,0.17-0.03,0.35-0.04,0.52l-0.02,0.35
			c-0.04,0.52-0.12,1.09-0.24,1.79l0-0.02c-0.12,0.69-0.23,1.27-0.39,1.85c-0.16,0.59-0.36,1.17-0.52,1.6
			c-0.41,1.11-0.98,2.18-1.58,3.27l-0.04,0.07l-0.07,0.14l-0.04,0.07l-0.05,0.09c-0.39,0.7-0.77,1.33-1.16,1.92
			c-0.21,0.32-0.43,0.63-0.67,0.94l-0.25,0.34c-0.14,0.19-0.29,0.38-0.44,0.57l-0.25,0.32c-0.42,0.54-0.86,1.09-1.36,1.61
			c-0.23,0.24-0.47,0.48-0.7,0.71l-0.32,0.32c-0.3,0.3-0.61,0.59-0.92,0.87c-0.21,0.19-0.41,0.39-0.62,0.58
			c-0.41,0.39-0.82,0.78-1.27,1.16c-0.19,0.16-0.38,0.32-0.58,0.47c-0.15,0.12-0.29,0.24-0.43,0.35l-0.2,0.16
			c-0.26,0.22-0.51,0.43-0.78,0.64c-0.1,0.08-0.21,0.15-0.32,0.23l-0.13,0.09c-0.23,0.16-0.45,0.31-0.7,0.45
			c-0.41,0.24-0.81,0.44-1.25,0.62c-0.41,0.17-0.87,0.27-1.29,0.29c-0.55,0.02-0.95-0.05-1.27-0.21c-0.06-0.03-0.11-0.06-0.16-0.1
			c-0.23-0.16-0.37-0.37-0.43-0.62c-0.04-0.18-0.06-0.37-0.06-0.63c0-0.16,0.01-0.33,0.03-0.49l-0.12,0.17
			c-0.12,0.16-0.25,0.32-0.38,0.48c-0.14,0.18-0.29,0.37-0.44,0.55l-0.34,0.43c-0.26,0.33-0.52,0.67-0.76,1.01l-0.24,0.35
			l-0.49,0.69l-0.23,0.33c-0.11,0.16-0.22,0.31-0.33,0.47c-0.19,0.28-0.35,0.51-0.52,0.74c-0.37,0.49-0.72,0.98-1.07,1.47
			c-0.34,0.48-0.66,0.95-0.95,1.43c-0.29,0.48-0.57,0.96-0.84,1.45l-0.14,0.25c-0.73,1.35-1.39,2.61-1.85,3.89
			c-0.22,0.63-0.48,1.33-0.67,2.02c-0.09,0.31-0.17,0.61-0.26,0.92c-0.1,0.36-0.2,0.73-0.3,1.09c-0.18,0.63-0.33,1.25-0.45,1.89
			c0,0-0.01,0.04-0.02,0.04c0,0-0.01,0.03-0.01,0.03l0,0c-0.15,0.99-0.16,1.96-0.18,2.9c-0.01,0.62,0.06,1.24,0.13,1.84
			c0.04,0.32,0.07,0.65,0.1,0.97c0.01,0.07-0.03,0.14-0.1,0.21c-0.08,0.07-0.2,0.12-0.31,0.14c-0.35,0.37-0.63,0.73-0.96,1.06
			c-0.1,0.1-0.24,0.16-0.39,0.19c-0.15,0.02-0.3,0-0.41-0.07l-0.01-0.01c-0.13-0.09-0.19-0.17-0.25-0.26
			c-0.16-0.23-0.3-0.47-0.43-0.72c-0.34-0.63-0.59-1.2-0.78-1.73c-0.1-0.29-0.18-0.52-0.25-0.76l-0.08-0.29l-0.16-0.58
			c-0.11-0.37-0.2-0.77-0.28-1.22l0.02,0.08c-0.06-0.32-0.11-0.61-0.14-0.91c-0.02-0.24-0.06-0.49-0.1-0.73l-0.08-0.39l0,0.01
			c-0.13-0.66-0.21-1.25-0.24-1.81c-0.03-0.63-0.04-1.26-0.05-1.89c0-0.68-0.01-1.36-0.02-2.05c-0.01-0.63,0.03-1.27,0.07-1.89
			l0.01-0.15l0.02-0.37c0.02-0.26,0.03-0.52,0.06-0.78c0.05-0.39,0.12-0.78,0.2-1.18l0.02-0.11c0.06-0.33,0.13-0.66,0.19-1
			c0.06-0.32,0.13-0.64,0.19-0.96c0.13-0.68,0.26-1.38,0.44-2.05c0.17-0.65,0.37-1.3,0.6-1.93c0.14-0.38,0.29-0.76,0.45-1.14
			c0.1-0.26,0.21-0.51,0.31-0.77c0.19-0.49,0.4-0.97,0.63-1.46c0.22-0.48,0.49-0.96,0.75-1.43l0.05-0.1l0,0
			c0.11-0.2,0.21-0.4,0.32-0.59c0.24-0.46,0.49-0.94,0.79-1.4l0.33-0.5c0.32-0.49,0.63-0.98,0.98-1.45
			c0.12-0.17,0.24-0.34,0.36-0.51l0.29-0.4c0.11-0.16,0.23-0.31,0.35-0.46c0.12-0.15,0.24-0.31,0.35-0.46
			c0.13-0.18,0.26-0.37,0.39-0.55l0.24-0.35c0.21-0.29,0.44-0.58,0.67-0.86l0.59-0.73c0.29-0.36,0.59-0.73,0.88-1.09
			c0.23-0.28,0.49-0.56,0.75-0.83c0.13-0.14,0.26-0.29,0.39-0.43c0.13-0.14,0.26-0.29,0.39-0.43c0.55-0.59,1.2-1.28,1.9-1.94
			c0.4-0.37,0.81-0.73,1.22-1.09c0.24-0.21,0.49-0.43,0.73-0.64c0.31-0.27,0.62-0.53,0.94-0.8l0.23-0.19
			c0.23-0.19,0.46-0.37,0.69-0.56l0.18-0.14c0.23-0.18,0.46-0.37,0.68-0.56c0.23-0.2,0.47-0.39,0.71-0.57l0.26-0.21l0.29-0.23
			c0.53-0.42,1.07-0.85,1.64-1.26c0.15-0.11,0.31-0.22,0.47-0.33c0.16-0.11,0.31-0.22,0.47-0.33c0.39-0.28,0.79-0.55,1.19-0.82
			L70,106.75c0.31-0.23,0.62-0.45,0.93-0.68c0.29-0.21,0.57-0.42,0.86-0.63c0.58-0.4,1.16-0.81,1.72-1.22c0.34-0.25,0.68-0.5,1-0.77
			l0.35-0.28c0.17-0.14,0.35-0.29,0.53-0.43c-0.07-0.18-0.05-0.38,0.09-0.56c0.25-0.34,0.82-0.51,1.25-0.38
			c0.19,0.06,0.36,0.12,0.54,0.21C77.38,102.06,77.47,102.13,77.56,102.19"/>
		<g>
			<path class="st4" d="M106.72,9.06c18.58,13.13,21.68,28.08,24.16,37.13S143.89,96,142.65,97.81
				c-1.24,1.81-16.11,15.85-24.78,17.66s-9.29-11.77-24.78-4.98s-35.93,1.81-30.36,0s9.29-48.45,5.58-41.66s-28.5,10.42-37.17,8.15
				c-8.67-2.26-10.53-5.89-22.92-7.25S0.79,56.6,2.02,48s24.16-12.23,32.83-24S62.68,1.95,68.31,1.36S88.13-4.08,106.72,9.06z"/>
			<path class="st15" d="M77.26,11.11L34.63,38.66c0,0,20.89,8.82,30.07,3.02S85.53,16.89,77.26,11.11z"/>
		</g>
		<g>
			<ellipse class="st16" cx="55.2" cy="33.64" rx="5.79" ry="4.23"/>
			<ellipse class="st15" cx="53.39" cy="32.32" rx="3.98" ry="2.91"/>
		</g>
		<path class="st17" d="M13.79,71.12c0,0,17.9,8.85,21.59,6.59S67.85,63.56,70.8,57.9s-14.76,6.22-36.89,7.92
			s-22.13,3.96-22.13,3.96"/>
		<path class="st15" d="M24.33,67.23l10.6,9.79l6.96-3.23C41.9,73.79,25.3,68.01,24.33,67.23z"/>
		<path class="st15" d="M37.76,65.45l5.27,7.94l4.68-2.04C47.71,71.35,38.26,66.1,37.76,65.45z"/>
		<path class="st15" d="M56.38,61.96l4.47,3.36l2.38-1.42C63.24,63.89,56.79,62.22,56.38,61.96z"/>
		<path class="st15" d="M42.89,64.85l5.9,6.34l3.52-2.25C52.31,68.94,43.43,65.36,42.89,64.85z"/>
		<path class="st15" d="M49.36,62.83l3.69,6.3l3.38-1.67C56.42,67.46,49.71,63.34,49.36,62.83z"/>
		<path class="st15" d="M52.52,63.11l4.3,4.41l2.6-1.56C59.43,65.95,52.92,63.46,52.52,63.11z"/>
		<g>
			<path class="st9" d="M184.81,169.05l1.39,4.23c-0.53,1.5-0.35,2.41,0.79,2.27c-31.43,14.9-97.79,14.46-113.31-7.25l-0.01-0.03
				c0.99-20.93-12.2-47.45-12.2-47.45s2.78-2.66,7.63-7.01C73.2,176.33,106.26,188.98,184.81,169.05z"/>
			<path class="st10" d="M168.7,121.09l16.1,47.96c-78.55,19.93-111.61,7.28-115.71-55.23l-0.01-0.03
				c13.49-12.15,42.71-37.44,71.27-55.18c-0.62,14.82,5.88,29.8,12.78,41.37C160.69,112.52,168.7,121.09,168.7,121.09z"/>
			<g>
				<path class="st11" d="M74.05,168.16c3.86,5.38,11.37,9.63,20.43,12.37c9.08,2.77,19.53,4.19,30.18,4.6
					c10.64,0.48,21.62-0.05,32.27-1.59c10.62-1.56,21.06-4.16,29.69-8.17l0.61,0.4c-6.66,5.59-17.6,9.55-28.86,11.92
					c-5.66,1.28-11.58,1.97-17.5,2.53c-5.94,0.47-11.9,0.53-17.82,0.37c-5.88-0.32-11.71-0.89-17.3-1.89
					c-5.49-1.11-10.94-2.4-15.59-4.37c-9.48-3.68-16.55-9.56-17.03-15.92L74.05,168.16z"/>
			</g>
		</g>
		<path class="st17" d="M77.63,26.23c0,0-8.55,14.55-16.97,14.28S33.94,38.7,33.94,38.7s15.76,5.78,21.14,5.44s13.9-1.71,14.83-4.43
			C70.85,37,77.63,26.23,77.63,26.23z"/>
		<path class="st4" d="M23.93,130.22l0.02-0.03C23.94,130.21,23.93,130.22,23.93,130.22"/>
		<g>
			<path class="st4" d="M81.98,105.36c0,0,11.33,6.71,8.42,8.34c-2.91,1.62,1.6,7.51-0.68,10.92c-2.28,3.41-10.54,7.27-19.11,5.54
				c-8.57-1.73-20.15-17.34-15.19-21.87s19.57-6.55,23.06-4.74C81.98,105.36,81.98,105.36,81.98,105.36z"/>
			<path class="st6" d="M59.61,116.01c0.27-1.77,1.31-10.14,18.09-12.57c-12.26,3.93-16.27,10.56-14.62,14.97
				c-0.38-2.77,2.17-8.03,13.17-11.22c-12.52,5.47-13.12,9.79-10.74,15.6c-1.13-2.98,0.71-4.63,2.36-5.54
				c-2.32,2.17-2.53,7.22,1.73,10.29c2.49,1.8,1.15,2.42-1.14,0.8C61.15,123.18,59.61,116.01,59.61,116.01z"/>
		</g>
		<g>
			<path class="st18" d="M159.37,150.15c-1.66,1.74-4.48,1.15-6.21-0.9c-0.56-0.66-1.19-1.4-1.89-2.12c0-0.04,0.01-0.05,0.03-0.06
				c5.38-10.26-4.09-20.11-10.43-18.94l2.18-2.68c7.07-0.13,14.39,3.29,20.17,8.89c1.9,1.85,2.71,5.68,1.58,7.93
				c-0.6,1.27-1.43,2.75-2.51,4.37C161.4,147.95,160.37,149.13,159.37,150.15z"/>
			<path class="st10" d="M151.28,147.13c-1.93,3.41-9.82-0.79-15.88,2.38c-5.08,2.63-9.82,6.57-16.5,14.75
				c1.04-2.53,2.11-5,3.12-7.42c4.11-9.52,7.93-17.82,9.37-21.84l2.2,2.19l7.29-9.07c6.34-1.16,15.8,8.69,10.43,18.94
				C151.29,147.08,151.27,147.09,151.28,147.13z"/>
			<g>
				<path class="st19" d="M141.9,125.16c3.85-0.29,8.29,0.51,12.74,2.67c2.22,1.09,4.44,2.49,6.52,4.18
					c1.01,0.89,2.09,1.66,3.04,2.9c0.87,1.25,1.29,2.53,1.49,3.71c0.17,1.17,0.13,2.27-0.17,3.21c-0.31,0.95-0.78,1.65-1.21,2.44
					c-0.89,1.52-1.86,2.97-2.97,4.29c-0.56,0.67-1.13,1.28-1.75,1.9c-0.62,0.6-1.5,1.03-2.56,1.02c-1.05,0-2.34-0.47-3.43-1.45
					c-1.05-1.05-1.77-2.04-2.71-3.01l0.29-0.29c0.58,0.37,1.17,0.75,1.76,1.16c0.59,0.44,1.15,0.91,1.43,0.94
					c0.66,0.2,1.13,0.07,1.49-0.26c0.18-0.15,0.35-0.3,0.47-0.52c0.19-0.28,0.04-0.3,0.35-0.79c0.21-0.67,0.76-1.48,1.05-2.21
					c0.61-1.54,1.45-3.03,2.02-4.63c0.14-0.41,0.33-0.77,0.48-1.12c0.07-0.17,0.22-0.48,0.23-0.55c0.02-0.08,0.05-0.16,0.06-0.26
					c0.08-0.37,0.05-0.9-0.05-1.34c-0.01-0.41-0.23-0.8,0.04-0.43c0.12,0.18,0.27,0.36,0.44,0.51l-0.3-0.34l-0.01-0.01
					c-0.07-0.07,0.56,0.56,0.29,0.29l-0.02-0.02l-0.03-0.03l-0.07-0.07l-0.14-0.13l-0.27-0.27c-0.35-0.38-0.75-0.67-1.1-1.06
					c-1.47-1.47-3.14-2.63-4.9-3.9c-3.56-2.37-7.57-4.24-12.28-5.97L141.9,125.16z"/>
			</g>
			<path class="st12" d="M140.77,127.96c2.54-0.55,6.21,1.01,8.74,3.92c2.58,2.9,3.65,6.52,3.53,9.37c-0.03,1.45-0.31,2.78-0.73,4
				c-0.49,1.14-0.81,2.52-2.01,3.08c-1.15,0.55-2.61,0.47-4.02,0.41c-1.42-0.09-2.84-0.22-4.23-0.25c-2.78-0.1-5.31,0.4-7.34,1.64
				c-2.1,1.15-4.06,2.5-5.89,4c-3.65,3.01-6.83,6.54-9.87,10.21l-0.23-0.23c1.07-2.28,2.44-4.28,3.76-6.35
				c1.45-1.94,3.01-3.79,4.7-5.52c1.64-1.8,3.69-3.16,5.79-4.45c2.07-1.41,5.07-2.11,8.01-2.06c2.92,0.09,6.18,0.82,7.63,0.22
				c0.38-0.19,0.49-0.23,0.76-0.73c0.27-0.49,0.51-1.01,0.73-1.54c0.39-1.08,0.72-2.19,0.87-3.39c0.3-2.36-0.36-5.23-2.3-7.7
				c-0.92-1.25-2.17-2.37-3.55-3.15c-1.38-0.76-2.83-1.17-4.23-1.21L140.77,127.96z"/>
			<g>
				<path class="st11" d="M145.58,122.46c-0.18,2.03-0.75,3.68-1.46,5.19c-0.68,1.54-1.59,2.85-2.55,4.12
					c-1.03,1.2-2.11,2.35-3.41,3.28c-1.28,0.95-2.7,1.77-4.5,2.22l-0.23-0.23l5.84-7.51l6.08-7.29L145.58,122.46z"/>
			</g>
			<path class="st20" d="M145.58,122.46l-5.84,7.51l-6.08,7.29l-0.23-0.23c0.18-2.02,0.76-3.67,1.46-5.19
				c0.68-1.54,1.59-2.85,2.55-4.13c1.03-1.2,2.1-2.35,3.41-3.28c1.28-0.95,2.7-1.77,4.5-2.21L145.58,122.46z"/>
		</g>
		<path class="st0" d="M111.95,28.64c1.06,1.38,1.65,3.55,1.33,4.85c-0.32,1.3-1.44,1.24-2.5-0.14c-1.06-1.38-1.65-3.55-1.33-4.85
			C109.78,27.2,110.89,27.26,111.95,28.64"/>
		<path class="st0" d="M120.77,27.88c1.73,2.37,2.71,6.11,2.19,8.35c-0.53,2.24-2.36,2.13-4.09-0.24c-1.73-2.37-2.71-6.11-2.19-8.35
			C117.2,25.4,119.04,25.51,120.77,27.88"/>
		<path class="st0" d="M119.2,40.17c2.14,2.37,3.35,6.11,2.7,8.35c-0.65,2.24-2.91,2.13-5.05-0.24c-2.14-2.37-3.35-6.11-2.7-8.35
			C114.8,37.69,117.06,37.8,119.2,40.17"/>
		<path class="st0" d="M190.85,145.97c-1.59,2.77-4.78,5.07-7.11,5.15c-2.33,0.07-2.93-2.11-1.33-4.88
			c1.59-2.77,4.78-5.07,7.11-5.15C191.85,141.02,192.45,143.21,190.85,145.97"/>
		<path class="st0" d="M199.03,138.67c-1.49,1.45-3.73,2.16-4.99,1.59c-1.26-0.57-1.07-2.21,0.42-3.66
			c1.49-1.45,3.73-2.16,4.99-1.59C200.71,135.58,200.52,137.22,199.03,138.67"/>
		<path class="st0" d="M204.15,131.5c-1.49,1.45-3.73,2.16-4.99,1.59c-1.26-0.57-1.07-2.21,0.42-3.66c1.49-1.45,3.73-2.16,4.99-1.59
			C205.83,128.41,205.64,130.05,204.15,131.5"/>
		<path class="st0" d="M6.37,51.31c0.51-0.51,15.87-7.17,15.87-7.17l4.61-0.51L6.37,51.31z"/>
	</g>
</g>
</svg>
