<?xml version="1.0" encoding="utf-8"?>
<!-- Generator: Adobe Illustrator 23.0.3, SVG Export Plug-In . SVG Version: 6.00 Build 0)  -->
<svg version="1.1" id="圖層_1" xmlns="http://www.w3.org/2000/svg" xmlns:xlink="http://www.w3.org/1999/xlink" x="0px" y="0px"
	 viewBox="0 0 327.45 230" style="enable-background:new 0 0 327.45 230;" xml:space="preserve">
<style type="text/css">
	.st0{fill:#3E2D1F;}
	.st1{fill:#7E3D43;}
	.st2{opacity:0.5;fill:#945760;}
	.st3{fill:#2C2A2B;}
	.st4{opacity:0.6;fill:#3D3B3C;}
	.st5{fill:#39567B;}
	.st6{opacity:0.2;fill:#879DB5;}
	.st7{fill:#360F07;}
	.st8{fill:#AD2642;}
	.st9{fill:#D42E42;}
	.st10{opacity:0.3;fill:#3D3B3C;}
	.st11{opacity:0.6;}
	.st12{fill:#3D3B3C;}
	.st13{fill:#BC8C22;}
	.st14{fill:#F4B118;}
	.st15{fill:#492235;}
	.st16{fill:#F5C722;}
	.st17{fill:#B38162;}
	.st18{fill:#CE9055;}
	.st19{fill:#835F41;}
	.st20{opacity:0.59;fill:#EAD6BC;}
	.st21{fill:#B17C48;}
	.st22{fill:#ECBB6F;}
	.st23{fill:#F5D4CC;}
	.st24{fill:#FFFFFF;}
	.st25{fill:#856D5F;}
	.st26{fill:#ECC190;}
	.st27{fill:#DFB382;}
</style>
<g>
	<g>
		<path class="st0" d="M139.42,165.98c-2.34,0.99-4.5,1.83-6.75,2.69c-2.23,0.85-4.47,1.67-6.71,2.48c-4.49,1.59-9,3.09-13.56,4.48
			c-9.12,2.74-18.41,5.1-28.01,6.36c-4.8,0.62-9.71,0.91-14.69,0.49c-2.5-0.28-5.01-0.64-7.48-1.53c-2.37-0.85-4.63-1.92-6.74-3.32
			c-2.1-1.39-4.02-3.13-5.52-5.17c-1.47-2.07-2.53-4.4-3.02-6.81c-1.01-4.83-0.23-9.71,1.57-13.99c-1.18,4.48-1.17,9.29,0.35,13.43
			c0.74,2.07,1.95,3.91,3.41,5.44c1.5,1.51,3.27,2.71,5.2,3.62c1.92,0.9,4.02,1.55,6.11,1.98c2,0.42,4.16,0.42,6.29,0.35
			c4.31-0.26,8.67-1.13,12.98-2.34c8.62-2.42,17.05-5.89,25.29-9.73c4.12-1.93,8.2-3.97,12.22-6.09c2.01-1.07,4.01-2.15,6-3.25
			c1.96-1.1,3.99-2.25,5.81-3.35L139.42,165.98z"/>
	</g>
	<g>
		<path class="st1" d="M107.65,26.23c0,0-64.26,5.2-72.03,10.8c-7.77,5.59-9.59,45.96-9.59,45.96l17.35,3.22
			c0,0,6.24-23.71,9.33-25.67c3.09-1.95,54.93,3.98,54.93,3.98V26.23z"/>
		<path class="st2" d="M87.37,31.58c0,0-43.66,4.77-49.41,7.41c-5.75,2.64-6.58,31.53-6.58,31.53l8.07,2.21
			c0,0,0.86-15.02,5.25-20.38c1.99-2.43,5.63,4.01,6.14,3.73c2.9-1.62-5.38-7.66-1.96-7.69c11.57-0.12,38.5,1.87,38.5,1.87
			L87.37,31.58z"/>
		<path class="st3" d="M57.48,80.27c-1.1-0.72-27.89-19.97-33.63-17.01c-5.73,2.96-1.92,26.9-1.92,26.9l-11.87-5.47
			c0,0-8.02,2.63-9.56,5.39c-1.54,2.75,0.88,9.65,0.88,9.65l8.03,0.41L11,94.12l4.28,3.27l-9.85,8.11c0,0-2.62,6.64-2.13,9.71
			c0.49,3.07,8.58,6.43,8.58,6.43l3.3-5.86l-2-3.95l3.37-1.25l1.62,3.43l-6.06,13.39c0,0,1.46,4.62,4.1,6.22
			c2.63,1.6,8.61,2.27,8.61,2.27l3.47-9.91l-5.61-1.48l2.12-3.18c0,0,6.65,3.47,11.44,0.45c4.8-3.02,9.1-16.65,9.1-16.65l6.52,4.5
			l-1.69,6.41c0,0,5.62,3.43,9.65-0.88c4.04-4.31,0.92-12.17,0.92-12.17L49.3,95.04L57.48,80.27z"/>
		<path class="st4" d="M29.3,66.1c-1.81-0.15-4.35-2.37-4.55,6.43c-0.21,8.8,1.28,18.65,1.28,18.65s8.86,2.57,8.86,1.32
			C34.89,91.27,42.55,67.23,29.3,66.1z"/>
	</g>
	<g>
		<path class="st5" d="M191.31,141.87c-3.52-11.96-19.73-21-39.2-21c-22.05,0-39.92,11.59-39.92,25.88c0,0.26,0.02,0.51,0.03,0.76
			c-5.55,12.67-16.95,39.24-16.95,43.67c0,5.85,27.59,26.36,27.59,26.36h6.97c0,0-14.64-21.41-10.25-25.79
			c2.17-2.16,10.13-11.79,17.65-20.99c4.6,1.2,9.62,1.87,14.88,1.87c5.83,0,11.36-0.82,16.35-2.27c7.61,9.32,15.78,19.2,17.98,21.39
			c4.39,4.38-10.25,25.79-10.25,25.79h6.97c0,0,27.59-20.5,27.59-26.36C210.75,185.86,194.34,148.68,191.31,141.87z"/>
		<path class="st6" d="M111.95,156.2c0,0-15.16,26.06-12.45,32.68c2.72,6.62,25.28-28.16,25.28-28.16L111.95,156.2z"/>
		<path class="st6" d="M177.79,166.11c0,0,13.44-11.81,14.9-12.22c1.46-0.41,15.74,34.8,15.54,35.83c-0.21,1.02-6,6.2-12.21-1.46
			C189.79,180.6,177.79,166.11,177.79,166.11z"/>
		<path class="st6" d="M162.26,169.2c2.08,0-28.98,2.76-38.92-13.01C123.34,156.2,147.56,169.19,162.26,169.2z"/>
	</g>
	<path class="st1" d="M80.55,38.18c7.19-16.19,119.72-25.93,139.42-0.39c13.48,17.48-27.2,99.35-43.75,107.69
		c-17.79,3.1-36.74,2.31-56.05-1.93C101.1,133.84,77.02,46.12,80.55,38.18z"/>
	<path class="st2" d="M114.64,82.92c3.94-8.86,35.42-11.84,55.99-4.42c3.31,1.2-23.44,37.81-20.85,39.57
		c27.39,2.8,33.79-32.02,35.24-30.14c9.55,12.39-5.94,42.16-17.67,48.08c-12.61,2.2-26.04,1.64-39.73-1.37
		C114.11,127.75,112.14,88.55,114.64,82.92z"/>
	<path class="st7" d="M109.15,132.04c0,0,38.48,30.34,80.53-1.09l3,7.25c0,0-19.04,18.8-42.59,17.97
		c-30.13-1.06-41.52-12.59-41.52-12.59L109.15,132.04z"/>
	<path class="st8" d="M118.78,71.32c0,0,10.27,27.57,15.59,32.26c5.32,4.7,14.02,16.13,14.02,16.13s19.92-6.8,25.67-23.76
		c5.75-16.96,10.02-39.74,10.02-39.74L118.78,71.32z"/>
	<path class="st9" d="M134.37,97.4c0,0,5.37,7.87,8.15,9.21c2.78,1.34,7.33,4.61,7.33,4.61s10.41-1.94,13.41-6.79
		c3-4.84,4.15-8.48,4.15-8.48s-6.99,3.36-16.52,2.66C141.35,97.92,134.37,97.4,134.37,97.4z"/>
	<g>
		<path class="st3" d="M71.85,32.76c4.54-6.52,42.79-9.21,42.79-9.21s-12.29,96.98-11.48,132.65c-4.65,2.03-27.86-12.62-27.86-12.62
			S62.35,46.39,71.85,32.76z"/>
		<path class="st10" d="M73.86,53.28c3.77-5.75,28.52,5.79,28.52,5.79s-6.82,55.33-6.33,86.69c-3.84,1.81-19.52-9.21-19.52-9.21
			S65.98,65.31,73.86,53.28z"/>
		<g class="st11">
			<path class="st12" d="M76.96,143.14c-0.09,0-0.19-0.02-0.28-0.07c-1.04-0.53-1.66-0.84-1.66-0.84c-0.31-0.16-0.43-0.53-0.27-0.84
				c0.16-0.31,0.53-0.43,0.84-0.27c0,0,0.62,0.32,1.66,0.84c0.31,0.15,0.43,0.53,0.27,0.83C77.4,143.02,77.19,143.14,76.96,143.14z"
				/>
			<path class="st12" d="M95.43,152.06c-0.08,0-0.17-0.02-0.25-0.05c-0.97-0.43-2.02-0.9-3.12-1.42c-0.31-0.15-0.45-0.51-0.3-0.82
				c0.14-0.31,0.51-0.45,0.82-0.3c1.1,0.51,2.14,0.99,3.1,1.41c0.31,0.14,0.46,0.51,0.32,0.82
				C95.89,151.92,95.66,152.06,95.43,152.06z M89.22,149.19c-0.09,0-0.18-0.02-0.27-0.06c-1.03-0.49-2.06-0.99-3.08-1.49
				c-0.31-0.15-0.44-0.52-0.29-0.83c0.15-0.31,0.52-0.44,0.83-0.29c1.02,0.5,2.05,1,3.07,1.48c0.31,0.15,0.44,0.52,0.29,0.83
				C89.67,149.06,89.45,149.19,89.22,149.19z M83.07,146.2c-0.09,0-0.19-0.02-0.27-0.06c-1.09-0.54-2.13-1.05-3.06-1.52
				c-0.31-0.15-0.43-0.53-0.28-0.83c0.15-0.31,0.53-0.43,0.83-0.28c0.94,0.47,1.97,0.98,3.06,1.52c0.31,0.15,0.43,0.52,0.28,0.83
				C83.52,146.07,83.3,146.2,83.07,146.2z"/>
			<path class="st12" d="M100.36,153.89c-0.02,0-0.03,0-0.05,0c-0.24-0.02-0.71-0.1-1.96-0.56c-0.32-0.12-0.48-0.48-0.36-0.8
				c0.12-0.32,0.48-0.48,0.8-0.36c0.42,0.16,0.74,0.27,0.98,0.34l0.05-1.12c0.02-0.34,0.31-0.61,0.65-0.59
				c0.34,0.02,0.61,0.31,0.59,0.65l-0.08,1.86c-0.01,0.17-0.08,0.33-0.21,0.44C100.65,153.84,100.51,153.89,100.36,153.89z"/>
			<path class="st12" d="M100.61,148.27c-0.01,0-0.02,0-0.03,0c-0.34-0.02-0.61-0.31-0.59-0.65c0.05-1.12,0.11-2.38,0.18-3.78
				c0.02-0.34,0.3-0.61,0.65-0.59c0.34,0.02,0.61,0.31,0.59,0.65c-0.07,1.4-0.13,2.66-0.18,3.78
				C101.21,148.01,100.94,148.27,100.61,148.27z M100.98,140.71c-0.01,0-0.02,0-0.03,0c-0.34-0.02-0.61-0.31-0.59-0.65
				c0.06-1.19,0.13-2.46,0.2-3.78c0.02-0.34,0.32-0.6,0.65-0.59c0.34,0.02,0.61,0.31,0.59,0.65c-0.07,1.32-0.14,2.58-0.2,3.78
				C101.58,140.45,101.31,140.71,100.98,140.71z M101.38,133.16c-0.01,0-0.02,0-0.03,0c-0.34-0.02-0.61-0.31-0.59-0.65
				c0.07-1.22,0.14-2.48,0.21-3.78c0.02-0.34,0.31-0.6,0.66-0.58c0.34,0.02,0.6,0.31,0.59,0.65c-0.07,1.3-0.14,2.55-0.21,3.77
				C101.98,132.9,101.7,133.16,101.38,133.16z M101.8,125.61c-0.01,0-0.02,0-0.04,0c-0.34-0.02-0.6-0.31-0.58-0.66
				c0.07-1.23,0.15-2.49,0.22-3.77c0.02-0.34,0.32-0.6,0.66-0.58c0.34,0.02,0.6,0.31,0.58,0.66c-0.08,1.28-0.15,2.54-0.22,3.77
				C102.4,125.36,102.13,125.61,101.8,125.61z M102.26,118.07c-0.01,0-0.03,0-0.04,0c-0.34-0.02-0.6-0.32-0.58-0.66
				c0.08-1.24,0.16-2.5,0.24-3.77c0.02-0.34,0.32-0.59,0.66-0.58c0.34,0.02,0.6,0.32,0.58,0.66c-0.08,1.27-0.16,2.53-0.24,3.77
				C102.86,117.81,102.58,118.07,102.26,118.07z M102.74,110.52c-0.01,0-0.03,0-0.04,0c-0.34-0.02-0.6-0.32-0.58-0.66
				c0.08-1.24,0.17-2.5,0.25-3.77c0.02-0.34,0.32-0.59,0.66-0.58c0.34,0.02,0.6,0.32,0.58,0.66c-0.09,1.27-0.17,2.52-0.25,3.77
				C103.34,110.27,103.07,110.52,102.74,110.52z M103.26,102.99c-0.01,0-0.03,0-0.04,0c-0.34-0.02-0.6-0.32-0.58-0.66
				c0.09-1.25,0.18-2.51,0.27-3.77c0.02-0.34,0.32-0.6,0.67-0.57c0.34,0.02,0.6,0.32,0.57,0.66c-0.09,1.26-0.18,2.52-0.27,3.77
				C103.86,102.74,103.58,102.99,103.26,102.99z M103.81,95.45c-0.02,0-0.03,0-0.05,0c-0.34-0.03-0.6-0.32-0.57-0.67
				c0.09-1.25,0.19-2.51,0.29-3.77c0.03-0.34,0.32-0.6,0.67-0.57c0.34,0.03,0.6,0.33,0.57,0.67c-0.1,1.26-0.2,2.51-0.29,3.76
				C104.41,95.2,104.13,95.45,103.81,95.45z M104.4,87.92c-0.02,0-0.03,0-0.05,0c-0.34-0.03-0.6-0.33-0.57-0.67
				c0.1-1.25,0.21-2.51,0.31-3.77c0.03-0.34,0.32-0.6,0.67-0.57c0.34,0.03,0.6,0.33,0.57,0.67c-0.11,1.25-0.21,2.51-0.31,3.76
				C104.99,87.68,104.72,87.92,104.4,87.92z M105.03,80.39c-0.02,0-0.04,0-0.05,0c-0.34-0.03-0.59-0.33-0.56-0.67
				c0.11-1.26,0.22-2.51,0.34-3.77c0.03-0.34,0.33-0.59,0.67-0.56c0.34,0.03,0.59,0.33,0.56,0.68c-0.11,1.25-0.23,2.5-0.34,3.76
				C105.62,80.14,105.35,80.39,105.03,80.39z M105.72,72.86c-0.02,0-0.04,0-0.06,0c-0.34-0.03-0.59-0.33-0.56-0.68
				c0.12-1.26,0.24-2.52,0.36-3.76c0.03-0.34,0.34-0.58,0.68-0.56c0.34,0.03,0.59,0.34,0.56,0.68c-0.12,1.25-0.24,2.5-0.36,3.76
				C106.31,72.62,106.03,72.86,105.72,72.86z M106.46,65.34c-0.02,0-0.04,0-0.06,0c-0.34-0.04-0.59-0.34-0.55-0.68
				c0.13-1.26,0.26-2.52,0.4-3.76c0.04-0.34,0.34-0.59,0.68-0.55c0.34,0.04,0.59,0.34,0.55,0.68c-0.13,1.24-0.27,2.49-0.4,3.75
				C107.05,65.11,106.78,65.34,106.46,65.34z M107.28,57.83c-0.02,0-0.05,0-0.07,0c-0.34-0.04-0.59-0.35-0.55-0.69
				c0.14-1.27,0.29-2.52,0.44-3.76c0.04-0.34,0.35-0.59,0.69-0.54c0.34,0.04,0.58,0.35,0.54,0.69c-0.15,1.23-0.29,2.49-0.44,3.75
				C107.86,57.6,107.59,57.83,107.28,57.83z M108.18,50.33c-0.03,0-0.05,0-0.08,0c-0.34-0.04-0.58-0.35-0.54-0.69
				c0.16-1.27,0.33-2.52,0.49-3.75c0.05-0.34,0.36-0.58,0.7-0.53c0.34,0.05,0.58,0.36,0.53,0.7c-0.17,1.23-0.33,2.47-0.49,3.74
				C108.75,50.1,108.49,50.33,108.18,50.33z M109.2,42.84c-0.03,0-0.06,0-0.09-0.01c-0.34-0.05-0.57-0.36-0.53-0.7
				c0.19-1.28,0.38-2.53,0.57-3.74c0.05-0.34,0.38-0.57,0.71-0.52c0.34,0.05,0.57,0.37,0.52,0.71c-0.19,1.21-0.38,2.46-0.57,3.73
				C109.77,42.62,109.5,42.84,109.2,42.84z M110.38,35.37c-0.03,0-0.07,0-0.11-0.01c-0.34-0.06-0.56-0.38-0.51-0.72
				c0.22-1.29,0.45-2.53,0.68-3.73c0.06-0.34,0.39-0.56,0.73-0.49c0.34,0.06,0.56,0.39,0.49,0.73c-0.23,1.19-0.45,2.43-0.68,3.71
				C110.94,35.16,110.68,35.37,110.38,35.37z"/>
			<path class="st12" d="M111.79,28.1c-0.04,0-0.09,0-0.13-0.01c-0.34-0.07-0.55-0.4-0.47-0.74c0.14-0.63,0.27-1.23,0.41-1.83
				c0.08-0.33,0.41-0.54,0.75-0.46c0.33,0.08,0.54,0.41,0.46,0.75c-0.14,0.59-0.27,1.19-0.41,1.81
				C112.33,27.9,112.07,28.1,111.79,28.1z"/>
		</g>
		<path class="st3" d="M70.93,118.07l18.91,5.04c0,0,5.49,8.08-4.32,7.85C75.71,130.73,70.46,127.02,70.93,118.07z"/>
		<path class="st4" d="M74.68,62.84c0,0,0.11,45.08,2.9,50.21c2.8,5.13,7.94,5.01,7.94,5.01s2.19-58.5-2.41-59
			C78.51,58.56,74.65,58.75,74.68,62.84z"/>
	</g>
	<g>
		<path class="st3" d="M229.17,32.76c-4.54-6.52-42.79-9.21-42.79-9.21s12.29,96.98,11.48,132.65c4.65,2.03,27.86-12.62,27.86-12.62
			S238.66,46.39,229.17,32.76z"/>
		<path class="st10" d="M227.16,53.28c-3.77-5.75-28.52,5.79-28.52,5.79s6.82,55.33,6.33,86.69c3.84,1.81,19.52-9.21,19.52-9.21
			S235.04,65.31,227.16,53.28z"/>
		<g class="st11">
			<path class="st12" d="M224.06,143.14c0.09,0,0.19-0.02,0.28-0.07c1.04-0.53,1.66-0.84,1.66-0.84c0.31-0.16,0.43-0.53,0.27-0.84
				c-0.16-0.31-0.53-0.43-0.84-0.27c0,0-0.62,0.32-1.66,0.84c-0.31,0.15-0.43,0.53-0.27,0.83
				C223.61,143.02,223.83,143.14,224.06,143.14z"/>
			<path class="st12" d="M205.59,152.06c0.08,0,0.17-0.02,0.25-0.05c0.97-0.43,2.02-0.9,3.12-1.42c0.31-0.15,0.45-0.51,0.3-0.82
				c-0.14-0.31-0.51-0.45-0.82-0.3c-1.1,0.51-2.14,0.99-3.1,1.41c-0.31,0.14-0.46,0.51-0.32,0.82
				C205.12,151.92,205.35,152.06,205.59,152.06z M211.79,149.19c0.09,0,0.18-0.02,0.27-0.06c1.03-0.49,2.06-0.99,3.08-1.49
				c0.31-0.15,0.44-0.52,0.29-0.83c-0.15-0.31-0.52-0.44-0.83-0.29c-1.02,0.5-2.05,1-3.07,1.48c-0.31,0.15-0.44,0.52-0.29,0.83
				C211.34,149.06,211.56,149.19,211.79,149.19z M217.94,146.2c0.09,0,0.19-0.02,0.27-0.06c1.09-0.54,2.13-1.05,3.06-1.52
				c0.31-0.15,0.43-0.53,0.28-0.83c-0.15-0.31-0.53-0.43-0.83-0.28c-0.94,0.47-1.97,0.98-3.06,1.52c-0.31,0.15-0.43,0.52-0.28,0.83
				C217.49,146.07,217.71,146.2,217.94,146.2z"/>
			<path class="st12" d="M200.66,153.89c0.02,0,0.03,0,0.05,0c0.24-0.02,0.71-0.1,1.96-0.56c0.32-0.12,0.48-0.48,0.36-0.8
				c-0.12-0.32-0.48-0.48-0.8-0.36c-0.42,0.16-0.74,0.27-0.98,0.34l-0.05-1.12c-0.02-0.34-0.31-0.61-0.65-0.59
				c-0.34,0.02-0.61,0.31-0.59,0.65l0.08,1.86c0.01,0.17,0.08,0.33,0.21,0.44C200.36,153.84,200.51,153.89,200.66,153.89z"/>
			<path class="st12" d="M200.41,148.27c0.01,0,0.02,0,0.03,0c0.34-0.02,0.61-0.31,0.59-0.65c-0.05-1.12-0.11-2.38-0.18-3.78
				c-0.02-0.34-0.3-0.61-0.65-0.59c-0.34,0.02-0.61,0.31-0.59,0.65c0.07,1.4,0.13,2.66,0.18,3.78
				C199.8,148.01,200.08,148.27,200.41,148.27z M200.04,140.71c0.01,0,0.02,0,0.03,0c0.34-0.02,0.61-0.31,0.59-0.65
				c-0.06-1.19-0.13-2.46-0.2-3.78c-0.02-0.34-0.32-0.6-0.65-0.59c-0.34,0.02-0.61,0.31-0.59,0.65c0.07,1.32,0.14,2.58,0.2,3.78
				C199.44,140.45,199.71,140.71,200.04,140.71z M199.64,133.16c0.01,0,0.02,0,0.03,0c0.34-0.02,0.6-0.31,0.59-0.65
				c-0.07-1.22-0.14-2.48-0.21-3.78c-0.02-0.34-0.31-0.6-0.66-0.58c-0.34,0.02-0.6,0.31-0.59,0.65c0.07,1.3,0.14,2.55,0.21,3.77
				C199.04,132.9,199.31,133.16,199.64,133.16z M199.21,125.61c0.01,0,0.02,0,0.04,0c0.34-0.02,0.6-0.31,0.58-0.66
				c-0.07-1.23-0.15-2.49-0.22-3.77c-0.02-0.34-0.32-0.6-0.66-0.58c-0.34,0.02-0.6,0.31-0.58,0.66c0.08,1.28,0.15,2.54,0.22,3.77
				C198.61,125.36,198.89,125.61,199.21,125.61z M198.76,118.07c0.01,0,0.03,0,0.04,0c0.34-0.02,0.6-0.32,0.58-0.66
				c-0.08-1.24-0.16-2.5-0.24-3.77c-0.02-0.34-0.32-0.59-0.66-0.58c-0.34,0.02-0.6,0.32-0.58,0.66c0.08,1.27,0.16,2.53,0.24,3.77
				C198.16,117.81,198.43,118.07,198.76,118.07z M198.27,110.52c0.01,0,0.03,0,0.04,0c0.34-0.02,0.6-0.32,0.58-0.66
				c-0.08-1.24-0.17-2.5-0.25-3.77c-0.02-0.34-0.32-0.59-0.66-0.58c-0.34,0.02-0.6,0.32-0.58,0.66c0.09,1.27,0.17,2.52,0.25,3.77
				C197.67,110.27,197.95,110.52,198.27,110.52z M197.76,102.99c0.01,0,0.03,0,0.04,0c0.34-0.02,0.6-0.32,0.58-0.66
				c-0.09-1.25-0.18-2.51-0.27-3.77c-0.02-0.34-0.32-0.6-0.67-0.57c-0.34,0.02-0.6,0.32-0.57,0.66c0.09,1.26,0.18,2.52,0.27,3.77
				C197.16,102.74,197.43,102.99,197.76,102.99z M197.2,95.45c0.02,0,0.03,0,0.05,0c0.34-0.03,0.6-0.32,0.57-0.67
				c-0.09-1.25-0.19-2.51-0.29-3.77c-0.03-0.34-0.32-0.6-0.67-0.57c-0.34,0.03-0.6,0.33-0.57,0.67c0.1,1.26,0.2,2.51,0.29,3.76
				C196.61,95.2,196.88,95.45,197.2,95.45z M196.61,87.92c0.02,0,0.03,0,0.05,0c0.34-0.03,0.6-0.33,0.57-0.67
				c-0.1-1.25-0.21-2.51-0.31-3.77c-0.03-0.34-0.32-0.6-0.67-0.57c-0.34,0.03-0.6,0.33-0.57,0.67c0.11,1.25,0.21,2.51,0.31,3.76
				C196.02,87.68,196.29,87.92,196.61,87.92z M195.98,80.39c0.02,0,0.04,0,0.05,0c0.34-0.03,0.59-0.33,0.56-0.67
				c-0.11-1.26-0.22-2.51-0.34-3.77c-0.03-0.34-0.33-0.59-0.67-0.56c-0.34,0.03-0.59,0.33-0.56,0.68c0.11,1.25,0.23,2.5,0.34,3.76
				C195.39,80.14,195.66,80.39,195.98,80.39z M195.3,72.86c0.02,0,0.04,0,0.06,0c0.34-0.03,0.59-0.33,0.56-0.68
				c-0.12-1.26-0.24-2.52-0.36-3.76c-0.03-0.34-0.34-0.58-0.68-0.56c-0.34,0.03-0.59,0.34-0.56,0.68c0.12,1.25,0.24,2.5,0.36,3.76
				C194.71,72.62,194.98,72.86,195.3,72.86z M194.55,65.34c0.02,0,0.04,0,0.06,0c0.34-0.04,0.59-0.34,0.55-0.68
				c-0.13-1.26-0.26-2.52-0.4-3.76c-0.04-0.34-0.34-0.59-0.68-0.55c-0.34,0.04-0.59,0.34-0.55,0.68c0.13,1.24,0.27,2.49,0.4,3.75
				C193.97,65.11,194.24,65.34,194.55,65.34z M193.74,57.83c0.02,0,0.05,0,0.07,0c0.34-0.04,0.59-0.35,0.55-0.69
				c-0.14-1.27-0.29-2.52-0.44-3.76c-0.04-0.34-0.35-0.59-0.69-0.54c-0.34,0.04-0.58,0.35-0.54,0.69c0.15,1.23,0.29,2.49,0.44,3.75
				C193.16,57.6,193.43,57.83,193.74,57.83z M192.84,50.33c0.03,0,0.05,0,0.08,0c0.34-0.04,0.58-0.35,0.54-0.69
				c-0.16-1.27-0.33-2.52-0.49-3.75c-0.05-0.34-0.36-0.58-0.7-0.53c-0.34,0.05-0.58,0.36-0.53,0.7c0.17,1.23,0.33,2.47,0.49,3.74
				C192.26,50.1,192.53,50.33,192.84,50.33z M191.82,42.84c0.03,0,0.06,0,0.09-0.01c0.34-0.05,0.57-0.36,0.52-0.7
				c-0.19-1.28-0.38-2.53-0.57-3.74c-0.05-0.34-0.38-0.57-0.71-0.52c-0.34,0.05-0.57,0.37-0.52,0.71c0.19,1.21,0.38,2.46,0.57,3.73
				C191.25,42.62,191.51,42.84,191.82,42.84z M190.63,35.37c0.03,0,0.07,0,0.11-0.01c0.34-0.06,0.56-0.38,0.51-0.72
				c-0.22-1.29-0.45-2.53-0.68-3.73c-0.06-0.34-0.39-0.56-0.73-0.49c-0.34,0.06-0.56,0.39-0.49,0.73c0.23,1.19,0.45,2.43,0.68,3.71
				C190.08,35.16,190.34,35.37,190.63,35.37z"/>
			<path class="st12" d="M189.23,28.1c0.04,0,0.09,0,0.13-0.01c0.34-0.07,0.55-0.4,0.47-0.74c-0.14-0.63-0.27-1.23-0.41-1.83
				c-0.08-0.33-0.41-0.54-0.75-0.46c-0.33,0.08-0.54,0.41-0.46,0.75c0.14,0.59,0.27,1.19,0.41,1.81
				C188.69,27.9,188.94,28.1,189.23,28.1z"/>
		</g>
		<path class="st3" d="M230.08,118.07l-18.91,5.04c0,0-5.49,8.08,4.32,7.85C225.3,130.73,230.56,127.02,230.08,118.07z"/>
		<path class="st4" d="M226.34,62.84c0,0-0.11,45.08-2.9,50.21c-2.8,5.13-7.94,5.01-7.94,5.01s-2.19-58.5,2.41-59
			C222.5,58.56,226.36,58.75,226.34,62.84z"/>
	</g>
	<path class="st7" d="M103.2,156.44c0,0,66.43,15.2,92.74-14.91l1.38,4.2c0,0-23.48,28.68-94.02,12.91L103.2,156.44z"/>
	<path class="st7" d="M201.99,160.15c0,0-66.8,13.48-92.32-17.3l-1.49,4.16c0,0,22.73,29.27,93.66,15.33L201.99,160.15z"/>
	<path class="st13" d="M138.14,143.14c-0.78,3.06,1.55,12.92,4.04,14.17c2.48,1.24,10.56,0.92,12.58,0
		c2.02-0.92,3.42-11.21,2.48-13.73C156.31,141.06,138.92,140.09,138.14,143.14z"/>
	<path class="st14" d="M139.98,145.45c-0.63,2.47,1.26,10.45,3.26,11.45c2.01,1,8.53,0.74,10.17,0c1.63-0.74,2.76-9.07,2.01-11.1
		C154.67,143.76,140.61,142.98,139.98,145.45z"/>
	<g>
		<path class="st3" d="M109.5,206.91l18.94-6.44l2.87,15.84l2.41,6.6l-2.47,1.71l-1.41-2.33c0,0-5.78,5.51-13.18,6.13
			c-7.4,0.62-12.12-1.24-12.12-1.24l1.46-2.48c0,0,5.99,2.17,13.86-7.16L109.5,206.91z"/>
		<path class="st10" d="M113.25,207.51l10.92-2.28c0,0,4.45,12.96,0.88,12.63C121.48,217.54,113.25,207.51,113.25,207.51z"/>
		<g>
			<polygon class="st13" points="132.41,213.83 134.17,215.68 136.69,215.28 135.47,217.52 136.63,219.8 134.12,219.33 
				132.31,221.13 131.98,218.6 129.71,217.44 132.01,216.34 			"/>
			<polygon class="st14" points="132.7,214.74 133.97,216.08 135.8,215.79 134.91,217.42 135.75,219.07 133.93,218.73 
				132.62,220.04 132.38,218.2 130.74,217.36 132.41,216.56 			"/>
		</g>
	</g>
	<g>
		<path class="st3" d="M194.64,208.36l-18.94-6.44l-2.87,15.84l-2.41,6.6l2.47,1.71l1.41-2.33c0,0,5.78,5.51,13.18,6.13
			c7.4,0.62,12.12-1.24,12.12-1.24l-1.46-2.48c0,0-5.99,2.17-13.86-7.16L194.64,208.36z"/>
		<path class="st10" d="M190.88,208.96l-10.92-2.28c0,0-4.45,12.96-0.88,12.63C182.66,218.98,190.88,208.96,190.88,208.96z"/>
		<g>
			<polygon class="st13" points="171.72,215.27 169.97,217.13 167.45,216.73 168.66,218.97 167.51,221.24 170.02,220.78 
				171.82,222.58 172.15,220.05 174.43,218.89 172.12,217.79 			"/>
			<polygon class="st14" points="171.44,216.19 170.17,217.53 168.34,217.24 169.22,218.87 168.38,220.52 170.2,220.18 
				171.51,221.49 171.75,219.65 173.4,218.81 171.73,218.01 			"/>
		</g>
	</g>
	<g>
		<polygon class="st15" points="201.03,68 204.51,73.11 210.43,71.33 207.75,76.9 212.25,81.14 206.08,81.6 204.66,87.62 
			201.18,82.51 195.25,84.29 197.94,78.72 193.44,74.48 199.6,74.01 		"/>
		<polygon class="st14" points="199.4,66.56 202.89,71.67 208.81,69.89 206.13,75.47 210.63,79.71 204.46,80.17 203.04,86.19 
			199.55,81.08 193.63,82.86 196.31,77.28 191.81,73.04 197.98,72.58 		"/>
		<ellipse class="st16" cx="201.22" cy="76.37" rx="3.52" ry="3.2"/>
	</g>
	<path class="st17" d="M46.02,158.63c0,0-2.71-9.44,3.35-12.43s9.38-3.26,9.38-3.26S63.65,151.03,46.02,158.63z"/>
	<g>
		<path class="st0" d="M118.5,29.38c0,0-19.24,1.61-22.39,9.73c-3.15,8.12-8.47,17.35-8.47,17.35s26.09-1.65,30.37-7.4
			c4.27-5.74,6.32-15.06,7.41-15.03C126.5,34.05,126.83,26.31,118.5,29.38z"/>
		<path class="st18" d="M120.21,37.16c0,0-19.37-1.24-23.54,6.29c-2.65,4.79-6.22,9.88-8.48,12.97c3.76-0.27,25.9-2.1,29.81-7.36
			c2.75-3.7,4.57-8.86,5.82-12.07C122.87,36.83,121.69,36.85,120.21,37.16z"/>
		<path class="st19" d="M120.34,24.98c0,0-5.81,14.22-3.01,26.92c2.79,12.7,3.55,33.48,3.55,33.48s16.91,14.36,30.32,10.07
			c13.41-4.29,14.77-10.91,28.51-17.78c13.75-6.87,16.11-21.23,8.48-38.56s-10.08-28.91-30.74-33.42
			C136.79,1.17,117.53,8.57,120.34,24.98z"/>
		<path class="st20" d="M156.64,72.69c13.75-6.87,16.11-21.23,8.48-38.56c-6.06-13.76-8.85-23.89-20.08-29.74
			c3.96-0.06,8.16,0.36,12.42,1.29c20.67,4.51,23.12,16.08,30.74,33.42s5.26,31.69-8.48,38.56c-13.75,6.87-15.1,13.49-28.51,17.78
			c-7.84,2.51-16.86-1.35-23.02-4.99C141.54,86.16,142.91,79.55,156.64,72.69z"/>
		<path class="st20" d="M139.55,91.98c13.41-4.29,14.77-10.91,28.51-17.78c13.75-6.87,16.11-21.23,8.48-38.56
			c-6.29-14.29-9.07-24.67-21.43-30.4c0.78,0.14,1.56,0.27,2.34,0.44c20.67,4.51,23.12,16.08,30.74,33.42
			c7.63,17.34,5.26,31.69-8.48,38.56c-13.75,6.87-15.1,13.49-28.51,17.78c-6.2,1.99-13.15-0.02-18.83-2.75
			C134.8,92.9,137.22,92.72,139.55,91.98z"/>
		<path class="st0" d="M179.67,26.92c0,0,19.28-1.27,24,6.26c4.73,7.53,11.81,15.83,11.81,15.83s-26.03,2.24-31.39-2.78
			c-5.36-5.03-9.24-13.9-10.31-13.71C172.72,32.71,170.84,25.13,179.67,26.92z"/>
		<path class="st18" d="M179.54,34.83c0,0,18.83-4.1,24.44,2.71c3.57,4.32,8.11,8.81,10.94,11.52c-3.76,0.29-25.94,1.77-30.84-2.83
			c-3.45-3.23-6.28-8.05-8.15-11.03C176.85,34.9,178.01,34.75,179.54,34.83z"/>
		<path class="st18" d="M147.57,87.2c0,0-22.27-3.46-24.13,1.95s6.49,15.26,15.86,11.29C148.67,96.48,155.63,93.28,147.57,87.2z"/>
		<path class="st21" d="M123.46,92.73c-0.36-1.27-0.39-2.52-0.03-3.58c1.86-5.41,24.13-1.95,24.13-1.95
			c0.46,0.34,0.86,0.68,1.22,1.01c-0.28,3.08-5.49,5.4-11.8,8.07C131.52,98.59,126.41,96.2,123.46,92.73z"/>
		<path class="st22" d="M156.66,80.1c0,0-4.1-8.51-19.16-11.68c-11-2.32-14.61,1.48-20.1,5.71c-5.49,4.23-7.17,17.13,3.85,19.78
			c11.02,2.65,9.28-2.97,16.87-0.46S161.86,89.56,156.66,80.1z"/>
		<path class="st0" d="M139.77,85.83c2.27,1.69,4.77,1.98,5.59,0.66c0.82-1.32-0.35-3.76-2.62-5.44c-2.27-1.69-4.77-1.98-5.59-0.66
			C136.33,81.71,137.5,84.14,139.77,85.83z"/>
		<path class="st0" d="M126.06,86.93c-1.69,2.2-4.01,3.13-5.19,2.07c-1.17-1.06-0.75-3.7,0.94-5.91c1.69-2.2,4.01-3.13,5.19-2.07
			C128.17,82.08,127.75,84.73,126.06,86.93z"/>
		<path class="st0" d="M154.03,48.8c1.01,3.31,3.45,5.48,5.43,4.85c1.98-0.63,2.75-3.83,1.72-7.14c-1.02-3.31-3.45-5.47-5.43-4.85
			C153.78,42.29,153.01,45.44,154.03,48.8z"/>
		<path class="st0" d="M124.29,50.82c1.02,3.31,3.45,5.48,5.43,4.85c1.98-0.63,2.75-3.83,1.72-7.14c-1.02-3.31-3.45-5.48-5.43-4.85
			C124.04,44.31,123.27,47.51,124.29,50.82z"/>
		<path class="st23" d="M123.52,75.06c0,0-4.69-1.59-5.69,1.42s-3.89,6.85-1.36,6.39C118.99,82.41,126.89,74.56,123.52,75.06z"/>
		<path class="st20" d="M162.77,43.92c0,0-1.31-8.23-10.08-2.92c-8.77,5.31-19.7,7.55-23.19,5.12c-3.48-2.44-7.99-3.08-8.61,0.66
			s7.69,14.41,16.11,9.95c8.41-4.46,5.27-3.25,13.49-2.55C158.7,54.88,164.31,52.42,162.77,43.92z"/>
	</g>
	<path class="st24" d="M156.06,49.81c-0.45-0.6-0.5-4.84,1.31-3.25c1.81,1.59,1,2.95,0,3.32C156.85,50.07,156.25,50.06,156.06,49.81
		z"/>
	<path class="st24" d="M128.66,50.67c0.42-0.56,0.47-4.57-1.23-3.06c-1.71,1.5-0.94,2.78,0,3.13
		C127.92,50.92,128.48,50.91,128.66,50.67z"/>
	<path class="st25" d="M163.9,31.53l-11.8,11.21l-3.48-3.42c0,0,0.58,7.67,3.48,6.39L167.27,39L163.9,31.53z"/>
	<path class="st25" d="M124.3,31.21l11.8,11.21l3.48-3.42c0,0-0.58,7.67-3.48,6.39l-15.17-6.72L124.3,31.21z"/>
	<g>
		<g>
			<path class="st26" d="M171.73,16.65c0,0,17.28,11.74,27.27-11.11c3.63-8.3,11.09,14.68-5.67,24.03c-9.3,5.19-19,3.12-25.25-2.2
				C161.82,22.06,171.73,16.65,171.73,16.65z"/>
			<path class="st27" d="M166.93,21.79c6.25,5.32,15.95,7.39,25.25,2.2c8.29-4.62,10.65-12.58,10.48-18.44
				c2.26,4.72,2.18,17.59-9.34,24.02c-9.3,5.19-19,3.12-25.25-2.2c-2.43-2.06-2.41-4.14-1.5-5.91
				C166.69,21.58,166.8,21.69,166.93,21.79z"/>
		</g>
		<g>
			<path class="st26" d="M118.84,12.71c0,0-9.76,12.82-27.55-10.89c-6.46-8.61-3.33,15.73,14.64,25.07
				c9.97,5.18,17.3,2.73,20.39-3.02C129.41,18.1,118.84,12.71,118.84,12.71z"/>
			<path class="st27" d="M89.11,6.61c2.86,5.11,7.45,10.58,14.06,14.02c9.97,5.18,17.3,2.73,20.39-3.02
				c0.22-0.41,0.36-0.81,0.45-1.22c2.13,2.04,3.78,4.71,2.3,7.47c-3.09,5.76-10.42,8.21-20.39,3.02
				C96.44,21.96,91.1,12.85,89.11,6.61z"/>
		</g>
	</g>
	<g>
		<path class="st1" d="M219.8,49.41c0,0,64.26,5.2,72.03,10.8c7.77,5.59,9.59,45.96,9.59,45.96l-17.35,3.22
			c0,0-6.24-23.71-9.33-25.67c-3.09-1.95-54.93,3.98-54.93,3.98V49.41z"/>
		<path class="st2" d="M240.08,54.76c0,0,43.66,4.77,49.41,7.41c5.75,2.64,6.58,31.53,6.58,31.53L288,95.91
			c0,0-0.86-15.02-5.25-20.38c-1.99-2.43-5.63,4.01-6.14,3.73c-2.9-1.62,5.38-7.66,1.96-7.69c-11.57-0.12-38.5,1.87-38.5,1.87V54.76
			z"/>
		<path class="st3" d="M269.97,103.44c1.1-0.72,27.89-19.97,33.63-17.01c5.73,2.96,1.92,26.9,1.92,26.9l11.87-5.47
			c0,0,8.02,2.63,9.56,5.39c1.54,2.75-0.88,9.65-0.88,9.65l-8.03,0.41l-1.58-6.01l-4.28,3.27l9.85,8.11c0,0,2.62,6.64,2.13,9.71
			c-0.49,3.07-8.58,6.43-8.58,6.43l-3.3-5.86l2-3.95l-3.37-1.25l-1.62,3.43l6.06,13.39c0,0-1.46,4.62-4.1,6.22s-8.61,2.27-8.61,2.27
			l-3.47-9.91l5.61-1.48l-2.12-3.18c0,0-6.65,3.47-11.44,0.45c-4.8-3.02-9.1-16.65-9.1-16.65l-6.52,4.5l1.69,6.41
			c0,0-5.62,3.43-9.65-0.88c-4.04-4.31-0.92-12.17-0.92-12.17l11.46-7.93L269.97,103.44z"/>
		<path class="st10" d="M298.15,89.28c1.81-0.15,4.35-2.37,4.55,6.43c0.21,8.8-1.28,18.65-1.28,18.65s-8.86,2.57-8.86,1.32
			S284.9,90.41,298.15,89.28z"/>
	</g>
</g>
</svg>
