<?xml version="1.0" encoding="utf-8"?>
<!-- Generator: Adobe Illustrator 23.0.3, SVG Export Plug-In . SVG Version: 6.00 Build 0)  -->
<svg version="1.1" id="圖層_1" xmlns="http://www.w3.org/2000/svg" xmlns:xlink="http://www.w3.org/1999/xlink" x="0px" y="0px"
	 viewBox="0 0 353.08 230" style="enable-background:new 0 0 353.08 230;" xml:space="preserve">
<style type="text/css">
	.st0{fill:#DF982F;}
	.st1{fill:#F5CB52;}
	.st2{fill:#AEABAB;}
	.st3{fill:#CBCBCB;}
	.st4{fill:#DEAB31;}
	.st5{fill:#F1F1F1;}
	.st6{fill:#4B9DD7;}
	.st7{fill:#00293B;}
	.st8{fill:#666767;}
</style>
<g>
	<g>
		<g>
			<path class="st0" d="M138.42,198.3l0.86,15.95c0,0-22.1,9.7-20.15,9.13c1.96-0.56,13.58-5.05,19.44-2.86
				c5.86,2.19,8.07,8.26,8.07,8.26l9.19-8.9c0,0,13.62,1.59,15,6.01c1.38,4.42-1.72-12.53-12.63-11.74s-1.67-15.95-1.67-15.95
				S144.58,202.09,138.42,198.3z"/>
		</g>
		<g>
			<path class="st0" d="M187.54,199.52l0.86,15.95c0,0-22.1,9.7-20.15,9.13c1.96-0.56,13.58-5.05,19.44-2.86
				c5.86,2.19,8.07,8.26,8.07,8.26l9.19-8.9c0,0,13.62,1.59,15,6.01c1.38,4.42-1.72-12.53-12.63-11.74
				c-10.91,0.79-1.67-15.95-1.67-15.95S193.7,203.3,187.54,199.52z"/>
		</g>
		<g>
			<path class="st1" d="M140.52,197.63l0.57,14.48c0,0-16.82,8.7-15.33,8.2c1.49-0.5,10.32-4.52,14.76-2.51
				c4.43,2.01,6.08,7.53,6.08,7.53l7.02-8.03c0,0,10.32,1.51,11.34,5.52c1.02,4.02-1.24-11.38-9.52-10.71
				c-8.28,0.67-1.18-14.48-1.18-14.48S145.17,201.09,140.52,197.63z"/>
		</g>
		<g>
			<path class="st1" d="M189.28,200.69l0.57,13.43c0,0-16.82,8.07-15.33,7.61c1.49-0.47,10.32-4.19,14.76-2.33
				c4.43,1.86,6.08,6.99,6.08,6.99l7.02-7.45c0,0,10.32,1.4,11.34,5.13c1.02,3.73-1.24-10.56-9.52-9.94
				c-8.28,0.62-1.18-13.43-1.18-13.43S193.94,203.91,189.28,200.69z"/>
		</g>
		<g>
			<path class="st2" d="M113.29,103.8c0,0-15.59,22-14.85,33.62c0.74,11.62-2.95,21.19,1.84,29.06c4.79,7.86,14.39,15.93,8.48,21.81
				c-5.9,5.88-3.87,13.74,4.52,10.67c8.39-3.08,9.27-4.77,17.87,0.69c8.6,5.46,22.29,5.8,28.72,2.39
				c6.44-3.42,14.63-10.94,21.97-2.73c7.34,8.2,17.67,11.62,23.21,2.73c5.54-8.89,2.73-8.23,4.32-15.56
				c1.59-7.34,2.79-21.91,2.19-32.64s-1.29-26.41-4.08-35.93s-12.52-18.43-12.52-18.43s-41.29,17.16-47.69,14.23
				C140.87,110.76,111.42,107.83,113.29,103.8z"/>
		</g>
		<g>
			<g>
				<polygon class="st2" points="194.36,77.1 353.08,199.76 294.31,197.73 236.91,150.41 281.17,198.99 234.58,194.89 
					207.42,154.67 223.66,194.74 189.28,184.61 179.14,152.24 179.6,178.45 158.1,163.3 159.66,98.51 				"/>
				<polygon class="st2" points="342.57,194.71 296.85,191.75 235.25,143.37 237.51,148.64 295.77,196.24 347.62,198.07 				"/>
				<polygon class="st2" points="277.3,197.3 235.3,193.7 207.88,154.02 207.06,150.9 237.64,190.73 273,192.4 				"/>
				<polygon class="st2" points="180.24,152.38 190.12,183.58 221.32,192.85 219.56,188.75 191.77,181.6 180.77,149.62 				"/>
				<polygon class="st2" points="178.66,176.61 159.09,163.14 159.31,139.77 160.77,139.61 162.13,161.79 178.44,172.14 				"/>
			</g>
			<path class="st3" d="M242.76,116.92c0,0,39.48,32.09,43.83,43.34s-5.64,18.79,16.83,24.28c18.92,0.28,22.89,8.01,22.89,8.01
				s-13.88-16.32-21.2-20.54c-7.32-4.21-15.31-14.84-22.15-22.36C276.11,142.15,242.76,116.92,242.76,116.92z"/>
		</g>
		<g>
			<g>
				<polygon class="st2" points="122.55,79.68 0,216.85 57.29,206.01 103.59,150.74 70.46,205.27 115.36,194.22 133.46,150.5 
					126.04,192.44 157.65,177.28 160.72,143.86 165.85,169.75 183.74,151.59 172.81,106.51 				"/>
				<polygon class="st2" points="9.25,210.3 53.53,200.5 103.71,143.56 102.61,149.09 55.54,204.77 5.01,214.38 				"/>
				<polygon class="st2" points="73.91,203.02 114.39,193.17 132.86,149.93 133,146.73 111.46,190.59 77.09,197.55 				"/>
				<polygon class="st2" points="159.66,144.16 156.61,176.38 127.94,190.22 128.79,185.91 154.57,174.68 158.56,141.52 				"/>
				<polygon class="st2" points="166.38,167.8 182.73,151.57 177.54,128.58 176.07,128.64 179.46,150.7 165.64,163.36 				"/>
			</g>
			<path class="st3" d="M104.56,117.06c0,0-42.91,39.8-46.85,51.45s8.54,16.33-17.21,26.95c-22.12,4.85-25.97,13.1-25.97,13.1
				s14.57-18.74,22.71-24.48c8.14-5.74,16.4-17.69,23.63-26.43C68.11,148.91,104.56,117.06,104.56,117.06z"/>
		</g>
		<g>
			<g>
				<path class="st2" d="M137.76,1.68c0,0-25.01,15.23-29.4,27.44s-8.07,24.18-13.98,25.48s16.6,0,16.6,0l0.74,6.72L93.4,79.27
					l22.18-7.45l8.61,7.45l-9.8,13.3c0,0,25.75-2.09,27.59-1.77c1.84,0.32,17.18,12.87,17.18,12.87V0.32
					C159.17,0.32,141.87-0.99,137.76,1.68z"/>
				<path class="st2" d="M180.11,1.68c0,0,24.47,15.23,28.77,27.44s7.9,24.18,13.68,25.48s-16.25,0-16.25,0l-0.72,6.72l17.93,17.96
					l-21.7-7.45l-8.42,7.45l9.59,13.3c0,0-25.19-2.09-27-1.77c-1.8,0.32-16.81,12.87-16.81,12.87V0.32
					C159.17,0.32,176.09-0.99,180.11,1.68z"/>
			</g>
			<path class="st3" d="M183.74,18.12c0.02-1.23,0.12-2.61,1.2-3.45c0.77-0.61,1.88-0.78,2.92-0.93c-7.13-4.36-16.18-6.42-24.95-5.7
				c4.43,1.42,8.72,3.15,12.82,5.15c-1.66-0.19-3.36-0.17-5.01,0.07c2,0.77,3.57,2.28,4.22,4.05c0.44,1.21,0.46,2.51,0.48,3.77
				c0.05,4.07,0.09,8.15,0.13,12.22c0-0.38,4.75-2.07,5.34-2.32c1.42-0.62,2.28-0.81,2.64-2.13
				C184.42,25.64,183.68,21.45,183.74,18.12z"/>
			<path class="st3" d="M178.53,79.38c0.24,2.56,0.48,5.12,0.72,7.68c0.28,3.02,0.56,6.11-0.47,9.01c-1.03,2.9-3.68,5.59-7.22,6.11
				c2.37,0.1,4.76-0.22,6.98-0.94c0.25,2.54,1.31,5.02,3.03,7.11c0.01-3.3,0.26-6.59,0.75-9.86c6.01,2.48,12.32,5.02,19.01,4.91
				c-2.87-3.57-4.35-7.91-4.17-12.22c5.11,2.11,11.18,1.04,16.71-0.07c-3.82-1.41-7.77-2.91-10.45-5.6
				c-3.5-3.52-4.15-8.4-4.65-12.97c-0.46-4.17-0.91-8.33-1.37-12.5c-0.14-1.3-0.29-2.61-0.16-3.92c0.19-1.91,0.96-3.79,2.24-5.38
				c-3.53,2.38-8.53,3.12-12.82,1.91c-2.32,2.99-5.09,5.74-8.22,8.16c-1.48,1.14-3.12,2.3-3.75,3.91c-0.36,0.93-1.3,2.88-0.91,3.83
				c0.39,0.95,1.95,1.72,2.57,2.66C177.96,73.67,178.27,76.64,178.53,79.38z"/>
			<path class="st3" d="M129.13,14.68c0.05-0.76,0.14-1.59,0.77-2.11c0.33-0.27,0.77-0.41,1.2-0.54c2.94-0.86,6.03-1.32,9.13-1.38
				c-1.21,0.59-2.34,1.3-3.37,2.12c-0.63,0.5-1.23,1.06-1.61,1.74c-0.47,0.85-0.55,1.82-0.61,2.76c-0.32,4.43-0.65,8.87-0.98,13.3
				c0.03-0.4-3.15-0.85-3.47-0.87c-1.15-0.1-2.57,0.32-3.6,0.13C126.87,27.35,128.95,17.25,129.13,14.68z"/>
			<path class="st3" d="M117.45,75.4c-1.08,4.12-2.31,8.38-5.46,11.66c-2.04,2.14-4.84,3.75-7.95,4.58c2.43,0.76,5.08,0.78,7.67,0.8
				c2.8,0.02,6.02-0.12,7.76-1.97c-0.37,4.13-1,8.72-4.7,11.45c7.57-0.13,14.93-3.79,18.71-9.31c-1.86-0.22-3.61-1.08-4.75-2.34
				c1.76-0.71,2.03-2.7,2.05-4.35c0.15-10.25,0.3-20.49,0.45-30.74c1.6-0.07,3.17-0.55,4.46-1.35c-1.13-0.03-2.08-0.8-2.57-1.66
				c-0.49-0.86-0.64-1.83-0.93-2.75c-0.63-2.02-2.19-4.67-4.41-5.78c-3.35-1.67-3.49,1.71-3.88,3.66
				c-1.18,5.97-2.48,11.93-3.89,17.86C119.2,68.59,118.35,71.99,117.45,75.4z"/>
			<path class="st3" d="M197.25,44.78c-1.46,3.88-4.78,7.23-9.06,9.13c2.68,0.73,5.66,0.66,8.29-0.2c-1.69,1.5-3.62,2.89-5.95,3.54
				c-1.2,0.34-2.46,0.47-3.73,0.52c-6.51,0.25-13.1-1.87-17.76-5.71c2.24,0.29,4.5,0.59,6.75,0.38c3.23-0.3,6.19-1.6,9.05-2.88
				c1.01-0.45,2.26-1.25,3.39-1.43c0.91-0.14,1.8,0.18,2.74-0.01C192.37,47.86,196.79,46,197.25,44.78z"/>
			<g>
				<path class="st0" d="M175.17,55.89c-3.21-1.14-6.43-2.47-8.82-4.61c-2.09-1.88-3.6-5.4-7.4-4.82c-3.81-0.58-5.31,2.94-7.4,4.82
					c-2.39,2.14-5.61,3.47-8.82,4.61c-4.72,1.68-10.19,2.06-15.31,2.15c2.47,3.58,5.92,7.54,9.19,10.64
					c1.42,1.35,2.97,2.68,4.92,3.43c0.85,0.32,1.75,0.53,2.63,0.8c3.31,1,6.21,2.81,8.64,4.96c2.43,2.14,4.31,4.67,6.16,7.19V46.52
					l0,0l0,0v38.52c1.85-2.52,3.74-5.04,6.16-7.19c2.43-2.14,5.33-3.96,8.64-4.96c0.88-0.26,1.78-0.47,2.63-0.8
					c1.95-0.75,3.5-2.08,4.92-3.43c3.27-3.1,6.72-7.05,9.19-10.64C185.36,57.95,179.88,57.57,175.17,55.89z"/>
			</g>
			<path class="st3" d="M190.21,57.8c-1.51,2.12-2.07,2.88-2.78,3.82c-1.11,1.47-2.33,2.89-3.69,4.21c-2.58,2.51-4.6,4.68-9.19,6.22
				c-1.32,0.44-2.58,1.01-3.82,1.6c-5.84,2.75-9.33,7.9-12.26,12.93c-2.93-5.03-6.42-10.18-12.26-12.93
				c-1.24-0.58-2.5-1.15-3.82-1.6c-4.59-1.54-6.61-3.71-9.19-6.22c-1.36-1.32-2.58-2.74-3.69-4.21c-0.7-0.93-1.26-1.69-2.78-3.82
				c-0.41,1.59,0.23,4.35,0.74,5.91c0.72,2.22,2.2,4.22,3.7,6.15c2.09,2.7,4.36,5.45,7.7,7.05c0.87,0.42,1.78,0.75,2.68,1.11
				c6.9,2.79,12.57,7.65,15.69,13.49c0.25,0.47,0.62,0.99,1.23,0.93c0.61,0.06,0.98-0.46,1.23-0.93
				c3.13-5.84,8.79-10.71,15.69-13.49c0.9-0.36,1.82-0.69,2.68-1.11c3.34-1.6,5.62-4.36,7.7-7.05c1.5-1.94,2.98-3.93,3.7-6.15
				C189.98,62.15,190.61,59.39,190.21,57.8z"/>
			<g>
				<g>
					<path class="st1" d="M154.36,51.37c-2.54,2.32-5.93,4.03-9.55,5.25c-3.62,1.22-7.49,1.96-11.36,2.56
						c2.31,3.56,5.56,6.75,9.51,9.32c0.37,0.24,0.76,0.49,1.22,0.62c0.78,0.24,6.79,1.92,8.31,3.4c2.32,2.25,4.48,4.62,6.11,7.2
						c0.06,0.09,0.15,0.2,0.29,0.18c0.13-0.02-0.01-0.34-0.09-0.26c0,0,0-31.51,0-31.51c0-0.01-0.53,0.07-0.47,0.07
						C155.99,48.83,156.03,49.86,154.36,51.37z"/>
				</g>
				<g>
					<path class="st4" d="M163.23,51.37c2.54,2.32,5.93,4.03,9.55,5.25c3.62,1.22,7.49,1.96,11.36,2.56
						c-2.31,3.56-5.56,6.75-9.51,9.32c-0.37,0.24-0.76,0.49-1.22,0.62c-0.78,0.24-6.79,1.92-8.31,3.4c-2.32,2.25-4.48,4.62-6.11,7.2
						c-0.06,0.09-0.15,0.2-0.29,0.18c-0.13-0.02,0.01-0.34,0.09-0.26c0,0,0-31.51,0-31.51c0-0.01,0.53,0.07,0.47,0.07
						C161.6,48.83,161.57,49.86,163.23,51.37z"/>
				</g>
			</g>
			<g>
				<g>
					<g>
						<path class="st5" d="M128.6,42.17c0.73,3.66,3.37,7.18,7.41,8.67c1.6,0.59,3.35,0.85,5.1,0.95c1.15,0.07,2.33,0.07,3.46-0.14
							c1.92-0.36,3.65-1.37,4.74-2.74c0.11-0.14,0.22-0.3,0.25-0.47c0.02-0.2-0.07-0.39-0.16-0.58c-0.89-1.76-1.78-3.53-2.96-5.17
							c-2.57-3.57-6.53-6.43-11.12-8.03c-1.19-0.41-2.51-0.81-3.21-1.72c-0.52-0.68-0.83-1.97-1.85-1.12
							c-0.76,0.63-1.02,2.47-1.26,3.33C128.37,37.45,128.14,39.84,128.6,42.17z"/>
					</g>
					<g>
						<path class="st6" d="M136.01,41.95c-0.25,3.05,1.83,5.81,5.62,6.12c0.47,0.04,0.95,0.08,1.42,0.06
							c1.21-0.05,2.39-0.5,3.23-1.24c0.07-0.06,0.14-0.12,0.17-0.2c0.02-0.07,0.01-0.15,0-0.23c-0.33-1.71-1.02-3.38-2.17-4.81
							c-1.14-1.43-2.75-2.63-4.65-3.28c-0.4-0.13-1.09-0.39-1.51-0.2c-0.4,0.17-0.76,0.75-0.99,1.06
							C136.52,40.06,136.09,40.99,136.01,41.95z"/>
					</g>
					<g>
						<path class="st7" d="M139.53,42.31c-0.2,0.72-0.25,1.49,0,2.2c0.25,0.71,0.84,1.36,1.65,1.65c0.53,0.19,1.13,0.21,1.7,0.23
							c0.24,0.01,0.49,0.01,0.73-0.04c0.53-0.11,0.94-0.47,1.31-0.81c0.05-0.05,0.11-0.1,0.12-0.17c0.01-0.05-0.01-0.1-0.04-0.15
							c-0.44-0.94-1.04-1.84-1.81-2.62c-0.38-0.4-0.82-0.76-1.29-1.08c-0.34-0.23-1.01-0.77-1.47-0.76
							C139.9,40.76,139.64,41.95,139.53,42.31z"/>
					</g>
					<g>
						<path class="st8" d="M148.88,49.29c-6.38-4.27-10.05-11.13-17.09-14.59c-4.94-2.43-6-3.22-11.32-1.44
							c2.04-2.26,8.4-6.4,11.28-6.68c0.74-0.07,1.51-0.08,2.21,0.12c0.67,0.19,1.23,0.56,1.77,0.95c5.6,3.98,9.34,9.46,13.88,14.31
							c0.52,0.55,1.07,1.11,1.8,1.44c1.86,0.85,4.84-0.17,2.66,2.27C152.72,47.2,150.93,48.45,148.88,49.29z"/>
					</g>
				</g>
				<g>
					<g>
						<path class="st5" d="M188.99,42.17c-0.73,3.66-3.37,7.18-7.41,8.67c-1.6,0.59-3.35,0.85-5.1,0.95
							c-1.15,0.07-2.33,0.07-3.46-0.14c-1.92-0.36-3.65-1.37-4.74-2.74c-0.11-0.14-0.22-0.3-0.25-0.47
							c-0.02-0.2,0.07-0.39,0.16-0.58c0.89-1.76,1.78-3.53,2.96-5.17c2.57-3.57,6.53-6.43,11.11-8.03c1.19-0.41,2.51-0.81,3.21-1.72
							c0.52-0.68,0.83-1.97,1.85-1.12c0.76,0.63,1.02,2.47,1.26,3.33C189.23,37.45,189.46,39.84,188.99,42.17z"/>
					</g>
					<g>
						<path class="st6" d="M181.59,41.95c0.25,3.05-1.83,5.81-5.62,6.12c-0.47,0.04-0.95,0.08-1.42,0.06
							c-1.21-0.05-2.39-0.5-3.23-1.24c-0.07-0.06-0.14-0.12-0.17-0.2c-0.02-0.07-0.01-0.15,0-0.23c0.33-1.71,1.02-3.38,2.17-4.81
							c1.14-1.43,2.75-2.63,4.65-3.28c0.4-0.13,1.09-0.39,1.51-0.2c0.4,0.17,0.76,0.75,0.99,1.06
							C181.07,40.06,181.51,40.99,181.59,41.95z"/>
					</g>
					<g>
						<path class="st7" d="M178.06,42.31c0.2,0.72,0.25,1.49,0,2.2c-0.25,0.71-0.84,1.36-1.65,1.65c-0.53,0.19-1.13,0.21-1.7,0.23
							c-0.24,0.01-0.49,0.01-0.73-0.04c-0.53-0.11-0.94-0.47-1.31-0.81c-0.05-0.05-0.11-0.1-0.12-0.17
							c-0.01-0.05,0.01-0.1,0.04-0.15c0.44-0.94,1.04-1.84,1.81-2.62c0.38-0.4,0.82-0.76,1.29-1.08c0.34-0.23,1.01-0.77,1.47-0.76
							C177.7,40.76,177.96,41.95,178.06,42.31z"/>
					</g>
					<g>
						<path class="st8" d="M168.24,49.56c6.48-4.33,18.88-18.89,28.77-17.63c-2.08-2.28-8.44-5.07-11.37-5.35
							c-0.75-0.07-1.53-0.08-2.25,0.12c-0.68,0.19-1.25,0.57-1.8,0.96c-5.7,4.03-9.49,9.58-14.11,14.48
							c-0.53,0.56-1.08,1.12-1.83,1.46c-1.89,0.86-4.92-0.17-2.7,2.29C164.34,47.44,166.16,48.71,168.24,49.56z"/>
					</g>
				</g>
			</g>
		</g>
	</g>
</g>
</svg>
