<?xml version="1.0" encoding="utf-8"?>
<!-- Generator: Adobe Illustrator 23.0.3, SVG Export Plug-In . SVG Version: 6.00 Build 0)  -->
<svg version="1.1" id="圖層_1" xmlns="http://www.w3.org/2000/svg" xmlns:xlink="http://www.w3.org/1999/xlink" x="0px" y="0px"
	 viewBox="0 0 129.88 230" style="enable-background:new 0 0 129.88 230;" xml:space="preserve">
<style type="text/css">
	.st0{fill:#785030;}
	.st1{fill:#573620;}
	.st2{fill:#E4A763;}
	.st3{opacity:0.05;fill:#040000;}
	.st4{fill:#956035;}
	.st5{fill:none;stroke:#F9D7AC;stroke-width:2.7545;stroke-linecap:round;stroke-miterlimit:10;}
	.st6{fill:#F6BB6B;}
	.st7{fill:none;stroke:#F9D7AC;stroke-width:3.9736;stroke-linecap:round;stroke-miterlimit:10;}
	.st8{fill:#EB6A6A;}
	
		.st9{clip-path:url(#SVGID_2_);fill:none;stroke:#F6BB6B;stroke-width:3.9736;stroke-linecap:round;stroke-linejoin:round;stroke-miterlimit:10;}
	.st10{fill:#B87B45;}
	.st11{fill:#CC8D4F;}
	.st12{fill:#FAE3BE;}
	.st13{fill:#8F5D25;}
	.st14{fill:none;stroke:#8F5D25;stroke-width:0.6984;stroke-miterlimit:10;}
	.st15{opacity:0.08;fill:#E5E5E5;}
	.st16{fill:#CBCBCB;}
	.st17{fill:#FFFFFF;}
	.st18{fill:#1A1A1A;}
	.st19{fill:#F1F1F1;}
</style>
<g>
	<g>
		<path class="st0" d="M105.33,195.36c0,0-3,26.55-1.19,34.29l-9.65-0.48c0,0-7.84-24.85-7.33-33.62
			C87.68,186.77,105.33,195.36,105.33,195.36z"/>
		<path class="st0" d="M44.3,203.74c0,0,1.92,16.12,1.04,20.85l5.17-0.41c0,0,3.92-15.21,3.54-20.55
			C53.68,198.3,44.3,203.74,44.3,203.74z"/>
		<path class="st0" d="M90.54,203.53c0,0-1.64,16.16-0.63,20.87l-5.32-0.3c0,0-4.34-15.13-4.06-20.47
			C80.8,198.3,90.54,203.53,90.54,203.53z"/>
		<path class="st1" d="M32.92,195.69c0,0,2.16,26.61,0.24,34.31l9.13-0.26c0,0,8.05-24.66,7.79-33.44
			C49.81,187.52,32.92,195.69,32.92,195.69z"/>
		<path class="st1" d="M36.58,177.89c1.2,2.06,2.16,3.28,2.16,3.28c-1.18,8.09,0.84,11.44,1.28,12.06c-0.46-0.58-2.78-3.05-5.7,1.54
			c-3.26,5.13,1.67,7.76,1.67,7.76c-0.73,1.34,1.35,2.33,2.38,2.73c-1.58-0.26-2.14,2.36-2.14,2.36c3.48,7.48,10.91-0.27,10.91-0.27
			c9.68-9.64,9.26-23.9,9.26-23.9c9.58,4.64,13.34,3.36,13.34,3.36c1.45,8.6,8.04,10.32,8.04,10.32c-6.23,5.65,1.61,6.55,1.37,6.82
			c-0.25,0.27-6.09,3.1,0.24,5.09c6.34,1.99,8.59-5.26,8.59-5.26c3.48-8.72,5.59-28.02,5.49-30.99
			C73.88,171.81,56.2,177.25,36.58,177.89z"/>
		<g>
			<path class="st2" d="M105.37,167.82c0,0,18.93-0.48,17.79-13.19c0,0,17.42-17.72-3.84-26c0,0-2.98-10.59-9.34-0.27L105.37,167.82
				z"/>
			<path class="st3" d="M111.78,142.61c5.88-2.59,12.49-1.86,17.66,1.32c1.35-5.29-0.01-11.36-10.11-15.29c0,0-2.98-10.59-9.34-0.27
				l-1.92,16.43C109.19,143.94,110.43,143.2,111.78,142.61z"/>
		</g>
		<g>
			<path class="st2" d="M27.25,125.34c0,0-18.88-1.48-19.06,11.28c0,0-19.16,15.82,1.12,26.25c0,0,1.86,10.84,9.27,1.24
				L27.25,125.34z"/>
			<path class="st3" d="M18.27,149.76c-6.12,1.96-12.62,0.56-17.43-3.14c-1.89,5.12-1.17,11.3,8.48,16.26c0,0,1.86,10.84,9.27,1.24
				l3.61-16.14C20.98,148.7,19.67,149.31,18.27,149.76z"/>
		</g>
		<path class="st4" d="M58.52,113.85c0,0-18.27,0.43-17.4,10c-16.53-6.52-16.53,8.7-16.53,8.7s-9.13,3.91-5.22,14.35
			c-17.4,1.74-15.66,24.35-0.87,23.92c-1.74,2.61-1.74,15.22,11.31,9.57c-3.91,3.48,4.35,12.18,16.53,3.91
			c4.35,4.78,6.09,6.09,15.66-0.87c7.39,9.57,17.4,9.13,24.35,4.78c11.31,3.48,20.87-0.43,22.61-10c5.22-2.17,7.39-3.48,3.91-13.92
			c9.13-3.48-4.78-6.09-2.61-20.87c2.17-14.79-6.96-13.05-6.96-13.05s5.65-11.31-4.35-10.44c4.35-6.09-12.61-10.87-20.44-7.39
			C77.65,116.9,74.61,102.98,58.52,113.85z"/>
		<g>
			<line class="st5" x1="32.02" y1="149.11" x2="28.07" y2="155.87"/>
			<line class="st5" x1="27.87" y1="146.1" x2="21.9" y2="151.31"/>
			<line class="st5" x1="25.1" y1="140.87" x2="18.21" y2="144.95"/>
			<line class="st5" x1="21.11" y1="134.31" x2="14.48" y2="138.75"/>
			<line class="st5" x1="17.17" y1="127.72" x2="10.53" y2="132.16"/>
			<g>
				<g>
					<g>
						<path class="st6" d="M66.67,168.47c2.56,0,2.56-3.97,0-3.97C64.11,164.5,64.1,168.47,66.67,168.47L66.67,168.47z"/>
					</g>
				</g>
				<g>
					<g>
						<path class="st6" d="M101.83,150.67c2.56,0,2.56-3.97,0-3.97C99.28,146.7,99.27,150.67,101.83,150.67L101.83,150.67z"/>
					</g>
				</g>
				<g>
					<g>
						<path class="st6" d="M107.79,134.05c2.56,0,2.56-3.97,0-3.97C105.23,130.08,105.23,134.05,107.79,134.05L107.79,134.05z"/>
					</g>
				</g>
				<g>
					<g>
						<path class="st6" d="M111.82,118.97c2.56,0,2.56-3.97,0-3.97C109.26,115,109.26,118.97,111.82,118.97L111.82,118.97z"/>
					</g>
				</g>
				<line class="st7" x1="110.09" y1="116.44" x2="121.83" y2="118.29"/>
				<line class="st7" x1="108.87" y1="122.94" x2="120.17" y2="126.64"/>
				<line class="st7" x1="107.54" y1="129.81" x2="118.65" y2="134.01"/>
				<line class="st7" x1="104.89" y1="135.51" x2="115.52" y2="140.78"/>
				<line class="st7" x1="102.48" y1="142.09" x2="112.85" y2="147.82"/>
				<line class="st7" x1="98.45" y1="148.03" x2="107.73" y2="155.28"/>
				<line class="st7" x1="94.62" y1="153.94" x2="103.55" y2="161.59"/>
				<line class="st7" x1="89.17" y1="157.18" x2="96.21" y2="166.44"/>
				<line class="st7" x1="83.83" y1="161.89" x2="90.42" y2="171.44"/>
				<line class="st7" x1="79.53" y1="163.54" x2="82.79" y2="174.48"/>
				<line class="st7" x1="72.85" y1="164.25" x2="73.99" y2="175.51"/>
				<line class="st7" x1="66.17" y1="163.56" x2="64.8" y2="174.73"/>
				<line class="st7" x1="57.81" y1="163.09" x2="57.38" y2="174.35"/>
				<line class="st7" x1="53.24" y1="162" x2="49.21" y2="172.5"/>
				<line class="st7" x1="47.28" y1="158.83" x2="41.3" y2="168.41"/>
				<line class="st7" x1="41.5" y1="154.03" x2="34.87" y2="163.2"/>
				<path class="st8" d="M15.1,121.99c0,0,6.38,44.41,51.63,48.44c45.25,4.03,49.46-56.23,49.46-56.23S40.18,84.38,15.1,121.99z"/>
				<path class="st6" d="M36.75,127.51c7.09,14.22,17.37,21.73,31.39,22.98c7.98,0.7,19.63-1.09,28.64-24.7
					c2.12-5.56,3.67-11.26,4.78-16.34c-18.22-5.12-49.58-11.21-71.12-0.68C31.36,113.27,33.22,120.41,36.75,127.51z"/>
				<path class="st8" d="M40.72,105.37c0.07,0.76,0.15,1.72,0.21,2.22c0.18,1.39,4.66,23.21,25.79,25.14
					c21.13,1.93,26.02-23.99,26.61-25.4c-15.25-3.6-35.55-6.46-52.62-2.23C40.72,105.19,40.72,105.28,40.72,105.37z"/>
				<g>
					<defs>
						<path id="SVGID_1_" d="M15.1,121.99c0,0,6.38,44.41,51.63,48.44c45.25,4.03,49.46-56.23,49.46-56.23S40.18,84.38,15.1,121.99z
							"/>
					</defs>
					<clipPath id="SVGID_2_">
						<use xlink:href="#SVGID_1_"  style="overflow:visible;"/>
					</clipPath>
					<polyline class="st9" points="14.73,114.28 29.75,118.24 24.21,131.03 34.18,131.95 31.15,141.28 41.78,142.26 40.95,153.6 
						53.61,150.45 58.12,162.96 66.37,155.08 76.51,164.66 84.21,151.96 98.15,156.29 92.81,143.81 104.59,140.27 100.18,128.42 
						111.1,124.86 104.02,115.63 112.37,107.35 					"/>
				</g>
				<g>
					<g>
						<path class="st6" d="M37.4,139.38c2.56,0,2.56-3.97,0-3.97C34.84,135.41,34.84,139.38,37.4,139.38L37.4,139.38z"/>
					</g>
				</g>
				<g>
					<g>
						<path class="st6" d="M45.96,148.97c2.56,0,2.56-3.97,0-3.97C43.4,144.99,43.4,148.97,45.96,148.97L45.96,148.97z"/>
					</g>
				</g>
				<g>
					<g>
						<path class="st6" d="M48.92,161.04c2.56,0,2.56-3.97,0-3.97C46.36,157.07,46.36,161.04,48.92,161.04L48.92,161.04z"/>
					</g>
				</g>
				<g>
					<g>
						<path class="st6" d="M61.27,155.74c2.56,0,2.56-3.97,0-3.97C58.71,151.77,58.71,155.74,61.27,155.74L61.27,155.74z"/>
					</g>
				</g>
				<g>
					<g>
						<path class="st6" d="M75.85,157.08c2.56,0,2.56-3.97,0-3.97C73.29,153.11,73.29,157.08,75.85,157.08L75.85,157.08z"/>
					</g>
				</g>
				<g>
					<g>
						<path class="st6" d="M87.44,162.23c2.56,0,2.56-3.97,0-3.97C84.89,158.25,84.88,162.23,87.44,162.23L87.44,162.23z"/>
					</g>
				</g>
				<g>
					<g>
						<path class="st6" d="M88.52,150.52c2.56,0,2.56-3.97,0-3.97C85.97,146.55,85.96,150.52,88.52,150.52L88.52,150.52z"/>
					</g>
				</g>
				<g>
					<g>
						<path class="st6" d="M97.08,138.43c2.56,0,2.56-3.97,0-3.97C94.52,134.46,94.52,138.43,97.08,138.43L97.08,138.43z"/>
					</g>
				</g>
				<g>
					<g>
						<path class="st6" d="M103.6,123.37c2.56,0,2.56-3.97,0-3.97C101.04,119.39,101.04,123.37,103.6,123.37L103.6,123.37z"/>
					</g>
				</g>
				<g>
					<g>
						<path class="st8" d="M40.32,126.32c5.11,0,5.12-7.95,0-7.95C35.21,118.37,35.2,126.32,40.32,126.32L40.32,126.32z"/>
					</g>
				</g>
				<g>
					<g>
						<path class="st8" d="M45.46,134.01c5.11,0,5.12-7.95,0-7.95C40.34,126.06,40.33,134.01,45.46,134.01L45.46,134.01z"/>
					</g>
				</g>
				<g>
					<g>
						<path class="st8" d="M54.22,141.5c5.11,0,5.12-7.95,0-7.95C49.1,133.55,49.1,141.5,54.22,141.5L54.22,141.5z"/>
					</g>
				</g>
				<g>
					<g>
						<path class="st8" d="M63.81,145.45c5.11,0,5.12-7.95,0-7.95C58.69,137.5,58.68,145.45,63.81,145.45L63.81,145.45z"/>
					</g>
				</g>
				<g>
					<g>
						<path class="st8" d="M75.51,143.82c5.11,0,5.12-7.95,0-7.95C70.4,135.87,70.39,143.82,75.51,143.82L75.51,143.82z"/>
					</g>
				</g>
				<g>
					<g>
						<path class="st8" d="M84.51,137.6c5.11,0,5.12-7.95,0-7.95C79.4,129.66,79.39,137.6,84.51,137.6L84.51,137.6z"/>
					</g>
				</g>
				<g>
					<g>
						<path class="st8" d="M90.39,129.84c5.11,0,5.12-7.95,0-7.95C85.28,121.89,85.27,129.84,90.39,129.84L90.39,129.84z"/>
					</g>
				</g>
				<g>
					<g>
						<path class="st8" d="M94.35,119.92c5.11,0,5.12-7.95,0-7.95C89.23,111.97,89.22,119.92,94.35,119.92L94.35,119.92z"/>
					</g>
				</g>
			</g>
		</g>
		<g>
			<path class="st10" d="M56.03,68.21c0,0,2.09,48.85-5.08,64.28s-18.58,32.85-1.16,37.66c17.42,4.81,34.25,10.81,39.05-16.22
				s1.8-70.29,0-82.91s7.21-19.23-6.01-25.23s-22.06-6.47-24.55,3.37C55.81,59,56.03,68.21,56.03,68.21z"/>
			<path class="st3" d="M71.43,63.81c0,0-5.41,15.02-4.81,24.63c0.6,9.61,12.62,21.63,4.81,31.24s-19.83,18.62-14.42,27.04
				s9.01,24.63,16.82,17.42s15.02-58.88,10.21-75.7c-4.81-16.82-3.6-28.84-8.41-33.04S71.43,63.81,71.43,63.81z"/>
		</g>
		<g>
			<g>
				<path class="st11" d="M47.43,55.74c0,0-10,17.96-2.35,15.3c0,0,0.19,20.95,15.98,11.8s11.88-29.45,11.88-29.45L47.43,55.74z"/>
				<path class="st11" d="M98.86,55.74c0,0,10,17.96,2.35,15.3c0,0-0.19,20.95-15.97,11.8c-15.79-9.16-11.88-29.45-11.88-29.45
					L98.86,55.74z"/>
				<path class="st11" d="M83.45,28.34c0,0,14.57-30.84,17.23-28.18c2.66,2.66-0.17,18.13-0.17,18.13s7.3-1.26-4.51,11.31
					C84.19,42.17,83.45,28.34,83.45,28.34z"/>
				<path class="st11" d="M62.41,28.34c0,0-14.57-30.84-17.23-28.18c-2.66,2.66-0.98,17.28-0.98,17.28s-6.14-0.4,5.66,12.16
					C61.67,42.17,62.41,28.34,62.41,28.34z"/>
				<path class="st12" d="M75.44,91.39c0,0-15.27-1.2-14.47-10.45c0.8-9.24,4.82-18.08,11.65-18.49c6.83-0.4,13.66,8.44,12.06,18.08
					C83.07,90.18,78.18,91.79,75.44,91.39z"/>
				<path class="st2" d="M99.37,36.58c6.15-6.22-10.18-9.85-10.18-9.85c4.39-9.57-5.84-5.06-11.15-2.25
					c-1.18-3.86-1.57-8.43-5.11-7.92c-2.71,0.87-2.82,4.01-4.09,7.51c-5.13-3.02-15.45-8.19-11.41,1.67c0,0-16.47,2.94-10.59,9.41
					c0,0-10.77,10.59-1.27,11.17c0,0-5.79,15.88,7.15,10.59c0,0-1.66,7.87,3.06,9.94c4.38,2.49,14.29-2.42,17.05-3.88
					c1.62,0.92,4.56,2.49,7.65,3.59c14.67,6.7,12.11-8.49,12.11-8.49c12.7,5.83,7.59-10.28,7.59-10.28
					C109.69,47.61,99.37,36.58,99.37,36.58z"/>
				<g>
					<path class="st3" d="M44,42.04c-0.83,0.34-1.57,0.59-2.25,0.76c-0.29,1.44,0.15,2.66,2,3.22C43.61,43.89,44,42.04,44,42.04z"/>
					<path class="st3" d="M99.37,36.58c3.49-3.53-0.26-6.22-4.16-7.89c0.71,2.23,0.16,4.15-3.77,4.23c0,0,5.12,16.11-7.59,10.28
						c0,0,2.56,15.19-12.11,8.49c-3.08-1.1-6.03-2.67-7.65-3.59c-2.76,1.46-12.66,6.37-17.05,3.88c-1.13-0.49-1.89-1.32-2.4-2.29
						c-0.87,4.34-0.95,10.92,8.06,7.23c0,0-1.66,7.87,3.06,9.94c4.38,2.49,14.29-2.42,17.05-3.88c1.62,0.92,4.56,2.49,7.65,3.59
						c14.67,6.7,12.11-8.49,12.11-8.49c12.7,5.83,7.59-10.28,7.59-10.28C109.69,47.61,99.37,36.58,99.37,36.58z"/>
				</g>
				<g>
					<path class="st13" d="M67.45,71.63c0,0,4.59,5.53,6.5,4.42c2.39-1.39,5.28-5.01,5.28-5.01l-5.89,2.65L67.45,71.63z"/>
					<g>
						<path class="st13" d="M64.21,78.37c2.46,2.46,5.61,3.88,8.85,3.77c1.62-0.07,3.28-0.31,4.77-0.95
							c1.5-0.62,2.88-1.63,3.83-3.09c-0.43,1.72-1.77,3.17-3.35,4.05c-1.59,0.94-3.41,1.28-5.22,1.38
							c-0.91,0.02-1.83-0.08-2.73-0.29c-0.88-0.24-1.75-0.56-2.53-1.04C66.27,81.28,64.96,79.95,64.21,78.37z"/>
					</g>
					<line class="st14" x1="73.34" y1="75.2" x2="73.34" y2="82.84"/>
				</g>
			</g>
			<polygon class="st15" points="61.9,51.9 103.89,42.94 90.89,59.58 			"/>
		</g>
		<path class="st4" d="M30.74,180.2c1.69,2.04,3.07,3.24,3.07,3.24c-1.89,8.13,0.97,11.44,1.6,12.05c-0.65-0.57-3.97-2.99-8.32,1.66
			c-4.86,5.21,2.26,7.73,2.26,7.73c-1.09,1.36,1.91,2.3,3.41,2.68c-2.29-0.22-3.16,2.41-3.16,2.41c4.9,7.42,15.87-0.51,15.87-0.51
			c14.28-9.86,13.98-24.13,13.98-24.13c13.83,4.44,19.32,3.07,19.32,3.07c1.92,8.58,11.46,10.16,11.46,10.16
			c-9.18,5.8,2.2,6.52,1.84,6.8c-0.36,0.27-8.93,3.23,0.24,5.09c9.17,1.86,12.6-5.45,12.6-5.45c5.25-8.8,8.74-28.18,8.66-31.14
			C85.11,173.3,59.29,179.13,30.74,180.2z"/>
		<path class="st10" d="M58.26,156.68c-6.76-0.13-9.84-0.35-19.25,8.92s1.29,12.75,4.84,10.95c-4.15,13.74,5.75,6.9,9.29,5.1
			c3.43,12.56,12.61,4.3,14.93-1.35c3.94,3.35,10.85-6.43,9.27-10.99"/>
	</g>
	<g>
		<g>
			<circle class="st16" cx="56.3" cy="54.87" r="11.45"/>
			<circle class="st17" cx="56.6" cy="55.17" r="7.63"/>
		</g>
		<g>
			<ellipse class="st18" cx="56.37" cy="55.08" rx="7.98" ry="7.84"/>
			<ellipse class="st19" cx="54.36" cy="51.79" rx="4.18" ry="4.1"/>
		</g>
	</g>
	<g>
		<g>
			<circle class="st16" cx="88.74" cy="54.87" r="11.45"/>
			<circle class="st17" cx="89.03" cy="55.17" r="7.63"/>
		</g>
		<g>
			<ellipse class="st18" cx="88.81" cy="55.08" rx="7.98" ry="7.84"/>
			<ellipse class="st19" cx="86.79" cy="51.79" rx="4.18" ry="4.1"/>
		</g>
	</g>
</g>
</svg>
