<?xml version="1.0" encoding="utf-8"?>
<!-- Generator: Adobe Illustrator 23.0.3, SVG Export Plug-In . SVG Version: 6.00 Build 0)  -->
<svg version="1.1" id="圖層_1" xmlns="http://www.w3.org/2000/svg" xmlns:xlink="http://www.w3.org/1999/xlink" x="0px" y="0px"
	 viewBox="0 0 155.18 230" style="enable-background:new 0 0 155.18 230;" xml:space="preserve">
<style type="text/css">
	.st0{opacity:0.1;fill:#FFFFFF;}
	.st1{fill:#546F31;}
	.st2{fill:#F9D8AC;}
	.st3{fill:#2F381A;}
	.st4{opacity:0.1;fill:#2F381A;}
	.st5{opacity:0.2;fill:#748E30;}
	.st6{opacity:0.4;fill:#485629;}
	.st7{opacity:0.1;fill:#040000;}
	.st8{fill:#4B602D;}
	.st9{fill:#EACBA1;}
	.st10{opacity:0.2;fill:#222911;}
	.st11{fill:#222911;}
	.st12{opacity:0.2;fill:#678032;}
	.st13{fill:#50672F;}
	.st14{fill:#F1D1A6;}
	.st15{opacity:0.2;fill:#282F15;}
	.st16{fill:#282F15;}
	.st17{opacity:0.2;fill:#6E8731;}
	.st18{opacity:0.1;fill:#282F15;}
	.st19{fill:#51652E;}
	.st20{fill:#485629;}
	.st21{opacity:0.5;fill:#51652E;}
	.st22{fill:#FFFDF8;}
	.st23{fill:#131413;}
	.st24{opacity:0.5;fill:#FFFDF8;}
	.st25{fill:#586D37;}
	.st26{fill:#C9A374;}
	.st27{fill:#CE233D;}
	.st28{fill:#422D1E;}
	.st29{fill:#634839;}
	.st30{fill:#2C1A11;}
</style>
<g>
	<path class="st0" d="M53.5,122.33c-1.43,5.2,1.44,10.48,2.64,15.73c0.53,2.34,0.74,4.75,0.61,7.14c-0.08,1.56-0.31,3.12-0.15,4.67
		c0.17,1.55,0.79,3.14,2.06,4.04c1.29,0.92,3.16,0.95,4.47,0.06c1.71-1.15,2.26-3.43,2.25-5.49c-0.01-2.55-0.64-5.1-1.84-7.35
		c-0.97-1.84-2.31-3.48-3.13-5.39c-1.21-2.84-1.19-6.05-0.83-9.11c0.2-1.69,0.48-3.48-0.19-5.04
		C58.05,118.41,54.3,119.41,53.5,122.33z"/>
	<g>
		<path class="st1" d="M104.64,215.62c-16.14,11.6-28.35,13.68-37.13,12.09c-4-0.73-7.29-2.21-9.91-3.9
			c-5.65-3.62-8.23-8.19-8.23-8.19c3.65-1.76,6.43-4.41,8.47-7.75v-0.01c1.37-2.23,2.42-4.77,3.2-7.56
			c2.1-7.54,2.21-16.86,1.34-26.76c-0.13-1.43-0.27-2.86-0.44-4.32c-0.82-7.37-2.11-14.94-3.43-22.25c-0.27-1.45-0.53-2.9-0.79-4.32
			c-1.34-7.2-2.64-14.01-3.51-19.97c-0.08-0.56-0.16-1.11-0.23-1.65c-0.12-0.89-0.21-1.79-0.26-2.68
			c-0.26-4.61,0.36-9.29,1.58-13.92c0.23-0.87,0.49-1.74,0.76-2.61c3.43-10.91,9.99-21.33,15.99-29.31
			c6.83-9.08,12.94-15.03,12.94-15.03h8.91c0,0-3.3,6.13-11.02,18.58c-0.06,0.1-0.12,0.19-0.18,0.29c-1.04,1.68-2.16,3.48-3.36,5.38
			C69.07,98.02,68.1,126.57,94.2,152.37S104.64,215.62,104.64,215.62z"/>
		<path class="st2" d="M104.64,215.62c-4,2.88-7.76,5.16-11.28,6.95c-10.7,5.45-19.24,6.33-25.85,5.13
			c9.16-20.41,4.18-64.97-2.97-100.99c-8.91-44.83,18.33-50.65,18.33-50.65c-0.5,0.81-1.02,1.64-1.55,2.51
			c-0.64,1.02-1.3,2.07-1.99,3.17C69.07,98.02,68.1,126.57,94.2,152.37C120.3,178.16,104.64,215.62,104.64,215.62z"/>
		<path class="st3" d="M70.94,203.72c-4.1-0.24-9.73,2.35-13.1,4.15c1.38-2.23,2.42-4.77,3.2-7.56
			C67.26,200.55,70.94,203.72,70.94,203.72z"/>
		<path class="st3" d="M69.77,171.42c-2.25-0.13-5.21,1.05-7.39,2.13c-0.13-1.43-0.27-2.87-0.44-4.32
			C66.83,168.88,69.77,171.42,69.77,171.42z"/>
		<path class="st3" d="M65.99,144.81c-2.28-0.13-5.3,1.08-7.48,2.17c-0.26-1.45-0.53-2.89-0.79-4.32
			C62.86,142.11,65.99,144.81,65.99,144.81z"/>
		<path class="st3" d="M61.67,122.08c-2.13-0.54-5.15,0-7.47,0.62c-0.08-0.56-0.16-1.11-0.23-1.65c-0.12-0.89-0.21-1.79-0.26-2.68
			C59.04,118.72,61.67,122.08,61.67,122.08z"/>
		<path class="st3" d="M59.69,104.47c-1.26-0.32-2.84-0.26-4.4-0.03c0.23-0.87,0.48-1.75,0.76-2.61
			C58.48,102.93,59.69,104.47,59.69,104.47z"/>
		<path class="st4" d="M104.64,215.62c-4,2.88-7.76,5.16-11.28,6.95c-0.63-3.8-0.28-7.94-0.04-11.83c0.42-6.7,0.3-13.45-0.74-20.08
			c-2.48-15.85-10.07-30.35-16.22-45.16c-6.15-14.82-10.99-31.07-7.61-46.75c1.19-5.52,5.9-17.03,12.58-20.18
			c-0.64,1.02-1.3,2.07-1.99,3.17C69.07,98.02,68.1,126.57,94.2,152.37C120.3,178.16,104.64,215.62,104.64,215.62z"/>
		<path class="st5" d="M57.49,113.51c0.56,21.65,18.09,79.93,0.11,110.31c-5.65-3.62-8.23-8.2-8.23-8.2
			c3.66-1.76,6.43-4.41,8.47-7.75v0c1.38-2.23,2.42-4.77,3.2-7.56c2.1-7.53,2.21-16.86,1.34-26.76c-0.13-1.43-0.27-2.87-0.44-4.32
			c-0.83-7.37-2.11-14.95-3.44-22.25c-0.26-1.45-0.53-2.89-0.79-4.32c-1.34-7.19-2.64-14.01-3.51-19.96
			c-0.08-0.56-0.16-1.11-0.23-1.65c-0.12-0.89-0.21-1.79-0.26-2.68c-0.26-4.61,0.36-9.29,1.58-13.92c0.23-0.87,0.48-1.75,0.76-2.61
			c7.33-23.31,28.93-44.35,28.93-44.35h1.24C77.78,67.81,57.02,95.15,57.49,113.51z"/>
	</g>
	<path class="st6" d="M93.89,57.48c0,0-3.3,6.13-11.02,18.58c-0.06,0.1-0.12,0.19-0.18,0.29c-4.11-0.63-7.78-1.99-10.65-3.84
		c6.83-9.08,12.94-15.03,12.94-15.03H93.89z"/>
	<g>
		<path class="st1" d="M137.71,98.48c0.84,1.46,0.66,4.03-3.82,8.35c-6.18,5.96-0.98,14.15,2.34,18.2c2.63,3.2,4.71,6.83,5.95,10.77
			c2.99,9.52,3.56,24.54-19.21,30.24l-3.08-2.61l-0.94-0.8l-9.29-7.86l-5.78-4.89c0,0,9.19,0.12,14.09-6.06
			c1.26-1.59,2.24-3.6,2.7-6.14c0.1-0.54,0.17-1.1,0.22-1.68c0.27-3.24,0.2-7.15,0.14-11.22c-0.03-2.19-0.06-4.42-0.01-6.62
			c0.18-9.65,1.6-18.76,9.12-20.97c1.48-0.44,3.21-0.61,5.22-0.46c0,0,1.05,0.29,1.85,1.11C137.41,98.03,137.57,98.24,137.71,98.48z
			"/>
		<path class="st2" d="M137.71,98.48c0.35,0.62,0.53,1.43,0.27,2.49c-0.34,1.46-1.5,3.37-4.09,5.87c-6.18,5.96-0.98,14.15,2.34,18.2
			c2.63,3.2,4.71,6.83,5.95,10.77c2.99,9.52,3.56,24.54-19.21,30.24l-1.95-1.66l-1.13-0.96l-0.94-0.8
			c4.62-2.36,8.44-6.26,10.67-10.94c2.45-5.15,2.94-11.21,1.37-16.7c-0.69-2.39-1.75-4.65-2.62-6.98
			c-1.67-4.44-2.68-9.13-2.98-13.87c-0.12-1.93-0.11-3.96,0.76-5.69c0.63-1.25,1.66-2.24,2.67-3.21
			C131.5,102.69,134.42,100.03,137.71,98.48z"/>
		<path class="st7" d="M137.98,100.97c-0.34,1.46-1.5,3.37-4.09,5.87c-6.18,5.96-0.98,14.15,2.34,18.2
			c2.63,3.2,4.71,6.83,5.95,10.77c2.99,9.52,3.56,24.54-19.21,30.24l-1.95-1.66c3.28-1.48,6.47-3.17,9.23-5.47
			c3.17-2.64,5.75-6.15,6.64-10.18c1.22-5.57-0.86-11.26-2.67-16.67c-2.08-6.22-3.84-12.55-5.27-18.95
			c-0.23-1.02-0.44-2.08-0.21-3.1c0.24-1.02,0.92-1.88,1.61-2.67c2.08-2.37,4.5-4.43,7.16-6.12
			C137.67,101.14,137.82,101.05,137.98,100.97z"/>
		<path class="st3" d="M127.91,149.62c-1.71-2.1-6.54-4.37-9.93-5.79c1.26-1.59,2.24-3.6,2.7-6.14
			C124.71,141.85,127.91,149.62,127.91,149.62z"/>
		<path class="st3" d="M121.04,118.18c3.5,4.3,6.13,10.69,6.13,10.69c-1.12-1.38-3.6-2.83-6.12-4.07
			C121.02,122.61,120.99,120.38,121.04,118.18z"/>
		<path class="st5" d="M130.16,97.21c-0.06,0.73-0.37,1.5-0.74,2.12c-1.65,2.78-4.02,5.13-5.35,8.08
			c-1.43,3.21-1.51,6.87-1.11,10.36c0.4,3.49,1.24,6.93,1.56,10.43c0.4,4.51-0.09,9.09-1.44,13.42c-0.45,1.42-0.98,2.82-1.82,4.06
			c-0.95,1.41-2.26,2.55-3.55,3.66c-2,1.72-5.07,4.56-8.05,5.45l-5.78-4.89c0,0,9.19,0.12,14.09-6.06c1.26-1.59,2.24-3.6,2.7-6.14
			c0.1-0.54,0.17-1.1,0.22-1.68c0.27-3.24,0.2-7.15,0.14-11.22c-0.03-2.19-0.06-4.42-0.01-6.62
			C121.22,108.53,122.64,99.42,130.16,97.21z"/>
	</g>
	<g>
		<path class="st8" d="M117.92,165.27c-0.72,0.43-1.45,0.84-2.19,1.23c-23.3,12.37-56.38,6.66-70.37,3.28
			c-2.53-0.61-4.44-1.15-5.55-1.48c-7.43-2.26-12.3-12.93-5.44-21.12c0.08-0.1,0.16-0.19,0.25-0.28c3.95-4.34,10.38-2.93,15.22-0.9
			c3.16,1.33,5.64,2.93,6.29,3.36c0.11,0.07,0.17,0.11,0.17,0.11s6.48,2.93,18.49,2.9h0c2.1-0.01,4.38-0.1,6.82-0.32
			c6.15-0.55,13.34-1.87,21.5-4.48c2.32-0.74,4.73-1.59,7.21-2.55c0,0,0.01,0,0.01,0c2.5-0.97,4.94-1,7.1-0.36
			C125.35,147.02,129.41,158.4,117.92,165.27z"/>
		<path class="st9" d="M115.73,166.51c-23.3,12.37-56.38,6.66-70.37,3.28c-1.17-1.44-2.04-3.19-2.35-5.18
			c-0.19-1.24-0.05-2.71,0.83-3.47c0.59-0.51,1.37-0.59,2.11-0.58c4.74,0.02,9.16,2.47,13.67,4.13c8.85,3.27,18.62,3.53,27.45,0.09
			c4.96-1.93,9.58-4.99,14.66-6.43c2.59-0.74,5.35-1.04,7.91-0.2c2.56,0.83,4.91,2.95,5.75,5.87
			C115.63,164.83,115.74,165.67,115.73,166.51z"/>
		<path class="st10" d="M117.99,159.81c-0.72,0.43-1.45,0.84-2.19,1.23c-23.3,12.37-56.38,6.66-70.37,3.28
			c-2.53-0.61-4.44-1.15-5.55-1.48c-4.18-1.27-7.54-5.2-8.47-9.85c-1.57,6.78,2.65,13.57,8.4,15.32c1.11,0.34,3.02,0.87,5.55,1.48
			c13.99,3.38,47.07,9.09,70.37-3.28c0.74-0.39,1.47-0.8,2.19-1.23c6.34-3.79,7.95-8.95,6.78-13.22
			C123.86,154.81,121.77,157.55,117.99,159.81z"/>
		<path class="st11" d="M56.12,149.38c-4.74,3.32-9.56,8.22-9.56,8.22c0.25-2.22,1.92-7.55,3.27-11.58
			C53,147.35,55.47,148.95,56.12,149.38z"/>
		<path class="st11" d="M81.59,152.08c-3.51,5.11-7.57,12.08-7.57,12.08c-0.32-3.71,0.16-8.26,0.76-11.76h0
			C76.88,152.39,79.16,152.3,81.59,152.08z"/>
		<path class="st11" d="M111.24,156.84c-0.36-2.28-4.66-6.31-8.15-9.24c2.32-0.74,4.73-1.59,7.21-2.55
			C111.29,150.25,111.24,156.84,111.24,156.84z"/>
		<path class="st12" d="M112.88,152.22c-2.48,0.99-5.17,0.82-7.79,0.92c-6.89,0.26-13.61,2.43-20.36,4.05s-13.81,2.69-20.49,0.75
			c-2.66-0.78-5.21-2.01-7.82-2.97c-3.88-1.42-7.93-2.23-12-2.4c-3.41-0.14-6.62-0.14-8.75-3.61c-0.38-0.62-0.75-1.32-1.05-2.06
			c3.95-4.34,10.38-2.93,15.22-0.9c3.16,1.33,5.64,2.93,6.29,3.36c0.11,0.07,0.17,0.11,0.17,0.11s6.48,2.93,18.49,2.9h0
			c2.1-0.01,4.38-0.1,6.82-0.32c6.15-0.55,13.34-1.87,21.5-4.48c2.32-0.74,4.73-1.59,7.21-2.55c0,0,0.01,0,0.01,0
			c2.5-0.97,4.94-1,7.1-0.36c0.06,0.32,0.1,0.64,0.11,0.97C117.62,148.67,115.36,151.23,112.88,152.22z"/>
	</g>
	<g>
		<path class="st13" d="M129.94,189.05c-0.94,0.56-1.89,1.1-2.86,1.61c-30.46,16.15-73.69,8.66-91.96,4.23
			c-3.31-0.8-5.8-1.5-7.25-1.94c-9.71-2.96-16.06-16.91-7.09-27.6c0.11-0.13,0.22-0.25,0.32-0.37c5.17-5.67,13.57-3.82,19.89-1.16
			c4.13,1.74,7.37,3.84,8.22,4.4c0.14,0.1,0.22,0.15,0.22,0.15s8.46,3.83,24.15,3.81l0,0c2.75,0,5.72-0.13,8.91-0.41
			c8.04-0.71,17.44-2.44,28.1-5.84c3.04-0.97,6.18-2.07,9.42-3.33c0.01,0,0.01,0,0.01-0.01c3.27-1.27,6.46-1.3,9.28-0.47
			C139.67,165.21,144.96,180.08,129.94,189.05z"/>
		<path class="st14" d="M127.08,190.66c-30.46,16.15-73.69,8.66-91.96,4.23c-1.53-1.88-2.66-4.17-3.07-6.77
			c-0.25-1.62-0.06-3.54,1.09-4.54c0.77-0.67,1.8-0.76,2.76-0.76c6.19,0.04,11.97,3.24,17.86,5.41c11.56,4.28,24.33,4.63,35.87,0.14
			c6.48-2.52,12.53-6.51,19.17-8.39c3.39-0.96,6.99-1.35,10.34-0.26c3.35,1.09,6.42,3.85,7.51,7.67
			C126.95,188.47,127.09,189.57,127.08,190.66z"/>
		<path class="st15" d="M130.05,181.91c-0.94,0.56-1.89,1.1-2.86,1.61c-30.46,16.15-73.69,8.66-91.96,4.23
			c-3.31-0.8-5.8-1.5-7.25-1.94c-5.46-1.66-9.85-6.8-11.07-12.88c-2.06,8.85,3.44,17.73,10.96,20.02c1.45,0.44,3.94,1.14,7.25,1.94
			c18.28,4.43,61.5,11.92,91.96-4.23c0.97-0.51,1.92-1.05,2.86-1.61c8.29-4.95,10.39-11.69,8.87-17.26
			C137.72,175.38,134.98,178.96,130.05,181.91z"/>
		<path class="st16" d="M49.2,168.22c-6.2,4.33-12.5,10.73-12.5,10.73c0.32-2.9,2.52-9.86,4.28-15.13
			C45.12,165.56,48.35,167.66,49.2,168.22z"/>
		<path class="st16" d="M82.49,171.78c-4.59,6.67-9.91,15.77-9.91,15.77c-0.42-4.85,0.22-10.79,1-15.37l0,0
			C76.33,172.18,79.3,172.06,82.49,171.78z"/>
		<path class="st16" d="M121.22,178.03c-0.47-2.98-6.09-8.25-10.64-12.09c3.04-0.97,6.18-2.07,9.42-3.33
			C121.29,169.42,121.22,178.03,121.22,178.03z"/>
		<path class="st17" d="M123.37,171.99c-3.24,1.3-6.76,1.07-10.18,1.2c-9,0.33-17.78,3.16-26.61,5.28
			c-8.83,2.11-18.05,3.5-26.77,0.97c-3.48-1.02-6.8-2.63-10.22-3.89c-5.07-1.86-10.36-2.92-15.68-3.15
			c-4.46-0.19-8.65-0.18-11.43-4.73c-0.49-0.81-0.98-1.72-1.38-2.69c5.17-5.67,13.57-3.82,19.89-1.16c4.13,1.74,7.37,3.84,8.22,4.4
			c0.14,0.1,0.22,0.15,0.22,0.15s8.46,3.83,24.15,3.81l0,0c2.75,0,5.72-0.13,8.91-0.41c8.04-0.71,17.44-2.44,28.1-5.84
			c3.04-0.97,6.18-2.07,9.42-3.33c0.01,0,0.01,0,0.01-0.01c3.27-1.27,6.46-1.3,9.28-0.47c0.08,0.41,0.13,0.84,0.14,1.27
			C129.57,167.36,126.61,170.7,123.37,171.99z"/>
	</g>
	<g>
		<path class="st13" d="M143.65,216.6c-1.18,0.63-2.37,1.23-3.59,1.81c-38.19,18.17-92.97,10.68-116.15,6.13
			c-4.2-0.82-7.36-1.55-9.2-2.01c-12.32-3.08-20.62-18.25-9.48-30.1c0.13-0.14,0.27-0.28,0.4-0.41c6.42-6.29,17.08-4.4,25.11-1.59
			c5.26,1.84,9.38,4.08,10.47,4.69c0.18,0.1,0.28,0.16,0.28,0.16s10.77,4.06,30.6,3.78h0c3.47-0.05,7.23-0.23,11.25-0.59
			c10.14-0.91,21.99-2.95,35.4-6.85c3.82-1.11,7.77-2.37,11.84-3.8c0.01,0,0.01,0,0.02-0.01c4.11-1.44,8.14-1.53,11.72-0.66
			C155.5,190.34,162.47,206.54,143.65,216.6z"/>
		<path class="st14" d="M140.06,218.41c-38.19,18.17-92.97,10.68-116.15,6.13c-1.97-2.03-3.45-4.52-4-7.36
			c-0.35-1.77-0.15-3.88,1.29-4.99c0.96-0.74,2.26-0.87,3.47-0.88c7.83-0.06,15.19,3.35,22.68,5.64c14.7,4.49,30.84,4.67,45.33-0.43
			c8.14-2.87,15.71-7.33,24.07-9.5c4.27-1.11,8.81-1.59,13.06-0.45c4.25,1.14,8.18,4.12,9.64,8.27
			C139.86,216.01,140.05,217.21,140.06,218.41z"/>
		<path class="st18" d="M143.65,208.78c-1.18,0.63-2.37,1.23-3.59,1.81c-38.19,18.17-92.97,10.68-116.15,6.13
			c-4.2-0.82-7.36-1.55-9.2-2.01c-6.93-1.73-12.58-7.29-14.23-13.92c-2.44,9.73,4.69,19.36,14.23,21.74c1.84,0.46,5,1.19,9.2,2.01
			c23.18,4.55,77.95,12.05,116.15-6.13c1.21-0.58,2.41-1.18,3.59-1.81c10.38-5.55,12.91-12.97,10.89-19.05
			C153.22,201.5,149.83,205.47,143.65,208.78z"/>
		<path class="st16" d="M41.21,195.11c-7.76,4.84-15.59,11.95-15.59,11.95c0.36-3.18,3-10.84,5.13-16.64
			C36,192.27,40.13,194.5,41.21,195.11z"/>
		<path class="st16" d="M83.35,198.46c-5.67,7.38-12.23,17.43-12.23,17.43c-0.62-5.31,0.07-11.82,0.97-16.84h0
			C75.57,199,79.32,198.82,83.35,198.46z"/>
		<path class="st16" d="M132.42,204.67c-0.65-3.25-7.85-8.93-13.67-13.06c3.82-1.11,7.77-2.37,11.84-3.8
			C132.35,195.24,132.42,204.67,132.42,204.67z"/>
		<path class="st17" d="M135.02,198.03c-4.07,1.47-8.52,1.28-12.85,1.48c-11.37,0.51-22.41,3.75-33.53,6.21s-22.75,4.13-33.82,1.49
			c-4.42-1.05-8.65-2.77-12.99-4.09c-6.44-1.96-13.14-3.03-19.87-3.19c-5.64-0.13-10.93-0.06-14.54-4.99
			c-0.64-0.88-1.27-1.87-1.79-2.92c6.42-6.29,17.08-4.4,25.11-1.59c5.26,1.84,9.38,4.08,10.47,4.69c0.18,0.1,0.28,0.16,0.28,0.16
			s10.77,4.06,30.6,3.78h0c3.47-0.05,7.23-0.23,11.25-0.59c10.14-0.91,21.99-2.95,35.4-6.85c3.82-1.11,7.77-2.37,11.84-3.8
			c0.01,0,0.01,0,0.02-0.01c4.11-1.44,8.14-1.53,11.72-0.66c0.11,0.45,0.18,0.91,0.21,1.39
			C142.77,192.85,139.09,196.56,135.02,198.03z"/>
	</g>
	<ellipse class="st19" cx="82.49" cy="26.88" rx="39.3" ry="26.88"/>
	<path class="st1" d="M79.65,31.1c0,12.35-7.29,22.36-16.28,22.36c-8.99,0-16.28-10.01-16.28-22.36c0-0.38,0-0.75,0.02-1.13
		c0.11-3.08,0.68-6,1.61-8.64c2.64-7.46,8.21-12.6,14.65-12.6C72.36,8.73,79.65,18.75,79.65,31.1z"/>
	<path class="st1" d="M119.2,31.1c0,12.35-7.29,22.36-16.28,22.36c-8.99,0-16.28-10.01-16.28-22.36c0-12.35,7.29-22.37,16.28-22.37
		c6.42,0,11.98,5.11,14.62,12.53c0.95,2.64,1.52,5.58,1.64,8.68C119.19,30.32,119.2,30.71,119.2,31.1z"/>
	<path class="st20" d="M119.18,29.94c-5.05,1.76-10.27,2.89-13.28,1.49c0,0,5.79-3.59,11.65-10.17
		C118.49,23.9,119.06,26.84,119.18,29.94z"/>
	<path class="st20" d="M60.3,31.43c-3,1.39-8.17,0.28-13.19-1.46c0.11-3.08,0.68-6,1.61-8.64C54.55,27.87,60.3,31.43,60.3,31.43z"/>
	<g>
		<ellipse class="st21" cx="104.01" cy="30.58" rx="11.39" ry="15.64"/>
		<ellipse class="st22" cx="103.25" cy="31.39" rx="11.39" ry="15.64"/>
		<ellipse class="st23" cx="103.31" cy="31.39" rx="7.65" ry="10.51"/>
		<path class="st24" d="M108.17,27.25c0,1.69-1,3.05-2.22,3.05c-1.23,0-2.22-1.37-2.22-3.05c0-1.69,1-3.05,2.22-3.05
			C107.17,24.19,108.17,25.56,108.17,27.25z"/>
	</g>
	<g>
		<ellipse class="st21" cx="63.75" cy="30.7" rx="11.39" ry="15.64"/>
		<ellipse class="st22" cx="62.99" cy="31.5" rx="11.39" ry="15.64"/>
		<ellipse class="st23" cx="63.06" cy="31.5" rx="7.65" ry="10.51"/>
		<path class="st24" d="M67.91,27.36c0,1.69-1,3.05-2.22,3.05c-1.23,0-2.22-1.37-2.22-3.05c0-1.69,1-3.05,2.22-3.05
			C66.92,24.31,67.91,25.67,67.91,27.36z"/>
	</g>
	<path class="st4" d="M83.48,36.32c10.55,0,19.23,3.85,20.36,8.81c0.08-0.36,0.13-0.72,0.13-1.09c0-5.47-9.17-9.9-20.49-9.9
		s-20.49,4.43-20.49,9.9c0,0.37,0.05,0.74,0.13,1.09C64.24,40.18,72.93,36.32,83.48,36.32z"/>
	<g>
		
			<ellipse transform="matrix(0.9589 -0.2838 0.2838 0.9589 -9.76 23.8189)" class="st4" cx="77.32" cy="45.59" rx="2.72" ry="5.34"/>
		
			<ellipse transform="matrix(0.2838 -0.9589 0.9589 0.2838 20.2345 118.7782)" class="st4" cx="89.63" cy="45.84" rx="5.34" ry="2.72"/>
		<path class="st25" d="M87.02,44.22c-0.84,2.83-0.35,5.47,1.09,5.89c1.44,0.43,3.29-1.52,4.12-4.35c0.84-2.83,0.35-5.47-1.09-5.89
			C89.71,39.44,87.86,41.39,87.02,44.22z"/>
		<path class="st25" d="M80.13,44.22c0.84,2.83,0.35,5.47-1.09,5.89c-1.44,0.43-3.29-1.52-4.12-4.35c-0.84-2.83-0.35-5.47,1.09-5.89
			C77.45,39.44,79.29,41.39,80.13,44.22z"/>
	</g>
	<path class="st26" d="M49.2,14.94"/>
	<path class="st19" d="M64.79,53.9c0,0,0.69,1.2,1.97,2.97c2.16,2.98,5.99,7.55,11.04,10.66c8.05,4.96,23.54-6.2,24.78-13.63
		s-35.94-12.39-37.79-3.1"/>
	<g>
		<path class="st27" d="M81.81,60.77c0,0,6.97,16.58,3.22,24.7c2.88-3.22,4.84-6.59,5.15-10.22l3.61,10.75c0,0,1.55-6.17,0.44-12.61
			c-0.83-4.78-4.09-12.61-4.09-12.61l-4.45-0.93L81.81,60.77z"/>
		<path class="st26" d="M74.05,60.92c0,0,6.46,6.33,12.78-0.13c3.81,0.92,5.58,3.4,13.05-6.41c7.47-9.81-3.66,9.62-12.59,3.95
			C76.73,62.96,84.14,60.99,74.05,60.92z"/>
	</g>
	<path class="st19" d="M54.53,14.94c0,0,7.23-14.83,15.38-7.46s3.62,15.44,9.96,15.09c6.34-0.35-15,4.96-20.13-1.37
		S54.53,14.94,54.53,14.94z"/>
	<path class="st19" d="M112.12,11.04c0,0-10.89-12.46-17.64-2.91c-6.75,9.54-0.21,16.16-6.86,17.62c-6.65,1.46,16.68,0.57,20.54-7.1
		S112.12,11.04,112.12,11.04z"/>
	<circle class="st24" cx="72.53" cy="17.66" r="4.03"/>
	<circle class="st24" cx="95.46" cy="17.66" r="4.03"/>
	<g>
		<path class="st28" d="M89.89,54.61c-3.35-2.57-7.46-5.57-16.94,0.64c-0.48,0.3-0.97,0.64-1.47,1c-2.28,1.62-4.21,2.41-5.8,2.62
			c-0.01,0-0.01,0-0.01,0c-6.46,0.87-7.63-7.56-6.61-7.07c1.99,0.97,3.56,1.47,4.9,1.32c1.23-0.15,2.26-0.84,3.25-2.23
			c0,0,0.01-0.01,0.04-0.04c0.19-0.26,0.38-0.55,0.56-0.87c2.27-3.85,3.98-6.26,12.3-5.15c0.23,1.1,0.51,2.11,0.85,2.92
			c0.48,1.14,1.07,1.4,1.69,1.13c1.07-0.46,2.24-2.49,3.05-4.17c5.84-1.34,7.91,0.68,9.44,2.95c0.75,1.13,1.37,2.31,2.24,3.2
			c1.13,1.14,2.17,1.75,3.09,1.98c3.48,0.97,5.47-3.07,5.47-3.07c5.22,3.98-2.67,10.02-10.8,7.71v-0.01
			c-0.98-0.26-1.97-0.66-2.94-1.21C91.43,55.81,90.68,55.22,89.89,54.61z"/>
		<path class="st29" d="M106.06,49.84c-0.04,1.22-0.5,2.35-1.34,3.41c-0.45,0.5-1.02,0.96-1.72,1.3c-0.7,0.34-1.53,0.47-2.33,0.45
			c-1.64-0.02-2.98-0.78-4.06-1.5c-0.28-0.18-0.52-0.4-0.76-0.61c-0.13-0.13-0.2-0.17-0.39-0.36c-0.1-0.1-0.16-0.16-0.32-0.33
			c-0.54-0.6-0.87-1.06-1.2-1.55c-0.58-0.99-1.04-1.8-1.47-2.43c-0.4-0.67-0.82-1.07-1.36-1.54c-1.13-0.87-3.16-1.31-5.39-1.83
			l-0.07-0.28c2.03-0.47,4.24-0.78,6.3,0c1.02,0.38,1.91,1.08,2.6,1.9c0.7,0.82,1.24,1.74,1.81,2.6c0.54,0.89,1.17,1.66,1.97,2.32
			c0.78,0.66,1.67,1.19,2.66,1.35c0.98,0.17,2-0.14,2.82-0.73c0.82-0.59,1.49-1.41,1.99-2.3L106.06,49.84z"/>
		<path class="st30" d="M58.99,51.93c-0.03-0.06-0.04,0.36,0.05,0.62c0.07,0.3,0.18,0.59,0.3,0.87c0.23,0.57,0.53,1.11,0.88,1.6
			c0.69,0.97,1.56,1.74,2.49,2.06c1.82,0.7,3.87-0.16,5.79-1.41c0.96-0.64,1.81-1.42,3.02-2.26c1.12-0.81,2.29-1.57,3.55-2.26
			c2.51-1.31,5.51-2.42,8.93-2.09c1.68,0.2,3.31,0.83,4.66,1.63c1.35,0.81,2.47,1.72,3.41,2.5c0.46,0.38,0.94,0.75,1.27,0.97
			l0.73,0.43c0.24,0.13,0.48,0.25,0.73,0.36c0.99,0.43,2.04,0.77,3.14,0.95c2.17,0.33,4.58,0.13,6.58-0.85
			c1-0.47,1.87-1.18,2.23-2.08c0.39-0.88-0.03-2.12-0.92-3.09l0.17-0.23c1.06,0.76,1.97,2.06,1.71,3.48
			c-0.24,1.39-1.27,2.43-2.35,3.18c-2.23,1.49-4.97,2.04-7.61,1.86c-2.65-0.19-5.24-1.16-7.34-2.81c-2.05-1.6-4.19-3.2-6.76-3.43
			c-2.53-0.3-5.09,0.54-7.39,1.66c-1.16,0.57-2.28,1.23-3.37,1.94c-1.08,0.7-2.13,1.51-3.3,2.14c-1.16,0.63-2.4,1.15-3.73,1.37
			c-1.32,0.22-2.74,0.06-3.92-0.62c-1.18-0.67-2.06-1.77-2.63-2.96c-0.29-0.6-0.51-1.23-0.65-1.88c-0.07-0.33-0.12-0.66-0.13-1
			c0-0.17,0-0.34,0.03-0.52c0.02-0.09,0.04-0.18,0.11-0.28c0.03-0.05,0.09-0.11,0.18-0.13c0.04-0.01,0.1-0.01,0.14,0l0.06,0.02
			L58.99,51.93z"/>
		<path class="st29" d="M80.09,44.97c-2.17,0.75-4.21,1.16-5.78,1.83c-0.77,0.38-1.39,0.68-1.84,1.15c-0.48,0.42-0.94,0.95-1.4,1.7
			c-0.56,0.7-0.96,1.49-1.78,2.56c-0.82,0.94-1.88,2.07-3.5,2.52c-0.78,0.22-1.6,0.3-2.31,0.16c-0.72-0.13-1.33-0.37-1.88-0.66
			c-1.07-0.63-1.91-1.37-2.62-2.3l0.13-0.26c0.93,0.43,1.89,0.84,2.87,1.09c0.98,0.25,2.02,0.29,2.92-0.12
			c0.9-0.4,1.6-1.16,2.16-1.99c0.56-0.83,1.03-1.78,1.63-2.64c0.61-0.86,1.33-1.68,2.22-2.28c0.89-0.61,1.92-0.98,2.97-1.16
			c2.09-0.36,4.2-0.16,6.25,0.12L80.09,44.97z"/>
	</g>
</g>
</svg>
