<?xml version="1.0" encoding="utf-8"?>
<!-- Generator: Adobe Illustrator 23.0.3, SVG Export Plug-In . SVG Version: 6.00 Build 0)  -->
<svg version="1.1" id="圖層_1" xmlns="http://www.w3.org/2000/svg" xmlns:xlink="http://www.w3.org/1999/xlink" x="0px" y="0px"
	 viewBox="0 0 236.7 209.8" style="enable-background:new 0 0 236.7 209.8;" xml:space="preserve">
<style type="text/css">
	.st0{fill:#F39700;}
	.st1{fill:#B5B5B5;}
	.st2{fill:#94B53C;}
	.st3{fill:#637931;}
	.st4{fill:#8CA23E;}
	.st5{fill:#B8D15A;}
	.st6{fill:#2F3B1C;}
	.st7{fill:#CCCCCC;}
	.st8{fill:#FFFFFF;}
	.st9{fill:#1A1A1A;}
	.st10{fill:#F2F2F2;}
	.st11{fill:#9F5023;}
	.st12{fill:#E98530;}
	.st13{fill:#F39B35;}
	.st14{fill:#F9C889;}
</style>
<g>
	<g>
		<g>
			<g>
				<g>
					<path class="st0" d="M46.9,117.1c0,0-9.7,12.3-14.3,17S15.3,152,13.8,156c-1.5,3.9,13.8,5.6,24.1,10.1s15.9,14.3,14.8-3.9
						C51.6,144,46.9,117.1,46.9,117.1z"/>
					<path class="st1" d="M38.9,129.2c0,0-13.3,17.3-15.5,16.9c-2.1-0.4,13.9,8.5,14.1,12.1c0.3,3.6,9.3-0.7,9.3-0.7l1.1-6.1
						c0,0-4.7-7.1-4.2-11.6s1.2-9.9,1.2-9.9L38.9,129.2z"/>
				</g>
				<path class="st2" d="M48.7,52.6C36.5,77.1,34.3,90.7,35,105.7s-1.5,38.8,5.3,47.6s14.5,20.4,14.5,25.8s-12.2,6.8-19.8,11.6
					s-7.6,10.2-6.1,12.9c1.5,2.7,34.2,1.3,45.6,0s11.4-6.1,11.4-6.1s28.9-0.7,32.7-0.7c3.8,0,9.1,8.2,9.1,8.2s38.3,8.1,57,3.4
					s3.6-21.8-4.6-21.1c-8.1,0.7,34.9-51.7,34.9-87.1c0-35.4-8.4-49.7-18.3-60.5s-14.3-23-57.7-27.1S60.8,28.1,48.7,52.6z"/>
				<path class="st3" d="M199.5,38.2c-3.5,2-2.8,4.5-6.6,5.7c-6.2,2,1.1,13.9-1.6,32.4c-0.7,4.9-4.5,20.6-14.4,29.7
					c8.1-12.2,9.6-27.6,9.6-31.4c0-3.8-1.6-26.9-6.9-25.6c-4.9,1.2,5.1-8.9,5.1-8.9L199.5,38.2z"/>
				<path class="st3" d="M197,108.5c-1.9,0.7-1.8,1.9-3.8,2.2c-3.2,0.4-0.8,6.8-3.8,15.6c-0.8,2.3-4.1,9.6-9.8,13.2
					c5.1-5.3,7.3-12.6,7.6-14.5c0.4-1.9,1.7-13.2-0.9-13c-2.5,0.2,3.3-3.9,3.3-3.9L197,108.5z"/>
				<path class="st3" d="M213,67c-1.9,0.7-1.8,1.9-3.8,2.2c-3.2,0.4-0.8,6.8-3.8,15.6c-0.8,2.3-4.1,9.6-9.8,13.2
					c5.1-5.3,7.3-12.6,7.6-14.5c0.4-1.9,1.7-13.2-0.9-13c-2.5,0.2,3.3-3.9,3.3-3.9L213,67z"/>
				<path class="st4" d="M31,200.4c-0.5-3.1,12.5,6.6,10.5,1.6c-3-7.5,10.9-0.9,24.6-10.8c-14.9,5.5-27.8,4.6-25.9,1.9
					c-3-2.5-7.8,0.4-7.8,0.4L31,200.4z"/>
				<path class="st4" d="M181.8,204.5c0,0-9.1-0.3-20.1-9.4c12.2,4.7,23.1,3.1,21.6,0.5c2.6-2.7,6.4,0,6.4,0s0.5,3.1,0.9,6.1
					C191,206.5,182.1,204.8,181.8,204.5z"/>
				<path class="st5" d="M39.4,70.5c4.8-8.9,26.7-51.7,87.6-35.4C77.8,34.7,49.9,63,45.6,89.3c4.9-15.4,24.9-38.9,68.4-36.7
					c-53.5,7.3-65.1,29.2-70,64.3C46.8,99,56.5,93.5,64,91.5c-12.4,7.5-24.3,34-17,57.8c4.3,13.9-1.5,14.9-5.5,2.2
					C28.7,111.3,39.4,70.5,39.4,70.5z"/>
				<path class="st6" d="M206.6,57.3c2.1-1.7,4.2-3.4,5.6-5.9c0.9-1.7-1.6-5.2-3.7-4.7c-2.8,0.8-5,2.5-7.2,4.1
					c-1.8,1.4-4,2.1-3.1,5.7c0.2,1,1.2,2.2,2.1,2.7C203.7,61,205,58.7,206.6,57.3z"/>
				<path class="st6" d="M214.6,72.1c-5,1.5-8,4.4-11.3,6.7c-2.9,2-8.4,4.5-6.9,7.1c0.5,0.8,2,1.2,3.7,1.2c5.1-0.1,8.1-3.6,10.7-5.4
					c3.2-2.2,7.9-4.7,9-7.4C220.5,73,217.4,71.2,214.6,72.1z"/>
				<path class="st6" d="M40.8,72.6c-2.6-1.1-5.2-1.9-8-2.4c-2.3-0.5-5.2-1.5-7.5-0.5c-1.6,0.7-1.3,2.5-0.3,3.4
					c1.9,1.7,4.8,2.1,7.3,2.7c2.7,0.6,5.3,0.9,8.1,1C42.9,76.8,42.5,73.3,40.8,72.6z"/>
				<path class="st6" d="M36.5,88.1c-2.8-0.5-5.4-0.9-8.1-1c-2.3-0.1-5.3-0.6-7.1,0.4c-1.2,0.7-0.3,1.9,0.9,2.5
					c2.3,1.1,5.2,1.1,7.7,1.3c2.7,0.2,5.2,0.2,7.8-0.1C39.9,91,38.3,88.4,36.5,88.1z"/>
				<path class="st6" d="M48.4,155c-2,1.1-3.9,2.3-5.7,3.6c-1.5,1.1-3.6,2.4-4.2,4c-0.4,1.1,1,1.5,2.1,1.2c2.1-0.5,3.9-2,5.5-3.2
					c1.8-1.3,3.3-2.6,4.8-4.1C52.3,155.1,49.7,154.3,48.4,155z"/>
				<path class="st6" d="M54.8,158.4c-2,1.1-3.9,2.3-5.7,3.6c-1.5,1.1-3.6,2.4-4.2,4c-0.4,1.1,1,1.5,2.1,1.2c2.1-0.5,3.9-2,5.5-3.2
					c1.8-1.3,3.3-2.6,4.8-4.1C58.7,158.5,56.1,157.7,54.8,158.4z"/>
				<ellipse class="st7" cx="75.7" cy="84.5" rx="19" ry="17.7"/>
				<ellipse class="st8" cx="76.2" cy="85" rx="12.7" ry="11.8"/>
				<g>
					<ellipse class="st9" cx="75.8" cy="84.7" rx="13" ry="12.1"/>
					<ellipse class="st10" cx="72.5" cy="79.6" rx="6.8" ry="6.3"/>
				</g>
				<g>
					<ellipse class="st7" cx="157.5" cy="87.2" rx="19.7" ry="18.4"/>
					<ellipse class="st8" cx="158" cy="87.7" rx="13.1" ry="12.2"/>
				</g>
				<path class="st3" d="M60.1,127.1c0,0,13.4,24.7,28.3,0.5c-1.4,6.4,8.2,14.4,9.1,14.3s12.2,5.7,16.7-9.4
					c1.5-4.3,2.9,16.8,17.9,9.6c15-7.2,14.8,3.4,22.8,0.8c8-2.6,14.8-11.4,15.7-11.5s-13.4,5-13.4,5s-3.1,8.7-13.9-3.5
					s-9.9,13.6-24,1.5s-6.5,6.6-23.5-3.1s-8.8,4.7-22.8-0.8C59,125,60.1,127.1,60.1,127.1z"/>
				<path class="st3" d="M194.1,204.9"/>
				<g>
					<ellipse class="st5" cx="31.1" cy="132.5" rx="7.3" ry="11.2"/>
					<path class="st4" d="M35.1,121.2c0,0-5.5-1-7.2,2.1c-1.7,3.1,7-0.6,6.8,0.9c-0.2,1.5-1.2,5.9,0.8,6.6s4.2-2,3.2-4.6
						C37.8,123.6,35.1,121.2,35.1,121.2z"/>
				</g>
				<path class="st2" d="M26.4,123c0,0,10.4,8.6,7.7,10.7c-2.7,2.1,1.5,9.7-0.6,14s-9.7,9.4-17.5,7.1s-18.5-22.3-13.9-28.1
					c4.6-5.8,18-8.4,21.2-6.1C26.4,123,26.4,123,26.4,123z"/>
				<path class="st5" d="M5.9,136.8c0.2-2.3,1.2-13,16.6-16.2c-11.2,5.1-14.9,13.6-13.4,19.2c-0.4-3.6,2-10.3,12.1-14.4
					c-11.5,7-12,12.6-9.8,20.1c-1-3.8,0.6-5.9,2.2-7.1c-2.1,2.8-2.3,9.3,1.6,13.2c2.3,2.3,1,3.1-1,1C7.4,146,5.9,136.8,5.9,136.8z"
					/>
				<g>
					<ellipse class="st9" cx="157.6" cy="87.6" rx="13.8" ry="12.6"/>
					<ellipse class="st10" cx="154.2" cy="82.3" rx="7.2" ry="6.6"/>
				</g>
				<path class="st11" d="M199.6,131.2c0,0-114.7,48.1-139.1,42.3c-24.3-5.8,4.8,7,4.8,7s49.8-3.5,99-24.7s48-16.7,48-16.7
					l-6.6-10.4"/>
				<g>
					<path class="st0" d="M200.8,110.1c0,0-23.4,48.3-28.5,48.3s35.8,15.6,38,24.5s21.2-5.4,21.2-5.4l0-15.6
						c0,0-13.9-15.6-14.6-27.2s-1.5-25.2-1.5-25.2L200.8,110.1z"/>
					<path class="st1" d="M198.8,114.1c0,0-22.1,44.6-26.9,44.6s33.4,14.7,35.4,22.9s19.8-4.9,19.8-4.9l0.1-14.5
						c0,0-12.9-14.6-13.5-25.3s-1.2-23.3-1.2-23.3L198.8,114.1z"/>
				</g>
				<path class="st2" d="M210.9,120.5c0,0-14.6,5.4-12.4,8.2c2.2,2.7-5.1,8.8-4.4,13.6c0.7,4.8,7.3,11.6,16.8,11.6
					c9.5,0,28.5-16.3,25.6-23.1c-2.9-6.8-16.8-12.9-21.2-11.5C210.9,120.5,210.9,120.5,210.9,120.5z"/>
				<g>
					
						<ellipse transform="matrix(0.6653 -0.7466 0.7466 0.6653 -32.3547 198.2876)" class="st5" cx="205" cy="135.2" rx="11.6" ry="6.9"/>
					<path class="st4" d="M209.2,124c0,0,4.9,2.3,4.2,5.6c-0.7,3.4-5-4.3-5.9-3c-0.9,1.3-2.9,5.4-4.9,4.8s-1.9-3.9,0.5-5.4
						C205.6,124.5,209.2,124,209.2,124z"/>
				</g>
				<g>
					<polygon class="st12" points="127.9,172.7 125.1,176 122.1,173.8 125,170.5 					"/>
					<path class="st13" d="M127.1,172l-2.9,3.3c-0.4,0.4-0.3,1.1,0.2,1.4s1.2,0.3,1.6-0.1l2.9-3.3c0.4-0.4,0.3-1.1-0.2-1.4
						C128.2,171.5,127.5,171.6,127.1,172z"/>
					<path class="st13" d="M112.9,168l8.6,6.5c0.9,0.7,2.2,0.5,2.9-0.3l1.6-1.9c0.7-0.8,0.6-2-0.3-2.7l-8.6-6.5L112.9,168z"/>
					<path class="st14" d="M116.3,162.7c-2.1-1.1-6.1-2.8-7.2-1.6s1.5,4.6,3.1,6.2l0.6,0.6l4.2-4.9L116.3,162.7z"/>
				</g>
				<g>
					<polygon class="st12" points="139.9,168.1 137.1,171.4 134.1,169.2 137,165.9 					"/>
					<path class="st13" d="M139.1,167.4l-2.9,3.3c-0.4,0.4-0.3,1.1,0.2,1.4s1.2,0.3,1.6-0.1l2.9-3.3c0.4-0.4,0.3-1.1-0.2-1.4
						C140.2,166.9,139.5,167,139.1,167.4z"/>
					<path class="st13" d="M124.8,163.4l8.6,6.5c0.9,0.7,2.2,0.5,2.9-0.3l1.6-1.9c0.7-0.8,0.6-2-0.3-2.7l-8.6-6.5L124.8,163.4z"/>
					<path class="st14" d="M128.3,158.1c-2.1-1.1-6.1-2.8-7.2-1.6s1.5,4.6,3.1,6.2l0.6,0.6l4.2-4.9L128.3,158.1z"/>
				</g>
				<g>
					<polygon class="st12" points="151.1,162.9 148.2,166.2 145.3,164 148.1,160.7 					"/>
					<path class="st13" d="M150.3,162.3l-2.9,3.3c-0.4,0.4-0.3,1.1,0.2,1.4s1.2,0.3,1.6-0.1l2.9-3.3c0.4-0.4,0.3-1.1-0.2-1.4
						S150.7,161.8,150.3,162.3z"/>
					<path class="st13" d="M136,158.2l8.6,6.5c0.9,0.7,2.2,0.5,2.9-0.3l1.6-1.9c0.7-0.8,0.6-2-0.3-2.7l-8.6-6.5L136,158.2z"/>
					<path class="st14" d="M139.5,152.9c-2.1-1.1-6.1-2.8-7.2-1.6s1.5,4.6,3.1,6.2l0.6,0.6l4.2-4.9L139.5,152.9z"/>
				</g>
				<g>
					<polygon class="st12" points="162.2,157.1 159.3,160.4 156.4,158.1 159.2,154.8 					"/>
					<path class="st13" d="M161.4,156.4l-2.9,3.3c-0.4,0.4-0.3,1.1,0.2,1.4s1.2,0.3,1.6-0.1l2.9-3.3c0.4-0.4,0.3-1.1-0.2-1.4
						C162.4,155.9,161.7,155.9,161.4,156.4z"/>
					<path class="st13" d="M147.1,152.4l8.6,6.5c0.9,0.7,2.2,0.5,2.9-0.3l1.6-1.9c0.7-0.8,0.6-2-0.3-2.7l-8.6-6.5L147.1,152.4z"/>
					<path class="st14" d="M150.6,147.1c-2.1-1.1-6.1-2.8-7.2-1.6s1.5,4.6,3.1,6.2l0.6,0.6l4.2-4.9L150.6,147.1z"/>
				</g>
				<path class="st4" d="M91,66.2c0,0,2.6,7.4,5.3,11.2c1.3,1.8,2.7,2.8,3.7,1.5c2.4-2.9,5.6-10.4,6.9-13.7c0.4-1,0.6-1.6,0.6-1.6
					s1.4,5.9,3.2,10c1,2.2,2,3.8,3,3.7c2.9-0.3,12.2-2.8,13.6-8.4c1.5-5.7-2.4-1.8-5.1,0.6c-2.6,2.4-16.4,9.4-22.8,5.3"/>
			</g>
		</g>
	</g>
	<path class="st6" d="M159.7,14.9c2.1-1.7,4.2-3.4,5.8-5.6c1.1-1.5-0.7-4.1-2.7-3.3c-2.6,1-4.8,2.7-7,4.4c-1.8,1.4-3.9,2.2-3.6,5.1
		c0.1,0.8,0.8,1.6,1.6,1.9C156.5,18.3,158,16.2,159.7,14.9z"/>
	<path class="st6" d="M133.5,9.4c0.3-2.6,0.7-5.4,0.3-8c-0.3-1.8-3.4-2.5-4.2-0.6c-1.2,2.5-1.6,5.3-2,8c-0.4,2.2-1.2,4.3,0.9,6.1
		c0.6,0.5,1.7,0.6,2.4,0.3C133.6,14,133.3,11.5,133.5,9.4z"/>
	<path class="st6" d="M101.6,14.9c-2.1-1.7-4.2-3.4-5.8-5.6c-1.1-1.5,0.7-4.1,2.7-3.3c2.6,1,4.8,2.7,7,4.4c1.8,1.4,3.8,2.2,3.6,5.1
		c-0.1,0.8-0.8,1.6-1.6,1.9C104.7,18.3,103.3,16.2,101.6,14.9z"/>
</g>
</svg>
