<?xml version="1.0" encoding="utf-8"?>
<!-- Generator: Adobe Illustrator 23.0.3, SVG Export Plug-In . SVG Version: 6.00 Build 0)  -->
<svg version="1.1" id="圖層_1" xmlns="http://www.w3.org/2000/svg" xmlns:xlink="http://www.w3.org/1999/xlink" x="0px" y="0px"
	 viewBox="0 0 13.87 16.47" style="enable-background:new 0 0 13.87 16.47;" xml:space="preserve">
<style type="text/css">
	.st0{fill:#DF9647;}
</style>
<path class="st0" d="M9.85,5.67H6.73V2.61c0-0.31-0.25-0.56-0.56-0.56C5.86,2.05,5.6,2.3,5.6,2.61v3.06H2.35
	c-0.31,0-0.56,0.25-0.56,0.56s0.25,0.56,0.56,0.56H5.6v3.32c0,0.31,0.25,0.56,0.56,0.56c0.31,0,0.56-0.25,0.56-0.56V6.79h3.12
	c0.31,0,0.56-0.25,0.56-0.56S10.16,5.67,9.85,5.67z"/>
<g>
	<g>
		<path class="st0" d="M13.84,14.87l-3.21-4.73c1.01-1.13,1.57-2.56,1.57-4.04C12.2,2.74,9.46,0,6.1,0S0,2.74,0,6.1
			c0,3.36,2.74,6.1,6.1,6.1c0.81,0,1.61-0.16,2.36-0.48l3.16,4.66c0.04,0.07,0.13,0.1,0.23,0.1c0.28,0,0.74-0.21,1.13-0.47
			c0.48-0.33,0.83-0.71,0.88-0.96C13.88,14.97,13.87,14.91,13.84,14.87z M11.18,6.1c0,2.8-2.28,5.08-5.08,5.08S1.01,8.9,1.01,6.1
			c0-2.8,2.28-5.08,5.08-5.08S11.18,3.29,11.18,6.1z"/>
	</g>
</g>
</svg>
