<?xml version="1.0" encoding="utf-8"?>
<!-- Generator: Adobe Illustrator 23.0.3, SVG Export Plug-In . SVG Version: 6.00 Build 0)  -->
<svg version="1.1" id="圖層_1" xmlns="http://www.w3.org/2000/svg" xmlns:xlink="http://www.w3.org/1999/xlink" x="0px" y="0px"
	 viewBox="0 0 13.87 16.47" style="enable-background:new 0 0 13.87 16.47;" xml:space="preserve">
<style type="text/css">
	.st0{fill:#DF9647;}
</style>
<g>
	<g>
		<g>
			<path class="st0" d="M13.84,14.87l-3.21-4.73c1.01-1.13,1.57-2.56,1.57-4.04C12.2,2.74,9.46,0,6.1,0C2.74,0,0,2.74,0,6.1
				c0,3.36,2.74,6.1,6.1,6.1c0.81,0,1.61-0.16,2.36-0.48l3.16,4.66c0.04,0.07,0.13,0.1,0.23,0.1c0.28,0,0.74-0.21,1.13-0.47
				C13.52,15.64,14,15.12,13.84,14.87z M11.18,6.1c0,2.8-2.28,5.08-5.08,5.08c-2.8,0-5.08-2.28-5.08-5.08c0-2.8,2.28-5.08,5.08-5.08
				C8.9,1.01,11.18,3.29,11.18,6.1z"/>
		</g>
	</g>
	<path class="st0" d="M9.71,5.87H2.2c-0.31,0-0.56,0.25-0.56,0.56c0,0.31,0.25,0.56,0.56,0.56h7.5c0.31,0,0.56-0.25,0.56-0.56
		C10.27,6.12,10.02,5.87,9.71,5.87z"/>
</g>
</svg>
