<?xml version="1.0" encoding="utf-8"?>
<!-- Generator: Adobe Illustrator 23.0.3, SVG Export Plug-In . SVG Version: 6.00 Build 0)  -->
<svg version="1.1" id="圖層_1" xmlns="http://www.w3.org/2000/svg" xmlns:xlink="http://www.w3.org/1999/xlink" x="0px" y="0px"
	 viewBox="0 0 12.82 13.76" style="enable-background:new 0 0 12.82 13.76;" xml:space="preserve">
<style type="text/css">
	.st0{fill:#DF9647;}
</style>
<g>
	<g>
		<path class="st0" d="M11.99,0c-0.46,0-0.83,0.37-0.83,0.83v0.69c-1.22-0.97-2.74-1.5-4.29-1.5C3.08,0.01,0,3.1,0,6.89
			c0,3.79,3.08,6.87,6.88,6.87c1.86,0,3.61-0.73,4.91-2.06c0.15-0.16,0.24-0.37,0.24-0.59c0-0.22-0.09-0.43-0.25-0.58
			c-0.16-0.15-0.36-0.24-0.58-0.24c0,0-0.01,0-0.01,0c-0.22,0-0.43,0.09-0.58,0.25c-0.99,1.01-2.31,1.57-3.73,1.57
			c-2.88,0-5.22-2.34-5.22-5.22c0-2.87,2.34-5.21,5.22-5.21c1.1,0,2.13,0.33,3,0.96h-0.5c-0.46,0-0.83,0.37-0.83,0.83
			s0.37,0.83,0.83,0.83h2.62c0.45,0,0.83-0.39,0.83-0.84V0.83C12.82,0.37,12.45,0,11.99,0z"/>
	</g>
</g>
</svg>
