<?xml version="1.0" encoding="utf-8"?>
<!-- Generator: Adobe Illustrator 23.0.3, SVG Export Plug-In . SVG Version: 6.00 Build 0)  -->
<svg version="1.1" id="圖層_1" xmlns="http://www.w3.org/2000/svg" xmlns:xlink="http://www.w3.org/1999/xlink" x="0px" y="0px"
	 viewBox="0 0 12.82 13.76" style="enable-background:new 0 0 12.82 13.76;" xml:space="preserve">
<style type="text/css">
	.st0{fill:#DF9647;}
</style>
<g>
	<g>
		<path class="st0" d="M5.94,0.01c-1.55,0-3.07,0.53-4.29,1.5V0.83C1.65,0.37,1.28,0,0.83,0C0.37,0,0,0.37,0,0.83v2.62
			C0,3.9,0.38,4.29,0.83,4.29h2.62c0.46,0,0.83-0.37,0.83-0.83S3.9,2.64,3.44,2.64h-0.5c0.87-0.63,1.91-0.96,3-0.96
			c2.88,0,5.22,2.34,5.22,5.21c0,2.88-2.34,5.22-5.22,5.22c-1.41,0-2.74-0.56-3.73-1.57c-0.32-0.33-0.84-0.33-1.17-0.01
			c-0.33,0.32-0.33,0.84-0.01,1.17c1.3,1.33,3.05,2.06,4.91,2.06c3.79,0,6.88-3.08,6.88-6.87C12.82,3.1,9.74,0.01,5.94,0.01z"/>
	</g>
</g>
</svg>
