<?xml version="1.0" encoding="utf-8"?>
<!-- Generator: Adobe Illustrator 23.0.3, SVG Export Plug-In . SVG Version: 6.00 Build 0)  -->
<svg version="1.1" id="圖層_1" xmlns="http://www.w3.org/2000/svg" xmlns:xlink="http://www.w3.org/1999/xlink" x="0px" y="0px"
	 viewBox="0 0 15.96 20.83" style="enable-background:new 0 0 15.96 20.83;" xml:space="preserve">
<style type="text/css">
	.st0{fill:#DF9647;}
</style>
<g>
	<g>
		<g>
			<g>
				<path class="st0" d="M2.78,20.83c-0.97-0.3-1.34-1.04-1.34-2.05c0-2.44,0-4.88,0-7.32c0-1.61,0-3.21,0-4.82
					c0-0.33,0-0.33,0.32-0.33c4.14,0,8.27,0,12.41,0c0.33,0,0.34,0,0.34,0.32c0,4.09,0,8.18,0,12.27c0,0.67-0.2,1.25-0.76,1.67
					c-0.18,0.13-0.39,0.2-0.59,0.27C9.71,20.83,6.24,20.83,2.78,20.83z M11.37,13.16c0-0.78,0-1.56,0-2.34c0-0.83,0-1.65,0-2.48
					c0-0.24-0.15-0.4-0.36-0.41c-0.22-0.01-0.38,0.16-0.39,0.4c0,0.05,0,0.11,0,0.16c0,3.09,0,6.18,0,9.28c0,0.07,0,0.15,0,0.22
					c0.03,0.23,0.19,0.36,0.42,0.35c0.23-0.02,0.33-0.15,0.33-0.44C11.37,16.32,11.37,14.74,11.37,13.16z M5.34,13.16
					c0-1.55,0-3.09,0-4.64c0-0.07,0-0.15,0-0.22C5.32,8.08,5.16,7.93,4.96,7.93c-0.21,0-0.36,0.15-0.37,0.38c0,0.06,0,0.12,0,0.18
					c0,3.1,0,6.2,0,9.3c0,0.07,0,0.15,0,0.22c0.02,0.21,0.18,0.34,0.39,0.33c0.24-0.01,0.36-0.16,0.36-0.46
					C5.34,16.31,5.34,14.73,5.34,13.16z M8.36,13.13c0-1.55,0-3.09,0-4.64c0-0.1,0.01-0.2-0.02-0.3C8.27,8.02,8.15,7.93,7.97,7.93
					c-0.18,0-0.3,0.1-0.33,0.27C7.61,8.31,7.6,8.42,7.6,8.52c0,3.08,0,6.16,0,9.23c0,0.11,0.01,0.22,0.03,0.32
					c0.04,0.17,0.16,0.26,0.34,0.26c0.18,0,0.29-0.08,0.36-0.25c0.04-0.1,0.03-0.2,0.03-0.3C8.36,16.24,8.36,14.69,8.36,13.13z"/>
			</g>
		</g>
		<g>
			<path class="st0" d="M7.99,3.44c2.29,0,4.58,0,6.88,0c0.53,0,0.91,0.29,1.05,0.79c0.18,0.64-0.3,1.28-1.01,1.33
				c-0.06,0-0.12,0-0.18,0c-4.5,0-9.01,0-13.51,0c-0.32,0-0.62-0.05-0.86-0.29C0.03,4.97-0.09,4.52,0.07,4.13
				c0.18-0.44,0.53-0.69,1.01-0.69C3.38,3.44,5.69,3.44,7.99,3.44z"/>
		</g>
	</g>
</g>
<g>
	<path class="st0" d="M8,0.12c0.73,0,1.45,0.02,2.18-0.01c1.08-0.05,2.01,0.73,2.05,1.93c0.01,0.33,0,0.65,0,0.98
		c0,0.15-0.06,0.22-0.22,0.22c-0.16-0.01-0.31-0.01-0.47,0c-0.16,0.01-0.22-0.06-0.22-0.21c0.01-0.33,0-0.65,0-0.98
		c-0.01-0.6-0.43-1.05-1.03-1.05c-1.54-0.01-3.08-0.01-4.62,0c-0.62,0-1.04,0.45-1.05,1.06c0,0.33-0.01,0.65,0,0.98
		c0,0.15-0.06,0.21-0.21,0.2c-0.16-0.01-0.33,0-0.49,0c-0.11,0-0.18-0.04-0.18-0.16c0-0.45-0.03-0.9,0.02-1.34
		c0.09-0.87,0.92-1.59,1.8-1.61c0.02,0,0.04,0,0.06,0C6.43,0.12,7.22,0.12,8,0.12C8,0.12,8,0.12,8,0.12z"/>
</g>
</svg>
